G04 #@! TF.GenerationSoftware,KiCad,Pcbnew,(5.1.5-0)*
G04 #@! TF.CreationDate,2021-08-24T11:58:41-06:00*
G04 #@! TF.ProjectId,2ch-ads,3263682d-6164-4732-9e6b-696361645f70,rev?*
G04 #@! TF.SameCoordinates,Original*
G04 #@! TF.FileFunction,Other,User*
%FSLAX46Y46*%
G04 Gerber Fmt 4.6, Leading zero omitted, Abs format (unit mm)*
G04 Created by KiCad (PCBNEW (5.1.5-0)) date 2021-08-24 11:58:41*
%MOMM*%
%LPD*%
G04 APERTURE LIST*
%ADD10C,0.050000*%
G04 APERTURE END LIST*
D10*
X108125000Y-99520000D02*
X111425000Y-99520000D01*
X108125000Y-100980000D02*
X108125000Y-99520000D01*
X111425000Y-100980000D02*
X108125000Y-100980000D01*
X111425000Y-99520000D02*
X111425000Y-100980000D01*
X136450000Y-83150000D02*
X143850000Y-83150000D01*
X136450000Y-77750000D02*
X136450000Y-83150000D01*
X143850000Y-77750000D02*
X136450000Y-77750000D01*
X143850000Y-83150000D02*
X143850000Y-77750000D01*
X135880000Y-80675000D02*
X135880000Y-83975000D01*
X134420000Y-80675000D02*
X135880000Y-80675000D01*
X134420000Y-83975000D02*
X134420000Y-80675000D01*
X135880000Y-83975000D02*
X134420000Y-83975000D01*
X132880000Y-80675000D02*
X132880000Y-83975000D01*
X131420000Y-80675000D02*
X132880000Y-80675000D01*
X131420000Y-83975000D02*
X131420000Y-80675000D01*
X132880000Y-83975000D02*
X131420000Y-83975000D01*
X154480000Y-79275000D02*
X154480000Y-82575000D01*
X153020000Y-79275000D02*
X154480000Y-79275000D01*
X153020000Y-82575000D02*
X153020000Y-79275000D01*
X154480000Y-82575000D02*
X153020000Y-82575000D01*
X147280000Y-78475000D02*
X147280000Y-81775000D01*
X145820000Y-78475000D02*
X147280000Y-78475000D01*
X145820000Y-81775000D02*
X145820000Y-78475000D01*
X147280000Y-81775000D02*
X145820000Y-81775000D01*
X152750000Y-84150000D02*
X152750000Y-76350000D01*
X147550000Y-84150000D02*
X152750000Y-84150000D01*
X147550000Y-76350000D02*
X147550000Y-84150000D01*
X152750000Y-76350000D02*
X147550000Y-76350000D01*
X116350000Y-86200000D02*
X116350000Y-94100000D01*
X122050000Y-86200000D02*
X122050000Y-94100000D01*
X122050000Y-94100000D02*
X116350000Y-94100000D01*
X122050000Y-86200000D02*
X116350000Y-86200000D01*
X116150000Y-104500000D02*
X116150000Y-112400000D01*
X121850000Y-104500000D02*
X121850000Y-112400000D01*
X121850000Y-112400000D02*
X116150000Y-112400000D01*
X121850000Y-104500000D02*
X116150000Y-104500000D01*
X136375000Y-83720000D02*
X139675000Y-83720000D01*
X136375000Y-85180000D02*
X136375000Y-83720000D01*
X139675000Y-85180000D02*
X136375000Y-85180000D01*
X139675000Y-83720000D02*
X139675000Y-85180000D01*
X144925000Y-85180000D02*
X141625000Y-85180000D01*
X144925000Y-83720000D02*
X144925000Y-85180000D01*
X141625000Y-83720000D02*
X144925000Y-83720000D01*
X141625000Y-85180000D02*
X141625000Y-83720000D01*
X118650000Y-97230000D02*
X115350000Y-97230000D01*
X118650000Y-95770000D02*
X118650000Y-97230000D01*
X115350000Y-95770000D02*
X118650000Y-95770000D01*
X115350000Y-97230000D02*
X115350000Y-95770000D01*
X122575000Y-96180000D02*
X119275000Y-96180000D01*
X122575000Y-94720000D02*
X122575000Y-96180000D01*
X119275000Y-94720000D02*
X122575000Y-94720000D01*
X119275000Y-96180000D02*
X119275000Y-94720000D01*
X116080000Y-91325000D02*
X116080000Y-94625000D01*
X114620000Y-91325000D02*
X116080000Y-91325000D01*
X114620000Y-94625000D02*
X114620000Y-91325000D01*
X116080000Y-94625000D02*
X114620000Y-94625000D01*
X113720000Y-91125000D02*
X113720000Y-87825000D01*
X115180000Y-91125000D02*
X113720000Y-91125000D01*
X115180000Y-87825000D02*
X115180000Y-91125000D01*
X113720000Y-87825000D02*
X115180000Y-87825000D01*
X112020000Y-93625000D02*
X112020000Y-90325000D01*
X113480000Y-93625000D02*
X112020000Y-93625000D01*
X113480000Y-90325000D02*
X113480000Y-93625000D01*
X112020000Y-90325000D02*
X113480000Y-90325000D01*
X112020000Y-88925000D02*
X112020000Y-85625000D01*
X113480000Y-88925000D02*
X112020000Y-88925000D01*
X113480000Y-85625000D02*
X113480000Y-88925000D01*
X112020000Y-85625000D02*
X113480000Y-85625000D01*
X119225000Y-116480000D02*
X115925000Y-116480000D01*
X119225000Y-115020000D02*
X119225000Y-116480000D01*
X115925000Y-115020000D02*
X119225000Y-115020000D01*
X115925000Y-116480000D02*
X115925000Y-115020000D01*
X122225000Y-114280000D02*
X118925000Y-114280000D01*
X122225000Y-112820000D02*
X122225000Y-114280000D01*
X118925000Y-112820000D02*
X122225000Y-112820000D01*
X118925000Y-114280000D02*
X118925000Y-112820000D01*
X115880000Y-109625000D02*
X115880000Y-112925000D01*
X114420000Y-109625000D02*
X115880000Y-109625000D01*
X114420000Y-112925000D02*
X114420000Y-109625000D01*
X115880000Y-112925000D02*
X114420000Y-112925000D01*
X113520000Y-109425000D02*
X113520000Y-106125000D01*
X114980000Y-109425000D02*
X113520000Y-109425000D01*
X114980000Y-106125000D02*
X114980000Y-109425000D01*
X113520000Y-106125000D02*
X114980000Y-106125000D01*
X111820000Y-111925000D02*
X111820000Y-108625000D01*
X113280000Y-111925000D02*
X111820000Y-111925000D01*
X113280000Y-108625000D02*
X113280000Y-111925000D01*
X111820000Y-108625000D02*
X113280000Y-108625000D01*
X111820000Y-107225000D02*
X111820000Y-103925000D01*
X113280000Y-107225000D02*
X111820000Y-107225000D01*
X113280000Y-103925000D02*
X113280000Y-107225000D01*
X111820000Y-103925000D02*
X113280000Y-103925000D01*
X157212500Y-109900000D02*
X152312500Y-109900000D01*
X157212500Y-106600000D02*
X157212500Y-109900000D01*
X152312500Y-106600000D02*
X157212500Y-106600000D01*
X152312500Y-109900000D02*
X152312500Y-106600000D01*
X136560000Y-122140000D02*
X136560000Y-117360000D01*
X141340000Y-122140000D02*
X141340000Y-117360000D01*
X136560000Y-117360000D02*
X141340000Y-117360000D01*
X136560000Y-122140000D02*
X141340000Y-122140000D01*
X164925000Y-89420000D02*
X168225000Y-89420000D01*
X164925000Y-90880000D02*
X164925000Y-89420000D01*
X168225000Y-90880000D02*
X164925000Y-90880000D01*
X168225000Y-89420000D02*
X168225000Y-90880000D01*
X164800000Y-87620000D02*
X168100000Y-87620000D01*
X164800000Y-89080000D02*
X164800000Y-87620000D01*
X168100000Y-89080000D02*
X164800000Y-89080000D01*
X168100000Y-87620000D02*
X168100000Y-89080000D01*
X140200000Y-113400000D02*
X140200000Y-116700000D01*
X140200000Y-113400000D02*
X137700000Y-113400000D01*
X137700000Y-116700000D02*
X140200000Y-116700000D01*
X137700000Y-116700000D02*
X137700000Y-113400000D01*
X141700000Y-112800000D02*
X138400000Y-112800000D01*
X141700000Y-112800000D02*
X141700000Y-110300000D01*
X138400000Y-110300000D02*
X138400000Y-112800000D01*
X138400000Y-110300000D02*
X141700000Y-110300000D01*
X106690000Y-84270000D02*
X106690000Y-79490000D01*
X111470000Y-84270000D02*
X111470000Y-79490000D01*
X106690000Y-79490000D02*
X111470000Y-79490000D01*
X106690000Y-84270000D02*
X111470000Y-84270000D01*
X107060000Y-118840000D02*
X107060000Y-114060000D01*
X111840000Y-118840000D02*
X111840000Y-114060000D01*
X107060000Y-114060000D02*
X111840000Y-114060000D01*
X107060000Y-118840000D02*
X111840000Y-118840000D01*
X160600000Y-98720000D02*
X163900000Y-98720000D01*
X160600000Y-100180000D02*
X160600000Y-98720000D01*
X163900000Y-100180000D02*
X160600000Y-100180000D01*
X163900000Y-98720000D02*
X163900000Y-100180000D01*
X168275000Y-100480000D02*
X164975000Y-100480000D01*
X168275000Y-99020000D02*
X168275000Y-100480000D01*
X164975000Y-99020000D02*
X168275000Y-99020000D01*
X164975000Y-100480000D02*
X164975000Y-99020000D01*
X160050000Y-98450000D02*
X167450000Y-98450000D01*
X160050000Y-93050000D02*
X160050000Y-98450000D01*
X167450000Y-93050000D02*
X160050000Y-93050000D01*
X167450000Y-98450000D02*
X167450000Y-93050000D01*
X147750000Y-108400000D02*
X147750000Y-112000000D01*
X143950000Y-108400000D02*
X147750000Y-108400000D01*
X143950000Y-112000000D02*
X143950000Y-108400000D01*
X147750000Y-112000000D02*
X143950000Y-112000000D01*
X147650000Y-113060000D02*
X147650000Y-116660000D01*
X143850000Y-113060000D02*
X147650000Y-113060000D01*
X143850000Y-116660000D02*
X143850000Y-113060000D01*
X147650000Y-116660000D02*
X143850000Y-116660000D01*
X152725000Y-111020000D02*
X156025000Y-111020000D01*
X152725000Y-112480000D02*
X152725000Y-111020000D01*
X156025000Y-112480000D02*
X152725000Y-112480000D01*
X156025000Y-111020000D02*
X156025000Y-112480000D01*
X162300000Y-106170000D02*
X167200000Y-106170000D01*
X162300000Y-109330000D02*
X162300000Y-106170000D01*
X167200000Y-109330000D02*
X162300000Y-109330000D01*
X167200000Y-106170000D02*
X167200000Y-109330000D01*
X169150000Y-100280000D02*
X174350000Y-100280000D01*
X174350000Y-100280000D02*
X174350000Y-92480000D01*
X174350000Y-92480000D02*
X169150000Y-92480000D01*
X169150000Y-92480000D02*
X169150000Y-100280000D01*
X174350000Y-84350000D02*
X169150000Y-84350000D01*
X169150000Y-84350000D02*
X169150000Y-92150000D01*
X169150000Y-92150000D02*
X174350000Y-92150000D01*
X174350000Y-92150000D02*
X174350000Y-84350000D01*
X143480000Y-108725000D02*
X143480000Y-112025000D01*
X142020000Y-108725000D02*
X143480000Y-108725000D01*
X142020000Y-112025000D02*
X142020000Y-108725000D01*
X143480000Y-112025000D02*
X142020000Y-112025000D01*
X143480000Y-113100000D02*
X143480000Y-116400000D01*
X142020000Y-113100000D02*
X143480000Y-113100000D01*
X142020000Y-116400000D02*
X142020000Y-113100000D01*
X143480000Y-116400000D02*
X142020000Y-116400000D01*
X150480000Y-112975000D02*
X150480000Y-116275000D01*
X149020000Y-112975000D02*
X150480000Y-112975000D01*
X149020000Y-116275000D02*
X149020000Y-112975000D01*
X150480000Y-116275000D02*
X149020000Y-116275000D01*
X150480000Y-108475000D02*
X150480000Y-111775000D01*
X149020000Y-108475000D02*
X150480000Y-108475000D01*
X149020000Y-111775000D02*
X149020000Y-108475000D01*
X150480000Y-111775000D02*
X149020000Y-111775000D01*
X167870000Y-109812500D02*
X167870000Y-114712500D01*
X165630000Y-109812500D02*
X167870000Y-109812500D01*
X165630000Y-114712500D02*
X165630000Y-109812500D01*
X167870000Y-114712500D02*
X165630000Y-114712500D01*
X167200000Y-105870000D02*
X162300000Y-105870000D01*
X167200000Y-103630000D02*
X167200000Y-105870000D01*
X162300000Y-103630000D02*
X167200000Y-103630000D01*
X162300000Y-105870000D02*
X162300000Y-103630000D01*
X159405000Y-96150000D02*
X159405000Y-99450000D01*
X157945000Y-96150000D02*
X159405000Y-96150000D01*
X157945000Y-99450000D02*
X157945000Y-96150000D01*
X159405000Y-99450000D02*
X157945000Y-99450000D01*
X159400000Y-95480000D02*
X156100000Y-95480000D01*
X159400000Y-94020000D02*
X159400000Y-95480000D01*
X156100000Y-94020000D02*
X159400000Y-94020000D01*
X156100000Y-95480000D02*
X156100000Y-94020000D01*
X174970000Y-115580000D02*
X168370000Y-115580000D01*
X168370000Y-103550000D02*
X168370000Y-115580000D01*
X174970000Y-103550000D02*
X168370000Y-103550000D01*
X174970000Y-103550000D02*
X174970000Y-115580000D01*
X152650000Y-116400000D02*
X152650000Y-112900000D01*
X156050000Y-116400000D02*
X152650000Y-116400000D01*
X156050000Y-112900000D02*
X156050000Y-116400000D01*
X152650000Y-112900000D02*
X156050000Y-112900000D01*
X158700000Y-114750000D02*
X162000000Y-114750000D01*
X158700000Y-114750000D02*
X158700000Y-117250000D01*
X162000000Y-117250000D02*
X162000000Y-114750000D01*
X162000000Y-117250000D02*
X158700000Y-117250000D01*
X152950000Y-91200000D02*
X152950000Y-84300000D01*
X158450000Y-91200000D02*
X152950000Y-91200000D01*
X158450000Y-84300000D02*
X158450000Y-91200000D01*
X152950000Y-84300000D02*
X158450000Y-84300000D01*
X145850000Y-91250000D02*
X145850000Y-84350000D01*
X151350000Y-91250000D02*
X145850000Y-91250000D01*
X151350000Y-84350000D02*
X151350000Y-91250000D01*
X145850000Y-84350000D02*
X151350000Y-84350000D01*
X159800000Y-105350000D02*
X161700000Y-105350000D01*
X161700000Y-105350000D02*
X161700000Y-102150000D01*
X159800000Y-102150000D02*
X161700000Y-102150000D01*
X159800000Y-105350000D02*
X159800000Y-102150000D01*
X151650000Y-95600000D02*
X151650000Y-93700000D01*
X151650000Y-93700000D02*
X148450000Y-93700000D01*
X148450000Y-95600000D02*
X148450000Y-93700000D01*
X151650000Y-95600000D02*
X148450000Y-95600000D01*
X160070000Y-114300000D02*
X160070000Y-111000000D01*
X161530000Y-114300000D02*
X160070000Y-114300000D01*
X161530000Y-111000000D02*
X161530000Y-114300000D01*
X160070000Y-111000000D02*
X161530000Y-111000000D01*
X158270000Y-114300000D02*
X158270000Y-111000000D01*
X159730000Y-114300000D02*
X158270000Y-114300000D01*
X159730000Y-111000000D02*
X159730000Y-114300000D01*
X158270000Y-111000000D02*
X159730000Y-111000000D01*
X117175000Y-97500000D02*
X120875000Y-97500000D01*
X117175000Y-99400000D02*
X117175000Y-97500000D01*
X120875000Y-99400000D02*
X117175000Y-99400000D01*
X120875000Y-97500000D02*
X120875000Y-99400000D01*
X119525000Y-115025000D02*
X123225000Y-115025000D01*
X119525000Y-116925000D02*
X119525000Y-115025000D01*
X123225000Y-116925000D02*
X119525000Y-116925000D01*
X123225000Y-115025000D02*
X123225000Y-116925000D01*
X108318000Y-90270000D02*
X111618000Y-90270000D01*
X108318000Y-91730000D02*
X108318000Y-90270000D01*
X111618000Y-91730000D02*
X108318000Y-91730000D01*
X111618000Y-90270000D02*
X111618000Y-91730000D01*
X108286000Y-87520000D02*
X111586000Y-87520000D01*
X108286000Y-88980000D02*
X108286000Y-87520000D01*
X111586000Y-88980000D02*
X108286000Y-88980000D01*
X111586000Y-87520000D02*
X111586000Y-88980000D01*
X111618000Y-96230000D02*
X108318000Y-96230000D01*
X111618000Y-94770000D02*
X111618000Y-96230000D01*
X108318000Y-94770000D02*
X111618000Y-94770000D01*
X108318000Y-96230000D02*
X108318000Y-94770000D01*
X108118000Y-108570000D02*
X111418000Y-108570000D01*
X108118000Y-110030000D02*
X108118000Y-108570000D01*
X111418000Y-110030000D02*
X108118000Y-110030000D01*
X111418000Y-108570000D02*
X111418000Y-110030000D01*
X108086000Y-105820000D02*
X111386000Y-105820000D01*
X108086000Y-107280000D02*
X108086000Y-105820000D01*
X111386000Y-107280000D02*
X108086000Y-107280000D01*
X111386000Y-105820000D02*
X111386000Y-107280000D01*
X111400000Y-105280000D02*
X108100000Y-105280000D01*
X111400000Y-103820000D02*
X111400000Y-105280000D01*
X108100000Y-103820000D02*
X111400000Y-103820000D01*
X108100000Y-105280000D02*
X108100000Y-103820000D01*
X111650000Y-86980000D02*
X108350000Y-86980000D01*
X111650000Y-85520000D02*
X111650000Y-86980000D01*
X108350000Y-85520000D02*
X111650000Y-85520000D01*
X108350000Y-86980000D02*
X108350000Y-85520000D01*
X106043000Y-85091000D02*
X106043000Y-115571000D01*
X106043000Y-85091000D02*
X92873000Y-85091000D01*
X92873000Y-115571000D02*
X106043000Y-115571000D01*
X92873000Y-115571000D02*
X92873000Y-85091000D01*
X100750000Y-79000000D02*
G75*
G03X100750000Y-79000000I-3750000J0D01*
G01*
X174750000Y-79000000D02*
G75*
G03X174750000Y-79000000I-3750000J0D01*
G01*
X100750000Y-121000000D02*
G75*
G03X100750000Y-121000000I-3750000J0D01*
G01*
X174750000Y-121000000D02*
G75*
G03X174750000Y-121000000I-3750000J0D01*
G01*
M02*
