M48
; DRILL file {KiCad (5.1.5-0)} date Thursday, February 24, 2022 at 02:37:56 PM
; FORMAT={-:-/ absolute / metric / decimal}
; #@! TF.CreationDate,2022-02-24T14:37:56-07:00
; #@! TF.GenerationSoftware,Kicad,Pcbnew,(5.1.5-0)
; #@! TF.FileFunction,Plated,1,2,PTH
FMAT,2
METRIC
T1C0.400
T2C0.700
T3C0.750
T4C1.000
T5C1.300
%
G90
G05
T1
X114.0Y-64.4
X116.5Y-53.0
X117.6Y-108.4
X120.8Y-70.3
X120.9Y-74.6
X122.7Y-109.7
X122.7Y-116.5
X125.6Y-73.3
X138.2Y-52.2
X142.0Y-109.8
X142.1Y-104.7
X146.8Y-106.2
X146.8Y-112.7
X146.9Y-89.4
X148.4Y-107.7
X148.4Y-112.7
X154.3Y-86.3
X157.1Y-104.1
X158.8Y-84.5
X162.3Y-89.4
X162.5Y-72.7
X163.8Y-69.2
X168.0Y-64.6
T2
X177.5Y-77.55
X177.5Y-79.05
X177.5Y-80.55
X177.5Y-82.05
X177.5Y-83.55
X177.5Y-85.05
T3
X175.2Y-69.8
X175.2Y-71.8
T4
X123.0Y-93.6
X123.0Y-96.14
X168.1Y-69.66
X168.1Y-72.2
X132.7Y-60.26
X132.7Y-62.8
X171.9Y-81.9
X171.9Y-84.44
X171.9Y-86.98
X171.9Y-89.52
X171.9Y-92.06
X171.9Y-94.6
X171.9Y-97.14
X121.8Y-52.6
X124.34Y-52.6
X126.88Y-52.6
X113.96Y-71.1
X116.5Y-71.1
X173.76Y-64.6
X176.3Y-64.6
X115.5Y-92.3
X115.5Y-94.84
X137.8Y-82.4
X137.8Y-84.94
X138.4Y-104.5
X138.4Y-107.04
X114.6Y-108.2
X114.6Y-110.74
X153.4Y-55.4
X153.4Y-57.94
X153.4Y-60.48
X158.5Y-60.0
X158.5Y-62.54
X158.5Y-65.08
X127.6Y-73.4
X130.14Y-73.4
X132.68Y-73.4
X126.2Y-108.2
X126.2Y-110.74
X127.0Y-88.1
X127.0Y-90.64
X127.1Y-81.3
X127.1Y-83.84
X159.3Y-107.1
X159.3Y-109.64
T5
X115.7Y-82.2
X115.7Y-87.28
T2
X173.124Y-52.68G85X173.826Y-52.68
G05
X173.124Y-61.32G85X173.826Y-61.32
G05
X176.924Y-52.68G85X177.625Y-52.68
G05
X176.924Y-61.32G85X177.625Y-61.32
G05
T0
M30
