G04 #@! TF.GenerationSoftware,KiCad,Pcbnew,(5.1.5-0)*
G04 #@! TF.CreationDate,2022-02-24T14:37:53-07:00*
G04 #@! TF.ProjectId,adc_preamp,6164635f-7072-4656-916d-702e6b696361,rev?*
G04 #@! TF.SameCoordinates,Original*
G04 #@! TF.FileFunction,Soldermask,Bot*
G04 #@! TF.FilePolarity,Negative*
%FSLAX46Y46*%
G04 Gerber Fmt 4.6, Leading zero omitted, Abs format (unit mm)*
G04 Created by KiCad (PCBNEW (5.1.5-0)) date 2022-02-24 14:37:53*
%MOMM*%
%LPD*%
G04 APERTURE LIST*
%ADD10C,0.100000*%
G04 APERTURE END LIST*
D10*
G36*
X126313512Y-109843927D02*
G01*
X126462812Y-109873624D01*
X126626784Y-109941544D01*
X126774354Y-110040147D01*
X126899853Y-110165646D01*
X126998456Y-110313216D01*
X127066376Y-110477188D01*
X127101000Y-110651259D01*
X127101000Y-110828741D01*
X127066376Y-111002812D01*
X126998456Y-111166784D01*
X126899853Y-111314354D01*
X126774354Y-111439853D01*
X126626784Y-111538456D01*
X126462812Y-111606376D01*
X126313512Y-111636073D01*
X126288742Y-111641000D01*
X126111258Y-111641000D01*
X126086488Y-111636073D01*
X125937188Y-111606376D01*
X125773216Y-111538456D01*
X125625646Y-111439853D01*
X125500147Y-111314354D01*
X125401544Y-111166784D01*
X125333624Y-111002812D01*
X125299000Y-110828741D01*
X125299000Y-110651259D01*
X125333624Y-110477188D01*
X125401544Y-110313216D01*
X125500147Y-110165646D01*
X125625646Y-110040147D01*
X125773216Y-109941544D01*
X125937188Y-109873624D01*
X126086488Y-109843927D01*
X126111258Y-109839000D01*
X126288742Y-109839000D01*
X126313512Y-109843927D01*
G37*
G36*
X114713512Y-109843927D02*
G01*
X114862812Y-109873624D01*
X115026784Y-109941544D01*
X115174354Y-110040147D01*
X115299853Y-110165646D01*
X115398456Y-110313216D01*
X115466376Y-110477188D01*
X115501000Y-110651259D01*
X115501000Y-110828741D01*
X115466376Y-111002812D01*
X115398456Y-111166784D01*
X115299853Y-111314354D01*
X115174354Y-111439853D01*
X115026784Y-111538456D01*
X114862812Y-111606376D01*
X114713512Y-111636073D01*
X114688742Y-111641000D01*
X114511258Y-111641000D01*
X114486488Y-111636073D01*
X114337188Y-111606376D01*
X114173216Y-111538456D01*
X114025646Y-111439853D01*
X113900147Y-111314354D01*
X113801544Y-111166784D01*
X113733624Y-111002812D01*
X113699000Y-110828741D01*
X113699000Y-110651259D01*
X113733624Y-110477188D01*
X113801544Y-110313216D01*
X113900147Y-110165646D01*
X114025646Y-110040147D01*
X114173216Y-109941544D01*
X114337188Y-109873624D01*
X114486488Y-109843927D01*
X114511258Y-109839000D01*
X114688742Y-109839000D01*
X114713512Y-109843927D01*
G37*
G36*
X159413512Y-108743927D02*
G01*
X159562812Y-108773624D01*
X159726784Y-108841544D01*
X159874354Y-108940147D01*
X159999853Y-109065646D01*
X160098456Y-109213216D01*
X160166376Y-109377188D01*
X160201000Y-109551259D01*
X160201000Y-109728741D01*
X160166376Y-109902812D01*
X160098456Y-110066784D01*
X159999853Y-110214354D01*
X159874354Y-110339853D01*
X159726784Y-110438456D01*
X159562812Y-110506376D01*
X159413512Y-110536073D01*
X159388742Y-110541000D01*
X159211258Y-110541000D01*
X159186488Y-110536073D01*
X159037188Y-110506376D01*
X158873216Y-110438456D01*
X158725646Y-110339853D01*
X158600147Y-110214354D01*
X158501544Y-110066784D01*
X158433624Y-109902812D01*
X158399000Y-109728741D01*
X158399000Y-109551259D01*
X158433624Y-109377188D01*
X158501544Y-109213216D01*
X158600147Y-109065646D01*
X158725646Y-108940147D01*
X158873216Y-108841544D01*
X159037188Y-108773624D01*
X159186488Y-108743927D01*
X159211258Y-108739000D01*
X159388742Y-108739000D01*
X159413512Y-108743927D01*
G37*
G36*
X127101000Y-109101000D02*
G01*
X125299000Y-109101000D01*
X125299000Y-107299000D01*
X127101000Y-107299000D01*
X127101000Y-109101000D01*
G37*
G36*
X115501000Y-109101000D02*
G01*
X113699000Y-109101000D01*
X113699000Y-107299000D01*
X115501000Y-107299000D01*
X115501000Y-109101000D01*
G37*
G36*
X160201000Y-108001000D02*
G01*
X158399000Y-108001000D01*
X158399000Y-106199000D01*
X160201000Y-106199000D01*
X160201000Y-108001000D01*
G37*
G36*
X138513512Y-106143927D02*
G01*
X138662812Y-106173624D01*
X138826784Y-106241544D01*
X138974354Y-106340147D01*
X139099853Y-106465646D01*
X139198456Y-106613216D01*
X139266376Y-106777188D01*
X139301000Y-106951259D01*
X139301000Y-107128741D01*
X139266376Y-107302812D01*
X139198456Y-107466784D01*
X139099853Y-107614354D01*
X138974354Y-107739853D01*
X138826784Y-107838456D01*
X138662812Y-107906376D01*
X138513512Y-107936073D01*
X138488742Y-107941000D01*
X138311258Y-107941000D01*
X138286488Y-107936073D01*
X138137188Y-107906376D01*
X137973216Y-107838456D01*
X137825646Y-107739853D01*
X137700147Y-107614354D01*
X137601544Y-107466784D01*
X137533624Y-107302812D01*
X137499000Y-107128741D01*
X137499000Y-106951259D01*
X137533624Y-106777188D01*
X137601544Y-106613216D01*
X137700147Y-106465646D01*
X137825646Y-106340147D01*
X137973216Y-106241544D01*
X138137188Y-106173624D01*
X138286488Y-106143927D01*
X138311258Y-106139000D01*
X138488742Y-106139000D01*
X138513512Y-106143927D01*
G37*
G36*
X139301000Y-105401000D02*
G01*
X137499000Y-105401000D01*
X137499000Y-103599000D01*
X139301000Y-103599000D01*
X139301000Y-105401000D01*
G37*
G36*
X172013512Y-96243927D02*
G01*
X172162812Y-96273624D01*
X172326784Y-96341544D01*
X172474354Y-96440147D01*
X172599853Y-96565646D01*
X172698456Y-96713216D01*
X172766376Y-96877188D01*
X172792072Y-97006375D01*
X172798960Y-97041000D01*
X172801000Y-97051259D01*
X172801000Y-97228741D01*
X172766376Y-97402812D01*
X172698456Y-97566784D01*
X172599853Y-97714354D01*
X172474354Y-97839853D01*
X172326784Y-97938456D01*
X172162812Y-98006376D01*
X172013512Y-98036073D01*
X171988742Y-98041000D01*
X171811258Y-98041000D01*
X171786488Y-98036073D01*
X171637188Y-98006376D01*
X171473216Y-97938456D01*
X171325646Y-97839853D01*
X171200147Y-97714354D01*
X171101544Y-97566784D01*
X171033624Y-97402812D01*
X170999000Y-97228741D01*
X170999000Y-97051259D01*
X171001041Y-97041000D01*
X171007928Y-97006375D01*
X171033624Y-96877188D01*
X171101544Y-96713216D01*
X171200147Y-96565646D01*
X171325646Y-96440147D01*
X171473216Y-96341544D01*
X171637188Y-96273624D01*
X171786488Y-96243927D01*
X171811258Y-96239000D01*
X171988742Y-96239000D01*
X172013512Y-96243927D01*
G37*
G36*
X123113512Y-95243927D02*
G01*
X123262812Y-95273624D01*
X123426784Y-95341544D01*
X123574354Y-95440147D01*
X123699853Y-95565646D01*
X123798456Y-95713216D01*
X123866376Y-95877188D01*
X123896073Y-96026488D01*
X123901000Y-96051258D01*
X123901000Y-96228742D01*
X123896073Y-96253512D01*
X123866376Y-96402812D01*
X123798456Y-96566784D01*
X123699853Y-96714354D01*
X123574354Y-96839853D01*
X123426784Y-96938456D01*
X123262812Y-97006376D01*
X123113512Y-97036073D01*
X123088742Y-97041000D01*
X122911258Y-97041000D01*
X122886488Y-97036073D01*
X122737188Y-97006376D01*
X122573216Y-96938456D01*
X122425646Y-96839853D01*
X122300147Y-96714354D01*
X122201544Y-96566784D01*
X122133624Y-96402812D01*
X122103927Y-96253512D01*
X122099000Y-96228742D01*
X122099000Y-96051258D01*
X122103927Y-96026488D01*
X122133624Y-95877188D01*
X122201544Y-95713216D01*
X122300147Y-95565646D01*
X122425646Y-95440147D01*
X122573216Y-95341544D01*
X122737188Y-95273624D01*
X122886488Y-95243927D01*
X122911258Y-95239000D01*
X123088742Y-95239000D01*
X123113512Y-95243927D01*
G37*
G36*
X115613512Y-93943927D02*
G01*
X115762812Y-93973624D01*
X115926784Y-94041544D01*
X116074354Y-94140147D01*
X116199853Y-94265646D01*
X116298456Y-94413216D01*
X116366376Y-94577188D01*
X116401000Y-94751259D01*
X116401000Y-94928741D01*
X116366376Y-95102812D01*
X116298456Y-95266784D01*
X116199853Y-95414354D01*
X116074354Y-95539853D01*
X115926784Y-95638456D01*
X115762812Y-95706376D01*
X115613512Y-95736073D01*
X115588742Y-95741000D01*
X115411258Y-95741000D01*
X115386488Y-95736073D01*
X115237188Y-95706376D01*
X115073216Y-95638456D01*
X114925646Y-95539853D01*
X114800147Y-95414354D01*
X114701544Y-95266784D01*
X114633624Y-95102812D01*
X114599000Y-94928741D01*
X114599000Y-94751259D01*
X114633624Y-94577188D01*
X114701544Y-94413216D01*
X114800147Y-94265646D01*
X114925646Y-94140147D01*
X115073216Y-94041544D01*
X115237188Y-93973624D01*
X115386488Y-93943927D01*
X115411258Y-93939000D01*
X115588742Y-93939000D01*
X115613512Y-93943927D01*
G37*
G36*
X172013512Y-93703927D02*
G01*
X172162812Y-93733624D01*
X172326784Y-93801544D01*
X172474354Y-93900147D01*
X172599853Y-94025646D01*
X172698456Y-94173216D01*
X172766376Y-94337188D01*
X172796073Y-94486488D01*
X172798960Y-94501000D01*
X172801000Y-94511259D01*
X172801000Y-94688741D01*
X172766376Y-94862812D01*
X172698456Y-95026784D01*
X172599853Y-95174354D01*
X172474354Y-95299853D01*
X172326784Y-95398456D01*
X172162812Y-95466376D01*
X172013512Y-95496073D01*
X171988742Y-95501000D01*
X171811258Y-95501000D01*
X171786488Y-95496073D01*
X171637188Y-95466376D01*
X171473216Y-95398456D01*
X171325646Y-95299853D01*
X171200147Y-95174354D01*
X171101544Y-95026784D01*
X171033624Y-94862812D01*
X170999000Y-94688741D01*
X170999000Y-94511259D01*
X171001041Y-94501000D01*
X171003927Y-94486488D01*
X171033624Y-94337188D01*
X171101544Y-94173216D01*
X171200147Y-94025646D01*
X171325646Y-93900147D01*
X171473216Y-93801544D01*
X171637188Y-93733624D01*
X171786488Y-93703927D01*
X171811258Y-93699000D01*
X171988742Y-93699000D01*
X172013512Y-93703927D01*
G37*
G36*
X123901000Y-94501000D02*
G01*
X122099000Y-94501000D01*
X122099000Y-92699000D01*
X123901000Y-92699000D01*
X123901000Y-94501000D01*
G37*
G36*
X116401000Y-93201000D02*
G01*
X114599000Y-93201000D01*
X114599000Y-91399000D01*
X116401000Y-91399000D01*
X116401000Y-93201000D01*
G37*
G36*
X172013512Y-91163927D02*
G01*
X172162812Y-91193624D01*
X172326784Y-91261544D01*
X172474354Y-91360147D01*
X172599853Y-91485646D01*
X172698456Y-91633216D01*
X172766376Y-91797188D01*
X172801000Y-91971259D01*
X172801000Y-92148741D01*
X172766376Y-92322812D01*
X172698456Y-92486784D01*
X172599853Y-92634354D01*
X172474354Y-92759853D01*
X172326784Y-92858456D01*
X172162812Y-92926376D01*
X172013512Y-92956073D01*
X171988742Y-92961000D01*
X171811258Y-92961000D01*
X171786488Y-92956073D01*
X171637188Y-92926376D01*
X171473216Y-92858456D01*
X171325646Y-92759853D01*
X171200147Y-92634354D01*
X171101544Y-92486784D01*
X171033624Y-92322812D01*
X170999000Y-92148741D01*
X170999000Y-91971259D01*
X171033624Y-91797188D01*
X171101544Y-91633216D01*
X171200147Y-91485646D01*
X171325646Y-91360147D01*
X171473216Y-91261544D01*
X171637188Y-91193624D01*
X171786488Y-91163927D01*
X171811258Y-91159000D01*
X171988742Y-91159000D01*
X172013512Y-91163927D01*
G37*
G36*
X127113512Y-89743927D02*
G01*
X127262812Y-89773624D01*
X127426784Y-89841544D01*
X127574354Y-89940147D01*
X127699853Y-90065646D01*
X127798456Y-90213216D01*
X127866376Y-90377188D01*
X127901000Y-90551259D01*
X127901000Y-90728741D01*
X127866376Y-90902812D01*
X127798456Y-91066784D01*
X127699853Y-91214354D01*
X127574354Y-91339853D01*
X127426784Y-91438456D01*
X127262812Y-91506376D01*
X127113512Y-91536073D01*
X127088742Y-91541000D01*
X126911258Y-91541000D01*
X126886488Y-91536073D01*
X126737188Y-91506376D01*
X126573216Y-91438456D01*
X126425646Y-91339853D01*
X126300147Y-91214354D01*
X126201544Y-91066784D01*
X126133624Y-90902812D01*
X126099000Y-90728741D01*
X126099000Y-90551259D01*
X126133624Y-90377188D01*
X126201544Y-90213216D01*
X126300147Y-90065646D01*
X126425646Y-89940147D01*
X126573216Y-89841544D01*
X126737188Y-89773624D01*
X126886488Y-89743927D01*
X126911258Y-89739000D01*
X127088742Y-89739000D01*
X127113512Y-89743927D01*
G37*
G36*
X172013512Y-88623927D02*
G01*
X172162812Y-88653624D01*
X172326784Y-88721544D01*
X172474354Y-88820147D01*
X172599853Y-88945646D01*
X172698456Y-89093216D01*
X172766376Y-89257188D01*
X172801000Y-89431259D01*
X172801000Y-89608741D01*
X172766376Y-89782812D01*
X172698456Y-89946784D01*
X172599853Y-90094354D01*
X172474354Y-90219853D01*
X172326784Y-90318456D01*
X172162812Y-90386376D01*
X172013512Y-90416073D01*
X171988742Y-90421000D01*
X171811258Y-90421000D01*
X171786488Y-90416073D01*
X171637188Y-90386376D01*
X171473216Y-90318456D01*
X171325646Y-90219853D01*
X171200147Y-90094354D01*
X171101544Y-89946784D01*
X171033624Y-89782812D01*
X170999000Y-89608741D01*
X170999000Y-89431259D01*
X171033624Y-89257188D01*
X171101544Y-89093216D01*
X171200147Y-88945646D01*
X171325646Y-88820147D01*
X171473216Y-88721544D01*
X171637188Y-88653624D01*
X171786488Y-88623927D01*
X171811258Y-88619000D01*
X171988742Y-88619000D01*
X172013512Y-88623927D01*
G37*
G36*
X127901000Y-89001000D02*
G01*
X126099000Y-89001000D01*
X126099000Y-87199000D01*
X127901000Y-87199000D01*
X127901000Y-89001000D01*
G37*
G36*
X116094072Y-85980918D02*
G01*
X116339939Y-86082759D01*
X116561212Y-86230610D01*
X116749390Y-86418788D01*
X116897241Y-86640061D01*
X116999082Y-86885928D01*
X117051000Y-87146938D01*
X117051000Y-87413062D01*
X116999082Y-87674072D01*
X116897241Y-87919939D01*
X116749390Y-88141212D01*
X116561212Y-88329390D01*
X116339939Y-88477241D01*
X116339938Y-88477242D01*
X116339937Y-88477242D01*
X116094072Y-88579082D01*
X115833063Y-88631000D01*
X115566937Y-88631000D01*
X115305928Y-88579082D01*
X115060063Y-88477242D01*
X115060062Y-88477242D01*
X115060061Y-88477241D01*
X114838788Y-88329390D01*
X114650610Y-88141212D01*
X114502759Y-87919939D01*
X114400918Y-87674072D01*
X114349000Y-87413062D01*
X114349000Y-87146938D01*
X114400918Y-86885928D01*
X114502759Y-86640061D01*
X114650610Y-86418788D01*
X114838788Y-86230610D01*
X115060061Y-86082759D01*
X115305928Y-85980918D01*
X115566937Y-85929000D01*
X115833063Y-85929000D01*
X116094072Y-85980918D01*
G37*
G36*
X172007634Y-86082758D02*
G01*
X172162812Y-86113624D01*
X172326784Y-86181544D01*
X172474354Y-86280147D01*
X172599853Y-86405646D01*
X172698456Y-86553216D01*
X172766376Y-86717188D01*
X172801000Y-86891259D01*
X172801000Y-87068741D01*
X172766376Y-87242812D01*
X172698456Y-87406784D01*
X172599853Y-87554354D01*
X172474354Y-87679853D01*
X172326784Y-87778456D01*
X172162812Y-87846376D01*
X172013512Y-87876073D01*
X171988742Y-87881000D01*
X171811258Y-87881000D01*
X171786488Y-87876073D01*
X171637188Y-87846376D01*
X171473216Y-87778456D01*
X171325646Y-87679853D01*
X171200147Y-87554354D01*
X171101544Y-87406784D01*
X171033624Y-87242812D01*
X170999000Y-87068741D01*
X170999000Y-86891259D01*
X171033624Y-86717188D01*
X171101544Y-86553216D01*
X171200147Y-86405646D01*
X171325646Y-86280147D01*
X171473216Y-86181544D01*
X171637188Y-86113624D01*
X171792366Y-86082758D01*
X171811258Y-86079000D01*
X171988742Y-86079000D01*
X172007634Y-86082758D01*
G37*
G36*
X137913512Y-84043927D02*
G01*
X138062812Y-84073624D01*
X138226784Y-84141544D01*
X138374354Y-84240147D01*
X138499853Y-84365646D01*
X138598456Y-84513216D01*
X138666376Y-84677188D01*
X138701000Y-84851259D01*
X138701000Y-85028741D01*
X138666376Y-85202812D01*
X138598456Y-85366784D01*
X138499853Y-85514354D01*
X138374354Y-85639853D01*
X138226784Y-85738456D01*
X138062812Y-85806376D01*
X137913512Y-85836073D01*
X137888742Y-85841000D01*
X137711258Y-85841000D01*
X137686488Y-85836073D01*
X137537188Y-85806376D01*
X137373216Y-85738456D01*
X137225646Y-85639853D01*
X137100147Y-85514354D01*
X137001544Y-85366784D01*
X136933624Y-85202812D01*
X136899000Y-85028741D01*
X136899000Y-84851259D01*
X136933624Y-84677188D01*
X137001544Y-84513216D01*
X137100147Y-84365646D01*
X137225646Y-84240147D01*
X137373216Y-84141544D01*
X137537188Y-84073624D01*
X137686488Y-84043927D01*
X137711258Y-84039000D01*
X137888742Y-84039000D01*
X137913512Y-84043927D01*
G37*
G36*
X178155000Y-78205000D02*
G01*
X177799999Y-78205000D01*
X177775613Y-78207402D01*
X177752164Y-78214515D01*
X177730553Y-78226066D01*
X177711611Y-78241611D01*
X177696066Y-78260553D01*
X177684515Y-78282164D01*
X177677402Y-78305613D01*
X177675000Y-78329999D01*
X177677402Y-78354385D01*
X177684515Y-78377834D01*
X177696066Y-78399445D01*
X177711611Y-78418387D01*
X177730553Y-78433932D01*
X177752164Y-78445483D01*
X177810257Y-78469546D01*
X177810259Y-78469547D01*
X177917538Y-78541228D01*
X178008772Y-78632462D01*
X178080453Y-78739741D01*
X178080454Y-78739743D01*
X178129829Y-78858945D01*
X178155000Y-78985487D01*
X178155000Y-79114513D01*
X178129829Y-79241055D01*
X178080454Y-79360257D01*
X178080453Y-79360259D01*
X178008772Y-79467538D01*
X177917538Y-79558772D01*
X177810259Y-79630453D01*
X177810258Y-79630454D01*
X177810257Y-79630454D01*
X177679740Y-79684516D01*
X177658129Y-79696067D01*
X177639187Y-79711612D01*
X177623642Y-79730554D01*
X177612091Y-79752165D01*
X177604978Y-79775614D01*
X177602576Y-79800000D01*
X177604978Y-79824386D01*
X177612091Y-79847835D01*
X177623642Y-79869446D01*
X177639187Y-79888388D01*
X177658129Y-79903933D01*
X177679740Y-79915484D01*
X177810257Y-79969546D01*
X177810259Y-79969547D01*
X177917538Y-80041228D01*
X178008772Y-80132462D01*
X178080453Y-80239741D01*
X178080454Y-80239743D01*
X178129829Y-80358945D01*
X178155000Y-80485487D01*
X178155000Y-80614513D01*
X178129829Y-80741055D01*
X178085117Y-80849000D01*
X178080453Y-80860259D01*
X178008772Y-80967538D01*
X177917538Y-81058772D01*
X177810259Y-81130453D01*
X177810258Y-81130454D01*
X177810257Y-81130454D01*
X177679740Y-81184516D01*
X177658129Y-81196067D01*
X177639187Y-81211612D01*
X177623642Y-81230554D01*
X177612091Y-81252165D01*
X177604978Y-81275614D01*
X177602576Y-81300000D01*
X177604978Y-81324386D01*
X177612091Y-81347835D01*
X177623642Y-81369446D01*
X177639187Y-81388388D01*
X177658129Y-81403933D01*
X177679740Y-81415484D01*
X177810257Y-81469546D01*
X177810259Y-81469547D01*
X177917538Y-81541228D01*
X178008772Y-81632462D01*
X178080453Y-81739741D01*
X178080454Y-81739743D01*
X178129829Y-81858945D01*
X178155000Y-81985487D01*
X178155000Y-82114513D01*
X178129829Y-82241055D01*
X178080454Y-82360257D01*
X178080453Y-82360259D01*
X178008772Y-82467538D01*
X177917538Y-82558772D01*
X177810259Y-82630453D01*
X177810258Y-82630454D01*
X177810257Y-82630454D01*
X177679740Y-82684516D01*
X177658129Y-82696067D01*
X177639187Y-82711612D01*
X177623642Y-82730554D01*
X177612091Y-82752165D01*
X177604978Y-82775614D01*
X177602576Y-82800000D01*
X177604978Y-82824386D01*
X177612091Y-82847835D01*
X177623642Y-82869446D01*
X177639187Y-82888388D01*
X177658129Y-82903933D01*
X177679740Y-82915484D01*
X177810257Y-82969546D01*
X177810259Y-82969547D01*
X177917538Y-83041228D01*
X178008772Y-83132462D01*
X178080453Y-83239741D01*
X178080454Y-83239743D01*
X178129829Y-83358945D01*
X178155000Y-83485487D01*
X178155000Y-83614513D01*
X178129829Y-83741055D01*
X178125602Y-83751259D01*
X178080453Y-83860259D01*
X178008772Y-83967538D01*
X177917538Y-84058772D01*
X177810259Y-84130453D01*
X177810258Y-84130454D01*
X177810257Y-84130454D01*
X177679740Y-84184516D01*
X177658129Y-84196067D01*
X177639187Y-84211612D01*
X177623642Y-84230554D01*
X177612091Y-84252165D01*
X177604978Y-84275614D01*
X177602576Y-84300000D01*
X177604978Y-84324386D01*
X177612091Y-84347835D01*
X177623642Y-84369446D01*
X177639187Y-84388388D01*
X177658129Y-84403933D01*
X177679740Y-84415484D01*
X177810257Y-84469546D01*
X177810259Y-84469547D01*
X177917538Y-84541228D01*
X178008772Y-84632462D01*
X178058159Y-84706376D01*
X178080454Y-84739743D01*
X178129829Y-84858945D01*
X178155000Y-84985487D01*
X178155000Y-85114513D01*
X178129829Y-85241055D01*
X178102772Y-85306376D01*
X178080453Y-85360259D01*
X178008772Y-85467538D01*
X177917538Y-85558772D01*
X177810259Y-85630453D01*
X177810258Y-85630454D01*
X177810257Y-85630454D01*
X177691055Y-85679829D01*
X177564513Y-85705000D01*
X177435487Y-85705000D01*
X177308945Y-85679829D01*
X177189743Y-85630454D01*
X177189742Y-85630454D01*
X177189741Y-85630453D01*
X177082462Y-85558772D01*
X176991228Y-85467538D01*
X176919547Y-85360259D01*
X176897228Y-85306376D01*
X176870171Y-85241055D01*
X176845000Y-85114513D01*
X176845000Y-84985487D01*
X176870171Y-84858945D01*
X176919546Y-84739743D01*
X176941841Y-84706376D01*
X176991228Y-84632462D01*
X177082462Y-84541228D01*
X177189741Y-84469547D01*
X177189743Y-84469546D01*
X177320260Y-84415484D01*
X177341871Y-84403933D01*
X177360813Y-84388388D01*
X177376358Y-84369446D01*
X177387909Y-84347835D01*
X177395022Y-84324386D01*
X177397424Y-84300000D01*
X177395022Y-84275614D01*
X177387909Y-84252165D01*
X177376358Y-84230554D01*
X177360813Y-84211612D01*
X177341871Y-84196067D01*
X177320260Y-84184516D01*
X177189743Y-84130454D01*
X177189742Y-84130454D01*
X177189741Y-84130453D01*
X177082462Y-84058772D01*
X176991228Y-83967538D01*
X176919547Y-83860259D01*
X176874398Y-83751259D01*
X176870171Y-83741055D01*
X176845000Y-83614513D01*
X176845000Y-83485487D01*
X176870171Y-83358945D01*
X176919546Y-83239743D01*
X176919547Y-83239741D01*
X176991228Y-83132462D01*
X177082462Y-83041228D01*
X177189741Y-82969547D01*
X177189743Y-82969546D01*
X177320260Y-82915484D01*
X177341871Y-82903933D01*
X177360813Y-82888388D01*
X177376358Y-82869446D01*
X177387909Y-82847835D01*
X177395022Y-82824386D01*
X177397424Y-82800000D01*
X177395022Y-82775614D01*
X177387909Y-82752165D01*
X177376358Y-82730554D01*
X177360813Y-82711612D01*
X177341871Y-82696067D01*
X177320260Y-82684516D01*
X177189743Y-82630454D01*
X177189742Y-82630454D01*
X177189741Y-82630453D01*
X177082462Y-82558772D01*
X176991228Y-82467538D01*
X176919547Y-82360259D01*
X176919546Y-82360257D01*
X176870171Y-82241055D01*
X176845000Y-82114513D01*
X176845000Y-81985487D01*
X176870171Y-81858945D01*
X176919546Y-81739743D01*
X176919547Y-81739741D01*
X176991228Y-81632462D01*
X177082462Y-81541228D01*
X177189741Y-81469547D01*
X177189743Y-81469546D01*
X177320260Y-81415484D01*
X177341871Y-81403933D01*
X177360813Y-81388388D01*
X177376358Y-81369446D01*
X177387909Y-81347835D01*
X177395022Y-81324386D01*
X177397424Y-81300000D01*
X177395022Y-81275614D01*
X177387909Y-81252165D01*
X177376358Y-81230554D01*
X177360813Y-81211612D01*
X177341871Y-81196067D01*
X177320260Y-81184516D01*
X177189743Y-81130454D01*
X177189742Y-81130454D01*
X177189741Y-81130453D01*
X177082462Y-81058772D01*
X176991228Y-80967538D01*
X176919547Y-80860259D01*
X176914883Y-80849000D01*
X176870171Y-80741055D01*
X176845000Y-80614513D01*
X176845000Y-80485487D01*
X176870171Y-80358945D01*
X176919546Y-80239743D01*
X176919547Y-80239741D01*
X176991228Y-80132462D01*
X177082462Y-80041228D01*
X177189741Y-79969547D01*
X177189743Y-79969546D01*
X177320260Y-79915484D01*
X177341871Y-79903933D01*
X177360813Y-79888388D01*
X177376358Y-79869446D01*
X177387909Y-79847835D01*
X177395022Y-79824386D01*
X177397424Y-79800000D01*
X177395022Y-79775614D01*
X177387909Y-79752165D01*
X177376358Y-79730554D01*
X177360813Y-79711612D01*
X177341871Y-79696067D01*
X177320260Y-79684516D01*
X177189743Y-79630454D01*
X177189742Y-79630454D01*
X177189741Y-79630453D01*
X177082462Y-79558772D01*
X176991228Y-79467538D01*
X176919547Y-79360259D01*
X176919546Y-79360257D01*
X176870171Y-79241055D01*
X176845000Y-79114513D01*
X176845000Y-78985487D01*
X176870171Y-78858945D01*
X176919546Y-78739743D01*
X176919547Y-78739741D01*
X176991228Y-78632462D01*
X177082462Y-78541228D01*
X177189741Y-78469547D01*
X177189743Y-78469546D01*
X177247836Y-78445483D01*
X177269447Y-78433932D01*
X177288389Y-78418387D01*
X177303934Y-78399445D01*
X177315485Y-78377834D01*
X177322598Y-78354385D01*
X177325000Y-78329999D01*
X177322598Y-78305613D01*
X177315485Y-78282164D01*
X177303934Y-78260553D01*
X177288389Y-78241611D01*
X177269447Y-78226066D01*
X177247836Y-78214515D01*
X177224387Y-78207402D01*
X177200001Y-78205000D01*
X176845000Y-78205000D01*
X176845000Y-76895000D01*
X178155000Y-76895000D01*
X178155000Y-78205000D01*
G37*
G36*
X172013512Y-83543927D02*
G01*
X172162812Y-83573624D01*
X172326784Y-83641544D01*
X172474354Y-83740147D01*
X172599853Y-83865646D01*
X172698456Y-84013216D01*
X172766376Y-84177188D01*
X172801000Y-84351259D01*
X172801000Y-84528741D01*
X172766376Y-84702812D01*
X172698456Y-84866784D01*
X172599853Y-85014354D01*
X172474354Y-85139853D01*
X172326784Y-85238456D01*
X172162812Y-85306376D01*
X172013512Y-85336073D01*
X171988742Y-85341000D01*
X171811258Y-85341000D01*
X171786488Y-85336073D01*
X171637188Y-85306376D01*
X171473216Y-85238456D01*
X171325646Y-85139853D01*
X171200147Y-85014354D01*
X171101544Y-84866784D01*
X171033624Y-84702812D01*
X170999000Y-84528741D01*
X170999000Y-84351259D01*
X171033624Y-84177188D01*
X171101544Y-84013216D01*
X171200147Y-83865646D01*
X171325646Y-83740147D01*
X171473216Y-83641544D01*
X171637188Y-83573624D01*
X171786488Y-83543927D01*
X171811258Y-83539000D01*
X171988742Y-83539000D01*
X172013512Y-83543927D01*
G37*
G36*
X127213512Y-82943927D02*
G01*
X127362812Y-82973624D01*
X127526784Y-83041544D01*
X127674354Y-83140147D01*
X127799853Y-83265646D01*
X127898456Y-83413216D01*
X127966376Y-83577188D01*
X128001000Y-83751259D01*
X128001000Y-83928741D01*
X127966376Y-84102812D01*
X127898456Y-84266784D01*
X127799853Y-84414354D01*
X127674354Y-84539853D01*
X127526784Y-84638456D01*
X127362812Y-84706376D01*
X127213512Y-84736073D01*
X127188742Y-84741000D01*
X127011258Y-84741000D01*
X126986488Y-84736073D01*
X126837188Y-84706376D01*
X126673216Y-84638456D01*
X126525646Y-84539853D01*
X126400147Y-84414354D01*
X126301544Y-84266784D01*
X126233624Y-84102812D01*
X126199000Y-83928741D01*
X126199000Y-83751259D01*
X126233624Y-83577188D01*
X126301544Y-83413216D01*
X126400147Y-83265646D01*
X126525646Y-83140147D01*
X126673216Y-83041544D01*
X126837188Y-82973624D01*
X126986488Y-82943927D01*
X127011258Y-82939000D01*
X127188742Y-82939000D01*
X127213512Y-82943927D01*
G37*
G36*
X117051000Y-83551000D02*
G01*
X114349000Y-83551000D01*
X114349000Y-80849000D01*
X117051000Y-80849000D01*
X117051000Y-83551000D01*
G37*
G36*
X138701000Y-83301000D02*
G01*
X136899000Y-83301000D01*
X136899000Y-81499000D01*
X138701000Y-81499000D01*
X138701000Y-83301000D01*
G37*
G36*
X172801000Y-82801000D02*
G01*
X170999000Y-82801000D01*
X170999000Y-80999000D01*
X172801000Y-80999000D01*
X172801000Y-82801000D01*
G37*
G36*
X128001000Y-82201000D02*
G01*
X126199000Y-82201000D01*
X126199000Y-80399000D01*
X128001000Y-80399000D01*
X128001000Y-82201000D01*
G37*
G36*
X132793512Y-72503927D02*
G01*
X132942812Y-72533624D01*
X133106784Y-72601544D01*
X133254354Y-72700147D01*
X133379853Y-72825646D01*
X133478456Y-72973216D01*
X133546376Y-73137188D01*
X133581000Y-73311259D01*
X133581000Y-73488741D01*
X133546376Y-73662812D01*
X133478456Y-73826784D01*
X133379853Y-73974354D01*
X133254354Y-74099853D01*
X133106784Y-74198456D01*
X132942812Y-74266376D01*
X132793512Y-74296073D01*
X132768742Y-74301000D01*
X132591258Y-74301000D01*
X132566488Y-74296073D01*
X132417188Y-74266376D01*
X132253216Y-74198456D01*
X132105646Y-74099853D01*
X131980147Y-73974354D01*
X131881544Y-73826784D01*
X131813624Y-73662812D01*
X131779000Y-73488741D01*
X131779000Y-73311259D01*
X131813624Y-73137188D01*
X131881544Y-72973216D01*
X131980147Y-72825646D01*
X132105646Y-72700147D01*
X132253216Y-72601544D01*
X132417188Y-72533624D01*
X132566488Y-72503927D01*
X132591258Y-72499000D01*
X132768742Y-72499000D01*
X132793512Y-72503927D01*
G37*
G36*
X128501000Y-74301000D02*
G01*
X126699000Y-74301000D01*
X126699000Y-72499000D01*
X128501000Y-72499000D01*
X128501000Y-74301000D01*
G37*
G36*
X130253512Y-72503927D02*
G01*
X130402812Y-72533624D01*
X130566784Y-72601544D01*
X130714354Y-72700147D01*
X130839853Y-72825646D01*
X130938456Y-72973216D01*
X131006376Y-73137188D01*
X131041000Y-73311259D01*
X131041000Y-73488741D01*
X131006376Y-73662812D01*
X130938456Y-73826784D01*
X130839853Y-73974354D01*
X130714354Y-74099853D01*
X130566784Y-74198456D01*
X130402812Y-74266376D01*
X130253512Y-74296073D01*
X130228742Y-74301000D01*
X130051258Y-74301000D01*
X130026488Y-74296073D01*
X129877188Y-74266376D01*
X129713216Y-74198456D01*
X129565646Y-74099853D01*
X129440147Y-73974354D01*
X129341544Y-73826784D01*
X129273624Y-73662812D01*
X129239000Y-73488741D01*
X129239000Y-73311259D01*
X129273624Y-73137188D01*
X129341544Y-72973216D01*
X129440147Y-72825646D01*
X129565646Y-72700147D01*
X129713216Y-72601544D01*
X129877188Y-72533624D01*
X130026488Y-72503927D01*
X130051258Y-72499000D01*
X130228742Y-72499000D01*
X130253512Y-72503927D01*
G37*
G36*
X169001000Y-73101000D02*
G01*
X167199000Y-73101000D01*
X167199000Y-71299000D01*
X169001000Y-71299000D01*
X169001000Y-73101000D01*
G37*
G36*
X175966242Y-71153404D02*
G01*
X176003337Y-71164657D01*
X176037515Y-71182925D01*
X176067481Y-71207519D01*
X176092075Y-71237485D01*
X176110343Y-71271663D01*
X176121596Y-71308758D01*
X176126000Y-71353474D01*
X176126000Y-72246526D01*
X176121596Y-72291242D01*
X176110343Y-72328337D01*
X176092075Y-72362515D01*
X176067481Y-72392481D01*
X176037515Y-72417075D01*
X176003337Y-72435343D01*
X175966242Y-72446596D01*
X175921526Y-72451000D01*
X174478474Y-72451000D01*
X174433758Y-72446596D01*
X174396663Y-72435343D01*
X174362485Y-72417075D01*
X174332519Y-72392481D01*
X174307925Y-72362515D01*
X174289657Y-72328337D01*
X174278404Y-72291242D01*
X174274000Y-72246526D01*
X174274000Y-71353474D01*
X174278404Y-71308758D01*
X174289657Y-71271663D01*
X174307925Y-71237485D01*
X174332519Y-71207519D01*
X174362485Y-71182925D01*
X174396663Y-71164657D01*
X174433758Y-71153404D01*
X174478474Y-71149000D01*
X175921526Y-71149000D01*
X175966242Y-71153404D01*
G37*
G36*
X114073512Y-70203927D02*
G01*
X114222812Y-70233624D01*
X114386784Y-70301544D01*
X114534354Y-70400147D01*
X114659853Y-70525646D01*
X114758456Y-70673216D01*
X114826376Y-70837188D01*
X114861000Y-71011259D01*
X114861000Y-71188741D01*
X114826376Y-71362812D01*
X114758456Y-71526784D01*
X114659853Y-71674354D01*
X114534354Y-71799853D01*
X114386784Y-71898456D01*
X114222812Y-71966376D01*
X114073512Y-71996073D01*
X114048742Y-72001000D01*
X113871258Y-72001000D01*
X113846488Y-71996073D01*
X113697188Y-71966376D01*
X113533216Y-71898456D01*
X113385646Y-71799853D01*
X113260147Y-71674354D01*
X113161544Y-71526784D01*
X113093624Y-71362812D01*
X113059000Y-71188741D01*
X113059000Y-71011259D01*
X113093624Y-70837188D01*
X113161544Y-70673216D01*
X113260147Y-70525646D01*
X113385646Y-70400147D01*
X113533216Y-70301544D01*
X113697188Y-70233624D01*
X113846488Y-70203927D01*
X113871258Y-70199000D01*
X114048742Y-70199000D01*
X114073512Y-70203927D01*
G37*
G36*
X117401000Y-72001000D02*
G01*
X115599000Y-72001000D01*
X115599000Y-70199000D01*
X117401000Y-70199000D01*
X117401000Y-72001000D01*
G37*
G36*
X168213512Y-68763927D02*
G01*
X168362812Y-68793624D01*
X168526784Y-68861544D01*
X168674354Y-68960147D01*
X168799853Y-69085646D01*
X168898456Y-69233216D01*
X168966376Y-69397188D01*
X169001000Y-69571259D01*
X169001000Y-69748741D01*
X168966376Y-69922812D01*
X168898456Y-70086784D01*
X168799853Y-70234354D01*
X168674354Y-70359853D01*
X168526784Y-70458456D01*
X168362812Y-70526376D01*
X168213512Y-70556073D01*
X168188742Y-70561000D01*
X168011258Y-70561000D01*
X167986488Y-70556073D01*
X167837188Y-70526376D01*
X167673216Y-70458456D01*
X167525646Y-70359853D01*
X167400147Y-70234354D01*
X167301544Y-70086784D01*
X167233624Y-69922812D01*
X167199000Y-69748741D01*
X167199000Y-69571259D01*
X167233624Y-69397188D01*
X167301544Y-69233216D01*
X167400147Y-69085646D01*
X167525646Y-68960147D01*
X167673216Y-68861544D01*
X167837188Y-68793624D01*
X167986488Y-68763927D01*
X168011258Y-68759000D01*
X168188742Y-68759000D01*
X168213512Y-68763927D01*
G37*
G36*
X175538855Y-69152140D02*
G01*
X175602618Y-69158420D01*
X175693404Y-69185960D01*
X175725336Y-69195646D01*
X175838425Y-69256094D01*
X175937554Y-69337446D01*
X176018906Y-69436575D01*
X176079354Y-69549664D01*
X176079355Y-69549668D01*
X176116580Y-69672382D01*
X176129149Y-69800000D01*
X176116580Y-69927618D01*
X176089040Y-70018404D01*
X176079354Y-70050336D01*
X176018906Y-70163425D01*
X175937554Y-70262554D01*
X175838425Y-70343906D01*
X175725336Y-70404354D01*
X175693404Y-70414040D01*
X175602618Y-70441580D01*
X175538855Y-70447860D01*
X175506974Y-70451000D01*
X174893026Y-70451000D01*
X174861145Y-70447860D01*
X174797382Y-70441580D01*
X174706596Y-70414040D01*
X174674664Y-70404354D01*
X174561575Y-70343906D01*
X174462446Y-70262554D01*
X174381094Y-70163425D01*
X174320646Y-70050336D01*
X174310960Y-70018404D01*
X174283420Y-69927618D01*
X174270851Y-69800000D01*
X174283420Y-69672382D01*
X174320645Y-69549668D01*
X174320646Y-69549664D01*
X174381094Y-69436575D01*
X174462446Y-69337446D01*
X174561575Y-69256094D01*
X174674664Y-69195646D01*
X174706596Y-69185960D01*
X174797382Y-69158420D01*
X174861145Y-69152140D01*
X174893026Y-69149000D01*
X175506974Y-69149000D01*
X175538855Y-69152140D01*
G37*
G36*
X158613512Y-64183927D02*
G01*
X158762812Y-64213624D01*
X158926784Y-64281544D01*
X159074354Y-64380147D01*
X159199853Y-64505646D01*
X159298456Y-64653216D01*
X159366376Y-64817188D01*
X159401000Y-64991259D01*
X159401000Y-65168741D01*
X159366376Y-65342812D01*
X159298456Y-65506784D01*
X159199853Y-65654354D01*
X159074354Y-65779853D01*
X158926784Y-65878456D01*
X158762812Y-65946376D01*
X158613512Y-65976073D01*
X158588742Y-65981000D01*
X158411258Y-65981000D01*
X158386488Y-65976073D01*
X158237188Y-65946376D01*
X158073216Y-65878456D01*
X157925646Y-65779853D01*
X157800147Y-65654354D01*
X157701544Y-65506784D01*
X157633624Y-65342812D01*
X157599000Y-65168741D01*
X157599000Y-64991259D01*
X157633624Y-64817188D01*
X157701544Y-64653216D01*
X157800147Y-64505646D01*
X157925646Y-64380147D01*
X158073216Y-64281544D01*
X158237188Y-64213624D01*
X158386488Y-64183927D01*
X158411258Y-64179000D01*
X158588742Y-64179000D01*
X158613512Y-64183927D01*
G37*
G36*
X173873512Y-63703927D02*
G01*
X174022812Y-63733624D01*
X174186784Y-63801544D01*
X174334354Y-63900147D01*
X174459853Y-64025646D01*
X174558456Y-64173216D01*
X174626376Y-64337188D01*
X174661000Y-64511259D01*
X174661000Y-64688741D01*
X174626376Y-64862812D01*
X174558456Y-65026784D01*
X174459853Y-65174354D01*
X174334354Y-65299853D01*
X174186784Y-65398456D01*
X174022812Y-65466376D01*
X173873512Y-65496073D01*
X173848742Y-65501000D01*
X173671258Y-65501000D01*
X173646488Y-65496073D01*
X173497188Y-65466376D01*
X173333216Y-65398456D01*
X173185646Y-65299853D01*
X173060147Y-65174354D01*
X172961544Y-65026784D01*
X172893624Y-64862812D01*
X172859000Y-64688741D01*
X172859000Y-64511259D01*
X172893624Y-64337188D01*
X172961544Y-64173216D01*
X173060147Y-64025646D01*
X173185646Y-63900147D01*
X173333216Y-63801544D01*
X173497188Y-63733624D01*
X173646488Y-63703927D01*
X173671258Y-63699000D01*
X173848742Y-63699000D01*
X173873512Y-63703927D01*
G37*
G36*
X177201000Y-65501000D02*
G01*
X175399000Y-65501000D01*
X175399000Y-63699000D01*
X177201000Y-63699000D01*
X177201000Y-65501000D01*
G37*
G36*
X133601000Y-63701000D02*
G01*
X131799000Y-63701000D01*
X131799000Y-61899000D01*
X133601000Y-61899000D01*
X133601000Y-63701000D01*
G37*
G36*
X158613512Y-61643927D02*
G01*
X158762812Y-61673624D01*
X158926784Y-61741544D01*
X159074354Y-61840147D01*
X159199853Y-61965646D01*
X159298456Y-62113216D01*
X159366376Y-62277188D01*
X159401000Y-62451259D01*
X159401000Y-62628741D01*
X159366376Y-62802812D01*
X159298456Y-62966784D01*
X159199853Y-63114354D01*
X159074354Y-63239853D01*
X158926784Y-63338456D01*
X158762812Y-63406376D01*
X158613512Y-63436073D01*
X158588742Y-63441000D01*
X158411258Y-63441000D01*
X158386488Y-63436073D01*
X158237188Y-63406376D01*
X158073216Y-63338456D01*
X157925646Y-63239853D01*
X157800147Y-63114354D01*
X157701544Y-62966784D01*
X157633624Y-62802812D01*
X157599000Y-62628741D01*
X157599000Y-62451259D01*
X157633624Y-62277188D01*
X157701544Y-62113216D01*
X157800147Y-61965646D01*
X157925646Y-61840147D01*
X158073216Y-61741544D01*
X158237188Y-61673624D01*
X158386488Y-61643927D01*
X158411258Y-61639000D01*
X158588742Y-61639000D01*
X158613512Y-61643927D01*
G37*
G36*
X177742818Y-60727696D02*
G01*
X177856105Y-60762062D01*
X177960512Y-60817869D01*
X178052027Y-60892973D01*
X178127131Y-60984488D01*
X178182938Y-61088895D01*
X178217304Y-61202182D01*
X178228907Y-61320000D01*
X178217304Y-61437818D01*
X178182938Y-61551105D01*
X178127131Y-61655512D01*
X178052027Y-61747027D01*
X177960512Y-61822131D01*
X177856105Y-61877938D01*
X177742818Y-61912304D01*
X177654519Y-61921000D01*
X176895481Y-61921000D01*
X176807182Y-61912304D01*
X176693895Y-61877938D01*
X176589488Y-61822131D01*
X176497973Y-61747027D01*
X176422869Y-61655512D01*
X176367062Y-61551105D01*
X176332696Y-61437818D01*
X176321093Y-61320000D01*
X176332696Y-61202182D01*
X176367062Y-61088895D01*
X176422869Y-60984488D01*
X176497973Y-60892973D01*
X176589488Y-60817869D01*
X176693895Y-60762062D01*
X176807182Y-60727696D01*
X176895481Y-60719000D01*
X177654519Y-60719000D01*
X177742818Y-60727696D01*
G37*
G36*
X173942818Y-60727696D02*
G01*
X174056105Y-60762062D01*
X174160512Y-60817869D01*
X174252027Y-60892973D01*
X174327131Y-60984488D01*
X174382938Y-61088895D01*
X174417304Y-61202182D01*
X174428907Y-61320000D01*
X174417304Y-61437818D01*
X174382938Y-61551105D01*
X174327131Y-61655512D01*
X174252027Y-61747027D01*
X174160512Y-61822131D01*
X174056105Y-61877938D01*
X173942818Y-61912304D01*
X173854519Y-61921000D01*
X173095481Y-61921000D01*
X173007182Y-61912304D01*
X172893895Y-61877938D01*
X172789488Y-61822131D01*
X172697973Y-61747027D01*
X172622869Y-61655512D01*
X172567062Y-61551105D01*
X172532696Y-61437818D01*
X172521093Y-61320000D01*
X172532696Y-61202182D01*
X172567062Y-61088895D01*
X172622869Y-60984488D01*
X172697973Y-60892973D01*
X172789488Y-60817869D01*
X172893895Y-60762062D01*
X173007182Y-60727696D01*
X173095481Y-60719000D01*
X173854519Y-60719000D01*
X173942818Y-60727696D01*
G37*
G36*
X153513512Y-59583927D02*
G01*
X153662812Y-59613624D01*
X153826784Y-59681544D01*
X153974354Y-59780147D01*
X154099853Y-59905646D01*
X154198456Y-60053216D01*
X154266376Y-60217188D01*
X154301000Y-60391259D01*
X154301000Y-60568741D01*
X154266376Y-60742812D01*
X154198456Y-60906784D01*
X154099853Y-61054354D01*
X153974354Y-61179853D01*
X153826784Y-61278456D01*
X153662812Y-61346376D01*
X153513512Y-61376073D01*
X153488742Y-61381000D01*
X153311258Y-61381000D01*
X153286488Y-61376073D01*
X153137188Y-61346376D01*
X152973216Y-61278456D01*
X152825646Y-61179853D01*
X152700147Y-61054354D01*
X152601544Y-60906784D01*
X152533624Y-60742812D01*
X152499000Y-60568741D01*
X152499000Y-60391259D01*
X152533624Y-60217188D01*
X152601544Y-60053216D01*
X152700147Y-59905646D01*
X152825646Y-59780147D01*
X152973216Y-59681544D01*
X153137188Y-59613624D01*
X153286488Y-59583927D01*
X153311258Y-59579000D01*
X153488742Y-59579000D01*
X153513512Y-59583927D01*
G37*
G36*
X132813512Y-59363927D02*
G01*
X132962812Y-59393624D01*
X133126784Y-59461544D01*
X133274354Y-59560147D01*
X133399853Y-59685646D01*
X133498456Y-59833216D01*
X133566376Y-59997188D01*
X133601000Y-60171259D01*
X133601000Y-60348741D01*
X133566376Y-60522812D01*
X133498456Y-60686784D01*
X133399853Y-60834354D01*
X133274354Y-60959853D01*
X133126784Y-61058456D01*
X132962812Y-61126376D01*
X132813512Y-61156073D01*
X132788742Y-61161000D01*
X132611258Y-61161000D01*
X132586488Y-61156073D01*
X132437188Y-61126376D01*
X132273216Y-61058456D01*
X132125646Y-60959853D01*
X132000147Y-60834354D01*
X131901544Y-60686784D01*
X131833624Y-60522812D01*
X131799000Y-60348741D01*
X131799000Y-60171259D01*
X131833624Y-59997188D01*
X131901544Y-59833216D01*
X132000147Y-59685646D01*
X132125646Y-59560147D01*
X132273216Y-59461544D01*
X132437188Y-59393624D01*
X132586488Y-59363927D01*
X132611258Y-59359000D01*
X132788742Y-59359000D01*
X132813512Y-59363927D01*
G37*
G36*
X159401000Y-60901000D02*
G01*
X157599000Y-60901000D01*
X157599000Y-59099000D01*
X159401000Y-59099000D01*
X159401000Y-60901000D01*
G37*
G36*
X153513512Y-57043927D02*
G01*
X153662812Y-57073624D01*
X153826784Y-57141544D01*
X153974354Y-57240147D01*
X154099853Y-57365646D01*
X154198456Y-57513216D01*
X154266376Y-57677188D01*
X154301000Y-57851259D01*
X154301000Y-58028741D01*
X154266376Y-58202812D01*
X154198456Y-58366784D01*
X154099853Y-58514354D01*
X153974354Y-58639853D01*
X153826784Y-58738456D01*
X153662812Y-58806376D01*
X153513512Y-58836073D01*
X153488742Y-58841000D01*
X153311258Y-58841000D01*
X153286488Y-58836073D01*
X153137188Y-58806376D01*
X152973216Y-58738456D01*
X152825646Y-58639853D01*
X152700147Y-58514354D01*
X152601544Y-58366784D01*
X152533624Y-58202812D01*
X152499000Y-58028741D01*
X152499000Y-57851259D01*
X152533624Y-57677188D01*
X152601544Y-57513216D01*
X152700147Y-57365646D01*
X152825646Y-57240147D01*
X152973216Y-57141544D01*
X153137188Y-57073624D01*
X153286488Y-57043927D01*
X153311258Y-57039000D01*
X153488742Y-57039000D01*
X153513512Y-57043927D01*
G37*
G36*
X154301000Y-56301000D02*
G01*
X152499000Y-56301000D01*
X152499000Y-54499000D01*
X154301000Y-54499000D01*
X154301000Y-56301000D01*
G37*
G36*
X124453512Y-51703927D02*
G01*
X124602812Y-51733624D01*
X124766784Y-51801544D01*
X124914354Y-51900147D01*
X125039853Y-52025646D01*
X125138456Y-52173216D01*
X125206376Y-52337188D01*
X125241000Y-52511259D01*
X125241000Y-52688741D01*
X125206376Y-52862812D01*
X125138456Y-53026784D01*
X125039853Y-53174354D01*
X124914354Y-53299853D01*
X124766784Y-53398456D01*
X124602812Y-53466376D01*
X124453512Y-53496073D01*
X124428742Y-53501000D01*
X124251258Y-53501000D01*
X124226488Y-53496073D01*
X124077188Y-53466376D01*
X123913216Y-53398456D01*
X123765646Y-53299853D01*
X123640147Y-53174354D01*
X123541544Y-53026784D01*
X123473624Y-52862812D01*
X123439000Y-52688741D01*
X123439000Y-52511259D01*
X123473624Y-52337188D01*
X123541544Y-52173216D01*
X123640147Y-52025646D01*
X123765646Y-51900147D01*
X123913216Y-51801544D01*
X124077188Y-51733624D01*
X124226488Y-51703927D01*
X124251258Y-51699000D01*
X124428742Y-51699000D01*
X124453512Y-51703927D01*
G37*
G36*
X126993512Y-51703927D02*
G01*
X127142812Y-51733624D01*
X127306784Y-51801544D01*
X127454354Y-51900147D01*
X127579853Y-52025646D01*
X127678456Y-52173216D01*
X127746376Y-52337188D01*
X127781000Y-52511259D01*
X127781000Y-52688741D01*
X127746376Y-52862812D01*
X127678456Y-53026784D01*
X127579853Y-53174354D01*
X127454354Y-53299853D01*
X127306784Y-53398456D01*
X127142812Y-53466376D01*
X126993512Y-53496073D01*
X126968742Y-53501000D01*
X126791258Y-53501000D01*
X126766488Y-53496073D01*
X126617188Y-53466376D01*
X126453216Y-53398456D01*
X126305646Y-53299853D01*
X126180147Y-53174354D01*
X126081544Y-53026784D01*
X126013624Y-52862812D01*
X125979000Y-52688741D01*
X125979000Y-52511259D01*
X126013624Y-52337188D01*
X126081544Y-52173216D01*
X126180147Y-52025646D01*
X126305646Y-51900147D01*
X126453216Y-51801544D01*
X126617188Y-51733624D01*
X126766488Y-51703927D01*
X126791258Y-51699000D01*
X126968742Y-51699000D01*
X126993512Y-51703927D01*
G37*
G36*
X122701000Y-53501000D02*
G01*
X120899000Y-53501000D01*
X120899000Y-51699000D01*
X122701000Y-51699000D01*
X122701000Y-53501000D01*
G37*
G36*
X177742818Y-52087696D02*
G01*
X177856105Y-52122062D01*
X177960512Y-52177869D01*
X178052027Y-52252973D01*
X178127131Y-52344488D01*
X178182938Y-52448895D01*
X178217304Y-52562182D01*
X178228907Y-52680000D01*
X178217304Y-52797818D01*
X178182938Y-52911105D01*
X178127131Y-53015512D01*
X178052027Y-53107027D01*
X177960512Y-53182131D01*
X177856105Y-53237938D01*
X177742818Y-53272304D01*
X177654519Y-53281000D01*
X176895481Y-53281000D01*
X176807182Y-53272304D01*
X176693895Y-53237938D01*
X176589488Y-53182131D01*
X176497973Y-53107027D01*
X176422869Y-53015512D01*
X176367062Y-52911105D01*
X176332696Y-52797818D01*
X176321093Y-52680000D01*
X176332696Y-52562182D01*
X176367062Y-52448895D01*
X176422869Y-52344488D01*
X176497973Y-52252973D01*
X176589488Y-52177869D01*
X176693895Y-52122062D01*
X176807182Y-52087696D01*
X176895481Y-52079000D01*
X177654519Y-52079000D01*
X177742818Y-52087696D01*
G37*
G36*
X173942818Y-52087696D02*
G01*
X174056105Y-52122062D01*
X174160512Y-52177869D01*
X174252027Y-52252973D01*
X174327131Y-52344488D01*
X174382938Y-52448895D01*
X174417304Y-52562182D01*
X174428907Y-52680000D01*
X174417304Y-52797818D01*
X174382938Y-52911105D01*
X174327131Y-53015512D01*
X174252027Y-53107027D01*
X174160512Y-53182131D01*
X174056105Y-53237938D01*
X173942818Y-53272304D01*
X173854519Y-53281000D01*
X173095481Y-53281000D01*
X173007182Y-53272304D01*
X172893895Y-53237938D01*
X172789488Y-53182131D01*
X172697973Y-53107027D01*
X172622869Y-53015512D01*
X172567062Y-52911105D01*
X172532696Y-52797818D01*
X172521093Y-52680000D01*
X172532696Y-52562182D01*
X172567062Y-52448895D01*
X172622869Y-52344488D01*
X172697973Y-52252973D01*
X172789488Y-52177869D01*
X172893895Y-52122062D01*
X173007182Y-52087696D01*
X173095481Y-52079000D01*
X173854519Y-52079000D01*
X173942818Y-52087696D01*
G37*
M02*
