G04 #@! TF.GenerationSoftware,KiCad,Pcbnew,(5.1.5-0)*
G04 #@! TF.CreationDate,2022-02-24T14:37:53-07:00*
G04 #@! TF.ProjectId,adc_preamp,6164635f-7072-4656-916d-702e6b696361,rev?*
G04 #@! TF.SameCoordinates,Original*
G04 #@! TF.FileFunction,Soldermask,Top*
G04 #@! TF.FilePolarity,Negative*
%FSLAX46Y46*%
G04 Gerber Fmt 4.6, Leading zero omitted, Abs format (unit mm)*
G04 Created by KiCad (PCBNEW (5.1.5-0)) date 2022-02-24 14:37:53*
%MOMM*%
%LPD*%
G04 APERTURE LIST*
%ADD10C,0.100000*%
G04 APERTURE END LIST*
D10*
G36*
X155264499Y-116028445D02*
G01*
X155301995Y-116039820D01*
X155336554Y-116058292D01*
X155366847Y-116083153D01*
X155391708Y-116113446D01*
X155410180Y-116148005D01*
X155421555Y-116185501D01*
X155426000Y-116230638D01*
X155426000Y-116969362D01*
X155421555Y-117014499D01*
X155410180Y-117051995D01*
X155391708Y-117086554D01*
X155366847Y-117116847D01*
X155336554Y-117141708D01*
X155301995Y-117160180D01*
X155264499Y-117171555D01*
X155219362Y-117176000D01*
X154580638Y-117176000D01*
X154535501Y-117171555D01*
X154498005Y-117160180D01*
X154463446Y-117141708D01*
X154433153Y-117116847D01*
X154408292Y-117086554D01*
X154389820Y-117051995D01*
X154378445Y-117014499D01*
X154374000Y-116969362D01*
X154374000Y-116230638D01*
X154378445Y-116185501D01*
X154389820Y-116148005D01*
X154408292Y-116113446D01*
X154433153Y-116083153D01*
X154463446Y-116058292D01*
X154498005Y-116039820D01*
X154535501Y-116028445D01*
X154580638Y-116024000D01*
X155219362Y-116024000D01*
X155264499Y-116028445D01*
G37*
G36*
X121489499Y-115978445D02*
G01*
X121526995Y-115989820D01*
X121561554Y-116008292D01*
X121591847Y-116033153D01*
X121616708Y-116063446D01*
X121635180Y-116098005D01*
X121646555Y-116135501D01*
X121651000Y-116180638D01*
X121651000Y-116819362D01*
X121646555Y-116864499D01*
X121635180Y-116901995D01*
X121616708Y-116936554D01*
X121591847Y-116966847D01*
X121561554Y-116991708D01*
X121526995Y-117010180D01*
X121489499Y-117021555D01*
X121444362Y-117026000D01*
X120705638Y-117026000D01*
X120660501Y-117021555D01*
X120623005Y-117010180D01*
X120588446Y-116991708D01*
X120558153Y-116966847D01*
X120533292Y-116936554D01*
X120514820Y-116901995D01*
X120503445Y-116864499D01*
X120499000Y-116819362D01*
X120499000Y-116180638D01*
X120503445Y-116135501D01*
X120514820Y-116098005D01*
X120533292Y-116063446D01*
X120558153Y-116033153D01*
X120588446Y-116008292D01*
X120623005Y-115989820D01*
X120660501Y-115978445D01*
X120705638Y-115974000D01*
X121444362Y-115974000D01*
X121489499Y-115978445D01*
G37*
G36*
X119739499Y-115978445D02*
G01*
X119776995Y-115989820D01*
X119811554Y-116008292D01*
X119841847Y-116033153D01*
X119866708Y-116063446D01*
X119885180Y-116098005D01*
X119896555Y-116135501D01*
X119901000Y-116180638D01*
X119901000Y-116819362D01*
X119896555Y-116864499D01*
X119885180Y-116901995D01*
X119866708Y-116936554D01*
X119841847Y-116966847D01*
X119811554Y-116991708D01*
X119776995Y-117010180D01*
X119739499Y-117021555D01*
X119694362Y-117026000D01*
X118955638Y-117026000D01*
X118910501Y-117021555D01*
X118873005Y-117010180D01*
X118838446Y-116991708D01*
X118808153Y-116966847D01*
X118783292Y-116936554D01*
X118764820Y-116901995D01*
X118753445Y-116864499D01*
X118749000Y-116819362D01*
X118749000Y-116180638D01*
X118753445Y-116135501D01*
X118764820Y-116098005D01*
X118783292Y-116063446D01*
X118808153Y-116033153D01*
X118838446Y-116008292D01*
X118873005Y-115989820D01*
X118910501Y-115978445D01*
X118955638Y-115974000D01*
X119694362Y-115974000D01*
X119739499Y-115978445D01*
G37*
G36*
X153476000Y-116281000D02*
G01*
X150824000Y-116281000D01*
X150824000Y-114959000D01*
X153476000Y-114959000D01*
X153476000Y-116281000D01*
G37*
G36*
X155264499Y-114278445D02*
G01*
X155301995Y-114289820D01*
X155336554Y-114308292D01*
X155366847Y-114333153D01*
X155391708Y-114363446D01*
X155410180Y-114398005D01*
X155421555Y-114435501D01*
X155426000Y-114480638D01*
X155426000Y-115219362D01*
X155421555Y-115264499D01*
X155410180Y-115301995D01*
X155391708Y-115336554D01*
X155366847Y-115366847D01*
X155336554Y-115391708D01*
X155301995Y-115410180D01*
X155264499Y-115421555D01*
X155219362Y-115426000D01*
X154580638Y-115426000D01*
X154535501Y-115421555D01*
X154498005Y-115410180D01*
X154463446Y-115391708D01*
X154433153Y-115366847D01*
X154408292Y-115336554D01*
X154389820Y-115301995D01*
X154378445Y-115264499D01*
X154374000Y-115219362D01*
X154374000Y-114480638D01*
X154378445Y-114435501D01*
X154389820Y-114398005D01*
X154408292Y-114363446D01*
X154433153Y-114333153D01*
X154463446Y-114308292D01*
X154498005Y-114289820D01*
X154535501Y-114278445D01*
X154580638Y-114274000D01*
X155219362Y-114274000D01*
X155264499Y-114278445D01*
G37*
G36*
X121626000Y-115071000D02*
G01*
X120874000Y-115071000D01*
X120874000Y-113749000D01*
X121626000Y-113749000D01*
X121626000Y-115071000D01*
G37*
G36*
X119726000Y-115071000D02*
G01*
X118974000Y-115071000D01*
X118974000Y-113749000D01*
X119726000Y-113749000D01*
X119726000Y-115071000D01*
G37*
G36*
X153476000Y-113661000D02*
G01*
X152724000Y-113661000D01*
X152724000Y-112339000D01*
X153476000Y-112339000D01*
X153476000Y-113661000D01*
G37*
G36*
X151576000Y-113661000D02*
G01*
X150824000Y-113661000D01*
X150824000Y-112339000D01*
X151576000Y-112339000D01*
X151576000Y-113661000D01*
G37*
G36*
X155264499Y-112503445D02*
G01*
X155301995Y-112514820D01*
X155336554Y-112533292D01*
X155366847Y-112558153D01*
X155391708Y-112588446D01*
X155410180Y-112623005D01*
X155421555Y-112660501D01*
X155426000Y-112705638D01*
X155426000Y-113444362D01*
X155421555Y-113489499D01*
X155410180Y-113526995D01*
X155391708Y-113561554D01*
X155366847Y-113591847D01*
X155336554Y-113616708D01*
X155301995Y-113635180D01*
X155264499Y-113646555D01*
X155219362Y-113651000D01*
X154580638Y-113651000D01*
X154535501Y-113646555D01*
X154498005Y-113635180D01*
X154463446Y-113616708D01*
X154433153Y-113591847D01*
X154408292Y-113561554D01*
X154389820Y-113526995D01*
X154378445Y-113489499D01*
X154374000Y-113444362D01*
X154374000Y-112705638D01*
X154378445Y-112660501D01*
X154389820Y-112623005D01*
X154408292Y-112588446D01*
X154433153Y-112558153D01*
X154463446Y-112533292D01*
X154498005Y-112514820D01*
X154535501Y-112503445D01*
X154580638Y-112499000D01*
X155219362Y-112499000D01*
X155264499Y-112503445D01*
G37*
G36*
X144164499Y-112278445D02*
G01*
X144201995Y-112289820D01*
X144236554Y-112308292D01*
X144266847Y-112333153D01*
X144291708Y-112363446D01*
X144310180Y-112398005D01*
X144321555Y-112435501D01*
X144326000Y-112480638D01*
X144326000Y-113119362D01*
X144321555Y-113164499D01*
X144310180Y-113201995D01*
X144291708Y-113236554D01*
X144266847Y-113266847D01*
X144236554Y-113291708D01*
X144201995Y-113310180D01*
X144164499Y-113321555D01*
X144119362Y-113326000D01*
X143380638Y-113326000D01*
X143335501Y-113321555D01*
X143298005Y-113310180D01*
X143263446Y-113291708D01*
X143233153Y-113266847D01*
X143208292Y-113236554D01*
X143189820Y-113201995D01*
X143178445Y-113164499D01*
X143174000Y-113119362D01*
X143174000Y-112480638D01*
X143178445Y-112435501D01*
X143189820Y-112398005D01*
X143208292Y-112363446D01*
X143233153Y-112333153D01*
X143263446Y-112308292D01*
X143298005Y-112289820D01*
X143335501Y-112278445D01*
X143380638Y-112274000D01*
X144119362Y-112274000D01*
X144164499Y-112278445D01*
G37*
G36*
X145914499Y-112278445D02*
G01*
X145951995Y-112289820D01*
X145986554Y-112308292D01*
X146016847Y-112333153D01*
X146041708Y-112363446D01*
X146060180Y-112398005D01*
X146071555Y-112435501D01*
X146076000Y-112480638D01*
X146076000Y-113119362D01*
X146071555Y-113164499D01*
X146060180Y-113201995D01*
X146041708Y-113236554D01*
X146016847Y-113266847D01*
X145986554Y-113291708D01*
X145951995Y-113310180D01*
X145914499Y-113321555D01*
X145869362Y-113326000D01*
X145130638Y-113326000D01*
X145085501Y-113321555D01*
X145048005Y-113310180D01*
X145013446Y-113291708D01*
X144983153Y-113266847D01*
X144958292Y-113236554D01*
X144939820Y-113201995D01*
X144928445Y-113164499D01*
X144924000Y-113119362D01*
X144924000Y-112480638D01*
X144928445Y-112435501D01*
X144939820Y-112398005D01*
X144958292Y-112363446D01*
X144983153Y-112333153D01*
X145013446Y-112308292D01*
X145048005Y-112289820D01*
X145085501Y-112278445D01*
X145130638Y-112274000D01*
X145869362Y-112274000D01*
X145914499Y-112278445D01*
G37*
G36*
X158264499Y-111778445D02*
G01*
X158301995Y-111789820D01*
X158336554Y-111808292D01*
X158366847Y-111833153D01*
X158391708Y-111863446D01*
X158410180Y-111898005D01*
X158421555Y-111935501D01*
X158426000Y-111980638D01*
X158426000Y-112619362D01*
X158421555Y-112664499D01*
X158410180Y-112701995D01*
X158391708Y-112736554D01*
X158366847Y-112766847D01*
X158336554Y-112791708D01*
X158301995Y-112810180D01*
X158264499Y-112821555D01*
X158219362Y-112826000D01*
X157480638Y-112826000D01*
X157435501Y-112821555D01*
X157398005Y-112810180D01*
X157363446Y-112791708D01*
X157333153Y-112766847D01*
X157308292Y-112736554D01*
X157289820Y-112701995D01*
X157278445Y-112664499D01*
X157274000Y-112619362D01*
X157274000Y-111980638D01*
X157278445Y-111935501D01*
X157289820Y-111898005D01*
X157308292Y-111863446D01*
X157333153Y-111833153D01*
X157363446Y-111808292D01*
X157398005Y-111789820D01*
X157435501Y-111778445D01*
X157480638Y-111774000D01*
X158219362Y-111774000D01*
X158264499Y-111778445D01*
G37*
G36*
X160014499Y-111778445D02*
G01*
X160051995Y-111789820D01*
X160086554Y-111808292D01*
X160116847Y-111833153D01*
X160141708Y-111863446D01*
X160160180Y-111898005D01*
X160171555Y-111935501D01*
X160176000Y-111980638D01*
X160176000Y-112619362D01*
X160171555Y-112664499D01*
X160160180Y-112701995D01*
X160141708Y-112736554D01*
X160116847Y-112766847D01*
X160086554Y-112791708D01*
X160051995Y-112810180D01*
X160014499Y-112821555D01*
X159969362Y-112826000D01*
X159230638Y-112826000D01*
X159185501Y-112821555D01*
X159148005Y-112810180D01*
X159113446Y-112791708D01*
X159083153Y-112766847D01*
X159058292Y-112736554D01*
X159039820Y-112701995D01*
X159028445Y-112664499D01*
X159024000Y-112619362D01*
X159024000Y-111980638D01*
X159028445Y-111935501D01*
X159039820Y-111898005D01*
X159058292Y-111863446D01*
X159083153Y-111833153D01*
X159113446Y-111808292D01*
X159148005Y-111789820D01*
X159185501Y-111778445D01*
X159230638Y-111774000D01*
X159969362Y-111774000D01*
X160014499Y-111778445D01*
G37*
G36*
X121626000Y-112451000D02*
G01*
X118974000Y-112451000D01*
X118974000Y-111129000D01*
X121626000Y-111129000D01*
X121626000Y-112451000D01*
G37*
G36*
X155264499Y-110753445D02*
G01*
X155301995Y-110764820D01*
X155336554Y-110783292D01*
X155366847Y-110808153D01*
X155391708Y-110838446D01*
X155410180Y-110873005D01*
X155421555Y-110910501D01*
X155426000Y-110955638D01*
X155426000Y-111694362D01*
X155421555Y-111739499D01*
X155410180Y-111776995D01*
X155391708Y-111811554D01*
X155366847Y-111841847D01*
X155336554Y-111866708D01*
X155301995Y-111885180D01*
X155264499Y-111896555D01*
X155219362Y-111901000D01*
X154580638Y-111901000D01*
X154535501Y-111896555D01*
X154498005Y-111885180D01*
X154463446Y-111866708D01*
X154433153Y-111841847D01*
X154408292Y-111811554D01*
X154389820Y-111776995D01*
X154378445Y-111739499D01*
X154374000Y-111694362D01*
X154374000Y-110955638D01*
X154378445Y-110910501D01*
X154389820Y-110873005D01*
X154408292Y-110838446D01*
X154433153Y-110808153D01*
X154463446Y-110783292D01*
X154498005Y-110764820D01*
X154535501Y-110753445D01*
X154580638Y-110749000D01*
X155219362Y-110749000D01*
X155264499Y-110753445D01*
G37*
G36*
X126313512Y-109843927D02*
G01*
X126462812Y-109873624D01*
X126626784Y-109941544D01*
X126774354Y-110040147D01*
X126899853Y-110165646D01*
X126998456Y-110313216D01*
X127066376Y-110477188D01*
X127101000Y-110651259D01*
X127101000Y-110828741D01*
X127066376Y-111002812D01*
X126998456Y-111166784D01*
X126899853Y-111314354D01*
X126774354Y-111439853D01*
X126626784Y-111538456D01*
X126462812Y-111606376D01*
X126313512Y-111636073D01*
X126288742Y-111641000D01*
X126111258Y-111641000D01*
X126086488Y-111636073D01*
X125937188Y-111606376D01*
X125773216Y-111538456D01*
X125625646Y-111439853D01*
X125500147Y-111314354D01*
X125401544Y-111166784D01*
X125333624Y-111002812D01*
X125299000Y-110828741D01*
X125299000Y-110651259D01*
X125333624Y-110477188D01*
X125401544Y-110313216D01*
X125500147Y-110165646D01*
X125625646Y-110040147D01*
X125773216Y-109941544D01*
X125937188Y-109873624D01*
X126086488Y-109843927D01*
X126111258Y-109839000D01*
X126288742Y-109839000D01*
X126313512Y-109843927D01*
G37*
G36*
X114713512Y-109843927D02*
G01*
X114862812Y-109873624D01*
X115026784Y-109941544D01*
X115174354Y-110040147D01*
X115299853Y-110165646D01*
X115398456Y-110313216D01*
X115466376Y-110477188D01*
X115501000Y-110651259D01*
X115501000Y-110828741D01*
X115466376Y-111002812D01*
X115398456Y-111166784D01*
X115299853Y-111314354D01*
X115174354Y-111439853D01*
X115026784Y-111538456D01*
X114862812Y-111606376D01*
X114713512Y-111636073D01*
X114688742Y-111641000D01*
X114511258Y-111641000D01*
X114486488Y-111636073D01*
X114337188Y-111606376D01*
X114173216Y-111538456D01*
X114025646Y-111439853D01*
X113900147Y-111314354D01*
X113801544Y-111166784D01*
X113733624Y-111002812D01*
X113699000Y-110828741D01*
X113699000Y-110651259D01*
X113733624Y-110477188D01*
X113801544Y-110313216D01*
X113900147Y-110165646D01*
X114025646Y-110040147D01*
X114173216Y-109941544D01*
X114337188Y-109873624D01*
X114486488Y-109843927D01*
X114511258Y-109839000D01*
X114688742Y-109839000D01*
X114713512Y-109843927D01*
G37*
G36*
X153364499Y-110578445D02*
G01*
X153401995Y-110589820D01*
X153436554Y-110608292D01*
X153466847Y-110633153D01*
X153491708Y-110663446D01*
X153510180Y-110698005D01*
X153521555Y-110735501D01*
X153526000Y-110780638D01*
X153526000Y-111419362D01*
X153521555Y-111464499D01*
X153510180Y-111501995D01*
X153491708Y-111536554D01*
X153466847Y-111566847D01*
X153436554Y-111591708D01*
X153401995Y-111610180D01*
X153364499Y-111621555D01*
X153319362Y-111626000D01*
X152580638Y-111626000D01*
X152535501Y-111621555D01*
X152498005Y-111610180D01*
X152463446Y-111591708D01*
X152433153Y-111566847D01*
X152408292Y-111536554D01*
X152389820Y-111501995D01*
X152378445Y-111464499D01*
X152374000Y-111419362D01*
X152374000Y-110780638D01*
X152378445Y-110735501D01*
X152389820Y-110698005D01*
X152408292Y-110663446D01*
X152433153Y-110633153D01*
X152463446Y-110608292D01*
X152498005Y-110589820D01*
X152535501Y-110578445D01*
X152580638Y-110574000D01*
X153319362Y-110574000D01*
X153364499Y-110578445D01*
G37*
G36*
X151614499Y-110578445D02*
G01*
X151651995Y-110589820D01*
X151686554Y-110608292D01*
X151716847Y-110633153D01*
X151741708Y-110663446D01*
X151760180Y-110698005D01*
X151771555Y-110735501D01*
X151776000Y-110780638D01*
X151776000Y-111419362D01*
X151771555Y-111464499D01*
X151760180Y-111501995D01*
X151741708Y-111536554D01*
X151716847Y-111566847D01*
X151686554Y-111591708D01*
X151651995Y-111610180D01*
X151614499Y-111621555D01*
X151569362Y-111626000D01*
X150830638Y-111626000D01*
X150785501Y-111621555D01*
X150748005Y-111610180D01*
X150713446Y-111591708D01*
X150683153Y-111566847D01*
X150658292Y-111536554D01*
X150639820Y-111501995D01*
X150628445Y-111464499D01*
X150624000Y-111419362D01*
X150624000Y-110780638D01*
X150628445Y-110735501D01*
X150639820Y-110698005D01*
X150658292Y-110663446D01*
X150683153Y-110633153D01*
X150713446Y-110608292D01*
X150748005Y-110589820D01*
X150785501Y-110578445D01*
X150830638Y-110574000D01*
X151569362Y-110574000D01*
X151614499Y-110578445D01*
G37*
G36*
X145926000Y-111371000D02*
G01*
X145174000Y-111371000D01*
X145174000Y-110049000D01*
X145926000Y-110049000D01*
X145926000Y-111371000D01*
G37*
G36*
X144026000Y-111371000D02*
G01*
X143274000Y-111371000D01*
X143274000Y-110049000D01*
X144026000Y-110049000D01*
X144026000Y-111371000D01*
G37*
G36*
X159413512Y-108743927D02*
G01*
X159562812Y-108773624D01*
X159726784Y-108841544D01*
X159874354Y-108940147D01*
X159999853Y-109065646D01*
X160098456Y-109213216D01*
X160166376Y-109377188D01*
X160201000Y-109551259D01*
X160201000Y-109728741D01*
X160166376Y-109902812D01*
X160098456Y-110066784D01*
X159999853Y-110214354D01*
X159874354Y-110339853D01*
X159726784Y-110438456D01*
X159562812Y-110506376D01*
X159413512Y-110536073D01*
X159388742Y-110541000D01*
X159211258Y-110541000D01*
X159186488Y-110536073D01*
X159037188Y-110506376D01*
X158873216Y-110438456D01*
X158725646Y-110339853D01*
X158600147Y-110214354D01*
X158501544Y-110066784D01*
X158433624Y-109902812D01*
X158399000Y-109728741D01*
X158399000Y-109551259D01*
X158433624Y-109377188D01*
X158501544Y-109213216D01*
X158600147Y-109065646D01*
X158725646Y-108940147D01*
X158873216Y-108841544D01*
X159037188Y-108773624D01*
X159186488Y-108743927D01*
X159211258Y-108739000D01*
X159388742Y-108739000D01*
X159413512Y-108743927D01*
G37*
G36*
X121464499Y-109178445D02*
G01*
X121501995Y-109189820D01*
X121536554Y-109208292D01*
X121566847Y-109233153D01*
X121591708Y-109263446D01*
X121610180Y-109298005D01*
X121621555Y-109335501D01*
X121626000Y-109380638D01*
X121626000Y-110019362D01*
X121621555Y-110064499D01*
X121610180Y-110101995D01*
X121591708Y-110136554D01*
X121566847Y-110166847D01*
X121536554Y-110191708D01*
X121501995Y-110210180D01*
X121464499Y-110221555D01*
X121419362Y-110226000D01*
X120680638Y-110226000D01*
X120635501Y-110221555D01*
X120598005Y-110210180D01*
X120563446Y-110191708D01*
X120533153Y-110166847D01*
X120508292Y-110136554D01*
X120489820Y-110101995D01*
X120478445Y-110064499D01*
X120474000Y-110019362D01*
X120474000Y-109380638D01*
X120478445Y-109335501D01*
X120489820Y-109298005D01*
X120508292Y-109263446D01*
X120533153Y-109233153D01*
X120563446Y-109208292D01*
X120598005Y-109189820D01*
X120635501Y-109178445D01*
X120680638Y-109174000D01*
X121419362Y-109174000D01*
X121464499Y-109178445D01*
G37*
G36*
X119714499Y-109178445D02*
G01*
X119751995Y-109189820D01*
X119786554Y-109208292D01*
X119816847Y-109233153D01*
X119841708Y-109263446D01*
X119860180Y-109298005D01*
X119871555Y-109335501D01*
X119876000Y-109380638D01*
X119876000Y-110019362D01*
X119871555Y-110064499D01*
X119860180Y-110101995D01*
X119841708Y-110136554D01*
X119816847Y-110166847D01*
X119786554Y-110191708D01*
X119751995Y-110210180D01*
X119714499Y-110221555D01*
X119669362Y-110226000D01*
X118930638Y-110226000D01*
X118885501Y-110221555D01*
X118848005Y-110210180D01*
X118813446Y-110191708D01*
X118783153Y-110166847D01*
X118758292Y-110136554D01*
X118739820Y-110101995D01*
X118728445Y-110064499D01*
X118724000Y-110019362D01*
X118724000Y-109380638D01*
X118728445Y-109335501D01*
X118739820Y-109298005D01*
X118758292Y-109263446D01*
X118783153Y-109233153D01*
X118813446Y-109208292D01*
X118848005Y-109189820D01*
X118885501Y-109178445D01*
X118930638Y-109174000D01*
X119669362Y-109174000D01*
X119714499Y-109178445D01*
G37*
G36*
X127101000Y-109101000D02*
G01*
X125299000Y-109101000D01*
X125299000Y-107299000D01*
X127101000Y-107299000D01*
X127101000Y-109101000D01*
G37*
G36*
X115501000Y-109101000D02*
G01*
X113699000Y-109101000D01*
X113699000Y-107299000D01*
X115501000Y-107299000D01*
X115501000Y-109101000D01*
G37*
G36*
X145926000Y-108751000D02*
G01*
X143274000Y-108751000D01*
X143274000Y-107429000D01*
X145926000Y-107429000D01*
X145926000Y-108751000D01*
G37*
G36*
X121626000Y-108571000D02*
G01*
X120874000Y-108571000D01*
X120874000Y-107249000D01*
X121626000Y-107249000D01*
X121626000Y-108571000D01*
G37*
G36*
X119726000Y-108571000D02*
G01*
X118974000Y-108571000D01*
X118974000Y-107249000D01*
X119726000Y-107249000D01*
X119726000Y-108571000D01*
G37*
G36*
X160201000Y-108001000D02*
G01*
X158399000Y-108001000D01*
X158399000Y-106199000D01*
X160201000Y-106199000D01*
X160201000Y-108001000D01*
G37*
G36*
X156209928Y-107256764D02*
G01*
X156231009Y-107263160D01*
X156250445Y-107273548D01*
X156267476Y-107287524D01*
X156281452Y-107304555D01*
X156291840Y-107323991D01*
X156298236Y-107345072D01*
X156301000Y-107373140D01*
X156301000Y-107836860D01*
X156298236Y-107864928D01*
X156291840Y-107886009D01*
X156281452Y-107905445D01*
X156267476Y-107922476D01*
X156250445Y-107936452D01*
X156231009Y-107946840D01*
X156209928Y-107953236D01*
X156181860Y-107956000D01*
X154368140Y-107956000D01*
X154340072Y-107953236D01*
X154318991Y-107946840D01*
X154299555Y-107936452D01*
X154282524Y-107922476D01*
X154268548Y-107905445D01*
X154258160Y-107886009D01*
X154251764Y-107864928D01*
X154249000Y-107836860D01*
X154249000Y-107373140D01*
X154251764Y-107345072D01*
X154258160Y-107323991D01*
X154268548Y-107304555D01*
X154282524Y-107287524D01*
X154299555Y-107273548D01*
X154318991Y-107263160D01*
X154340072Y-107256764D01*
X154368140Y-107254000D01*
X156181860Y-107254000D01*
X156209928Y-107256764D01*
G37*
G36*
X151259928Y-107256764D02*
G01*
X151281009Y-107263160D01*
X151300445Y-107273548D01*
X151317476Y-107287524D01*
X151331452Y-107304555D01*
X151341840Y-107323991D01*
X151348236Y-107345072D01*
X151351000Y-107373140D01*
X151351000Y-107836860D01*
X151348236Y-107864928D01*
X151341840Y-107886009D01*
X151331452Y-107905445D01*
X151317476Y-107922476D01*
X151300445Y-107936452D01*
X151281009Y-107946840D01*
X151259928Y-107953236D01*
X151231860Y-107956000D01*
X149418140Y-107956000D01*
X149390072Y-107953236D01*
X149368991Y-107946840D01*
X149349555Y-107936452D01*
X149332524Y-107922476D01*
X149318548Y-107905445D01*
X149308160Y-107886009D01*
X149301764Y-107864928D01*
X149299000Y-107836860D01*
X149299000Y-107373140D01*
X149301764Y-107345072D01*
X149308160Y-107323991D01*
X149318548Y-107304555D01*
X149332524Y-107287524D01*
X149349555Y-107273548D01*
X149368991Y-107263160D01*
X149390072Y-107256764D01*
X149418140Y-107254000D01*
X151231860Y-107254000D01*
X151259928Y-107256764D01*
G37*
G36*
X138513512Y-106143927D02*
G01*
X138662812Y-106173624D01*
X138826784Y-106241544D01*
X138974354Y-106340147D01*
X139099853Y-106465646D01*
X139198456Y-106613216D01*
X139266376Y-106777188D01*
X139301000Y-106951259D01*
X139301000Y-107128741D01*
X139266376Y-107302812D01*
X139198456Y-107466784D01*
X139099853Y-107614354D01*
X138974354Y-107739853D01*
X138826784Y-107838456D01*
X138662812Y-107906376D01*
X138513512Y-107936073D01*
X138488742Y-107941000D01*
X138311258Y-107941000D01*
X138286488Y-107936073D01*
X138137188Y-107906376D01*
X137973216Y-107838456D01*
X137825646Y-107739853D01*
X137700147Y-107614354D01*
X137601544Y-107466784D01*
X137533624Y-107302812D01*
X137499000Y-107128741D01*
X137499000Y-106951259D01*
X137533624Y-106777188D01*
X137601544Y-106613216D01*
X137700147Y-106465646D01*
X137825646Y-106340147D01*
X137973216Y-106241544D01*
X138137188Y-106173624D01*
X138286488Y-106143927D01*
X138311258Y-106139000D01*
X138488742Y-106139000D01*
X138513512Y-106143927D01*
G37*
G36*
X145889499Y-105678445D02*
G01*
X145926995Y-105689820D01*
X145961554Y-105708292D01*
X145991847Y-105733153D01*
X146016708Y-105763446D01*
X146035180Y-105798005D01*
X146046555Y-105835501D01*
X146051000Y-105880638D01*
X146051000Y-106519362D01*
X146046555Y-106564499D01*
X146035180Y-106601995D01*
X146016708Y-106636554D01*
X145991847Y-106666847D01*
X145961554Y-106691708D01*
X145926995Y-106710180D01*
X145889499Y-106721555D01*
X145844362Y-106726000D01*
X145105638Y-106726000D01*
X145060501Y-106721555D01*
X145023005Y-106710180D01*
X144988446Y-106691708D01*
X144958153Y-106666847D01*
X144933292Y-106636554D01*
X144914820Y-106601995D01*
X144903445Y-106564499D01*
X144899000Y-106519362D01*
X144899000Y-105880638D01*
X144903445Y-105835501D01*
X144914820Y-105798005D01*
X144933292Y-105763446D01*
X144958153Y-105733153D01*
X144988446Y-105708292D01*
X145023005Y-105689820D01*
X145060501Y-105678445D01*
X145105638Y-105674000D01*
X145844362Y-105674000D01*
X145889499Y-105678445D01*
G37*
G36*
X144139499Y-105678445D02*
G01*
X144176995Y-105689820D01*
X144211554Y-105708292D01*
X144241847Y-105733153D01*
X144266708Y-105763446D01*
X144285180Y-105798005D01*
X144296555Y-105835501D01*
X144301000Y-105880638D01*
X144301000Y-106519362D01*
X144296555Y-106564499D01*
X144285180Y-106601995D01*
X144266708Y-106636554D01*
X144241847Y-106666847D01*
X144211554Y-106691708D01*
X144176995Y-106710180D01*
X144139499Y-106721555D01*
X144094362Y-106726000D01*
X143355638Y-106726000D01*
X143310501Y-106721555D01*
X143273005Y-106710180D01*
X143238446Y-106691708D01*
X143208153Y-106666847D01*
X143183292Y-106636554D01*
X143164820Y-106601995D01*
X143153445Y-106564499D01*
X143149000Y-106519362D01*
X143149000Y-105880638D01*
X143153445Y-105835501D01*
X143164820Y-105798005D01*
X143183292Y-105763446D01*
X143208153Y-105733153D01*
X143238446Y-105708292D01*
X143273005Y-105689820D01*
X143310501Y-105678445D01*
X143355638Y-105674000D01*
X144094362Y-105674000D01*
X144139499Y-105678445D01*
G37*
G36*
X156209928Y-105986764D02*
G01*
X156231009Y-105993160D01*
X156250445Y-106003548D01*
X156267476Y-106017524D01*
X156281452Y-106034555D01*
X156291840Y-106053991D01*
X156298236Y-106075072D01*
X156301000Y-106103140D01*
X156301000Y-106566860D01*
X156298236Y-106594928D01*
X156291840Y-106616009D01*
X156281452Y-106635445D01*
X156267476Y-106652476D01*
X156250445Y-106666452D01*
X156231009Y-106676840D01*
X156209928Y-106683236D01*
X156181860Y-106686000D01*
X154368140Y-106686000D01*
X154340072Y-106683236D01*
X154318991Y-106676840D01*
X154299555Y-106666452D01*
X154282524Y-106652476D01*
X154268548Y-106635445D01*
X154258160Y-106616009D01*
X154251764Y-106594928D01*
X154249000Y-106566860D01*
X154249000Y-106103140D01*
X154251764Y-106075072D01*
X154258160Y-106053991D01*
X154268548Y-106034555D01*
X154282524Y-106017524D01*
X154299555Y-106003548D01*
X154318991Y-105993160D01*
X154340072Y-105986764D01*
X154368140Y-105984000D01*
X156181860Y-105984000D01*
X156209928Y-105986764D01*
G37*
G36*
X151259928Y-105986764D02*
G01*
X151281009Y-105993160D01*
X151300445Y-106003548D01*
X151317476Y-106017524D01*
X151331452Y-106034555D01*
X151341840Y-106053991D01*
X151348236Y-106075072D01*
X151351000Y-106103140D01*
X151351000Y-106566860D01*
X151348236Y-106594928D01*
X151341840Y-106616009D01*
X151331452Y-106635445D01*
X151317476Y-106652476D01*
X151300445Y-106666452D01*
X151281009Y-106676840D01*
X151259928Y-106683236D01*
X151231860Y-106686000D01*
X149418140Y-106686000D01*
X149390072Y-106683236D01*
X149368991Y-106676840D01*
X149349555Y-106666452D01*
X149332524Y-106652476D01*
X149318548Y-106635445D01*
X149308160Y-106616009D01*
X149301764Y-106594928D01*
X149299000Y-106566860D01*
X149299000Y-106103140D01*
X149301764Y-106075072D01*
X149308160Y-106053991D01*
X149318548Y-106034555D01*
X149332524Y-106017524D01*
X149349555Y-106003548D01*
X149368991Y-105993160D01*
X149390072Y-105986764D01*
X149418140Y-105984000D01*
X151231860Y-105984000D01*
X151259928Y-105986764D01*
G37*
G36*
X121626000Y-105951000D02*
G01*
X118974000Y-105951000D01*
X118974000Y-104629000D01*
X121626000Y-104629000D01*
X121626000Y-105951000D01*
G37*
G36*
X156209928Y-104716764D02*
G01*
X156231009Y-104723160D01*
X156250445Y-104733548D01*
X156267476Y-104747524D01*
X156281452Y-104764555D01*
X156291840Y-104783991D01*
X156298236Y-104805072D01*
X156301000Y-104833140D01*
X156301000Y-105296860D01*
X156298236Y-105324928D01*
X156291840Y-105346009D01*
X156281452Y-105365445D01*
X156267476Y-105382476D01*
X156250445Y-105396452D01*
X156231009Y-105406840D01*
X156209928Y-105413236D01*
X156181860Y-105416000D01*
X154368140Y-105416000D01*
X154340072Y-105413236D01*
X154318991Y-105406840D01*
X154299555Y-105396452D01*
X154282524Y-105382476D01*
X154268548Y-105365445D01*
X154258160Y-105346009D01*
X154251764Y-105324928D01*
X154249000Y-105296860D01*
X154249000Y-104833140D01*
X154251764Y-104805072D01*
X154258160Y-104783991D01*
X154268548Y-104764555D01*
X154282524Y-104747524D01*
X154299555Y-104733548D01*
X154318991Y-104723160D01*
X154340072Y-104716764D01*
X154368140Y-104714000D01*
X156181860Y-104714000D01*
X156209928Y-104716764D01*
G37*
G36*
X151259928Y-104716764D02*
G01*
X151281009Y-104723160D01*
X151300445Y-104733548D01*
X151317476Y-104747524D01*
X151331452Y-104764555D01*
X151341840Y-104783991D01*
X151348236Y-104805072D01*
X151351000Y-104833140D01*
X151351000Y-105296860D01*
X151348236Y-105324928D01*
X151341840Y-105346009D01*
X151331452Y-105365445D01*
X151317476Y-105382476D01*
X151300445Y-105396452D01*
X151281009Y-105406840D01*
X151259928Y-105413236D01*
X151231860Y-105416000D01*
X149418140Y-105416000D01*
X149390072Y-105413236D01*
X149368991Y-105406840D01*
X149349555Y-105396452D01*
X149332524Y-105382476D01*
X149318548Y-105365445D01*
X149308160Y-105346009D01*
X149301764Y-105324928D01*
X149299000Y-105296860D01*
X149299000Y-104833140D01*
X149301764Y-104805072D01*
X149308160Y-104783991D01*
X149318548Y-104764555D01*
X149332524Y-104747524D01*
X149349555Y-104733548D01*
X149368991Y-104723160D01*
X149390072Y-104716764D01*
X149418140Y-104714000D01*
X151231860Y-104714000D01*
X151259928Y-104716764D01*
G37*
G36*
X139301000Y-105401000D02*
G01*
X137499000Y-105401000D01*
X137499000Y-103599000D01*
X139301000Y-103599000D01*
X139301000Y-105401000D01*
G37*
G36*
X144026000Y-104971000D02*
G01*
X143274000Y-104971000D01*
X143274000Y-103649000D01*
X144026000Y-103649000D01*
X144026000Y-104971000D01*
G37*
G36*
X145926000Y-104971000D02*
G01*
X145174000Y-104971000D01*
X145174000Y-103649000D01*
X145926000Y-103649000D01*
X145926000Y-104971000D01*
G37*
G36*
X158864499Y-103378445D02*
G01*
X158901995Y-103389820D01*
X158936554Y-103408292D01*
X158966847Y-103433153D01*
X158991708Y-103463446D01*
X159010180Y-103498005D01*
X159021555Y-103535501D01*
X159026000Y-103580638D01*
X159026000Y-104319362D01*
X159021555Y-104364499D01*
X159010180Y-104401995D01*
X158991708Y-104436554D01*
X158966847Y-104466847D01*
X158936554Y-104491708D01*
X158901995Y-104510180D01*
X158864499Y-104521555D01*
X158819362Y-104526000D01*
X158180638Y-104526000D01*
X158135501Y-104521555D01*
X158098005Y-104510180D01*
X158063446Y-104491708D01*
X158033153Y-104466847D01*
X158008292Y-104436554D01*
X157989820Y-104401995D01*
X157978445Y-104364499D01*
X157974000Y-104319362D01*
X157974000Y-103580638D01*
X157978445Y-103535501D01*
X157989820Y-103498005D01*
X158008292Y-103463446D01*
X158033153Y-103433153D01*
X158063446Y-103408292D01*
X158098005Y-103389820D01*
X158135501Y-103378445D01*
X158180638Y-103374000D01*
X158819362Y-103374000D01*
X158864499Y-103378445D01*
G37*
G36*
X156209928Y-103446764D02*
G01*
X156231009Y-103453160D01*
X156250445Y-103463548D01*
X156267476Y-103477524D01*
X156281452Y-103494555D01*
X156291840Y-103513991D01*
X156298236Y-103535072D01*
X156301000Y-103563140D01*
X156301000Y-104026860D01*
X156298236Y-104054928D01*
X156291840Y-104076009D01*
X156281452Y-104095445D01*
X156267476Y-104112476D01*
X156250445Y-104126452D01*
X156231009Y-104136840D01*
X156209928Y-104143236D01*
X156181860Y-104146000D01*
X154368140Y-104146000D01*
X154340072Y-104143236D01*
X154318991Y-104136840D01*
X154299555Y-104126452D01*
X154282524Y-104112476D01*
X154268548Y-104095445D01*
X154258160Y-104076009D01*
X154251764Y-104054928D01*
X154249000Y-104026860D01*
X154249000Y-103563140D01*
X154251764Y-103535072D01*
X154258160Y-103513991D01*
X154268548Y-103494555D01*
X154282524Y-103477524D01*
X154299555Y-103463548D01*
X154318991Y-103453160D01*
X154340072Y-103446764D01*
X154368140Y-103444000D01*
X156181860Y-103444000D01*
X156209928Y-103446764D01*
G37*
G36*
X151259928Y-103446764D02*
G01*
X151281009Y-103453160D01*
X151300445Y-103463548D01*
X151317476Y-103477524D01*
X151331452Y-103494555D01*
X151341840Y-103513991D01*
X151348236Y-103535072D01*
X151351000Y-103563140D01*
X151351000Y-104026860D01*
X151348236Y-104054928D01*
X151341840Y-104076009D01*
X151331452Y-104095445D01*
X151317476Y-104112476D01*
X151300445Y-104126452D01*
X151281009Y-104136840D01*
X151259928Y-104143236D01*
X151231860Y-104146000D01*
X149418140Y-104146000D01*
X149390072Y-104143236D01*
X149368991Y-104136840D01*
X149349555Y-104126452D01*
X149332524Y-104112476D01*
X149318548Y-104095445D01*
X149308160Y-104076009D01*
X149301764Y-104054928D01*
X149299000Y-104026860D01*
X149299000Y-103563140D01*
X149301764Y-103535072D01*
X149308160Y-103513991D01*
X149318548Y-103494555D01*
X149332524Y-103477524D01*
X149349555Y-103463548D01*
X149368991Y-103453160D01*
X149390072Y-103446764D01*
X149418140Y-103444000D01*
X151231860Y-103444000D01*
X151259928Y-103446764D01*
G37*
G36*
X158864499Y-101628445D02*
G01*
X158901995Y-101639820D01*
X158936554Y-101658292D01*
X158966847Y-101683153D01*
X158991708Y-101713446D01*
X159010180Y-101748005D01*
X159021555Y-101785501D01*
X159026000Y-101830638D01*
X159026000Y-102569362D01*
X159021555Y-102614499D01*
X159010180Y-102651995D01*
X158991708Y-102686554D01*
X158966847Y-102716847D01*
X158936554Y-102741708D01*
X158901995Y-102760180D01*
X158864499Y-102771555D01*
X158819362Y-102776000D01*
X158180638Y-102776000D01*
X158135501Y-102771555D01*
X158098005Y-102760180D01*
X158063446Y-102741708D01*
X158033153Y-102716847D01*
X158008292Y-102686554D01*
X157989820Y-102651995D01*
X157978445Y-102614499D01*
X157974000Y-102569362D01*
X157974000Y-101830638D01*
X157978445Y-101785501D01*
X157989820Y-101748005D01*
X158008292Y-101713446D01*
X158033153Y-101683153D01*
X158063446Y-101658292D01*
X158098005Y-101639820D01*
X158135501Y-101628445D01*
X158180638Y-101624000D01*
X158819362Y-101624000D01*
X158864499Y-101628445D01*
G37*
G36*
X145926000Y-102351000D02*
G01*
X143274000Y-102351000D01*
X143274000Y-101029000D01*
X145926000Y-101029000D01*
X145926000Y-102351000D01*
G37*
G36*
X154314499Y-101078445D02*
G01*
X154351995Y-101089820D01*
X154386554Y-101108292D01*
X154416847Y-101133153D01*
X154441708Y-101163446D01*
X154460180Y-101198005D01*
X154471555Y-101235501D01*
X154476000Y-101280638D01*
X154476000Y-101919362D01*
X154471555Y-101964499D01*
X154460180Y-102001995D01*
X154441708Y-102036554D01*
X154416847Y-102066847D01*
X154386554Y-102091708D01*
X154351995Y-102110180D01*
X154314499Y-102121555D01*
X154269362Y-102126000D01*
X153530638Y-102126000D01*
X153485501Y-102121555D01*
X153448005Y-102110180D01*
X153413446Y-102091708D01*
X153383153Y-102066847D01*
X153358292Y-102036554D01*
X153339820Y-102001995D01*
X153328445Y-101964499D01*
X153324000Y-101919362D01*
X153324000Y-101280638D01*
X153328445Y-101235501D01*
X153339820Y-101198005D01*
X153358292Y-101163446D01*
X153383153Y-101133153D01*
X153413446Y-101108292D01*
X153448005Y-101089820D01*
X153485501Y-101078445D01*
X153530638Y-101074000D01*
X154269362Y-101074000D01*
X154314499Y-101078445D01*
G37*
G36*
X152564499Y-101078445D02*
G01*
X152601995Y-101089820D01*
X152636554Y-101108292D01*
X152666847Y-101133153D01*
X152691708Y-101163446D01*
X152710180Y-101198005D01*
X152721555Y-101235501D01*
X152726000Y-101280638D01*
X152726000Y-101919362D01*
X152721555Y-101964499D01*
X152710180Y-102001995D01*
X152691708Y-102036554D01*
X152666847Y-102066847D01*
X152636554Y-102091708D01*
X152601995Y-102110180D01*
X152564499Y-102121555D01*
X152519362Y-102126000D01*
X151780638Y-102126000D01*
X151735501Y-102121555D01*
X151698005Y-102110180D01*
X151663446Y-102091708D01*
X151633153Y-102066847D01*
X151608292Y-102036554D01*
X151589820Y-102001995D01*
X151578445Y-101964499D01*
X151574000Y-101919362D01*
X151574000Y-101280638D01*
X151578445Y-101235501D01*
X151589820Y-101198005D01*
X151608292Y-101163446D01*
X151633153Y-101133153D01*
X151663446Y-101108292D01*
X151698005Y-101089820D01*
X151735501Y-101078445D01*
X151780638Y-101074000D01*
X152519362Y-101074000D01*
X152564499Y-101078445D01*
G37*
G36*
X172013512Y-96243927D02*
G01*
X172162812Y-96273624D01*
X172326784Y-96341544D01*
X172474354Y-96440147D01*
X172599853Y-96565646D01*
X172698456Y-96713216D01*
X172766376Y-96877188D01*
X172792072Y-97006375D01*
X172798960Y-97041000D01*
X172801000Y-97051259D01*
X172801000Y-97228741D01*
X172766376Y-97402812D01*
X172698456Y-97566784D01*
X172599853Y-97714354D01*
X172474354Y-97839853D01*
X172326784Y-97938456D01*
X172162812Y-98006376D01*
X172013512Y-98036073D01*
X171988742Y-98041000D01*
X171811258Y-98041000D01*
X171786488Y-98036073D01*
X171637188Y-98006376D01*
X171473216Y-97938456D01*
X171325646Y-97839853D01*
X171200147Y-97714354D01*
X171101544Y-97566784D01*
X171033624Y-97402812D01*
X170999000Y-97228741D01*
X170999000Y-97051259D01*
X171001041Y-97041000D01*
X171007928Y-97006375D01*
X171033624Y-96877188D01*
X171101544Y-96713216D01*
X171200147Y-96565646D01*
X171325646Y-96440147D01*
X171473216Y-96341544D01*
X171637188Y-96273624D01*
X171786488Y-96243927D01*
X171811258Y-96239000D01*
X171988742Y-96239000D01*
X172013512Y-96243927D01*
G37*
G36*
X123113512Y-95243927D02*
G01*
X123262812Y-95273624D01*
X123426784Y-95341544D01*
X123574354Y-95440147D01*
X123699853Y-95565646D01*
X123798456Y-95713216D01*
X123866376Y-95877188D01*
X123896073Y-96026488D01*
X123901000Y-96051258D01*
X123901000Y-96228742D01*
X123896073Y-96253512D01*
X123866376Y-96402812D01*
X123798456Y-96566784D01*
X123699853Y-96714354D01*
X123574354Y-96839853D01*
X123426784Y-96938456D01*
X123262812Y-97006376D01*
X123113512Y-97036073D01*
X123088742Y-97041000D01*
X122911258Y-97041000D01*
X122886488Y-97036073D01*
X122737188Y-97006376D01*
X122573216Y-96938456D01*
X122425646Y-96839853D01*
X122300147Y-96714354D01*
X122201544Y-96566784D01*
X122133624Y-96402812D01*
X122103927Y-96253512D01*
X122099000Y-96228742D01*
X122099000Y-96051258D01*
X122103927Y-96026488D01*
X122133624Y-95877188D01*
X122201544Y-95713216D01*
X122300147Y-95565646D01*
X122425646Y-95440147D01*
X122573216Y-95341544D01*
X122737188Y-95273624D01*
X122886488Y-95243927D01*
X122911258Y-95239000D01*
X123088742Y-95239000D01*
X123113512Y-95243927D01*
G37*
G36*
X115613512Y-93943927D02*
G01*
X115762812Y-93973624D01*
X115926784Y-94041544D01*
X116074354Y-94140147D01*
X116199853Y-94265646D01*
X116298456Y-94413216D01*
X116366376Y-94577188D01*
X116401000Y-94751259D01*
X116401000Y-94928741D01*
X116366376Y-95102812D01*
X116298456Y-95266784D01*
X116199853Y-95414354D01*
X116074354Y-95539853D01*
X115926784Y-95638456D01*
X115762812Y-95706376D01*
X115613512Y-95736073D01*
X115588742Y-95741000D01*
X115411258Y-95741000D01*
X115386488Y-95736073D01*
X115237188Y-95706376D01*
X115073216Y-95638456D01*
X114925646Y-95539853D01*
X114800147Y-95414354D01*
X114701544Y-95266784D01*
X114633624Y-95102812D01*
X114599000Y-94928741D01*
X114599000Y-94751259D01*
X114633624Y-94577188D01*
X114701544Y-94413216D01*
X114800147Y-94265646D01*
X114925646Y-94140147D01*
X115073216Y-94041544D01*
X115237188Y-93973624D01*
X115386488Y-93943927D01*
X115411258Y-93939000D01*
X115588742Y-93939000D01*
X115613512Y-93943927D01*
G37*
G36*
X172013512Y-93703927D02*
G01*
X172162812Y-93733624D01*
X172326784Y-93801544D01*
X172474354Y-93900147D01*
X172599853Y-94025646D01*
X172698456Y-94173216D01*
X172766376Y-94337188D01*
X172796073Y-94486488D01*
X172798960Y-94501000D01*
X172801000Y-94511259D01*
X172801000Y-94688741D01*
X172766376Y-94862812D01*
X172698456Y-95026784D01*
X172599853Y-95174354D01*
X172474354Y-95299853D01*
X172326784Y-95398456D01*
X172162812Y-95466376D01*
X172013512Y-95496073D01*
X171988742Y-95501000D01*
X171811258Y-95501000D01*
X171786488Y-95496073D01*
X171637188Y-95466376D01*
X171473216Y-95398456D01*
X171325646Y-95299853D01*
X171200147Y-95174354D01*
X171101544Y-95026784D01*
X171033624Y-94862812D01*
X170999000Y-94688741D01*
X170999000Y-94511259D01*
X171001041Y-94501000D01*
X171003927Y-94486488D01*
X171033624Y-94337188D01*
X171101544Y-94173216D01*
X171200147Y-94025646D01*
X171325646Y-93900147D01*
X171473216Y-93801544D01*
X171637188Y-93733624D01*
X171786488Y-93703927D01*
X171811258Y-93699000D01*
X171988742Y-93699000D01*
X172013512Y-93703927D01*
G37*
G36*
X157251000Y-94951000D02*
G01*
X151649000Y-94951000D01*
X151649000Y-92849000D01*
X157251000Y-92849000D01*
X157251000Y-94951000D01*
G37*
G36*
X147751000Y-94951000D02*
G01*
X142149000Y-94951000D01*
X142149000Y-92849000D01*
X147751000Y-92849000D01*
X147751000Y-94951000D01*
G37*
G36*
X123901000Y-94501000D02*
G01*
X122099000Y-94501000D01*
X122099000Y-92699000D01*
X123901000Y-92699000D01*
X123901000Y-94501000D01*
G37*
G36*
X130875562Y-92640681D02*
G01*
X130910481Y-92651274D01*
X130942663Y-92668476D01*
X130970873Y-92691627D01*
X130994024Y-92719837D01*
X131011226Y-92752019D01*
X131021819Y-92786938D01*
X131026000Y-92829395D01*
X131026000Y-93970605D01*
X131021819Y-94013062D01*
X131011226Y-94047981D01*
X130994024Y-94080163D01*
X130970873Y-94108373D01*
X130942663Y-94131524D01*
X130910481Y-94148726D01*
X130875562Y-94159319D01*
X130833105Y-94163500D01*
X129366895Y-94163500D01*
X129324438Y-94159319D01*
X129289519Y-94148726D01*
X129257337Y-94131524D01*
X129229127Y-94108373D01*
X129205976Y-94080163D01*
X129188774Y-94047981D01*
X129178181Y-94013062D01*
X129174000Y-93970605D01*
X129174000Y-92829395D01*
X129178181Y-92786938D01*
X129188774Y-92752019D01*
X129205976Y-92719837D01*
X129229127Y-92691627D01*
X129257337Y-92668476D01*
X129289519Y-92651274D01*
X129324438Y-92640681D01*
X129366895Y-92636500D01*
X130833105Y-92636500D01*
X130875562Y-92640681D01*
G37*
G36*
X116401000Y-93201000D02*
G01*
X114599000Y-93201000D01*
X114599000Y-91399000D01*
X116401000Y-91399000D01*
X116401000Y-93201000D01*
G37*
G36*
X172013512Y-91163927D02*
G01*
X172162812Y-91193624D01*
X172326784Y-91261544D01*
X172474354Y-91360147D01*
X172599853Y-91485646D01*
X172698456Y-91633216D01*
X172766376Y-91797188D01*
X172801000Y-91971259D01*
X172801000Y-92148741D01*
X172766376Y-92322812D01*
X172698456Y-92486784D01*
X172599853Y-92634354D01*
X172474354Y-92759853D01*
X172326784Y-92858456D01*
X172162812Y-92926376D01*
X172013512Y-92956073D01*
X171988742Y-92961000D01*
X171811258Y-92961000D01*
X171786488Y-92956073D01*
X171637188Y-92926376D01*
X171473216Y-92858456D01*
X171325646Y-92759853D01*
X171200147Y-92634354D01*
X171101544Y-92486784D01*
X171033624Y-92322812D01*
X170999000Y-92148741D01*
X170999000Y-91971259D01*
X171033624Y-91797188D01*
X171101544Y-91633216D01*
X171200147Y-91485646D01*
X171325646Y-91360147D01*
X171473216Y-91261544D01*
X171637188Y-91193624D01*
X171786488Y-91163927D01*
X171811258Y-91159000D01*
X171988742Y-91159000D01*
X172013512Y-91163927D01*
G37*
G36*
X127113512Y-89743927D02*
G01*
X127262812Y-89773624D01*
X127426784Y-89841544D01*
X127574354Y-89940147D01*
X127699853Y-90065646D01*
X127798456Y-90213216D01*
X127866376Y-90377188D01*
X127901000Y-90551259D01*
X127901000Y-90728741D01*
X127866376Y-90902812D01*
X127798456Y-91066784D01*
X127699853Y-91214354D01*
X127574354Y-91339853D01*
X127426784Y-91438456D01*
X127262812Y-91506376D01*
X127113512Y-91536073D01*
X127088742Y-91541000D01*
X126911258Y-91541000D01*
X126886488Y-91536073D01*
X126737188Y-91506376D01*
X126573216Y-91438456D01*
X126425646Y-91339853D01*
X126300147Y-91214354D01*
X126201544Y-91066784D01*
X126133624Y-90902812D01*
X126099000Y-90728741D01*
X126099000Y-90551259D01*
X126133624Y-90377188D01*
X126201544Y-90213216D01*
X126300147Y-90065646D01*
X126425646Y-89940147D01*
X126573216Y-89841544D01*
X126737188Y-89773624D01*
X126886488Y-89743927D01*
X126911258Y-89739000D01*
X127088742Y-89739000D01*
X127113512Y-89743927D01*
G37*
G36*
X130875562Y-89665681D02*
G01*
X130910481Y-89676274D01*
X130942663Y-89693476D01*
X130970873Y-89716627D01*
X130994024Y-89744837D01*
X131011226Y-89777019D01*
X131021819Y-89811938D01*
X131026000Y-89854395D01*
X131026000Y-90995605D01*
X131021819Y-91038062D01*
X131011226Y-91072981D01*
X130994024Y-91105163D01*
X130970873Y-91133373D01*
X130942663Y-91156524D01*
X130910481Y-91173726D01*
X130875562Y-91184319D01*
X130833105Y-91188500D01*
X129366895Y-91188500D01*
X129324438Y-91184319D01*
X129289519Y-91173726D01*
X129257337Y-91156524D01*
X129229127Y-91133373D01*
X129205976Y-91105163D01*
X129188774Y-91072981D01*
X129178181Y-91038062D01*
X129174000Y-90995605D01*
X129174000Y-89854395D01*
X129178181Y-89811938D01*
X129188774Y-89777019D01*
X129205976Y-89744837D01*
X129229127Y-89716627D01*
X129257337Y-89693476D01*
X129289519Y-89676274D01*
X129324438Y-89665681D01*
X129366895Y-89661500D01*
X130833105Y-89661500D01*
X130875562Y-89665681D01*
G37*
G36*
X124364499Y-89928445D02*
G01*
X124401995Y-89939820D01*
X124436554Y-89958292D01*
X124466847Y-89983153D01*
X124491708Y-90013446D01*
X124510180Y-90048005D01*
X124521555Y-90085501D01*
X124526000Y-90130638D01*
X124526000Y-90869362D01*
X124521555Y-90914499D01*
X124510180Y-90951995D01*
X124491708Y-90986554D01*
X124466847Y-91016847D01*
X124436554Y-91041708D01*
X124401995Y-91060180D01*
X124364499Y-91071555D01*
X124319362Y-91076000D01*
X123680638Y-91076000D01*
X123635501Y-91071555D01*
X123598005Y-91060180D01*
X123563446Y-91041708D01*
X123533153Y-91016847D01*
X123508292Y-90986554D01*
X123489820Y-90951995D01*
X123478445Y-90914499D01*
X123474000Y-90869362D01*
X123474000Y-90130638D01*
X123478445Y-90085501D01*
X123489820Y-90048005D01*
X123508292Y-90013446D01*
X123533153Y-89983153D01*
X123563446Y-89958292D01*
X123598005Y-89939820D01*
X123635501Y-89928445D01*
X123680638Y-89924000D01*
X124319362Y-89924000D01*
X124364499Y-89928445D01*
G37*
G36*
X150130051Y-83976284D02*
G01*
X150146443Y-83981257D01*
X150161555Y-83989334D01*
X150174798Y-84000202D01*
X150185666Y-84013445D01*
X150193743Y-84028557D01*
X150198716Y-84044949D01*
X150201000Y-84068141D01*
X150201000Y-84481859D01*
X150198716Y-84505051D01*
X150193742Y-84521446D01*
X150183249Y-84541078D01*
X150173872Y-84563717D01*
X150169092Y-84587750D01*
X150169092Y-84612254D01*
X150173873Y-84636287D01*
X150183249Y-84658922D01*
X150193742Y-84678554D01*
X150198716Y-84694949D01*
X150201000Y-84718141D01*
X150201000Y-85131859D01*
X150198716Y-85155051D01*
X150193742Y-85171446D01*
X150183249Y-85191078D01*
X150173872Y-85213717D01*
X150169092Y-85237750D01*
X150169092Y-85262254D01*
X150173873Y-85286287D01*
X150183249Y-85308922D01*
X150193742Y-85328554D01*
X150198716Y-85344949D01*
X150201000Y-85368141D01*
X150201000Y-85781859D01*
X150198716Y-85805051D01*
X150193742Y-85821446D01*
X150183249Y-85841078D01*
X150173872Y-85863717D01*
X150169092Y-85887750D01*
X150169092Y-85912254D01*
X150173873Y-85936287D01*
X150183249Y-85958922D01*
X150193742Y-85978554D01*
X150198716Y-85994949D01*
X150201000Y-86018141D01*
X150201000Y-86431859D01*
X150198716Y-86455051D01*
X150193742Y-86471446D01*
X150183249Y-86491078D01*
X150173872Y-86513717D01*
X150169092Y-86537750D01*
X150169092Y-86562254D01*
X150173873Y-86586287D01*
X150183249Y-86608922D01*
X150193742Y-86628554D01*
X150198716Y-86644949D01*
X150201000Y-86668141D01*
X150201000Y-87081859D01*
X150198716Y-87105051D01*
X150193742Y-87121446D01*
X150183249Y-87141078D01*
X150173872Y-87163717D01*
X150169092Y-87187750D01*
X150169092Y-87212254D01*
X150173873Y-87236287D01*
X150183249Y-87258922D01*
X150193742Y-87278554D01*
X150198716Y-87294949D01*
X150201000Y-87318141D01*
X150201000Y-87731859D01*
X150198716Y-87755051D01*
X150193742Y-87771446D01*
X150183249Y-87791078D01*
X150173872Y-87813717D01*
X150169092Y-87837750D01*
X150169092Y-87862254D01*
X150173873Y-87886287D01*
X150183249Y-87908922D01*
X150193742Y-87928554D01*
X150198716Y-87944949D01*
X150201000Y-87968141D01*
X150201000Y-88381859D01*
X150198716Y-88405051D01*
X150193742Y-88421446D01*
X150183249Y-88441078D01*
X150173872Y-88463717D01*
X150169092Y-88487750D01*
X150169092Y-88512254D01*
X150173873Y-88536287D01*
X150183249Y-88558922D01*
X150193742Y-88578554D01*
X150198716Y-88594949D01*
X150201000Y-88618141D01*
X150201000Y-89031859D01*
X150198716Y-89055051D01*
X150193742Y-89071446D01*
X150183249Y-89091078D01*
X150173872Y-89113717D01*
X150169092Y-89137750D01*
X150169092Y-89162254D01*
X150173873Y-89186287D01*
X150183249Y-89208922D01*
X150193742Y-89228554D01*
X150198716Y-89244949D01*
X150201000Y-89268141D01*
X150201000Y-89681859D01*
X150198716Y-89705051D01*
X150193742Y-89721446D01*
X150183249Y-89741078D01*
X150173872Y-89763717D01*
X150169092Y-89787750D01*
X150169092Y-89812254D01*
X150173873Y-89836287D01*
X150183249Y-89858922D01*
X150193742Y-89878554D01*
X150198716Y-89894949D01*
X150201000Y-89918141D01*
X150201000Y-90331859D01*
X150198716Y-90355051D01*
X150193743Y-90371443D01*
X150185666Y-90386555D01*
X150174798Y-90399798D01*
X150161555Y-90410666D01*
X150146443Y-90418743D01*
X150130051Y-90423716D01*
X150106859Y-90426000D01*
X148293141Y-90426000D01*
X148269949Y-90423716D01*
X148253557Y-90418743D01*
X148238445Y-90410666D01*
X148225202Y-90399798D01*
X148214334Y-90386555D01*
X148206257Y-90371443D01*
X148201284Y-90355051D01*
X148199000Y-90331859D01*
X148199000Y-89918141D01*
X148201284Y-89894949D01*
X148206258Y-89878554D01*
X148216751Y-89858922D01*
X148226128Y-89836283D01*
X148230908Y-89812250D01*
X148230908Y-89787746D01*
X148226127Y-89763713D01*
X148216751Y-89741078D01*
X148206258Y-89721446D01*
X148201284Y-89705051D01*
X148199000Y-89681859D01*
X148199000Y-89268141D01*
X148201284Y-89244949D01*
X148206258Y-89228554D01*
X148216751Y-89208922D01*
X148226128Y-89186283D01*
X148230908Y-89162250D01*
X148230908Y-89137746D01*
X148226127Y-89113713D01*
X148216751Y-89091078D01*
X148206258Y-89071446D01*
X148201284Y-89055051D01*
X148199000Y-89031859D01*
X148199000Y-88618141D01*
X148201284Y-88594949D01*
X148206258Y-88578554D01*
X148216751Y-88558922D01*
X148226128Y-88536283D01*
X148230908Y-88512250D01*
X148230908Y-88487746D01*
X148226127Y-88463713D01*
X148216751Y-88441078D01*
X148206258Y-88421446D01*
X148201284Y-88405051D01*
X148199000Y-88381859D01*
X148199000Y-87968141D01*
X148201284Y-87944949D01*
X148206258Y-87928554D01*
X148216751Y-87908922D01*
X148226128Y-87886283D01*
X148230908Y-87862250D01*
X148230908Y-87837746D01*
X148226127Y-87813713D01*
X148216751Y-87791078D01*
X148206258Y-87771446D01*
X148201284Y-87755051D01*
X148199000Y-87731859D01*
X148199000Y-87318141D01*
X148201284Y-87294949D01*
X148206258Y-87278554D01*
X148216751Y-87258922D01*
X148226128Y-87236283D01*
X148230908Y-87212250D01*
X148230908Y-87187746D01*
X148226127Y-87163713D01*
X148216751Y-87141078D01*
X148206258Y-87121446D01*
X148201284Y-87105051D01*
X148199000Y-87081859D01*
X148199000Y-86668141D01*
X148201284Y-86644949D01*
X148206258Y-86628554D01*
X148216751Y-86608922D01*
X148226128Y-86586283D01*
X148230908Y-86562250D01*
X148230908Y-86537746D01*
X148226127Y-86513713D01*
X148216751Y-86491078D01*
X148206258Y-86471446D01*
X148201284Y-86455051D01*
X148199000Y-86431859D01*
X148199000Y-86018141D01*
X148201284Y-85994949D01*
X148206258Y-85978554D01*
X148216751Y-85958922D01*
X148226128Y-85936283D01*
X148230908Y-85912250D01*
X148230908Y-85887746D01*
X148226127Y-85863713D01*
X148216751Y-85841078D01*
X148206258Y-85821446D01*
X148201284Y-85805051D01*
X148199000Y-85781859D01*
X148199000Y-85368141D01*
X148201284Y-85344949D01*
X148206258Y-85328554D01*
X148216751Y-85308922D01*
X148226128Y-85286283D01*
X148230908Y-85262250D01*
X148230908Y-85237746D01*
X148226127Y-85213713D01*
X148216751Y-85191078D01*
X148206258Y-85171446D01*
X148201284Y-85155051D01*
X148199000Y-85131859D01*
X148199000Y-84718141D01*
X148201284Y-84694949D01*
X148206258Y-84678554D01*
X148216751Y-84658922D01*
X148226128Y-84636283D01*
X148230908Y-84612250D01*
X148230908Y-84587746D01*
X148226127Y-84563713D01*
X148216751Y-84541078D01*
X148206258Y-84521446D01*
X148201284Y-84505051D01*
X148199000Y-84481859D01*
X148199000Y-84068141D01*
X148201284Y-84044949D01*
X148206257Y-84028557D01*
X148214334Y-84013445D01*
X148225202Y-84000202D01*
X148238445Y-83989334D01*
X148253557Y-83981257D01*
X148269949Y-83976284D01*
X148293141Y-83974000D01*
X150106859Y-83974000D01*
X150130051Y-83976284D01*
G37*
G36*
X157130051Y-83976284D02*
G01*
X157146443Y-83981257D01*
X157161555Y-83989334D01*
X157174798Y-84000202D01*
X157185666Y-84013445D01*
X157193743Y-84028557D01*
X157198716Y-84044949D01*
X157201000Y-84068141D01*
X157201000Y-84481859D01*
X157198716Y-84505051D01*
X157193742Y-84521446D01*
X157183249Y-84541078D01*
X157173872Y-84563717D01*
X157169092Y-84587750D01*
X157169092Y-84612254D01*
X157173873Y-84636287D01*
X157183249Y-84658922D01*
X157193742Y-84678554D01*
X157198716Y-84694949D01*
X157201000Y-84718141D01*
X157201000Y-85131859D01*
X157198716Y-85155051D01*
X157193742Y-85171446D01*
X157183249Y-85191078D01*
X157173872Y-85213717D01*
X157169092Y-85237750D01*
X157169092Y-85262254D01*
X157173873Y-85286287D01*
X157183249Y-85308922D01*
X157193742Y-85328554D01*
X157198716Y-85344949D01*
X157201000Y-85368141D01*
X157201000Y-85781859D01*
X157198716Y-85805051D01*
X157193742Y-85821446D01*
X157183249Y-85841078D01*
X157173872Y-85863717D01*
X157169092Y-85887750D01*
X157169092Y-85912254D01*
X157173873Y-85936287D01*
X157183249Y-85958922D01*
X157193742Y-85978554D01*
X157198716Y-85994949D01*
X157201000Y-86018141D01*
X157201000Y-86431859D01*
X157198716Y-86455051D01*
X157193742Y-86471446D01*
X157183249Y-86491078D01*
X157173872Y-86513717D01*
X157169092Y-86537750D01*
X157169092Y-86562254D01*
X157173873Y-86586287D01*
X157183249Y-86608922D01*
X157193742Y-86628554D01*
X157198716Y-86644949D01*
X157201000Y-86668141D01*
X157201000Y-87081859D01*
X157198716Y-87105051D01*
X157193742Y-87121446D01*
X157183249Y-87141078D01*
X157173872Y-87163717D01*
X157169092Y-87187750D01*
X157169092Y-87212254D01*
X157173873Y-87236287D01*
X157183249Y-87258922D01*
X157193742Y-87278554D01*
X157198716Y-87294949D01*
X157201000Y-87318141D01*
X157201000Y-87731859D01*
X157198716Y-87755051D01*
X157193742Y-87771446D01*
X157183249Y-87791078D01*
X157173872Y-87813717D01*
X157169092Y-87837750D01*
X157169092Y-87862254D01*
X157173873Y-87886287D01*
X157183249Y-87908922D01*
X157193742Y-87928554D01*
X157198716Y-87944949D01*
X157201000Y-87968141D01*
X157201000Y-88381859D01*
X157198716Y-88405051D01*
X157193742Y-88421446D01*
X157183249Y-88441078D01*
X157173872Y-88463717D01*
X157169092Y-88487750D01*
X157169092Y-88512254D01*
X157173873Y-88536287D01*
X157183249Y-88558922D01*
X157193742Y-88578554D01*
X157198716Y-88594949D01*
X157201000Y-88618141D01*
X157201000Y-89031859D01*
X157198716Y-89055051D01*
X157193742Y-89071446D01*
X157183249Y-89091078D01*
X157173872Y-89113717D01*
X157169092Y-89137750D01*
X157169092Y-89162254D01*
X157173873Y-89186287D01*
X157183249Y-89208922D01*
X157193742Y-89228554D01*
X157198716Y-89244949D01*
X157201000Y-89268141D01*
X157201000Y-89681859D01*
X157198716Y-89705051D01*
X157193742Y-89721446D01*
X157183249Y-89741078D01*
X157173872Y-89763717D01*
X157169092Y-89787750D01*
X157169092Y-89812254D01*
X157173873Y-89836287D01*
X157183249Y-89858922D01*
X157193742Y-89878554D01*
X157198716Y-89894949D01*
X157201000Y-89918141D01*
X157201000Y-90331859D01*
X157198716Y-90355051D01*
X157193743Y-90371443D01*
X157185666Y-90386555D01*
X157174798Y-90399798D01*
X157161555Y-90410666D01*
X157146443Y-90418743D01*
X157130051Y-90423716D01*
X157106859Y-90426000D01*
X155293141Y-90426000D01*
X155269949Y-90423716D01*
X155253557Y-90418743D01*
X155238445Y-90410666D01*
X155225202Y-90399798D01*
X155214334Y-90386555D01*
X155206257Y-90371443D01*
X155201284Y-90355051D01*
X155199000Y-90331859D01*
X155199000Y-89918141D01*
X155201284Y-89894949D01*
X155206258Y-89878554D01*
X155216751Y-89858922D01*
X155226128Y-89836283D01*
X155230908Y-89812250D01*
X155230908Y-89787746D01*
X155226127Y-89763713D01*
X155216751Y-89741078D01*
X155206258Y-89721446D01*
X155201284Y-89705051D01*
X155199000Y-89681859D01*
X155199000Y-89268141D01*
X155201284Y-89244949D01*
X155206258Y-89228554D01*
X155216751Y-89208922D01*
X155226128Y-89186283D01*
X155230908Y-89162250D01*
X155230908Y-89137746D01*
X155226127Y-89113713D01*
X155216751Y-89091078D01*
X155206258Y-89071446D01*
X155201284Y-89055051D01*
X155199000Y-89031859D01*
X155199000Y-88618141D01*
X155201284Y-88594949D01*
X155206258Y-88578554D01*
X155216751Y-88558922D01*
X155226128Y-88536283D01*
X155230908Y-88512250D01*
X155230908Y-88487746D01*
X155226127Y-88463713D01*
X155216751Y-88441078D01*
X155206258Y-88421446D01*
X155201284Y-88405051D01*
X155199000Y-88381859D01*
X155199000Y-87968141D01*
X155201284Y-87944949D01*
X155206258Y-87928554D01*
X155216751Y-87908922D01*
X155226128Y-87886283D01*
X155230908Y-87862250D01*
X155230908Y-87837746D01*
X155226127Y-87813713D01*
X155216751Y-87791078D01*
X155206258Y-87771446D01*
X155201284Y-87755051D01*
X155199000Y-87731859D01*
X155199000Y-87318141D01*
X155201284Y-87294949D01*
X155206258Y-87278554D01*
X155216751Y-87258922D01*
X155226128Y-87236283D01*
X155230908Y-87212250D01*
X155230908Y-87187746D01*
X155226127Y-87163713D01*
X155216751Y-87141078D01*
X155206258Y-87121446D01*
X155201284Y-87105051D01*
X155199000Y-87081859D01*
X155199000Y-86668141D01*
X155201284Y-86644949D01*
X155206258Y-86628554D01*
X155216751Y-86608922D01*
X155226128Y-86586283D01*
X155230908Y-86562250D01*
X155230908Y-86537746D01*
X155226127Y-86513713D01*
X155216751Y-86491078D01*
X155206258Y-86471446D01*
X155201284Y-86455051D01*
X155199000Y-86431859D01*
X155199000Y-86018141D01*
X155201284Y-85994949D01*
X155206258Y-85978554D01*
X155216751Y-85958922D01*
X155226128Y-85936283D01*
X155230908Y-85912250D01*
X155230908Y-85887746D01*
X155226127Y-85863713D01*
X155216751Y-85841078D01*
X155206258Y-85821446D01*
X155201284Y-85805051D01*
X155199000Y-85781859D01*
X155199000Y-85368141D01*
X155201284Y-85344949D01*
X155206258Y-85328554D01*
X155216751Y-85308922D01*
X155226128Y-85286283D01*
X155230908Y-85262250D01*
X155230908Y-85237746D01*
X155226127Y-85213713D01*
X155216751Y-85191078D01*
X155206258Y-85171446D01*
X155201284Y-85155051D01*
X155199000Y-85131859D01*
X155199000Y-84718141D01*
X155201284Y-84694949D01*
X155206258Y-84678554D01*
X155216751Y-84658922D01*
X155226128Y-84636283D01*
X155230908Y-84612250D01*
X155230908Y-84587746D01*
X155226127Y-84563713D01*
X155216751Y-84541078D01*
X155206258Y-84521446D01*
X155201284Y-84505051D01*
X155199000Y-84481859D01*
X155199000Y-84068141D01*
X155201284Y-84044949D01*
X155206257Y-84028557D01*
X155214334Y-84013445D01*
X155225202Y-84000202D01*
X155238445Y-83989334D01*
X155253557Y-83981257D01*
X155269949Y-83976284D01*
X155293141Y-83974000D01*
X157106859Y-83974000D01*
X157130051Y-83976284D01*
G37*
G36*
X172013512Y-88623927D02*
G01*
X172162812Y-88653624D01*
X172326784Y-88721544D01*
X172474354Y-88820147D01*
X172599853Y-88945646D01*
X172698456Y-89093216D01*
X172766376Y-89257188D01*
X172801000Y-89431259D01*
X172801000Y-89608741D01*
X172766376Y-89782812D01*
X172698456Y-89946784D01*
X172599853Y-90094354D01*
X172474354Y-90219853D01*
X172326784Y-90318456D01*
X172162812Y-90386376D01*
X172021198Y-90414544D01*
X171988742Y-90421000D01*
X171811258Y-90421000D01*
X171778802Y-90414544D01*
X171637188Y-90386376D01*
X171473216Y-90318456D01*
X171325646Y-90219853D01*
X171200147Y-90094354D01*
X171101544Y-89946784D01*
X171033624Y-89782812D01*
X170999000Y-89608741D01*
X170999000Y-89431259D01*
X171033624Y-89257188D01*
X171101544Y-89093216D01*
X171200147Y-88945646D01*
X171325646Y-88820147D01*
X171473216Y-88721544D01*
X171637188Y-88653624D01*
X171786488Y-88623927D01*
X171811258Y-88619000D01*
X171988742Y-88619000D01*
X172013512Y-88623927D01*
G37*
G36*
X124364499Y-88178445D02*
G01*
X124401995Y-88189820D01*
X124436554Y-88208292D01*
X124466847Y-88233153D01*
X124491708Y-88263446D01*
X124510180Y-88298005D01*
X124521555Y-88335501D01*
X124526000Y-88380638D01*
X124526000Y-89119362D01*
X124521555Y-89164499D01*
X124510180Y-89201995D01*
X124491708Y-89236554D01*
X124466847Y-89266847D01*
X124436554Y-89291708D01*
X124401995Y-89310180D01*
X124364499Y-89321555D01*
X124319362Y-89326000D01*
X123680638Y-89326000D01*
X123635501Y-89321555D01*
X123598005Y-89310180D01*
X123563446Y-89291708D01*
X123533153Y-89266847D01*
X123508292Y-89236554D01*
X123489820Y-89201995D01*
X123478445Y-89164499D01*
X123474000Y-89119362D01*
X123474000Y-88380638D01*
X123478445Y-88335501D01*
X123489820Y-88298005D01*
X123508292Y-88263446D01*
X123533153Y-88233153D01*
X123563446Y-88208292D01*
X123598005Y-88189820D01*
X123635501Y-88178445D01*
X123680638Y-88174000D01*
X124319362Y-88174000D01*
X124364499Y-88178445D01*
G37*
G36*
X127901000Y-89001000D02*
G01*
X126099000Y-89001000D01*
X126099000Y-87199000D01*
X127901000Y-87199000D01*
X127901000Y-89001000D01*
G37*
G36*
X116094072Y-85980918D02*
G01*
X116295856Y-86064499D01*
X116339939Y-86082759D01*
X116442617Y-86151367D01*
X116561211Y-86230609D01*
X116749391Y-86418789D01*
X116812817Y-86513713D01*
X116882554Y-86618080D01*
X116897242Y-86640063D01*
X116999082Y-86885928D01*
X117051000Y-87146937D01*
X117051000Y-87413063D01*
X116999082Y-87674072D01*
X116901725Y-87909115D01*
X116897241Y-87919939D01*
X116839750Y-88005980D01*
X116749391Y-88141211D01*
X116561211Y-88329391D01*
X116484515Y-88380638D01*
X116339939Y-88477241D01*
X116339938Y-88477242D01*
X116339937Y-88477242D01*
X116094072Y-88579082D01*
X115833063Y-88631000D01*
X115566937Y-88631000D01*
X115305928Y-88579082D01*
X115060063Y-88477242D01*
X115060062Y-88477242D01*
X115060061Y-88477241D01*
X114915485Y-88380638D01*
X114838789Y-88329391D01*
X114650609Y-88141211D01*
X114560250Y-88005980D01*
X114502759Y-87919939D01*
X114498276Y-87909115D01*
X114400918Y-87674072D01*
X114349000Y-87413063D01*
X114349000Y-87146937D01*
X114400918Y-86885928D01*
X114502758Y-86640063D01*
X114517447Y-86618080D01*
X114587183Y-86513713D01*
X114650609Y-86418789D01*
X114838789Y-86230609D01*
X114957383Y-86151367D01*
X115060061Y-86082759D01*
X115104145Y-86064499D01*
X115305928Y-85980918D01*
X115566937Y-85929000D01*
X115833063Y-85929000D01*
X116094072Y-85980918D01*
G37*
G36*
X147314499Y-87578445D02*
G01*
X147351995Y-87589820D01*
X147386554Y-87608292D01*
X147416847Y-87633153D01*
X147441708Y-87663446D01*
X147460180Y-87698005D01*
X147471555Y-87735501D01*
X147476000Y-87780638D01*
X147476000Y-88419362D01*
X147471555Y-88464499D01*
X147460180Y-88501995D01*
X147441708Y-88536554D01*
X147416847Y-88566847D01*
X147386554Y-88591708D01*
X147351995Y-88610180D01*
X147314499Y-88621555D01*
X147269362Y-88626000D01*
X146530638Y-88626000D01*
X146485501Y-88621555D01*
X146448005Y-88610180D01*
X146413446Y-88591708D01*
X146383153Y-88566847D01*
X146358292Y-88536554D01*
X146339820Y-88501995D01*
X146328445Y-88464499D01*
X146324000Y-88419362D01*
X146324000Y-87780638D01*
X146328445Y-87735501D01*
X146339820Y-87698005D01*
X146358292Y-87663446D01*
X146383153Y-87633153D01*
X146413446Y-87608292D01*
X146448005Y-87589820D01*
X146485501Y-87578445D01*
X146530638Y-87574000D01*
X147269362Y-87574000D01*
X147314499Y-87578445D01*
G37*
G36*
X145564499Y-87578445D02*
G01*
X145601995Y-87589820D01*
X145636554Y-87608292D01*
X145666847Y-87633153D01*
X145691708Y-87663446D01*
X145710180Y-87698005D01*
X145721555Y-87735501D01*
X145726000Y-87780638D01*
X145726000Y-88419362D01*
X145721555Y-88464499D01*
X145710180Y-88501995D01*
X145691708Y-88536554D01*
X145666847Y-88566847D01*
X145636554Y-88591708D01*
X145601995Y-88610180D01*
X145564499Y-88621555D01*
X145519362Y-88626000D01*
X144780638Y-88626000D01*
X144735501Y-88621555D01*
X144698005Y-88610180D01*
X144663446Y-88591708D01*
X144633153Y-88566847D01*
X144608292Y-88536554D01*
X144589820Y-88501995D01*
X144578445Y-88464499D01*
X144574000Y-88419362D01*
X144574000Y-87780638D01*
X144578445Y-87735501D01*
X144589820Y-87698005D01*
X144608292Y-87663446D01*
X144633153Y-87633153D01*
X144663446Y-87608292D01*
X144698005Y-87589820D01*
X144735501Y-87578445D01*
X144780638Y-87574000D01*
X145519362Y-87574000D01*
X145564499Y-87578445D01*
G37*
G36*
X130788674Y-87078465D02*
G01*
X130826367Y-87089899D01*
X130861103Y-87108466D01*
X130891548Y-87133452D01*
X130916534Y-87163897D01*
X130935101Y-87198633D01*
X130946535Y-87236326D01*
X130951000Y-87281661D01*
X130951000Y-88118339D01*
X130946535Y-88163674D01*
X130935101Y-88201367D01*
X130916534Y-88236103D01*
X130891548Y-88266548D01*
X130861103Y-88291534D01*
X130826367Y-88310101D01*
X130788674Y-88321535D01*
X130743339Y-88326000D01*
X129656661Y-88326000D01*
X129611326Y-88321535D01*
X129573633Y-88310101D01*
X129538897Y-88291534D01*
X129508452Y-88266548D01*
X129483466Y-88236103D01*
X129464899Y-88201367D01*
X129453465Y-88163674D01*
X129449000Y-88118339D01*
X129449000Y-87281661D01*
X129453465Y-87236326D01*
X129464899Y-87198633D01*
X129483466Y-87163897D01*
X129508452Y-87133452D01*
X129538897Y-87108466D01*
X129573633Y-87089899D01*
X129611326Y-87078465D01*
X129656661Y-87074000D01*
X130743339Y-87074000D01*
X130788674Y-87078465D01*
G37*
G36*
X162764499Y-86978445D02*
G01*
X162801995Y-86989820D01*
X162836554Y-87008292D01*
X162866847Y-87033153D01*
X162891708Y-87063446D01*
X162910180Y-87098005D01*
X162921555Y-87135501D01*
X162926000Y-87180638D01*
X162926000Y-87819362D01*
X162921555Y-87864499D01*
X162910180Y-87901995D01*
X162891708Y-87936554D01*
X162866847Y-87966847D01*
X162836554Y-87991708D01*
X162801995Y-88010180D01*
X162764499Y-88021555D01*
X162719362Y-88026000D01*
X161980638Y-88026000D01*
X161935501Y-88021555D01*
X161898005Y-88010180D01*
X161863446Y-87991708D01*
X161833153Y-87966847D01*
X161808292Y-87936554D01*
X161789820Y-87901995D01*
X161778445Y-87864499D01*
X161774000Y-87819362D01*
X161774000Y-87180638D01*
X161778445Y-87135501D01*
X161789820Y-87098005D01*
X161808292Y-87063446D01*
X161833153Y-87033153D01*
X161863446Y-87008292D01*
X161898005Y-86989820D01*
X161935501Y-86978445D01*
X161980638Y-86974000D01*
X162719362Y-86974000D01*
X162764499Y-86978445D01*
G37*
G36*
X161014499Y-86978445D02*
G01*
X161051995Y-86989820D01*
X161086554Y-87008292D01*
X161116847Y-87033153D01*
X161141708Y-87063446D01*
X161160180Y-87098005D01*
X161171555Y-87135501D01*
X161176000Y-87180638D01*
X161176000Y-87819362D01*
X161171555Y-87864499D01*
X161160180Y-87901995D01*
X161141708Y-87936554D01*
X161116847Y-87966847D01*
X161086554Y-87991708D01*
X161051995Y-88010180D01*
X161014499Y-88021555D01*
X160969362Y-88026000D01*
X160230638Y-88026000D01*
X160185501Y-88021555D01*
X160148005Y-88010180D01*
X160113446Y-87991708D01*
X160083153Y-87966847D01*
X160058292Y-87936554D01*
X160039820Y-87901995D01*
X160028445Y-87864499D01*
X160024000Y-87819362D01*
X160024000Y-87180638D01*
X160028445Y-87135501D01*
X160039820Y-87098005D01*
X160058292Y-87063446D01*
X160083153Y-87033153D01*
X160113446Y-87008292D01*
X160148005Y-86989820D01*
X160185501Y-86978445D01*
X160230638Y-86974000D01*
X160969362Y-86974000D01*
X161014499Y-86978445D01*
G37*
G36*
X159064499Y-86828445D02*
G01*
X159101995Y-86839820D01*
X159136554Y-86858292D01*
X159166847Y-86883153D01*
X159191708Y-86913446D01*
X159210180Y-86948005D01*
X159221555Y-86985501D01*
X159226000Y-87030638D01*
X159226000Y-87769362D01*
X159221555Y-87814499D01*
X159210180Y-87851995D01*
X159191708Y-87886554D01*
X159166847Y-87916847D01*
X159136554Y-87941708D01*
X159101995Y-87960180D01*
X159064499Y-87971555D01*
X159019362Y-87976000D01*
X158380638Y-87976000D01*
X158335501Y-87971555D01*
X158298005Y-87960180D01*
X158263446Y-87941708D01*
X158233153Y-87916847D01*
X158208292Y-87886554D01*
X158189820Y-87851995D01*
X158178445Y-87814499D01*
X158174000Y-87769362D01*
X158174000Y-87030638D01*
X158178445Y-86985501D01*
X158189820Y-86948005D01*
X158208292Y-86913446D01*
X158233153Y-86883153D01*
X158263446Y-86858292D01*
X158298005Y-86839820D01*
X158335501Y-86828445D01*
X158380638Y-86824000D01*
X159019362Y-86824000D01*
X159064499Y-86828445D01*
G37*
G36*
X172007634Y-86082758D02*
G01*
X172162812Y-86113624D01*
X172326784Y-86181544D01*
X172474354Y-86280147D01*
X172599853Y-86405646D01*
X172698456Y-86553216D01*
X172766376Y-86717188D01*
X172801000Y-86891259D01*
X172801000Y-87068741D01*
X172766376Y-87242812D01*
X172698456Y-87406784D01*
X172599853Y-87554354D01*
X172474354Y-87679853D01*
X172326784Y-87778456D01*
X172162812Y-87846376D01*
X172023933Y-87874000D01*
X171988742Y-87881000D01*
X171811258Y-87881000D01*
X171776067Y-87874000D01*
X171637188Y-87846376D01*
X171473216Y-87778456D01*
X171325646Y-87679853D01*
X171200147Y-87554354D01*
X171101544Y-87406784D01*
X171033624Y-87242812D01*
X170999000Y-87068741D01*
X170999000Y-86891259D01*
X171033624Y-86717188D01*
X171101544Y-86553216D01*
X171200147Y-86405646D01*
X171325646Y-86280147D01*
X171473216Y-86181544D01*
X171637188Y-86113624D01*
X171792366Y-86082758D01*
X171811258Y-86079000D01*
X171988742Y-86079000D01*
X172007634Y-86082758D01*
G37*
G36*
X124364499Y-86103445D02*
G01*
X124401995Y-86114820D01*
X124436554Y-86133292D01*
X124466847Y-86158153D01*
X124491708Y-86188446D01*
X124510180Y-86223005D01*
X124521555Y-86260501D01*
X124526000Y-86305638D01*
X124526000Y-87044362D01*
X124521555Y-87089499D01*
X124510180Y-87126995D01*
X124491708Y-87161554D01*
X124466847Y-87191847D01*
X124436554Y-87216708D01*
X124401995Y-87235180D01*
X124364499Y-87246555D01*
X124319362Y-87251000D01*
X123680638Y-87251000D01*
X123635501Y-87246555D01*
X123598005Y-87235180D01*
X123563446Y-87216708D01*
X123533153Y-87191847D01*
X123508292Y-87161554D01*
X123489820Y-87126995D01*
X123478445Y-87089499D01*
X123474000Y-87044362D01*
X123474000Y-86305638D01*
X123478445Y-86260501D01*
X123489820Y-86223005D01*
X123508292Y-86188446D01*
X123533153Y-86158153D01*
X123563446Y-86133292D01*
X123598005Y-86114820D01*
X123635501Y-86103445D01*
X123680638Y-86099000D01*
X124319362Y-86099000D01*
X124364499Y-86103445D01*
G37*
G36*
X145664499Y-85278445D02*
G01*
X145701995Y-85289820D01*
X145736554Y-85308292D01*
X145766847Y-85333153D01*
X145791708Y-85363446D01*
X145810180Y-85398005D01*
X145821555Y-85435501D01*
X145826000Y-85480638D01*
X145826000Y-86119362D01*
X145821555Y-86164499D01*
X145810180Y-86201995D01*
X145791708Y-86236554D01*
X145766847Y-86266847D01*
X145736554Y-86291708D01*
X145701995Y-86310180D01*
X145664499Y-86321555D01*
X145619362Y-86326000D01*
X144880638Y-86326000D01*
X144835501Y-86321555D01*
X144798005Y-86310180D01*
X144763446Y-86291708D01*
X144733153Y-86266847D01*
X144708292Y-86236554D01*
X144689820Y-86201995D01*
X144678445Y-86164499D01*
X144674000Y-86119362D01*
X144674000Y-85480638D01*
X144678445Y-85435501D01*
X144689820Y-85398005D01*
X144708292Y-85363446D01*
X144733153Y-85333153D01*
X144763446Y-85308292D01*
X144798005Y-85289820D01*
X144835501Y-85278445D01*
X144880638Y-85274000D01*
X145619362Y-85274000D01*
X145664499Y-85278445D01*
G37*
G36*
X147414499Y-85278445D02*
G01*
X147451995Y-85289820D01*
X147486554Y-85308292D01*
X147516847Y-85333153D01*
X147541708Y-85363446D01*
X147560180Y-85398005D01*
X147571555Y-85435501D01*
X147576000Y-85480638D01*
X147576000Y-86119362D01*
X147571555Y-86164499D01*
X147560180Y-86201995D01*
X147541708Y-86236554D01*
X147516847Y-86266847D01*
X147486554Y-86291708D01*
X147451995Y-86310180D01*
X147414499Y-86321555D01*
X147369362Y-86326000D01*
X146630638Y-86326000D01*
X146585501Y-86321555D01*
X146548005Y-86310180D01*
X146513446Y-86291708D01*
X146483153Y-86266847D01*
X146458292Y-86236554D01*
X146439820Y-86201995D01*
X146428445Y-86164499D01*
X146424000Y-86119362D01*
X146424000Y-85480638D01*
X146428445Y-85435501D01*
X146439820Y-85398005D01*
X146458292Y-85363446D01*
X146483153Y-85333153D01*
X146513446Y-85308292D01*
X146548005Y-85289820D01*
X146585501Y-85278445D01*
X146630638Y-85274000D01*
X147369362Y-85274000D01*
X147414499Y-85278445D01*
G37*
G36*
X130788674Y-85028465D02*
G01*
X130826367Y-85039899D01*
X130861103Y-85058466D01*
X130891548Y-85083452D01*
X130916534Y-85113897D01*
X130935101Y-85148633D01*
X130946535Y-85186326D01*
X130951000Y-85231661D01*
X130951000Y-86068339D01*
X130946535Y-86113674D01*
X130935101Y-86151367D01*
X130916534Y-86186103D01*
X130891548Y-86216548D01*
X130861103Y-86241534D01*
X130826367Y-86260101D01*
X130788674Y-86271535D01*
X130743339Y-86276000D01*
X129656661Y-86276000D01*
X129611326Y-86271535D01*
X129573633Y-86260101D01*
X129538897Y-86241534D01*
X129508452Y-86216548D01*
X129483466Y-86186103D01*
X129464899Y-86151367D01*
X129453465Y-86113674D01*
X129449000Y-86068339D01*
X129449000Y-85231661D01*
X129453465Y-85186326D01*
X129464899Y-85148633D01*
X129483466Y-85113897D01*
X129508452Y-85083452D01*
X129538897Y-85058466D01*
X129573633Y-85039899D01*
X129611326Y-85028465D01*
X129656661Y-85024000D01*
X130743339Y-85024000D01*
X130788674Y-85028465D01*
G37*
G36*
X159064499Y-85078445D02*
G01*
X159101995Y-85089820D01*
X159136554Y-85108292D01*
X159166847Y-85133153D01*
X159191708Y-85163446D01*
X159210180Y-85198005D01*
X159221555Y-85235501D01*
X159226000Y-85280638D01*
X159226000Y-86019362D01*
X159221555Y-86064499D01*
X159210180Y-86101995D01*
X159191708Y-86136554D01*
X159166847Y-86166847D01*
X159136554Y-86191708D01*
X159101995Y-86210180D01*
X159064499Y-86221555D01*
X159019362Y-86226000D01*
X158380638Y-86226000D01*
X158335501Y-86221555D01*
X158298005Y-86210180D01*
X158263446Y-86191708D01*
X158233153Y-86166847D01*
X158208292Y-86136554D01*
X158189820Y-86101995D01*
X158178445Y-86064499D01*
X158174000Y-86019362D01*
X158174000Y-85280638D01*
X158178445Y-85235501D01*
X158189820Y-85198005D01*
X158208292Y-85163446D01*
X158233153Y-85133153D01*
X158263446Y-85108292D01*
X158298005Y-85089820D01*
X158335501Y-85078445D01*
X158380638Y-85074000D01*
X159019362Y-85074000D01*
X159064499Y-85078445D01*
G37*
G36*
X137898228Y-84040887D02*
G01*
X138062812Y-84073624D01*
X138226784Y-84141544D01*
X138374354Y-84240147D01*
X138499853Y-84365646D01*
X138598456Y-84513216D01*
X138666376Y-84677188D01*
X138701000Y-84851259D01*
X138701000Y-85028741D01*
X138666376Y-85202812D01*
X138598456Y-85366784D01*
X138499853Y-85514354D01*
X138374354Y-85639853D01*
X138226784Y-85738456D01*
X138062812Y-85806376D01*
X137934390Y-85831920D01*
X137888742Y-85841000D01*
X137711258Y-85841000D01*
X137665610Y-85831920D01*
X137537188Y-85806376D01*
X137373216Y-85738456D01*
X137225646Y-85639853D01*
X137100147Y-85514354D01*
X137001544Y-85366784D01*
X136933624Y-85202812D01*
X136899000Y-85028741D01*
X136899000Y-84851259D01*
X136933624Y-84677188D01*
X137001544Y-84513216D01*
X137100147Y-84365646D01*
X137225646Y-84240147D01*
X137373216Y-84141544D01*
X137537188Y-84073624D01*
X137701772Y-84040887D01*
X137711258Y-84039000D01*
X137888742Y-84039000D01*
X137898228Y-84040887D01*
G37*
G36*
X178155000Y-78205000D02*
G01*
X177799999Y-78205000D01*
X177775613Y-78207402D01*
X177752164Y-78214515D01*
X177730553Y-78226066D01*
X177711611Y-78241611D01*
X177696066Y-78260553D01*
X177684515Y-78282164D01*
X177677402Y-78305613D01*
X177675000Y-78329999D01*
X177677402Y-78354385D01*
X177684515Y-78377834D01*
X177696066Y-78399445D01*
X177711611Y-78418387D01*
X177730553Y-78433932D01*
X177752164Y-78445483D01*
X177810257Y-78469546D01*
X177810259Y-78469547D01*
X177917538Y-78541228D01*
X178008772Y-78632462D01*
X178073540Y-78729395D01*
X178080454Y-78739743D01*
X178129829Y-78858945D01*
X178155000Y-78985487D01*
X178155000Y-79114513D01*
X178129829Y-79241055D01*
X178080454Y-79360257D01*
X178080453Y-79360259D01*
X178008772Y-79467538D01*
X177917538Y-79558772D01*
X177810259Y-79630453D01*
X177810258Y-79630454D01*
X177810257Y-79630454D01*
X177679740Y-79684516D01*
X177658129Y-79696067D01*
X177639187Y-79711612D01*
X177623642Y-79730554D01*
X177612091Y-79752165D01*
X177604978Y-79775614D01*
X177602576Y-79800000D01*
X177604978Y-79824386D01*
X177612091Y-79847835D01*
X177623642Y-79869446D01*
X177639187Y-79888388D01*
X177658129Y-79903933D01*
X177679740Y-79915484D01*
X177810257Y-79969546D01*
X177810259Y-79969547D01*
X177917538Y-80041228D01*
X178008772Y-80132462D01*
X178050962Y-80195605D01*
X178080454Y-80239743D01*
X178129829Y-80358945D01*
X178155000Y-80485487D01*
X178155000Y-80614513D01*
X178129829Y-80741055D01*
X178085117Y-80849000D01*
X178080453Y-80860259D01*
X178008772Y-80967538D01*
X177917538Y-81058772D01*
X177810259Y-81130453D01*
X177810258Y-81130454D01*
X177810257Y-81130454D01*
X177679740Y-81184516D01*
X177658129Y-81196067D01*
X177639187Y-81211612D01*
X177623642Y-81230554D01*
X177612091Y-81252165D01*
X177604978Y-81275614D01*
X177602576Y-81300000D01*
X177604978Y-81324386D01*
X177612091Y-81347835D01*
X177623642Y-81369446D01*
X177639187Y-81388388D01*
X177658129Y-81403933D01*
X177679740Y-81415484D01*
X177810257Y-81469546D01*
X177810259Y-81469547D01*
X177917538Y-81541228D01*
X178008772Y-81632462D01*
X178080453Y-81739741D01*
X178080454Y-81739743D01*
X178129829Y-81858945D01*
X178155000Y-81985487D01*
X178155000Y-82114513D01*
X178129829Y-82241055D01*
X178111340Y-82285691D01*
X178080453Y-82360259D01*
X178008772Y-82467538D01*
X177917538Y-82558772D01*
X177810259Y-82630453D01*
X177810258Y-82630454D01*
X177810257Y-82630454D01*
X177679740Y-82684516D01*
X177658129Y-82696067D01*
X177639187Y-82711612D01*
X177623642Y-82730554D01*
X177612091Y-82752165D01*
X177604978Y-82775614D01*
X177602576Y-82800000D01*
X177604978Y-82824386D01*
X177612091Y-82847835D01*
X177623642Y-82869446D01*
X177639187Y-82888388D01*
X177658129Y-82903933D01*
X177679740Y-82915484D01*
X177796013Y-82963646D01*
X177810259Y-82969547D01*
X177917538Y-83041228D01*
X178008772Y-83132462D01*
X178067237Y-83219962D01*
X178080454Y-83239743D01*
X178129829Y-83358945D01*
X178155000Y-83485487D01*
X178155000Y-83614513D01*
X178129829Y-83741055D01*
X178080454Y-83860257D01*
X178080453Y-83860259D01*
X178008772Y-83967538D01*
X177917538Y-84058772D01*
X177810259Y-84130453D01*
X177810258Y-84130454D01*
X177810257Y-84130454D01*
X177679740Y-84184516D01*
X177658129Y-84196067D01*
X177639187Y-84211612D01*
X177623642Y-84230554D01*
X177612091Y-84252165D01*
X177604978Y-84275614D01*
X177602576Y-84300000D01*
X177604978Y-84324386D01*
X177612091Y-84347835D01*
X177623642Y-84369446D01*
X177639187Y-84388388D01*
X177658129Y-84403933D01*
X177679740Y-84415484D01*
X177810257Y-84469546D01*
X177810259Y-84469547D01*
X177917538Y-84541228D01*
X178008772Y-84632462D01*
X178058159Y-84706376D01*
X178080454Y-84739743D01*
X178129829Y-84858945D01*
X178155000Y-84985487D01*
X178155000Y-85114513D01*
X178129829Y-85241055D01*
X178080454Y-85360257D01*
X178080453Y-85360259D01*
X178008772Y-85467538D01*
X177917538Y-85558772D01*
X177810259Y-85630453D01*
X177810258Y-85630454D01*
X177810257Y-85630454D01*
X177691055Y-85679829D01*
X177564513Y-85705000D01*
X177435487Y-85705000D01*
X177308945Y-85679829D01*
X177189743Y-85630454D01*
X177189742Y-85630454D01*
X177189741Y-85630453D01*
X177082462Y-85558772D01*
X176991228Y-85467538D01*
X176919547Y-85360259D01*
X176919546Y-85360257D01*
X176870171Y-85241055D01*
X176845000Y-85114513D01*
X176845000Y-84985487D01*
X176870171Y-84858945D01*
X176919546Y-84739743D01*
X176941841Y-84706376D01*
X176991228Y-84632462D01*
X177082462Y-84541228D01*
X177189741Y-84469547D01*
X177189743Y-84469546D01*
X177320260Y-84415484D01*
X177341871Y-84403933D01*
X177360813Y-84388388D01*
X177376358Y-84369446D01*
X177387909Y-84347835D01*
X177395022Y-84324386D01*
X177397424Y-84300000D01*
X177395022Y-84275614D01*
X177387909Y-84252165D01*
X177376358Y-84230554D01*
X177360813Y-84211612D01*
X177341871Y-84196067D01*
X177320260Y-84184516D01*
X177189743Y-84130454D01*
X177189742Y-84130454D01*
X177189741Y-84130453D01*
X177082462Y-84058772D01*
X176991228Y-83967538D01*
X176919547Y-83860259D01*
X176919546Y-83860257D01*
X176870171Y-83741055D01*
X176845000Y-83614513D01*
X176845000Y-83485487D01*
X176870171Y-83358945D01*
X176919546Y-83239743D01*
X176932763Y-83219962D01*
X176991228Y-83132462D01*
X177082462Y-83041228D01*
X177189741Y-82969547D01*
X177203987Y-82963646D01*
X177320260Y-82915484D01*
X177341871Y-82903933D01*
X177360813Y-82888388D01*
X177376358Y-82869446D01*
X177387909Y-82847835D01*
X177395022Y-82824386D01*
X177397424Y-82800000D01*
X177395022Y-82775614D01*
X177387909Y-82752165D01*
X177376358Y-82730554D01*
X177360813Y-82711612D01*
X177341871Y-82696067D01*
X177320260Y-82684516D01*
X177189743Y-82630454D01*
X177189742Y-82630454D01*
X177189741Y-82630453D01*
X177082462Y-82558772D01*
X176991228Y-82467538D01*
X176919547Y-82360259D01*
X176888660Y-82285691D01*
X176870171Y-82241055D01*
X176845000Y-82114513D01*
X176845000Y-81985487D01*
X176870171Y-81858945D01*
X176919546Y-81739743D01*
X176919547Y-81739741D01*
X176991228Y-81632462D01*
X177082462Y-81541228D01*
X177189741Y-81469547D01*
X177189743Y-81469546D01*
X177320260Y-81415484D01*
X177341871Y-81403933D01*
X177360813Y-81388388D01*
X177376358Y-81369446D01*
X177387909Y-81347835D01*
X177395022Y-81324386D01*
X177397424Y-81300000D01*
X177395022Y-81275614D01*
X177387909Y-81252165D01*
X177376358Y-81230554D01*
X177360813Y-81211612D01*
X177341871Y-81196067D01*
X177320260Y-81184516D01*
X177189743Y-81130454D01*
X177189742Y-81130454D01*
X177189741Y-81130453D01*
X177082462Y-81058772D01*
X176991228Y-80967538D01*
X176919547Y-80860259D01*
X176914883Y-80849000D01*
X176870171Y-80741055D01*
X176845000Y-80614513D01*
X176845000Y-80485487D01*
X176870171Y-80358945D01*
X176919546Y-80239743D01*
X176949038Y-80195605D01*
X176991228Y-80132462D01*
X177082462Y-80041228D01*
X177189741Y-79969547D01*
X177189743Y-79969546D01*
X177320260Y-79915484D01*
X177341871Y-79903933D01*
X177360813Y-79888388D01*
X177376358Y-79869446D01*
X177387909Y-79847835D01*
X177395022Y-79824386D01*
X177397424Y-79800000D01*
X177395022Y-79775614D01*
X177387909Y-79752165D01*
X177376358Y-79730554D01*
X177360813Y-79711612D01*
X177341871Y-79696067D01*
X177320260Y-79684516D01*
X177189743Y-79630454D01*
X177189742Y-79630454D01*
X177189741Y-79630453D01*
X177082462Y-79558772D01*
X176991228Y-79467538D01*
X176919547Y-79360259D01*
X176919546Y-79360257D01*
X176870171Y-79241055D01*
X176845000Y-79114513D01*
X176845000Y-78985487D01*
X176870171Y-78858945D01*
X176919546Y-78739743D01*
X176926460Y-78729395D01*
X176991228Y-78632462D01*
X177082462Y-78541228D01*
X177189741Y-78469547D01*
X177189743Y-78469546D01*
X177247836Y-78445483D01*
X177269447Y-78433932D01*
X177288389Y-78418387D01*
X177303934Y-78399445D01*
X177315485Y-78377834D01*
X177322598Y-78354385D01*
X177325000Y-78329999D01*
X177322598Y-78305613D01*
X177315485Y-78282164D01*
X177303934Y-78260553D01*
X177288389Y-78241611D01*
X177269447Y-78226066D01*
X177247836Y-78214515D01*
X177224387Y-78207402D01*
X177200001Y-78205000D01*
X176845000Y-78205000D01*
X176845000Y-76895000D01*
X178155000Y-76895000D01*
X178155000Y-78205000D01*
G37*
G36*
X124364499Y-84353445D02*
G01*
X124401995Y-84364820D01*
X124436554Y-84383292D01*
X124466847Y-84408153D01*
X124491708Y-84438446D01*
X124510180Y-84473005D01*
X124521555Y-84510501D01*
X124526000Y-84555638D01*
X124526000Y-85294362D01*
X124521555Y-85339499D01*
X124510180Y-85376995D01*
X124491708Y-85411554D01*
X124466847Y-85441847D01*
X124436554Y-85466708D01*
X124401995Y-85485180D01*
X124364499Y-85496555D01*
X124319362Y-85501000D01*
X123680638Y-85501000D01*
X123635501Y-85496555D01*
X123598005Y-85485180D01*
X123563446Y-85466708D01*
X123533153Y-85441847D01*
X123508292Y-85411554D01*
X123489820Y-85376995D01*
X123478445Y-85339499D01*
X123474000Y-85294362D01*
X123474000Y-84555638D01*
X123478445Y-84510501D01*
X123489820Y-84473005D01*
X123508292Y-84438446D01*
X123533153Y-84408153D01*
X123563446Y-84383292D01*
X123598005Y-84364820D01*
X123635501Y-84353445D01*
X123680638Y-84349000D01*
X124319362Y-84349000D01*
X124364499Y-84353445D01*
G37*
G36*
X172013512Y-83543927D02*
G01*
X172162812Y-83573624D01*
X172326784Y-83641544D01*
X172474354Y-83740147D01*
X172599853Y-83865646D01*
X172698456Y-84013216D01*
X172766376Y-84177188D01*
X172789123Y-84291548D01*
X172800949Y-84351000D01*
X172801000Y-84351259D01*
X172801000Y-84528741D01*
X172766376Y-84702812D01*
X172698456Y-84866784D01*
X172599853Y-85014354D01*
X172474354Y-85139853D01*
X172326784Y-85238456D01*
X172162812Y-85306376D01*
X172013512Y-85336073D01*
X171988742Y-85341000D01*
X171811258Y-85341000D01*
X171786488Y-85336073D01*
X171637188Y-85306376D01*
X171473216Y-85238456D01*
X171325646Y-85139853D01*
X171200147Y-85014354D01*
X171101544Y-84866784D01*
X171033624Y-84702812D01*
X170999000Y-84528741D01*
X170999000Y-84351259D01*
X170999052Y-84351000D01*
X171010877Y-84291548D01*
X171033624Y-84177188D01*
X171101544Y-84013216D01*
X171200147Y-83865646D01*
X171325646Y-83740147D01*
X171473216Y-83641544D01*
X171637188Y-83573624D01*
X171786488Y-83543927D01*
X171811258Y-83539000D01*
X171988742Y-83539000D01*
X172013512Y-83543927D01*
G37*
G36*
X143039499Y-83978445D02*
G01*
X143076995Y-83989820D01*
X143111554Y-84008292D01*
X143141847Y-84033153D01*
X143166708Y-84063446D01*
X143185180Y-84098005D01*
X143196555Y-84135501D01*
X143201000Y-84180638D01*
X143201000Y-84819362D01*
X143196555Y-84864499D01*
X143185180Y-84901995D01*
X143166708Y-84936554D01*
X143141847Y-84966847D01*
X143111554Y-84991708D01*
X143076995Y-85010180D01*
X143039499Y-85021555D01*
X142994362Y-85026000D01*
X142255638Y-85026000D01*
X142210501Y-85021555D01*
X142173005Y-85010180D01*
X142138446Y-84991708D01*
X142108153Y-84966847D01*
X142083292Y-84936554D01*
X142064820Y-84901995D01*
X142053445Y-84864499D01*
X142049000Y-84819362D01*
X142049000Y-84180638D01*
X142053445Y-84135501D01*
X142064820Y-84098005D01*
X142083292Y-84063446D01*
X142108153Y-84033153D01*
X142138446Y-84008292D01*
X142173005Y-83989820D01*
X142210501Y-83978445D01*
X142255638Y-83974000D01*
X142994362Y-83974000D01*
X143039499Y-83978445D01*
G37*
G36*
X141289499Y-83978445D02*
G01*
X141326995Y-83989820D01*
X141361554Y-84008292D01*
X141391847Y-84033153D01*
X141416708Y-84063446D01*
X141435180Y-84098005D01*
X141446555Y-84135501D01*
X141451000Y-84180638D01*
X141451000Y-84819362D01*
X141446555Y-84864499D01*
X141435180Y-84901995D01*
X141416708Y-84936554D01*
X141391847Y-84966847D01*
X141361554Y-84991708D01*
X141326995Y-85010180D01*
X141289499Y-85021555D01*
X141244362Y-85026000D01*
X140505638Y-85026000D01*
X140460501Y-85021555D01*
X140423005Y-85010180D01*
X140388446Y-84991708D01*
X140358153Y-84966847D01*
X140333292Y-84936554D01*
X140314820Y-84901995D01*
X140303445Y-84864499D01*
X140299000Y-84819362D01*
X140299000Y-84180638D01*
X140303445Y-84135501D01*
X140314820Y-84098005D01*
X140333292Y-84063446D01*
X140358153Y-84033153D01*
X140388446Y-84008292D01*
X140423005Y-83989820D01*
X140460501Y-83978445D01*
X140505638Y-83974000D01*
X141244362Y-83974000D01*
X141289499Y-83978445D01*
G37*
G36*
X127213512Y-82943927D02*
G01*
X127362812Y-82973624D01*
X127526784Y-83041544D01*
X127674354Y-83140147D01*
X127799853Y-83265646D01*
X127898456Y-83413216D01*
X127966376Y-83577188D01*
X128001000Y-83751259D01*
X128001000Y-83928741D01*
X127966376Y-84102812D01*
X127898456Y-84266784D01*
X127799853Y-84414354D01*
X127674354Y-84539853D01*
X127526784Y-84638456D01*
X127362812Y-84706376D01*
X127213512Y-84736073D01*
X127188742Y-84741000D01*
X127011258Y-84741000D01*
X126986488Y-84736073D01*
X126837188Y-84706376D01*
X126673216Y-84638456D01*
X126525646Y-84539853D01*
X126400147Y-84414354D01*
X126301544Y-84266784D01*
X126233624Y-84102812D01*
X126199000Y-83928741D01*
X126199000Y-83751259D01*
X126233624Y-83577188D01*
X126301544Y-83413216D01*
X126400147Y-83265646D01*
X126525646Y-83140147D01*
X126673216Y-83041544D01*
X126837188Y-82973624D01*
X126986488Y-82943927D01*
X127011258Y-82939000D01*
X127188742Y-82939000D01*
X127213512Y-82943927D01*
G37*
G36*
X145414499Y-83553445D02*
G01*
X145451995Y-83564820D01*
X145486554Y-83583292D01*
X145516847Y-83608153D01*
X145541708Y-83638446D01*
X145560180Y-83673005D01*
X145571555Y-83710501D01*
X145576000Y-83755638D01*
X145576000Y-84494362D01*
X145571555Y-84539499D01*
X145560180Y-84576995D01*
X145541708Y-84611554D01*
X145516847Y-84641847D01*
X145486554Y-84666708D01*
X145451995Y-84685180D01*
X145414499Y-84696555D01*
X145369362Y-84701000D01*
X144730638Y-84701000D01*
X144685501Y-84696555D01*
X144648005Y-84685180D01*
X144613446Y-84666708D01*
X144583153Y-84641847D01*
X144558292Y-84611554D01*
X144539820Y-84576995D01*
X144528445Y-84539499D01*
X144524000Y-84494362D01*
X144524000Y-83755638D01*
X144528445Y-83710501D01*
X144539820Y-83673005D01*
X144558292Y-83638446D01*
X144583153Y-83608153D01*
X144613446Y-83583292D01*
X144648005Y-83564820D01*
X144685501Y-83553445D01*
X144730638Y-83549000D01*
X145369362Y-83549000D01*
X145414499Y-83553445D01*
G37*
G36*
X130763674Y-83103465D02*
G01*
X130801367Y-83114899D01*
X130836103Y-83133466D01*
X130866548Y-83158452D01*
X130891534Y-83188897D01*
X130910101Y-83223633D01*
X130921535Y-83261326D01*
X130926000Y-83306661D01*
X130926000Y-84143339D01*
X130921535Y-84188674D01*
X130910101Y-84226367D01*
X130891534Y-84261103D01*
X130866548Y-84291548D01*
X130836103Y-84316534D01*
X130801367Y-84335101D01*
X130763674Y-84346535D01*
X130718339Y-84351000D01*
X129631661Y-84351000D01*
X129586326Y-84346535D01*
X129548633Y-84335101D01*
X129513897Y-84316534D01*
X129483452Y-84291548D01*
X129458466Y-84261103D01*
X129439899Y-84226367D01*
X129428465Y-84188674D01*
X129424000Y-84143339D01*
X129424000Y-83306661D01*
X129428465Y-83261326D01*
X129439899Y-83223633D01*
X129458466Y-83188897D01*
X129483452Y-83158452D01*
X129513897Y-83133466D01*
X129548633Y-83114899D01*
X129586326Y-83103465D01*
X129631661Y-83099000D01*
X130718339Y-83099000D01*
X130763674Y-83103465D01*
G37*
G36*
X117051000Y-83551000D02*
G01*
X114349000Y-83551000D01*
X114349000Y-80849000D01*
X117051000Y-80849000D01*
X117051000Y-83551000D01*
G37*
G36*
X124675562Y-81840681D02*
G01*
X124710481Y-81851274D01*
X124742663Y-81868476D01*
X124770873Y-81891627D01*
X124794024Y-81919837D01*
X124811226Y-81952019D01*
X124821819Y-81986938D01*
X124826000Y-82029395D01*
X124826000Y-83170605D01*
X124821819Y-83213062D01*
X124811226Y-83247981D01*
X124794024Y-83280163D01*
X124770873Y-83308373D01*
X124742663Y-83331524D01*
X124710481Y-83348726D01*
X124675562Y-83359319D01*
X124633105Y-83363500D01*
X123166895Y-83363500D01*
X123124438Y-83359319D01*
X123089519Y-83348726D01*
X123057337Y-83331524D01*
X123029127Y-83308373D01*
X123005976Y-83280163D01*
X122988774Y-83247981D01*
X122978181Y-83213062D01*
X122974000Y-83170605D01*
X122974000Y-82029395D01*
X122978181Y-81986938D01*
X122988774Y-81952019D01*
X123005976Y-81919837D01*
X123029127Y-81891627D01*
X123057337Y-81868476D01*
X123089519Y-81851274D01*
X123124438Y-81840681D01*
X123166895Y-81836500D01*
X124633105Y-81836500D01*
X124675562Y-81840681D01*
G37*
G36*
X138701000Y-83301000D02*
G01*
X136899000Y-83301000D01*
X136899000Y-81499000D01*
X138701000Y-81499000D01*
X138701000Y-83301000D01*
G37*
G36*
X141314499Y-82078445D02*
G01*
X141351995Y-82089820D01*
X141386554Y-82108292D01*
X141416847Y-82133153D01*
X141441708Y-82163446D01*
X141460180Y-82198005D01*
X141471555Y-82235501D01*
X141476000Y-82280638D01*
X141476000Y-82919362D01*
X141471555Y-82964499D01*
X141460180Y-83001995D01*
X141441708Y-83036554D01*
X141416847Y-83066847D01*
X141386554Y-83091708D01*
X141351995Y-83110180D01*
X141314499Y-83121555D01*
X141269362Y-83126000D01*
X140530638Y-83126000D01*
X140485501Y-83121555D01*
X140448005Y-83110180D01*
X140413446Y-83091708D01*
X140383153Y-83066847D01*
X140358292Y-83036554D01*
X140339820Y-83001995D01*
X140328445Y-82964499D01*
X140324000Y-82919362D01*
X140324000Y-82280638D01*
X140328445Y-82235501D01*
X140339820Y-82198005D01*
X140358292Y-82163446D01*
X140383153Y-82133153D01*
X140413446Y-82108292D01*
X140448005Y-82089820D01*
X140485501Y-82078445D01*
X140530638Y-82074000D01*
X141269362Y-82074000D01*
X141314499Y-82078445D01*
G37*
G36*
X143064499Y-82078445D02*
G01*
X143101995Y-82089820D01*
X143136554Y-82108292D01*
X143166847Y-82133153D01*
X143191708Y-82163446D01*
X143210180Y-82198005D01*
X143221555Y-82235501D01*
X143226000Y-82280638D01*
X143226000Y-82919362D01*
X143221555Y-82964499D01*
X143210180Y-83001995D01*
X143191708Y-83036554D01*
X143166847Y-83066847D01*
X143136554Y-83091708D01*
X143101995Y-83110180D01*
X143064499Y-83121555D01*
X143019362Y-83126000D01*
X142280638Y-83126000D01*
X142235501Y-83121555D01*
X142198005Y-83110180D01*
X142163446Y-83091708D01*
X142133153Y-83066847D01*
X142108292Y-83036554D01*
X142089820Y-83001995D01*
X142078445Y-82964499D01*
X142074000Y-82919362D01*
X142074000Y-82280638D01*
X142078445Y-82235501D01*
X142089820Y-82198005D01*
X142108292Y-82163446D01*
X142133153Y-82133153D01*
X142163446Y-82108292D01*
X142198005Y-82089820D01*
X142235501Y-82078445D01*
X142280638Y-82074000D01*
X143019362Y-82074000D01*
X143064499Y-82078445D01*
G37*
G36*
X145414499Y-81803445D02*
G01*
X145451995Y-81814820D01*
X145486554Y-81833292D01*
X145516847Y-81858153D01*
X145541708Y-81888446D01*
X145560180Y-81923005D01*
X145571555Y-81960501D01*
X145576000Y-82005638D01*
X145576000Y-82744362D01*
X145571555Y-82789499D01*
X145560180Y-82826995D01*
X145541708Y-82861554D01*
X145516847Y-82891847D01*
X145486554Y-82916708D01*
X145451995Y-82935180D01*
X145414499Y-82946555D01*
X145369362Y-82951000D01*
X144730638Y-82951000D01*
X144685501Y-82946555D01*
X144648005Y-82935180D01*
X144613446Y-82916708D01*
X144583153Y-82891847D01*
X144558292Y-82861554D01*
X144539820Y-82826995D01*
X144528445Y-82789499D01*
X144524000Y-82744362D01*
X144524000Y-82005638D01*
X144528445Y-81960501D01*
X144539820Y-81923005D01*
X144558292Y-81888446D01*
X144583153Y-81858153D01*
X144613446Y-81833292D01*
X144648005Y-81814820D01*
X144685501Y-81803445D01*
X144730638Y-81799000D01*
X145369362Y-81799000D01*
X145414499Y-81803445D01*
G37*
G36*
X172801000Y-82801000D02*
G01*
X170999000Y-82801000D01*
X170999000Y-80999000D01*
X172801000Y-80999000D01*
X172801000Y-82801000D01*
G37*
G36*
X130763674Y-81053465D02*
G01*
X130801367Y-81064899D01*
X130836103Y-81083466D01*
X130866548Y-81108452D01*
X130891534Y-81138897D01*
X130910101Y-81173633D01*
X130921535Y-81211326D01*
X130926000Y-81256661D01*
X130926000Y-82093339D01*
X130921535Y-82138674D01*
X130910101Y-82176367D01*
X130891534Y-82211103D01*
X130866548Y-82241548D01*
X130836103Y-82266534D01*
X130801367Y-82285101D01*
X130763674Y-82296535D01*
X130718339Y-82301000D01*
X129631661Y-82301000D01*
X129586326Y-82296535D01*
X129548633Y-82285101D01*
X129513897Y-82266534D01*
X129483452Y-82241548D01*
X129458466Y-82211103D01*
X129439899Y-82176367D01*
X129428465Y-82138674D01*
X129424000Y-82093339D01*
X129424000Y-81256661D01*
X129428465Y-81211326D01*
X129439899Y-81173633D01*
X129458466Y-81138897D01*
X129483452Y-81108452D01*
X129513897Y-81083466D01*
X129548633Y-81064899D01*
X129586326Y-81053465D01*
X129631661Y-81049000D01*
X130718339Y-81049000D01*
X130763674Y-81053465D01*
G37*
G36*
X128001000Y-82201000D02*
G01*
X126199000Y-82201000D01*
X126199000Y-80399000D01*
X128001000Y-80399000D01*
X128001000Y-82201000D01*
G37*
G36*
X124675562Y-78865681D02*
G01*
X124710481Y-78876274D01*
X124742663Y-78893476D01*
X124770873Y-78916627D01*
X124794024Y-78944837D01*
X124811226Y-78977019D01*
X124821819Y-79011938D01*
X124826000Y-79054395D01*
X124826000Y-80195605D01*
X124821819Y-80238062D01*
X124811226Y-80272981D01*
X124794024Y-80305163D01*
X124770873Y-80333373D01*
X124742663Y-80356524D01*
X124710481Y-80373726D01*
X124675562Y-80384319D01*
X124633105Y-80388500D01*
X123166895Y-80388500D01*
X123124438Y-80384319D01*
X123089519Y-80373726D01*
X123057337Y-80356524D01*
X123029127Y-80333373D01*
X123005976Y-80305163D01*
X122988774Y-80272981D01*
X122978181Y-80238062D01*
X122974000Y-80195605D01*
X122974000Y-79054395D01*
X122978181Y-79011938D01*
X122988774Y-78977019D01*
X123005976Y-78944837D01*
X123029127Y-78916627D01*
X123057337Y-78893476D01*
X123089519Y-78876274D01*
X123124438Y-78865681D01*
X123166895Y-78861500D01*
X124633105Y-78861500D01*
X124675562Y-78865681D01*
G37*
G36*
X130975562Y-78540681D02*
G01*
X131010481Y-78551274D01*
X131042663Y-78568476D01*
X131070873Y-78591627D01*
X131094024Y-78619837D01*
X131111226Y-78652019D01*
X131121819Y-78686938D01*
X131126000Y-78729395D01*
X131126000Y-79870605D01*
X131121819Y-79913062D01*
X131111226Y-79947981D01*
X131094024Y-79980163D01*
X131070873Y-80008373D01*
X131042663Y-80031524D01*
X131010481Y-80048726D01*
X130975562Y-80059319D01*
X130933105Y-80063500D01*
X129466895Y-80063500D01*
X129424438Y-80059319D01*
X129389519Y-80048726D01*
X129357337Y-80031524D01*
X129329127Y-80008373D01*
X129305976Y-79980163D01*
X129288774Y-79947981D01*
X129278181Y-79913062D01*
X129274000Y-79870605D01*
X129274000Y-78729395D01*
X129278181Y-78686938D01*
X129288774Y-78652019D01*
X129305976Y-78619837D01*
X129329127Y-78591627D01*
X129357337Y-78568476D01*
X129389519Y-78551274D01*
X129424438Y-78540681D01*
X129466895Y-78536500D01*
X130933105Y-78536500D01*
X130975562Y-78540681D01*
G37*
G36*
X130975562Y-75565681D02*
G01*
X131010481Y-75576274D01*
X131042663Y-75593476D01*
X131070873Y-75616627D01*
X131094024Y-75644837D01*
X131111226Y-75677019D01*
X131121819Y-75711938D01*
X131126000Y-75754395D01*
X131126000Y-76895605D01*
X131121819Y-76938062D01*
X131111226Y-76972981D01*
X131094024Y-77005163D01*
X131070873Y-77033373D01*
X131042663Y-77056524D01*
X131010481Y-77073726D01*
X130975562Y-77084319D01*
X130933105Y-77088500D01*
X129466895Y-77088500D01*
X129424438Y-77084319D01*
X129389519Y-77073726D01*
X129357337Y-77056524D01*
X129329127Y-77033373D01*
X129305976Y-77005163D01*
X129288774Y-76972981D01*
X129278181Y-76938062D01*
X129274000Y-76895605D01*
X129274000Y-75754395D01*
X129278181Y-75711938D01*
X129288774Y-75677019D01*
X129305976Y-75644837D01*
X129329127Y-75616627D01*
X129357337Y-75593476D01*
X129389519Y-75576274D01*
X129424438Y-75565681D01*
X129466895Y-75561500D01*
X130933105Y-75561500D01*
X130975562Y-75565681D01*
G37*
G36*
X123101000Y-74701000D02*
G01*
X122099000Y-74701000D01*
X122099000Y-73799000D01*
X123101000Y-73799000D01*
X123101000Y-74701000D01*
G37*
G36*
X132793512Y-72503927D02*
G01*
X132942812Y-72533624D01*
X133106784Y-72601544D01*
X133254354Y-72700147D01*
X133379853Y-72825646D01*
X133478456Y-72973216D01*
X133546376Y-73137188D01*
X133581000Y-73311259D01*
X133581000Y-73488741D01*
X133546376Y-73662812D01*
X133478456Y-73826784D01*
X133379853Y-73974354D01*
X133254354Y-74099853D01*
X133106784Y-74198456D01*
X132942812Y-74266376D01*
X132793512Y-74296073D01*
X132768742Y-74301000D01*
X132591258Y-74301000D01*
X132566488Y-74296073D01*
X132417188Y-74266376D01*
X132253216Y-74198456D01*
X132105646Y-74099853D01*
X131980147Y-73974354D01*
X131881544Y-73826784D01*
X131813624Y-73662812D01*
X131779000Y-73488741D01*
X131779000Y-73311259D01*
X131813624Y-73137188D01*
X131881544Y-72973216D01*
X131980147Y-72825646D01*
X132105646Y-72700147D01*
X132253216Y-72601544D01*
X132417188Y-72533624D01*
X132566488Y-72503927D01*
X132591258Y-72499000D01*
X132768742Y-72499000D01*
X132793512Y-72503927D01*
G37*
G36*
X128501000Y-74301000D02*
G01*
X126699000Y-74301000D01*
X126699000Y-72499000D01*
X128501000Y-72499000D01*
X128501000Y-74301000D01*
G37*
G36*
X130253512Y-72503927D02*
G01*
X130402812Y-72533624D01*
X130566784Y-72601544D01*
X130714354Y-72700147D01*
X130839853Y-72825646D01*
X130938456Y-72973216D01*
X131006376Y-73137188D01*
X131041000Y-73311259D01*
X131041000Y-73488741D01*
X131006376Y-73662812D01*
X130938456Y-73826784D01*
X130839853Y-73974354D01*
X130714354Y-74099853D01*
X130566784Y-74198456D01*
X130402812Y-74266376D01*
X130253512Y-74296073D01*
X130228742Y-74301000D01*
X130051258Y-74301000D01*
X130026488Y-74296073D01*
X129877188Y-74266376D01*
X129713216Y-74198456D01*
X129565646Y-74099853D01*
X129440147Y-73974354D01*
X129341544Y-73826784D01*
X129273624Y-73662812D01*
X129239000Y-73488741D01*
X129239000Y-73311259D01*
X129273624Y-73137188D01*
X129341544Y-72973216D01*
X129440147Y-72825646D01*
X129565646Y-72700147D01*
X129713216Y-72601544D01*
X129877188Y-72533624D01*
X130026488Y-72503927D01*
X130051258Y-72499000D01*
X130228742Y-72499000D01*
X130253512Y-72503927D01*
G37*
G36*
X121264499Y-72803445D02*
G01*
X121301995Y-72814820D01*
X121336554Y-72833292D01*
X121366847Y-72858153D01*
X121391708Y-72888446D01*
X121410180Y-72923005D01*
X121421555Y-72960501D01*
X121426000Y-73005638D01*
X121426000Y-73744362D01*
X121421555Y-73789499D01*
X121410180Y-73826995D01*
X121391708Y-73861554D01*
X121366847Y-73891847D01*
X121336554Y-73916708D01*
X121301995Y-73935180D01*
X121264499Y-73946555D01*
X121219362Y-73951000D01*
X120580638Y-73951000D01*
X120535501Y-73946555D01*
X120498005Y-73935180D01*
X120463446Y-73916708D01*
X120433153Y-73891847D01*
X120408292Y-73861554D01*
X120389820Y-73826995D01*
X120378445Y-73789499D01*
X120374000Y-73744362D01*
X120374000Y-73005638D01*
X120378445Y-72960501D01*
X120389820Y-72923005D01*
X120408292Y-72888446D01*
X120433153Y-72858153D01*
X120463446Y-72833292D01*
X120498005Y-72814820D01*
X120535501Y-72803445D01*
X120580638Y-72799000D01*
X121219362Y-72799000D01*
X121264499Y-72803445D01*
G37*
G36*
X125101000Y-73751000D02*
G01*
X124099000Y-73751000D01*
X124099000Y-72849000D01*
X125101000Y-72849000D01*
X125101000Y-73751000D01*
G37*
G36*
X169001000Y-73101000D02*
G01*
X167199000Y-73101000D01*
X167199000Y-71299000D01*
X169001000Y-71299000D01*
X169001000Y-73101000D01*
G37*
G36*
X158764499Y-71728445D02*
G01*
X158801995Y-71739820D01*
X158836554Y-71758292D01*
X158866847Y-71783153D01*
X158891708Y-71813446D01*
X158910180Y-71848005D01*
X158921555Y-71885501D01*
X158926000Y-71930638D01*
X158926000Y-72669362D01*
X158921555Y-72714499D01*
X158910180Y-72751995D01*
X158891708Y-72786554D01*
X158866847Y-72816847D01*
X158836554Y-72841708D01*
X158801995Y-72860180D01*
X158764499Y-72871555D01*
X158719362Y-72876000D01*
X158080638Y-72876000D01*
X158035501Y-72871555D01*
X157998005Y-72860180D01*
X157963446Y-72841708D01*
X157933153Y-72816847D01*
X157908292Y-72786554D01*
X157889820Y-72751995D01*
X157878445Y-72714499D01*
X157874000Y-72669362D01*
X157874000Y-71930638D01*
X157878445Y-71885501D01*
X157889820Y-71848005D01*
X157908292Y-71813446D01*
X157933153Y-71783153D01*
X157963446Y-71758292D01*
X157998005Y-71739820D01*
X158035501Y-71728445D01*
X158080638Y-71724000D01*
X158719362Y-71724000D01*
X158764499Y-71728445D01*
G37*
G36*
X123101000Y-72801000D02*
G01*
X122099000Y-72801000D01*
X122099000Y-71899000D01*
X123101000Y-71899000D01*
X123101000Y-72801000D01*
G37*
G36*
X164564499Y-71628445D02*
G01*
X164601995Y-71639820D01*
X164636554Y-71658292D01*
X164666847Y-71683153D01*
X164691708Y-71713446D01*
X164710180Y-71748005D01*
X164721555Y-71785501D01*
X164726000Y-71830638D01*
X164726000Y-72569362D01*
X164721555Y-72614499D01*
X164710180Y-72651995D01*
X164691708Y-72686554D01*
X164666847Y-72716847D01*
X164636554Y-72741708D01*
X164601995Y-72760180D01*
X164564499Y-72771555D01*
X164519362Y-72776000D01*
X163880638Y-72776000D01*
X163835501Y-72771555D01*
X163798005Y-72760180D01*
X163763446Y-72741708D01*
X163733153Y-72716847D01*
X163708292Y-72686554D01*
X163689820Y-72651995D01*
X163678445Y-72614499D01*
X163674000Y-72569362D01*
X163674000Y-71830638D01*
X163678445Y-71785501D01*
X163689820Y-71748005D01*
X163708292Y-71713446D01*
X163733153Y-71683153D01*
X163763446Y-71658292D01*
X163798005Y-71639820D01*
X163835501Y-71628445D01*
X163880638Y-71624000D01*
X164519362Y-71624000D01*
X164564499Y-71628445D01*
G37*
G36*
X175966242Y-71153404D02*
G01*
X176003337Y-71164657D01*
X176037515Y-71182925D01*
X176067481Y-71207519D01*
X176092075Y-71237485D01*
X176110343Y-71271663D01*
X176121596Y-71308758D01*
X176126000Y-71353474D01*
X176126000Y-72246526D01*
X176121596Y-72291242D01*
X176110343Y-72328337D01*
X176092075Y-72362515D01*
X176067481Y-72392481D01*
X176037515Y-72417075D01*
X176003337Y-72435343D01*
X175966242Y-72446596D01*
X175921526Y-72451000D01*
X174478474Y-72451000D01*
X174433758Y-72446596D01*
X174396663Y-72435343D01*
X174362485Y-72417075D01*
X174332519Y-72392481D01*
X174307925Y-72362515D01*
X174289657Y-72328337D01*
X174278404Y-72291242D01*
X174274000Y-72246526D01*
X174274000Y-71353474D01*
X174278404Y-71308758D01*
X174289657Y-71271663D01*
X174307925Y-71237485D01*
X174332519Y-71207519D01*
X174362485Y-71182925D01*
X174396663Y-71164657D01*
X174433758Y-71153404D01*
X174478474Y-71149000D01*
X175921526Y-71149000D01*
X175966242Y-71153404D01*
G37*
G36*
X121264499Y-71053445D02*
G01*
X121301995Y-71064820D01*
X121336554Y-71083292D01*
X121366847Y-71108153D01*
X121391708Y-71138446D01*
X121410180Y-71173005D01*
X121421555Y-71210501D01*
X121426000Y-71255638D01*
X121426000Y-71994362D01*
X121421555Y-72039499D01*
X121410180Y-72076995D01*
X121391708Y-72111554D01*
X121366847Y-72141847D01*
X121336554Y-72166708D01*
X121301995Y-72185180D01*
X121264499Y-72196555D01*
X121219362Y-72201000D01*
X120580638Y-72201000D01*
X120535501Y-72196555D01*
X120498005Y-72185180D01*
X120463446Y-72166708D01*
X120433153Y-72141847D01*
X120408292Y-72111554D01*
X120389820Y-72076995D01*
X120378445Y-72039499D01*
X120374000Y-71994362D01*
X120374000Y-71255638D01*
X120378445Y-71210501D01*
X120389820Y-71173005D01*
X120408292Y-71138446D01*
X120433153Y-71108153D01*
X120463446Y-71083292D01*
X120498005Y-71064820D01*
X120535501Y-71053445D01*
X120580638Y-71049000D01*
X121219362Y-71049000D01*
X121264499Y-71053445D01*
G37*
G36*
X117401000Y-72001000D02*
G01*
X115599000Y-72001000D01*
X115599000Y-70199000D01*
X117401000Y-70199000D01*
X117401000Y-72001000D01*
G37*
G36*
X114073512Y-70203927D02*
G01*
X114222812Y-70233624D01*
X114386784Y-70301544D01*
X114534354Y-70400147D01*
X114659853Y-70525646D01*
X114758456Y-70673216D01*
X114826376Y-70837188D01*
X114848610Y-70948969D01*
X114860786Y-71010180D01*
X114861000Y-71011259D01*
X114861000Y-71188741D01*
X114826376Y-71362812D01*
X114758456Y-71526784D01*
X114659853Y-71674354D01*
X114534354Y-71799853D01*
X114386784Y-71898456D01*
X114222812Y-71966376D01*
X114082113Y-71994362D01*
X114048742Y-72001000D01*
X113871258Y-72001000D01*
X113837887Y-71994362D01*
X113697188Y-71966376D01*
X113533216Y-71898456D01*
X113385646Y-71799853D01*
X113260147Y-71674354D01*
X113161544Y-71526784D01*
X113093624Y-71362812D01*
X113059000Y-71188741D01*
X113059000Y-71011259D01*
X113059215Y-71010180D01*
X113071390Y-70948969D01*
X113093624Y-70837188D01*
X113161544Y-70673216D01*
X113260147Y-70525646D01*
X113385646Y-70400147D01*
X113533216Y-70301544D01*
X113697188Y-70233624D01*
X113846488Y-70203927D01*
X113871258Y-70199000D01*
X114048742Y-70199000D01*
X114073512Y-70203927D01*
G37*
G36*
X160881000Y-71726000D02*
G01*
X159719000Y-71726000D01*
X159719000Y-70974000D01*
X160881000Y-70974000D01*
X160881000Y-71726000D01*
G37*
G36*
X163081000Y-71726000D02*
G01*
X161919000Y-71726000D01*
X161919000Y-69074000D01*
X163081000Y-69074000D01*
X163081000Y-71726000D01*
G37*
G36*
X158764499Y-69978445D02*
G01*
X158801995Y-69989820D01*
X158836554Y-70008292D01*
X158866847Y-70033153D01*
X158891708Y-70063446D01*
X158910180Y-70098005D01*
X158921555Y-70135501D01*
X158926000Y-70180638D01*
X158926000Y-70919362D01*
X158921555Y-70964499D01*
X158910180Y-71001995D01*
X158891708Y-71036554D01*
X158866847Y-71066847D01*
X158836554Y-71091708D01*
X158801995Y-71110180D01*
X158764499Y-71121555D01*
X158719362Y-71126000D01*
X158080638Y-71126000D01*
X158035501Y-71121555D01*
X157998005Y-71110180D01*
X157963446Y-71091708D01*
X157933153Y-71066847D01*
X157908292Y-71036554D01*
X157889820Y-71001995D01*
X157878445Y-70964499D01*
X157874000Y-70919362D01*
X157874000Y-70180638D01*
X157878445Y-70135501D01*
X157889820Y-70098005D01*
X157908292Y-70063446D01*
X157933153Y-70033153D01*
X157963446Y-70008292D01*
X157998005Y-69989820D01*
X158035501Y-69978445D01*
X158080638Y-69974000D01*
X158719362Y-69974000D01*
X158764499Y-69978445D01*
G37*
G36*
X164564499Y-69878445D02*
G01*
X164601995Y-69889820D01*
X164636554Y-69908292D01*
X164666847Y-69933153D01*
X164691708Y-69963446D01*
X164710180Y-69998005D01*
X164721555Y-70035501D01*
X164726000Y-70080638D01*
X164726000Y-70819362D01*
X164721555Y-70864499D01*
X164710180Y-70901995D01*
X164691708Y-70936554D01*
X164666847Y-70966847D01*
X164636554Y-70991708D01*
X164601995Y-71010180D01*
X164564499Y-71021555D01*
X164519362Y-71026000D01*
X163880638Y-71026000D01*
X163835501Y-71021555D01*
X163798005Y-71010180D01*
X163763446Y-70991708D01*
X163733153Y-70966847D01*
X163708292Y-70936554D01*
X163689820Y-70901995D01*
X163678445Y-70864499D01*
X163674000Y-70819362D01*
X163674000Y-70080638D01*
X163678445Y-70035501D01*
X163689820Y-69998005D01*
X163708292Y-69963446D01*
X163733153Y-69933153D01*
X163763446Y-69908292D01*
X163798005Y-69889820D01*
X163835501Y-69878445D01*
X163880638Y-69874000D01*
X164519362Y-69874000D01*
X164564499Y-69878445D01*
G37*
G36*
X168213512Y-68763927D02*
G01*
X168362812Y-68793624D01*
X168526784Y-68861544D01*
X168674354Y-68960147D01*
X168799853Y-69085646D01*
X168898456Y-69233216D01*
X168966376Y-69397188D01*
X169001000Y-69571259D01*
X169001000Y-69748741D01*
X168966376Y-69922812D01*
X168898456Y-70086784D01*
X168799853Y-70234354D01*
X168674354Y-70359853D01*
X168526784Y-70458456D01*
X168362812Y-70526376D01*
X168213512Y-70556073D01*
X168188742Y-70561000D01*
X168011258Y-70561000D01*
X167986488Y-70556073D01*
X167837188Y-70526376D01*
X167673216Y-70458456D01*
X167525646Y-70359853D01*
X167400147Y-70234354D01*
X167301544Y-70086784D01*
X167233624Y-69922812D01*
X167199000Y-69748741D01*
X167199000Y-69571259D01*
X167233624Y-69397188D01*
X167301544Y-69233216D01*
X167400147Y-69085646D01*
X167525646Y-68960147D01*
X167673216Y-68861544D01*
X167837188Y-68793624D01*
X167986488Y-68763927D01*
X168011258Y-68759000D01*
X168188742Y-68759000D01*
X168213512Y-68763927D01*
G37*
G36*
X175538855Y-69152140D02*
G01*
X175602618Y-69158420D01*
X175693404Y-69185960D01*
X175725336Y-69195646D01*
X175838425Y-69256094D01*
X175937554Y-69337446D01*
X176018906Y-69436575D01*
X176079354Y-69549664D01*
X176079355Y-69549668D01*
X176116580Y-69672382D01*
X176129149Y-69800000D01*
X176116580Y-69927618D01*
X176100977Y-69979053D01*
X176079354Y-70050336D01*
X176018906Y-70163425D01*
X175937554Y-70262554D01*
X175838425Y-70343906D01*
X175725336Y-70404354D01*
X175693404Y-70414040D01*
X175602618Y-70441580D01*
X175538855Y-70447860D01*
X175506974Y-70451000D01*
X174893026Y-70451000D01*
X174861145Y-70447860D01*
X174797382Y-70441580D01*
X174706596Y-70414040D01*
X174674664Y-70404354D01*
X174561575Y-70343906D01*
X174462446Y-70262554D01*
X174381094Y-70163425D01*
X174320646Y-70050336D01*
X174299023Y-69979053D01*
X174283420Y-69927618D01*
X174270851Y-69800000D01*
X174283420Y-69672382D01*
X174320645Y-69549668D01*
X174320646Y-69549664D01*
X174381094Y-69436575D01*
X174462446Y-69337446D01*
X174561575Y-69256094D01*
X174674664Y-69195646D01*
X174706596Y-69185960D01*
X174797382Y-69158420D01*
X174861145Y-69152140D01*
X174893026Y-69149000D01*
X175506974Y-69149000D01*
X175538855Y-69152140D01*
G37*
G36*
X160881000Y-69826000D02*
G01*
X159719000Y-69826000D01*
X159719000Y-69074000D01*
X160881000Y-69074000D01*
X160881000Y-69826000D01*
G37*
G36*
X118564499Y-65978445D02*
G01*
X118601995Y-65989820D01*
X118636554Y-66008292D01*
X118666847Y-66033153D01*
X118691708Y-66063446D01*
X118710180Y-66098005D01*
X118721555Y-66135501D01*
X118726000Y-66180638D01*
X118726000Y-66919362D01*
X118721555Y-66964499D01*
X118710180Y-67001995D01*
X118691708Y-67036554D01*
X118666847Y-67066847D01*
X118636554Y-67091708D01*
X118601995Y-67110180D01*
X118564499Y-67121555D01*
X118519362Y-67126000D01*
X117880638Y-67126000D01*
X117835501Y-67121555D01*
X117798005Y-67110180D01*
X117763446Y-67091708D01*
X117733153Y-67066847D01*
X117708292Y-67036554D01*
X117689820Y-67001995D01*
X117678445Y-66964499D01*
X117674000Y-66919362D01*
X117674000Y-66180638D01*
X117678445Y-66135501D01*
X117689820Y-66098005D01*
X117708292Y-66063446D01*
X117733153Y-66033153D01*
X117763446Y-66008292D01*
X117798005Y-65989820D01*
X117835501Y-65978445D01*
X117880638Y-65974000D01*
X118519362Y-65974000D01*
X118564499Y-65978445D01*
G37*
G36*
X116664499Y-65978445D02*
G01*
X116701995Y-65989820D01*
X116736554Y-66008292D01*
X116766847Y-66033153D01*
X116791708Y-66063446D01*
X116810180Y-66098005D01*
X116821555Y-66135501D01*
X116826000Y-66180638D01*
X116826000Y-66919362D01*
X116821555Y-66964499D01*
X116810180Y-67001995D01*
X116791708Y-67036554D01*
X116766847Y-67066847D01*
X116736554Y-67091708D01*
X116701995Y-67110180D01*
X116664499Y-67121555D01*
X116619362Y-67126000D01*
X115980638Y-67126000D01*
X115935501Y-67121555D01*
X115898005Y-67110180D01*
X115863446Y-67091708D01*
X115833153Y-67066847D01*
X115808292Y-67036554D01*
X115789820Y-67001995D01*
X115778445Y-66964499D01*
X115774000Y-66919362D01*
X115774000Y-66180638D01*
X115778445Y-66135501D01*
X115789820Y-66098005D01*
X115808292Y-66063446D01*
X115833153Y-66033153D01*
X115863446Y-66008292D01*
X115898005Y-65989820D01*
X115935501Y-65978445D01*
X115980638Y-65974000D01*
X116619362Y-65974000D01*
X116664499Y-65978445D01*
G37*
G36*
X158613512Y-64183927D02*
G01*
X158762812Y-64213624D01*
X158926784Y-64281544D01*
X159074354Y-64380147D01*
X159199853Y-64505646D01*
X159298456Y-64653216D01*
X159366376Y-64817188D01*
X159396073Y-64966488D01*
X159401000Y-64991258D01*
X159401000Y-65168742D01*
X159399884Y-65174353D01*
X159366376Y-65342812D01*
X159298456Y-65506784D01*
X159199853Y-65654354D01*
X159074354Y-65779853D01*
X158926784Y-65878456D01*
X158762812Y-65946376D01*
X158623933Y-65974000D01*
X158588742Y-65981000D01*
X158411258Y-65981000D01*
X158376067Y-65974000D01*
X158237188Y-65946376D01*
X158073216Y-65878456D01*
X157925646Y-65779853D01*
X157800147Y-65654354D01*
X157701544Y-65506784D01*
X157633624Y-65342812D01*
X157600116Y-65174353D01*
X157599000Y-65168742D01*
X157599000Y-64991258D01*
X157603927Y-64966488D01*
X157633624Y-64817188D01*
X157701544Y-64653216D01*
X157800147Y-64505646D01*
X157925646Y-64380147D01*
X158073216Y-64281544D01*
X158237188Y-64213624D01*
X158386488Y-64183927D01*
X158411258Y-64179000D01*
X158588742Y-64179000D01*
X158613512Y-64183927D01*
G37*
G36*
X173873512Y-63703927D02*
G01*
X174022812Y-63733624D01*
X174186784Y-63801544D01*
X174334354Y-63900147D01*
X174459853Y-64025646D01*
X174558456Y-64173216D01*
X174626376Y-64337188D01*
X174661000Y-64511259D01*
X174661000Y-64688741D01*
X174626376Y-64862812D01*
X174558456Y-65026784D01*
X174459853Y-65174354D01*
X174334354Y-65299853D01*
X174186784Y-65398456D01*
X174022812Y-65466376D01*
X173873512Y-65496073D01*
X173848742Y-65501000D01*
X173671258Y-65501000D01*
X173646488Y-65496073D01*
X173497188Y-65466376D01*
X173333216Y-65398456D01*
X173185646Y-65299853D01*
X173060147Y-65174354D01*
X172961544Y-65026784D01*
X172893624Y-64862812D01*
X172859000Y-64688741D01*
X172859000Y-64511259D01*
X172893624Y-64337188D01*
X172961544Y-64173216D01*
X173060147Y-64025646D01*
X173185646Y-63900147D01*
X173333216Y-63801544D01*
X173497188Y-63733624D01*
X173646488Y-63703927D01*
X173671258Y-63699000D01*
X173848742Y-63699000D01*
X173873512Y-63703927D01*
G37*
G36*
X177201000Y-65501000D02*
G01*
X175399000Y-65501000D01*
X175399000Y-63699000D01*
X177201000Y-63699000D01*
X177201000Y-65501000D01*
G37*
G36*
X118564499Y-64228445D02*
G01*
X118601995Y-64239820D01*
X118636554Y-64258292D01*
X118666847Y-64283153D01*
X118691708Y-64313446D01*
X118710180Y-64348005D01*
X118721555Y-64385501D01*
X118726000Y-64430638D01*
X118726000Y-65169362D01*
X118721555Y-65214499D01*
X118710180Y-65251995D01*
X118691708Y-65286554D01*
X118666847Y-65316847D01*
X118636554Y-65341708D01*
X118601995Y-65360180D01*
X118564499Y-65371555D01*
X118519362Y-65376000D01*
X117880638Y-65376000D01*
X117835501Y-65371555D01*
X117798005Y-65360180D01*
X117763446Y-65341708D01*
X117733153Y-65316847D01*
X117708292Y-65286554D01*
X117689820Y-65251995D01*
X117678445Y-65214499D01*
X117674000Y-65169362D01*
X117674000Y-64430638D01*
X117678445Y-64385501D01*
X117689820Y-64348005D01*
X117708292Y-64313446D01*
X117733153Y-64283153D01*
X117763446Y-64258292D01*
X117798005Y-64239820D01*
X117835501Y-64228445D01*
X117880638Y-64224000D01*
X118519362Y-64224000D01*
X118564499Y-64228445D01*
G37*
G36*
X116664499Y-64228445D02*
G01*
X116701995Y-64239820D01*
X116736554Y-64258292D01*
X116766847Y-64283153D01*
X116791708Y-64313446D01*
X116810180Y-64348005D01*
X116821555Y-64385501D01*
X116826000Y-64430638D01*
X116826000Y-65169362D01*
X116821555Y-65214499D01*
X116810180Y-65251995D01*
X116791708Y-65286554D01*
X116766847Y-65316847D01*
X116736554Y-65341708D01*
X116701995Y-65360180D01*
X116664499Y-65371555D01*
X116619362Y-65376000D01*
X115980638Y-65376000D01*
X115935501Y-65371555D01*
X115898005Y-65360180D01*
X115863446Y-65341708D01*
X115833153Y-65316847D01*
X115808292Y-65286554D01*
X115789820Y-65251995D01*
X115778445Y-65214499D01*
X115774000Y-65169362D01*
X115774000Y-64430638D01*
X115778445Y-64385501D01*
X115789820Y-64348005D01*
X115808292Y-64313446D01*
X115833153Y-64283153D01*
X115863446Y-64258292D01*
X115898005Y-64239820D01*
X115935501Y-64228445D01*
X115980638Y-64224000D01*
X116619362Y-64224000D01*
X116664499Y-64228445D01*
G37*
G36*
X133601000Y-63701000D02*
G01*
X131799000Y-63701000D01*
X131799000Y-61899000D01*
X133601000Y-61899000D01*
X133601000Y-63701000D01*
G37*
G36*
X114464499Y-62578445D02*
G01*
X114501995Y-62589820D01*
X114536554Y-62608292D01*
X114566847Y-62633153D01*
X114591708Y-62663446D01*
X114610180Y-62698005D01*
X114621555Y-62735501D01*
X114626000Y-62780638D01*
X114626000Y-63419362D01*
X114621555Y-63464499D01*
X114610180Y-63501995D01*
X114591708Y-63536554D01*
X114566847Y-63566847D01*
X114536554Y-63591708D01*
X114501995Y-63610180D01*
X114464499Y-63621555D01*
X114419362Y-63626000D01*
X113680638Y-63626000D01*
X113635501Y-63621555D01*
X113598005Y-63610180D01*
X113563446Y-63591708D01*
X113533153Y-63566847D01*
X113508292Y-63536554D01*
X113489820Y-63501995D01*
X113478445Y-63464499D01*
X113474000Y-63419362D01*
X113474000Y-62780638D01*
X113478445Y-62735501D01*
X113489820Y-62698005D01*
X113508292Y-62663446D01*
X113533153Y-62633153D01*
X113563446Y-62608292D01*
X113598005Y-62589820D01*
X113635501Y-62578445D01*
X113680638Y-62574000D01*
X114419362Y-62574000D01*
X114464499Y-62578445D01*
G37*
G36*
X112714499Y-62578445D02*
G01*
X112751995Y-62589820D01*
X112786554Y-62608292D01*
X112816847Y-62633153D01*
X112841708Y-62663446D01*
X112860180Y-62698005D01*
X112871555Y-62735501D01*
X112876000Y-62780638D01*
X112876000Y-63419362D01*
X112871555Y-63464499D01*
X112860180Y-63501995D01*
X112841708Y-63536554D01*
X112816847Y-63566847D01*
X112786554Y-63591708D01*
X112751995Y-63610180D01*
X112714499Y-63621555D01*
X112669362Y-63626000D01*
X111930638Y-63626000D01*
X111885501Y-63621555D01*
X111848005Y-63610180D01*
X111813446Y-63591708D01*
X111783153Y-63566847D01*
X111758292Y-63536554D01*
X111739820Y-63501995D01*
X111728445Y-63464499D01*
X111724000Y-63419362D01*
X111724000Y-62780638D01*
X111728445Y-62735501D01*
X111739820Y-62698005D01*
X111758292Y-62663446D01*
X111783153Y-62633153D01*
X111813446Y-62608292D01*
X111848005Y-62589820D01*
X111885501Y-62578445D01*
X111930638Y-62574000D01*
X112669362Y-62574000D01*
X112714499Y-62578445D01*
G37*
G36*
X158603019Y-61641840D02*
G01*
X158762812Y-61673624D01*
X158926784Y-61741544D01*
X159074354Y-61840147D01*
X159199853Y-61965646D01*
X159298456Y-62113216D01*
X159366376Y-62277188D01*
X159394449Y-62418323D01*
X159401000Y-62451258D01*
X159401000Y-62628742D01*
X159399357Y-62637000D01*
X159366376Y-62802812D01*
X159298456Y-62966784D01*
X159199853Y-63114354D01*
X159074354Y-63239853D01*
X158926784Y-63338456D01*
X158762812Y-63406376D01*
X158613512Y-63436073D01*
X158588742Y-63441000D01*
X158411258Y-63441000D01*
X158386488Y-63436073D01*
X158237188Y-63406376D01*
X158073216Y-63338456D01*
X157925646Y-63239853D01*
X157800147Y-63114354D01*
X157701544Y-62966784D01*
X157633624Y-62802812D01*
X157600643Y-62637000D01*
X157599000Y-62628742D01*
X157599000Y-62451258D01*
X157605551Y-62418323D01*
X157633624Y-62277188D01*
X157701544Y-62113216D01*
X157800147Y-61965646D01*
X157925646Y-61840147D01*
X158073216Y-61741544D01*
X158237188Y-61673624D01*
X158396981Y-61641840D01*
X158411258Y-61639000D01*
X158588742Y-61639000D01*
X158603019Y-61641840D01*
G37*
G36*
X116814499Y-62378445D02*
G01*
X116851995Y-62389820D01*
X116886554Y-62408292D01*
X116916847Y-62433153D01*
X116941708Y-62463446D01*
X116960180Y-62498005D01*
X116971555Y-62535501D01*
X116976000Y-62580638D01*
X116976000Y-63219362D01*
X116971555Y-63264499D01*
X116960180Y-63301995D01*
X116941708Y-63336554D01*
X116916847Y-63366847D01*
X116886554Y-63391708D01*
X116851995Y-63410180D01*
X116814499Y-63421555D01*
X116769362Y-63426000D01*
X116030638Y-63426000D01*
X115985501Y-63421555D01*
X115948005Y-63410180D01*
X115913446Y-63391708D01*
X115883153Y-63366847D01*
X115858292Y-63336554D01*
X115839820Y-63301995D01*
X115828445Y-63264499D01*
X115824000Y-63219362D01*
X115824000Y-62580638D01*
X115828445Y-62535501D01*
X115839820Y-62498005D01*
X115858292Y-62463446D01*
X115883153Y-62433153D01*
X115913446Y-62408292D01*
X115948005Y-62389820D01*
X115985501Y-62378445D01*
X116030638Y-62374000D01*
X116769362Y-62374000D01*
X116814499Y-62378445D01*
G37*
G36*
X118564499Y-62378445D02*
G01*
X118601995Y-62389820D01*
X118636554Y-62408292D01*
X118666847Y-62433153D01*
X118691708Y-62463446D01*
X118710180Y-62498005D01*
X118721555Y-62535501D01*
X118726000Y-62580638D01*
X118726000Y-63219362D01*
X118721555Y-63264499D01*
X118710180Y-63301995D01*
X118691708Y-63336554D01*
X118666847Y-63366847D01*
X118636554Y-63391708D01*
X118601995Y-63410180D01*
X118564499Y-63421555D01*
X118519362Y-63426000D01*
X117780638Y-63426000D01*
X117735501Y-63421555D01*
X117698005Y-63410180D01*
X117663446Y-63391708D01*
X117633153Y-63366847D01*
X117608292Y-63336554D01*
X117589820Y-63301995D01*
X117578445Y-63264499D01*
X117574000Y-63219362D01*
X117574000Y-62580638D01*
X117578445Y-62535501D01*
X117589820Y-62498005D01*
X117608292Y-62463446D01*
X117633153Y-62433153D01*
X117663446Y-62408292D01*
X117698005Y-62389820D01*
X117735501Y-62378445D01*
X117780638Y-62374000D01*
X118519362Y-62374000D01*
X118564499Y-62378445D01*
G37*
G36*
X173942818Y-60727696D02*
G01*
X174056105Y-60762062D01*
X174160512Y-60817869D01*
X174252027Y-60892973D01*
X174327131Y-60984488D01*
X174382938Y-61088895D01*
X174417304Y-61202182D01*
X174428907Y-61320000D01*
X174417304Y-61437818D01*
X174382938Y-61551105D01*
X174327131Y-61655512D01*
X174252027Y-61747027D01*
X174160512Y-61822131D01*
X174056105Y-61877938D01*
X173942818Y-61912304D01*
X173854519Y-61921000D01*
X173095481Y-61921000D01*
X173007182Y-61912304D01*
X172893895Y-61877938D01*
X172789488Y-61822131D01*
X172697973Y-61747027D01*
X172622869Y-61655512D01*
X172567062Y-61551105D01*
X172532696Y-61437818D01*
X172521093Y-61320000D01*
X172532696Y-61202182D01*
X172567062Y-61088895D01*
X172622869Y-60984488D01*
X172697973Y-60892973D01*
X172789488Y-60817869D01*
X172893895Y-60762062D01*
X173007182Y-60727696D01*
X173095481Y-60719000D01*
X173854519Y-60719000D01*
X173942818Y-60727696D01*
G37*
G36*
X177742818Y-60727696D02*
G01*
X177856105Y-60762062D01*
X177960512Y-60817869D01*
X178052027Y-60892973D01*
X178127131Y-60984488D01*
X178182938Y-61088895D01*
X178217304Y-61202182D01*
X178228907Y-61320000D01*
X178217304Y-61437818D01*
X178182938Y-61551105D01*
X178127131Y-61655512D01*
X178052027Y-61747027D01*
X177960512Y-61822131D01*
X177856105Y-61877938D01*
X177742818Y-61912304D01*
X177654519Y-61921000D01*
X176895481Y-61921000D01*
X176807182Y-61912304D01*
X176693895Y-61877938D01*
X176589488Y-61822131D01*
X176497973Y-61747027D01*
X176422869Y-61655512D01*
X176367062Y-61551105D01*
X176332696Y-61437818D01*
X176321093Y-61320000D01*
X176332696Y-61202182D01*
X176367062Y-61088895D01*
X176422869Y-60984488D01*
X176497973Y-60892973D01*
X176589488Y-60817869D01*
X176693895Y-60762062D01*
X176807182Y-60727696D01*
X176895481Y-60719000D01*
X177654519Y-60719000D01*
X177742818Y-60727696D01*
G37*
G36*
X118184928Y-59901764D02*
G01*
X118206009Y-59908160D01*
X118225445Y-59918548D01*
X118242476Y-59932524D01*
X118256452Y-59949555D01*
X118266840Y-59968991D01*
X118273236Y-59990072D01*
X118276000Y-60018140D01*
X118276000Y-61531860D01*
X118273236Y-61559928D01*
X118266840Y-61581009D01*
X118256452Y-61600445D01*
X118242476Y-61617476D01*
X118225445Y-61631452D01*
X118206009Y-61641840D01*
X118184928Y-61648236D01*
X118156860Y-61651000D01*
X117693140Y-61651000D01*
X117665072Y-61648236D01*
X117643991Y-61641840D01*
X117624555Y-61631452D01*
X117607524Y-61617476D01*
X117593548Y-61600445D01*
X117583160Y-61581009D01*
X117576764Y-61559928D01*
X117574000Y-61531860D01*
X117574000Y-60018140D01*
X117576764Y-59990072D01*
X117583160Y-59968991D01*
X117593548Y-59949555D01*
X117607524Y-59932524D01*
X117624555Y-59918548D01*
X117643991Y-59908160D01*
X117665072Y-59901764D01*
X117693140Y-59899000D01*
X118156860Y-59899000D01*
X118184928Y-59901764D01*
G37*
G36*
X116914928Y-59901764D02*
G01*
X116936009Y-59908160D01*
X116955445Y-59918548D01*
X116972476Y-59932524D01*
X116986452Y-59949555D01*
X116996840Y-59968991D01*
X117003236Y-59990072D01*
X117006000Y-60018140D01*
X117006000Y-61531860D01*
X117003236Y-61559928D01*
X116996840Y-61581009D01*
X116986452Y-61600445D01*
X116972476Y-61617476D01*
X116955445Y-61631452D01*
X116936009Y-61641840D01*
X116914928Y-61648236D01*
X116886860Y-61651000D01*
X116423140Y-61651000D01*
X116395072Y-61648236D01*
X116373991Y-61641840D01*
X116354555Y-61631452D01*
X116337524Y-61617476D01*
X116323548Y-61600445D01*
X116313160Y-61581009D01*
X116306764Y-61559928D01*
X116304000Y-61531860D01*
X116304000Y-60018140D01*
X116306764Y-59990072D01*
X116313160Y-59968991D01*
X116323548Y-59949555D01*
X116337524Y-59932524D01*
X116354555Y-59918548D01*
X116373991Y-59908160D01*
X116395072Y-59901764D01*
X116423140Y-59899000D01*
X116886860Y-59899000D01*
X116914928Y-59901764D01*
G37*
G36*
X115644928Y-59901764D02*
G01*
X115666009Y-59908160D01*
X115685445Y-59918548D01*
X115702476Y-59932524D01*
X115716452Y-59949555D01*
X115726840Y-59968991D01*
X115733236Y-59990072D01*
X115736000Y-60018140D01*
X115736000Y-61531860D01*
X115733236Y-61559928D01*
X115726840Y-61581009D01*
X115716452Y-61600445D01*
X115702476Y-61617476D01*
X115685445Y-61631452D01*
X115666009Y-61641840D01*
X115644928Y-61648236D01*
X115616860Y-61651000D01*
X115153140Y-61651000D01*
X115125072Y-61648236D01*
X115103991Y-61641840D01*
X115084555Y-61631452D01*
X115067524Y-61617476D01*
X115053548Y-61600445D01*
X115043160Y-61581009D01*
X115036764Y-61559928D01*
X115034000Y-61531860D01*
X115034000Y-60018140D01*
X115036764Y-59990072D01*
X115043160Y-59968991D01*
X115053548Y-59949555D01*
X115067524Y-59932524D01*
X115084555Y-59918548D01*
X115103991Y-59908160D01*
X115125072Y-59901764D01*
X115153140Y-59899000D01*
X115616860Y-59899000D01*
X115644928Y-59901764D01*
G37*
G36*
X114374928Y-59901764D02*
G01*
X114396009Y-59908160D01*
X114415445Y-59918548D01*
X114432476Y-59932524D01*
X114446452Y-59949555D01*
X114456840Y-59968991D01*
X114463236Y-59990072D01*
X114466000Y-60018140D01*
X114466000Y-61531860D01*
X114463236Y-61559928D01*
X114456840Y-61581009D01*
X114446452Y-61600445D01*
X114432476Y-61617476D01*
X114415445Y-61631452D01*
X114396009Y-61641840D01*
X114374928Y-61648236D01*
X114346860Y-61651000D01*
X113883140Y-61651000D01*
X113855072Y-61648236D01*
X113833991Y-61641840D01*
X113814555Y-61631452D01*
X113797524Y-61617476D01*
X113783548Y-61600445D01*
X113773160Y-61581009D01*
X113766764Y-61559928D01*
X113764000Y-61531860D01*
X113764000Y-60018140D01*
X113766764Y-59990072D01*
X113773160Y-59968991D01*
X113783548Y-59949555D01*
X113797524Y-59932524D01*
X113814555Y-59918548D01*
X113833991Y-59908160D01*
X113855072Y-59901764D01*
X113883140Y-59899000D01*
X114346860Y-59899000D01*
X114374928Y-59901764D01*
G37*
G36*
X153513512Y-59583927D02*
G01*
X153662812Y-59613624D01*
X153826784Y-59681544D01*
X153974354Y-59780147D01*
X154099853Y-59905646D01*
X154198456Y-60053216D01*
X154266376Y-60217188D01*
X154301000Y-60391259D01*
X154301000Y-60568741D01*
X154266376Y-60742812D01*
X154198456Y-60906784D01*
X154099853Y-61054354D01*
X153974354Y-61179853D01*
X153826784Y-61278456D01*
X153662812Y-61346376D01*
X153513512Y-61376073D01*
X153488742Y-61381000D01*
X153311258Y-61381000D01*
X153286488Y-61376073D01*
X153137188Y-61346376D01*
X152973216Y-61278456D01*
X152825646Y-61179853D01*
X152700147Y-61054354D01*
X152601544Y-60906784D01*
X152533624Y-60742812D01*
X152499000Y-60568741D01*
X152499000Y-60391259D01*
X152533624Y-60217188D01*
X152601544Y-60053216D01*
X152700147Y-59905646D01*
X152825646Y-59780147D01*
X152973216Y-59681544D01*
X153137188Y-59613624D01*
X153286488Y-59583927D01*
X153311258Y-59579000D01*
X153488742Y-59579000D01*
X153513512Y-59583927D01*
G37*
G36*
X132813512Y-59363927D02*
G01*
X132962812Y-59393624D01*
X133126784Y-59461544D01*
X133274354Y-59560147D01*
X133399853Y-59685646D01*
X133498456Y-59833216D01*
X133566376Y-59997188D01*
X133601000Y-60171259D01*
X133601000Y-60348741D01*
X133566376Y-60522812D01*
X133498456Y-60686784D01*
X133399853Y-60834354D01*
X133274354Y-60959853D01*
X133126784Y-61058456D01*
X132962812Y-61126376D01*
X132813512Y-61156073D01*
X132788742Y-61161000D01*
X132611258Y-61161000D01*
X132586488Y-61156073D01*
X132437188Y-61126376D01*
X132273216Y-61058456D01*
X132125646Y-60959853D01*
X132000147Y-60834354D01*
X131901544Y-60686784D01*
X131833624Y-60522812D01*
X131799000Y-60348741D01*
X131799000Y-60171259D01*
X131833624Y-59997188D01*
X131901544Y-59833216D01*
X132000147Y-59685646D01*
X132125646Y-59560147D01*
X132273216Y-59461544D01*
X132437188Y-59393624D01*
X132586488Y-59363927D01*
X132611258Y-59359000D01*
X132788742Y-59359000D01*
X132813512Y-59363927D01*
G37*
G36*
X159401000Y-60901000D02*
G01*
X157599000Y-60901000D01*
X157599000Y-59099000D01*
X159401000Y-59099000D01*
X159401000Y-60901000D01*
G37*
G36*
X169989499Y-59678445D02*
G01*
X170026995Y-59689820D01*
X170061554Y-59708292D01*
X170091847Y-59733153D01*
X170116708Y-59763446D01*
X170135180Y-59798005D01*
X170146555Y-59835501D01*
X170151000Y-59880638D01*
X170151000Y-60519362D01*
X170146555Y-60564499D01*
X170135180Y-60601995D01*
X170116708Y-60636554D01*
X170091847Y-60666847D01*
X170061554Y-60691708D01*
X170026995Y-60710180D01*
X169989499Y-60721555D01*
X169944362Y-60726000D01*
X169205638Y-60726000D01*
X169160501Y-60721555D01*
X169123005Y-60710180D01*
X169088446Y-60691708D01*
X169058153Y-60666847D01*
X169033292Y-60636554D01*
X169014820Y-60601995D01*
X169003445Y-60564499D01*
X168999000Y-60519362D01*
X168999000Y-59880638D01*
X169003445Y-59835501D01*
X169014820Y-59798005D01*
X169033292Y-59763446D01*
X169058153Y-59733153D01*
X169088446Y-59708292D01*
X169123005Y-59689820D01*
X169160501Y-59678445D01*
X169205638Y-59674000D01*
X169944362Y-59674000D01*
X169989499Y-59678445D01*
G37*
G36*
X168239499Y-59678445D02*
G01*
X168276995Y-59689820D01*
X168311554Y-59708292D01*
X168341847Y-59733153D01*
X168366708Y-59763446D01*
X168385180Y-59798005D01*
X168396555Y-59835501D01*
X168401000Y-59880638D01*
X168401000Y-60519362D01*
X168396555Y-60564499D01*
X168385180Y-60601995D01*
X168366708Y-60636554D01*
X168341847Y-60666847D01*
X168311554Y-60691708D01*
X168276995Y-60710180D01*
X168239499Y-60721555D01*
X168194362Y-60726000D01*
X167455638Y-60726000D01*
X167410501Y-60721555D01*
X167373005Y-60710180D01*
X167338446Y-60691708D01*
X167308153Y-60666847D01*
X167283292Y-60636554D01*
X167264820Y-60601995D01*
X167253445Y-60564499D01*
X167249000Y-60519362D01*
X167249000Y-59880638D01*
X167253445Y-59835501D01*
X167264820Y-59798005D01*
X167283292Y-59763446D01*
X167308153Y-59733153D01*
X167338446Y-59708292D01*
X167373005Y-59689820D01*
X167410501Y-59678445D01*
X167455638Y-59674000D01*
X168194362Y-59674000D01*
X168239499Y-59678445D01*
G37*
G36*
X174126000Y-60201000D02*
G01*
X172524000Y-60201000D01*
X172524000Y-59299000D01*
X174126000Y-59299000D01*
X174126000Y-60201000D01*
G37*
G36*
X174126000Y-58951000D02*
G01*
X172524000Y-58951000D01*
X172524000Y-55049000D01*
X174126000Y-55049000D01*
X174126000Y-58951000D01*
G37*
G36*
X168126000Y-58881000D02*
G01*
X167374000Y-58881000D01*
X167374000Y-57719000D01*
X168126000Y-57719000D01*
X168126000Y-58881000D01*
G37*
G36*
X170026000Y-58881000D02*
G01*
X169274000Y-58881000D01*
X169274000Y-57719000D01*
X170026000Y-57719000D01*
X170026000Y-58881000D01*
G37*
G36*
X153513512Y-57043927D02*
G01*
X153662812Y-57073624D01*
X153826784Y-57141544D01*
X153974354Y-57240147D01*
X154099853Y-57365646D01*
X154198456Y-57513216D01*
X154266376Y-57677188D01*
X154301000Y-57851259D01*
X154301000Y-58028741D01*
X154266376Y-58202812D01*
X154198456Y-58366784D01*
X154099853Y-58514354D01*
X153974354Y-58639853D01*
X153826784Y-58738456D01*
X153662812Y-58806376D01*
X153513512Y-58836073D01*
X153488742Y-58841000D01*
X153311258Y-58841000D01*
X153286488Y-58836073D01*
X153137188Y-58806376D01*
X152973216Y-58738456D01*
X152825646Y-58639853D01*
X152700147Y-58514354D01*
X152601544Y-58366784D01*
X152533624Y-58202812D01*
X152499000Y-58028741D01*
X152499000Y-57851259D01*
X152533624Y-57677188D01*
X152601544Y-57513216D01*
X152700147Y-57365646D01*
X152825646Y-57240147D01*
X152973216Y-57141544D01*
X153137188Y-57073624D01*
X153286488Y-57043927D01*
X153311258Y-57039000D01*
X153488742Y-57039000D01*
X153513512Y-57043927D01*
G37*
G36*
X136239499Y-57078445D02*
G01*
X136276995Y-57089820D01*
X136311554Y-57108292D01*
X136341847Y-57133153D01*
X136366708Y-57163446D01*
X136385180Y-57198005D01*
X136396555Y-57235501D01*
X136401000Y-57280638D01*
X136401000Y-57919362D01*
X136396555Y-57964499D01*
X136385180Y-58001995D01*
X136366708Y-58036554D01*
X136341847Y-58066847D01*
X136311554Y-58091708D01*
X136276995Y-58110180D01*
X136239499Y-58121555D01*
X136194362Y-58126000D01*
X135455638Y-58126000D01*
X135410501Y-58121555D01*
X135373005Y-58110180D01*
X135338446Y-58091708D01*
X135308153Y-58066847D01*
X135283292Y-58036554D01*
X135264820Y-58001995D01*
X135253445Y-57964499D01*
X135249000Y-57919362D01*
X135249000Y-57280638D01*
X135253445Y-57235501D01*
X135264820Y-57198005D01*
X135283292Y-57163446D01*
X135308153Y-57133153D01*
X135338446Y-57108292D01*
X135373005Y-57089820D01*
X135410501Y-57078445D01*
X135455638Y-57074000D01*
X136194362Y-57074000D01*
X136239499Y-57078445D01*
G37*
G36*
X137989499Y-57078445D02*
G01*
X138026995Y-57089820D01*
X138061554Y-57108292D01*
X138091847Y-57133153D01*
X138116708Y-57163446D01*
X138135180Y-57198005D01*
X138146555Y-57235501D01*
X138151000Y-57280638D01*
X138151000Y-57919362D01*
X138146555Y-57964499D01*
X138135180Y-58001995D01*
X138116708Y-58036554D01*
X138091847Y-58066847D01*
X138061554Y-58091708D01*
X138026995Y-58110180D01*
X137989499Y-58121555D01*
X137944362Y-58126000D01*
X137205638Y-58126000D01*
X137160501Y-58121555D01*
X137123005Y-58110180D01*
X137088446Y-58091708D01*
X137058153Y-58066847D01*
X137033292Y-58036554D01*
X137014820Y-58001995D01*
X137003445Y-57964499D01*
X136999000Y-57919362D01*
X136999000Y-57280638D01*
X137003445Y-57235501D01*
X137014820Y-57198005D01*
X137033292Y-57163446D01*
X137058153Y-57133153D01*
X137088446Y-57108292D01*
X137123005Y-57089820D01*
X137160501Y-57078445D01*
X137205638Y-57074000D01*
X137944362Y-57074000D01*
X137989499Y-57078445D01*
G37*
G36*
X139864499Y-56878445D02*
G01*
X139901995Y-56889820D01*
X139936554Y-56908292D01*
X139966847Y-56933153D01*
X139991708Y-56963446D01*
X140010180Y-56998005D01*
X140021555Y-57035501D01*
X140026000Y-57080638D01*
X140026000Y-57819362D01*
X140021555Y-57864499D01*
X140010180Y-57901995D01*
X139991708Y-57936554D01*
X139966847Y-57966847D01*
X139936554Y-57991708D01*
X139901995Y-58010180D01*
X139864499Y-58021555D01*
X139819362Y-58026000D01*
X139180638Y-58026000D01*
X139135501Y-58021555D01*
X139098005Y-58010180D01*
X139063446Y-57991708D01*
X139033153Y-57966847D01*
X139008292Y-57936554D01*
X138989820Y-57901995D01*
X138978445Y-57864499D01*
X138974000Y-57819362D01*
X138974000Y-57080638D01*
X138978445Y-57035501D01*
X138989820Y-56998005D01*
X139008292Y-56963446D01*
X139033153Y-56933153D01*
X139063446Y-56908292D01*
X139098005Y-56889820D01*
X139135501Y-56878445D01*
X139180638Y-56874000D01*
X139819362Y-56874000D01*
X139864499Y-56878445D01*
G37*
G36*
X147899928Y-56176764D02*
G01*
X147921009Y-56183160D01*
X147940445Y-56193548D01*
X147957476Y-56207524D01*
X147971452Y-56224555D01*
X147981840Y-56243991D01*
X147988236Y-56265072D01*
X147991000Y-56293140D01*
X147991000Y-56756860D01*
X147988236Y-56784928D01*
X147981840Y-56806009D01*
X147971452Y-56825445D01*
X147957476Y-56842476D01*
X147940445Y-56856452D01*
X147921009Y-56866840D01*
X147899928Y-56873236D01*
X147871860Y-56876000D01*
X146358140Y-56876000D01*
X146330072Y-56873236D01*
X146308991Y-56866840D01*
X146289555Y-56856452D01*
X146272524Y-56842476D01*
X146258548Y-56825445D01*
X146248160Y-56806009D01*
X146241764Y-56784928D01*
X146239000Y-56756860D01*
X146239000Y-56293140D01*
X146241764Y-56265072D01*
X146248160Y-56243991D01*
X146258548Y-56224555D01*
X146272524Y-56207524D01*
X146289555Y-56193548D01*
X146308991Y-56183160D01*
X146330072Y-56176764D01*
X146358140Y-56174000D01*
X147871860Y-56174000D01*
X147899928Y-56176764D01*
G37*
G36*
X142649928Y-56176764D02*
G01*
X142671009Y-56183160D01*
X142690445Y-56193548D01*
X142707476Y-56207524D01*
X142721452Y-56224555D01*
X142731840Y-56243991D01*
X142738236Y-56265072D01*
X142741000Y-56293140D01*
X142741000Y-56756860D01*
X142738236Y-56784928D01*
X142731840Y-56806009D01*
X142721452Y-56825445D01*
X142707476Y-56842476D01*
X142690445Y-56856452D01*
X142671009Y-56866840D01*
X142649928Y-56873236D01*
X142621860Y-56876000D01*
X141108140Y-56876000D01*
X141080072Y-56873236D01*
X141058991Y-56866840D01*
X141039555Y-56856452D01*
X141022524Y-56842476D01*
X141008548Y-56825445D01*
X140998160Y-56806009D01*
X140991764Y-56784928D01*
X140989000Y-56756860D01*
X140989000Y-56293140D01*
X140991764Y-56265072D01*
X140998160Y-56243991D01*
X141008548Y-56224555D01*
X141022524Y-56207524D01*
X141039555Y-56193548D01*
X141058991Y-56183160D01*
X141080072Y-56176764D01*
X141108140Y-56174000D01*
X142621860Y-56174000D01*
X142649928Y-56176764D01*
G37*
G36*
X170026000Y-56681000D02*
G01*
X167374000Y-56681000D01*
X167374000Y-55519000D01*
X170026000Y-55519000D01*
X170026000Y-56681000D01*
G37*
G36*
X116914928Y-54651764D02*
G01*
X116936009Y-54658160D01*
X116955445Y-54668548D01*
X116972476Y-54682524D01*
X116986452Y-54699555D01*
X116996840Y-54718991D01*
X117003236Y-54740072D01*
X117006000Y-54768140D01*
X117006000Y-56281860D01*
X117003236Y-56309928D01*
X116996840Y-56331009D01*
X116986452Y-56350445D01*
X116972476Y-56367476D01*
X116955445Y-56381452D01*
X116936009Y-56391840D01*
X116914928Y-56398236D01*
X116886860Y-56401000D01*
X116423140Y-56401000D01*
X116395072Y-56398236D01*
X116373991Y-56391840D01*
X116354555Y-56381452D01*
X116337524Y-56367476D01*
X116323548Y-56350445D01*
X116313160Y-56331009D01*
X116306764Y-56309928D01*
X116304000Y-56281860D01*
X116304000Y-54768140D01*
X116306764Y-54740072D01*
X116313160Y-54718991D01*
X116323548Y-54699555D01*
X116337524Y-54682524D01*
X116354555Y-54668548D01*
X116373991Y-54658160D01*
X116395072Y-54651764D01*
X116423140Y-54649000D01*
X116886860Y-54649000D01*
X116914928Y-54651764D01*
G37*
G36*
X118184928Y-54651764D02*
G01*
X118206009Y-54658160D01*
X118225445Y-54668548D01*
X118242476Y-54682524D01*
X118256452Y-54699555D01*
X118266840Y-54718991D01*
X118273236Y-54740072D01*
X118276000Y-54768140D01*
X118276000Y-56281860D01*
X118273236Y-56309928D01*
X118266840Y-56331009D01*
X118256452Y-56350445D01*
X118242476Y-56367476D01*
X118225445Y-56381452D01*
X118206009Y-56391840D01*
X118184928Y-56398236D01*
X118156860Y-56401000D01*
X117693140Y-56401000D01*
X117665072Y-56398236D01*
X117643991Y-56391840D01*
X117624555Y-56381452D01*
X117607524Y-56367476D01*
X117593548Y-56350445D01*
X117583160Y-56331009D01*
X117576764Y-56309928D01*
X117574000Y-56281860D01*
X117574000Y-54768140D01*
X117576764Y-54740072D01*
X117583160Y-54718991D01*
X117593548Y-54699555D01*
X117607524Y-54682524D01*
X117624555Y-54668548D01*
X117643991Y-54658160D01*
X117665072Y-54651764D01*
X117693140Y-54649000D01*
X118156860Y-54649000D01*
X118184928Y-54651764D01*
G37*
G36*
X115644928Y-54651764D02*
G01*
X115666009Y-54658160D01*
X115685445Y-54668548D01*
X115702476Y-54682524D01*
X115716452Y-54699555D01*
X115726840Y-54718991D01*
X115733236Y-54740072D01*
X115736000Y-54768140D01*
X115736000Y-56281860D01*
X115733236Y-56309928D01*
X115726840Y-56331009D01*
X115716452Y-56350445D01*
X115702476Y-56367476D01*
X115685445Y-56381452D01*
X115666009Y-56391840D01*
X115644928Y-56398236D01*
X115616860Y-56401000D01*
X115153140Y-56401000D01*
X115125072Y-56398236D01*
X115103991Y-56391840D01*
X115084555Y-56381452D01*
X115067524Y-56367476D01*
X115053548Y-56350445D01*
X115043160Y-56331009D01*
X115036764Y-56309928D01*
X115034000Y-56281860D01*
X115034000Y-54768140D01*
X115036764Y-54740072D01*
X115043160Y-54718991D01*
X115053548Y-54699555D01*
X115067524Y-54682524D01*
X115084555Y-54668548D01*
X115103991Y-54658160D01*
X115125072Y-54651764D01*
X115153140Y-54649000D01*
X115616860Y-54649000D01*
X115644928Y-54651764D01*
G37*
G36*
X114374928Y-54651764D02*
G01*
X114396009Y-54658160D01*
X114415445Y-54668548D01*
X114432476Y-54682524D01*
X114446452Y-54699555D01*
X114456840Y-54718991D01*
X114463236Y-54740072D01*
X114466000Y-54768140D01*
X114466000Y-56281860D01*
X114463236Y-56309928D01*
X114456840Y-56331009D01*
X114446452Y-56350445D01*
X114432476Y-56367476D01*
X114415445Y-56381452D01*
X114396009Y-56391840D01*
X114374928Y-56398236D01*
X114346860Y-56401000D01*
X113883140Y-56401000D01*
X113855072Y-56398236D01*
X113833991Y-56391840D01*
X113814555Y-56381452D01*
X113797524Y-56367476D01*
X113783548Y-56350445D01*
X113773160Y-56331009D01*
X113766764Y-56309928D01*
X113764000Y-56281860D01*
X113764000Y-54768140D01*
X113766764Y-54740072D01*
X113773160Y-54718991D01*
X113783548Y-54699555D01*
X113797524Y-54682524D01*
X113814555Y-54668548D01*
X113833991Y-54658160D01*
X113855072Y-54651764D01*
X113883140Y-54649000D01*
X114346860Y-54649000D01*
X114374928Y-54651764D01*
G37*
G36*
X154301000Y-56301000D02*
G01*
X152499000Y-56301000D01*
X152499000Y-54499000D01*
X154301000Y-54499000D01*
X154301000Y-56301000D01*
G37*
G36*
X139864499Y-55128445D02*
G01*
X139901995Y-55139820D01*
X139936554Y-55158292D01*
X139966847Y-55183153D01*
X139991708Y-55213446D01*
X140010180Y-55248005D01*
X140021555Y-55285501D01*
X140026000Y-55330638D01*
X140026000Y-56069362D01*
X140021555Y-56114499D01*
X140010180Y-56151995D01*
X139991708Y-56186554D01*
X139966847Y-56216847D01*
X139936554Y-56241708D01*
X139901995Y-56260180D01*
X139864499Y-56271555D01*
X139819362Y-56276000D01*
X139180638Y-56276000D01*
X139135501Y-56271555D01*
X139098005Y-56260180D01*
X139063446Y-56241708D01*
X139033153Y-56216847D01*
X139008292Y-56186554D01*
X138989820Y-56151995D01*
X138978445Y-56114499D01*
X138974000Y-56069362D01*
X138974000Y-55330638D01*
X138978445Y-55285501D01*
X138989820Y-55248005D01*
X139008292Y-55213446D01*
X139033153Y-55183153D01*
X139063446Y-55158292D01*
X139098005Y-55139820D01*
X139135501Y-55128445D01*
X139180638Y-55124000D01*
X139819362Y-55124000D01*
X139864499Y-55128445D01*
G37*
G36*
X137964499Y-55178445D02*
G01*
X138001995Y-55189820D01*
X138036554Y-55208292D01*
X138066847Y-55233153D01*
X138091708Y-55263446D01*
X138110180Y-55298005D01*
X138121555Y-55335501D01*
X138126000Y-55380638D01*
X138126000Y-56019362D01*
X138121555Y-56064499D01*
X138110180Y-56101995D01*
X138091708Y-56136554D01*
X138066847Y-56166847D01*
X138036554Y-56191708D01*
X138001995Y-56210180D01*
X137964499Y-56221555D01*
X137919362Y-56226000D01*
X137180638Y-56226000D01*
X137135501Y-56221555D01*
X137098005Y-56210180D01*
X137063446Y-56191708D01*
X137033153Y-56166847D01*
X137008292Y-56136554D01*
X136989820Y-56101995D01*
X136978445Y-56064499D01*
X136974000Y-56019362D01*
X136974000Y-55380638D01*
X136978445Y-55335501D01*
X136989820Y-55298005D01*
X137008292Y-55263446D01*
X137033153Y-55233153D01*
X137063446Y-55208292D01*
X137098005Y-55189820D01*
X137135501Y-55178445D01*
X137180638Y-55174000D01*
X137919362Y-55174000D01*
X137964499Y-55178445D01*
G37*
G36*
X136214499Y-55178445D02*
G01*
X136251995Y-55189820D01*
X136286554Y-55208292D01*
X136316847Y-55233153D01*
X136341708Y-55263446D01*
X136360180Y-55298005D01*
X136371555Y-55335501D01*
X136376000Y-55380638D01*
X136376000Y-56019362D01*
X136371555Y-56064499D01*
X136360180Y-56101995D01*
X136341708Y-56136554D01*
X136316847Y-56166847D01*
X136286554Y-56191708D01*
X136251995Y-56210180D01*
X136214499Y-56221555D01*
X136169362Y-56226000D01*
X135430638Y-56226000D01*
X135385501Y-56221555D01*
X135348005Y-56210180D01*
X135313446Y-56191708D01*
X135283153Y-56166847D01*
X135258292Y-56136554D01*
X135239820Y-56101995D01*
X135228445Y-56064499D01*
X135224000Y-56019362D01*
X135224000Y-55380638D01*
X135228445Y-55335501D01*
X135239820Y-55298005D01*
X135258292Y-55263446D01*
X135283153Y-55233153D01*
X135313446Y-55208292D01*
X135348005Y-55189820D01*
X135385501Y-55178445D01*
X135430638Y-55174000D01*
X136169362Y-55174000D01*
X136214499Y-55178445D01*
G37*
G36*
X147899928Y-54906764D02*
G01*
X147921009Y-54913160D01*
X147940445Y-54923548D01*
X147957476Y-54937524D01*
X147971452Y-54954555D01*
X147981840Y-54973991D01*
X147988236Y-54995072D01*
X147991000Y-55023140D01*
X147991000Y-55486860D01*
X147988236Y-55514928D01*
X147981840Y-55536009D01*
X147971452Y-55555445D01*
X147957476Y-55572476D01*
X147940445Y-55586452D01*
X147921009Y-55596840D01*
X147899928Y-55603236D01*
X147871860Y-55606000D01*
X146358140Y-55606000D01*
X146330072Y-55603236D01*
X146308991Y-55596840D01*
X146289555Y-55586452D01*
X146272524Y-55572476D01*
X146258548Y-55555445D01*
X146248160Y-55536009D01*
X146241764Y-55514928D01*
X146239000Y-55486860D01*
X146239000Y-55023140D01*
X146241764Y-54995072D01*
X146248160Y-54973991D01*
X146258548Y-54954555D01*
X146272524Y-54937524D01*
X146289555Y-54923548D01*
X146308991Y-54913160D01*
X146330072Y-54906764D01*
X146358140Y-54904000D01*
X147871860Y-54904000D01*
X147899928Y-54906764D01*
G37*
G36*
X142649928Y-54906764D02*
G01*
X142671009Y-54913160D01*
X142690445Y-54923548D01*
X142707476Y-54937524D01*
X142721452Y-54954555D01*
X142731840Y-54973991D01*
X142738236Y-54995072D01*
X142741000Y-55023140D01*
X142741000Y-55486860D01*
X142738236Y-55514928D01*
X142731840Y-55536009D01*
X142721452Y-55555445D01*
X142707476Y-55572476D01*
X142690445Y-55586452D01*
X142671009Y-55596840D01*
X142649928Y-55603236D01*
X142621860Y-55606000D01*
X141108140Y-55606000D01*
X141080072Y-55603236D01*
X141058991Y-55596840D01*
X141039555Y-55586452D01*
X141022524Y-55572476D01*
X141008548Y-55555445D01*
X140998160Y-55536009D01*
X140991764Y-55514928D01*
X140989000Y-55486860D01*
X140989000Y-55023140D01*
X140991764Y-54995072D01*
X140998160Y-54973991D01*
X141008548Y-54954555D01*
X141022524Y-54937524D01*
X141039555Y-54923548D01*
X141058991Y-54913160D01*
X141080072Y-54906764D01*
X141108140Y-54904000D01*
X142621860Y-54904000D01*
X142649928Y-54906764D01*
G37*
G36*
X168339499Y-53778445D02*
G01*
X168376995Y-53789820D01*
X168411554Y-53808292D01*
X168441847Y-53833153D01*
X168466708Y-53863446D01*
X168485180Y-53898005D01*
X168496555Y-53935501D01*
X168501000Y-53980638D01*
X168501000Y-54619362D01*
X168496555Y-54664499D01*
X168485180Y-54701995D01*
X168466708Y-54736554D01*
X168441847Y-54766847D01*
X168411554Y-54791708D01*
X168376995Y-54810180D01*
X168339499Y-54821555D01*
X168294362Y-54826000D01*
X167555638Y-54826000D01*
X167510501Y-54821555D01*
X167473005Y-54810180D01*
X167438446Y-54791708D01*
X167408153Y-54766847D01*
X167383292Y-54736554D01*
X167364820Y-54701995D01*
X167353445Y-54664499D01*
X167349000Y-54619362D01*
X167349000Y-53980638D01*
X167353445Y-53935501D01*
X167364820Y-53898005D01*
X167383292Y-53863446D01*
X167408153Y-53833153D01*
X167438446Y-53808292D01*
X167473005Y-53789820D01*
X167510501Y-53778445D01*
X167555638Y-53774000D01*
X168294362Y-53774000D01*
X168339499Y-53778445D01*
G37*
G36*
X170089499Y-53778445D02*
G01*
X170126995Y-53789820D01*
X170161554Y-53808292D01*
X170191847Y-53833153D01*
X170216708Y-53863446D01*
X170235180Y-53898005D01*
X170246555Y-53935501D01*
X170251000Y-53980638D01*
X170251000Y-54619362D01*
X170246555Y-54664499D01*
X170235180Y-54701995D01*
X170216708Y-54736554D01*
X170191847Y-54766847D01*
X170161554Y-54791708D01*
X170126995Y-54810180D01*
X170089499Y-54821555D01*
X170044362Y-54826000D01*
X169305638Y-54826000D01*
X169260501Y-54821555D01*
X169223005Y-54810180D01*
X169188446Y-54791708D01*
X169158153Y-54766847D01*
X169133292Y-54736554D01*
X169114820Y-54701995D01*
X169103445Y-54664499D01*
X169099000Y-54619362D01*
X169099000Y-53980638D01*
X169103445Y-53935501D01*
X169114820Y-53898005D01*
X169133292Y-53863446D01*
X169158153Y-53833153D01*
X169188446Y-53808292D01*
X169223005Y-53789820D01*
X169260501Y-53778445D01*
X169305638Y-53774000D01*
X170044362Y-53774000D01*
X170089499Y-53778445D01*
G37*
G36*
X174126000Y-54701000D02*
G01*
X172524000Y-54701000D01*
X172524000Y-53799000D01*
X174126000Y-53799000D01*
X174126000Y-54701000D01*
G37*
G36*
X149964499Y-53328445D02*
G01*
X150001995Y-53339820D01*
X150036554Y-53358292D01*
X150066847Y-53383153D01*
X150091708Y-53413446D01*
X150110180Y-53448005D01*
X150121555Y-53485501D01*
X150126000Y-53530638D01*
X150126000Y-54269362D01*
X150121555Y-54314499D01*
X150110180Y-54351995D01*
X150091708Y-54386554D01*
X150066847Y-54416847D01*
X150036554Y-54441708D01*
X150001995Y-54460180D01*
X149964499Y-54471555D01*
X149919362Y-54476000D01*
X149280638Y-54476000D01*
X149235501Y-54471555D01*
X149198005Y-54460180D01*
X149163446Y-54441708D01*
X149133153Y-54416847D01*
X149108292Y-54386554D01*
X149089820Y-54351995D01*
X149078445Y-54314499D01*
X149074000Y-54269362D01*
X149074000Y-53530638D01*
X149078445Y-53485501D01*
X149089820Y-53448005D01*
X149108292Y-53413446D01*
X149133153Y-53383153D01*
X149163446Y-53358292D01*
X149198005Y-53339820D01*
X149235501Y-53328445D01*
X149280638Y-53324000D01*
X149919362Y-53324000D01*
X149964499Y-53328445D01*
G37*
G36*
X139764499Y-53328445D02*
G01*
X139801995Y-53339820D01*
X139836554Y-53358292D01*
X139866847Y-53383153D01*
X139891708Y-53413446D01*
X139910180Y-53448005D01*
X139921555Y-53485501D01*
X139926000Y-53530638D01*
X139926000Y-54269362D01*
X139921555Y-54314499D01*
X139910180Y-54351995D01*
X139891708Y-54386554D01*
X139866847Y-54416847D01*
X139836554Y-54441708D01*
X139801995Y-54460180D01*
X139764499Y-54471555D01*
X139719362Y-54476000D01*
X139080638Y-54476000D01*
X139035501Y-54471555D01*
X138998005Y-54460180D01*
X138963446Y-54441708D01*
X138933153Y-54416847D01*
X138908292Y-54386554D01*
X138889820Y-54351995D01*
X138878445Y-54314499D01*
X138874000Y-54269362D01*
X138874000Y-53530638D01*
X138878445Y-53485501D01*
X138889820Y-53448005D01*
X138908292Y-53413446D01*
X138933153Y-53383153D01*
X138963446Y-53358292D01*
X138998005Y-53339820D01*
X139035501Y-53328445D01*
X139080638Y-53324000D01*
X139719362Y-53324000D01*
X139764499Y-53328445D01*
G37*
G36*
X142649928Y-53636764D02*
G01*
X142671009Y-53643160D01*
X142690445Y-53653548D01*
X142707476Y-53667524D01*
X142721452Y-53684555D01*
X142731840Y-53703991D01*
X142738236Y-53725072D01*
X142741000Y-53753140D01*
X142741000Y-54216860D01*
X142738236Y-54244928D01*
X142731840Y-54266009D01*
X142721452Y-54285445D01*
X142707476Y-54302476D01*
X142690445Y-54316452D01*
X142671009Y-54326840D01*
X142649928Y-54333236D01*
X142621860Y-54336000D01*
X141108140Y-54336000D01*
X141080072Y-54333236D01*
X141058991Y-54326840D01*
X141039555Y-54316452D01*
X141022524Y-54302476D01*
X141008548Y-54285445D01*
X140998160Y-54266009D01*
X140991764Y-54244928D01*
X140989000Y-54216860D01*
X140989000Y-53753140D01*
X140991764Y-53725072D01*
X140998160Y-53703991D01*
X141008548Y-53684555D01*
X141022524Y-53667524D01*
X141039555Y-53653548D01*
X141058991Y-53643160D01*
X141080072Y-53636764D01*
X141108140Y-53634000D01*
X142621860Y-53634000D01*
X142649928Y-53636764D01*
G37*
G36*
X147899928Y-53636764D02*
G01*
X147921009Y-53643160D01*
X147940445Y-53653548D01*
X147957476Y-53667524D01*
X147971452Y-53684555D01*
X147981840Y-53703991D01*
X147988236Y-53725072D01*
X147991000Y-53753140D01*
X147991000Y-54216860D01*
X147988236Y-54244928D01*
X147981840Y-54266009D01*
X147971452Y-54285445D01*
X147957476Y-54302476D01*
X147940445Y-54316452D01*
X147921009Y-54326840D01*
X147899928Y-54333236D01*
X147871860Y-54336000D01*
X146358140Y-54336000D01*
X146330072Y-54333236D01*
X146308991Y-54326840D01*
X146289555Y-54316452D01*
X146272524Y-54302476D01*
X146258548Y-54285445D01*
X146248160Y-54266009D01*
X146241764Y-54244928D01*
X146239000Y-54216860D01*
X146239000Y-53753140D01*
X146241764Y-53725072D01*
X146248160Y-53703991D01*
X146258548Y-53684555D01*
X146272524Y-53667524D01*
X146289555Y-53653548D01*
X146308991Y-53643160D01*
X146330072Y-53636764D01*
X146358140Y-53634000D01*
X147871860Y-53634000D01*
X147899928Y-53636764D01*
G37*
G36*
X115514499Y-52678445D02*
G01*
X115551995Y-52689820D01*
X115586554Y-52708292D01*
X115616847Y-52733153D01*
X115641708Y-52763446D01*
X115660180Y-52798005D01*
X115671555Y-52835501D01*
X115676000Y-52880638D01*
X115676000Y-53519362D01*
X115671555Y-53564499D01*
X115660180Y-53601995D01*
X115641708Y-53636554D01*
X115616847Y-53666847D01*
X115586554Y-53691708D01*
X115551995Y-53710180D01*
X115514499Y-53721555D01*
X115469362Y-53726000D01*
X114730638Y-53726000D01*
X114685501Y-53721555D01*
X114648005Y-53710180D01*
X114613446Y-53691708D01*
X114583153Y-53666847D01*
X114558292Y-53636554D01*
X114539820Y-53601995D01*
X114528445Y-53564499D01*
X114524000Y-53519362D01*
X114524000Y-52880638D01*
X114528445Y-52835501D01*
X114539820Y-52798005D01*
X114558292Y-52763446D01*
X114583153Y-52733153D01*
X114613446Y-52708292D01*
X114648005Y-52689820D01*
X114685501Y-52678445D01*
X114730638Y-52674000D01*
X115469362Y-52674000D01*
X115514499Y-52678445D01*
G37*
G36*
X113764499Y-52678445D02*
G01*
X113801995Y-52689820D01*
X113836554Y-52708292D01*
X113866847Y-52733153D01*
X113891708Y-52763446D01*
X113910180Y-52798005D01*
X113921555Y-52835501D01*
X113926000Y-52880638D01*
X113926000Y-53519362D01*
X113921555Y-53564499D01*
X113910180Y-53601995D01*
X113891708Y-53636554D01*
X113866847Y-53666847D01*
X113836554Y-53691708D01*
X113801995Y-53710180D01*
X113764499Y-53721555D01*
X113719362Y-53726000D01*
X112980638Y-53726000D01*
X112935501Y-53721555D01*
X112898005Y-53710180D01*
X112863446Y-53691708D01*
X112833153Y-53666847D01*
X112808292Y-53636554D01*
X112789820Y-53601995D01*
X112778445Y-53564499D01*
X112774000Y-53519362D01*
X112774000Y-52880638D01*
X112778445Y-52835501D01*
X112789820Y-52798005D01*
X112808292Y-52763446D01*
X112833153Y-52733153D01*
X112863446Y-52708292D01*
X112898005Y-52689820D01*
X112935501Y-52678445D01*
X112980638Y-52674000D01*
X113719362Y-52674000D01*
X113764499Y-52678445D01*
G37*
G36*
X126993512Y-51703927D02*
G01*
X127142812Y-51733624D01*
X127306784Y-51801544D01*
X127454354Y-51900147D01*
X127579853Y-52025646D01*
X127678456Y-52173216D01*
X127746376Y-52337188D01*
X127775407Y-52483140D01*
X127781000Y-52511258D01*
X127781000Y-52688742D01*
X127780410Y-52691708D01*
X127746376Y-52862812D01*
X127678456Y-53026784D01*
X127579853Y-53174354D01*
X127454354Y-53299853D01*
X127306784Y-53398456D01*
X127142812Y-53466376D01*
X126993512Y-53496073D01*
X126968742Y-53501000D01*
X126791258Y-53501000D01*
X126766488Y-53496073D01*
X126617188Y-53466376D01*
X126453216Y-53398456D01*
X126305646Y-53299853D01*
X126180147Y-53174354D01*
X126081544Y-53026784D01*
X126013624Y-52862812D01*
X125979590Y-52691708D01*
X125979000Y-52688742D01*
X125979000Y-52511258D01*
X125984593Y-52483140D01*
X126013624Y-52337188D01*
X126081544Y-52173216D01*
X126180147Y-52025646D01*
X126305646Y-51900147D01*
X126453216Y-51801544D01*
X126617188Y-51733624D01*
X126766488Y-51703927D01*
X126791258Y-51699000D01*
X126968742Y-51699000D01*
X126993512Y-51703927D01*
G37*
G36*
X124453512Y-51703927D02*
G01*
X124602812Y-51733624D01*
X124766784Y-51801544D01*
X124914354Y-51900147D01*
X125039853Y-52025646D01*
X125138456Y-52173216D01*
X125206376Y-52337188D01*
X125235407Y-52483140D01*
X125241000Y-52511258D01*
X125241000Y-52688742D01*
X125240410Y-52691708D01*
X125206376Y-52862812D01*
X125138456Y-53026784D01*
X125039853Y-53174354D01*
X124914354Y-53299853D01*
X124766784Y-53398456D01*
X124602812Y-53466376D01*
X124453512Y-53496073D01*
X124428742Y-53501000D01*
X124251258Y-53501000D01*
X124226488Y-53496073D01*
X124077188Y-53466376D01*
X123913216Y-53398456D01*
X123765646Y-53299853D01*
X123640147Y-53174354D01*
X123541544Y-53026784D01*
X123473624Y-52862812D01*
X123439590Y-52691708D01*
X123439000Y-52688742D01*
X123439000Y-52511258D01*
X123444593Y-52483140D01*
X123473624Y-52337188D01*
X123541544Y-52173216D01*
X123640147Y-52025646D01*
X123765646Y-51900147D01*
X123913216Y-51801544D01*
X124077188Y-51733624D01*
X124226488Y-51703927D01*
X124251258Y-51699000D01*
X124428742Y-51699000D01*
X124453512Y-51703927D01*
G37*
G36*
X122701000Y-53501000D02*
G01*
X120899000Y-53501000D01*
X120899000Y-51699000D01*
X122701000Y-51699000D01*
X122701000Y-53501000D01*
G37*
G36*
X177742818Y-52087696D02*
G01*
X177856105Y-52122062D01*
X177960512Y-52177869D01*
X178052027Y-52252973D01*
X178127131Y-52344488D01*
X178182938Y-52448895D01*
X178217304Y-52562182D01*
X178228907Y-52680000D01*
X178217304Y-52797818D01*
X178182938Y-52911105D01*
X178127131Y-53015512D01*
X178052027Y-53107027D01*
X177960512Y-53182131D01*
X177856105Y-53237938D01*
X177742818Y-53272304D01*
X177654519Y-53281000D01*
X176895481Y-53281000D01*
X176807182Y-53272304D01*
X176693895Y-53237938D01*
X176589488Y-53182131D01*
X176497973Y-53107027D01*
X176422869Y-53015512D01*
X176367062Y-52911105D01*
X176332696Y-52797818D01*
X176321093Y-52680000D01*
X176332696Y-52562182D01*
X176367062Y-52448895D01*
X176422869Y-52344488D01*
X176497973Y-52252973D01*
X176589488Y-52177869D01*
X176693895Y-52122062D01*
X176807182Y-52087696D01*
X176895481Y-52079000D01*
X177654519Y-52079000D01*
X177742818Y-52087696D01*
G37*
G36*
X173942818Y-52087696D02*
G01*
X174056105Y-52122062D01*
X174160512Y-52177869D01*
X174252027Y-52252973D01*
X174327131Y-52344488D01*
X174382938Y-52448895D01*
X174417304Y-52562182D01*
X174428907Y-52680000D01*
X174417304Y-52797818D01*
X174382938Y-52911105D01*
X174327131Y-53015512D01*
X174252027Y-53107027D01*
X174160512Y-53182131D01*
X174056105Y-53237938D01*
X173942818Y-53272304D01*
X173854519Y-53281000D01*
X173095481Y-53281000D01*
X173007182Y-53272304D01*
X172893895Y-53237938D01*
X172789488Y-53182131D01*
X172697973Y-53107027D01*
X172622869Y-53015512D01*
X172567062Y-52911105D01*
X172532696Y-52797818D01*
X172521093Y-52680000D01*
X172532696Y-52562182D01*
X172567062Y-52448895D01*
X172622869Y-52344488D01*
X172697973Y-52252973D01*
X172789488Y-52177869D01*
X172893895Y-52122062D01*
X173007182Y-52087696D01*
X173095481Y-52079000D01*
X173854519Y-52079000D01*
X173942818Y-52087696D01*
G37*
G36*
X142649928Y-52366764D02*
G01*
X142671009Y-52373160D01*
X142690445Y-52383548D01*
X142707476Y-52397524D01*
X142721452Y-52414555D01*
X142731840Y-52433991D01*
X142738236Y-52455072D01*
X142741000Y-52483140D01*
X142741000Y-52946860D01*
X142738236Y-52974928D01*
X142731840Y-52996009D01*
X142721452Y-53015445D01*
X142707476Y-53032476D01*
X142690445Y-53046452D01*
X142671009Y-53056840D01*
X142649928Y-53063236D01*
X142621860Y-53066000D01*
X141108140Y-53066000D01*
X141080072Y-53063236D01*
X141058991Y-53056840D01*
X141039555Y-53046452D01*
X141022524Y-53032476D01*
X141008548Y-53015445D01*
X140998160Y-52996009D01*
X140991764Y-52974928D01*
X140989000Y-52946860D01*
X140989000Y-52483140D01*
X140991764Y-52455072D01*
X140998160Y-52433991D01*
X141008548Y-52414555D01*
X141022524Y-52397524D01*
X141039555Y-52383548D01*
X141058991Y-52373160D01*
X141080072Y-52366764D01*
X141108140Y-52364000D01*
X142621860Y-52364000D01*
X142649928Y-52366764D01*
G37*
G36*
X147899928Y-52366764D02*
G01*
X147921009Y-52373160D01*
X147940445Y-52383548D01*
X147957476Y-52397524D01*
X147971452Y-52414555D01*
X147981840Y-52433991D01*
X147988236Y-52455072D01*
X147991000Y-52483140D01*
X147991000Y-52946860D01*
X147988236Y-52974928D01*
X147981840Y-52996009D01*
X147971452Y-53015445D01*
X147957476Y-53032476D01*
X147940445Y-53046452D01*
X147921009Y-53056840D01*
X147899928Y-53063236D01*
X147871860Y-53066000D01*
X146358140Y-53066000D01*
X146330072Y-53063236D01*
X146308991Y-53056840D01*
X146289555Y-53046452D01*
X146272524Y-53032476D01*
X146258548Y-53015445D01*
X146248160Y-52996009D01*
X146241764Y-52974928D01*
X146239000Y-52946860D01*
X146239000Y-52483140D01*
X146241764Y-52455072D01*
X146248160Y-52433991D01*
X146258548Y-52414555D01*
X146272524Y-52397524D01*
X146289555Y-52383548D01*
X146308991Y-52373160D01*
X146330072Y-52366764D01*
X146358140Y-52364000D01*
X147871860Y-52364000D01*
X147899928Y-52366764D01*
G37*
G36*
X149964499Y-51578445D02*
G01*
X150001995Y-51589820D01*
X150036554Y-51608292D01*
X150066847Y-51633153D01*
X150091708Y-51663446D01*
X150110180Y-51698005D01*
X150121555Y-51735501D01*
X150126000Y-51780638D01*
X150126000Y-52519362D01*
X150121555Y-52564499D01*
X150110180Y-52601995D01*
X150091708Y-52636554D01*
X150066847Y-52666847D01*
X150036554Y-52691708D01*
X150001995Y-52710180D01*
X149964499Y-52721555D01*
X149919362Y-52726000D01*
X149280638Y-52726000D01*
X149235501Y-52721555D01*
X149198005Y-52710180D01*
X149163446Y-52691708D01*
X149133153Y-52666847D01*
X149108292Y-52636554D01*
X149089820Y-52601995D01*
X149078445Y-52564499D01*
X149074000Y-52519362D01*
X149074000Y-51780638D01*
X149078445Y-51735501D01*
X149089820Y-51698005D01*
X149108292Y-51663446D01*
X149133153Y-51633153D01*
X149163446Y-51608292D01*
X149198005Y-51589820D01*
X149235501Y-51578445D01*
X149280638Y-51574000D01*
X149919362Y-51574000D01*
X149964499Y-51578445D01*
G37*
G36*
X139764499Y-51578445D02*
G01*
X139801995Y-51589820D01*
X139836554Y-51608292D01*
X139866847Y-51633153D01*
X139891708Y-51663446D01*
X139910180Y-51698005D01*
X139921555Y-51735501D01*
X139926000Y-51780638D01*
X139926000Y-52519362D01*
X139921555Y-52564499D01*
X139910180Y-52601995D01*
X139891708Y-52636554D01*
X139866847Y-52666847D01*
X139836554Y-52691708D01*
X139801995Y-52710180D01*
X139764499Y-52721555D01*
X139719362Y-52726000D01*
X139080638Y-52726000D01*
X139035501Y-52721555D01*
X138998005Y-52710180D01*
X138963446Y-52691708D01*
X138933153Y-52666847D01*
X138908292Y-52636554D01*
X138889820Y-52601995D01*
X138878445Y-52564499D01*
X138874000Y-52519362D01*
X138874000Y-51780638D01*
X138878445Y-51735501D01*
X138889820Y-51698005D01*
X138908292Y-51663446D01*
X138933153Y-51633153D01*
X138963446Y-51608292D01*
X138998005Y-51589820D01*
X139035501Y-51578445D01*
X139080638Y-51574000D01*
X139719362Y-51574000D01*
X139764499Y-51578445D01*
G37*
M02*
