G04 #@! TF.GenerationSoftware,KiCad,Pcbnew,(5.1.5-0)*
G04 #@! TF.CreationDate,2022-04-01T13:26:54-06:00*
G04 #@! TF.ProjectId,power-two-wire,706f7765-722d-4747-976f-2d776972652e,rev?*
G04 #@! TF.SameCoordinates,Original*
G04 #@! TF.FileFunction,Soldermask,Top*
G04 #@! TF.FilePolarity,Negative*
%FSLAX46Y46*%
G04 Gerber Fmt 4.6, Leading zero omitted, Abs format (unit mm)*
G04 Created by KiCad (PCBNEW (5.1.5-0)) date 2022-04-01 13:26:54*
%MOMM*%
%LPD*%
G04 APERTURE LIST*
%ADD10C,0.100000*%
%ADD11O,2.100000X2.100000*%
%ADD12R,2.100000X2.100000*%
%ADD13C,1.640000*%
%ADD14R,1.900000X1.400000*%
%ADD15R,1.400000X1.900000*%
%ADD16R,1.460000X1.050000*%
%ADD17R,2.200000X1.800000*%
%ADD18O,2.200000X1.800000*%
%ADD19R,1.300000X1.200000*%
%ADD20C,7.400000*%
G04 APERTURE END LIST*
D10*
G36*
X132424340Y-83151605D02*
G01*
X132456698Y-83156405D01*
X132488429Y-83164353D01*
X132519229Y-83175373D01*
X132548800Y-83189359D01*
X132576857Y-83206177D01*
X132603132Y-83225663D01*
X132627369Y-83247631D01*
X132649337Y-83271868D01*
X132668823Y-83298143D01*
X132685641Y-83326200D01*
X132699627Y-83355771D01*
X132710647Y-83386571D01*
X132718595Y-83418302D01*
X132723395Y-83450660D01*
X132725000Y-83483332D01*
X132725000Y-84416668D01*
X132723395Y-84449340D01*
X132718595Y-84481698D01*
X132710647Y-84513429D01*
X132699627Y-84544229D01*
X132685641Y-84573800D01*
X132668823Y-84601857D01*
X132649337Y-84628132D01*
X132627369Y-84652369D01*
X132603132Y-84674337D01*
X132576857Y-84693823D01*
X132548800Y-84710641D01*
X132519229Y-84724627D01*
X132488429Y-84735647D01*
X132456698Y-84743595D01*
X132424340Y-84748395D01*
X132391668Y-84750000D01*
X130858332Y-84750000D01*
X130825660Y-84748395D01*
X130793302Y-84743595D01*
X130761571Y-84735647D01*
X130730771Y-84724627D01*
X130701200Y-84710641D01*
X130673143Y-84693823D01*
X130646868Y-84674337D01*
X130622631Y-84652369D01*
X130600663Y-84628132D01*
X130581177Y-84601857D01*
X130564359Y-84573800D01*
X130550373Y-84544229D01*
X130539353Y-84513429D01*
X130531405Y-84481698D01*
X130526605Y-84449340D01*
X130525000Y-84416668D01*
X130525000Y-83483332D01*
X130526605Y-83450660D01*
X130531405Y-83418302D01*
X130539353Y-83386571D01*
X130550373Y-83355771D01*
X130564359Y-83326200D01*
X130581177Y-83298143D01*
X130600663Y-83271868D01*
X130622631Y-83247631D01*
X130646868Y-83225663D01*
X130673143Y-83206177D01*
X130701200Y-83189359D01*
X130730771Y-83175373D01*
X130761571Y-83164353D01*
X130793302Y-83156405D01*
X130825660Y-83151605D01*
X130858332Y-83150000D01*
X132391668Y-83150000D01*
X132424340Y-83151605D01*
G37*
G36*
X132424340Y-77551605D02*
G01*
X132456698Y-77556405D01*
X132488429Y-77564353D01*
X132519229Y-77575373D01*
X132548800Y-77589359D01*
X132576857Y-77606177D01*
X132603132Y-77625663D01*
X132627369Y-77647631D01*
X132649337Y-77671868D01*
X132668823Y-77698143D01*
X132685641Y-77726200D01*
X132699627Y-77755771D01*
X132710647Y-77786571D01*
X132718595Y-77818302D01*
X132723395Y-77850660D01*
X132725000Y-77883332D01*
X132725000Y-78816668D01*
X132723395Y-78849340D01*
X132718595Y-78881698D01*
X132710647Y-78913429D01*
X132699627Y-78944229D01*
X132685641Y-78973800D01*
X132668823Y-79001857D01*
X132649337Y-79028132D01*
X132627369Y-79052369D01*
X132603132Y-79074337D01*
X132576857Y-79093823D01*
X132548800Y-79110641D01*
X132519229Y-79124627D01*
X132488429Y-79135647D01*
X132456698Y-79143595D01*
X132424340Y-79148395D01*
X132391668Y-79150000D01*
X130858332Y-79150000D01*
X130825660Y-79148395D01*
X130793302Y-79143595D01*
X130761571Y-79135647D01*
X130730771Y-79124627D01*
X130701200Y-79110641D01*
X130673143Y-79093823D01*
X130646868Y-79074337D01*
X130622631Y-79052369D01*
X130600663Y-79028132D01*
X130581177Y-79001857D01*
X130564359Y-78973800D01*
X130550373Y-78944229D01*
X130539353Y-78913429D01*
X130531405Y-78881698D01*
X130526605Y-78849340D01*
X130525000Y-78816668D01*
X130525000Y-77883332D01*
X130526605Y-77850660D01*
X130531405Y-77818302D01*
X130539353Y-77786571D01*
X130550373Y-77755771D01*
X130564359Y-77726200D01*
X130581177Y-77698143D01*
X130600663Y-77671868D01*
X130622631Y-77647631D01*
X130646868Y-77625663D01*
X130673143Y-77606177D01*
X130701200Y-77589359D01*
X130730771Y-77575373D01*
X130761571Y-77564353D01*
X130793302Y-77556405D01*
X130825660Y-77551605D01*
X130858332Y-77550000D01*
X132391668Y-77550000D01*
X132424340Y-77551605D01*
G37*
G36*
X136249504Y-82151204D02*
G01*
X136273773Y-82154804D01*
X136297571Y-82160765D01*
X136320671Y-82169030D01*
X136342849Y-82179520D01*
X136363893Y-82192133D01*
X136383598Y-82206747D01*
X136401777Y-82223223D01*
X136418253Y-82241402D01*
X136432867Y-82261107D01*
X136445480Y-82282151D01*
X136455970Y-82304329D01*
X136464235Y-82327429D01*
X136470196Y-82351227D01*
X136473796Y-82375496D01*
X136475000Y-82400000D01*
X136475000Y-82900000D01*
X136473796Y-82924504D01*
X136470196Y-82948773D01*
X136464235Y-82972571D01*
X136455970Y-82995671D01*
X136445480Y-83017849D01*
X136432867Y-83038893D01*
X136418253Y-83058598D01*
X136401777Y-83076777D01*
X136383598Y-83093253D01*
X136363893Y-83107867D01*
X136342849Y-83120480D01*
X136320671Y-83130970D01*
X136297571Y-83139235D01*
X136273773Y-83145196D01*
X136249504Y-83148796D01*
X136225000Y-83150000D01*
X134775000Y-83150000D01*
X134750496Y-83148796D01*
X134726227Y-83145196D01*
X134702429Y-83139235D01*
X134679329Y-83130970D01*
X134657151Y-83120480D01*
X134636107Y-83107867D01*
X134616402Y-83093253D01*
X134598223Y-83076777D01*
X134581747Y-83058598D01*
X134567133Y-83038893D01*
X134554520Y-83017849D01*
X134544030Y-82995671D01*
X134535765Y-82972571D01*
X134529804Y-82948773D01*
X134526204Y-82924504D01*
X134525000Y-82900000D01*
X134525000Y-82400000D01*
X134526204Y-82375496D01*
X134529804Y-82351227D01*
X134535765Y-82327429D01*
X134544030Y-82304329D01*
X134554520Y-82282151D01*
X134567133Y-82261107D01*
X134581747Y-82241402D01*
X134598223Y-82223223D01*
X134616402Y-82206747D01*
X134636107Y-82192133D01*
X134657151Y-82179520D01*
X134679329Y-82169030D01*
X134702429Y-82160765D01*
X134726227Y-82154804D01*
X134750496Y-82151204D01*
X134775000Y-82150000D01*
X136225000Y-82150000D01*
X136249504Y-82151204D01*
G37*
G36*
X136249504Y-81151204D02*
G01*
X136273773Y-81154804D01*
X136297571Y-81160765D01*
X136320671Y-81169030D01*
X136342849Y-81179520D01*
X136363893Y-81192133D01*
X136383598Y-81206747D01*
X136401777Y-81223223D01*
X136418253Y-81241402D01*
X136432867Y-81261107D01*
X136445480Y-81282151D01*
X136455970Y-81304329D01*
X136464235Y-81327429D01*
X136470196Y-81351227D01*
X136473796Y-81375496D01*
X136475000Y-81400000D01*
X136475000Y-81900000D01*
X136473796Y-81924504D01*
X136470196Y-81948773D01*
X136464235Y-81972571D01*
X136455970Y-81995671D01*
X136445480Y-82017849D01*
X136432867Y-82038893D01*
X136418253Y-82058598D01*
X136401777Y-82076777D01*
X136383598Y-82093253D01*
X136363893Y-82107867D01*
X136342849Y-82120480D01*
X136320671Y-82130970D01*
X136297571Y-82139235D01*
X136273773Y-82145196D01*
X136249504Y-82148796D01*
X136225000Y-82150000D01*
X134775000Y-82150000D01*
X134750496Y-82148796D01*
X134726227Y-82145196D01*
X134702429Y-82139235D01*
X134679329Y-82130970D01*
X134657151Y-82120480D01*
X134636107Y-82107867D01*
X134616402Y-82093253D01*
X134598223Y-82076777D01*
X134581747Y-82058598D01*
X134567133Y-82038893D01*
X134554520Y-82017849D01*
X134544030Y-81995671D01*
X134535765Y-81972571D01*
X134529804Y-81948773D01*
X134526204Y-81924504D01*
X134525000Y-81900000D01*
X134525000Y-81400000D01*
X134526204Y-81375496D01*
X134529804Y-81351227D01*
X134535765Y-81327429D01*
X134544030Y-81304329D01*
X134554520Y-81282151D01*
X134567133Y-81261107D01*
X134581747Y-81241402D01*
X134598223Y-81223223D01*
X134616402Y-81206747D01*
X134636107Y-81192133D01*
X134657151Y-81179520D01*
X134679329Y-81169030D01*
X134702429Y-81160765D01*
X134726227Y-81154804D01*
X134750496Y-81151204D01*
X134775000Y-81150000D01*
X136225000Y-81150000D01*
X136249504Y-81151204D01*
G37*
G36*
X136249504Y-80151204D02*
G01*
X136273773Y-80154804D01*
X136297571Y-80160765D01*
X136320671Y-80169030D01*
X136342849Y-80179520D01*
X136363893Y-80192133D01*
X136383598Y-80206747D01*
X136401777Y-80223223D01*
X136418253Y-80241402D01*
X136432867Y-80261107D01*
X136445480Y-80282151D01*
X136455970Y-80304329D01*
X136464235Y-80327429D01*
X136470196Y-80351227D01*
X136473796Y-80375496D01*
X136475000Y-80400000D01*
X136475000Y-80900000D01*
X136473796Y-80924504D01*
X136470196Y-80948773D01*
X136464235Y-80972571D01*
X136455970Y-80995671D01*
X136445480Y-81017849D01*
X136432867Y-81038893D01*
X136418253Y-81058598D01*
X136401777Y-81076777D01*
X136383598Y-81093253D01*
X136363893Y-81107867D01*
X136342849Y-81120480D01*
X136320671Y-81130970D01*
X136297571Y-81139235D01*
X136273773Y-81145196D01*
X136249504Y-81148796D01*
X136225000Y-81150000D01*
X134775000Y-81150000D01*
X134750496Y-81148796D01*
X134726227Y-81145196D01*
X134702429Y-81139235D01*
X134679329Y-81130970D01*
X134657151Y-81120480D01*
X134636107Y-81107867D01*
X134616402Y-81093253D01*
X134598223Y-81076777D01*
X134581747Y-81058598D01*
X134567133Y-81038893D01*
X134554520Y-81017849D01*
X134544030Y-80995671D01*
X134535765Y-80972571D01*
X134529804Y-80948773D01*
X134526204Y-80924504D01*
X134525000Y-80900000D01*
X134525000Y-80400000D01*
X134526204Y-80375496D01*
X134529804Y-80351227D01*
X134535765Y-80327429D01*
X134544030Y-80304329D01*
X134554520Y-80282151D01*
X134567133Y-80261107D01*
X134581747Y-80241402D01*
X134598223Y-80223223D01*
X134616402Y-80206747D01*
X134636107Y-80192133D01*
X134657151Y-80179520D01*
X134679329Y-80169030D01*
X134702429Y-80160765D01*
X134726227Y-80154804D01*
X134750496Y-80151204D01*
X134775000Y-80150000D01*
X136225000Y-80150000D01*
X136249504Y-80151204D01*
G37*
G36*
X136249504Y-79151204D02*
G01*
X136273773Y-79154804D01*
X136297571Y-79160765D01*
X136320671Y-79169030D01*
X136342849Y-79179520D01*
X136363893Y-79192133D01*
X136383598Y-79206747D01*
X136401777Y-79223223D01*
X136418253Y-79241402D01*
X136432867Y-79261107D01*
X136445480Y-79282151D01*
X136455970Y-79304329D01*
X136464235Y-79327429D01*
X136470196Y-79351227D01*
X136473796Y-79375496D01*
X136475000Y-79400000D01*
X136475000Y-79900000D01*
X136473796Y-79924504D01*
X136470196Y-79948773D01*
X136464235Y-79972571D01*
X136455970Y-79995671D01*
X136445480Y-80017849D01*
X136432867Y-80038893D01*
X136418253Y-80058598D01*
X136401777Y-80076777D01*
X136383598Y-80093253D01*
X136363893Y-80107867D01*
X136342849Y-80120480D01*
X136320671Y-80130970D01*
X136297571Y-80139235D01*
X136273773Y-80145196D01*
X136249504Y-80148796D01*
X136225000Y-80150000D01*
X134775000Y-80150000D01*
X134750496Y-80148796D01*
X134726227Y-80145196D01*
X134702429Y-80139235D01*
X134679329Y-80130970D01*
X134657151Y-80120480D01*
X134636107Y-80107867D01*
X134616402Y-80093253D01*
X134598223Y-80076777D01*
X134581747Y-80058598D01*
X134567133Y-80038893D01*
X134554520Y-80017849D01*
X134544030Y-79995671D01*
X134535765Y-79972571D01*
X134529804Y-79948773D01*
X134526204Y-79924504D01*
X134525000Y-79900000D01*
X134525000Y-79400000D01*
X134526204Y-79375496D01*
X134529804Y-79351227D01*
X134535765Y-79327429D01*
X134544030Y-79304329D01*
X134554520Y-79282151D01*
X134567133Y-79261107D01*
X134581747Y-79241402D01*
X134598223Y-79223223D01*
X134616402Y-79206747D01*
X134636107Y-79192133D01*
X134657151Y-79179520D01*
X134679329Y-79169030D01*
X134702429Y-79160765D01*
X134726227Y-79154804D01*
X134750496Y-79151204D01*
X134775000Y-79150000D01*
X136225000Y-79150000D01*
X136249504Y-79151204D01*
G37*
G36*
X132324340Y-92101605D02*
G01*
X132356698Y-92106405D01*
X132388429Y-92114353D01*
X132419229Y-92125373D01*
X132448800Y-92139359D01*
X132476857Y-92156177D01*
X132503132Y-92175663D01*
X132527369Y-92197631D01*
X132549337Y-92221868D01*
X132568823Y-92248143D01*
X132585641Y-92276200D01*
X132599627Y-92305771D01*
X132610647Y-92336571D01*
X132618595Y-92368302D01*
X132623395Y-92400660D01*
X132625000Y-92433332D01*
X132625000Y-93366668D01*
X132623395Y-93399340D01*
X132618595Y-93431698D01*
X132610647Y-93463429D01*
X132599627Y-93494229D01*
X132585641Y-93523800D01*
X132568823Y-93551857D01*
X132549337Y-93578132D01*
X132527369Y-93602369D01*
X132503132Y-93624337D01*
X132476857Y-93643823D01*
X132448800Y-93660641D01*
X132419229Y-93674627D01*
X132388429Y-93685647D01*
X132356698Y-93693595D01*
X132324340Y-93698395D01*
X132291668Y-93700000D01*
X130758332Y-93700000D01*
X130725660Y-93698395D01*
X130693302Y-93693595D01*
X130661571Y-93685647D01*
X130630771Y-93674627D01*
X130601200Y-93660641D01*
X130573143Y-93643823D01*
X130546868Y-93624337D01*
X130522631Y-93602369D01*
X130500663Y-93578132D01*
X130481177Y-93551857D01*
X130464359Y-93523800D01*
X130450373Y-93494229D01*
X130439353Y-93463429D01*
X130431405Y-93431698D01*
X130426605Y-93399340D01*
X130425000Y-93366668D01*
X130425000Y-92433332D01*
X130426605Y-92400660D01*
X130431405Y-92368302D01*
X130439353Y-92336571D01*
X130450373Y-92305771D01*
X130464359Y-92276200D01*
X130481177Y-92248143D01*
X130500663Y-92221868D01*
X130522631Y-92197631D01*
X130546868Y-92175663D01*
X130573143Y-92156177D01*
X130601200Y-92139359D01*
X130630771Y-92125373D01*
X130661571Y-92114353D01*
X130693302Y-92106405D01*
X130725660Y-92101605D01*
X130758332Y-92100000D01*
X132291668Y-92100000D01*
X132324340Y-92101605D01*
G37*
G36*
X132324340Y-86501605D02*
G01*
X132356698Y-86506405D01*
X132388429Y-86514353D01*
X132419229Y-86525373D01*
X132448800Y-86539359D01*
X132476857Y-86556177D01*
X132503132Y-86575663D01*
X132527369Y-86597631D01*
X132549337Y-86621868D01*
X132568823Y-86648143D01*
X132585641Y-86676200D01*
X132599627Y-86705771D01*
X132610647Y-86736571D01*
X132618595Y-86768302D01*
X132623395Y-86800660D01*
X132625000Y-86833332D01*
X132625000Y-87766668D01*
X132623395Y-87799340D01*
X132618595Y-87831698D01*
X132610647Y-87863429D01*
X132599627Y-87894229D01*
X132585641Y-87923800D01*
X132568823Y-87951857D01*
X132549337Y-87978132D01*
X132527369Y-88002369D01*
X132503132Y-88024337D01*
X132476857Y-88043823D01*
X132448800Y-88060641D01*
X132419229Y-88074627D01*
X132388429Y-88085647D01*
X132356698Y-88093595D01*
X132324340Y-88098395D01*
X132291668Y-88100000D01*
X130758332Y-88100000D01*
X130725660Y-88098395D01*
X130693302Y-88093595D01*
X130661571Y-88085647D01*
X130630771Y-88074627D01*
X130601200Y-88060641D01*
X130573143Y-88043823D01*
X130546868Y-88024337D01*
X130522631Y-88002369D01*
X130500663Y-87978132D01*
X130481177Y-87951857D01*
X130464359Y-87923800D01*
X130450373Y-87894229D01*
X130439353Y-87863429D01*
X130431405Y-87831698D01*
X130426605Y-87799340D01*
X130425000Y-87766668D01*
X130425000Y-86833332D01*
X130426605Y-86800660D01*
X130431405Y-86768302D01*
X130439353Y-86736571D01*
X130450373Y-86705771D01*
X130464359Y-86676200D01*
X130481177Y-86648143D01*
X130500663Y-86621868D01*
X130522631Y-86597631D01*
X130546868Y-86575663D01*
X130573143Y-86556177D01*
X130601200Y-86539359D01*
X130630771Y-86525373D01*
X130661571Y-86514353D01*
X130693302Y-86506405D01*
X130725660Y-86501605D01*
X130758332Y-86500000D01*
X132291668Y-86500000D01*
X132324340Y-86501605D01*
G37*
G36*
X136149504Y-91101204D02*
G01*
X136173773Y-91104804D01*
X136197571Y-91110765D01*
X136220671Y-91119030D01*
X136242849Y-91129520D01*
X136263893Y-91142133D01*
X136283598Y-91156747D01*
X136301777Y-91173223D01*
X136318253Y-91191402D01*
X136332867Y-91211107D01*
X136345480Y-91232151D01*
X136355970Y-91254329D01*
X136364235Y-91277429D01*
X136370196Y-91301227D01*
X136373796Y-91325496D01*
X136375000Y-91350000D01*
X136375000Y-91850000D01*
X136373796Y-91874504D01*
X136370196Y-91898773D01*
X136364235Y-91922571D01*
X136355970Y-91945671D01*
X136345480Y-91967849D01*
X136332867Y-91988893D01*
X136318253Y-92008598D01*
X136301777Y-92026777D01*
X136283598Y-92043253D01*
X136263893Y-92057867D01*
X136242849Y-92070480D01*
X136220671Y-92080970D01*
X136197571Y-92089235D01*
X136173773Y-92095196D01*
X136149504Y-92098796D01*
X136125000Y-92100000D01*
X134675000Y-92100000D01*
X134650496Y-92098796D01*
X134626227Y-92095196D01*
X134602429Y-92089235D01*
X134579329Y-92080970D01*
X134557151Y-92070480D01*
X134536107Y-92057867D01*
X134516402Y-92043253D01*
X134498223Y-92026777D01*
X134481747Y-92008598D01*
X134467133Y-91988893D01*
X134454520Y-91967849D01*
X134444030Y-91945671D01*
X134435765Y-91922571D01*
X134429804Y-91898773D01*
X134426204Y-91874504D01*
X134425000Y-91850000D01*
X134425000Y-91350000D01*
X134426204Y-91325496D01*
X134429804Y-91301227D01*
X134435765Y-91277429D01*
X134444030Y-91254329D01*
X134454520Y-91232151D01*
X134467133Y-91211107D01*
X134481747Y-91191402D01*
X134498223Y-91173223D01*
X134516402Y-91156747D01*
X134536107Y-91142133D01*
X134557151Y-91129520D01*
X134579329Y-91119030D01*
X134602429Y-91110765D01*
X134626227Y-91104804D01*
X134650496Y-91101204D01*
X134675000Y-91100000D01*
X136125000Y-91100000D01*
X136149504Y-91101204D01*
G37*
G36*
X136149504Y-90101204D02*
G01*
X136173773Y-90104804D01*
X136197571Y-90110765D01*
X136220671Y-90119030D01*
X136242849Y-90129520D01*
X136263893Y-90142133D01*
X136283598Y-90156747D01*
X136301777Y-90173223D01*
X136318253Y-90191402D01*
X136332867Y-90211107D01*
X136345480Y-90232151D01*
X136355970Y-90254329D01*
X136364235Y-90277429D01*
X136370196Y-90301227D01*
X136373796Y-90325496D01*
X136375000Y-90350000D01*
X136375000Y-90850000D01*
X136373796Y-90874504D01*
X136370196Y-90898773D01*
X136364235Y-90922571D01*
X136355970Y-90945671D01*
X136345480Y-90967849D01*
X136332867Y-90988893D01*
X136318253Y-91008598D01*
X136301777Y-91026777D01*
X136283598Y-91043253D01*
X136263893Y-91057867D01*
X136242849Y-91070480D01*
X136220671Y-91080970D01*
X136197571Y-91089235D01*
X136173773Y-91095196D01*
X136149504Y-91098796D01*
X136125000Y-91100000D01*
X134675000Y-91100000D01*
X134650496Y-91098796D01*
X134626227Y-91095196D01*
X134602429Y-91089235D01*
X134579329Y-91080970D01*
X134557151Y-91070480D01*
X134536107Y-91057867D01*
X134516402Y-91043253D01*
X134498223Y-91026777D01*
X134481747Y-91008598D01*
X134467133Y-90988893D01*
X134454520Y-90967849D01*
X134444030Y-90945671D01*
X134435765Y-90922571D01*
X134429804Y-90898773D01*
X134426204Y-90874504D01*
X134425000Y-90850000D01*
X134425000Y-90350000D01*
X134426204Y-90325496D01*
X134429804Y-90301227D01*
X134435765Y-90277429D01*
X134444030Y-90254329D01*
X134454520Y-90232151D01*
X134467133Y-90211107D01*
X134481747Y-90191402D01*
X134498223Y-90173223D01*
X134516402Y-90156747D01*
X134536107Y-90142133D01*
X134557151Y-90129520D01*
X134579329Y-90119030D01*
X134602429Y-90110765D01*
X134626227Y-90104804D01*
X134650496Y-90101204D01*
X134675000Y-90100000D01*
X136125000Y-90100000D01*
X136149504Y-90101204D01*
G37*
G36*
X136149504Y-89101204D02*
G01*
X136173773Y-89104804D01*
X136197571Y-89110765D01*
X136220671Y-89119030D01*
X136242849Y-89129520D01*
X136263893Y-89142133D01*
X136283598Y-89156747D01*
X136301777Y-89173223D01*
X136318253Y-89191402D01*
X136332867Y-89211107D01*
X136345480Y-89232151D01*
X136355970Y-89254329D01*
X136364235Y-89277429D01*
X136370196Y-89301227D01*
X136373796Y-89325496D01*
X136375000Y-89350000D01*
X136375000Y-89850000D01*
X136373796Y-89874504D01*
X136370196Y-89898773D01*
X136364235Y-89922571D01*
X136355970Y-89945671D01*
X136345480Y-89967849D01*
X136332867Y-89988893D01*
X136318253Y-90008598D01*
X136301777Y-90026777D01*
X136283598Y-90043253D01*
X136263893Y-90057867D01*
X136242849Y-90070480D01*
X136220671Y-90080970D01*
X136197571Y-90089235D01*
X136173773Y-90095196D01*
X136149504Y-90098796D01*
X136125000Y-90100000D01*
X134675000Y-90100000D01*
X134650496Y-90098796D01*
X134626227Y-90095196D01*
X134602429Y-90089235D01*
X134579329Y-90080970D01*
X134557151Y-90070480D01*
X134536107Y-90057867D01*
X134516402Y-90043253D01*
X134498223Y-90026777D01*
X134481747Y-90008598D01*
X134467133Y-89988893D01*
X134454520Y-89967849D01*
X134444030Y-89945671D01*
X134435765Y-89922571D01*
X134429804Y-89898773D01*
X134426204Y-89874504D01*
X134425000Y-89850000D01*
X134425000Y-89350000D01*
X134426204Y-89325496D01*
X134429804Y-89301227D01*
X134435765Y-89277429D01*
X134444030Y-89254329D01*
X134454520Y-89232151D01*
X134467133Y-89211107D01*
X134481747Y-89191402D01*
X134498223Y-89173223D01*
X134516402Y-89156747D01*
X134536107Y-89142133D01*
X134557151Y-89129520D01*
X134579329Y-89119030D01*
X134602429Y-89110765D01*
X134626227Y-89104804D01*
X134650496Y-89101204D01*
X134675000Y-89100000D01*
X136125000Y-89100000D01*
X136149504Y-89101204D01*
G37*
G36*
X136149504Y-88101204D02*
G01*
X136173773Y-88104804D01*
X136197571Y-88110765D01*
X136220671Y-88119030D01*
X136242849Y-88129520D01*
X136263893Y-88142133D01*
X136283598Y-88156747D01*
X136301777Y-88173223D01*
X136318253Y-88191402D01*
X136332867Y-88211107D01*
X136345480Y-88232151D01*
X136355970Y-88254329D01*
X136364235Y-88277429D01*
X136370196Y-88301227D01*
X136373796Y-88325496D01*
X136375000Y-88350000D01*
X136375000Y-88850000D01*
X136373796Y-88874504D01*
X136370196Y-88898773D01*
X136364235Y-88922571D01*
X136355970Y-88945671D01*
X136345480Y-88967849D01*
X136332867Y-88988893D01*
X136318253Y-89008598D01*
X136301777Y-89026777D01*
X136283598Y-89043253D01*
X136263893Y-89057867D01*
X136242849Y-89070480D01*
X136220671Y-89080970D01*
X136197571Y-89089235D01*
X136173773Y-89095196D01*
X136149504Y-89098796D01*
X136125000Y-89100000D01*
X134675000Y-89100000D01*
X134650496Y-89098796D01*
X134626227Y-89095196D01*
X134602429Y-89089235D01*
X134579329Y-89080970D01*
X134557151Y-89070480D01*
X134536107Y-89057867D01*
X134516402Y-89043253D01*
X134498223Y-89026777D01*
X134481747Y-89008598D01*
X134467133Y-88988893D01*
X134454520Y-88967849D01*
X134444030Y-88945671D01*
X134435765Y-88922571D01*
X134429804Y-88898773D01*
X134426204Y-88874504D01*
X134425000Y-88850000D01*
X134425000Y-88350000D01*
X134426204Y-88325496D01*
X134429804Y-88301227D01*
X134435765Y-88277429D01*
X134444030Y-88254329D01*
X134454520Y-88232151D01*
X134467133Y-88211107D01*
X134481747Y-88191402D01*
X134498223Y-88173223D01*
X134516402Y-88156747D01*
X134536107Y-88142133D01*
X134557151Y-88129520D01*
X134579329Y-88119030D01*
X134602429Y-88110765D01*
X134626227Y-88104804D01*
X134650496Y-88101204D01*
X134675000Y-88100000D01*
X136125000Y-88100000D01*
X136149504Y-88101204D01*
G37*
G36*
X132224340Y-100951605D02*
G01*
X132256698Y-100956405D01*
X132288429Y-100964353D01*
X132319229Y-100975373D01*
X132348800Y-100989359D01*
X132376857Y-101006177D01*
X132403132Y-101025663D01*
X132427369Y-101047631D01*
X132449337Y-101071868D01*
X132468823Y-101098143D01*
X132485641Y-101126200D01*
X132499627Y-101155771D01*
X132510647Y-101186571D01*
X132518595Y-101218302D01*
X132523395Y-101250660D01*
X132525000Y-101283332D01*
X132525000Y-102216668D01*
X132523395Y-102249340D01*
X132518595Y-102281698D01*
X132510647Y-102313429D01*
X132499627Y-102344229D01*
X132485641Y-102373800D01*
X132468823Y-102401857D01*
X132449337Y-102428132D01*
X132427369Y-102452369D01*
X132403132Y-102474337D01*
X132376857Y-102493823D01*
X132348800Y-102510641D01*
X132319229Y-102524627D01*
X132288429Y-102535647D01*
X132256698Y-102543595D01*
X132224340Y-102548395D01*
X132191668Y-102550000D01*
X130658332Y-102550000D01*
X130625660Y-102548395D01*
X130593302Y-102543595D01*
X130561571Y-102535647D01*
X130530771Y-102524627D01*
X130501200Y-102510641D01*
X130473143Y-102493823D01*
X130446868Y-102474337D01*
X130422631Y-102452369D01*
X130400663Y-102428132D01*
X130381177Y-102401857D01*
X130364359Y-102373800D01*
X130350373Y-102344229D01*
X130339353Y-102313429D01*
X130331405Y-102281698D01*
X130326605Y-102249340D01*
X130325000Y-102216668D01*
X130325000Y-101283332D01*
X130326605Y-101250660D01*
X130331405Y-101218302D01*
X130339353Y-101186571D01*
X130350373Y-101155771D01*
X130364359Y-101126200D01*
X130381177Y-101098143D01*
X130400663Y-101071868D01*
X130422631Y-101047631D01*
X130446868Y-101025663D01*
X130473143Y-101006177D01*
X130501200Y-100989359D01*
X130530771Y-100975373D01*
X130561571Y-100964353D01*
X130593302Y-100956405D01*
X130625660Y-100951605D01*
X130658332Y-100950000D01*
X132191668Y-100950000D01*
X132224340Y-100951605D01*
G37*
G36*
X132224340Y-95351605D02*
G01*
X132256698Y-95356405D01*
X132288429Y-95364353D01*
X132319229Y-95375373D01*
X132348800Y-95389359D01*
X132376857Y-95406177D01*
X132403132Y-95425663D01*
X132427369Y-95447631D01*
X132449337Y-95471868D01*
X132468823Y-95498143D01*
X132485641Y-95526200D01*
X132499627Y-95555771D01*
X132510647Y-95586571D01*
X132518595Y-95618302D01*
X132523395Y-95650660D01*
X132525000Y-95683332D01*
X132525000Y-96616668D01*
X132523395Y-96649340D01*
X132518595Y-96681698D01*
X132510647Y-96713429D01*
X132499627Y-96744229D01*
X132485641Y-96773800D01*
X132468823Y-96801857D01*
X132449337Y-96828132D01*
X132427369Y-96852369D01*
X132403132Y-96874337D01*
X132376857Y-96893823D01*
X132348800Y-96910641D01*
X132319229Y-96924627D01*
X132288429Y-96935647D01*
X132256698Y-96943595D01*
X132224340Y-96948395D01*
X132191668Y-96950000D01*
X130658332Y-96950000D01*
X130625660Y-96948395D01*
X130593302Y-96943595D01*
X130561571Y-96935647D01*
X130530771Y-96924627D01*
X130501200Y-96910641D01*
X130473143Y-96893823D01*
X130446868Y-96874337D01*
X130422631Y-96852369D01*
X130400663Y-96828132D01*
X130381177Y-96801857D01*
X130364359Y-96773800D01*
X130350373Y-96744229D01*
X130339353Y-96713429D01*
X130331405Y-96681698D01*
X130326605Y-96649340D01*
X130325000Y-96616668D01*
X130325000Y-95683332D01*
X130326605Y-95650660D01*
X130331405Y-95618302D01*
X130339353Y-95586571D01*
X130350373Y-95555771D01*
X130364359Y-95526200D01*
X130381177Y-95498143D01*
X130400663Y-95471868D01*
X130422631Y-95447631D01*
X130446868Y-95425663D01*
X130473143Y-95406177D01*
X130501200Y-95389359D01*
X130530771Y-95375373D01*
X130561571Y-95364353D01*
X130593302Y-95356405D01*
X130625660Y-95351605D01*
X130658332Y-95350000D01*
X132191668Y-95350000D01*
X132224340Y-95351605D01*
G37*
G36*
X136049504Y-99951204D02*
G01*
X136073773Y-99954804D01*
X136097571Y-99960765D01*
X136120671Y-99969030D01*
X136142849Y-99979520D01*
X136163893Y-99992133D01*
X136183598Y-100006747D01*
X136201777Y-100023223D01*
X136218253Y-100041402D01*
X136232867Y-100061107D01*
X136245480Y-100082151D01*
X136255970Y-100104329D01*
X136264235Y-100127429D01*
X136270196Y-100151227D01*
X136273796Y-100175496D01*
X136275000Y-100200000D01*
X136275000Y-100700000D01*
X136273796Y-100724504D01*
X136270196Y-100748773D01*
X136264235Y-100772571D01*
X136255970Y-100795671D01*
X136245480Y-100817849D01*
X136232867Y-100838893D01*
X136218253Y-100858598D01*
X136201777Y-100876777D01*
X136183598Y-100893253D01*
X136163893Y-100907867D01*
X136142849Y-100920480D01*
X136120671Y-100930970D01*
X136097571Y-100939235D01*
X136073773Y-100945196D01*
X136049504Y-100948796D01*
X136025000Y-100950000D01*
X134575000Y-100950000D01*
X134550496Y-100948796D01*
X134526227Y-100945196D01*
X134502429Y-100939235D01*
X134479329Y-100930970D01*
X134457151Y-100920480D01*
X134436107Y-100907867D01*
X134416402Y-100893253D01*
X134398223Y-100876777D01*
X134381747Y-100858598D01*
X134367133Y-100838893D01*
X134354520Y-100817849D01*
X134344030Y-100795671D01*
X134335765Y-100772571D01*
X134329804Y-100748773D01*
X134326204Y-100724504D01*
X134325000Y-100700000D01*
X134325000Y-100200000D01*
X134326204Y-100175496D01*
X134329804Y-100151227D01*
X134335765Y-100127429D01*
X134344030Y-100104329D01*
X134354520Y-100082151D01*
X134367133Y-100061107D01*
X134381747Y-100041402D01*
X134398223Y-100023223D01*
X134416402Y-100006747D01*
X134436107Y-99992133D01*
X134457151Y-99979520D01*
X134479329Y-99969030D01*
X134502429Y-99960765D01*
X134526227Y-99954804D01*
X134550496Y-99951204D01*
X134575000Y-99950000D01*
X136025000Y-99950000D01*
X136049504Y-99951204D01*
G37*
G36*
X136049504Y-98951204D02*
G01*
X136073773Y-98954804D01*
X136097571Y-98960765D01*
X136120671Y-98969030D01*
X136142849Y-98979520D01*
X136163893Y-98992133D01*
X136183598Y-99006747D01*
X136201777Y-99023223D01*
X136218253Y-99041402D01*
X136232867Y-99061107D01*
X136245480Y-99082151D01*
X136255970Y-99104329D01*
X136264235Y-99127429D01*
X136270196Y-99151227D01*
X136273796Y-99175496D01*
X136275000Y-99200000D01*
X136275000Y-99700000D01*
X136273796Y-99724504D01*
X136270196Y-99748773D01*
X136264235Y-99772571D01*
X136255970Y-99795671D01*
X136245480Y-99817849D01*
X136232867Y-99838893D01*
X136218253Y-99858598D01*
X136201777Y-99876777D01*
X136183598Y-99893253D01*
X136163893Y-99907867D01*
X136142849Y-99920480D01*
X136120671Y-99930970D01*
X136097571Y-99939235D01*
X136073773Y-99945196D01*
X136049504Y-99948796D01*
X136025000Y-99950000D01*
X134575000Y-99950000D01*
X134550496Y-99948796D01*
X134526227Y-99945196D01*
X134502429Y-99939235D01*
X134479329Y-99930970D01*
X134457151Y-99920480D01*
X134436107Y-99907867D01*
X134416402Y-99893253D01*
X134398223Y-99876777D01*
X134381747Y-99858598D01*
X134367133Y-99838893D01*
X134354520Y-99817849D01*
X134344030Y-99795671D01*
X134335765Y-99772571D01*
X134329804Y-99748773D01*
X134326204Y-99724504D01*
X134325000Y-99700000D01*
X134325000Y-99200000D01*
X134326204Y-99175496D01*
X134329804Y-99151227D01*
X134335765Y-99127429D01*
X134344030Y-99104329D01*
X134354520Y-99082151D01*
X134367133Y-99061107D01*
X134381747Y-99041402D01*
X134398223Y-99023223D01*
X134416402Y-99006747D01*
X134436107Y-98992133D01*
X134457151Y-98979520D01*
X134479329Y-98969030D01*
X134502429Y-98960765D01*
X134526227Y-98954804D01*
X134550496Y-98951204D01*
X134575000Y-98950000D01*
X136025000Y-98950000D01*
X136049504Y-98951204D01*
G37*
G36*
X136049504Y-97951204D02*
G01*
X136073773Y-97954804D01*
X136097571Y-97960765D01*
X136120671Y-97969030D01*
X136142849Y-97979520D01*
X136163893Y-97992133D01*
X136183598Y-98006747D01*
X136201777Y-98023223D01*
X136218253Y-98041402D01*
X136232867Y-98061107D01*
X136245480Y-98082151D01*
X136255970Y-98104329D01*
X136264235Y-98127429D01*
X136270196Y-98151227D01*
X136273796Y-98175496D01*
X136275000Y-98200000D01*
X136275000Y-98700000D01*
X136273796Y-98724504D01*
X136270196Y-98748773D01*
X136264235Y-98772571D01*
X136255970Y-98795671D01*
X136245480Y-98817849D01*
X136232867Y-98838893D01*
X136218253Y-98858598D01*
X136201777Y-98876777D01*
X136183598Y-98893253D01*
X136163893Y-98907867D01*
X136142849Y-98920480D01*
X136120671Y-98930970D01*
X136097571Y-98939235D01*
X136073773Y-98945196D01*
X136049504Y-98948796D01*
X136025000Y-98950000D01*
X134575000Y-98950000D01*
X134550496Y-98948796D01*
X134526227Y-98945196D01*
X134502429Y-98939235D01*
X134479329Y-98930970D01*
X134457151Y-98920480D01*
X134436107Y-98907867D01*
X134416402Y-98893253D01*
X134398223Y-98876777D01*
X134381747Y-98858598D01*
X134367133Y-98838893D01*
X134354520Y-98817849D01*
X134344030Y-98795671D01*
X134335765Y-98772571D01*
X134329804Y-98748773D01*
X134326204Y-98724504D01*
X134325000Y-98700000D01*
X134325000Y-98200000D01*
X134326204Y-98175496D01*
X134329804Y-98151227D01*
X134335765Y-98127429D01*
X134344030Y-98104329D01*
X134354520Y-98082151D01*
X134367133Y-98061107D01*
X134381747Y-98041402D01*
X134398223Y-98023223D01*
X134416402Y-98006747D01*
X134436107Y-97992133D01*
X134457151Y-97979520D01*
X134479329Y-97969030D01*
X134502429Y-97960765D01*
X134526227Y-97954804D01*
X134550496Y-97951204D01*
X134575000Y-97950000D01*
X136025000Y-97950000D01*
X136049504Y-97951204D01*
G37*
G36*
X136049504Y-96951204D02*
G01*
X136073773Y-96954804D01*
X136097571Y-96960765D01*
X136120671Y-96969030D01*
X136142849Y-96979520D01*
X136163893Y-96992133D01*
X136183598Y-97006747D01*
X136201777Y-97023223D01*
X136218253Y-97041402D01*
X136232867Y-97061107D01*
X136245480Y-97082151D01*
X136255970Y-97104329D01*
X136264235Y-97127429D01*
X136270196Y-97151227D01*
X136273796Y-97175496D01*
X136275000Y-97200000D01*
X136275000Y-97700000D01*
X136273796Y-97724504D01*
X136270196Y-97748773D01*
X136264235Y-97772571D01*
X136255970Y-97795671D01*
X136245480Y-97817849D01*
X136232867Y-97838893D01*
X136218253Y-97858598D01*
X136201777Y-97876777D01*
X136183598Y-97893253D01*
X136163893Y-97907867D01*
X136142849Y-97920480D01*
X136120671Y-97930970D01*
X136097571Y-97939235D01*
X136073773Y-97945196D01*
X136049504Y-97948796D01*
X136025000Y-97950000D01*
X134575000Y-97950000D01*
X134550496Y-97948796D01*
X134526227Y-97945196D01*
X134502429Y-97939235D01*
X134479329Y-97930970D01*
X134457151Y-97920480D01*
X134436107Y-97907867D01*
X134416402Y-97893253D01*
X134398223Y-97876777D01*
X134381747Y-97858598D01*
X134367133Y-97838893D01*
X134354520Y-97817849D01*
X134344030Y-97795671D01*
X134335765Y-97772571D01*
X134329804Y-97748773D01*
X134326204Y-97724504D01*
X134325000Y-97700000D01*
X134325000Y-97200000D01*
X134326204Y-97175496D01*
X134329804Y-97151227D01*
X134335765Y-97127429D01*
X134344030Y-97104329D01*
X134354520Y-97082151D01*
X134367133Y-97061107D01*
X134381747Y-97041402D01*
X134398223Y-97023223D01*
X134416402Y-97006747D01*
X134436107Y-96992133D01*
X134457151Y-96979520D01*
X134479329Y-96969030D01*
X134502429Y-96960765D01*
X134526227Y-96954804D01*
X134550496Y-96951204D01*
X134575000Y-96950000D01*
X136025000Y-96950000D01*
X136049504Y-96951204D01*
G37*
G36*
X132224340Y-110251605D02*
G01*
X132256698Y-110256405D01*
X132288429Y-110264353D01*
X132319229Y-110275373D01*
X132348800Y-110289359D01*
X132376857Y-110306177D01*
X132403132Y-110325663D01*
X132427369Y-110347631D01*
X132449337Y-110371868D01*
X132468823Y-110398143D01*
X132485641Y-110426200D01*
X132499627Y-110455771D01*
X132510647Y-110486571D01*
X132518595Y-110518302D01*
X132523395Y-110550660D01*
X132525000Y-110583332D01*
X132525000Y-111516668D01*
X132523395Y-111549340D01*
X132518595Y-111581698D01*
X132510647Y-111613429D01*
X132499627Y-111644229D01*
X132485641Y-111673800D01*
X132468823Y-111701857D01*
X132449337Y-111728132D01*
X132427369Y-111752369D01*
X132403132Y-111774337D01*
X132376857Y-111793823D01*
X132348800Y-111810641D01*
X132319229Y-111824627D01*
X132288429Y-111835647D01*
X132256698Y-111843595D01*
X132224340Y-111848395D01*
X132191668Y-111850000D01*
X130658332Y-111850000D01*
X130625660Y-111848395D01*
X130593302Y-111843595D01*
X130561571Y-111835647D01*
X130530771Y-111824627D01*
X130501200Y-111810641D01*
X130473143Y-111793823D01*
X130446868Y-111774337D01*
X130422631Y-111752369D01*
X130400663Y-111728132D01*
X130381177Y-111701857D01*
X130364359Y-111673800D01*
X130350373Y-111644229D01*
X130339353Y-111613429D01*
X130331405Y-111581698D01*
X130326605Y-111549340D01*
X130325000Y-111516668D01*
X130325000Y-110583332D01*
X130326605Y-110550660D01*
X130331405Y-110518302D01*
X130339353Y-110486571D01*
X130350373Y-110455771D01*
X130364359Y-110426200D01*
X130381177Y-110398143D01*
X130400663Y-110371868D01*
X130422631Y-110347631D01*
X130446868Y-110325663D01*
X130473143Y-110306177D01*
X130501200Y-110289359D01*
X130530771Y-110275373D01*
X130561571Y-110264353D01*
X130593302Y-110256405D01*
X130625660Y-110251605D01*
X130658332Y-110250000D01*
X132191668Y-110250000D01*
X132224340Y-110251605D01*
G37*
G36*
X132224340Y-104651605D02*
G01*
X132256698Y-104656405D01*
X132288429Y-104664353D01*
X132319229Y-104675373D01*
X132348800Y-104689359D01*
X132376857Y-104706177D01*
X132403132Y-104725663D01*
X132427369Y-104747631D01*
X132449337Y-104771868D01*
X132468823Y-104798143D01*
X132485641Y-104826200D01*
X132499627Y-104855771D01*
X132510647Y-104886571D01*
X132518595Y-104918302D01*
X132523395Y-104950660D01*
X132525000Y-104983332D01*
X132525000Y-105916668D01*
X132523395Y-105949340D01*
X132518595Y-105981698D01*
X132510647Y-106013429D01*
X132499627Y-106044229D01*
X132485641Y-106073800D01*
X132468823Y-106101857D01*
X132449337Y-106128132D01*
X132427369Y-106152369D01*
X132403132Y-106174337D01*
X132376857Y-106193823D01*
X132348800Y-106210641D01*
X132319229Y-106224627D01*
X132288429Y-106235647D01*
X132256698Y-106243595D01*
X132224340Y-106248395D01*
X132191668Y-106250000D01*
X130658332Y-106250000D01*
X130625660Y-106248395D01*
X130593302Y-106243595D01*
X130561571Y-106235647D01*
X130530771Y-106224627D01*
X130501200Y-106210641D01*
X130473143Y-106193823D01*
X130446868Y-106174337D01*
X130422631Y-106152369D01*
X130400663Y-106128132D01*
X130381177Y-106101857D01*
X130364359Y-106073800D01*
X130350373Y-106044229D01*
X130339353Y-106013429D01*
X130331405Y-105981698D01*
X130326605Y-105949340D01*
X130325000Y-105916668D01*
X130325000Y-104983332D01*
X130326605Y-104950660D01*
X130331405Y-104918302D01*
X130339353Y-104886571D01*
X130350373Y-104855771D01*
X130364359Y-104826200D01*
X130381177Y-104798143D01*
X130400663Y-104771868D01*
X130422631Y-104747631D01*
X130446868Y-104725663D01*
X130473143Y-104706177D01*
X130501200Y-104689359D01*
X130530771Y-104675373D01*
X130561571Y-104664353D01*
X130593302Y-104656405D01*
X130625660Y-104651605D01*
X130658332Y-104650000D01*
X132191668Y-104650000D01*
X132224340Y-104651605D01*
G37*
G36*
X136049504Y-109251204D02*
G01*
X136073773Y-109254804D01*
X136097571Y-109260765D01*
X136120671Y-109269030D01*
X136142849Y-109279520D01*
X136163893Y-109292133D01*
X136183598Y-109306747D01*
X136201777Y-109323223D01*
X136218253Y-109341402D01*
X136232867Y-109361107D01*
X136245480Y-109382151D01*
X136255970Y-109404329D01*
X136264235Y-109427429D01*
X136270196Y-109451227D01*
X136273796Y-109475496D01*
X136275000Y-109500000D01*
X136275000Y-110000000D01*
X136273796Y-110024504D01*
X136270196Y-110048773D01*
X136264235Y-110072571D01*
X136255970Y-110095671D01*
X136245480Y-110117849D01*
X136232867Y-110138893D01*
X136218253Y-110158598D01*
X136201777Y-110176777D01*
X136183598Y-110193253D01*
X136163893Y-110207867D01*
X136142849Y-110220480D01*
X136120671Y-110230970D01*
X136097571Y-110239235D01*
X136073773Y-110245196D01*
X136049504Y-110248796D01*
X136025000Y-110250000D01*
X134575000Y-110250000D01*
X134550496Y-110248796D01*
X134526227Y-110245196D01*
X134502429Y-110239235D01*
X134479329Y-110230970D01*
X134457151Y-110220480D01*
X134436107Y-110207867D01*
X134416402Y-110193253D01*
X134398223Y-110176777D01*
X134381747Y-110158598D01*
X134367133Y-110138893D01*
X134354520Y-110117849D01*
X134344030Y-110095671D01*
X134335765Y-110072571D01*
X134329804Y-110048773D01*
X134326204Y-110024504D01*
X134325000Y-110000000D01*
X134325000Y-109500000D01*
X134326204Y-109475496D01*
X134329804Y-109451227D01*
X134335765Y-109427429D01*
X134344030Y-109404329D01*
X134354520Y-109382151D01*
X134367133Y-109361107D01*
X134381747Y-109341402D01*
X134398223Y-109323223D01*
X134416402Y-109306747D01*
X134436107Y-109292133D01*
X134457151Y-109279520D01*
X134479329Y-109269030D01*
X134502429Y-109260765D01*
X134526227Y-109254804D01*
X134550496Y-109251204D01*
X134575000Y-109250000D01*
X136025000Y-109250000D01*
X136049504Y-109251204D01*
G37*
G36*
X136049504Y-108251204D02*
G01*
X136073773Y-108254804D01*
X136097571Y-108260765D01*
X136120671Y-108269030D01*
X136142849Y-108279520D01*
X136163893Y-108292133D01*
X136183598Y-108306747D01*
X136201777Y-108323223D01*
X136218253Y-108341402D01*
X136232867Y-108361107D01*
X136245480Y-108382151D01*
X136255970Y-108404329D01*
X136264235Y-108427429D01*
X136270196Y-108451227D01*
X136273796Y-108475496D01*
X136275000Y-108500000D01*
X136275000Y-109000000D01*
X136273796Y-109024504D01*
X136270196Y-109048773D01*
X136264235Y-109072571D01*
X136255970Y-109095671D01*
X136245480Y-109117849D01*
X136232867Y-109138893D01*
X136218253Y-109158598D01*
X136201777Y-109176777D01*
X136183598Y-109193253D01*
X136163893Y-109207867D01*
X136142849Y-109220480D01*
X136120671Y-109230970D01*
X136097571Y-109239235D01*
X136073773Y-109245196D01*
X136049504Y-109248796D01*
X136025000Y-109250000D01*
X134575000Y-109250000D01*
X134550496Y-109248796D01*
X134526227Y-109245196D01*
X134502429Y-109239235D01*
X134479329Y-109230970D01*
X134457151Y-109220480D01*
X134436107Y-109207867D01*
X134416402Y-109193253D01*
X134398223Y-109176777D01*
X134381747Y-109158598D01*
X134367133Y-109138893D01*
X134354520Y-109117849D01*
X134344030Y-109095671D01*
X134335765Y-109072571D01*
X134329804Y-109048773D01*
X134326204Y-109024504D01*
X134325000Y-109000000D01*
X134325000Y-108500000D01*
X134326204Y-108475496D01*
X134329804Y-108451227D01*
X134335765Y-108427429D01*
X134344030Y-108404329D01*
X134354520Y-108382151D01*
X134367133Y-108361107D01*
X134381747Y-108341402D01*
X134398223Y-108323223D01*
X134416402Y-108306747D01*
X134436107Y-108292133D01*
X134457151Y-108279520D01*
X134479329Y-108269030D01*
X134502429Y-108260765D01*
X134526227Y-108254804D01*
X134550496Y-108251204D01*
X134575000Y-108250000D01*
X136025000Y-108250000D01*
X136049504Y-108251204D01*
G37*
G36*
X136049504Y-107251204D02*
G01*
X136073773Y-107254804D01*
X136097571Y-107260765D01*
X136120671Y-107269030D01*
X136142849Y-107279520D01*
X136163893Y-107292133D01*
X136183598Y-107306747D01*
X136201777Y-107323223D01*
X136218253Y-107341402D01*
X136232867Y-107361107D01*
X136245480Y-107382151D01*
X136255970Y-107404329D01*
X136264235Y-107427429D01*
X136270196Y-107451227D01*
X136273796Y-107475496D01*
X136275000Y-107500000D01*
X136275000Y-108000000D01*
X136273796Y-108024504D01*
X136270196Y-108048773D01*
X136264235Y-108072571D01*
X136255970Y-108095671D01*
X136245480Y-108117849D01*
X136232867Y-108138893D01*
X136218253Y-108158598D01*
X136201777Y-108176777D01*
X136183598Y-108193253D01*
X136163893Y-108207867D01*
X136142849Y-108220480D01*
X136120671Y-108230970D01*
X136097571Y-108239235D01*
X136073773Y-108245196D01*
X136049504Y-108248796D01*
X136025000Y-108250000D01*
X134575000Y-108250000D01*
X134550496Y-108248796D01*
X134526227Y-108245196D01*
X134502429Y-108239235D01*
X134479329Y-108230970D01*
X134457151Y-108220480D01*
X134436107Y-108207867D01*
X134416402Y-108193253D01*
X134398223Y-108176777D01*
X134381747Y-108158598D01*
X134367133Y-108138893D01*
X134354520Y-108117849D01*
X134344030Y-108095671D01*
X134335765Y-108072571D01*
X134329804Y-108048773D01*
X134326204Y-108024504D01*
X134325000Y-108000000D01*
X134325000Y-107500000D01*
X134326204Y-107475496D01*
X134329804Y-107451227D01*
X134335765Y-107427429D01*
X134344030Y-107404329D01*
X134354520Y-107382151D01*
X134367133Y-107361107D01*
X134381747Y-107341402D01*
X134398223Y-107323223D01*
X134416402Y-107306747D01*
X134436107Y-107292133D01*
X134457151Y-107279520D01*
X134479329Y-107269030D01*
X134502429Y-107260765D01*
X134526227Y-107254804D01*
X134550496Y-107251204D01*
X134575000Y-107250000D01*
X136025000Y-107250000D01*
X136049504Y-107251204D01*
G37*
G36*
X136049504Y-106251204D02*
G01*
X136073773Y-106254804D01*
X136097571Y-106260765D01*
X136120671Y-106269030D01*
X136142849Y-106279520D01*
X136163893Y-106292133D01*
X136183598Y-106306747D01*
X136201777Y-106323223D01*
X136218253Y-106341402D01*
X136232867Y-106361107D01*
X136245480Y-106382151D01*
X136255970Y-106404329D01*
X136264235Y-106427429D01*
X136270196Y-106451227D01*
X136273796Y-106475496D01*
X136275000Y-106500000D01*
X136275000Y-107000000D01*
X136273796Y-107024504D01*
X136270196Y-107048773D01*
X136264235Y-107072571D01*
X136255970Y-107095671D01*
X136245480Y-107117849D01*
X136232867Y-107138893D01*
X136218253Y-107158598D01*
X136201777Y-107176777D01*
X136183598Y-107193253D01*
X136163893Y-107207867D01*
X136142849Y-107220480D01*
X136120671Y-107230970D01*
X136097571Y-107239235D01*
X136073773Y-107245196D01*
X136049504Y-107248796D01*
X136025000Y-107250000D01*
X134575000Y-107250000D01*
X134550496Y-107248796D01*
X134526227Y-107245196D01*
X134502429Y-107239235D01*
X134479329Y-107230970D01*
X134457151Y-107220480D01*
X134436107Y-107207867D01*
X134416402Y-107193253D01*
X134398223Y-107176777D01*
X134381747Y-107158598D01*
X134367133Y-107138893D01*
X134354520Y-107117849D01*
X134344030Y-107095671D01*
X134335765Y-107072571D01*
X134329804Y-107048773D01*
X134326204Y-107024504D01*
X134325000Y-107000000D01*
X134325000Y-106500000D01*
X134326204Y-106475496D01*
X134329804Y-106451227D01*
X134335765Y-106427429D01*
X134344030Y-106404329D01*
X134354520Y-106382151D01*
X134367133Y-106361107D01*
X134381747Y-106341402D01*
X134398223Y-106323223D01*
X134416402Y-106306747D01*
X134436107Y-106292133D01*
X134457151Y-106279520D01*
X134479329Y-106269030D01*
X134502429Y-106260765D01*
X134526227Y-106254804D01*
X134550496Y-106251204D01*
X134575000Y-106250000D01*
X136025000Y-106250000D01*
X136049504Y-106251204D01*
G37*
G36*
X174424340Y-92781605D02*
G01*
X174456698Y-92786405D01*
X174488429Y-92794353D01*
X174519229Y-92805373D01*
X174548800Y-92819359D01*
X174576857Y-92836177D01*
X174603132Y-92855663D01*
X174627369Y-92877631D01*
X174649337Y-92901868D01*
X174668823Y-92928143D01*
X174685641Y-92956200D01*
X174699627Y-92985771D01*
X174710647Y-93016571D01*
X174718595Y-93048302D01*
X174723395Y-93080660D01*
X174725000Y-93113332D01*
X174725000Y-94046668D01*
X174723395Y-94079340D01*
X174718595Y-94111698D01*
X174710647Y-94143429D01*
X174699627Y-94174229D01*
X174685641Y-94203800D01*
X174668823Y-94231857D01*
X174649337Y-94258132D01*
X174627369Y-94282369D01*
X174603132Y-94304337D01*
X174576857Y-94323823D01*
X174548800Y-94340641D01*
X174519229Y-94354627D01*
X174488429Y-94365647D01*
X174456698Y-94373595D01*
X174424340Y-94378395D01*
X174391668Y-94380000D01*
X172858332Y-94380000D01*
X172825660Y-94378395D01*
X172793302Y-94373595D01*
X172761571Y-94365647D01*
X172730771Y-94354627D01*
X172701200Y-94340641D01*
X172673143Y-94323823D01*
X172646868Y-94304337D01*
X172622631Y-94282369D01*
X172600663Y-94258132D01*
X172581177Y-94231857D01*
X172564359Y-94203800D01*
X172550373Y-94174229D01*
X172539353Y-94143429D01*
X172531405Y-94111698D01*
X172526605Y-94079340D01*
X172525000Y-94046668D01*
X172525000Y-93113332D01*
X172526605Y-93080660D01*
X172531405Y-93048302D01*
X172539353Y-93016571D01*
X172550373Y-92985771D01*
X172564359Y-92956200D01*
X172581177Y-92928143D01*
X172600663Y-92901868D01*
X172622631Y-92877631D01*
X172646868Y-92855663D01*
X172673143Y-92836177D01*
X172701200Y-92819359D01*
X172730771Y-92805373D01*
X172761571Y-92794353D01*
X172793302Y-92786405D01*
X172825660Y-92781605D01*
X172858332Y-92780000D01*
X174391668Y-92780000D01*
X174424340Y-92781605D01*
G37*
G36*
X174424340Y-98381605D02*
G01*
X174456698Y-98386405D01*
X174488429Y-98394353D01*
X174519229Y-98405373D01*
X174548800Y-98419359D01*
X174576857Y-98436177D01*
X174603132Y-98455663D01*
X174627369Y-98477631D01*
X174649337Y-98501868D01*
X174668823Y-98528143D01*
X174685641Y-98556200D01*
X174699627Y-98585771D01*
X174710647Y-98616571D01*
X174718595Y-98648302D01*
X174723395Y-98680660D01*
X174725000Y-98713332D01*
X174725000Y-99646668D01*
X174723395Y-99679340D01*
X174718595Y-99711698D01*
X174710647Y-99743429D01*
X174699627Y-99774229D01*
X174685641Y-99803800D01*
X174668823Y-99831857D01*
X174649337Y-99858132D01*
X174627369Y-99882369D01*
X174603132Y-99904337D01*
X174576857Y-99923823D01*
X174548800Y-99940641D01*
X174519229Y-99954627D01*
X174488429Y-99965647D01*
X174456698Y-99973595D01*
X174424340Y-99978395D01*
X174391668Y-99980000D01*
X172858332Y-99980000D01*
X172825660Y-99978395D01*
X172793302Y-99973595D01*
X172761571Y-99965647D01*
X172730771Y-99954627D01*
X172701200Y-99940641D01*
X172673143Y-99923823D01*
X172646868Y-99904337D01*
X172622631Y-99882369D01*
X172600663Y-99858132D01*
X172581177Y-99831857D01*
X172564359Y-99803800D01*
X172550373Y-99774229D01*
X172539353Y-99743429D01*
X172531405Y-99711698D01*
X172526605Y-99679340D01*
X172525000Y-99646668D01*
X172525000Y-98713332D01*
X172526605Y-98680660D01*
X172531405Y-98648302D01*
X172539353Y-98616571D01*
X172550373Y-98585771D01*
X172564359Y-98556200D01*
X172581177Y-98528143D01*
X172600663Y-98501868D01*
X172622631Y-98477631D01*
X172646868Y-98455663D01*
X172673143Y-98436177D01*
X172701200Y-98419359D01*
X172730771Y-98405373D01*
X172761571Y-98394353D01*
X172793302Y-98386405D01*
X172825660Y-98381605D01*
X172858332Y-98380000D01*
X174391668Y-98380000D01*
X174424340Y-98381605D01*
G37*
G36*
X170499504Y-94381204D02*
G01*
X170523773Y-94384804D01*
X170547571Y-94390765D01*
X170570671Y-94399030D01*
X170592849Y-94409520D01*
X170613893Y-94422133D01*
X170633598Y-94436747D01*
X170651777Y-94453223D01*
X170668253Y-94471402D01*
X170682867Y-94491107D01*
X170695480Y-94512151D01*
X170705970Y-94534329D01*
X170714235Y-94557429D01*
X170720196Y-94581227D01*
X170723796Y-94605496D01*
X170725000Y-94630000D01*
X170725000Y-95130000D01*
X170723796Y-95154504D01*
X170720196Y-95178773D01*
X170714235Y-95202571D01*
X170705970Y-95225671D01*
X170695480Y-95247849D01*
X170682867Y-95268893D01*
X170668253Y-95288598D01*
X170651777Y-95306777D01*
X170633598Y-95323253D01*
X170613893Y-95337867D01*
X170592849Y-95350480D01*
X170570671Y-95360970D01*
X170547571Y-95369235D01*
X170523773Y-95375196D01*
X170499504Y-95378796D01*
X170475000Y-95380000D01*
X169025000Y-95380000D01*
X169000496Y-95378796D01*
X168976227Y-95375196D01*
X168952429Y-95369235D01*
X168929329Y-95360970D01*
X168907151Y-95350480D01*
X168886107Y-95337867D01*
X168866402Y-95323253D01*
X168848223Y-95306777D01*
X168831747Y-95288598D01*
X168817133Y-95268893D01*
X168804520Y-95247849D01*
X168794030Y-95225671D01*
X168785765Y-95202571D01*
X168779804Y-95178773D01*
X168776204Y-95154504D01*
X168775000Y-95130000D01*
X168775000Y-94630000D01*
X168776204Y-94605496D01*
X168779804Y-94581227D01*
X168785765Y-94557429D01*
X168794030Y-94534329D01*
X168804520Y-94512151D01*
X168817133Y-94491107D01*
X168831747Y-94471402D01*
X168848223Y-94453223D01*
X168866402Y-94436747D01*
X168886107Y-94422133D01*
X168907151Y-94409520D01*
X168929329Y-94399030D01*
X168952429Y-94390765D01*
X168976227Y-94384804D01*
X169000496Y-94381204D01*
X169025000Y-94380000D01*
X170475000Y-94380000D01*
X170499504Y-94381204D01*
G37*
G36*
X170499504Y-95381204D02*
G01*
X170523773Y-95384804D01*
X170547571Y-95390765D01*
X170570671Y-95399030D01*
X170592849Y-95409520D01*
X170613893Y-95422133D01*
X170633598Y-95436747D01*
X170651777Y-95453223D01*
X170668253Y-95471402D01*
X170682867Y-95491107D01*
X170695480Y-95512151D01*
X170705970Y-95534329D01*
X170714235Y-95557429D01*
X170720196Y-95581227D01*
X170723796Y-95605496D01*
X170725000Y-95630000D01*
X170725000Y-96130000D01*
X170723796Y-96154504D01*
X170720196Y-96178773D01*
X170714235Y-96202571D01*
X170705970Y-96225671D01*
X170695480Y-96247849D01*
X170682867Y-96268893D01*
X170668253Y-96288598D01*
X170651777Y-96306777D01*
X170633598Y-96323253D01*
X170613893Y-96337867D01*
X170592849Y-96350480D01*
X170570671Y-96360970D01*
X170547571Y-96369235D01*
X170523773Y-96375196D01*
X170499504Y-96378796D01*
X170475000Y-96380000D01*
X169025000Y-96380000D01*
X169000496Y-96378796D01*
X168976227Y-96375196D01*
X168952429Y-96369235D01*
X168929329Y-96360970D01*
X168907151Y-96350480D01*
X168886107Y-96337867D01*
X168866402Y-96323253D01*
X168848223Y-96306777D01*
X168831747Y-96288598D01*
X168817133Y-96268893D01*
X168804520Y-96247849D01*
X168794030Y-96225671D01*
X168785765Y-96202571D01*
X168779804Y-96178773D01*
X168776204Y-96154504D01*
X168775000Y-96130000D01*
X168775000Y-95630000D01*
X168776204Y-95605496D01*
X168779804Y-95581227D01*
X168785765Y-95557429D01*
X168794030Y-95534329D01*
X168804520Y-95512151D01*
X168817133Y-95491107D01*
X168831747Y-95471402D01*
X168848223Y-95453223D01*
X168866402Y-95436747D01*
X168886107Y-95422133D01*
X168907151Y-95409520D01*
X168929329Y-95399030D01*
X168952429Y-95390765D01*
X168976227Y-95384804D01*
X169000496Y-95381204D01*
X169025000Y-95380000D01*
X170475000Y-95380000D01*
X170499504Y-95381204D01*
G37*
G36*
X170499504Y-96381204D02*
G01*
X170523773Y-96384804D01*
X170547571Y-96390765D01*
X170570671Y-96399030D01*
X170592849Y-96409520D01*
X170613893Y-96422133D01*
X170633598Y-96436747D01*
X170651777Y-96453223D01*
X170668253Y-96471402D01*
X170682867Y-96491107D01*
X170695480Y-96512151D01*
X170705970Y-96534329D01*
X170714235Y-96557429D01*
X170720196Y-96581227D01*
X170723796Y-96605496D01*
X170725000Y-96630000D01*
X170725000Y-97130000D01*
X170723796Y-97154504D01*
X170720196Y-97178773D01*
X170714235Y-97202571D01*
X170705970Y-97225671D01*
X170695480Y-97247849D01*
X170682867Y-97268893D01*
X170668253Y-97288598D01*
X170651777Y-97306777D01*
X170633598Y-97323253D01*
X170613893Y-97337867D01*
X170592849Y-97350480D01*
X170570671Y-97360970D01*
X170547571Y-97369235D01*
X170523773Y-97375196D01*
X170499504Y-97378796D01*
X170475000Y-97380000D01*
X169025000Y-97380000D01*
X169000496Y-97378796D01*
X168976227Y-97375196D01*
X168952429Y-97369235D01*
X168929329Y-97360970D01*
X168907151Y-97350480D01*
X168886107Y-97337867D01*
X168866402Y-97323253D01*
X168848223Y-97306777D01*
X168831747Y-97288598D01*
X168817133Y-97268893D01*
X168804520Y-97247849D01*
X168794030Y-97225671D01*
X168785765Y-97202571D01*
X168779804Y-97178773D01*
X168776204Y-97154504D01*
X168775000Y-97130000D01*
X168775000Y-96630000D01*
X168776204Y-96605496D01*
X168779804Y-96581227D01*
X168785765Y-96557429D01*
X168794030Y-96534329D01*
X168804520Y-96512151D01*
X168817133Y-96491107D01*
X168831747Y-96471402D01*
X168848223Y-96453223D01*
X168866402Y-96436747D01*
X168886107Y-96422133D01*
X168907151Y-96409520D01*
X168929329Y-96399030D01*
X168952429Y-96390765D01*
X168976227Y-96384804D01*
X169000496Y-96381204D01*
X169025000Y-96380000D01*
X170475000Y-96380000D01*
X170499504Y-96381204D01*
G37*
G36*
X170499504Y-97381204D02*
G01*
X170523773Y-97384804D01*
X170547571Y-97390765D01*
X170570671Y-97399030D01*
X170592849Y-97409520D01*
X170613893Y-97422133D01*
X170633598Y-97436747D01*
X170651777Y-97453223D01*
X170668253Y-97471402D01*
X170682867Y-97491107D01*
X170695480Y-97512151D01*
X170705970Y-97534329D01*
X170714235Y-97557429D01*
X170720196Y-97581227D01*
X170723796Y-97605496D01*
X170725000Y-97630000D01*
X170725000Y-98130000D01*
X170723796Y-98154504D01*
X170720196Y-98178773D01*
X170714235Y-98202571D01*
X170705970Y-98225671D01*
X170695480Y-98247849D01*
X170682867Y-98268893D01*
X170668253Y-98288598D01*
X170651777Y-98306777D01*
X170633598Y-98323253D01*
X170613893Y-98337867D01*
X170592849Y-98350480D01*
X170570671Y-98360970D01*
X170547571Y-98369235D01*
X170523773Y-98375196D01*
X170499504Y-98378796D01*
X170475000Y-98380000D01*
X169025000Y-98380000D01*
X169000496Y-98378796D01*
X168976227Y-98375196D01*
X168952429Y-98369235D01*
X168929329Y-98360970D01*
X168907151Y-98350480D01*
X168886107Y-98337867D01*
X168866402Y-98323253D01*
X168848223Y-98306777D01*
X168831747Y-98288598D01*
X168817133Y-98268893D01*
X168804520Y-98247849D01*
X168794030Y-98225671D01*
X168785765Y-98202571D01*
X168779804Y-98178773D01*
X168776204Y-98154504D01*
X168775000Y-98130000D01*
X168775000Y-97630000D01*
X168776204Y-97605496D01*
X168779804Y-97581227D01*
X168785765Y-97557429D01*
X168794030Y-97534329D01*
X168804520Y-97512151D01*
X168817133Y-97491107D01*
X168831747Y-97471402D01*
X168848223Y-97453223D01*
X168866402Y-97436747D01*
X168886107Y-97422133D01*
X168907151Y-97409520D01*
X168929329Y-97399030D01*
X168952429Y-97390765D01*
X168976227Y-97384804D01*
X169000496Y-97381204D01*
X169025000Y-97380000D01*
X170475000Y-97380000D01*
X170499504Y-97381204D01*
G37*
G36*
X174424340Y-84651605D02*
G01*
X174456698Y-84656405D01*
X174488429Y-84664353D01*
X174519229Y-84675373D01*
X174548800Y-84689359D01*
X174576857Y-84706177D01*
X174603132Y-84725663D01*
X174627369Y-84747631D01*
X174649337Y-84771868D01*
X174668823Y-84798143D01*
X174685641Y-84826200D01*
X174699627Y-84855771D01*
X174710647Y-84886571D01*
X174718595Y-84918302D01*
X174723395Y-84950660D01*
X174725000Y-84983332D01*
X174725000Y-85916668D01*
X174723395Y-85949340D01*
X174718595Y-85981698D01*
X174710647Y-86013429D01*
X174699627Y-86044229D01*
X174685641Y-86073800D01*
X174668823Y-86101857D01*
X174649337Y-86128132D01*
X174627369Y-86152369D01*
X174603132Y-86174337D01*
X174576857Y-86193823D01*
X174548800Y-86210641D01*
X174519229Y-86224627D01*
X174488429Y-86235647D01*
X174456698Y-86243595D01*
X174424340Y-86248395D01*
X174391668Y-86250000D01*
X172858332Y-86250000D01*
X172825660Y-86248395D01*
X172793302Y-86243595D01*
X172761571Y-86235647D01*
X172730771Y-86224627D01*
X172701200Y-86210641D01*
X172673143Y-86193823D01*
X172646868Y-86174337D01*
X172622631Y-86152369D01*
X172600663Y-86128132D01*
X172581177Y-86101857D01*
X172564359Y-86073800D01*
X172550373Y-86044229D01*
X172539353Y-86013429D01*
X172531405Y-85981698D01*
X172526605Y-85949340D01*
X172525000Y-85916668D01*
X172525000Y-84983332D01*
X172526605Y-84950660D01*
X172531405Y-84918302D01*
X172539353Y-84886571D01*
X172550373Y-84855771D01*
X172564359Y-84826200D01*
X172581177Y-84798143D01*
X172600663Y-84771868D01*
X172622631Y-84747631D01*
X172646868Y-84725663D01*
X172673143Y-84706177D01*
X172701200Y-84689359D01*
X172730771Y-84675373D01*
X172761571Y-84664353D01*
X172793302Y-84656405D01*
X172825660Y-84651605D01*
X172858332Y-84650000D01*
X174391668Y-84650000D01*
X174424340Y-84651605D01*
G37*
G36*
X174424340Y-90251605D02*
G01*
X174456698Y-90256405D01*
X174488429Y-90264353D01*
X174519229Y-90275373D01*
X174548800Y-90289359D01*
X174576857Y-90306177D01*
X174603132Y-90325663D01*
X174627369Y-90347631D01*
X174649337Y-90371868D01*
X174668823Y-90398143D01*
X174685641Y-90426200D01*
X174699627Y-90455771D01*
X174710647Y-90486571D01*
X174718595Y-90518302D01*
X174723395Y-90550660D01*
X174725000Y-90583332D01*
X174725000Y-91516668D01*
X174723395Y-91549340D01*
X174718595Y-91581698D01*
X174710647Y-91613429D01*
X174699627Y-91644229D01*
X174685641Y-91673800D01*
X174668823Y-91701857D01*
X174649337Y-91728132D01*
X174627369Y-91752369D01*
X174603132Y-91774337D01*
X174576857Y-91793823D01*
X174548800Y-91810641D01*
X174519229Y-91824627D01*
X174488429Y-91835647D01*
X174456698Y-91843595D01*
X174424340Y-91848395D01*
X174391668Y-91850000D01*
X172858332Y-91850000D01*
X172825660Y-91848395D01*
X172793302Y-91843595D01*
X172761571Y-91835647D01*
X172730771Y-91824627D01*
X172701200Y-91810641D01*
X172673143Y-91793823D01*
X172646868Y-91774337D01*
X172622631Y-91752369D01*
X172600663Y-91728132D01*
X172581177Y-91701857D01*
X172564359Y-91673800D01*
X172550373Y-91644229D01*
X172539353Y-91613429D01*
X172531405Y-91581698D01*
X172526605Y-91549340D01*
X172525000Y-91516668D01*
X172525000Y-90583332D01*
X172526605Y-90550660D01*
X172531405Y-90518302D01*
X172539353Y-90486571D01*
X172550373Y-90455771D01*
X172564359Y-90426200D01*
X172581177Y-90398143D01*
X172600663Y-90371868D01*
X172622631Y-90347631D01*
X172646868Y-90325663D01*
X172673143Y-90306177D01*
X172701200Y-90289359D01*
X172730771Y-90275373D01*
X172761571Y-90264353D01*
X172793302Y-90256405D01*
X172825660Y-90251605D01*
X172858332Y-90250000D01*
X174391668Y-90250000D01*
X174424340Y-90251605D01*
G37*
G36*
X170499504Y-86251204D02*
G01*
X170523773Y-86254804D01*
X170547571Y-86260765D01*
X170570671Y-86269030D01*
X170592849Y-86279520D01*
X170613893Y-86292133D01*
X170633598Y-86306747D01*
X170651777Y-86323223D01*
X170668253Y-86341402D01*
X170682867Y-86361107D01*
X170695480Y-86382151D01*
X170705970Y-86404329D01*
X170714235Y-86427429D01*
X170720196Y-86451227D01*
X170723796Y-86475496D01*
X170725000Y-86500000D01*
X170725000Y-87000000D01*
X170723796Y-87024504D01*
X170720196Y-87048773D01*
X170714235Y-87072571D01*
X170705970Y-87095671D01*
X170695480Y-87117849D01*
X170682867Y-87138893D01*
X170668253Y-87158598D01*
X170651777Y-87176777D01*
X170633598Y-87193253D01*
X170613893Y-87207867D01*
X170592849Y-87220480D01*
X170570671Y-87230970D01*
X170547571Y-87239235D01*
X170523773Y-87245196D01*
X170499504Y-87248796D01*
X170475000Y-87250000D01*
X169025000Y-87250000D01*
X169000496Y-87248796D01*
X168976227Y-87245196D01*
X168952429Y-87239235D01*
X168929329Y-87230970D01*
X168907151Y-87220480D01*
X168886107Y-87207867D01*
X168866402Y-87193253D01*
X168848223Y-87176777D01*
X168831747Y-87158598D01*
X168817133Y-87138893D01*
X168804520Y-87117849D01*
X168794030Y-87095671D01*
X168785765Y-87072571D01*
X168779804Y-87048773D01*
X168776204Y-87024504D01*
X168775000Y-87000000D01*
X168775000Y-86500000D01*
X168776204Y-86475496D01*
X168779804Y-86451227D01*
X168785765Y-86427429D01*
X168794030Y-86404329D01*
X168804520Y-86382151D01*
X168817133Y-86361107D01*
X168831747Y-86341402D01*
X168848223Y-86323223D01*
X168866402Y-86306747D01*
X168886107Y-86292133D01*
X168907151Y-86279520D01*
X168929329Y-86269030D01*
X168952429Y-86260765D01*
X168976227Y-86254804D01*
X169000496Y-86251204D01*
X169025000Y-86250000D01*
X170475000Y-86250000D01*
X170499504Y-86251204D01*
G37*
G36*
X170499504Y-87251204D02*
G01*
X170523773Y-87254804D01*
X170547571Y-87260765D01*
X170570671Y-87269030D01*
X170592849Y-87279520D01*
X170613893Y-87292133D01*
X170633598Y-87306747D01*
X170651777Y-87323223D01*
X170668253Y-87341402D01*
X170682867Y-87361107D01*
X170695480Y-87382151D01*
X170705970Y-87404329D01*
X170714235Y-87427429D01*
X170720196Y-87451227D01*
X170723796Y-87475496D01*
X170725000Y-87500000D01*
X170725000Y-88000000D01*
X170723796Y-88024504D01*
X170720196Y-88048773D01*
X170714235Y-88072571D01*
X170705970Y-88095671D01*
X170695480Y-88117849D01*
X170682867Y-88138893D01*
X170668253Y-88158598D01*
X170651777Y-88176777D01*
X170633598Y-88193253D01*
X170613893Y-88207867D01*
X170592849Y-88220480D01*
X170570671Y-88230970D01*
X170547571Y-88239235D01*
X170523773Y-88245196D01*
X170499504Y-88248796D01*
X170475000Y-88250000D01*
X169025000Y-88250000D01*
X169000496Y-88248796D01*
X168976227Y-88245196D01*
X168952429Y-88239235D01*
X168929329Y-88230970D01*
X168907151Y-88220480D01*
X168886107Y-88207867D01*
X168866402Y-88193253D01*
X168848223Y-88176777D01*
X168831747Y-88158598D01*
X168817133Y-88138893D01*
X168804520Y-88117849D01*
X168794030Y-88095671D01*
X168785765Y-88072571D01*
X168779804Y-88048773D01*
X168776204Y-88024504D01*
X168775000Y-88000000D01*
X168775000Y-87500000D01*
X168776204Y-87475496D01*
X168779804Y-87451227D01*
X168785765Y-87427429D01*
X168794030Y-87404329D01*
X168804520Y-87382151D01*
X168817133Y-87361107D01*
X168831747Y-87341402D01*
X168848223Y-87323223D01*
X168866402Y-87306747D01*
X168886107Y-87292133D01*
X168907151Y-87279520D01*
X168929329Y-87269030D01*
X168952429Y-87260765D01*
X168976227Y-87254804D01*
X169000496Y-87251204D01*
X169025000Y-87250000D01*
X170475000Y-87250000D01*
X170499504Y-87251204D01*
G37*
G36*
X170499504Y-88251204D02*
G01*
X170523773Y-88254804D01*
X170547571Y-88260765D01*
X170570671Y-88269030D01*
X170592849Y-88279520D01*
X170613893Y-88292133D01*
X170633598Y-88306747D01*
X170651777Y-88323223D01*
X170668253Y-88341402D01*
X170682867Y-88361107D01*
X170695480Y-88382151D01*
X170705970Y-88404329D01*
X170714235Y-88427429D01*
X170720196Y-88451227D01*
X170723796Y-88475496D01*
X170725000Y-88500000D01*
X170725000Y-89000000D01*
X170723796Y-89024504D01*
X170720196Y-89048773D01*
X170714235Y-89072571D01*
X170705970Y-89095671D01*
X170695480Y-89117849D01*
X170682867Y-89138893D01*
X170668253Y-89158598D01*
X170651777Y-89176777D01*
X170633598Y-89193253D01*
X170613893Y-89207867D01*
X170592849Y-89220480D01*
X170570671Y-89230970D01*
X170547571Y-89239235D01*
X170523773Y-89245196D01*
X170499504Y-89248796D01*
X170475000Y-89250000D01*
X169025000Y-89250000D01*
X169000496Y-89248796D01*
X168976227Y-89245196D01*
X168952429Y-89239235D01*
X168929329Y-89230970D01*
X168907151Y-89220480D01*
X168886107Y-89207867D01*
X168866402Y-89193253D01*
X168848223Y-89176777D01*
X168831747Y-89158598D01*
X168817133Y-89138893D01*
X168804520Y-89117849D01*
X168794030Y-89095671D01*
X168785765Y-89072571D01*
X168779804Y-89048773D01*
X168776204Y-89024504D01*
X168775000Y-89000000D01*
X168775000Y-88500000D01*
X168776204Y-88475496D01*
X168779804Y-88451227D01*
X168785765Y-88427429D01*
X168794030Y-88404329D01*
X168804520Y-88382151D01*
X168817133Y-88361107D01*
X168831747Y-88341402D01*
X168848223Y-88323223D01*
X168866402Y-88306747D01*
X168886107Y-88292133D01*
X168907151Y-88279520D01*
X168929329Y-88269030D01*
X168952429Y-88260765D01*
X168976227Y-88254804D01*
X169000496Y-88251204D01*
X169025000Y-88250000D01*
X170475000Y-88250000D01*
X170499504Y-88251204D01*
G37*
G36*
X170499504Y-89251204D02*
G01*
X170523773Y-89254804D01*
X170547571Y-89260765D01*
X170570671Y-89269030D01*
X170592849Y-89279520D01*
X170613893Y-89292133D01*
X170633598Y-89306747D01*
X170651777Y-89323223D01*
X170668253Y-89341402D01*
X170682867Y-89361107D01*
X170695480Y-89382151D01*
X170705970Y-89404329D01*
X170714235Y-89427429D01*
X170720196Y-89451227D01*
X170723796Y-89475496D01*
X170725000Y-89500000D01*
X170725000Y-90000000D01*
X170723796Y-90024504D01*
X170720196Y-90048773D01*
X170714235Y-90072571D01*
X170705970Y-90095671D01*
X170695480Y-90117849D01*
X170682867Y-90138893D01*
X170668253Y-90158598D01*
X170651777Y-90176777D01*
X170633598Y-90193253D01*
X170613893Y-90207867D01*
X170592849Y-90220480D01*
X170570671Y-90230970D01*
X170547571Y-90239235D01*
X170523773Y-90245196D01*
X170499504Y-90248796D01*
X170475000Y-90250000D01*
X169025000Y-90250000D01*
X169000496Y-90248796D01*
X168976227Y-90245196D01*
X168952429Y-90239235D01*
X168929329Y-90230970D01*
X168907151Y-90220480D01*
X168886107Y-90207867D01*
X168866402Y-90193253D01*
X168848223Y-90176777D01*
X168831747Y-90158598D01*
X168817133Y-90138893D01*
X168804520Y-90117849D01*
X168794030Y-90095671D01*
X168785765Y-90072571D01*
X168779804Y-90048773D01*
X168776204Y-90024504D01*
X168775000Y-90000000D01*
X168775000Y-89500000D01*
X168776204Y-89475496D01*
X168779804Y-89451227D01*
X168785765Y-89427429D01*
X168794030Y-89404329D01*
X168804520Y-89382151D01*
X168817133Y-89361107D01*
X168831747Y-89341402D01*
X168848223Y-89323223D01*
X168866402Y-89306747D01*
X168886107Y-89292133D01*
X168907151Y-89279520D01*
X168929329Y-89269030D01*
X168952429Y-89260765D01*
X168976227Y-89254804D01*
X169000496Y-89251204D01*
X169025000Y-89250000D01*
X170475000Y-89250000D01*
X170499504Y-89251204D01*
G37*
D11*
X150250000Y-85050000D03*
X152790000Y-85050000D03*
X155330000Y-85050000D03*
X157870000Y-85050000D03*
X160410000Y-85050000D03*
D12*
X162950000Y-85050000D03*
D10*
G36*
X155849340Y-75876605D02*
G01*
X155881698Y-75881405D01*
X155913429Y-75889353D01*
X155944229Y-75900373D01*
X155973800Y-75914359D01*
X156001857Y-75931177D01*
X156028132Y-75950663D01*
X156052369Y-75972631D01*
X156074337Y-75996868D01*
X156093823Y-76023143D01*
X156110641Y-76051200D01*
X156124627Y-76080771D01*
X156135647Y-76111571D01*
X156143595Y-76143302D01*
X156148395Y-76175660D01*
X156150000Y-76208332D01*
X156150000Y-77741668D01*
X156148395Y-77774340D01*
X156143595Y-77806698D01*
X156135647Y-77838429D01*
X156124627Y-77869229D01*
X156110641Y-77898800D01*
X156093823Y-77926857D01*
X156074337Y-77953132D01*
X156052369Y-77977369D01*
X156028132Y-77999337D01*
X156001857Y-78018823D01*
X155973800Y-78035641D01*
X155944229Y-78049627D01*
X155913429Y-78060647D01*
X155881698Y-78068595D01*
X155849340Y-78073395D01*
X155816668Y-78075000D01*
X154883332Y-78075000D01*
X154850660Y-78073395D01*
X154818302Y-78068595D01*
X154786571Y-78060647D01*
X154755771Y-78049627D01*
X154726200Y-78035641D01*
X154698143Y-78018823D01*
X154671868Y-77999337D01*
X154647631Y-77977369D01*
X154625663Y-77953132D01*
X154606177Y-77926857D01*
X154589359Y-77898800D01*
X154575373Y-77869229D01*
X154564353Y-77838429D01*
X154556405Y-77806698D01*
X154551605Y-77774340D01*
X154550000Y-77741668D01*
X154550000Y-76208332D01*
X154551605Y-76175660D01*
X154556405Y-76143302D01*
X154564353Y-76111571D01*
X154575373Y-76080771D01*
X154589359Y-76051200D01*
X154606177Y-76023143D01*
X154625663Y-75996868D01*
X154647631Y-75972631D01*
X154671868Y-75950663D01*
X154698143Y-75931177D01*
X154726200Y-75914359D01*
X154755771Y-75900373D01*
X154786571Y-75889353D01*
X154818302Y-75881405D01*
X154850660Y-75876605D01*
X154883332Y-75875000D01*
X155816668Y-75875000D01*
X155849340Y-75876605D01*
G37*
G36*
X163449340Y-75876605D02*
G01*
X163481698Y-75881405D01*
X163513429Y-75889353D01*
X163544229Y-75900373D01*
X163573800Y-75914359D01*
X163601857Y-75931177D01*
X163628132Y-75950663D01*
X163652369Y-75972631D01*
X163674337Y-75996868D01*
X163693823Y-76023143D01*
X163710641Y-76051200D01*
X163724627Y-76080771D01*
X163735647Y-76111571D01*
X163743595Y-76143302D01*
X163748395Y-76175660D01*
X163750000Y-76208332D01*
X163750000Y-77741668D01*
X163748395Y-77774340D01*
X163743595Y-77806698D01*
X163735647Y-77838429D01*
X163724627Y-77869229D01*
X163710641Y-77898800D01*
X163693823Y-77926857D01*
X163674337Y-77953132D01*
X163652369Y-77977369D01*
X163628132Y-77999337D01*
X163601857Y-78018823D01*
X163573800Y-78035641D01*
X163544229Y-78049627D01*
X163513429Y-78060647D01*
X163481698Y-78068595D01*
X163449340Y-78073395D01*
X163416668Y-78075000D01*
X162483332Y-78075000D01*
X162450660Y-78073395D01*
X162418302Y-78068595D01*
X162386571Y-78060647D01*
X162355771Y-78049627D01*
X162326200Y-78035641D01*
X162298143Y-78018823D01*
X162271868Y-77999337D01*
X162247631Y-77977369D01*
X162225663Y-77953132D01*
X162206177Y-77926857D01*
X162189359Y-77898800D01*
X162175373Y-77869229D01*
X162164353Y-77838429D01*
X162156405Y-77806698D01*
X162151605Y-77774340D01*
X162150000Y-77741668D01*
X162150000Y-76208332D01*
X162151605Y-76175660D01*
X162156405Y-76143302D01*
X162164353Y-76111571D01*
X162175373Y-76080771D01*
X162189359Y-76051200D01*
X162206177Y-76023143D01*
X162225663Y-75996868D01*
X162247631Y-75972631D01*
X162271868Y-75950663D01*
X162298143Y-75931177D01*
X162326200Y-75914359D01*
X162355771Y-75900373D01*
X162386571Y-75889353D01*
X162418302Y-75881405D01*
X162450660Y-75876605D01*
X162483332Y-75875000D01*
X163416668Y-75875000D01*
X163449340Y-75876605D01*
G37*
G36*
X156924504Y-79876204D02*
G01*
X156948773Y-79879804D01*
X156972571Y-79885765D01*
X156995671Y-79894030D01*
X157017849Y-79904520D01*
X157038893Y-79917133D01*
X157058598Y-79931747D01*
X157076777Y-79948223D01*
X157093253Y-79966402D01*
X157107867Y-79986107D01*
X157120480Y-80007151D01*
X157130970Y-80029329D01*
X157139235Y-80052429D01*
X157145196Y-80076227D01*
X157148796Y-80100496D01*
X157150000Y-80125000D01*
X157150000Y-81575000D01*
X157148796Y-81599504D01*
X157145196Y-81623773D01*
X157139235Y-81647571D01*
X157130970Y-81670671D01*
X157120480Y-81692849D01*
X157107867Y-81713893D01*
X157093253Y-81733598D01*
X157076777Y-81751777D01*
X157058598Y-81768253D01*
X157038893Y-81782867D01*
X157017849Y-81795480D01*
X156995671Y-81805970D01*
X156972571Y-81814235D01*
X156948773Y-81820196D01*
X156924504Y-81823796D01*
X156900000Y-81825000D01*
X156400000Y-81825000D01*
X156375496Y-81823796D01*
X156351227Y-81820196D01*
X156327429Y-81814235D01*
X156304329Y-81805970D01*
X156282151Y-81795480D01*
X156261107Y-81782867D01*
X156241402Y-81768253D01*
X156223223Y-81751777D01*
X156206747Y-81733598D01*
X156192133Y-81713893D01*
X156179520Y-81692849D01*
X156169030Y-81670671D01*
X156160765Y-81647571D01*
X156154804Y-81623773D01*
X156151204Y-81599504D01*
X156150000Y-81575000D01*
X156150000Y-80125000D01*
X156151204Y-80100496D01*
X156154804Y-80076227D01*
X156160765Y-80052429D01*
X156169030Y-80029329D01*
X156179520Y-80007151D01*
X156192133Y-79986107D01*
X156206747Y-79966402D01*
X156223223Y-79948223D01*
X156241402Y-79931747D01*
X156261107Y-79917133D01*
X156282151Y-79904520D01*
X156304329Y-79894030D01*
X156327429Y-79885765D01*
X156351227Y-79879804D01*
X156375496Y-79876204D01*
X156400000Y-79875000D01*
X156900000Y-79875000D01*
X156924504Y-79876204D01*
G37*
G36*
X157924504Y-79876204D02*
G01*
X157948773Y-79879804D01*
X157972571Y-79885765D01*
X157995671Y-79894030D01*
X158017849Y-79904520D01*
X158038893Y-79917133D01*
X158058598Y-79931747D01*
X158076777Y-79948223D01*
X158093253Y-79966402D01*
X158107867Y-79986107D01*
X158120480Y-80007151D01*
X158130970Y-80029329D01*
X158139235Y-80052429D01*
X158145196Y-80076227D01*
X158148796Y-80100496D01*
X158150000Y-80125000D01*
X158150000Y-81575000D01*
X158148796Y-81599504D01*
X158145196Y-81623773D01*
X158139235Y-81647571D01*
X158130970Y-81670671D01*
X158120480Y-81692849D01*
X158107867Y-81713893D01*
X158093253Y-81733598D01*
X158076777Y-81751777D01*
X158058598Y-81768253D01*
X158038893Y-81782867D01*
X158017849Y-81795480D01*
X157995671Y-81805970D01*
X157972571Y-81814235D01*
X157948773Y-81820196D01*
X157924504Y-81823796D01*
X157900000Y-81825000D01*
X157400000Y-81825000D01*
X157375496Y-81823796D01*
X157351227Y-81820196D01*
X157327429Y-81814235D01*
X157304329Y-81805970D01*
X157282151Y-81795480D01*
X157261107Y-81782867D01*
X157241402Y-81768253D01*
X157223223Y-81751777D01*
X157206747Y-81733598D01*
X157192133Y-81713893D01*
X157179520Y-81692849D01*
X157169030Y-81670671D01*
X157160765Y-81647571D01*
X157154804Y-81623773D01*
X157151204Y-81599504D01*
X157150000Y-81575000D01*
X157150000Y-80125000D01*
X157151204Y-80100496D01*
X157154804Y-80076227D01*
X157160765Y-80052429D01*
X157169030Y-80029329D01*
X157179520Y-80007151D01*
X157192133Y-79986107D01*
X157206747Y-79966402D01*
X157223223Y-79948223D01*
X157241402Y-79931747D01*
X157261107Y-79917133D01*
X157282151Y-79904520D01*
X157304329Y-79894030D01*
X157327429Y-79885765D01*
X157351227Y-79879804D01*
X157375496Y-79876204D01*
X157400000Y-79875000D01*
X157900000Y-79875000D01*
X157924504Y-79876204D01*
G37*
G36*
X158924504Y-79876204D02*
G01*
X158948773Y-79879804D01*
X158972571Y-79885765D01*
X158995671Y-79894030D01*
X159017849Y-79904520D01*
X159038893Y-79917133D01*
X159058598Y-79931747D01*
X159076777Y-79948223D01*
X159093253Y-79966402D01*
X159107867Y-79986107D01*
X159120480Y-80007151D01*
X159130970Y-80029329D01*
X159139235Y-80052429D01*
X159145196Y-80076227D01*
X159148796Y-80100496D01*
X159150000Y-80125000D01*
X159150000Y-81575000D01*
X159148796Y-81599504D01*
X159145196Y-81623773D01*
X159139235Y-81647571D01*
X159130970Y-81670671D01*
X159120480Y-81692849D01*
X159107867Y-81713893D01*
X159093253Y-81733598D01*
X159076777Y-81751777D01*
X159058598Y-81768253D01*
X159038893Y-81782867D01*
X159017849Y-81795480D01*
X158995671Y-81805970D01*
X158972571Y-81814235D01*
X158948773Y-81820196D01*
X158924504Y-81823796D01*
X158900000Y-81825000D01*
X158400000Y-81825000D01*
X158375496Y-81823796D01*
X158351227Y-81820196D01*
X158327429Y-81814235D01*
X158304329Y-81805970D01*
X158282151Y-81795480D01*
X158261107Y-81782867D01*
X158241402Y-81768253D01*
X158223223Y-81751777D01*
X158206747Y-81733598D01*
X158192133Y-81713893D01*
X158179520Y-81692849D01*
X158169030Y-81670671D01*
X158160765Y-81647571D01*
X158154804Y-81623773D01*
X158151204Y-81599504D01*
X158150000Y-81575000D01*
X158150000Y-80125000D01*
X158151204Y-80100496D01*
X158154804Y-80076227D01*
X158160765Y-80052429D01*
X158169030Y-80029329D01*
X158179520Y-80007151D01*
X158192133Y-79986107D01*
X158206747Y-79966402D01*
X158223223Y-79948223D01*
X158241402Y-79931747D01*
X158261107Y-79917133D01*
X158282151Y-79904520D01*
X158304329Y-79894030D01*
X158327429Y-79885765D01*
X158351227Y-79879804D01*
X158375496Y-79876204D01*
X158400000Y-79875000D01*
X158900000Y-79875000D01*
X158924504Y-79876204D01*
G37*
G36*
X159924504Y-79876204D02*
G01*
X159948773Y-79879804D01*
X159972571Y-79885765D01*
X159995671Y-79894030D01*
X160017849Y-79904520D01*
X160038893Y-79917133D01*
X160058598Y-79931747D01*
X160076777Y-79948223D01*
X160093253Y-79966402D01*
X160107867Y-79986107D01*
X160120480Y-80007151D01*
X160130970Y-80029329D01*
X160139235Y-80052429D01*
X160145196Y-80076227D01*
X160148796Y-80100496D01*
X160150000Y-80125000D01*
X160150000Y-81575000D01*
X160148796Y-81599504D01*
X160145196Y-81623773D01*
X160139235Y-81647571D01*
X160130970Y-81670671D01*
X160120480Y-81692849D01*
X160107867Y-81713893D01*
X160093253Y-81733598D01*
X160076777Y-81751777D01*
X160058598Y-81768253D01*
X160038893Y-81782867D01*
X160017849Y-81795480D01*
X159995671Y-81805970D01*
X159972571Y-81814235D01*
X159948773Y-81820196D01*
X159924504Y-81823796D01*
X159900000Y-81825000D01*
X159400000Y-81825000D01*
X159375496Y-81823796D01*
X159351227Y-81820196D01*
X159327429Y-81814235D01*
X159304329Y-81805970D01*
X159282151Y-81795480D01*
X159261107Y-81782867D01*
X159241402Y-81768253D01*
X159223223Y-81751777D01*
X159206747Y-81733598D01*
X159192133Y-81713893D01*
X159179520Y-81692849D01*
X159169030Y-81670671D01*
X159160765Y-81647571D01*
X159154804Y-81623773D01*
X159151204Y-81599504D01*
X159150000Y-81575000D01*
X159150000Y-80125000D01*
X159151204Y-80100496D01*
X159154804Y-80076227D01*
X159160765Y-80052429D01*
X159169030Y-80029329D01*
X159179520Y-80007151D01*
X159192133Y-79986107D01*
X159206747Y-79966402D01*
X159223223Y-79948223D01*
X159241402Y-79931747D01*
X159261107Y-79917133D01*
X159282151Y-79904520D01*
X159304329Y-79894030D01*
X159327429Y-79885765D01*
X159351227Y-79879804D01*
X159375496Y-79876204D01*
X159400000Y-79875000D01*
X159900000Y-79875000D01*
X159924504Y-79876204D01*
G37*
G36*
X160924504Y-79876204D02*
G01*
X160948773Y-79879804D01*
X160972571Y-79885765D01*
X160995671Y-79894030D01*
X161017849Y-79904520D01*
X161038893Y-79917133D01*
X161058598Y-79931747D01*
X161076777Y-79948223D01*
X161093253Y-79966402D01*
X161107867Y-79986107D01*
X161120480Y-80007151D01*
X161130970Y-80029329D01*
X161139235Y-80052429D01*
X161145196Y-80076227D01*
X161148796Y-80100496D01*
X161150000Y-80125000D01*
X161150000Y-81575000D01*
X161148796Y-81599504D01*
X161145196Y-81623773D01*
X161139235Y-81647571D01*
X161130970Y-81670671D01*
X161120480Y-81692849D01*
X161107867Y-81713893D01*
X161093253Y-81733598D01*
X161076777Y-81751777D01*
X161058598Y-81768253D01*
X161038893Y-81782867D01*
X161017849Y-81795480D01*
X160995671Y-81805970D01*
X160972571Y-81814235D01*
X160948773Y-81820196D01*
X160924504Y-81823796D01*
X160900000Y-81825000D01*
X160400000Y-81825000D01*
X160375496Y-81823796D01*
X160351227Y-81820196D01*
X160327429Y-81814235D01*
X160304329Y-81805970D01*
X160282151Y-81795480D01*
X160261107Y-81782867D01*
X160241402Y-81768253D01*
X160223223Y-81751777D01*
X160206747Y-81733598D01*
X160192133Y-81713893D01*
X160179520Y-81692849D01*
X160169030Y-81670671D01*
X160160765Y-81647571D01*
X160154804Y-81623773D01*
X160151204Y-81599504D01*
X160150000Y-81575000D01*
X160150000Y-80125000D01*
X160151204Y-80100496D01*
X160154804Y-80076227D01*
X160160765Y-80052429D01*
X160169030Y-80029329D01*
X160179520Y-80007151D01*
X160192133Y-79986107D01*
X160206747Y-79966402D01*
X160223223Y-79948223D01*
X160241402Y-79931747D01*
X160261107Y-79917133D01*
X160282151Y-79904520D01*
X160304329Y-79894030D01*
X160327429Y-79885765D01*
X160351227Y-79879804D01*
X160375496Y-79876204D01*
X160400000Y-79875000D01*
X160900000Y-79875000D01*
X160924504Y-79876204D01*
G37*
G36*
X161924504Y-79876204D02*
G01*
X161948773Y-79879804D01*
X161972571Y-79885765D01*
X161995671Y-79894030D01*
X162017849Y-79904520D01*
X162038893Y-79917133D01*
X162058598Y-79931747D01*
X162076777Y-79948223D01*
X162093253Y-79966402D01*
X162107867Y-79986107D01*
X162120480Y-80007151D01*
X162130970Y-80029329D01*
X162139235Y-80052429D01*
X162145196Y-80076227D01*
X162148796Y-80100496D01*
X162150000Y-80125000D01*
X162150000Y-81575000D01*
X162148796Y-81599504D01*
X162145196Y-81623773D01*
X162139235Y-81647571D01*
X162130970Y-81670671D01*
X162120480Y-81692849D01*
X162107867Y-81713893D01*
X162093253Y-81733598D01*
X162076777Y-81751777D01*
X162058598Y-81768253D01*
X162038893Y-81782867D01*
X162017849Y-81795480D01*
X161995671Y-81805970D01*
X161972571Y-81814235D01*
X161948773Y-81820196D01*
X161924504Y-81823796D01*
X161900000Y-81825000D01*
X161400000Y-81825000D01*
X161375496Y-81823796D01*
X161351227Y-81820196D01*
X161327429Y-81814235D01*
X161304329Y-81805970D01*
X161282151Y-81795480D01*
X161261107Y-81782867D01*
X161241402Y-81768253D01*
X161223223Y-81751777D01*
X161206747Y-81733598D01*
X161192133Y-81713893D01*
X161179520Y-81692849D01*
X161169030Y-81670671D01*
X161160765Y-81647571D01*
X161154804Y-81623773D01*
X161151204Y-81599504D01*
X161150000Y-81575000D01*
X161150000Y-80125000D01*
X161151204Y-80100496D01*
X161154804Y-80076227D01*
X161160765Y-80052429D01*
X161169030Y-80029329D01*
X161179520Y-80007151D01*
X161192133Y-79986107D01*
X161206747Y-79966402D01*
X161223223Y-79948223D01*
X161241402Y-79931747D01*
X161261107Y-79917133D01*
X161282151Y-79904520D01*
X161304329Y-79894030D01*
X161327429Y-79885765D01*
X161351227Y-79879804D01*
X161375496Y-79876204D01*
X161400000Y-79875000D01*
X161900000Y-79875000D01*
X161924504Y-79876204D01*
G37*
G36*
X156868931Y-106876567D02*
G01*
X156900525Y-106881254D01*
X156931508Y-106889015D01*
X156961581Y-106899775D01*
X156990455Y-106913431D01*
X157017851Y-106929852D01*
X157043506Y-106948879D01*
X157067172Y-106970328D01*
X157088621Y-106993994D01*
X157107648Y-107019649D01*
X157124069Y-107047045D01*
X157137725Y-107075919D01*
X157148485Y-107105992D01*
X157156246Y-107136975D01*
X157160933Y-107168569D01*
X157162500Y-107200471D01*
X157162500Y-109299529D01*
X157160933Y-109331431D01*
X157156246Y-109363025D01*
X157148485Y-109394008D01*
X157137725Y-109424081D01*
X157124069Y-109452955D01*
X157107648Y-109480351D01*
X157088621Y-109506006D01*
X157067172Y-109529672D01*
X157043506Y-109551121D01*
X157017851Y-109570148D01*
X156990455Y-109586569D01*
X156961581Y-109600225D01*
X156931508Y-109610985D01*
X156900525Y-109618746D01*
X156868931Y-109623433D01*
X156837029Y-109625000D01*
X155762971Y-109625000D01*
X155731069Y-109623433D01*
X155699475Y-109618746D01*
X155668492Y-109610985D01*
X155638419Y-109600225D01*
X155609545Y-109586569D01*
X155582149Y-109570148D01*
X155556494Y-109551121D01*
X155532828Y-109529672D01*
X155511379Y-109506006D01*
X155492352Y-109480351D01*
X155475931Y-109452955D01*
X155462275Y-109424081D01*
X155451515Y-109394008D01*
X155443754Y-109363025D01*
X155439067Y-109331431D01*
X155437500Y-109299529D01*
X155437500Y-107200471D01*
X155439067Y-107168569D01*
X155443754Y-107136975D01*
X155451515Y-107105992D01*
X155462275Y-107075919D01*
X155475931Y-107047045D01*
X155492352Y-107019649D01*
X155511379Y-106993994D01*
X155532828Y-106970328D01*
X155556494Y-106948879D01*
X155582149Y-106929852D01*
X155609545Y-106913431D01*
X155638419Y-106899775D01*
X155668492Y-106889015D01*
X155699475Y-106881254D01*
X155731069Y-106876567D01*
X155762971Y-106875000D01*
X156837029Y-106875000D01*
X156868931Y-106876567D01*
G37*
G36*
X153793931Y-106876567D02*
G01*
X153825525Y-106881254D01*
X153856508Y-106889015D01*
X153886581Y-106899775D01*
X153915455Y-106913431D01*
X153942851Y-106929852D01*
X153968506Y-106948879D01*
X153992172Y-106970328D01*
X154013621Y-106993994D01*
X154032648Y-107019649D01*
X154049069Y-107047045D01*
X154062725Y-107075919D01*
X154073485Y-107105992D01*
X154081246Y-107136975D01*
X154085933Y-107168569D01*
X154087500Y-107200471D01*
X154087500Y-109299529D01*
X154085933Y-109331431D01*
X154081246Y-109363025D01*
X154073485Y-109394008D01*
X154062725Y-109424081D01*
X154049069Y-109452955D01*
X154032648Y-109480351D01*
X154013621Y-109506006D01*
X153992172Y-109529672D01*
X153968506Y-109551121D01*
X153942851Y-109570148D01*
X153915455Y-109586569D01*
X153886581Y-109600225D01*
X153856508Y-109610985D01*
X153825525Y-109618746D01*
X153793931Y-109623433D01*
X153762029Y-109625000D01*
X152687971Y-109625000D01*
X152656069Y-109623433D01*
X152624475Y-109618746D01*
X152593492Y-109610985D01*
X152563419Y-109600225D01*
X152534545Y-109586569D01*
X152507149Y-109570148D01*
X152481494Y-109551121D01*
X152457828Y-109529672D01*
X152436379Y-109506006D01*
X152417352Y-109480351D01*
X152400931Y-109452955D01*
X152387275Y-109424081D01*
X152376515Y-109394008D01*
X152368754Y-109363025D01*
X152364067Y-109331431D01*
X152362500Y-109299529D01*
X152362500Y-107200471D01*
X152364067Y-107168569D01*
X152368754Y-107136975D01*
X152376515Y-107105992D01*
X152387275Y-107075919D01*
X152400931Y-107047045D01*
X152417352Y-107019649D01*
X152436379Y-106993994D01*
X152457828Y-106970328D01*
X152481494Y-106948879D01*
X152507149Y-106929852D01*
X152534545Y-106913431D01*
X152563419Y-106899775D01*
X152593492Y-106889015D01*
X152624475Y-106881254D01*
X152656069Y-106876567D01*
X152687971Y-106875000D01*
X153762029Y-106875000D01*
X153793931Y-106876567D01*
G37*
D13*
X132280000Y-116720000D03*
X134820000Y-114180000D03*
X134820000Y-116720000D03*
X132280000Y-114180000D03*
X133550000Y-115450000D03*
D10*
G36*
X166120581Y-86076625D02*
G01*
X166153343Y-86081485D01*
X166185471Y-86089533D01*
X166216656Y-86100691D01*
X166246596Y-86114852D01*
X166275005Y-86131879D01*
X166301608Y-86151609D01*
X166326149Y-86173851D01*
X166348391Y-86198392D01*
X166368121Y-86224995D01*
X166385148Y-86253404D01*
X166399309Y-86283344D01*
X166410467Y-86314529D01*
X166418515Y-86346657D01*
X166423375Y-86379419D01*
X166425000Y-86412500D01*
X166425000Y-87087500D01*
X166423375Y-87120581D01*
X166418515Y-87153343D01*
X166410467Y-87185471D01*
X166399309Y-87216656D01*
X166385148Y-87246596D01*
X166368121Y-87275005D01*
X166348391Y-87301608D01*
X166326149Y-87326149D01*
X166301608Y-87348391D01*
X166275005Y-87368121D01*
X166246596Y-87385148D01*
X166216656Y-87399309D01*
X166185471Y-87410467D01*
X166153343Y-87418515D01*
X166120581Y-87423375D01*
X166087500Y-87425000D01*
X165312500Y-87425000D01*
X165279419Y-87423375D01*
X165246657Y-87418515D01*
X165214529Y-87410467D01*
X165183344Y-87399309D01*
X165153404Y-87385148D01*
X165124995Y-87368121D01*
X165098392Y-87348391D01*
X165073851Y-87326149D01*
X165051609Y-87301608D01*
X165031879Y-87275005D01*
X165014852Y-87246596D01*
X165000691Y-87216656D01*
X164989533Y-87185471D01*
X164981485Y-87153343D01*
X164976625Y-87120581D01*
X164975000Y-87087500D01*
X164975000Y-86412500D01*
X164976625Y-86379419D01*
X164981485Y-86346657D01*
X164989533Y-86314529D01*
X165000691Y-86283344D01*
X165014852Y-86253404D01*
X165031879Y-86224995D01*
X165051609Y-86198392D01*
X165073851Y-86173851D01*
X165098392Y-86151609D01*
X165124995Y-86131879D01*
X165153404Y-86114852D01*
X165183344Y-86100691D01*
X165214529Y-86089533D01*
X165246657Y-86081485D01*
X165279419Y-86076625D01*
X165312500Y-86075000D01*
X166087500Y-86075000D01*
X166120581Y-86076625D01*
G37*
G36*
X167870581Y-86076625D02*
G01*
X167903343Y-86081485D01*
X167935471Y-86089533D01*
X167966656Y-86100691D01*
X167996596Y-86114852D01*
X168025005Y-86131879D01*
X168051608Y-86151609D01*
X168076149Y-86173851D01*
X168098391Y-86198392D01*
X168118121Y-86224995D01*
X168135148Y-86253404D01*
X168149309Y-86283344D01*
X168160467Y-86314529D01*
X168168515Y-86346657D01*
X168173375Y-86379419D01*
X168175000Y-86412500D01*
X168175000Y-87087500D01*
X168173375Y-87120581D01*
X168168515Y-87153343D01*
X168160467Y-87185471D01*
X168149309Y-87216656D01*
X168135148Y-87246596D01*
X168118121Y-87275005D01*
X168098391Y-87301608D01*
X168076149Y-87326149D01*
X168051608Y-87348391D01*
X168025005Y-87368121D01*
X167996596Y-87385148D01*
X167966656Y-87399309D01*
X167935471Y-87410467D01*
X167903343Y-87418515D01*
X167870581Y-87423375D01*
X167837500Y-87425000D01*
X167062500Y-87425000D01*
X167029419Y-87423375D01*
X166996657Y-87418515D01*
X166964529Y-87410467D01*
X166933344Y-87399309D01*
X166903404Y-87385148D01*
X166874995Y-87368121D01*
X166848392Y-87348391D01*
X166823851Y-87326149D01*
X166801609Y-87301608D01*
X166781879Y-87275005D01*
X166764852Y-87246596D01*
X166750691Y-87216656D01*
X166739533Y-87185471D01*
X166731485Y-87153343D01*
X166726625Y-87120581D01*
X166725000Y-87087500D01*
X166725000Y-86412500D01*
X166726625Y-86379419D01*
X166731485Y-86346657D01*
X166739533Y-86314529D01*
X166750691Y-86283344D01*
X166764852Y-86253404D01*
X166781879Y-86224995D01*
X166801609Y-86198392D01*
X166823851Y-86173851D01*
X166848392Y-86151609D01*
X166874995Y-86131879D01*
X166903404Y-86114852D01*
X166933344Y-86100691D01*
X166964529Y-86089533D01*
X166996657Y-86081485D01*
X167029419Y-86076625D01*
X167062500Y-86075000D01*
X167837500Y-86075000D01*
X167870581Y-86076625D01*
G37*
G36*
X165995581Y-87676625D02*
G01*
X166028343Y-87681485D01*
X166060471Y-87689533D01*
X166091656Y-87700691D01*
X166121596Y-87714852D01*
X166150005Y-87731879D01*
X166176608Y-87751609D01*
X166201149Y-87773851D01*
X166223391Y-87798392D01*
X166243121Y-87824995D01*
X166260148Y-87853404D01*
X166274309Y-87883344D01*
X166285467Y-87914529D01*
X166293515Y-87946657D01*
X166298375Y-87979419D01*
X166300000Y-88012500D01*
X166300000Y-88687500D01*
X166298375Y-88720581D01*
X166293515Y-88753343D01*
X166285467Y-88785471D01*
X166274309Y-88816656D01*
X166260148Y-88846596D01*
X166243121Y-88875005D01*
X166223391Y-88901608D01*
X166201149Y-88926149D01*
X166176608Y-88948391D01*
X166150005Y-88968121D01*
X166121596Y-88985148D01*
X166091656Y-88999309D01*
X166060471Y-89010467D01*
X166028343Y-89018515D01*
X165995581Y-89023375D01*
X165962500Y-89025000D01*
X165187500Y-89025000D01*
X165154419Y-89023375D01*
X165121657Y-89018515D01*
X165089529Y-89010467D01*
X165058344Y-88999309D01*
X165028404Y-88985148D01*
X164999995Y-88968121D01*
X164973392Y-88948391D01*
X164948851Y-88926149D01*
X164926609Y-88901608D01*
X164906879Y-88875005D01*
X164889852Y-88846596D01*
X164875691Y-88816656D01*
X164864533Y-88785471D01*
X164856485Y-88753343D01*
X164851625Y-88720581D01*
X164850000Y-88687500D01*
X164850000Y-88012500D01*
X164851625Y-87979419D01*
X164856485Y-87946657D01*
X164864533Y-87914529D01*
X164875691Y-87883344D01*
X164889852Y-87853404D01*
X164906879Y-87824995D01*
X164926609Y-87798392D01*
X164948851Y-87773851D01*
X164973392Y-87751609D01*
X164999995Y-87731879D01*
X165028404Y-87714852D01*
X165058344Y-87700691D01*
X165089529Y-87689533D01*
X165121657Y-87681485D01*
X165154419Y-87676625D01*
X165187500Y-87675000D01*
X165962500Y-87675000D01*
X165995581Y-87676625D01*
G37*
G36*
X167745581Y-87676625D02*
G01*
X167778343Y-87681485D01*
X167810471Y-87689533D01*
X167841656Y-87700691D01*
X167871596Y-87714852D01*
X167900005Y-87731879D01*
X167926608Y-87751609D01*
X167951149Y-87773851D01*
X167973391Y-87798392D01*
X167993121Y-87824995D01*
X168010148Y-87853404D01*
X168024309Y-87883344D01*
X168035467Y-87914529D01*
X168043515Y-87946657D01*
X168048375Y-87979419D01*
X168050000Y-88012500D01*
X168050000Y-88687500D01*
X168048375Y-88720581D01*
X168043515Y-88753343D01*
X168035467Y-88785471D01*
X168024309Y-88816656D01*
X168010148Y-88846596D01*
X167993121Y-88875005D01*
X167973391Y-88901608D01*
X167951149Y-88926149D01*
X167926608Y-88948391D01*
X167900005Y-88968121D01*
X167871596Y-88985148D01*
X167841656Y-88999309D01*
X167810471Y-89010467D01*
X167778343Y-89018515D01*
X167745581Y-89023375D01*
X167712500Y-89025000D01*
X166937500Y-89025000D01*
X166904419Y-89023375D01*
X166871657Y-89018515D01*
X166839529Y-89010467D01*
X166808344Y-88999309D01*
X166778404Y-88985148D01*
X166749995Y-88968121D01*
X166723392Y-88948391D01*
X166698851Y-88926149D01*
X166676609Y-88901608D01*
X166656879Y-88875005D01*
X166639852Y-88846596D01*
X166625691Y-88816656D01*
X166614533Y-88785471D01*
X166606485Y-88753343D01*
X166601625Y-88720581D01*
X166600000Y-88687500D01*
X166600000Y-88012500D01*
X166601625Y-87979419D01*
X166606485Y-87946657D01*
X166614533Y-87914529D01*
X166625691Y-87883344D01*
X166639852Y-87853404D01*
X166656879Y-87824995D01*
X166676609Y-87798392D01*
X166698851Y-87773851D01*
X166723392Y-87751609D01*
X166749995Y-87731879D01*
X166778404Y-87714852D01*
X166808344Y-87700691D01*
X166839529Y-87689533D01*
X166871657Y-87681485D01*
X166904419Y-87676625D01*
X166937500Y-87675000D01*
X167712500Y-87675000D01*
X167745581Y-87676625D01*
G37*
D14*
X138950000Y-115700000D03*
X138950000Y-114400000D03*
D15*
X139400000Y-111550000D03*
X140700000Y-111550000D03*
D10*
G36*
X161795581Y-98776625D02*
G01*
X161828343Y-98781485D01*
X161860471Y-98789533D01*
X161891656Y-98800691D01*
X161921596Y-98814852D01*
X161950005Y-98831879D01*
X161976608Y-98851609D01*
X162001149Y-98873851D01*
X162023391Y-98898392D01*
X162043121Y-98924995D01*
X162060148Y-98953404D01*
X162074309Y-98983344D01*
X162085467Y-99014529D01*
X162093515Y-99046657D01*
X162098375Y-99079419D01*
X162100000Y-99112500D01*
X162100000Y-99787500D01*
X162098375Y-99820581D01*
X162093515Y-99853343D01*
X162085467Y-99885471D01*
X162074309Y-99916656D01*
X162060148Y-99946596D01*
X162043121Y-99975005D01*
X162023391Y-100001608D01*
X162001149Y-100026149D01*
X161976608Y-100048391D01*
X161950005Y-100068121D01*
X161921596Y-100085148D01*
X161891656Y-100099309D01*
X161860471Y-100110467D01*
X161828343Y-100118515D01*
X161795581Y-100123375D01*
X161762500Y-100125000D01*
X160987500Y-100125000D01*
X160954419Y-100123375D01*
X160921657Y-100118515D01*
X160889529Y-100110467D01*
X160858344Y-100099309D01*
X160828404Y-100085148D01*
X160799995Y-100068121D01*
X160773392Y-100048391D01*
X160748851Y-100026149D01*
X160726609Y-100001608D01*
X160706879Y-99975005D01*
X160689852Y-99946596D01*
X160675691Y-99916656D01*
X160664533Y-99885471D01*
X160656485Y-99853343D01*
X160651625Y-99820581D01*
X160650000Y-99787500D01*
X160650000Y-99112500D01*
X160651625Y-99079419D01*
X160656485Y-99046657D01*
X160664533Y-99014529D01*
X160675691Y-98983344D01*
X160689852Y-98953404D01*
X160706879Y-98924995D01*
X160726609Y-98898392D01*
X160748851Y-98873851D01*
X160773392Y-98851609D01*
X160799995Y-98831879D01*
X160828404Y-98814852D01*
X160858344Y-98800691D01*
X160889529Y-98789533D01*
X160921657Y-98781485D01*
X160954419Y-98776625D01*
X160987500Y-98775000D01*
X161762500Y-98775000D01*
X161795581Y-98776625D01*
G37*
G36*
X163545581Y-98776625D02*
G01*
X163578343Y-98781485D01*
X163610471Y-98789533D01*
X163641656Y-98800691D01*
X163671596Y-98814852D01*
X163700005Y-98831879D01*
X163726608Y-98851609D01*
X163751149Y-98873851D01*
X163773391Y-98898392D01*
X163793121Y-98924995D01*
X163810148Y-98953404D01*
X163824309Y-98983344D01*
X163835467Y-99014529D01*
X163843515Y-99046657D01*
X163848375Y-99079419D01*
X163850000Y-99112500D01*
X163850000Y-99787500D01*
X163848375Y-99820581D01*
X163843515Y-99853343D01*
X163835467Y-99885471D01*
X163824309Y-99916656D01*
X163810148Y-99946596D01*
X163793121Y-99975005D01*
X163773391Y-100001608D01*
X163751149Y-100026149D01*
X163726608Y-100048391D01*
X163700005Y-100068121D01*
X163671596Y-100085148D01*
X163641656Y-100099309D01*
X163610471Y-100110467D01*
X163578343Y-100118515D01*
X163545581Y-100123375D01*
X163512500Y-100125000D01*
X162737500Y-100125000D01*
X162704419Y-100123375D01*
X162671657Y-100118515D01*
X162639529Y-100110467D01*
X162608344Y-100099309D01*
X162578404Y-100085148D01*
X162549995Y-100068121D01*
X162523392Y-100048391D01*
X162498851Y-100026149D01*
X162476609Y-100001608D01*
X162456879Y-99975005D01*
X162439852Y-99946596D01*
X162425691Y-99916656D01*
X162414533Y-99885471D01*
X162406485Y-99853343D01*
X162401625Y-99820581D01*
X162400000Y-99787500D01*
X162400000Y-99112500D01*
X162401625Y-99079419D01*
X162406485Y-99046657D01*
X162414533Y-99014529D01*
X162425691Y-98983344D01*
X162439852Y-98953404D01*
X162456879Y-98924995D01*
X162476609Y-98898392D01*
X162498851Y-98873851D01*
X162523392Y-98851609D01*
X162549995Y-98831879D01*
X162578404Y-98814852D01*
X162608344Y-98800691D01*
X162639529Y-98789533D01*
X162671657Y-98781485D01*
X162704419Y-98776625D01*
X162737500Y-98775000D01*
X163512500Y-98775000D01*
X163545581Y-98776625D01*
G37*
G36*
X167920581Y-99076625D02*
G01*
X167953343Y-99081485D01*
X167985471Y-99089533D01*
X168016656Y-99100691D01*
X168046596Y-99114852D01*
X168075005Y-99131879D01*
X168101608Y-99151609D01*
X168126149Y-99173851D01*
X168148391Y-99198392D01*
X168168121Y-99224995D01*
X168185148Y-99253404D01*
X168199309Y-99283344D01*
X168210467Y-99314529D01*
X168218515Y-99346657D01*
X168223375Y-99379419D01*
X168225000Y-99412500D01*
X168225000Y-100087500D01*
X168223375Y-100120581D01*
X168218515Y-100153343D01*
X168210467Y-100185471D01*
X168199309Y-100216656D01*
X168185148Y-100246596D01*
X168168121Y-100275005D01*
X168148391Y-100301608D01*
X168126149Y-100326149D01*
X168101608Y-100348391D01*
X168075005Y-100368121D01*
X168046596Y-100385148D01*
X168016656Y-100399309D01*
X167985471Y-100410467D01*
X167953343Y-100418515D01*
X167920581Y-100423375D01*
X167887500Y-100425000D01*
X167112500Y-100425000D01*
X167079419Y-100423375D01*
X167046657Y-100418515D01*
X167014529Y-100410467D01*
X166983344Y-100399309D01*
X166953404Y-100385148D01*
X166924995Y-100368121D01*
X166898392Y-100348391D01*
X166873851Y-100326149D01*
X166851609Y-100301608D01*
X166831879Y-100275005D01*
X166814852Y-100246596D01*
X166800691Y-100216656D01*
X166789533Y-100185471D01*
X166781485Y-100153343D01*
X166776625Y-100120581D01*
X166775000Y-100087500D01*
X166775000Y-99412500D01*
X166776625Y-99379419D01*
X166781485Y-99346657D01*
X166789533Y-99314529D01*
X166800691Y-99283344D01*
X166814852Y-99253404D01*
X166831879Y-99224995D01*
X166851609Y-99198392D01*
X166873851Y-99173851D01*
X166898392Y-99151609D01*
X166924995Y-99131879D01*
X166953404Y-99114852D01*
X166983344Y-99100691D01*
X167014529Y-99089533D01*
X167046657Y-99081485D01*
X167079419Y-99076625D01*
X167112500Y-99075000D01*
X167887500Y-99075000D01*
X167920581Y-99076625D01*
G37*
G36*
X166170581Y-99076625D02*
G01*
X166203343Y-99081485D01*
X166235471Y-99089533D01*
X166266656Y-99100691D01*
X166296596Y-99114852D01*
X166325005Y-99131879D01*
X166351608Y-99151609D01*
X166376149Y-99173851D01*
X166398391Y-99198392D01*
X166418121Y-99224995D01*
X166435148Y-99253404D01*
X166449309Y-99283344D01*
X166460467Y-99314529D01*
X166468515Y-99346657D01*
X166473375Y-99379419D01*
X166475000Y-99412500D01*
X166475000Y-100087500D01*
X166473375Y-100120581D01*
X166468515Y-100153343D01*
X166460467Y-100185471D01*
X166449309Y-100216656D01*
X166435148Y-100246596D01*
X166418121Y-100275005D01*
X166398391Y-100301608D01*
X166376149Y-100326149D01*
X166351608Y-100348391D01*
X166325005Y-100368121D01*
X166296596Y-100385148D01*
X166266656Y-100399309D01*
X166235471Y-100410467D01*
X166203343Y-100418515D01*
X166170581Y-100423375D01*
X166137500Y-100425000D01*
X165362500Y-100425000D01*
X165329419Y-100423375D01*
X165296657Y-100418515D01*
X165264529Y-100410467D01*
X165233344Y-100399309D01*
X165203404Y-100385148D01*
X165174995Y-100368121D01*
X165148392Y-100348391D01*
X165123851Y-100326149D01*
X165101609Y-100301608D01*
X165081879Y-100275005D01*
X165064852Y-100246596D01*
X165050691Y-100216656D01*
X165039533Y-100185471D01*
X165031485Y-100153343D01*
X165026625Y-100120581D01*
X165025000Y-100087500D01*
X165025000Y-99412500D01*
X165026625Y-99379419D01*
X165031485Y-99346657D01*
X165039533Y-99314529D01*
X165050691Y-99283344D01*
X165064852Y-99253404D01*
X165081879Y-99224995D01*
X165101609Y-99198392D01*
X165123851Y-99173851D01*
X165148392Y-99151609D01*
X165174995Y-99131879D01*
X165203404Y-99114852D01*
X165233344Y-99100691D01*
X165264529Y-99089533D01*
X165296657Y-99081485D01*
X165329419Y-99076625D01*
X165362500Y-99075000D01*
X166137500Y-99075000D01*
X166170581Y-99076625D01*
G37*
G36*
X162224504Y-97156204D02*
G01*
X162248773Y-97159804D01*
X162272571Y-97165765D01*
X162295671Y-97174030D01*
X162317849Y-97184520D01*
X162338893Y-97197133D01*
X162358598Y-97211747D01*
X162376777Y-97228223D01*
X162393253Y-97246402D01*
X162407867Y-97266107D01*
X162420480Y-97287151D01*
X162430970Y-97309329D01*
X162439235Y-97332429D01*
X162445196Y-97356227D01*
X162448796Y-97380496D01*
X162450000Y-97405000D01*
X162450000Y-97905000D01*
X162448796Y-97929504D01*
X162445196Y-97953773D01*
X162439235Y-97977571D01*
X162430970Y-98000671D01*
X162420480Y-98022849D01*
X162407867Y-98043893D01*
X162393253Y-98063598D01*
X162376777Y-98081777D01*
X162358598Y-98098253D01*
X162338893Y-98112867D01*
X162317849Y-98125480D01*
X162295671Y-98135970D01*
X162272571Y-98144235D01*
X162248773Y-98150196D01*
X162224504Y-98153796D01*
X162200000Y-98155000D01*
X160350000Y-98155000D01*
X160325496Y-98153796D01*
X160301227Y-98150196D01*
X160277429Y-98144235D01*
X160254329Y-98135970D01*
X160232151Y-98125480D01*
X160211107Y-98112867D01*
X160191402Y-98098253D01*
X160173223Y-98081777D01*
X160156747Y-98063598D01*
X160142133Y-98043893D01*
X160129520Y-98022849D01*
X160119030Y-98000671D01*
X160110765Y-97977571D01*
X160104804Y-97953773D01*
X160101204Y-97929504D01*
X160100000Y-97905000D01*
X160100000Y-97405000D01*
X160101204Y-97380496D01*
X160104804Y-97356227D01*
X160110765Y-97332429D01*
X160119030Y-97309329D01*
X160129520Y-97287151D01*
X160142133Y-97266107D01*
X160156747Y-97246402D01*
X160173223Y-97228223D01*
X160191402Y-97211747D01*
X160211107Y-97197133D01*
X160232151Y-97184520D01*
X160254329Y-97174030D01*
X160277429Y-97165765D01*
X160301227Y-97159804D01*
X160325496Y-97156204D01*
X160350000Y-97155000D01*
X162200000Y-97155000D01*
X162224504Y-97156204D01*
G37*
G36*
X162224504Y-95886204D02*
G01*
X162248773Y-95889804D01*
X162272571Y-95895765D01*
X162295671Y-95904030D01*
X162317849Y-95914520D01*
X162338893Y-95927133D01*
X162358598Y-95941747D01*
X162376777Y-95958223D01*
X162393253Y-95976402D01*
X162407867Y-95996107D01*
X162420480Y-96017151D01*
X162430970Y-96039329D01*
X162439235Y-96062429D01*
X162445196Y-96086227D01*
X162448796Y-96110496D01*
X162450000Y-96135000D01*
X162450000Y-96635000D01*
X162448796Y-96659504D01*
X162445196Y-96683773D01*
X162439235Y-96707571D01*
X162430970Y-96730671D01*
X162420480Y-96752849D01*
X162407867Y-96773893D01*
X162393253Y-96793598D01*
X162376777Y-96811777D01*
X162358598Y-96828253D01*
X162338893Y-96842867D01*
X162317849Y-96855480D01*
X162295671Y-96865970D01*
X162272571Y-96874235D01*
X162248773Y-96880196D01*
X162224504Y-96883796D01*
X162200000Y-96885000D01*
X160350000Y-96885000D01*
X160325496Y-96883796D01*
X160301227Y-96880196D01*
X160277429Y-96874235D01*
X160254329Y-96865970D01*
X160232151Y-96855480D01*
X160211107Y-96842867D01*
X160191402Y-96828253D01*
X160173223Y-96811777D01*
X160156747Y-96793598D01*
X160142133Y-96773893D01*
X160129520Y-96752849D01*
X160119030Y-96730671D01*
X160110765Y-96707571D01*
X160104804Y-96683773D01*
X160101204Y-96659504D01*
X160100000Y-96635000D01*
X160100000Y-96135000D01*
X160101204Y-96110496D01*
X160104804Y-96086227D01*
X160110765Y-96062429D01*
X160119030Y-96039329D01*
X160129520Y-96017151D01*
X160142133Y-95996107D01*
X160156747Y-95976402D01*
X160173223Y-95958223D01*
X160191402Y-95941747D01*
X160211107Y-95927133D01*
X160232151Y-95914520D01*
X160254329Y-95904030D01*
X160277429Y-95895765D01*
X160301227Y-95889804D01*
X160325496Y-95886204D01*
X160350000Y-95885000D01*
X162200000Y-95885000D01*
X162224504Y-95886204D01*
G37*
G36*
X162224504Y-94616204D02*
G01*
X162248773Y-94619804D01*
X162272571Y-94625765D01*
X162295671Y-94634030D01*
X162317849Y-94644520D01*
X162338893Y-94657133D01*
X162358598Y-94671747D01*
X162376777Y-94688223D01*
X162393253Y-94706402D01*
X162407867Y-94726107D01*
X162420480Y-94747151D01*
X162430970Y-94769329D01*
X162439235Y-94792429D01*
X162445196Y-94816227D01*
X162448796Y-94840496D01*
X162450000Y-94865000D01*
X162450000Y-95365000D01*
X162448796Y-95389504D01*
X162445196Y-95413773D01*
X162439235Y-95437571D01*
X162430970Y-95460671D01*
X162420480Y-95482849D01*
X162407867Y-95503893D01*
X162393253Y-95523598D01*
X162376777Y-95541777D01*
X162358598Y-95558253D01*
X162338893Y-95572867D01*
X162317849Y-95585480D01*
X162295671Y-95595970D01*
X162272571Y-95604235D01*
X162248773Y-95610196D01*
X162224504Y-95613796D01*
X162200000Y-95615000D01*
X160350000Y-95615000D01*
X160325496Y-95613796D01*
X160301227Y-95610196D01*
X160277429Y-95604235D01*
X160254329Y-95595970D01*
X160232151Y-95585480D01*
X160211107Y-95572867D01*
X160191402Y-95558253D01*
X160173223Y-95541777D01*
X160156747Y-95523598D01*
X160142133Y-95503893D01*
X160129520Y-95482849D01*
X160119030Y-95460671D01*
X160110765Y-95437571D01*
X160104804Y-95413773D01*
X160101204Y-95389504D01*
X160100000Y-95365000D01*
X160100000Y-94865000D01*
X160101204Y-94840496D01*
X160104804Y-94816227D01*
X160110765Y-94792429D01*
X160119030Y-94769329D01*
X160129520Y-94747151D01*
X160142133Y-94726107D01*
X160156747Y-94706402D01*
X160173223Y-94688223D01*
X160191402Y-94671747D01*
X160211107Y-94657133D01*
X160232151Y-94644520D01*
X160254329Y-94634030D01*
X160277429Y-94625765D01*
X160301227Y-94619804D01*
X160325496Y-94616204D01*
X160350000Y-94615000D01*
X162200000Y-94615000D01*
X162224504Y-94616204D01*
G37*
G36*
X162224504Y-93346204D02*
G01*
X162248773Y-93349804D01*
X162272571Y-93355765D01*
X162295671Y-93364030D01*
X162317849Y-93374520D01*
X162338893Y-93387133D01*
X162358598Y-93401747D01*
X162376777Y-93418223D01*
X162393253Y-93436402D01*
X162407867Y-93456107D01*
X162420480Y-93477151D01*
X162430970Y-93499329D01*
X162439235Y-93522429D01*
X162445196Y-93546227D01*
X162448796Y-93570496D01*
X162450000Y-93595000D01*
X162450000Y-94095000D01*
X162448796Y-94119504D01*
X162445196Y-94143773D01*
X162439235Y-94167571D01*
X162430970Y-94190671D01*
X162420480Y-94212849D01*
X162407867Y-94233893D01*
X162393253Y-94253598D01*
X162376777Y-94271777D01*
X162358598Y-94288253D01*
X162338893Y-94302867D01*
X162317849Y-94315480D01*
X162295671Y-94325970D01*
X162272571Y-94334235D01*
X162248773Y-94340196D01*
X162224504Y-94343796D01*
X162200000Y-94345000D01*
X160350000Y-94345000D01*
X160325496Y-94343796D01*
X160301227Y-94340196D01*
X160277429Y-94334235D01*
X160254329Y-94325970D01*
X160232151Y-94315480D01*
X160211107Y-94302867D01*
X160191402Y-94288253D01*
X160173223Y-94271777D01*
X160156747Y-94253598D01*
X160142133Y-94233893D01*
X160129520Y-94212849D01*
X160119030Y-94190671D01*
X160110765Y-94167571D01*
X160104804Y-94143773D01*
X160101204Y-94119504D01*
X160100000Y-94095000D01*
X160100000Y-93595000D01*
X160101204Y-93570496D01*
X160104804Y-93546227D01*
X160110765Y-93522429D01*
X160119030Y-93499329D01*
X160129520Y-93477151D01*
X160142133Y-93456107D01*
X160156747Y-93436402D01*
X160173223Y-93418223D01*
X160191402Y-93401747D01*
X160211107Y-93387133D01*
X160232151Y-93374520D01*
X160254329Y-93364030D01*
X160277429Y-93355765D01*
X160301227Y-93349804D01*
X160325496Y-93346204D01*
X160350000Y-93345000D01*
X162200000Y-93345000D01*
X162224504Y-93346204D01*
G37*
G36*
X167174504Y-93346204D02*
G01*
X167198773Y-93349804D01*
X167222571Y-93355765D01*
X167245671Y-93364030D01*
X167267849Y-93374520D01*
X167288893Y-93387133D01*
X167308598Y-93401747D01*
X167326777Y-93418223D01*
X167343253Y-93436402D01*
X167357867Y-93456107D01*
X167370480Y-93477151D01*
X167380970Y-93499329D01*
X167389235Y-93522429D01*
X167395196Y-93546227D01*
X167398796Y-93570496D01*
X167400000Y-93595000D01*
X167400000Y-94095000D01*
X167398796Y-94119504D01*
X167395196Y-94143773D01*
X167389235Y-94167571D01*
X167380970Y-94190671D01*
X167370480Y-94212849D01*
X167357867Y-94233893D01*
X167343253Y-94253598D01*
X167326777Y-94271777D01*
X167308598Y-94288253D01*
X167288893Y-94302867D01*
X167267849Y-94315480D01*
X167245671Y-94325970D01*
X167222571Y-94334235D01*
X167198773Y-94340196D01*
X167174504Y-94343796D01*
X167150000Y-94345000D01*
X165300000Y-94345000D01*
X165275496Y-94343796D01*
X165251227Y-94340196D01*
X165227429Y-94334235D01*
X165204329Y-94325970D01*
X165182151Y-94315480D01*
X165161107Y-94302867D01*
X165141402Y-94288253D01*
X165123223Y-94271777D01*
X165106747Y-94253598D01*
X165092133Y-94233893D01*
X165079520Y-94212849D01*
X165069030Y-94190671D01*
X165060765Y-94167571D01*
X165054804Y-94143773D01*
X165051204Y-94119504D01*
X165050000Y-94095000D01*
X165050000Y-93595000D01*
X165051204Y-93570496D01*
X165054804Y-93546227D01*
X165060765Y-93522429D01*
X165069030Y-93499329D01*
X165079520Y-93477151D01*
X165092133Y-93456107D01*
X165106747Y-93436402D01*
X165123223Y-93418223D01*
X165141402Y-93401747D01*
X165161107Y-93387133D01*
X165182151Y-93374520D01*
X165204329Y-93364030D01*
X165227429Y-93355765D01*
X165251227Y-93349804D01*
X165275496Y-93346204D01*
X165300000Y-93345000D01*
X167150000Y-93345000D01*
X167174504Y-93346204D01*
G37*
G36*
X167174504Y-94616204D02*
G01*
X167198773Y-94619804D01*
X167222571Y-94625765D01*
X167245671Y-94634030D01*
X167267849Y-94644520D01*
X167288893Y-94657133D01*
X167308598Y-94671747D01*
X167326777Y-94688223D01*
X167343253Y-94706402D01*
X167357867Y-94726107D01*
X167370480Y-94747151D01*
X167380970Y-94769329D01*
X167389235Y-94792429D01*
X167395196Y-94816227D01*
X167398796Y-94840496D01*
X167400000Y-94865000D01*
X167400000Y-95365000D01*
X167398796Y-95389504D01*
X167395196Y-95413773D01*
X167389235Y-95437571D01*
X167380970Y-95460671D01*
X167370480Y-95482849D01*
X167357867Y-95503893D01*
X167343253Y-95523598D01*
X167326777Y-95541777D01*
X167308598Y-95558253D01*
X167288893Y-95572867D01*
X167267849Y-95585480D01*
X167245671Y-95595970D01*
X167222571Y-95604235D01*
X167198773Y-95610196D01*
X167174504Y-95613796D01*
X167150000Y-95615000D01*
X165300000Y-95615000D01*
X165275496Y-95613796D01*
X165251227Y-95610196D01*
X165227429Y-95604235D01*
X165204329Y-95595970D01*
X165182151Y-95585480D01*
X165161107Y-95572867D01*
X165141402Y-95558253D01*
X165123223Y-95541777D01*
X165106747Y-95523598D01*
X165092133Y-95503893D01*
X165079520Y-95482849D01*
X165069030Y-95460671D01*
X165060765Y-95437571D01*
X165054804Y-95413773D01*
X165051204Y-95389504D01*
X165050000Y-95365000D01*
X165050000Y-94865000D01*
X165051204Y-94840496D01*
X165054804Y-94816227D01*
X165060765Y-94792429D01*
X165069030Y-94769329D01*
X165079520Y-94747151D01*
X165092133Y-94726107D01*
X165106747Y-94706402D01*
X165123223Y-94688223D01*
X165141402Y-94671747D01*
X165161107Y-94657133D01*
X165182151Y-94644520D01*
X165204329Y-94634030D01*
X165227429Y-94625765D01*
X165251227Y-94619804D01*
X165275496Y-94616204D01*
X165300000Y-94615000D01*
X167150000Y-94615000D01*
X167174504Y-94616204D01*
G37*
G36*
X167174504Y-95886204D02*
G01*
X167198773Y-95889804D01*
X167222571Y-95895765D01*
X167245671Y-95904030D01*
X167267849Y-95914520D01*
X167288893Y-95927133D01*
X167308598Y-95941747D01*
X167326777Y-95958223D01*
X167343253Y-95976402D01*
X167357867Y-95996107D01*
X167370480Y-96017151D01*
X167380970Y-96039329D01*
X167389235Y-96062429D01*
X167395196Y-96086227D01*
X167398796Y-96110496D01*
X167400000Y-96135000D01*
X167400000Y-96635000D01*
X167398796Y-96659504D01*
X167395196Y-96683773D01*
X167389235Y-96707571D01*
X167380970Y-96730671D01*
X167370480Y-96752849D01*
X167357867Y-96773893D01*
X167343253Y-96793598D01*
X167326777Y-96811777D01*
X167308598Y-96828253D01*
X167288893Y-96842867D01*
X167267849Y-96855480D01*
X167245671Y-96865970D01*
X167222571Y-96874235D01*
X167198773Y-96880196D01*
X167174504Y-96883796D01*
X167150000Y-96885000D01*
X165300000Y-96885000D01*
X165275496Y-96883796D01*
X165251227Y-96880196D01*
X165227429Y-96874235D01*
X165204329Y-96865970D01*
X165182151Y-96855480D01*
X165161107Y-96842867D01*
X165141402Y-96828253D01*
X165123223Y-96811777D01*
X165106747Y-96793598D01*
X165092133Y-96773893D01*
X165079520Y-96752849D01*
X165069030Y-96730671D01*
X165060765Y-96707571D01*
X165054804Y-96683773D01*
X165051204Y-96659504D01*
X165050000Y-96635000D01*
X165050000Y-96135000D01*
X165051204Y-96110496D01*
X165054804Y-96086227D01*
X165060765Y-96062429D01*
X165069030Y-96039329D01*
X165079520Y-96017151D01*
X165092133Y-95996107D01*
X165106747Y-95976402D01*
X165123223Y-95958223D01*
X165141402Y-95941747D01*
X165161107Y-95927133D01*
X165182151Y-95914520D01*
X165204329Y-95904030D01*
X165227429Y-95895765D01*
X165251227Y-95889804D01*
X165275496Y-95886204D01*
X165300000Y-95885000D01*
X167150000Y-95885000D01*
X167174504Y-95886204D01*
G37*
G36*
X167174504Y-97156204D02*
G01*
X167198773Y-97159804D01*
X167222571Y-97165765D01*
X167245671Y-97174030D01*
X167267849Y-97184520D01*
X167288893Y-97197133D01*
X167308598Y-97211747D01*
X167326777Y-97228223D01*
X167343253Y-97246402D01*
X167357867Y-97266107D01*
X167370480Y-97287151D01*
X167380970Y-97309329D01*
X167389235Y-97332429D01*
X167395196Y-97356227D01*
X167398796Y-97380496D01*
X167400000Y-97405000D01*
X167400000Y-97905000D01*
X167398796Y-97929504D01*
X167395196Y-97953773D01*
X167389235Y-97977571D01*
X167380970Y-98000671D01*
X167370480Y-98022849D01*
X167357867Y-98043893D01*
X167343253Y-98063598D01*
X167326777Y-98081777D01*
X167308598Y-98098253D01*
X167288893Y-98112867D01*
X167267849Y-98125480D01*
X167245671Y-98135970D01*
X167222571Y-98144235D01*
X167198773Y-98150196D01*
X167174504Y-98153796D01*
X167150000Y-98155000D01*
X165300000Y-98155000D01*
X165275496Y-98153796D01*
X165251227Y-98150196D01*
X165227429Y-98144235D01*
X165204329Y-98135970D01*
X165182151Y-98125480D01*
X165161107Y-98112867D01*
X165141402Y-98098253D01*
X165123223Y-98081777D01*
X165106747Y-98063598D01*
X165092133Y-98043893D01*
X165079520Y-98022849D01*
X165069030Y-98000671D01*
X165060765Y-97977571D01*
X165054804Y-97953773D01*
X165051204Y-97929504D01*
X165050000Y-97905000D01*
X165050000Y-97405000D01*
X165051204Y-97380496D01*
X165054804Y-97356227D01*
X165060765Y-97332429D01*
X165069030Y-97309329D01*
X165079520Y-97287151D01*
X165092133Y-97266107D01*
X165106747Y-97246402D01*
X165123223Y-97228223D01*
X165141402Y-97211747D01*
X165161107Y-97197133D01*
X165182151Y-97184520D01*
X165204329Y-97174030D01*
X165227429Y-97165765D01*
X165251227Y-97159804D01*
X165275496Y-97156204D01*
X165300000Y-97155000D01*
X167150000Y-97155000D01*
X167174504Y-97156204D01*
G37*
D16*
X144750000Y-111150000D03*
X144750000Y-109250000D03*
X146950000Y-109250000D03*
X146950000Y-110200000D03*
X146950000Y-111150000D03*
X144650000Y-115810000D03*
X144650000Y-113910000D03*
X146850000Y-113910000D03*
X146850000Y-114860000D03*
X146850000Y-115810000D03*
D10*
G36*
X153920581Y-111076625D02*
G01*
X153953343Y-111081485D01*
X153985471Y-111089533D01*
X154016656Y-111100691D01*
X154046596Y-111114852D01*
X154075005Y-111131879D01*
X154101608Y-111151609D01*
X154126149Y-111173851D01*
X154148391Y-111198392D01*
X154168121Y-111224995D01*
X154185148Y-111253404D01*
X154199309Y-111283344D01*
X154210467Y-111314529D01*
X154218515Y-111346657D01*
X154223375Y-111379419D01*
X154225000Y-111412500D01*
X154225000Y-112087500D01*
X154223375Y-112120581D01*
X154218515Y-112153343D01*
X154210467Y-112185471D01*
X154199309Y-112216656D01*
X154185148Y-112246596D01*
X154168121Y-112275005D01*
X154148391Y-112301608D01*
X154126149Y-112326149D01*
X154101608Y-112348391D01*
X154075005Y-112368121D01*
X154046596Y-112385148D01*
X154016656Y-112399309D01*
X153985471Y-112410467D01*
X153953343Y-112418515D01*
X153920581Y-112423375D01*
X153887500Y-112425000D01*
X153112500Y-112425000D01*
X153079419Y-112423375D01*
X153046657Y-112418515D01*
X153014529Y-112410467D01*
X152983344Y-112399309D01*
X152953404Y-112385148D01*
X152924995Y-112368121D01*
X152898392Y-112348391D01*
X152873851Y-112326149D01*
X152851609Y-112301608D01*
X152831879Y-112275005D01*
X152814852Y-112246596D01*
X152800691Y-112216656D01*
X152789533Y-112185471D01*
X152781485Y-112153343D01*
X152776625Y-112120581D01*
X152775000Y-112087500D01*
X152775000Y-111412500D01*
X152776625Y-111379419D01*
X152781485Y-111346657D01*
X152789533Y-111314529D01*
X152800691Y-111283344D01*
X152814852Y-111253404D01*
X152831879Y-111224995D01*
X152851609Y-111198392D01*
X152873851Y-111173851D01*
X152898392Y-111151609D01*
X152924995Y-111131879D01*
X152953404Y-111114852D01*
X152983344Y-111100691D01*
X153014529Y-111089533D01*
X153046657Y-111081485D01*
X153079419Y-111076625D01*
X153112500Y-111075000D01*
X153887500Y-111075000D01*
X153920581Y-111076625D01*
G37*
G36*
X155670581Y-111076625D02*
G01*
X155703343Y-111081485D01*
X155735471Y-111089533D01*
X155766656Y-111100691D01*
X155796596Y-111114852D01*
X155825005Y-111131879D01*
X155851608Y-111151609D01*
X155876149Y-111173851D01*
X155898391Y-111198392D01*
X155918121Y-111224995D01*
X155935148Y-111253404D01*
X155949309Y-111283344D01*
X155960467Y-111314529D01*
X155968515Y-111346657D01*
X155973375Y-111379419D01*
X155975000Y-111412500D01*
X155975000Y-112087500D01*
X155973375Y-112120581D01*
X155968515Y-112153343D01*
X155960467Y-112185471D01*
X155949309Y-112216656D01*
X155935148Y-112246596D01*
X155918121Y-112275005D01*
X155898391Y-112301608D01*
X155876149Y-112326149D01*
X155851608Y-112348391D01*
X155825005Y-112368121D01*
X155796596Y-112385148D01*
X155766656Y-112399309D01*
X155735471Y-112410467D01*
X155703343Y-112418515D01*
X155670581Y-112423375D01*
X155637500Y-112425000D01*
X154862500Y-112425000D01*
X154829419Y-112423375D01*
X154796657Y-112418515D01*
X154764529Y-112410467D01*
X154733344Y-112399309D01*
X154703404Y-112385148D01*
X154674995Y-112368121D01*
X154648392Y-112348391D01*
X154623851Y-112326149D01*
X154601609Y-112301608D01*
X154581879Y-112275005D01*
X154564852Y-112246596D01*
X154550691Y-112216656D01*
X154539533Y-112185471D01*
X154531485Y-112153343D01*
X154526625Y-112120581D01*
X154525000Y-112087500D01*
X154525000Y-111412500D01*
X154526625Y-111379419D01*
X154531485Y-111346657D01*
X154539533Y-111314529D01*
X154550691Y-111283344D01*
X154564852Y-111253404D01*
X154581879Y-111224995D01*
X154601609Y-111198392D01*
X154623851Y-111173851D01*
X154648392Y-111151609D01*
X154674995Y-111131879D01*
X154703404Y-111114852D01*
X154733344Y-111100691D01*
X154764529Y-111089533D01*
X154796657Y-111081485D01*
X154829419Y-111076625D01*
X154862500Y-111075000D01*
X155637500Y-111075000D01*
X155670581Y-111076625D01*
G37*
G36*
X163886207Y-106226542D02*
G01*
X163917287Y-106231152D01*
X163947766Y-106238787D01*
X163977350Y-106249372D01*
X164005754Y-106262806D01*
X164032704Y-106278959D01*
X164057942Y-106297677D01*
X164081223Y-106318777D01*
X164102323Y-106342058D01*
X164121041Y-106367296D01*
X164137194Y-106394246D01*
X164150628Y-106422650D01*
X164161213Y-106452234D01*
X164168848Y-106482713D01*
X164173458Y-106513793D01*
X164175000Y-106545176D01*
X164175000Y-108954824D01*
X164173458Y-108986207D01*
X164168848Y-109017287D01*
X164161213Y-109047766D01*
X164150628Y-109077350D01*
X164137194Y-109105754D01*
X164121041Y-109132704D01*
X164102323Y-109157942D01*
X164081223Y-109181223D01*
X164057942Y-109202323D01*
X164032704Y-109221041D01*
X164005754Y-109237194D01*
X163977350Y-109250628D01*
X163947766Y-109261213D01*
X163917287Y-109268848D01*
X163886207Y-109273458D01*
X163854824Y-109275000D01*
X162670176Y-109275000D01*
X162638793Y-109273458D01*
X162607713Y-109268848D01*
X162577234Y-109261213D01*
X162547650Y-109250628D01*
X162519246Y-109237194D01*
X162492296Y-109221041D01*
X162467058Y-109202323D01*
X162443777Y-109181223D01*
X162422677Y-109157942D01*
X162403959Y-109132704D01*
X162387806Y-109105754D01*
X162374372Y-109077350D01*
X162363787Y-109047766D01*
X162356152Y-109017287D01*
X162351542Y-108986207D01*
X162350000Y-108954824D01*
X162350000Y-106545176D01*
X162351542Y-106513793D01*
X162356152Y-106482713D01*
X162363787Y-106452234D01*
X162374372Y-106422650D01*
X162387806Y-106394246D01*
X162403959Y-106367296D01*
X162422677Y-106342058D01*
X162443777Y-106318777D01*
X162467058Y-106297677D01*
X162492296Y-106278959D01*
X162519246Y-106262806D01*
X162547650Y-106249372D01*
X162577234Y-106238787D01*
X162607713Y-106231152D01*
X162638793Y-106226542D01*
X162670176Y-106225000D01*
X163854824Y-106225000D01*
X163886207Y-106226542D01*
G37*
G36*
X166861207Y-106226542D02*
G01*
X166892287Y-106231152D01*
X166922766Y-106238787D01*
X166952350Y-106249372D01*
X166980754Y-106262806D01*
X167007704Y-106278959D01*
X167032942Y-106297677D01*
X167056223Y-106318777D01*
X167077323Y-106342058D01*
X167096041Y-106367296D01*
X167112194Y-106394246D01*
X167125628Y-106422650D01*
X167136213Y-106452234D01*
X167143848Y-106482713D01*
X167148458Y-106513793D01*
X167150000Y-106545176D01*
X167150000Y-108954824D01*
X167148458Y-108986207D01*
X167143848Y-109017287D01*
X167136213Y-109047766D01*
X167125628Y-109077350D01*
X167112194Y-109105754D01*
X167096041Y-109132704D01*
X167077323Y-109157942D01*
X167056223Y-109181223D01*
X167032942Y-109202323D01*
X167007704Y-109221041D01*
X166980754Y-109237194D01*
X166952350Y-109250628D01*
X166922766Y-109261213D01*
X166892287Y-109268848D01*
X166861207Y-109273458D01*
X166829824Y-109275000D01*
X165645176Y-109275000D01*
X165613793Y-109273458D01*
X165582713Y-109268848D01*
X165552234Y-109261213D01*
X165522650Y-109250628D01*
X165494246Y-109237194D01*
X165467296Y-109221041D01*
X165442058Y-109202323D01*
X165418777Y-109181223D01*
X165397677Y-109157942D01*
X165378959Y-109132704D01*
X165362806Y-109105754D01*
X165349372Y-109077350D01*
X165338787Y-109047766D01*
X165331152Y-109017287D01*
X165326542Y-108986207D01*
X165325000Y-108954824D01*
X165325000Y-106545176D01*
X165326542Y-106513793D01*
X165331152Y-106482713D01*
X165338787Y-106452234D01*
X165349372Y-106422650D01*
X165362806Y-106394246D01*
X165378959Y-106367296D01*
X165397677Y-106342058D01*
X165418777Y-106318777D01*
X165442058Y-106297677D01*
X165467296Y-106278959D01*
X165494246Y-106262806D01*
X165522650Y-106249372D01*
X165552234Y-106238787D01*
X165582713Y-106231152D01*
X165613793Y-106226542D01*
X165645176Y-106225000D01*
X166829824Y-106225000D01*
X166861207Y-106226542D01*
G37*
G36*
X143120581Y-108776625D02*
G01*
X143153343Y-108781485D01*
X143185471Y-108789533D01*
X143216656Y-108800691D01*
X143246596Y-108814852D01*
X143275005Y-108831879D01*
X143301608Y-108851609D01*
X143326149Y-108873851D01*
X143348391Y-108898392D01*
X143368121Y-108924995D01*
X143385148Y-108953404D01*
X143399309Y-108983344D01*
X143410467Y-109014529D01*
X143418515Y-109046657D01*
X143423375Y-109079419D01*
X143425000Y-109112500D01*
X143425000Y-109887500D01*
X143423375Y-109920581D01*
X143418515Y-109953343D01*
X143410467Y-109985471D01*
X143399309Y-110016656D01*
X143385148Y-110046596D01*
X143368121Y-110075005D01*
X143348391Y-110101608D01*
X143326149Y-110126149D01*
X143301608Y-110148391D01*
X143275005Y-110168121D01*
X143246596Y-110185148D01*
X143216656Y-110199309D01*
X143185471Y-110210467D01*
X143153343Y-110218515D01*
X143120581Y-110223375D01*
X143087500Y-110225000D01*
X142412500Y-110225000D01*
X142379419Y-110223375D01*
X142346657Y-110218515D01*
X142314529Y-110210467D01*
X142283344Y-110199309D01*
X142253404Y-110185148D01*
X142224995Y-110168121D01*
X142198392Y-110148391D01*
X142173851Y-110126149D01*
X142151609Y-110101608D01*
X142131879Y-110075005D01*
X142114852Y-110046596D01*
X142100691Y-110016656D01*
X142089533Y-109985471D01*
X142081485Y-109953343D01*
X142076625Y-109920581D01*
X142075000Y-109887500D01*
X142075000Y-109112500D01*
X142076625Y-109079419D01*
X142081485Y-109046657D01*
X142089533Y-109014529D01*
X142100691Y-108983344D01*
X142114852Y-108953404D01*
X142131879Y-108924995D01*
X142151609Y-108898392D01*
X142173851Y-108873851D01*
X142198392Y-108851609D01*
X142224995Y-108831879D01*
X142253404Y-108814852D01*
X142283344Y-108800691D01*
X142314529Y-108789533D01*
X142346657Y-108781485D01*
X142379419Y-108776625D01*
X142412500Y-108775000D01*
X143087500Y-108775000D01*
X143120581Y-108776625D01*
G37*
G36*
X143120581Y-110526625D02*
G01*
X143153343Y-110531485D01*
X143185471Y-110539533D01*
X143216656Y-110550691D01*
X143246596Y-110564852D01*
X143275005Y-110581879D01*
X143301608Y-110601609D01*
X143326149Y-110623851D01*
X143348391Y-110648392D01*
X143368121Y-110674995D01*
X143385148Y-110703404D01*
X143399309Y-110733344D01*
X143410467Y-110764529D01*
X143418515Y-110796657D01*
X143423375Y-110829419D01*
X143425000Y-110862500D01*
X143425000Y-111637500D01*
X143423375Y-111670581D01*
X143418515Y-111703343D01*
X143410467Y-111735471D01*
X143399309Y-111766656D01*
X143385148Y-111796596D01*
X143368121Y-111825005D01*
X143348391Y-111851608D01*
X143326149Y-111876149D01*
X143301608Y-111898391D01*
X143275005Y-111918121D01*
X143246596Y-111935148D01*
X143216656Y-111949309D01*
X143185471Y-111960467D01*
X143153343Y-111968515D01*
X143120581Y-111973375D01*
X143087500Y-111975000D01*
X142412500Y-111975000D01*
X142379419Y-111973375D01*
X142346657Y-111968515D01*
X142314529Y-111960467D01*
X142283344Y-111949309D01*
X142253404Y-111935148D01*
X142224995Y-111918121D01*
X142198392Y-111898391D01*
X142173851Y-111876149D01*
X142151609Y-111851608D01*
X142131879Y-111825005D01*
X142114852Y-111796596D01*
X142100691Y-111766656D01*
X142089533Y-111735471D01*
X142081485Y-111703343D01*
X142076625Y-111670581D01*
X142075000Y-111637500D01*
X142075000Y-110862500D01*
X142076625Y-110829419D01*
X142081485Y-110796657D01*
X142089533Y-110764529D01*
X142100691Y-110733344D01*
X142114852Y-110703404D01*
X142131879Y-110674995D01*
X142151609Y-110648392D01*
X142173851Y-110623851D01*
X142198392Y-110601609D01*
X142224995Y-110581879D01*
X142253404Y-110564852D01*
X142283344Y-110550691D01*
X142314529Y-110539533D01*
X142346657Y-110531485D01*
X142379419Y-110526625D01*
X142412500Y-110525000D01*
X143087500Y-110525000D01*
X143120581Y-110526625D01*
G37*
G36*
X143120581Y-113151625D02*
G01*
X143153343Y-113156485D01*
X143185471Y-113164533D01*
X143216656Y-113175691D01*
X143246596Y-113189852D01*
X143275005Y-113206879D01*
X143301608Y-113226609D01*
X143326149Y-113248851D01*
X143348391Y-113273392D01*
X143368121Y-113299995D01*
X143385148Y-113328404D01*
X143399309Y-113358344D01*
X143410467Y-113389529D01*
X143418515Y-113421657D01*
X143423375Y-113454419D01*
X143425000Y-113487500D01*
X143425000Y-114262500D01*
X143423375Y-114295581D01*
X143418515Y-114328343D01*
X143410467Y-114360471D01*
X143399309Y-114391656D01*
X143385148Y-114421596D01*
X143368121Y-114450005D01*
X143348391Y-114476608D01*
X143326149Y-114501149D01*
X143301608Y-114523391D01*
X143275005Y-114543121D01*
X143246596Y-114560148D01*
X143216656Y-114574309D01*
X143185471Y-114585467D01*
X143153343Y-114593515D01*
X143120581Y-114598375D01*
X143087500Y-114600000D01*
X142412500Y-114600000D01*
X142379419Y-114598375D01*
X142346657Y-114593515D01*
X142314529Y-114585467D01*
X142283344Y-114574309D01*
X142253404Y-114560148D01*
X142224995Y-114543121D01*
X142198392Y-114523391D01*
X142173851Y-114501149D01*
X142151609Y-114476608D01*
X142131879Y-114450005D01*
X142114852Y-114421596D01*
X142100691Y-114391656D01*
X142089533Y-114360471D01*
X142081485Y-114328343D01*
X142076625Y-114295581D01*
X142075000Y-114262500D01*
X142075000Y-113487500D01*
X142076625Y-113454419D01*
X142081485Y-113421657D01*
X142089533Y-113389529D01*
X142100691Y-113358344D01*
X142114852Y-113328404D01*
X142131879Y-113299995D01*
X142151609Y-113273392D01*
X142173851Y-113248851D01*
X142198392Y-113226609D01*
X142224995Y-113206879D01*
X142253404Y-113189852D01*
X142283344Y-113175691D01*
X142314529Y-113164533D01*
X142346657Y-113156485D01*
X142379419Y-113151625D01*
X142412500Y-113150000D01*
X143087500Y-113150000D01*
X143120581Y-113151625D01*
G37*
G36*
X143120581Y-114901625D02*
G01*
X143153343Y-114906485D01*
X143185471Y-114914533D01*
X143216656Y-114925691D01*
X143246596Y-114939852D01*
X143275005Y-114956879D01*
X143301608Y-114976609D01*
X143326149Y-114998851D01*
X143348391Y-115023392D01*
X143368121Y-115049995D01*
X143385148Y-115078404D01*
X143399309Y-115108344D01*
X143410467Y-115139529D01*
X143418515Y-115171657D01*
X143423375Y-115204419D01*
X143425000Y-115237500D01*
X143425000Y-116012500D01*
X143423375Y-116045581D01*
X143418515Y-116078343D01*
X143410467Y-116110471D01*
X143399309Y-116141656D01*
X143385148Y-116171596D01*
X143368121Y-116200005D01*
X143348391Y-116226608D01*
X143326149Y-116251149D01*
X143301608Y-116273391D01*
X143275005Y-116293121D01*
X143246596Y-116310148D01*
X143216656Y-116324309D01*
X143185471Y-116335467D01*
X143153343Y-116343515D01*
X143120581Y-116348375D01*
X143087500Y-116350000D01*
X142412500Y-116350000D01*
X142379419Y-116348375D01*
X142346657Y-116343515D01*
X142314529Y-116335467D01*
X142283344Y-116324309D01*
X142253404Y-116310148D01*
X142224995Y-116293121D01*
X142198392Y-116273391D01*
X142173851Y-116251149D01*
X142151609Y-116226608D01*
X142131879Y-116200005D01*
X142114852Y-116171596D01*
X142100691Y-116141656D01*
X142089533Y-116110471D01*
X142081485Y-116078343D01*
X142076625Y-116045581D01*
X142075000Y-116012500D01*
X142075000Y-115237500D01*
X142076625Y-115204419D01*
X142081485Y-115171657D01*
X142089533Y-115139529D01*
X142100691Y-115108344D01*
X142114852Y-115078404D01*
X142131879Y-115049995D01*
X142151609Y-115023392D01*
X142173851Y-114998851D01*
X142198392Y-114976609D01*
X142224995Y-114956879D01*
X142253404Y-114939852D01*
X142283344Y-114925691D01*
X142314529Y-114914533D01*
X142346657Y-114906485D01*
X142379419Y-114901625D01*
X142412500Y-114900000D01*
X143087500Y-114900000D01*
X143120581Y-114901625D01*
G37*
G36*
X150120581Y-113026625D02*
G01*
X150153343Y-113031485D01*
X150185471Y-113039533D01*
X150216656Y-113050691D01*
X150246596Y-113064852D01*
X150275005Y-113081879D01*
X150301608Y-113101609D01*
X150326149Y-113123851D01*
X150348391Y-113148392D01*
X150368121Y-113174995D01*
X150385148Y-113203404D01*
X150399309Y-113233344D01*
X150410467Y-113264529D01*
X150418515Y-113296657D01*
X150423375Y-113329419D01*
X150425000Y-113362500D01*
X150425000Y-114137500D01*
X150423375Y-114170581D01*
X150418515Y-114203343D01*
X150410467Y-114235471D01*
X150399309Y-114266656D01*
X150385148Y-114296596D01*
X150368121Y-114325005D01*
X150348391Y-114351608D01*
X150326149Y-114376149D01*
X150301608Y-114398391D01*
X150275005Y-114418121D01*
X150246596Y-114435148D01*
X150216656Y-114449309D01*
X150185471Y-114460467D01*
X150153343Y-114468515D01*
X150120581Y-114473375D01*
X150087500Y-114475000D01*
X149412500Y-114475000D01*
X149379419Y-114473375D01*
X149346657Y-114468515D01*
X149314529Y-114460467D01*
X149283344Y-114449309D01*
X149253404Y-114435148D01*
X149224995Y-114418121D01*
X149198392Y-114398391D01*
X149173851Y-114376149D01*
X149151609Y-114351608D01*
X149131879Y-114325005D01*
X149114852Y-114296596D01*
X149100691Y-114266656D01*
X149089533Y-114235471D01*
X149081485Y-114203343D01*
X149076625Y-114170581D01*
X149075000Y-114137500D01*
X149075000Y-113362500D01*
X149076625Y-113329419D01*
X149081485Y-113296657D01*
X149089533Y-113264529D01*
X149100691Y-113233344D01*
X149114852Y-113203404D01*
X149131879Y-113174995D01*
X149151609Y-113148392D01*
X149173851Y-113123851D01*
X149198392Y-113101609D01*
X149224995Y-113081879D01*
X149253404Y-113064852D01*
X149283344Y-113050691D01*
X149314529Y-113039533D01*
X149346657Y-113031485D01*
X149379419Y-113026625D01*
X149412500Y-113025000D01*
X150087500Y-113025000D01*
X150120581Y-113026625D01*
G37*
G36*
X150120581Y-114776625D02*
G01*
X150153343Y-114781485D01*
X150185471Y-114789533D01*
X150216656Y-114800691D01*
X150246596Y-114814852D01*
X150275005Y-114831879D01*
X150301608Y-114851609D01*
X150326149Y-114873851D01*
X150348391Y-114898392D01*
X150368121Y-114924995D01*
X150385148Y-114953404D01*
X150399309Y-114983344D01*
X150410467Y-115014529D01*
X150418515Y-115046657D01*
X150423375Y-115079419D01*
X150425000Y-115112500D01*
X150425000Y-115887500D01*
X150423375Y-115920581D01*
X150418515Y-115953343D01*
X150410467Y-115985471D01*
X150399309Y-116016656D01*
X150385148Y-116046596D01*
X150368121Y-116075005D01*
X150348391Y-116101608D01*
X150326149Y-116126149D01*
X150301608Y-116148391D01*
X150275005Y-116168121D01*
X150246596Y-116185148D01*
X150216656Y-116199309D01*
X150185471Y-116210467D01*
X150153343Y-116218515D01*
X150120581Y-116223375D01*
X150087500Y-116225000D01*
X149412500Y-116225000D01*
X149379419Y-116223375D01*
X149346657Y-116218515D01*
X149314529Y-116210467D01*
X149283344Y-116199309D01*
X149253404Y-116185148D01*
X149224995Y-116168121D01*
X149198392Y-116148391D01*
X149173851Y-116126149D01*
X149151609Y-116101608D01*
X149131879Y-116075005D01*
X149114852Y-116046596D01*
X149100691Y-116016656D01*
X149089533Y-115985471D01*
X149081485Y-115953343D01*
X149076625Y-115920581D01*
X149075000Y-115887500D01*
X149075000Y-115112500D01*
X149076625Y-115079419D01*
X149081485Y-115046657D01*
X149089533Y-115014529D01*
X149100691Y-114983344D01*
X149114852Y-114953404D01*
X149131879Y-114924995D01*
X149151609Y-114898392D01*
X149173851Y-114873851D01*
X149198392Y-114851609D01*
X149224995Y-114831879D01*
X149253404Y-114814852D01*
X149283344Y-114800691D01*
X149314529Y-114789533D01*
X149346657Y-114781485D01*
X149379419Y-114776625D01*
X149412500Y-114775000D01*
X150087500Y-114775000D01*
X150120581Y-114776625D01*
G37*
G36*
X150120581Y-108526625D02*
G01*
X150153343Y-108531485D01*
X150185471Y-108539533D01*
X150216656Y-108550691D01*
X150246596Y-108564852D01*
X150275005Y-108581879D01*
X150301608Y-108601609D01*
X150326149Y-108623851D01*
X150348391Y-108648392D01*
X150368121Y-108674995D01*
X150385148Y-108703404D01*
X150399309Y-108733344D01*
X150410467Y-108764529D01*
X150418515Y-108796657D01*
X150423375Y-108829419D01*
X150425000Y-108862500D01*
X150425000Y-109637500D01*
X150423375Y-109670581D01*
X150418515Y-109703343D01*
X150410467Y-109735471D01*
X150399309Y-109766656D01*
X150385148Y-109796596D01*
X150368121Y-109825005D01*
X150348391Y-109851608D01*
X150326149Y-109876149D01*
X150301608Y-109898391D01*
X150275005Y-109918121D01*
X150246596Y-109935148D01*
X150216656Y-109949309D01*
X150185471Y-109960467D01*
X150153343Y-109968515D01*
X150120581Y-109973375D01*
X150087500Y-109975000D01*
X149412500Y-109975000D01*
X149379419Y-109973375D01*
X149346657Y-109968515D01*
X149314529Y-109960467D01*
X149283344Y-109949309D01*
X149253404Y-109935148D01*
X149224995Y-109918121D01*
X149198392Y-109898391D01*
X149173851Y-109876149D01*
X149151609Y-109851608D01*
X149131879Y-109825005D01*
X149114852Y-109796596D01*
X149100691Y-109766656D01*
X149089533Y-109735471D01*
X149081485Y-109703343D01*
X149076625Y-109670581D01*
X149075000Y-109637500D01*
X149075000Y-108862500D01*
X149076625Y-108829419D01*
X149081485Y-108796657D01*
X149089533Y-108764529D01*
X149100691Y-108733344D01*
X149114852Y-108703404D01*
X149131879Y-108674995D01*
X149151609Y-108648392D01*
X149173851Y-108623851D01*
X149198392Y-108601609D01*
X149224995Y-108581879D01*
X149253404Y-108564852D01*
X149283344Y-108550691D01*
X149314529Y-108539533D01*
X149346657Y-108531485D01*
X149379419Y-108526625D01*
X149412500Y-108525000D01*
X150087500Y-108525000D01*
X150120581Y-108526625D01*
G37*
G36*
X150120581Y-110276625D02*
G01*
X150153343Y-110281485D01*
X150185471Y-110289533D01*
X150216656Y-110300691D01*
X150246596Y-110314852D01*
X150275005Y-110331879D01*
X150301608Y-110351609D01*
X150326149Y-110373851D01*
X150348391Y-110398392D01*
X150368121Y-110424995D01*
X150385148Y-110453404D01*
X150399309Y-110483344D01*
X150410467Y-110514529D01*
X150418515Y-110546657D01*
X150423375Y-110579419D01*
X150425000Y-110612500D01*
X150425000Y-111387500D01*
X150423375Y-111420581D01*
X150418515Y-111453343D01*
X150410467Y-111485471D01*
X150399309Y-111516656D01*
X150385148Y-111546596D01*
X150368121Y-111575005D01*
X150348391Y-111601608D01*
X150326149Y-111626149D01*
X150301608Y-111648391D01*
X150275005Y-111668121D01*
X150246596Y-111685148D01*
X150216656Y-111699309D01*
X150185471Y-111710467D01*
X150153343Y-111718515D01*
X150120581Y-111723375D01*
X150087500Y-111725000D01*
X149412500Y-111725000D01*
X149379419Y-111723375D01*
X149346657Y-111718515D01*
X149314529Y-111710467D01*
X149283344Y-111699309D01*
X149253404Y-111685148D01*
X149224995Y-111668121D01*
X149198392Y-111648391D01*
X149173851Y-111626149D01*
X149151609Y-111601608D01*
X149131879Y-111575005D01*
X149114852Y-111546596D01*
X149100691Y-111516656D01*
X149089533Y-111485471D01*
X149081485Y-111453343D01*
X149076625Y-111420581D01*
X149075000Y-111387500D01*
X149075000Y-110612500D01*
X149076625Y-110579419D01*
X149081485Y-110546657D01*
X149089533Y-110514529D01*
X149100691Y-110483344D01*
X149114852Y-110453404D01*
X149131879Y-110424995D01*
X149151609Y-110398392D01*
X149173851Y-110373851D01*
X149198392Y-110351609D01*
X149224995Y-110331879D01*
X149253404Y-110314852D01*
X149283344Y-110300691D01*
X149314529Y-110289533D01*
X149346657Y-110281485D01*
X149379419Y-110276625D01*
X149412500Y-110275000D01*
X150087500Y-110275000D01*
X150120581Y-110276625D01*
G37*
G36*
X167536207Y-109864042D02*
G01*
X167567287Y-109868652D01*
X167597766Y-109876287D01*
X167627350Y-109886872D01*
X167655754Y-109900306D01*
X167682704Y-109916459D01*
X167707942Y-109935177D01*
X167731223Y-109956277D01*
X167752323Y-109979558D01*
X167771041Y-110004796D01*
X167787194Y-110031746D01*
X167800628Y-110060150D01*
X167811213Y-110089734D01*
X167818848Y-110120213D01*
X167823458Y-110151293D01*
X167825000Y-110182676D01*
X167825000Y-111367324D01*
X167823458Y-111398707D01*
X167818848Y-111429787D01*
X167811213Y-111460266D01*
X167800628Y-111489850D01*
X167787194Y-111518254D01*
X167771041Y-111545204D01*
X167752323Y-111570442D01*
X167731223Y-111593723D01*
X167707942Y-111614823D01*
X167682704Y-111633541D01*
X167655754Y-111649694D01*
X167627350Y-111663128D01*
X167597766Y-111673713D01*
X167567287Y-111681348D01*
X167536207Y-111685958D01*
X167504824Y-111687500D01*
X165995176Y-111687500D01*
X165963793Y-111685958D01*
X165932713Y-111681348D01*
X165902234Y-111673713D01*
X165872650Y-111663128D01*
X165844246Y-111649694D01*
X165817296Y-111633541D01*
X165792058Y-111614823D01*
X165768777Y-111593723D01*
X165747677Y-111570442D01*
X165728959Y-111545204D01*
X165712806Y-111518254D01*
X165699372Y-111489850D01*
X165688787Y-111460266D01*
X165681152Y-111429787D01*
X165676542Y-111398707D01*
X165675000Y-111367324D01*
X165675000Y-110182676D01*
X165676542Y-110151293D01*
X165681152Y-110120213D01*
X165688787Y-110089734D01*
X165699372Y-110060150D01*
X165712806Y-110031746D01*
X165728959Y-110004796D01*
X165747677Y-109979558D01*
X165768777Y-109956277D01*
X165792058Y-109935177D01*
X165817296Y-109916459D01*
X165844246Y-109900306D01*
X165872650Y-109886872D01*
X165902234Y-109876287D01*
X165932713Y-109868652D01*
X165963793Y-109864042D01*
X165995176Y-109862500D01*
X167504824Y-109862500D01*
X167536207Y-109864042D01*
G37*
G36*
X167536207Y-112839042D02*
G01*
X167567287Y-112843652D01*
X167597766Y-112851287D01*
X167627350Y-112861872D01*
X167655754Y-112875306D01*
X167682704Y-112891459D01*
X167707942Y-112910177D01*
X167731223Y-112931277D01*
X167752323Y-112954558D01*
X167771041Y-112979796D01*
X167787194Y-113006746D01*
X167800628Y-113035150D01*
X167811213Y-113064734D01*
X167818848Y-113095213D01*
X167823458Y-113126293D01*
X167825000Y-113157676D01*
X167825000Y-114342324D01*
X167823458Y-114373707D01*
X167818848Y-114404787D01*
X167811213Y-114435266D01*
X167800628Y-114464850D01*
X167787194Y-114493254D01*
X167771041Y-114520204D01*
X167752323Y-114545442D01*
X167731223Y-114568723D01*
X167707942Y-114589823D01*
X167682704Y-114608541D01*
X167655754Y-114624694D01*
X167627350Y-114638128D01*
X167597766Y-114648713D01*
X167567287Y-114656348D01*
X167536207Y-114660958D01*
X167504824Y-114662500D01*
X165995176Y-114662500D01*
X165963793Y-114660958D01*
X165932713Y-114656348D01*
X165902234Y-114648713D01*
X165872650Y-114638128D01*
X165844246Y-114624694D01*
X165817296Y-114608541D01*
X165792058Y-114589823D01*
X165768777Y-114568723D01*
X165747677Y-114545442D01*
X165728959Y-114520204D01*
X165712806Y-114493254D01*
X165699372Y-114464850D01*
X165688787Y-114435266D01*
X165681152Y-114404787D01*
X165676542Y-114373707D01*
X165675000Y-114342324D01*
X165675000Y-113157676D01*
X165676542Y-113126293D01*
X165681152Y-113095213D01*
X165688787Y-113064734D01*
X165699372Y-113035150D01*
X165712806Y-113006746D01*
X165728959Y-112979796D01*
X165747677Y-112954558D01*
X165768777Y-112931277D01*
X165792058Y-112910177D01*
X165817296Y-112891459D01*
X165844246Y-112875306D01*
X165872650Y-112861872D01*
X165902234Y-112851287D01*
X165932713Y-112843652D01*
X165963793Y-112839042D01*
X165995176Y-112837500D01*
X167504824Y-112837500D01*
X167536207Y-112839042D01*
G37*
G36*
X166861207Y-103676542D02*
G01*
X166892287Y-103681152D01*
X166922766Y-103688787D01*
X166952350Y-103699372D01*
X166980754Y-103712806D01*
X167007704Y-103728959D01*
X167032942Y-103747677D01*
X167056223Y-103768777D01*
X167077323Y-103792058D01*
X167096041Y-103817296D01*
X167112194Y-103844246D01*
X167125628Y-103872650D01*
X167136213Y-103902234D01*
X167143848Y-103932713D01*
X167148458Y-103963793D01*
X167150000Y-103995176D01*
X167150000Y-105504824D01*
X167148458Y-105536207D01*
X167143848Y-105567287D01*
X167136213Y-105597766D01*
X167125628Y-105627350D01*
X167112194Y-105655754D01*
X167096041Y-105682704D01*
X167077323Y-105707942D01*
X167056223Y-105731223D01*
X167032942Y-105752323D01*
X167007704Y-105771041D01*
X166980754Y-105787194D01*
X166952350Y-105800628D01*
X166922766Y-105811213D01*
X166892287Y-105818848D01*
X166861207Y-105823458D01*
X166829824Y-105825000D01*
X165645176Y-105825000D01*
X165613793Y-105823458D01*
X165582713Y-105818848D01*
X165552234Y-105811213D01*
X165522650Y-105800628D01*
X165494246Y-105787194D01*
X165467296Y-105771041D01*
X165442058Y-105752323D01*
X165418777Y-105731223D01*
X165397677Y-105707942D01*
X165378959Y-105682704D01*
X165362806Y-105655754D01*
X165349372Y-105627350D01*
X165338787Y-105597766D01*
X165331152Y-105567287D01*
X165326542Y-105536207D01*
X165325000Y-105504824D01*
X165325000Y-103995176D01*
X165326542Y-103963793D01*
X165331152Y-103932713D01*
X165338787Y-103902234D01*
X165349372Y-103872650D01*
X165362806Y-103844246D01*
X165378959Y-103817296D01*
X165397677Y-103792058D01*
X165418777Y-103768777D01*
X165442058Y-103747677D01*
X165467296Y-103728959D01*
X165494246Y-103712806D01*
X165522650Y-103699372D01*
X165552234Y-103688787D01*
X165582713Y-103681152D01*
X165613793Y-103676542D01*
X165645176Y-103675000D01*
X166829824Y-103675000D01*
X166861207Y-103676542D01*
G37*
G36*
X163886207Y-103676542D02*
G01*
X163917287Y-103681152D01*
X163947766Y-103688787D01*
X163977350Y-103699372D01*
X164005754Y-103712806D01*
X164032704Y-103728959D01*
X164057942Y-103747677D01*
X164081223Y-103768777D01*
X164102323Y-103792058D01*
X164121041Y-103817296D01*
X164137194Y-103844246D01*
X164150628Y-103872650D01*
X164161213Y-103902234D01*
X164168848Y-103932713D01*
X164173458Y-103963793D01*
X164175000Y-103995176D01*
X164175000Y-105504824D01*
X164173458Y-105536207D01*
X164168848Y-105567287D01*
X164161213Y-105597766D01*
X164150628Y-105627350D01*
X164137194Y-105655754D01*
X164121041Y-105682704D01*
X164102323Y-105707942D01*
X164081223Y-105731223D01*
X164057942Y-105752323D01*
X164032704Y-105771041D01*
X164005754Y-105787194D01*
X163977350Y-105800628D01*
X163947766Y-105811213D01*
X163917287Y-105818848D01*
X163886207Y-105823458D01*
X163854824Y-105825000D01*
X162670176Y-105825000D01*
X162638793Y-105823458D01*
X162607713Y-105818848D01*
X162577234Y-105811213D01*
X162547650Y-105800628D01*
X162519246Y-105787194D01*
X162492296Y-105771041D01*
X162467058Y-105752323D01*
X162443777Y-105731223D01*
X162422677Y-105707942D01*
X162403959Y-105682704D01*
X162387806Y-105655754D01*
X162374372Y-105627350D01*
X162363787Y-105597766D01*
X162356152Y-105567287D01*
X162351542Y-105536207D01*
X162350000Y-105504824D01*
X162350000Y-103995176D01*
X162351542Y-103963793D01*
X162356152Y-103932713D01*
X162363787Y-103902234D01*
X162374372Y-103872650D01*
X162387806Y-103844246D01*
X162403959Y-103817296D01*
X162422677Y-103792058D01*
X162443777Y-103768777D01*
X162467058Y-103747677D01*
X162492296Y-103728959D01*
X162519246Y-103712806D01*
X162547650Y-103699372D01*
X162577234Y-103688787D01*
X162607713Y-103681152D01*
X162638793Y-103676542D01*
X162670176Y-103675000D01*
X163854824Y-103675000D01*
X163886207Y-103676542D01*
G37*
G36*
X159045581Y-96201625D02*
G01*
X159078343Y-96206485D01*
X159110471Y-96214533D01*
X159141656Y-96225691D01*
X159171596Y-96239852D01*
X159200005Y-96256879D01*
X159226608Y-96276609D01*
X159251149Y-96298851D01*
X159273391Y-96323392D01*
X159293121Y-96349995D01*
X159310148Y-96378404D01*
X159324309Y-96408344D01*
X159335467Y-96439529D01*
X159343515Y-96471657D01*
X159348375Y-96504419D01*
X159350000Y-96537500D01*
X159350000Y-97312500D01*
X159348375Y-97345581D01*
X159343515Y-97378343D01*
X159335467Y-97410471D01*
X159324309Y-97441656D01*
X159310148Y-97471596D01*
X159293121Y-97500005D01*
X159273391Y-97526608D01*
X159251149Y-97551149D01*
X159226608Y-97573391D01*
X159200005Y-97593121D01*
X159171596Y-97610148D01*
X159141656Y-97624309D01*
X159110471Y-97635467D01*
X159078343Y-97643515D01*
X159045581Y-97648375D01*
X159012500Y-97650000D01*
X158337500Y-97650000D01*
X158304419Y-97648375D01*
X158271657Y-97643515D01*
X158239529Y-97635467D01*
X158208344Y-97624309D01*
X158178404Y-97610148D01*
X158149995Y-97593121D01*
X158123392Y-97573391D01*
X158098851Y-97551149D01*
X158076609Y-97526608D01*
X158056879Y-97500005D01*
X158039852Y-97471596D01*
X158025691Y-97441656D01*
X158014533Y-97410471D01*
X158006485Y-97378343D01*
X158001625Y-97345581D01*
X158000000Y-97312500D01*
X158000000Y-96537500D01*
X158001625Y-96504419D01*
X158006485Y-96471657D01*
X158014533Y-96439529D01*
X158025691Y-96408344D01*
X158039852Y-96378404D01*
X158056879Y-96349995D01*
X158076609Y-96323392D01*
X158098851Y-96298851D01*
X158123392Y-96276609D01*
X158149995Y-96256879D01*
X158178404Y-96239852D01*
X158208344Y-96225691D01*
X158239529Y-96214533D01*
X158271657Y-96206485D01*
X158304419Y-96201625D01*
X158337500Y-96200000D01*
X159012500Y-96200000D01*
X159045581Y-96201625D01*
G37*
G36*
X159045581Y-97951625D02*
G01*
X159078343Y-97956485D01*
X159110471Y-97964533D01*
X159141656Y-97975691D01*
X159171596Y-97989852D01*
X159200005Y-98006879D01*
X159226608Y-98026609D01*
X159251149Y-98048851D01*
X159273391Y-98073392D01*
X159293121Y-98099995D01*
X159310148Y-98128404D01*
X159324309Y-98158344D01*
X159335467Y-98189529D01*
X159343515Y-98221657D01*
X159348375Y-98254419D01*
X159350000Y-98287500D01*
X159350000Y-99062500D01*
X159348375Y-99095581D01*
X159343515Y-99128343D01*
X159335467Y-99160471D01*
X159324309Y-99191656D01*
X159310148Y-99221596D01*
X159293121Y-99250005D01*
X159273391Y-99276608D01*
X159251149Y-99301149D01*
X159226608Y-99323391D01*
X159200005Y-99343121D01*
X159171596Y-99360148D01*
X159141656Y-99374309D01*
X159110471Y-99385467D01*
X159078343Y-99393515D01*
X159045581Y-99398375D01*
X159012500Y-99400000D01*
X158337500Y-99400000D01*
X158304419Y-99398375D01*
X158271657Y-99393515D01*
X158239529Y-99385467D01*
X158208344Y-99374309D01*
X158178404Y-99360148D01*
X158149995Y-99343121D01*
X158123392Y-99323391D01*
X158098851Y-99301149D01*
X158076609Y-99276608D01*
X158056879Y-99250005D01*
X158039852Y-99221596D01*
X158025691Y-99191656D01*
X158014533Y-99160471D01*
X158006485Y-99128343D01*
X158001625Y-99095581D01*
X158000000Y-99062500D01*
X158000000Y-98287500D01*
X158001625Y-98254419D01*
X158006485Y-98221657D01*
X158014533Y-98189529D01*
X158025691Y-98158344D01*
X158039852Y-98128404D01*
X158056879Y-98099995D01*
X158076609Y-98073392D01*
X158098851Y-98048851D01*
X158123392Y-98026609D01*
X158149995Y-98006879D01*
X158178404Y-97989852D01*
X158208344Y-97975691D01*
X158239529Y-97964533D01*
X158271657Y-97956485D01*
X158304419Y-97951625D01*
X158337500Y-97950000D01*
X159012500Y-97950000D01*
X159045581Y-97951625D01*
G37*
G36*
X159045581Y-94076625D02*
G01*
X159078343Y-94081485D01*
X159110471Y-94089533D01*
X159141656Y-94100691D01*
X159171596Y-94114852D01*
X159200005Y-94131879D01*
X159226608Y-94151609D01*
X159251149Y-94173851D01*
X159273391Y-94198392D01*
X159293121Y-94224995D01*
X159310148Y-94253404D01*
X159324309Y-94283344D01*
X159335467Y-94314529D01*
X159343515Y-94346657D01*
X159348375Y-94379419D01*
X159350000Y-94412500D01*
X159350000Y-95087500D01*
X159348375Y-95120581D01*
X159343515Y-95153343D01*
X159335467Y-95185471D01*
X159324309Y-95216656D01*
X159310148Y-95246596D01*
X159293121Y-95275005D01*
X159273391Y-95301608D01*
X159251149Y-95326149D01*
X159226608Y-95348391D01*
X159200005Y-95368121D01*
X159171596Y-95385148D01*
X159141656Y-95399309D01*
X159110471Y-95410467D01*
X159078343Y-95418515D01*
X159045581Y-95423375D01*
X159012500Y-95425000D01*
X158237500Y-95425000D01*
X158204419Y-95423375D01*
X158171657Y-95418515D01*
X158139529Y-95410467D01*
X158108344Y-95399309D01*
X158078404Y-95385148D01*
X158049995Y-95368121D01*
X158023392Y-95348391D01*
X157998851Y-95326149D01*
X157976609Y-95301608D01*
X157956879Y-95275005D01*
X157939852Y-95246596D01*
X157925691Y-95216656D01*
X157914533Y-95185471D01*
X157906485Y-95153343D01*
X157901625Y-95120581D01*
X157900000Y-95087500D01*
X157900000Y-94412500D01*
X157901625Y-94379419D01*
X157906485Y-94346657D01*
X157914533Y-94314529D01*
X157925691Y-94283344D01*
X157939852Y-94253404D01*
X157956879Y-94224995D01*
X157976609Y-94198392D01*
X157998851Y-94173851D01*
X158023392Y-94151609D01*
X158049995Y-94131879D01*
X158078404Y-94114852D01*
X158108344Y-94100691D01*
X158139529Y-94089533D01*
X158171657Y-94081485D01*
X158204419Y-94076625D01*
X158237500Y-94075000D01*
X159012500Y-94075000D01*
X159045581Y-94076625D01*
G37*
G36*
X157295581Y-94076625D02*
G01*
X157328343Y-94081485D01*
X157360471Y-94089533D01*
X157391656Y-94100691D01*
X157421596Y-94114852D01*
X157450005Y-94131879D01*
X157476608Y-94151609D01*
X157501149Y-94173851D01*
X157523391Y-94198392D01*
X157543121Y-94224995D01*
X157560148Y-94253404D01*
X157574309Y-94283344D01*
X157585467Y-94314529D01*
X157593515Y-94346657D01*
X157598375Y-94379419D01*
X157600000Y-94412500D01*
X157600000Y-95087500D01*
X157598375Y-95120581D01*
X157593515Y-95153343D01*
X157585467Y-95185471D01*
X157574309Y-95216656D01*
X157560148Y-95246596D01*
X157543121Y-95275005D01*
X157523391Y-95301608D01*
X157501149Y-95326149D01*
X157476608Y-95348391D01*
X157450005Y-95368121D01*
X157421596Y-95385148D01*
X157391656Y-95399309D01*
X157360471Y-95410467D01*
X157328343Y-95418515D01*
X157295581Y-95423375D01*
X157262500Y-95425000D01*
X156487500Y-95425000D01*
X156454419Y-95423375D01*
X156421657Y-95418515D01*
X156389529Y-95410467D01*
X156358344Y-95399309D01*
X156328404Y-95385148D01*
X156299995Y-95368121D01*
X156273392Y-95348391D01*
X156248851Y-95326149D01*
X156226609Y-95301608D01*
X156206879Y-95275005D01*
X156189852Y-95246596D01*
X156175691Y-95216656D01*
X156164533Y-95185471D01*
X156156485Y-95153343D01*
X156151625Y-95120581D01*
X156150000Y-95087500D01*
X156150000Y-94412500D01*
X156151625Y-94379419D01*
X156156485Y-94346657D01*
X156164533Y-94314529D01*
X156175691Y-94283344D01*
X156189852Y-94253404D01*
X156206879Y-94224995D01*
X156226609Y-94198392D01*
X156248851Y-94173851D01*
X156273392Y-94151609D01*
X156299995Y-94131879D01*
X156328404Y-94114852D01*
X156358344Y-94100691D01*
X156389529Y-94089533D01*
X156421657Y-94081485D01*
X156454419Y-94076625D01*
X156487500Y-94075000D01*
X157262500Y-94075000D01*
X157295581Y-94076625D01*
G37*
D17*
X169750000Y-105750000D03*
D18*
X169750000Y-108290000D03*
X169750000Y-110830000D03*
X169750000Y-113370000D03*
D19*
X155350000Y-114650000D03*
X153350000Y-115600000D03*
X153350000Y-113700000D03*
D10*
G36*
X159693888Y-116949398D02*
G01*
X159675466Y-116949398D01*
X159655860Y-116948435D01*
X159607029Y-116943625D01*
X159587620Y-116940746D01*
X159539495Y-116931174D01*
X159520452Y-116926404D01*
X159473497Y-116912160D01*
X159455020Y-116905549D01*
X159409687Y-116886772D01*
X159391939Y-116878377D01*
X159348666Y-116855246D01*
X159331838Y-116845160D01*
X159291039Y-116817900D01*
X159275270Y-116806205D01*
X159237341Y-116775077D01*
X159222800Y-116761897D01*
X159188103Y-116727200D01*
X159174923Y-116712659D01*
X159143795Y-116674730D01*
X159132100Y-116658961D01*
X159104840Y-116618162D01*
X159094754Y-116601334D01*
X159071623Y-116558061D01*
X159063228Y-116540313D01*
X159044451Y-116494980D01*
X159037840Y-116476503D01*
X159023596Y-116429548D01*
X159018826Y-116410505D01*
X159009254Y-116362380D01*
X159006375Y-116342971D01*
X159001565Y-116294140D01*
X159000602Y-116274534D01*
X159000602Y-116256112D01*
X159000000Y-116250000D01*
X159000000Y-115750000D01*
X159000602Y-115743888D01*
X159000602Y-115725466D01*
X159001565Y-115705860D01*
X159006375Y-115657029D01*
X159009254Y-115637620D01*
X159018826Y-115589495D01*
X159023596Y-115570452D01*
X159037840Y-115523497D01*
X159044451Y-115505020D01*
X159063228Y-115459687D01*
X159071623Y-115441939D01*
X159094754Y-115398666D01*
X159104840Y-115381838D01*
X159132100Y-115341039D01*
X159143795Y-115325270D01*
X159174923Y-115287341D01*
X159188103Y-115272800D01*
X159222800Y-115238103D01*
X159237341Y-115224923D01*
X159275270Y-115193795D01*
X159291039Y-115182100D01*
X159331838Y-115154840D01*
X159348666Y-115144754D01*
X159391939Y-115121623D01*
X159409687Y-115113228D01*
X159455020Y-115094451D01*
X159473497Y-115087840D01*
X159520452Y-115073596D01*
X159539495Y-115068826D01*
X159587620Y-115059254D01*
X159607029Y-115056375D01*
X159655860Y-115051565D01*
X159675466Y-115050602D01*
X159693888Y-115050602D01*
X159700000Y-115050000D01*
X160200000Y-115050000D01*
X160239018Y-115053843D01*
X160276537Y-115065224D01*
X160311114Y-115083706D01*
X160341421Y-115108579D01*
X160366294Y-115138886D01*
X160384776Y-115173463D01*
X160396157Y-115210982D01*
X160400000Y-115250000D01*
X160400000Y-116750000D01*
X160396157Y-116789018D01*
X160384776Y-116826537D01*
X160366294Y-116861114D01*
X160341421Y-116891421D01*
X160311114Y-116916294D01*
X160276537Y-116934776D01*
X160239018Y-116946157D01*
X160200000Y-116950000D01*
X159700000Y-116950000D01*
X159693888Y-116949398D01*
G37*
G36*
X160460982Y-116946157D02*
G01*
X160423463Y-116934776D01*
X160388886Y-116916294D01*
X160358579Y-116891421D01*
X160333706Y-116861114D01*
X160315224Y-116826537D01*
X160303843Y-116789018D01*
X160300000Y-116750000D01*
X160300000Y-115250000D01*
X160303843Y-115210982D01*
X160315224Y-115173463D01*
X160333706Y-115138886D01*
X160358579Y-115108579D01*
X160388886Y-115083706D01*
X160423463Y-115065224D01*
X160460982Y-115053843D01*
X160500000Y-115050000D01*
X161000000Y-115050000D01*
X161006112Y-115050602D01*
X161024534Y-115050602D01*
X161044140Y-115051565D01*
X161092971Y-115056375D01*
X161112380Y-115059254D01*
X161160505Y-115068826D01*
X161179548Y-115073596D01*
X161226503Y-115087840D01*
X161244980Y-115094451D01*
X161290313Y-115113228D01*
X161308061Y-115121623D01*
X161351334Y-115144754D01*
X161368162Y-115154840D01*
X161408961Y-115182100D01*
X161424730Y-115193795D01*
X161462659Y-115224923D01*
X161477200Y-115238103D01*
X161511897Y-115272800D01*
X161525077Y-115287341D01*
X161556205Y-115325270D01*
X161567900Y-115341039D01*
X161595160Y-115381838D01*
X161605246Y-115398666D01*
X161628377Y-115441939D01*
X161636772Y-115459687D01*
X161655549Y-115505020D01*
X161662160Y-115523497D01*
X161676404Y-115570452D01*
X161681174Y-115589495D01*
X161690746Y-115637620D01*
X161693625Y-115657029D01*
X161698435Y-115705860D01*
X161699398Y-115725466D01*
X161699398Y-115743888D01*
X161700000Y-115750000D01*
X161700000Y-116250000D01*
X161699398Y-116256112D01*
X161699398Y-116274534D01*
X161698435Y-116294140D01*
X161693625Y-116342971D01*
X161690746Y-116362380D01*
X161681174Y-116410505D01*
X161676404Y-116429548D01*
X161662160Y-116476503D01*
X161655549Y-116494980D01*
X161636772Y-116540313D01*
X161628377Y-116558061D01*
X161605246Y-116601334D01*
X161595160Y-116618162D01*
X161567900Y-116658961D01*
X161556205Y-116674730D01*
X161525077Y-116712659D01*
X161511897Y-116727200D01*
X161477200Y-116761897D01*
X161462659Y-116775077D01*
X161424730Y-116806205D01*
X161408961Y-116817900D01*
X161368162Y-116845160D01*
X161351334Y-116855246D01*
X161308061Y-116878377D01*
X161290313Y-116886772D01*
X161244980Y-116905549D01*
X161226503Y-116912160D01*
X161179548Y-116926404D01*
X161160505Y-116931174D01*
X161112380Y-116940746D01*
X161092971Y-116943625D01*
X161044140Y-116948435D01*
X161024534Y-116949398D01*
X161006112Y-116949398D01*
X161000000Y-116950000D01*
X160500000Y-116950000D01*
X160460982Y-116946157D01*
G37*
G36*
X161170581Y-112801625D02*
G01*
X161203343Y-112806485D01*
X161235471Y-112814533D01*
X161266656Y-112825691D01*
X161296596Y-112839852D01*
X161325005Y-112856879D01*
X161351608Y-112876609D01*
X161376149Y-112898851D01*
X161398391Y-112923392D01*
X161418121Y-112949995D01*
X161435148Y-112978404D01*
X161449309Y-113008344D01*
X161460467Y-113039529D01*
X161468515Y-113071657D01*
X161473375Y-113104419D01*
X161475000Y-113137500D01*
X161475000Y-113912500D01*
X161473375Y-113945581D01*
X161468515Y-113978343D01*
X161460467Y-114010471D01*
X161449309Y-114041656D01*
X161435148Y-114071596D01*
X161418121Y-114100005D01*
X161398391Y-114126608D01*
X161376149Y-114151149D01*
X161351608Y-114173391D01*
X161325005Y-114193121D01*
X161296596Y-114210148D01*
X161266656Y-114224309D01*
X161235471Y-114235467D01*
X161203343Y-114243515D01*
X161170581Y-114248375D01*
X161137500Y-114250000D01*
X160462500Y-114250000D01*
X160429419Y-114248375D01*
X160396657Y-114243515D01*
X160364529Y-114235467D01*
X160333344Y-114224309D01*
X160303404Y-114210148D01*
X160274995Y-114193121D01*
X160248392Y-114173391D01*
X160223851Y-114151149D01*
X160201609Y-114126608D01*
X160181879Y-114100005D01*
X160164852Y-114071596D01*
X160150691Y-114041656D01*
X160139533Y-114010471D01*
X160131485Y-113978343D01*
X160126625Y-113945581D01*
X160125000Y-113912500D01*
X160125000Y-113137500D01*
X160126625Y-113104419D01*
X160131485Y-113071657D01*
X160139533Y-113039529D01*
X160150691Y-113008344D01*
X160164852Y-112978404D01*
X160181879Y-112949995D01*
X160201609Y-112923392D01*
X160223851Y-112898851D01*
X160248392Y-112876609D01*
X160274995Y-112856879D01*
X160303404Y-112839852D01*
X160333344Y-112825691D01*
X160364529Y-112814533D01*
X160396657Y-112806485D01*
X160429419Y-112801625D01*
X160462500Y-112800000D01*
X161137500Y-112800000D01*
X161170581Y-112801625D01*
G37*
G36*
X161170581Y-111051625D02*
G01*
X161203343Y-111056485D01*
X161235471Y-111064533D01*
X161266656Y-111075691D01*
X161296596Y-111089852D01*
X161325005Y-111106879D01*
X161351608Y-111126609D01*
X161376149Y-111148851D01*
X161398391Y-111173392D01*
X161418121Y-111199995D01*
X161435148Y-111228404D01*
X161449309Y-111258344D01*
X161460467Y-111289529D01*
X161468515Y-111321657D01*
X161473375Y-111354419D01*
X161475000Y-111387500D01*
X161475000Y-112162500D01*
X161473375Y-112195581D01*
X161468515Y-112228343D01*
X161460467Y-112260471D01*
X161449309Y-112291656D01*
X161435148Y-112321596D01*
X161418121Y-112350005D01*
X161398391Y-112376608D01*
X161376149Y-112401149D01*
X161351608Y-112423391D01*
X161325005Y-112443121D01*
X161296596Y-112460148D01*
X161266656Y-112474309D01*
X161235471Y-112485467D01*
X161203343Y-112493515D01*
X161170581Y-112498375D01*
X161137500Y-112500000D01*
X160462500Y-112500000D01*
X160429419Y-112498375D01*
X160396657Y-112493515D01*
X160364529Y-112485467D01*
X160333344Y-112474309D01*
X160303404Y-112460148D01*
X160274995Y-112443121D01*
X160248392Y-112423391D01*
X160223851Y-112401149D01*
X160201609Y-112376608D01*
X160181879Y-112350005D01*
X160164852Y-112321596D01*
X160150691Y-112291656D01*
X160139533Y-112260471D01*
X160131485Y-112228343D01*
X160126625Y-112195581D01*
X160125000Y-112162500D01*
X160125000Y-111387500D01*
X160126625Y-111354419D01*
X160131485Y-111321657D01*
X160139533Y-111289529D01*
X160150691Y-111258344D01*
X160164852Y-111228404D01*
X160181879Y-111199995D01*
X160201609Y-111173392D01*
X160223851Y-111148851D01*
X160248392Y-111126609D01*
X160274995Y-111106879D01*
X160303404Y-111089852D01*
X160333344Y-111075691D01*
X160364529Y-111064533D01*
X160396657Y-111056485D01*
X160429419Y-111051625D01*
X160462500Y-111050000D01*
X161137500Y-111050000D01*
X161170581Y-111051625D01*
G37*
G36*
X159370581Y-112801625D02*
G01*
X159403343Y-112806485D01*
X159435471Y-112814533D01*
X159466656Y-112825691D01*
X159496596Y-112839852D01*
X159525005Y-112856879D01*
X159551608Y-112876609D01*
X159576149Y-112898851D01*
X159598391Y-112923392D01*
X159618121Y-112949995D01*
X159635148Y-112978404D01*
X159649309Y-113008344D01*
X159660467Y-113039529D01*
X159668515Y-113071657D01*
X159673375Y-113104419D01*
X159675000Y-113137500D01*
X159675000Y-113912500D01*
X159673375Y-113945581D01*
X159668515Y-113978343D01*
X159660467Y-114010471D01*
X159649309Y-114041656D01*
X159635148Y-114071596D01*
X159618121Y-114100005D01*
X159598391Y-114126608D01*
X159576149Y-114151149D01*
X159551608Y-114173391D01*
X159525005Y-114193121D01*
X159496596Y-114210148D01*
X159466656Y-114224309D01*
X159435471Y-114235467D01*
X159403343Y-114243515D01*
X159370581Y-114248375D01*
X159337500Y-114250000D01*
X158662500Y-114250000D01*
X158629419Y-114248375D01*
X158596657Y-114243515D01*
X158564529Y-114235467D01*
X158533344Y-114224309D01*
X158503404Y-114210148D01*
X158474995Y-114193121D01*
X158448392Y-114173391D01*
X158423851Y-114151149D01*
X158401609Y-114126608D01*
X158381879Y-114100005D01*
X158364852Y-114071596D01*
X158350691Y-114041656D01*
X158339533Y-114010471D01*
X158331485Y-113978343D01*
X158326625Y-113945581D01*
X158325000Y-113912500D01*
X158325000Y-113137500D01*
X158326625Y-113104419D01*
X158331485Y-113071657D01*
X158339533Y-113039529D01*
X158350691Y-113008344D01*
X158364852Y-112978404D01*
X158381879Y-112949995D01*
X158401609Y-112923392D01*
X158423851Y-112898851D01*
X158448392Y-112876609D01*
X158474995Y-112856879D01*
X158503404Y-112839852D01*
X158533344Y-112825691D01*
X158564529Y-112814533D01*
X158596657Y-112806485D01*
X158629419Y-112801625D01*
X158662500Y-112800000D01*
X159337500Y-112800000D01*
X159370581Y-112801625D01*
G37*
G36*
X159370581Y-111051625D02*
G01*
X159403343Y-111056485D01*
X159435471Y-111064533D01*
X159466656Y-111075691D01*
X159496596Y-111089852D01*
X159525005Y-111106879D01*
X159551608Y-111126609D01*
X159576149Y-111148851D01*
X159598391Y-111173392D01*
X159618121Y-111199995D01*
X159635148Y-111228404D01*
X159649309Y-111258344D01*
X159660467Y-111289529D01*
X159668515Y-111321657D01*
X159673375Y-111354419D01*
X159675000Y-111387500D01*
X159675000Y-112162500D01*
X159673375Y-112195581D01*
X159668515Y-112228343D01*
X159660467Y-112260471D01*
X159649309Y-112291656D01*
X159635148Y-112321596D01*
X159618121Y-112350005D01*
X159598391Y-112376608D01*
X159576149Y-112401149D01*
X159551608Y-112423391D01*
X159525005Y-112443121D01*
X159496596Y-112460148D01*
X159466656Y-112474309D01*
X159435471Y-112485467D01*
X159403343Y-112493515D01*
X159370581Y-112498375D01*
X159337500Y-112500000D01*
X158662500Y-112500000D01*
X158629419Y-112498375D01*
X158596657Y-112493515D01*
X158564529Y-112485467D01*
X158533344Y-112474309D01*
X158503404Y-112460148D01*
X158474995Y-112443121D01*
X158448392Y-112423391D01*
X158423851Y-112401149D01*
X158401609Y-112376608D01*
X158381879Y-112350005D01*
X158364852Y-112321596D01*
X158350691Y-112291656D01*
X158339533Y-112260471D01*
X158331485Y-112228343D01*
X158326625Y-112195581D01*
X158325000Y-112162500D01*
X158325000Y-111387500D01*
X158326625Y-111354419D01*
X158331485Y-111321657D01*
X158339533Y-111289529D01*
X158350691Y-111258344D01*
X158364852Y-111228404D01*
X158381879Y-111199995D01*
X158401609Y-111173392D01*
X158423851Y-111148851D01*
X158448392Y-111126609D01*
X158474995Y-111106879D01*
X158503404Y-111089852D01*
X158533344Y-111075691D01*
X158564529Y-111064533D01*
X158596657Y-111056485D01*
X158629419Y-111051625D01*
X158662500Y-111050000D01*
X159337500Y-111050000D01*
X159370581Y-111051625D01*
G37*
D20*
X147000000Y-79000000D03*
X171000000Y-79000000D03*
X147000000Y-121000000D03*
X171000000Y-121000000D03*
M02*
