M48
; DRILL file {KiCad (5.1.5-0)} date Friday, April 01, 2022 at 01:26:57 PM
; FORMAT={-:-/ absolute / metric / decimal}
; #@! TF.CreationDate,2022-04-01T13:26:57-06:00
; #@! TF.GenerationSoftware,Kicad,Pcbnew,(5.1.5-0)
; #@! TF.FileFunction,Plated,1,2,PTH
FMAT,2
METRIC
T1C0.400
T2C0.840
T3C1.000
T4C3.500
%
G90
G05
T1
X137.15Y-80.65
X137.15Y-89.65
X137.15Y-98.45
X137.15Y-107.85
X137.95Y-81.65
X137.95Y-90.55
X137.95Y-99.45
X137.95Y-101.55
X138.65Y-111.55
X138.95Y-82.65
X138.95Y-91.55
X138.95Y-100.45
X140.05Y-100.55
X140.75Y-115.65
X149.75Y-112.65
X150.85Y-106.45
X157.25Y-99.35
X160.75Y-89.25
X160.75Y-92.25
X162.75Y-101.25
X163.75Y-89.25
X163.75Y-92.25
X168.45Y-90.15
X168.45Y-93.65
X168.45Y-98.35
X171.25Y-86.75
X171.25Y-94.85
X172.15Y-87.65
X172.15Y-95.85
T2
X132.28Y-114.18
X132.28Y-116.72
X133.55Y-115.45
X134.82Y-114.18
X134.82Y-116.72
T3
X169.75Y-105.75
X169.75Y-108.29
X169.75Y-110.83
X169.75Y-113.37
X150.25Y-85.05
X152.79Y-85.05
X155.33Y-85.05
X157.87Y-85.05
X160.41Y-85.05
X162.95Y-85.05
T4
X147.0Y-79.0
X171.0Y-79.0
X147.0Y-121.0
X171.0Y-121.0
T0
M30
