%FSLAX45Y45*%
G04 Gerber Fmt 4.5, Leading zero omitted, Abs format (unit mm)*
G04 Created by KiCad (PCBNEW (5.1.5-0)) date 2022-04-01 13:26:58*
%MOMM*%
%LPD*%
G04 APERTURE LIST*
%TA.AperFunction,Profile*%
%ADD10C,0.150000*%
%TD*%
%ADD11C,0.200000*%
%ADD12C,0.300000*%
G04 APERTURE END LIST*
D10*
X17500000Y-7500000D02*
X13000000Y-7500000D01*
X17500000Y-12500000D02*
X17500000Y-7500000D01*
X13000000Y-12500000D02*
X17500000Y-12500000D01*
X13000000Y-7500000D02*
X13000000Y-12500000D01*
D11*
X13695000Y-8045000D02*
X13735000Y-8085000D01*
X13735000Y-8045000D02*
X13695000Y-8085000D01*
X13695000Y-8945000D02*
X13735000Y-8985000D01*
X13735000Y-8945000D02*
X13695000Y-8985000D01*
X13695000Y-9825000D02*
X13735000Y-9865000D01*
X13735000Y-9825000D02*
X13695000Y-9865000D01*
X13695000Y-10765000D02*
X13735000Y-10805000D01*
X13735000Y-10765000D02*
X13695000Y-10805000D01*
X13775000Y-8145000D02*
X13815000Y-8185000D01*
X13815000Y-8145000D02*
X13775000Y-8185000D01*
X13775000Y-9035000D02*
X13815000Y-9075000D01*
X13815000Y-9035000D02*
X13775000Y-9075000D01*
X13775000Y-9925000D02*
X13815000Y-9965000D01*
X13815000Y-9925000D02*
X13775000Y-9965000D01*
X13775000Y-10135000D02*
X13815000Y-10175000D01*
X13815000Y-10135000D02*
X13775000Y-10175000D01*
X13845000Y-11135000D02*
X13885000Y-11175000D01*
X13885000Y-11135000D02*
X13845000Y-11175000D01*
X13875000Y-8245000D02*
X13915000Y-8285000D01*
X13915000Y-8245000D02*
X13875000Y-8285000D01*
X13875000Y-9135000D02*
X13915000Y-9175000D01*
X13915000Y-9135000D02*
X13875000Y-9175000D01*
X13875000Y-10025000D02*
X13915000Y-10065000D01*
X13915000Y-10025000D02*
X13875000Y-10065000D01*
X13985000Y-10035000D02*
X14025000Y-10075000D01*
X14025000Y-10035000D02*
X13985000Y-10075000D01*
X14055000Y-11545000D02*
X14095000Y-11585000D01*
X14095000Y-11545000D02*
X14055000Y-11585000D01*
X14955000Y-11245000D02*
X14995000Y-11285000D01*
X14995000Y-11245000D02*
X14955000Y-11285000D01*
X15065000Y-10625000D02*
X15105000Y-10665000D01*
X15105000Y-10625000D02*
X15065000Y-10665000D01*
X15705000Y-9915000D02*
X15745000Y-9955000D01*
X15745000Y-9915000D02*
X15705000Y-9955000D01*
X16055000Y-8905000D02*
X16095000Y-8945000D01*
X16095000Y-8905000D02*
X16055000Y-8945000D01*
X16055000Y-9205000D02*
X16095000Y-9245000D01*
X16095000Y-9205000D02*
X16055000Y-9245000D01*
X16255000Y-10105000D02*
X16295000Y-10145000D01*
X16295000Y-10105000D02*
X16255000Y-10145000D01*
X16355000Y-8905000D02*
X16395000Y-8945000D01*
X16395000Y-8905000D02*
X16355000Y-8945000D01*
X16355000Y-9205000D02*
X16395000Y-9245000D01*
X16395000Y-9205000D02*
X16355000Y-9245000D01*
X16825000Y-8995000D02*
X16865000Y-9035000D01*
X16865000Y-8995000D02*
X16825000Y-9035000D01*
X16825000Y-9345000D02*
X16865000Y-9385000D01*
X16865000Y-9345000D02*
X16825000Y-9385000D01*
X16825000Y-9815000D02*
X16865000Y-9855000D01*
X16865000Y-9815000D02*
X16825000Y-9855000D01*
X17105000Y-8655000D02*
X17145000Y-8695000D01*
X17145000Y-8655000D02*
X17105000Y-8695000D01*
X17105000Y-9465000D02*
X17145000Y-9505000D01*
X17145000Y-9465000D02*
X17105000Y-9505000D01*
X17195000Y-8745000D02*
X17235000Y-8785000D01*
X17235000Y-8745000D02*
X17195000Y-8785000D01*
X17195000Y-9565000D02*
X17235000Y-9605000D01*
X17235000Y-9565000D02*
X17195000Y-9605000D01*
X13270000Y-11418000D02*
G75*
G03X13270000Y-11418000I-42000J0D01*
G01*
X13270000Y-11672000D02*
G75*
G03X13270000Y-11672000I-42000J0D01*
G01*
X13397000Y-11545000D02*
G75*
G03X13397000Y-11545000I-42000J0D01*
G01*
X13524000Y-11418000D02*
G75*
G03X13524000Y-11418000I-42000J0D01*
G01*
X13524000Y-11672000D02*
G75*
G03X13524000Y-11672000I-42000J0D01*
G01*
X16975000Y-10525000D02*
X16975000Y-10625000D01*
X16925000Y-10575000D02*
X17025000Y-10575000D01*
X16975000Y-10779000D02*
X16975000Y-10879000D01*
X16925000Y-10829000D02*
X17025000Y-10829000D01*
X16975000Y-11033000D02*
X16975000Y-11133000D01*
X16925000Y-11083000D02*
X17025000Y-11083000D01*
X16975000Y-11287000D02*
X16975000Y-11387000D01*
X16925000Y-11337000D02*
X17025000Y-11337000D01*
X15025000Y-8455000D02*
X15025000Y-8555000D01*
X14975000Y-8505000D02*
X15075000Y-8505000D01*
X15279000Y-8455000D02*
X15279000Y-8555000D01*
X15229000Y-8505000D02*
X15329000Y-8505000D01*
X15533000Y-8455000D02*
X15533000Y-8555000D01*
X15483000Y-8505000D02*
X15583000Y-8505000D01*
X15787000Y-8455000D02*
X15787000Y-8555000D01*
X15737000Y-8505000D02*
X15837000Y-8505000D01*
X16041000Y-8455000D02*
X16041000Y-8555000D01*
X15991000Y-8505000D02*
X16091000Y-8505000D01*
X16295000Y-8455000D02*
X16295000Y-8555000D01*
X16245000Y-8505000D02*
X16345000Y-8505000D01*
X14823745Y-8023745D02*
X14823745Y-7776255D01*
X14576255Y-7776255D01*
X14576255Y-8023745D01*
X14823745Y-8023745D01*
X17223745Y-8023745D02*
X17223745Y-7776255D01*
X16976255Y-7776255D01*
X16976255Y-8023745D01*
X17223745Y-8023745D01*
X14823745Y-12223745D02*
X14823745Y-11976255D01*
X14576255Y-11976255D01*
X14576255Y-12223745D01*
X14823745Y-12223745D01*
X17223745Y-12223745D02*
X17223745Y-11976255D01*
X16976255Y-11976255D01*
X16976255Y-12223745D01*
X17223745Y-12223745D01*
D12*
X13278928Y-12973214D02*
X13278928Y-12673214D01*
X13350357Y-12673214D01*
X13393214Y-12687500D01*
X13421786Y-12716071D01*
X13436071Y-12744643D01*
X13450357Y-12801786D01*
X13450357Y-12844643D01*
X13436071Y-12901786D01*
X13421786Y-12930357D01*
X13393214Y-12958929D01*
X13350357Y-12973214D01*
X13278928Y-12973214D01*
X13578928Y-12973214D02*
X13578928Y-12773214D01*
X13578928Y-12830357D02*
X13593214Y-12801786D01*
X13607500Y-12787500D01*
X13636071Y-12773214D01*
X13664643Y-12773214D01*
X13764643Y-12973214D02*
X13764643Y-12773214D01*
X13764643Y-12673214D02*
X13750357Y-12687500D01*
X13764643Y-12701786D01*
X13778928Y-12687500D01*
X13764643Y-12673214D01*
X13764643Y-12701786D01*
X13950357Y-12973214D02*
X13921786Y-12958929D01*
X13907500Y-12930357D01*
X13907500Y-12673214D01*
X14107500Y-12973214D02*
X14078928Y-12958929D01*
X14064643Y-12930357D01*
X14064643Y-12673214D01*
X14450357Y-12973214D02*
X14450357Y-12673214D01*
X14550357Y-12887500D01*
X14650357Y-12673214D01*
X14650357Y-12973214D01*
X14921786Y-12973214D02*
X14921786Y-12816071D01*
X14907500Y-12787500D01*
X14878928Y-12773214D01*
X14821786Y-12773214D01*
X14793214Y-12787500D01*
X14921786Y-12958929D02*
X14893214Y-12973214D01*
X14821786Y-12973214D01*
X14793214Y-12958929D01*
X14778928Y-12930357D01*
X14778928Y-12901786D01*
X14793214Y-12873214D01*
X14821786Y-12858929D01*
X14893214Y-12858929D01*
X14921786Y-12844643D01*
X15064643Y-12773214D02*
X15064643Y-13073214D01*
X15064643Y-12787500D02*
X15093214Y-12773214D01*
X15150357Y-12773214D01*
X15178928Y-12787500D01*
X15193214Y-12801786D01*
X15207500Y-12830357D01*
X15207500Y-12916071D01*
X15193214Y-12944643D01*
X15178928Y-12958929D01*
X15150357Y-12973214D01*
X15093214Y-12973214D01*
X15064643Y-12958929D01*
X15336071Y-12944643D02*
X15350357Y-12958929D01*
X15336071Y-12973214D01*
X15321786Y-12958929D01*
X15336071Y-12944643D01*
X15336071Y-12973214D01*
X15336071Y-12787500D02*
X15350357Y-12801786D01*
X15336071Y-12816071D01*
X15321786Y-12801786D01*
X15336071Y-12787500D01*
X15336071Y-12816071D01*
X12952500Y-13447500D02*
X12992500Y-13487500D01*
X12992500Y-13447500D02*
X12952500Y-13487500D01*
X13336071Y-13303214D02*
X13364643Y-13303214D01*
X13393214Y-13317500D01*
X13407500Y-13331786D01*
X13421786Y-13360357D01*
X13436071Y-13417500D01*
X13436071Y-13488929D01*
X13421786Y-13546071D01*
X13407500Y-13574643D01*
X13393214Y-13588929D01*
X13364643Y-13603214D01*
X13336071Y-13603214D01*
X13307500Y-13588929D01*
X13293214Y-13574643D01*
X13278928Y-13546071D01*
X13264643Y-13488929D01*
X13264643Y-13417500D01*
X13278928Y-13360357D01*
X13293214Y-13331786D01*
X13307500Y-13317500D01*
X13336071Y-13303214D01*
X13564643Y-13574643D02*
X13578928Y-13588929D01*
X13564643Y-13603214D01*
X13550357Y-13588929D01*
X13564643Y-13574643D01*
X13564643Y-13603214D01*
X13836071Y-13403214D02*
X13836071Y-13603214D01*
X13764643Y-13288929D02*
X13693214Y-13503214D01*
X13878928Y-13503214D01*
X14050357Y-13303214D02*
X14078928Y-13303214D01*
X14107500Y-13317500D01*
X14121786Y-13331786D01*
X14136071Y-13360357D01*
X14150357Y-13417500D01*
X14150357Y-13488929D01*
X14136071Y-13546071D01*
X14121786Y-13574643D01*
X14107500Y-13588929D01*
X14078928Y-13603214D01*
X14050357Y-13603214D01*
X14021786Y-13588929D01*
X14007500Y-13574643D01*
X13993214Y-13546071D01*
X13978928Y-13488929D01*
X13978928Y-13417500D01*
X13993214Y-13360357D01*
X14007500Y-13331786D01*
X14021786Y-13317500D01*
X14050357Y-13303214D01*
X14278928Y-13603214D02*
X14278928Y-13403214D01*
X14278928Y-13431786D02*
X14293214Y-13417500D01*
X14321786Y-13403214D01*
X14364643Y-13403214D01*
X14393214Y-13417500D01*
X14407500Y-13446071D01*
X14407500Y-13603214D01*
X14407500Y-13446071D02*
X14421786Y-13417500D01*
X14450357Y-13403214D01*
X14493214Y-13403214D01*
X14521786Y-13417500D01*
X14536071Y-13446071D01*
X14536071Y-13603214D01*
X14678928Y-13603214D02*
X14678928Y-13403214D01*
X14678928Y-13431786D02*
X14693214Y-13417500D01*
X14721786Y-13403214D01*
X14764643Y-13403214D01*
X14793214Y-13417500D01*
X14807500Y-13446071D01*
X14807500Y-13603214D01*
X14807500Y-13446071D02*
X14821786Y-13417500D01*
X14850357Y-13403214D01*
X14893214Y-13403214D01*
X14921786Y-13417500D01*
X14936071Y-13446071D01*
X14936071Y-13603214D01*
X15521786Y-13288929D02*
X15264643Y-13674643D01*
X15907500Y-13303214D02*
X15936071Y-13303214D01*
X15964643Y-13317500D01*
X15978928Y-13331786D01*
X15993214Y-13360357D01*
X16007500Y-13417500D01*
X16007500Y-13488929D01*
X15993214Y-13546071D01*
X15978928Y-13574643D01*
X15964643Y-13588929D01*
X15936071Y-13603214D01*
X15907500Y-13603214D01*
X15878928Y-13588929D01*
X15864643Y-13574643D01*
X15850357Y-13546071D01*
X15836071Y-13488929D01*
X15836071Y-13417500D01*
X15850357Y-13360357D01*
X15864643Y-13331786D01*
X15878928Y-13317500D01*
X15907500Y-13303214D01*
X16136071Y-13574643D02*
X16150357Y-13588929D01*
X16136071Y-13603214D01*
X16121786Y-13588929D01*
X16136071Y-13574643D01*
X16136071Y-13603214D01*
X16336071Y-13303214D02*
X16364643Y-13303214D01*
X16393214Y-13317500D01*
X16407500Y-13331786D01*
X16421786Y-13360357D01*
X16436071Y-13417500D01*
X16436071Y-13488929D01*
X16421786Y-13546071D01*
X16407500Y-13574643D01*
X16393214Y-13588929D01*
X16364643Y-13603214D01*
X16336071Y-13603214D01*
X16307500Y-13588929D01*
X16293214Y-13574643D01*
X16278928Y-13546071D01*
X16264643Y-13488929D01*
X16264643Y-13417500D01*
X16278928Y-13360357D01*
X16293214Y-13331786D01*
X16307500Y-13317500D01*
X16336071Y-13303214D01*
X16721786Y-13603214D02*
X16550357Y-13603214D01*
X16636071Y-13603214D02*
X16636071Y-13303214D01*
X16607500Y-13346071D01*
X16578928Y-13374643D01*
X16550357Y-13388929D01*
X16978928Y-13303214D02*
X16921786Y-13303214D01*
X16893214Y-13317500D01*
X16878928Y-13331786D01*
X16850357Y-13374643D01*
X16836071Y-13431786D01*
X16836071Y-13546071D01*
X16850357Y-13574643D01*
X16864643Y-13588929D01*
X16893214Y-13603214D01*
X16950357Y-13603214D01*
X16978928Y-13588929D01*
X16993214Y-13574643D01*
X17007500Y-13546071D01*
X17007500Y-13474643D01*
X16993214Y-13446071D01*
X16978928Y-13431786D01*
X16950357Y-13417500D01*
X16893214Y-13417500D01*
X16864643Y-13431786D01*
X16850357Y-13446071D01*
X16836071Y-13474643D01*
X17121786Y-13303214D02*
X17121786Y-13360357D01*
X17236071Y-13303214D02*
X17236071Y-13360357D01*
X17678928Y-13717500D02*
X17664643Y-13703214D01*
X17636071Y-13660357D01*
X17621786Y-13631786D01*
X17607500Y-13588929D01*
X17593214Y-13517500D01*
X17593214Y-13460357D01*
X17607500Y-13388929D01*
X17621786Y-13346071D01*
X17636071Y-13317500D01*
X17664643Y-13274643D01*
X17678928Y-13260357D01*
X17778928Y-13331786D02*
X17793214Y-13317500D01*
X17821786Y-13303214D01*
X17893214Y-13303214D01*
X17921786Y-13317500D01*
X17936071Y-13331786D01*
X17950357Y-13360357D01*
X17950357Y-13388929D01*
X17936071Y-13431786D01*
X17764643Y-13603214D01*
X17950357Y-13603214D01*
X18093214Y-13603214D02*
X18150357Y-13603214D01*
X18178928Y-13588929D01*
X18193214Y-13574643D01*
X18221786Y-13531786D01*
X18236071Y-13474643D01*
X18236071Y-13360357D01*
X18221786Y-13331786D01*
X18207500Y-13317500D01*
X18178928Y-13303214D01*
X18121786Y-13303214D01*
X18093214Y-13317500D01*
X18078928Y-13331786D01*
X18064643Y-13360357D01*
X18064643Y-13431786D01*
X18078928Y-13460357D01*
X18093214Y-13474643D01*
X18121786Y-13488929D01*
X18178928Y-13488929D01*
X18207500Y-13474643D01*
X18221786Y-13460357D01*
X18236071Y-13431786D01*
X18593214Y-13603214D02*
X18593214Y-13303214D01*
X18721786Y-13603214D02*
X18721786Y-13446071D01*
X18707500Y-13417500D01*
X18678928Y-13403214D01*
X18636071Y-13403214D01*
X18607500Y-13417500D01*
X18593214Y-13431786D01*
X18907500Y-13603214D02*
X18878928Y-13588929D01*
X18864643Y-13574643D01*
X18850357Y-13546071D01*
X18850357Y-13460357D01*
X18864643Y-13431786D01*
X18878928Y-13417500D01*
X18907500Y-13403214D01*
X18950357Y-13403214D01*
X18978928Y-13417500D01*
X18993214Y-13431786D01*
X19007500Y-13460357D01*
X19007500Y-13546071D01*
X18993214Y-13574643D01*
X18978928Y-13588929D01*
X18950357Y-13603214D01*
X18907500Y-13603214D01*
X19178928Y-13603214D02*
X19150357Y-13588929D01*
X19136071Y-13560357D01*
X19136071Y-13303214D01*
X19407500Y-13588929D02*
X19378928Y-13603214D01*
X19321786Y-13603214D01*
X19293214Y-13588929D01*
X19278928Y-13560357D01*
X19278928Y-13446071D01*
X19293214Y-13417500D01*
X19321786Y-13403214D01*
X19378928Y-13403214D01*
X19407500Y-13417500D01*
X19421786Y-13446071D01*
X19421786Y-13474643D01*
X19278928Y-13503214D01*
X19536071Y-13588929D02*
X19564643Y-13603214D01*
X19621786Y-13603214D01*
X19650357Y-13588929D01*
X19664643Y-13560357D01*
X19664643Y-13546071D01*
X19650357Y-13517500D01*
X19621786Y-13503214D01*
X19578928Y-13503214D01*
X19550357Y-13488929D01*
X19536071Y-13460357D01*
X19536071Y-13446071D01*
X19550357Y-13417500D01*
X19578928Y-13403214D01*
X19621786Y-13403214D01*
X19650357Y-13417500D01*
X19764643Y-13717500D02*
X19778928Y-13703214D01*
X19807500Y-13660357D01*
X19821786Y-13631786D01*
X19836071Y-13588929D01*
X19850357Y-13517500D01*
X19850357Y-13460357D01*
X19836071Y-13388929D01*
X19821786Y-13346071D01*
X19807500Y-13317500D01*
X19778928Y-13274643D01*
X19764643Y-13260357D01*
X12992500Y-13863500D02*
G75*
G03X12992500Y-13863500I-42000J0D01*
G01*
X13336071Y-13699214D02*
X13364643Y-13699214D01*
X13393214Y-13713500D01*
X13407500Y-13727786D01*
X13421786Y-13756357D01*
X13436071Y-13813500D01*
X13436071Y-13884929D01*
X13421786Y-13942071D01*
X13407500Y-13970643D01*
X13393214Y-13984929D01*
X13364643Y-13999214D01*
X13336071Y-13999214D01*
X13307500Y-13984929D01*
X13293214Y-13970643D01*
X13278928Y-13942071D01*
X13264643Y-13884929D01*
X13264643Y-13813500D01*
X13278928Y-13756357D01*
X13293214Y-13727786D01*
X13307500Y-13713500D01*
X13336071Y-13699214D01*
X13564643Y-13970643D02*
X13578928Y-13984929D01*
X13564643Y-13999214D01*
X13550357Y-13984929D01*
X13564643Y-13970643D01*
X13564643Y-13999214D01*
X13750357Y-13827786D02*
X13721786Y-13813500D01*
X13707500Y-13799214D01*
X13693214Y-13770643D01*
X13693214Y-13756357D01*
X13707500Y-13727786D01*
X13721786Y-13713500D01*
X13750357Y-13699214D01*
X13807500Y-13699214D01*
X13836071Y-13713500D01*
X13850357Y-13727786D01*
X13864643Y-13756357D01*
X13864643Y-13770643D01*
X13850357Y-13799214D01*
X13836071Y-13813500D01*
X13807500Y-13827786D01*
X13750357Y-13827786D01*
X13721786Y-13842071D01*
X13707500Y-13856357D01*
X13693214Y-13884929D01*
X13693214Y-13942071D01*
X13707500Y-13970643D01*
X13721786Y-13984929D01*
X13750357Y-13999214D01*
X13807500Y-13999214D01*
X13836071Y-13984929D01*
X13850357Y-13970643D01*
X13864643Y-13942071D01*
X13864643Y-13884929D01*
X13850357Y-13856357D01*
X13836071Y-13842071D01*
X13807500Y-13827786D01*
X14121786Y-13799214D02*
X14121786Y-13999214D01*
X14050357Y-13684929D02*
X13978928Y-13899214D01*
X14164643Y-13899214D01*
X14278928Y-13999214D02*
X14278928Y-13799214D01*
X14278928Y-13827786D02*
X14293214Y-13813500D01*
X14321786Y-13799214D01*
X14364643Y-13799214D01*
X14393214Y-13813500D01*
X14407500Y-13842071D01*
X14407500Y-13999214D01*
X14407500Y-13842071D02*
X14421786Y-13813500D01*
X14450357Y-13799214D01*
X14493214Y-13799214D01*
X14521786Y-13813500D01*
X14536071Y-13842071D01*
X14536071Y-13999214D01*
X14678928Y-13999214D02*
X14678928Y-13799214D01*
X14678928Y-13827786D02*
X14693214Y-13813500D01*
X14721786Y-13799214D01*
X14764643Y-13799214D01*
X14793214Y-13813500D01*
X14807500Y-13842071D01*
X14807500Y-13999214D01*
X14807500Y-13842071D02*
X14821786Y-13813500D01*
X14850357Y-13799214D01*
X14893214Y-13799214D01*
X14921786Y-13813500D01*
X14936071Y-13842071D01*
X14936071Y-13999214D01*
X15521786Y-13684929D02*
X15264643Y-14070643D01*
X15907500Y-13699214D02*
X15936071Y-13699214D01*
X15964643Y-13713500D01*
X15978928Y-13727786D01*
X15993214Y-13756357D01*
X16007500Y-13813500D01*
X16007500Y-13884929D01*
X15993214Y-13942071D01*
X15978928Y-13970643D01*
X15964643Y-13984929D01*
X15936071Y-13999214D01*
X15907500Y-13999214D01*
X15878928Y-13984929D01*
X15864643Y-13970643D01*
X15850357Y-13942071D01*
X15836071Y-13884929D01*
X15836071Y-13813500D01*
X15850357Y-13756357D01*
X15864643Y-13727786D01*
X15878928Y-13713500D01*
X15907500Y-13699214D01*
X16136071Y-13970643D02*
X16150357Y-13984929D01*
X16136071Y-13999214D01*
X16121786Y-13984929D01*
X16136071Y-13970643D01*
X16136071Y-13999214D01*
X16336071Y-13699214D02*
X16364643Y-13699214D01*
X16393214Y-13713500D01*
X16407500Y-13727786D01*
X16421786Y-13756357D01*
X16436071Y-13813500D01*
X16436071Y-13884929D01*
X16421786Y-13942071D01*
X16407500Y-13970643D01*
X16393214Y-13984929D01*
X16364643Y-13999214D01*
X16336071Y-13999214D01*
X16307500Y-13984929D01*
X16293214Y-13970643D01*
X16278928Y-13942071D01*
X16264643Y-13884929D01*
X16264643Y-13813500D01*
X16278928Y-13756357D01*
X16293214Y-13727786D01*
X16307500Y-13713500D01*
X16336071Y-13699214D01*
X16536071Y-13699214D02*
X16721786Y-13699214D01*
X16621786Y-13813500D01*
X16664643Y-13813500D01*
X16693214Y-13827786D01*
X16707500Y-13842071D01*
X16721786Y-13870643D01*
X16721786Y-13942071D01*
X16707500Y-13970643D01*
X16693214Y-13984929D01*
X16664643Y-13999214D01*
X16578928Y-13999214D01*
X16550357Y-13984929D01*
X16536071Y-13970643D01*
X16821786Y-13699214D02*
X17007500Y-13699214D01*
X16907500Y-13813500D01*
X16950357Y-13813500D01*
X16978928Y-13827786D01*
X16993214Y-13842071D01*
X17007500Y-13870643D01*
X17007500Y-13942071D01*
X16993214Y-13970643D01*
X16978928Y-13984929D01*
X16950357Y-13999214D01*
X16864643Y-13999214D01*
X16836071Y-13984929D01*
X16821786Y-13970643D01*
X17121786Y-13699214D02*
X17121786Y-13756357D01*
X17236071Y-13699214D02*
X17236071Y-13756357D01*
X17678928Y-14113500D02*
X17664643Y-14099214D01*
X17636071Y-14056357D01*
X17621786Y-14027786D01*
X17607500Y-13984929D01*
X17593214Y-13913500D01*
X17593214Y-13856357D01*
X17607500Y-13784929D01*
X17621786Y-13742071D01*
X17636071Y-13713500D01*
X17664643Y-13670643D01*
X17678928Y-13656357D01*
X17936071Y-13699214D02*
X17793214Y-13699214D01*
X17778928Y-13842071D01*
X17793214Y-13827786D01*
X17821786Y-13813500D01*
X17893214Y-13813500D01*
X17921786Y-13827786D01*
X17936071Y-13842071D01*
X17950357Y-13870643D01*
X17950357Y-13942071D01*
X17936071Y-13970643D01*
X17921786Y-13984929D01*
X17893214Y-13999214D01*
X17821786Y-13999214D01*
X17793214Y-13984929D01*
X17778928Y-13970643D01*
X18307500Y-13999214D02*
X18307500Y-13699214D01*
X18436071Y-13999214D02*
X18436071Y-13842071D01*
X18421786Y-13813500D01*
X18393214Y-13799214D01*
X18350357Y-13799214D01*
X18321786Y-13813500D01*
X18307500Y-13827786D01*
X18621786Y-13999214D02*
X18593214Y-13984929D01*
X18578928Y-13970643D01*
X18564643Y-13942071D01*
X18564643Y-13856357D01*
X18578928Y-13827786D01*
X18593214Y-13813500D01*
X18621786Y-13799214D01*
X18664643Y-13799214D01*
X18693214Y-13813500D01*
X18707500Y-13827786D01*
X18721786Y-13856357D01*
X18721786Y-13942071D01*
X18707500Y-13970643D01*
X18693214Y-13984929D01*
X18664643Y-13999214D01*
X18621786Y-13999214D01*
X18893214Y-13999214D02*
X18864643Y-13984929D01*
X18850357Y-13956357D01*
X18850357Y-13699214D01*
X19121786Y-13984929D02*
X19093214Y-13999214D01*
X19036071Y-13999214D01*
X19007500Y-13984929D01*
X18993214Y-13956357D01*
X18993214Y-13842071D01*
X19007500Y-13813500D01*
X19036071Y-13799214D01*
X19093214Y-13799214D01*
X19121786Y-13813500D01*
X19136071Y-13842071D01*
X19136071Y-13870643D01*
X18993214Y-13899214D01*
X19250357Y-13984929D02*
X19278928Y-13999214D01*
X19336071Y-13999214D01*
X19364643Y-13984929D01*
X19378928Y-13956357D01*
X19378928Y-13942071D01*
X19364643Y-13913500D01*
X19336071Y-13899214D01*
X19293214Y-13899214D01*
X19264643Y-13884929D01*
X19250357Y-13856357D01*
X19250357Y-13842071D01*
X19264643Y-13813500D01*
X19293214Y-13799214D01*
X19336071Y-13799214D01*
X19364643Y-13813500D01*
X19478928Y-14113500D02*
X19493214Y-14099214D01*
X19521786Y-14056357D01*
X19536071Y-14027786D01*
X19550357Y-13984929D01*
X19564643Y-13913500D01*
X19564643Y-13856357D01*
X19550357Y-13784929D01*
X19536071Y-13742071D01*
X19521786Y-13713500D01*
X19493214Y-13670643D01*
X19478928Y-13656357D01*
X12942500Y-14209500D02*
X12942500Y-14309500D01*
X12892500Y-14259500D02*
X12992500Y-14259500D01*
X13436071Y-14395214D02*
X13264643Y-14395214D01*
X13350357Y-14395214D02*
X13350357Y-14095214D01*
X13321786Y-14138071D01*
X13293214Y-14166643D01*
X13264643Y-14180929D01*
X13564643Y-14366643D02*
X13578928Y-14380929D01*
X13564643Y-14395214D01*
X13550357Y-14380929D01*
X13564643Y-14366643D01*
X13564643Y-14395214D01*
X13764643Y-14095214D02*
X13793214Y-14095214D01*
X13821786Y-14109500D01*
X13836071Y-14123786D01*
X13850357Y-14152357D01*
X13864643Y-14209500D01*
X13864643Y-14280929D01*
X13850357Y-14338071D01*
X13836071Y-14366643D01*
X13821786Y-14380929D01*
X13793214Y-14395214D01*
X13764643Y-14395214D01*
X13736071Y-14380929D01*
X13721786Y-14366643D01*
X13707500Y-14338071D01*
X13693214Y-14280929D01*
X13693214Y-14209500D01*
X13707500Y-14152357D01*
X13721786Y-14123786D01*
X13736071Y-14109500D01*
X13764643Y-14095214D01*
X14050357Y-14095214D02*
X14078928Y-14095214D01*
X14107500Y-14109500D01*
X14121786Y-14123786D01*
X14136071Y-14152357D01*
X14150357Y-14209500D01*
X14150357Y-14280929D01*
X14136071Y-14338071D01*
X14121786Y-14366643D01*
X14107500Y-14380929D01*
X14078928Y-14395214D01*
X14050357Y-14395214D01*
X14021786Y-14380929D01*
X14007500Y-14366643D01*
X13993214Y-14338071D01*
X13978928Y-14280929D01*
X13978928Y-14209500D01*
X13993214Y-14152357D01*
X14007500Y-14123786D01*
X14021786Y-14109500D01*
X14050357Y-14095214D01*
X14278928Y-14395214D02*
X14278928Y-14195214D01*
X14278928Y-14223786D02*
X14293214Y-14209500D01*
X14321786Y-14195214D01*
X14364643Y-14195214D01*
X14393214Y-14209500D01*
X14407500Y-14238071D01*
X14407500Y-14395214D01*
X14407500Y-14238071D02*
X14421786Y-14209500D01*
X14450357Y-14195214D01*
X14493214Y-14195214D01*
X14521786Y-14209500D01*
X14536071Y-14238071D01*
X14536071Y-14395214D01*
X14678928Y-14395214D02*
X14678928Y-14195214D01*
X14678928Y-14223786D02*
X14693214Y-14209500D01*
X14721786Y-14195214D01*
X14764643Y-14195214D01*
X14793214Y-14209500D01*
X14807500Y-14238071D01*
X14807500Y-14395214D01*
X14807500Y-14238071D02*
X14821786Y-14209500D01*
X14850357Y-14195214D01*
X14893214Y-14195214D01*
X14921786Y-14209500D01*
X14936071Y-14238071D01*
X14936071Y-14395214D01*
X15521786Y-14080929D02*
X15264643Y-14466643D01*
X15907500Y-14095214D02*
X15936071Y-14095214D01*
X15964643Y-14109500D01*
X15978928Y-14123786D01*
X15993214Y-14152357D01*
X16007500Y-14209500D01*
X16007500Y-14280929D01*
X15993214Y-14338071D01*
X15978928Y-14366643D01*
X15964643Y-14380929D01*
X15936071Y-14395214D01*
X15907500Y-14395214D01*
X15878928Y-14380929D01*
X15864643Y-14366643D01*
X15850357Y-14338071D01*
X15836071Y-14280929D01*
X15836071Y-14209500D01*
X15850357Y-14152357D01*
X15864643Y-14123786D01*
X15878928Y-14109500D01*
X15907500Y-14095214D01*
X16136071Y-14366643D02*
X16150357Y-14380929D01*
X16136071Y-14395214D01*
X16121786Y-14380929D01*
X16136071Y-14366643D01*
X16136071Y-14395214D01*
X16336071Y-14095214D02*
X16364643Y-14095214D01*
X16393214Y-14109500D01*
X16407500Y-14123786D01*
X16421786Y-14152357D01*
X16436071Y-14209500D01*
X16436071Y-14280929D01*
X16421786Y-14338071D01*
X16407500Y-14366643D01*
X16393214Y-14380929D01*
X16364643Y-14395214D01*
X16336071Y-14395214D01*
X16307500Y-14380929D01*
X16293214Y-14366643D01*
X16278928Y-14338071D01*
X16264643Y-14280929D01*
X16264643Y-14209500D01*
X16278928Y-14152357D01*
X16293214Y-14123786D01*
X16307500Y-14109500D01*
X16336071Y-14095214D01*
X16536071Y-14095214D02*
X16721786Y-14095214D01*
X16621786Y-14209500D01*
X16664643Y-14209500D01*
X16693214Y-14223786D01*
X16707500Y-14238071D01*
X16721786Y-14266643D01*
X16721786Y-14338071D01*
X16707500Y-14366643D01*
X16693214Y-14380929D01*
X16664643Y-14395214D01*
X16578928Y-14395214D01*
X16550357Y-14380929D01*
X16536071Y-14366643D01*
X16864643Y-14395214D02*
X16921786Y-14395214D01*
X16950357Y-14380929D01*
X16964643Y-14366643D01*
X16993214Y-14323786D01*
X17007500Y-14266643D01*
X17007500Y-14152357D01*
X16993214Y-14123786D01*
X16978928Y-14109500D01*
X16950357Y-14095214D01*
X16893214Y-14095214D01*
X16864643Y-14109500D01*
X16850357Y-14123786D01*
X16836071Y-14152357D01*
X16836071Y-14223786D01*
X16850357Y-14252357D01*
X16864643Y-14266643D01*
X16893214Y-14280929D01*
X16950357Y-14280929D01*
X16978928Y-14266643D01*
X16993214Y-14252357D01*
X17007500Y-14223786D01*
X17121786Y-14095214D02*
X17121786Y-14152357D01*
X17236071Y-14095214D02*
X17236071Y-14152357D01*
X17678928Y-14509500D02*
X17664643Y-14495214D01*
X17636071Y-14452357D01*
X17621786Y-14423786D01*
X17607500Y-14380929D01*
X17593214Y-14309500D01*
X17593214Y-14252357D01*
X17607500Y-14180929D01*
X17621786Y-14138071D01*
X17636071Y-14109500D01*
X17664643Y-14066643D01*
X17678928Y-14052357D01*
X17950357Y-14395214D02*
X17778928Y-14395214D01*
X17864643Y-14395214D02*
X17864643Y-14095214D01*
X17836071Y-14138071D01*
X17807500Y-14166643D01*
X17778928Y-14180929D01*
X18136071Y-14095214D02*
X18164643Y-14095214D01*
X18193214Y-14109500D01*
X18207500Y-14123786D01*
X18221786Y-14152357D01*
X18236071Y-14209500D01*
X18236071Y-14280929D01*
X18221786Y-14338071D01*
X18207500Y-14366643D01*
X18193214Y-14380929D01*
X18164643Y-14395214D01*
X18136071Y-14395214D01*
X18107500Y-14380929D01*
X18093214Y-14366643D01*
X18078928Y-14338071D01*
X18064643Y-14280929D01*
X18064643Y-14209500D01*
X18078928Y-14152357D01*
X18093214Y-14123786D01*
X18107500Y-14109500D01*
X18136071Y-14095214D01*
X18593214Y-14395214D02*
X18593214Y-14095214D01*
X18721786Y-14395214D02*
X18721786Y-14238071D01*
X18707500Y-14209500D01*
X18678928Y-14195214D01*
X18636071Y-14195214D01*
X18607500Y-14209500D01*
X18593214Y-14223786D01*
X18907500Y-14395214D02*
X18878928Y-14380929D01*
X18864643Y-14366643D01*
X18850357Y-14338071D01*
X18850357Y-14252357D01*
X18864643Y-14223786D01*
X18878928Y-14209500D01*
X18907500Y-14195214D01*
X18950357Y-14195214D01*
X18978928Y-14209500D01*
X18993214Y-14223786D01*
X19007500Y-14252357D01*
X19007500Y-14338071D01*
X18993214Y-14366643D01*
X18978928Y-14380929D01*
X18950357Y-14395214D01*
X18907500Y-14395214D01*
X19178928Y-14395214D02*
X19150357Y-14380929D01*
X19136071Y-14352357D01*
X19136071Y-14095214D01*
X19407500Y-14380929D02*
X19378928Y-14395214D01*
X19321786Y-14395214D01*
X19293214Y-14380929D01*
X19278928Y-14352357D01*
X19278928Y-14238071D01*
X19293214Y-14209500D01*
X19321786Y-14195214D01*
X19378928Y-14195214D01*
X19407500Y-14209500D01*
X19421786Y-14238071D01*
X19421786Y-14266643D01*
X19278928Y-14295214D01*
X19536071Y-14380929D02*
X19564643Y-14395214D01*
X19621786Y-14395214D01*
X19650357Y-14380929D01*
X19664643Y-14352357D01*
X19664643Y-14338071D01*
X19650357Y-14309500D01*
X19621786Y-14295214D01*
X19578928Y-14295214D01*
X19550357Y-14280929D01*
X19536071Y-14252357D01*
X19536071Y-14238071D01*
X19550357Y-14209500D01*
X19578928Y-14195214D01*
X19621786Y-14195214D01*
X19650357Y-14209500D01*
X19764643Y-14509500D02*
X19778928Y-14495214D01*
X19807500Y-14452357D01*
X19821786Y-14423786D01*
X19836071Y-14380929D01*
X19850357Y-14309500D01*
X19850357Y-14252357D01*
X19836071Y-14180929D01*
X19821786Y-14138071D01*
X19807500Y-14109500D01*
X19778928Y-14066643D01*
X19764643Y-14052357D01*
X12941245Y-14779245D02*
X12941245Y-14531755D01*
X12693755Y-14531755D01*
X12693755Y-14779245D01*
X12941245Y-14779245D01*
X13250357Y-14491214D02*
X13436071Y-14491214D01*
X13336071Y-14605500D01*
X13378928Y-14605500D01*
X13407500Y-14619786D01*
X13421786Y-14634071D01*
X13436071Y-14662643D01*
X13436071Y-14734071D01*
X13421786Y-14762643D01*
X13407500Y-14776929D01*
X13378928Y-14791214D01*
X13293214Y-14791214D01*
X13264643Y-14776929D01*
X13250357Y-14762643D01*
X13564643Y-14762643D02*
X13578928Y-14776929D01*
X13564643Y-14791214D01*
X13550357Y-14776929D01*
X13564643Y-14762643D01*
X13564643Y-14791214D01*
X13850357Y-14491214D02*
X13707500Y-14491214D01*
X13693214Y-14634071D01*
X13707500Y-14619786D01*
X13736071Y-14605500D01*
X13807500Y-14605500D01*
X13836071Y-14619786D01*
X13850357Y-14634071D01*
X13864643Y-14662643D01*
X13864643Y-14734071D01*
X13850357Y-14762643D01*
X13836071Y-14776929D01*
X13807500Y-14791214D01*
X13736071Y-14791214D01*
X13707500Y-14776929D01*
X13693214Y-14762643D01*
X14050357Y-14491214D02*
X14078928Y-14491214D01*
X14107500Y-14505500D01*
X14121786Y-14519786D01*
X14136071Y-14548357D01*
X14150357Y-14605500D01*
X14150357Y-14676929D01*
X14136071Y-14734071D01*
X14121786Y-14762643D01*
X14107500Y-14776929D01*
X14078928Y-14791214D01*
X14050357Y-14791214D01*
X14021786Y-14776929D01*
X14007500Y-14762643D01*
X13993214Y-14734071D01*
X13978928Y-14676929D01*
X13978928Y-14605500D01*
X13993214Y-14548357D01*
X14007500Y-14519786D01*
X14021786Y-14505500D01*
X14050357Y-14491214D01*
X14278928Y-14791214D02*
X14278928Y-14591214D01*
X14278928Y-14619786D02*
X14293214Y-14605500D01*
X14321786Y-14591214D01*
X14364643Y-14591214D01*
X14393214Y-14605500D01*
X14407500Y-14634071D01*
X14407500Y-14791214D01*
X14407500Y-14634071D02*
X14421786Y-14605500D01*
X14450357Y-14591214D01*
X14493214Y-14591214D01*
X14521786Y-14605500D01*
X14536071Y-14634071D01*
X14536071Y-14791214D01*
X14678928Y-14791214D02*
X14678928Y-14591214D01*
X14678928Y-14619786D02*
X14693214Y-14605500D01*
X14721786Y-14591214D01*
X14764643Y-14591214D01*
X14793214Y-14605500D01*
X14807500Y-14634071D01*
X14807500Y-14791214D01*
X14807500Y-14634071D02*
X14821786Y-14605500D01*
X14850357Y-14591214D01*
X14893214Y-14591214D01*
X14921786Y-14605500D01*
X14936071Y-14634071D01*
X14936071Y-14791214D01*
X15521786Y-14476929D02*
X15264643Y-14862643D01*
X15907500Y-14491214D02*
X15936071Y-14491214D01*
X15964643Y-14505500D01*
X15978928Y-14519786D01*
X15993214Y-14548357D01*
X16007500Y-14605500D01*
X16007500Y-14676929D01*
X15993214Y-14734071D01*
X15978928Y-14762643D01*
X15964643Y-14776929D01*
X15936071Y-14791214D01*
X15907500Y-14791214D01*
X15878928Y-14776929D01*
X15864643Y-14762643D01*
X15850357Y-14734071D01*
X15836071Y-14676929D01*
X15836071Y-14605500D01*
X15850357Y-14548357D01*
X15864643Y-14519786D01*
X15878928Y-14505500D01*
X15907500Y-14491214D01*
X16136071Y-14762643D02*
X16150357Y-14776929D01*
X16136071Y-14791214D01*
X16121786Y-14776929D01*
X16136071Y-14762643D01*
X16136071Y-14791214D01*
X16436071Y-14791214D02*
X16264643Y-14791214D01*
X16350357Y-14791214D02*
X16350357Y-14491214D01*
X16321786Y-14534071D01*
X16293214Y-14562643D01*
X16264643Y-14576929D01*
X16536071Y-14491214D02*
X16721786Y-14491214D01*
X16621786Y-14605500D01*
X16664643Y-14605500D01*
X16693214Y-14619786D01*
X16707500Y-14634071D01*
X16721786Y-14662643D01*
X16721786Y-14734071D01*
X16707500Y-14762643D01*
X16693214Y-14776929D01*
X16664643Y-14791214D01*
X16578928Y-14791214D01*
X16550357Y-14776929D01*
X16536071Y-14762643D01*
X16893214Y-14619786D02*
X16864643Y-14605500D01*
X16850357Y-14591214D01*
X16836071Y-14562643D01*
X16836071Y-14548357D01*
X16850357Y-14519786D01*
X16864643Y-14505500D01*
X16893214Y-14491214D01*
X16950357Y-14491214D01*
X16978928Y-14505500D01*
X16993214Y-14519786D01*
X17007500Y-14548357D01*
X17007500Y-14562643D01*
X16993214Y-14591214D01*
X16978928Y-14605500D01*
X16950357Y-14619786D01*
X16893214Y-14619786D01*
X16864643Y-14634071D01*
X16850357Y-14648357D01*
X16836071Y-14676929D01*
X16836071Y-14734071D01*
X16850357Y-14762643D01*
X16864643Y-14776929D01*
X16893214Y-14791214D01*
X16950357Y-14791214D01*
X16978928Y-14776929D01*
X16993214Y-14762643D01*
X17007500Y-14734071D01*
X17007500Y-14676929D01*
X16993214Y-14648357D01*
X16978928Y-14634071D01*
X16950357Y-14619786D01*
X17121786Y-14491214D02*
X17121786Y-14548357D01*
X17236071Y-14491214D02*
X17236071Y-14548357D01*
X17678928Y-14905500D02*
X17664643Y-14891214D01*
X17636071Y-14848357D01*
X17621786Y-14819786D01*
X17607500Y-14776929D01*
X17593214Y-14705500D01*
X17593214Y-14648357D01*
X17607500Y-14576929D01*
X17621786Y-14534071D01*
X17636071Y-14505500D01*
X17664643Y-14462643D01*
X17678928Y-14448357D01*
X17921786Y-14591214D02*
X17921786Y-14791214D01*
X17850357Y-14476929D02*
X17778928Y-14691214D01*
X17964643Y-14691214D01*
X18307500Y-14791214D02*
X18307500Y-14491214D01*
X18436071Y-14791214D02*
X18436071Y-14634071D01*
X18421786Y-14605500D01*
X18393214Y-14591214D01*
X18350357Y-14591214D01*
X18321786Y-14605500D01*
X18307500Y-14619786D01*
X18621786Y-14791214D02*
X18593214Y-14776929D01*
X18578928Y-14762643D01*
X18564643Y-14734071D01*
X18564643Y-14648357D01*
X18578928Y-14619786D01*
X18593214Y-14605500D01*
X18621786Y-14591214D01*
X18664643Y-14591214D01*
X18693214Y-14605500D01*
X18707500Y-14619786D01*
X18721786Y-14648357D01*
X18721786Y-14734071D01*
X18707500Y-14762643D01*
X18693214Y-14776929D01*
X18664643Y-14791214D01*
X18621786Y-14791214D01*
X18893214Y-14791214D02*
X18864643Y-14776929D01*
X18850357Y-14748357D01*
X18850357Y-14491214D01*
X19121786Y-14776929D02*
X19093214Y-14791214D01*
X19036071Y-14791214D01*
X19007500Y-14776929D01*
X18993214Y-14748357D01*
X18993214Y-14634071D01*
X19007500Y-14605500D01*
X19036071Y-14591214D01*
X19093214Y-14591214D01*
X19121786Y-14605500D01*
X19136071Y-14634071D01*
X19136071Y-14662643D01*
X18993214Y-14691214D01*
X19250357Y-14776929D02*
X19278928Y-14791214D01*
X19336071Y-14791214D01*
X19364643Y-14776929D01*
X19378928Y-14748357D01*
X19378928Y-14734071D01*
X19364643Y-14705500D01*
X19336071Y-14691214D01*
X19293214Y-14691214D01*
X19264643Y-14676929D01*
X19250357Y-14648357D01*
X19250357Y-14634071D01*
X19264643Y-14605500D01*
X19293214Y-14591214D01*
X19336071Y-14591214D01*
X19364643Y-14605500D01*
X19478928Y-14905500D02*
X19493214Y-14891214D01*
X19521786Y-14848357D01*
X19536071Y-14819786D01*
X19550357Y-14776929D01*
X19564643Y-14705500D01*
X19564643Y-14648357D01*
X19550357Y-14576929D01*
X19536071Y-14534071D01*
X19521786Y-14505500D01*
X19493214Y-14462643D01*
X19478928Y-14448357D01*
M02*
