G04 #@! TF.GenerationSoftware,KiCad,Pcbnew,(5.1.5-0)*
G04 #@! TF.CreationDate,2022-04-01T13:26:54-06:00*
G04 #@! TF.ProjectId,power-two-wire,706f7765-722d-4747-976f-2d776972652e,rev?*
G04 #@! TF.SameCoordinates,Original*
G04 #@! TF.FileFunction,Paste,Top*
G04 #@! TF.FilePolarity,Positive*
%FSLAX46Y46*%
G04 Gerber Fmt 4.6, Leading zero omitted, Abs format (unit mm)*
G04 Created by KiCad (PCBNEW (5.1.5-0)) date 2022-04-01 13:26:54*
%MOMM*%
%LPD*%
G04 APERTURE LIST*
%ADD10C,0.100000*%
%ADD11R,1.060000X0.650000*%
%ADD12R,0.900000X0.800000*%
G04 APERTURE END LIST*
D10*
G36*
X132299505Y-83351204D02*
G01*
X132323773Y-83354804D01*
X132347572Y-83360765D01*
X132370671Y-83369030D01*
X132392850Y-83379520D01*
X132413893Y-83392132D01*
X132433599Y-83406747D01*
X132451777Y-83423223D01*
X132468253Y-83441401D01*
X132482868Y-83461107D01*
X132495480Y-83482150D01*
X132505970Y-83504329D01*
X132514235Y-83527428D01*
X132520196Y-83551227D01*
X132523796Y-83575495D01*
X132525000Y-83599999D01*
X132525000Y-84300001D01*
X132523796Y-84324505D01*
X132520196Y-84348773D01*
X132514235Y-84372572D01*
X132505970Y-84395671D01*
X132495480Y-84417850D01*
X132482868Y-84438893D01*
X132468253Y-84458599D01*
X132451777Y-84476777D01*
X132433599Y-84493253D01*
X132413893Y-84507868D01*
X132392850Y-84520480D01*
X132370671Y-84530970D01*
X132347572Y-84539235D01*
X132323773Y-84545196D01*
X132299505Y-84548796D01*
X132275001Y-84550000D01*
X130974999Y-84550000D01*
X130950495Y-84548796D01*
X130926227Y-84545196D01*
X130902428Y-84539235D01*
X130879329Y-84530970D01*
X130857150Y-84520480D01*
X130836107Y-84507868D01*
X130816401Y-84493253D01*
X130798223Y-84476777D01*
X130781747Y-84458599D01*
X130767132Y-84438893D01*
X130754520Y-84417850D01*
X130744030Y-84395671D01*
X130735765Y-84372572D01*
X130729804Y-84348773D01*
X130726204Y-84324505D01*
X130725000Y-84300001D01*
X130725000Y-83599999D01*
X130726204Y-83575495D01*
X130729804Y-83551227D01*
X130735765Y-83527428D01*
X130744030Y-83504329D01*
X130754520Y-83482150D01*
X130767132Y-83461107D01*
X130781747Y-83441401D01*
X130798223Y-83423223D01*
X130816401Y-83406747D01*
X130836107Y-83392132D01*
X130857150Y-83379520D01*
X130879329Y-83369030D01*
X130902428Y-83360765D01*
X130926227Y-83354804D01*
X130950495Y-83351204D01*
X130974999Y-83350000D01*
X132275001Y-83350000D01*
X132299505Y-83351204D01*
G37*
G36*
X132299505Y-77751204D02*
G01*
X132323773Y-77754804D01*
X132347572Y-77760765D01*
X132370671Y-77769030D01*
X132392850Y-77779520D01*
X132413893Y-77792132D01*
X132433599Y-77806747D01*
X132451777Y-77823223D01*
X132468253Y-77841401D01*
X132482868Y-77861107D01*
X132495480Y-77882150D01*
X132505970Y-77904329D01*
X132514235Y-77927428D01*
X132520196Y-77951227D01*
X132523796Y-77975495D01*
X132525000Y-77999999D01*
X132525000Y-78700001D01*
X132523796Y-78724505D01*
X132520196Y-78748773D01*
X132514235Y-78772572D01*
X132505970Y-78795671D01*
X132495480Y-78817850D01*
X132482868Y-78838893D01*
X132468253Y-78858599D01*
X132451777Y-78876777D01*
X132433599Y-78893253D01*
X132413893Y-78907868D01*
X132392850Y-78920480D01*
X132370671Y-78930970D01*
X132347572Y-78939235D01*
X132323773Y-78945196D01*
X132299505Y-78948796D01*
X132275001Y-78950000D01*
X130974999Y-78950000D01*
X130950495Y-78948796D01*
X130926227Y-78945196D01*
X130902428Y-78939235D01*
X130879329Y-78930970D01*
X130857150Y-78920480D01*
X130836107Y-78907868D01*
X130816401Y-78893253D01*
X130798223Y-78876777D01*
X130781747Y-78858599D01*
X130767132Y-78838893D01*
X130754520Y-78817850D01*
X130744030Y-78795671D01*
X130735765Y-78772572D01*
X130729804Y-78748773D01*
X130726204Y-78724505D01*
X130725000Y-78700001D01*
X130725000Y-77999999D01*
X130726204Y-77975495D01*
X130729804Y-77951227D01*
X130735765Y-77927428D01*
X130744030Y-77904329D01*
X130754520Y-77882150D01*
X130767132Y-77861107D01*
X130781747Y-77841401D01*
X130798223Y-77823223D01*
X130816401Y-77806747D01*
X130836107Y-77792132D01*
X130857150Y-77779520D01*
X130879329Y-77769030D01*
X130902428Y-77760765D01*
X130926227Y-77754804D01*
X130950495Y-77751204D01*
X130974999Y-77750000D01*
X132275001Y-77750000D01*
X132299505Y-77751204D01*
G37*
G36*
X136139703Y-82350722D02*
G01*
X136154264Y-82352882D01*
X136168543Y-82356459D01*
X136182403Y-82361418D01*
X136195710Y-82367712D01*
X136208336Y-82375280D01*
X136220159Y-82384048D01*
X136231066Y-82393934D01*
X136240952Y-82404841D01*
X136249720Y-82416664D01*
X136257288Y-82429290D01*
X136263582Y-82442597D01*
X136268541Y-82456457D01*
X136272118Y-82470736D01*
X136274278Y-82485297D01*
X136275000Y-82500000D01*
X136275000Y-82800000D01*
X136274278Y-82814703D01*
X136272118Y-82829264D01*
X136268541Y-82843543D01*
X136263582Y-82857403D01*
X136257288Y-82870710D01*
X136249720Y-82883336D01*
X136240952Y-82895159D01*
X136231066Y-82906066D01*
X136220159Y-82915952D01*
X136208336Y-82924720D01*
X136195710Y-82932288D01*
X136182403Y-82938582D01*
X136168543Y-82943541D01*
X136154264Y-82947118D01*
X136139703Y-82949278D01*
X136125000Y-82950000D01*
X134875000Y-82950000D01*
X134860297Y-82949278D01*
X134845736Y-82947118D01*
X134831457Y-82943541D01*
X134817597Y-82938582D01*
X134804290Y-82932288D01*
X134791664Y-82924720D01*
X134779841Y-82915952D01*
X134768934Y-82906066D01*
X134759048Y-82895159D01*
X134750280Y-82883336D01*
X134742712Y-82870710D01*
X134736418Y-82857403D01*
X134731459Y-82843543D01*
X134727882Y-82829264D01*
X134725722Y-82814703D01*
X134725000Y-82800000D01*
X134725000Y-82500000D01*
X134725722Y-82485297D01*
X134727882Y-82470736D01*
X134731459Y-82456457D01*
X134736418Y-82442597D01*
X134742712Y-82429290D01*
X134750280Y-82416664D01*
X134759048Y-82404841D01*
X134768934Y-82393934D01*
X134779841Y-82384048D01*
X134791664Y-82375280D01*
X134804290Y-82367712D01*
X134817597Y-82361418D01*
X134831457Y-82356459D01*
X134845736Y-82352882D01*
X134860297Y-82350722D01*
X134875000Y-82350000D01*
X136125000Y-82350000D01*
X136139703Y-82350722D01*
G37*
G36*
X136139703Y-81350722D02*
G01*
X136154264Y-81352882D01*
X136168543Y-81356459D01*
X136182403Y-81361418D01*
X136195710Y-81367712D01*
X136208336Y-81375280D01*
X136220159Y-81384048D01*
X136231066Y-81393934D01*
X136240952Y-81404841D01*
X136249720Y-81416664D01*
X136257288Y-81429290D01*
X136263582Y-81442597D01*
X136268541Y-81456457D01*
X136272118Y-81470736D01*
X136274278Y-81485297D01*
X136275000Y-81500000D01*
X136275000Y-81800000D01*
X136274278Y-81814703D01*
X136272118Y-81829264D01*
X136268541Y-81843543D01*
X136263582Y-81857403D01*
X136257288Y-81870710D01*
X136249720Y-81883336D01*
X136240952Y-81895159D01*
X136231066Y-81906066D01*
X136220159Y-81915952D01*
X136208336Y-81924720D01*
X136195710Y-81932288D01*
X136182403Y-81938582D01*
X136168543Y-81943541D01*
X136154264Y-81947118D01*
X136139703Y-81949278D01*
X136125000Y-81950000D01*
X134875000Y-81950000D01*
X134860297Y-81949278D01*
X134845736Y-81947118D01*
X134831457Y-81943541D01*
X134817597Y-81938582D01*
X134804290Y-81932288D01*
X134791664Y-81924720D01*
X134779841Y-81915952D01*
X134768934Y-81906066D01*
X134759048Y-81895159D01*
X134750280Y-81883336D01*
X134742712Y-81870710D01*
X134736418Y-81857403D01*
X134731459Y-81843543D01*
X134727882Y-81829264D01*
X134725722Y-81814703D01*
X134725000Y-81800000D01*
X134725000Y-81500000D01*
X134725722Y-81485297D01*
X134727882Y-81470736D01*
X134731459Y-81456457D01*
X134736418Y-81442597D01*
X134742712Y-81429290D01*
X134750280Y-81416664D01*
X134759048Y-81404841D01*
X134768934Y-81393934D01*
X134779841Y-81384048D01*
X134791664Y-81375280D01*
X134804290Y-81367712D01*
X134817597Y-81361418D01*
X134831457Y-81356459D01*
X134845736Y-81352882D01*
X134860297Y-81350722D01*
X134875000Y-81350000D01*
X136125000Y-81350000D01*
X136139703Y-81350722D01*
G37*
G36*
X136139703Y-80350722D02*
G01*
X136154264Y-80352882D01*
X136168543Y-80356459D01*
X136182403Y-80361418D01*
X136195710Y-80367712D01*
X136208336Y-80375280D01*
X136220159Y-80384048D01*
X136231066Y-80393934D01*
X136240952Y-80404841D01*
X136249720Y-80416664D01*
X136257288Y-80429290D01*
X136263582Y-80442597D01*
X136268541Y-80456457D01*
X136272118Y-80470736D01*
X136274278Y-80485297D01*
X136275000Y-80500000D01*
X136275000Y-80800000D01*
X136274278Y-80814703D01*
X136272118Y-80829264D01*
X136268541Y-80843543D01*
X136263582Y-80857403D01*
X136257288Y-80870710D01*
X136249720Y-80883336D01*
X136240952Y-80895159D01*
X136231066Y-80906066D01*
X136220159Y-80915952D01*
X136208336Y-80924720D01*
X136195710Y-80932288D01*
X136182403Y-80938582D01*
X136168543Y-80943541D01*
X136154264Y-80947118D01*
X136139703Y-80949278D01*
X136125000Y-80950000D01*
X134875000Y-80950000D01*
X134860297Y-80949278D01*
X134845736Y-80947118D01*
X134831457Y-80943541D01*
X134817597Y-80938582D01*
X134804290Y-80932288D01*
X134791664Y-80924720D01*
X134779841Y-80915952D01*
X134768934Y-80906066D01*
X134759048Y-80895159D01*
X134750280Y-80883336D01*
X134742712Y-80870710D01*
X134736418Y-80857403D01*
X134731459Y-80843543D01*
X134727882Y-80829264D01*
X134725722Y-80814703D01*
X134725000Y-80800000D01*
X134725000Y-80500000D01*
X134725722Y-80485297D01*
X134727882Y-80470736D01*
X134731459Y-80456457D01*
X134736418Y-80442597D01*
X134742712Y-80429290D01*
X134750280Y-80416664D01*
X134759048Y-80404841D01*
X134768934Y-80393934D01*
X134779841Y-80384048D01*
X134791664Y-80375280D01*
X134804290Y-80367712D01*
X134817597Y-80361418D01*
X134831457Y-80356459D01*
X134845736Y-80352882D01*
X134860297Y-80350722D01*
X134875000Y-80350000D01*
X136125000Y-80350000D01*
X136139703Y-80350722D01*
G37*
G36*
X136139703Y-79350722D02*
G01*
X136154264Y-79352882D01*
X136168543Y-79356459D01*
X136182403Y-79361418D01*
X136195710Y-79367712D01*
X136208336Y-79375280D01*
X136220159Y-79384048D01*
X136231066Y-79393934D01*
X136240952Y-79404841D01*
X136249720Y-79416664D01*
X136257288Y-79429290D01*
X136263582Y-79442597D01*
X136268541Y-79456457D01*
X136272118Y-79470736D01*
X136274278Y-79485297D01*
X136275000Y-79500000D01*
X136275000Y-79800000D01*
X136274278Y-79814703D01*
X136272118Y-79829264D01*
X136268541Y-79843543D01*
X136263582Y-79857403D01*
X136257288Y-79870710D01*
X136249720Y-79883336D01*
X136240952Y-79895159D01*
X136231066Y-79906066D01*
X136220159Y-79915952D01*
X136208336Y-79924720D01*
X136195710Y-79932288D01*
X136182403Y-79938582D01*
X136168543Y-79943541D01*
X136154264Y-79947118D01*
X136139703Y-79949278D01*
X136125000Y-79950000D01*
X134875000Y-79950000D01*
X134860297Y-79949278D01*
X134845736Y-79947118D01*
X134831457Y-79943541D01*
X134817597Y-79938582D01*
X134804290Y-79932288D01*
X134791664Y-79924720D01*
X134779841Y-79915952D01*
X134768934Y-79906066D01*
X134759048Y-79895159D01*
X134750280Y-79883336D01*
X134742712Y-79870710D01*
X134736418Y-79857403D01*
X134731459Y-79843543D01*
X134727882Y-79829264D01*
X134725722Y-79814703D01*
X134725000Y-79800000D01*
X134725000Y-79500000D01*
X134725722Y-79485297D01*
X134727882Y-79470736D01*
X134731459Y-79456457D01*
X134736418Y-79442597D01*
X134742712Y-79429290D01*
X134750280Y-79416664D01*
X134759048Y-79404841D01*
X134768934Y-79393934D01*
X134779841Y-79384048D01*
X134791664Y-79375280D01*
X134804290Y-79367712D01*
X134817597Y-79361418D01*
X134831457Y-79356459D01*
X134845736Y-79352882D01*
X134860297Y-79350722D01*
X134875000Y-79350000D01*
X136125000Y-79350000D01*
X136139703Y-79350722D01*
G37*
G36*
X132199505Y-92301204D02*
G01*
X132223773Y-92304804D01*
X132247572Y-92310765D01*
X132270671Y-92319030D01*
X132292850Y-92329520D01*
X132313893Y-92342132D01*
X132333599Y-92356747D01*
X132351777Y-92373223D01*
X132368253Y-92391401D01*
X132382868Y-92411107D01*
X132395480Y-92432150D01*
X132405970Y-92454329D01*
X132414235Y-92477428D01*
X132420196Y-92501227D01*
X132423796Y-92525495D01*
X132425000Y-92549999D01*
X132425000Y-93250001D01*
X132423796Y-93274505D01*
X132420196Y-93298773D01*
X132414235Y-93322572D01*
X132405970Y-93345671D01*
X132395480Y-93367850D01*
X132382868Y-93388893D01*
X132368253Y-93408599D01*
X132351777Y-93426777D01*
X132333599Y-93443253D01*
X132313893Y-93457868D01*
X132292850Y-93470480D01*
X132270671Y-93480970D01*
X132247572Y-93489235D01*
X132223773Y-93495196D01*
X132199505Y-93498796D01*
X132175001Y-93500000D01*
X130874999Y-93500000D01*
X130850495Y-93498796D01*
X130826227Y-93495196D01*
X130802428Y-93489235D01*
X130779329Y-93480970D01*
X130757150Y-93470480D01*
X130736107Y-93457868D01*
X130716401Y-93443253D01*
X130698223Y-93426777D01*
X130681747Y-93408599D01*
X130667132Y-93388893D01*
X130654520Y-93367850D01*
X130644030Y-93345671D01*
X130635765Y-93322572D01*
X130629804Y-93298773D01*
X130626204Y-93274505D01*
X130625000Y-93250001D01*
X130625000Y-92549999D01*
X130626204Y-92525495D01*
X130629804Y-92501227D01*
X130635765Y-92477428D01*
X130644030Y-92454329D01*
X130654520Y-92432150D01*
X130667132Y-92411107D01*
X130681747Y-92391401D01*
X130698223Y-92373223D01*
X130716401Y-92356747D01*
X130736107Y-92342132D01*
X130757150Y-92329520D01*
X130779329Y-92319030D01*
X130802428Y-92310765D01*
X130826227Y-92304804D01*
X130850495Y-92301204D01*
X130874999Y-92300000D01*
X132175001Y-92300000D01*
X132199505Y-92301204D01*
G37*
G36*
X132199505Y-86701204D02*
G01*
X132223773Y-86704804D01*
X132247572Y-86710765D01*
X132270671Y-86719030D01*
X132292850Y-86729520D01*
X132313893Y-86742132D01*
X132333599Y-86756747D01*
X132351777Y-86773223D01*
X132368253Y-86791401D01*
X132382868Y-86811107D01*
X132395480Y-86832150D01*
X132405970Y-86854329D01*
X132414235Y-86877428D01*
X132420196Y-86901227D01*
X132423796Y-86925495D01*
X132425000Y-86949999D01*
X132425000Y-87650001D01*
X132423796Y-87674505D01*
X132420196Y-87698773D01*
X132414235Y-87722572D01*
X132405970Y-87745671D01*
X132395480Y-87767850D01*
X132382868Y-87788893D01*
X132368253Y-87808599D01*
X132351777Y-87826777D01*
X132333599Y-87843253D01*
X132313893Y-87857868D01*
X132292850Y-87870480D01*
X132270671Y-87880970D01*
X132247572Y-87889235D01*
X132223773Y-87895196D01*
X132199505Y-87898796D01*
X132175001Y-87900000D01*
X130874999Y-87900000D01*
X130850495Y-87898796D01*
X130826227Y-87895196D01*
X130802428Y-87889235D01*
X130779329Y-87880970D01*
X130757150Y-87870480D01*
X130736107Y-87857868D01*
X130716401Y-87843253D01*
X130698223Y-87826777D01*
X130681747Y-87808599D01*
X130667132Y-87788893D01*
X130654520Y-87767850D01*
X130644030Y-87745671D01*
X130635765Y-87722572D01*
X130629804Y-87698773D01*
X130626204Y-87674505D01*
X130625000Y-87650001D01*
X130625000Y-86949999D01*
X130626204Y-86925495D01*
X130629804Y-86901227D01*
X130635765Y-86877428D01*
X130644030Y-86854329D01*
X130654520Y-86832150D01*
X130667132Y-86811107D01*
X130681747Y-86791401D01*
X130698223Y-86773223D01*
X130716401Y-86756747D01*
X130736107Y-86742132D01*
X130757150Y-86729520D01*
X130779329Y-86719030D01*
X130802428Y-86710765D01*
X130826227Y-86704804D01*
X130850495Y-86701204D01*
X130874999Y-86700000D01*
X132175001Y-86700000D01*
X132199505Y-86701204D01*
G37*
G36*
X136039703Y-91300722D02*
G01*
X136054264Y-91302882D01*
X136068543Y-91306459D01*
X136082403Y-91311418D01*
X136095710Y-91317712D01*
X136108336Y-91325280D01*
X136120159Y-91334048D01*
X136131066Y-91343934D01*
X136140952Y-91354841D01*
X136149720Y-91366664D01*
X136157288Y-91379290D01*
X136163582Y-91392597D01*
X136168541Y-91406457D01*
X136172118Y-91420736D01*
X136174278Y-91435297D01*
X136175000Y-91450000D01*
X136175000Y-91750000D01*
X136174278Y-91764703D01*
X136172118Y-91779264D01*
X136168541Y-91793543D01*
X136163582Y-91807403D01*
X136157288Y-91820710D01*
X136149720Y-91833336D01*
X136140952Y-91845159D01*
X136131066Y-91856066D01*
X136120159Y-91865952D01*
X136108336Y-91874720D01*
X136095710Y-91882288D01*
X136082403Y-91888582D01*
X136068543Y-91893541D01*
X136054264Y-91897118D01*
X136039703Y-91899278D01*
X136025000Y-91900000D01*
X134775000Y-91900000D01*
X134760297Y-91899278D01*
X134745736Y-91897118D01*
X134731457Y-91893541D01*
X134717597Y-91888582D01*
X134704290Y-91882288D01*
X134691664Y-91874720D01*
X134679841Y-91865952D01*
X134668934Y-91856066D01*
X134659048Y-91845159D01*
X134650280Y-91833336D01*
X134642712Y-91820710D01*
X134636418Y-91807403D01*
X134631459Y-91793543D01*
X134627882Y-91779264D01*
X134625722Y-91764703D01*
X134625000Y-91750000D01*
X134625000Y-91450000D01*
X134625722Y-91435297D01*
X134627882Y-91420736D01*
X134631459Y-91406457D01*
X134636418Y-91392597D01*
X134642712Y-91379290D01*
X134650280Y-91366664D01*
X134659048Y-91354841D01*
X134668934Y-91343934D01*
X134679841Y-91334048D01*
X134691664Y-91325280D01*
X134704290Y-91317712D01*
X134717597Y-91311418D01*
X134731457Y-91306459D01*
X134745736Y-91302882D01*
X134760297Y-91300722D01*
X134775000Y-91300000D01*
X136025000Y-91300000D01*
X136039703Y-91300722D01*
G37*
G36*
X136039703Y-90300722D02*
G01*
X136054264Y-90302882D01*
X136068543Y-90306459D01*
X136082403Y-90311418D01*
X136095710Y-90317712D01*
X136108336Y-90325280D01*
X136120159Y-90334048D01*
X136131066Y-90343934D01*
X136140952Y-90354841D01*
X136149720Y-90366664D01*
X136157288Y-90379290D01*
X136163582Y-90392597D01*
X136168541Y-90406457D01*
X136172118Y-90420736D01*
X136174278Y-90435297D01*
X136175000Y-90450000D01*
X136175000Y-90750000D01*
X136174278Y-90764703D01*
X136172118Y-90779264D01*
X136168541Y-90793543D01*
X136163582Y-90807403D01*
X136157288Y-90820710D01*
X136149720Y-90833336D01*
X136140952Y-90845159D01*
X136131066Y-90856066D01*
X136120159Y-90865952D01*
X136108336Y-90874720D01*
X136095710Y-90882288D01*
X136082403Y-90888582D01*
X136068543Y-90893541D01*
X136054264Y-90897118D01*
X136039703Y-90899278D01*
X136025000Y-90900000D01*
X134775000Y-90900000D01*
X134760297Y-90899278D01*
X134745736Y-90897118D01*
X134731457Y-90893541D01*
X134717597Y-90888582D01*
X134704290Y-90882288D01*
X134691664Y-90874720D01*
X134679841Y-90865952D01*
X134668934Y-90856066D01*
X134659048Y-90845159D01*
X134650280Y-90833336D01*
X134642712Y-90820710D01*
X134636418Y-90807403D01*
X134631459Y-90793543D01*
X134627882Y-90779264D01*
X134625722Y-90764703D01*
X134625000Y-90750000D01*
X134625000Y-90450000D01*
X134625722Y-90435297D01*
X134627882Y-90420736D01*
X134631459Y-90406457D01*
X134636418Y-90392597D01*
X134642712Y-90379290D01*
X134650280Y-90366664D01*
X134659048Y-90354841D01*
X134668934Y-90343934D01*
X134679841Y-90334048D01*
X134691664Y-90325280D01*
X134704290Y-90317712D01*
X134717597Y-90311418D01*
X134731457Y-90306459D01*
X134745736Y-90302882D01*
X134760297Y-90300722D01*
X134775000Y-90300000D01*
X136025000Y-90300000D01*
X136039703Y-90300722D01*
G37*
G36*
X136039703Y-89300722D02*
G01*
X136054264Y-89302882D01*
X136068543Y-89306459D01*
X136082403Y-89311418D01*
X136095710Y-89317712D01*
X136108336Y-89325280D01*
X136120159Y-89334048D01*
X136131066Y-89343934D01*
X136140952Y-89354841D01*
X136149720Y-89366664D01*
X136157288Y-89379290D01*
X136163582Y-89392597D01*
X136168541Y-89406457D01*
X136172118Y-89420736D01*
X136174278Y-89435297D01*
X136175000Y-89450000D01*
X136175000Y-89750000D01*
X136174278Y-89764703D01*
X136172118Y-89779264D01*
X136168541Y-89793543D01*
X136163582Y-89807403D01*
X136157288Y-89820710D01*
X136149720Y-89833336D01*
X136140952Y-89845159D01*
X136131066Y-89856066D01*
X136120159Y-89865952D01*
X136108336Y-89874720D01*
X136095710Y-89882288D01*
X136082403Y-89888582D01*
X136068543Y-89893541D01*
X136054264Y-89897118D01*
X136039703Y-89899278D01*
X136025000Y-89900000D01*
X134775000Y-89900000D01*
X134760297Y-89899278D01*
X134745736Y-89897118D01*
X134731457Y-89893541D01*
X134717597Y-89888582D01*
X134704290Y-89882288D01*
X134691664Y-89874720D01*
X134679841Y-89865952D01*
X134668934Y-89856066D01*
X134659048Y-89845159D01*
X134650280Y-89833336D01*
X134642712Y-89820710D01*
X134636418Y-89807403D01*
X134631459Y-89793543D01*
X134627882Y-89779264D01*
X134625722Y-89764703D01*
X134625000Y-89750000D01*
X134625000Y-89450000D01*
X134625722Y-89435297D01*
X134627882Y-89420736D01*
X134631459Y-89406457D01*
X134636418Y-89392597D01*
X134642712Y-89379290D01*
X134650280Y-89366664D01*
X134659048Y-89354841D01*
X134668934Y-89343934D01*
X134679841Y-89334048D01*
X134691664Y-89325280D01*
X134704290Y-89317712D01*
X134717597Y-89311418D01*
X134731457Y-89306459D01*
X134745736Y-89302882D01*
X134760297Y-89300722D01*
X134775000Y-89300000D01*
X136025000Y-89300000D01*
X136039703Y-89300722D01*
G37*
G36*
X136039703Y-88300722D02*
G01*
X136054264Y-88302882D01*
X136068543Y-88306459D01*
X136082403Y-88311418D01*
X136095710Y-88317712D01*
X136108336Y-88325280D01*
X136120159Y-88334048D01*
X136131066Y-88343934D01*
X136140952Y-88354841D01*
X136149720Y-88366664D01*
X136157288Y-88379290D01*
X136163582Y-88392597D01*
X136168541Y-88406457D01*
X136172118Y-88420736D01*
X136174278Y-88435297D01*
X136175000Y-88450000D01*
X136175000Y-88750000D01*
X136174278Y-88764703D01*
X136172118Y-88779264D01*
X136168541Y-88793543D01*
X136163582Y-88807403D01*
X136157288Y-88820710D01*
X136149720Y-88833336D01*
X136140952Y-88845159D01*
X136131066Y-88856066D01*
X136120159Y-88865952D01*
X136108336Y-88874720D01*
X136095710Y-88882288D01*
X136082403Y-88888582D01*
X136068543Y-88893541D01*
X136054264Y-88897118D01*
X136039703Y-88899278D01*
X136025000Y-88900000D01*
X134775000Y-88900000D01*
X134760297Y-88899278D01*
X134745736Y-88897118D01*
X134731457Y-88893541D01*
X134717597Y-88888582D01*
X134704290Y-88882288D01*
X134691664Y-88874720D01*
X134679841Y-88865952D01*
X134668934Y-88856066D01*
X134659048Y-88845159D01*
X134650280Y-88833336D01*
X134642712Y-88820710D01*
X134636418Y-88807403D01*
X134631459Y-88793543D01*
X134627882Y-88779264D01*
X134625722Y-88764703D01*
X134625000Y-88750000D01*
X134625000Y-88450000D01*
X134625722Y-88435297D01*
X134627882Y-88420736D01*
X134631459Y-88406457D01*
X134636418Y-88392597D01*
X134642712Y-88379290D01*
X134650280Y-88366664D01*
X134659048Y-88354841D01*
X134668934Y-88343934D01*
X134679841Y-88334048D01*
X134691664Y-88325280D01*
X134704290Y-88317712D01*
X134717597Y-88311418D01*
X134731457Y-88306459D01*
X134745736Y-88302882D01*
X134760297Y-88300722D01*
X134775000Y-88300000D01*
X136025000Y-88300000D01*
X136039703Y-88300722D01*
G37*
G36*
X132099505Y-101151204D02*
G01*
X132123773Y-101154804D01*
X132147572Y-101160765D01*
X132170671Y-101169030D01*
X132192850Y-101179520D01*
X132213893Y-101192132D01*
X132233599Y-101206747D01*
X132251777Y-101223223D01*
X132268253Y-101241401D01*
X132282868Y-101261107D01*
X132295480Y-101282150D01*
X132305970Y-101304329D01*
X132314235Y-101327428D01*
X132320196Y-101351227D01*
X132323796Y-101375495D01*
X132325000Y-101399999D01*
X132325000Y-102100001D01*
X132323796Y-102124505D01*
X132320196Y-102148773D01*
X132314235Y-102172572D01*
X132305970Y-102195671D01*
X132295480Y-102217850D01*
X132282868Y-102238893D01*
X132268253Y-102258599D01*
X132251777Y-102276777D01*
X132233599Y-102293253D01*
X132213893Y-102307868D01*
X132192850Y-102320480D01*
X132170671Y-102330970D01*
X132147572Y-102339235D01*
X132123773Y-102345196D01*
X132099505Y-102348796D01*
X132075001Y-102350000D01*
X130774999Y-102350000D01*
X130750495Y-102348796D01*
X130726227Y-102345196D01*
X130702428Y-102339235D01*
X130679329Y-102330970D01*
X130657150Y-102320480D01*
X130636107Y-102307868D01*
X130616401Y-102293253D01*
X130598223Y-102276777D01*
X130581747Y-102258599D01*
X130567132Y-102238893D01*
X130554520Y-102217850D01*
X130544030Y-102195671D01*
X130535765Y-102172572D01*
X130529804Y-102148773D01*
X130526204Y-102124505D01*
X130525000Y-102100001D01*
X130525000Y-101399999D01*
X130526204Y-101375495D01*
X130529804Y-101351227D01*
X130535765Y-101327428D01*
X130544030Y-101304329D01*
X130554520Y-101282150D01*
X130567132Y-101261107D01*
X130581747Y-101241401D01*
X130598223Y-101223223D01*
X130616401Y-101206747D01*
X130636107Y-101192132D01*
X130657150Y-101179520D01*
X130679329Y-101169030D01*
X130702428Y-101160765D01*
X130726227Y-101154804D01*
X130750495Y-101151204D01*
X130774999Y-101150000D01*
X132075001Y-101150000D01*
X132099505Y-101151204D01*
G37*
G36*
X132099505Y-95551204D02*
G01*
X132123773Y-95554804D01*
X132147572Y-95560765D01*
X132170671Y-95569030D01*
X132192850Y-95579520D01*
X132213893Y-95592132D01*
X132233599Y-95606747D01*
X132251777Y-95623223D01*
X132268253Y-95641401D01*
X132282868Y-95661107D01*
X132295480Y-95682150D01*
X132305970Y-95704329D01*
X132314235Y-95727428D01*
X132320196Y-95751227D01*
X132323796Y-95775495D01*
X132325000Y-95799999D01*
X132325000Y-96500001D01*
X132323796Y-96524505D01*
X132320196Y-96548773D01*
X132314235Y-96572572D01*
X132305970Y-96595671D01*
X132295480Y-96617850D01*
X132282868Y-96638893D01*
X132268253Y-96658599D01*
X132251777Y-96676777D01*
X132233599Y-96693253D01*
X132213893Y-96707868D01*
X132192850Y-96720480D01*
X132170671Y-96730970D01*
X132147572Y-96739235D01*
X132123773Y-96745196D01*
X132099505Y-96748796D01*
X132075001Y-96750000D01*
X130774999Y-96750000D01*
X130750495Y-96748796D01*
X130726227Y-96745196D01*
X130702428Y-96739235D01*
X130679329Y-96730970D01*
X130657150Y-96720480D01*
X130636107Y-96707868D01*
X130616401Y-96693253D01*
X130598223Y-96676777D01*
X130581747Y-96658599D01*
X130567132Y-96638893D01*
X130554520Y-96617850D01*
X130544030Y-96595671D01*
X130535765Y-96572572D01*
X130529804Y-96548773D01*
X130526204Y-96524505D01*
X130525000Y-96500001D01*
X130525000Y-95799999D01*
X130526204Y-95775495D01*
X130529804Y-95751227D01*
X130535765Y-95727428D01*
X130544030Y-95704329D01*
X130554520Y-95682150D01*
X130567132Y-95661107D01*
X130581747Y-95641401D01*
X130598223Y-95623223D01*
X130616401Y-95606747D01*
X130636107Y-95592132D01*
X130657150Y-95579520D01*
X130679329Y-95569030D01*
X130702428Y-95560765D01*
X130726227Y-95554804D01*
X130750495Y-95551204D01*
X130774999Y-95550000D01*
X132075001Y-95550000D01*
X132099505Y-95551204D01*
G37*
G36*
X135939703Y-100150722D02*
G01*
X135954264Y-100152882D01*
X135968543Y-100156459D01*
X135982403Y-100161418D01*
X135995710Y-100167712D01*
X136008336Y-100175280D01*
X136020159Y-100184048D01*
X136031066Y-100193934D01*
X136040952Y-100204841D01*
X136049720Y-100216664D01*
X136057288Y-100229290D01*
X136063582Y-100242597D01*
X136068541Y-100256457D01*
X136072118Y-100270736D01*
X136074278Y-100285297D01*
X136075000Y-100300000D01*
X136075000Y-100600000D01*
X136074278Y-100614703D01*
X136072118Y-100629264D01*
X136068541Y-100643543D01*
X136063582Y-100657403D01*
X136057288Y-100670710D01*
X136049720Y-100683336D01*
X136040952Y-100695159D01*
X136031066Y-100706066D01*
X136020159Y-100715952D01*
X136008336Y-100724720D01*
X135995710Y-100732288D01*
X135982403Y-100738582D01*
X135968543Y-100743541D01*
X135954264Y-100747118D01*
X135939703Y-100749278D01*
X135925000Y-100750000D01*
X134675000Y-100750000D01*
X134660297Y-100749278D01*
X134645736Y-100747118D01*
X134631457Y-100743541D01*
X134617597Y-100738582D01*
X134604290Y-100732288D01*
X134591664Y-100724720D01*
X134579841Y-100715952D01*
X134568934Y-100706066D01*
X134559048Y-100695159D01*
X134550280Y-100683336D01*
X134542712Y-100670710D01*
X134536418Y-100657403D01*
X134531459Y-100643543D01*
X134527882Y-100629264D01*
X134525722Y-100614703D01*
X134525000Y-100600000D01*
X134525000Y-100300000D01*
X134525722Y-100285297D01*
X134527882Y-100270736D01*
X134531459Y-100256457D01*
X134536418Y-100242597D01*
X134542712Y-100229290D01*
X134550280Y-100216664D01*
X134559048Y-100204841D01*
X134568934Y-100193934D01*
X134579841Y-100184048D01*
X134591664Y-100175280D01*
X134604290Y-100167712D01*
X134617597Y-100161418D01*
X134631457Y-100156459D01*
X134645736Y-100152882D01*
X134660297Y-100150722D01*
X134675000Y-100150000D01*
X135925000Y-100150000D01*
X135939703Y-100150722D01*
G37*
G36*
X135939703Y-99150722D02*
G01*
X135954264Y-99152882D01*
X135968543Y-99156459D01*
X135982403Y-99161418D01*
X135995710Y-99167712D01*
X136008336Y-99175280D01*
X136020159Y-99184048D01*
X136031066Y-99193934D01*
X136040952Y-99204841D01*
X136049720Y-99216664D01*
X136057288Y-99229290D01*
X136063582Y-99242597D01*
X136068541Y-99256457D01*
X136072118Y-99270736D01*
X136074278Y-99285297D01*
X136075000Y-99300000D01*
X136075000Y-99600000D01*
X136074278Y-99614703D01*
X136072118Y-99629264D01*
X136068541Y-99643543D01*
X136063582Y-99657403D01*
X136057288Y-99670710D01*
X136049720Y-99683336D01*
X136040952Y-99695159D01*
X136031066Y-99706066D01*
X136020159Y-99715952D01*
X136008336Y-99724720D01*
X135995710Y-99732288D01*
X135982403Y-99738582D01*
X135968543Y-99743541D01*
X135954264Y-99747118D01*
X135939703Y-99749278D01*
X135925000Y-99750000D01*
X134675000Y-99750000D01*
X134660297Y-99749278D01*
X134645736Y-99747118D01*
X134631457Y-99743541D01*
X134617597Y-99738582D01*
X134604290Y-99732288D01*
X134591664Y-99724720D01*
X134579841Y-99715952D01*
X134568934Y-99706066D01*
X134559048Y-99695159D01*
X134550280Y-99683336D01*
X134542712Y-99670710D01*
X134536418Y-99657403D01*
X134531459Y-99643543D01*
X134527882Y-99629264D01*
X134525722Y-99614703D01*
X134525000Y-99600000D01*
X134525000Y-99300000D01*
X134525722Y-99285297D01*
X134527882Y-99270736D01*
X134531459Y-99256457D01*
X134536418Y-99242597D01*
X134542712Y-99229290D01*
X134550280Y-99216664D01*
X134559048Y-99204841D01*
X134568934Y-99193934D01*
X134579841Y-99184048D01*
X134591664Y-99175280D01*
X134604290Y-99167712D01*
X134617597Y-99161418D01*
X134631457Y-99156459D01*
X134645736Y-99152882D01*
X134660297Y-99150722D01*
X134675000Y-99150000D01*
X135925000Y-99150000D01*
X135939703Y-99150722D01*
G37*
G36*
X135939703Y-98150722D02*
G01*
X135954264Y-98152882D01*
X135968543Y-98156459D01*
X135982403Y-98161418D01*
X135995710Y-98167712D01*
X136008336Y-98175280D01*
X136020159Y-98184048D01*
X136031066Y-98193934D01*
X136040952Y-98204841D01*
X136049720Y-98216664D01*
X136057288Y-98229290D01*
X136063582Y-98242597D01*
X136068541Y-98256457D01*
X136072118Y-98270736D01*
X136074278Y-98285297D01*
X136075000Y-98300000D01*
X136075000Y-98600000D01*
X136074278Y-98614703D01*
X136072118Y-98629264D01*
X136068541Y-98643543D01*
X136063582Y-98657403D01*
X136057288Y-98670710D01*
X136049720Y-98683336D01*
X136040952Y-98695159D01*
X136031066Y-98706066D01*
X136020159Y-98715952D01*
X136008336Y-98724720D01*
X135995710Y-98732288D01*
X135982403Y-98738582D01*
X135968543Y-98743541D01*
X135954264Y-98747118D01*
X135939703Y-98749278D01*
X135925000Y-98750000D01*
X134675000Y-98750000D01*
X134660297Y-98749278D01*
X134645736Y-98747118D01*
X134631457Y-98743541D01*
X134617597Y-98738582D01*
X134604290Y-98732288D01*
X134591664Y-98724720D01*
X134579841Y-98715952D01*
X134568934Y-98706066D01*
X134559048Y-98695159D01*
X134550280Y-98683336D01*
X134542712Y-98670710D01*
X134536418Y-98657403D01*
X134531459Y-98643543D01*
X134527882Y-98629264D01*
X134525722Y-98614703D01*
X134525000Y-98600000D01*
X134525000Y-98300000D01*
X134525722Y-98285297D01*
X134527882Y-98270736D01*
X134531459Y-98256457D01*
X134536418Y-98242597D01*
X134542712Y-98229290D01*
X134550280Y-98216664D01*
X134559048Y-98204841D01*
X134568934Y-98193934D01*
X134579841Y-98184048D01*
X134591664Y-98175280D01*
X134604290Y-98167712D01*
X134617597Y-98161418D01*
X134631457Y-98156459D01*
X134645736Y-98152882D01*
X134660297Y-98150722D01*
X134675000Y-98150000D01*
X135925000Y-98150000D01*
X135939703Y-98150722D01*
G37*
G36*
X135939703Y-97150722D02*
G01*
X135954264Y-97152882D01*
X135968543Y-97156459D01*
X135982403Y-97161418D01*
X135995710Y-97167712D01*
X136008336Y-97175280D01*
X136020159Y-97184048D01*
X136031066Y-97193934D01*
X136040952Y-97204841D01*
X136049720Y-97216664D01*
X136057288Y-97229290D01*
X136063582Y-97242597D01*
X136068541Y-97256457D01*
X136072118Y-97270736D01*
X136074278Y-97285297D01*
X136075000Y-97300000D01*
X136075000Y-97600000D01*
X136074278Y-97614703D01*
X136072118Y-97629264D01*
X136068541Y-97643543D01*
X136063582Y-97657403D01*
X136057288Y-97670710D01*
X136049720Y-97683336D01*
X136040952Y-97695159D01*
X136031066Y-97706066D01*
X136020159Y-97715952D01*
X136008336Y-97724720D01*
X135995710Y-97732288D01*
X135982403Y-97738582D01*
X135968543Y-97743541D01*
X135954264Y-97747118D01*
X135939703Y-97749278D01*
X135925000Y-97750000D01*
X134675000Y-97750000D01*
X134660297Y-97749278D01*
X134645736Y-97747118D01*
X134631457Y-97743541D01*
X134617597Y-97738582D01*
X134604290Y-97732288D01*
X134591664Y-97724720D01*
X134579841Y-97715952D01*
X134568934Y-97706066D01*
X134559048Y-97695159D01*
X134550280Y-97683336D01*
X134542712Y-97670710D01*
X134536418Y-97657403D01*
X134531459Y-97643543D01*
X134527882Y-97629264D01*
X134525722Y-97614703D01*
X134525000Y-97600000D01*
X134525000Y-97300000D01*
X134525722Y-97285297D01*
X134527882Y-97270736D01*
X134531459Y-97256457D01*
X134536418Y-97242597D01*
X134542712Y-97229290D01*
X134550280Y-97216664D01*
X134559048Y-97204841D01*
X134568934Y-97193934D01*
X134579841Y-97184048D01*
X134591664Y-97175280D01*
X134604290Y-97167712D01*
X134617597Y-97161418D01*
X134631457Y-97156459D01*
X134645736Y-97152882D01*
X134660297Y-97150722D01*
X134675000Y-97150000D01*
X135925000Y-97150000D01*
X135939703Y-97150722D01*
G37*
G36*
X132099505Y-110451204D02*
G01*
X132123773Y-110454804D01*
X132147572Y-110460765D01*
X132170671Y-110469030D01*
X132192850Y-110479520D01*
X132213893Y-110492132D01*
X132233599Y-110506747D01*
X132251777Y-110523223D01*
X132268253Y-110541401D01*
X132282868Y-110561107D01*
X132295480Y-110582150D01*
X132305970Y-110604329D01*
X132314235Y-110627428D01*
X132320196Y-110651227D01*
X132323796Y-110675495D01*
X132325000Y-110699999D01*
X132325000Y-111400001D01*
X132323796Y-111424505D01*
X132320196Y-111448773D01*
X132314235Y-111472572D01*
X132305970Y-111495671D01*
X132295480Y-111517850D01*
X132282868Y-111538893D01*
X132268253Y-111558599D01*
X132251777Y-111576777D01*
X132233599Y-111593253D01*
X132213893Y-111607868D01*
X132192850Y-111620480D01*
X132170671Y-111630970D01*
X132147572Y-111639235D01*
X132123773Y-111645196D01*
X132099505Y-111648796D01*
X132075001Y-111650000D01*
X130774999Y-111650000D01*
X130750495Y-111648796D01*
X130726227Y-111645196D01*
X130702428Y-111639235D01*
X130679329Y-111630970D01*
X130657150Y-111620480D01*
X130636107Y-111607868D01*
X130616401Y-111593253D01*
X130598223Y-111576777D01*
X130581747Y-111558599D01*
X130567132Y-111538893D01*
X130554520Y-111517850D01*
X130544030Y-111495671D01*
X130535765Y-111472572D01*
X130529804Y-111448773D01*
X130526204Y-111424505D01*
X130525000Y-111400001D01*
X130525000Y-110699999D01*
X130526204Y-110675495D01*
X130529804Y-110651227D01*
X130535765Y-110627428D01*
X130544030Y-110604329D01*
X130554520Y-110582150D01*
X130567132Y-110561107D01*
X130581747Y-110541401D01*
X130598223Y-110523223D01*
X130616401Y-110506747D01*
X130636107Y-110492132D01*
X130657150Y-110479520D01*
X130679329Y-110469030D01*
X130702428Y-110460765D01*
X130726227Y-110454804D01*
X130750495Y-110451204D01*
X130774999Y-110450000D01*
X132075001Y-110450000D01*
X132099505Y-110451204D01*
G37*
G36*
X132099505Y-104851204D02*
G01*
X132123773Y-104854804D01*
X132147572Y-104860765D01*
X132170671Y-104869030D01*
X132192850Y-104879520D01*
X132213893Y-104892132D01*
X132233599Y-104906747D01*
X132251777Y-104923223D01*
X132268253Y-104941401D01*
X132282868Y-104961107D01*
X132295480Y-104982150D01*
X132305970Y-105004329D01*
X132314235Y-105027428D01*
X132320196Y-105051227D01*
X132323796Y-105075495D01*
X132325000Y-105099999D01*
X132325000Y-105800001D01*
X132323796Y-105824505D01*
X132320196Y-105848773D01*
X132314235Y-105872572D01*
X132305970Y-105895671D01*
X132295480Y-105917850D01*
X132282868Y-105938893D01*
X132268253Y-105958599D01*
X132251777Y-105976777D01*
X132233599Y-105993253D01*
X132213893Y-106007868D01*
X132192850Y-106020480D01*
X132170671Y-106030970D01*
X132147572Y-106039235D01*
X132123773Y-106045196D01*
X132099505Y-106048796D01*
X132075001Y-106050000D01*
X130774999Y-106050000D01*
X130750495Y-106048796D01*
X130726227Y-106045196D01*
X130702428Y-106039235D01*
X130679329Y-106030970D01*
X130657150Y-106020480D01*
X130636107Y-106007868D01*
X130616401Y-105993253D01*
X130598223Y-105976777D01*
X130581747Y-105958599D01*
X130567132Y-105938893D01*
X130554520Y-105917850D01*
X130544030Y-105895671D01*
X130535765Y-105872572D01*
X130529804Y-105848773D01*
X130526204Y-105824505D01*
X130525000Y-105800001D01*
X130525000Y-105099999D01*
X130526204Y-105075495D01*
X130529804Y-105051227D01*
X130535765Y-105027428D01*
X130544030Y-105004329D01*
X130554520Y-104982150D01*
X130567132Y-104961107D01*
X130581747Y-104941401D01*
X130598223Y-104923223D01*
X130616401Y-104906747D01*
X130636107Y-104892132D01*
X130657150Y-104879520D01*
X130679329Y-104869030D01*
X130702428Y-104860765D01*
X130726227Y-104854804D01*
X130750495Y-104851204D01*
X130774999Y-104850000D01*
X132075001Y-104850000D01*
X132099505Y-104851204D01*
G37*
G36*
X135939703Y-109450722D02*
G01*
X135954264Y-109452882D01*
X135968543Y-109456459D01*
X135982403Y-109461418D01*
X135995710Y-109467712D01*
X136008336Y-109475280D01*
X136020159Y-109484048D01*
X136031066Y-109493934D01*
X136040952Y-109504841D01*
X136049720Y-109516664D01*
X136057288Y-109529290D01*
X136063582Y-109542597D01*
X136068541Y-109556457D01*
X136072118Y-109570736D01*
X136074278Y-109585297D01*
X136075000Y-109600000D01*
X136075000Y-109900000D01*
X136074278Y-109914703D01*
X136072118Y-109929264D01*
X136068541Y-109943543D01*
X136063582Y-109957403D01*
X136057288Y-109970710D01*
X136049720Y-109983336D01*
X136040952Y-109995159D01*
X136031066Y-110006066D01*
X136020159Y-110015952D01*
X136008336Y-110024720D01*
X135995710Y-110032288D01*
X135982403Y-110038582D01*
X135968543Y-110043541D01*
X135954264Y-110047118D01*
X135939703Y-110049278D01*
X135925000Y-110050000D01*
X134675000Y-110050000D01*
X134660297Y-110049278D01*
X134645736Y-110047118D01*
X134631457Y-110043541D01*
X134617597Y-110038582D01*
X134604290Y-110032288D01*
X134591664Y-110024720D01*
X134579841Y-110015952D01*
X134568934Y-110006066D01*
X134559048Y-109995159D01*
X134550280Y-109983336D01*
X134542712Y-109970710D01*
X134536418Y-109957403D01*
X134531459Y-109943543D01*
X134527882Y-109929264D01*
X134525722Y-109914703D01*
X134525000Y-109900000D01*
X134525000Y-109600000D01*
X134525722Y-109585297D01*
X134527882Y-109570736D01*
X134531459Y-109556457D01*
X134536418Y-109542597D01*
X134542712Y-109529290D01*
X134550280Y-109516664D01*
X134559048Y-109504841D01*
X134568934Y-109493934D01*
X134579841Y-109484048D01*
X134591664Y-109475280D01*
X134604290Y-109467712D01*
X134617597Y-109461418D01*
X134631457Y-109456459D01*
X134645736Y-109452882D01*
X134660297Y-109450722D01*
X134675000Y-109450000D01*
X135925000Y-109450000D01*
X135939703Y-109450722D01*
G37*
G36*
X135939703Y-108450722D02*
G01*
X135954264Y-108452882D01*
X135968543Y-108456459D01*
X135982403Y-108461418D01*
X135995710Y-108467712D01*
X136008336Y-108475280D01*
X136020159Y-108484048D01*
X136031066Y-108493934D01*
X136040952Y-108504841D01*
X136049720Y-108516664D01*
X136057288Y-108529290D01*
X136063582Y-108542597D01*
X136068541Y-108556457D01*
X136072118Y-108570736D01*
X136074278Y-108585297D01*
X136075000Y-108600000D01*
X136075000Y-108900000D01*
X136074278Y-108914703D01*
X136072118Y-108929264D01*
X136068541Y-108943543D01*
X136063582Y-108957403D01*
X136057288Y-108970710D01*
X136049720Y-108983336D01*
X136040952Y-108995159D01*
X136031066Y-109006066D01*
X136020159Y-109015952D01*
X136008336Y-109024720D01*
X135995710Y-109032288D01*
X135982403Y-109038582D01*
X135968543Y-109043541D01*
X135954264Y-109047118D01*
X135939703Y-109049278D01*
X135925000Y-109050000D01*
X134675000Y-109050000D01*
X134660297Y-109049278D01*
X134645736Y-109047118D01*
X134631457Y-109043541D01*
X134617597Y-109038582D01*
X134604290Y-109032288D01*
X134591664Y-109024720D01*
X134579841Y-109015952D01*
X134568934Y-109006066D01*
X134559048Y-108995159D01*
X134550280Y-108983336D01*
X134542712Y-108970710D01*
X134536418Y-108957403D01*
X134531459Y-108943543D01*
X134527882Y-108929264D01*
X134525722Y-108914703D01*
X134525000Y-108900000D01*
X134525000Y-108600000D01*
X134525722Y-108585297D01*
X134527882Y-108570736D01*
X134531459Y-108556457D01*
X134536418Y-108542597D01*
X134542712Y-108529290D01*
X134550280Y-108516664D01*
X134559048Y-108504841D01*
X134568934Y-108493934D01*
X134579841Y-108484048D01*
X134591664Y-108475280D01*
X134604290Y-108467712D01*
X134617597Y-108461418D01*
X134631457Y-108456459D01*
X134645736Y-108452882D01*
X134660297Y-108450722D01*
X134675000Y-108450000D01*
X135925000Y-108450000D01*
X135939703Y-108450722D01*
G37*
G36*
X135939703Y-107450722D02*
G01*
X135954264Y-107452882D01*
X135968543Y-107456459D01*
X135982403Y-107461418D01*
X135995710Y-107467712D01*
X136008336Y-107475280D01*
X136020159Y-107484048D01*
X136031066Y-107493934D01*
X136040952Y-107504841D01*
X136049720Y-107516664D01*
X136057288Y-107529290D01*
X136063582Y-107542597D01*
X136068541Y-107556457D01*
X136072118Y-107570736D01*
X136074278Y-107585297D01*
X136075000Y-107600000D01*
X136075000Y-107900000D01*
X136074278Y-107914703D01*
X136072118Y-107929264D01*
X136068541Y-107943543D01*
X136063582Y-107957403D01*
X136057288Y-107970710D01*
X136049720Y-107983336D01*
X136040952Y-107995159D01*
X136031066Y-108006066D01*
X136020159Y-108015952D01*
X136008336Y-108024720D01*
X135995710Y-108032288D01*
X135982403Y-108038582D01*
X135968543Y-108043541D01*
X135954264Y-108047118D01*
X135939703Y-108049278D01*
X135925000Y-108050000D01*
X134675000Y-108050000D01*
X134660297Y-108049278D01*
X134645736Y-108047118D01*
X134631457Y-108043541D01*
X134617597Y-108038582D01*
X134604290Y-108032288D01*
X134591664Y-108024720D01*
X134579841Y-108015952D01*
X134568934Y-108006066D01*
X134559048Y-107995159D01*
X134550280Y-107983336D01*
X134542712Y-107970710D01*
X134536418Y-107957403D01*
X134531459Y-107943543D01*
X134527882Y-107929264D01*
X134525722Y-107914703D01*
X134525000Y-107900000D01*
X134525000Y-107600000D01*
X134525722Y-107585297D01*
X134527882Y-107570736D01*
X134531459Y-107556457D01*
X134536418Y-107542597D01*
X134542712Y-107529290D01*
X134550280Y-107516664D01*
X134559048Y-107504841D01*
X134568934Y-107493934D01*
X134579841Y-107484048D01*
X134591664Y-107475280D01*
X134604290Y-107467712D01*
X134617597Y-107461418D01*
X134631457Y-107456459D01*
X134645736Y-107452882D01*
X134660297Y-107450722D01*
X134675000Y-107450000D01*
X135925000Y-107450000D01*
X135939703Y-107450722D01*
G37*
G36*
X135939703Y-106450722D02*
G01*
X135954264Y-106452882D01*
X135968543Y-106456459D01*
X135982403Y-106461418D01*
X135995710Y-106467712D01*
X136008336Y-106475280D01*
X136020159Y-106484048D01*
X136031066Y-106493934D01*
X136040952Y-106504841D01*
X136049720Y-106516664D01*
X136057288Y-106529290D01*
X136063582Y-106542597D01*
X136068541Y-106556457D01*
X136072118Y-106570736D01*
X136074278Y-106585297D01*
X136075000Y-106600000D01*
X136075000Y-106900000D01*
X136074278Y-106914703D01*
X136072118Y-106929264D01*
X136068541Y-106943543D01*
X136063582Y-106957403D01*
X136057288Y-106970710D01*
X136049720Y-106983336D01*
X136040952Y-106995159D01*
X136031066Y-107006066D01*
X136020159Y-107015952D01*
X136008336Y-107024720D01*
X135995710Y-107032288D01*
X135982403Y-107038582D01*
X135968543Y-107043541D01*
X135954264Y-107047118D01*
X135939703Y-107049278D01*
X135925000Y-107050000D01*
X134675000Y-107050000D01*
X134660297Y-107049278D01*
X134645736Y-107047118D01*
X134631457Y-107043541D01*
X134617597Y-107038582D01*
X134604290Y-107032288D01*
X134591664Y-107024720D01*
X134579841Y-107015952D01*
X134568934Y-107006066D01*
X134559048Y-106995159D01*
X134550280Y-106983336D01*
X134542712Y-106970710D01*
X134536418Y-106957403D01*
X134531459Y-106943543D01*
X134527882Y-106929264D01*
X134525722Y-106914703D01*
X134525000Y-106900000D01*
X134525000Y-106600000D01*
X134525722Y-106585297D01*
X134527882Y-106570736D01*
X134531459Y-106556457D01*
X134536418Y-106542597D01*
X134542712Y-106529290D01*
X134550280Y-106516664D01*
X134559048Y-106504841D01*
X134568934Y-106493934D01*
X134579841Y-106484048D01*
X134591664Y-106475280D01*
X134604290Y-106467712D01*
X134617597Y-106461418D01*
X134631457Y-106456459D01*
X134645736Y-106452882D01*
X134660297Y-106450722D01*
X134675000Y-106450000D01*
X135925000Y-106450000D01*
X135939703Y-106450722D01*
G37*
G36*
X174299505Y-92981204D02*
G01*
X174323773Y-92984804D01*
X174347572Y-92990765D01*
X174370671Y-92999030D01*
X174392850Y-93009520D01*
X174413893Y-93022132D01*
X174433599Y-93036747D01*
X174451777Y-93053223D01*
X174468253Y-93071401D01*
X174482868Y-93091107D01*
X174495480Y-93112150D01*
X174505970Y-93134329D01*
X174514235Y-93157428D01*
X174520196Y-93181227D01*
X174523796Y-93205495D01*
X174525000Y-93229999D01*
X174525000Y-93930001D01*
X174523796Y-93954505D01*
X174520196Y-93978773D01*
X174514235Y-94002572D01*
X174505970Y-94025671D01*
X174495480Y-94047850D01*
X174482868Y-94068893D01*
X174468253Y-94088599D01*
X174451777Y-94106777D01*
X174433599Y-94123253D01*
X174413893Y-94137868D01*
X174392850Y-94150480D01*
X174370671Y-94160970D01*
X174347572Y-94169235D01*
X174323773Y-94175196D01*
X174299505Y-94178796D01*
X174275001Y-94180000D01*
X172974999Y-94180000D01*
X172950495Y-94178796D01*
X172926227Y-94175196D01*
X172902428Y-94169235D01*
X172879329Y-94160970D01*
X172857150Y-94150480D01*
X172836107Y-94137868D01*
X172816401Y-94123253D01*
X172798223Y-94106777D01*
X172781747Y-94088599D01*
X172767132Y-94068893D01*
X172754520Y-94047850D01*
X172744030Y-94025671D01*
X172735765Y-94002572D01*
X172729804Y-93978773D01*
X172726204Y-93954505D01*
X172725000Y-93930001D01*
X172725000Y-93229999D01*
X172726204Y-93205495D01*
X172729804Y-93181227D01*
X172735765Y-93157428D01*
X172744030Y-93134329D01*
X172754520Y-93112150D01*
X172767132Y-93091107D01*
X172781747Y-93071401D01*
X172798223Y-93053223D01*
X172816401Y-93036747D01*
X172836107Y-93022132D01*
X172857150Y-93009520D01*
X172879329Y-92999030D01*
X172902428Y-92990765D01*
X172926227Y-92984804D01*
X172950495Y-92981204D01*
X172974999Y-92980000D01*
X174275001Y-92980000D01*
X174299505Y-92981204D01*
G37*
G36*
X174299505Y-98581204D02*
G01*
X174323773Y-98584804D01*
X174347572Y-98590765D01*
X174370671Y-98599030D01*
X174392850Y-98609520D01*
X174413893Y-98622132D01*
X174433599Y-98636747D01*
X174451777Y-98653223D01*
X174468253Y-98671401D01*
X174482868Y-98691107D01*
X174495480Y-98712150D01*
X174505970Y-98734329D01*
X174514235Y-98757428D01*
X174520196Y-98781227D01*
X174523796Y-98805495D01*
X174525000Y-98829999D01*
X174525000Y-99530001D01*
X174523796Y-99554505D01*
X174520196Y-99578773D01*
X174514235Y-99602572D01*
X174505970Y-99625671D01*
X174495480Y-99647850D01*
X174482868Y-99668893D01*
X174468253Y-99688599D01*
X174451777Y-99706777D01*
X174433599Y-99723253D01*
X174413893Y-99737868D01*
X174392850Y-99750480D01*
X174370671Y-99760970D01*
X174347572Y-99769235D01*
X174323773Y-99775196D01*
X174299505Y-99778796D01*
X174275001Y-99780000D01*
X172974999Y-99780000D01*
X172950495Y-99778796D01*
X172926227Y-99775196D01*
X172902428Y-99769235D01*
X172879329Y-99760970D01*
X172857150Y-99750480D01*
X172836107Y-99737868D01*
X172816401Y-99723253D01*
X172798223Y-99706777D01*
X172781747Y-99688599D01*
X172767132Y-99668893D01*
X172754520Y-99647850D01*
X172744030Y-99625671D01*
X172735765Y-99602572D01*
X172729804Y-99578773D01*
X172726204Y-99554505D01*
X172725000Y-99530001D01*
X172725000Y-98829999D01*
X172726204Y-98805495D01*
X172729804Y-98781227D01*
X172735765Y-98757428D01*
X172744030Y-98734329D01*
X172754520Y-98712150D01*
X172767132Y-98691107D01*
X172781747Y-98671401D01*
X172798223Y-98653223D01*
X172816401Y-98636747D01*
X172836107Y-98622132D01*
X172857150Y-98609520D01*
X172879329Y-98599030D01*
X172902428Y-98590765D01*
X172926227Y-98584804D01*
X172950495Y-98581204D01*
X172974999Y-98580000D01*
X174275001Y-98580000D01*
X174299505Y-98581204D01*
G37*
G36*
X170389703Y-94580722D02*
G01*
X170404264Y-94582882D01*
X170418543Y-94586459D01*
X170432403Y-94591418D01*
X170445710Y-94597712D01*
X170458336Y-94605280D01*
X170470159Y-94614048D01*
X170481066Y-94623934D01*
X170490952Y-94634841D01*
X170499720Y-94646664D01*
X170507288Y-94659290D01*
X170513582Y-94672597D01*
X170518541Y-94686457D01*
X170522118Y-94700736D01*
X170524278Y-94715297D01*
X170525000Y-94730000D01*
X170525000Y-95030000D01*
X170524278Y-95044703D01*
X170522118Y-95059264D01*
X170518541Y-95073543D01*
X170513582Y-95087403D01*
X170507288Y-95100710D01*
X170499720Y-95113336D01*
X170490952Y-95125159D01*
X170481066Y-95136066D01*
X170470159Y-95145952D01*
X170458336Y-95154720D01*
X170445710Y-95162288D01*
X170432403Y-95168582D01*
X170418543Y-95173541D01*
X170404264Y-95177118D01*
X170389703Y-95179278D01*
X170375000Y-95180000D01*
X169125000Y-95180000D01*
X169110297Y-95179278D01*
X169095736Y-95177118D01*
X169081457Y-95173541D01*
X169067597Y-95168582D01*
X169054290Y-95162288D01*
X169041664Y-95154720D01*
X169029841Y-95145952D01*
X169018934Y-95136066D01*
X169009048Y-95125159D01*
X169000280Y-95113336D01*
X168992712Y-95100710D01*
X168986418Y-95087403D01*
X168981459Y-95073543D01*
X168977882Y-95059264D01*
X168975722Y-95044703D01*
X168975000Y-95030000D01*
X168975000Y-94730000D01*
X168975722Y-94715297D01*
X168977882Y-94700736D01*
X168981459Y-94686457D01*
X168986418Y-94672597D01*
X168992712Y-94659290D01*
X169000280Y-94646664D01*
X169009048Y-94634841D01*
X169018934Y-94623934D01*
X169029841Y-94614048D01*
X169041664Y-94605280D01*
X169054290Y-94597712D01*
X169067597Y-94591418D01*
X169081457Y-94586459D01*
X169095736Y-94582882D01*
X169110297Y-94580722D01*
X169125000Y-94580000D01*
X170375000Y-94580000D01*
X170389703Y-94580722D01*
G37*
G36*
X170389703Y-95580722D02*
G01*
X170404264Y-95582882D01*
X170418543Y-95586459D01*
X170432403Y-95591418D01*
X170445710Y-95597712D01*
X170458336Y-95605280D01*
X170470159Y-95614048D01*
X170481066Y-95623934D01*
X170490952Y-95634841D01*
X170499720Y-95646664D01*
X170507288Y-95659290D01*
X170513582Y-95672597D01*
X170518541Y-95686457D01*
X170522118Y-95700736D01*
X170524278Y-95715297D01*
X170525000Y-95730000D01*
X170525000Y-96030000D01*
X170524278Y-96044703D01*
X170522118Y-96059264D01*
X170518541Y-96073543D01*
X170513582Y-96087403D01*
X170507288Y-96100710D01*
X170499720Y-96113336D01*
X170490952Y-96125159D01*
X170481066Y-96136066D01*
X170470159Y-96145952D01*
X170458336Y-96154720D01*
X170445710Y-96162288D01*
X170432403Y-96168582D01*
X170418543Y-96173541D01*
X170404264Y-96177118D01*
X170389703Y-96179278D01*
X170375000Y-96180000D01*
X169125000Y-96180000D01*
X169110297Y-96179278D01*
X169095736Y-96177118D01*
X169081457Y-96173541D01*
X169067597Y-96168582D01*
X169054290Y-96162288D01*
X169041664Y-96154720D01*
X169029841Y-96145952D01*
X169018934Y-96136066D01*
X169009048Y-96125159D01*
X169000280Y-96113336D01*
X168992712Y-96100710D01*
X168986418Y-96087403D01*
X168981459Y-96073543D01*
X168977882Y-96059264D01*
X168975722Y-96044703D01*
X168975000Y-96030000D01*
X168975000Y-95730000D01*
X168975722Y-95715297D01*
X168977882Y-95700736D01*
X168981459Y-95686457D01*
X168986418Y-95672597D01*
X168992712Y-95659290D01*
X169000280Y-95646664D01*
X169009048Y-95634841D01*
X169018934Y-95623934D01*
X169029841Y-95614048D01*
X169041664Y-95605280D01*
X169054290Y-95597712D01*
X169067597Y-95591418D01*
X169081457Y-95586459D01*
X169095736Y-95582882D01*
X169110297Y-95580722D01*
X169125000Y-95580000D01*
X170375000Y-95580000D01*
X170389703Y-95580722D01*
G37*
G36*
X170389703Y-96580722D02*
G01*
X170404264Y-96582882D01*
X170418543Y-96586459D01*
X170432403Y-96591418D01*
X170445710Y-96597712D01*
X170458336Y-96605280D01*
X170470159Y-96614048D01*
X170481066Y-96623934D01*
X170490952Y-96634841D01*
X170499720Y-96646664D01*
X170507288Y-96659290D01*
X170513582Y-96672597D01*
X170518541Y-96686457D01*
X170522118Y-96700736D01*
X170524278Y-96715297D01*
X170525000Y-96730000D01*
X170525000Y-97030000D01*
X170524278Y-97044703D01*
X170522118Y-97059264D01*
X170518541Y-97073543D01*
X170513582Y-97087403D01*
X170507288Y-97100710D01*
X170499720Y-97113336D01*
X170490952Y-97125159D01*
X170481066Y-97136066D01*
X170470159Y-97145952D01*
X170458336Y-97154720D01*
X170445710Y-97162288D01*
X170432403Y-97168582D01*
X170418543Y-97173541D01*
X170404264Y-97177118D01*
X170389703Y-97179278D01*
X170375000Y-97180000D01*
X169125000Y-97180000D01*
X169110297Y-97179278D01*
X169095736Y-97177118D01*
X169081457Y-97173541D01*
X169067597Y-97168582D01*
X169054290Y-97162288D01*
X169041664Y-97154720D01*
X169029841Y-97145952D01*
X169018934Y-97136066D01*
X169009048Y-97125159D01*
X169000280Y-97113336D01*
X168992712Y-97100710D01*
X168986418Y-97087403D01*
X168981459Y-97073543D01*
X168977882Y-97059264D01*
X168975722Y-97044703D01*
X168975000Y-97030000D01*
X168975000Y-96730000D01*
X168975722Y-96715297D01*
X168977882Y-96700736D01*
X168981459Y-96686457D01*
X168986418Y-96672597D01*
X168992712Y-96659290D01*
X169000280Y-96646664D01*
X169009048Y-96634841D01*
X169018934Y-96623934D01*
X169029841Y-96614048D01*
X169041664Y-96605280D01*
X169054290Y-96597712D01*
X169067597Y-96591418D01*
X169081457Y-96586459D01*
X169095736Y-96582882D01*
X169110297Y-96580722D01*
X169125000Y-96580000D01*
X170375000Y-96580000D01*
X170389703Y-96580722D01*
G37*
G36*
X170389703Y-97580722D02*
G01*
X170404264Y-97582882D01*
X170418543Y-97586459D01*
X170432403Y-97591418D01*
X170445710Y-97597712D01*
X170458336Y-97605280D01*
X170470159Y-97614048D01*
X170481066Y-97623934D01*
X170490952Y-97634841D01*
X170499720Y-97646664D01*
X170507288Y-97659290D01*
X170513582Y-97672597D01*
X170518541Y-97686457D01*
X170522118Y-97700736D01*
X170524278Y-97715297D01*
X170525000Y-97730000D01*
X170525000Y-98030000D01*
X170524278Y-98044703D01*
X170522118Y-98059264D01*
X170518541Y-98073543D01*
X170513582Y-98087403D01*
X170507288Y-98100710D01*
X170499720Y-98113336D01*
X170490952Y-98125159D01*
X170481066Y-98136066D01*
X170470159Y-98145952D01*
X170458336Y-98154720D01*
X170445710Y-98162288D01*
X170432403Y-98168582D01*
X170418543Y-98173541D01*
X170404264Y-98177118D01*
X170389703Y-98179278D01*
X170375000Y-98180000D01*
X169125000Y-98180000D01*
X169110297Y-98179278D01*
X169095736Y-98177118D01*
X169081457Y-98173541D01*
X169067597Y-98168582D01*
X169054290Y-98162288D01*
X169041664Y-98154720D01*
X169029841Y-98145952D01*
X169018934Y-98136066D01*
X169009048Y-98125159D01*
X169000280Y-98113336D01*
X168992712Y-98100710D01*
X168986418Y-98087403D01*
X168981459Y-98073543D01*
X168977882Y-98059264D01*
X168975722Y-98044703D01*
X168975000Y-98030000D01*
X168975000Y-97730000D01*
X168975722Y-97715297D01*
X168977882Y-97700736D01*
X168981459Y-97686457D01*
X168986418Y-97672597D01*
X168992712Y-97659290D01*
X169000280Y-97646664D01*
X169009048Y-97634841D01*
X169018934Y-97623934D01*
X169029841Y-97614048D01*
X169041664Y-97605280D01*
X169054290Y-97597712D01*
X169067597Y-97591418D01*
X169081457Y-97586459D01*
X169095736Y-97582882D01*
X169110297Y-97580722D01*
X169125000Y-97580000D01*
X170375000Y-97580000D01*
X170389703Y-97580722D01*
G37*
G36*
X174299505Y-84851204D02*
G01*
X174323773Y-84854804D01*
X174347572Y-84860765D01*
X174370671Y-84869030D01*
X174392850Y-84879520D01*
X174413893Y-84892132D01*
X174433599Y-84906747D01*
X174451777Y-84923223D01*
X174468253Y-84941401D01*
X174482868Y-84961107D01*
X174495480Y-84982150D01*
X174505970Y-85004329D01*
X174514235Y-85027428D01*
X174520196Y-85051227D01*
X174523796Y-85075495D01*
X174525000Y-85099999D01*
X174525000Y-85800001D01*
X174523796Y-85824505D01*
X174520196Y-85848773D01*
X174514235Y-85872572D01*
X174505970Y-85895671D01*
X174495480Y-85917850D01*
X174482868Y-85938893D01*
X174468253Y-85958599D01*
X174451777Y-85976777D01*
X174433599Y-85993253D01*
X174413893Y-86007868D01*
X174392850Y-86020480D01*
X174370671Y-86030970D01*
X174347572Y-86039235D01*
X174323773Y-86045196D01*
X174299505Y-86048796D01*
X174275001Y-86050000D01*
X172974999Y-86050000D01*
X172950495Y-86048796D01*
X172926227Y-86045196D01*
X172902428Y-86039235D01*
X172879329Y-86030970D01*
X172857150Y-86020480D01*
X172836107Y-86007868D01*
X172816401Y-85993253D01*
X172798223Y-85976777D01*
X172781747Y-85958599D01*
X172767132Y-85938893D01*
X172754520Y-85917850D01*
X172744030Y-85895671D01*
X172735765Y-85872572D01*
X172729804Y-85848773D01*
X172726204Y-85824505D01*
X172725000Y-85800001D01*
X172725000Y-85099999D01*
X172726204Y-85075495D01*
X172729804Y-85051227D01*
X172735765Y-85027428D01*
X172744030Y-85004329D01*
X172754520Y-84982150D01*
X172767132Y-84961107D01*
X172781747Y-84941401D01*
X172798223Y-84923223D01*
X172816401Y-84906747D01*
X172836107Y-84892132D01*
X172857150Y-84879520D01*
X172879329Y-84869030D01*
X172902428Y-84860765D01*
X172926227Y-84854804D01*
X172950495Y-84851204D01*
X172974999Y-84850000D01*
X174275001Y-84850000D01*
X174299505Y-84851204D01*
G37*
G36*
X174299505Y-90451204D02*
G01*
X174323773Y-90454804D01*
X174347572Y-90460765D01*
X174370671Y-90469030D01*
X174392850Y-90479520D01*
X174413893Y-90492132D01*
X174433599Y-90506747D01*
X174451777Y-90523223D01*
X174468253Y-90541401D01*
X174482868Y-90561107D01*
X174495480Y-90582150D01*
X174505970Y-90604329D01*
X174514235Y-90627428D01*
X174520196Y-90651227D01*
X174523796Y-90675495D01*
X174525000Y-90699999D01*
X174525000Y-91400001D01*
X174523796Y-91424505D01*
X174520196Y-91448773D01*
X174514235Y-91472572D01*
X174505970Y-91495671D01*
X174495480Y-91517850D01*
X174482868Y-91538893D01*
X174468253Y-91558599D01*
X174451777Y-91576777D01*
X174433599Y-91593253D01*
X174413893Y-91607868D01*
X174392850Y-91620480D01*
X174370671Y-91630970D01*
X174347572Y-91639235D01*
X174323773Y-91645196D01*
X174299505Y-91648796D01*
X174275001Y-91650000D01*
X172974999Y-91650000D01*
X172950495Y-91648796D01*
X172926227Y-91645196D01*
X172902428Y-91639235D01*
X172879329Y-91630970D01*
X172857150Y-91620480D01*
X172836107Y-91607868D01*
X172816401Y-91593253D01*
X172798223Y-91576777D01*
X172781747Y-91558599D01*
X172767132Y-91538893D01*
X172754520Y-91517850D01*
X172744030Y-91495671D01*
X172735765Y-91472572D01*
X172729804Y-91448773D01*
X172726204Y-91424505D01*
X172725000Y-91400001D01*
X172725000Y-90699999D01*
X172726204Y-90675495D01*
X172729804Y-90651227D01*
X172735765Y-90627428D01*
X172744030Y-90604329D01*
X172754520Y-90582150D01*
X172767132Y-90561107D01*
X172781747Y-90541401D01*
X172798223Y-90523223D01*
X172816401Y-90506747D01*
X172836107Y-90492132D01*
X172857150Y-90479520D01*
X172879329Y-90469030D01*
X172902428Y-90460765D01*
X172926227Y-90454804D01*
X172950495Y-90451204D01*
X172974999Y-90450000D01*
X174275001Y-90450000D01*
X174299505Y-90451204D01*
G37*
G36*
X170389703Y-86450722D02*
G01*
X170404264Y-86452882D01*
X170418543Y-86456459D01*
X170432403Y-86461418D01*
X170445710Y-86467712D01*
X170458336Y-86475280D01*
X170470159Y-86484048D01*
X170481066Y-86493934D01*
X170490952Y-86504841D01*
X170499720Y-86516664D01*
X170507288Y-86529290D01*
X170513582Y-86542597D01*
X170518541Y-86556457D01*
X170522118Y-86570736D01*
X170524278Y-86585297D01*
X170525000Y-86600000D01*
X170525000Y-86900000D01*
X170524278Y-86914703D01*
X170522118Y-86929264D01*
X170518541Y-86943543D01*
X170513582Y-86957403D01*
X170507288Y-86970710D01*
X170499720Y-86983336D01*
X170490952Y-86995159D01*
X170481066Y-87006066D01*
X170470159Y-87015952D01*
X170458336Y-87024720D01*
X170445710Y-87032288D01*
X170432403Y-87038582D01*
X170418543Y-87043541D01*
X170404264Y-87047118D01*
X170389703Y-87049278D01*
X170375000Y-87050000D01*
X169125000Y-87050000D01*
X169110297Y-87049278D01*
X169095736Y-87047118D01*
X169081457Y-87043541D01*
X169067597Y-87038582D01*
X169054290Y-87032288D01*
X169041664Y-87024720D01*
X169029841Y-87015952D01*
X169018934Y-87006066D01*
X169009048Y-86995159D01*
X169000280Y-86983336D01*
X168992712Y-86970710D01*
X168986418Y-86957403D01*
X168981459Y-86943543D01*
X168977882Y-86929264D01*
X168975722Y-86914703D01*
X168975000Y-86900000D01*
X168975000Y-86600000D01*
X168975722Y-86585297D01*
X168977882Y-86570736D01*
X168981459Y-86556457D01*
X168986418Y-86542597D01*
X168992712Y-86529290D01*
X169000280Y-86516664D01*
X169009048Y-86504841D01*
X169018934Y-86493934D01*
X169029841Y-86484048D01*
X169041664Y-86475280D01*
X169054290Y-86467712D01*
X169067597Y-86461418D01*
X169081457Y-86456459D01*
X169095736Y-86452882D01*
X169110297Y-86450722D01*
X169125000Y-86450000D01*
X170375000Y-86450000D01*
X170389703Y-86450722D01*
G37*
G36*
X170389703Y-87450722D02*
G01*
X170404264Y-87452882D01*
X170418543Y-87456459D01*
X170432403Y-87461418D01*
X170445710Y-87467712D01*
X170458336Y-87475280D01*
X170470159Y-87484048D01*
X170481066Y-87493934D01*
X170490952Y-87504841D01*
X170499720Y-87516664D01*
X170507288Y-87529290D01*
X170513582Y-87542597D01*
X170518541Y-87556457D01*
X170522118Y-87570736D01*
X170524278Y-87585297D01*
X170525000Y-87600000D01*
X170525000Y-87900000D01*
X170524278Y-87914703D01*
X170522118Y-87929264D01*
X170518541Y-87943543D01*
X170513582Y-87957403D01*
X170507288Y-87970710D01*
X170499720Y-87983336D01*
X170490952Y-87995159D01*
X170481066Y-88006066D01*
X170470159Y-88015952D01*
X170458336Y-88024720D01*
X170445710Y-88032288D01*
X170432403Y-88038582D01*
X170418543Y-88043541D01*
X170404264Y-88047118D01*
X170389703Y-88049278D01*
X170375000Y-88050000D01*
X169125000Y-88050000D01*
X169110297Y-88049278D01*
X169095736Y-88047118D01*
X169081457Y-88043541D01*
X169067597Y-88038582D01*
X169054290Y-88032288D01*
X169041664Y-88024720D01*
X169029841Y-88015952D01*
X169018934Y-88006066D01*
X169009048Y-87995159D01*
X169000280Y-87983336D01*
X168992712Y-87970710D01*
X168986418Y-87957403D01*
X168981459Y-87943543D01*
X168977882Y-87929264D01*
X168975722Y-87914703D01*
X168975000Y-87900000D01*
X168975000Y-87600000D01*
X168975722Y-87585297D01*
X168977882Y-87570736D01*
X168981459Y-87556457D01*
X168986418Y-87542597D01*
X168992712Y-87529290D01*
X169000280Y-87516664D01*
X169009048Y-87504841D01*
X169018934Y-87493934D01*
X169029841Y-87484048D01*
X169041664Y-87475280D01*
X169054290Y-87467712D01*
X169067597Y-87461418D01*
X169081457Y-87456459D01*
X169095736Y-87452882D01*
X169110297Y-87450722D01*
X169125000Y-87450000D01*
X170375000Y-87450000D01*
X170389703Y-87450722D01*
G37*
G36*
X170389703Y-88450722D02*
G01*
X170404264Y-88452882D01*
X170418543Y-88456459D01*
X170432403Y-88461418D01*
X170445710Y-88467712D01*
X170458336Y-88475280D01*
X170470159Y-88484048D01*
X170481066Y-88493934D01*
X170490952Y-88504841D01*
X170499720Y-88516664D01*
X170507288Y-88529290D01*
X170513582Y-88542597D01*
X170518541Y-88556457D01*
X170522118Y-88570736D01*
X170524278Y-88585297D01*
X170525000Y-88600000D01*
X170525000Y-88900000D01*
X170524278Y-88914703D01*
X170522118Y-88929264D01*
X170518541Y-88943543D01*
X170513582Y-88957403D01*
X170507288Y-88970710D01*
X170499720Y-88983336D01*
X170490952Y-88995159D01*
X170481066Y-89006066D01*
X170470159Y-89015952D01*
X170458336Y-89024720D01*
X170445710Y-89032288D01*
X170432403Y-89038582D01*
X170418543Y-89043541D01*
X170404264Y-89047118D01*
X170389703Y-89049278D01*
X170375000Y-89050000D01*
X169125000Y-89050000D01*
X169110297Y-89049278D01*
X169095736Y-89047118D01*
X169081457Y-89043541D01*
X169067597Y-89038582D01*
X169054290Y-89032288D01*
X169041664Y-89024720D01*
X169029841Y-89015952D01*
X169018934Y-89006066D01*
X169009048Y-88995159D01*
X169000280Y-88983336D01*
X168992712Y-88970710D01*
X168986418Y-88957403D01*
X168981459Y-88943543D01*
X168977882Y-88929264D01*
X168975722Y-88914703D01*
X168975000Y-88900000D01*
X168975000Y-88600000D01*
X168975722Y-88585297D01*
X168977882Y-88570736D01*
X168981459Y-88556457D01*
X168986418Y-88542597D01*
X168992712Y-88529290D01*
X169000280Y-88516664D01*
X169009048Y-88504841D01*
X169018934Y-88493934D01*
X169029841Y-88484048D01*
X169041664Y-88475280D01*
X169054290Y-88467712D01*
X169067597Y-88461418D01*
X169081457Y-88456459D01*
X169095736Y-88452882D01*
X169110297Y-88450722D01*
X169125000Y-88450000D01*
X170375000Y-88450000D01*
X170389703Y-88450722D01*
G37*
G36*
X170389703Y-89450722D02*
G01*
X170404264Y-89452882D01*
X170418543Y-89456459D01*
X170432403Y-89461418D01*
X170445710Y-89467712D01*
X170458336Y-89475280D01*
X170470159Y-89484048D01*
X170481066Y-89493934D01*
X170490952Y-89504841D01*
X170499720Y-89516664D01*
X170507288Y-89529290D01*
X170513582Y-89542597D01*
X170518541Y-89556457D01*
X170522118Y-89570736D01*
X170524278Y-89585297D01*
X170525000Y-89600000D01*
X170525000Y-89900000D01*
X170524278Y-89914703D01*
X170522118Y-89929264D01*
X170518541Y-89943543D01*
X170513582Y-89957403D01*
X170507288Y-89970710D01*
X170499720Y-89983336D01*
X170490952Y-89995159D01*
X170481066Y-90006066D01*
X170470159Y-90015952D01*
X170458336Y-90024720D01*
X170445710Y-90032288D01*
X170432403Y-90038582D01*
X170418543Y-90043541D01*
X170404264Y-90047118D01*
X170389703Y-90049278D01*
X170375000Y-90050000D01*
X169125000Y-90050000D01*
X169110297Y-90049278D01*
X169095736Y-90047118D01*
X169081457Y-90043541D01*
X169067597Y-90038582D01*
X169054290Y-90032288D01*
X169041664Y-90024720D01*
X169029841Y-90015952D01*
X169018934Y-90006066D01*
X169009048Y-89995159D01*
X169000280Y-89983336D01*
X168992712Y-89970710D01*
X168986418Y-89957403D01*
X168981459Y-89943543D01*
X168977882Y-89929264D01*
X168975722Y-89914703D01*
X168975000Y-89900000D01*
X168975000Y-89600000D01*
X168975722Y-89585297D01*
X168977882Y-89570736D01*
X168981459Y-89556457D01*
X168986418Y-89542597D01*
X168992712Y-89529290D01*
X169000280Y-89516664D01*
X169009048Y-89504841D01*
X169018934Y-89493934D01*
X169029841Y-89484048D01*
X169041664Y-89475280D01*
X169054290Y-89467712D01*
X169067597Y-89461418D01*
X169081457Y-89456459D01*
X169095736Y-89452882D01*
X169110297Y-89450722D01*
X169125000Y-89450000D01*
X170375000Y-89450000D01*
X170389703Y-89450722D01*
G37*
G36*
X155724505Y-76076204D02*
G01*
X155748773Y-76079804D01*
X155772572Y-76085765D01*
X155795671Y-76094030D01*
X155817850Y-76104520D01*
X155838893Y-76117132D01*
X155858599Y-76131747D01*
X155876777Y-76148223D01*
X155893253Y-76166401D01*
X155907868Y-76186107D01*
X155920480Y-76207150D01*
X155930970Y-76229329D01*
X155939235Y-76252428D01*
X155945196Y-76276227D01*
X155948796Y-76300495D01*
X155950000Y-76324999D01*
X155950000Y-77625001D01*
X155948796Y-77649505D01*
X155945196Y-77673773D01*
X155939235Y-77697572D01*
X155930970Y-77720671D01*
X155920480Y-77742850D01*
X155907868Y-77763893D01*
X155893253Y-77783599D01*
X155876777Y-77801777D01*
X155858599Y-77818253D01*
X155838893Y-77832868D01*
X155817850Y-77845480D01*
X155795671Y-77855970D01*
X155772572Y-77864235D01*
X155748773Y-77870196D01*
X155724505Y-77873796D01*
X155700001Y-77875000D01*
X154999999Y-77875000D01*
X154975495Y-77873796D01*
X154951227Y-77870196D01*
X154927428Y-77864235D01*
X154904329Y-77855970D01*
X154882150Y-77845480D01*
X154861107Y-77832868D01*
X154841401Y-77818253D01*
X154823223Y-77801777D01*
X154806747Y-77783599D01*
X154792132Y-77763893D01*
X154779520Y-77742850D01*
X154769030Y-77720671D01*
X154760765Y-77697572D01*
X154754804Y-77673773D01*
X154751204Y-77649505D01*
X154750000Y-77625001D01*
X154750000Y-76324999D01*
X154751204Y-76300495D01*
X154754804Y-76276227D01*
X154760765Y-76252428D01*
X154769030Y-76229329D01*
X154779520Y-76207150D01*
X154792132Y-76186107D01*
X154806747Y-76166401D01*
X154823223Y-76148223D01*
X154841401Y-76131747D01*
X154861107Y-76117132D01*
X154882150Y-76104520D01*
X154904329Y-76094030D01*
X154927428Y-76085765D01*
X154951227Y-76079804D01*
X154975495Y-76076204D01*
X154999999Y-76075000D01*
X155700001Y-76075000D01*
X155724505Y-76076204D01*
G37*
G36*
X163324505Y-76076204D02*
G01*
X163348773Y-76079804D01*
X163372572Y-76085765D01*
X163395671Y-76094030D01*
X163417850Y-76104520D01*
X163438893Y-76117132D01*
X163458599Y-76131747D01*
X163476777Y-76148223D01*
X163493253Y-76166401D01*
X163507868Y-76186107D01*
X163520480Y-76207150D01*
X163530970Y-76229329D01*
X163539235Y-76252428D01*
X163545196Y-76276227D01*
X163548796Y-76300495D01*
X163550000Y-76324999D01*
X163550000Y-77625001D01*
X163548796Y-77649505D01*
X163545196Y-77673773D01*
X163539235Y-77697572D01*
X163530970Y-77720671D01*
X163520480Y-77742850D01*
X163507868Y-77763893D01*
X163493253Y-77783599D01*
X163476777Y-77801777D01*
X163458599Y-77818253D01*
X163438893Y-77832868D01*
X163417850Y-77845480D01*
X163395671Y-77855970D01*
X163372572Y-77864235D01*
X163348773Y-77870196D01*
X163324505Y-77873796D01*
X163300001Y-77875000D01*
X162599999Y-77875000D01*
X162575495Y-77873796D01*
X162551227Y-77870196D01*
X162527428Y-77864235D01*
X162504329Y-77855970D01*
X162482150Y-77845480D01*
X162461107Y-77832868D01*
X162441401Y-77818253D01*
X162423223Y-77801777D01*
X162406747Y-77783599D01*
X162392132Y-77763893D01*
X162379520Y-77742850D01*
X162369030Y-77720671D01*
X162360765Y-77697572D01*
X162354804Y-77673773D01*
X162351204Y-77649505D01*
X162350000Y-77625001D01*
X162350000Y-76324999D01*
X162351204Y-76300495D01*
X162354804Y-76276227D01*
X162360765Y-76252428D01*
X162369030Y-76229329D01*
X162379520Y-76207150D01*
X162392132Y-76186107D01*
X162406747Y-76166401D01*
X162423223Y-76148223D01*
X162441401Y-76131747D01*
X162461107Y-76117132D01*
X162482150Y-76104520D01*
X162504329Y-76094030D01*
X162527428Y-76085765D01*
X162551227Y-76079804D01*
X162575495Y-76076204D01*
X162599999Y-76075000D01*
X163300001Y-76075000D01*
X163324505Y-76076204D01*
G37*
G36*
X156814703Y-80075722D02*
G01*
X156829264Y-80077882D01*
X156843543Y-80081459D01*
X156857403Y-80086418D01*
X156870710Y-80092712D01*
X156883336Y-80100280D01*
X156895159Y-80109048D01*
X156906066Y-80118934D01*
X156915952Y-80129841D01*
X156924720Y-80141664D01*
X156932288Y-80154290D01*
X156938582Y-80167597D01*
X156943541Y-80181457D01*
X156947118Y-80195736D01*
X156949278Y-80210297D01*
X156950000Y-80225000D01*
X156950000Y-81475000D01*
X156949278Y-81489703D01*
X156947118Y-81504264D01*
X156943541Y-81518543D01*
X156938582Y-81532403D01*
X156932288Y-81545710D01*
X156924720Y-81558336D01*
X156915952Y-81570159D01*
X156906066Y-81581066D01*
X156895159Y-81590952D01*
X156883336Y-81599720D01*
X156870710Y-81607288D01*
X156857403Y-81613582D01*
X156843543Y-81618541D01*
X156829264Y-81622118D01*
X156814703Y-81624278D01*
X156800000Y-81625000D01*
X156500000Y-81625000D01*
X156485297Y-81624278D01*
X156470736Y-81622118D01*
X156456457Y-81618541D01*
X156442597Y-81613582D01*
X156429290Y-81607288D01*
X156416664Y-81599720D01*
X156404841Y-81590952D01*
X156393934Y-81581066D01*
X156384048Y-81570159D01*
X156375280Y-81558336D01*
X156367712Y-81545710D01*
X156361418Y-81532403D01*
X156356459Y-81518543D01*
X156352882Y-81504264D01*
X156350722Y-81489703D01*
X156350000Y-81475000D01*
X156350000Y-80225000D01*
X156350722Y-80210297D01*
X156352882Y-80195736D01*
X156356459Y-80181457D01*
X156361418Y-80167597D01*
X156367712Y-80154290D01*
X156375280Y-80141664D01*
X156384048Y-80129841D01*
X156393934Y-80118934D01*
X156404841Y-80109048D01*
X156416664Y-80100280D01*
X156429290Y-80092712D01*
X156442597Y-80086418D01*
X156456457Y-80081459D01*
X156470736Y-80077882D01*
X156485297Y-80075722D01*
X156500000Y-80075000D01*
X156800000Y-80075000D01*
X156814703Y-80075722D01*
G37*
G36*
X157814703Y-80075722D02*
G01*
X157829264Y-80077882D01*
X157843543Y-80081459D01*
X157857403Y-80086418D01*
X157870710Y-80092712D01*
X157883336Y-80100280D01*
X157895159Y-80109048D01*
X157906066Y-80118934D01*
X157915952Y-80129841D01*
X157924720Y-80141664D01*
X157932288Y-80154290D01*
X157938582Y-80167597D01*
X157943541Y-80181457D01*
X157947118Y-80195736D01*
X157949278Y-80210297D01*
X157950000Y-80225000D01*
X157950000Y-81475000D01*
X157949278Y-81489703D01*
X157947118Y-81504264D01*
X157943541Y-81518543D01*
X157938582Y-81532403D01*
X157932288Y-81545710D01*
X157924720Y-81558336D01*
X157915952Y-81570159D01*
X157906066Y-81581066D01*
X157895159Y-81590952D01*
X157883336Y-81599720D01*
X157870710Y-81607288D01*
X157857403Y-81613582D01*
X157843543Y-81618541D01*
X157829264Y-81622118D01*
X157814703Y-81624278D01*
X157800000Y-81625000D01*
X157500000Y-81625000D01*
X157485297Y-81624278D01*
X157470736Y-81622118D01*
X157456457Y-81618541D01*
X157442597Y-81613582D01*
X157429290Y-81607288D01*
X157416664Y-81599720D01*
X157404841Y-81590952D01*
X157393934Y-81581066D01*
X157384048Y-81570159D01*
X157375280Y-81558336D01*
X157367712Y-81545710D01*
X157361418Y-81532403D01*
X157356459Y-81518543D01*
X157352882Y-81504264D01*
X157350722Y-81489703D01*
X157350000Y-81475000D01*
X157350000Y-80225000D01*
X157350722Y-80210297D01*
X157352882Y-80195736D01*
X157356459Y-80181457D01*
X157361418Y-80167597D01*
X157367712Y-80154290D01*
X157375280Y-80141664D01*
X157384048Y-80129841D01*
X157393934Y-80118934D01*
X157404841Y-80109048D01*
X157416664Y-80100280D01*
X157429290Y-80092712D01*
X157442597Y-80086418D01*
X157456457Y-80081459D01*
X157470736Y-80077882D01*
X157485297Y-80075722D01*
X157500000Y-80075000D01*
X157800000Y-80075000D01*
X157814703Y-80075722D01*
G37*
G36*
X158814703Y-80075722D02*
G01*
X158829264Y-80077882D01*
X158843543Y-80081459D01*
X158857403Y-80086418D01*
X158870710Y-80092712D01*
X158883336Y-80100280D01*
X158895159Y-80109048D01*
X158906066Y-80118934D01*
X158915952Y-80129841D01*
X158924720Y-80141664D01*
X158932288Y-80154290D01*
X158938582Y-80167597D01*
X158943541Y-80181457D01*
X158947118Y-80195736D01*
X158949278Y-80210297D01*
X158950000Y-80225000D01*
X158950000Y-81475000D01*
X158949278Y-81489703D01*
X158947118Y-81504264D01*
X158943541Y-81518543D01*
X158938582Y-81532403D01*
X158932288Y-81545710D01*
X158924720Y-81558336D01*
X158915952Y-81570159D01*
X158906066Y-81581066D01*
X158895159Y-81590952D01*
X158883336Y-81599720D01*
X158870710Y-81607288D01*
X158857403Y-81613582D01*
X158843543Y-81618541D01*
X158829264Y-81622118D01*
X158814703Y-81624278D01*
X158800000Y-81625000D01*
X158500000Y-81625000D01*
X158485297Y-81624278D01*
X158470736Y-81622118D01*
X158456457Y-81618541D01*
X158442597Y-81613582D01*
X158429290Y-81607288D01*
X158416664Y-81599720D01*
X158404841Y-81590952D01*
X158393934Y-81581066D01*
X158384048Y-81570159D01*
X158375280Y-81558336D01*
X158367712Y-81545710D01*
X158361418Y-81532403D01*
X158356459Y-81518543D01*
X158352882Y-81504264D01*
X158350722Y-81489703D01*
X158350000Y-81475000D01*
X158350000Y-80225000D01*
X158350722Y-80210297D01*
X158352882Y-80195736D01*
X158356459Y-80181457D01*
X158361418Y-80167597D01*
X158367712Y-80154290D01*
X158375280Y-80141664D01*
X158384048Y-80129841D01*
X158393934Y-80118934D01*
X158404841Y-80109048D01*
X158416664Y-80100280D01*
X158429290Y-80092712D01*
X158442597Y-80086418D01*
X158456457Y-80081459D01*
X158470736Y-80077882D01*
X158485297Y-80075722D01*
X158500000Y-80075000D01*
X158800000Y-80075000D01*
X158814703Y-80075722D01*
G37*
G36*
X159814703Y-80075722D02*
G01*
X159829264Y-80077882D01*
X159843543Y-80081459D01*
X159857403Y-80086418D01*
X159870710Y-80092712D01*
X159883336Y-80100280D01*
X159895159Y-80109048D01*
X159906066Y-80118934D01*
X159915952Y-80129841D01*
X159924720Y-80141664D01*
X159932288Y-80154290D01*
X159938582Y-80167597D01*
X159943541Y-80181457D01*
X159947118Y-80195736D01*
X159949278Y-80210297D01*
X159950000Y-80225000D01*
X159950000Y-81475000D01*
X159949278Y-81489703D01*
X159947118Y-81504264D01*
X159943541Y-81518543D01*
X159938582Y-81532403D01*
X159932288Y-81545710D01*
X159924720Y-81558336D01*
X159915952Y-81570159D01*
X159906066Y-81581066D01*
X159895159Y-81590952D01*
X159883336Y-81599720D01*
X159870710Y-81607288D01*
X159857403Y-81613582D01*
X159843543Y-81618541D01*
X159829264Y-81622118D01*
X159814703Y-81624278D01*
X159800000Y-81625000D01*
X159500000Y-81625000D01*
X159485297Y-81624278D01*
X159470736Y-81622118D01*
X159456457Y-81618541D01*
X159442597Y-81613582D01*
X159429290Y-81607288D01*
X159416664Y-81599720D01*
X159404841Y-81590952D01*
X159393934Y-81581066D01*
X159384048Y-81570159D01*
X159375280Y-81558336D01*
X159367712Y-81545710D01*
X159361418Y-81532403D01*
X159356459Y-81518543D01*
X159352882Y-81504264D01*
X159350722Y-81489703D01*
X159350000Y-81475000D01*
X159350000Y-80225000D01*
X159350722Y-80210297D01*
X159352882Y-80195736D01*
X159356459Y-80181457D01*
X159361418Y-80167597D01*
X159367712Y-80154290D01*
X159375280Y-80141664D01*
X159384048Y-80129841D01*
X159393934Y-80118934D01*
X159404841Y-80109048D01*
X159416664Y-80100280D01*
X159429290Y-80092712D01*
X159442597Y-80086418D01*
X159456457Y-80081459D01*
X159470736Y-80077882D01*
X159485297Y-80075722D01*
X159500000Y-80075000D01*
X159800000Y-80075000D01*
X159814703Y-80075722D01*
G37*
G36*
X160814703Y-80075722D02*
G01*
X160829264Y-80077882D01*
X160843543Y-80081459D01*
X160857403Y-80086418D01*
X160870710Y-80092712D01*
X160883336Y-80100280D01*
X160895159Y-80109048D01*
X160906066Y-80118934D01*
X160915952Y-80129841D01*
X160924720Y-80141664D01*
X160932288Y-80154290D01*
X160938582Y-80167597D01*
X160943541Y-80181457D01*
X160947118Y-80195736D01*
X160949278Y-80210297D01*
X160950000Y-80225000D01*
X160950000Y-81475000D01*
X160949278Y-81489703D01*
X160947118Y-81504264D01*
X160943541Y-81518543D01*
X160938582Y-81532403D01*
X160932288Y-81545710D01*
X160924720Y-81558336D01*
X160915952Y-81570159D01*
X160906066Y-81581066D01*
X160895159Y-81590952D01*
X160883336Y-81599720D01*
X160870710Y-81607288D01*
X160857403Y-81613582D01*
X160843543Y-81618541D01*
X160829264Y-81622118D01*
X160814703Y-81624278D01*
X160800000Y-81625000D01*
X160500000Y-81625000D01*
X160485297Y-81624278D01*
X160470736Y-81622118D01*
X160456457Y-81618541D01*
X160442597Y-81613582D01*
X160429290Y-81607288D01*
X160416664Y-81599720D01*
X160404841Y-81590952D01*
X160393934Y-81581066D01*
X160384048Y-81570159D01*
X160375280Y-81558336D01*
X160367712Y-81545710D01*
X160361418Y-81532403D01*
X160356459Y-81518543D01*
X160352882Y-81504264D01*
X160350722Y-81489703D01*
X160350000Y-81475000D01*
X160350000Y-80225000D01*
X160350722Y-80210297D01*
X160352882Y-80195736D01*
X160356459Y-80181457D01*
X160361418Y-80167597D01*
X160367712Y-80154290D01*
X160375280Y-80141664D01*
X160384048Y-80129841D01*
X160393934Y-80118934D01*
X160404841Y-80109048D01*
X160416664Y-80100280D01*
X160429290Y-80092712D01*
X160442597Y-80086418D01*
X160456457Y-80081459D01*
X160470736Y-80077882D01*
X160485297Y-80075722D01*
X160500000Y-80075000D01*
X160800000Y-80075000D01*
X160814703Y-80075722D01*
G37*
G36*
X161814703Y-80075722D02*
G01*
X161829264Y-80077882D01*
X161843543Y-80081459D01*
X161857403Y-80086418D01*
X161870710Y-80092712D01*
X161883336Y-80100280D01*
X161895159Y-80109048D01*
X161906066Y-80118934D01*
X161915952Y-80129841D01*
X161924720Y-80141664D01*
X161932288Y-80154290D01*
X161938582Y-80167597D01*
X161943541Y-80181457D01*
X161947118Y-80195736D01*
X161949278Y-80210297D01*
X161950000Y-80225000D01*
X161950000Y-81475000D01*
X161949278Y-81489703D01*
X161947118Y-81504264D01*
X161943541Y-81518543D01*
X161938582Y-81532403D01*
X161932288Y-81545710D01*
X161924720Y-81558336D01*
X161915952Y-81570159D01*
X161906066Y-81581066D01*
X161895159Y-81590952D01*
X161883336Y-81599720D01*
X161870710Y-81607288D01*
X161857403Y-81613582D01*
X161843543Y-81618541D01*
X161829264Y-81622118D01*
X161814703Y-81624278D01*
X161800000Y-81625000D01*
X161500000Y-81625000D01*
X161485297Y-81624278D01*
X161470736Y-81622118D01*
X161456457Y-81618541D01*
X161442597Y-81613582D01*
X161429290Y-81607288D01*
X161416664Y-81599720D01*
X161404841Y-81590952D01*
X161393934Y-81581066D01*
X161384048Y-81570159D01*
X161375280Y-81558336D01*
X161367712Y-81545710D01*
X161361418Y-81532403D01*
X161356459Y-81518543D01*
X161352882Y-81504264D01*
X161350722Y-81489703D01*
X161350000Y-81475000D01*
X161350000Y-80225000D01*
X161350722Y-80210297D01*
X161352882Y-80195736D01*
X161356459Y-80181457D01*
X161361418Y-80167597D01*
X161367712Y-80154290D01*
X161375280Y-80141664D01*
X161384048Y-80129841D01*
X161393934Y-80118934D01*
X161404841Y-80109048D01*
X161416664Y-80100280D01*
X161429290Y-80092712D01*
X161442597Y-80086418D01*
X161456457Y-80081459D01*
X161470736Y-80077882D01*
X161485297Y-80075722D01*
X161500000Y-80075000D01*
X161800000Y-80075000D01*
X161814703Y-80075722D01*
G37*
G36*
X156737005Y-107076204D02*
G01*
X156761273Y-107079804D01*
X156785072Y-107085765D01*
X156808171Y-107094030D01*
X156830350Y-107104520D01*
X156851393Y-107117132D01*
X156871099Y-107131747D01*
X156889277Y-107148223D01*
X156905753Y-107166401D01*
X156920368Y-107186107D01*
X156932980Y-107207150D01*
X156943470Y-107229329D01*
X156951735Y-107252428D01*
X156957696Y-107276227D01*
X156961296Y-107300495D01*
X156962500Y-107324999D01*
X156962500Y-109175001D01*
X156961296Y-109199505D01*
X156957696Y-109223773D01*
X156951735Y-109247572D01*
X156943470Y-109270671D01*
X156932980Y-109292850D01*
X156920368Y-109313893D01*
X156905753Y-109333599D01*
X156889277Y-109351777D01*
X156871099Y-109368253D01*
X156851393Y-109382868D01*
X156830350Y-109395480D01*
X156808171Y-109405970D01*
X156785072Y-109414235D01*
X156761273Y-109420196D01*
X156737005Y-109423796D01*
X156712501Y-109425000D01*
X155887499Y-109425000D01*
X155862995Y-109423796D01*
X155838727Y-109420196D01*
X155814928Y-109414235D01*
X155791829Y-109405970D01*
X155769650Y-109395480D01*
X155748607Y-109382868D01*
X155728901Y-109368253D01*
X155710723Y-109351777D01*
X155694247Y-109333599D01*
X155679632Y-109313893D01*
X155667020Y-109292850D01*
X155656530Y-109270671D01*
X155648265Y-109247572D01*
X155642304Y-109223773D01*
X155638704Y-109199505D01*
X155637500Y-109175001D01*
X155637500Y-107324999D01*
X155638704Y-107300495D01*
X155642304Y-107276227D01*
X155648265Y-107252428D01*
X155656530Y-107229329D01*
X155667020Y-107207150D01*
X155679632Y-107186107D01*
X155694247Y-107166401D01*
X155710723Y-107148223D01*
X155728901Y-107131747D01*
X155748607Y-107117132D01*
X155769650Y-107104520D01*
X155791829Y-107094030D01*
X155814928Y-107085765D01*
X155838727Y-107079804D01*
X155862995Y-107076204D01*
X155887499Y-107075000D01*
X156712501Y-107075000D01*
X156737005Y-107076204D01*
G37*
G36*
X153662005Y-107076204D02*
G01*
X153686273Y-107079804D01*
X153710072Y-107085765D01*
X153733171Y-107094030D01*
X153755350Y-107104520D01*
X153776393Y-107117132D01*
X153796099Y-107131747D01*
X153814277Y-107148223D01*
X153830753Y-107166401D01*
X153845368Y-107186107D01*
X153857980Y-107207150D01*
X153868470Y-107229329D01*
X153876735Y-107252428D01*
X153882696Y-107276227D01*
X153886296Y-107300495D01*
X153887500Y-107324999D01*
X153887500Y-109175001D01*
X153886296Y-109199505D01*
X153882696Y-109223773D01*
X153876735Y-109247572D01*
X153868470Y-109270671D01*
X153857980Y-109292850D01*
X153845368Y-109313893D01*
X153830753Y-109333599D01*
X153814277Y-109351777D01*
X153796099Y-109368253D01*
X153776393Y-109382868D01*
X153755350Y-109395480D01*
X153733171Y-109405970D01*
X153710072Y-109414235D01*
X153686273Y-109420196D01*
X153662005Y-109423796D01*
X153637501Y-109425000D01*
X152812499Y-109425000D01*
X152787995Y-109423796D01*
X152763727Y-109420196D01*
X152739928Y-109414235D01*
X152716829Y-109405970D01*
X152694650Y-109395480D01*
X152673607Y-109382868D01*
X152653901Y-109368253D01*
X152635723Y-109351777D01*
X152619247Y-109333599D01*
X152604632Y-109313893D01*
X152592020Y-109292850D01*
X152581530Y-109270671D01*
X152573265Y-109247572D01*
X152567304Y-109223773D01*
X152563704Y-109199505D01*
X152562500Y-109175001D01*
X152562500Y-107324999D01*
X152563704Y-107300495D01*
X152567304Y-107276227D01*
X152573265Y-107252428D01*
X152581530Y-107229329D01*
X152592020Y-107207150D01*
X152604632Y-107186107D01*
X152619247Y-107166401D01*
X152635723Y-107148223D01*
X152653901Y-107131747D01*
X152673607Y-107117132D01*
X152694650Y-107104520D01*
X152716829Y-107094030D01*
X152739928Y-107085765D01*
X152763727Y-107079804D01*
X152787995Y-107076204D01*
X152812499Y-107075000D01*
X153637501Y-107075000D01*
X153662005Y-107076204D01*
G37*
G36*
X166010779Y-86276144D02*
G01*
X166033834Y-86279563D01*
X166056443Y-86285227D01*
X166078387Y-86293079D01*
X166099457Y-86303044D01*
X166119448Y-86315026D01*
X166138168Y-86328910D01*
X166155438Y-86344562D01*
X166171090Y-86361832D01*
X166184974Y-86380552D01*
X166196956Y-86400543D01*
X166206921Y-86421613D01*
X166214773Y-86443557D01*
X166220437Y-86466166D01*
X166223856Y-86489221D01*
X166225000Y-86512500D01*
X166225000Y-86987500D01*
X166223856Y-87010779D01*
X166220437Y-87033834D01*
X166214773Y-87056443D01*
X166206921Y-87078387D01*
X166196956Y-87099457D01*
X166184974Y-87119448D01*
X166171090Y-87138168D01*
X166155438Y-87155438D01*
X166138168Y-87171090D01*
X166119448Y-87184974D01*
X166099457Y-87196956D01*
X166078387Y-87206921D01*
X166056443Y-87214773D01*
X166033834Y-87220437D01*
X166010779Y-87223856D01*
X165987500Y-87225000D01*
X165412500Y-87225000D01*
X165389221Y-87223856D01*
X165366166Y-87220437D01*
X165343557Y-87214773D01*
X165321613Y-87206921D01*
X165300543Y-87196956D01*
X165280552Y-87184974D01*
X165261832Y-87171090D01*
X165244562Y-87155438D01*
X165228910Y-87138168D01*
X165215026Y-87119448D01*
X165203044Y-87099457D01*
X165193079Y-87078387D01*
X165185227Y-87056443D01*
X165179563Y-87033834D01*
X165176144Y-87010779D01*
X165175000Y-86987500D01*
X165175000Y-86512500D01*
X165176144Y-86489221D01*
X165179563Y-86466166D01*
X165185227Y-86443557D01*
X165193079Y-86421613D01*
X165203044Y-86400543D01*
X165215026Y-86380552D01*
X165228910Y-86361832D01*
X165244562Y-86344562D01*
X165261832Y-86328910D01*
X165280552Y-86315026D01*
X165300543Y-86303044D01*
X165321613Y-86293079D01*
X165343557Y-86285227D01*
X165366166Y-86279563D01*
X165389221Y-86276144D01*
X165412500Y-86275000D01*
X165987500Y-86275000D01*
X166010779Y-86276144D01*
G37*
G36*
X167760779Y-86276144D02*
G01*
X167783834Y-86279563D01*
X167806443Y-86285227D01*
X167828387Y-86293079D01*
X167849457Y-86303044D01*
X167869448Y-86315026D01*
X167888168Y-86328910D01*
X167905438Y-86344562D01*
X167921090Y-86361832D01*
X167934974Y-86380552D01*
X167946956Y-86400543D01*
X167956921Y-86421613D01*
X167964773Y-86443557D01*
X167970437Y-86466166D01*
X167973856Y-86489221D01*
X167975000Y-86512500D01*
X167975000Y-86987500D01*
X167973856Y-87010779D01*
X167970437Y-87033834D01*
X167964773Y-87056443D01*
X167956921Y-87078387D01*
X167946956Y-87099457D01*
X167934974Y-87119448D01*
X167921090Y-87138168D01*
X167905438Y-87155438D01*
X167888168Y-87171090D01*
X167869448Y-87184974D01*
X167849457Y-87196956D01*
X167828387Y-87206921D01*
X167806443Y-87214773D01*
X167783834Y-87220437D01*
X167760779Y-87223856D01*
X167737500Y-87225000D01*
X167162500Y-87225000D01*
X167139221Y-87223856D01*
X167116166Y-87220437D01*
X167093557Y-87214773D01*
X167071613Y-87206921D01*
X167050543Y-87196956D01*
X167030552Y-87184974D01*
X167011832Y-87171090D01*
X166994562Y-87155438D01*
X166978910Y-87138168D01*
X166965026Y-87119448D01*
X166953044Y-87099457D01*
X166943079Y-87078387D01*
X166935227Y-87056443D01*
X166929563Y-87033834D01*
X166926144Y-87010779D01*
X166925000Y-86987500D01*
X166925000Y-86512500D01*
X166926144Y-86489221D01*
X166929563Y-86466166D01*
X166935227Y-86443557D01*
X166943079Y-86421613D01*
X166953044Y-86400543D01*
X166965026Y-86380552D01*
X166978910Y-86361832D01*
X166994562Y-86344562D01*
X167011832Y-86328910D01*
X167030552Y-86315026D01*
X167050543Y-86303044D01*
X167071613Y-86293079D01*
X167093557Y-86285227D01*
X167116166Y-86279563D01*
X167139221Y-86276144D01*
X167162500Y-86275000D01*
X167737500Y-86275000D01*
X167760779Y-86276144D01*
G37*
G36*
X165885779Y-87876144D02*
G01*
X165908834Y-87879563D01*
X165931443Y-87885227D01*
X165953387Y-87893079D01*
X165974457Y-87903044D01*
X165994448Y-87915026D01*
X166013168Y-87928910D01*
X166030438Y-87944562D01*
X166046090Y-87961832D01*
X166059974Y-87980552D01*
X166071956Y-88000543D01*
X166081921Y-88021613D01*
X166089773Y-88043557D01*
X166095437Y-88066166D01*
X166098856Y-88089221D01*
X166100000Y-88112500D01*
X166100000Y-88587500D01*
X166098856Y-88610779D01*
X166095437Y-88633834D01*
X166089773Y-88656443D01*
X166081921Y-88678387D01*
X166071956Y-88699457D01*
X166059974Y-88719448D01*
X166046090Y-88738168D01*
X166030438Y-88755438D01*
X166013168Y-88771090D01*
X165994448Y-88784974D01*
X165974457Y-88796956D01*
X165953387Y-88806921D01*
X165931443Y-88814773D01*
X165908834Y-88820437D01*
X165885779Y-88823856D01*
X165862500Y-88825000D01*
X165287500Y-88825000D01*
X165264221Y-88823856D01*
X165241166Y-88820437D01*
X165218557Y-88814773D01*
X165196613Y-88806921D01*
X165175543Y-88796956D01*
X165155552Y-88784974D01*
X165136832Y-88771090D01*
X165119562Y-88755438D01*
X165103910Y-88738168D01*
X165090026Y-88719448D01*
X165078044Y-88699457D01*
X165068079Y-88678387D01*
X165060227Y-88656443D01*
X165054563Y-88633834D01*
X165051144Y-88610779D01*
X165050000Y-88587500D01*
X165050000Y-88112500D01*
X165051144Y-88089221D01*
X165054563Y-88066166D01*
X165060227Y-88043557D01*
X165068079Y-88021613D01*
X165078044Y-88000543D01*
X165090026Y-87980552D01*
X165103910Y-87961832D01*
X165119562Y-87944562D01*
X165136832Y-87928910D01*
X165155552Y-87915026D01*
X165175543Y-87903044D01*
X165196613Y-87893079D01*
X165218557Y-87885227D01*
X165241166Y-87879563D01*
X165264221Y-87876144D01*
X165287500Y-87875000D01*
X165862500Y-87875000D01*
X165885779Y-87876144D01*
G37*
G36*
X167635779Y-87876144D02*
G01*
X167658834Y-87879563D01*
X167681443Y-87885227D01*
X167703387Y-87893079D01*
X167724457Y-87903044D01*
X167744448Y-87915026D01*
X167763168Y-87928910D01*
X167780438Y-87944562D01*
X167796090Y-87961832D01*
X167809974Y-87980552D01*
X167821956Y-88000543D01*
X167831921Y-88021613D01*
X167839773Y-88043557D01*
X167845437Y-88066166D01*
X167848856Y-88089221D01*
X167850000Y-88112500D01*
X167850000Y-88587500D01*
X167848856Y-88610779D01*
X167845437Y-88633834D01*
X167839773Y-88656443D01*
X167831921Y-88678387D01*
X167821956Y-88699457D01*
X167809974Y-88719448D01*
X167796090Y-88738168D01*
X167780438Y-88755438D01*
X167763168Y-88771090D01*
X167744448Y-88784974D01*
X167724457Y-88796956D01*
X167703387Y-88806921D01*
X167681443Y-88814773D01*
X167658834Y-88820437D01*
X167635779Y-88823856D01*
X167612500Y-88825000D01*
X167037500Y-88825000D01*
X167014221Y-88823856D01*
X166991166Y-88820437D01*
X166968557Y-88814773D01*
X166946613Y-88806921D01*
X166925543Y-88796956D01*
X166905552Y-88784974D01*
X166886832Y-88771090D01*
X166869562Y-88755438D01*
X166853910Y-88738168D01*
X166840026Y-88719448D01*
X166828044Y-88699457D01*
X166818079Y-88678387D01*
X166810227Y-88656443D01*
X166804563Y-88633834D01*
X166801144Y-88610779D01*
X166800000Y-88587500D01*
X166800000Y-88112500D01*
X166801144Y-88089221D01*
X166804563Y-88066166D01*
X166810227Y-88043557D01*
X166818079Y-88021613D01*
X166828044Y-88000543D01*
X166840026Y-87980552D01*
X166853910Y-87961832D01*
X166869562Y-87944562D01*
X166886832Y-87928910D01*
X166905552Y-87915026D01*
X166925543Y-87903044D01*
X166946613Y-87893079D01*
X166968557Y-87885227D01*
X166991166Y-87879563D01*
X167014221Y-87876144D01*
X167037500Y-87875000D01*
X167612500Y-87875000D01*
X167635779Y-87876144D01*
G37*
G36*
X161685779Y-98976144D02*
G01*
X161708834Y-98979563D01*
X161731443Y-98985227D01*
X161753387Y-98993079D01*
X161774457Y-99003044D01*
X161794448Y-99015026D01*
X161813168Y-99028910D01*
X161830438Y-99044562D01*
X161846090Y-99061832D01*
X161859974Y-99080552D01*
X161871956Y-99100543D01*
X161881921Y-99121613D01*
X161889773Y-99143557D01*
X161895437Y-99166166D01*
X161898856Y-99189221D01*
X161900000Y-99212500D01*
X161900000Y-99687500D01*
X161898856Y-99710779D01*
X161895437Y-99733834D01*
X161889773Y-99756443D01*
X161881921Y-99778387D01*
X161871956Y-99799457D01*
X161859974Y-99819448D01*
X161846090Y-99838168D01*
X161830438Y-99855438D01*
X161813168Y-99871090D01*
X161794448Y-99884974D01*
X161774457Y-99896956D01*
X161753387Y-99906921D01*
X161731443Y-99914773D01*
X161708834Y-99920437D01*
X161685779Y-99923856D01*
X161662500Y-99925000D01*
X161087500Y-99925000D01*
X161064221Y-99923856D01*
X161041166Y-99920437D01*
X161018557Y-99914773D01*
X160996613Y-99906921D01*
X160975543Y-99896956D01*
X160955552Y-99884974D01*
X160936832Y-99871090D01*
X160919562Y-99855438D01*
X160903910Y-99838168D01*
X160890026Y-99819448D01*
X160878044Y-99799457D01*
X160868079Y-99778387D01*
X160860227Y-99756443D01*
X160854563Y-99733834D01*
X160851144Y-99710779D01*
X160850000Y-99687500D01*
X160850000Y-99212500D01*
X160851144Y-99189221D01*
X160854563Y-99166166D01*
X160860227Y-99143557D01*
X160868079Y-99121613D01*
X160878044Y-99100543D01*
X160890026Y-99080552D01*
X160903910Y-99061832D01*
X160919562Y-99044562D01*
X160936832Y-99028910D01*
X160955552Y-99015026D01*
X160975543Y-99003044D01*
X160996613Y-98993079D01*
X161018557Y-98985227D01*
X161041166Y-98979563D01*
X161064221Y-98976144D01*
X161087500Y-98975000D01*
X161662500Y-98975000D01*
X161685779Y-98976144D01*
G37*
G36*
X163435779Y-98976144D02*
G01*
X163458834Y-98979563D01*
X163481443Y-98985227D01*
X163503387Y-98993079D01*
X163524457Y-99003044D01*
X163544448Y-99015026D01*
X163563168Y-99028910D01*
X163580438Y-99044562D01*
X163596090Y-99061832D01*
X163609974Y-99080552D01*
X163621956Y-99100543D01*
X163631921Y-99121613D01*
X163639773Y-99143557D01*
X163645437Y-99166166D01*
X163648856Y-99189221D01*
X163650000Y-99212500D01*
X163650000Y-99687500D01*
X163648856Y-99710779D01*
X163645437Y-99733834D01*
X163639773Y-99756443D01*
X163631921Y-99778387D01*
X163621956Y-99799457D01*
X163609974Y-99819448D01*
X163596090Y-99838168D01*
X163580438Y-99855438D01*
X163563168Y-99871090D01*
X163544448Y-99884974D01*
X163524457Y-99896956D01*
X163503387Y-99906921D01*
X163481443Y-99914773D01*
X163458834Y-99920437D01*
X163435779Y-99923856D01*
X163412500Y-99925000D01*
X162837500Y-99925000D01*
X162814221Y-99923856D01*
X162791166Y-99920437D01*
X162768557Y-99914773D01*
X162746613Y-99906921D01*
X162725543Y-99896956D01*
X162705552Y-99884974D01*
X162686832Y-99871090D01*
X162669562Y-99855438D01*
X162653910Y-99838168D01*
X162640026Y-99819448D01*
X162628044Y-99799457D01*
X162618079Y-99778387D01*
X162610227Y-99756443D01*
X162604563Y-99733834D01*
X162601144Y-99710779D01*
X162600000Y-99687500D01*
X162600000Y-99212500D01*
X162601144Y-99189221D01*
X162604563Y-99166166D01*
X162610227Y-99143557D01*
X162618079Y-99121613D01*
X162628044Y-99100543D01*
X162640026Y-99080552D01*
X162653910Y-99061832D01*
X162669562Y-99044562D01*
X162686832Y-99028910D01*
X162705552Y-99015026D01*
X162725543Y-99003044D01*
X162746613Y-98993079D01*
X162768557Y-98985227D01*
X162791166Y-98979563D01*
X162814221Y-98976144D01*
X162837500Y-98975000D01*
X163412500Y-98975000D01*
X163435779Y-98976144D01*
G37*
G36*
X167810779Y-99276144D02*
G01*
X167833834Y-99279563D01*
X167856443Y-99285227D01*
X167878387Y-99293079D01*
X167899457Y-99303044D01*
X167919448Y-99315026D01*
X167938168Y-99328910D01*
X167955438Y-99344562D01*
X167971090Y-99361832D01*
X167984974Y-99380552D01*
X167996956Y-99400543D01*
X168006921Y-99421613D01*
X168014773Y-99443557D01*
X168020437Y-99466166D01*
X168023856Y-99489221D01*
X168025000Y-99512500D01*
X168025000Y-99987500D01*
X168023856Y-100010779D01*
X168020437Y-100033834D01*
X168014773Y-100056443D01*
X168006921Y-100078387D01*
X167996956Y-100099457D01*
X167984974Y-100119448D01*
X167971090Y-100138168D01*
X167955438Y-100155438D01*
X167938168Y-100171090D01*
X167919448Y-100184974D01*
X167899457Y-100196956D01*
X167878387Y-100206921D01*
X167856443Y-100214773D01*
X167833834Y-100220437D01*
X167810779Y-100223856D01*
X167787500Y-100225000D01*
X167212500Y-100225000D01*
X167189221Y-100223856D01*
X167166166Y-100220437D01*
X167143557Y-100214773D01*
X167121613Y-100206921D01*
X167100543Y-100196956D01*
X167080552Y-100184974D01*
X167061832Y-100171090D01*
X167044562Y-100155438D01*
X167028910Y-100138168D01*
X167015026Y-100119448D01*
X167003044Y-100099457D01*
X166993079Y-100078387D01*
X166985227Y-100056443D01*
X166979563Y-100033834D01*
X166976144Y-100010779D01*
X166975000Y-99987500D01*
X166975000Y-99512500D01*
X166976144Y-99489221D01*
X166979563Y-99466166D01*
X166985227Y-99443557D01*
X166993079Y-99421613D01*
X167003044Y-99400543D01*
X167015026Y-99380552D01*
X167028910Y-99361832D01*
X167044562Y-99344562D01*
X167061832Y-99328910D01*
X167080552Y-99315026D01*
X167100543Y-99303044D01*
X167121613Y-99293079D01*
X167143557Y-99285227D01*
X167166166Y-99279563D01*
X167189221Y-99276144D01*
X167212500Y-99275000D01*
X167787500Y-99275000D01*
X167810779Y-99276144D01*
G37*
G36*
X166060779Y-99276144D02*
G01*
X166083834Y-99279563D01*
X166106443Y-99285227D01*
X166128387Y-99293079D01*
X166149457Y-99303044D01*
X166169448Y-99315026D01*
X166188168Y-99328910D01*
X166205438Y-99344562D01*
X166221090Y-99361832D01*
X166234974Y-99380552D01*
X166246956Y-99400543D01*
X166256921Y-99421613D01*
X166264773Y-99443557D01*
X166270437Y-99466166D01*
X166273856Y-99489221D01*
X166275000Y-99512500D01*
X166275000Y-99987500D01*
X166273856Y-100010779D01*
X166270437Y-100033834D01*
X166264773Y-100056443D01*
X166256921Y-100078387D01*
X166246956Y-100099457D01*
X166234974Y-100119448D01*
X166221090Y-100138168D01*
X166205438Y-100155438D01*
X166188168Y-100171090D01*
X166169448Y-100184974D01*
X166149457Y-100196956D01*
X166128387Y-100206921D01*
X166106443Y-100214773D01*
X166083834Y-100220437D01*
X166060779Y-100223856D01*
X166037500Y-100225000D01*
X165462500Y-100225000D01*
X165439221Y-100223856D01*
X165416166Y-100220437D01*
X165393557Y-100214773D01*
X165371613Y-100206921D01*
X165350543Y-100196956D01*
X165330552Y-100184974D01*
X165311832Y-100171090D01*
X165294562Y-100155438D01*
X165278910Y-100138168D01*
X165265026Y-100119448D01*
X165253044Y-100099457D01*
X165243079Y-100078387D01*
X165235227Y-100056443D01*
X165229563Y-100033834D01*
X165226144Y-100010779D01*
X165225000Y-99987500D01*
X165225000Y-99512500D01*
X165226144Y-99489221D01*
X165229563Y-99466166D01*
X165235227Y-99443557D01*
X165243079Y-99421613D01*
X165253044Y-99400543D01*
X165265026Y-99380552D01*
X165278910Y-99361832D01*
X165294562Y-99344562D01*
X165311832Y-99328910D01*
X165330552Y-99315026D01*
X165350543Y-99303044D01*
X165371613Y-99293079D01*
X165393557Y-99285227D01*
X165416166Y-99279563D01*
X165439221Y-99276144D01*
X165462500Y-99275000D01*
X166037500Y-99275000D01*
X166060779Y-99276144D01*
G37*
G36*
X162114703Y-97355722D02*
G01*
X162129264Y-97357882D01*
X162143543Y-97361459D01*
X162157403Y-97366418D01*
X162170710Y-97372712D01*
X162183336Y-97380280D01*
X162195159Y-97389048D01*
X162206066Y-97398934D01*
X162215952Y-97409841D01*
X162224720Y-97421664D01*
X162232288Y-97434290D01*
X162238582Y-97447597D01*
X162243541Y-97461457D01*
X162247118Y-97475736D01*
X162249278Y-97490297D01*
X162250000Y-97505000D01*
X162250000Y-97805000D01*
X162249278Y-97819703D01*
X162247118Y-97834264D01*
X162243541Y-97848543D01*
X162238582Y-97862403D01*
X162232288Y-97875710D01*
X162224720Y-97888336D01*
X162215952Y-97900159D01*
X162206066Y-97911066D01*
X162195159Y-97920952D01*
X162183336Y-97929720D01*
X162170710Y-97937288D01*
X162157403Y-97943582D01*
X162143543Y-97948541D01*
X162129264Y-97952118D01*
X162114703Y-97954278D01*
X162100000Y-97955000D01*
X160450000Y-97955000D01*
X160435297Y-97954278D01*
X160420736Y-97952118D01*
X160406457Y-97948541D01*
X160392597Y-97943582D01*
X160379290Y-97937288D01*
X160366664Y-97929720D01*
X160354841Y-97920952D01*
X160343934Y-97911066D01*
X160334048Y-97900159D01*
X160325280Y-97888336D01*
X160317712Y-97875710D01*
X160311418Y-97862403D01*
X160306459Y-97848543D01*
X160302882Y-97834264D01*
X160300722Y-97819703D01*
X160300000Y-97805000D01*
X160300000Y-97505000D01*
X160300722Y-97490297D01*
X160302882Y-97475736D01*
X160306459Y-97461457D01*
X160311418Y-97447597D01*
X160317712Y-97434290D01*
X160325280Y-97421664D01*
X160334048Y-97409841D01*
X160343934Y-97398934D01*
X160354841Y-97389048D01*
X160366664Y-97380280D01*
X160379290Y-97372712D01*
X160392597Y-97366418D01*
X160406457Y-97361459D01*
X160420736Y-97357882D01*
X160435297Y-97355722D01*
X160450000Y-97355000D01*
X162100000Y-97355000D01*
X162114703Y-97355722D01*
G37*
G36*
X162114703Y-96085722D02*
G01*
X162129264Y-96087882D01*
X162143543Y-96091459D01*
X162157403Y-96096418D01*
X162170710Y-96102712D01*
X162183336Y-96110280D01*
X162195159Y-96119048D01*
X162206066Y-96128934D01*
X162215952Y-96139841D01*
X162224720Y-96151664D01*
X162232288Y-96164290D01*
X162238582Y-96177597D01*
X162243541Y-96191457D01*
X162247118Y-96205736D01*
X162249278Y-96220297D01*
X162250000Y-96235000D01*
X162250000Y-96535000D01*
X162249278Y-96549703D01*
X162247118Y-96564264D01*
X162243541Y-96578543D01*
X162238582Y-96592403D01*
X162232288Y-96605710D01*
X162224720Y-96618336D01*
X162215952Y-96630159D01*
X162206066Y-96641066D01*
X162195159Y-96650952D01*
X162183336Y-96659720D01*
X162170710Y-96667288D01*
X162157403Y-96673582D01*
X162143543Y-96678541D01*
X162129264Y-96682118D01*
X162114703Y-96684278D01*
X162100000Y-96685000D01*
X160450000Y-96685000D01*
X160435297Y-96684278D01*
X160420736Y-96682118D01*
X160406457Y-96678541D01*
X160392597Y-96673582D01*
X160379290Y-96667288D01*
X160366664Y-96659720D01*
X160354841Y-96650952D01*
X160343934Y-96641066D01*
X160334048Y-96630159D01*
X160325280Y-96618336D01*
X160317712Y-96605710D01*
X160311418Y-96592403D01*
X160306459Y-96578543D01*
X160302882Y-96564264D01*
X160300722Y-96549703D01*
X160300000Y-96535000D01*
X160300000Y-96235000D01*
X160300722Y-96220297D01*
X160302882Y-96205736D01*
X160306459Y-96191457D01*
X160311418Y-96177597D01*
X160317712Y-96164290D01*
X160325280Y-96151664D01*
X160334048Y-96139841D01*
X160343934Y-96128934D01*
X160354841Y-96119048D01*
X160366664Y-96110280D01*
X160379290Y-96102712D01*
X160392597Y-96096418D01*
X160406457Y-96091459D01*
X160420736Y-96087882D01*
X160435297Y-96085722D01*
X160450000Y-96085000D01*
X162100000Y-96085000D01*
X162114703Y-96085722D01*
G37*
G36*
X162114703Y-94815722D02*
G01*
X162129264Y-94817882D01*
X162143543Y-94821459D01*
X162157403Y-94826418D01*
X162170710Y-94832712D01*
X162183336Y-94840280D01*
X162195159Y-94849048D01*
X162206066Y-94858934D01*
X162215952Y-94869841D01*
X162224720Y-94881664D01*
X162232288Y-94894290D01*
X162238582Y-94907597D01*
X162243541Y-94921457D01*
X162247118Y-94935736D01*
X162249278Y-94950297D01*
X162250000Y-94965000D01*
X162250000Y-95265000D01*
X162249278Y-95279703D01*
X162247118Y-95294264D01*
X162243541Y-95308543D01*
X162238582Y-95322403D01*
X162232288Y-95335710D01*
X162224720Y-95348336D01*
X162215952Y-95360159D01*
X162206066Y-95371066D01*
X162195159Y-95380952D01*
X162183336Y-95389720D01*
X162170710Y-95397288D01*
X162157403Y-95403582D01*
X162143543Y-95408541D01*
X162129264Y-95412118D01*
X162114703Y-95414278D01*
X162100000Y-95415000D01*
X160450000Y-95415000D01*
X160435297Y-95414278D01*
X160420736Y-95412118D01*
X160406457Y-95408541D01*
X160392597Y-95403582D01*
X160379290Y-95397288D01*
X160366664Y-95389720D01*
X160354841Y-95380952D01*
X160343934Y-95371066D01*
X160334048Y-95360159D01*
X160325280Y-95348336D01*
X160317712Y-95335710D01*
X160311418Y-95322403D01*
X160306459Y-95308543D01*
X160302882Y-95294264D01*
X160300722Y-95279703D01*
X160300000Y-95265000D01*
X160300000Y-94965000D01*
X160300722Y-94950297D01*
X160302882Y-94935736D01*
X160306459Y-94921457D01*
X160311418Y-94907597D01*
X160317712Y-94894290D01*
X160325280Y-94881664D01*
X160334048Y-94869841D01*
X160343934Y-94858934D01*
X160354841Y-94849048D01*
X160366664Y-94840280D01*
X160379290Y-94832712D01*
X160392597Y-94826418D01*
X160406457Y-94821459D01*
X160420736Y-94817882D01*
X160435297Y-94815722D01*
X160450000Y-94815000D01*
X162100000Y-94815000D01*
X162114703Y-94815722D01*
G37*
G36*
X162114703Y-93545722D02*
G01*
X162129264Y-93547882D01*
X162143543Y-93551459D01*
X162157403Y-93556418D01*
X162170710Y-93562712D01*
X162183336Y-93570280D01*
X162195159Y-93579048D01*
X162206066Y-93588934D01*
X162215952Y-93599841D01*
X162224720Y-93611664D01*
X162232288Y-93624290D01*
X162238582Y-93637597D01*
X162243541Y-93651457D01*
X162247118Y-93665736D01*
X162249278Y-93680297D01*
X162250000Y-93695000D01*
X162250000Y-93995000D01*
X162249278Y-94009703D01*
X162247118Y-94024264D01*
X162243541Y-94038543D01*
X162238582Y-94052403D01*
X162232288Y-94065710D01*
X162224720Y-94078336D01*
X162215952Y-94090159D01*
X162206066Y-94101066D01*
X162195159Y-94110952D01*
X162183336Y-94119720D01*
X162170710Y-94127288D01*
X162157403Y-94133582D01*
X162143543Y-94138541D01*
X162129264Y-94142118D01*
X162114703Y-94144278D01*
X162100000Y-94145000D01*
X160450000Y-94145000D01*
X160435297Y-94144278D01*
X160420736Y-94142118D01*
X160406457Y-94138541D01*
X160392597Y-94133582D01*
X160379290Y-94127288D01*
X160366664Y-94119720D01*
X160354841Y-94110952D01*
X160343934Y-94101066D01*
X160334048Y-94090159D01*
X160325280Y-94078336D01*
X160317712Y-94065710D01*
X160311418Y-94052403D01*
X160306459Y-94038543D01*
X160302882Y-94024264D01*
X160300722Y-94009703D01*
X160300000Y-93995000D01*
X160300000Y-93695000D01*
X160300722Y-93680297D01*
X160302882Y-93665736D01*
X160306459Y-93651457D01*
X160311418Y-93637597D01*
X160317712Y-93624290D01*
X160325280Y-93611664D01*
X160334048Y-93599841D01*
X160343934Y-93588934D01*
X160354841Y-93579048D01*
X160366664Y-93570280D01*
X160379290Y-93562712D01*
X160392597Y-93556418D01*
X160406457Y-93551459D01*
X160420736Y-93547882D01*
X160435297Y-93545722D01*
X160450000Y-93545000D01*
X162100000Y-93545000D01*
X162114703Y-93545722D01*
G37*
G36*
X167064703Y-93545722D02*
G01*
X167079264Y-93547882D01*
X167093543Y-93551459D01*
X167107403Y-93556418D01*
X167120710Y-93562712D01*
X167133336Y-93570280D01*
X167145159Y-93579048D01*
X167156066Y-93588934D01*
X167165952Y-93599841D01*
X167174720Y-93611664D01*
X167182288Y-93624290D01*
X167188582Y-93637597D01*
X167193541Y-93651457D01*
X167197118Y-93665736D01*
X167199278Y-93680297D01*
X167200000Y-93695000D01*
X167200000Y-93995000D01*
X167199278Y-94009703D01*
X167197118Y-94024264D01*
X167193541Y-94038543D01*
X167188582Y-94052403D01*
X167182288Y-94065710D01*
X167174720Y-94078336D01*
X167165952Y-94090159D01*
X167156066Y-94101066D01*
X167145159Y-94110952D01*
X167133336Y-94119720D01*
X167120710Y-94127288D01*
X167107403Y-94133582D01*
X167093543Y-94138541D01*
X167079264Y-94142118D01*
X167064703Y-94144278D01*
X167050000Y-94145000D01*
X165400000Y-94145000D01*
X165385297Y-94144278D01*
X165370736Y-94142118D01*
X165356457Y-94138541D01*
X165342597Y-94133582D01*
X165329290Y-94127288D01*
X165316664Y-94119720D01*
X165304841Y-94110952D01*
X165293934Y-94101066D01*
X165284048Y-94090159D01*
X165275280Y-94078336D01*
X165267712Y-94065710D01*
X165261418Y-94052403D01*
X165256459Y-94038543D01*
X165252882Y-94024264D01*
X165250722Y-94009703D01*
X165250000Y-93995000D01*
X165250000Y-93695000D01*
X165250722Y-93680297D01*
X165252882Y-93665736D01*
X165256459Y-93651457D01*
X165261418Y-93637597D01*
X165267712Y-93624290D01*
X165275280Y-93611664D01*
X165284048Y-93599841D01*
X165293934Y-93588934D01*
X165304841Y-93579048D01*
X165316664Y-93570280D01*
X165329290Y-93562712D01*
X165342597Y-93556418D01*
X165356457Y-93551459D01*
X165370736Y-93547882D01*
X165385297Y-93545722D01*
X165400000Y-93545000D01*
X167050000Y-93545000D01*
X167064703Y-93545722D01*
G37*
G36*
X167064703Y-94815722D02*
G01*
X167079264Y-94817882D01*
X167093543Y-94821459D01*
X167107403Y-94826418D01*
X167120710Y-94832712D01*
X167133336Y-94840280D01*
X167145159Y-94849048D01*
X167156066Y-94858934D01*
X167165952Y-94869841D01*
X167174720Y-94881664D01*
X167182288Y-94894290D01*
X167188582Y-94907597D01*
X167193541Y-94921457D01*
X167197118Y-94935736D01*
X167199278Y-94950297D01*
X167200000Y-94965000D01*
X167200000Y-95265000D01*
X167199278Y-95279703D01*
X167197118Y-95294264D01*
X167193541Y-95308543D01*
X167188582Y-95322403D01*
X167182288Y-95335710D01*
X167174720Y-95348336D01*
X167165952Y-95360159D01*
X167156066Y-95371066D01*
X167145159Y-95380952D01*
X167133336Y-95389720D01*
X167120710Y-95397288D01*
X167107403Y-95403582D01*
X167093543Y-95408541D01*
X167079264Y-95412118D01*
X167064703Y-95414278D01*
X167050000Y-95415000D01*
X165400000Y-95415000D01*
X165385297Y-95414278D01*
X165370736Y-95412118D01*
X165356457Y-95408541D01*
X165342597Y-95403582D01*
X165329290Y-95397288D01*
X165316664Y-95389720D01*
X165304841Y-95380952D01*
X165293934Y-95371066D01*
X165284048Y-95360159D01*
X165275280Y-95348336D01*
X165267712Y-95335710D01*
X165261418Y-95322403D01*
X165256459Y-95308543D01*
X165252882Y-95294264D01*
X165250722Y-95279703D01*
X165250000Y-95265000D01*
X165250000Y-94965000D01*
X165250722Y-94950297D01*
X165252882Y-94935736D01*
X165256459Y-94921457D01*
X165261418Y-94907597D01*
X165267712Y-94894290D01*
X165275280Y-94881664D01*
X165284048Y-94869841D01*
X165293934Y-94858934D01*
X165304841Y-94849048D01*
X165316664Y-94840280D01*
X165329290Y-94832712D01*
X165342597Y-94826418D01*
X165356457Y-94821459D01*
X165370736Y-94817882D01*
X165385297Y-94815722D01*
X165400000Y-94815000D01*
X167050000Y-94815000D01*
X167064703Y-94815722D01*
G37*
G36*
X167064703Y-96085722D02*
G01*
X167079264Y-96087882D01*
X167093543Y-96091459D01*
X167107403Y-96096418D01*
X167120710Y-96102712D01*
X167133336Y-96110280D01*
X167145159Y-96119048D01*
X167156066Y-96128934D01*
X167165952Y-96139841D01*
X167174720Y-96151664D01*
X167182288Y-96164290D01*
X167188582Y-96177597D01*
X167193541Y-96191457D01*
X167197118Y-96205736D01*
X167199278Y-96220297D01*
X167200000Y-96235000D01*
X167200000Y-96535000D01*
X167199278Y-96549703D01*
X167197118Y-96564264D01*
X167193541Y-96578543D01*
X167188582Y-96592403D01*
X167182288Y-96605710D01*
X167174720Y-96618336D01*
X167165952Y-96630159D01*
X167156066Y-96641066D01*
X167145159Y-96650952D01*
X167133336Y-96659720D01*
X167120710Y-96667288D01*
X167107403Y-96673582D01*
X167093543Y-96678541D01*
X167079264Y-96682118D01*
X167064703Y-96684278D01*
X167050000Y-96685000D01*
X165400000Y-96685000D01*
X165385297Y-96684278D01*
X165370736Y-96682118D01*
X165356457Y-96678541D01*
X165342597Y-96673582D01*
X165329290Y-96667288D01*
X165316664Y-96659720D01*
X165304841Y-96650952D01*
X165293934Y-96641066D01*
X165284048Y-96630159D01*
X165275280Y-96618336D01*
X165267712Y-96605710D01*
X165261418Y-96592403D01*
X165256459Y-96578543D01*
X165252882Y-96564264D01*
X165250722Y-96549703D01*
X165250000Y-96535000D01*
X165250000Y-96235000D01*
X165250722Y-96220297D01*
X165252882Y-96205736D01*
X165256459Y-96191457D01*
X165261418Y-96177597D01*
X165267712Y-96164290D01*
X165275280Y-96151664D01*
X165284048Y-96139841D01*
X165293934Y-96128934D01*
X165304841Y-96119048D01*
X165316664Y-96110280D01*
X165329290Y-96102712D01*
X165342597Y-96096418D01*
X165356457Y-96091459D01*
X165370736Y-96087882D01*
X165385297Y-96085722D01*
X165400000Y-96085000D01*
X167050000Y-96085000D01*
X167064703Y-96085722D01*
G37*
G36*
X167064703Y-97355722D02*
G01*
X167079264Y-97357882D01*
X167093543Y-97361459D01*
X167107403Y-97366418D01*
X167120710Y-97372712D01*
X167133336Y-97380280D01*
X167145159Y-97389048D01*
X167156066Y-97398934D01*
X167165952Y-97409841D01*
X167174720Y-97421664D01*
X167182288Y-97434290D01*
X167188582Y-97447597D01*
X167193541Y-97461457D01*
X167197118Y-97475736D01*
X167199278Y-97490297D01*
X167200000Y-97505000D01*
X167200000Y-97805000D01*
X167199278Y-97819703D01*
X167197118Y-97834264D01*
X167193541Y-97848543D01*
X167188582Y-97862403D01*
X167182288Y-97875710D01*
X167174720Y-97888336D01*
X167165952Y-97900159D01*
X167156066Y-97911066D01*
X167145159Y-97920952D01*
X167133336Y-97929720D01*
X167120710Y-97937288D01*
X167107403Y-97943582D01*
X167093543Y-97948541D01*
X167079264Y-97952118D01*
X167064703Y-97954278D01*
X167050000Y-97955000D01*
X165400000Y-97955000D01*
X165385297Y-97954278D01*
X165370736Y-97952118D01*
X165356457Y-97948541D01*
X165342597Y-97943582D01*
X165329290Y-97937288D01*
X165316664Y-97929720D01*
X165304841Y-97920952D01*
X165293934Y-97911066D01*
X165284048Y-97900159D01*
X165275280Y-97888336D01*
X165267712Y-97875710D01*
X165261418Y-97862403D01*
X165256459Y-97848543D01*
X165252882Y-97834264D01*
X165250722Y-97819703D01*
X165250000Y-97805000D01*
X165250000Y-97505000D01*
X165250722Y-97490297D01*
X165252882Y-97475736D01*
X165256459Y-97461457D01*
X165261418Y-97447597D01*
X165267712Y-97434290D01*
X165275280Y-97421664D01*
X165284048Y-97409841D01*
X165293934Y-97398934D01*
X165304841Y-97389048D01*
X165316664Y-97380280D01*
X165329290Y-97372712D01*
X165342597Y-97366418D01*
X165356457Y-97361459D01*
X165370736Y-97357882D01*
X165385297Y-97355722D01*
X165400000Y-97355000D01*
X167050000Y-97355000D01*
X167064703Y-97355722D01*
G37*
D11*
X144750000Y-111150000D03*
X144750000Y-109250000D03*
X146950000Y-109250000D03*
X146950000Y-110200000D03*
X146950000Y-111150000D03*
X144650000Y-115810000D03*
X144650000Y-113910000D03*
X146850000Y-113910000D03*
X146850000Y-114860000D03*
X146850000Y-115810000D03*
D10*
G36*
X153810779Y-111276144D02*
G01*
X153833834Y-111279563D01*
X153856443Y-111285227D01*
X153878387Y-111293079D01*
X153899457Y-111303044D01*
X153919448Y-111315026D01*
X153938168Y-111328910D01*
X153955438Y-111344562D01*
X153971090Y-111361832D01*
X153984974Y-111380552D01*
X153996956Y-111400543D01*
X154006921Y-111421613D01*
X154014773Y-111443557D01*
X154020437Y-111466166D01*
X154023856Y-111489221D01*
X154025000Y-111512500D01*
X154025000Y-111987500D01*
X154023856Y-112010779D01*
X154020437Y-112033834D01*
X154014773Y-112056443D01*
X154006921Y-112078387D01*
X153996956Y-112099457D01*
X153984974Y-112119448D01*
X153971090Y-112138168D01*
X153955438Y-112155438D01*
X153938168Y-112171090D01*
X153919448Y-112184974D01*
X153899457Y-112196956D01*
X153878387Y-112206921D01*
X153856443Y-112214773D01*
X153833834Y-112220437D01*
X153810779Y-112223856D01*
X153787500Y-112225000D01*
X153212500Y-112225000D01*
X153189221Y-112223856D01*
X153166166Y-112220437D01*
X153143557Y-112214773D01*
X153121613Y-112206921D01*
X153100543Y-112196956D01*
X153080552Y-112184974D01*
X153061832Y-112171090D01*
X153044562Y-112155438D01*
X153028910Y-112138168D01*
X153015026Y-112119448D01*
X153003044Y-112099457D01*
X152993079Y-112078387D01*
X152985227Y-112056443D01*
X152979563Y-112033834D01*
X152976144Y-112010779D01*
X152975000Y-111987500D01*
X152975000Y-111512500D01*
X152976144Y-111489221D01*
X152979563Y-111466166D01*
X152985227Y-111443557D01*
X152993079Y-111421613D01*
X153003044Y-111400543D01*
X153015026Y-111380552D01*
X153028910Y-111361832D01*
X153044562Y-111344562D01*
X153061832Y-111328910D01*
X153080552Y-111315026D01*
X153100543Y-111303044D01*
X153121613Y-111293079D01*
X153143557Y-111285227D01*
X153166166Y-111279563D01*
X153189221Y-111276144D01*
X153212500Y-111275000D01*
X153787500Y-111275000D01*
X153810779Y-111276144D01*
G37*
G36*
X155560779Y-111276144D02*
G01*
X155583834Y-111279563D01*
X155606443Y-111285227D01*
X155628387Y-111293079D01*
X155649457Y-111303044D01*
X155669448Y-111315026D01*
X155688168Y-111328910D01*
X155705438Y-111344562D01*
X155721090Y-111361832D01*
X155734974Y-111380552D01*
X155746956Y-111400543D01*
X155756921Y-111421613D01*
X155764773Y-111443557D01*
X155770437Y-111466166D01*
X155773856Y-111489221D01*
X155775000Y-111512500D01*
X155775000Y-111987500D01*
X155773856Y-112010779D01*
X155770437Y-112033834D01*
X155764773Y-112056443D01*
X155756921Y-112078387D01*
X155746956Y-112099457D01*
X155734974Y-112119448D01*
X155721090Y-112138168D01*
X155705438Y-112155438D01*
X155688168Y-112171090D01*
X155669448Y-112184974D01*
X155649457Y-112196956D01*
X155628387Y-112206921D01*
X155606443Y-112214773D01*
X155583834Y-112220437D01*
X155560779Y-112223856D01*
X155537500Y-112225000D01*
X154962500Y-112225000D01*
X154939221Y-112223856D01*
X154916166Y-112220437D01*
X154893557Y-112214773D01*
X154871613Y-112206921D01*
X154850543Y-112196956D01*
X154830552Y-112184974D01*
X154811832Y-112171090D01*
X154794562Y-112155438D01*
X154778910Y-112138168D01*
X154765026Y-112119448D01*
X154753044Y-112099457D01*
X154743079Y-112078387D01*
X154735227Y-112056443D01*
X154729563Y-112033834D01*
X154726144Y-112010779D01*
X154725000Y-111987500D01*
X154725000Y-111512500D01*
X154726144Y-111489221D01*
X154729563Y-111466166D01*
X154735227Y-111443557D01*
X154743079Y-111421613D01*
X154753044Y-111400543D01*
X154765026Y-111380552D01*
X154778910Y-111361832D01*
X154794562Y-111344562D01*
X154811832Y-111328910D01*
X154830552Y-111315026D01*
X154850543Y-111303044D01*
X154871613Y-111293079D01*
X154893557Y-111285227D01*
X154916166Y-111279563D01*
X154939221Y-111276144D01*
X154962500Y-111275000D01*
X155537500Y-111275000D01*
X155560779Y-111276144D01*
G37*
G36*
X163749504Y-106426204D02*
G01*
X163773773Y-106429804D01*
X163797571Y-106435765D01*
X163820671Y-106444030D01*
X163842849Y-106454520D01*
X163863893Y-106467133D01*
X163883598Y-106481747D01*
X163901777Y-106498223D01*
X163918253Y-106516402D01*
X163932867Y-106536107D01*
X163945480Y-106557151D01*
X163955970Y-106579329D01*
X163964235Y-106602429D01*
X163970196Y-106626227D01*
X163973796Y-106650496D01*
X163975000Y-106675000D01*
X163975000Y-108825000D01*
X163973796Y-108849504D01*
X163970196Y-108873773D01*
X163964235Y-108897571D01*
X163955970Y-108920671D01*
X163945480Y-108942849D01*
X163932867Y-108963893D01*
X163918253Y-108983598D01*
X163901777Y-109001777D01*
X163883598Y-109018253D01*
X163863893Y-109032867D01*
X163842849Y-109045480D01*
X163820671Y-109055970D01*
X163797571Y-109064235D01*
X163773773Y-109070196D01*
X163749504Y-109073796D01*
X163725000Y-109075000D01*
X162800000Y-109075000D01*
X162775496Y-109073796D01*
X162751227Y-109070196D01*
X162727429Y-109064235D01*
X162704329Y-109055970D01*
X162682151Y-109045480D01*
X162661107Y-109032867D01*
X162641402Y-109018253D01*
X162623223Y-109001777D01*
X162606747Y-108983598D01*
X162592133Y-108963893D01*
X162579520Y-108942849D01*
X162569030Y-108920671D01*
X162560765Y-108897571D01*
X162554804Y-108873773D01*
X162551204Y-108849504D01*
X162550000Y-108825000D01*
X162550000Y-106675000D01*
X162551204Y-106650496D01*
X162554804Y-106626227D01*
X162560765Y-106602429D01*
X162569030Y-106579329D01*
X162579520Y-106557151D01*
X162592133Y-106536107D01*
X162606747Y-106516402D01*
X162623223Y-106498223D01*
X162641402Y-106481747D01*
X162661107Y-106467133D01*
X162682151Y-106454520D01*
X162704329Y-106444030D01*
X162727429Y-106435765D01*
X162751227Y-106429804D01*
X162775496Y-106426204D01*
X162800000Y-106425000D01*
X163725000Y-106425000D01*
X163749504Y-106426204D01*
G37*
G36*
X166724504Y-106426204D02*
G01*
X166748773Y-106429804D01*
X166772571Y-106435765D01*
X166795671Y-106444030D01*
X166817849Y-106454520D01*
X166838893Y-106467133D01*
X166858598Y-106481747D01*
X166876777Y-106498223D01*
X166893253Y-106516402D01*
X166907867Y-106536107D01*
X166920480Y-106557151D01*
X166930970Y-106579329D01*
X166939235Y-106602429D01*
X166945196Y-106626227D01*
X166948796Y-106650496D01*
X166950000Y-106675000D01*
X166950000Y-108825000D01*
X166948796Y-108849504D01*
X166945196Y-108873773D01*
X166939235Y-108897571D01*
X166930970Y-108920671D01*
X166920480Y-108942849D01*
X166907867Y-108963893D01*
X166893253Y-108983598D01*
X166876777Y-109001777D01*
X166858598Y-109018253D01*
X166838893Y-109032867D01*
X166817849Y-109045480D01*
X166795671Y-109055970D01*
X166772571Y-109064235D01*
X166748773Y-109070196D01*
X166724504Y-109073796D01*
X166700000Y-109075000D01*
X165775000Y-109075000D01*
X165750496Y-109073796D01*
X165726227Y-109070196D01*
X165702429Y-109064235D01*
X165679329Y-109055970D01*
X165657151Y-109045480D01*
X165636107Y-109032867D01*
X165616402Y-109018253D01*
X165598223Y-109001777D01*
X165581747Y-108983598D01*
X165567133Y-108963893D01*
X165554520Y-108942849D01*
X165544030Y-108920671D01*
X165535765Y-108897571D01*
X165529804Y-108873773D01*
X165526204Y-108849504D01*
X165525000Y-108825000D01*
X165525000Y-106675000D01*
X165526204Y-106650496D01*
X165529804Y-106626227D01*
X165535765Y-106602429D01*
X165544030Y-106579329D01*
X165554520Y-106557151D01*
X165567133Y-106536107D01*
X165581747Y-106516402D01*
X165598223Y-106498223D01*
X165616402Y-106481747D01*
X165636107Y-106467133D01*
X165657151Y-106454520D01*
X165679329Y-106444030D01*
X165702429Y-106435765D01*
X165726227Y-106429804D01*
X165750496Y-106426204D01*
X165775000Y-106425000D01*
X166700000Y-106425000D01*
X166724504Y-106426204D01*
G37*
G36*
X143010779Y-108976144D02*
G01*
X143033834Y-108979563D01*
X143056443Y-108985227D01*
X143078387Y-108993079D01*
X143099457Y-109003044D01*
X143119448Y-109015026D01*
X143138168Y-109028910D01*
X143155438Y-109044562D01*
X143171090Y-109061832D01*
X143184974Y-109080552D01*
X143196956Y-109100543D01*
X143206921Y-109121613D01*
X143214773Y-109143557D01*
X143220437Y-109166166D01*
X143223856Y-109189221D01*
X143225000Y-109212500D01*
X143225000Y-109787500D01*
X143223856Y-109810779D01*
X143220437Y-109833834D01*
X143214773Y-109856443D01*
X143206921Y-109878387D01*
X143196956Y-109899457D01*
X143184974Y-109919448D01*
X143171090Y-109938168D01*
X143155438Y-109955438D01*
X143138168Y-109971090D01*
X143119448Y-109984974D01*
X143099457Y-109996956D01*
X143078387Y-110006921D01*
X143056443Y-110014773D01*
X143033834Y-110020437D01*
X143010779Y-110023856D01*
X142987500Y-110025000D01*
X142512500Y-110025000D01*
X142489221Y-110023856D01*
X142466166Y-110020437D01*
X142443557Y-110014773D01*
X142421613Y-110006921D01*
X142400543Y-109996956D01*
X142380552Y-109984974D01*
X142361832Y-109971090D01*
X142344562Y-109955438D01*
X142328910Y-109938168D01*
X142315026Y-109919448D01*
X142303044Y-109899457D01*
X142293079Y-109878387D01*
X142285227Y-109856443D01*
X142279563Y-109833834D01*
X142276144Y-109810779D01*
X142275000Y-109787500D01*
X142275000Y-109212500D01*
X142276144Y-109189221D01*
X142279563Y-109166166D01*
X142285227Y-109143557D01*
X142293079Y-109121613D01*
X142303044Y-109100543D01*
X142315026Y-109080552D01*
X142328910Y-109061832D01*
X142344562Y-109044562D01*
X142361832Y-109028910D01*
X142380552Y-109015026D01*
X142400543Y-109003044D01*
X142421613Y-108993079D01*
X142443557Y-108985227D01*
X142466166Y-108979563D01*
X142489221Y-108976144D01*
X142512500Y-108975000D01*
X142987500Y-108975000D01*
X143010779Y-108976144D01*
G37*
G36*
X143010779Y-110726144D02*
G01*
X143033834Y-110729563D01*
X143056443Y-110735227D01*
X143078387Y-110743079D01*
X143099457Y-110753044D01*
X143119448Y-110765026D01*
X143138168Y-110778910D01*
X143155438Y-110794562D01*
X143171090Y-110811832D01*
X143184974Y-110830552D01*
X143196956Y-110850543D01*
X143206921Y-110871613D01*
X143214773Y-110893557D01*
X143220437Y-110916166D01*
X143223856Y-110939221D01*
X143225000Y-110962500D01*
X143225000Y-111537500D01*
X143223856Y-111560779D01*
X143220437Y-111583834D01*
X143214773Y-111606443D01*
X143206921Y-111628387D01*
X143196956Y-111649457D01*
X143184974Y-111669448D01*
X143171090Y-111688168D01*
X143155438Y-111705438D01*
X143138168Y-111721090D01*
X143119448Y-111734974D01*
X143099457Y-111746956D01*
X143078387Y-111756921D01*
X143056443Y-111764773D01*
X143033834Y-111770437D01*
X143010779Y-111773856D01*
X142987500Y-111775000D01*
X142512500Y-111775000D01*
X142489221Y-111773856D01*
X142466166Y-111770437D01*
X142443557Y-111764773D01*
X142421613Y-111756921D01*
X142400543Y-111746956D01*
X142380552Y-111734974D01*
X142361832Y-111721090D01*
X142344562Y-111705438D01*
X142328910Y-111688168D01*
X142315026Y-111669448D01*
X142303044Y-111649457D01*
X142293079Y-111628387D01*
X142285227Y-111606443D01*
X142279563Y-111583834D01*
X142276144Y-111560779D01*
X142275000Y-111537500D01*
X142275000Y-110962500D01*
X142276144Y-110939221D01*
X142279563Y-110916166D01*
X142285227Y-110893557D01*
X142293079Y-110871613D01*
X142303044Y-110850543D01*
X142315026Y-110830552D01*
X142328910Y-110811832D01*
X142344562Y-110794562D01*
X142361832Y-110778910D01*
X142380552Y-110765026D01*
X142400543Y-110753044D01*
X142421613Y-110743079D01*
X142443557Y-110735227D01*
X142466166Y-110729563D01*
X142489221Y-110726144D01*
X142512500Y-110725000D01*
X142987500Y-110725000D01*
X143010779Y-110726144D01*
G37*
G36*
X143010779Y-113351144D02*
G01*
X143033834Y-113354563D01*
X143056443Y-113360227D01*
X143078387Y-113368079D01*
X143099457Y-113378044D01*
X143119448Y-113390026D01*
X143138168Y-113403910D01*
X143155438Y-113419562D01*
X143171090Y-113436832D01*
X143184974Y-113455552D01*
X143196956Y-113475543D01*
X143206921Y-113496613D01*
X143214773Y-113518557D01*
X143220437Y-113541166D01*
X143223856Y-113564221D01*
X143225000Y-113587500D01*
X143225000Y-114162500D01*
X143223856Y-114185779D01*
X143220437Y-114208834D01*
X143214773Y-114231443D01*
X143206921Y-114253387D01*
X143196956Y-114274457D01*
X143184974Y-114294448D01*
X143171090Y-114313168D01*
X143155438Y-114330438D01*
X143138168Y-114346090D01*
X143119448Y-114359974D01*
X143099457Y-114371956D01*
X143078387Y-114381921D01*
X143056443Y-114389773D01*
X143033834Y-114395437D01*
X143010779Y-114398856D01*
X142987500Y-114400000D01*
X142512500Y-114400000D01*
X142489221Y-114398856D01*
X142466166Y-114395437D01*
X142443557Y-114389773D01*
X142421613Y-114381921D01*
X142400543Y-114371956D01*
X142380552Y-114359974D01*
X142361832Y-114346090D01*
X142344562Y-114330438D01*
X142328910Y-114313168D01*
X142315026Y-114294448D01*
X142303044Y-114274457D01*
X142293079Y-114253387D01*
X142285227Y-114231443D01*
X142279563Y-114208834D01*
X142276144Y-114185779D01*
X142275000Y-114162500D01*
X142275000Y-113587500D01*
X142276144Y-113564221D01*
X142279563Y-113541166D01*
X142285227Y-113518557D01*
X142293079Y-113496613D01*
X142303044Y-113475543D01*
X142315026Y-113455552D01*
X142328910Y-113436832D01*
X142344562Y-113419562D01*
X142361832Y-113403910D01*
X142380552Y-113390026D01*
X142400543Y-113378044D01*
X142421613Y-113368079D01*
X142443557Y-113360227D01*
X142466166Y-113354563D01*
X142489221Y-113351144D01*
X142512500Y-113350000D01*
X142987500Y-113350000D01*
X143010779Y-113351144D01*
G37*
G36*
X143010779Y-115101144D02*
G01*
X143033834Y-115104563D01*
X143056443Y-115110227D01*
X143078387Y-115118079D01*
X143099457Y-115128044D01*
X143119448Y-115140026D01*
X143138168Y-115153910D01*
X143155438Y-115169562D01*
X143171090Y-115186832D01*
X143184974Y-115205552D01*
X143196956Y-115225543D01*
X143206921Y-115246613D01*
X143214773Y-115268557D01*
X143220437Y-115291166D01*
X143223856Y-115314221D01*
X143225000Y-115337500D01*
X143225000Y-115912500D01*
X143223856Y-115935779D01*
X143220437Y-115958834D01*
X143214773Y-115981443D01*
X143206921Y-116003387D01*
X143196956Y-116024457D01*
X143184974Y-116044448D01*
X143171090Y-116063168D01*
X143155438Y-116080438D01*
X143138168Y-116096090D01*
X143119448Y-116109974D01*
X143099457Y-116121956D01*
X143078387Y-116131921D01*
X143056443Y-116139773D01*
X143033834Y-116145437D01*
X143010779Y-116148856D01*
X142987500Y-116150000D01*
X142512500Y-116150000D01*
X142489221Y-116148856D01*
X142466166Y-116145437D01*
X142443557Y-116139773D01*
X142421613Y-116131921D01*
X142400543Y-116121956D01*
X142380552Y-116109974D01*
X142361832Y-116096090D01*
X142344562Y-116080438D01*
X142328910Y-116063168D01*
X142315026Y-116044448D01*
X142303044Y-116024457D01*
X142293079Y-116003387D01*
X142285227Y-115981443D01*
X142279563Y-115958834D01*
X142276144Y-115935779D01*
X142275000Y-115912500D01*
X142275000Y-115337500D01*
X142276144Y-115314221D01*
X142279563Y-115291166D01*
X142285227Y-115268557D01*
X142293079Y-115246613D01*
X142303044Y-115225543D01*
X142315026Y-115205552D01*
X142328910Y-115186832D01*
X142344562Y-115169562D01*
X142361832Y-115153910D01*
X142380552Y-115140026D01*
X142400543Y-115128044D01*
X142421613Y-115118079D01*
X142443557Y-115110227D01*
X142466166Y-115104563D01*
X142489221Y-115101144D01*
X142512500Y-115100000D01*
X142987500Y-115100000D01*
X143010779Y-115101144D01*
G37*
G36*
X150010779Y-113226144D02*
G01*
X150033834Y-113229563D01*
X150056443Y-113235227D01*
X150078387Y-113243079D01*
X150099457Y-113253044D01*
X150119448Y-113265026D01*
X150138168Y-113278910D01*
X150155438Y-113294562D01*
X150171090Y-113311832D01*
X150184974Y-113330552D01*
X150196956Y-113350543D01*
X150206921Y-113371613D01*
X150214773Y-113393557D01*
X150220437Y-113416166D01*
X150223856Y-113439221D01*
X150225000Y-113462500D01*
X150225000Y-114037500D01*
X150223856Y-114060779D01*
X150220437Y-114083834D01*
X150214773Y-114106443D01*
X150206921Y-114128387D01*
X150196956Y-114149457D01*
X150184974Y-114169448D01*
X150171090Y-114188168D01*
X150155438Y-114205438D01*
X150138168Y-114221090D01*
X150119448Y-114234974D01*
X150099457Y-114246956D01*
X150078387Y-114256921D01*
X150056443Y-114264773D01*
X150033834Y-114270437D01*
X150010779Y-114273856D01*
X149987500Y-114275000D01*
X149512500Y-114275000D01*
X149489221Y-114273856D01*
X149466166Y-114270437D01*
X149443557Y-114264773D01*
X149421613Y-114256921D01*
X149400543Y-114246956D01*
X149380552Y-114234974D01*
X149361832Y-114221090D01*
X149344562Y-114205438D01*
X149328910Y-114188168D01*
X149315026Y-114169448D01*
X149303044Y-114149457D01*
X149293079Y-114128387D01*
X149285227Y-114106443D01*
X149279563Y-114083834D01*
X149276144Y-114060779D01*
X149275000Y-114037500D01*
X149275000Y-113462500D01*
X149276144Y-113439221D01*
X149279563Y-113416166D01*
X149285227Y-113393557D01*
X149293079Y-113371613D01*
X149303044Y-113350543D01*
X149315026Y-113330552D01*
X149328910Y-113311832D01*
X149344562Y-113294562D01*
X149361832Y-113278910D01*
X149380552Y-113265026D01*
X149400543Y-113253044D01*
X149421613Y-113243079D01*
X149443557Y-113235227D01*
X149466166Y-113229563D01*
X149489221Y-113226144D01*
X149512500Y-113225000D01*
X149987500Y-113225000D01*
X150010779Y-113226144D01*
G37*
G36*
X150010779Y-114976144D02*
G01*
X150033834Y-114979563D01*
X150056443Y-114985227D01*
X150078387Y-114993079D01*
X150099457Y-115003044D01*
X150119448Y-115015026D01*
X150138168Y-115028910D01*
X150155438Y-115044562D01*
X150171090Y-115061832D01*
X150184974Y-115080552D01*
X150196956Y-115100543D01*
X150206921Y-115121613D01*
X150214773Y-115143557D01*
X150220437Y-115166166D01*
X150223856Y-115189221D01*
X150225000Y-115212500D01*
X150225000Y-115787500D01*
X150223856Y-115810779D01*
X150220437Y-115833834D01*
X150214773Y-115856443D01*
X150206921Y-115878387D01*
X150196956Y-115899457D01*
X150184974Y-115919448D01*
X150171090Y-115938168D01*
X150155438Y-115955438D01*
X150138168Y-115971090D01*
X150119448Y-115984974D01*
X150099457Y-115996956D01*
X150078387Y-116006921D01*
X150056443Y-116014773D01*
X150033834Y-116020437D01*
X150010779Y-116023856D01*
X149987500Y-116025000D01*
X149512500Y-116025000D01*
X149489221Y-116023856D01*
X149466166Y-116020437D01*
X149443557Y-116014773D01*
X149421613Y-116006921D01*
X149400543Y-115996956D01*
X149380552Y-115984974D01*
X149361832Y-115971090D01*
X149344562Y-115955438D01*
X149328910Y-115938168D01*
X149315026Y-115919448D01*
X149303044Y-115899457D01*
X149293079Y-115878387D01*
X149285227Y-115856443D01*
X149279563Y-115833834D01*
X149276144Y-115810779D01*
X149275000Y-115787500D01*
X149275000Y-115212500D01*
X149276144Y-115189221D01*
X149279563Y-115166166D01*
X149285227Y-115143557D01*
X149293079Y-115121613D01*
X149303044Y-115100543D01*
X149315026Y-115080552D01*
X149328910Y-115061832D01*
X149344562Y-115044562D01*
X149361832Y-115028910D01*
X149380552Y-115015026D01*
X149400543Y-115003044D01*
X149421613Y-114993079D01*
X149443557Y-114985227D01*
X149466166Y-114979563D01*
X149489221Y-114976144D01*
X149512500Y-114975000D01*
X149987500Y-114975000D01*
X150010779Y-114976144D01*
G37*
G36*
X150010779Y-108726144D02*
G01*
X150033834Y-108729563D01*
X150056443Y-108735227D01*
X150078387Y-108743079D01*
X150099457Y-108753044D01*
X150119448Y-108765026D01*
X150138168Y-108778910D01*
X150155438Y-108794562D01*
X150171090Y-108811832D01*
X150184974Y-108830552D01*
X150196956Y-108850543D01*
X150206921Y-108871613D01*
X150214773Y-108893557D01*
X150220437Y-108916166D01*
X150223856Y-108939221D01*
X150225000Y-108962500D01*
X150225000Y-109537500D01*
X150223856Y-109560779D01*
X150220437Y-109583834D01*
X150214773Y-109606443D01*
X150206921Y-109628387D01*
X150196956Y-109649457D01*
X150184974Y-109669448D01*
X150171090Y-109688168D01*
X150155438Y-109705438D01*
X150138168Y-109721090D01*
X150119448Y-109734974D01*
X150099457Y-109746956D01*
X150078387Y-109756921D01*
X150056443Y-109764773D01*
X150033834Y-109770437D01*
X150010779Y-109773856D01*
X149987500Y-109775000D01*
X149512500Y-109775000D01*
X149489221Y-109773856D01*
X149466166Y-109770437D01*
X149443557Y-109764773D01*
X149421613Y-109756921D01*
X149400543Y-109746956D01*
X149380552Y-109734974D01*
X149361832Y-109721090D01*
X149344562Y-109705438D01*
X149328910Y-109688168D01*
X149315026Y-109669448D01*
X149303044Y-109649457D01*
X149293079Y-109628387D01*
X149285227Y-109606443D01*
X149279563Y-109583834D01*
X149276144Y-109560779D01*
X149275000Y-109537500D01*
X149275000Y-108962500D01*
X149276144Y-108939221D01*
X149279563Y-108916166D01*
X149285227Y-108893557D01*
X149293079Y-108871613D01*
X149303044Y-108850543D01*
X149315026Y-108830552D01*
X149328910Y-108811832D01*
X149344562Y-108794562D01*
X149361832Y-108778910D01*
X149380552Y-108765026D01*
X149400543Y-108753044D01*
X149421613Y-108743079D01*
X149443557Y-108735227D01*
X149466166Y-108729563D01*
X149489221Y-108726144D01*
X149512500Y-108725000D01*
X149987500Y-108725000D01*
X150010779Y-108726144D01*
G37*
G36*
X150010779Y-110476144D02*
G01*
X150033834Y-110479563D01*
X150056443Y-110485227D01*
X150078387Y-110493079D01*
X150099457Y-110503044D01*
X150119448Y-110515026D01*
X150138168Y-110528910D01*
X150155438Y-110544562D01*
X150171090Y-110561832D01*
X150184974Y-110580552D01*
X150196956Y-110600543D01*
X150206921Y-110621613D01*
X150214773Y-110643557D01*
X150220437Y-110666166D01*
X150223856Y-110689221D01*
X150225000Y-110712500D01*
X150225000Y-111287500D01*
X150223856Y-111310779D01*
X150220437Y-111333834D01*
X150214773Y-111356443D01*
X150206921Y-111378387D01*
X150196956Y-111399457D01*
X150184974Y-111419448D01*
X150171090Y-111438168D01*
X150155438Y-111455438D01*
X150138168Y-111471090D01*
X150119448Y-111484974D01*
X150099457Y-111496956D01*
X150078387Y-111506921D01*
X150056443Y-111514773D01*
X150033834Y-111520437D01*
X150010779Y-111523856D01*
X149987500Y-111525000D01*
X149512500Y-111525000D01*
X149489221Y-111523856D01*
X149466166Y-111520437D01*
X149443557Y-111514773D01*
X149421613Y-111506921D01*
X149400543Y-111496956D01*
X149380552Y-111484974D01*
X149361832Y-111471090D01*
X149344562Y-111455438D01*
X149328910Y-111438168D01*
X149315026Y-111419448D01*
X149303044Y-111399457D01*
X149293079Y-111378387D01*
X149285227Y-111356443D01*
X149279563Y-111333834D01*
X149276144Y-111310779D01*
X149275000Y-111287500D01*
X149275000Y-110712500D01*
X149276144Y-110689221D01*
X149279563Y-110666166D01*
X149285227Y-110643557D01*
X149293079Y-110621613D01*
X149303044Y-110600543D01*
X149315026Y-110580552D01*
X149328910Y-110561832D01*
X149344562Y-110544562D01*
X149361832Y-110528910D01*
X149380552Y-110515026D01*
X149400543Y-110503044D01*
X149421613Y-110493079D01*
X149443557Y-110485227D01*
X149466166Y-110479563D01*
X149489221Y-110476144D01*
X149512500Y-110475000D01*
X149987500Y-110475000D01*
X150010779Y-110476144D01*
G37*
G36*
X167399504Y-110063704D02*
G01*
X167423773Y-110067304D01*
X167447571Y-110073265D01*
X167470671Y-110081530D01*
X167492849Y-110092020D01*
X167513893Y-110104633D01*
X167533598Y-110119247D01*
X167551777Y-110135723D01*
X167568253Y-110153902D01*
X167582867Y-110173607D01*
X167595480Y-110194651D01*
X167605970Y-110216829D01*
X167614235Y-110239929D01*
X167620196Y-110263727D01*
X167623796Y-110287996D01*
X167625000Y-110312500D01*
X167625000Y-111237500D01*
X167623796Y-111262004D01*
X167620196Y-111286273D01*
X167614235Y-111310071D01*
X167605970Y-111333171D01*
X167595480Y-111355349D01*
X167582867Y-111376393D01*
X167568253Y-111396098D01*
X167551777Y-111414277D01*
X167533598Y-111430753D01*
X167513893Y-111445367D01*
X167492849Y-111457980D01*
X167470671Y-111468470D01*
X167447571Y-111476735D01*
X167423773Y-111482696D01*
X167399504Y-111486296D01*
X167375000Y-111487500D01*
X166125000Y-111487500D01*
X166100496Y-111486296D01*
X166076227Y-111482696D01*
X166052429Y-111476735D01*
X166029329Y-111468470D01*
X166007151Y-111457980D01*
X165986107Y-111445367D01*
X165966402Y-111430753D01*
X165948223Y-111414277D01*
X165931747Y-111396098D01*
X165917133Y-111376393D01*
X165904520Y-111355349D01*
X165894030Y-111333171D01*
X165885765Y-111310071D01*
X165879804Y-111286273D01*
X165876204Y-111262004D01*
X165875000Y-111237500D01*
X165875000Y-110312500D01*
X165876204Y-110287996D01*
X165879804Y-110263727D01*
X165885765Y-110239929D01*
X165894030Y-110216829D01*
X165904520Y-110194651D01*
X165917133Y-110173607D01*
X165931747Y-110153902D01*
X165948223Y-110135723D01*
X165966402Y-110119247D01*
X165986107Y-110104633D01*
X166007151Y-110092020D01*
X166029329Y-110081530D01*
X166052429Y-110073265D01*
X166076227Y-110067304D01*
X166100496Y-110063704D01*
X166125000Y-110062500D01*
X167375000Y-110062500D01*
X167399504Y-110063704D01*
G37*
G36*
X167399504Y-113038704D02*
G01*
X167423773Y-113042304D01*
X167447571Y-113048265D01*
X167470671Y-113056530D01*
X167492849Y-113067020D01*
X167513893Y-113079633D01*
X167533598Y-113094247D01*
X167551777Y-113110723D01*
X167568253Y-113128902D01*
X167582867Y-113148607D01*
X167595480Y-113169651D01*
X167605970Y-113191829D01*
X167614235Y-113214929D01*
X167620196Y-113238727D01*
X167623796Y-113262996D01*
X167625000Y-113287500D01*
X167625000Y-114212500D01*
X167623796Y-114237004D01*
X167620196Y-114261273D01*
X167614235Y-114285071D01*
X167605970Y-114308171D01*
X167595480Y-114330349D01*
X167582867Y-114351393D01*
X167568253Y-114371098D01*
X167551777Y-114389277D01*
X167533598Y-114405753D01*
X167513893Y-114420367D01*
X167492849Y-114432980D01*
X167470671Y-114443470D01*
X167447571Y-114451735D01*
X167423773Y-114457696D01*
X167399504Y-114461296D01*
X167375000Y-114462500D01*
X166125000Y-114462500D01*
X166100496Y-114461296D01*
X166076227Y-114457696D01*
X166052429Y-114451735D01*
X166029329Y-114443470D01*
X166007151Y-114432980D01*
X165986107Y-114420367D01*
X165966402Y-114405753D01*
X165948223Y-114389277D01*
X165931747Y-114371098D01*
X165917133Y-114351393D01*
X165904520Y-114330349D01*
X165894030Y-114308171D01*
X165885765Y-114285071D01*
X165879804Y-114261273D01*
X165876204Y-114237004D01*
X165875000Y-114212500D01*
X165875000Y-113287500D01*
X165876204Y-113262996D01*
X165879804Y-113238727D01*
X165885765Y-113214929D01*
X165894030Y-113191829D01*
X165904520Y-113169651D01*
X165917133Y-113148607D01*
X165931747Y-113128902D01*
X165948223Y-113110723D01*
X165966402Y-113094247D01*
X165986107Y-113079633D01*
X166007151Y-113067020D01*
X166029329Y-113056530D01*
X166052429Y-113048265D01*
X166076227Y-113042304D01*
X166100496Y-113038704D01*
X166125000Y-113037500D01*
X167375000Y-113037500D01*
X167399504Y-113038704D01*
G37*
G36*
X166724504Y-103876204D02*
G01*
X166748773Y-103879804D01*
X166772571Y-103885765D01*
X166795671Y-103894030D01*
X166817849Y-103904520D01*
X166838893Y-103917133D01*
X166858598Y-103931747D01*
X166876777Y-103948223D01*
X166893253Y-103966402D01*
X166907867Y-103986107D01*
X166920480Y-104007151D01*
X166930970Y-104029329D01*
X166939235Y-104052429D01*
X166945196Y-104076227D01*
X166948796Y-104100496D01*
X166950000Y-104125000D01*
X166950000Y-105375000D01*
X166948796Y-105399504D01*
X166945196Y-105423773D01*
X166939235Y-105447571D01*
X166930970Y-105470671D01*
X166920480Y-105492849D01*
X166907867Y-105513893D01*
X166893253Y-105533598D01*
X166876777Y-105551777D01*
X166858598Y-105568253D01*
X166838893Y-105582867D01*
X166817849Y-105595480D01*
X166795671Y-105605970D01*
X166772571Y-105614235D01*
X166748773Y-105620196D01*
X166724504Y-105623796D01*
X166700000Y-105625000D01*
X165775000Y-105625000D01*
X165750496Y-105623796D01*
X165726227Y-105620196D01*
X165702429Y-105614235D01*
X165679329Y-105605970D01*
X165657151Y-105595480D01*
X165636107Y-105582867D01*
X165616402Y-105568253D01*
X165598223Y-105551777D01*
X165581747Y-105533598D01*
X165567133Y-105513893D01*
X165554520Y-105492849D01*
X165544030Y-105470671D01*
X165535765Y-105447571D01*
X165529804Y-105423773D01*
X165526204Y-105399504D01*
X165525000Y-105375000D01*
X165525000Y-104125000D01*
X165526204Y-104100496D01*
X165529804Y-104076227D01*
X165535765Y-104052429D01*
X165544030Y-104029329D01*
X165554520Y-104007151D01*
X165567133Y-103986107D01*
X165581747Y-103966402D01*
X165598223Y-103948223D01*
X165616402Y-103931747D01*
X165636107Y-103917133D01*
X165657151Y-103904520D01*
X165679329Y-103894030D01*
X165702429Y-103885765D01*
X165726227Y-103879804D01*
X165750496Y-103876204D01*
X165775000Y-103875000D01*
X166700000Y-103875000D01*
X166724504Y-103876204D01*
G37*
G36*
X163749504Y-103876204D02*
G01*
X163773773Y-103879804D01*
X163797571Y-103885765D01*
X163820671Y-103894030D01*
X163842849Y-103904520D01*
X163863893Y-103917133D01*
X163883598Y-103931747D01*
X163901777Y-103948223D01*
X163918253Y-103966402D01*
X163932867Y-103986107D01*
X163945480Y-104007151D01*
X163955970Y-104029329D01*
X163964235Y-104052429D01*
X163970196Y-104076227D01*
X163973796Y-104100496D01*
X163975000Y-104125000D01*
X163975000Y-105375000D01*
X163973796Y-105399504D01*
X163970196Y-105423773D01*
X163964235Y-105447571D01*
X163955970Y-105470671D01*
X163945480Y-105492849D01*
X163932867Y-105513893D01*
X163918253Y-105533598D01*
X163901777Y-105551777D01*
X163883598Y-105568253D01*
X163863893Y-105582867D01*
X163842849Y-105595480D01*
X163820671Y-105605970D01*
X163797571Y-105614235D01*
X163773773Y-105620196D01*
X163749504Y-105623796D01*
X163725000Y-105625000D01*
X162800000Y-105625000D01*
X162775496Y-105623796D01*
X162751227Y-105620196D01*
X162727429Y-105614235D01*
X162704329Y-105605970D01*
X162682151Y-105595480D01*
X162661107Y-105582867D01*
X162641402Y-105568253D01*
X162623223Y-105551777D01*
X162606747Y-105533598D01*
X162592133Y-105513893D01*
X162579520Y-105492849D01*
X162569030Y-105470671D01*
X162560765Y-105447571D01*
X162554804Y-105423773D01*
X162551204Y-105399504D01*
X162550000Y-105375000D01*
X162550000Y-104125000D01*
X162551204Y-104100496D01*
X162554804Y-104076227D01*
X162560765Y-104052429D01*
X162569030Y-104029329D01*
X162579520Y-104007151D01*
X162592133Y-103986107D01*
X162606747Y-103966402D01*
X162623223Y-103948223D01*
X162641402Y-103931747D01*
X162661107Y-103917133D01*
X162682151Y-103904520D01*
X162704329Y-103894030D01*
X162727429Y-103885765D01*
X162751227Y-103879804D01*
X162775496Y-103876204D01*
X162800000Y-103875000D01*
X163725000Y-103875000D01*
X163749504Y-103876204D01*
G37*
G36*
X158935779Y-96401144D02*
G01*
X158958834Y-96404563D01*
X158981443Y-96410227D01*
X159003387Y-96418079D01*
X159024457Y-96428044D01*
X159044448Y-96440026D01*
X159063168Y-96453910D01*
X159080438Y-96469562D01*
X159096090Y-96486832D01*
X159109974Y-96505552D01*
X159121956Y-96525543D01*
X159131921Y-96546613D01*
X159139773Y-96568557D01*
X159145437Y-96591166D01*
X159148856Y-96614221D01*
X159150000Y-96637500D01*
X159150000Y-97212500D01*
X159148856Y-97235779D01*
X159145437Y-97258834D01*
X159139773Y-97281443D01*
X159131921Y-97303387D01*
X159121956Y-97324457D01*
X159109974Y-97344448D01*
X159096090Y-97363168D01*
X159080438Y-97380438D01*
X159063168Y-97396090D01*
X159044448Y-97409974D01*
X159024457Y-97421956D01*
X159003387Y-97431921D01*
X158981443Y-97439773D01*
X158958834Y-97445437D01*
X158935779Y-97448856D01*
X158912500Y-97450000D01*
X158437500Y-97450000D01*
X158414221Y-97448856D01*
X158391166Y-97445437D01*
X158368557Y-97439773D01*
X158346613Y-97431921D01*
X158325543Y-97421956D01*
X158305552Y-97409974D01*
X158286832Y-97396090D01*
X158269562Y-97380438D01*
X158253910Y-97363168D01*
X158240026Y-97344448D01*
X158228044Y-97324457D01*
X158218079Y-97303387D01*
X158210227Y-97281443D01*
X158204563Y-97258834D01*
X158201144Y-97235779D01*
X158200000Y-97212500D01*
X158200000Y-96637500D01*
X158201144Y-96614221D01*
X158204563Y-96591166D01*
X158210227Y-96568557D01*
X158218079Y-96546613D01*
X158228044Y-96525543D01*
X158240026Y-96505552D01*
X158253910Y-96486832D01*
X158269562Y-96469562D01*
X158286832Y-96453910D01*
X158305552Y-96440026D01*
X158325543Y-96428044D01*
X158346613Y-96418079D01*
X158368557Y-96410227D01*
X158391166Y-96404563D01*
X158414221Y-96401144D01*
X158437500Y-96400000D01*
X158912500Y-96400000D01*
X158935779Y-96401144D01*
G37*
G36*
X158935779Y-98151144D02*
G01*
X158958834Y-98154563D01*
X158981443Y-98160227D01*
X159003387Y-98168079D01*
X159024457Y-98178044D01*
X159044448Y-98190026D01*
X159063168Y-98203910D01*
X159080438Y-98219562D01*
X159096090Y-98236832D01*
X159109974Y-98255552D01*
X159121956Y-98275543D01*
X159131921Y-98296613D01*
X159139773Y-98318557D01*
X159145437Y-98341166D01*
X159148856Y-98364221D01*
X159150000Y-98387500D01*
X159150000Y-98962500D01*
X159148856Y-98985779D01*
X159145437Y-99008834D01*
X159139773Y-99031443D01*
X159131921Y-99053387D01*
X159121956Y-99074457D01*
X159109974Y-99094448D01*
X159096090Y-99113168D01*
X159080438Y-99130438D01*
X159063168Y-99146090D01*
X159044448Y-99159974D01*
X159024457Y-99171956D01*
X159003387Y-99181921D01*
X158981443Y-99189773D01*
X158958834Y-99195437D01*
X158935779Y-99198856D01*
X158912500Y-99200000D01*
X158437500Y-99200000D01*
X158414221Y-99198856D01*
X158391166Y-99195437D01*
X158368557Y-99189773D01*
X158346613Y-99181921D01*
X158325543Y-99171956D01*
X158305552Y-99159974D01*
X158286832Y-99146090D01*
X158269562Y-99130438D01*
X158253910Y-99113168D01*
X158240026Y-99094448D01*
X158228044Y-99074457D01*
X158218079Y-99053387D01*
X158210227Y-99031443D01*
X158204563Y-99008834D01*
X158201144Y-98985779D01*
X158200000Y-98962500D01*
X158200000Y-98387500D01*
X158201144Y-98364221D01*
X158204563Y-98341166D01*
X158210227Y-98318557D01*
X158218079Y-98296613D01*
X158228044Y-98275543D01*
X158240026Y-98255552D01*
X158253910Y-98236832D01*
X158269562Y-98219562D01*
X158286832Y-98203910D01*
X158305552Y-98190026D01*
X158325543Y-98178044D01*
X158346613Y-98168079D01*
X158368557Y-98160227D01*
X158391166Y-98154563D01*
X158414221Y-98151144D01*
X158437500Y-98150000D01*
X158912500Y-98150000D01*
X158935779Y-98151144D01*
G37*
G36*
X158935779Y-94276144D02*
G01*
X158958834Y-94279563D01*
X158981443Y-94285227D01*
X159003387Y-94293079D01*
X159024457Y-94303044D01*
X159044448Y-94315026D01*
X159063168Y-94328910D01*
X159080438Y-94344562D01*
X159096090Y-94361832D01*
X159109974Y-94380552D01*
X159121956Y-94400543D01*
X159131921Y-94421613D01*
X159139773Y-94443557D01*
X159145437Y-94466166D01*
X159148856Y-94489221D01*
X159150000Y-94512500D01*
X159150000Y-94987500D01*
X159148856Y-95010779D01*
X159145437Y-95033834D01*
X159139773Y-95056443D01*
X159131921Y-95078387D01*
X159121956Y-95099457D01*
X159109974Y-95119448D01*
X159096090Y-95138168D01*
X159080438Y-95155438D01*
X159063168Y-95171090D01*
X159044448Y-95184974D01*
X159024457Y-95196956D01*
X159003387Y-95206921D01*
X158981443Y-95214773D01*
X158958834Y-95220437D01*
X158935779Y-95223856D01*
X158912500Y-95225000D01*
X158337500Y-95225000D01*
X158314221Y-95223856D01*
X158291166Y-95220437D01*
X158268557Y-95214773D01*
X158246613Y-95206921D01*
X158225543Y-95196956D01*
X158205552Y-95184974D01*
X158186832Y-95171090D01*
X158169562Y-95155438D01*
X158153910Y-95138168D01*
X158140026Y-95119448D01*
X158128044Y-95099457D01*
X158118079Y-95078387D01*
X158110227Y-95056443D01*
X158104563Y-95033834D01*
X158101144Y-95010779D01*
X158100000Y-94987500D01*
X158100000Y-94512500D01*
X158101144Y-94489221D01*
X158104563Y-94466166D01*
X158110227Y-94443557D01*
X158118079Y-94421613D01*
X158128044Y-94400543D01*
X158140026Y-94380552D01*
X158153910Y-94361832D01*
X158169562Y-94344562D01*
X158186832Y-94328910D01*
X158205552Y-94315026D01*
X158225543Y-94303044D01*
X158246613Y-94293079D01*
X158268557Y-94285227D01*
X158291166Y-94279563D01*
X158314221Y-94276144D01*
X158337500Y-94275000D01*
X158912500Y-94275000D01*
X158935779Y-94276144D01*
G37*
G36*
X157185779Y-94276144D02*
G01*
X157208834Y-94279563D01*
X157231443Y-94285227D01*
X157253387Y-94293079D01*
X157274457Y-94303044D01*
X157294448Y-94315026D01*
X157313168Y-94328910D01*
X157330438Y-94344562D01*
X157346090Y-94361832D01*
X157359974Y-94380552D01*
X157371956Y-94400543D01*
X157381921Y-94421613D01*
X157389773Y-94443557D01*
X157395437Y-94466166D01*
X157398856Y-94489221D01*
X157400000Y-94512500D01*
X157400000Y-94987500D01*
X157398856Y-95010779D01*
X157395437Y-95033834D01*
X157389773Y-95056443D01*
X157381921Y-95078387D01*
X157371956Y-95099457D01*
X157359974Y-95119448D01*
X157346090Y-95138168D01*
X157330438Y-95155438D01*
X157313168Y-95171090D01*
X157294448Y-95184974D01*
X157274457Y-95196956D01*
X157253387Y-95206921D01*
X157231443Y-95214773D01*
X157208834Y-95220437D01*
X157185779Y-95223856D01*
X157162500Y-95225000D01*
X156587500Y-95225000D01*
X156564221Y-95223856D01*
X156541166Y-95220437D01*
X156518557Y-95214773D01*
X156496613Y-95206921D01*
X156475543Y-95196956D01*
X156455552Y-95184974D01*
X156436832Y-95171090D01*
X156419562Y-95155438D01*
X156403910Y-95138168D01*
X156390026Y-95119448D01*
X156378044Y-95099457D01*
X156368079Y-95078387D01*
X156360227Y-95056443D01*
X156354563Y-95033834D01*
X156351144Y-95010779D01*
X156350000Y-94987500D01*
X156350000Y-94512500D01*
X156351144Y-94489221D01*
X156354563Y-94466166D01*
X156360227Y-94443557D01*
X156368079Y-94421613D01*
X156378044Y-94400543D01*
X156390026Y-94380552D01*
X156403910Y-94361832D01*
X156419562Y-94344562D01*
X156436832Y-94328910D01*
X156455552Y-94315026D01*
X156475543Y-94303044D01*
X156496613Y-94293079D01*
X156518557Y-94285227D01*
X156541166Y-94279563D01*
X156564221Y-94276144D01*
X156587500Y-94275000D01*
X157162500Y-94275000D01*
X157185779Y-94276144D01*
G37*
D12*
X155350000Y-114650000D03*
X153350000Y-115600000D03*
X153350000Y-113700000D03*
D10*
G36*
X161060779Y-113001144D02*
G01*
X161083834Y-113004563D01*
X161106443Y-113010227D01*
X161128387Y-113018079D01*
X161149457Y-113028044D01*
X161169448Y-113040026D01*
X161188168Y-113053910D01*
X161205438Y-113069562D01*
X161221090Y-113086832D01*
X161234974Y-113105552D01*
X161246956Y-113125543D01*
X161256921Y-113146613D01*
X161264773Y-113168557D01*
X161270437Y-113191166D01*
X161273856Y-113214221D01*
X161275000Y-113237500D01*
X161275000Y-113812500D01*
X161273856Y-113835779D01*
X161270437Y-113858834D01*
X161264773Y-113881443D01*
X161256921Y-113903387D01*
X161246956Y-113924457D01*
X161234974Y-113944448D01*
X161221090Y-113963168D01*
X161205438Y-113980438D01*
X161188168Y-113996090D01*
X161169448Y-114009974D01*
X161149457Y-114021956D01*
X161128387Y-114031921D01*
X161106443Y-114039773D01*
X161083834Y-114045437D01*
X161060779Y-114048856D01*
X161037500Y-114050000D01*
X160562500Y-114050000D01*
X160539221Y-114048856D01*
X160516166Y-114045437D01*
X160493557Y-114039773D01*
X160471613Y-114031921D01*
X160450543Y-114021956D01*
X160430552Y-114009974D01*
X160411832Y-113996090D01*
X160394562Y-113980438D01*
X160378910Y-113963168D01*
X160365026Y-113944448D01*
X160353044Y-113924457D01*
X160343079Y-113903387D01*
X160335227Y-113881443D01*
X160329563Y-113858834D01*
X160326144Y-113835779D01*
X160325000Y-113812500D01*
X160325000Y-113237500D01*
X160326144Y-113214221D01*
X160329563Y-113191166D01*
X160335227Y-113168557D01*
X160343079Y-113146613D01*
X160353044Y-113125543D01*
X160365026Y-113105552D01*
X160378910Y-113086832D01*
X160394562Y-113069562D01*
X160411832Y-113053910D01*
X160430552Y-113040026D01*
X160450543Y-113028044D01*
X160471613Y-113018079D01*
X160493557Y-113010227D01*
X160516166Y-113004563D01*
X160539221Y-113001144D01*
X160562500Y-113000000D01*
X161037500Y-113000000D01*
X161060779Y-113001144D01*
G37*
G36*
X161060779Y-111251144D02*
G01*
X161083834Y-111254563D01*
X161106443Y-111260227D01*
X161128387Y-111268079D01*
X161149457Y-111278044D01*
X161169448Y-111290026D01*
X161188168Y-111303910D01*
X161205438Y-111319562D01*
X161221090Y-111336832D01*
X161234974Y-111355552D01*
X161246956Y-111375543D01*
X161256921Y-111396613D01*
X161264773Y-111418557D01*
X161270437Y-111441166D01*
X161273856Y-111464221D01*
X161275000Y-111487500D01*
X161275000Y-112062500D01*
X161273856Y-112085779D01*
X161270437Y-112108834D01*
X161264773Y-112131443D01*
X161256921Y-112153387D01*
X161246956Y-112174457D01*
X161234974Y-112194448D01*
X161221090Y-112213168D01*
X161205438Y-112230438D01*
X161188168Y-112246090D01*
X161169448Y-112259974D01*
X161149457Y-112271956D01*
X161128387Y-112281921D01*
X161106443Y-112289773D01*
X161083834Y-112295437D01*
X161060779Y-112298856D01*
X161037500Y-112300000D01*
X160562500Y-112300000D01*
X160539221Y-112298856D01*
X160516166Y-112295437D01*
X160493557Y-112289773D01*
X160471613Y-112281921D01*
X160450543Y-112271956D01*
X160430552Y-112259974D01*
X160411832Y-112246090D01*
X160394562Y-112230438D01*
X160378910Y-112213168D01*
X160365026Y-112194448D01*
X160353044Y-112174457D01*
X160343079Y-112153387D01*
X160335227Y-112131443D01*
X160329563Y-112108834D01*
X160326144Y-112085779D01*
X160325000Y-112062500D01*
X160325000Y-111487500D01*
X160326144Y-111464221D01*
X160329563Y-111441166D01*
X160335227Y-111418557D01*
X160343079Y-111396613D01*
X160353044Y-111375543D01*
X160365026Y-111355552D01*
X160378910Y-111336832D01*
X160394562Y-111319562D01*
X160411832Y-111303910D01*
X160430552Y-111290026D01*
X160450543Y-111278044D01*
X160471613Y-111268079D01*
X160493557Y-111260227D01*
X160516166Y-111254563D01*
X160539221Y-111251144D01*
X160562500Y-111250000D01*
X161037500Y-111250000D01*
X161060779Y-111251144D01*
G37*
G36*
X159260779Y-113001144D02*
G01*
X159283834Y-113004563D01*
X159306443Y-113010227D01*
X159328387Y-113018079D01*
X159349457Y-113028044D01*
X159369448Y-113040026D01*
X159388168Y-113053910D01*
X159405438Y-113069562D01*
X159421090Y-113086832D01*
X159434974Y-113105552D01*
X159446956Y-113125543D01*
X159456921Y-113146613D01*
X159464773Y-113168557D01*
X159470437Y-113191166D01*
X159473856Y-113214221D01*
X159475000Y-113237500D01*
X159475000Y-113812500D01*
X159473856Y-113835779D01*
X159470437Y-113858834D01*
X159464773Y-113881443D01*
X159456921Y-113903387D01*
X159446956Y-113924457D01*
X159434974Y-113944448D01*
X159421090Y-113963168D01*
X159405438Y-113980438D01*
X159388168Y-113996090D01*
X159369448Y-114009974D01*
X159349457Y-114021956D01*
X159328387Y-114031921D01*
X159306443Y-114039773D01*
X159283834Y-114045437D01*
X159260779Y-114048856D01*
X159237500Y-114050000D01*
X158762500Y-114050000D01*
X158739221Y-114048856D01*
X158716166Y-114045437D01*
X158693557Y-114039773D01*
X158671613Y-114031921D01*
X158650543Y-114021956D01*
X158630552Y-114009974D01*
X158611832Y-113996090D01*
X158594562Y-113980438D01*
X158578910Y-113963168D01*
X158565026Y-113944448D01*
X158553044Y-113924457D01*
X158543079Y-113903387D01*
X158535227Y-113881443D01*
X158529563Y-113858834D01*
X158526144Y-113835779D01*
X158525000Y-113812500D01*
X158525000Y-113237500D01*
X158526144Y-113214221D01*
X158529563Y-113191166D01*
X158535227Y-113168557D01*
X158543079Y-113146613D01*
X158553044Y-113125543D01*
X158565026Y-113105552D01*
X158578910Y-113086832D01*
X158594562Y-113069562D01*
X158611832Y-113053910D01*
X158630552Y-113040026D01*
X158650543Y-113028044D01*
X158671613Y-113018079D01*
X158693557Y-113010227D01*
X158716166Y-113004563D01*
X158739221Y-113001144D01*
X158762500Y-113000000D01*
X159237500Y-113000000D01*
X159260779Y-113001144D01*
G37*
G36*
X159260779Y-111251144D02*
G01*
X159283834Y-111254563D01*
X159306443Y-111260227D01*
X159328387Y-111268079D01*
X159349457Y-111278044D01*
X159369448Y-111290026D01*
X159388168Y-111303910D01*
X159405438Y-111319562D01*
X159421090Y-111336832D01*
X159434974Y-111355552D01*
X159446956Y-111375543D01*
X159456921Y-111396613D01*
X159464773Y-111418557D01*
X159470437Y-111441166D01*
X159473856Y-111464221D01*
X159475000Y-111487500D01*
X159475000Y-112062500D01*
X159473856Y-112085779D01*
X159470437Y-112108834D01*
X159464773Y-112131443D01*
X159456921Y-112153387D01*
X159446956Y-112174457D01*
X159434974Y-112194448D01*
X159421090Y-112213168D01*
X159405438Y-112230438D01*
X159388168Y-112246090D01*
X159369448Y-112259974D01*
X159349457Y-112271956D01*
X159328387Y-112281921D01*
X159306443Y-112289773D01*
X159283834Y-112295437D01*
X159260779Y-112298856D01*
X159237500Y-112300000D01*
X158762500Y-112300000D01*
X158739221Y-112298856D01*
X158716166Y-112295437D01*
X158693557Y-112289773D01*
X158671613Y-112281921D01*
X158650543Y-112271956D01*
X158630552Y-112259974D01*
X158611832Y-112246090D01*
X158594562Y-112230438D01*
X158578910Y-112213168D01*
X158565026Y-112194448D01*
X158553044Y-112174457D01*
X158543079Y-112153387D01*
X158535227Y-112131443D01*
X158529563Y-112108834D01*
X158526144Y-112085779D01*
X158525000Y-112062500D01*
X158525000Y-111487500D01*
X158526144Y-111464221D01*
X158529563Y-111441166D01*
X158535227Y-111418557D01*
X158543079Y-111396613D01*
X158553044Y-111375543D01*
X158565026Y-111355552D01*
X158578910Y-111336832D01*
X158594562Y-111319562D01*
X158611832Y-111303910D01*
X158630552Y-111290026D01*
X158650543Y-111278044D01*
X158671613Y-111268079D01*
X158693557Y-111260227D01*
X158716166Y-111254563D01*
X158739221Y-111251144D01*
X158762500Y-111250000D01*
X159237500Y-111250000D01*
X159260779Y-111251144D01*
G37*
M02*
