M48
; DRILL file {KiCad (5.1.5-0)} date Tuesday, October 12, 2021 at 01:01:35 PM
; FORMAT={-:-/ absolute / inch / decimal}
; #@! TF.CreationDate,2021-10-12T13:01:35-06:00
; #@! TF.GenerationSoftware,Kicad,Pcbnew,(5.1.5-0)
; #@! TF.FileFunction,Plated,1,2,PTH
FMAT,2
INCH
T1C0.0157
T2C0.0276
T3C0.0295
T4C0.0331
T5C0.0394
%
G90
G05
T1
X5.3071Y-2.6102
X5.3571Y-2.7133
X5.4449Y-2.6388
X5.4469Y-3.1752
X5.4488Y-3.122
X5.5315Y-2.5157
X5.5787Y-2.7047
X5.5787Y-2.7441
X5.5787Y-3.0709
X5.5787Y-3.122
X5.6575Y-2.5157
X5.6811Y-2.6988
X5.7638Y-2.7018
X5.8189Y-2.6772
X5.8228Y-3.2362
X5.8228Y-3.2677
X5.8228Y-3.2992
X5.8228Y-3.3307
X5.8228Y-3.437
X5.878Y-2.6102
X5.9488Y-2.7362
X6.0039Y-3.4173
X6.0118Y-3.2913
T3
X5.8583Y-2.2835
X5.8583Y-2.3622
X4.8425Y-2.7835
X4.8425Y-2.8622
T4
X5.4748Y-2.2504
X5.4748Y-2.3504
X5.5248Y-2.3004
X5.5748Y-2.2504
X5.5748Y-2.3504
T5
X5.1575Y-2.3307
X5.2575Y-2.3307
X5.3575Y-2.3307
X5.6969Y-2.2622
X5.6969Y-2.3622
T2
G00X4.6801Y-3.1291
M15
G01X4.6525Y-3.1291
M16
G05
G00X4.6801Y-3.4693
M15
G01X4.6525Y-3.4693
M16
G05
G00X4.8297Y-3.1291
M15
G01X4.8021Y-3.1291
M16
G05
G00X4.8297Y-3.4693
M15
G01X4.8021Y-3.4693
M16
G05
T0
M30
