G04 #@! TF.GenerationSoftware,KiCad,Pcbnew,(5.1.5-0)*
G04 #@! TF.CreationDate,2022-05-19T14:53:53-06:00*
G04 #@! TF.ProjectId,TPS61165-heater-v5,54505336-3131-4363-952d-686561746572,rev?*
G04 #@! TF.SameCoordinates,Original*
G04 #@! TF.FileFunction,Soldermask,Bot*
G04 #@! TF.FilePolarity,Negative*
%FSLAX46Y46*%
G04 Gerber Fmt 4.6, Leading zero omitted, Abs format (unit mm)*
G04 Created by KiCad (PCBNEW (5.1.5-0)) date 2022-05-19 14:53:53*
%MOMM*%
%LPD*%
G04 APERTURE LIST*
%ADD10C,0.100000*%
G04 APERTURE END LIST*
D10*
G36*
X122792818Y-87527696D02*
G01*
X122906105Y-87562062D01*
X123010512Y-87617869D01*
X123102027Y-87692973D01*
X123177131Y-87784488D01*
X123232938Y-87888895D01*
X123267304Y-88002182D01*
X123278907Y-88120000D01*
X123267304Y-88237818D01*
X123232938Y-88351105D01*
X123177131Y-88455512D01*
X123102027Y-88547027D01*
X123010512Y-88622131D01*
X122906105Y-88677938D01*
X122792818Y-88712304D01*
X122704519Y-88721000D01*
X121945481Y-88721000D01*
X121857182Y-88712304D01*
X121743895Y-88677938D01*
X121639488Y-88622131D01*
X121547973Y-88547027D01*
X121472869Y-88455512D01*
X121417062Y-88351105D01*
X121382696Y-88237818D01*
X121371093Y-88120000D01*
X121382696Y-88002182D01*
X121417062Y-87888895D01*
X121472869Y-87784488D01*
X121547973Y-87692973D01*
X121639488Y-87617869D01*
X121743895Y-87562062D01*
X121857182Y-87527696D01*
X121945481Y-87519000D01*
X122704519Y-87519000D01*
X122792818Y-87527696D01*
G37*
G36*
X118992818Y-87527696D02*
G01*
X119106105Y-87562062D01*
X119210512Y-87617869D01*
X119302027Y-87692973D01*
X119377131Y-87784488D01*
X119432938Y-87888895D01*
X119467304Y-88002182D01*
X119478907Y-88120000D01*
X119467304Y-88237818D01*
X119432938Y-88351105D01*
X119377131Y-88455512D01*
X119302027Y-88547027D01*
X119210512Y-88622131D01*
X119106105Y-88677938D01*
X118992818Y-88712304D01*
X118904519Y-88721000D01*
X118145481Y-88721000D01*
X118057182Y-88712304D01*
X117943895Y-88677938D01*
X117839488Y-88622131D01*
X117747973Y-88547027D01*
X117672869Y-88455512D01*
X117617062Y-88351105D01*
X117582696Y-88237818D01*
X117571093Y-88120000D01*
X117582696Y-88002182D01*
X117617062Y-87888895D01*
X117672869Y-87784488D01*
X117747973Y-87692973D01*
X117839488Y-87617869D01*
X117943895Y-87562062D01*
X118057182Y-87527696D01*
X118145481Y-87519000D01*
X118904519Y-87519000D01*
X118992818Y-87527696D01*
G37*
G36*
X122792818Y-78887696D02*
G01*
X122906105Y-78922062D01*
X123010512Y-78977869D01*
X123102027Y-79052973D01*
X123177131Y-79144488D01*
X123232938Y-79248895D01*
X123267304Y-79362182D01*
X123278907Y-79480000D01*
X123267304Y-79597818D01*
X123232938Y-79711105D01*
X123177131Y-79815512D01*
X123102027Y-79907027D01*
X123010512Y-79982131D01*
X122906105Y-80037938D01*
X122792818Y-80072304D01*
X122704519Y-80081000D01*
X121945481Y-80081000D01*
X121857182Y-80072304D01*
X121743895Y-80037938D01*
X121639488Y-79982131D01*
X121547973Y-79907027D01*
X121472869Y-79815512D01*
X121417062Y-79711105D01*
X121382696Y-79597818D01*
X121371093Y-79480000D01*
X121382696Y-79362182D01*
X121417062Y-79248895D01*
X121472869Y-79144488D01*
X121547973Y-79052973D01*
X121639488Y-78977869D01*
X121743895Y-78922062D01*
X121857182Y-78887696D01*
X121945481Y-78879000D01*
X122704519Y-78879000D01*
X122792818Y-78887696D01*
G37*
G36*
X118992818Y-78887696D02*
G01*
X119106105Y-78922062D01*
X119210512Y-78977869D01*
X119302027Y-79052973D01*
X119377131Y-79144488D01*
X119432938Y-79248895D01*
X119467304Y-79362182D01*
X119478907Y-79480000D01*
X119467304Y-79597818D01*
X119432938Y-79711105D01*
X119377131Y-79815512D01*
X119302027Y-79907027D01*
X119210512Y-79982131D01*
X119106105Y-80037938D01*
X118992818Y-80072304D01*
X118904519Y-80081000D01*
X118145481Y-80081000D01*
X118057182Y-80072304D01*
X117943895Y-80037938D01*
X117839488Y-79982131D01*
X117747973Y-79907027D01*
X117672869Y-79815512D01*
X117617062Y-79711105D01*
X117582696Y-79597818D01*
X117571093Y-79480000D01*
X117582696Y-79362182D01*
X117617062Y-79248895D01*
X117672869Y-79144488D01*
X117747973Y-79052973D01*
X117839488Y-78977869D01*
X117943895Y-78922062D01*
X118057182Y-78887696D01*
X118145481Y-78879000D01*
X118904519Y-78879000D01*
X118992818Y-78887696D01*
G37*
G36*
X123338855Y-72052140D02*
G01*
X123402618Y-72058420D01*
X123493404Y-72085960D01*
X123525336Y-72095646D01*
X123638425Y-72156094D01*
X123737554Y-72237446D01*
X123818906Y-72336575D01*
X123879354Y-72449664D01*
X123879355Y-72449668D01*
X123916580Y-72572382D01*
X123929149Y-72700000D01*
X123916580Y-72827618D01*
X123889040Y-72918404D01*
X123879354Y-72950336D01*
X123818906Y-73063425D01*
X123737554Y-73162554D01*
X123638425Y-73243906D01*
X123525336Y-73304354D01*
X123493404Y-73314040D01*
X123402618Y-73341580D01*
X123338855Y-73347860D01*
X123306974Y-73351000D01*
X122693026Y-73351000D01*
X122661145Y-73347860D01*
X122597382Y-73341580D01*
X122506596Y-73314040D01*
X122474664Y-73304354D01*
X122361575Y-73243906D01*
X122262446Y-73162554D01*
X122181094Y-73063425D01*
X122120646Y-72950336D01*
X122110960Y-72918404D01*
X122083420Y-72827618D01*
X122070851Y-72700000D01*
X122083420Y-72572382D01*
X122120645Y-72449668D01*
X122120646Y-72449664D01*
X122181094Y-72336575D01*
X122262446Y-72237446D01*
X122361575Y-72156094D01*
X122474664Y-72095646D01*
X122506596Y-72085960D01*
X122597382Y-72058420D01*
X122661145Y-72052140D01*
X122693026Y-72049000D01*
X123306974Y-72049000D01*
X123338855Y-72052140D01*
G37*
G36*
X123766242Y-70053404D02*
G01*
X123803337Y-70064657D01*
X123837515Y-70082925D01*
X123867481Y-70107519D01*
X123892075Y-70137485D01*
X123910343Y-70171663D01*
X123921596Y-70208758D01*
X123926000Y-70253474D01*
X123926000Y-71146526D01*
X123921596Y-71191242D01*
X123910343Y-71228337D01*
X123892075Y-71262515D01*
X123867481Y-71292481D01*
X123837515Y-71317075D01*
X123803337Y-71335343D01*
X123766242Y-71346596D01*
X123721526Y-71351000D01*
X122278474Y-71351000D01*
X122233758Y-71346596D01*
X122196663Y-71335343D01*
X122162485Y-71317075D01*
X122132519Y-71292481D01*
X122107925Y-71262515D01*
X122089657Y-71228337D01*
X122078404Y-71191242D01*
X122074000Y-71146526D01*
X122074000Y-70253474D01*
X122078404Y-70208758D01*
X122089657Y-70171663D01*
X122107925Y-70137485D01*
X122132519Y-70107519D01*
X122162485Y-70082925D01*
X122196663Y-70064657D01*
X122233758Y-70053404D01*
X122278474Y-70049000D01*
X123721526Y-70049000D01*
X123766242Y-70053404D01*
G37*
G36*
X157427617Y-63583420D02*
G01*
X157508399Y-63607925D01*
X157550335Y-63620646D01*
X157663424Y-63681094D01*
X157762554Y-63762447D01*
X157843906Y-63861575D01*
X157904354Y-63974664D01*
X157914040Y-64006596D01*
X157941580Y-64097382D01*
X157951000Y-64193027D01*
X157951000Y-64806973D01*
X157941580Y-64902618D01*
X157914040Y-64993404D01*
X157904354Y-65025336D01*
X157843906Y-65138425D01*
X157762554Y-65237554D01*
X157663425Y-65318906D01*
X157550336Y-65379354D01*
X157518404Y-65389040D01*
X157427618Y-65416580D01*
X157300000Y-65429149D01*
X157172383Y-65416580D01*
X157081597Y-65389040D01*
X157049665Y-65379354D01*
X156936576Y-65318906D01*
X156837447Y-65237554D01*
X156756096Y-65138427D01*
X156756095Y-65138425D01*
X156695647Y-65025336D01*
X156695645Y-65025333D01*
X156683237Y-64984427D01*
X156658420Y-64902618D01*
X156649000Y-64806973D01*
X156649000Y-64193028D01*
X156658420Y-64097383D01*
X156695645Y-63974669D01*
X156695646Y-63974665D01*
X156756094Y-63861576D01*
X156837447Y-63762446D01*
X156936575Y-63681094D01*
X157049664Y-63620646D01*
X157091600Y-63607925D01*
X157172382Y-63583420D01*
X157300000Y-63570851D01*
X157427617Y-63583420D01*
G37*
G36*
X155791242Y-63578404D02*
G01*
X155828337Y-63589657D01*
X155862515Y-63607925D01*
X155892481Y-63632519D01*
X155917075Y-63662485D01*
X155935343Y-63696663D01*
X155946596Y-63733758D01*
X155951000Y-63778474D01*
X155951000Y-65221526D01*
X155946596Y-65266242D01*
X155935343Y-65303337D01*
X155917075Y-65337515D01*
X155892481Y-65367481D01*
X155862515Y-65392075D01*
X155828337Y-65410343D01*
X155791242Y-65421596D01*
X155746526Y-65426000D01*
X154853474Y-65426000D01*
X154808758Y-65421596D01*
X154771663Y-65410343D01*
X154737485Y-65392075D01*
X154707519Y-65367481D01*
X154682925Y-65337515D01*
X154664657Y-65303337D01*
X154653404Y-65266242D01*
X154649000Y-65221526D01*
X154649000Y-63778474D01*
X154653404Y-63733758D01*
X154664657Y-63696663D01*
X154682925Y-63662485D01*
X154707519Y-63632519D01*
X154737485Y-63607925D01*
X154771663Y-63589657D01*
X154808758Y-63578404D01*
X154853474Y-63574000D01*
X155746526Y-63574000D01*
X155791242Y-63578404D01*
G37*
G36*
X156101000Y-61401000D02*
G01*
X154299000Y-61401000D01*
X154299000Y-59599000D01*
X156101000Y-59599000D01*
X156101000Y-61401000D01*
G37*
G36*
X136193512Y-58303927D02*
G01*
X136342812Y-58333624D01*
X136506784Y-58401544D01*
X136654354Y-58500147D01*
X136779853Y-58625646D01*
X136878456Y-58773216D01*
X136946376Y-58937188D01*
X136981000Y-59111259D01*
X136981000Y-59288741D01*
X136946376Y-59462812D01*
X136878456Y-59626784D01*
X136779853Y-59774354D01*
X136654354Y-59899853D01*
X136506784Y-59998456D01*
X136342812Y-60066376D01*
X136193512Y-60096073D01*
X136168742Y-60101000D01*
X135991258Y-60101000D01*
X135966488Y-60096073D01*
X135817188Y-60066376D01*
X135653216Y-59998456D01*
X135505646Y-59899853D01*
X135380147Y-59774354D01*
X135281544Y-59626784D01*
X135213624Y-59462812D01*
X135179000Y-59288741D01*
X135179000Y-59111259D01*
X135213624Y-58937188D01*
X135281544Y-58773216D01*
X135380147Y-58625646D01*
X135505646Y-58500147D01*
X135653216Y-58401544D01*
X135817188Y-58333624D01*
X135966488Y-58303927D01*
X135991258Y-58299000D01*
X136168742Y-58299000D01*
X136193512Y-58303927D01*
G37*
G36*
X133653512Y-58303927D02*
G01*
X133802812Y-58333624D01*
X133966784Y-58401544D01*
X134114354Y-58500147D01*
X134239853Y-58625646D01*
X134338456Y-58773216D01*
X134406376Y-58937188D01*
X134441000Y-59111259D01*
X134441000Y-59288741D01*
X134406376Y-59462812D01*
X134338456Y-59626784D01*
X134239853Y-59774354D01*
X134114354Y-59899853D01*
X133966784Y-59998456D01*
X133802812Y-60066376D01*
X133653512Y-60096073D01*
X133628742Y-60101000D01*
X133451258Y-60101000D01*
X133426488Y-60096073D01*
X133277188Y-60066376D01*
X133113216Y-59998456D01*
X132965646Y-59899853D01*
X132840147Y-59774354D01*
X132741544Y-59626784D01*
X132673624Y-59462812D01*
X132639000Y-59288741D01*
X132639000Y-59111259D01*
X132673624Y-58937188D01*
X132741544Y-58773216D01*
X132840147Y-58625646D01*
X132965646Y-58500147D01*
X133113216Y-58401544D01*
X133277188Y-58333624D01*
X133426488Y-58303927D01*
X133451258Y-58299000D01*
X133628742Y-58299000D01*
X133653512Y-58303927D01*
G37*
G36*
X131901000Y-60101000D02*
G01*
X130099000Y-60101000D01*
X130099000Y-58299000D01*
X131901000Y-58299000D01*
X131901000Y-60101000D01*
G37*
G36*
X155313512Y-57063927D02*
G01*
X155462812Y-57093624D01*
X155626784Y-57161544D01*
X155774354Y-57260147D01*
X155899853Y-57385646D01*
X155998456Y-57533216D01*
X156066376Y-57697188D01*
X156101000Y-57871259D01*
X156101000Y-58048741D01*
X156066376Y-58222812D01*
X155998456Y-58386784D01*
X155899853Y-58534354D01*
X155774354Y-58659853D01*
X155626784Y-58758456D01*
X155462812Y-58826376D01*
X155313512Y-58856073D01*
X155288742Y-58861000D01*
X155111258Y-58861000D01*
X155086488Y-58856073D01*
X154937188Y-58826376D01*
X154773216Y-58758456D01*
X154625646Y-58659853D01*
X154500147Y-58534354D01*
X154401544Y-58386784D01*
X154333624Y-58222812D01*
X154299000Y-58048741D01*
X154299000Y-57871259D01*
X154333624Y-57697188D01*
X154401544Y-57533216D01*
X154500147Y-57385646D01*
X154625646Y-57260147D01*
X154773216Y-57161544D01*
X154937188Y-57093624D01*
X155086488Y-57063927D01*
X155111258Y-57059000D01*
X155288742Y-57059000D01*
X155313512Y-57063927D01*
G37*
M02*
