G04 #@! TF.GenerationSoftware,KiCad,Pcbnew,(5.1.5-0)*
G04 #@! TF.CreationDate,2022-05-19T14:53:53-06:00*
G04 #@! TF.ProjectId,TPS61165-heater-v5,54505336-3131-4363-952d-686561746572,rev?*
G04 #@! TF.SameCoordinates,Original*
G04 #@! TF.FileFunction,Copper,L2,Bot*
G04 #@! TF.FilePolarity,Positive*
%FSLAX46Y46*%
G04 Gerber Fmt 4.6, Leading zero omitted, Abs format (unit mm)*
G04 Created by KiCad (PCBNEW (5.1.5-0)) date 2022-05-19 14:53:53*
%MOMM*%
%LPD*%
G04 APERTURE LIST*
%ADD10O,1.800000X1.100000*%
%ADD11O,1.700000X1.700000*%
%ADD12R,1.700000X1.700000*%
%ADD13O,1.200000X1.750000*%
%ADD14C,0.100000*%
%ADD15O,1.750000X1.200000*%
%ADD16C,0.800000*%
%ADD17C,0.250000*%
%ADD18C,0.254000*%
G04 APERTURE END LIST*
D10*
X118525000Y-79480000D03*
X118525000Y-88120000D03*
X122325000Y-79480000D03*
X122325000Y-88120000D03*
D11*
X136080000Y-59200000D03*
X133540000Y-59200000D03*
D12*
X131000000Y-59200000D03*
D13*
X157300000Y-64500000D03*
G04 #@! TA.AperFunction,ComponentPad*
D14*
G36*
X155674505Y-63626204D02*
G01*
X155698773Y-63629804D01*
X155722572Y-63635765D01*
X155745671Y-63644030D01*
X155767850Y-63654520D01*
X155788893Y-63667132D01*
X155808599Y-63681747D01*
X155826777Y-63698223D01*
X155843253Y-63716401D01*
X155857868Y-63736107D01*
X155870480Y-63757150D01*
X155880970Y-63779329D01*
X155889235Y-63802428D01*
X155895196Y-63826227D01*
X155898796Y-63850495D01*
X155900000Y-63874999D01*
X155900000Y-65125001D01*
X155898796Y-65149505D01*
X155895196Y-65173773D01*
X155889235Y-65197572D01*
X155880970Y-65220671D01*
X155870480Y-65242850D01*
X155857868Y-65263893D01*
X155843253Y-65283599D01*
X155826777Y-65301777D01*
X155808599Y-65318253D01*
X155788893Y-65332868D01*
X155767850Y-65345480D01*
X155745671Y-65355970D01*
X155722572Y-65364235D01*
X155698773Y-65370196D01*
X155674505Y-65373796D01*
X155650001Y-65375000D01*
X154949999Y-65375000D01*
X154925495Y-65373796D01*
X154901227Y-65370196D01*
X154877428Y-65364235D01*
X154854329Y-65355970D01*
X154832150Y-65345480D01*
X154811107Y-65332868D01*
X154791401Y-65318253D01*
X154773223Y-65301777D01*
X154756747Y-65283599D01*
X154742132Y-65263893D01*
X154729520Y-65242850D01*
X154719030Y-65220671D01*
X154710765Y-65197572D01*
X154704804Y-65173773D01*
X154701204Y-65149505D01*
X154700000Y-65125001D01*
X154700000Y-63874999D01*
X154701204Y-63850495D01*
X154704804Y-63826227D01*
X154710765Y-63802428D01*
X154719030Y-63779329D01*
X154729520Y-63757150D01*
X154742132Y-63736107D01*
X154756747Y-63716401D01*
X154773223Y-63698223D01*
X154791401Y-63681747D01*
X154811107Y-63667132D01*
X154832150Y-63654520D01*
X154854329Y-63644030D01*
X154877428Y-63635765D01*
X154901227Y-63629804D01*
X154925495Y-63626204D01*
X154949999Y-63625000D01*
X155650001Y-63625000D01*
X155674505Y-63626204D01*
G37*
G04 #@! TD.AperFunction*
D11*
X155200000Y-57960000D03*
D12*
X155200000Y-60500000D03*
D15*
X123000000Y-72700000D03*
G04 #@! TA.AperFunction,ComponentPad*
D14*
G36*
X123649505Y-70101204D02*
G01*
X123673773Y-70104804D01*
X123697572Y-70110765D01*
X123720671Y-70119030D01*
X123742850Y-70129520D01*
X123763893Y-70142132D01*
X123783599Y-70156747D01*
X123801777Y-70173223D01*
X123818253Y-70191401D01*
X123832868Y-70211107D01*
X123845480Y-70232150D01*
X123855970Y-70254329D01*
X123864235Y-70277428D01*
X123870196Y-70301227D01*
X123873796Y-70325495D01*
X123875000Y-70349999D01*
X123875000Y-71050001D01*
X123873796Y-71074505D01*
X123870196Y-71098773D01*
X123864235Y-71122572D01*
X123855970Y-71145671D01*
X123845480Y-71167850D01*
X123832868Y-71188893D01*
X123818253Y-71208599D01*
X123801777Y-71226777D01*
X123783599Y-71243253D01*
X123763893Y-71257868D01*
X123742850Y-71270480D01*
X123720671Y-71280970D01*
X123697572Y-71289235D01*
X123673773Y-71295196D01*
X123649505Y-71298796D01*
X123625001Y-71300000D01*
X122374999Y-71300000D01*
X122350495Y-71298796D01*
X122326227Y-71295196D01*
X122302428Y-71289235D01*
X122279329Y-71280970D01*
X122257150Y-71270480D01*
X122236107Y-71257868D01*
X122216401Y-71243253D01*
X122198223Y-71226777D01*
X122181747Y-71208599D01*
X122167132Y-71188893D01*
X122154520Y-71167850D01*
X122144030Y-71145671D01*
X122135765Y-71122572D01*
X122129804Y-71098773D01*
X122126204Y-71074505D01*
X122125000Y-71050001D01*
X122125000Y-70349999D01*
X122126204Y-70325495D01*
X122129804Y-70301227D01*
X122135765Y-70277428D01*
X122144030Y-70254329D01*
X122154520Y-70232150D01*
X122167132Y-70211107D01*
X122181747Y-70191401D01*
X122198223Y-70173223D01*
X122216401Y-70156747D01*
X122236107Y-70142132D01*
X122257150Y-70129520D01*
X122279329Y-70119030D01*
X122302428Y-70110765D01*
X122326227Y-70104804D01*
X122350495Y-70101204D01*
X122374999Y-70100000D01*
X123625001Y-70100000D01*
X123649505Y-70101204D01*
G37*
G04 #@! TD.AperFunction*
D16*
X147900000Y-83800000D03*
X147900000Y-83000000D03*
X147900000Y-84600000D03*
X147900000Y-82200000D03*
X147900000Y-87300000D03*
X152700000Y-83600000D03*
X149500000Y-88800000D03*
X138400000Y-79300000D03*
X141700000Y-79300000D03*
X138350000Y-80650000D03*
X141700000Y-78000000D03*
X141700000Y-71500000D03*
X138000000Y-71400000D03*
X138300000Y-67025000D03*
X147700000Y-77600000D03*
X138300000Y-75500000D03*
X139200000Y-66400000D03*
X139900000Y-72800000D03*
X144000000Y-75800000D03*
X144600000Y-68400000D03*
X142106139Y-67686186D03*
X143980154Y-74680154D03*
X141700000Y-68600000D03*
D17*
X122325000Y-79480000D02*
X118525000Y-79480000D01*
X122325000Y-88120000D02*
X118525000Y-88120000D01*
X118525000Y-88120000D02*
X118525000Y-79480000D01*
X142626998Y-75500000D02*
X138300000Y-75500000D01*
X144726998Y-77600000D02*
X142626998Y-75500000D01*
X147700000Y-77600000D02*
X144726998Y-77600000D01*
X139200000Y-72100000D02*
X139900000Y-72800000D01*
X139200000Y-66400000D02*
X139200000Y-72100000D01*
X138300000Y-74400000D02*
X139900000Y-72800000D01*
X138300000Y-75500000D02*
X138300000Y-74400000D01*
X144000000Y-75800000D02*
X145100000Y-74700000D01*
X145100000Y-68900000D02*
X144600000Y-68400000D01*
X145100000Y-74700000D02*
X145100000Y-68900000D01*
X141540454Y-67686186D02*
X140309411Y-68917229D01*
X142106139Y-67686186D02*
X141540454Y-67686186D01*
X143980154Y-70880154D02*
X141700000Y-68600000D01*
X143980154Y-74680154D02*
X143980154Y-70880154D01*
D18*
G36*
X159340001Y-89340000D02*
G01*
X129927000Y-89340000D01*
X129927000Y-75398061D01*
X137265000Y-75398061D01*
X137265000Y-75601939D01*
X137304774Y-75801898D01*
X137382795Y-75990256D01*
X137496063Y-76159774D01*
X137640226Y-76303937D01*
X137809744Y-76417205D01*
X137998102Y-76495226D01*
X138198061Y-76535000D01*
X138401939Y-76535000D01*
X138601898Y-76495226D01*
X138790256Y-76417205D01*
X138959774Y-76303937D01*
X139003711Y-76260000D01*
X142312197Y-76260000D01*
X144163203Y-78111008D01*
X144186997Y-78140001D01*
X144215990Y-78163795D01*
X144215994Y-78163799D01*
X144286683Y-78221811D01*
X144302722Y-78234974D01*
X144434751Y-78305546D01*
X144578012Y-78349003D01*
X144689665Y-78360000D01*
X144689674Y-78360000D01*
X144726997Y-78363676D01*
X144764320Y-78360000D01*
X146996289Y-78360000D01*
X147040226Y-78403937D01*
X147209744Y-78517205D01*
X147398102Y-78595226D01*
X147598061Y-78635000D01*
X147801939Y-78635000D01*
X148001898Y-78595226D01*
X148190256Y-78517205D01*
X148359774Y-78403937D01*
X148503937Y-78259774D01*
X148617205Y-78090256D01*
X148695226Y-77901898D01*
X148735000Y-77701939D01*
X148735000Y-77498061D01*
X148695226Y-77298102D01*
X148617205Y-77109744D01*
X148503937Y-76940226D01*
X148359774Y-76796063D01*
X148190256Y-76682795D01*
X148001898Y-76604774D01*
X147801939Y-76565000D01*
X147598061Y-76565000D01*
X147398102Y-76604774D01*
X147209744Y-76682795D01*
X147040226Y-76796063D01*
X146996289Y-76840000D01*
X145041801Y-76840000D01*
X144732756Y-76530955D01*
X144803937Y-76459774D01*
X144917205Y-76290256D01*
X144995226Y-76101898D01*
X145035000Y-75901939D01*
X145035000Y-75839801D01*
X145611004Y-75263798D01*
X145640001Y-75240001D01*
X145697113Y-75170410D01*
X145734974Y-75124277D01*
X145805546Y-74992247D01*
X145805546Y-74992246D01*
X145849003Y-74848986D01*
X145860000Y-74737333D01*
X145860000Y-74737323D01*
X145863676Y-74700000D01*
X145860000Y-74662677D01*
X145860000Y-68937325D01*
X145863676Y-68900000D01*
X145860000Y-68862675D01*
X145860000Y-68862667D01*
X145849003Y-68751014D01*
X145805546Y-68607753D01*
X145734974Y-68475724D01*
X145640001Y-68359999D01*
X145635000Y-68355895D01*
X145635000Y-68298061D01*
X145595226Y-68098102D01*
X145517205Y-67909744D01*
X145403937Y-67740226D01*
X145259774Y-67596063D01*
X145090256Y-67482795D01*
X144901898Y-67404774D01*
X144701939Y-67365000D01*
X144498061Y-67365000D01*
X144298102Y-67404774D01*
X144109744Y-67482795D01*
X143940226Y-67596063D01*
X143796063Y-67740226D01*
X143682795Y-67909744D01*
X143604774Y-68098102D01*
X143565000Y-68298061D01*
X143565000Y-68501939D01*
X143604774Y-68701898D01*
X143682795Y-68890256D01*
X143796063Y-69059774D01*
X143940226Y-69203937D01*
X144109744Y-69317205D01*
X144298102Y-69395226D01*
X144340001Y-69403560D01*
X144340001Y-70165199D01*
X142735000Y-68560199D01*
X142735000Y-68510778D01*
X142765913Y-68490123D01*
X142910076Y-68345960D01*
X143023344Y-68176442D01*
X143101365Y-67988084D01*
X143141139Y-67788125D01*
X143141139Y-67584247D01*
X143101365Y-67384288D01*
X143023344Y-67195930D01*
X142910076Y-67026412D01*
X142765913Y-66882249D01*
X142596395Y-66768981D01*
X142408037Y-66690960D01*
X142208078Y-66651186D01*
X142004200Y-66651186D01*
X141804241Y-66690960D01*
X141615883Y-66768981D01*
X141446365Y-66882249D01*
X141391415Y-66937199D01*
X141248207Y-66980640D01*
X141116178Y-67051212D01*
X141000453Y-67146185D01*
X140976655Y-67175183D01*
X139960000Y-68191839D01*
X139960000Y-67103711D01*
X140003937Y-67059774D01*
X140117205Y-66890256D01*
X140195226Y-66701898D01*
X140235000Y-66501939D01*
X140235000Y-66298061D01*
X140195226Y-66098102D01*
X140117205Y-65909744D01*
X140003937Y-65740226D01*
X139859774Y-65596063D01*
X139690256Y-65482795D01*
X139501898Y-65404774D01*
X139301939Y-65365000D01*
X139098061Y-65365000D01*
X138898102Y-65404774D01*
X138709744Y-65482795D01*
X138540226Y-65596063D01*
X138396063Y-65740226D01*
X138282795Y-65909744D01*
X138204774Y-66098102D01*
X138165000Y-66298061D01*
X138165000Y-66501939D01*
X138204774Y-66701898D01*
X138282795Y-66890256D01*
X138396063Y-67059774D01*
X138440000Y-67103711D01*
X138440001Y-72062668D01*
X138436324Y-72100000D01*
X138450998Y-72248985D01*
X138494454Y-72392246D01*
X138565026Y-72524276D01*
X138636201Y-72611002D01*
X138660000Y-72640001D01*
X138688997Y-72663799D01*
X138825198Y-72800000D01*
X137788998Y-73836201D01*
X137760000Y-73859999D01*
X137736202Y-73888997D01*
X137736201Y-73888998D01*
X137665026Y-73975724D01*
X137594454Y-74107754D01*
X137550998Y-74251015D01*
X137536324Y-74400000D01*
X137540001Y-74437332D01*
X137540001Y-74796288D01*
X137496063Y-74840226D01*
X137382795Y-75009744D01*
X137304774Y-75198102D01*
X137265000Y-75398061D01*
X129927000Y-75398061D01*
X129927000Y-63874999D01*
X154061928Y-63874999D01*
X154061928Y-65125001D01*
X154078992Y-65298255D01*
X154129528Y-65464851D01*
X154211595Y-65618387D01*
X154322038Y-65752962D01*
X154456613Y-65863405D01*
X154610149Y-65945472D01*
X154776745Y-65996008D01*
X154949999Y-66013072D01*
X155650001Y-66013072D01*
X155823255Y-65996008D01*
X155989851Y-65945472D01*
X156143387Y-65863405D01*
X156277962Y-65752962D01*
X156388405Y-65618387D01*
X156390810Y-65613888D01*
X156422499Y-65652502D01*
X156610552Y-65806833D01*
X156825100Y-65921511D01*
X157057899Y-65992130D01*
X157300000Y-66015975D01*
X157542102Y-65992130D01*
X157774901Y-65921511D01*
X157989449Y-65806833D01*
X158177502Y-65652502D01*
X158331833Y-65464449D01*
X158446511Y-65249900D01*
X158517130Y-65017101D01*
X158535000Y-64835664D01*
X158535000Y-64164335D01*
X158517130Y-63982898D01*
X158446511Y-63750099D01*
X158331833Y-63535551D01*
X158177502Y-63347498D01*
X157989448Y-63193167D01*
X157774900Y-63078489D01*
X157542101Y-63007870D01*
X157300000Y-62984025D01*
X157057898Y-63007870D01*
X156825099Y-63078489D01*
X156610551Y-63193167D01*
X156422498Y-63347498D01*
X156390809Y-63386111D01*
X156388405Y-63381613D01*
X156277962Y-63247038D01*
X156143387Y-63136595D01*
X155989851Y-63054528D01*
X155823255Y-63003992D01*
X155650001Y-62986928D01*
X154949999Y-62986928D01*
X154776745Y-63003992D01*
X154610149Y-63054528D01*
X154456613Y-63136595D01*
X154322038Y-63247038D01*
X154211595Y-63381613D01*
X154129528Y-63535149D01*
X154078992Y-63701745D01*
X154061928Y-63874999D01*
X129927000Y-63874999D01*
X129927000Y-60645927D01*
X130025518Y-60675812D01*
X130150000Y-60688072D01*
X131850000Y-60688072D01*
X131974482Y-60675812D01*
X132094180Y-60639502D01*
X132204494Y-60580537D01*
X132301185Y-60501185D01*
X132380537Y-60404494D01*
X132439502Y-60294180D01*
X132461513Y-60221620D01*
X132593368Y-60353475D01*
X132836589Y-60515990D01*
X133106842Y-60627932D01*
X133393740Y-60685000D01*
X133686260Y-60685000D01*
X133973158Y-60627932D01*
X134243411Y-60515990D01*
X134486632Y-60353475D01*
X134693475Y-60146632D01*
X134815195Y-59964466D01*
X134884822Y-60081355D01*
X135079731Y-60297588D01*
X135313080Y-60471641D01*
X135575901Y-60596825D01*
X135723110Y-60641476D01*
X135953000Y-60520155D01*
X135953000Y-59327000D01*
X136207000Y-59327000D01*
X136207000Y-60520155D01*
X136436890Y-60641476D01*
X136584099Y-60596825D01*
X136846920Y-60471641D01*
X137080269Y-60297588D01*
X137275178Y-60081355D01*
X137424157Y-59831252D01*
X137488452Y-59650000D01*
X153711928Y-59650000D01*
X153711928Y-61350000D01*
X153724188Y-61474482D01*
X153760498Y-61594180D01*
X153819463Y-61704494D01*
X153898815Y-61801185D01*
X153995506Y-61880537D01*
X154105820Y-61939502D01*
X154225518Y-61975812D01*
X154350000Y-61988072D01*
X156050000Y-61988072D01*
X156174482Y-61975812D01*
X156294180Y-61939502D01*
X156404494Y-61880537D01*
X156501185Y-61801185D01*
X156580537Y-61704494D01*
X156639502Y-61594180D01*
X156675812Y-61474482D01*
X156688072Y-61350000D01*
X156688072Y-59650000D01*
X156675812Y-59525518D01*
X156639502Y-59405820D01*
X156580537Y-59295506D01*
X156501185Y-59198815D01*
X156404494Y-59119463D01*
X156294180Y-59060498D01*
X156221620Y-59038487D01*
X156353475Y-58906632D01*
X156515990Y-58663411D01*
X156627932Y-58393158D01*
X156685000Y-58106260D01*
X156685000Y-57813740D01*
X156627932Y-57526842D01*
X156515990Y-57256589D01*
X156353475Y-57013368D01*
X156146632Y-56806525D01*
X155903411Y-56644010D01*
X155633158Y-56532068D01*
X155346260Y-56475000D01*
X155053740Y-56475000D01*
X154766842Y-56532068D01*
X154496589Y-56644010D01*
X154253368Y-56806525D01*
X154046525Y-57013368D01*
X153884010Y-57256589D01*
X153772068Y-57526842D01*
X153715000Y-57813740D01*
X153715000Y-58106260D01*
X153772068Y-58393158D01*
X153884010Y-58663411D01*
X154046525Y-58906632D01*
X154178380Y-59038487D01*
X154105820Y-59060498D01*
X153995506Y-59119463D01*
X153898815Y-59198815D01*
X153819463Y-59295506D01*
X153760498Y-59405820D01*
X153724188Y-59525518D01*
X153711928Y-59650000D01*
X137488452Y-59650000D01*
X137521481Y-59556891D01*
X137400814Y-59327000D01*
X136207000Y-59327000D01*
X135953000Y-59327000D01*
X135933000Y-59327000D01*
X135933000Y-59073000D01*
X135953000Y-59073000D01*
X135953000Y-57879845D01*
X136207000Y-57879845D01*
X136207000Y-59073000D01*
X137400814Y-59073000D01*
X137521481Y-58843109D01*
X137424157Y-58568748D01*
X137275178Y-58318645D01*
X137080269Y-58102412D01*
X136846920Y-57928359D01*
X136584099Y-57803175D01*
X136436890Y-57758524D01*
X136207000Y-57879845D01*
X135953000Y-57879845D01*
X135723110Y-57758524D01*
X135575901Y-57803175D01*
X135313080Y-57928359D01*
X135079731Y-58102412D01*
X134884822Y-58318645D01*
X134815195Y-58435534D01*
X134693475Y-58253368D01*
X134486632Y-58046525D01*
X134243411Y-57884010D01*
X133973158Y-57772068D01*
X133686260Y-57715000D01*
X133393740Y-57715000D01*
X133106842Y-57772068D01*
X132836589Y-57884010D01*
X132593368Y-58046525D01*
X132461513Y-58178380D01*
X132439502Y-58105820D01*
X132380537Y-57995506D01*
X132301185Y-57898815D01*
X132204494Y-57819463D01*
X132094180Y-57760498D01*
X131974482Y-57724188D01*
X131850000Y-57711928D01*
X130150000Y-57711928D01*
X130025518Y-57724188D01*
X129927000Y-57754073D01*
X129927000Y-55660000D01*
X159340000Y-55660000D01*
X159340001Y-89340000D01*
G37*
X159340001Y-89340000D02*
X129927000Y-89340000D01*
X129927000Y-75398061D01*
X137265000Y-75398061D01*
X137265000Y-75601939D01*
X137304774Y-75801898D01*
X137382795Y-75990256D01*
X137496063Y-76159774D01*
X137640226Y-76303937D01*
X137809744Y-76417205D01*
X137998102Y-76495226D01*
X138198061Y-76535000D01*
X138401939Y-76535000D01*
X138601898Y-76495226D01*
X138790256Y-76417205D01*
X138959774Y-76303937D01*
X139003711Y-76260000D01*
X142312197Y-76260000D01*
X144163203Y-78111008D01*
X144186997Y-78140001D01*
X144215990Y-78163795D01*
X144215994Y-78163799D01*
X144286683Y-78221811D01*
X144302722Y-78234974D01*
X144434751Y-78305546D01*
X144578012Y-78349003D01*
X144689665Y-78360000D01*
X144689674Y-78360000D01*
X144726997Y-78363676D01*
X144764320Y-78360000D01*
X146996289Y-78360000D01*
X147040226Y-78403937D01*
X147209744Y-78517205D01*
X147398102Y-78595226D01*
X147598061Y-78635000D01*
X147801939Y-78635000D01*
X148001898Y-78595226D01*
X148190256Y-78517205D01*
X148359774Y-78403937D01*
X148503937Y-78259774D01*
X148617205Y-78090256D01*
X148695226Y-77901898D01*
X148735000Y-77701939D01*
X148735000Y-77498061D01*
X148695226Y-77298102D01*
X148617205Y-77109744D01*
X148503937Y-76940226D01*
X148359774Y-76796063D01*
X148190256Y-76682795D01*
X148001898Y-76604774D01*
X147801939Y-76565000D01*
X147598061Y-76565000D01*
X147398102Y-76604774D01*
X147209744Y-76682795D01*
X147040226Y-76796063D01*
X146996289Y-76840000D01*
X145041801Y-76840000D01*
X144732756Y-76530955D01*
X144803937Y-76459774D01*
X144917205Y-76290256D01*
X144995226Y-76101898D01*
X145035000Y-75901939D01*
X145035000Y-75839801D01*
X145611004Y-75263798D01*
X145640001Y-75240001D01*
X145697113Y-75170410D01*
X145734974Y-75124277D01*
X145805546Y-74992247D01*
X145805546Y-74992246D01*
X145849003Y-74848986D01*
X145860000Y-74737333D01*
X145860000Y-74737323D01*
X145863676Y-74700000D01*
X145860000Y-74662677D01*
X145860000Y-68937325D01*
X145863676Y-68900000D01*
X145860000Y-68862675D01*
X145860000Y-68862667D01*
X145849003Y-68751014D01*
X145805546Y-68607753D01*
X145734974Y-68475724D01*
X145640001Y-68359999D01*
X145635000Y-68355895D01*
X145635000Y-68298061D01*
X145595226Y-68098102D01*
X145517205Y-67909744D01*
X145403937Y-67740226D01*
X145259774Y-67596063D01*
X145090256Y-67482795D01*
X144901898Y-67404774D01*
X144701939Y-67365000D01*
X144498061Y-67365000D01*
X144298102Y-67404774D01*
X144109744Y-67482795D01*
X143940226Y-67596063D01*
X143796063Y-67740226D01*
X143682795Y-67909744D01*
X143604774Y-68098102D01*
X143565000Y-68298061D01*
X143565000Y-68501939D01*
X143604774Y-68701898D01*
X143682795Y-68890256D01*
X143796063Y-69059774D01*
X143940226Y-69203937D01*
X144109744Y-69317205D01*
X144298102Y-69395226D01*
X144340001Y-69403560D01*
X144340001Y-70165199D01*
X142735000Y-68560199D01*
X142735000Y-68510778D01*
X142765913Y-68490123D01*
X142910076Y-68345960D01*
X143023344Y-68176442D01*
X143101365Y-67988084D01*
X143141139Y-67788125D01*
X143141139Y-67584247D01*
X143101365Y-67384288D01*
X143023344Y-67195930D01*
X142910076Y-67026412D01*
X142765913Y-66882249D01*
X142596395Y-66768981D01*
X142408037Y-66690960D01*
X142208078Y-66651186D01*
X142004200Y-66651186D01*
X141804241Y-66690960D01*
X141615883Y-66768981D01*
X141446365Y-66882249D01*
X141391415Y-66937199D01*
X141248207Y-66980640D01*
X141116178Y-67051212D01*
X141000453Y-67146185D01*
X140976655Y-67175183D01*
X139960000Y-68191839D01*
X139960000Y-67103711D01*
X140003937Y-67059774D01*
X140117205Y-66890256D01*
X140195226Y-66701898D01*
X140235000Y-66501939D01*
X140235000Y-66298061D01*
X140195226Y-66098102D01*
X140117205Y-65909744D01*
X140003937Y-65740226D01*
X139859774Y-65596063D01*
X139690256Y-65482795D01*
X139501898Y-65404774D01*
X139301939Y-65365000D01*
X139098061Y-65365000D01*
X138898102Y-65404774D01*
X138709744Y-65482795D01*
X138540226Y-65596063D01*
X138396063Y-65740226D01*
X138282795Y-65909744D01*
X138204774Y-66098102D01*
X138165000Y-66298061D01*
X138165000Y-66501939D01*
X138204774Y-66701898D01*
X138282795Y-66890256D01*
X138396063Y-67059774D01*
X138440000Y-67103711D01*
X138440001Y-72062668D01*
X138436324Y-72100000D01*
X138450998Y-72248985D01*
X138494454Y-72392246D01*
X138565026Y-72524276D01*
X138636201Y-72611002D01*
X138660000Y-72640001D01*
X138688997Y-72663799D01*
X138825198Y-72800000D01*
X137788998Y-73836201D01*
X137760000Y-73859999D01*
X137736202Y-73888997D01*
X137736201Y-73888998D01*
X137665026Y-73975724D01*
X137594454Y-74107754D01*
X137550998Y-74251015D01*
X137536324Y-74400000D01*
X137540001Y-74437332D01*
X137540001Y-74796288D01*
X137496063Y-74840226D01*
X137382795Y-75009744D01*
X137304774Y-75198102D01*
X137265000Y-75398061D01*
X129927000Y-75398061D01*
X129927000Y-63874999D01*
X154061928Y-63874999D01*
X154061928Y-65125001D01*
X154078992Y-65298255D01*
X154129528Y-65464851D01*
X154211595Y-65618387D01*
X154322038Y-65752962D01*
X154456613Y-65863405D01*
X154610149Y-65945472D01*
X154776745Y-65996008D01*
X154949999Y-66013072D01*
X155650001Y-66013072D01*
X155823255Y-65996008D01*
X155989851Y-65945472D01*
X156143387Y-65863405D01*
X156277962Y-65752962D01*
X156388405Y-65618387D01*
X156390810Y-65613888D01*
X156422499Y-65652502D01*
X156610552Y-65806833D01*
X156825100Y-65921511D01*
X157057899Y-65992130D01*
X157300000Y-66015975D01*
X157542102Y-65992130D01*
X157774901Y-65921511D01*
X157989449Y-65806833D01*
X158177502Y-65652502D01*
X158331833Y-65464449D01*
X158446511Y-65249900D01*
X158517130Y-65017101D01*
X158535000Y-64835664D01*
X158535000Y-64164335D01*
X158517130Y-63982898D01*
X158446511Y-63750099D01*
X158331833Y-63535551D01*
X158177502Y-63347498D01*
X157989448Y-63193167D01*
X157774900Y-63078489D01*
X157542101Y-63007870D01*
X157300000Y-62984025D01*
X157057898Y-63007870D01*
X156825099Y-63078489D01*
X156610551Y-63193167D01*
X156422498Y-63347498D01*
X156390809Y-63386111D01*
X156388405Y-63381613D01*
X156277962Y-63247038D01*
X156143387Y-63136595D01*
X155989851Y-63054528D01*
X155823255Y-63003992D01*
X155650001Y-62986928D01*
X154949999Y-62986928D01*
X154776745Y-63003992D01*
X154610149Y-63054528D01*
X154456613Y-63136595D01*
X154322038Y-63247038D01*
X154211595Y-63381613D01*
X154129528Y-63535149D01*
X154078992Y-63701745D01*
X154061928Y-63874999D01*
X129927000Y-63874999D01*
X129927000Y-60645927D01*
X130025518Y-60675812D01*
X130150000Y-60688072D01*
X131850000Y-60688072D01*
X131974482Y-60675812D01*
X132094180Y-60639502D01*
X132204494Y-60580537D01*
X132301185Y-60501185D01*
X132380537Y-60404494D01*
X132439502Y-60294180D01*
X132461513Y-60221620D01*
X132593368Y-60353475D01*
X132836589Y-60515990D01*
X133106842Y-60627932D01*
X133393740Y-60685000D01*
X133686260Y-60685000D01*
X133973158Y-60627932D01*
X134243411Y-60515990D01*
X134486632Y-60353475D01*
X134693475Y-60146632D01*
X134815195Y-59964466D01*
X134884822Y-60081355D01*
X135079731Y-60297588D01*
X135313080Y-60471641D01*
X135575901Y-60596825D01*
X135723110Y-60641476D01*
X135953000Y-60520155D01*
X135953000Y-59327000D01*
X136207000Y-59327000D01*
X136207000Y-60520155D01*
X136436890Y-60641476D01*
X136584099Y-60596825D01*
X136846920Y-60471641D01*
X137080269Y-60297588D01*
X137275178Y-60081355D01*
X137424157Y-59831252D01*
X137488452Y-59650000D01*
X153711928Y-59650000D01*
X153711928Y-61350000D01*
X153724188Y-61474482D01*
X153760498Y-61594180D01*
X153819463Y-61704494D01*
X153898815Y-61801185D01*
X153995506Y-61880537D01*
X154105820Y-61939502D01*
X154225518Y-61975812D01*
X154350000Y-61988072D01*
X156050000Y-61988072D01*
X156174482Y-61975812D01*
X156294180Y-61939502D01*
X156404494Y-61880537D01*
X156501185Y-61801185D01*
X156580537Y-61704494D01*
X156639502Y-61594180D01*
X156675812Y-61474482D01*
X156688072Y-61350000D01*
X156688072Y-59650000D01*
X156675812Y-59525518D01*
X156639502Y-59405820D01*
X156580537Y-59295506D01*
X156501185Y-59198815D01*
X156404494Y-59119463D01*
X156294180Y-59060498D01*
X156221620Y-59038487D01*
X156353475Y-58906632D01*
X156515990Y-58663411D01*
X156627932Y-58393158D01*
X156685000Y-58106260D01*
X156685000Y-57813740D01*
X156627932Y-57526842D01*
X156515990Y-57256589D01*
X156353475Y-57013368D01*
X156146632Y-56806525D01*
X155903411Y-56644010D01*
X155633158Y-56532068D01*
X155346260Y-56475000D01*
X155053740Y-56475000D01*
X154766842Y-56532068D01*
X154496589Y-56644010D01*
X154253368Y-56806525D01*
X154046525Y-57013368D01*
X153884010Y-57256589D01*
X153772068Y-57526842D01*
X153715000Y-57813740D01*
X153715000Y-58106260D01*
X153772068Y-58393158D01*
X153884010Y-58663411D01*
X154046525Y-58906632D01*
X154178380Y-59038487D01*
X154105820Y-59060498D01*
X153995506Y-59119463D01*
X153898815Y-59198815D01*
X153819463Y-59295506D01*
X153760498Y-59405820D01*
X153724188Y-59525518D01*
X153711928Y-59650000D01*
X137488452Y-59650000D01*
X137521481Y-59556891D01*
X137400814Y-59327000D01*
X136207000Y-59327000D01*
X135953000Y-59327000D01*
X135933000Y-59327000D01*
X135933000Y-59073000D01*
X135953000Y-59073000D01*
X135953000Y-57879845D01*
X136207000Y-57879845D01*
X136207000Y-59073000D01*
X137400814Y-59073000D01*
X137521481Y-58843109D01*
X137424157Y-58568748D01*
X137275178Y-58318645D01*
X137080269Y-58102412D01*
X136846920Y-57928359D01*
X136584099Y-57803175D01*
X136436890Y-57758524D01*
X136207000Y-57879845D01*
X135953000Y-57879845D01*
X135723110Y-57758524D01*
X135575901Y-57803175D01*
X135313080Y-57928359D01*
X135079731Y-58102412D01*
X134884822Y-58318645D01*
X134815195Y-58435534D01*
X134693475Y-58253368D01*
X134486632Y-58046525D01*
X134243411Y-57884010D01*
X133973158Y-57772068D01*
X133686260Y-57715000D01*
X133393740Y-57715000D01*
X133106842Y-57772068D01*
X132836589Y-57884010D01*
X132593368Y-58046525D01*
X132461513Y-58178380D01*
X132439502Y-58105820D01*
X132380537Y-57995506D01*
X132301185Y-57898815D01*
X132204494Y-57819463D01*
X132094180Y-57760498D01*
X131974482Y-57724188D01*
X131850000Y-57711928D01*
X130150000Y-57711928D01*
X130025518Y-57724188D01*
X129927000Y-57754073D01*
X129927000Y-55660000D01*
X159340000Y-55660000D01*
X159340001Y-89340000D01*
G36*
X141040226Y-69403937D02*
G01*
X141209744Y-69517205D01*
X141398102Y-69595226D01*
X141598061Y-69635000D01*
X141660199Y-69635000D01*
X143220155Y-71194957D01*
X143220154Y-73976443D01*
X143176217Y-74020380D01*
X143062949Y-74189898D01*
X142984928Y-74378256D01*
X142945154Y-74578215D01*
X142945154Y-74782093D01*
X142950988Y-74811421D01*
X142919245Y-74794454D01*
X142775984Y-74750997D01*
X142664331Y-74740000D01*
X142664320Y-74740000D01*
X142626998Y-74736324D01*
X142589676Y-74740000D01*
X139060000Y-74740000D01*
X139060000Y-74714801D01*
X139939802Y-73835000D01*
X140001939Y-73835000D01*
X140201898Y-73795226D01*
X140390256Y-73717205D01*
X140559774Y-73603937D01*
X140703937Y-73459774D01*
X140817205Y-73290256D01*
X140895226Y-73101898D01*
X140935000Y-72901939D01*
X140935000Y-72698061D01*
X140895226Y-72498102D01*
X140817205Y-72309744D01*
X140703937Y-72140226D01*
X140559774Y-71996063D01*
X140390256Y-71882795D01*
X140201898Y-71804774D01*
X140001939Y-71765000D01*
X139960000Y-71765000D01*
X139960000Y-69592219D01*
X140017165Y-69622775D01*
X140160426Y-69666231D01*
X140309411Y-69680905D01*
X140458396Y-69666231D01*
X140601657Y-69622775D01*
X140733687Y-69552203D01*
X140820413Y-69481028D01*
X140968865Y-69332576D01*
X141040226Y-69403937D01*
G37*
X141040226Y-69403937D02*
X141209744Y-69517205D01*
X141398102Y-69595226D01*
X141598061Y-69635000D01*
X141660199Y-69635000D01*
X143220155Y-71194957D01*
X143220154Y-73976443D01*
X143176217Y-74020380D01*
X143062949Y-74189898D01*
X142984928Y-74378256D01*
X142945154Y-74578215D01*
X142945154Y-74782093D01*
X142950988Y-74811421D01*
X142919245Y-74794454D01*
X142775984Y-74750997D01*
X142664331Y-74740000D01*
X142664320Y-74740000D01*
X142626998Y-74736324D01*
X142589676Y-74740000D01*
X139060000Y-74740000D01*
X139060000Y-74714801D01*
X139939802Y-73835000D01*
X140001939Y-73835000D01*
X140201898Y-73795226D01*
X140390256Y-73717205D01*
X140559774Y-73603937D01*
X140703937Y-73459774D01*
X140817205Y-73290256D01*
X140895226Y-73101898D01*
X140935000Y-72901939D01*
X140935000Y-72698061D01*
X140895226Y-72498102D01*
X140817205Y-72309744D01*
X140703937Y-72140226D01*
X140559774Y-71996063D01*
X140390256Y-71882795D01*
X140201898Y-71804774D01*
X140001939Y-71765000D01*
X139960000Y-71765000D01*
X139960000Y-69592219D01*
X140017165Y-69622775D01*
X140160426Y-69666231D01*
X140309411Y-69680905D01*
X140458396Y-69666231D01*
X140601657Y-69622775D01*
X140733687Y-69552203D01*
X140820413Y-69481028D01*
X140968865Y-69332576D01*
X141040226Y-69403937D01*
M02*
