%FSLAX45Y45*%
G04 Gerber Fmt 4.5, Leading zero omitted, Abs format (unit mm)*
G04 Created by KiCad (PCBNEW (5.1.5-0)) date 2022-05-19 14:53:56*
%MOMM*%
%LPD*%
G04 APERTURE LIST*
%TA.AperFunction,Profile*%
%ADD10C,0.050000*%
%TD*%
%ADD11C,0.200000*%
%ADD12C,0.300000*%
G04 APERTURE END LIST*
D10*
X11600000Y-9000000D02*
X11600000Y-5500000D01*
X16000000Y-9000000D02*
X11600000Y-9000000D01*
X16000000Y-5500000D02*
X16000000Y-9000000D01*
X11600000Y-5500000D02*
X16000000Y-5500000D01*
D11*
X13780000Y-7120000D02*
X13820000Y-7160000D01*
X13820000Y-7120000D02*
X13780000Y-7160000D01*
X13810000Y-6682500D02*
X13850000Y-6722500D01*
X13850000Y-6682500D02*
X13810000Y-6722500D01*
X13810000Y-7530000D02*
X13850000Y-7570000D01*
X13850000Y-7530000D02*
X13810000Y-7570000D01*
X13815000Y-8045000D02*
X13855000Y-8085000D01*
X13855000Y-8045000D02*
X13815000Y-8085000D01*
X13820000Y-7910000D02*
X13860000Y-7950000D01*
X13860000Y-7910000D02*
X13820000Y-7950000D01*
X13900000Y-6620000D02*
X13940000Y-6660000D01*
X13940000Y-6620000D02*
X13900000Y-6660000D01*
X13970000Y-7260000D02*
X14010000Y-7300000D01*
X14010000Y-7260000D02*
X13970000Y-7300000D01*
X14150000Y-6840000D02*
X14190000Y-6880000D01*
X14190000Y-6840000D02*
X14150000Y-6880000D01*
X14150000Y-7130000D02*
X14190000Y-7170000D01*
X14190000Y-7130000D02*
X14150000Y-7170000D01*
X14150000Y-7780000D02*
X14190000Y-7820000D01*
X14190000Y-7780000D02*
X14150000Y-7820000D01*
X14150000Y-7910000D02*
X14190000Y-7950000D01*
X14190000Y-7910000D02*
X14150000Y-7950000D01*
X14190614Y-6748619D02*
X14230614Y-6788619D01*
X14230614Y-6748619D02*
X14190614Y-6788619D01*
X14378015Y-7448015D02*
X14418015Y-7488015D01*
X14418015Y-7448015D02*
X14378015Y-7488015D01*
X14380000Y-7560000D02*
X14420000Y-7600000D01*
X14420000Y-7560000D02*
X14380000Y-7600000D01*
X14440000Y-6820000D02*
X14480000Y-6860000D01*
X14480000Y-6820000D02*
X14440000Y-6860000D01*
X14750000Y-7740000D02*
X14790000Y-7780000D01*
X14790000Y-7740000D02*
X14750000Y-7780000D01*
X14770000Y-8200000D02*
X14810000Y-8240000D01*
X14810000Y-8200000D02*
X14770000Y-8240000D01*
X14770000Y-8280000D02*
X14810000Y-8320000D01*
X14810000Y-8280000D02*
X14770000Y-8320000D01*
X14770000Y-8360000D02*
X14810000Y-8400000D01*
X14810000Y-8360000D02*
X14770000Y-8400000D01*
X14770000Y-8440000D02*
X14810000Y-8480000D01*
X14810000Y-8440000D02*
X14770000Y-8480000D01*
X14770000Y-8710000D02*
X14810000Y-8750000D01*
X14810000Y-8710000D02*
X14770000Y-8750000D01*
X14930000Y-8860000D02*
X14970000Y-8900000D01*
X14970000Y-8860000D02*
X14930000Y-8900000D01*
X15250000Y-8340000D02*
X15290000Y-8380000D01*
X15290000Y-8340000D02*
X15250000Y-8380000D01*
X11887500Y-7948000D02*
G75*
G03X11887500Y-7948000I-35000J0D01*
G01*
X11887550Y-7923000D02*
X11817450Y-7923000D01*
X11887550Y-7973000D02*
X11817450Y-7973000D01*
X11817450Y-7923000D02*
G75*
G03X11817450Y-7973000I0J-25000D01*
G01*
X11887550Y-7973000D02*
G75*
G03X11887550Y-7923000I0J25000D01*
G01*
X11887500Y-8812000D02*
G75*
G03X11887500Y-8812000I-35000J0D01*
G01*
X11887550Y-8787000D02*
X11817450Y-8787000D01*
X11887550Y-8837000D02*
X11817450Y-8837000D01*
X11817450Y-8787000D02*
G75*
G03X11817450Y-8837000I0J-25000D01*
G01*
X11887550Y-8837000D02*
G75*
G03X11887550Y-8787000I0J25000D01*
G01*
X12267500Y-7948000D02*
G75*
G03X12267500Y-7948000I-35000J0D01*
G01*
X12267550Y-7923000D02*
X12197450Y-7923000D01*
X12267550Y-7973000D02*
X12197450Y-7973000D01*
X12197450Y-7923000D02*
G75*
G03X12197450Y-7973000I0J-25000D01*
G01*
X12267550Y-7973000D02*
G75*
G03X12267550Y-7923000I0J25000D01*
G01*
X12267500Y-8812000D02*
G75*
G03X12267500Y-8812000I-35000J0D01*
G01*
X12267550Y-8787000D02*
X12197450Y-8787000D01*
X12267550Y-8837000D02*
X12197450Y-8837000D01*
X12197450Y-8787000D02*
G75*
G03X12197450Y-8837000I0J-25000D01*
G01*
X12267550Y-8837000D02*
G75*
G03X12267550Y-8787000I0J25000D01*
G01*
X12300000Y-7032500D02*
X12300000Y-7107500D01*
X12262500Y-7070000D02*
X12337500Y-7070000D01*
X12300000Y-7232500D02*
X12300000Y-7307500D01*
X12262500Y-7270000D02*
X12337500Y-7270000D01*
X15530000Y-6412500D02*
X15530000Y-6487500D01*
X15492500Y-6450000D02*
X15567500Y-6450000D01*
X15730000Y-6412500D02*
X15730000Y-6487500D01*
X15692500Y-6450000D02*
X15767500Y-6450000D01*
X15555356Y-5831356D02*
X15555356Y-5760644D01*
X15484644Y-5760644D01*
X15484644Y-5831356D01*
X15555356Y-5831356D01*
X15555356Y-6085356D02*
X15555356Y-6014644D01*
X15484644Y-6014644D01*
X15484644Y-6085356D01*
X15555356Y-6085356D01*
X13135356Y-5955356D02*
X13135356Y-5884644D01*
X13064644Y-5884644D01*
X13064644Y-5955356D01*
X13135356Y-5955356D01*
X13389356Y-5955356D02*
X13389356Y-5884644D01*
X13318644Y-5884644D01*
X13318644Y-5955356D01*
X13389356Y-5955356D01*
X13643356Y-5955356D02*
X13643356Y-5884644D01*
X13572644Y-5884644D01*
X13572644Y-5955356D01*
X13643356Y-5955356D01*
D12*
X11883928Y-9468214D02*
X11883928Y-9168214D01*
X11955357Y-9168214D01*
X11998214Y-9182500D01*
X12026786Y-9211072D01*
X12041071Y-9239643D01*
X12055357Y-9296786D01*
X12055357Y-9339643D01*
X12041071Y-9396786D01*
X12026786Y-9425357D01*
X11998214Y-9453929D01*
X11955357Y-9468214D01*
X11883928Y-9468214D01*
X12183928Y-9468214D02*
X12183928Y-9268214D01*
X12183928Y-9325357D02*
X12198214Y-9296786D01*
X12212500Y-9282500D01*
X12241071Y-9268214D01*
X12269643Y-9268214D01*
X12369643Y-9468214D02*
X12369643Y-9268214D01*
X12369643Y-9168214D02*
X12355357Y-9182500D01*
X12369643Y-9196786D01*
X12383928Y-9182500D01*
X12369643Y-9168214D01*
X12369643Y-9196786D01*
X12555357Y-9468214D02*
X12526786Y-9453929D01*
X12512500Y-9425357D01*
X12512500Y-9168214D01*
X12712500Y-9468214D02*
X12683928Y-9453929D01*
X12669643Y-9425357D01*
X12669643Y-9168214D01*
X13055357Y-9468214D02*
X13055357Y-9168214D01*
X13155357Y-9382500D01*
X13255357Y-9168214D01*
X13255357Y-9468214D01*
X13526786Y-9468214D02*
X13526786Y-9311072D01*
X13512500Y-9282500D01*
X13483928Y-9268214D01*
X13426786Y-9268214D01*
X13398214Y-9282500D01*
X13526786Y-9453929D02*
X13498214Y-9468214D01*
X13426786Y-9468214D01*
X13398214Y-9453929D01*
X13383928Y-9425357D01*
X13383928Y-9396786D01*
X13398214Y-9368214D01*
X13426786Y-9353929D01*
X13498214Y-9353929D01*
X13526786Y-9339643D01*
X13669643Y-9268214D02*
X13669643Y-9568214D01*
X13669643Y-9282500D02*
X13698214Y-9268214D01*
X13755357Y-9268214D01*
X13783928Y-9282500D01*
X13798214Y-9296786D01*
X13812500Y-9325357D01*
X13812500Y-9411072D01*
X13798214Y-9439643D01*
X13783928Y-9453929D01*
X13755357Y-9468214D01*
X13698214Y-9468214D01*
X13669643Y-9453929D01*
X13941071Y-9439643D02*
X13955357Y-9453929D01*
X13941071Y-9468214D01*
X13926786Y-9453929D01*
X13941071Y-9439643D01*
X13941071Y-9468214D01*
X13941071Y-9282500D02*
X13955357Y-9296786D01*
X13941071Y-9311072D01*
X13926786Y-9296786D01*
X13941071Y-9282500D01*
X13941071Y-9311072D01*
X11557500Y-9942500D02*
X11597500Y-9982500D01*
X11597500Y-9942500D02*
X11557500Y-9982500D01*
X11941071Y-9798214D02*
X11969643Y-9798214D01*
X11998214Y-9812500D01*
X12012500Y-9826786D01*
X12026786Y-9855357D01*
X12041071Y-9912500D01*
X12041071Y-9983929D01*
X12026786Y-10041072D01*
X12012500Y-10069643D01*
X11998214Y-10083929D01*
X11969643Y-10098214D01*
X11941071Y-10098214D01*
X11912500Y-10083929D01*
X11898214Y-10069643D01*
X11883928Y-10041072D01*
X11869643Y-9983929D01*
X11869643Y-9912500D01*
X11883928Y-9855357D01*
X11898214Y-9826786D01*
X11912500Y-9812500D01*
X11941071Y-9798214D01*
X12169643Y-10069643D02*
X12183928Y-10083929D01*
X12169643Y-10098214D01*
X12155357Y-10083929D01*
X12169643Y-10069643D01*
X12169643Y-10098214D01*
X12441071Y-9898214D02*
X12441071Y-10098214D01*
X12369643Y-9783929D02*
X12298214Y-9998214D01*
X12483928Y-9998214D01*
X12655357Y-9798214D02*
X12683928Y-9798214D01*
X12712500Y-9812500D01*
X12726786Y-9826786D01*
X12741071Y-9855357D01*
X12755357Y-9912500D01*
X12755357Y-9983929D01*
X12741071Y-10041072D01*
X12726786Y-10069643D01*
X12712500Y-10083929D01*
X12683928Y-10098214D01*
X12655357Y-10098214D01*
X12626786Y-10083929D01*
X12612500Y-10069643D01*
X12598214Y-10041072D01*
X12583928Y-9983929D01*
X12583928Y-9912500D01*
X12598214Y-9855357D01*
X12612500Y-9826786D01*
X12626786Y-9812500D01*
X12655357Y-9798214D01*
X12883928Y-10098214D02*
X12883928Y-9898214D01*
X12883928Y-9926786D02*
X12898214Y-9912500D01*
X12926786Y-9898214D01*
X12969643Y-9898214D01*
X12998214Y-9912500D01*
X13012500Y-9941072D01*
X13012500Y-10098214D01*
X13012500Y-9941072D02*
X13026786Y-9912500D01*
X13055357Y-9898214D01*
X13098214Y-9898214D01*
X13126786Y-9912500D01*
X13141071Y-9941072D01*
X13141071Y-10098214D01*
X13283928Y-10098214D02*
X13283928Y-9898214D01*
X13283928Y-9926786D02*
X13298214Y-9912500D01*
X13326786Y-9898214D01*
X13369643Y-9898214D01*
X13398214Y-9912500D01*
X13412500Y-9941072D01*
X13412500Y-10098214D01*
X13412500Y-9941072D02*
X13426786Y-9912500D01*
X13455357Y-9898214D01*
X13498214Y-9898214D01*
X13526786Y-9912500D01*
X13541071Y-9941072D01*
X13541071Y-10098214D01*
X14126786Y-9783929D02*
X13869643Y-10169643D01*
X14512500Y-9798214D02*
X14541071Y-9798214D01*
X14569643Y-9812500D01*
X14583928Y-9826786D01*
X14598214Y-9855357D01*
X14612500Y-9912500D01*
X14612500Y-9983929D01*
X14598214Y-10041072D01*
X14583928Y-10069643D01*
X14569643Y-10083929D01*
X14541071Y-10098214D01*
X14512500Y-10098214D01*
X14483928Y-10083929D01*
X14469643Y-10069643D01*
X14455357Y-10041072D01*
X14441071Y-9983929D01*
X14441071Y-9912500D01*
X14455357Y-9855357D01*
X14469643Y-9826786D01*
X14483928Y-9812500D01*
X14512500Y-9798214D01*
X14741071Y-10069643D02*
X14755357Y-10083929D01*
X14741071Y-10098214D01*
X14726786Y-10083929D01*
X14741071Y-10069643D01*
X14741071Y-10098214D01*
X14941071Y-9798214D02*
X14969643Y-9798214D01*
X14998214Y-9812500D01*
X15012500Y-9826786D01*
X15026786Y-9855357D01*
X15041071Y-9912500D01*
X15041071Y-9983929D01*
X15026786Y-10041072D01*
X15012500Y-10069643D01*
X14998214Y-10083929D01*
X14969643Y-10098214D01*
X14941071Y-10098214D01*
X14912500Y-10083929D01*
X14898214Y-10069643D01*
X14883928Y-10041072D01*
X14869643Y-9983929D01*
X14869643Y-9912500D01*
X14883928Y-9855357D01*
X14898214Y-9826786D01*
X14912500Y-9812500D01*
X14941071Y-9798214D01*
X15326786Y-10098214D02*
X15155357Y-10098214D01*
X15241071Y-10098214D02*
X15241071Y-9798214D01*
X15212500Y-9841072D01*
X15183928Y-9869643D01*
X15155357Y-9883929D01*
X15583928Y-9798214D02*
X15526786Y-9798214D01*
X15498214Y-9812500D01*
X15483928Y-9826786D01*
X15455357Y-9869643D01*
X15441071Y-9926786D01*
X15441071Y-10041072D01*
X15455357Y-10069643D01*
X15469643Y-10083929D01*
X15498214Y-10098214D01*
X15555357Y-10098214D01*
X15583928Y-10083929D01*
X15598214Y-10069643D01*
X15612500Y-10041072D01*
X15612500Y-9969643D01*
X15598214Y-9941072D01*
X15583928Y-9926786D01*
X15555357Y-9912500D01*
X15498214Y-9912500D01*
X15469643Y-9926786D01*
X15455357Y-9941072D01*
X15441071Y-9969643D01*
X15726786Y-9798214D02*
X15726786Y-9855357D01*
X15841071Y-9798214D02*
X15841071Y-9855357D01*
X16283928Y-10212500D02*
X16269643Y-10198214D01*
X16241071Y-10155357D01*
X16226786Y-10126786D01*
X16212500Y-10083929D01*
X16198214Y-10012500D01*
X16198214Y-9955357D01*
X16212500Y-9883929D01*
X16226786Y-9841072D01*
X16241071Y-9812500D01*
X16269643Y-9769643D01*
X16283928Y-9755357D01*
X16383928Y-9826786D02*
X16398214Y-9812500D01*
X16426786Y-9798214D01*
X16498214Y-9798214D01*
X16526786Y-9812500D01*
X16541071Y-9826786D01*
X16555357Y-9855357D01*
X16555357Y-9883929D01*
X16541071Y-9926786D01*
X16369643Y-10098214D01*
X16555357Y-10098214D01*
X16655357Y-9798214D02*
X16841071Y-9798214D01*
X16741071Y-9912500D01*
X16783928Y-9912500D01*
X16812500Y-9926786D01*
X16826786Y-9941072D01*
X16841071Y-9969643D01*
X16841071Y-10041072D01*
X16826786Y-10069643D01*
X16812500Y-10083929D01*
X16783928Y-10098214D01*
X16698214Y-10098214D01*
X16669643Y-10083929D01*
X16655357Y-10069643D01*
X17198214Y-10098214D02*
X17198214Y-9798214D01*
X17326786Y-10098214D02*
X17326786Y-9941072D01*
X17312500Y-9912500D01*
X17283928Y-9898214D01*
X17241071Y-9898214D01*
X17212500Y-9912500D01*
X17198214Y-9926786D01*
X17512500Y-10098214D02*
X17483928Y-10083929D01*
X17469643Y-10069643D01*
X17455357Y-10041072D01*
X17455357Y-9955357D01*
X17469643Y-9926786D01*
X17483928Y-9912500D01*
X17512500Y-9898214D01*
X17555357Y-9898214D01*
X17583928Y-9912500D01*
X17598214Y-9926786D01*
X17612500Y-9955357D01*
X17612500Y-10041072D01*
X17598214Y-10069643D01*
X17583928Y-10083929D01*
X17555357Y-10098214D01*
X17512500Y-10098214D01*
X17783928Y-10098214D02*
X17755357Y-10083929D01*
X17741071Y-10055357D01*
X17741071Y-9798214D01*
X18012500Y-10083929D02*
X17983928Y-10098214D01*
X17926786Y-10098214D01*
X17898214Y-10083929D01*
X17883928Y-10055357D01*
X17883928Y-9941072D01*
X17898214Y-9912500D01*
X17926786Y-9898214D01*
X17983928Y-9898214D01*
X18012500Y-9912500D01*
X18026786Y-9941072D01*
X18026786Y-9969643D01*
X17883928Y-9998214D01*
X18141071Y-10083929D02*
X18169643Y-10098214D01*
X18226786Y-10098214D01*
X18255357Y-10083929D01*
X18269643Y-10055357D01*
X18269643Y-10041072D01*
X18255357Y-10012500D01*
X18226786Y-9998214D01*
X18183928Y-9998214D01*
X18155357Y-9983929D01*
X18141071Y-9955357D01*
X18141071Y-9941072D01*
X18155357Y-9912500D01*
X18183928Y-9898214D01*
X18226786Y-9898214D01*
X18255357Y-9912500D01*
X18369643Y-10212500D02*
X18383928Y-10198214D01*
X18412500Y-10155357D01*
X18426786Y-10126786D01*
X18441071Y-10083929D01*
X18455357Y-10012500D01*
X18455357Y-9955357D01*
X18441071Y-9883929D01*
X18426786Y-9841072D01*
X18412500Y-9812500D01*
X18383928Y-9769643D01*
X18369643Y-9755357D01*
X11597500Y-10358500D02*
G75*
G03X11597500Y-10358500I-35000J0D01*
G01*
X11941071Y-10194214D02*
X11969643Y-10194214D01*
X11998214Y-10208500D01*
X12012500Y-10222786D01*
X12026786Y-10251357D01*
X12041071Y-10308500D01*
X12041071Y-10379929D01*
X12026786Y-10437072D01*
X12012500Y-10465643D01*
X11998214Y-10479929D01*
X11969643Y-10494214D01*
X11941071Y-10494214D01*
X11912500Y-10479929D01*
X11898214Y-10465643D01*
X11883928Y-10437072D01*
X11869643Y-10379929D01*
X11869643Y-10308500D01*
X11883928Y-10251357D01*
X11898214Y-10222786D01*
X11912500Y-10208500D01*
X11941071Y-10194214D01*
X12169643Y-10465643D02*
X12183928Y-10479929D01*
X12169643Y-10494214D01*
X12155357Y-10479929D01*
X12169643Y-10465643D01*
X12169643Y-10494214D01*
X12283928Y-10194214D02*
X12483928Y-10194214D01*
X12355357Y-10494214D01*
X12655357Y-10194214D02*
X12683928Y-10194214D01*
X12712500Y-10208500D01*
X12726786Y-10222786D01*
X12741071Y-10251357D01*
X12755357Y-10308500D01*
X12755357Y-10379929D01*
X12741071Y-10437072D01*
X12726786Y-10465643D01*
X12712500Y-10479929D01*
X12683928Y-10494214D01*
X12655357Y-10494214D01*
X12626786Y-10479929D01*
X12612500Y-10465643D01*
X12598214Y-10437072D01*
X12583928Y-10379929D01*
X12583928Y-10308500D01*
X12598214Y-10251357D01*
X12612500Y-10222786D01*
X12626786Y-10208500D01*
X12655357Y-10194214D01*
X12883928Y-10494214D02*
X12883928Y-10294214D01*
X12883928Y-10322786D02*
X12898214Y-10308500D01*
X12926786Y-10294214D01*
X12969643Y-10294214D01*
X12998214Y-10308500D01*
X13012500Y-10337072D01*
X13012500Y-10494214D01*
X13012500Y-10337072D02*
X13026786Y-10308500D01*
X13055357Y-10294214D01*
X13098214Y-10294214D01*
X13126786Y-10308500D01*
X13141071Y-10337072D01*
X13141071Y-10494214D01*
X13283928Y-10494214D02*
X13283928Y-10294214D01*
X13283928Y-10322786D02*
X13298214Y-10308500D01*
X13326786Y-10294214D01*
X13369643Y-10294214D01*
X13398214Y-10308500D01*
X13412500Y-10337072D01*
X13412500Y-10494214D01*
X13412500Y-10337072D02*
X13426786Y-10308500D01*
X13455357Y-10294214D01*
X13498214Y-10294214D01*
X13526786Y-10308500D01*
X13541071Y-10337072D01*
X13541071Y-10494214D01*
X14126786Y-10179929D02*
X13869643Y-10565643D01*
X14512500Y-10194214D02*
X14541071Y-10194214D01*
X14569643Y-10208500D01*
X14583928Y-10222786D01*
X14598214Y-10251357D01*
X14612500Y-10308500D01*
X14612500Y-10379929D01*
X14598214Y-10437072D01*
X14583928Y-10465643D01*
X14569643Y-10479929D01*
X14541071Y-10494214D01*
X14512500Y-10494214D01*
X14483928Y-10479929D01*
X14469643Y-10465643D01*
X14455357Y-10437072D01*
X14441071Y-10379929D01*
X14441071Y-10308500D01*
X14455357Y-10251357D01*
X14469643Y-10222786D01*
X14483928Y-10208500D01*
X14512500Y-10194214D01*
X14741071Y-10465643D02*
X14755357Y-10479929D01*
X14741071Y-10494214D01*
X14726786Y-10479929D01*
X14741071Y-10465643D01*
X14741071Y-10494214D01*
X14941071Y-10194214D02*
X14969643Y-10194214D01*
X14998214Y-10208500D01*
X15012500Y-10222786D01*
X15026786Y-10251357D01*
X15041071Y-10308500D01*
X15041071Y-10379929D01*
X15026786Y-10437072D01*
X15012500Y-10465643D01*
X14998214Y-10479929D01*
X14969643Y-10494214D01*
X14941071Y-10494214D01*
X14912500Y-10479929D01*
X14898214Y-10465643D01*
X14883928Y-10437072D01*
X14869643Y-10379929D01*
X14869643Y-10308500D01*
X14883928Y-10251357D01*
X14898214Y-10222786D01*
X14912500Y-10208500D01*
X14941071Y-10194214D01*
X15155357Y-10222786D02*
X15169643Y-10208500D01*
X15198214Y-10194214D01*
X15269643Y-10194214D01*
X15298214Y-10208500D01*
X15312500Y-10222786D01*
X15326786Y-10251357D01*
X15326786Y-10279929D01*
X15312500Y-10322786D01*
X15141071Y-10494214D01*
X15326786Y-10494214D01*
X15498214Y-10322786D02*
X15469643Y-10308500D01*
X15455357Y-10294214D01*
X15441071Y-10265643D01*
X15441071Y-10251357D01*
X15455357Y-10222786D01*
X15469643Y-10208500D01*
X15498214Y-10194214D01*
X15555357Y-10194214D01*
X15583928Y-10208500D01*
X15598214Y-10222786D01*
X15612500Y-10251357D01*
X15612500Y-10265643D01*
X15598214Y-10294214D01*
X15583928Y-10308500D01*
X15555357Y-10322786D01*
X15498214Y-10322786D01*
X15469643Y-10337072D01*
X15455357Y-10351357D01*
X15441071Y-10379929D01*
X15441071Y-10437072D01*
X15455357Y-10465643D01*
X15469643Y-10479929D01*
X15498214Y-10494214D01*
X15555357Y-10494214D01*
X15583928Y-10479929D01*
X15598214Y-10465643D01*
X15612500Y-10437072D01*
X15612500Y-10379929D01*
X15598214Y-10351357D01*
X15583928Y-10337072D01*
X15555357Y-10322786D01*
X15726786Y-10194214D02*
X15726786Y-10251357D01*
X15841071Y-10194214D02*
X15841071Y-10251357D01*
X16283928Y-10608500D02*
X16269643Y-10594214D01*
X16241071Y-10551357D01*
X16226786Y-10522786D01*
X16212500Y-10479929D01*
X16198214Y-10408500D01*
X16198214Y-10351357D01*
X16212500Y-10279929D01*
X16226786Y-10237072D01*
X16241071Y-10208500D01*
X16269643Y-10165643D01*
X16283928Y-10151357D01*
X16455357Y-10194214D02*
X16483928Y-10194214D01*
X16512500Y-10208500D01*
X16526786Y-10222786D01*
X16541071Y-10251357D01*
X16555357Y-10308500D01*
X16555357Y-10379929D01*
X16541071Y-10437072D01*
X16526786Y-10465643D01*
X16512500Y-10479929D01*
X16483928Y-10494214D01*
X16455357Y-10494214D01*
X16426786Y-10479929D01*
X16412500Y-10465643D01*
X16398214Y-10437072D01*
X16383928Y-10379929D01*
X16383928Y-10308500D01*
X16398214Y-10251357D01*
X16412500Y-10222786D01*
X16426786Y-10208500D01*
X16455357Y-10194214D01*
X16912500Y-10494214D02*
X16912500Y-10194214D01*
X17041071Y-10494214D02*
X17041071Y-10337072D01*
X17026786Y-10308500D01*
X16998214Y-10294214D01*
X16955357Y-10294214D01*
X16926786Y-10308500D01*
X16912500Y-10322786D01*
X17226786Y-10494214D02*
X17198214Y-10479929D01*
X17183928Y-10465643D01*
X17169643Y-10437072D01*
X17169643Y-10351357D01*
X17183928Y-10322786D01*
X17198214Y-10308500D01*
X17226786Y-10294214D01*
X17269643Y-10294214D01*
X17298214Y-10308500D01*
X17312500Y-10322786D01*
X17326786Y-10351357D01*
X17326786Y-10437072D01*
X17312500Y-10465643D01*
X17298214Y-10479929D01*
X17269643Y-10494214D01*
X17226786Y-10494214D01*
X17498214Y-10494214D02*
X17469643Y-10479929D01*
X17455357Y-10451357D01*
X17455357Y-10194214D01*
X17726786Y-10479929D02*
X17698214Y-10494214D01*
X17641071Y-10494214D01*
X17612500Y-10479929D01*
X17598214Y-10451357D01*
X17598214Y-10337072D01*
X17612500Y-10308500D01*
X17641071Y-10294214D01*
X17698214Y-10294214D01*
X17726786Y-10308500D01*
X17741071Y-10337072D01*
X17741071Y-10365643D01*
X17598214Y-10394214D01*
X17855357Y-10479929D02*
X17883928Y-10494214D01*
X17941071Y-10494214D01*
X17969643Y-10479929D01*
X17983928Y-10451357D01*
X17983928Y-10437072D01*
X17969643Y-10408500D01*
X17941071Y-10394214D01*
X17898214Y-10394214D01*
X17869643Y-10379929D01*
X17855357Y-10351357D01*
X17855357Y-10337072D01*
X17869643Y-10308500D01*
X17898214Y-10294214D01*
X17941071Y-10294214D01*
X17969643Y-10308500D01*
X18341071Y-10379929D02*
X18569643Y-10379929D01*
X18455357Y-10494214D02*
X18455357Y-10265643D01*
X19069643Y-10294214D02*
X19069643Y-10494214D01*
X18998214Y-10179929D02*
X18926786Y-10394214D01*
X19112500Y-10394214D01*
X19441071Y-10479929D02*
X19469643Y-10494214D01*
X19526786Y-10494214D01*
X19555357Y-10479929D01*
X19569643Y-10451357D01*
X19569643Y-10437072D01*
X19555357Y-10408500D01*
X19526786Y-10394214D01*
X19483928Y-10394214D01*
X19455357Y-10379929D01*
X19441071Y-10351357D01*
X19441071Y-10337072D01*
X19455357Y-10308500D01*
X19483928Y-10294214D01*
X19526786Y-10294214D01*
X19555357Y-10308500D01*
X19741071Y-10494214D02*
X19712500Y-10479929D01*
X19698214Y-10451357D01*
X19698214Y-10194214D01*
X19898214Y-10494214D02*
X19869643Y-10479929D01*
X19855357Y-10465643D01*
X19841071Y-10437072D01*
X19841071Y-10351357D01*
X19855357Y-10322786D01*
X19869643Y-10308500D01*
X19898214Y-10294214D01*
X19941071Y-10294214D01*
X19969643Y-10308500D01*
X19983928Y-10322786D01*
X19998214Y-10351357D01*
X19998214Y-10437072D01*
X19983928Y-10465643D01*
X19969643Y-10479929D01*
X19941071Y-10494214D01*
X19898214Y-10494214D01*
X20083928Y-10294214D02*
X20198214Y-10294214D01*
X20126786Y-10194214D02*
X20126786Y-10451357D01*
X20141071Y-10479929D01*
X20169643Y-10494214D01*
X20198214Y-10494214D01*
X20283928Y-10479929D02*
X20312500Y-10494214D01*
X20369643Y-10494214D01*
X20398214Y-10479929D01*
X20412500Y-10451357D01*
X20412500Y-10437072D01*
X20398214Y-10408500D01*
X20369643Y-10394214D01*
X20326786Y-10394214D01*
X20298214Y-10379929D01*
X20283928Y-10351357D01*
X20283928Y-10337072D01*
X20298214Y-10308500D01*
X20326786Y-10294214D01*
X20369643Y-10294214D01*
X20398214Y-10308500D01*
X20512500Y-10608500D02*
X20526786Y-10594214D01*
X20555357Y-10551357D01*
X20569643Y-10522786D01*
X20583928Y-10479929D01*
X20598214Y-10408500D01*
X20598214Y-10351357D01*
X20583928Y-10279929D01*
X20569643Y-10237072D01*
X20555357Y-10208500D01*
X20526786Y-10165643D01*
X20512500Y-10151357D01*
X11560000Y-10717000D02*
X11560000Y-10792000D01*
X11522500Y-10754500D02*
X11597500Y-10754500D01*
X11941071Y-10590214D02*
X11969643Y-10590214D01*
X11998214Y-10604500D01*
X12012500Y-10618786D01*
X12026786Y-10647357D01*
X12041071Y-10704500D01*
X12041071Y-10775929D01*
X12026786Y-10833072D01*
X12012500Y-10861643D01*
X11998214Y-10875929D01*
X11969643Y-10890214D01*
X11941071Y-10890214D01*
X11912500Y-10875929D01*
X11898214Y-10861643D01*
X11883928Y-10833072D01*
X11869643Y-10775929D01*
X11869643Y-10704500D01*
X11883928Y-10647357D01*
X11898214Y-10618786D01*
X11912500Y-10604500D01*
X11941071Y-10590214D01*
X12169643Y-10861643D02*
X12183928Y-10875929D01*
X12169643Y-10890214D01*
X12155357Y-10875929D01*
X12169643Y-10861643D01*
X12169643Y-10890214D01*
X12283928Y-10590214D02*
X12483928Y-10590214D01*
X12355357Y-10890214D01*
X12741071Y-10590214D02*
X12598214Y-10590214D01*
X12583928Y-10733072D01*
X12598214Y-10718786D01*
X12626786Y-10704500D01*
X12698214Y-10704500D01*
X12726786Y-10718786D01*
X12741071Y-10733072D01*
X12755357Y-10761643D01*
X12755357Y-10833072D01*
X12741071Y-10861643D01*
X12726786Y-10875929D01*
X12698214Y-10890214D01*
X12626786Y-10890214D01*
X12598214Y-10875929D01*
X12583928Y-10861643D01*
X12883928Y-10890214D02*
X12883928Y-10690214D01*
X12883928Y-10718786D02*
X12898214Y-10704500D01*
X12926786Y-10690214D01*
X12969643Y-10690214D01*
X12998214Y-10704500D01*
X13012500Y-10733072D01*
X13012500Y-10890214D01*
X13012500Y-10733072D02*
X13026786Y-10704500D01*
X13055357Y-10690214D01*
X13098214Y-10690214D01*
X13126786Y-10704500D01*
X13141071Y-10733072D01*
X13141071Y-10890214D01*
X13283928Y-10890214D02*
X13283928Y-10690214D01*
X13283928Y-10718786D02*
X13298214Y-10704500D01*
X13326786Y-10690214D01*
X13369643Y-10690214D01*
X13398214Y-10704500D01*
X13412500Y-10733072D01*
X13412500Y-10890214D01*
X13412500Y-10733072D02*
X13426786Y-10704500D01*
X13455357Y-10690214D01*
X13498214Y-10690214D01*
X13526786Y-10704500D01*
X13541071Y-10733072D01*
X13541071Y-10890214D01*
X14126786Y-10575929D02*
X13869643Y-10961643D01*
X14512500Y-10590214D02*
X14541071Y-10590214D01*
X14569643Y-10604500D01*
X14583928Y-10618786D01*
X14598214Y-10647357D01*
X14612500Y-10704500D01*
X14612500Y-10775929D01*
X14598214Y-10833072D01*
X14583928Y-10861643D01*
X14569643Y-10875929D01*
X14541071Y-10890214D01*
X14512500Y-10890214D01*
X14483928Y-10875929D01*
X14469643Y-10861643D01*
X14455357Y-10833072D01*
X14441071Y-10775929D01*
X14441071Y-10704500D01*
X14455357Y-10647357D01*
X14469643Y-10618786D01*
X14483928Y-10604500D01*
X14512500Y-10590214D01*
X14741071Y-10861643D02*
X14755357Y-10875929D01*
X14741071Y-10890214D01*
X14726786Y-10875929D01*
X14741071Y-10861643D01*
X14741071Y-10890214D01*
X14941071Y-10590214D02*
X14969643Y-10590214D01*
X14998214Y-10604500D01*
X15012500Y-10618786D01*
X15026786Y-10647357D01*
X15041071Y-10704500D01*
X15041071Y-10775929D01*
X15026786Y-10833072D01*
X15012500Y-10861643D01*
X14998214Y-10875929D01*
X14969643Y-10890214D01*
X14941071Y-10890214D01*
X14912500Y-10875929D01*
X14898214Y-10861643D01*
X14883928Y-10833072D01*
X14869643Y-10775929D01*
X14869643Y-10704500D01*
X14883928Y-10647357D01*
X14898214Y-10618786D01*
X14912500Y-10604500D01*
X14941071Y-10590214D01*
X15141071Y-10590214D02*
X15326786Y-10590214D01*
X15226786Y-10704500D01*
X15269643Y-10704500D01*
X15298214Y-10718786D01*
X15312500Y-10733072D01*
X15326786Y-10761643D01*
X15326786Y-10833072D01*
X15312500Y-10861643D01*
X15298214Y-10875929D01*
X15269643Y-10890214D01*
X15183928Y-10890214D01*
X15155357Y-10875929D01*
X15141071Y-10861643D01*
X15512500Y-10590214D02*
X15541071Y-10590214D01*
X15569643Y-10604500D01*
X15583928Y-10618786D01*
X15598214Y-10647357D01*
X15612500Y-10704500D01*
X15612500Y-10775929D01*
X15598214Y-10833072D01*
X15583928Y-10861643D01*
X15569643Y-10875929D01*
X15541071Y-10890214D01*
X15512500Y-10890214D01*
X15483928Y-10875929D01*
X15469643Y-10861643D01*
X15455357Y-10833072D01*
X15441071Y-10775929D01*
X15441071Y-10704500D01*
X15455357Y-10647357D01*
X15469643Y-10618786D01*
X15483928Y-10604500D01*
X15512500Y-10590214D01*
X15726786Y-10590214D02*
X15726786Y-10647357D01*
X15841071Y-10590214D02*
X15841071Y-10647357D01*
X16283928Y-11004500D02*
X16269643Y-10990214D01*
X16241071Y-10947357D01*
X16226786Y-10918786D01*
X16212500Y-10875929D01*
X16198214Y-10804500D01*
X16198214Y-10747357D01*
X16212500Y-10675929D01*
X16226786Y-10633072D01*
X16241071Y-10604500D01*
X16269643Y-10561643D01*
X16283928Y-10547357D01*
X16526786Y-10690214D02*
X16526786Y-10890214D01*
X16455357Y-10575929D02*
X16383928Y-10790214D01*
X16569643Y-10790214D01*
X16912500Y-10890214D02*
X16912500Y-10590214D01*
X17041071Y-10890214D02*
X17041071Y-10733072D01*
X17026786Y-10704500D01*
X16998214Y-10690214D01*
X16955357Y-10690214D01*
X16926786Y-10704500D01*
X16912500Y-10718786D01*
X17226786Y-10890214D02*
X17198214Y-10875929D01*
X17183928Y-10861643D01*
X17169643Y-10833072D01*
X17169643Y-10747357D01*
X17183928Y-10718786D01*
X17198214Y-10704500D01*
X17226786Y-10690214D01*
X17269643Y-10690214D01*
X17298214Y-10704500D01*
X17312500Y-10718786D01*
X17326786Y-10747357D01*
X17326786Y-10833072D01*
X17312500Y-10861643D01*
X17298214Y-10875929D01*
X17269643Y-10890214D01*
X17226786Y-10890214D01*
X17498214Y-10890214D02*
X17469643Y-10875929D01*
X17455357Y-10847357D01*
X17455357Y-10590214D01*
X17726786Y-10875929D02*
X17698214Y-10890214D01*
X17641071Y-10890214D01*
X17612500Y-10875929D01*
X17598214Y-10847357D01*
X17598214Y-10733072D01*
X17612500Y-10704500D01*
X17641071Y-10690214D01*
X17698214Y-10690214D01*
X17726786Y-10704500D01*
X17741071Y-10733072D01*
X17741071Y-10761643D01*
X17598214Y-10790214D01*
X17855357Y-10875929D02*
X17883928Y-10890214D01*
X17941071Y-10890214D01*
X17969643Y-10875929D01*
X17983928Y-10847357D01*
X17983928Y-10833072D01*
X17969643Y-10804500D01*
X17941071Y-10790214D01*
X17898214Y-10790214D01*
X17869643Y-10775929D01*
X17855357Y-10747357D01*
X17855357Y-10733072D01*
X17869643Y-10704500D01*
X17898214Y-10690214D01*
X17941071Y-10690214D01*
X17969643Y-10704500D01*
X18083928Y-11004500D02*
X18098214Y-10990214D01*
X18126786Y-10947357D01*
X18141071Y-10918786D01*
X18155357Y-10875929D01*
X18169643Y-10804500D01*
X18169643Y-10747357D01*
X18155357Y-10675929D01*
X18141071Y-10633072D01*
X18126786Y-10604500D01*
X18098214Y-10561643D01*
X18083928Y-10547357D01*
X11582856Y-11185856D02*
X11582856Y-11115144D01*
X11512144Y-11115144D01*
X11512144Y-11185856D01*
X11582856Y-11185856D01*
X12041071Y-11286214D02*
X11869643Y-11286214D01*
X11955357Y-11286214D02*
X11955357Y-10986214D01*
X11926786Y-11029072D01*
X11898214Y-11057643D01*
X11869643Y-11071929D01*
X12169643Y-11257643D02*
X12183928Y-11271929D01*
X12169643Y-11286214D01*
X12155357Y-11271929D01*
X12169643Y-11257643D01*
X12169643Y-11286214D01*
X12369643Y-10986214D02*
X12398214Y-10986214D01*
X12426786Y-11000500D01*
X12441071Y-11014786D01*
X12455357Y-11043357D01*
X12469643Y-11100500D01*
X12469643Y-11171929D01*
X12455357Y-11229071D01*
X12441071Y-11257643D01*
X12426786Y-11271929D01*
X12398214Y-11286214D01*
X12369643Y-11286214D01*
X12341071Y-11271929D01*
X12326786Y-11257643D01*
X12312500Y-11229071D01*
X12298214Y-11171929D01*
X12298214Y-11100500D01*
X12312500Y-11043357D01*
X12326786Y-11014786D01*
X12341071Y-11000500D01*
X12369643Y-10986214D01*
X12655357Y-10986214D02*
X12683928Y-10986214D01*
X12712500Y-11000500D01*
X12726786Y-11014786D01*
X12741071Y-11043357D01*
X12755357Y-11100500D01*
X12755357Y-11171929D01*
X12741071Y-11229071D01*
X12726786Y-11257643D01*
X12712500Y-11271929D01*
X12683928Y-11286214D01*
X12655357Y-11286214D01*
X12626786Y-11271929D01*
X12612500Y-11257643D01*
X12598214Y-11229071D01*
X12583928Y-11171929D01*
X12583928Y-11100500D01*
X12598214Y-11043357D01*
X12612500Y-11014786D01*
X12626786Y-11000500D01*
X12655357Y-10986214D01*
X12883928Y-11286214D02*
X12883928Y-11086214D01*
X12883928Y-11114786D02*
X12898214Y-11100500D01*
X12926786Y-11086214D01*
X12969643Y-11086214D01*
X12998214Y-11100500D01*
X13012500Y-11129072D01*
X13012500Y-11286214D01*
X13012500Y-11129072D02*
X13026786Y-11100500D01*
X13055357Y-11086214D01*
X13098214Y-11086214D01*
X13126786Y-11100500D01*
X13141071Y-11129072D01*
X13141071Y-11286214D01*
X13283928Y-11286214D02*
X13283928Y-11086214D01*
X13283928Y-11114786D02*
X13298214Y-11100500D01*
X13326786Y-11086214D01*
X13369643Y-11086214D01*
X13398214Y-11100500D01*
X13412500Y-11129072D01*
X13412500Y-11286214D01*
X13412500Y-11129072D02*
X13426786Y-11100500D01*
X13455357Y-11086214D01*
X13498214Y-11086214D01*
X13526786Y-11100500D01*
X13541071Y-11129072D01*
X13541071Y-11286214D01*
X14126786Y-10971929D02*
X13869643Y-11357643D01*
X14512500Y-10986214D02*
X14541071Y-10986214D01*
X14569643Y-11000500D01*
X14583928Y-11014786D01*
X14598214Y-11043357D01*
X14612500Y-11100500D01*
X14612500Y-11171929D01*
X14598214Y-11229071D01*
X14583928Y-11257643D01*
X14569643Y-11271929D01*
X14541071Y-11286214D01*
X14512500Y-11286214D01*
X14483928Y-11271929D01*
X14469643Y-11257643D01*
X14455357Y-11229071D01*
X14441071Y-11171929D01*
X14441071Y-11100500D01*
X14455357Y-11043357D01*
X14469643Y-11014786D01*
X14483928Y-11000500D01*
X14512500Y-10986214D01*
X14741071Y-11257643D02*
X14755357Y-11271929D01*
X14741071Y-11286214D01*
X14726786Y-11271929D01*
X14741071Y-11257643D01*
X14741071Y-11286214D01*
X14941071Y-10986214D02*
X14969643Y-10986214D01*
X14998214Y-11000500D01*
X15012500Y-11014786D01*
X15026786Y-11043357D01*
X15041071Y-11100500D01*
X15041071Y-11171929D01*
X15026786Y-11229071D01*
X15012500Y-11257643D01*
X14998214Y-11271929D01*
X14969643Y-11286214D01*
X14941071Y-11286214D01*
X14912500Y-11271929D01*
X14898214Y-11257643D01*
X14883928Y-11229071D01*
X14869643Y-11171929D01*
X14869643Y-11100500D01*
X14883928Y-11043357D01*
X14898214Y-11014786D01*
X14912500Y-11000500D01*
X14941071Y-10986214D01*
X15141071Y-10986214D02*
X15326786Y-10986214D01*
X15226786Y-11100500D01*
X15269643Y-11100500D01*
X15298214Y-11114786D01*
X15312500Y-11129072D01*
X15326786Y-11157643D01*
X15326786Y-11229071D01*
X15312500Y-11257643D01*
X15298214Y-11271929D01*
X15269643Y-11286214D01*
X15183928Y-11286214D01*
X15155357Y-11271929D01*
X15141071Y-11257643D01*
X15469643Y-11286214D02*
X15526786Y-11286214D01*
X15555357Y-11271929D01*
X15569643Y-11257643D01*
X15598214Y-11214786D01*
X15612500Y-11157643D01*
X15612500Y-11043357D01*
X15598214Y-11014786D01*
X15583928Y-11000500D01*
X15555357Y-10986214D01*
X15498214Y-10986214D01*
X15469643Y-11000500D01*
X15455357Y-11014786D01*
X15441071Y-11043357D01*
X15441071Y-11114786D01*
X15455357Y-11143357D01*
X15469643Y-11157643D01*
X15498214Y-11171929D01*
X15555357Y-11171929D01*
X15583928Y-11157643D01*
X15598214Y-11143357D01*
X15612500Y-11114786D01*
X15726786Y-10986214D02*
X15726786Y-11043357D01*
X15841071Y-10986214D02*
X15841071Y-11043357D01*
X16283928Y-11400500D02*
X16269643Y-11386214D01*
X16241071Y-11343357D01*
X16226786Y-11314786D01*
X16212500Y-11271929D01*
X16198214Y-11200500D01*
X16198214Y-11143357D01*
X16212500Y-11071929D01*
X16226786Y-11029072D01*
X16241071Y-11000500D01*
X16269643Y-10957643D01*
X16283928Y-10943357D01*
X16541071Y-10986214D02*
X16398214Y-10986214D01*
X16383928Y-11129072D01*
X16398214Y-11114786D01*
X16426786Y-11100500D01*
X16498214Y-11100500D01*
X16526786Y-11114786D01*
X16541071Y-11129072D01*
X16555357Y-11157643D01*
X16555357Y-11229071D01*
X16541071Y-11257643D01*
X16526786Y-11271929D01*
X16498214Y-11286214D01*
X16426786Y-11286214D01*
X16398214Y-11271929D01*
X16383928Y-11257643D01*
X16912500Y-11286214D02*
X16912500Y-10986214D01*
X17041071Y-11286214D02*
X17041071Y-11129072D01*
X17026786Y-11100500D01*
X16998214Y-11086214D01*
X16955357Y-11086214D01*
X16926786Y-11100500D01*
X16912500Y-11114786D01*
X17226786Y-11286214D02*
X17198214Y-11271929D01*
X17183928Y-11257643D01*
X17169643Y-11229071D01*
X17169643Y-11143357D01*
X17183928Y-11114786D01*
X17198214Y-11100500D01*
X17226786Y-11086214D01*
X17269643Y-11086214D01*
X17298214Y-11100500D01*
X17312500Y-11114786D01*
X17326786Y-11143357D01*
X17326786Y-11229071D01*
X17312500Y-11257643D01*
X17298214Y-11271929D01*
X17269643Y-11286214D01*
X17226786Y-11286214D01*
X17498214Y-11286214D02*
X17469643Y-11271929D01*
X17455357Y-11243357D01*
X17455357Y-10986214D01*
X17726786Y-11271929D02*
X17698214Y-11286214D01*
X17641071Y-11286214D01*
X17612500Y-11271929D01*
X17598214Y-11243357D01*
X17598214Y-11129072D01*
X17612500Y-11100500D01*
X17641071Y-11086214D01*
X17698214Y-11086214D01*
X17726786Y-11100500D01*
X17741071Y-11129072D01*
X17741071Y-11157643D01*
X17598214Y-11186214D01*
X17855357Y-11271929D02*
X17883928Y-11286214D01*
X17941071Y-11286214D01*
X17969643Y-11271929D01*
X17983928Y-11243357D01*
X17983928Y-11229071D01*
X17969643Y-11200500D01*
X17941071Y-11186214D01*
X17898214Y-11186214D01*
X17869643Y-11171929D01*
X17855357Y-11143357D01*
X17855357Y-11129072D01*
X17869643Y-11100500D01*
X17898214Y-11086214D01*
X17941071Y-11086214D01*
X17969643Y-11100500D01*
X18083928Y-11400500D02*
X18098214Y-11386214D01*
X18126786Y-11343357D01*
X18141071Y-11314786D01*
X18155357Y-11271929D01*
X18169643Y-11200500D01*
X18169643Y-11143357D01*
X18155357Y-11071929D01*
X18141071Y-11029072D01*
X18126786Y-11000500D01*
X18098214Y-10957643D01*
X18083928Y-10943357D01*
M02*
