%FSLAX45Y45*%
G04 Gerber Fmt 4.5, Leading zero omitted, Abs format (unit mm)*
G04 Created by KiCad (PCBNEW (5.1.5-0)) date 2022-05-19 14:53:56*
%MOMM*%
%LPD*%
G04 APERTURE LIST*
%TA.AperFunction,Profile*%
%ADD10C,0.050000*%
%TD*%
%ADD11C,0.200000*%
%ADD12C,0.300000*%
G04 APERTURE END LIST*
D10*
X11600000Y-9000000D02*
X11600000Y-5500000D01*
X16000000Y-9000000D02*
X11600000Y-9000000D01*
X16000000Y-5500000D02*
X16000000Y-9000000D01*
X11600000Y-5500000D02*
X16000000Y-5500000D01*
D11*
D12*
X11883928Y-9468214D02*
X11883928Y-9168214D01*
X11955357Y-9168214D01*
X11998214Y-9182500D01*
X12026786Y-9211072D01*
X12041071Y-9239643D01*
X12055357Y-9296786D01*
X12055357Y-9339643D01*
X12041071Y-9396786D01*
X12026786Y-9425357D01*
X11998214Y-9453929D01*
X11955357Y-9468214D01*
X11883928Y-9468214D01*
X12183928Y-9468214D02*
X12183928Y-9268214D01*
X12183928Y-9325357D02*
X12198214Y-9296786D01*
X12212500Y-9282500D01*
X12241071Y-9268214D01*
X12269643Y-9268214D01*
X12369643Y-9468214D02*
X12369643Y-9268214D01*
X12369643Y-9168214D02*
X12355357Y-9182500D01*
X12369643Y-9196786D01*
X12383928Y-9182500D01*
X12369643Y-9168214D01*
X12369643Y-9196786D01*
X12555357Y-9468214D02*
X12526786Y-9453929D01*
X12512500Y-9425357D01*
X12512500Y-9168214D01*
X12712500Y-9468214D02*
X12683928Y-9453929D01*
X12669643Y-9425357D01*
X12669643Y-9168214D01*
X13055357Y-9468214D02*
X13055357Y-9168214D01*
X13155357Y-9382500D01*
X13255357Y-9168214D01*
X13255357Y-9468214D01*
X13526786Y-9468214D02*
X13526786Y-9311072D01*
X13512500Y-9282500D01*
X13483928Y-9268214D01*
X13426786Y-9268214D01*
X13398214Y-9282500D01*
X13526786Y-9453929D02*
X13498214Y-9468214D01*
X13426786Y-9468214D01*
X13398214Y-9453929D01*
X13383928Y-9425357D01*
X13383928Y-9396786D01*
X13398214Y-9368214D01*
X13426786Y-9353929D01*
X13498214Y-9353929D01*
X13526786Y-9339643D01*
X13669643Y-9268214D02*
X13669643Y-9568214D01*
X13669643Y-9282500D02*
X13698214Y-9268214D01*
X13755357Y-9268214D01*
X13783928Y-9282500D01*
X13798214Y-9296786D01*
X13812500Y-9325357D01*
X13812500Y-9411072D01*
X13798214Y-9439643D01*
X13783928Y-9453929D01*
X13755357Y-9468214D01*
X13698214Y-9468214D01*
X13669643Y-9453929D01*
X13941071Y-9439643D02*
X13955357Y-9453929D01*
X13941071Y-9468214D01*
X13926786Y-9453929D01*
X13941071Y-9439643D01*
X13941071Y-9468214D01*
X13941071Y-9282500D02*
X13955357Y-9296786D01*
X13941071Y-9311072D01*
X13926786Y-9296786D01*
X13941071Y-9282500D01*
X13941071Y-9311072D01*
M02*
