M48
; DRILL file {KiCad (5.1.5-0)} date Thursday, May 19, 2022 at 02:53:55 PM
; FORMAT={-:-/ absolute / metric / decimal}
; #@! TF.CreationDate,2022-05-19T14:53:55-06:00
; #@! TF.GenerationSoftware,Kicad,Pcbnew,(5.1.5-0)
; #@! TF.FileFunction,Plated,1,2,PTH
FMAT,2
METRIC
T1C0.400
T2C0.700
T3C0.750
T4C1.000
%
G90
G05
T1
X138.0Y-71.4
X138.3Y-67.025
X138.3Y-75.5
X138.35Y-80.65
X138.4Y-79.3
X139.2Y-66.4
X139.9Y-72.8
X141.7Y-68.6
X141.7Y-71.5
X141.7Y-78.0
X141.7Y-79.3
X142.106Y-67.686
X143.98Y-74.68
X144.0Y-75.8
X144.6Y-68.4
X147.7Y-77.6
X147.9Y-82.2
X147.9Y-83.0
X147.9Y-83.8
X147.9Y-84.6
X147.9Y-87.3
X149.5Y-88.8
X152.7Y-83.6
T3
X123.0Y-70.7
X123.0Y-72.7
X155.3Y-64.5
X157.3Y-64.5
T4
X155.2Y-57.96
X155.2Y-60.5
X131.0Y-59.2
X133.54Y-59.2
X136.08Y-59.2
T2
X118.875Y-79.48G85X118.174Y-79.48
G05
X118.875Y-88.12G85X118.174Y-88.12
G05
X122.675Y-79.48G85X121.974Y-79.48
G05
X122.675Y-88.12G85X121.974Y-88.12
G05
T0
M30
