G04 #@! TF.GenerationSoftware,KiCad,Pcbnew,(5.1.5-0)*
G04 #@! TF.CreationDate,2021-08-17T13:30:23-06:00*
G04 #@! TF.ProjectId,HX711_710_711_720,48583731-315f-4373-9130-5f3731315f37,rev?*
G04 #@! TF.SameCoordinates,Original*
G04 #@! TF.FileFunction,Soldermask,Top*
G04 #@! TF.FilePolarity,Negative*
%FSLAX46Y46*%
G04 Gerber Fmt 4.6, Leading zero omitted, Abs format (unit mm)*
G04 Created by KiCad (PCBNEW (5.1.5-0)) date 2021-08-17 13:30:23*
%MOMM*%
%LPD*%
G04 APERTURE LIST*
%ADD10C,0.100000*%
G04 APERTURE END LIST*
D10*
G36*
X168588513Y-93508928D02*
G01*
X168737813Y-93538625D01*
X168901785Y-93606545D01*
X169049355Y-93705148D01*
X169174854Y-93830647D01*
X169273457Y-93978217D01*
X169341377Y-94142189D01*
X169376001Y-94316260D01*
X169376001Y-94493742D01*
X169341377Y-94667813D01*
X169273457Y-94831785D01*
X169174854Y-94979355D01*
X169049355Y-95104854D01*
X168901785Y-95203457D01*
X168737813Y-95271377D01*
X168588513Y-95301074D01*
X168563743Y-95306001D01*
X168386259Y-95306001D01*
X168361489Y-95301074D01*
X168212189Y-95271377D01*
X168048217Y-95203457D01*
X167900647Y-95104854D01*
X167775148Y-94979355D01*
X167676545Y-94831785D01*
X167608625Y-94667813D01*
X167574001Y-94493742D01*
X167574001Y-94316260D01*
X167608625Y-94142189D01*
X167676545Y-93978217D01*
X167775148Y-93830647D01*
X167900647Y-93705148D01*
X168048217Y-93606545D01*
X168212189Y-93538625D01*
X168361489Y-93508928D01*
X168386259Y-93504001D01*
X168563743Y-93504001D01*
X168588513Y-93508928D01*
G37*
G36*
X132514499Y-93278445D02*
G01*
X132551995Y-93289820D01*
X132586554Y-93308292D01*
X132616847Y-93333153D01*
X132641708Y-93363446D01*
X132660180Y-93398005D01*
X132671555Y-93435501D01*
X132676000Y-93480638D01*
X132676000Y-94119362D01*
X132671555Y-94164499D01*
X132660180Y-94201995D01*
X132641708Y-94236554D01*
X132616847Y-94266847D01*
X132586554Y-94291708D01*
X132551995Y-94310180D01*
X132514499Y-94321555D01*
X132469362Y-94326000D01*
X131730638Y-94326000D01*
X131685501Y-94321555D01*
X131648005Y-94310180D01*
X131613446Y-94291708D01*
X131583153Y-94266847D01*
X131558292Y-94236554D01*
X131539820Y-94201995D01*
X131528445Y-94164499D01*
X131524000Y-94119362D01*
X131524000Y-93480638D01*
X131528445Y-93435501D01*
X131539820Y-93398005D01*
X131558292Y-93363446D01*
X131583153Y-93333153D01*
X131613446Y-93308292D01*
X131648005Y-93289820D01*
X131685501Y-93278445D01*
X131730638Y-93274000D01*
X132469362Y-93274000D01*
X132514499Y-93278445D01*
G37*
G36*
X130764499Y-93278445D02*
G01*
X130801995Y-93289820D01*
X130836554Y-93308292D01*
X130866847Y-93333153D01*
X130891708Y-93363446D01*
X130910180Y-93398005D01*
X130921555Y-93435501D01*
X130926000Y-93480638D01*
X130926000Y-94119362D01*
X130921555Y-94164499D01*
X130910180Y-94201995D01*
X130891708Y-94236554D01*
X130866847Y-94266847D01*
X130836554Y-94291708D01*
X130801995Y-94310180D01*
X130764499Y-94321555D01*
X130719362Y-94326000D01*
X129980638Y-94326000D01*
X129935501Y-94321555D01*
X129898005Y-94310180D01*
X129863446Y-94291708D01*
X129833153Y-94266847D01*
X129808292Y-94236554D01*
X129789820Y-94201995D01*
X129778445Y-94164499D01*
X129774000Y-94119362D01*
X129774000Y-93480638D01*
X129778445Y-93435501D01*
X129789820Y-93398005D01*
X129808292Y-93363446D01*
X129833153Y-93333153D01*
X129863446Y-93308292D01*
X129898005Y-93289820D01*
X129935501Y-93278445D01*
X129980638Y-93274000D01*
X130719362Y-93274000D01*
X130764499Y-93278445D01*
G37*
G36*
X168588513Y-90968928D02*
G01*
X168737813Y-90998625D01*
X168901785Y-91066545D01*
X169049355Y-91165148D01*
X169174854Y-91290647D01*
X169273457Y-91438217D01*
X169341377Y-91602189D01*
X169376001Y-91776260D01*
X169376001Y-91953742D01*
X169341377Y-92127813D01*
X169273457Y-92291785D01*
X169174854Y-92439355D01*
X169049355Y-92564854D01*
X168901785Y-92663457D01*
X168737813Y-92731377D01*
X168588513Y-92761074D01*
X168563743Y-92766001D01*
X168386259Y-92766001D01*
X168361489Y-92761074D01*
X168212189Y-92731377D01*
X168048217Y-92663457D01*
X167900647Y-92564854D01*
X167775148Y-92439355D01*
X167676545Y-92291785D01*
X167608625Y-92127813D01*
X167574001Y-91953742D01*
X167574001Y-91776260D01*
X167608625Y-91602189D01*
X167676545Y-91438217D01*
X167775148Y-91290647D01*
X167900647Y-91165148D01*
X168048217Y-91066545D01*
X168212189Y-90998625D01*
X168361489Y-90968928D01*
X168386259Y-90964001D01*
X168563743Y-90964001D01*
X168588513Y-90968928D01*
G37*
G36*
X132701000Y-92401000D02*
G01*
X131699000Y-92401000D01*
X131699000Y-91499000D01*
X132701000Y-91499000D01*
X132701000Y-92401000D01*
G37*
G36*
X130701000Y-91451000D02*
G01*
X129699000Y-91451000D01*
X129699000Y-90549000D01*
X130701000Y-90549000D01*
X130701000Y-91451000D01*
G37*
G36*
X134709999Y-89699737D02*
G01*
X134719608Y-89702652D01*
X134728472Y-89707390D01*
X134736237Y-89713763D01*
X134746448Y-89726206D01*
X134753378Y-89736575D01*
X134770705Y-89753902D01*
X134791080Y-89767515D01*
X134813720Y-89776891D01*
X134837753Y-89781671D01*
X134862257Y-89781670D01*
X134886290Y-89776888D01*
X134908929Y-89767510D01*
X134929302Y-89753895D01*
X134946629Y-89736568D01*
X134953558Y-89726198D01*
X134963763Y-89713763D01*
X134971528Y-89707390D01*
X134980392Y-89702652D01*
X134990001Y-89699737D01*
X135006140Y-89698148D01*
X135493861Y-89698148D01*
X135512199Y-89699954D01*
X135524450Y-89700556D01*
X135542869Y-89700556D01*
X135565149Y-89702750D01*
X135649233Y-89719476D01*
X135670660Y-89725976D01*
X135749858Y-89758780D01*
X135755303Y-89761691D01*
X135755309Y-89761693D01*
X135764169Y-89766429D01*
X135764173Y-89766432D01*
X135769614Y-89769340D01*
X135840899Y-89816971D01*
X135858204Y-89831172D01*
X135918828Y-89891796D01*
X135933029Y-89909101D01*
X135980660Y-89980386D01*
X135983568Y-89985827D01*
X135983571Y-89985831D01*
X135988307Y-89994691D01*
X135988309Y-89994697D01*
X135991220Y-90000142D01*
X136024024Y-90079340D01*
X136030524Y-90100767D01*
X136047250Y-90184851D01*
X136049444Y-90207131D01*
X136049444Y-90225550D01*
X136050046Y-90237801D01*
X136051852Y-90256139D01*
X136051852Y-90743862D01*
X136050046Y-90762199D01*
X136049444Y-90774450D01*
X136049444Y-90792869D01*
X136047250Y-90815149D01*
X136030524Y-90899233D01*
X136024024Y-90920660D01*
X135991220Y-90999858D01*
X135988309Y-91005303D01*
X135988307Y-91005309D01*
X135983571Y-91014169D01*
X135983568Y-91014173D01*
X135980660Y-91019614D01*
X135933029Y-91090899D01*
X135918828Y-91108204D01*
X135858204Y-91168828D01*
X135840899Y-91183029D01*
X135769614Y-91230660D01*
X135764173Y-91233568D01*
X135764169Y-91233571D01*
X135755309Y-91238307D01*
X135755303Y-91238309D01*
X135749858Y-91241220D01*
X135670660Y-91274024D01*
X135649233Y-91280524D01*
X135565149Y-91297250D01*
X135542869Y-91299444D01*
X135524450Y-91299444D01*
X135512199Y-91300046D01*
X135493862Y-91301852D01*
X135006140Y-91301852D01*
X134990001Y-91300263D01*
X134980392Y-91297348D01*
X134971528Y-91292610D01*
X134963763Y-91286237D01*
X134953552Y-91273794D01*
X134946622Y-91263425D01*
X134929295Y-91246098D01*
X134908920Y-91232485D01*
X134886280Y-91223109D01*
X134862247Y-91218329D01*
X134837743Y-91218330D01*
X134813710Y-91223112D01*
X134791071Y-91232490D01*
X134770698Y-91246105D01*
X134753371Y-91263432D01*
X134746442Y-91273802D01*
X134736237Y-91286237D01*
X134728472Y-91292610D01*
X134719608Y-91297348D01*
X134709999Y-91300263D01*
X134693860Y-91301852D01*
X134206138Y-91301852D01*
X134187801Y-91300046D01*
X134175550Y-91299444D01*
X134157131Y-91299444D01*
X134134851Y-91297250D01*
X134050767Y-91280524D01*
X134029340Y-91274024D01*
X133950142Y-91241220D01*
X133944697Y-91238309D01*
X133944691Y-91238307D01*
X133935831Y-91233571D01*
X133935827Y-91233568D01*
X133930386Y-91230660D01*
X133859101Y-91183029D01*
X133841796Y-91168828D01*
X133781172Y-91108204D01*
X133766971Y-91090899D01*
X133719340Y-91019614D01*
X133716432Y-91014173D01*
X133716429Y-91014169D01*
X133711693Y-91005309D01*
X133711691Y-91005303D01*
X133708780Y-90999858D01*
X133675976Y-90920660D01*
X133669476Y-90899233D01*
X133652750Y-90815149D01*
X133650556Y-90792869D01*
X133650556Y-90774450D01*
X133649954Y-90762199D01*
X133648148Y-90743862D01*
X133648148Y-90256139D01*
X133649954Y-90237801D01*
X133650556Y-90225550D01*
X133650556Y-90207131D01*
X133652750Y-90184851D01*
X133669476Y-90100767D01*
X133675976Y-90079340D01*
X133708780Y-90000142D01*
X133711691Y-89994697D01*
X133711693Y-89994691D01*
X133716429Y-89985831D01*
X133716432Y-89985827D01*
X133719340Y-89980386D01*
X133766971Y-89909101D01*
X133781172Y-89891796D01*
X133841796Y-89831172D01*
X133859101Y-89816971D01*
X133930386Y-89769340D01*
X133935827Y-89766432D01*
X133935831Y-89766429D01*
X133944691Y-89761693D01*
X133944697Y-89761691D01*
X133950142Y-89758780D01*
X134029340Y-89725976D01*
X134050767Y-89719476D01*
X134134851Y-89702750D01*
X134157131Y-89700556D01*
X134175550Y-89700556D01*
X134187801Y-89699954D01*
X134206139Y-89698148D01*
X134693860Y-89698148D01*
X134709999Y-89699737D01*
G37*
G36*
X132701000Y-90501000D02*
G01*
X131699000Y-90501000D01*
X131699000Y-89599000D01*
X132701000Y-89599000D01*
X132701000Y-90501000D01*
G37*
G36*
X169376001Y-90226001D02*
G01*
X167574001Y-90226001D01*
X167574001Y-88424001D01*
X169376001Y-88424001D01*
X169376001Y-90226001D01*
G37*
G36*
X155464499Y-88503445D02*
G01*
X155501995Y-88514820D01*
X155536554Y-88533292D01*
X155566847Y-88558153D01*
X155591708Y-88588446D01*
X155610180Y-88623005D01*
X155621555Y-88660501D01*
X155626000Y-88705638D01*
X155626000Y-89444362D01*
X155621555Y-89489499D01*
X155610180Y-89526995D01*
X155591708Y-89561554D01*
X155566847Y-89591847D01*
X155536554Y-89616708D01*
X155501995Y-89635180D01*
X155464499Y-89646555D01*
X155419362Y-89651000D01*
X154780638Y-89651000D01*
X154735501Y-89646555D01*
X154698005Y-89635180D01*
X154663446Y-89616708D01*
X154633153Y-89591847D01*
X154608292Y-89561554D01*
X154589820Y-89526995D01*
X154578445Y-89489499D01*
X154574000Y-89444362D01*
X154574000Y-88705638D01*
X154578445Y-88660501D01*
X154589820Y-88623005D01*
X154608292Y-88588446D01*
X154633153Y-88558153D01*
X154663446Y-88533292D01*
X154698005Y-88514820D01*
X154735501Y-88503445D01*
X154780638Y-88499000D01*
X155419362Y-88499000D01*
X155464499Y-88503445D01*
G37*
G36*
X148014499Y-88578445D02*
G01*
X148051995Y-88589820D01*
X148086554Y-88608292D01*
X148116847Y-88633153D01*
X148141708Y-88663446D01*
X148160180Y-88698005D01*
X148171555Y-88735501D01*
X148176000Y-88780638D01*
X148176000Y-89419362D01*
X148171555Y-89464499D01*
X148160180Y-89501995D01*
X148141708Y-89536554D01*
X148116847Y-89566847D01*
X148086554Y-89591708D01*
X148051995Y-89610180D01*
X148014499Y-89621555D01*
X147969362Y-89626000D01*
X147230638Y-89626000D01*
X147185501Y-89621555D01*
X147148005Y-89610180D01*
X147113446Y-89591708D01*
X147083153Y-89566847D01*
X147058292Y-89536554D01*
X147039820Y-89501995D01*
X147028445Y-89464499D01*
X147024000Y-89419362D01*
X147024000Y-88780638D01*
X147028445Y-88735501D01*
X147039820Y-88698005D01*
X147058292Y-88663446D01*
X147083153Y-88633153D01*
X147113446Y-88608292D01*
X147148005Y-88589820D01*
X147185501Y-88578445D01*
X147230638Y-88574000D01*
X147969362Y-88574000D01*
X148014499Y-88578445D01*
G37*
G36*
X146264499Y-88578445D02*
G01*
X146301995Y-88589820D01*
X146336554Y-88608292D01*
X146366847Y-88633153D01*
X146391708Y-88663446D01*
X146410180Y-88698005D01*
X146421555Y-88735501D01*
X146426000Y-88780638D01*
X146426000Y-89419362D01*
X146421555Y-89464499D01*
X146410180Y-89501995D01*
X146391708Y-89536554D01*
X146366847Y-89566847D01*
X146336554Y-89591708D01*
X146301995Y-89610180D01*
X146264499Y-89621555D01*
X146219362Y-89626000D01*
X145480638Y-89626000D01*
X145435501Y-89621555D01*
X145398005Y-89610180D01*
X145363446Y-89591708D01*
X145333153Y-89566847D01*
X145308292Y-89536554D01*
X145289820Y-89501995D01*
X145278445Y-89464499D01*
X145274000Y-89419362D01*
X145274000Y-88780638D01*
X145278445Y-88735501D01*
X145289820Y-88698005D01*
X145308292Y-88663446D01*
X145333153Y-88633153D01*
X145363446Y-88608292D01*
X145398005Y-88589820D01*
X145435501Y-88578445D01*
X145480638Y-88574000D01*
X146219362Y-88574000D01*
X146264499Y-88578445D01*
G37*
G36*
X149964499Y-88403445D02*
G01*
X150001995Y-88414820D01*
X150036554Y-88433292D01*
X150066847Y-88458153D01*
X150091708Y-88488446D01*
X150110180Y-88523005D01*
X150121555Y-88560501D01*
X150126000Y-88605638D01*
X150126000Y-89344362D01*
X150121555Y-89389499D01*
X150110180Y-89426995D01*
X150091708Y-89461554D01*
X150066847Y-89491847D01*
X150036554Y-89516708D01*
X150001995Y-89535180D01*
X149964499Y-89546555D01*
X149919362Y-89551000D01*
X149280638Y-89551000D01*
X149235501Y-89546555D01*
X149198005Y-89535180D01*
X149163446Y-89516708D01*
X149133153Y-89491847D01*
X149108292Y-89461554D01*
X149089820Y-89426995D01*
X149078445Y-89389499D01*
X149074000Y-89344362D01*
X149074000Y-88605638D01*
X149078445Y-88560501D01*
X149089820Y-88523005D01*
X149108292Y-88488446D01*
X149133153Y-88458153D01*
X149163446Y-88433292D01*
X149198005Y-88414820D01*
X149235501Y-88403445D01*
X149280638Y-88399000D01*
X149919362Y-88399000D01*
X149964499Y-88403445D01*
G37*
G36*
X153714499Y-88478445D02*
G01*
X153751995Y-88489820D01*
X153786554Y-88508292D01*
X153816847Y-88533153D01*
X153841708Y-88563446D01*
X153860180Y-88598005D01*
X153871555Y-88635501D01*
X153876000Y-88680638D01*
X153876000Y-89319362D01*
X153871555Y-89364499D01*
X153860180Y-89401995D01*
X153841708Y-89436554D01*
X153816847Y-89466847D01*
X153786554Y-89491708D01*
X153751995Y-89510180D01*
X153714499Y-89521555D01*
X153669362Y-89526000D01*
X152930638Y-89526000D01*
X152885501Y-89521555D01*
X152848005Y-89510180D01*
X152813446Y-89491708D01*
X152783153Y-89466847D01*
X152758292Y-89436554D01*
X152739820Y-89401995D01*
X152728445Y-89364499D01*
X152724000Y-89319362D01*
X152724000Y-88680638D01*
X152728445Y-88635501D01*
X152739820Y-88598005D01*
X152758292Y-88563446D01*
X152783153Y-88533153D01*
X152813446Y-88508292D01*
X152848005Y-88489820D01*
X152885501Y-88478445D01*
X152930638Y-88474000D01*
X153669362Y-88474000D01*
X153714499Y-88478445D01*
G37*
G36*
X151964499Y-88478445D02*
G01*
X152001995Y-88489820D01*
X152036554Y-88508292D01*
X152066847Y-88533153D01*
X152091708Y-88563446D01*
X152110180Y-88598005D01*
X152121555Y-88635501D01*
X152126000Y-88680638D01*
X152126000Y-89319362D01*
X152121555Y-89364499D01*
X152110180Y-89401995D01*
X152091708Y-89436554D01*
X152066847Y-89466847D01*
X152036554Y-89491708D01*
X152001995Y-89510180D01*
X151964499Y-89521555D01*
X151919362Y-89526000D01*
X151180638Y-89526000D01*
X151135501Y-89521555D01*
X151098005Y-89510180D01*
X151063446Y-89491708D01*
X151033153Y-89466847D01*
X151008292Y-89436554D01*
X150989820Y-89401995D01*
X150978445Y-89364499D01*
X150974000Y-89319362D01*
X150974000Y-88680638D01*
X150978445Y-88635501D01*
X150989820Y-88598005D01*
X151008292Y-88563446D01*
X151033153Y-88533153D01*
X151063446Y-88508292D01*
X151098005Y-88489820D01*
X151135501Y-88478445D01*
X151180638Y-88474000D01*
X151919362Y-88474000D01*
X151964499Y-88478445D01*
G37*
G36*
X163709928Y-87956764D02*
G01*
X163731009Y-87963160D01*
X163750445Y-87973548D01*
X163767476Y-87987524D01*
X163781452Y-88004555D01*
X163791840Y-88023991D01*
X163798236Y-88045072D01*
X163801000Y-88073140D01*
X163801000Y-88536860D01*
X163798236Y-88564928D01*
X163791840Y-88586009D01*
X163781452Y-88605445D01*
X163767476Y-88622476D01*
X163750445Y-88636452D01*
X163731009Y-88646840D01*
X163709928Y-88653236D01*
X163681860Y-88656000D01*
X162168140Y-88656000D01*
X162140072Y-88653236D01*
X162118991Y-88646840D01*
X162099555Y-88636452D01*
X162082524Y-88622476D01*
X162068548Y-88605445D01*
X162058160Y-88586009D01*
X162051764Y-88564928D01*
X162049000Y-88536860D01*
X162049000Y-88073140D01*
X162051764Y-88045072D01*
X162058160Y-88023991D01*
X162068548Y-88004555D01*
X162082524Y-87987524D01*
X162099555Y-87973548D01*
X162118991Y-87963160D01*
X162140072Y-87956764D01*
X162168140Y-87954000D01*
X163681860Y-87954000D01*
X163709928Y-87956764D01*
G37*
G36*
X158459928Y-87956764D02*
G01*
X158481009Y-87963160D01*
X158500445Y-87973548D01*
X158517476Y-87987524D01*
X158531452Y-88004555D01*
X158541840Y-88023991D01*
X158548236Y-88045072D01*
X158551000Y-88073140D01*
X158551000Y-88536860D01*
X158548236Y-88564928D01*
X158541840Y-88586009D01*
X158531452Y-88605445D01*
X158517476Y-88622476D01*
X158500445Y-88636452D01*
X158481009Y-88646840D01*
X158459928Y-88653236D01*
X158431860Y-88656000D01*
X156918140Y-88656000D01*
X156890072Y-88653236D01*
X156868991Y-88646840D01*
X156849555Y-88636452D01*
X156832524Y-88622476D01*
X156818548Y-88605445D01*
X156808160Y-88586009D01*
X156801764Y-88564928D01*
X156799000Y-88536860D01*
X156799000Y-88073140D01*
X156801764Y-88045072D01*
X156808160Y-88023991D01*
X156818548Y-88004555D01*
X156832524Y-87987524D01*
X156849555Y-87973548D01*
X156868991Y-87963160D01*
X156890072Y-87956764D01*
X156918140Y-87954000D01*
X158431860Y-87954000D01*
X158459928Y-87956764D01*
G37*
G36*
X155464499Y-86753445D02*
G01*
X155501995Y-86764820D01*
X155536554Y-86783292D01*
X155566847Y-86808153D01*
X155591708Y-86838446D01*
X155610180Y-86873005D01*
X155621555Y-86910501D01*
X155626000Y-86955638D01*
X155626000Y-87694362D01*
X155621555Y-87739499D01*
X155610180Y-87776995D01*
X155591708Y-87811554D01*
X155566847Y-87841847D01*
X155536554Y-87866708D01*
X155501995Y-87885180D01*
X155464499Y-87896555D01*
X155419362Y-87901000D01*
X154780638Y-87901000D01*
X154735501Y-87896555D01*
X154698005Y-87885180D01*
X154663446Y-87866708D01*
X154633153Y-87841847D01*
X154608292Y-87811554D01*
X154589820Y-87776995D01*
X154578445Y-87739499D01*
X154574000Y-87694362D01*
X154574000Y-86955638D01*
X154578445Y-86910501D01*
X154589820Y-86873005D01*
X154608292Y-86838446D01*
X154633153Y-86808153D01*
X154663446Y-86783292D01*
X154698005Y-86764820D01*
X154735501Y-86753445D01*
X154780638Y-86749000D01*
X155419362Y-86749000D01*
X155464499Y-86753445D01*
G37*
G36*
X149964499Y-86653445D02*
G01*
X150001995Y-86664820D01*
X150036554Y-86683292D01*
X150066847Y-86708153D01*
X150091708Y-86738446D01*
X150110180Y-86773005D01*
X150121555Y-86810501D01*
X150126000Y-86855638D01*
X150126000Y-87594362D01*
X150121555Y-87639499D01*
X150110180Y-87676995D01*
X150091708Y-87711554D01*
X150066847Y-87741847D01*
X150036554Y-87766708D01*
X150001995Y-87785180D01*
X149964499Y-87796555D01*
X149919362Y-87801000D01*
X149280638Y-87801000D01*
X149235501Y-87796555D01*
X149198005Y-87785180D01*
X149163446Y-87766708D01*
X149133153Y-87741847D01*
X149108292Y-87711554D01*
X149089820Y-87676995D01*
X149078445Y-87639499D01*
X149074000Y-87594362D01*
X149074000Y-86855638D01*
X149078445Y-86810501D01*
X149089820Y-86773005D01*
X149108292Y-86738446D01*
X149133153Y-86708153D01*
X149163446Y-86683292D01*
X149198005Y-86664820D01*
X149235501Y-86653445D01*
X149280638Y-86649000D01*
X149919362Y-86649000D01*
X149964499Y-86653445D01*
G37*
G36*
X153689499Y-86678445D02*
G01*
X153726995Y-86689820D01*
X153761554Y-86708292D01*
X153791847Y-86733153D01*
X153816708Y-86763446D01*
X153835180Y-86798005D01*
X153846555Y-86835501D01*
X153851000Y-86880638D01*
X153851000Y-87519362D01*
X153846555Y-87564499D01*
X153835180Y-87601995D01*
X153816708Y-87636554D01*
X153791847Y-87666847D01*
X153761554Y-87691708D01*
X153726995Y-87710180D01*
X153689499Y-87721555D01*
X153644362Y-87726000D01*
X152905638Y-87726000D01*
X152860501Y-87721555D01*
X152823005Y-87710180D01*
X152788446Y-87691708D01*
X152758153Y-87666847D01*
X152733292Y-87636554D01*
X152714820Y-87601995D01*
X152703445Y-87564499D01*
X152699000Y-87519362D01*
X152699000Y-86880638D01*
X152703445Y-86835501D01*
X152714820Y-86798005D01*
X152733292Y-86763446D01*
X152758153Y-86733153D01*
X152788446Y-86708292D01*
X152823005Y-86689820D01*
X152860501Y-86678445D01*
X152905638Y-86674000D01*
X153644362Y-86674000D01*
X153689499Y-86678445D01*
G37*
G36*
X151939499Y-86678445D02*
G01*
X151976995Y-86689820D01*
X152011554Y-86708292D01*
X152041847Y-86733153D01*
X152066708Y-86763446D01*
X152085180Y-86798005D01*
X152096555Y-86835501D01*
X152101000Y-86880638D01*
X152101000Y-87519362D01*
X152096555Y-87564499D01*
X152085180Y-87601995D01*
X152066708Y-87636554D01*
X152041847Y-87666847D01*
X152011554Y-87691708D01*
X151976995Y-87710180D01*
X151939499Y-87721555D01*
X151894362Y-87726000D01*
X151155638Y-87726000D01*
X151110501Y-87721555D01*
X151073005Y-87710180D01*
X151038446Y-87691708D01*
X151008153Y-87666847D01*
X150983292Y-87636554D01*
X150964820Y-87601995D01*
X150953445Y-87564499D01*
X150949000Y-87519362D01*
X150949000Y-86880638D01*
X150953445Y-86835501D01*
X150964820Y-86798005D01*
X150983292Y-86763446D01*
X151008153Y-86733153D01*
X151038446Y-86708292D01*
X151073005Y-86689820D01*
X151110501Y-86678445D01*
X151155638Y-86674000D01*
X151894362Y-86674000D01*
X151939499Y-86678445D01*
G37*
G36*
X146264499Y-86578445D02*
G01*
X146301995Y-86589820D01*
X146336554Y-86608292D01*
X146366847Y-86633153D01*
X146391708Y-86663446D01*
X146410180Y-86698005D01*
X146421555Y-86735501D01*
X146426000Y-86780638D01*
X146426000Y-87419362D01*
X146421555Y-87464499D01*
X146410180Y-87501995D01*
X146391708Y-87536554D01*
X146366847Y-87566847D01*
X146336554Y-87591708D01*
X146301995Y-87610180D01*
X146264499Y-87621555D01*
X146219362Y-87626000D01*
X145480638Y-87626000D01*
X145435501Y-87621555D01*
X145398005Y-87610180D01*
X145363446Y-87591708D01*
X145333153Y-87566847D01*
X145308292Y-87536554D01*
X145289820Y-87501995D01*
X145278445Y-87464499D01*
X145274000Y-87419362D01*
X145274000Y-86780638D01*
X145278445Y-86735501D01*
X145289820Y-86698005D01*
X145308292Y-86663446D01*
X145333153Y-86633153D01*
X145363446Y-86608292D01*
X145398005Y-86589820D01*
X145435501Y-86578445D01*
X145480638Y-86574000D01*
X146219362Y-86574000D01*
X146264499Y-86578445D01*
G37*
G36*
X148014499Y-86578445D02*
G01*
X148051995Y-86589820D01*
X148086554Y-86608292D01*
X148116847Y-86633153D01*
X148141708Y-86663446D01*
X148160180Y-86698005D01*
X148171555Y-86735501D01*
X148176000Y-86780638D01*
X148176000Y-87419362D01*
X148171555Y-87464499D01*
X148160180Y-87501995D01*
X148141708Y-87536554D01*
X148116847Y-87566847D01*
X148086554Y-87591708D01*
X148051995Y-87610180D01*
X148014499Y-87621555D01*
X147969362Y-87626000D01*
X147230638Y-87626000D01*
X147185501Y-87621555D01*
X147148005Y-87610180D01*
X147113446Y-87591708D01*
X147083153Y-87566847D01*
X147058292Y-87536554D01*
X147039820Y-87501995D01*
X147028445Y-87464499D01*
X147024000Y-87419362D01*
X147024000Y-86780638D01*
X147028445Y-86735501D01*
X147039820Y-86698005D01*
X147058292Y-86663446D01*
X147083153Y-86633153D01*
X147113446Y-86608292D01*
X147148005Y-86589820D01*
X147185501Y-86578445D01*
X147230638Y-86574000D01*
X147969362Y-86574000D01*
X148014499Y-86578445D01*
G37*
G36*
X158459928Y-86686764D02*
G01*
X158481009Y-86693160D01*
X158500445Y-86703548D01*
X158517476Y-86717524D01*
X158531452Y-86734555D01*
X158541840Y-86753991D01*
X158548236Y-86775072D01*
X158551000Y-86803140D01*
X158551000Y-87266860D01*
X158548236Y-87294928D01*
X158541840Y-87316009D01*
X158531452Y-87335445D01*
X158517476Y-87352476D01*
X158500445Y-87366452D01*
X158481009Y-87376840D01*
X158459928Y-87383236D01*
X158431860Y-87386000D01*
X156918140Y-87386000D01*
X156890072Y-87383236D01*
X156868991Y-87376840D01*
X156849555Y-87366452D01*
X156832524Y-87352476D01*
X156818548Y-87335445D01*
X156808160Y-87316009D01*
X156801764Y-87294928D01*
X156799000Y-87266860D01*
X156799000Y-86803140D01*
X156801764Y-86775072D01*
X156808160Y-86753991D01*
X156818548Y-86734555D01*
X156832524Y-86717524D01*
X156849555Y-86703548D01*
X156868991Y-86693160D01*
X156890072Y-86686764D01*
X156918140Y-86684000D01*
X158431860Y-86684000D01*
X158459928Y-86686764D01*
G37*
G36*
X163709928Y-86686764D02*
G01*
X163731009Y-86693160D01*
X163750445Y-86703548D01*
X163767476Y-86717524D01*
X163781452Y-86734555D01*
X163791840Y-86753991D01*
X163798236Y-86775072D01*
X163801000Y-86803140D01*
X163801000Y-87266860D01*
X163798236Y-87294928D01*
X163791840Y-87316009D01*
X163781452Y-87335445D01*
X163767476Y-87352476D01*
X163750445Y-87366452D01*
X163731009Y-87376840D01*
X163709928Y-87383236D01*
X163681860Y-87386000D01*
X162168140Y-87386000D01*
X162140072Y-87383236D01*
X162118991Y-87376840D01*
X162099555Y-87366452D01*
X162082524Y-87352476D01*
X162068548Y-87335445D01*
X162058160Y-87316009D01*
X162051764Y-87294928D01*
X162049000Y-87266860D01*
X162049000Y-86803140D01*
X162051764Y-86775072D01*
X162058160Y-86753991D01*
X162068548Y-86734555D01*
X162082524Y-86717524D01*
X162099555Y-86703548D01*
X162118991Y-86693160D01*
X162140072Y-86686764D01*
X162168140Y-86684000D01*
X163681860Y-86684000D01*
X163709928Y-86686764D01*
G37*
G36*
X166914499Y-85128445D02*
G01*
X166951995Y-85139820D01*
X166986554Y-85158292D01*
X167016847Y-85183153D01*
X167041708Y-85213446D01*
X167060180Y-85248005D01*
X167071555Y-85285501D01*
X167076000Y-85330638D01*
X167076000Y-86069362D01*
X167071555Y-86114499D01*
X167060180Y-86151995D01*
X167041708Y-86186554D01*
X167016847Y-86216847D01*
X166986554Y-86241708D01*
X166951995Y-86260180D01*
X166914499Y-86271555D01*
X166869362Y-86276000D01*
X166230638Y-86276000D01*
X166185501Y-86271555D01*
X166148005Y-86260180D01*
X166113446Y-86241708D01*
X166083153Y-86216847D01*
X166058292Y-86186554D01*
X166039820Y-86151995D01*
X166028445Y-86114499D01*
X166024000Y-86069362D01*
X166024000Y-85330638D01*
X166028445Y-85285501D01*
X166039820Y-85248005D01*
X166058292Y-85213446D01*
X166083153Y-85183153D01*
X166113446Y-85158292D01*
X166148005Y-85139820D01*
X166185501Y-85128445D01*
X166230638Y-85124000D01*
X166869362Y-85124000D01*
X166914499Y-85128445D01*
G37*
G36*
X163709928Y-85416764D02*
G01*
X163731009Y-85423160D01*
X163750445Y-85433548D01*
X163767476Y-85447524D01*
X163781452Y-85464555D01*
X163791840Y-85483991D01*
X163798236Y-85505072D01*
X163801000Y-85533140D01*
X163801000Y-85996860D01*
X163798236Y-86024928D01*
X163791840Y-86046009D01*
X163781452Y-86065445D01*
X163767476Y-86082476D01*
X163750445Y-86096452D01*
X163731009Y-86106840D01*
X163709928Y-86113236D01*
X163681860Y-86116000D01*
X162168140Y-86116000D01*
X162140072Y-86113236D01*
X162118991Y-86106840D01*
X162099555Y-86096452D01*
X162082524Y-86082476D01*
X162068548Y-86065445D01*
X162058160Y-86046009D01*
X162051764Y-86024928D01*
X162049000Y-85996860D01*
X162049000Y-85533140D01*
X162051764Y-85505072D01*
X162058160Y-85483991D01*
X162068548Y-85464555D01*
X162082524Y-85447524D01*
X162099555Y-85433548D01*
X162118991Y-85423160D01*
X162140072Y-85416764D01*
X162168140Y-85414000D01*
X163681860Y-85414000D01*
X163709928Y-85416764D01*
G37*
G36*
X158459928Y-85416764D02*
G01*
X158481009Y-85423160D01*
X158500445Y-85433548D01*
X158517476Y-85447524D01*
X158531452Y-85464555D01*
X158541840Y-85483991D01*
X158548236Y-85505072D01*
X158551000Y-85533140D01*
X158551000Y-85996860D01*
X158548236Y-86024928D01*
X158541840Y-86046009D01*
X158531452Y-86065445D01*
X158517476Y-86082476D01*
X158500445Y-86096452D01*
X158481009Y-86106840D01*
X158459928Y-86113236D01*
X158431860Y-86116000D01*
X156918140Y-86116000D01*
X156890072Y-86113236D01*
X156868991Y-86106840D01*
X156849555Y-86096452D01*
X156832524Y-86082476D01*
X156818548Y-86065445D01*
X156808160Y-86046009D01*
X156801764Y-86024928D01*
X156799000Y-85996860D01*
X156799000Y-85533140D01*
X156801764Y-85505072D01*
X156808160Y-85483991D01*
X156818548Y-85464555D01*
X156832524Y-85447524D01*
X156849555Y-85433548D01*
X156868991Y-85423160D01*
X156890072Y-85416764D01*
X156918140Y-85414000D01*
X158431860Y-85414000D01*
X158459928Y-85416764D01*
G37*
G36*
X134709999Y-84499737D02*
G01*
X134719608Y-84502652D01*
X134728472Y-84507390D01*
X134736237Y-84513763D01*
X134746448Y-84526206D01*
X134753378Y-84536575D01*
X134770705Y-84553902D01*
X134791080Y-84567515D01*
X134813720Y-84576891D01*
X134837753Y-84581671D01*
X134862257Y-84581670D01*
X134886290Y-84576888D01*
X134908929Y-84567510D01*
X134929302Y-84553895D01*
X134946629Y-84536568D01*
X134953558Y-84526198D01*
X134963763Y-84513763D01*
X134971528Y-84507390D01*
X134980392Y-84502652D01*
X134990001Y-84499737D01*
X135006140Y-84498148D01*
X135493861Y-84498148D01*
X135512199Y-84499954D01*
X135524450Y-84500556D01*
X135542869Y-84500556D01*
X135565149Y-84502750D01*
X135649233Y-84519476D01*
X135670660Y-84525976D01*
X135749858Y-84558780D01*
X135755303Y-84561691D01*
X135755309Y-84561693D01*
X135764169Y-84566429D01*
X135764173Y-84566432D01*
X135769614Y-84569340D01*
X135840899Y-84616971D01*
X135858204Y-84631172D01*
X135918828Y-84691796D01*
X135933029Y-84709101D01*
X135980660Y-84780386D01*
X135983568Y-84785827D01*
X135983571Y-84785831D01*
X135988307Y-84794691D01*
X135988309Y-84794697D01*
X135991220Y-84800142D01*
X136024024Y-84879340D01*
X136030524Y-84900767D01*
X136047250Y-84984851D01*
X136049444Y-85007131D01*
X136049444Y-85025550D01*
X136050046Y-85037801D01*
X136051852Y-85056139D01*
X136051852Y-85543862D01*
X136050046Y-85562199D01*
X136049444Y-85574450D01*
X136049444Y-85592869D01*
X136047250Y-85615149D01*
X136030524Y-85699233D01*
X136024024Y-85720660D01*
X135991220Y-85799858D01*
X135988309Y-85805303D01*
X135988307Y-85805309D01*
X135983571Y-85814169D01*
X135983568Y-85814173D01*
X135980660Y-85819614D01*
X135933029Y-85890899D01*
X135918828Y-85908204D01*
X135858204Y-85968828D01*
X135840899Y-85983029D01*
X135769614Y-86030660D01*
X135764173Y-86033568D01*
X135764169Y-86033571D01*
X135755309Y-86038307D01*
X135755303Y-86038309D01*
X135749858Y-86041220D01*
X135670660Y-86074024D01*
X135649233Y-86080524D01*
X135565149Y-86097250D01*
X135542869Y-86099444D01*
X135524450Y-86099444D01*
X135512199Y-86100046D01*
X135493862Y-86101852D01*
X135006140Y-86101852D01*
X134990001Y-86100263D01*
X134980392Y-86097348D01*
X134971528Y-86092610D01*
X134963763Y-86086237D01*
X134953552Y-86073794D01*
X134946622Y-86063425D01*
X134929295Y-86046098D01*
X134908920Y-86032485D01*
X134886280Y-86023109D01*
X134862247Y-86018329D01*
X134837743Y-86018330D01*
X134813710Y-86023112D01*
X134791071Y-86032490D01*
X134770698Y-86046105D01*
X134753371Y-86063432D01*
X134746442Y-86073802D01*
X134736237Y-86086237D01*
X134728472Y-86092610D01*
X134719608Y-86097348D01*
X134709999Y-86100263D01*
X134693860Y-86101852D01*
X134206138Y-86101852D01*
X134187801Y-86100046D01*
X134175550Y-86099444D01*
X134157131Y-86099444D01*
X134134851Y-86097250D01*
X134050767Y-86080524D01*
X134029340Y-86074024D01*
X133950142Y-86041220D01*
X133944697Y-86038309D01*
X133944691Y-86038307D01*
X133935831Y-86033571D01*
X133935827Y-86033568D01*
X133930386Y-86030660D01*
X133859101Y-85983029D01*
X133841796Y-85968828D01*
X133781172Y-85908204D01*
X133766971Y-85890899D01*
X133719340Y-85819614D01*
X133716432Y-85814173D01*
X133716429Y-85814169D01*
X133711693Y-85805309D01*
X133711691Y-85805303D01*
X133708780Y-85799858D01*
X133675976Y-85720660D01*
X133669476Y-85699233D01*
X133652750Y-85615149D01*
X133650556Y-85592869D01*
X133650556Y-85574450D01*
X133649954Y-85562199D01*
X133648148Y-85543862D01*
X133648148Y-85056139D01*
X133649954Y-85037801D01*
X133650556Y-85025550D01*
X133650556Y-85007131D01*
X133652750Y-84984851D01*
X133669476Y-84900767D01*
X133675976Y-84879340D01*
X133708780Y-84800142D01*
X133711691Y-84794697D01*
X133711693Y-84794691D01*
X133716429Y-84785831D01*
X133716432Y-84785827D01*
X133719340Y-84780386D01*
X133766971Y-84709101D01*
X133781172Y-84691796D01*
X133841796Y-84631172D01*
X133859101Y-84616971D01*
X133930386Y-84569340D01*
X133935827Y-84566432D01*
X133935831Y-84566429D01*
X133944691Y-84561693D01*
X133944697Y-84561691D01*
X133950142Y-84558780D01*
X134029340Y-84525976D01*
X134050767Y-84519476D01*
X134134851Y-84502750D01*
X134157131Y-84500556D01*
X134175550Y-84500556D01*
X134187801Y-84499954D01*
X134206139Y-84498148D01*
X134693860Y-84498148D01*
X134709999Y-84499737D01*
G37*
G36*
X128664499Y-84678445D02*
G01*
X128701995Y-84689820D01*
X128736554Y-84708292D01*
X128766847Y-84733153D01*
X128791708Y-84763446D01*
X128810180Y-84798005D01*
X128821555Y-84835501D01*
X128826000Y-84880638D01*
X128826000Y-85619362D01*
X128821555Y-85664499D01*
X128810180Y-85701995D01*
X128791708Y-85736554D01*
X128766847Y-85766847D01*
X128736554Y-85791708D01*
X128701995Y-85810180D01*
X128664499Y-85821555D01*
X128619362Y-85826000D01*
X127980638Y-85826000D01*
X127935501Y-85821555D01*
X127898005Y-85810180D01*
X127863446Y-85791708D01*
X127833153Y-85766847D01*
X127808292Y-85736554D01*
X127789820Y-85701995D01*
X127778445Y-85664499D01*
X127774000Y-85619362D01*
X127774000Y-84880638D01*
X127778445Y-84835501D01*
X127789820Y-84798005D01*
X127808292Y-84763446D01*
X127833153Y-84733153D01*
X127863446Y-84708292D01*
X127898005Y-84689820D01*
X127935501Y-84678445D01*
X127980638Y-84674000D01*
X128619362Y-84674000D01*
X128664499Y-84678445D01*
G37*
G36*
X132501000Y-85801000D02*
G01*
X131599000Y-85801000D01*
X131599000Y-84799000D01*
X132501000Y-84799000D01*
X132501000Y-85801000D01*
G37*
G36*
X130601000Y-85801000D02*
G01*
X129699000Y-85801000D01*
X129699000Y-84799000D01*
X130601000Y-84799000D01*
X130601000Y-85801000D01*
G37*
G36*
X163709928Y-84146764D02*
G01*
X163731009Y-84153160D01*
X163750445Y-84163548D01*
X163767476Y-84177524D01*
X163781452Y-84194555D01*
X163791840Y-84213991D01*
X163798236Y-84235072D01*
X163801000Y-84263140D01*
X163801000Y-84726860D01*
X163798236Y-84754928D01*
X163791840Y-84776009D01*
X163781452Y-84795445D01*
X163767476Y-84812476D01*
X163750445Y-84826452D01*
X163731009Y-84836840D01*
X163709928Y-84843236D01*
X163681860Y-84846000D01*
X162168140Y-84846000D01*
X162140072Y-84843236D01*
X162118991Y-84836840D01*
X162099555Y-84826452D01*
X162082524Y-84812476D01*
X162068548Y-84795445D01*
X162058160Y-84776009D01*
X162051764Y-84754928D01*
X162049000Y-84726860D01*
X162049000Y-84263140D01*
X162051764Y-84235072D01*
X162058160Y-84213991D01*
X162068548Y-84194555D01*
X162082524Y-84177524D01*
X162099555Y-84163548D01*
X162118991Y-84153160D01*
X162140072Y-84146764D01*
X162168140Y-84144000D01*
X163681860Y-84144000D01*
X163709928Y-84146764D01*
G37*
G36*
X158459928Y-84146764D02*
G01*
X158481009Y-84153160D01*
X158500445Y-84163548D01*
X158517476Y-84177524D01*
X158531452Y-84194555D01*
X158541840Y-84213991D01*
X158548236Y-84235072D01*
X158551000Y-84263140D01*
X158551000Y-84726860D01*
X158548236Y-84754928D01*
X158541840Y-84776009D01*
X158531452Y-84795445D01*
X158517476Y-84812476D01*
X158500445Y-84826452D01*
X158481009Y-84836840D01*
X158459928Y-84843236D01*
X158431860Y-84846000D01*
X156918140Y-84846000D01*
X156890072Y-84843236D01*
X156868991Y-84836840D01*
X156849555Y-84826452D01*
X156832524Y-84812476D01*
X156818548Y-84795445D01*
X156808160Y-84776009D01*
X156801764Y-84754928D01*
X156799000Y-84726860D01*
X156799000Y-84263140D01*
X156801764Y-84235072D01*
X156808160Y-84213991D01*
X156818548Y-84194555D01*
X156832524Y-84177524D01*
X156849555Y-84163548D01*
X156868991Y-84153160D01*
X156890072Y-84146764D01*
X156918140Y-84144000D01*
X158431860Y-84144000D01*
X158459928Y-84146764D01*
G37*
G36*
X166914499Y-83378445D02*
G01*
X166951995Y-83389820D01*
X166986554Y-83408292D01*
X167016847Y-83433153D01*
X167041708Y-83463446D01*
X167060180Y-83498005D01*
X167071555Y-83535501D01*
X167076000Y-83580638D01*
X167076000Y-84319362D01*
X167071555Y-84364499D01*
X167060180Y-84401995D01*
X167041708Y-84436554D01*
X167016847Y-84466847D01*
X166986554Y-84491708D01*
X166951995Y-84510180D01*
X166914499Y-84521555D01*
X166869362Y-84526000D01*
X166230638Y-84526000D01*
X166185501Y-84521555D01*
X166148005Y-84510180D01*
X166113446Y-84491708D01*
X166083153Y-84466847D01*
X166058292Y-84436554D01*
X166039820Y-84401995D01*
X166028445Y-84364499D01*
X166024000Y-84319362D01*
X166024000Y-83580638D01*
X166028445Y-83535501D01*
X166039820Y-83498005D01*
X166058292Y-83463446D01*
X166083153Y-83433153D01*
X166113446Y-83408292D01*
X166148005Y-83389820D01*
X166185501Y-83378445D01*
X166230638Y-83374000D01*
X166869362Y-83374000D01*
X166914499Y-83378445D01*
G37*
G36*
X128664499Y-82928445D02*
G01*
X128701995Y-82939820D01*
X128736554Y-82958292D01*
X128766847Y-82983153D01*
X128791708Y-83013446D01*
X128810180Y-83048005D01*
X128821555Y-83085501D01*
X128826000Y-83130638D01*
X128826000Y-83869362D01*
X128821555Y-83914499D01*
X128810180Y-83951995D01*
X128791708Y-83986554D01*
X128766847Y-84016847D01*
X128736554Y-84041708D01*
X128701995Y-84060180D01*
X128664499Y-84071555D01*
X128619362Y-84076000D01*
X127980638Y-84076000D01*
X127935501Y-84071555D01*
X127898005Y-84060180D01*
X127863446Y-84041708D01*
X127833153Y-84016847D01*
X127808292Y-83986554D01*
X127789820Y-83951995D01*
X127778445Y-83914499D01*
X127774000Y-83869362D01*
X127774000Y-83130638D01*
X127778445Y-83085501D01*
X127789820Y-83048005D01*
X127808292Y-83013446D01*
X127833153Y-82983153D01*
X127863446Y-82958292D01*
X127898005Y-82939820D01*
X127935501Y-82928445D01*
X127980638Y-82924000D01*
X128619362Y-82924000D01*
X128664499Y-82928445D01*
G37*
G36*
X131551000Y-83801000D02*
G01*
X130649000Y-83801000D01*
X130649000Y-82799000D01*
X131551000Y-82799000D01*
X131551000Y-83801000D01*
G37*
G36*
X126464499Y-78928445D02*
G01*
X126501995Y-78939820D01*
X126536554Y-78958292D01*
X126566847Y-78983153D01*
X126591708Y-79013446D01*
X126610180Y-79048005D01*
X126621555Y-79085501D01*
X126626000Y-79130638D01*
X126626000Y-79869362D01*
X126621555Y-79914499D01*
X126610180Y-79951995D01*
X126591708Y-79986554D01*
X126566847Y-80016847D01*
X126536554Y-80041708D01*
X126501995Y-80060180D01*
X126464499Y-80071555D01*
X126419362Y-80076000D01*
X125780638Y-80076000D01*
X125735501Y-80071555D01*
X125698005Y-80060180D01*
X125663446Y-80041708D01*
X125633153Y-80016847D01*
X125608292Y-79986554D01*
X125589820Y-79951995D01*
X125578445Y-79914499D01*
X125574000Y-79869362D01*
X125574000Y-79130638D01*
X125578445Y-79085501D01*
X125589820Y-79048005D01*
X125608292Y-79013446D01*
X125633153Y-78983153D01*
X125663446Y-78958292D01*
X125698005Y-78939820D01*
X125735501Y-78928445D01*
X125780638Y-78924000D01*
X126419362Y-78924000D01*
X126464499Y-78928445D01*
G37*
G36*
X128464499Y-78878445D02*
G01*
X128501995Y-78889820D01*
X128536554Y-78908292D01*
X128566847Y-78933153D01*
X128591708Y-78963446D01*
X128610180Y-78998005D01*
X128621555Y-79035501D01*
X128626000Y-79080638D01*
X128626000Y-79819362D01*
X128621555Y-79864499D01*
X128610180Y-79901995D01*
X128591708Y-79936554D01*
X128566847Y-79966847D01*
X128536554Y-79991708D01*
X128501995Y-80010180D01*
X128464499Y-80021555D01*
X128419362Y-80026000D01*
X127780638Y-80026000D01*
X127735501Y-80021555D01*
X127698005Y-80010180D01*
X127663446Y-79991708D01*
X127633153Y-79966847D01*
X127608292Y-79936554D01*
X127589820Y-79901995D01*
X127578445Y-79864499D01*
X127574000Y-79819362D01*
X127574000Y-79080638D01*
X127578445Y-79035501D01*
X127589820Y-78998005D01*
X127608292Y-78963446D01*
X127633153Y-78933153D01*
X127663446Y-78908292D01*
X127698005Y-78889820D01*
X127735501Y-78878445D01*
X127780638Y-78874000D01*
X128419362Y-78874000D01*
X128464499Y-78878445D01*
G37*
G36*
X170113512Y-78183927D02*
G01*
X170262812Y-78213624D01*
X170426784Y-78281544D01*
X170574354Y-78380147D01*
X170699853Y-78505646D01*
X170798456Y-78653216D01*
X170866376Y-78817188D01*
X170901000Y-78991259D01*
X170901000Y-79168741D01*
X170866376Y-79342812D01*
X170798456Y-79506784D01*
X170699853Y-79654354D01*
X170574354Y-79779853D01*
X170426784Y-79878456D01*
X170262812Y-79946376D01*
X170113512Y-79976073D01*
X170088742Y-79981000D01*
X169911258Y-79981000D01*
X169886488Y-79976073D01*
X169737188Y-79946376D01*
X169573216Y-79878456D01*
X169425646Y-79779853D01*
X169300147Y-79654354D01*
X169201544Y-79506784D01*
X169133624Y-79342812D01*
X169099000Y-79168741D01*
X169099000Y-78991259D01*
X169133624Y-78817188D01*
X169201544Y-78653216D01*
X169300147Y-78505646D01*
X169425646Y-78380147D01*
X169573216Y-78281544D01*
X169737188Y-78213624D01*
X169886488Y-78183927D01*
X169911258Y-78179000D01*
X170088742Y-78179000D01*
X170113512Y-78183927D01*
G37*
G36*
X130601000Y-79901000D02*
G01*
X129599000Y-79901000D01*
X129599000Y-78999000D01*
X130601000Y-78999000D01*
X130601000Y-79901000D01*
G37*
G36*
X134609999Y-77699737D02*
G01*
X134619608Y-77702652D01*
X134628472Y-77707390D01*
X134636237Y-77713763D01*
X134646448Y-77726206D01*
X134653378Y-77736575D01*
X134670705Y-77753902D01*
X134691080Y-77767515D01*
X134713720Y-77776891D01*
X134737753Y-77781671D01*
X134762257Y-77781670D01*
X134786290Y-77776888D01*
X134808929Y-77767510D01*
X134829302Y-77753895D01*
X134846629Y-77736568D01*
X134853558Y-77726198D01*
X134863763Y-77713763D01*
X134871528Y-77707390D01*
X134880392Y-77702652D01*
X134890001Y-77699737D01*
X134906140Y-77698148D01*
X135393861Y-77698148D01*
X135412199Y-77699954D01*
X135424450Y-77700556D01*
X135442869Y-77700556D01*
X135465149Y-77702750D01*
X135549233Y-77719476D01*
X135570660Y-77725976D01*
X135649858Y-77758780D01*
X135655303Y-77761691D01*
X135655309Y-77761693D01*
X135664169Y-77766429D01*
X135664173Y-77766432D01*
X135669614Y-77769340D01*
X135740899Y-77816971D01*
X135758204Y-77831172D01*
X135818828Y-77891796D01*
X135833029Y-77909101D01*
X135880660Y-77980386D01*
X135883568Y-77985827D01*
X135883571Y-77985831D01*
X135888307Y-77994691D01*
X135888309Y-77994697D01*
X135891220Y-78000142D01*
X135924024Y-78079340D01*
X135930524Y-78100767D01*
X135947250Y-78184851D01*
X135949444Y-78207131D01*
X135949444Y-78225550D01*
X135950046Y-78237801D01*
X135951852Y-78256139D01*
X135951852Y-78743862D01*
X135950046Y-78762199D01*
X135949444Y-78774450D01*
X135949444Y-78792869D01*
X135947250Y-78815149D01*
X135930524Y-78899233D01*
X135924024Y-78920660D01*
X135891220Y-78999858D01*
X135888309Y-79005303D01*
X135888307Y-79005309D01*
X135883571Y-79014169D01*
X135883568Y-79014173D01*
X135880660Y-79019614D01*
X135833029Y-79090899D01*
X135818828Y-79108204D01*
X135758204Y-79168828D01*
X135740899Y-79183029D01*
X135669614Y-79230660D01*
X135664173Y-79233568D01*
X135664169Y-79233571D01*
X135655309Y-79238307D01*
X135655303Y-79238309D01*
X135649858Y-79241220D01*
X135570660Y-79274024D01*
X135549233Y-79280524D01*
X135465149Y-79297250D01*
X135442869Y-79299444D01*
X135424450Y-79299444D01*
X135412199Y-79300046D01*
X135393862Y-79301852D01*
X134906140Y-79301852D01*
X134890001Y-79300263D01*
X134880392Y-79297348D01*
X134871528Y-79292610D01*
X134863763Y-79286237D01*
X134853552Y-79273794D01*
X134846622Y-79263425D01*
X134829295Y-79246098D01*
X134808920Y-79232485D01*
X134786280Y-79223109D01*
X134762247Y-79218329D01*
X134737743Y-79218330D01*
X134713710Y-79223112D01*
X134691071Y-79232490D01*
X134670698Y-79246105D01*
X134653371Y-79263432D01*
X134646442Y-79273802D01*
X134636237Y-79286237D01*
X134628472Y-79292610D01*
X134619608Y-79297348D01*
X134609999Y-79300263D01*
X134593860Y-79301852D01*
X134106138Y-79301852D01*
X134087801Y-79300046D01*
X134075550Y-79299444D01*
X134057131Y-79299444D01*
X134034851Y-79297250D01*
X133950767Y-79280524D01*
X133929340Y-79274024D01*
X133850142Y-79241220D01*
X133844697Y-79238309D01*
X133844691Y-79238307D01*
X133835831Y-79233571D01*
X133835827Y-79233568D01*
X133830386Y-79230660D01*
X133759101Y-79183029D01*
X133741796Y-79168828D01*
X133681172Y-79108204D01*
X133666971Y-79090899D01*
X133619340Y-79019614D01*
X133616432Y-79014173D01*
X133616429Y-79014169D01*
X133611693Y-79005309D01*
X133611691Y-79005303D01*
X133608780Y-78999858D01*
X133575976Y-78920660D01*
X133569476Y-78899233D01*
X133552750Y-78815149D01*
X133550556Y-78792869D01*
X133550556Y-78774450D01*
X133549954Y-78762199D01*
X133548148Y-78743862D01*
X133548148Y-78256139D01*
X133549954Y-78237801D01*
X133550556Y-78225550D01*
X133550556Y-78207131D01*
X133552750Y-78184851D01*
X133569476Y-78100767D01*
X133575976Y-78079340D01*
X133608780Y-78000142D01*
X133611691Y-77994697D01*
X133611693Y-77994691D01*
X133616429Y-77985831D01*
X133616432Y-77985827D01*
X133619340Y-77980386D01*
X133666971Y-77909101D01*
X133681172Y-77891796D01*
X133741796Y-77831172D01*
X133759101Y-77816971D01*
X133830386Y-77769340D01*
X133835827Y-77766432D01*
X133835831Y-77766429D01*
X133844691Y-77761693D01*
X133844697Y-77761691D01*
X133850142Y-77758780D01*
X133929340Y-77725976D01*
X133950767Y-77719476D01*
X134034851Y-77702750D01*
X134057131Y-77700556D01*
X134075550Y-77700556D01*
X134087801Y-77699954D01*
X134106139Y-77698148D01*
X134593860Y-77698148D01*
X134609999Y-77699737D01*
G37*
G36*
X132601000Y-78951000D02*
G01*
X131599000Y-78951000D01*
X131599000Y-78049000D01*
X132601000Y-78049000D01*
X132601000Y-78951000D01*
G37*
G36*
X126464499Y-77178445D02*
G01*
X126501995Y-77189820D01*
X126536554Y-77208292D01*
X126566847Y-77233153D01*
X126591708Y-77263446D01*
X126610180Y-77298005D01*
X126621555Y-77335501D01*
X126626000Y-77380638D01*
X126626000Y-78119362D01*
X126621555Y-78164499D01*
X126610180Y-78201995D01*
X126591708Y-78236554D01*
X126566847Y-78266847D01*
X126536554Y-78291708D01*
X126501995Y-78310180D01*
X126464499Y-78321555D01*
X126419362Y-78326000D01*
X125780638Y-78326000D01*
X125735501Y-78321555D01*
X125698005Y-78310180D01*
X125663446Y-78291708D01*
X125633153Y-78266847D01*
X125608292Y-78236554D01*
X125589820Y-78201995D01*
X125578445Y-78164499D01*
X125574000Y-78119362D01*
X125574000Y-77380638D01*
X125578445Y-77335501D01*
X125589820Y-77298005D01*
X125608292Y-77263446D01*
X125633153Y-77233153D01*
X125663446Y-77208292D01*
X125698005Y-77189820D01*
X125735501Y-77178445D01*
X125780638Y-77174000D01*
X126419362Y-77174000D01*
X126464499Y-77178445D01*
G37*
G36*
X128464499Y-77128445D02*
G01*
X128501995Y-77139820D01*
X128536554Y-77158292D01*
X128566847Y-77183153D01*
X128591708Y-77213446D01*
X128610180Y-77248005D01*
X128621555Y-77285501D01*
X128626000Y-77330638D01*
X128626000Y-78069362D01*
X128621555Y-78114499D01*
X128610180Y-78151995D01*
X128591708Y-78186554D01*
X128566847Y-78216847D01*
X128536554Y-78241708D01*
X128501995Y-78260180D01*
X128464499Y-78271555D01*
X128419362Y-78276000D01*
X127780638Y-78276000D01*
X127735501Y-78271555D01*
X127698005Y-78260180D01*
X127663446Y-78241708D01*
X127633153Y-78216847D01*
X127608292Y-78186554D01*
X127589820Y-78151995D01*
X127578445Y-78114499D01*
X127574000Y-78069362D01*
X127574000Y-77330638D01*
X127578445Y-77285501D01*
X127589820Y-77248005D01*
X127608292Y-77213446D01*
X127633153Y-77183153D01*
X127663446Y-77158292D01*
X127698005Y-77139820D01*
X127735501Y-77128445D01*
X127780638Y-77124000D01*
X128419362Y-77124000D01*
X128464499Y-77128445D01*
G37*
G36*
X117462199Y-75749954D02*
G01*
X117474450Y-75750556D01*
X117492869Y-75750556D01*
X117515149Y-75752750D01*
X117599233Y-75769476D01*
X117620660Y-75775976D01*
X117699858Y-75808780D01*
X117705303Y-75811691D01*
X117705309Y-75811693D01*
X117714169Y-75816429D01*
X117714173Y-75816432D01*
X117719614Y-75819340D01*
X117790899Y-75866971D01*
X117808204Y-75881172D01*
X117868828Y-75941796D01*
X117883029Y-75959101D01*
X117930660Y-76030386D01*
X117933568Y-76035827D01*
X117933571Y-76035831D01*
X117938307Y-76044691D01*
X117938309Y-76044697D01*
X117941220Y-76050142D01*
X117974024Y-76129340D01*
X117980524Y-76150767D01*
X117997250Y-76234851D01*
X117999444Y-76257131D01*
X117999444Y-76275550D01*
X118000046Y-76287801D01*
X118001852Y-76306139D01*
X118001852Y-76793860D01*
X118000263Y-76809999D01*
X117997348Y-76819608D01*
X117992610Y-76828472D01*
X117986237Y-76836237D01*
X117973794Y-76846448D01*
X117963425Y-76853378D01*
X117946098Y-76870705D01*
X117932485Y-76891080D01*
X117923109Y-76913720D01*
X117918329Y-76937753D01*
X117918330Y-76962257D01*
X117923112Y-76986290D01*
X117932490Y-77008929D01*
X117946105Y-77029302D01*
X117963432Y-77046629D01*
X117973802Y-77053558D01*
X117986237Y-77063763D01*
X117992610Y-77071528D01*
X117997348Y-77080392D01*
X118000263Y-77090001D01*
X118001852Y-77106140D01*
X118001852Y-77593862D01*
X118000046Y-77612199D01*
X117999444Y-77624450D01*
X117999444Y-77642869D01*
X117997250Y-77665149D01*
X117980524Y-77749233D01*
X117974024Y-77770660D01*
X117941220Y-77849858D01*
X117938309Y-77855303D01*
X117938307Y-77855309D01*
X117933571Y-77864169D01*
X117933568Y-77864173D01*
X117930660Y-77869614D01*
X117883029Y-77940899D01*
X117868828Y-77958204D01*
X117808204Y-78018828D01*
X117790899Y-78033029D01*
X117719614Y-78080660D01*
X117714173Y-78083568D01*
X117714169Y-78083571D01*
X117705309Y-78088307D01*
X117705303Y-78088309D01*
X117699858Y-78091220D01*
X117620660Y-78124024D01*
X117599233Y-78130524D01*
X117515149Y-78147250D01*
X117492869Y-78149444D01*
X117474450Y-78149444D01*
X117462199Y-78150046D01*
X117443862Y-78151852D01*
X116956138Y-78151852D01*
X116937801Y-78150046D01*
X116925550Y-78149444D01*
X116907131Y-78149444D01*
X116884851Y-78147250D01*
X116800767Y-78130524D01*
X116779340Y-78124024D01*
X116700142Y-78091220D01*
X116694697Y-78088309D01*
X116694691Y-78088307D01*
X116685831Y-78083571D01*
X116685827Y-78083568D01*
X116680386Y-78080660D01*
X116609101Y-78033029D01*
X116591796Y-78018828D01*
X116531172Y-77958204D01*
X116516971Y-77940899D01*
X116469340Y-77869614D01*
X116466432Y-77864173D01*
X116466429Y-77864169D01*
X116461693Y-77855309D01*
X116461691Y-77855303D01*
X116458780Y-77849858D01*
X116425976Y-77770660D01*
X116419476Y-77749233D01*
X116402750Y-77665149D01*
X116400556Y-77642869D01*
X116400556Y-77624450D01*
X116399954Y-77612199D01*
X116398148Y-77593862D01*
X116398148Y-77106140D01*
X116399737Y-77090001D01*
X116402652Y-77080392D01*
X116407390Y-77071528D01*
X116413763Y-77063763D01*
X116426206Y-77053552D01*
X116436575Y-77046622D01*
X116453902Y-77029295D01*
X116467515Y-77008920D01*
X116476891Y-76986280D01*
X116481671Y-76962247D01*
X116481670Y-76937743D01*
X116476888Y-76913710D01*
X116467510Y-76891071D01*
X116453895Y-76870698D01*
X116436568Y-76853371D01*
X116426198Y-76846442D01*
X116413763Y-76836237D01*
X116407390Y-76828472D01*
X116402652Y-76819608D01*
X116399737Y-76809999D01*
X116398148Y-76793860D01*
X116398148Y-76306139D01*
X116399954Y-76287801D01*
X116400556Y-76275550D01*
X116400556Y-76257131D01*
X116402750Y-76234851D01*
X116419476Y-76150767D01*
X116425976Y-76129340D01*
X116458780Y-76050142D01*
X116461691Y-76044697D01*
X116461693Y-76044691D01*
X116466429Y-76035831D01*
X116466432Y-76035827D01*
X116469340Y-76030386D01*
X116516971Y-75959101D01*
X116531172Y-75941796D01*
X116591796Y-75881172D01*
X116609101Y-75866971D01*
X116680386Y-75819340D01*
X116685827Y-75816432D01*
X116685831Y-75816429D01*
X116694691Y-75811693D01*
X116694697Y-75811691D01*
X116700142Y-75808780D01*
X116779340Y-75775976D01*
X116800767Y-75769476D01*
X116884851Y-75752750D01*
X116907131Y-75750556D01*
X116925550Y-75750556D01*
X116937801Y-75749954D01*
X116956139Y-75748148D01*
X117443861Y-75748148D01*
X117462199Y-75749954D01*
G37*
G36*
X120662199Y-75649954D02*
G01*
X120674450Y-75650556D01*
X120692869Y-75650556D01*
X120715149Y-75652750D01*
X120799233Y-75669476D01*
X120820660Y-75675976D01*
X120899858Y-75708780D01*
X120905303Y-75711691D01*
X120905309Y-75711693D01*
X120914169Y-75716429D01*
X120914173Y-75716432D01*
X120919614Y-75719340D01*
X120990899Y-75766971D01*
X121008204Y-75781172D01*
X121068828Y-75841796D01*
X121083029Y-75859101D01*
X121130660Y-75930386D01*
X121133568Y-75935827D01*
X121133571Y-75935831D01*
X121138307Y-75944691D01*
X121138309Y-75944697D01*
X121141220Y-75950142D01*
X121174024Y-76029340D01*
X121180524Y-76050767D01*
X121197250Y-76134851D01*
X121199444Y-76157131D01*
X121199444Y-76175550D01*
X121200046Y-76187801D01*
X121201852Y-76206139D01*
X121201852Y-76693860D01*
X121200263Y-76709999D01*
X121197348Y-76719608D01*
X121192610Y-76728472D01*
X121186237Y-76736237D01*
X121173794Y-76746448D01*
X121163425Y-76753378D01*
X121146098Y-76770705D01*
X121132485Y-76791080D01*
X121123109Y-76813720D01*
X121118329Y-76837753D01*
X121118330Y-76862257D01*
X121123112Y-76886290D01*
X121132490Y-76908929D01*
X121146105Y-76929302D01*
X121163432Y-76946629D01*
X121173802Y-76953558D01*
X121186237Y-76963763D01*
X121192610Y-76971528D01*
X121197348Y-76980392D01*
X121200263Y-76990001D01*
X121201852Y-77006140D01*
X121201852Y-77493862D01*
X121200046Y-77512199D01*
X121199444Y-77524450D01*
X121199444Y-77542869D01*
X121197250Y-77565149D01*
X121180524Y-77649233D01*
X121174024Y-77670660D01*
X121141220Y-77749858D01*
X121138309Y-77755303D01*
X121138307Y-77755309D01*
X121133571Y-77764169D01*
X121133568Y-77764173D01*
X121130660Y-77769614D01*
X121083029Y-77840899D01*
X121068828Y-77858204D01*
X121008204Y-77918828D01*
X120990899Y-77933029D01*
X120919614Y-77980660D01*
X120914173Y-77983568D01*
X120914169Y-77983571D01*
X120905309Y-77988307D01*
X120905303Y-77988309D01*
X120899858Y-77991220D01*
X120820660Y-78024024D01*
X120799233Y-78030524D01*
X120715149Y-78047250D01*
X120692869Y-78049444D01*
X120674450Y-78049444D01*
X120662199Y-78050046D01*
X120643862Y-78051852D01*
X120156138Y-78051852D01*
X120137801Y-78050046D01*
X120125550Y-78049444D01*
X120107131Y-78049444D01*
X120084851Y-78047250D01*
X120000767Y-78030524D01*
X119979340Y-78024024D01*
X119900142Y-77991220D01*
X119894697Y-77988309D01*
X119894691Y-77988307D01*
X119885831Y-77983571D01*
X119885827Y-77983568D01*
X119880386Y-77980660D01*
X119809101Y-77933029D01*
X119791796Y-77918828D01*
X119731172Y-77858204D01*
X119716971Y-77840899D01*
X119669340Y-77769614D01*
X119666432Y-77764173D01*
X119666429Y-77764169D01*
X119661693Y-77755309D01*
X119661691Y-77755303D01*
X119658780Y-77749858D01*
X119625976Y-77670660D01*
X119619476Y-77649233D01*
X119602750Y-77565149D01*
X119600556Y-77542869D01*
X119600556Y-77524450D01*
X119599954Y-77512199D01*
X119598148Y-77493862D01*
X119598148Y-77006140D01*
X119599737Y-76990001D01*
X119602652Y-76980392D01*
X119607390Y-76971528D01*
X119613763Y-76963763D01*
X119626206Y-76953552D01*
X119636575Y-76946622D01*
X119653902Y-76929295D01*
X119667515Y-76908920D01*
X119676891Y-76886280D01*
X119681671Y-76862247D01*
X119681670Y-76837743D01*
X119676888Y-76813710D01*
X119667510Y-76791071D01*
X119653895Y-76770698D01*
X119636568Y-76753371D01*
X119626198Y-76746442D01*
X119613763Y-76736237D01*
X119607390Y-76728472D01*
X119602652Y-76719608D01*
X119599737Y-76709999D01*
X119598148Y-76693860D01*
X119598148Y-76206139D01*
X119599954Y-76187801D01*
X119600556Y-76175550D01*
X119600556Y-76157131D01*
X119602750Y-76134851D01*
X119619476Y-76050767D01*
X119625976Y-76029340D01*
X119658780Y-75950142D01*
X119661691Y-75944697D01*
X119661693Y-75944691D01*
X119666429Y-75935831D01*
X119666432Y-75935827D01*
X119669340Y-75930386D01*
X119716971Y-75859101D01*
X119731172Y-75841796D01*
X119791796Y-75781172D01*
X119809101Y-75766971D01*
X119880386Y-75719340D01*
X119885827Y-75716432D01*
X119885831Y-75716429D01*
X119894691Y-75711693D01*
X119894697Y-75711691D01*
X119900142Y-75708780D01*
X119979340Y-75675976D01*
X120000767Y-75669476D01*
X120084851Y-75652750D01*
X120107131Y-75650556D01*
X120125550Y-75650556D01*
X120137801Y-75649954D01*
X120156139Y-75648148D01*
X120643861Y-75648148D01*
X120662199Y-75649954D01*
G37*
G36*
X123762199Y-75649954D02*
G01*
X123774450Y-75650556D01*
X123792869Y-75650556D01*
X123815149Y-75652750D01*
X123899233Y-75669476D01*
X123920660Y-75675976D01*
X123999858Y-75708780D01*
X124005303Y-75711691D01*
X124005309Y-75711693D01*
X124014169Y-75716429D01*
X124014173Y-75716432D01*
X124019614Y-75719340D01*
X124090899Y-75766971D01*
X124108204Y-75781172D01*
X124168828Y-75841796D01*
X124183029Y-75859101D01*
X124230660Y-75930386D01*
X124233568Y-75935827D01*
X124233571Y-75935831D01*
X124238307Y-75944691D01*
X124238309Y-75944697D01*
X124241220Y-75950142D01*
X124274024Y-76029340D01*
X124280524Y-76050767D01*
X124297250Y-76134851D01*
X124299444Y-76157131D01*
X124299444Y-76175550D01*
X124300046Y-76187801D01*
X124301852Y-76206139D01*
X124301852Y-76693860D01*
X124300263Y-76709999D01*
X124297348Y-76719608D01*
X124292610Y-76728472D01*
X124286237Y-76736237D01*
X124273794Y-76746448D01*
X124263425Y-76753378D01*
X124246098Y-76770705D01*
X124232485Y-76791080D01*
X124223109Y-76813720D01*
X124218329Y-76837753D01*
X124218330Y-76862257D01*
X124223112Y-76886290D01*
X124232490Y-76908929D01*
X124246105Y-76929302D01*
X124263432Y-76946629D01*
X124273802Y-76953558D01*
X124286237Y-76963763D01*
X124292610Y-76971528D01*
X124297348Y-76980392D01*
X124300263Y-76990001D01*
X124301852Y-77006140D01*
X124301852Y-77493862D01*
X124300046Y-77512199D01*
X124299444Y-77524450D01*
X124299444Y-77542869D01*
X124297250Y-77565149D01*
X124280524Y-77649233D01*
X124274024Y-77670660D01*
X124241220Y-77749858D01*
X124238309Y-77755303D01*
X124238307Y-77755309D01*
X124233571Y-77764169D01*
X124233568Y-77764173D01*
X124230660Y-77769614D01*
X124183029Y-77840899D01*
X124168828Y-77858204D01*
X124108204Y-77918828D01*
X124090899Y-77933029D01*
X124019614Y-77980660D01*
X124014173Y-77983568D01*
X124014169Y-77983571D01*
X124005309Y-77988307D01*
X124005303Y-77988309D01*
X123999858Y-77991220D01*
X123920660Y-78024024D01*
X123899233Y-78030524D01*
X123815149Y-78047250D01*
X123792869Y-78049444D01*
X123774450Y-78049444D01*
X123762199Y-78050046D01*
X123743862Y-78051852D01*
X123256138Y-78051852D01*
X123237801Y-78050046D01*
X123225550Y-78049444D01*
X123207131Y-78049444D01*
X123184851Y-78047250D01*
X123100767Y-78030524D01*
X123079340Y-78024024D01*
X123000142Y-77991220D01*
X122994697Y-77988309D01*
X122994691Y-77988307D01*
X122985831Y-77983571D01*
X122985827Y-77983568D01*
X122980386Y-77980660D01*
X122909101Y-77933029D01*
X122891796Y-77918828D01*
X122831172Y-77858204D01*
X122816971Y-77840899D01*
X122769340Y-77769614D01*
X122766432Y-77764173D01*
X122766429Y-77764169D01*
X122761693Y-77755309D01*
X122761691Y-77755303D01*
X122758780Y-77749858D01*
X122725976Y-77670660D01*
X122719476Y-77649233D01*
X122702750Y-77565149D01*
X122700556Y-77542869D01*
X122700556Y-77524450D01*
X122699954Y-77512199D01*
X122698148Y-77493862D01*
X122698148Y-77006140D01*
X122699737Y-76990001D01*
X122702652Y-76980392D01*
X122707390Y-76971528D01*
X122713763Y-76963763D01*
X122726206Y-76953552D01*
X122736575Y-76946622D01*
X122753902Y-76929295D01*
X122767515Y-76908920D01*
X122776891Y-76886280D01*
X122781671Y-76862247D01*
X122781670Y-76837743D01*
X122776888Y-76813710D01*
X122767510Y-76791071D01*
X122753895Y-76770698D01*
X122736568Y-76753371D01*
X122726198Y-76746442D01*
X122713763Y-76736237D01*
X122707390Y-76728472D01*
X122702652Y-76719608D01*
X122699737Y-76709999D01*
X122698148Y-76693860D01*
X122698148Y-76206139D01*
X122699954Y-76187801D01*
X122700556Y-76175550D01*
X122700556Y-76157131D01*
X122702750Y-76134851D01*
X122719476Y-76050767D01*
X122725976Y-76029340D01*
X122758780Y-75950142D01*
X122761691Y-75944697D01*
X122761693Y-75944691D01*
X122766429Y-75935831D01*
X122766432Y-75935827D01*
X122769340Y-75930386D01*
X122816971Y-75859101D01*
X122831172Y-75841796D01*
X122891796Y-75781172D01*
X122909101Y-75766971D01*
X122980386Y-75719340D01*
X122985827Y-75716432D01*
X122985831Y-75716429D01*
X122994691Y-75711693D01*
X122994697Y-75711691D01*
X123000142Y-75708780D01*
X123079340Y-75675976D01*
X123100767Y-75669476D01*
X123184851Y-75652750D01*
X123207131Y-75650556D01*
X123225550Y-75650556D01*
X123237801Y-75649954D01*
X123256139Y-75648148D01*
X123743861Y-75648148D01*
X123762199Y-75649954D01*
G37*
G36*
X130601000Y-78001000D02*
G01*
X129599000Y-78001000D01*
X129599000Y-77099000D01*
X130601000Y-77099000D01*
X130601000Y-78001000D01*
G37*
G36*
X170113512Y-75643927D02*
G01*
X170262812Y-75673624D01*
X170426784Y-75741544D01*
X170574354Y-75840147D01*
X170699853Y-75965646D01*
X170798456Y-76113216D01*
X170866376Y-76277188D01*
X170901000Y-76451259D01*
X170901000Y-76628741D01*
X170866376Y-76802812D01*
X170798456Y-76966784D01*
X170699853Y-77114354D01*
X170574354Y-77239853D01*
X170426784Y-77338456D01*
X170262812Y-77406376D01*
X170113512Y-77436073D01*
X170088742Y-77441000D01*
X169911258Y-77441000D01*
X169886488Y-77436073D01*
X169737188Y-77406376D01*
X169573216Y-77338456D01*
X169425646Y-77239853D01*
X169300147Y-77114354D01*
X169201544Y-76966784D01*
X169133624Y-76802812D01*
X169099000Y-76628741D01*
X169099000Y-76451259D01*
X169133624Y-76277188D01*
X169201544Y-76113216D01*
X169300147Y-75965646D01*
X169425646Y-75840147D01*
X169573216Y-75741544D01*
X169737188Y-75673624D01*
X169886488Y-75643927D01*
X169911258Y-75639000D01*
X170088742Y-75639000D01*
X170113512Y-75643927D01*
G37*
G36*
X151714499Y-75678445D02*
G01*
X151751995Y-75689820D01*
X151786554Y-75708292D01*
X151816847Y-75733153D01*
X151841708Y-75763446D01*
X151860180Y-75798005D01*
X151871555Y-75835501D01*
X151876000Y-75880638D01*
X151876000Y-76519362D01*
X151871555Y-76564499D01*
X151860180Y-76601995D01*
X151841708Y-76636554D01*
X151816847Y-76666847D01*
X151786554Y-76691708D01*
X151751995Y-76710180D01*
X151714499Y-76721555D01*
X151669362Y-76726000D01*
X150930638Y-76726000D01*
X150885501Y-76721555D01*
X150848005Y-76710180D01*
X150813446Y-76691708D01*
X150783153Y-76666847D01*
X150758292Y-76636554D01*
X150739820Y-76601995D01*
X150728445Y-76564499D01*
X150724000Y-76519362D01*
X150724000Y-75880638D01*
X150728445Y-75835501D01*
X150739820Y-75798005D01*
X150758292Y-75763446D01*
X150783153Y-75733153D01*
X150813446Y-75708292D01*
X150848005Y-75689820D01*
X150885501Y-75678445D01*
X150930638Y-75674000D01*
X151669362Y-75674000D01*
X151714499Y-75678445D01*
G37*
G36*
X153464499Y-75678445D02*
G01*
X153501995Y-75689820D01*
X153536554Y-75708292D01*
X153566847Y-75733153D01*
X153591708Y-75763446D01*
X153610180Y-75798005D01*
X153621555Y-75835501D01*
X153626000Y-75880638D01*
X153626000Y-76519362D01*
X153621555Y-76564499D01*
X153610180Y-76601995D01*
X153591708Y-76636554D01*
X153566847Y-76666847D01*
X153536554Y-76691708D01*
X153501995Y-76710180D01*
X153464499Y-76721555D01*
X153419362Y-76726000D01*
X152680638Y-76726000D01*
X152635501Y-76721555D01*
X152598005Y-76710180D01*
X152563446Y-76691708D01*
X152533153Y-76666847D01*
X152508292Y-76636554D01*
X152489820Y-76601995D01*
X152478445Y-76564499D01*
X152474000Y-76519362D01*
X152474000Y-75880638D01*
X152478445Y-75835501D01*
X152489820Y-75798005D01*
X152508292Y-75763446D01*
X152533153Y-75733153D01*
X152563446Y-75708292D01*
X152598005Y-75689820D01*
X152635501Y-75678445D01*
X152680638Y-75674000D01*
X153419362Y-75674000D01*
X153464499Y-75678445D01*
G37*
G36*
X145914499Y-75578445D02*
G01*
X145951995Y-75589820D01*
X145986554Y-75608292D01*
X146016847Y-75633153D01*
X146041708Y-75663446D01*
X146060180Y-75698005D01*
X146071555Y-75735501D01*
X146076000Y-75780638D01*
X146076000Y-76419362D01*
X146071555Y-76464499D01*
X146060180Y-76501995D01*
X146041708Y-76536554D01*
X146016847Y-76566847D01*
X145986554Y-76591708D01*
X145951995Y-76610180D01*
X145914499Y-76621555D01*
X145869362Y-76626000D01*
X145130638Y-76626000D01*
X145085501Y-76621555D01*
X145048005Y-76610180D01*
X145013446Y-76591708D01*
X144983153Y-76566847D01*
X144958292Y-76536554D01*
X144939820Y-76501995D01*
X144928445Y-76464499D01*
X144924000Y-76419362D01*
X144924000Y-75780638D01*
X144928445Y-75735501D01*
X144939820Y-75698005D01*
X144958292Y-75663446D01*
X144983153Y-75633153D01*
X145013446Y-75608292D01*
X145048005Y-75589820D01*
X145085501Y-75578445D01*
X145130638Y-75574000D01*
X145869362Y-75574000D01*
X145914499Y-75578445D01*
G37*
G36*
X147664499Y-75578445D02*
G01*
X147701995Y-75589820D01*
X147736554Y-75608292D01*
X147766847Y-75633153D01*
X147791708Y-75663446D01*
X147810180Y-75698005D01*
X147821555Y-75735501D01*
X147826000Y-75780638D01*
X147826000Y-76419362D01*
X147821555Y-76464499D01*
X147810180Y-76501995D01*
X147791708Y-76536554D01*
X147766847Y-76566847D01*
X147736554Y-76591708D01*
X147701995Y-76610180D01*
X147664499Y-76621555D01*
X147619362Y-76626000D01*
X146880638Y-76626000D01*
X146835501Y-76621555D01*
X146798005Y-76610180D01*
X146763446Y-76591708D01*
X146733153Y-76566847D01*
X146708292Y-76536554D01*
X146689820Y-76501995D01*
X146678445Y-76464499D01*
X146674000Y-76419362D01*
X146674000Y-75780638D01*
X146678445Y-75735501D01*
X146689820Y-75698005D01*
X146708292Y-75663446D01*
X146733153Y-75633153D01*
X146763446Y-75608292D01*
X146798005Y-75589820D01*
X146835501Y-75578445D01*
X146880638Y-75574000D01*
X147619362Y-75574000D01*
X147664499Y-75578445D01*
G37*
G36*
X149514499Y-75478445D02*
G01*
X149551995Y-75489820D01*
X149586554Y-75508292D01*
X149616847Y-75533153D01*
X149641708Y-75563446D01*
X149660180Y-75598005D01*
X149671555Y-75635501D01*
X149676000Y-75680638D01*
X149676000Y-76419362D01*
X149671555Y-76464499D01*
X149660180Y-76501995D01*
X149641708Y-76536554D01*
X149616847Y-76566847D01*
X149586554Y-76591708D01*
X149551995Y-76610180D01*
X149514499Y-76621555D01*
X149469362Y-76626000D01*
X148830638Y-76626000D01*
X148785501Y-76621555D01*
X148748005Y-76610180D01*
X148713446Y-76591708D01*
X148683153Y-76566847D01*
X148658292Y-76536554D01*
X148639820Y-76501995D01*
X148628445Y-76464499D01*
X148624000Y-76419362D01*
X148624000Y-75680638D01*
X148628445Y-75635501D01*
X148639820Y-75598005D01*
X148658292Y-75563446D01*
X148683153Y-75533153D01*
X148713446Y-75508292D01*
X148748005Y-75489820D01*
X148785501Y-75478445D01*
X148830638Y-75474000D01*
X149469362Y-75474000D01*
X149514499Y-75478445D01*
G37*
G36*
X155564499Y-75328445D02*
G01*
X155601995Y-75339820D01*
X155636554Y-75358292D01*
X155666847Y-75383153D01*
X155691708Y-75413446D01*
X155710180Y-75448005D01*
X155721555Y-75485501D01*
X155726000Y-75530638D01*
X155726000Y-76269362D01*
X155721555Y-76314499D01*
X155710180Y-76351995D01*
X155691708Y-76386554D01*
X155666847Y-76416847D01*
X155636554Y-76441708D01*
X155601995Y-76460180D01*
X155564499Y-76471555D01*
X155519362Y-76476000D01*
X154880638Y-76476000D01*
X154835501Y-76471555D01*
X154798005Y-76460180D01*
X154763446Y-76441708D01*
X154733153Y-76416847D01*
X154708292Y-76386554D01*
X154689820Y-76351995D01*
X154678445Y-76314499D01*
X154674000Y-76269362D01*
X154674000Y-75530638D01*
X154678445Y-75485501D01*
X154689820Y-75448005D01*
X154708292Y-75413446D01*
X154733153Y-75383153D01*
X154763446Y-75358292D01*
X154798005Y-75339820D01*
X154835501Y-75328445D01*
X154880638Y-75324000D01*
X155519362Y-75324000D01*
X155564499Y-75328445D01*
G37*
G36*
X130564499Y-74878445D02*
G01*
X130601995Y-74889820D01*
X130636554Y-74908292D01*
X130666847Y-74933153D01*
X130691708Y-74963446D01*
X130710180Y-74998005D01*
X130721555Y-75035501D01*
X130726000Y-75080638D01*
X130726000Y-75719362D01*
X130721555Y-75764499D01*
X130710180Y-75801995D01*
X130691708Y-75836554D01*
X130666847Y-75866847D01*
X130636554Y-75891708D01*
X130601995Y-75910180D01*
X130564499Y-75921555D01*
X130519362Y-75926000D01*
X129780638Y-75926000D01*
X129735501Y-75921555D01*
X129698005Y-75910180D01*
X129663446Y-75891708D01*
X129633153Y-75866847D01*
X129608292Y-75836554D01*
X129589820Y-75801995D01*
X129578445Y-75764499D01*
X129574000Y-75719362D01*
X129574000Y-75080638D01*
X129578445Y-75035501D01*
X129589820Y-74998005D01*
X129608292Y-74963446D01*
X129633153Y-74933153D01*
X129663446Y-74908292D01*
X129698005Y-74889820D01*
X129735501Y-74878445D01*
X129780638Y-74874000D01*
X130519362Y-74874000D01*
X130564499Y-74878445D01*
G37*
G36*
X132314499Y-74878445D02*
G01*
X132351995Y-74889820D01*
X132386554Y-74908292D01*
X132416847Y-74933153D01*
X132441708Y-74963446D01*
X132460180Y-74998005D01*
X132471555Y-75035501D01*
X132476000Y-75080638D01*
X132476000Y-75719362D01*
X132471555Y-75764499D01*
X132460180Y-75801995D01*
X132441708Y-75836554D01*
X132416847Y-75866847D01*
X132386554Y-75891708D01*
X132351995Y-75910180D01*
X132314499Y-75921555D01*
X132269362Y-75926000D01*
X131530638Y-75926000D01*
X131485501Y-75921555D01*
X131448005Y-75910180D01*
X131413446Y-75891708D01*
X131383153Y-75866847D01*
X131358292Y-75836554D01*
X131339820Y-75801995D01*
X131328445Y-75764499D01*
X131324000Y-75719362D01*
X131324000Y-75080638D01*
X131328445Y-75035501D01*
X131339820Y-74998005D01*
X131358292Y-74963446D01*
X131383153Y-74933153D01*
X131413446Y-74908292D01*
X131448005Y-74889820D01*
X131485501Y-74878445D01*
X131530638Y-74874000D01*
X132269362Y-74874000D01*
X132314499Y-74878445D01*
G37*
G36*
X164884928Y-74921764D02*
G01*
X164906009Y-74928160D01*
X164925445Y-74938548D01*
X164942476Y-74952524D01*
X164956452Y-74969555D01*
X164966840Y-74988991D01*
X164973236Y-75010072D01*
X164976000Y-75038140D01*
X164976000Y-75501860D01*
X164973236Y-75529928D01*
X164966840Y-75551009D01*
X164956452Y-75570445D01*
X164942476Y-75587476D01*
X164925445Y-75601452D01*
X164906009Y-75611840D01*
X164884928Y-75618236D01*
X164856860Y-75621000D01*
X163343140Y-75621000D01*
X163315072Y-75618236D01*
X163293991Y-75611840D01*
X163274555Y-75601452D01*
X163257524Y-75587476D01*
X163243548Y-75570445D01*
X163233160Y-75551009D01*
X163226764Y-75529928D01*
X163224000Y-75501860D01*
X163224000Y-75038140D01*
X163226764Y-75010072D01*
X163233160Y-74988991D01*
X163243548Y-74969555D01*
X163257524Y-74952524D01*
X163274555Y-74938548D01*
X163293991Y-74928160D01*
X163315072Y-74921764D01*
X163343140Y-74919000D01*
X164856860Y-74919000D01*
X164884928Y-74921764D01*
G37*
G36*
X159634928Y-74921764D02*
G01*
X159656009Y-74928160D01*
X159675445Y-74938548D01*
X159692476Y-74952524D01*
X159706452Y-74969555D01*
X159716840Y-74988991D01*
X159723236Y-75010072D01*
X159726000Y-75038140D01*
X159726000Y-75501860D01*
X159723236Y-75529928D01*
X159716840Y-75551009D01*
X159706452Y-75570445D01*
X159692476Y-75587476D01*
X159675445Y-75601452D01*
X159656009Y-75611840D01*
X159634928Y-75618236D01*
X159606860Y-75621000D01*
X158093140Y-75621000D01*
X158065072Y-75618236D01*
X158043991Y-75611840D01*
X158024555Y-75601452D01*
X158007524Y-75587476D01*
X157993548Y-75570445D01*
X157983160Y-75551009D01*
X157976764Y-75529928D01*
X157974000Y-75501860D01*
X157974000Y-75038140D01*
X157976764Y-75010072D01*
X157983160Y-74988991D01*
X157993548Y-74969555D01*
X158007524Y-74952524D01*
X158024555Y-74938548D01*
X158043991Y-74928160D01*
X158065072Y-74921764D01*
X158093140Y-74919000D01*
X159606860Y-74919000D01*
X159634928Y-74921764D01*
G37*
G36*
X170901000Y-74901000D02*
G01*
X169099000Y-74901000D01*
X169099000Y-73099000D01*
X170901000Y-73099000D01*
X170901000Y-74901000D01*
G37*
G36*
X149514499Y-73728445D02*
G01*
X149551995Y-73739820D01*
X149586554Y-73758292D01*
X149616847Y-73783153D01*
X149641708Y-73813446D01*
X149660180Y-73848005D01*
X149671555Y-73885501D01*
X149676000Y-73930638D01*
X149676000Y-74669362D01*
X149671555Y-74714499D01*
X149660180Y-74751995D01*
X149641708Y-74786554D01*
X149616847Y-74816847D01*
X149586554Y-74841708D01*
X149551995Y-74860180D01*
X149514499Y-74871555D01*
X149469362Y-74876000D01*
X148830638Y-74876000D01*
X148785501Y-74871555D01*
X148748005Y-74860180D01*
X148713446Y-74841708D01*
X148683153Y-74816847D01*
X148658292Y-74786554D01*
X148639820Y-74751995D01*
X148628445Y-74714499D01*
X148624000Y-74669362D01*
X148624000Y-73930638D01*
X148628445Y-73885501D01*
X148639820Y-73848005D01*
X148658292Y-73813446D01*
X148683153Y-73783153D01*
X148713446Y-73758292D01*
X148748005Y-73739820D01*
X148785501Y-73728445D01*
X148830638Y-73724000D01*
X149469362Y-73724000D01*
X149514499Y-73728445D01*
G37*
G36*
X147664499Y-73778445D02*
G01*
X147701995Y-73789820D01*
X147736554Y-73808292D01*
X147766847Y-73833153D01*
X147791708Y-73863446D01*
X147810180Y-73898005D01*
X147821555Y-73935501D01*
X147826000Y-73980638D01*
X147826000Y-74619362D01*
X147821555Y-74664499D01*
X147810180Y-74701995D01*
X147791708Y-74736554D01*
X147766847Y-74766847D01*
X147736554Y-74791708D01*
X147701995Y-74810180D01*
X147664499Y-74821555D01*
X147619362Y-74826000D01*
X146880638Y-74826000D01*
X146835501Y-74821555D01*
X146798005Y-74810180D01*
X146763446Y-74791708D01*
X146733153Y-74766847D01*
X146708292Y-74736554D01*
X146689820Y-74701995D01*
X146678445Y-74664499D01*
X146674000Y-74619362D01*
X146674000Y-73980638D01*
X146678445Y-73935501D01*
X146689820Y-73898005D01*
X146708292Y-73863446D01*
X146733153Y-73833153D01*
X146763446Y-73808292D01*
X146798005Y-73789820D01*
X146835501Y-73778445D01*
X146880638Y-73774000D01*
X147619362Y-73774000D01*
X147664499Y-73778445D01*
G37*
G36*
X145914499Y-73778445D02*
G01*
X145951995Y-73789820D01*
X145986554Y-73808292D01*
X146016847Y-73833153D01*
X146041708Y-73863446D01*
X146060180Y-73898005D01*
X146071555Y-73935501D01*
X146076000Y-73980638D01*
X146076000Y-74619362D01*
X146071555Y-74664499D01*
X146060180Y-74701995D01*
X146041708Y-74736554D01*
X146016847Y-74766847D01*
X145986554Y-74791708D01*
X145951995Y-74810180D01*
X145914499Y-74821555D01*
X145869362Y-74826000D01*
X145130638Y-74826000D01*
X145085501Y-74821555D01*
X145048005Y-74810180D01*
X145013446Y-74791708D01*
X144983153Y-74766847D01*
X144958292Y-74736554D01*
X144939820Y-74701995D01*
X144928445Y-74664499D01*
X144924000Y-74619362D01*
X144924000Y-73980638D01*
X144928445Y-73935501D01*
X144939820Y-73898005D01*
X144958292Y-73863446D01*
X144983153Y-73833153D01*
X145013446Y-73808292D01*
X145048005Y-73789820D01*
X145085501Y-73778445D01*
X145130638Y-73774000D01*
X145869362Y-73774000D01*
X145914499Y-73778445D01*
G37*
G36*
X153464499Y-73678445D02*
G01*
X153501995Y-73689820D01*
X153536554Y-73708292D01*
X153566847Y-73733153D01*
X153591708Y-73763446D01*
X153610180Y-73798005D01*
X153621555Y-73835501D01*
X153626000Y-73880638D01*
X153626000Y-74519362D01*
X153621555Y-74564499D01*
X153610180Y-74601995D01*
X153591708Y-74636554D01*
X153566847Y-74666847D01*
X153536554Y-74691708D01*
X153501995Y-74710180D01*
X153464499Y-74721555D01*
X153419362Y-74726000D01*
X152680638Y-74726000D01*
X152635501Y-74721555D01*
X152598005Y-74710180D01*
X152563446Y-74691708D01*
X152533153Y-74666847D01*
X152508292Y-74636554D01*
X152489820Y-74601995D01*
X152478445Y-74564499D01*
X152474000Y-74519362D01*
X152474000Y-73880638D01*
X152478445Y-73835501D01*
X152489820Y-73798005D01*
X152508292Y-73763446D01*
X152533153Y-73733153D01*
X152563446Y-73708292D01*
X152598005Y-73689820D01*
X152635501Y-73678445D01*
X152680638Y-73674000D01*
X153419362Y-73674000D01*
X153464499Y-73678445D01*
G37*
G36*
X151714499Y-73678445D02*
G01*
X151751995Y-73689820D01*
X151786554Y-73708292D01*
X151816847Y-73733153D01*
X151841708Y-73763446D01*
X151860180Y-73798005D01*
X151871555Y-73835501D01*
X151876000Y-73880638D01*
X151876000Y-74519362D01*
X151871555Y-74564499D01*
X151860180Y-74601995D01*
X151841708Y-74636554D01*
X151816847Y-74666847D01*
X151786554Y-74691708D01*
X151751995Y-74710180D01*
X151714499Y-74721555D01*
X151669362Y-74726000D01*
X150930638Y-74726000D01*
X150885501Y-74721555D01*
X150848005Y-74710180D01*
X150813446Y-74691708D01*
X150783153Y-74666847D01*
X150758292Y-74636554D01*
X150739820Y-74601995D01*
X150728445Y-74564499D01*
X150724000Y-74519362D01*
X150724000Y-73880638D01*
X150728445Y-73835501D01*
X150739820Y-73798005D01*
X150758292Y-73763446D01*
X150783153Y-73733153D01*
X150813446Y-73708292D01*
X150848005Y-73689820D01*
X150885501Y-73678445D01*
X150930638Y-73674000D01*
X151669362Y-73674000D01*
X151714499Y-73678445D01*
G37*
G36*
X155564499Y-73578445D02*
G01*
X155601995Y-73589820D01*
X155636554Y-73608292D01*
X155666847Y-73633153D01*
X155691708Y-73663446D01*
X155710180Y-73698005D01*
X155721555Y-73735501D01*
X155726000Y-73780638D01*
X155726000Y-74519362D01*
X155721555Y-74564499D01*
X155710180Y-74601995D01*
X155691708Y-74636554D01*
X155666847Y-74666847D01*
X155636554Y-74691708D01*
X155601995Y-74710180D01*
X155564499Y-74721555D01*
X155519362Y-74726000D01*
X154880638Y-74726000D01*
X154835501Y-74721555D01*
X154798005Y-74710180D01*
X154763446Y-74691708D01*
X154733153Y-74666847D01*
X154708292Y-74636554D01*
X154689820Y-74601995D01*
X154678445Y-74564499D01*
X154674000Y-74519362D01*
X154674000Y-73780638D01*
X154678445Y-73735501D01*
X154689820Y-73698005D01*
X154708292Y-73663446D01*
X154733153Y-73633153D01*
X154763446Y-73608292D01*
X154798005Y-73589820D01*
X154835501Y-73578445D01*
X154880638Y-73574000D01*
X155519362Y-73574000D01*
X155564499Y-73578445D01*
G37*
G36*
X123879591Y-73690585D02*
G01*
X123913569Y-73700893D01*
X123944890Y-73717634D01*
X123972339Y-73740161D01*
X123994866Y-73767610D01*
X124011607Y-73798931D01*
X124021915Y-73832909D01*
X124026000Y-73874390D01*
X124026000Y-74475610D01*
X124021915Y-74517091D01*
X124011607Y-74551069D01*
X123994866Y-74582390D01*
X123972339Y-74609839D01*
X123944890Y-74632366D01*
X123913569Y-74649107D01*
X123879591Y-74659415D01*
X123838110Y-74663500D01*
X123161890Y-74663500D01*
X123120409Y-74659415D01*
X123086431Y-74649107D01*
X123055110Y-74632366D01*
X123027661Y-74609839D01*
X123005134Y-74582390D01*
X122988393Y-74551069D01*
X122978085Y-74517091D01*
X122974000Y-74475610D01*
X122974000Y-73874390D01*
X122978085Y-73832909D01*
X122988393Y-73798931D01*
X123005134Y-73767610D01*
X123027661Y-73740161D01*
X123055110Y-73717634D01*
X123086431Y-73700893D01*
X123120409Y-73690585D01*
X123161890Y-73686500D01*
X123838110Y-73686500D01*
X123879591Y-73690585D01*
G37*
G36*
X120945781Y-73115795D02*
G01*
X120981816Y-73126727D01*
X121015024Y-73144477D01*
X121044134Y-73168366D01*
X121068023Y-73197476D01*
X121085773Y-73230684D01*
X121096705Y-73266719D01*
X121101000Y-73310331D01*
X121101000Y-74339669D01*
X121096705Y-74383281D01*
X121085773Y-74419316D01*
X121068023Y-74452524D01*
X121044134Y-74481634D01*
X121015024Y-74505523D01*
X120981816Y-74523273D01*
X120945781Y-74534205D01*
X120902169Y-74538500D01*
X119897831Y-74538500D01*
X119854219Y-74534205D01*
X119818184Y-74523273D01*
X119784976Y-74505523D01*
X119755866Y-74481634D01*
X119731977Y-74452524D01*
X119714227Y-74419316D01*
X119703295Y-74383281D01*
X119699000Y-74339669D01*
X119699000Y-73310331D01*
X119703295Y-73266719D01*
X119714227Y-73230684D01*
X119731977Y-73197476D01*
X119755866Y-73168366D01*
X119784976Y-73144477D01*
X119818184Y-73126727D01*
X119854219Y-73115795D01*
X119897831Y-73111500D01*
X120902169Y-73111500D01*
X120945781Y-73115795D01*
G37*
G36*
X116841568Y-69634000D02*
G01*
X117054675Y-69722272D01*
X117054677Y-69722273D01*
X117246469Y-69850425D01*
X117409575Y-70013531D01*
X117499428Y-70148005D01*
X117537728Y-70205325D01*
X117626000Y-70418432D01*
X117671000Y-70644665D01*
X117671000Y-70875335D01*
X117626000Y-71101568D01*
X117537728Y-71314675D01*
X117537727Y-71314677D01*
X117409575Y-71506469D01*
X117246469Y-71669575D01*
X117054677Y-71797727D01*
X117054676Y-71797728D01*
X117054675Y-71797728D01*
X116835491Y-71888517D01*
X116813880Y-71900068D01*
X116794938Y-71915613D01*
X116779393Y-71934555D01*
X116767842Y-71956166D01*
X116760729Y-71979615D01*
X116758327Y-72004001D01*
X116760729Y-72028387D01*
X116767842Y-72051836D01*
X116779393Y-72073447D01*
X116794938Y-72092389D01*
X116813880Y-72107934D01*
X116835491Y-72119485D01*
X116858940Y-72126598D01*
X116883326Y-72129000D01*
X117671000Y-72129000D01*
X117671000Y-74471000D01*
X115329000Y-74471000D01*
X115329000Y-72129000D01*
X116116674Y-72129000D01*
X116141060Y-72126598D01*
X116164509Y-72119485D01*
X116186120Y-72107934D01*
X116205062Y-72092389D01*
X116220607Y-72073447D01*
X116232158Y-72051836D01*
X116239271Y-72028387D01*
X116241673Y-72004001D01*
X116239271Y-71979615D01*
X116232158Y-71956166D01*
X116220607Y-71934555D01*
X116205062Y-71915613D01*
X116186120Y-71900068D01*
X116164509Y-71888517D01*
X115945325Y-71797728D01*
X115945324Y-71797728D01*
X115945323Y-71797727D01*
X115753531Y-71669575D01*
X115590425Y-71506469D01*
X115462273Y-71314677D01*
X115462272Y-71314675D01*
X115374000Y-71101568D01*
X115329000Y-70875335D01*
X115329000Y-70644665D01*
X115374000Y-70418432D01*
X115462272Y-70205325D01*
X115500572Y-70148005D01*
X115590425Y-70013531D01*
X115753531Y-69850425D01*
X115945323Y-69722273D01*
X115945325Y-69722272D01*
X116158432Y-69634000D01*
X116384665Y-69589000D01*
X116615335Y-69589000D01*
X116841568Y-69634000D01*
G37*
G36*
X159634928Y-73651764D02*
G01*
X159656009Y-73658160D01*
X159675445Y-73668548D01*
X159692476Y-73682524D01*
X159706452Y-73699555D01*
X159716840Y-73718991D01*
X159723236Y-73740072D01*
X159726000Y-73768140D01*
X159726000Y-74231860D01*
X159723236Y-74259928D01*
X159716840Y-74281009D01*
X159706452Y-74300445D01*
X159692476Y-74317476D01*
X159675445Y-74331452D01*
X159656009Y-74341840D01*
X159634928Y-74348236D01*
X159606860Y-74351000D01*
X158093140Y-74351000D01*
X158065072Y-74348236D01*
X158043991Y-74341840D01*
X158024555Y-74331452D01*
X158007524Y-74317476D01*
X157993548Y-74300445D01*
X157983160Y-74281009D01*
X157976764Y-74259928D01*
X157974000Y-74231860D01*
X157974000Y-73768140D01*
X157976764Y-73740072D01*
X157983160Y-73718991D01*
X157993548Y-73699555D01*
X158007524Y-73682524D01*
X158024555Y-73668548D01*
X158043991Y-73658160D01*
X158065072Y-73651764D01*
X158093140Y-73649000D01*
X159606860Y-73649000D01*
X159634928Y-73651764D01*
G37*
G36*
X164884928Y-73651764D02*
G01*
X164906009Y-73658160D01*
X164925445Y-73668548D01*
X164942476Y-73682524D01*
X164956452Y-73699555D01*
X164966840Y-73718991D01*
X164973236Y-73740072D01*
X164976000Y-73768140D01*
X164976000Y-74231860D01*
X164973236Y-74259928D01*
X164966840Y-74281009D01*
X164956452Y-74300445D01*
X164942476Y-74317476D01*
X164925445Y-74331452D01*
X164906009Y-74341840D01*
X164884928Y-74348236D01*
X164856860Y-74351000D01*
X163343140Y-74351000D01*
X163315072Y-74348236D01*
X163293991Y-74341840D01*
X163274555Y-74331452D01*
X163257524Y-74317476D01*
X163243548Y-74300445D01*
X163233160Y-74281009D01*
X163226764Y-74259928D01*
X163224000Y-74231860D01*
X163224000Y-73768140D01*
X163226764Y-73740072D01*
X163233160Y-73718991D01*
X163243548Y-73699555D01*
X163257524Y-73682524D01*
X163274555Y-73668548D01*
X163293991Y-73658160D01*
X163315072Y-73651764D01*
X163343140Y-73649000D01*
X164856860Y-73649000D01*
X164884928Y-73651764D01*
G37*
G36*
X132501000Y-74201000D02*
G01*
X131599000Y-74201000D01*
X131599000Y-73199000D01*
X132501000Y-73199000D01*
X132501000Y-74201000D01*
G37*
G36*
X130601000Y-74201000D02*
G01*
X129699000Y-74201000D01*
X129699000Y-73199000D01*
X130601000Y-73199000D01*
X130601000Y-74201000D01*
G37*
G36*
X123879591Y-72115585D02*
G01*
X123913569Y-72125893D01*
X123944890Y-72142634D01*
X123972339Y-72165161D01*
X123994866Y-72192610D01*
X124011607Y-72223931D01*
X124021915Y-72257909D01*
X124026000Y-72299390D01*
X124026000Y-72900610D01*
X124021915Y-72942091D01*
X124011607Y-72976069D01*
X123994866Y-73007390D01*
X123972339Y-73034839D01*
X123944890Y-73057366D01*
X123913569Y-73074107D01*
X123879591Y-73084415D01*
X123838110Y-73088500D01*
X123161890Y-73088500D01*
X123120409Y-73084415D01*
X123086431Y-73074107D01*
X123055110Y-73057366D01*
X123027661Y-73034839D01*
X123005134Y-73007390D01*
X122988393Y-72976069D01*
X122978085Y-72942091D01*
X122974000Y-72900610D01*
X122974000Y-72299390D01*
X122978085Y-72257909D01*
X122988393Y-72223931D01*
X123005134Y-72192610D01*
X123027661Y-72165161D01*
X123055110Y-72142634D01*
X123086431Y-72125893D01*
X123120409Y-72115585D01*
X123161890Y-72111500D01*
X123838110Y-72111500D01*
X123879591Y-72115585D01*
G37*
G36*
X159634928Y-72381764D02*
G01*
X159656009Y-72388160D01*
X159675445Y-72398548D01*
X159692476Y-72412524D01*
X159706452Y-72429555D01*
X159716840Y-72448991D01*
X159723236Y-72470072D01*
X159726000Y-72498140D01*
X159726000Y-72961860D01*
X159723236Y-72989928D01*
X159716840Y-73011009D01*
X159706452Y-73030445D01*
X159692476Y-73047476D01*
X159675445Y-73061452D01*
X159656009Y-73071840D01*
X159634928Y-73078236D01*
X159606860Y-73081000D01*
X158093140Y-73081000D01*
X158065072Y-73078236D01*
X158043991Y-73071840D01*
X158024555Y-73061452D01*
X158007524Y-73047476D01*
X157993548Y-73030445D01*
X157983160Y-73011009D01*
X157976764Y-72989928D01*
X157974000Y-72961860D01*
X157974000Y-72498140D01*
X157976764Y-72470072D01*
X157983160Y-72448991D01*
X157993548Y-72429555D01*
X158007524Y-72412524D01*
X158024555Y-72398548D01*
X158043991Y-72388160D01*
X158065072Y-72381764D01*
X158093140Y-72379000D01*
X159606860Y-72379000D01*
X159634928Y-72381764D01*
G37*
G36*
X164884928Y-72381764D02*
G01*
X164906009Y-72388160D01*
X164925445Y-72398548D01*
X164942476Y-72412524D01*
X164956452Y-72429555D01*
X164966840Y-72448991D01*
X164973236Y-72470072D01*
X164976000Y-72498140D01*
X164976000Y-72961860D01*
X164973236Y-72989928D01*
X164966840Y-73011009D01*
X164956452Y-73030445D01*
X164942476Y-73047476D01*
X164925445Y-73061452D01*
X164906009Y-73071840D01*
X164884928Y-73078236D01*
X164856860Y-73081000D01*
X163343140Y-73081000D01*
X163315072Y-73078236D01*
X163293991Y-73071840D01*
X163274555Y-73061452D01*
X163257524Y-73047476D01*
X163243548Y-73030445D01*
X163233160Y-73011009D01*
X163226764Y-72989928D01*
X163224000Y-72961860D01*
X163224000Y-72498140D01*
X163226764Y-72470072D01*
X163233160Y-72448991D01*
X163243548Y-72429555D01*
X163257524Y-72412524D01*
X163274555Y-72398548D01*
X163293991Y-72388160D01*
X163315072Y-72381764D01*
X163343140Y-72379000D01*
X164856860Y-72379000D01*
X164884928Y-72381764D01*
G37*
G36*
X167314499Y-71778445D02*
G01*
X167351995Y-71789820D01*
X167386554Y-71808292D01*
X167416847Y-71833153D01*
X167441708Y-71863446D01*
X167460180Y-71898005D01*
X167471555Y-71935501D01*
X167476000Y-71980638D01*
X167476000Y-72719362D01*
X167471555Y-72764499D01*
X167460180Y-72801995D01*
X167441708Y-72836554D01*
X167416847Y-72866847D01*
X167386554Y-72891708D01*
X167351995Y-72910180D01*
X167314499Y-72921555D01*
X167269362Y-72926000D01*
X166630638Y-72926000D01*
X166585501Y-72921555D01*
X166548005Y-72910180D01*
X166513446Y-72891708D01*
X166483153Y-72866847D01*
X166458292Y-72836554D01*
X166439820Y-72801995D01*
X166428445Y-72764499D01*
X166424000Y-72719362D01*
X166424000Y-71980638D01*
X166428445Y-71935501D01*
X166439820Y-71898005D01*
X166458292Y-71863446D01*
X166483153Y-71833153D01*
X166513446Y-71808292D01*
X166548005Y-71789820D01*
X166585501Y-71778445D01*
X166630638Y-71774000D01*
X167269362Y-71774000D01*
X167314499Y-71778445D01*
G37*
G36*
X120945781Y-71190795D02*
G01*
X120981816Y-71201727D01*
X121015024Y-71219477D01*
X121044134Y-71243366D01*
X121068023Y-71272476D01*
X121085773Y-71305684D01*
X121096705Y-71341719D01*
X121101000Y-71385331D01*
X121101000Y-72414669D01*
X121096705Y-72458281D01*
X121085773Y-72494316D01*
X121068023Y-72527524D01*
X121044134Y-72556634D01*
X121015024Y-72580523D01*
X120981816Y-72598273D01*
X120945781Y-72609205D01*
X120902169Y-72613500D01*
X119897831Y-72613500D01*
X119854219Y-72609205D01*
X119818184Y-72598273D01*
X119784976Y-72580523D01*
X119755866Y-72556634D01*
X119731977Y-72527524D01*
X119714227Y-72494316D01*
X119703295Y-72458281D01*
X119699000Y-72414669D01*
X119699000Y-71385331D01*
X119703295Y-71341719D01*
X119714227Y-71305684D01*
X119731977Y-71272476D01*
X119755866Y-71243366D01*
X119784976Y-71219477D01*
X119818184Y-71201727D01*
X119854219Y-71190795D01*
X119897831Y-71186500D01*
X120902169Y-71186500D01*
X120945781Y-71190795D01*
G37*
G36*
X131551000Y-72201000D02*
G01*
X130649000Y-72201000D01*
X130649000Y-71199000D01*
X131551000Y-71199000D01*
X131551000Y-72201000D01*
G37*
G36*
X159634928Y-71111764D02*
G01*
X159656009Y-71118160D01*
X159675445Y-71128548D01*
X159692476Y-71142524D01*
X159706452Y-71159555D01*
X159716840Y-71178991D01*
X159723236Y-71200072D01*
X159726000Y-71228140D01*
X159726000Y-71691860D01*
X159723236Y-71719928D01*
X159716840Y-71741009D01*
X159706452Y-71760445D01*
X159692476Y-71777476D01*
X159675445Y-71791452D01*
X159656009Y-71801840D01*
X159634928Y-71808236D01*
X159606860Y-71811000D01*
X158093140Y-71811000D01*
X158065072Y-71808236D01*
X158043991Y-71801840D01*
X158024555Y-71791452D01*
X158007524Y-71777476D01*
X157993548Y-71760445D01*
X157983160Y-71741009D01*
X157976764Y-71719928D01*
X157974000Y-71691860D01*
X157974000Y-71228140D01*
X157976764Y-71200072D01*
X157983160Y-71178991D01*
X157993548Y-71159555D01*
X158007524Y-71142524D01*
X158024555Y-71128548D01*
X158043991Y-71118160D01*
X158065072Y-71111764D01*
X158093140Y-71109000D01*
X159606860Y-71109000D01*
X159634928Y-71111764D01*
G37*
G36*
X164884928Y-71111764D02*
G01*
X164906009Y-71118160D01*
X164925445Y-71128548D01*
X164942476Y-71142524D01*
X164956452Y-71159555D01*
X164966840Y-71178991D01*
X164973236Y-71200072D01*
X164976000Y-71228140D01*
X164976000Y-71691860D01*
X164973236Y-71719928D01*
X164966840Y-71741009D01*
X164956452Y-71760445D01*
X164942476Y-71777476D01*
X164925445Y-71791452D01*
X164906009Y-71801840D01*
X164884928Y-71808236D01*
X164856860Y-71811000D01*
X163343140Y-71811000D01*
X163315072Y-71808236D01*
X163293991Y-71801840D01*
X163274555Y-71791452D01*
X163257524Y-71777476D01*
X163243548Y-71760445D01*
X163233160Y-71741009D01*
X163226764Y-71719928D01*
X163224000Y-71691860D01*
X163224000Y-71228140D01*
X163226764Y-71200072D01*
X163233160Y-71178991D01*
X163243548Y-71159555D01*
X163257524Y-71142524D01*
X163274555Y-71128548D01*
X163293991Y-71118160D01*
X163315072Y-71111764D01*
X163343140Y-71109000D01*
X164856860Y-71109000D01*
X164884928Y-71111764D01*
G37*
G36*
X167314499Y-70028445D02*
G01*
X167351995Y-70039820D01*
X167386554Y-70058292D01*
X167416847Y-70083153D01*
X167441708Y-70113446D01*
X167460180Y-70148005D01*
X167471555Y-70185501D01*
X167476000Y-70230638D01*
X167476000Y-70969362D01*
X167471555Y-71014499D01*
X167460180Y-71051995D01*
X167441708Y-71086554D01*
X167416847Y-71116847D01*
X167386554Y-71141708D01*
X167351995Y-71160180D01*
X167314499Y-71171555D01*
X167269362Y-71176000D01*
X166630638Y-71176000D01*
X166585501Y-71171555D01*
X166548005Y-71160180D01*
X166513446Y-71141708D01*
X166483153Y-71116847D01*
X166458292Y-71086554D01*
X166439820Y-71051995D01*
X166428445Y-71014499D01*
X166424000Y-70969362D01*
X166424000Y-70230638D01*
X166428445Y-70185501D01*
X166439820Y-70148005D01*
X166458292Y-70113446D01*
X166483153Y-70083153D01*
X166513446Y-70058292D01*
X166548005Y-70039820D01*
X166585501Y-70028445D01*
X166630638Y-70024000D01*
X167269362Y-70024000D01*
X167314499Y-70028445D01*
G37*
G36*
X130739499Y-69078445D02*
G01*
X130776995Y-69089820D01*
X130811554Y-69108292D01*
X130841847Y-69133153D01*
X130866708Y-69163446D01*
X130885180Y-69198005D01*
X130896555Y-69235501D01*
X130901000Y-69280638D01*
X130901000Y-69919362D01*
X130896555Y-69964499D01*
X130885180Y-70001995D01*
X130866708Y-70036554D01*
X130841847Y-70066847D01*
X130811554Y-70091708D01*
X130776995Y-70110180D01*
X130739499Y-70121555D01*
X130694362Y-70126000D01*
X129955638Y-70126000D01*
X129910501Y-70121555D01*
X129873005Y-70110180D01*
X129838446Y-70091708D01*
X129808153Y-70066847D01*
X129783292Y-70036554D01*
X129764820Y-70001995D01*
X129753445Y-69964499D01*
X129749000Y-69919362D01*
X129749000Y-69280638D01*
X129753445Y-69235501D01*
X129764820Y-69198005D01*
X129783292Y-69163446D01*
X129808153Y-69133153D01*
X129838446Y-69108292D01*
X129873005Y-69089820D01*
X129910501Y-69078445D01*
X129955638Y-69074000D01*
X130694362Y-69074000D01*
X130739499Y-69078445D01*
G37*
G36*
X132489499Y-69078445D02*
G01*
X132526995Y-69089820D01*
X132561554Y-69108292D01*
X132591847Y-69133153D01*
X132616708Y-69163446D01*
X132635180Y-69198005D01*
X132646555Y-69235501D01*
X132651000Y-69280638D01*
X132651000Y-69919362D01*
X132646555Y-69964499D01*
X132635180Y-70001995D01*
X132616708Y-70036554D01*
X132591847Y-70066847D01*
X132561554Y-70091708D01*
X132526995Y-70110180D01*
X132489499Y-70121555D01*
X132444362Y-70126000D01*
X131705638Y-70126000D01*
X131660501Y-70121555D01*
X131623005Y-70110180D01*
X131588446Y-70091708D01*
X131558153Y-70066847D01*
X131533292Y-70036554D01*
X131514820Y-70001995D01*
X131503445Y-69964499D01*
X131499000Y-69919362D01*
X131499000Y-69280638D01*
X131503445Y-69235501D01*
X131514820Y-69198005D01*
X131533292Y-69163446D01*
X131558153Y-69133153D01*
X131588446Y-69108292D01*
X131623005Y-69089820D01*
X131660501Y-69078445D01*
X131705638Y-69074000D01*
X132444362Y-69074000D01*
X132489499Y-69078445D01*
G37*
G36*
X175214499Y-63478445D02*
G01*
X175251995Y-63489820D01*
X175286554Y-63508292D01*
X175316847Y-63533153D01*
X175341708Y-63563446D01*
X175360180Y-63598005D01*
X175371555Y-63635501D01*
X175376000Y-63680638D01*
X175376000Y-64319362D01*
X175371555Y-64364499D01*
X175360180Y-64401995D01*
X175341708Y-64436554D01*
X175316847Y-64466847D01*
X175286554Y-64491708D01*
X175251995Y-64510180D01*
X175214499Y-64521555D01*
X175169362Y-64526000D01*
X174430638Y-64526000D01*
X174385501Y-64521555D01*
X174348005Y-64510180D01*
X174313446Y-64491708D01*
X174283153Y-64466847D01*
X174258292Y-64436554D01*
X174239820Y-64401995D01*
X174228445Y-64364499D01*
X174224000Y-64319362D01*
X174224000Y-63680638D01*
X174228445Y-63635501D01*
X174239820Y-63598005D01*
X174258292Y-63563446D01*
X174283153Y-63533153D01*
X174313446Y-63508292D01*
X174348005Y-63489820D01*
X174385501Y-63478445D01*
X174430638Y-63474000D01*
X175169362Y-63474000D01*
X175214499Y-63478445D01*
G37*
G36*
X173464499Y-63478445D02*
G01*
X173501995Y-63489820D01*
X173536554Y-63508292D01*
X173566847Y-63533153D01*
X173591708Y-63563446D01*
X173610180Y-63598005D01*
X173621555Y-63635501D01*
X173626000Y-63680638D01*
X173626000Y-64319362D01*
X173621555Y-64364499D01*
X173610180Y-64401995D01*
X173591708Y-64436554D01*
X173566847Y-64466847D01*
X173536554Y-64491708D01*
X173501995Y-64510180D01*
X173464499Y-64521555D01*
X173419362Y-64526000D01*
X172680638Y-64526000D01*
X172635501Y-64521555D01*
X172598005Y-64510180D01*
X172563446Y-64491708D01*
X172533153Y-64466847D01*
X172508292Y-64436554D01*
X172489820Y-64401995D01*
X172478445Y-64364499D01*
X172474000Y-64319362D01*
X172474000Y-63680638D01*
X172478445Y-63635501D01*
X172489820Y-63598005D01*
X172508292Y-63563446D01*
X172533153Y-63533153D01*
X172563446Y-63508292D01*
X172598005Y-63489820D01*
X172635501Y-63478445D01*
X172680638Y-63474000D01*
X173419362Y-63474000D01*
X173464499Y-63478445D01*
G37*
G36*
X169314499Y-63378445D02*
G01*
X169351995Y-63389820D01*
X169386554Y-63408292D01*
X169416847Y-63433153D01*
X169441708Y-63463446D01*
X169460180Y-63498005D01*
X169471555Y-63535501D01*
X169476000Y-63580638D01*
X169476000Y-64219362D01*
X169471555Y-64264499D01*
X169460180Y-64301995D01*
X169441708Y-64336554D01*
X169416847Y-64366847D01*
X169386554Y-64391708D01*
X169351995Y-64410180D01*
X169314499Y-64421555D01*
X169269362Y-64426000D01*
X168530638Y-64426000D01*
X168485501Y-64421555D01*
X168448005Y-64410180D01*
X168413446Y-64391708D01*
X168383153Y-64366847D01*
X168358292Y-64336554D01*
X168339820Y-64301995D01*
X168328445Y-64264499D01*
X168324000Y-64219362D01*
X168324000Y-63580638D01*
X168328445Y-63535501D01*
X168339820Y-63498005D01*
X168358292Y-63463446D01*
X168383153Y-63433153D01*
X168413446Y-63408292D01*
X168448005Y-63389820D01*
X168485501Y-63378445D01*
X168530638Y-63374000D01*
X169269362Y-63374000D01*
X169314499Y-63378445D01*
G37*
G36*
X167564499Y-63378445D02*
G01*
X167601995Y-63389820D01*
X167636554Y-63408292D01*
X167666847Y-63433153D01*
X167691708Y-63463446D01*
X167710180Y-63498005D01*
X167721555Y-63535501D01*
X167726000Y-63580638D01*
X167726000Y-64219362D01*
X167721555Y-64264499D01*
X167710180Y-64301995D01*
X167691708Y-64336554D01*
X167666847Y-64366847D01*
X167636554Y-64391708D01*
X167601995Y-64410180D01*
X167564499Y-64421555D01*
X167519362Y-64426000D01*
X166780638Y-64426000D01*
X166735501Y-64421555D01*
X166698005Y-64410180D01*
X166663446Y-64391708D01*
X166633153Y-64366847D01*
X166608292Y-64336554D01*
X166589820Y-64301995D01*
X166578445Y-64264499D01*
X166574000Y-64219362D01*
X166574000Y-63580638D01*
X166578445Y-63535501D01*
X166589820Y-63498005D01*
X166608292Y-63463446D01*
X166633153Y-63433153D01*
X166663446Y-63408292D01*
X166698005Y-63389820D01*
X166735501Y-63378445D01*
X166780638Y-63374000D01*
X167519362Y-63374000D01*
X167564499Y-63378445D01*
G37*
G36*
X171364499Y-63228445D02*
G01*
X171401995Y-63239820D01*
X171436554Y-63258292D01*
X171466847Y-63283153D01*
X171491708Y-63313446D01*
X171510180Y-63348005D01*
X171521555Y-63385501D01*
X171526000Y-63430638D01*
X171526000Y-64169362D01*
X171521555Y-64214499D01*
X171510180Y-64251995D01*
X171491708Y-64286554D01*
X171466847Y-64316847D01*
X171436554Y-64341708D01*
X171401995Y-64360180D01*
X171364499Y-64371555D01*
X171319362Y-64376000D01*
X170680638Y-64376000D01*
X170635501Y-64371555D01*
X170598005Y-64360180D01*
X170563446Y-64341708D01*
X170533153Y-64316847D01*
X170508292Y-64286554D01*
X170489820Y-64251995D01*
X170478445Y-64214499D01*
X170474000Y-64169362D01*
X170474000Y-63430638D01*
X170478445Y-63385501D01*
X170489820Y-63348005D01*
X170508292Y-63313446D01*
X170533153Y-63283153D01*
X170563446Y-63258292D01*
X170598005Y-63239820D01*
X170635501Y-63228445D01*
X170680638Y-63224000D01*
X171319362Y-63224000D01*
X171364499Y-63228445D01*
G37*
G36*
X165464499Y-63203445D02*
G01*
X165501995Y-63214820D01*
X165536554Y-63233292D01*
X165566847Y-63258153D01*
X165591708Y-63288446D01*
X165610180Y-63323005D01*
X165621555Y-63360501D01*
X165626000Y-63405638D01*
X165626000Y-64144362D01*
X165621555Y-64189499D01*
X165610180Y-64226995D01*
X165591708Y-64261554D01*
X165566847Y-64291847D01*
X165536554Y-64316708D01*
X165501995Y-64335180D01*
X165464499Y-64346555D01*
X165419362Y-64351000D01*
X164780638Y-64351000D01*
X164735501Y-64346555D01*
X164698005Y-64335180D01*
X164663446Y-64316708D01*
X164633153Y-64291847D01*
X164608292Y-64261554D01*
X164589820Y-64226995D01*
X164578445Y-64189499D01*
X164574000Y-64144362D01*
X164574000Y-63405638D01*
X164578445Y-63360501D01*
X164589820Y-63323005D01*
X164608292Y-63288446D01*
X164633153Y-63258153D01*
X164663446Y-63233292D01*
X164698005Y-63214820D01*
X164735501Y-63203445D01*
X164780638Y-63199000D01*
X165419362Y-63199000D01*
X165464499Y-63203445D01*
G37*
G36*
X130651000Y-64151000D02*
G01*
X129349000Y-64151000D01*
X129349000Y-63249000D01*
X130651000Y-63249000D01*
X130651000Y-64151000D01*
G37*
G36*
X136651000Y-64151000D02*
G01*
X135349000Y-64151000D01*
X135349000Y-63249000D01*
X136651000Y-63249000D01*
X136651000Y-64151000D01*
G37*
G36*
X145964499Y-63003445D02*
G01*
X146001995Y-63014820D01*
X146036554Y-63033292D01*
X146066847Y-63058153D01*
X146091708Y-63088446D01*
X146110180Y-63123005D01*
X146121555Y-63160501D01*
X146126000Y-63205638D01*
X146126000Y-63944362D01*
X146121555Y-63989499D01*
X146110180Y-64026995D01*
X146091708Y-64061554D01*
X146066847Y-64091847D01*
X146036554Y-64116708D01*
X146001995Y-64135180D01*
X145964499Y-64146555D01*
X145919362Y-64151000D01*
X145280638Y-64151000D01*
X145235501Y-64146555D01*
X145198005Y-64135180D01*
X145163446Y-64116708D01*
X145133153Y-64091847D01*
X145108292Y-64061554D01*
X145089820Y-64026995D01*
X145078445Y-63989499D01*
X145074000Y-63944362D01*
X145074000Y-63205638D01*
X145078445Y-63160501D01*
X145089820Y-63123005D01*
X145108292Y-63088446D01*
X145133153Y-63058153D01*
X145163446Y-63033292D01*
X145198005Y-63014820D01*
X145235501Y-63003445D01*
X145280638Y-62999000D01*
X145919362Y-62999000D01*
X145964499Y-63003445D01*
G37*
G36*
X149764499Y-63078445D02*
G01*
X149801995Y-63089820D01*
X149836554Y-63108292D01*
X149866847Y-63133153D01*
X149891708Y-63163446D01*
X149910180Y-63198005D01*
X149921555Y-63235501D01*
X149926000Y-63280638D01*
X149926000Y-63919362D01*
X149921555Y-63964499D01*
X149910180Y-64001995D01*
X149891708Y-64036554D01*
X149866847Y-64066847D01*
X149836554Y-64091708D01*
X149801995Y-64110180D01*
X149764499Y-64121555D01*
X149719362Y-64126000D01*
X148980638Y-64126000D01*
X148935501Y-64121555D01*
X148898005Y-64110180D01*
X148863446Y-64091708D01*
X148833153Y-64066847D01*
X148808292Y-64036554D01*
X148789820Y-64001995D01*
X148778445Y-63964499D01*
X148774000Y-63919362D01*
X148774000Y-63280638D01*
X148778445Y-63235501D01*
X148789820Y-63198005D01*
X148808292Y-63163446D01*
X148833153Y-63133153D01*
X148863446Y-63108292D01*
X148898005Y-63089820D01*
X148935501Y-63078445D01*
X148980638Y-63074000D01*
X149719362Y-63074000D01*
X149764499Y-63078445D01*
G37*
G36*
X148014499Y-63078445D02*
G01*
X148051995Y-63089820D01*
X148086554Y-63108292D01*
X148116847Y-63133153D01*
X148141708Y-63163446D01*
X148160180Y-63198005D01*
X148171555Y-63235501D01*
X148176000Y-63280638D01*
X148176000Y-63919362D01*
X148171555Y-63964499D01*
X148160180Y-64001995D01*
X148141708Y-64036554D01*
X148116847Y-64066847D01*
X148086554Y-64091708D01*
X148051995Y-64110180D01*
X148014499Y-64121555D01*
X147969362Y-64126000D01*
X147230638Y-64126000D01*
X147185501Y-64121555D01*
X147148005Y-64110180D01*
X147113446Y-64091708D01*
X147083153Y-64066847D01*
X147058292Y-64036554D01*
X147039820Y-64001995D01*
X147028445Y-63964499D01*
X147024000Y-63919362D01*
X147024000Y-63280638D01*
X147028445Y-63235501D01*
X147039820Y-63198005D01*
X147058292Y-63163446D01*
X147083153Y-63133153D01*
X147113446Y-63108292D01*
X147148005Y-63089820D01*
X147185501Y-63078445D01*
X147230638Y-63074000D01*
X147969362Y-63074000D01*
X148014499Y-63078445D01*
G37*
G36*
X142139499Y-63078445D02*
G01*
X142176995Y-63089820D01*
X142211554Y-63108292D01*
X142241847Y-63133153D01*
X142266708Y-63163446D01*
X142285180Y-63198005D01*
X142296555Y-63235501D01*
X142301000Y-63280638D01*
X142301000Y-63919362D01*
X142296555Y-63964499D01*
X142285180Y-64001995D01*
X142266708Y-64036554D01*
X142241847Y-64066847D01*
X142211554Y-64091708D01*
X142176995Y-64110180D01*
X142139499Y-64121555D01*
X142094362Y-64126000D01*
X141355638Y-64126000D01*
X141310501Y-64121555D01*
X141273005Y-64110180D01*
X141238446Y-64091708D01*
X141208153Y-64066847D01*
X141183292Y-64036554D01*
X141164820Y-64001995D01*
X141153445Y-63964499D01*
X141149000Y-63919362D01*
X141149000Y-63280638D01*
X141153445Y-63235501D01*
X141164820Y-63198005D01*
X141183292Y-63163446D01*
X141208153Y-63133153D01*
X141238446Y-63108292D01*
X141273005Y-63089820D01*
X141310501Y-63078445D01*
X141355638Y-63074000D01*
X142094362Y-63074000D01*
X142139499Y-63078445D01*
G37*
G36*
X143889499Y-63078445D02*
G01*
X143926995Y-63089820D01*
X143961554Y-63108292D01*
X143991847Y-63133153D01*
X144016708Y-63163446D01*
X144035180Y-63198005D01*
X144046555Y-63235501D01*
X144051000Y-63280638D01*
X144051000Y-63919362D01*
X144046555Y-63964499D01*
X144035180Y-64001995D01*
X144016708Y-64036554D01*
X143991847Y-64066847D01*
X143961554Y-64091708D01*
X143926995Y-64110180D01*
X143889499Y-64121555D01*
X143844362Y-64126000D01*
X143105638Y-64126000D01*
X143060501Y-64121555D01*
X143023005Y-64110180D01*
X142988446Y-64091708D01*
X142958153Y-64066847D01*
X142933292Y-64036554D01*
X142914820Y-64001995D01*
X142903445Y-63964499D01*
X142899000Y-63919362D01*
X142899000Y-63280638D01*
X142903445Y-63235501D01*
X142914820Y-63198005D01*
X142933292Y-63163446D01*
X142958153Y-63133153D01*
X142988446Y-63108292D01*
X143023005Y-63089820D01*
X143060501Y-63078445D01*
X143105638Y-63074000D01*
X143844362Y-63074000D01*
X143889499Y-63078445D01*
G37*
G36*
X151964499Y-62903445D02*
G01*
X152001995Y-62914820D01*
X152036554Y-62933292D01*
X152066847Y-62958153D01*
X152091708Y-62988446D01*
X152110180Y-63023005D01*
X152121555Y-63060501D01*
X152126000Y-63105638D01*
X152126000Y-63844362D01*
X152121555Y-63889499D01*
X152110180Y-63926995D01*
X152091708Y-63961554D01*
X152066847Y-63991847D01*
X152036554Y-64016708D01*
X152001995Y-64035180D01*
X151964499Y-64046555D01*
X151919362Y-64051000D01*
X151280638Y-64051000D01*
X151235501Y-64046555D01*
X151198005Y-64035180D01*
X151163446Y-64016708D01*
X151133153Y-63991847D01*
X151108292Y-63961554D01*
X151089820Y-63926995D01*
X151078445Y-63889499D01*
X151074000Y-63844362D01*
X151074000Y-63105638D01*
X151078445Y-63060501D01*
X151089820Y-63023005D01*
X151108292Y-62988446D01*
X151133153Y-62958153D01*
X151163446Y-62933292D01*
X151198005Y-62914820D01*
X151235501Y-62903445D01*
X151280638Y-62899000D01*
X151919362Y-62899000D01*
X151964499Y-62903445D01*
G37*
G36*
X161209928Y-62896764D02*
G01*
X161231009Y-62903160D01*
X161250445Y-62913548D01*
X161267476Y-62927524D01*
X161281452Y-62944555D01*
X161291840Y-62963991D01*
X161298236Y-62985072D01*
X161301000Y-63013140D01*
X161301000Y-63476860D01*
X161298236Y-63504928D01*
X161291840Y-63526009D01*
X161281452Y-63545445D01*
X161267476Y-63562476D01*
X161250445Y-63576452D01*
X161231009Y-63586840D01*
X161209928Y-63593236D01*
X161181860Y-63596000D01*
X159368140Y-63596000D01*
X159340072Y-63593236D01*
X159318991Y-63586840D01*
X159299555Y-63576452D01*
X159282524Y-63562476D01*
X159268548Y-63545445D01*
X159258160Y-63526009D01*
X159251764Y-63504928D01*
X159249000Y-63476860D01*
X159249000Y-63013140D01*
X159251764Y-62985072D01*
X159258160Y-62963991D01*
X159268548Y-62944555D01*
X159282524Y-62927524D01*
X159299555Y-62913548D01*
X159318991Y-62903160D01*
X159340072Y-62896764D01*
X159368140Y-62894000D01*
X161181860Y-62894000D01*
X161209928Y-62896764D01*
G37*
G36*
X156259928Y-62896764D02*
G01*
X156281009Y-62903160D01*
X156300445Y-62913548D01*
X156317476Y-62927524D01*
X156331452Y-62944555D01*
X156341840Y-62963991D01*
X156348236Y-62985072D01*
X156351000Y-63013140D01*
X156351000Y-63476860D01*
X156348236Y-63504928D01*
X156341840Y-63526009D01*
X156331452Y-63545445D01*
X156317476Y-63562476D01*
X156300445Y-63576452D01*
X156281009Y-63586840D01*
X156259928Y-63593236D01*
X156231860Y-63596000D01*
X154418140Y-63596000D01*
X154390072Y-63593236D01*
X154368991Y-63586840D01*
X154349555Y-63576452D01*
X154332524Y-63562476D01*
X154318548Y-63545445D01*
X154308160Y-63526009D01*
X154301764Y-63504928D01*
X154299000Y-63476860D01*
X154299000Y-63013140D01*
X154301764Y-62985072D01*
X154308160Y-62963991D01*
X154318548Y-62944555D01*
X154332524Y-62927524D01*
X154349555Y-62913548D01*
X154368991Y-62903160D01*
X154390072Y-62896764D01*
X154418140Y-62894000D01*
X156231860Y-62894000D01*
X156259928Y-62896764D01*
G37*
G36*
X171364499Y-61478445D02*
G01*
X171401995Y-61489820D01*
X171436554Y-61508292D01*
X171466847Y-61533153D01*
X171491708Y-61563446D01*
X171510180Y-61598005D01*
X171521555Y-61635501D01*
X171526000Y-61680638D01*
X171526000Y-62419362D01*
X171521555Y-62464499D01*
X171510180Y-62501995D01*
X171491708Y-62536554D01*
X171466847Y-62566847D01*
X171436554Y-62591708D01*
X171401995Y-62610180D01*
X171364499Y-62621555D01*
X171319362Y-62626000D01*
X170680638Y-62626000D01*
X170635501Y-62621555D01*
X170598005Y-62610180D01*
X170563446Y-62591708D01*
X170533153Y-62566847D01*
X170508292Y-62536554D01*
X170489820Y-62501995D01*
X170478445Y-62464499D01*
X170474000Y-62419362D01*
X170474000Y-61680638D01*
X170478445Y-61635501D01*
X170489820Y-61598005D01*
X170508292Y-61563446D01*
X170533153Y-61533153D01*
X170563446Y-61508292D01*
X170598005Y-61489820D01*
X170635501Y-61478445D01*
X170680638Y-61474000D01*
X171319362Y-61474000D01*
X171364499Y-61478445D01*
G37*
G36*
X165464499Y-61453445D02*
G01*
X165501995Y-61464820D01*
X165536554Y-61483292D01*
X165566847Y-61508153D01*
X165591708Y-61538446D01*
X165610180Y-61573005D01*
X165621555Y-61610501D01*
X165626000Y-61655638D01*
X165626000Y-62394362D01*
X165621555Y-62439499D01*
X165610180Y-62476995D01*
X165591708Y-62511554D01*
X165566847Y-62541847D01*
X165536554Y-62566708D01*
X165501995Y-62585180D01*
X165464499Y-62596555D01*
X165419362Y-62601000D01*
X164780638Y-62601000D01*
X164735501Y-62596555D01*
X164698005Y-62585180D01*
X164663446Y-62566708D01*
X164633153Y-62541847D01*
X164608292Y-62511554D01*
X164589820Y-62476995D01*
X164578445Y-62439499D01*
X164574000Y-62394362D01*
X164574000Y-61655638D01*
X164578445Y-61610501D01*
X164589820Y-61573005D01*
X164608292Y-61538446D01*
X164633153Y-61508153D01*
X164663446Y-61483292D01*
X164698005Y-61464820D01*
X164735501Y-61453445D01*
X164780638Y-61449000D01*
X165419362Y-61449000D01*
X165464499Y-61453445D01*
G37*
G36*
X175189499Y-61478445D02*
G01*
X175226995Y-61489820D01*
X175261554Y-61508292D01*
X175291847Y-61533153D01*
X175316708Y-61563446D01*
X175335180Y-61598005D01*
X175346555Y-61635501D01*
X175351000Y-61680638D01*
X175351000Y-62319362D01*
X175346555Y-62364499D01*
X175335180Y-62401995D01*
X175316708Y-62436554D01*
X175291847Y-62466847D01*
X175261554Y-62491708D01*
X175226995Y-62510180D01*
X175189499Y-62521555D01*
X175144362Y-62526000D01*
X174405638Y-62526000D01*
X174360501Y-62521555D01*
X174323005Y-62510180D01*
X174288446Y-62491708D01*
X174258153Y-62466847D01*
X174233292Y-62436554D01*
X174214820Y-62401995D01*
X174203445Y-62364499D01*
X174199000Y-62319362D01*
X174199000Y-61680638D01*
X174203445Y-61635501D01*
X174214820Y-61598005D01*
X174233292Y-61563446D01*
X174258153Y-61533153D01*
X174288446Y-61508292D01*
X174323005Y-61489820D01*
X174360501Y-61478445D01*
X174405638Y-61474000D01*
X175144362Y-61474000D01*
X175189499Y-61478445D01*
G37*
G36*
X173439499Y-61478445D02*
G01*
X173476995Y-61489820D01*
X173511554Y-61508292D01*
X173541847Y-61533153D01*
X173566708Y-61563446D01*
X173585180Y-61598005D01*
X173596555Y-61635501D01*
X173601000Y-61680638D01*
X173601000Y-62319362D01*
X173596555Y-62364499D01*
X173585180Y-62401995D01*
X173566708Y-62436554D01*
X173541847Y-62466847D01*
X173511554Y-62491708D01*
X173476995Y-62510180D01*
X173439499Y-62521555D01*
X173394362Y-62526000D01*
X172655638Y-62526000D01*
X172610501Y-62521555D01*
X172573005Y-62510180D01*
X172538446Y-62491708D01*
X172508153Y-62466847D01*
X172483292Y-62436554D01*
X172464820Y-62401995D01*
X172453445Y-62364499D01*
X172449000Y-62319362D01*
X172449000Y-61680638D01*
X172453445Y-61635501D01*
X172464820Y-61598005D01*
X172483292Y-61563446D01*
X172508153Y-61533153D01*
X172538446Y-61508292D01*
X172573005Y-61489820D01*
X172610501Y-61478445D01*
X172655638Y-61474000D01*
X173394362Y-61474000D01*
X173439499Y-61478445D01*
G37*
G36*
X169214499Y-61378445D02*
G01*
X169251995Y-61389820D01*
X169286554Y-61408292D01*
X169316847Y-61433153D01*
X169341708Y-61463446D01*
X169360180Y-61498005D01*
X169371555Y-61535501D01*
X169376000Y-61580638D01*
X169376000Y-62219362D01*
X169371555Y-62264499D01*
X169360181Y-62301993D01*
X169341708Y-62336554D01*
X169316847Y-62366847D01*
X169286554Y-62391708D01*
X169251995Y-62410180D01*
X169214499Y-62421555D01*
X169169362Y-62426000D01*
X168430638Y-62426000D01*
X168385501Y-62421555D01*
X168348005Y-62410180D01*
X168313446Y-62391708D01*
X168283153Y-62366847D01*
X168258292Y-62336554D01*
X168239819Y-62301993D01*
X168228445Y-62264499D01*
X168224000Y-62219362D01*
X168224000Y-61580638D01*
X168228445Y-61535501D01*
X168239820Y-61498005D01*
X168258292Y-61463446D01*
X168283153Y-61433153D01*
X168313446Y-61408292D01*
X168348005Y-61389820D01*
X168385501Y-61378445D01*
X168430638Y-61374000D01*
X169169362Y-61374000D01*
X169214499Y-61378445D01*
G37*
G36*
X167464499Y-61378445D02*
G01*
X167501995Y-61389820D01*
X167536554Y-61408292D01*
X167566847Y-61433153D01*
X167591708Y-61463446D01*
X167610180Y-61498005D01*
X167621555Y-61535501D01*
X167626000Y-61580638D01*
X167626000Y-62219362D01*
X167621555Y-62264499D01*
X167610181Y-62301993D01*
X167591708Y-62336554D01*
X167566847Y-62366847D01*
X167536554Y-62391708D01*
X167501995Y-62410180D01*
X167464499Y-62421555D01*
X167419362Y-62426000D01*
X166680638Y-62426000D01*
X166635501Y-62421555D01*
X166598005Y-62410180D01*
X166563446Y-62391708D01*
X166533153Y-62366847D01*
X166508292Y-62336554D01*
X166489819Y-62301993D01*
X166478445Y-62264499D01*
X166474000Y-62219362D01*
X166474000Y-61580638D01*
X166478445Y-61535501D01*
X166489820Y-61498005D01*
X166508292Y-61463446D01*
X166533153Y-61433153D01*
X166563446Y-61408292D01*
X166598005Y-61389820D01*
X166635501Y-61378445D01*
X166680638Y-61374000D01*
X167419362Y-61374000D01*
X167464499Y-61378445D01*
G37*
G36*
X145964499Y-61253445D02*
G01*
X146001995Y-61264820D01*
X146036554Y-61283292D01*
X146066847Y-61308153D01*
X146091708Y-61338446D01*
X146110180Y-61373005D01*
X146121555Y-61410501D01*
X146126000Y-61455638D01*
X146126000Y-62194362D01*
X146121555Y-62239499D01*
X146110180Y-62276995D01*
X146091708Y-62311554D01*
X146066847Y-62341847D01*
X146036554Y-62366708D01*
X146001995Y-62385180D01*
X145964499Y-62396555D01*
X145919362Y-62401000D01*
X145280638Y-62401000D01*
X145235501Y-62396555D01*
X145198005Y-62385180D01*
X145163446Y-62366708D01*
X145133153Y-62341847D01*
X145108292Y-62311554D01*
X145089820Y-62276995D01*
X145078445Y-62239499D01*
X145074000Y-62194362D01*
X145074000Y-61455638D01*
X145078445Y-61410501D01*
X145089820Y-61373005D01*
X145108292Y-61338446D01*
X145133153Y-61308153D01*
X145163446Y-61283292D01*
X145198005Y-61264820D01*
X145235501Y-61253445D01*
X145280638Y-61249000D01*
X145919362Y-61249000D01*
X145964499Y-61253445D01*
G37*
G36*
X156259928Y-61626764D02*
G01*
X156281009Y-61633160D01*
X156300445Y-61643548D01*
X156317476Y-61657524D01*
X156331452Y-61674555D01*
X156341840Y-61693991D01*
X156348236Y-61715072D01*
X156351000Y-61743140D01*
X156351000Y-62206860D01*
X156348236Y-62234928D01*
X156341840Y-62256009D01*
X156331452Y-62275445D01*
X156317476Y-62292476D01*
X156300445Y-62306452D01*
X156281009Y-62316840D01*
X156259928Y-62323236D01*
X156231860Y-62326000D01*
X154418140Y-62326000D01*
X154390072Y-62323236D01*
X154368991Y-62316840D01*
X154349555Y-62306452D01*
X154332524Y-62292476D01*
X154318548Y-62275445D01*
X154308160Y-62256009D01*
X154301764Y-62234928D01*
X154299000Y-62206860D01*
X154299000Y-61743140D01*
X154301764Y-61715072D01*
X154308160Y-61693991D01*
X154318548Y-61674555D01*
X154332524Y-61657524D01*
X154349555Y-61643548D01*
X154368991Y-61633160D01*
X154390072Y-61626764D01*
X154418140Y-61624000D01*
X156231860Y-61624000D01*
X156259928Y-61626764D01*
G37*
G36*
X161209928Y-61626764D02*
G01*
X161231009Y-61633160D01*
X161250445Y-61643548D01*
X161267476Y-61657524D01*
X161281452Y-61674555D01*
X161291840Y-61693991D01*
X161298236Y-61715072D01*
X161301000Y-61743140D01*
X161301000Y-62206860D01*
X161298236Y-62234928D01*
X161291840Y-62256009D01*
X161281452Y-62275445D01*
X161267476Y-62292476D01*
X161250445Y-62306452D01*
X161231009Y-62316840D01*
X161209928Y-62323236D01*
X161181860Y-62326000D01*
X159368140Y-62326000D01*
X159340072Y-62323236D01*
X159318991Y-62316840D01*
X159299555Y-62306452D01*
X159282524Y-62292476D01*
X159268548Y-62275445D01*
X159258160Y-62256009D01*
X159251764Y-62234928D01*
X159249000Y-62206860D01*
X159249000Y-61743140D01*
X159251764Y-61715072D01*
X159258160Y-61693991D01*
X159268548Y-61674555D01*
X159282524Y-61657524D01*
X159299555Y-61643548D01*
X159318991Y-61633160D01*
X159340072Y-61626764D01*
X159368140Y-61624000D01*
X161181860Y-61624000D01*
X161209928Y-61626764D01*
G37*
G36*
X151964499Y-61153445D02*
G01*
X152001995Y-61164820D01*
X152036554Y-61183292D01*
X152066847Y-61208153D01*
X152091708Y-61238446D01*
X152110180Y-61273005D01*
X152121555Y-61310501D01*
X152126000Y-61355638D01*
X152126000Y-62094362D01*
X152121555Y-62139499D01*
X152110180Y-62176995D01*
X152091708Y-62211554D01*
X152066847Y-62241847D01*
X152036554Y-62266708D01*
X152001995Y-62285180D01*
X151964499Y-62296555D01*
X151919362Y-62301000D01*
X151280638Y-62301000D01*
X151235501Y-62296555D01*
X151198005Y-62285180D01*
X151163446Y-62266708D01*
X151133153Y-62241847D01*
X151108292Y-62211554D01*
X151089820Y-62176995D01*
X151078445Y-62139499D01*
X151074000Y-62094362D01*
X151074000Y-61355638D01*
X151078445Y-61310501D01*
X151089820Y-61273005D01*
X151108292Y-61238446D01*
X151133153Y-61208153D01*
X151163446Y-61183292D01*
X151198005Y-61164820D01*
X151235501Y-61153445D01*
X151280638Y-61149000D01*
X151919362Y-61149000D01*
X151964499Y-61153445D01*
G37*
G36*
X125113512Y-60453927D02*
G01*
X125262812Y-60483624D01*
X125426784Y-60551544D01*
X125574354Y-60650147D01*
X125699853Y-60775646D01*
X125798456Y-60923216D01*
X125866376Y-61087188D01*
X125895877Y-61235501D01*
X125901000Y-61261258D01*
X125901000Y-61438742D01*
X125898075Y-61453445D01*
X125866376Y-61612812D01*
X125798456Y-61776784D01*
X125699853Y-61924354D01*
X125574354Y-62049853D01*
X125426784Y-62148456D01*
X125262812Y-62216376D01*
X125134757Y-62241847D01*
X125088742Y-62251000D01*
X124911258Y-62251000D01*
X124865243Y-62241847D01*
X124737188Y-62216376D01*
X124573216Y-62148456D01*
X124425646Y-62049853D01*
X124300147Y-61924354D01*
X124201544Y-61776784D01*
X124133624Y-61612812D01*
X124101925Y-61453445D01*
X124099000Y-61438742D01*
X124099000Y-61261258D01*
X124104123Y-61235501D01*
X124133624Y-61087188D01*
X124201544Y-60923216D01*
X124300147Y-60775646D01*
X124425646Y-60650147D01*
X124573216Y-60551544D01*
X124737188Y-60483624D01*
X124886488Y-60453927D01*
X124911258Y-60449000D01*
X125088742Y-60449000D01*
X125113512Y-60453927D01*
G37*
G36*
X142114499Y-61178445D02*
G01*
X142151995Y-61189820D01*
X142186554Y-61208292D01*
X142216847Y-61233153D01*
X142241708Y-61263446D01*
X142260180Y-61298005D01*
X142271555Y-61335501D01*
X142276000Y-61380638D01*
X142276000Y-62019362D01*
X142271555Y-62064499D01*
X142260180Y-62101995D01*
X142241708Y-62136554D01*
X142216847Y-62166847D01*
X142186554Y-62191708D01*
X142151995Y-62210180D01*
X142114499Y-62221555D01*
X142069362Y-62226000D01*
X141330638Y-62226000D01*
X141285501Y-62221555D01*
X141248005Y-62210180D01*
X141213446Y-62191708D01*
X141183153Y-62166847D01*
X141158292Y-62136554D01*
X141139820Y-62101995D01*
X141128445Y-62064499D01*
X141124000Y-62019362D01*
X141124000Y-61380638D01*
X141128445Y-61335501D01*
X141139820Y-61298005D01*
X141158292Y-61263446D01*
X141183153Y-61233153D01*
X141213446Y-61208292D01*
X141248005Y-61189820D01*
X141285501Y-61178445D01*
X141330638Y-61174000D01*
X142069362Y-61174000D01*
X142114499Y-61178445D01*
G37*
G36*
X143864499Y-61178445D02*
G01*
X143901995Y-61189820D01*
X143936554Y-61208292D01*
X143966847Y-61233153D01*
X143991708Y-61263446D01*
X144010180Y-61298005D01*
X144021555Y-61335501D01*
X144026000Y-61380638D01*
X144026000Y-62019362D01*
X144021555Y-62064499D01*
X144010180Y-62101995D01*
X143991708Y-62136554D01*
X143966847Y-62166847D01*
X143936554Y-62191708D01*
X143901995Y-62210180D01*
X143864499Y-62221555D01*
X143819362Y-62226000D01*
X143080638Y-62226000D01*
X143035501Y-62221555D01*
X142998005Y-62210180D01*
X142963446Y-62191708D01*
X142933153Y-62166847D01*
X142908292Y-62136554D01*
X142889820Y-62101995D01*
X142878445Y-62064499D01*
X142874000Y-62019362D01*
X142874000Y-61380638D01*
X142878445Y-61335501D01*
X142889820Y-61298005D01*
X142908292Y-61263446D01*
X142933153Y-61233153D01*
X142963446Y-61208292D01*
X142998005Y-61189820D01*
X143035501Y-61178445D01*
X143080638Y-61174000D01*
X143819362Y-61174000D01*
X143864499Y-61178445D01*
G37*
G36*
X148014499Y-61078445D02*
G01*
X148051995Y-61089820D01*
X148086554Y-61108292D01*
X148116847Y-61133153D01*
X148141708Y-61163446D01*
X148160180Y-61198005D01*
X148171555Y-61235501D01*
X148176000Y-61280638D01*
X148176000Y-61919362D01*
X148171555Y-61964499D01*
X148160180Y-62001995D01*
X148141708Y-62036554D01*
X148116847Y-62066847D01*
X148086554Y-62091708D01*
X148051995Y-62110180D01*
X148014499Y-62121555D01*
X147969362Y-62126000D01*
X147230638Y-62126000D01*
X147185501Y-62121555D01*
X147148005Y-62110180D01*
X147113446Y-62091708D01*
X147083153Y-62066847D01*
X147058292Y-62036554D01*
X147039820Y-62001995D01*
X147028445Y-61964499D01*
X147024000Y-61919362D01*
X147024000Y-61280638D01*
X147028445Y-61235501D01*
X147039820Y-61198005D01*
X147058292Y-61163446D01*
X147083153Y-61133153D01*
X147113446Y-61108292D01*
X147148005Y-61089820D01*
X147185501Y-61078445D01*
X147230638Y-61074000D01*
X147969362Y-61074000D01*
X148014499Y-61078445D01*
G37*
G36*
X149764499Y-61078445D02*
G01*
X149801995Y-61089820D01*
X149836554Y-61108292D01*
X149866847Y-61133153D01*
X149891708Y-61163446D01*
X149910180Y-61198005D01*
X149921555Y-61235501D01*
X149926000Y-61280638D01*
X149926000Y-61919362D01*
X149921555Y-61964499D01*
X149910180Y-62001995D01*
X149891708Y-62036554D01*
X149866847Y-62066847D01*
X149836554Y-62091708D01*
X149801995Y-62110180D01*
X149764499Y-62121555D01*
X149719362Y-62126000D01*
X148980638Y-62126000D01*
X148935501Y-62121555D01*
X148898005Y-62110180D01*
X148863446Y-62091708D01*
X148833153Y-62066847D01*
X148808292Y-62036554D01*
X148789820Y-62001995D01*
X148778445Y-61964499D01*
X148774000Y-61919362D01*
X148774000Y-61280638D01*
X148778445Y-61235501D01*
X148789820Y-61198005D01*
X148808292Y-61163446D01*
X148833153Y-61133153D01*
X148863446Y-61108292D01*
X148898005Y-61089820D01*
X148935501Y-61078445D01*
X148980638Y-61074000D01*
X149719362Y-61074000D01*
X149764499Y-61078445D01*
G37*
G36*
X136651000Y-61611000D02*
G01*
X135349000Y-61611000D01*
X135349000Y-60709000D01*
X136651000Y-60709000D01*
X136651000Y-61611000D01*
G37*
G36*
X130651000Y-61611000D02*
G01*
X129349000Y-61611000D01*
X129349000Y-60709000D01*
X130651000Y-60709000D01*
X130651000Y-61611000D01*
G37*
G36*
X161209928Y-60356764D02*
G01*
X161231009Y-60363160D01*
X161250445Y-60373548D01*
X161267476Y-60387524D01*
X161281452Y-60404555D01*
X161291840Y-60423991D01*
X161298236Y-60445072D01*
X161301000Y-60473140D01*
X161301000Y-60936860D01*
X161298236Y-60964928D01*
X161291840Y-60986009D01*
X161281452Y-61005445D01*
X161267476Y-61022476D01*
X161250445Y-61036452D01*
X161231009Y-61046840D01*
X161209928Y-61053236D01*
X161181860Y-61056000D01*
X159368140Y-61056000D01*
X159340072Y-61053236D01*
X159318991Y-61046840D01*
X159299555Y-61036452D01*
X159282524Y-61022476D01*
X159268548Y-61005445D01*
X159258160Y-60986009D01*
X159251764Y-60964928D01*
X159249000Y-60936860D01*
X159249000Y-60473140D01*
X159251764Y-60445072D01*
X159258160Y-60423991D01*
X159268548Y-60404555D01*
X159282524Y-60387524D01*
X159299555Y-60373548D01*
X159318991Y-60363160D01*
X159340072Y-60356764D01*
X159368140Y-60354000D01*
X161181860Y-60354000D01*
X161209928Y-60356764D01*
G37*
G36*
X156259928Y-60356764D02*
G01*
X156281009Y-60363160D01*
X156300445Y-60373548D01*
X156317476Y-60387524D01*
X156331452Y-60404555D01*
X156341840Y-60423991D01*
X156348236Y-60445072D01*
X156351000Y-60473140D01*
X156351000Y-60936860D01*
X156348236Y-60964928D01*
X156341840Y-60986009D01*
X156331452Y-61005445D01*
X156317476Y-61022476D01*
X156300445Y-61036452D01*
X156281009Y-61046840D01*
X156259928Y-61053236D01*
X156231860Y-61056000D01*
X154418140Y-61056000D01*
X154390072Y-61053236D01*
X154368991Y-61046840D01*
X154349555Y-61036452D01*
X154332524Y-61022476D01*
X154318548Y-61005445D01*
X154308160Y-60986009D01*
X154301764Y-60964928D01*
X154299000Y-60936860D01*
X154299000Y-60473140D01*
X154301764Y-60445072D01*
X154308160Y-60423991D01*
X154318548Y-60404555D01*
X154332524Y-60387524D01*
X154349555Y-60373548D01*
X154368991Y-60363160D01*
X154390072Y-60356764D01*
X154418140Y-60354000D01*
X156231860Y-60354000D01*
X156259928Y-60356764D01*
G37*
G36*
X156259928Y-59086764D02*
G01*
X156281009Y-59093160D01*
X156300445Y-59103548D01*
X156317476Y-59117524D01*
X156331452Y-59134555D01*
X156341840Y-59153991D01*
X156348236Y-59175072D01*
X156351000Y-59203140D01*
X156351000Y-59666860D01*
X156348236Y-59694928D01*
X156341840Y-59716009D01*
X156331452Y-59735445D01*
X156317476Y-59752476D01*
X156300445Y-59766452D01*
X156281009Y-59776840D01*
X156259928Y-59783236D01*
X156231860Y-59786000D01*
X154418140Y-59786000D01*
X154390072Y-59783236D01*
X154368991Y-59776840D01*
X154349555Y-59766452D01*
X154332524Y-59752476D01*
X154318548Y-59735445D01*
X154308160Y-59716009D01*
X154301764Y-59694928D01*
X154299000Y-59666860D01*
X154299000Y-59203140D01*
X154301764Y-59175072D01*
X154308160Y-59153991D01*
X154318548Y-59134555D01*
X154332524Y-59117524D01*
X154349555Y-59103548D01*
X154368991Y-59093160D01*
X154390072Y-59086764D01*
X154418140Y-59084000D01*
X156231860Y-59084000D01*
X156259928Y-59086764D01*
G37*
G36*
X161209928Y-59086764D02*
G01*
X161231009Y-59093160D01*
X161250445Y-59103548D01*
X161267476Y-59117524D01*
X161281452Y-59134555D01*
X161291840Y-59153991D01*
X161298236Y-59175072D01*
X161301000Y-59203140D01*
X161301000Y-59666860D01*
X161298236Y-59694928D01*
X161291840Y-59716009D01*
X161281452Y-59735445D01*
X161267476Y-59752476D01*
X161250445Y-59766452D01*
X161231009Y-59776840D01*
X161209928Y-59783236D01*
X161181860Y-59786000D01*
X159368140Y-59786000D01*
X159340072Y-59783236D01*
X159318991Y-59776840D01*
X159299555Y-59766452D01*
X159282524Y-59752476D01*
X159268548Y-59735445D01*
X159258160Y-59716009D01*
X159251764Y-59694928D01*
X159249000Y-59666860D01*
X159249000Y-59203140D01*
X159251764Y-59175072D01*
X159258160Y-59153991D01*
X159268548Y-59134555D01*
X159282524Y-59117524D01*
X159299555Y-59103548D01*
X159318991Y-59093160D01*
X159340072Y-59086764D01*
X159368140Y-59084000D01*
X161181860Y-59084000D01*
X161209928Y-59086764D01*
G37*
G36*
X125113512Y-57913927D02*
G01*
X125262812Y-57943624D01*
X125426784Y-58011544D01*
X125574354Y-58110147D01*
X125699853Y-58235646D01*
X125798456Y-58383216D01*
X125866376Y-58547188D01*
X125901000Y-58721259D01*
X125901000Y-58898741D01*
X125866376Y-59072812D01*
X125798456Y-59236784D01*
X125699853Y-59384354D01*
X125574354Y-59509853D01*
X125426784Y-59608456D01*
X125262812Y-59676376D01*
X125113512Y-59706073D01*
X125088742Y-59711000D01*
X124911258Y-59711000D01*
X124886488Y-59706073D01*
X124737188Y-59676376D01*
X124573216Y-59608456D01*
X124425646Y-59509853D01*
X124300147Y-59384354D01*
X124201544Y-59236784D01*
X124133624Y-59072812D01*
X124099000Y-58898741D01*
X124099000Y-58721259D01*
X124133624Y-58547188D01*
X124201544Y-58383216D01*
X124300147Y-58235646D01*
X124425646Y-58110147D01*
X124573216Y-58011544D01*
X124737188Y-57943624D01*
X124886488Y-57913927D01*
X124911258Y-57909000D01*
X125088742Y-57909000D01*
X125113512Y-57913927D01*
G37*
G36*
X130164500Y-58243446D02*
G01*
X130201996Y-58254821D01*
X130236555Y-58273293D01*
X130266848Y-58298154D01*
X130291709Y-58328447D01*
X130310181Y-58363006D01*
X130321556Y-58400502D01*
X130326001Y-58445639D01*
X130326001Y-59084363D01*
X130321556Y-59129500D01*
X130310181Y-59166996D01*
X130291709Y-59201555D01*
X130266848Y-59231848D01*
X130236555Y-59256709D01*
X130201996Y-59275181D01*
X130164500Y-59286556D01*
X130119363Y-59291001D01*
X129380639Y-59291001D01*
X129335502Y-59286556D01*
X129298006Y-59275181D01*
X129263447Y-59256709D01*
X129233154Y-59231848D01*
X129208293Y-59201555D01*
X129189821Y-59166996D01*
X129178446Y-59129500D01*
X129174001Y-59084363D01*
X129174001Y-58445639D01*
X129178446Y-58400502D01*
X129189821Y-58363006D01*
X129208293Y-58328447D01*
X129233154Y-58298154D01*
X129263447Y-58273293D01*
X129298006Y-58254821D01*
X129335502Y-58243446D01*
X129380639Y-58239001D01*
X130119363Y-58239001D01*
X130164500Y-58243446D01*
G37*
G36*
X128414500Y-58243446D02*
G01*
X128451996Y-58254821D01*
X128486555Y-58273293D01*
X128516848Y-58298154D01*
X128541709Y-58328447D01*
X128560181Y-58363006D01*
X128571556Y-58400502D01*
X128576001Y-58445639D01*
X128576001Y-59084363D01*
X128571556Y-59129500D01*
X128560181Y-59166996D01*
X128541709Y-59201555D01*
X128516848Y-59231848D01*
X128486555Y-59256709D01*
X128451996Y-59275181D01*
X128414500Y-59286556D01*
X128369363Y-59291001D01*
X127630639Y-59291001D01*
X127585502Y-59286556D01*
X127548006Y-59275181D01*
X127513447Y-59256709D01*
X127483154Y-59231848D01*
X127458293Y-59201555D01*
X127439821Y-59166996D01*
X127428446Y-59129500D01*
X127424001Y-59084363D01*
X127424001Y-58445639D01*
X127428446Y-58400502D01*
X127439821Y-58363006D01*
X127458293Y-58328447D01*
X127483154Y-58298154D01*
X127513447Y-58273293D01*
X127548006Y-58254821D01*
X127585502Y-58243446D01*
X127630639Y-58239001D01*
X128369363Y-58239001D01*
X128414500Y-58243446D01*
G37*
G36*
X161209928Y-57816764D02*
G01*
X161231009Y-57823160D01*
X161250445Y-57833548D01*
X161267476Y-57847524D01*
X161281452Y-57864555D01*
X161291840Y-57883991D01*
X161298236Y-57905072D01*
X161301000Y-57933140D01*
X161301000Y-58396860D01*
X161298236Y-58424928D01*
X161291840Y-58446009D01*
X161281452Y-58465445D01*
X161267476Y-58482476D01*
X161250445Y-58496452D01*
X161231009Y-58506840D01*
X161209928Y-58513236D01*
X161181860Y-58516000D01*
X159368140Y-58516000D01*
X159340072Y-58513236D01*
X159318991Y-58506840D01*
X159299555Y-58496452D01*
X159282524Y-58482476D01*
X159268548Y-58465445D01*
X159258160Y-58446009D01*
X159251764Y-58424928D01*
X159249000Y-58396860D01*
X159249000Y-57933140D01*
X159251764Y-57905072D01*
X159258160Y-57883991D01*
X159268548Y-57864555D01*
X159282524Y-57847524D01*
X159299555Y-57833548D01*
X159318991Y-57823160D01*
X159340072Y-57816764D01*
X159368140Y-57814000D01*
X161181860Y-57814000D01*
X161209928Y-57816764D01*
G37*
G36*
X156259928Y-57816764D02*
G01*
X156281009Y-57823160D01*
X156300445Y-57833548D01*
X156317476Y-57847524D01*
X156331452Y-57864555D01*
X156341840Y-57883991D01*
X156348236Y-57905072D01*
X156351000Y-57933140D01*
X156351000Y-58396860D01*
X156348236Y-58424928D01*
X156341840Y-58446009D01*
X156331452Y-58465445D01*
X156317476Y-58482476D01*
X156300445Y-58496452D01*
X156281009Y-58506840D01*
X156259928Y-58513236D01*
X156231860Y-58516000D01*
X154418140Y-58516000D01*
X154390072Y-58513236D01*
X154368991Y-58506840D01*
X154349555Y-58496452D01*
X154332524Y-58482476D01*
X154318548Y-58465445D01*
X154308160Y-58446009D01*
X154301764Y-58424928D01*
X154299000Y-58396860D01*
X154299000Y-57933140D01*
X154301764Y-57905072D01*
X154308160Y-57883991D01*
X154318548Y-57864555D01*
X154332524Y-57847524D01*
X154349555Y-57833548D01*
X154368991Y-57823160D01*
X154390072Y-57816764D01*
X154418140Y-57814000D01*
X156231860Y-57814000D01*
X156259928Y-57816764D01*
G37*
G36*
X168653512Y-56103927D02*
G01*
X168802812Y-56133624D01*
X168966784Y-56201544D01*
X169114354Y-56300147D01*
X169239853Y-56425646D01*
X169338456Y-56573216D01*
X169406376Y-56737188D01*
X169441000Y-56911259D01*
X169441000Y-57088741D01*
X169406376Y-57262812D01*
X169338456Y-57426784D01*
X169239853Y-57574354D01*
X169114354Y-57699853D01*
X168966784Y-57798456D01*
X168802812Y-57866376D01*
X168653512Y-57896073D01*
X168628742Y-57901000D01*
X168451258Y-57901000D01*
X168426488Y-57896073D01*
X168277188Y-57866376D01*
X168113216Y-57798456D01*
X167965646Y-57699853D01*
X167840147Y-57574354D01*
X167741544Y-57426784D01*
X167673624Y-57262812D01*
X167639000Y-57088741D01*
X167639000Y-56911259D01*
X167673624Y-56737188D01*
X167741544Y-56573216D01*
X167840147Y-56425646D01*
X167965646Y-56300147D01*
X168113216Y-56201544D01*
X168277188Y-56133624D01*
X168426488Y-56103927D01*
X168451258Y-56099000D01*
X168628742Y-56099000D01*
X168653512Y-56103927D01*
G37*
G36*
X166901000Y-57901000D02*
G01*
X165099000Y-57901000D01*
X165099000Y-56099000D01*
X166901000Y-56099000D01*
X166901000Y-57901000D01*
G37*
G36*
X171193512Y-56103927D02*
G01*
X171342812Y-56133624D01*
X171506784Y-56201544D01*
X171654354Y-56300147D01*
X171779853Y-56425646D01*
X171878456Y-56573216D01*
X171946376Y-56737188D01*
X171981000Y-56911259D01*
X171981000Y-57088741D01*
X171946376Y-57262812D01*
X171878456Y-57426784D01*
X171779853Y-57574354D01*
X171654354Y-57699853D01*
X171506784Y-57798456D01*
X171342812Y-57866376D01*
X171193512Y-57896073D01*
X171168742Y-57901000D01*
X170991258Y-57901000D01*
X170966488Y-57896073D01*
X170817188Y-57866376D01*
X170653216Y-57798456D01*
X170505646Y-57699853D01*
X170380147Y-57574354D01*
X170281544Y-57426784D01*
X170213624Y-57262812D01*
X170179000Y-57088741D01*
X170179000Y-56911259D01*
X170213624Y-56737188D01*
X170281544Y-56573216D01*
X170380147Y-56425646D01*
X170505646Y-56300147D01*
X170653216Y-56201544D01*
X170817188Y-56133624D01*
X170966488Y-56103927D01*
X170991258Y-56099000D01*
X171168742Y-56099000D01*
X171193512Y-56103927D01*
G37*
G36*
X156259928Y-56546764D02*
G01*
X156281009Y-56553160D01*
X156300445Y-56563548D01*
X156317476Y-56577524D01*
X156331452Y-56594555D01*
X156341840Y-56613991D01*
X156348236Y-56635072D01*
X156351000Y-56663140D01*
X156351000Y-57126860D01*
X156348236Y-57154928D01*
X156341840Y-57176009D01*
X156331452Y-57195445D01*
X156317476Y-57212476D01*
X156300445Y-57226452D01*
X156281009Y-57236840D01*
X156259928Y-57243236D01*
X156231860Y-57246000D01*
X154418140Y-57246000D01*
X154390072Y-57243236D01*
X154368991Y-57236840D01*
X154349555Y-57226452D01*
X154332524Y-57212476D01*
X154318548Y-57195445D01*
X154308160Y-57176009D01*
X154301764Y-57154928D01*
X154299000Y-57126860D01*
X154299000Y-56663140D01*
X154301764Y-56635072D01*
X154308160Y-56613991D01*
X154318548Y-56594555D01*
X154332524Y-56577524D01*
X154349555Y-56563548D01*
X154368991Y-56553160D01*
X154390072Y-56546764D01*
X154418140Y-56544000D01*
X156231860Y-56544000D01*
X156259928Y-56546764D01*
G37*
G36*
X161209928Y-56546764D02*
G01*
X161231009Y-56553160D01*
X161250445Y-56563548D01*
X161267476Y-56577524D01*
X161281452Y-56594555D01*
X161291840Y-56613991D01*
X161298236Y-56635072D01*
X161301000Y-56663140D01*
X161301000Y-57126860D01*
X161298236Y-57154928D01*
X161291840Y-57176009D01*
X161281452Y-57195445D01*
X161267476Y-57212476D01*
X161250445Y-57226452D01*
X161231009Y-57236840D01*
X161209928Y-57243236D01*
X161181860Y-57246000D01*
X159368140Y-57246000D01*
X159340072Y-57243236D01*
X159318991Y-57236840D01*
X159299555Y-57226452D01*
X159282524Y-57212476D01*
X159268548Y-57195445D01*
X159258160Y-57176009D01*
X159251764Y-57154928D01*
X159249000Y-57126860D01*
X159249000Y-56663140D01*
X159251764Y-56635072D01*
X159258160Y-56613991D01*
X159268548Y-56594555D01*
X159282524Y-56577524D01*
X159299555Y-56563548D01*
X159318991Y-56553160D01*
X159340072Y-56546764D01*
X159368140Y-56544000D01*
X161181860Y-56544000D01*
X161209928Y-56546764D01*
G37*
G36*
X125901000Y-57171000D02*
G01*
X124099000Y-57171000D01*
X124099000Y-55369000D01*
X125901000Y-55369000D01*
X125901000Y-57171000D01*
G37*
G36*
X156259928Y-55276764D02*
G01*
X156281009Y-55283160D01*
X156300445Y-55293548D01*
X156317476Y-55307524D01*
X156331452Y-55324555D01*
X156341840Y-55343991D01*
X156348236Y-55365072D01*
X156351000Y-55393140D01*
X156351000Y-55856860D01*
X156348236Y-55884928D01*
X156341840Y-55906009D01*
X156331452Y-55925445D01*
X156317476Y-55942476D01*
X156300445Y-55956452D01*
X156281009Y-55966840D01*
X156259928Y-55973236D01*
X156231860Y-55976000D01*
X154418140Y-55976000D01*
X154390072Y-55973236D01*
X154368991Y-55966840D01*
X154349555Y-55956452D01*
X154332524Y-55942476D01*
X154318548Y-55925445D01*
X154308160Y-55906009D01*
X154301764Y-55884928D01*
X154299000Y-55856860D01*
X154299000Y-55393140D01*
X154301764Y-55365072D01*
X154308160Y-55343991D01*
X154318548Y-55324555D01*
X154332524Y-55307524D01*
X154349555Y-55293548D01*
X154368991Y-55283160D01*
X154390072Y-55276764D01*
X154418140Y-55274000D01*
X156231860Y-55274000D01*
X156259928Y-55276764D01*
G37*
G36*
X161209928Y-55276764D02*
G01*
X161231009Y-55283160D01*
X161250445Y-55293548D01*
X161267476Y-55307524D01*
X161281452Y-55324555D01*
X161291840Y-55343991D01*
X161298236Y-55365072D01*
X161301000Y-55393140D01*
X161301000Y-55856860D01*
X161298236Y-55884928D01*
X161291840Y-55906009D01*
X161281452Y-55925445D01*
X161267476Y-55942476D01*
X161250445Y-55956452D01*
X161231009Y-55966840D01*
X161209928Y-55973236D01*
X161181860Y-55976000D01*
X159368140Y-55976000D01*
X159340072Y-55973236D01*
X159318991Y-55966840D01*
X159299555Y-55956452D01*
X159282524Y-55942476D01*
X159268548Y-55925445D01*
X159258160Y-55906009D01*
X159251764Y-55884928D01*
X159249000Y-55856860D01*
X159249000Y-55393140D01*
X159251764Y-55365072D01*
X159258160Y-55343991D01*
X159268548Y-55324555D01*
X159282524Y-55307524D01*
X159299555Y-55293548D01*
X159318991Y-55283160D01*
X159340072Y-55276764D01*
X159368140Y-55274000D01*
X161181860Y-55274000D01*
X161209928Y-55276764D01*
G37*
G36*
X156259928Y-54006764D02*
G01*
X156281009Y-54013160D01*
X156300445Y-54023548D01*
X156317476Y-54037524D01*
X156331452Y-54054555D01*
X156341840Y-54073991D01*
X156348236Y-54095072D01*
X156351000Y-54123140D01*
X156351000Y-54586860D01*
X156348236Y-54614928D01*
X156341840Y-54636009D01*
X156331452Y-54655445D01*
X156317476Y-54672476D01*
X156300445Y-54686452D01*
X156281009Y-54696840D01*
X156259928Y-54703236D01*
X156231860Y-54706000D01*
X154418140Y-54706000D01*
X154390072Y-54703236D01*
X154368991Y-54696840D01*
X154349555Y-54686452D01*
X154332524Y-54672476D01*
X154318548Y-54655445D01*
X154308160Y-54636009D01*
X154301764Y-54614928D01*
X154299000Y-54586860D01*
X154299000Y-54123140D01*
X154301764Y-54095072D01*
X154308160Y-54073991D01*
X154318548Y-54054555D01*
X154332524Y-54037524D01*
X154349555Y-54023548D01*
X154368991Y-54013160D01*
X154390072Y-54006764D01*
X154418140Y-54004000D01*
X156231860Y-54004000D01*
X156259928Y-54006764D01*
G37*
G36*
X161209928Y-54006764D02*
G01*
X161231009Y-54013160D01*
X161250445Y-54023548D01*
X161267476Y-54037524D01*
X161281452Y-54054555D01*
X161291840Y-54073991D01*
X161298236Y-54095072D01*
X161301000Y-54123140D01*
X161301000Y-54586860D01*
X161298236Y-54614928D01*
X161291840Y-54636009D01*
X161281452Y-54655445D01*
X161267476Y-54672476D01*
X161250445Y-54686452D01*
X161231009Y-54696840D01*
X161209928Y-54703236D01*
X161181860Y-54706000D01*
X159368140Y-54706000D01*
X159340072Y-54703236D01*
X159318991Y-54696840D01*
X159299555Y-54686452D01*
X159282524Y-54672476D01*
X159268548Y-54655445D01*
X159258160Y-54636009D01*
X159251764Y-54614928D01*
X159249000Y-54586860D01*
X159249000Y-54123140D01*
X159251764Y-54095072D01*
X159258160Y-54073991D01*
X159268548Y-54054555D01*
X159282524Y-54037524D01*
X159299555Y-54023548D01*
X159318991Y-54013160D01*
X159340072Y-54006764D01*
X159368140Y-54004000D01*
X161181860Y-54004000D01*
X161209928Y-54006764D01*
G37*
G36*
X154489499Y-51878445D02*
G01*
X154526995Y-51889820D01*
X154561554Y-51908292D01*
X154591847Y-51933153D01*
X154616708Y-51963446D01*
X154635180Y-51998005D01*
X154646555Y-52035501D01*
X154651000Y-52080638D01*
X154651000Y-52719362D01*
X154646555Y-52764499D01*
X154635180Y-52801995D01*
X154616708Y-52836554D01*
X154591847Y-52866847D01*
X154561554Y-52891708D01*
X154526995Y-52910180D01*
X154489499Y-52921555D01*
X154444362Y-52926000D01*
X153705638Y-52926000D01*
X153660501Y-52921555D01*
X153623005Y-52910180D01*
X153588446Y-52891708D01*
X153558153Y-52866847D01*
X153533292Y-52836554D01*
X153514820Y-52801995D01*
X153503445Y-52764499D01*
X153499000Y-52719362D01*
X153499000Y-52080638D01*
X153503445Y-52035501D01*
X153514820Y-51998005D01*
X153533292Y-51963446D01*
X153558153Y-51933153D01*
X153588446Y-51908292D01*
X153623005Y-51889820D01*
X153660501Y-51878445D01*
X153705638Y-51874000D01*
X154444362Y-51874000D01*
X154489499Y-51878445D01*
G37*
G36*
X152739499Y-51878445D02*
G01*
X152776995Y-51889820D01*
X152811554Y-51908292D01*
X152841847Y-51933153D01*
X152866708Y-51963446D01*
X152885180Y-51998005D01*
X152896555Y-52035501D01*
X152901000Y-52080638D01*
X152901000Y-52719362D01*
X152896555Y-52764499D01*
X152885180Y-52801995D01*
X152866708Y-52836554D01*
X152841847Y-52866847D01*
X152811554Y-52891708D01*
X152776995Y-52910180D01*
X152739499Y-52921555D01*
X152694362Y-52926000D01*
X151955638Y-52926000D01*
X151910501Y-52921555D01*
X151873005Y-52910180D01*
X151838446Y-52891708D01*
X151808153Y-52866847D01*
X151783292Y-52836554D01*
X151764820Y-52801995D01*
X151753445Y-52764499D01*
X151749000Y-52719362D01*
X151749000Y-52080638D01*
X151753445Y-52035501D01*
X151764820Y-51998005D01*
X151783292Y-51963446D01*
X151808153Y-51933153D01*
X151838446Y-51908292D01*
X151873005Y-51889820D01*
X151910501Y-51878445D01*
X151955638Y-51874000D01*
X152694362Y-51874000D01*
X152739499Y-51878445D01*
G37*
M02*
