G04 #@! TF.GenerationSoftware,KiCad,Pcbnew,(5.1.5-0)*
G04 #@! TF.CreationDate,2021-08-17T13:30:23-06:00*
G04 #@! TF.ProjectId,HX711_710_711_720,48583731-315f-4373-9130-5f3731315f37,rev?*
G04 #@! TF.SameCoordinates,Original*
G04 #@! TF.FileFunction,Copper,L2,Bot*
G04 #@! TF.FilePolarity,Positive*
%FSLAX46Y46*%
G04 Gerber Fmt 4.6, Leading zero omitted, Abs format (unit mm)*
G04 Created by KiCad (PCBNEW (5.1.5-0)) date 2021-08-17 13:30:23*
%MOMM*%
%LPD*%
G04 APERTURE LIST*
%ADD10O,1.700000X1.700000*%
%ADD11R,1.700000X1.700000*%
%ADD12O,2.240000X2.240000*%
%ADD13R,2.240000X2.240000*%
%ADD14C,0.800000*%
%ADD15C,0.250000*%
%ADD16C,0.254000*%
G04 APERTURE END LIST*
D10*
X171080000Y-57000000D03*
X168540000Y-57000000D03*
D11*
X166000000Y-57000000D03*
D10*
X170000000Y-79080000D03*
X170000000Y-76540000D03*
D11*
X170000000Y-74000000D03*
D10*
X168475001Y-94405001D03*
X168475001Y-91865001D03*
D11*
X168475001Y-89325001D03*
D10*
X125000000Y-61350000D03*
X125000000Y-58810000D03*
D11*
X125000000Y-56270000D03*
D12*
X116500000Y-70760000D03*
D13*
X116500000Y-73300000D03*
D14*
X165700000Y-69400000D03*
X126600000Y-85400000D03*
X128100000Y-69600000D03*
X128700000Y-93800000D03*
X168500000Y-85800000D03*
X168300000Y-71600000D03*
X163800000Y-67100000D03*
X162700000Y-54300000D03*
X157000000Y-71600000D03*
X155800000Y-84500000D03*
X152200000Y-56800000D03*
X158825000Y-68125000D03*
X174700000Y-60500000D03*
D15*
X128100000Y-83900000D02*
X128100000Y-69600000D01*
X126600000Y-85400000D02*
X128100000Y-83900000D01*
X126600000Y-91700000D02*
X128700000Y-93800000D01*
X126600000Y-85400000D02*
X126600000Y-91700000D01*
X168500000Y-85800000D02*
X168500000Y-71400000D01*
X168500000Y-71400000D02*
X168300000Y-71600000D01*
X163800000Y-55400000D02*
X162700000Y-54300000D01*
X163800000Y-67100000D02*
X163800000Y-55400000D01*
X155800000Y-72800000D02*
X155800000Y-84500000D01*
X157000000Y-71600000D02*
X155800000Y-72800000D01*
X157000000Y-61600000D02*
X157000000Y-71600000D01*
X152200000Y-56800000D02*
X157000000Y-61600000D01*
X167075000Y-68125000D02*
X158825000Y-68125000D01*
X174700000Y-60500000D02*
X167075000Y-68125000D01*
D16*
G36*
X179340001Y-99340000D02*
G01*
X110660000Y-99340000D01*
X110660000Y-85298061D01*
X125565000Y-85298061D01*
X125565000Y-85501939D01*
X125604774Y-85701898D01*
X125682795Y-85890256D01*
X125796063Y-86059774D01*
X125840000Y-86103711D01*
X125840001Y-91662668D01*
X125836324Y-91700000D01*
X125850998Y-91848985D01*
X125894454Y-91992246D01*
X125965026Y-92124276D01*
X126036201Y-92211002D01*
X126060000Y-92240001D01*
X126088998Y-92263799D01*
X127665000Y-93839803D01*
X127665000Y-93901939D01*
X127704774Y-94101898D01*
X127782795Y-94290256D01*
X127896063Y-94459774D01*
X128040226Y-94603937D01*
X128209744Y-94717205D01*
X128398102Y-94795226D01*
X128598061Y-94835000D01*
X128801939Y-94835000D01*
X129001898Y-94795226D01*
X129082375Y-94761891D01*
X167033525Y-94761891D01*
X167078176Y-94909100D01*
X167203360Y-95171921D01*
X167377413Y-95405270D01*
X167593646Y-95600179D01*
X167843749Y-95749158D01*
X168118110Y-95846482D01*
X168348001Y-95725815D01*
X168348001Y-94532001D01*
X168602001Y-94532001D01*
X168602001Y-95725815D01*
X168831892Y-95846482D01*
X169106253Y-95749158D01*
X169356356Y-95600179D01*
X169572589Y-95405270D01*
X169746642Y-95171921D01*
X169871826Y-94909100D01*
X169916477Y-94761891D01*
X169795156Y-94532001D01*
X168602001Y-94532001D01*
X168348001Y-94532001D01*
X167154846Y-94532001D01*
X167033525Y-94761891D01*
X129082375Y-94761891D01*
X129190256Y-94717205D01*
X129359774Y-94603937D01*
X129503937Y-94459774D01*
X129617205Y-94290256D01*
X129695226Y-94101898D01*
X129735000Y-93901939D01*
X129735000Y-93698061D01*
X129695226Y-93498102D01*
X129617205Y-93309744D01*
X129503937Y-93140226D01*
X129359774Y-92996063D01*
X129190256Y-92882795D01*
X129001898Y-92804774D01*
X128801939Y-92765000D01*
X128739803Y-92765000D01*
X127360000Y-91385199D01*
X127360000Y-88475001D01*
X166986929Y-88475001D01*
X166986929Y-90175001D01*
X166999189Y-90299483D01*
X167035499Y-90419181D01*
X167094464Y-90529495D01*
X167173816Y-90626186D01*
X167270507Y-90705538D01*
X167380821Y-90764503D01*
X167453381Y-90786514D01*
X167321526Y-90918369D01*
X167159011Y-91161590D01*
X167047069Y-91431843D01*
X166990001Y-91718741D01*
X166990001Y-92011261D01*
X167047069Y-92298159D01*
X167159011Y-92568412D01*
X167321526Y-92811633D01*
X167528369Y-93018476D01*
X167710535Y-93140196D01*
X167593646Y-93209823D01*
X167377413Y-93404732D01*
X167203360Y-93638081D01*
X167078176Y-93900902D01*
X167033525Y-94048111D01*
X167154846Y-94278001D01*
X168348001Y-94278001D01*
X168348001Y-94258001D01*
X168602001Y-94258001D01*
X168602001Y-94278001D01*
X169795156Y-94278001D01*
X169916477Y-94048111D01*
X169871826Y-93900902D01*
X169746642Y-93638081D01*
X169572589Y-93404732D01*
X169356356Y-93209823D01*
X169239467Y-93140196D01*
X169421633Y-93018476D01*
X169628476Y-92811633D01*
X169790991Y-92568412D01*
X169902933Y-92298159D01*
X169960001Y-92011261D01*
X169960001Y-91718741D01*
X169902933Y-91431843D01*
X169790991Y-91161590D01*
X169628476Y-90918369D01*
X169496621Y-90786514D01*
X169569181Y-90764503D01*
X169679495Y-90705538D01*
X169776186Y-90626186D01*
X169855538Y-90529495D01*
X169914503Y-90419181D01*
X169950813Y-90299483D01*
X169963073Y-90175001D01*
X169963073Y-88475001D01*
X169950813Y-88350519D01*
X169914503Y-88230821D01*
X169855538Y-88120507D01*
X169776186Y-88023816D01*
X169679495Y-87944464D01*
X169569181Y-87885499D01*
X169449483Y-87849189D01*
X169325001Y-87836929D01*
X167625001Y-87836929D01*
X167500519Y-87849189D01*
X167380821Y-87885499D01*
X167270507Y-87944464D01*
X167173816Y-88023816D01*
X167094464Y-88120507D01*
X167035499Y-88230821D01*
X166999189Y-88350519D01*
X166986929Y-88475001D01*
X127360000Y-88475001D01*
X127360000Y-86103711D01*
X127403937Y-86059774D01*
X127517205Y-85890256D01*
X127595226Y-85701898D01*
X127635000Y-85501939D01*
X127635000Y-85439801D01*
X128611004Y-84463798D01*
X128640001Y-84440001D01*
X128734974Y-84324276D01*
X128805546Y-84192247D01*
X128849003Y-84048986D01*
X128860000Y-83937333D01*
X128860000Y-83937324D01*
X128863676Y-83900001D01*
X128860000Y-83862678D01*
X128860000Y-70303711D01*
X128903937Y-70259774D01*
X129017205Y-70090256D01*
X129095226Y-69901898D01*
X129135000Y-69701939D01*
X129135000Y-69498061D01*
X129095226Y-69298102D01*
X129017205Y-69109744D01*
X128903937Y-68940226D01*
X128759774Y-68796063D01*
X128590256Y-68682795D01*
X128401898Y-68604774D01*
X128201939Y-68565000D01*
X127998061Y-68565000D01*
X127798102Y-68604774D01*
X127609744Y-68682795D01*
X127440226Y-68796063D01*
X127296063Y-68940226D01*
X127182795Y-69109744D01*
X127104774Y-69298102D01*
X127065000Y-69498061D01*
X127065000Y-69701939D01*
X127104774Y-69901898D01*
X127182795Y-70090256D01*
X127296063Y-70259774D01*
X127340001Y-70303712D01*
X127340000Y-83585198D01*
X126560199Y-84365000D01*
X126498061Y-84365000D01*
X126298102Y-84404774D01*
X126109744Y-84482795D01*
X125940226Y-84596063D01*
X125796063Y-84740226D01*
X125682795Y-84909744D01*
X125604774Y-85098102D01*
X125565000Y-85298061D01*
X110660000Y-85298061D01*
X110660000Y-72180000D01*
X114741928Y-72180000D01*
X114741928Y-74420000D01*
X114754188Y-74544482D01*
X114790498Y-74664180D01*
X114849463Y-74774494D01*
X114928815Y-74871185D01*
X115025506Y-74950537D01*
X115135820Y-75009502D01*
X115255518Y-75045812D01*
X115380000Y-75058072D01*
X117620000Y-75058072D01*
X117744482Y-75045812D01*
X117864180Y-75009502D01*
X117974494Y-74950537D01*
X118071185Y-74871185D01*
X118150537Y-74774494D01*
X118209502Y-74664180D01*
X118245812Y-74544482D01*
X118258072Y-74420000D01*
X118258072Y-72180000D01*
X118245812Y-72055518D01*
X118209502Y-71935820D01*
X118150537Y-71825506D01*
X118071185Y-71728815D01*
X118001559Y-71671675D01*
X118055261Y-71591304D01*
X118187557Y-71271915D01*
X118255000Y-70932852D01*
X118255000Y-70587148D01*
X118187557Y-70248085D01*
X118055261Y-69928696D01*
X117863198Y-69641253D01*
X117618747Y-69396802D01*
X117331304Y-69204739D01*
X117011915Y-69072443D01*
X116672852Y-69005000D01*
X116327148Y-69005000D01*
X115988085Y-69072443D01*
X115668696Y-69204739D01*
X115381253Y-69396802D01*
X115136802Y-69641253D01*
X114944739Y-69928696D01*
X114812443Y-70248085D01*
X114745000Y-70587148D01*
X114745000Y-70932852D01*
X114812443Y-71271915D01*
X114944739Y-71591304D01*
X114998441Y-71671675D01*
X114928815Y-71728815D01*
X114849463Y-71825506D01*
X114790498Y-71935820D01*
X114754188Y-72055518D01*
X114741928Y-72180000D01*
X110660000Y-72180000D01*
X110660000Y-61706890D01*
X123558524Y-61706890D01*
X123603175Y-61854099D01*
X123728359Y-62116920D01*
X123902412Y-62350269D01*
X124118645Y-62545178D01*
X124368748Y-62694157D01*
X124643109Y-62791481D01*
X124873000Y-62670814D01*
X124873000Y-61477000D01*
X125127000Y-61477000D01*
X125127000Y-62670814D01*
X125356891Y-62791481D01*
X125631252Y-62694157D01*
X125881355Y-62545178D01*
X126097588Y-62350269D01*
X126271641Y-62116920D01*
X126396825Y-61854099D01*
X126441476Y-61706890D01*
X126320155Y-61477000D01*
X125127000Y-61477000D01*
X124873000Y-61477000D01*
X123679845Y-61477000D01*
X123558524Y-61706890D01*
X110660000Y-61706890D01*
X110660000Y-55420000D01*
X123511928Y-55420000D01*
X123511928Y-57120000D01*
X123524188Y-57244482D01*
X123560498Y-57364180D01*
X123619463Y-57474494D01*
X123698815Y-57571185D01*
X123795506Y-57650537D01*
X123905820Y-57709502D01*
X123978380Y-57731513D01*
X123846525Y-57863368D01*
X123684010Y-58106589D01*
X123572068Y-58376842D01*
X123515000Y-58663740D01*
X123515000Y-58956260D01*
X123572068Y-59243158D01*
X123684010Y-59513411D01*
X123846525Y-59756632D01*
X124053368Y-59963475D01*
X124235534Y-60085195D01*
X124118645Y-60154822D01*
X123902412Y-60349731D01*
X123728359Y-60583080D01*
X123603175Y-60845901D01*
X123558524Y-60993110D01*
X123679845Y-61223000D01*
X124873000Y-61223000D01*
X124873000Y-61203000D01*
X125127000Y-61203000D01*
X125127000Y-61223000D01*
X126320155Y-61223000D01*
X126441476Y-60993110D01*
X126396825Y-60845901D01*
X126271641Y-60583080D01*
X126097588Y-60349731D01*
X125881355Y-60154822D01*
X125764466Y-60085195D01*
X125946632Y-59963475D01*
X126153475Y-59756632D01*
X126315990Y-59513411D01*
X126427932Y-59243158D01*
X126485000Y-58956260D01*
X126485000Y-58663740D01*
X126427932Y-58376842D01*
X126315990Y-58106589D01*
X126153475Y-57863368D01*
X126021620Y-57731513D01*
X126094180Y-57709502D01*
X126204494Y-57650537D01*
X126301185Y-57571185D01*
X126380537Y-57474494D01*
X126439502Y-57364180D01*
X126475812Y-57244482D01*
X126488072Y-57120000D01*
X126488072Y-56698061D01*
X151165000Y-56698061D01*
X151165000Y-56901939D01*
X151204774Y-57101898D01*
X151282795Y-57290256D01*
X151396063Y-57459774D01*
X151540226Y-57603937D01*
X151709744Y-57717205D01*
X151898102Y-57795226D01*
X152098061Y-57835000D01*
X152160199Y-57835000D01*
X156240000Y-61914802D01*
X156240001Y-70896288D01*
X156196063Y-70940226D01*
X156082795Y-71109744D01*
X156004774Y-71298102D01*
X155965000Y-71498061D01*
X155965000Y-71560198D01*
X155289003Y-72236196D01*
X155259999Y-72259999D01*
X155222620Y-72305546D01*
X155165026Y-72375724D01*
X155149946Y-72403937D01*
X155094454Y-72507754D01*
X155050997Y-72651015D01*
X155040000Y-72762668D01*
X155040000Y-72762678D01*
X155036324Y-72800000D01*
X155040000Y-72837322D01*
X155040001Y-83796288D01*
X154996063Y-83840226D01*
X154882795Y-84009744D01*
X154804774Y-84198102D01*
X154765000Y-84398061D01*
X154765000Y-84601939D01*
X154804774Y-84801898D01*
X154882795Y-84990256D01*
X154996063Y-85159774D01*
X155140226Y-85303937D01*
X155309744Y-85417205D01*
X155498102Y-85495226D01*
X155698061Y-85535000D01*
X155901939Y-85535000D01*
X156101898Y-85495226D01*
X156290256Y-85417205D01*
X156459774Y-85303937D01*
X156603937Y-85159774D01*
X156717205Y-84990256D01*
X156795226Y-84801898D01*
X156835000Y-84601939D01*
X156835000Y-84398061D01*
X156795226Y-84198102D01*
X156717205Y-84009744D01*
X156603937Y-83840226D01*
X156560000Y-83796289D01*
X156560000Y-73114801D01*
X157039802Y-72635000D01*
X157101939Y-72635000D01*
X157301898Y-72595226D01*
X157490256Y-72517205D01*
X157659774Y-72403937D01*
X157803937Y-72259774D01*
X157917205Y-72090256D01*
X157995226Y-71901898D01*
X158035000Y-71701939D01*
X158035000Y-71498061D01*
X167265000Y-71498061D01*
X167265000Y-71701939D01*
X167304774Y-71901898D01*
X167382795Y-72090256D01*
X167496063Y-72259774D01*
X167640226Y-72403937D01*
X167740001Y-72470604D01*
X167740000Y-85096289D01*
X167696063Y-85140226D01*
X167582795Y-85309744D01*
X167504774Y-85498102D01*
X167465000Y-85698061D01*
X167465000Y-85901939D01*
X167504774Y-86101898D01*
X167582795Y-86290256D01*
X167696063Y-86459774D01*
X167840226Y-86603937D01*
X168009744Y-86717205D01*
X168198102Y-86795226D01*
X168398061Y-86835000D01*
X168601939Y-86835000D01*
X168801898Y-86795226D01*
X168990256Y-86717205D01*
X169159774Y-86603937D01*
X169303937Y-86459774D01*
X169417205Y-86290256D01*
X169495226Y-86101898D01*
X169535000Y-85901939D01*
X169535000Y-85698061D01*
X169495226Y-85498102D01*
X169417205Y-85309744D01*
X169303937Y-85140226D01*
X169260000Y-85096289D01*
X169260000Y-80359379D01*
X169368748Y-80424157D01*
X169643109Y-80521481D01*
X169873000Y-80400814D01*
X169873000Y-79207000D01*
X170127000Y-79207000D01*
X170127000Y-80400814D01*
X170356891Y-80521481D01*
X170631252Y-80424157D01*
X170881355Y-80275178D01*
X171097588Y-80080269D01*
X171271641Y-79846920D01*
X171396825Y-79584099D01*
X171441476Y-79436890D01*
X171320155Y-79207000D01*
X170127000Y-79207000D01*
X169873000Y-79207000D01*
X169853000Y-79207000D01*
X169853000Y-78953000D01*
X169873000Y-78953000D01*
X169873000Y-78933000D01*
X170127000Y-78933000D01*
X170127000Y-78953000D01*
X171320155Y-78953000D01*
X171441476Y-78723110D01*
X171396825Y-78575901D01*
X171271641Y-78313080D01*
X171097588Y-78079731D01*
X170881355Y-77884822D01*
X170764466Y-77815195D01*
X170946632Y-77693475D01*
X171153475Y-77486632D01*
X171315990Y-77243411D01*
X171427932Y-76973158D01*
X171485000Y-76686260D01*
X171485000Y-76393740D01*
X171427932Y-76106842D01*
X171315990Y-75836589D01*
X171153475Y-75593368D01*
X171021620Y-75461513D01*
X171094180Y-75439502D01*
X171204494Y-75380537D01*
X171301185Y-75301185D01*
X171380537Y-75204494D01*
X171439502Y-75094180D01*
X171475812Y-74974482D01*
X171488072Y-74850000D01*
X171488072Y-73150000D01*
X171475812Y-73025518D01*
X171439502Y-72905820D01*
X171380537Y-72795506D01*
X171301185Y-72698815D01*
X171204494Y-72619463D01*
X171094180Y-72560498D01*
X170974482Y-72524188D01*
X170850000Y-72511928D01*
X169260000Y-72511928D01*
X169260000Y-71986940D01*
X169295226Y-71901898D01*
X169335000Y-71701939D01*
X169335000Y-71498061D01*
X169295226Y-71298102D01*
X169217205Y-71109744D01*
X169164240Y-71030476D01*
X169134974Y-70975724D01*
X169040001Y-70859999D01*
X168924276Y-70765026D01*
X168869524Y-70735760D01*
X168790256Y-70682795D01*
X168601898Y-70604774D01*
X168401939Y-70565000D01*
X168198061Y-70565000D01*
X167998102Y-70604774D01*
X167809744Y-70682795D01*
X167640226Y-70796063D01*
X167496063Y-70940226D01*
X167382795Y-71109744D01*
X167304774Y-71298102D01*
X167265000Y-71498061D01*
X158035000Y-71498061D01*
X157995226Y-71298102D01*
X157917205Y-71109744D01*
X157803937Y-70940226D01*
X157760000Y-70896289D01*
X157760000Y-68023061D01*
X157790000Y-68023061D01*
X157790000Y-68226939D01*
X157829774Y-68426898D01*
X157907795Y-68615256D01*
X158021063Y-68784774D01*
X158165226Y-68928937D01*
X158334744Y-69042205D01*
X158523102Y-69120226D01*
X158723061Y-69160000D01*
X158926939Y-69160000D01*
X159126898Y-69120226D01*
X159315256Y-69042205D01*
X159484774Y-68928937D01*
X159528711Y-68885000D01*
X167037678Y-68885000D01*
X167075000Y-68888676D01*
X167112322Y-68885000D01*
X167112333Y-68885000D01*
X167223986Y-68874003D01*
X167367247Y-68830546D01*
X167499276Y-68759974D01*
X167615001Y-68665001D01*
X167638804Y-68635997D01*
X174739803Y-61535000D01*
X174801939Y-61535000D01*
X175001898Y-61495226D01*
X175190256Y-61417205D01*
X175359774Y-61303937D01*
X175503937Y-61159774D01*
X175617205Y-60990256D01*
X175695226Y-60801898D01*
X175735000Y-60601939D01*
X175735000Y-60398061D01*
X175695226Y-60198102D01*
X175617205Y-60009744D01*
X175503937Y-59840226D01*
X175359774Y-59696063D01*
X175190256Y-59582795D01*
X175001898Y-59504774D01*
X174801939Y-59465000D01*
X174598061Y-59465000D01*
X174398102Y-59504774D01*
X174209744Y-59582795D01*
X174040226Y-59696063D01*
X173896063Y-59840226D01*
X173782795Y-60009744D01*
X173704774Y-60198102D01*
X173665000Y-60398061D01*
X173665000Y-60460197D01*
X166760199Y-67365000D01*
X164802565Y-67365000D01*
X164835000Y-67201939D01*
X164835000Y-66998061D01*
X164795226Y-66798102D01*
X164717205Y-66609744D01*
X164603937Y-66440226D01*
X164560000Y-66396289D01*
X164560000Y-58092538D01*
X164560498Y-58094180D01*
X164619463Y-58204494D01*
X164698815Y-58301185D01*
X164795506Y-58380537D01*
X164905820Y-58439502D01*
X165025518Y-58475812D01*
X165150000Y-58488072D01*
X166850000Y-58488072D01*
X166974482Y-58475812D01*
X167094180Y-58439502D01*
X167204494Y-58380537D01*
X167301185Y-58301185D01*
X167380537Y-58204494D01*
X167439502Y-58094180D01*
X167461513Y-58021620D01*
X167593368Y-58153475D01*
X167836589Y-58315990D01*
X168106842Y-58427932D01*
X168393740Y-58485000D01*
X168686260Y-58485000D01*
X168973158Y-58427932D01*
X169243411Y-58315990D01*
X169486632Y-58153475D01*
X169693475Y-57946632D01*
X169815195Y-57764466D01*
X169884822Y-57881355D01*
X170079731Y-58097588D01*
X170313080Y-58271641D01*
X170575901Y-58396825D01*
X170723110Y-58441476D01*
X170953000Y-58320155D01*
X170953000Y-57127000D01*
X171207000Y-57127000D01*
X171207000Y-58320155D01*
X171436890Y-58441476D01*
X171584099Y-58396825D01*
X171846920Y-58271641D01*
X172080269Y-58097588D01*
X172275178Y-57881355D01*
X172424157Y-57631252D01*
X172521481Y-57356891D01*
X172400814Y-57127000D01*
X171207000Y-57127000D01*
X170953000Y-57127000D01*
X170933000Y-57127000D01*
X170933000Y-56873000D01*
X170953000Y-56873000D01*
X170953000Y-55679845D01*
X171207000Y-55679845D01*
X171207000Y-56873000D01*
X172400814Y-56873000D01*
X172521481Y-56643109D01*
X172424157Y-56368748D01*
X172275178Y-56118645D01*
X172080269Y-55902412D01*
X171846920Y-55728359D01*
X171584099Y-55603175D01*
X171436890Y-55558524D01*
X171207000Y-55679845D01*
X170953000Y-55679845D01*
X170723110Y-55558524D01*
X170575901Y-55603175D01*
X170313080Y-55728359D01*
X170079731Y-55902412D01*
X169884822Y-56118645D01*
X169815195Y-56235534D01*
X169693475Y-56053368D01*
X169486632Y-55846525D01*
X169243411Y-55684010D01*
X168973158Y-55572068D01*
X168686260Y-55515000D01*
X168393740Y-55515000D01*
X168106842Y-55572068D01*
X167836589Y-55684010D01*
X167593368Y-55846525D01*
X167461513Y-55978380D01*
X167439502Y-55905820D01*
X167380537Y-55795506D01*
X167301185Y-55698815D01*
X167204494Y-55619463D01*
X167094180Y-55560498D01*
X166974482Y-55524188D01*
X166850000Y-55511928D01*
X165150000Y-55511928D01*
X165025518Y-55524188D01*
X164905820Y-55560498D01*
X164795506Y-55619463D01*
X164698815Y-55698815D01*
X164619463Y-55795506D01*
X164560498Y-55905820D01*
X164560000Y-55907462D01*
X164560000Y-55437323D01*
X164563676Y-55400000D01*
X164560000Y-55362677D01*
X164560000Y-55362667D01*
X164549003Y-55251014D01*
X164505546Y-55107753D01*
X164482964Y-55065506D01*
X164434974Y-54975723D01*
X164363799Y-54888997D01*
X164340001Y-54859999D01*
X164311003Y-54836201D01*
X163735000Y-54260199D01*
X163735000Y-54198061D01*
X163695226Y-53998102D01*
X163617205Y-53809744D01*
X163503937Y-53640226D01*
X163359774Y-53496063D01*
X163190256Y-53382795D01*
X163001898Y-53304774D01*
X162801939Y-53265000D01*
X162598061Y-53265000D01*
X162398102Y-53304774D01*
X162209744Y-53382795D01*
X162040226Y-53496063D01*
X161896063Y-53640226D01*
X161782795Y-53809744D01*
X161704774Y-53998102D01*
X161665000Y-54198061D01*
X161665000Y-54401939D01*
X161704774Y-54601898D01*
X161782795Y-54790256D01*
X161896063Y-54959774D01*
X162040226Y-55103937D01*
X162209744Y-55217205D01*
X162398102Y-55295226D01*
X162598061Y-55335000D01*
X162660199Y-55335000D01*
X163040001Y-55714803D01*
X163040000Y-66396289D01*
X162996063Y-66440226D01*
X162882795Y-66609744D01*
X162804774Y-66798102D01*
X162765000Y-66998061D01*
X162765000Y-67201939D01*
X162797435Y-67365000D01*
X159528711Y-67365000D01*
X159484774Y-67321063D01*
X159315256Y-67207795D01*
X159126898Y-67129774D01*
X158926939Y-67090000D01*
X158723061Y-67090000D01*
X158523102Y-67129774D01*
X158334744Y-67207795D01*
X158165226Y-67321063D01*
X158021063Y-67465226D01*
X157907795Y-67634744D01*
X157829774Y-67823102D01*
X157790000Y-68023061D01*
X157760000Y-68023061D01*
X157760000Y-61637322D01*
X157763676Y-61599999D01*
X157760000Y-61562676D01*
X157760000Y-61562667D01*
X157749003Y-61451014D01*
X157705546Y-61307753D01*
X157634975Y-61175725D01*
X157634974Y-61175723D01*
X157563799Y-61088997D01*
X157540001Y-61059999D01*
X157511004Y-61036202D01*
X153235000Y-56760199D01*
X153235000Y-56698061D01*
X153195226Y-56498102D01*
X153117205Y-56309744D01*
X153003937Y-56140226D01*
X152859774Y-55996063D01*
X152690256Y-55882795D01*
X152501898Y-55804774D01*
X152301939Y-55765000D01*
X152098061Y-55765000D01*
X151898102Y-55804774D01*
X151709744Y-55882795D01*
X151540226Y-55996063D01*
X151396063Y-56140226D01*
X151282795Y-56309744D01*
X151204774Y-56498102D01*
X151165000Y-56698061D01*
X126488072Y-56698061D01*
X126488072Y-55420000D01*
X126475812Y-55295518D01*
X126439502Y-55175820D01*
X126380537Y-55065506D01*
X126301185Y-54968815D01*
X126204494Y-54889463D01*
X126094180Y-54830498D01*
X125974482Y-54794188D01*
X125850000Y-54781928D01*
X124150000Y-54781928D01*
X124025518Y-54794188D01*
X123905820Y-54830498D01*
X123795506Y-54889463D01*
X123698815Y-54968815D01*
X123619463Y-55065506D01*
X123560498Y-55175820D01*
X123524188Y-55295518D01*
X123511928Y-55420000D01*
X110660000Y-55420000D01*
X110660000Y-50660000D01*
X179340000Y-50660000D01*
X179340001Y-99340000D01*
G37*
X179340001Y-99340000D02*
X110660000Y-99340000D01*
X110660000Y-85298061D01*
X125565000Y-85298061D01*
X125565000Y-85501939D01*
X125604774Y-85701898D01*
X125682795Y-85890256D01*
X125796063Y-86059774D01*
X125840000Y-86103711D01*
X125840001Y-91662668D01*
X125836324Y-91700000D01*
X125850998Y-91848985D01*
X125894454Y-91992246D01*
X125965026Y-92124276D01*
X126036201Y-92211002D01*
X126060000Y-92240001D01*
X126088998Y-92263799D01*
X127665000Y-93839803D01*
X127665000Y-93901939D01*
X127704774Y-94101898D01*
X127782795Y-94290256D01*
X127896063Y-94459774D01*
X128040226Y-94603937D01*
X128209744Y-94717205D01*
X128398102Y-94795226D01*
X128598061Y-94835000D01*
X128801939Y-94835000D01*
X129001898Y-94795226D01*
X129082375Y-94761891D01*
X167033525Y-94761891D01*
X167078176Y-94909100D01*
X167203360Y-95171921D01*
X167377413Y-95405270D01*
X167593646Y-95600179D01*
X167843749Y-95749158D01*
X168118110Y-95846482D01*
X168348001Y-95725815D01*
X168348001Y-94532001D01*
X168602001Y-94532001D01*
X168602001Y-95725815D01*
X168831892Y-95846482D01*
X169106253Y-95749158D01*
X169356356Y-95600179D01*
X169572589Y-95405270D01*
X169746642Y-95171921D01*
X169871826Y-94909100D01*
X169916477Y-94761891D01*
X169795156Y-94532001D01*
X168602001Y-94532001D01*
X168348001Y-94532001D01*
X167154846Y-94532001D01*
X167033525Y-94761891D01*
X129082375Y-94761891D01*
X129190256Y-94717205D01*
X129359774Y-94603937D01*
X129503937Y-94459774D01*
X129617205Y-94290256D01*
X129695226Y-94101898D01*
X129735000Y-93901939D01*
X129735000Y-93698061D01*
X129695226Y-93498102D01*
X129617205Y-93309744D01*
X129503937Y-93140226D01*
X129359774Y-92996063D01*
X129190256Y-92882795D01*
X129001898Y-92804774D01*
X128801939Y-92765000D01*
X128739803Y-92765000D01*
X127360000Y-91385199D01*
X127360000Y-88475001D01*
X166986929Y-88475001D01*
X166986929Y-90175001D01*
X166999189Y-90299483D01*
X167035499Y-90419181D01*
X167094464Y-90529495D01*
X167173816Y-90626186D01*
X167270507Y-90705538D01*
X167380821Y-90764503D01*
X167453381Y-90786514D01*
X167321526Y-90918369D01*
X167159011Y-91161590D01*
X167047069Y-91431843D01*
X166990001Y-91718741D01*
X166990001Y-92011261D01*
X167047069Y-92298159D01*
X167159011Y-92568412D01*
X167321526Y-92811633D01*
X167528369Y-93018476D01*
X167710535Y-93140196D01*
X167593646Y-93209823D01*
X167377413Y-93404732D01*
X167203360Y-93638081D01*
X167078176Y-93900902D01*
X167033525Y-94048111D01*
X167154846Y-94278001D01*
X168348001Y-94278001D01*
X168348001Y-94258001D01*
X168602001Y-94258001D01*
X168602001Y-94278001D01*
X169795156Y-94278001D01*
X169916477Y-94048111D01*
X169871826Y-93900902D01*
X169746642Y-93638081D01*
X169572589Y-93404732D01*
X169356356Y-93209823D01*
X169239467Y-93140196D01*
X169421633Y-93018476D01*
X169628476Y-92811633D01*
X169790991Y-92568412D01*
X169902933Y-92298159D01*
X169960001Y-92011261D01*
X169960001Y-91718741D01*
X169902933Y-91431843D01*
X169790991Y-91161590D01*
X169628476Y-90918369D01*
X169496621Y-90786514D01*
X169569181Y-90764503D01*
X169679495Y-90705538D01*
X169776186Y-90626186D01*
X169855538Y-90529495D01*
X169914503Y-90419181D01*
X169950813Y-90299483D01*
X169963073Y-90175001D01*
X169963073Y-88475001D01*
X169950813Y-88350519D01*
X169914503Y-88230821D01*
X169855538Y-88120507D01*
X169776186Y-88023816D01*
X169679495Y-87944464D01*
X169569181Y-87885499D01*
X169449483Y-87849189D01*
X169325001Y-87836929D01*
X167625001Y-87836929D01*
X167500519Y-87849189D01*
X167380821Y-87885499D01*
X167270507Y-87944464D01*
X167173816Y-88023816D01*
X167094464Y-88120507D01*
X167035499Y-88230821D01*
X166999189Y-88350519D01*
X166986929Y-88475001D01*
X127360000Y-88475001D01*
X127360000Y-86103711D01*
X127403937Y-86059774D01*
X127517205Y-85890256D01*
X127595226Y-85701898D01*
X127635000Y-85501939D01*
X127635000Y-85439801D01*
X128611004Y-84463798D01*
X128640001Y-84440001D01*
X128734974Y-84324276D01*
X128805546Y-84192247D01*
X128849003Y-84048986D01*
X128860000Y-83937333D01*
X128860000Y-83937324D01*
X128863676Y-83900001D01*
X128860000Y-83862678D01*
X128860000Y-70303711D01*
X128903937Y-70259774D01*
X129017205Y-70090256D01*
X129095226Y-69901898D01*
X129135000Y-69701939D01*
X129135000Y-69498061D01*
X129095226Y-69298102D01*
X129017205Y-69109744D01*
X128903937Y-68940226D01*
X128759774Y-68796063D01*
X128590256Y-68682795D01*
X128401898Y-68604774D01*
X128201939Y-68565000D01*
X127998061Y-68565000D01*
X127798102Y-68604774D01*
X127609744Y-68682795D01*
X127440226Y-68796063D01*
X127296063Y-68940226D01*
X127182795Y-69109744D01*
X127104774Y-69298102D01*
X127065000Y-69498061D01*
X127065000Y-69701939D01*
X127104774Y-69901898D01*
X127182795Y-70090256D01*
X127296063Y-70259774D01*
X127340001Y-70303712D01*
X127340000Y-83585198D01*
X126560199Y-84365000D01*
X126498061Y-84365000D01*
X126298102Y-84404774D01*
X126109744Y-84482795D01*
X125940226Y-84596063D01*
X125796063Y-84740226D01*
X125682795Y-84909744D01*
X125604774Y-85098102D01*
X125565000Y-85298061D01*
X110660000Y-85298061D01*
X110660000Y-72180000D01*
X114741928Y-72180000D01*
X114741928Y-74420000D01*
X114754188Y-74544482D01*
X114790498Y-74664180D01*
X114849463Y-74774494D01*
X114928815Y-74871185D01*
X115025506Y-74950537D01*
X115135820Y-75009502D01*
X115255518Y-75045812D01*
X115380000Y-75058072D01*
X117620000Y-75058072D01*
X117744482Y-75045812D01*
X117864180Y-75009502D01*
X117974494Y-74950537D01*
X118071185Y-74871185D01*
X118150537Y-74774494D01*
X118209502Y-74664180D01*
X118245812Y-74544482D01*
X118258072Y-74420000D01*
X118258072Y-72180000D01*
X118245812Y-72055518D01*
X118209502Y-71935820D01*
X118150537Y-71825506D01*
X118071185Y-71728815D01*
X118001559Y-71671675D01*
X118055261Y-71591304D01*
X118187557Y-71271915D01*
X118255000Y-70932852D01*
X118255000Y-70587148D01*
X118187557Y-70248085D01*
X118055261Y-69928696D01*
X117863198Y-69641253D01*
X117618747Y-69396802D01*
X117331304Y-69204739D01*
X117011915Y-69072443D01*
X116672852Y-69005000D01*
X116327148Y-69005000D01*
X115988085Y-69072443D01*
X115668696Y-69204739D01*
X115381253Y-69396802D01*
X115136802Y-69641253D01*
X114944739Y-69928696D01*
X114812443Y-70248085D01*
X114745000Y-70587148D01*
X114745000Y-70932852D01*
X114812443Y-71271915D01*
X114944739Y-71591304D01*
X114998441Y-71671675D01*
X114928815Y-71728815D01*
X114849463Y-71825506D01*
X114790498Y-71935820D01*
X114754188Y-72055518D01*
X114741928Y-72180000D01*
X110660000Y-72180000D01*
X110660000Y-61706890D01*
X123558524Y-61706890D01*
X123603175Y-61854099D01*
X123728359Y-62116920D01*
X123902412Y-62350269D01*
X124118645Y-62545178D01*
X124368748Y-62694157D01*
X124643109Y-62791481D01*
X124873000Y-62670814D01*
X124873000Y-61477000D01*
X125127000Y-61477000D01*
X125127000Y-62670814D01*
X125356891Y-62791481D01*
X125631252Y-62694157D01*
X125881355Y-62545178D01*
X126097588Y-62350269D01*
X126271641Y-62116920D01*
X126396825Y-61854099D01*
X126441476Y-61706890D01*
X126320155Y-61477000D01*
X125127000Y-61477000D01*
X124873000Y-61477000D01*
X123679845Y-61477000D01*
X123558524Y-61706890D01*
X110660000Y-61706890D01*
X110660000Y-55420000D01*
X123511928Y-55420000D01*
X123511928Y-57120000D01*
X123524188Y-57244482D01*
X123560498Y-57364180D01*
X123619463Y-57474494D01*
X123698815Y-57571185D01*
X123795506Y-57650537D01*
X123905820Y-57709502D01*
X123978380Y-57731513D01*
X123846525Y-57863368D01*
X123684010Y-58106589D01*
X123572068Y-58376842D01*
X123515000Y-58663740D01*
X123515000Y-58956260D01*
X123572068Y-59243158D01*
X123684010Y-59513411D01*
X123846525Y-59756632D01*
X124053368Y-59963475D01*
X124235534Y-60085195D01*
X124118645Y-60154822D01*
X123902412Y-60349731D01*
X123728359Y-60583080D01*
X123603175Y-60845901D01*
X123558524Y-60993110D01*
X123679845Y-61223000D01*
X124873000Y-61223000D01*
X124873000Y-61203000D01*
X125127000Y-61203000D01*
X125127000Y-61223000D01*
X126320155Y-61223000D01*
X126441476Y-60993110D01*
X126396825Y-60845901D01*
X126271641Y-60583080D01*
X126097588Y-60349731D01*
X125881355Y-60154822D01*
X125764466Y-60085195D01*
X125946632Y-59963475D01*
X126153475Y-59756632D01*
X126315990Y-59513411D01*
X126427932Y-59243158D01*
X126485000Y-58956260D01*
X126485000Y-58663740D01*
X126427932Y-58376842D01*
X126315990Y-58106589D01*
X126153475Y-57863368D01*
X126021620Y-57731513D01*
X126094180Y-57709502D01*
X126204494Y-57650537D01*
X126301185Y-57571185D01*
X126380537Y-57474494D01*
X126439502Y-57364180D01*
X126475812Y-57244482D01*
X126488072Y-57120000D01*
X126488072Y-56698061D01*
X151165000Y-56698061D01*
X151165000Y-56901939D01*
X151204774Y-57101898D01*
X151282795Y-57290256D01*
X151396063Y-57459774D01*
X151540226Y-57603937D01*
X151709744Y-57717205D01*
X151898102Y-57795226D01*
X152098061Y-57835000D01*
X152160199Y-57835000D01*
X156240000Y-61914802D01*
X156240001Y-70896288D01*
X156196063Y-70940226D01*
X156082795Y-71109744D01*
X156004774Y-71298102D01*
X155965000Y-71498061D01*
X155965000Y-71560198D01*
X155289003Y-72236196D01*
X155259999Y-72259999D01*
X155222620Y-72305546D01*
X155165026Y-72375724D01*
X155149946Y-72403937D01*
X155094454Y-72507754D01*
X155050997Y-72651015D01*
X155040000Y-72762668D01*
X155040000Y-72762678D01*
X155036324Y-72800000D01*
X155040000Y-72837322D01*
X155040001Y-83796288D01*
X154996063Y-83840226D01*
X154882795Y-84009744D01*
X154804774Y-84198102D01*
X154765000Y-84398061D01*
X154765000Y-84601939D01*
X154804774Y-84801898D01*
X154882795Y-84990256D01*
X154996063Y-85159774D01*
X155140226Y-85303937D01*
X155309744Y-85417205D01*
X155498102Y-85495226D01*
X155698061Y-85535000D01*
X155901939Y-85535000D01*
X156101898Y-85495226D01*
X156290256Y-85417205D01*
X156459774Y-85303937D01*
X156603937Y-85159774D01*
X156717205Y-84990256D01*
X156795226Y-84801898D01*
X156835000Y-84601939D01*
X156835000Y-84398061D01*
X156795226Y-84198102D01*
X156717205Y-84009744D01*
X156603937Y-83840226D01*
X156560000Y-83796289D01*
X156560000Y-73114801D01*
X157039802Y-72635000D01*
X157101939Y-72635000D01*
X157301898Y-72595226D01*
X157490256Y-72517205D01*
X157659774Y-72403937D01*
X157803937Y-72259774D01*
X157917205Y-72090256D01*
X157995226Y-71901898D01*
X158035000Y-71701939D01*
X158035000Y-71498061D01*
X167265000Y-71498061D01*
X167265000Y-71701939D01*
X167304774Y-71901898D01*
X167382795Y-72090256D01*
X167496063Y-72259774D01*
X167640226Y-72403937D01*
X167740001Y-72470604D01*
X167740000Y-85096289D01*
X167696063Y-85140226D01*
X167582795Y-85309744D01*
X167504774Y-85498102D01*
X167465000Y-85698061D01*
X167465000Y-85901939D01*
X167504774Y-86101898D01*
X167582795Y-86290256D01*
X167696063Y-86459774D01*
X167840226Y-86603937D01*
X168009744Y-86717205D01*
X168198102Y-86795226D01*
X168398061Y-86835000D01*
X168601939Y-86835000D01*
X168801898Y-86795226D01*
X168990256Y-86717205D01*
X169159774Y-86603937D01*
X169303937Y-86459774D01*
X169417205Y-86290256D01*
X169495226Y-86101898D01*
X169535000Y-85901939D01*
X169535000Y-85698061D01*
X169495226Y-85498102D01*
X169417205Y-85309744D01*
X169303937Y-85140226D01*
X169260000Y-85096289D01*
X169260000Y-80359379D01*
X169368748Y-80424157D01*
X169643109Y-80521481D01*
X169873000Y-80400814D01*
X169873000Y-79207000D01*
X170127000Y-79207000D01*
X170127000Y-80400814D01*
X170356891Y-80521481D01*
X170631252Y-80424157D01*
X170881355Y-80275178D01*
X171097588Y-80080269D01*
X171271641Y-79846920D01*
X171396825Y-79584099D01*
X171441476Y-79436890D01*
X171320155Y-79207000D01*
X170127000Y-79207000D01*
X169873000Y-79207000D01*
X169853000Y-79207000D01*
X169853000Y-78953000D01*
X169873000Y-78953000D01*
X169873000Y-78933000D01*
X170127000Y-78933000D01*
X170127000Y-78953000D01*
X171320155Y-78953000D01*
X171441476Y-78723110D01*
X171396825Y-78575901D01*
X171271641Y-78313080D01*
X171097588Y-78079731D01*
X170881355Y-77884822D01*
X170764466Y-77815195D01*
X170946632Y-77693475D01*
X171153475Y-77486632D01*
X171315990Y-77243411D01*
X171427932Y-76973158D01*
X171485000Y-76686260D01*
X171485000Y-76393740D01*
X171427932Y-76106842D01*
X171315990Y-75836589D01*
X171153475Y-75593368D01*
X171021620Y-75461513D01*
X171094180Y-75439502D01*
X171204494Y-75380537D01*
X171301185Y-75301185D01*
X171380537Y-75204494D01*
X171439502Y-75094180D01*
X171475812Y-74974482D01*
X171488072Y-74850000D01*
X171488072Y-73150000D01*
X171475812Y-73025518D01*
X171439502Y-72905820D01*
X171380537Y-72795506D01*
X171301185Y-72698815D01*
X171204494Y-72619463D01*
X171094180Y-72560498D01*
X170974482Y-72524188D01*
X170850000Y-72511928D01*
X169260000Y-72511928D01*
X169260000Y-71986940D01*
X169295226Y-71901898D01*
X169335000Y-71701939D01*
X169335000Y-71498061D01*
X169295226Y-71298102D01*
X169217205Y-71109744D01*
X169164240Y-71030476D01*
X169134974Y-70975724D01*
X169040001Y-70859999D01*
X168924276Y-70765026D01*
X168869524Y-70735760D01*
X168790256Y-70682795D01*
X168601898Y-70604774D01*
X168401939Y-70565000D01*
X168198061Y-70565000D01*
X167998102Y-70604774D01*
X167809744Y-70682795D01*
X167640226Y-70796063D01*
X167496063Y-70940226D01*
X167382795Y-71109744D01*
X167304774Y-71298102D01*
X167265000Y-71498061D01*
X158035000Y-71498061D01*
X157995226Y-71298102D01*
X157917205Y-71109744D01*
X157803937Y-70940226D01*
X157760000Y-70896289D01*
X157760000Y-68023061D01*
X157790000Y-68023061D01*
X157790000Y-68226939D01*
X157829774Y-68426898D01*
X157907795Y-68615256D01*
X158021063Y-68784774D01*
X158165226Y-68928937D01*
X158334744Y-69042205D01*
X158523102Y-69120226D01*
X158723061Y-69160000D01*
X158926939Y-69160000D01*
X159126898Y-69120226D01*
X159315256Y-69042205D01*
X159484774Y-68928937D01*
X159528711Y-68885000D01*
X167037678Y-68885000D01*
X167075000Y-68888676D01*
X167112322Y-68885000D01*
X167112333Y-68885000D01*
X167223986Y-68874003D01*
X167367247Y-68830546D01*
X167499276Y-68759974D01*
X167615001Y-68665001D01*
X167638804Y-68635997D01*
X174739803Y-61535000D01*
X174801939Y-61535000D01*
X175001898Y-61495226D01*
X175190256Y-61417205D01*
X175359774Y-61303937D01*
X175503937Y-61159774D01*
X175617205Y-60990256D01*
X175695226Y-60801898D01*
X175735000Y-60601939D01*
X175735000Y-60398061D01*
X175695226Y-60198102D01*
X175617205Y-60009744D01*
X175503937Y-59840226D01*
X175359774Y-59696063D01*
X175190256Y-59582795D01*
X175001898Y-59504774D01*
X174801939Y-59465000D01*
X174598061Y-59465000D01*
X174398102Y-59504774D01*
X174209744Y-59582795D01*
X174040226Y-59696063D01*
X173896063Y-59840226D01*
X173782795Y-60009744D01*
X173704774Y-60198102D01*
X173665000Y-60398061D01*
X173665000Y-60460197D01*
X166760199Y-67365000D01*
X164802565Y-67365000D01*
X164835000Y-67201939D01*
X164835000Y-66998061D01*
X164795226Y-66798102D01*
X164717205Y-66609744D01*
X164603937Y-66440226D01*
X164560000Y-66396289D01*
X164560000Y-58092538D01*
X164560498Y-58094180D01*
X164619463Y-58204494D01*
X164698815Y-58301185D01*
X164795506Y-58380537D01*
X164905820Y-58439502D01*
X165025518Y-58475812D01*
X165150000Y-58488072D01*
X166850000Y-58488072D01*
X166974482Y-58475812D01*
X167094180Y-58439502D01*
X167204494Y-58380537D01*
X167301185Y-58301185D01*
X167380537Y-58204494D01*
X167439502Y-58094180D01*
X167461513Y-58021620D01*
X167593368Y-58153475D01*
X167836589Y-58315990D01*
X168106842Y-58427932D01*
X168393740Y-58485000D01*
X168686260Y-58485000D01*
X168973158Y-58427932D01*
X169243411Y-58315990D01*
X169486632Y-58153475D01*
X169693475Y-57946632D01*
X169815195Y-57764466D01*
X169884822Y-57881355D01*
X170079731Y-58097588D01*
X170313080Y-58271641D01*
X170575901Y-58396825D01*
X170723110Y-58441476D01*
X170953000Y-58320155D01*
X170953000Y-57127000D01*
X171207000Y-57127000D01*
X171207000Y-58320155D01*
X171436890Y-58441476D01*
X171584099Y-58396825D01*
X171846920Y-58271641D01*
X172080269Y-58097588D01*
X172275178Y-57881355D01*
X172424157Y-57631252D01*
X172521481Y-57356891D01*
X172400814Y-57127000D01*
X171207000Y-57127000D01*
X170953000Y-57127000D01*
X170933000Y-57127000D01*
X170933000Y-56873000D01*
X170953000Y-56873000D01*
X170953000Y-55679845D01*
X171207000Y-55679845D01*
X171207000Y-56873000D01*
X172400814Y-56873000D01*
X172521481Y-56643109D01*
X172424157Y-56368748D01*
X172275178Y-56118645D01*
X172080269Y-55902412D01*
X171846920Y-55728359D01*
X171584099Y-55603175D01*
X171436890Y-55558524D01*
X171207000Y-55679845D01*
X170953000Y-55679845D01*
X170723110Y-55558524D01*
X170575901Y-55603175D01*
X170313080Y-55728359D01*
X170079731Y-55902412D01*
X169884822Y-56118645D01*
X169815195Y-56235534D01*
X169693475Y-56053368D01*
X169486632Y-55846525D01*
X169243411Y-55684010D01*
X168973158Y-55572068D01*
X168686260Y-55515000D01*
X168393740Y-55515000D01*
X168106842Y-55572068D01*
X167836589Y-55684010D01*
X167593368Y-55846525D01*
X167461513Y-55978380D01*
X167439502Y-55905820D01*
X167380537Y-55795506D01*
X167301185Y-55698815D01*
X167204494Y-55619463D01*
X167094180Y-55560498D01*
X166974482Y-55524188D01*
X166850000Y-55511928D01*
X165150000Y-55511928D01*
X165025518Y-55524188D01*
X164905820Y-55560498D01*
X164795506Y-55619463D01*
X164698815Y-55698815D01*
X164619463Y-55795506D01*
X164560498Y-55905820D01*
X164560000Y-55907462D01*
X164560000Y-55437323D01*
X164563676Y-55400000D01*
X164560000Y-55362677D01*
X164560000Y-55362667D01*
X164549003Y-55251014D01*
X164505546Y-55107753D01*
X164482964Y-55065506D01*
X164434974Y-54975723D01*
X164363799Y-54888997D01*
X164340001Y-54859999D01*
X164311003Y-54836201D01*
X163735000Y-54260199D01*
X163735000Y-54198061D01*
X163695226Y-53998102D01*
X163617205Y-53809744D01*
X163503937Y-53640226D01*
X163359774Y-53496063D01*
X163190256Y-53382795D01*
X163001898Y-53304774D01*
X162801939Y-53265000D01*
X162598061Y-53265000D01*
X162398102Y-53304774D01*
X162209744Y-53382795D01*
X162040226Y-53496063D01*
X161896063Y-53640226D01*
X161782795Y-53809744D01*
X161704774Y-53998102D01*
X161665000Y-54198061D01*
X161665000Y-54401939D01*
X161704774Y-54601898D01*
X161782795Y-54790256D01*
X161896063Y-54959774D01*
X162040226Y-55103937D01*
X162209744Y-55217205D01*
X162398102Y-55295226D01*
X162598061Y-55335000D01*
X162660199Y-55335000D01*
X163040001Y-55714803D01*
X163040000Y-66396289D01*
X162996063Y-66440226D01*
X162882795Y-66609744D01*
X162804774Y-66798102D01*
X162765000Y-66998061D01*
X162765000Y-67201939D01*
X162797435Y-67365000D01*
X159528711Y-67365000D01*
X159484774Y-67321063D01*
X159315256Y-67207795D01*
X159126898Y-67129774D01*
X158926939Y-67090000D01*
X158723061Y-67090000D01*
X158523102Y-67129774D01*
X158334744Y-67207795D01*
X158165226Y-67321063D01*
X158021063Y-67465226D01*
X157907795Y-67634744D01*
X157829774Y-67823102D01*
X157790000Y-68023061D01*
X157760000Y-68023061D01*
X157760000Y-61637322D01*
X157763676Y-61599999D01*
X157760000Y-61562676D01*
X157760000Y-61562667D01*
X157749003Y-61451014D01*
X157705546Y-61307753D01*
X157634975Y-61175725D01*
X157634974Y-61175723D01*
X157563799Y-61088997D01*
X157540001Y-61059999D01*
X157511004Y-61036202D01*
X153235000Y-56760199D01*
X153235000Y-56698061D01*
X153195226Y-56498102D01*
X153117205Y-56309744D01*
X153003937Y-56140226D01*
X152859774Y-55996063D01*
X152690256Y-55882795D01*
X152501898Y-55804774D01*
X152301939Y-55765000D01*
X152098061Y-55765000D01*
X151898102Y-55804774D01*
X151709744Y-55882795D01*
X151540226Y-55996063D01*
X151396063Y-56140226D01*
X151282795Y-56309744D01*
X151204774Y-56498102D01*
X151165000Y-56698061D01*
X126488072Y-56698061D01*
X126488072Y-55420000D01*
X126475812Y-55295518D01*
X126439502Y-55175820D01*
X126380537Y-55065506D01*
X126301185Y-54968815D01*
X126204494Y-54889463D01*
X126094180Y-54830498D01*
X125974482Y-54794188D01*
X125850000Y-54781928D01*
X124150000Y-54781928D01*
X124025518Y-54794188D01*
X123905820Y-54830498D01*
X123795506Y-54889463D01*
X123698815Y-54968815D01*
X123619463Y-55065506D01*
X123560498Y-55175820D01*
X123524188Y-55295518D01*
X123511928Y-55420000D01*
X110660000Y-55420000D01*
X110660000Y-50660000D01*
X179340000Y-50660000D01*
X179340001Y-99340000D01*
M02*
