%FSLAX45Y45*%
G04 Gerber Fmt 4.5, Leading zero omitted, Abs format (unit mm)*
G04 Created by KiCad (PCBNEW (5.1.5-0)) date 2022-02-20 15:53:13*
%MOMM*%
%LPD*%
G04 APERTURE LIST*
%TA.AperFunction,Profile*%
%ADD10C,0.050000*%
%TD*%
%ADD11C,0.200000*%
%ADD12C,0.300000*%
G04 APERTURE END LIST*
D10*
X11000000Y-10000000D02*
X11000000Y-5000000D01*
X18000000Y-10000000D02*
X11000000Y-10000000D01*
X18000000Y-5000000D02*
X18000000Y-10000000D01*
X11000000Y-5000000D02*
X18000000Y-5000000D01*
D11*
D12*
X11283928Y-10468214D02*
X11283928Y-10168214D01*
X11355357Y-10168214D01*
X11398214Y-10182500D01*
X11426786Y-10211072D01*
X11441071Y-10239643D01*
X11455357Y-10296786D01*
X11455357Y-10339643D01*
X11441071Y-10396786D01*
X11426786Y-10425357D01*
X11398214Y-10453929D01*
X11355357Y-10468214D01*
X11283928Y-10468214D01*
X11583928Y-10468214D02*
X11583928Y-10268214D01*
X11583928Y-10325357D02*
X11598214Y-10296786D01*
X11612500Y-10282500D01*
X11641071Y-10268214D01*
X11669643Y-10268214D01*
X11769643Y-10468214D02*
X11769643Y-10268214D01*
X11769643Y-10168214D02*
X11755357Y-10182500D01*
X11769643Y-10196786D01*
X11783928Y-10182500D01*
X11769643Y-10168214D01*
X11769643Y-10196786D01*
X11955357Y-10468214D02*
X11926786Y-10453929D01*
X11912500Y-10425357D01*
X11912500Y-10168214D01*
X12112500Y-10468214D02*
X12083928Y-10453929D01*
X12069643Y-10425357D01*
X12069643Y-10168214D01*
X12455357Y-10468214D02*
X12455357Y-10168214D01*
X12555357Y-10382500D01*
X12655357Y-10168214D01*
X12655357Y-10468214D01*
X12926786Y-10468214D02*
X12926786Y-10311072D01*
X12912500Y-10282500D01*
X12883928Y-10268214D01*
X12826786Y-10268214D01*
X12798214Y-10282500D01*
X12926786Y-10453929D02*
X12898214Y-10468214D01*
X12826786Y-10468214D01*
X12798214Y-10453929D01*
X12783928Y-10425357D01*
X12783928Y-10396786D01*
X12798214Y-10368214D01*
X12826786Y-10353929D01*
X12898214Y-10353929D01*
X12926786Y-10339643D01*
X13069643Y-10268214D02*
X13069643Y-10568214D01*
X13069643Y-10282500D02*
X13098214Y-10268214D01*
X13155357Y-10268214D01*
X13183928Y-10282500D01*
X13198214Y-10296786D01*
X13212500Y-10325357D01*
X13212500Y-10411072D01*
X13198214Y-10439643D01*
X13183928Y-10453929D01*
X13155357Y-10468214D01*
X13098214Y-10468214D01*
X13069643Y-10453929D01*
X13341071Y-10439643D02*
X13355357Y-10453929D01*
X13341071Y-10468214D01*
X13326786Y-10453929D01*
X13341071Y-10439643D01*
X13341071Y-10468214D01*
X13341071Y-10282500D02*
X13355357Y-10296786D01*
X13341071Y-10311072D01*
X13326786Y-10296786D01*
X13341071Y-10282500D01*
X13341071Y-10311072D01*
M02*
