M48
; DRILL file {KiCad (5.1.5-0)} date Sunday, February 20, 2022 at 03:53:12 PM
; FORMAT={-:-/ absolute / metric / decimal}
; #@! TF.CreationDate,2022-02-20T15:53:12-07:00
; #@! TF.GenerationSoftware,Kicad,Pcbnew,(5.1.5-0)
; #@! TF.FileFunction,Plated,1,2,PTH
FMAT,2
METRIC
T1C0.400
T2C0.700
T3C0.750
T4C1.000
T5C1.300
%
G90
G05
T1
X120.9Y-74.6
X125.6Y-73.3
X129.7Y-67.6
X133.9Y-61.3
X133.95Y-71.85
X138.2Y-52.2
X138.6Y-68.7
X146.9Y-89.4
X154.3Y-86.3
X158.8Y-84.5
X162.3Y-89.4
X162.5Y-72.7
X163.8Y-69.2
X168.0Y-64.6
T2
X177.5Y-77.55
X177.5Y-79.05
X177.5Y-80.55
X177.5Y-82.05
X177.5Y-83.55
X177.5Y-85.05
T3
X175.2Y-69.8
X175.2Y-71.8
T4
X136.1Y-77.82
X136.1Y-80.36
X136.1Y-82.9
X145.8Y-62.4
X145.8Y-64.94
X168.1Y-69.66
X168.1Y-72.2
X171.9Y-81.9
X171.9Y-84.44
X171.9Y-86.98
X171.9Y-89.52
X171.9Y-92.06
X171.9Y-94.6
X171.9Y-97.14
X153.4Y-55.4
X153.4Y-57.94
X153.4Y-60.48
X136.1Y-86.8
X136.1Y-89.34
X136.1Y-91.88
X173.76Y-64.6
X176.3Y-64.6
X158.5Y-60.0
X158.5Y-62.54
X158.5Y-65.08
X142.0Y-62.4
X142.0Y-64.94
X124.0Y-93.5
X124.0Y-96.04
X127.6Y-73.4
X130.14Y-73.4
X132.68Y-73.4
X127.1Y-81.3
X127.1Y-83.84
T5
X115.7Y-82.2
X115.7Y-87.28
T2
X173.124Y-52.68G85X173.826Y-52.68
G05
X173.124Y-61.32G85X173.826Y-61.32
G05
X176.924Y-52.68G85X177.625Y-52.68
G05
X176.924Y-61.32G85X177.625Y-61.32
G05
T0
M30
