G04 #@! TF.GenerationSoftware,KiCad,Pcbnew,(5.1.5-0)*
G04 #@! TF.CreationDate,2021-10-28T15:17:10-06:00*
G04 #@! TF.ProjectId,square_lockin,73717561-7265-45f6-9c6f-636b696e2e6b,rev?*
G04 #@! TF.SameCoordinates,Original*
G04 #@! TF.FileFunction,Soldermask,Top*
G04 #@! TF.FilePolarity,Negative*
%FSLAX46Y46*%
G04 Gerber Fmt 4.6, Leading zero omitted, Abs format (unit mm)*
G04 Created by KiCad (PCBNEW (5.1.5-0)) date 2021-10-28 15:17:10*
%MOMM*%
%LPD*%
G04 APERTURE LIST*
%ADD10C,0.100000*%
G04 APERTURE END LIST*
D10*
G36*
X117474098Y-93627033D02*
G01*
X117938350Y-93819332D01*
X117938352Y-93819333D01*
X118356168Y-94098509D01*
X118711491Y-94453832D01*
X118947326Y-94806784D01*
X118990668Y-94871650D01*
X119182967Y-95335902D01*
X119281000Y-95828747D01*
X119281000Y-96331253D01*
X119182967Y-96824098D01*
X119034383Y-97182812D01*
X118990667Y-97288352D01*
X118711491Y-97706168D01*
X118356168Y-98061491D01*
X117938352Y-98340667D01*
X117938351Y-98340668D01*
X117938350Y-98340668D01*
X117474098Y-98532967D01*
X116981253Y-98631000D01*
X116478747Y-98631000D01*
X115985902Y-98532967D01*
X115521650Y-98340668D01*
X115521649Y-98340668D01*
X115521648Y-98340667D01*
X115103832Y-98061491D01*
X114748509Y-97706168D01*
X114469333Y-97288352D01*
X114425617Y-97182812D01*
X114277033Y-96824098D01*
X114179000Y-96331253D01*
X114179000Y-95828747D01*
X114277033Y-95335902D01*
X114469332Y-94871650D01*
X114512674Y-94806784D01*
X114748509Y-94453832D01*
X115103832Y-94098509D01*
X115521648Y-93819333D01*
X115521650Y-93819332D01*
X115985902Y-93627033D01*
X116478747Y-93529000D01*
X116981253Y-93529000D01*
X117474098Y-93627033D01*
G37*
G36*
X159113512Y-96023927D02*
G01*
X159262812Y-96053624D01*
X159426784Y-96121544D01*
X159574354Y-96220147D01*
X159699853Y-96345646D01*
X159798456Y-96493216D01*
X159866376Y-96657188D01*
X159901000Y-96831259D01*
X159901000Y-97008741D01*
X159866376Y-97182812D01*
X159798456Y-97346784D01*
X159699853Y-97494354D01*
X159574354Y-97619853D01*
X159426784Y-97718456D01*
X159262812Y-97786376D01*
X159113512Y-97816073D01*
X159088742Y-97821000D01*
X158911258Y-97821000D01*
X158886488Y-97816073D01*
X158737188Y-97786376D01*
X158573216Y-97718456D01*
X158425646Y-97619853D01*
X158300147Y-97494354D01*
X158201544Y-97346784D01*
X158133624Y-97182812D01*
X158099000Y-97008741D01*
X158099000Y-96831259D01*
X158133624Y-96657188D01*
X158201544Y-96493216D01*
X158300147Y-96345646D01*
X158425646Y-96220147D01*
X158573216Y-96121544D01*
X158737188Y-96053624D01*
X158886488Y-96023927D01*
X158911258Y-96019000D01*
X159088742Y-96019000D01*
X159113512Y-96023927D01*
G37*
G36*
X152934928Y-95131764D02*
G01*
X152956009Y-95138160D01*
X152975445Y-95148548D01*
X152992476Y-95162524D01*
X153006452Y-95179555D01*
X153016840Y-95198991D01*
X153023236Y-95220072D01*
X153026000Y-95248140D01*
X153026000Y-95711860D01*
X153023236Y-95739928D01*
X153016840Y-95761009D01*
X153006452Y-95780445D01*
X152992476Y-95797476D01*
X152975445Y-95811452D01*
X152956009Y-95821840D01*
X152934928Y-95828236D01*
X152906860Y-95831000D01*
X151093140Y-95831000D01*
X151065072Y-95828236D01*
X151043991Y-95821840D01*
X151024555Y-95811452D01*
X151007524Y-95797476D01*
X150993548Y-95780445D01*
X150983160Y-95761009D01*
X150976764Y-95739928D01*
X150974000Y-95711860D01*
X150974000Y-95248140D01*
X150976764Y-95220072D01*
X150983160Y-95198991D01*
X150993548Y-95179555D01*
X151007524Y-95162524D01*
X151024555Y-95148548D01*
X151043991Y-95138160D01*
X151065072Y-95131764D01*
X151093140Y-95129000D01*
X152906860Y-95129000D01*
X152934928Y-95131764D01*
G37*
G36*
X147984928Y-95131764D02*
G01*
X148006009Y-95138160D01*
X148025445Y-95148548D01*
X148042476Y-95162524D01*
X148056452Y-95179555D01*
X148066840Y-95198991D01*
X148073236Y-95220072D01*
X148076000Y-95248140D01*
X148076000Y-95711860D01*
X148073236Y-95739928D01*
X148066840Y-95761009D01*
X148056452Y-95780445D01*
X148042476Y-95797476D01*
X148025445Y-95811452D01*
X148006009Y-95821840D01*
X147984928Y-95828236D01*
X147956860Y-95831000D01*
X146143140Y-95831000D01*
X146115072Y-95828236D01*
X146093991Y-95821840D01*
X146074555Y-95811452D01*
X146057524Y-95797476D01*
X146043548Y-95780445D01*
X146033160Y-95761009D01*
X146026764Y-95739928D01*
X146024000Y-95711860D01*
X146024000Y-95248140D01*
X146026764Y-95220072D01*
X146033160Y-95198991D01*
X146043548Y-95179555D01*
X146057524Y-95162524D01*
X146074555Y-95148548D01*
X146093991Y-95138160D01*
X146115072Y-95131764D01*
X146143140Y-95129000D01*
X147956860Y-95129000D01*
X147984928Y-95131764D01*
G37*
G36*
X131089499Y-94478445D02*
G01*
X131126995Y-94489820D01*
X131161554Y-94508292D01*
X131191847Y-94533153D01*
X131216708Y-94563446D01*
X131235180Y-94598005D01*
X131246555Y-94635501D01*
X131251000Y-94680638D01*
X131251000Y-95419362D01*
X131246555Y-95464499D01*
X131235180Y-95501995D01*
X131216708Y-95536554D01*
X131191847Y-95566847D01*
X131161554Y-95591708D01*
X131126995Y-95610180D01*
X131089499Y-95621555D01*
X131044362Y-95626000D01*
X130405638Y-95626000D01*
X130360501Y-95621555D01*
X130323005Y-95610180D01*
X130288446Y-95591708D01*
X130258153Y-95566847D01*
X130233292Y-95536554D01*
X130214820Y-95501995D01*
X130203445Y-95464499D01*
X130199000Y-95419362D01*
X130199000Y-94680638D01*
X130203445Y-94635501D01*
X130214820Y-94598005D01*
X130233292Y-94563446D01*
X130258153Y-94533153D01*
X130288446Y-94508292D01*
X130323005Y-94489820D01*
X130360501Y-94478445D01*
X130405638Y-94474000D01*
X131044362Y-94474000D01*
X131089499Y-94478445D01*
G37*
G36*
X129339499Y-94453445D02*
G01*
X129376995Y-94464820D01*
X129411554Y-94483292D01*
X129441847Y-94508153D01*
X129466708Y-94538446D01*
X129485180Y-94573005D01*
X129496555Y-94610501D01*
X129501000Y-94655638D01*
X129501000Y-95294362D01*
X129496555Y-95339499D01*
X129485180Y-95376995D01*
X129466708Y-95411554D01*
X129441847Y-95441847D01*
X129411554Y-95466708D01*
X129376995Y-95485180D01*
X129339499Y-95496555D01*
X129294362Y-95501000D01*
X128555638Y-95501000D01*
X128510501Y-95496555D01*
X128473005Y-95485180D01*
X128438446Y-95466708D01*
X128408153Y-95441847D01*
X128383292Y-95411554D01*
X128364820Y-95376995D01*
X128353445Y-95339499D01*
X128349000Y-95294362D01*
X128349000Y-94655638D01*
X128353445Y-94610501D01*
X128364820Y-94573005D01*
X128383292Y-94538446D01*
X128408153Y-94508153D01*
X128438446Y-94483292D01*
X128473005Y-94464820D01*
X128510501Y-94453445D01*
X128555638Y-94449000D01*
X129294362Y-94449000D01*
X129339499Y-94453445D01*
G37*
G36*
X127589499Y-94453445D02*
G01*
X127626995Y-94464820D01*
X127661554Y-94483292D01*
X127691847Y-94508153D01*
X127716708Y-94538446D01*
X127735180Y-94573005D01*
X127746555Y-94610501D01*
X127751000Y-94655638D01*
X127751000Y-95294362D01*
X127746555Y-95339499D01*
X127735180Y-95376995D01*
X127716708Y-95411554D01*
X127691847Y-95441847D01*
X127661554Y-95466708D01*
X127626995Y-95485180D01*
X127589499Y-95496555D01*
X127544362Y-95501000D01*
X126805638Y-95501000D01*
X126760501Y-95496555D01*
X126723005Y-95485180D01*
X126688446Y-95466708D01*
X126658153Y-95441847D01*
X126633292Y-95411554D01*
X126614820Y-95376995D01*
X126603445Y-95339499D01*
X126599000Y-95294362D01*
X126599000Y-94655638D01*
X126603445Y-94610501D01*
X126614820Y-94573005D01*
X126633292Y-94538446D01*
X126658153Y-94508153D01*
X126688446Y-94483292D01*
X126723005Y-94464820D01*
X126760501Y-94453445D01*
X126805638Y-94449000D01*
X127544362Y-94449000D01*
X127589499Y-94453445D01*
G37*
G36*
X159113512Y-93483927D02*
G01*
X159262812Y-93513624D01*
X159426784Y-93581544D01*
X159574354Y-93680147D01*
X159699853Y-93805646D01*
X159798456Y-93953216D01*
X159866376Y-94117188D01*
X159901000Y-94291259D01*
X159901000Y-94468741D01*
X159866376Y-94642812D01*
X159798456Y-94806784D01*
X159699853Y-94954354D01*
X159574354Y-95079853D01*
X159426784Y-95178456D01*
X159262812Y-95246376D01*
X159113512Y-95276073D01*
X159088742Y-95281000D01*
X158911258Y-95281000D01*
X158886488Y-95276073D01*
X158737188Y-95246376D01*
X158573216Y-95178456D01*
X158425646Y-95079853D01*
X158300147Y-94954354D01*
X158201544Y-94806784D01*
X158133624Y-94642812D01*
X158099000Y-94468741D01*
X158099000Y-94291259D01*
X158133624Y-94117188D01*
X158201544Y-93953216D01*
X158300147Y-93805646D01*
X158425646Y-93680147D01*
X158573216Y-93581544D01*
X158737188Y-93513624D01*
X158886488Y-93483927D01*
X158911258Y-93479000D01*
X159088742Y-93479000D01*
X159113512Y-93483927D01*
G37*
G36*
X134084928Y-93931764D02*
G01*
X134106009Y-93938160D01*
X134125445Y-93948548D01*
X134142476Y-93962524D01*
X134156452Y-93979555D01*
X134166840Y-93998991D01*
X134173236Y-94020072D01*
X134176000Y-94048140D01*
X134176000Y-94511860D01*
X134173236Y-94539928D01*
X134166840Y-94561009D01*
X134156452Y-94580445D01*
X134142476Y-94597476D01*
X134125445Y-94611452D01*
X134106009Y-94621840D01*
X134084928Y-94628236D01*
X134056860Y-94631000D01*
X132543140Y-94631000D01*
X132515072Y-94628236D01*
X132493991Y-94621840D01*
X132474555Y-94611452D01*
X132457524Y-94597476D01*
X132443548Y-94580445D01*
X132433160Y-94561009D01*
X132426764Y-94539928D01*
X132424000Y-94511860D01*
X132424000Y-94048140D01*
X132426764Y-94020072D01*
X132433160Y-93998991D01*
X132443548Y-93979555D01*
X132457524Y-93962524D01*
X132474555Y-93948548D01*
X132493991Y-93938160D01*
X132515072Y-93931764D01*
X132543140Y-93929000D01*
X134056860Y-93929000D01*
X134084928Y-93931764D01*
G37*
G36*
X139334928Y-93931764D02*
G01*
X139356009Y-93938160D01*
X139375445Y-93948548D01*
X139392476Y-93962524D01*
X139406452Y-93979555D01*
X139416840Y-93998991D01*
X139423236Y-94020072D01*
X139426000Y-94048140D01*
X139426000Y-94511860D01*
X139423236Y-94539928D01*
X139416840Y-94561009D01*
X139406452Y-94580445D01*
X139392476Y-94597476D01*
X139375445Y-94611452D01*
X139356009Y-94621840D01*
X139334928Y-94628236D01*
X139306860Y-94631000D01*
X137793140Y-94631000D01*
X137765072Y-94628236D01*
X137743991Y-94621840D01*
X137724555Y-94611452D01*
X137707524Y-94597476D01*
X137693548Y-94580445D01*
X137683160Y-94561009D01*
X137676764Y-94539928D01*
X137674000Y-94511860D01*
X137674000Y-94048140D01*
X137676764Y-94020072D01*
X137683160Y-93998991D01*
X137693548Y-93979555D01*
X137707524Y-93962524D01*
X137724555Y-93948548D01*
X137743991Y-93938160D01*
X137765072Y-93931764D01*
X137793140Y-93929000D01*
X139306860Y-93929000D01*
X139334928Y-93931764D01*
G37*
G36*
X152934928Y-93861764D02*
G01*
X152956009Y-93868160D01*
X152975445Y-93878548D01*
X152992476Y-93892524D01*
X153006452Y-93909555D01*
X153016840Y-93928991D01*
X153023236Y-93950072D01*
X153026000Y-93978140D01*
X153026000Y-94441860D01*
X153023236Y-94469928D01*
X153016840Y-94491009D01*
X153006452Y-94510445D01*
X152992476Y-94527476D01*
X152975445Y-94541452D01*
X152956009Y-94551840D01*
X152934928Y-94558236D01*
X152906860Y-94561000D01*
X151093140Y-94561000D01*
X151065072Y-94558236D01*
X151043991Y-94551840D01*
X151024555Y-94541452D01*
X151007524Y-94527476D01*
X150993548Y-94510445D01*
X150983160Y-94491009D01*
X150976764Y-94469928D01*
X150974000Y-94441860D01*
X150974000Y-93978140D01*
X150976764Y-93950072D01*
X150983160Y-93928991D01*
X150993548Y-93909555D01*
X151007524Y-93892524D01*
X151024555Y-93878548D01*
X151043991Y-93868160D01*
X151065072Y-93861764D01*
X151093140Y-93859000D01*
X152906860Y-93859000D01*
X152934928Y-93861764D01*
G37*
G36*
X147984928Y-93861764D02*
G01*
X148006009Y-93868160D01*
X148025445Y-93878548D01*
X148042476Y-93892524D01*
X148056452Y-93909555D01*
X148066840Y-93928991D01*
X148073236Y-93950072D01*
X148076000Y-93978140D01*
X148076000Y-94441860D01*
X148073236Y-94469928D01*
X148066840Y-94491009D01*
X148056452Y-94510445D01*
X148042476Y-94527476D01*
X148025445Y-94541452D01*
X148006009Y-94551840D01*
X147984928Y-94558236D01*
X147956860Y-94561000D01*
X146143140Y-94561000D01*
X146115072Y-94558236D01*
X146093991Y-94551840D01*
X146074555Y-94541452D01*
X146057524Y-94527476D01*
X146043548Y-94510445D01*
X146033160Y-94491009D01*
X146026764Y-94469928D01*
X146024000Y-94441860D01*
X146024000Y-93978140D01*
X146026764Y-93950072D01*
X146033160Y-93928991D01*
X146043548Y-93909555D01*
X146057524Y-93892524D01*
X146074555Y-93878548D01*
X146093991Y-93868160D01*
X146115072Y-93861764D01*
X146143140Y-93859000D01*
X147956860Y-93859000D01*
X147984928Y-93861764D01*
G37*
G36*
X131089499Y-92728445D02*
G01*
X131126995Y-92739820D01*
X131161554Y-92758292D01*
X131191847Y-92783153D01*
X131216708Y-92813446D01*
X131235180Y-92848005D01*
X131246555Y-92885501D01*
X131251000Y-92930638D01*
X131251000Y-93669362D01*
X131246555Y-93714499D01*
X131235180Y-93751995D01*
X131216708Y-93786554D01*
X131191847Y-93816847D01*
X131161554Y-93841708D01*
X131126995Y-93860180D01*
X131089499Y-93871555D01*
X131044362Y-93876000D01*
X130405638Y-93876000D01*
X130360501Y-93871555D01*
X130323005Y-93860180D01*
X130288446Y-93841708D01*
X130258153Y-93816847D01*
X130233292Y-93786554D01*
X130214820Y-93751995D01*
X130203445Y-93714499D01*
X130199000Y-93669362D01*
X130199000Y-92930638D01*
X130203445Y-92885501D01*
X130214820Y-92848005D01*
X130233292Y-92813446D01*
X130258153Y-92783153D01*
X130288446Y-92758292D01*
X130323005Y-92739820D01*
X130360501Y-92728445D01*
X130405638Y-92724000D01*
X131044362Y-92724000D01*
X131089499Y-92728445D01*
G37*
G36*
X129314499Y-92653445D02*
G01*
X129351995Y-92664820D01*
X129386554Y-92683292D01*
X129416847Y-92708153D01*
X129441708Y-92738446D01*
X129460180Y-92773005D01*
X129471555Y-92810501D01*
X129476000Y-92855638D01*
X129476000Y-93494362D01*
X129471555Y-93539499D01*
X129460180Y-93576995D01*
X129441708Y-93611554D01*
X129416847Y-93641847D01*
X129386554Y-93666708D01*
X129351995Y-93685180D01*
X129314499Y-93696555D01*
X129269362Y-93701000D01*
X128530638Y-93701000D01*
X128485501Y-93696555D01*
X128448005Y-93685180D01*
X128413446Y-93666708D01*
X128383153Y-93641847D01*
X128358292Y-93611554D01*
X128339820Y-93576995D01*
X128328445Y-93539499D01*
X128324000Y-93494362D01*
X128324000Y-92855638D01*
X128328445Y-92810501D01*
X128339820Y-92773005D01*
X128358292Y-92738446D01*
X128383153Y-92708153D01*
X128413446Y-92683292D01*
X128448005Y-92664820D01*
X128485501Y-92653445D01*
X128530638Y-92649000D01*
X129269362Y-92649000D01*
X129314499Y-92653445D01*
G37*
G36*
X127564499Y-92653445D02*
G01*
X127601995Y-92664820D01*
X127636554Y-92683292D01*
X127666847Y-92708153D01*
X127691708Y-92738446D01*
X127710180Y-92773005D01*
X127721555Y-92810501D01*
X127726000Y-92855638D01*
X127726000Y-93494362D01*
X127721555Y-93539499D01*
X127710180Y-93576995D01*
X127691708Y-93611554D01*
X127666847Y-93641847D01*
X127636554Y-93666708D01*
X127601995Y-93685180D01*
X127564499Y-93696555D01*
X127519362Y-93701000D01*
X126780638Y-93701000D01*
X126735501Y-93696555D01*
X126698005Y-93685180D01*
X126663446Y-93666708D01*
X126633153Y-93641847D01*
X126608292Y-93611554D01*
X126589820Y-93576995D01*
X126578445Y-93539499D01*
X126574000Y-93494362D01*
X126574000Y-92855638D01*
X126578445Y-92810501D01*
X126589820Y-92773005D01*
X126608292Y-92738446D01*
X126633153Y-92708153D01*
X126663446Y-92683292D01*
X126698005Y-92664820D01*
X126735501Y-92653445D01*
X126780638Y-92649000D01*
X127519362Y-92649000D01*
X127564499Y-92653445D01*
G37*
G36*
X139334928Y-92661764D02*
G01*
X139356009Y-92668160D01*
X139375445Y-92678548D01*
X139392476Y-92692524D01*
X139406452Y-92709555D01*
X139416840Y-92728991D01*
X139423236Y-92750072D01*
X139426000Y-92778140D01*
X139426000Y-93241860D01*
X139423236Y-93269928D01*
X139416840Y-93291009D01*
X139406452Y-93310445D01*
X139392476Y-93327476D01*
X139375445Y-93341452D01*
X139356009Y-93351840D01*
X139334928Y-93358236D01*
X139306860Y-93361000D01*
X137793140Y-93361000D01*
X137765072Y-93358236D01*
X137743991Y-93351840D01*
X137724555Y-93341452D01*
X137707524Y-93327476D01*
X137693548Y-93310445D01*
X137683160Y-93291009D01*
X137676764Y-93269928D01*
X137674000Y-93241860D01*
X137674000Y-92778140D01*
X137676764Y-92750072D01*
X137683160Y-92728991D01*
X137693548Y-92709555D01*
X137707524Y-92692524D01*
X137724555Y-92678548D01*
X137743991Y-92668160D01*
X137765072Y-92661764D01*
X137793140Y-92659000D01*
X139306860Y-92659000D01*
X139334928Y-92661764D01*
G37*
G36*
X134084928Y-92661764D02*
G01*
X134106009Y-92668160D01*
X134125445Y-92678548D01*
X134142476Y-92692524D01*
X134156452Y-92709555D01*
X134166840Y-92728991D01*
X134173236Y-92750072D01*
X134176000Y-92778140D01*
X134176000Y-93241860D01*
X134173236Y-93269928D01*
X134166840Y-93291009D01*
X134156452Y-93310445D01*
X134142476Y-93327476D01*
X134125445Y-93341452D01*
X134106009Y-93351840D01*
X134084928Y-93358236D01*
X134056860Y-93361000D01*
X132543140Y-93361000D01*
X132515072Y-93358236D01*
X132493991Y-93351840D01*
X132474555Y-93341452D01*
X132457524Y-93327476D01*
X132443548Y-93310445D01*
X132433160Y-93291009D01*
X132426764Y-93269928D01*
X132424000Y-93241860D01*
X132424000Y-92778140D01*
X132426764Y-92750072D01*
X132433160Y-92728991D01*
X132443548Y-92709555D01*
X132457524Y-92692524D01*
X132474555Y-92678548D01*
X132493991Y-92668160D01*
X132515072Y-92661764D01*
X132543140Y-92659000D01*
X134056860Y-92659000D01*
X134084928Y-92661764D01*
G37*
G36*
X152934928Y-92591764D02*
G01*
X152956009Y-92598160D01*
X152975445Y-92608548D01*
X152992476Y-92622524D01*
X153006452Y-92639555D01*
X153016840Y-92658991D01*
X153023236Y-92680072D01*
X153026000Y-92708140D01*
X153026000Y-93171860D01*
X153023236Y-93199928D01*
X153016840Y-93221009D01*
X153006452Y-93240445D01*
X152992476Y-93257476D01*
X152975445Y-93271452D01*
X152956009Y-93281840D01*
X152934928Y-93288236D01*
X152906860Y-93291000D01*
X151093140Y-93291000D01*
X151065072Y-93288236D01*
X151043991Y-93281840D01*
X151024555Y-93271452D01*
X151007524Y-93257476D01*
X150993548Y-93240445D01*
X150983160Y-93221009D01*
X150976764Y-93199928D01*
X150974000Y-93171860D01*
X150974000Y-92708140D01*
X150976764Y-92680072D01*
X150983160Y-92658991D01*
X150993548Y-92639555D01*
X151007524Y-92622524D01*
X151024555Y-92608548D01*
X151043991Y-92598160D01*
X151065072Y-92591764D01*
X151093140Y-92589000D01*
X152906860Y-92589000D01*
X152934928Y-92591764D01*
G37*
G36*
X147984928Y-92591764D02*
G01*
X148006009Y-92598160D01*
X148025445Y-92608548D01*
X148042476Y-92622524D01*
X148056452Y-92639555D01*
X148066840Y-92658991D01*
X148073236Y-92680072D01*
X148076000Y-92708140D01*
X148076000Y-93171860D01*
X148073236Y-93199928D01*
X148066840Y-93221009D01*
X148056452Y-93240445D01*
X148042476Y-93257476D01*
X148025445Y-93271452D01*
X148006009Y-93281840D01*
X147984928Y-93288236D01*
X147956860Y-93291000D01*
X146143140Y-93291000D01*
X146115072Y-93288236D01*
X146093991Y-93281840D01*
X146074555Y-93271452D01*
X146057524Y-93257476D01*
X146043548Y-93240445D01*
X146033160Y-93221009D01*
X146026764Y-93199928D01*
X146024000Y-93171860D01*
X146024000Y-92708140D01*
X146026764Y-92680072D01*
X146033160Y-92658991D01*
X146043548Y-92639555D01*
X146057524Y-92622524D01*
X146074555Y-92608548D01*
X146093991Y-92598160D01*
X146115072Y-92591764D01*
X146143140Y-92589000D01*
X147956860Y-92589000D01*
X147984928Y-92591764D01*
G37*
G36*
X159113512Y-90943927D02*
G01*
X159262812Y-90973624D01*
X159426784Y-91041544D01*
X159574354Y-91140147D01*
X159699853Y-91265646D01*
X159798456Y-91413216D01*
X159866376Y-91577188D01*
X159901000Y-91751259D01*
X159901000Y-91928741D01*
X159866376Y-92102812D01*
X159798456Y-92266784D01*
X159699853Y-92414354D01*
X159574354Y-92539853D01*
X159426784Y-92638456D01*
X159262812Y-92706376D01*
X159113512Y-92736073D01*
X159088742Y-92741000D01*
X158911258Y-92741000D01*
X158886488Y-92736073D01*
X158737188Y-92706376D01*
X158573216Y-92638456D01*
X158425646Y-92539853D01*
X158300147Y-92414354D01*
X158201544Y-92266784D01*
X158133624Y-92102812D01*
X158099000Y-91928741D01*
X158099000Y-91751259D01*
X158133624Y-91577188D01*
X158201544Y-91413216D01*
X158300147Y-91265646D01*
X158425646Y-91140147D01*
X158573216Y-91041544D01*
X158737188Y-90973624D01*
X158886488Y-90943927D01*
X158911258Y-90939000D01*
X159088742Y-90939000D01*
X159113512Y-90943927D01*
G37*
G36*
X145114499Y-91103445D02*
G01*
X145151995Y-91114820D01*
X145186554Y-91133292D01*
X145216847Y-91158153D01*
X145241708Y-91188446D01*
X145260180Y-91223005D01*
X145271555Y-91260501D01*
X145276000Y-91305638D01*
X145276000Y-92044362D01*
X145271555Y-92089499D01*
X145260180Y-92126995D01*
X145241708Y-92161554D01*
X145216847Y-92191847D01*
X145186554Y-92216708D01*
X145151995Y-92235180D01*
X145114499Y-92246555D01*
X145069362Y-92251000D01*
X144430638Y-92251000D01*
X144385501Y-92246555D01*
X144348005Y-92235180D01*
X144313446Y-92216708D01*
X144283153Y-92191847D01*
X144258292Y-92161554D01*
X144239820Y-92126995D01*
X144228445Y-92089499D01*
X144224000Y-92044362D01*
X144224000Y-91305638D01*
X144228445Y-91260501D01*
X144239820Y-91223005D01*
X144258292Y-91188446D01*
X144283153Y-91158153D01*
X144313446Y-91133292D01*
X144348005Y-91114820D01*
X144385501Y-91103445D01*
X144430638Y-91099000D01*
X145069362Y-91099000D01*
X145114499Y-91103445D01*
G37*
G36*
X141114499Y-91103445D02*
G01*
X141151995Y-91114820D01*
X141186554Y-91133292D01*
X141216847Y-91158153D01*
X141241708Y-91188446D01*
X141260180Y-91223005D01*
X141271555Y-91260501D01*
X141276000Y-91305638D01*
X141276000Y-92044362D01*
X141271555Y-92089499D01*
X141260180Y-92126995D01*
X141241708Y-92161554D01*
X141216847Y-92191847D01*
X141186554Y-92216708D01*
X141151995Y-92235180D01*
X141114499Y-92246555D01*
X141069362Y-92251000D01*
X140430638Y-92251000D01*
X140385501Y-92246555D01*
X140348005Y-92235180D01*
X140313446Y-92216708D01*
X140283153Y-92191847D01*
X140258292Y-92161554D01*
X140239820Y-92126995D01*
X140228445Y-92089499D01*
X140224000Y-92044362D01*
X140224000Y-91305638D01*
X140228445Y-91260501D01*
X140239820Y-91223005D01*
X140258292Y-91188446D01*
X140283153Y-91158153D01*
X140313446Y-91133292D01*
X140348005Y-91114820D01*
X140385501Y-91103445D01*
X140430638Y-91099000D01*
X141069362Y-91099000D01*
X141114499Y-91103445D01*
G37*
G36*
X155514499Y-91078445D02*
G01*
X155551995Y-91089820D01*
X155586554Y-91108292D01*
X155616847Y-91133153D01*
X155641708Y-91163446D01*
X155660180Y-91198005D01*
X155671555Y-91235501D01*
X155676000Y-91280638D01*
X155676000Y-92019362D01*
X155671555Y-92064499D01*
X155660180Y-92101995D01*
X155641708Y-92136554D01*
X155616847Y-92166847D01*
X155586554Y-92191708D01*
X155551995Y-92210180D01*
X155514499Y-92221555D01*
X155469362Y-92226000D01*
X154830638Y-92226000D01*
X154785501Y-92221555D01*
X154748005Y-92210180D01*
X154713446Y-92191708D01*
X154683153Y-92166847D01*
X154658292Y-92136554D01*
X154639820Y-92101995D01*
X154628445Y-92064499D01*
X154624000Y-92019362D01*
X154624000Y-91280638D01*
X154628445Y-91235501D01*
X154639820Y-91198005D01*
X154658292Y-91163446D01*
X154683153Y-91133153D01*
X154713446Y-91108292D01*
X154748005Y-91089820D01*
X154785501Y-91078445D01*
X154830638Y-91074000D01*
X155469362Y-91074000D01*
X155514499Y-91078445D01*
G37*
G36*
X139334928Y-91391764D02*
G01*
X139356009Y-91398160D01*
X139375445Y-91408548D01*
X139392476Y-91422524D01*
X139406452Y-91439555D01*
X139416840Y-91458991D01*
X139423236Y-91480072D01*
X139426000Y-91508140D01*
X139426000Y-91971860D01*
X139423236Y-91999928D01*
X139416840Y-92021009D01*
X139406452Y-92040445D01*
X139392476Y-92057476D01*
X139375445Y-92071452D01*
X139356009Y-92081840D01*
X139334928Y-92088236D01*
X139306860Y-92091000D01*
X137793140Y-92091000D01*
X137765072Y-92088236D01*
X137743991Y-92081840D01*
X137724555Y-92071452D01*
X137707524Y-92057476D01*
X137693548Y-92040445D01*
X137683160Y-92021009D01*
X137676764Y-91999928D01*
X137674000Y-91971860D01*
X137674000Y-91508140D01*
X137676764Y-91480072D01*
X137683160Y-91458991D01*
X137693548Y-91439555D01*
X137707524Y-91422524D01*
X137724555Y-91408548D01*
X137743991Y-91398160D01*
X137765072Y-91391764D01*
X137793140Y-91389000D01*
X139306860Y-91389000D01*
X139334928Y-91391764D01*
G37*
G36*
X134084928Y-91391764D02*
G01*
X134106009Y-91398160D01*
X134125445Y-91408548D01*
X134142476Y-91422524D01*
X134156452Y-91439555D01*
X134166840Y-91458991D01*
X134173236Y-91480072D01*
X134176000Y-91508140D01*
X134176000Y-91971860D01*
X134173236Y-91999928D01*
X134166840Y-92021009D01*
X134156452Y-92040445D01*
X134142476Y-92057476D01*
X134125445Y-92071452D01*
X134106009Y-92081840D01*
X134084928Y-92088236D01*
X134056860Y-92091000D01*
X132543140Y-92091000D01*
X132515072Y-92088236D01*
X132493991Y-92081840D01*
X132474555Y-92071452D01*
X132457524Y-92057476D01*
X132443548Y-92040445D01*
X132433160Y-92021009D01*
X132426764Y-91999928D01*
X132424000Y-91971860D01*
X132424000Y-91508140D01*
X132426764Y-91480072D01*
X132433160Y-91458991D01*
X132443548Y-91439555D01*
X132457524Y-91422524D01*
X132474555Y-91408548D01*
X132493991Y-91398160D01*
X132515072Y-91391764D01*
X132543140Y-91389000D01*
X134056860Y-91389000D01*
X134084928Y-91391764D01*
G37*
G36*
X152934928Y-91321764D02*
G01*
X152956009Y-91328160D01*
X152975445Y-91338548D01*
X152992476Y-91352524D01*
X153006452Y-91369555D01*
X153016840Y-91388991D01*
X153023236Y-91410072D01*
X153026000Y-91438140D01*
X153026000Y-91901860D01*
X153023236Y-91929928D01*
X153016840Y-91951009D01*
X153006452Y-91970445D01*
X152992476Y-91987476D01*
X152975445Y-92001452D01*
X152956009Y-92011840D01*
X152934928Y-92018236D01*
X152906860Y-92021000D01*
X151093140Y-92021000D01*
X151065072Y-92018236D01*
X151043991Y-92011840D01*
X151024555Y-92001452D01*
X151007524Y-91987476D01*
X150993548Y-91970445D01*
X150983160Y-91951009D01*
X150976764Y-91929928D01*
X150974000Y-91901860D01*
X150974000Y-91438140D01*
X150976764Y-91410072D01*
X150983160Y-91388991D01*
X150993548Y-91369555D01*
X151007524Y-91352524D01*
X151024555Y-91338548D01*
X151043991Y-91328160D01*
X151065072Y-91321764D01*
X151093140Y-91319000D01*
X152906860Y-91319000D01*
X152934928Y-91321764D01*
G37*
G36*
X147984928Y-91321764D02*
G01*
X148006009Y-91328160D01*
X148025445Y-91338548D01*
X148042476Y-91352524D01*
X148056452Y-91369555D01*
X148066840Y-91388991D01*
X148073236Y-91410072D01*
X148076000Y-91438140D01*
X148076000Y-91901860D01*
X148073236Y-91929928D01*
X148066840Y-91951009D01*
X148056452Y-91970445D01*
X148042476Y-91987476D01*
X148025445Y-92001452D01*
X148006009Y-92011840D01*
X147984928Y-92018236D01*
X147956860Y-92021000D01*
X146143140Y-92021000D01*
X146115072Y-92018236D01*
X146093991Y-92011840D01*
X146074555Y-92001452D01*
X146057524Y-91987476D01*
X146043548Y-91970445D01*
X146033160Y-91951009D01*
X146026764Y-91929928D01*
X146024000Y-91901860D01*
X146024000Y-91438140D01*
X146026764Y-91410072D01*
X146033160Y-91388991D01*
X146043548Y-91369555D01*
X146057524Y-91352524D01*
X146074555Y-91338548D01*
X146093991Y-91328160D01*
X146115072Y-91321764D01*
X146143140Y-91319000D01*
X147956860Y-91319000D01*
X147984928Y-91321764D01*
G37*
G36*
X139334928Y-90121764D02*
G01*
X139356009Y-90128160D01*
X139375445Y-90138548D01*
X139392476Y-90152524D01*
X139406452Y-90169555D01*
X139416840Y-90188991D01*
X139423236Y-90210072D01*
X139426000Y-90238140D01*
X139426000Y-90701860D01*
X139423236Y-90729928D01*
X139416840Y-90751009D01*
X139406452Y-90770445D01*
X139392476Y-90787476D01*
X139375445Y-90801452D01*
X139356009Y-90811840D01*
X139334928Y-90818236D01*
X139306860Y-90821000D01*
X137793140Y-90821000D01*
X137765072Y-90818236D01*
X137743991Y-90811840D01*
X137724555Y-90801452D01*
X137707524Y-90787476D01*
X137693548Y-90770445D01*
X137683160Y-90751009D01*
X137676764Y-90729928D01*
X137674000Y-90701860D01*
X137674000Y-90238140D01*
X137676764Y-90210072D01*
X137683160Y-90188991D01*
X137693548Y-90169555D01*
X137707524Y-90152524D01*
X137724555Y-90138548D01*
X137743991Y-90128160D01*
X137765072Y-90121764D01*
X137793140Y-90119000D01*
X139306860Y-90119000D01*
X139334928Y-90121764D01*
G37*
G36*
X134084928Y-90121764D02*
G01*
X134106009Y-90128160D01*
X134125445Y-90138548D01*
X134142476Y-90152524D01*
X134156452Y-90169555D01*
X134166840Y-90188991D01*
X134173236Y-90210072D01*
X134176000Y-90238140D01*
X134176000Y-90701860D01*
X134173236Y-90729928D01*
X134166840Y-90751009D01*
X134156452Y-90770445D01*
X134142476Y-90787476D01*
X134125445Y-90801452D01*
X134106009Y-90811840D01*
X134084928Y-90818236D01*
X134056860Y-90821000D01*
X132543140Y-90821000D01*
X132515072Y-90818236D01*
X132493991Y-90811840D01*
X132474555Y-90801452D01*
X132457524Y-90787476D01*
X132443548Y-90770445D01*
X132433160Y-90751009D01*
X132426764Y-90729928D01*
X132424000Y-90701860D01*
X132424000Y-90238140D01*
X132426764Y-90210072D01*
X132433160Y-90188991D01*
X132443548Y-90169555D01*
X132457524Y-90152524D01*
X132474555Y-90138548D01*
X132493991Y-90128160D01*
X132515072Y-90121764D01*
X132543140Y-90119000D01*
X134056860Y-90119000D01*
X134084928Y-90121764D01*
G37*
G36*
X145114499Y-89353445D02*
G01*
X145151995Y-89364820D01*
X145186554Y-89383292D01*
X145216847Y-89408153D01*
X145241708Y-89438446D01*
X145260180Y-89473005D01*
X145271555Y-89510501D01*
X145276000Y-89555638D01*
X145276000Y-90294362D01*
X145271555Y-90339499D01*
X145260180Y-90376995D01*
X145241708Y-90411554D01*
X145216847Y-90441847D01*
X145186554Y-90466708D01*
X145151995Y-90485180D01*
X145114499Y-90496555D01*
X145069362Y-90501000D01*
X144430638Y-90501000D01*
X144385501Y-90496555D01*
X144348005Y-90485180D01*
X144313446Y-90466708D01*
X144283153Y-90441847D01*
X144258292Y-90411554D01*
X144239820Y-90376995D01*
X144228445Y-90339499D01*
X144224000Y-90294362D01*
X144224000Y-89555638D01*
X144228445Y-89510501D01*
X144239820Y-89473005D01*
X144258292Y-89438446D01*
X144283153Y-89408153D01*
X144313446Y-89383292D01*
X144348005Y-89364820D01*
X144385501Y-89353445D01*
X144430638Y-89349000D01*
X145069362Y-89349000D01*
X145114499Y-89353445D01*
G37*
G36*
X141114499Y-89353445D02*
G01*
X141151995Y-89364820D01*
X141186554Y-89383292D01*
X141216847Y-89408153D01*
X141241708Y-89438446D01*
X141260180Y-89473005D01*
X141271555Y-89510501D01*
X141276000Y-89555638D01*
X141276000Y-90294362D01*
X141271555Y-90339499D01*
X141260180Y-90376995D01*
X141241708Y-90411554D01*
X141216847Y-90441847D01*
X141186554Y-90466708D01*
X141151995Y-90485180D01*
X141114499Y-90496555D01*
X141069362Y-90501000D01*
X140430638Y-90501000D01*
X140385501Y-90496555D01*
X140348005Y-90485180D01*
X140313446Y-90466708D01*
X140283153Y-90441847D01*
X140258292Y-90411554D01*
X140239820Y-90376995D01*
X140228445Y-90339499D01*
X140224000Y-90294362D01*
X140224000Y-89555638D01*
X140228445Y-89510501D01*
X140239820Y-89473005D01*
X140258292Y-89438446D01*
X140283153Y-89408153D01*
X140313446Y-89383292D01*
X140348005Y-89364820D01*
X140385501Y-89353445D01*
X140430638Y-89349000D01*
X141069362Y-89349000D01*
X141114499Y-89353445D01*
G37*
G36*
X155514499Y-89328445D02*
G01*
X155551995Y-89339820D01*
X155586554Y-89358292D01*
X155616847Y-89383153D01*
X155641708Y-89413446D01*
X155660180Y-89448005D01*
X155671555Y-89485501D01*
X155676000Y-89530638D01*
X155676000Y-90269362D01*
X155671555Y-90314499D01*
X155660180Y-90351995D01*
X155641708Y-90386554D01*
X155616847Y-90416847D01*
X155586554Y-90441708D01*
X155551995Y-90460180D01*
X155514499Y-90471555D01*
X155469362Y-90476000D01*
X154830638Y-90476000D01*
X154785501Y-90471555D01*
X154748005Y-90460180D01*
X154713446Y-90441708D01*
X154683153Y-90416847D01*
X154658292Y-90386554D01*
X154639820Y-90351995D01*
X154628445Y-90314499D01*
X154624000Y-90269362D01*
X154624000Y-89530638D01*
X154628445Y-89485501D01*
X154639820Y-89448005D01*
X154658292Y-89413446D01*
X154683153Y-89383153D01*
X154713446Y-89358292D01*
X154748005Y-89339820D01*
X154785501Y-89328445D01*
X154830638Y-89324000D01*
X155469362Y-89324000D01*
X155514499Y-89328445D01*
G37*
G36*
X159901000Y-90201000D02*
G01*
X158099000Y-90201000D01*
X158099000Y-88399000D01*
X159901000Y-88399000D01*
X159901000Y-90201000D01*
G37*
G36*
X118988500Y-89938500D02*
G01*
X117311500Y-89938500D01*
X117311500Y-88261500D01*
X118988500Y-88261500D01*
X118988500Y-89938500D01*
G37*
G36*
X131889499Y-88053445D02*
G01*
X131926995Y-88064820D01*
X131961554Y-88083292D01*
X131991847Y-88108153D01*
X132016708Y-88138446D01*
X132035180Y-88173005D01*
X132046555Y-88210501D01*
X132051000Y-88255638D01*
X132051000Y-88894362D01*
X132046555Y-88939499D01*
X132035180Y-88976995D01*
X132016708Y-89011554D01*
X131991847Y-89041847D01*
X131961554Y-89066708D01*
X131926995Y-89085180D01*
X131889499Y-89096555D01*
X131844362Y-89101000D01*
X131105638Y-89101000D01*
X131060501Y-89096555D01*
X131023005Y-89085180D01*
X130988446Y-89066708D01*
X130958153Y-89041847D01*
X130933292Y-89011554D01*
X130914820Y-88976995D01*
X130903445Y-88939499D01*
X130899000Y-88894362D01*
X130899000Y-88255638D01*
X130903445Y-88210501D01*
X130914820Y-88173005D01*
X130933292Y-88138446D01*
X130958153Y-88108153D01*
X130988446Y-88083292D01*
X131023005Y-88064820D01*
X131060501Y-88053445D01*
X131105638Y-88049000D01*
X131844362Y-88049000D01*
X131889499Y-88053445D01*
G37*
G36*
X133639499Y-88053445D02*
G01*
X133676995Y-88064820D01*
X133711554Y-88083292D01*
X133741847Y-88108153D01*
X133766708Y-88138446D01*
X133785180Y-88173005D01*
X133796555Y-88210501D01*
X133801000Y-88255638D01*
X133801000Y-88894362D01*
X133796555Y-88939499D01*
X133785180Y-88976995D01*
X133766708Y-89011554D01*
X133741847Y-89041847D01*
X133711554Y-89066708D01*
X133676995Y-89085180D01*
X133639499Y-89096555D01*
X133594362Y-89101000D01*
X132855638Y-89101000D01*
X132810501Y-89096555D01*
X132773005Y-89085180D01*
X132738446Y-89066708D01*
X132708153Y-89041847D01*
X132683292Y-89011554D01*
X132664820Y-88976995D01*
X132653445Y-88939499D01*
X132649000Y-88894362D01*
X132649000Y-88255638D01*
X132653445Y-88210501D01*
X132664820Y-88173005D01*
X132683292Y-88138446D01*
X132708153Y-88108153D01*
X132738446Y-88083292D01*
X132773005Y-88064820D01*
X132810501Y-88053445D01*
X132855638Y-88049000D01*
X133594362Y-88049000D01*
X133639499Y-88053445D01*
G37*
G36*
X115554581Y-86913723D02*
G01*
X115707178Y-86976930D01*
X115844512Y-87068694D01*
X115961306Y-87185488D01*
X116053070Y-87322822D01*
X116116277Y-87475419D01*
X116148500Y-87637414D01*
X116148500Y-87802586D01*
X116116277Y-87964581D01*
X116053070Y-88117178D01*
X115961306Y-88254512D01*
X115844512Y-88371306D01*
X115707178Y-88463070D01*
X115554581Y-88526277D01*
X115392586Y-88558500D01*
X115227414Y-88558500D01*
X115065419Y-88526277D01*
X114912822Y-88463070D01*
X114775488Y-88371306D01*
X114658694Y-88254512D01*
X114566930Y-88117178D01*
X114503723Y-87964581D01*
X114471500Y-87802586D01*
X114471500Y-87637414D01*
X114503723Y-87475419D01*
X114566930Y-87322822D01*
X114658694Y-87185488D01*
X114775488Y-87068694D01*
X114912822Y-86976930D01*
X115065419Y-86913723D01*
X115227414Y-86881500D01*
X115392586Y-86881500D01*
X115554581Y-86913723D01*
G37*
G36*
X118394581Y-85533723D02*
G01*
X118547178Y-85596930D01*
X118684512Y-85688694D01*
X118801306Y-85805488D01*
X118893070Y-85942822D01*
X118956277Y-86095419D01*
X118988500Y-86257414D01*
X118988500Y-86422586D01*
X118956277Y-86584581D01*
X118893070Y-86737178D01*
X118801306Y-86874512D01*
X118684512Y-86991306D01*
X118547178Y-87083070D01*
X118394581Y-87146277D01*
X118232586Y-87178500D01*
X118067414Y-87178500D01*
X117905419Y-87146277D01*
X117752822Y-87083070D01*
X117615488Y-86991306D01*
X117498694Y-86874512D01*
X117406930Y-86737178D01*
X117343723Y-86584581D01*
X117311500Y-86422586D01*
X117311500Y-86257414D01*
X117343723Y-86095419D01*
X117406930Y-85942822D01*
X117498694Y-85805488D01*
X117615488Y-85688694D01*
X117752822Y-85596930D01*
X117905419Y-85533723D01*
X118067414Y-85501500D01*
X118232586Y-85501500D01*
X118394581Y-85533723D01*
G37*
G36*
X175063512Y-85223927D02*
G01*
X175212812Y-85253624D01*
X175376784Y-85321544D01*
X175524354Y-85420147D01*
X175649853Y-85545646D01*
X175748456Y-85693216D01*
X175816376Y-85857188D01*
X175851000Y-86031259D01*
X175851000Y-86208741D01*
X175816376Y-86382812D01*
X175748456Y-86546784D01*
X175649853Y-86694354D01*
X175524354Y-86819853D01*
X175376784Y-86918456D01*
X175212812Y-86986376D01*
X175063512Y-87016073D01*
X175038742Y-87021000D01*
X174861258Y-87021000D01*
X174836488Y-87016073D01*
X174687188Y-86986376D01*
X174523216Y-86918456D01*
X174375646Y-86819853D01*
X174250147Y-86694354D01*
X174151544Y-86546784D01*
X174083624Y-86382812D01*
X174049000Y-86208741D01*
X174049000Y-86031259D01*
X174083624Y-85857188D01*
X174151544Y-85693216D01*
X174250147Y-85545646D01*
X174375646Y-85420147D01*
X174523216Y-85321544D01*
X174687188Y-85253624D01*
X174836488Y-85223927D01*
X174861258Y-85219000D01*
X175038742Y-85219000D01*
X175063512Y-85223927D01*
G37*
G36*
X131814499Y-84878445D02*
G01*
X131851995Y-84889820D01*
X131886554Y-84908292D01*
X131916847Y-84933153D01*
X131941708Y-84963446D01*
X131960180Y-84998005D01*
X131971555Y-85035501D01*
X131976000Y-85080638D01*
X131976000Y-85719362D01*
X131971555Y-85764499D01*
X131960180Y-85801995D01*
X131941708Y-85836554D01*
X131916847Y-85866847D01*
X131886554Y-85891708D01*
X131851995Y-85910180D01*
X131814499Y-85921555D01*
X131769362Y-85926000D01*
X131030638Y-85926000D01*
X130985501Y-85921555D01*
X130948005Y-85910180D01*
X130913446Y-85891708D01*
X130883153Y-85866847D01*
X130858292Y-85836554D01*
X130839820Y-85801995D01*
X130828445Y-85764499D01*
X130824000Y-85719362D01*
X130824000Y-85080638D01*
X130828445Y-85035501D01*
X130839820Y-84998005D01*
X130858292Y-84963446D01*
X130883153Y-84933153D01*
X130913446Y-84908292D01*
X130948005Y-84889820D01*
X130985501Y-84878445D01*
X131030638Y-84874000D01*
X131769362Y-84874000D01*
X131814499Y-84878445D01*
G37*
G36*
X130064499Y-84878445D02*
G01*
X130101995Y-84889820D01*
X130136554Y-84908292D01*
X130166847Y-84933153D01*
X130191708Y-84963446D01*
X130210180Y-84998005D01*
X130221555Y-85035501D01*
X130226000Y-85080638D01*
X130226000Y-85719362D01*
X130221555Y-85764499D01*
X130210180Y-85801995D01*
X130191708Y-85836554D01*
X130166847Y-85866847D01*
X130136554Y-85891708D01*
X130101995Y-85910180D01*
X130064499Y-85921555D01*
X130019362Y-85926000D01*
X129280638Y-85926000D01*
X129235501Y-85921555D01*
X129198005Y-85910180D01*
X129163446Y-85891708D01*
X129133153Y-85866847D01*
X129108292Y-85836554D01*
X129089820Y-85801995D01*
X129078445Y-85764499D01*
X129074000Y-85719362D01*
X129074000Y-85080638D01*
X129078445Y-85035501D01*
X129089820Y-84998005D01*
X129108292Y-84963446D01*
X129133153Y-84933153D01*
X129163446Y-84908292D01*
X129198005Y-84889820D01*
X129235501Y-84878445D01*
X129280638Y-84874000D01*
X130019362Y-84874000D01*
X130064499Y-84878445D01*
G37*
G36*
X115554581Y-84153723D02*
G01*
X115707178Y-84216930D01*
X115844512Y-84308694D01*
X115961306Y-84425488D01*
X116053070Y-84562822D01*
X116116277Y-84715419D01*
X116148500Y-84877414D01*
X116148500Y-85042586D01*
X116116277Y-85204581D01*
X116053070Y-85357178D01*
X115961306Y-85494512D01*
X115844512Y-85611306D01*
X115707178Y-85703070D01*
X115554581Y-85766277D01*
X115392586Y-85798500D01*
X115227414Y-85798500D01*
X115065419Y-85766277D01*
X114912822Y-85703070D01*
X114775488Y-85611306D01*
X114658694Y-85494512D01*
X114566930Y-85357178D01*
X114503723Y-85204581D01*
X114471500Y-85042586D01*
X114471500Y-84877414D01*
X114503723Y-84715419D01*
X114566930Y-84562822D01*
X114658694Y-84425488D01*
X114775488Y-84308694D01*
X114912822Y-84216930D01*
X115065419Y-84153723D01*
X115227414Y-84121500D01*
X115392586Y-84121500D01*
X115554581Y-84153723D01*
G37*
G36*
X175063512Y-82683927D02*
G01*
X175212812Y-82713624D01*
X175376784Y-82781544D01*
X175524354Y-82880147D01*
X175649853Y-83005646D01*
X175748456Y-83153216D01*
X175816376Y-83317188D01*
X175851000Y-83491259D01*
X175851000Y-83668741D01*
X175816376Y-83842812D01*
X175748456Y-84006784D01*
X175649853Y-84154354D01*
X175524354Y-84279853D01*
X175376784Y-84378456D01*
X175212812Y-84446376D01*
X175063512Y-84476073D01*
X175038742Y-84481000D01*
X174861258Y-84481000D01*
X174836488Y-84476073D01*
X174687188Y-84446376D01*
X174523216Y-84378456D01*
X174375646Y-84279853D01*
X174250147Y-84154354D01*
X174151544Y-84006784D01*
X174083624Y-83842812D01*
X174049000Y-83668741D01*
X174049000Y-83491259D01*
X174083624Y-83317188D01*
X174151544Y-83153216D01*
X174250147Y-83005646D01*
X174375646Y-82880147D01*
X174523216Y-82781544D01*
X174687188Y-82713624D01*
X174836488Y-82683927D01*
X174861258Y-82679000D01*
X175038742Y-82679000D01*
X175063512Y-82683927D01*
G37*
G36*
X118394581Y-82773723D02*
G01*
X118547178Y-82836930D01*
X118684512Y-82928694D01*
X118801306Y-83045488D01*
X118893070Y-83182822D01*
X118956277Y-83335419D01*
X118988500Y-83497414D01*
X118988500Y-83662586D01*
X118956277Y-83824581D01*
X118893070Y-83977178D01*
X118801306Y-84114512D01*
X118684512Y-84231306D01*
X118547178Y-84323070D01*
X118394581Y-84386277D01*
X118232586Y-84418500D01*
X118067414Y-84418500D01*
X117905419Y-84386277D01*
X117752822Y-84323070D01*
X117615488Y-84231306D01*
X117498694Y-84114512D01*
X117406930Y-83977178D01*
X117343723Y-83824581D01*
X117311500Y-83662586D01*
X117311500Y-83497414D01*
X117343723Y-83335419D01*
X117406930Y-83182822D01*
X117498694Y-83045488D01*
X117615488Y-82928694D01*
X117752822Y-82836930D01*
X117905419Y-82773723D01*
X118067414Y-82741500D01*
X118232586Y-82741500D01*
X118394581Y-82773723D01*
G37*
G36*
X142788062Y-82278181D02*
G01*
X142822981Y-82288774D01*
X142855163Y-82305976D01*
X142883373Y-82329127D01*
X142906524Y-82357337D01*
X142923726Y-82389519D01*
X142934319Y-82424438D01*
X142938500Y-82466895D01*
X142938500Y-83933105D01*
X142934319Y-83975562D01*
X142923726Y-84010481D01*
X142906524Y-84042663D01*
X142883373Y-84070873D01*
X142855163Y-84094024D01*
X142822981Y-84111226D01*
X142788062Y-84121819D01*
X142745605Y-84126000D01*
X141604395Y-84126000D01*
X141561938Y-84121819D01*
X141527019Y-84111226D01*
X141494837Y-84094024D01*
X141466627Y-84070873D01*
X141443476Y-84042663D01*
X141426274Y-84010481D01*
X141415681Y-83975562D01*
X141411500Y-83933105D01*
X141411500Y-82466895D01*
X141415681Y-82424438D01*
X141426274Y-82389519D01*
X141443476Y-82357337D01*
X141466627Y-82329127D01*
X141494837Y-82305976D01*
X141527019Y-82288774D01*
X141561938Y-82278181D01*
X141604395Y-82274000D01*
X142745605Y-82274000D01*
X142788062Y-82278181D01*
G37*
G36*
X139813062Y-82278181D02*
G01*
X139847981Y-82288774D01*
X139880163Y-82305976D01*
X139908373Y-82329127D01*
X139931524Y-82357337D01*
X139948726Y-82389519D01*
X139959319Y-82424438D01*
X139963500Y-82466895D01*
X139963500Y-83933105D01*
X139959319Y-83975562D01*
X139948726Y-84010481D01*
X139931524Y-84042663D01*
X139908373Y-84070873D01*
X139880163Y-84094024D01*
X139847981Y-84111226D01*
X139813062Y-84121819D01*
X139770605Y-84126000D01*
X138629395Y-84126000D01*
X138586938Y-84121819D01*
X138552019Y-84111226D01*
X138519837Y-84094024D01*
X138491627Y-84070873D01*
X138468476Y-84042663D01*
X138451274Y-84010481D01*
X138440681Y-83975562D01*
X138436500Y-83933105D01*
X138436500Y-82466895D01*
X138440681Y-82424438D01*
X138451274Y-82389519D01*
X138468476Y-82357337D01*
X138491627Y-82329127D01*
X138519837Y-82305976D01*
X138552019Y-82288774D01*
X138586938Y-82278181D01*
X138629395Y-82274000D01*
X139770605Y-82274000D01*
X139813062Y-82278181D01*
G37*
G36*
X129913674Y-82053465D02*
G01*
X129951367Y-82064899D01*
X129986103Y-82083466D01*
X130016548Y-82108452D01*
X130041534Y-82138897D01*
X130060101Y-82173633D01*
X130071535Y-82211326D01*
X130076000Y-82256661D01*
X130076000Y-83343339D01*
X130071535Y-83388674D01*
X130060101Y-83426367D01*
X130041534Y-83461103D01*
X130016548Y-83491548D01*
X129986103Y-83516534D01*
X129951367Y-83535101D01*
X129913674Y-83546535D01*
X129868339Y-83551000D01*
X129031661Y-83551000D01*
X128986326Y-83546535D01*
X128948633Y-83535101D01*
X128913897Y-83516534D01*
X128883452Y-83491548D01*
X128858466Y-83461103D01*
X128839899Y-83426367D01*
X128828465Y-83388674D01*
X128824000Y-83343339D01*
X128824000Y-82256661D01*
X128828465Y-82211326D01*
X128839899Y-82173633D01*
X128858466Y-82138897D01*
X128883452Y-82108452D01*
X128913897Y-82083466D01*
X128948633Y-82064899D01*
X128986326Y-82053465D01*
X129031661Y-82049000D01*
X129868339Y-82049000D01*
X129913674Y-82053465D01*
G37*
G36*
X131963674Y-82053465D02*
G01*
X132001367Y-82064899D01*
X132036103Y-82083466D01*
X132066548Y-82108452D01*
X132091534Y-82138897D01*
X132110101Y-82173633D01*
X132121535Y-82211326D01*
X132126000Y-82256661D01*
X132126000Y-83343339D01*
X132121535Y-83388674D01*
X132110101Y-83426367D01*
X132091534Y-83461103D01*
X132066548Y-83491548D01*
X132036103Y-83516534D01*
X132001367Y-83535101D01*
X131963674Y-83546535D01*
X131918339Y-83551000D01*
X131081661Y-83551000D01*
X131036326Y-83546535D01*
X130998633Y-83535101D01*
X130963897Y-83516534D01*
X130933452Y-83491548D01*
X130908466Y-83461103D01*
X130889899Y-83426367D01*
X130878465Y-83388674D01*
X130874000Y-83343339D01*
X130874000Y-82256661D01*
X130878465Y-82211326D01*
X130889899Y-82173633D01*
X130908466Y-82138897D01*
X130933452Y-82108452D01*
X130963897Y-82083466D01*
X130998633Y-82064899D01*
X131036326Y-82053465D01*
X131081661Y-82049000D01*
X131918339Y-82049000D01*
X131963674Y-82053465D01*
G37*
G36*
X137013674Y-82053465D02*
G01*
X137051367Y-82064899D01*
X137086103Y-82083466D01*
X137116548Y-82108452D01*
X137141534Y-82138897D01*
X137160101Y-82173633D01*
X137171535Y-82211326D01*
X137176000Y-82256661D01*
X137176000Y-83343339D01*
X137171535Y-83388674D01*
X137160101Y-83426367D01*
X137141534Y-83461103D01*
X137116548Y-83491548D01*
X137086103Y-83516534D01*
X137051367Y-83535101D01*
X137013674Y-83546535D01*
X136968339Y-83551000D01*
X136131661Y-83551000D01*
X136086326Y-83546535D01*
X136048633Y-83535101D01*
X136013897Y-83516534D01*
X135983452Y-83491548D01*
X135958466Y-83461103D01*
X135939899Y-83426367D01*
X135928465Y-83388674D01*
X135924000Y-83343339D01*
X135924000Y-82256661D01*
X135928465Y-82211326D01*
X135939899Y-82173633D01*
X135958466Y-82138897D01*
X135983452Y-82108452D01*
X136013897Y-82083466D01*
X136048633Y-82064899D01*
X136086326Y-82053465D01*
X136131661Y-82049000D01*
X136968339Y-82049000D01*
X137013674Y-82053465D01*
G37*
G36*
X134963674Y-82053465D02*
G01*
X135001367Y-82064899D01*
X135036103Y-82083466D01*
X135066548Y-82108452D01*
X135091534Y-82138897D01*
X135110101Y-82173633D01*
X135121535Y-82211326D01*
X135126000Y-82256661D01*
X135126000Y-83343339D01*
X135121535Y-83388674D01*
X135110101Y-83426367D01*
X135091534Y-83461103D01*
X135066548Y-83491548D01*
X135036103Y-83516534D01*
X135001367Y-83535101D01*
X134963674Y-83546535D01*
X134918339Y-83551000D01*
X134081661Y-83551000D01*
X134036326Y-83546535D01*
X133998633Y-83535101D01*
X133963897Y-83516534D01*
X133933452Y-83491548D01*
X133908466Y-83461103D01*
X133889899Y-83426367D01*
X133878465Y-83388674D01*
X133874000Y-83343339D01*
X133874000Y-82256661D01*
X133878465Y-82211326D01*
X133889899Y-82173633D01*
X133908466Y-82138897D01*
X133933452Y-82108452D01*
X133963897Y-82083466D01*
X133998633Y-82064899D01*
X134036326Y-82053465D01*
X134081661Y-82049000D01*
X134918339Y-82049000D01*
X134963674Y-82053465D01*
G37*
G36*
X115554581Y-81393723D02*
G01*
X115707178Y-81456930D01*
X115844512Y-81548694D01*
X115961306Y-81665488D01*
X116053070Y-81802822D01*
X116116277Y-81955419D01*
X116148500Y-82117414D01*
X116148500Y-82282586D01*
X116116277Y-82444581D01*
X116053070Y-82597178D01*
X115961306Y-82734512D01*
X115844512Y-82851306D01*
X115707178Y-82943070D01*
X115554581Y-83006277D01*
X115392586Y-83038500D01*
X115227414Y-83038500D01*
X115065419Y-83006277D01*
X114912822Y-82943070D01*
X114775488Y-82851306D01*
X114658694Y-82734512D01*
X114566930Y-82597178D01*
X114503723Y-82444581D01*
X114471500Y-82282586D01*
X114471500Y-82117414D01*
X114503723Y-81955419D01*
X114566930Y-81802822D01*
X114658694Y-81665488D01*
X114775488Y-81548694D01*
X114912822Y-81456930D01*
X115065419Y-81393723D01*
X115227414Y-81361500D01*
X115392586Y-81361500D01*
X115554581Y-81393723D01*
G37*
G36*
X166284928Y-81931764D02*
G01*
X166306009Y-81938160D01*
X166325445Y-81948548D01*
X166342476Y-81962524D01*
X166356452Y-81979555D01*
X166366840Y-81998991D01*
X166373236Y-82020072D01*
X166376000Y-82048140D01*
X166376000Y-82511860D01*
X166373236Y-82539928D01*
X166366840Y-82561009D01*
X166356452Y-82580445D01*
X166342476Y-82597476D01*
X166325445Y-82611452D01*
X166306009Y-82621840D01*
X166284928Y-82628236D01*
X166256860Y-82631000D01*
X164443140Y-82631000D01*
X164415072Y-82628236D01*
X164393991Y-82621840D01*
X164374555Y-82611452D01*
X164357524Y-82597476D01*
X164343548Y-82580445D01*
X164333160Y-82561009D01*
X164326764Y-82539928D01*
X164324000Y-82511860D01*
X164324000Y-82048140D01*
X164326764Y-82020072D01*
X164333160Y-81998991D01*
X164343548Y-81979555D01*
X164357524Y-81962524D01*
X164374555Y-81948548D01*
X164393991Y-81938160D01*
X164415072Y-81931764D01*
X164443140Y-81929000D01*
X166256860Y-81929000D01*
X166284928Y-81931764D01*
G37*
G36*
X171234928Y-81931764D02*
G01*
X171256009Y-81938160D01*
X171275445Y-81948548D01*
X171292476Y-81962524D01*
X171306452Y-81979555D01*
X171316840Y-81998991D01*
X171323236Y-82020072D01*
X171326000Y-82048140D01*
X171326000Y-82511860D01*
X171323236Y-82539928D01*
X171316840Y-82561009D01*
X171306452Y-82580445D01*
X171292476Y-82597476D01*
X171275445Y-82611452D01*
X171256009Y-82621840D01*
X171234928Y-82628236D01*
X171206860Y-82631000D01*
X169393140Y-82631000D01*
X169365072Y-82628236D01*
X169343991Y-82621840D01*
X169324555Y-82611452D01*
X169307524Y-82597476D01*
X169293548Y-82580445D01*
X169283160Y-82561009D01*
X169276764Y-82539928D01*
X169274000Y-82511860D01*
X169274000Y-82048140D01*
X169276764Y-82020072D01*
X169283160Y-81998991D01*
X169293548Y-81979555D01*
X169307524Y-81962524D01*
X169324555Y-81948548D01*
X169343991Y-81938160D01*
X169365072Y-81931764D01*
X169393140Y-81929000D01*
X171206860Y-81929000D01*
X171234928Y-81931764D01*
G37*
G36*
X175063512Y-80143927D02*
G01*
X175212812Y-80173624D01*
X175376784Y-80241544D01*
X175524354Y-80340147D01*
X175649853Y-80465646D01*
X175748456Y-80613216D01*
X175816376Y-80777188D01*
X175851000Y-80951259D01*
X175851000Y-81128741D01*
X175816376Y-81302812D01*
X175748456Y-81466784D01*
X175649853Y-81614354D01*
X175524354Y-81739853D01*
X175376784Y-81838456D01*
X175212812Y-81906376D01*
X175063512Y-81936073D01*
X175038742Y-81941000D01*
X174861258Y-81941000D01*
X174836488Y-81936073D01*
X174687188Y-81906376D01*
X174523216Y-81838456D01*
X174375646Y-81739853D01*
X174250147Y-81614354D01*
X174151544Y-81466784D01*
X174083624Y-81302812D01*
X174049000Y-81128741D01*
X174049000Y-80951259D01*
X174083624Y-80777188D01*
X174151544Y-80613216D01*
X174250147Y-80465646D01*
X174375646Y-80340147D01*
X174523216Y-80241544D01*
X174687188Y-80173624D01*
X174836488Y-80143927D01*
X174861258Y-80139000D01*
X175038742Y-80139000D01*
X175063512Y-80143927D01*
G37*
G36*
X147189499Y-80853445D02*
G01*
X147226995Y-80864820D01*
X147261554Y-80883292D01*
X147291847Y-80908153D01*
X147316708Y-80938446D01*
X147335180Y-80973005D01*
X147346555Y-81010501D01*
X147351000Y-81055638D01*
X147351000Y-81694362D01*
X147346555Y-81739499D01*
X147335180Y-81776995D01*
X147316708Y-81811554D01*
X147291847Y-81841847D01*
X147261554Y-81866708D01*
X147226995Y-81885180D01*
X147189499Y-81896555D01*
X147144362Y-81901000D01*
X146405638Y-81901000D01*
X146360501Y-81896555D01*
X146323005Y-81885180D01*
X146288446Y-81866708D01*
X146258153Y-81841847D01*
X146233292Y-81811554D01*
X146214820Y-81776995D01*
X146203445Y-81739499D01*
X146199000Y-81694362D01*
X146199000Y-81055638D01*
X146203445Y-81010501D01*
X146214820Y-80973005D01*
X146233292Y-80938446D01*
X146258153Y-80908153D01*
X146288446Y-80883292D01*
X146323005Y-80864820D01*
X146360501Y-80853445D01*
X146405638Y-80849000D01*
X147144362Y-80849000D01*
X147189499Y-80853445D01*
G37*
G36*
X148939499Y-80853445D02*
G01*
X148976995Y-80864820D01*
X149011554Y-80883292D01*
X149041847Y-80908153D01*
X149066708Y-80938446D01*
X149085180Y-80973005D01*
X149096555Y-81010501D01*
X149101000Y-81055638D01*
X149101000Y-81694362D01*
X149096555Y-81739499D01*
X149085180Y-81776995D01*
X149066708Y-81811554D01*
X149041847Y-81841847D01*
X149011554Y-81866708D01*
X148976995Y-81885180D01*
X148939499Y-81896555D01*
X148894362Y-81901000D01*
X148155638Y-81901000D01*
X148110501Y-81896555D01*
X148073005Y-81885180D01*
X148038446Y-81866708D01*
X148008153Y-81841847D01*
X147983292Y-81811554D01*
X147964820Y-81776995D01*
X147953445Y-81739499D01*
X147949000Y-81694362D01*
X147949000Y-81055638D01*
X147953445Y-81010501D01*
X147964820Y-80973005D01*
X147983292Y-80938446D01*
X148008153Y-80908153D01*
X148038446Y-80883292D01*
X148073005Y-80864820D01*
X148110501Y-80853445D01*
X148155638Y-80849000D01*
X148894362Y-80849000D01*
X148939499Y-80853445D01*
G37*
G36*
X150889499Y-80653445D02*
G01*
X150926995Y-80664820D01*
X150961554Y-80683292D01*
X150991847Y-80708153D01*
X151016708Y-80738446D01*
X151035180Y-80773005D01*
X151046555Y-80810501D01*
X151051000Y-80855638D01*
X151051000Y-81594362D01*
X151046555Y-81639499D01*
X151035180Y-81676995D01*
X151016708Y-81711554D01*
X150991847Y-81741847D01*
X150961554Y-81766708D01*
X150926995Y-81785180D01*
X150889499Y-81796555D01*
X150844362Y-81801000D01*
X150205638Y-81801000D01*
X150160501Y-81796555D01*
X150123005Y-81785180D01*
X150088446Y-81766708D01*
X150058153Y-81741847D01*
X150033292Y-81711554D01*
X150014820Y-81676995D01*
X150003445Y-81639499D01*
X149999000Y-81594362D01*
X149999000Y-80855638D01*
X150003445Y-80810501D01*
X150014820Y-80773005D01*
X150033292Y-80738446D01*
X150058153Y-80708153D01*
X150088446Y-80683292D01*
X150123005Y-80664820D01*
X150160501Y-80653445D01*
X150205638Y-80649000D01*
X150844362Y-80649000D01*
X150889499Y-80653445D01*
G37*
G36*
X118394581Y-80013723D02*
G01*
X118547178Y-80076930D01*
X118684512Y-80168694D01*
X118801306Y-80285488D01*
X118893070Y-80422822D01*
X118956277Y-80575419D01*
X118988500Y-80737414D01*
X118988500Y-80902586D01*
X118956277Y-81064581D01*
X118893070Y-81217178D01*
X118801306Y-81354512D01*
X118684512Y-81471306D01*
X118547178Y-81563070D01*
X118394581Y-81626277D01*
X118232586Y-81658500D01*
X118067414Y-81658500D01*
X117905419Y-81626277D01*
X117752822Y-81563070D01*
X117615488Y-81471306D01*
X117498694Y-81354512D01*
X117406930Y-81217178D01*
X117343723Y-81064581D01*
X117311500Y-80902586D01*
X117311500Y-80737414D01*
X117343723Y-80575419D01*
X117406930Y-80422822D01*
X117498694Y-80285488D01*
X117615488Y-80168694D01*
X117752822Y-80076930D01*
X117905419Y-80013723D01*
X118067414Y-79981500D01*
X118232586Y-79981500D01*
X118394581Y-80013723D01*
G37*
G36*
X140075562Y-79965681D02*
G01*
X140110481Y-79976274D01*
X140142663Y-79993476D01*
X140170873Y-80016627D01*
X140194024Y-80044837D01*
X140211226Y-80077019D01*
X140221819Y-80111938D01*
X140226000Y-80154395D01*
X140226000Y-81295605D01*
X140221819Y-81338062D01*
X140211226Y-81372981D01*
X140194024Y-81405163D01*
X140170873Y-81433373D01*
X140142663Y-81456524D01*
X140110481Y-81473726D01*
X140075562Y-81484319D01*
X140033105Y-81488500D01*
X138566895Y-81488500D01*
X138524438Y-81484319D01*
X138489519Y-81473726D01*
X138457337Y-81456524D01*
X138429127Y-81433373D01*
X138405976Y-81405163D01*
X138388774Y-81372981D01*
X138378181Y-81338062D01*
X138374000Y-81295605D01*
X138374000Y-80154395D01*
X138378181Y-80111938D01*
X138388774Y-80077019D01*
X138405976Y-80044837D01*
X138429127Y-80016627D01*
X138457337Y-79993476D01*
X138489519Y-79976274D01*
X138524438Y-79965681D01*
X138566895Y-79961500D01*
X140033105Y-79961500D01*
X140075562Y-79965681D01*
G37*
G36*
X158834928Y-80731764D02*
G01*
X158856009Y-80738160D01*
X158875445Y-80748548D01*
X158892476Y-80762524D01*
X158906452Y-80779555D01*
X158916840Y-80798991D01*
X158923236Y-80820072D01*
X158926000Y-80848140D01*
X158926000Y-81311860D01*
X158923236Y-81339928D01*
X158916840Y-81361009D01*
X158906452Y-81380445D01*
X158892476Y-81397476D01*
X158875445Y-81411452D01*
X158856009Y-81421840D01*
X158834928Y-81428236D01*
X158806860Y-81431000D01*
X157293140Y-81431000D01*
X157265072Y-81428236D01*
X157243991Y-81421840D01*
X157224555Y-81411452D01*
X157207524Y-81397476D01*
X157193548Y-81380445D01*
X157183160Y-81361009D01*
X157176764Y-81339928D01*
X157174000Y-81311860D01*
X157174000Y-80848140D01*
X157176764Y-80820072D01*
X157183160Y-80798991D01*
X157193548Y-80779555D01*
X157207524Y-80762524D01*
X157224555Y-80748548D01*
X157243991Y-80738160D01*
X157265072Y-80731764D01*
X157293140Y-80729000D01*
X158806860Y-80729000D01*
X158834928Y-80731764D01*
G37*
G36*
X153584928Y-80731764D02*
G01*
X153606009Y-80738160D01*
X153625445Y-80748548D01*
X153642476Y-80762524D01*
X153656452Y-80779555D01*
X153666840Y-80798991D01*
X153673236Y-80820072D01*
X153676000Y-80848140D01*
X153676000Y-81311860D01*
X153673236Y-81339928D01*
X153666840Y-81361009D01*
X153656452Y-81380445D01*
X153642476Y-81397476D01*
X153625445Y-81411452D01*
X153606009Y-81421840D01*
X153584928Y-81428236D01*
X153556860Y-81431000D01*
X152043140Y-81431000D01*
X152015072Y-81428236D01*
X151993991Y-81421840D01*
X151974555Y-81411452D01*
X151957524Y-81397476D01*
X151943548Y-81380445D01*
X151933160Y-81361009D01*
X151926764Y-81339928D01*
X151924000Y-81311860D01*
X151924000Y-80848140D01*
X151926764Y-80820072D01*
X151933160Y-80798991D01*
X151943548Y-80779555D01*
X151957524Y-80762524D01*
X151974555Y-80748548D01*
X151993991Y-80738160D01*
X152015072Y-80731764D01*
X152043140Y-80729000D01*
X153556860Y-80729000D01*
X153584928Y-80731764D01*
G37*
G36*
X134581000Y-81401000D02*
G01*
X133679000Y-81401000D01*
X133679000Y-80099000D01*
X134581000Y-80099000D01*
X134581000Y-81401000D01*
G37*
G36*
X137121000Y-81401000D02*
G01*
X136219000Y-81401000D01*
X136219000Y-80099000D01*
X137121000Y-80099000D01*
X137121000Y-81401000D01*
G37*
G36*
X166284928Y-80661764D02*
G01*
X166306009Y-80668160D01*
X166325445Y-80678548D01*
X166342476Y-80692524D01*
X166356452Y-80709555D01*
X166366840Y-80728991D01*
X166373236Y-80750072D01*
X166376000Y-80778140D01*
X166376000Y-81241860D01*
X166373236Y-81269928D01*
X166366840Y-81291009D01*
X166356452Y-81310445D01*
X166342476Y-81327476D01*
X166325445Y-81341452D01*
X166306009Y-81351840D01*
X166284928Y-81358236D01*
X166256860Y-81361000D01*
X164443140Y-81361000D01*
X164415072Y-81358236D01*
X164393991Y-81351840D01*
X164374555Y-81341452D01*
X164357524Y-81327476D01*
X164343548Y-81310445D01*
X164333160Y-81291009D01*
X164326764Y-81269928D01*
X164324000Y-81241860D01*
X164324000Y-80778140D01*
X164326764Y-80750072D01*
X164333160Y-80728991D01*
X164343548Y-80709555D01*
X164357524Y-80692524D01*
X164374555Y-80678548D01*
X164393991Y-80668160D01*
X164415072Y-80661764D01*
X164443140Y-80659000D01*
X166256860Y-80659000D01*
X166284928Y-80661764D01*
G37*
G36*
X171234928Y-80661764D02*
G01*
X171256009Y-80668160D01*
X171275445Y-80678548D01*
X171292476Y-80692524D01*
X171306452Y-80709555D01*
X171316840Y-80728991D01*
X171323236Y-80750072D01*
X171326000Y-80778140D01*
X171326000Y-81241860D01*
X171323236Y-81269928D01*
X171316840Y-81291009D01*
X171306452Y-81310445D01*
X171292476Y-81327476D01*
X171275445Y-81341452D01*
X171256009Y-81351840D01*
X171234928Y-81358236D01*
X171206860Y-81361000D01*
X169393140Y-81361000D01*
X169365072Y-81358236D01*
X169343991Y-81351840D01*
X169324555Y-81341452D01*
X169307524Y-81327476D01*
X169293548Y-81310445D01*
X169283160Y-81291009D01*
X169276764Y-81269928D01*
X169274000Y-81241860D01*
X169274000Y-80778140D01*
X169276764Y-80750072D01*
X169283160Y-80728991D01*
X169293548Y-80709555D01*
X169307524Y-80692524D01*
X169324555Y-80678548D01*
X169343991Y-80668160D01*
X169365072Y-80661764D01*
X169393140Y-80659000D01*
X171206860Y-80659000D01*
X171234928Y-80661764D01*
G37*
G36*
X129038062Y-79378181D02*
G01*
X129072981Y-79388774D01*
X129105163Y-79405976D01*
X129133373Y-79429127D01*
X129156524Y-79457337D01*
X129173726Y-79489519D01*
X129184319Y-79524438D01*
X129188500Y-79566895D01*
X129188500Y-81033105D01*
X129184319Y-81075562D01*
X129173726Y-81110481D01*
X129156524Y-81142663D01*
X129133373Y-81170873D01*
X129105163Y-81194024D01*
X129072981Y-81211226D01*
X129038062Y-81221819D01*
X128995605Y-81226000D01*
X127854395Y-81226000D01*
X127811938Y-81221819D01*
X127777019Y-81211226D01*
X127744837Y-81194024D01*
X127716627Y-81170873D01*
X127693476Y-81142663D01*
X127676274Y-81110481D01*
X127665681Y-81075562D01*
X127661500Y-81033105D01*
X127661500Y-79566895D01*
X127665681Y-79524438D01*
X127676274Y-79489519D01*
X127693476Y-79457337D01*
X127716627Y-79429127D01*
X127744837Y-79405976D01*
X127777019Y-79388774D01*
X127811938Y-79378181D01*
X127854395Y-79374000D01*
X128995605Y-79374000D01*
X129038062Y-79378181D01*
G37*
G36*
X132013062Y-79378181D02*
G01*
X132047981Y-79388774D01*
X132080163Y-79405976D01*
X132108373Y-79429127D01*
X132131524Y-79457337D01*
X132148726Y-79489519D01*
X132159319Y-79524438D01*
X132163500Y-79566895D01*
X132163500Y-81033105D01*
X132159319Y-81075562D01*
X132148726Y-81110481D01*
X132131524Y-81142663D01*
X132108373Y-81170873D01*
X132080163Y-81194024D01*
X132047981Y-81211226D01*
X132013062Y-81221819D01*
X131970605Y-81226000D01*
X130829395Y-81226000D01*
X130786938Y-81221819D01*
X130752019Y-81211226D01*
X130719837Y-81194024D01*
X130691627Y-81170873D01*
X130668476Y-81142663D01*
X130651274Y-81110481D01*
X130640681Y-81075562D01*
X130636500Y-81033105D01*
X130636500Y-79566895D01*
X130640681Y-79524438D01*
X130651274Y-79489519D01*
X130668476Y-79457337D01*
X130691627Y-79429127D01*
X130719837Y-79405976D01*
X130752019Y-79388774D01*
X130786938Y-79378181D01*
X130829395Y-79374000D01*
X131970605Y-79374000D01*
X132013062Y-79378181D01*
G37*
G36*
X115554581Y-78633723D02*
G01*
X115707178Y-78696930D01*
X115844512Y-78788694D01*
X115961306Y-78905488D01*
X116053070Y-79042822D01*
X116116277Y-79195419D01*
X116148500Y-79357414D01*
X116148500Y-79522586D01*
X116116277Y-79684581D01*
X116053070Y-79837178D01*
X115961306Y-79974512D01*
X115844512Y-80091306D01*
X115707178Y-80183070D01*
X115554581Y-80246277D01*
X115392586Y-80278500D01*
X115227414Y-80278500D01*
X115065419Y-80246277D01*
X114912822Y-80183070D01*
X114775488Y-80091306D01*
X114658694Y-79974512D01*
X114566930Y-79837178D01*
X114503723Y-79684581D01*
X114471500Y-79522586D01*
X114471500Y-79357414D01*
X114503723Y-79195419D01*
X114566930Y-79042822D01*
X114658694Y-78905488D01*
X114775488Y-78788694D01*
X114912822Y-78696930D01*
X115065419Y-78633723D01*
X115227414Y-78601500D01*
X115392586Y-78601500D01*
X115554581Y-78633723D01*
G37*
G36*
X158834928Y-79461764D02*
G01*
X158856009Y-79468160D01*
X158875445Y-79478548D01*
X158892476Y-79492524D01*
X158906452Y-79509555D01*
X158916840Y-79528991D01*
X158923236Y-79550072D01*
X158926000Y-79578140D01*
X158926000Y-80041860D01*
X158923236Y-80069928D01*
X158916840Y-80091009D01*
X158906452Y-80110445D01*
X158892476Y-80127476D01*
X158875445Y-80141452D01*
X158856009Y-80151840D01*
X158834928Y-80158236D01*
X158806860Y-80161000D01*
X157293140Y-80161000D01*
X157265072Y-80158236D01*
X157243991Y-80151840D01*
X157224555Y-80141452D01*
X157207524Y-80127476D01*
X157193548Y-80110445D01*
X157183160Y-80091009D01*
X157176764Y-80069928D01*
X157174000Y-80041860D01*
X157174000Y-79578140D01*
X157176764Y-79550072D01*
X157183160Y-79528991D01*
X157193548Y-79509555D01*
X157207524Y-79492524D01*
X157224555Y-79478548D01*
X157243991Y-79468160D01*
X157265072Y-79461764D01*
X157293140Y-79459000D01*
X158806860Y-79459000D01*
X158834928Y-79461764D01*
G37*
G36*
X153584928Y-79461764D02*
G01*
X153606009Y-79468160D01*
X153625445Y-79478548D01*
X153642476Y-79492524D01*
X153656452Y-79509555D01*
X153666840Y-79528991D01*
X153673236Y-79550072D01*
X153676000Y-79578140D01*
X153676000Y-80041860D01*
X153673236Y-80069928D01*
X153666840Y-80091009D01*
X153656452Y-80110445D01*
X153642476Y-80127476D01*
X153625445Y-80141452D01*
X153606009Y-80151840D01*
X153584928Y-80158236D01*
X153556860Y-80161000D01*
X152043140Y-80161000D01*
X152015072Y-80158236D01*
X151993991Y-80151840D01*
X151974555Y-80141452D01*
X151957524Y-80127476D01*
X151943548Y-80110445D01*
X151933160Y-80091009D01*
X151926764Y-80069928D01*
X151924000Y-80041860D01*
X151924000Y-79578140D01*
X151926764Y-79550072D01*
X151933160Y-79528991D01*
X151943548Y-79509555D01*
X151957524Y-79492524D01*
X151974555Y-79478548D01*
X151993991Y-79468160D01*
X152015072Y-79461764D01*
X152043140Y-79459000D01*
X153556860Y-79459000D01*
X153584928Y-79461764D01*
G37*
G36*
X148939499Y-79053445D02*
G01*
X148976995Y-79064820D01*
X149011554Y-79083292D01*
X149041847Y-79108153D01*
X149066708Y-79138446D01*
X149085180Y-79173005D01*
X149096555Y-79210501D01*
X149101000Y-79255638D01*
X149101000Y-79894362D01*
X149096555Y-79939499D01*
X149085180Y-79976995D01*
X149066708Y-80011554D01*
X149041847Y-80041847D01*
X149011554Y-80066708D01*
X148976995Y-80085180D01*
X148939499Y-80096555D01*
X148894362Y-80101000D01*
X148155638Y-80101000D01*
X148110501Y-80096555D01*
X148073005Y-80085180D01*
X148038446Y-80066708D01*
X148008153Y-80041847D01*
X147983292Y-80011554D01*
X147964820Y-79976995D01*
X147953445Y-79939499D01*
X147949000Y-79894362D01*
X147949000Y-79255638D01*
X147953445Y-79210501D01*
X147964820Y-79173005D01*
X147983292Y-79138446D01*
X148008153Y-79108153D01*
X148038446Y-79083292D01*
X148073005Y-79064820D01*
X148110501Y-79053445D01*
X148155638Y-79049000D01*
X148894362Y-79049000D01*
X148939499Y-79053445D01*
G37*
G36*
X147189499Y-79053445D02*
G01*
X147226995Y-79064820D01*
X147261554Y-79083292D01*
X147291847Y-79108153D01*
X147316708Y-79138446D01*
X147335180Y-79173005D01*
X147346555Y-79210501D01*
X147351000Y-79255638D01*
X147351000Y-79894362D01*
X147346555Y-79939499D01*
X147335180Y-79976995D01*
X147316708Y-80011554D01*
X147291847Y-80041847D01*
X147261554Y-80066708D01*
X147226995Y-80085180D01*
X147189499Y-80096555D01*
X147144362Y-80101000D01*
X146405638Y-80101000D01*
X146360501Y-80096555D01*
X146323005Y-80085180D01*
X146288446Y-80066708D01*
X146258153Y-80041847D01*
X146233292Y-80011554D01*
X146214820Y-79976995D01*
X146203445Y-79939499D01*
X146199000Y-79894362D01*
X146199000Y-79255638D01*
X146203445Y-79210501D01*
X146214820Y-79173005D01*
X146233292Y-79138446D01*
X146258153Y-79108153D01*
X146288446Y-79083292D01*
X146323005Y-79064820D01*
X146360501Y-79053445D01*
X146405638Y-79049000D01*
X147144362Y-79049000D01*
X147189499Y-79053445D01*
G37*
G36*
X171234928Y-79391764D02*
G01*
X171256009Y-79398160D01*
X171275445Y-79408548D01*
X171292476Y-79422524D01*
X171306452Y-79439555D01*
X171316840Y-79458991D01*
X171323236Y-79480072D01*
X171326000Y-79508140D01*
X171326000Y-79971860D01*
X171323236Y-79999928D01*
X171316840Y-80021009D01*
X171306452Y-80040445D01*
X171292476Y-80057476D01*
X171275445Y-80071452D01*
X171256009Y-80081840D01*
X171234928Y-80088236D01*
X171206860Y-80091000D01*
X169393140Y-80091000D01*
X169365072Y-80088236D01*
X169343991Y-80081840D01*
X169324555Y-80071452D01*
X169307524Y-80057476D01*
X169293548Y-80040445D01*
X169283160Y-80021009D01*
X169276764Y-79999928D01*
X169274000Y-79971860D01*
X169274000Y-79508140D01*
X169276764Y-79480072D01*
X169283160Y-79458991D01*
X169293548Y-79439555D01*
X169307524Y-79422524D01*
X169324555Y-79408548D01*
X169343991Y-79398160D01*
X169365072Y-79391764D01*
X169393140Y-79389000D01*
X171206860Y-79389000D01*
X171234928Y-79391764D01*
G37*
G36*
X166284928Y-79391764D02*
G01*
X166306009Y-79398160D01*
X166325445Y-79408548D01*
X166342476Y-79422524D01*
X166356452Y-79439555D01*
X166366840Y-79458991D01*
X166373236Y-79480072D01*
X166376000Y-79508140D01*
X166376000Y-79971860D01*
X166373236Y-79999928D01*
X166366840Y-80021009D01*
X166356452Y-80040445D01*
X166342476Y-80057476D01*
X166325445Y-80071452D01*
X166306009Y-80081840D01*
X166284928Y-80088236D01*
X166256860Y-80091000D01*
X164443140Y-80091000D01*
X164415072Y-80088236D01*
X164393991Y-80081840D01*
X164374555Y-80071452D01*
X164357524Y-80057476D01*
X164343548Y-80040445D01*
X164333160Y-80021009D01*
X164326764Y-79999928D01*
X164324000Y-79971860D01*
X164324000Y-79508140D01*
X164326764Y-79480072D01*
X164333160Y-79458991D01*
X164343548Y-79439555D01*
X164357524Y-79422524D01*
X164374555Y-79408548D01*
X164393991Y-79398160D01*
X164415072Y-79391764D01*
X164443140Y-79389000D01*
X166256860Y-79389000D01*
X166284928Y-79391764D01*
G37*
G36*
X150889499Y-78903445D02*
G01*
X150926995Y-78914820D01*
X150961554Y-78933292D01*
X150991847Y-78958153D01*
X151016708Y-78988446D01*
X151035180Y-79023005D01*
X151046555Y-79060501D01*
X151051000Y-79105638D01*
X151051000Y-79844362D01*
X151046555Y-79889499D01*
X151035180Y-79926995D01*
X151016708Y-79961554D01*
X150991847Y-79991847D01*
X150961554Y-80016708D01*
X150926995Y-80035180D01*
X150889499Y-80046555D01*
X150844362Y-80051000D01*
X150205638Y-80051000D01*
X150160501Y-80046555D01*
X150123005Y-80035180D01*
X150088446Y-80016708D01*
X150058153Y-79991847D01*
X150033292Y-79961554D01*
X150014820Y-79926995D01*
X150003445Y-79889499D01*
X149999000Y-79844362D01*
X149999000Y-79105638D01*
X150003445Y-79060501D01*
X150014820Y-79023005D01*
X150033292Y-78988446D01*
X150058153Y-78958153D01*
X150088446Y-78933292D01*
X150123005Y-78914820D01*
X150160501Y-78903445D01*
X150205638Y-78899000D01*
X150844362Y-78899000D01*
X150889499Y-78903445D01*
G37*
G36*
X124601000Y-80001000D02*
G01*
X122799000Y-80001000D01*
X122799000Y-78199000D01*
X124601000Y-78199000D01*
X124601000Y-80001000D01*
G37*
G36*
X175851000Y-79401000D02*
G01*
X174049000Y-79401000D01*
X174049000Y-77599000D01*
X175851000Y-77599000D01*
X175851000Y-79401000D01*
G37*
G36*
X163189499Y-77903445D02*
G01*
X163226995Y-77914820D01*
X163261554Y-77933292D01*
X163291847Y-77958153D01*
X163316708Y-77988446D01*
X163335180Y-78023005D01*
X163346555Y-78060501D01*
X163351000Y-78105638D01*
X163351000Y-78844362D01*
X163346555Y-78889499D01*
X163335180Y-78926995D01*
X163316708Y-78961554D01*
X163291847Y-78991847D01*
X163261554Y-79016708D01*
X163226995Y-79035180D01*
X163189499Y-79046555D01*
X163144362Y-79051000D01*
X162505638Y-79051000D01*
X162460501Y-79046555D01*
X162423005Y-79035180D01*
X162388446Y-79016708D01*
X162358153Y-78991847D01*
X162333292Y-78961554D01*
X162314820Y-78926995D01*
X162303445Y-78889499D01*
X162299000Y-78844362D01*
X162299000Y-78105638D01*
X162303445Y-78060501D01*
X162314820Y-78023005D01*
X162333292Y-77988446D01*
X162358153Y-77958153D01*
X162388446Y-77933292D01*
X162423005Y-77914820D01*
X162460501Y-77903445D01*
X162505638Y-77899000D01*
X163144362Y-77899000D01*
X163189499Y-77903445D01*
G37*
G36*
X161064499Y-77903445D02*
G01*
X161101995Y-77914820D01*
X161136554Y-77933292D01*
X161166847Y-77958153D01*
X161191708Y-77988446D01*
X161210180Y-78023005D01*
X161221555Y-78060501D01*
X161226000Y-78105638D01*
X161226000Y-78844362D01*
X161221555Y-78889499D01*
X161210180Y-78926995D01*
X161191708Y-78961554D01*
X161166847Y-78991847D01*
X161136554Y-79016708D01*
X161101995Y-79035180D01*
X161064499Y-79046555D01*
X161019362Y-79051000D01*
X160380638Y-79051000D01*
X160335501Y-79046555D01*
X160298005Y-79035180D01*
X160263446Y-79016708D01*
X160233153Y-78991847D01*
X160208292Y-78961554D01*
X160189820Y-78926995D01*
X160178445Y-78889499D01*
X160174000Y-78844362D01*
X160174000Y-78105638D01*
X160178445Y-78060501D01*
X160189820Y-78023005D01*
X160208292Y-77988446D01*
X160233153Y-77958153D01*
X160263446Y-77933292D01*
X160298005Y-77914820D01*
X160335501Y-77903445D01*
X160380638Y-77899000D01*
X161019362Y-77899000D01*
X161064499Y-77903445D01*
G37*
G36*
X118394581Y-77253723D02*
G01*
X118547178Y-77316930D01*
X118684512Y-77408694D01*
X118801306Y-77525488D01*
X118893070Y-77662822D01*
X118956277Y-77815419D01*
X118988500Y-77977414D01*
X118988500Y-78142586D01*
X118956277Y-78304581D01*
X118893070Y-78457178D01*
X118801306Y-78594512D01*
X118684512Y-78711306D01*
X118547178Y-78803070D01*
X118394581Y-78866277D01*
X118232586Y-78898500D01*
X118067414Y-78898500D01*
X117905419Y-78866277D01*
X117752822Y-78803070D01*
X117615488Y-78711306D01*
X117498694Y-78594512D01*
X117406930Y-78457178D01*
X117343723Y-78304581D01*
X117311500Y-78142586D01*
X117311500Y-77977414D01*
X117343723Y-77815419D01*
X117406930Y-77662822D01*
X117498694Y-77525488D01*
X117615488Y-77408694D01*
X117752822Y-77316930D01*
X117905419Y-77253723D01*
X118067414Y-77221500D01*
X118232586Y-77221500D01*
X118394581Y-77253723D01*
G37*
G36*
X158834928Y-78191764D02*
G01*
X158856009Y-78198160D01*
X158875445Y-78208548D01*
X158892476Y-78222524D01*
X158906452Y-78239555D01*
X158916840Y-78258991D01*
X158923236Y-78280072D01*
X158926000Y-78308140D01*
X158926000Y-78771860D01*
X158923236Y-78799928D01*
X158916840Y-78821009D01*
X158906452Y-78840445D01*
X158892476Y-78857476D01*
X158875445Y-78871452D01*
X158856009Y-78881840D01*
X158834928Y-78888236D01*
X158806860Y-78891000D01*
X157293140Y-78891000D01*
X157265072Y-78888236D01*
X157243991Y-78881840D01*
X157224555Y-78871452D01*
X157207524Y-78857476D01*
X157193548Y-78840445D01*
X157183160Y-78821009D01*
X157176764Y-78799928D01*
X157174000Y-78771860D01*
X157174000Y-78308140D01*
X157176764Y-78280072D01*
X157183160Y-78258991D01*
X157193548Y-78239555D01*
X157207524Y-78222524D01*
X157224555Y-78208548D01*
X157243991Y-78198160D01*
X157265072Y-78191764D01*
X157293140Y-78189000D01*
X158806860Y-78189000D01*
X158834928Y-78191764D01*
G37*
G36*
X153584928Y-78191764D02*
G01*
X153606009Y-78198160D01*
X153625445Y-78208548D01*
X153642476Y-78222524D01*
X153656452Y-78239555D01*
X153666840Y-78258991D01*
X153673236Y-78280072D01*
X153676000Y-78308140D01*
X153676000Y-78771860D01*
X153673236Y-78799928D01*
X153666840Y-78821009D01*
X153656452Y-78840445D01*
X153642476Y-78857476D01*
X153625445Y-78871452D01*
X153606009Y-78881840D01*
X153584928Y-78888236D01*
X153556860Y-78891000D01*
X152043140Y-78891000D01*
X152015072Y-78888236D01*
X151993991Y-78881840D01*
X151974555Y-78871452D01*
X151957524Y-78857476D01*
X151943548Y-78840445D01*
X151933160Y-78821009D01*
X151926764Y-78799928D01*
X151924000Y-78771860D01*
X151924000Y-78308140D01*
X151926764Y-78280072D01*
X151933160Y-78258991D01*
X151943548Y-78239555D01*
X151957524Y-78222524D01*
X151974555Y-78208548D01*
X151993991Y-78198160D01*
X152015072Y-78191764D01*
X152043140Y-78189000D01*
X153556860Y-78189000D01*
X153584928Y-78191764D01*
G37*
G36*
X171234928Y-78121764D02*
G01*
X171256009Y-78128160D01*
X171275445Y-78138548D01*
X171292476Y-78152524D01*
X171306452Y-78169555D01*
X171316840Y-78188991D01*
X171323236Y-78210072D01*
X171326000Y-78238140D01*
X171326000Y-78701860D01*
X171323236Y-78729928D01*
X171316840Y-78751009D01*
X171306452Y-78770445D01*
X171292476Y-78787476D01*
X171275445Y-78801452D01*
X171256009Y-78811840D01*
X171234928Y-78818236D01*
X171206860Y-78821000D01*
X169393140Y-78821000D01*
X169365072Y-78818236D01*
X169343991Y-78811840D01*
X169324555Y-78801452D01*
X169307524Y-78787476D01*
X169293548Y-78770445D01*
X169283160Y-78751009D01*
X169276764Y-78729928D01*
X169274000Y-78701860D01*
X169274000Y-78238140D01*
X169276764Y-78210072D01*
X169283160Y-78188991D01*
X169293548Y-78169555D01*
X169307524Y-78152524D01*
X169324555Y-78138548D01*
X169343991Y-78128160D01*
X169365072Y-78121764D01*
X169393140Y-78119000D01*
X171206860Y-78119000D01*
X171234928Y-78121764D01*
G37*
G36*
X166284928Y-78121764D02*
G01*
X166306009Y-78128160D01*
X166325445Y-78138548D01*
X166342476Y-78152524D01*
X166356452Y-78169555D01*
X166366840Y-78188991D01*
X166373236Y-78210072D01*
X166376000Y-78238140D01*
X166376000Y-78701860D01*
X166373236Y-78729928D01*
X166366840Y-78751009D01*
X166356452Y-78770445D01*
X166342476Y-78787476D01*
X166325445Y-78801452D01*
X166306009Y-78811840D01*
X166284928Y-78818236D01*
X166256860Y-78821000D01*
X164443140Y-78821000D01*
X164415072Y-78818236D01*
X164393991Y-78811840D01*
X164374555Y-78801452D01*
X164357524Y-78787476D01*
X164343548Y-78770445D01*
X164333160Y-78751009D01*
X164326764Y-78729928D01*
X164324000Y-78701860D01*
X164324000Y-78238140D01*
X164326764Y-78210072D01*
X164333160Y-78188991D01*
X164343548Y-78169555D01*
X164357524Y-78152524D01*
X164374555Y-78138548D01*
X164393991Y-78128160D01*
X164415072Y-78121764D01*
X164443140Y-78119000D01*
X166256860Y-78119000D01*
X166284928Y-78121764D01*
G37*
G36*
X140075562Y-76990681D02*
G01*
X140110481Y-77001274D01*
X140142663Y-77018476D01*
X140170873Y-77041627D01*
X140194024Y-77069837D01*
X140211226Y-77102019D01*
X140221819Y-77136938D01*
X140226000Y-77179395D01*
X140226000Y-78320605D01*
X140221819Y-78363062D01*
X140211226Y-78397981D01*
X140194024Y-78430163D01*
X140170873Y-78458373D01*
X140142663Y-78481524D01*
X140110481Y-78498726D01*
X140075562Y-78509319D01*
X140033105Y-78513500D01*
X138566895Y-78513500D01*
X138524438Y-78509319D01*
X138489519Y-78498726D01*
X138457337Y-78481524D01*
X138429127Y-78458373D01*
X138405976Y-78430163D01*
X138388774Y-78397981D01*
X138378181Y-78363062D01*
X138374000Y-78320605D01*
X138374000Y-77179395D01*
X138378181Y-77136938D01*
X138388774Y-77102019D01*
X138405976Y-77069837D01*
X138429127Y-77041627D01*
X138457337Y-77018476D01*
X138489519Y-77001274D01*
X138524438Y-76990681D01*
X138566895Y-76986500D01*
X140033105Y-76986500D01*
X140075562Y-76990681D01*
G37*
G36*
X153584928Y-76921764D02*
G01*
X153606009Y-76928160D01*
X153625445Y-76938548D01*
X153642476Y-76952524D01*
X153656452Y-76969555D01*
X153666840Y-76988991D01*
X153673236Y-77010072D01*
X153676000Y-77038140D01*
X153676000Y-77501860D01*
X153673236Y-77529928D01*
X153666840Y-77551009D01*
X153656452Y-77570445D01*
X153642476Y-77587476D01*
X153625445Y-77601452D01*
X153606009Y-77611840D01*
X153584928Y-77618236D01*
X153556860Y-77621000D01*
X152043140Y-77621000D01*
X152015072Y-77618236D01*
X151993991Y-77611840D01*
X151974555Y-77601452D01*
X151957524Y-77587476D01*
X151943548Y-77570445D01*
X151933160Y-77551009D01*
X151926764Y-77529928D01*
X151924000Y-77501860D01*
X151924000Y-77038140D01*
X151926764Y-77010072D01*
X151933160Y-76988991D01*
X151943548Y-76969555D01*
X151957524Y-76952524D01*
X151974555Y-76938548D01*
X151993991Y-76928160D01*
X152015072Y-76921764D01*
X152043140Y-76919000D01*
X153556860Y-76919000D01*
X153584928Y-76921764D01*
G37*
G36*
X158834928Y-76921764D02*
G01*
X158856009Y-76928160D01*
X158875445Y-76938548D01*
X158892476Y-76952524D01*
X158906452Y-76969555D01*
X158916840Y-76988991D01*
X158923236Y-77010072D01*
X158926000Y-77038140D01*
X158926000Y-77501860D01*
X158923236Y-77529928D01*
X158916840Y-77551009D01*
X158906452Y-77570445D01*
X158892476Y-77587476D01*
X158875445Y-77601452D01*
X158856009Y-77611840D01*
X158834928Y-77618236D01*
X158806860Y-77621000D01*
X157293140Y-77621000D01*
X157265072Y-77618236D01*
X157243991Y-77611840D01*
X157224555Y-77601452D01*
X157207524Y-77587476D01*
X157193548Y-77570445D01*
X157183160Y-77551009D01*
X157176764Y-77529928D01*
X157174000Y-77501860D01*
X157174000Y-77038140D01*
X157176764Y-77010072D01*
X157183160Y-76988991D01*
X157193548Y-76969555D01*
X157207524Y-76952524D01*
X157224555Y-76938548D01*
X157243991Y-76928160D01*
X157265072Y-76921764D01*
X157293140Y-76919000D01*
X158806860Y-76919000D01*
X158834928Y-76921764D01*
G37*
G36*
X149089499Y-76453445D02*
G01*
X149126995Y-76464820D01*
X149161554Y-76483292D01*
X149191847Y-76508153D01*
X149216708Y-76538446D01*
X149235180Y-76573005D01*
X149246555Y-76610501D01*
X149251000Y-76655638D01*
X149251000Y-77294362D01*
X149246555Y-77339499D01*
X149235180Y-77376995D01*
X149216708Y-77411554D01*
X149191847Y-77441847D01*
X149161554Y-77466708D01*
X149126995Y-77485180D01*
X149089499Y-77496555D01*
X149044362Y-77501000D01*
X148305638Y-77501000D01*
X148260501Y-77496555D01*
X148223005Y-77485180D01*
X148188446Y-77466708D01*
X148158153Y-77441847D01*
X148133292Y-77411554D01*
X148114820Y-77376995D01*
X148103445Y-77339499D01*
X148099000Y-77294362D01*
X148099000Y-76655638D01*
X148103445Y-76610501D01*
X148114820Y-76573005D01*
X148133292Y-76538446D01*
X148158153Y-76508153D01*
X148188446Y-76483292D01*
X148223005Y-76464820D01*
X148260501Y-76453445D01*
X148305638Y-76449000D01*
X149044362Y-76449000D01*
X149089499Y-76453445D01*
G37*
G36*
X150839499Y-76453445D02*
G01*
X150876995Y-76464820D01*
X150911554Y-76483292D01*
X150941847Y-76508153D01*
X150966708Y-76538446D01*
X150985180Y-76573005D01*
X150996555Y-76610501D01*
X151001000Y-76655638D01*
X151001000Y-77294362D01*
X150996555Y-77339499D01*
X150985180Y-77376995D01*
X150966708Y-77411554D01*
X150941847Y-77441847D01*
X150911554Y-77466708D01*
X150876995Y-77485180D01*
X150839499Y-77496555D01*
X150794362Y-77501000D01*
X150055638Y-77501000D01*
X150010501Y-77496555D01*
X149973005Y-77485180D01*
X149938446Y-77466708D01*
X149908153Y-77441847D01*
X149883292Y-77411554D01*
X149864820Y-77376995D01*
X149853445Y-77339499D01*
X149849000Y-77294362D01*
X149849000Y-76655638D01*
X149853445Y-76610501D01*
X149864820Y-76573005D01*
X149883292Y-76538446D01*
X149908153Y-76508153D01*
X149938446Y-76483292D01*
X149973005Y-76464820D01*
X150010501Y-76453445D01*
X150055638Y-76449000D01*
X150794362Y-76449000D01*
X150839499Y-76453445D01*
G37*
G36*
X123813512Y-75663927D02*
G01*
X123962812Y-75693624D01*
X124126784Y-75761544D01*
X124274354Y-75860147D01*
X124399853Y-75985646D01*
X124498456Y-76133216D01*
X124566376Y-76297188D01*
X124601000Y-76471259D01*
X124601000Y-76648741D01*
X124566376Y-76822812D01*
X124498456Y-76986784D01*
X124399853Y-77134354D01*
X124274354Y-77259853D01*
X124126784Y-77358456D01*
X123962812Y-77426376D01*
X123813512Y-77456073D01*
X123788742Y-77461000D01*
X123611258Y-77461000D01*
X123586488Y-77456073D01*
X123437188Y-77426376D01*
X123273216Y-77358456D01*
X123125646Y-77259853D01*
X123000147Y-77134354D01*
X122901544Y-76986784D01*
X122833624Y-76822812D01*
X122799000Y-76648741D01*
X122799000Y-76471259D01*
X122833624Y-76297188D01*
X122901544Y-76133216D01*
X123000147Y-75985646D01*
X123125646Y-75860147D01*
X123273216Y-75761544D01*
X123437188Y-75693624D01*
X123586488Y-75663927D01*
X123611258Y-75659000D01*
X123788742Y-75659000D01*
X123813512Y-75663927D01*
G37*
G36*
X161064499Y-76153445D02*
G01*
X161101995Y-76164820D01*
X161136554Y-76183292D01*
X161166847Y-76208153D01*
X161191708Y-76238446D01*
X161210180Y-76273005D01*
X161221555Y-76310501D01*
X161226000Y-76355638D01*
X161226000Y-77094362D01*
X161221555Y-77139499D01*
X161210180Y-77176995D01*
X161191708Y-77211554D01*
X161166847Y-77241847D01*
X161136554Y-77266708D01*
X161101995Y-77285180D01*
X161064499Y-77296555D01*
X161019362Y-77301000D01*
X160380638Y-77301000D01*
X160335501Y-77296555D01*
X160298005Y-77285180D01*
X160263446Y-77266708D01*
X160233153Y-77241847D01*
X160208292Y-77211554D01*
X160189820Y-77176995D01*
X160178445Y-77139499D01*
X160174000Y-77094362D01*
X160174000Y-76355638D01*
X160178445Y-76310501D01*
X160189820Y-76273005D01*
X160208292Y-76238446D01*
X160233153Y-76208153D01*
X160263446Y-76183292D01*
X160298005Y-76164820D01*
X160335501Y-76153445D01*
X160380638Y-76149000D01*
X161019362Y-76149000D01*
X161064499Y-76153445D01*
G37*
G36*
X163189499Y-76153445D02*
G01*
X163226995Y-76164820D01*
X163261554Y-76183292D01*
X163291847Y-76208153D01*
X163316708Y-76238446D01*
X163335180Y-76273005D01*
X163346555Y-76310501D01*
X163351000Y-76355638D01*
X163351000Y-77094362D01*
X163346555Y-77139499D01*
X163335180Y-77176995D01*
X163316708Y-77211554D01*
X163291847Y-77241847D01*
X163261554Y-77266708D01*
X163226995Y-77285180D01*
X163189499Y-77296555D01*
X163144362Y-77301000D01*
X162505638Y-77301000D01*
X162460501Y-77296555D01*
X162423005Y-77285180D01*
X162388446Y-77266708D01*
X162358153Y-77241847D01*
X162333292Y-77211554D01*
X162314820Y-77176995D01*
X162303445Y-77139499D01*
X162299000Y-77094362D01*
X162299000Y-76355638D01*
X162303445Y-76310501D01*
X162314820Y-76273005D01*
X162333292Y-76238446D01*
X162358153Y-76208153D01*
X162388446Y-76183292D01*
X162423005Y-76164820D01*
X162460501Y-76153445D01*
X162505638Y-76149000D01*
X163144362Y-76149000D01*
X163189499Y-76153445D01*
G37*
G36*
X170914499Y-75378445D02*
G01*
X170951995Y-75389820D01*
X170986554Y-75408292D01*
X171016847Y-75433153D01*
X171041708Y-75463446D01*
X171060180Y-75498005D01*
X171071555Y-75535501D01*
X171076000Y-75580638D01*
X171076000Y-76219362D01*
X171071555Y-76264499D01*
X171060180Y-76301995D01*
X171041708Y-76336554D01*
X171016847Y-76366847D01*
X170986554Y-76391708D01*
X170951995Y-76410180D01*
X170914499Y-76421555D01*
X170869362Y-76426000D01*
X170130638Y-76426000D01*
X170085501Y-76421555D01*
X170048005Y-76410180D01*
X170013446Y-76391708D01*
X169983153Y-76366847D01*
X169958292Y-76336554D01*
X169939820Y-76301995D01*
X169928445Y-76264499D01*
X169924000Y-76219362D01*
X169924000Y-75580638D01*
X169928445Y-75535501D01*
X169939820Y-75498005D01*
X169958292Y-75463446D01*
X169983153Y-75433153D01*
X170013446Y-75408292D01*
X170048005Y-75389820D01*
X170085501Y-75378445D01*
X170130638Y-75374000D01*
X170869362Y-75374000D01*
X170914499Y-75378445D01*
G37*
G36*
X172664499Y-75378445D02*
G01*
X172701995Y-75389820D01*
X172736554Y-75408292D01*
X172766847Y-75433153D01*
X172791708Y-75463446D01*
X172810180Y-75498005D01*
X172821555Y-75535501D01*
X172826000Y-75580638D01*
X172826000Y-76219362D01*
X172821555Y-76264499D01*
X172810180Y-76301995D01*
X172791708Y-76336554D01*
X172766847Y-76366847D01*
X172736554Y-76391708D01*
X172701995Y-76410180D01*
X172664499Y-76421555D01*
X172619362Y-76426000D01*
X171880638Y-76426000D01*
X171835501Y-76421555D01*
X171798005Y-76410180D01*
X171763446Y-76391708D01*
X171733153Y-76366847D01*
X171708292Y-76336554D01*
X171689820Y-76301995D01*
X171678445Y-76264499D01*
X171674000Y-76219362D01*
X171674000Y-75580638D01*
X171678445Y-75535501D01*
X171689820Y-75498005D01*
X171708292Y-75463446D01*
X171733153Y-75433153D01*
X171763446Y-75408292D01*
X171798005Y-75389820D01*
X171835501Y-75378445D01*
X171880638Y-75374000D01*
X172619362Y-75374000D01*
X172664499Y-75378445D01*
G37*
G36*
X137121000Y-75401000D02*
G01*
X136219000Y-75401000D01*
X136219000Y-74099000D01*
X137121000Y-74099000D01*
X137121000Y-75401000D01*
G37*
G36*
X134581000Y-75401000D02*
G01*
X133679000Y-75401000D01*
X133679000Y-74099000D01*
X134581000Y-74099000D01*
X134581000Y-75401000D01*
G37*
G36*
X155212199Y-71749954D02*
G01*
X155224450Y-71750556D01*
X155242869Y-71750556D01*
X155265149Y-71752750D01*
X155349233Y-71769476D01*
X155370660Y-71775976D01*
X155449858Y-71808780D01*
X155455303Y-71811691D01*
X155455309Y-71811693D01*
X155464169Y-71816429D01*
X155464173Y-71816432D01*
X155469614Y-71819340D01*
X155540899Y-71866971D01*
X155558204Y-71881172D01*
X155618828Y-71941796D01*
X155633029Y-71959101D01*
X155680660Y-72030386D01*
X155683568Y-72035827D01*
X155683571Y-72035831D01*
X155688307Y-72044691D01*
X155688309Y-72044697D01*
X155691220Y-72050142D01*
X155724024Y-72129340D01*
X155730524Y-72150767D01*
X155747250Y-72234851D01*
X155749444Y-72257131D01*
X155749444Y-72275550D01*
X155750046Y-72287801D01*
X155751852Y-72306139D01*
X155751852Y-72793860D01*
X155750263Y-72809999D01*
X155747348Y-72819608D01*
X155742610Y-72828472D01*
X155736237Y-72836237D01*
X155723794Y-72846448D01*
X155713425Y-72853378D01*
X155696098Y-72870705D01*
X155682485Y-72891080D01*
X155673109Y-72913720D01*
X155668329Y-72937753D01*
X155668330Y-72962257D01*
X155673112Y-72986290D01*
X155682490Y-73008929D01*
X155696105Y-73029302D01*
X155713432Y-73046629D01*
X155723802Y-73053558D01*
X155736237Y-73063763D01*
X155742610Y-73071528D01*
X155747348Y-73080392D01*
X155750263Y-73090001D01*
X155751852Y-73106140D01*
X155751852Y-73593862D01*
X155750046Y-73612199D01*
X155749444Y-73624450D01*
X155749444Y-73642869D01*
X155747250Y-73665149D01*
X155730524Y-73749233D01*
X155724024Y-73770660D01*
X155691220Y-73849858D01*
X155688309Y-73855303D01*
X155688307Y-73855309D01*
X155683571Y-73864169D01*
X155683568Y-73864173D01*
X155680660Y-73869614D01*
X155633029Y-73940899D01*
X155618828Y-73958204D01*
X155558204Y-74018828D01*
X155540899Y-74033029D01*
X155469614Y-74080660D01*
X155464173Y-74083568D01*
X155464169Y-74083571D01*
X155455309Y-74088307D01*
X155455303Y-74088309D01*
X155449858Y-74091220D01*
X155370660Y-74124024D01*
X155349233Y-74130524D01*
X155265149Y-74147250D01*
X155242869Y-74149444D01*
X155224450Y-74149444D01*
X155212199Y-74150046D01*
X155193862Y-74151852D01*
X154706138Y-74151852D01*
X154687801Y-74150046D01*
X154675550Y-74149444D01*
X154657131Y-74149444D01*
X154634851Y-74147250D01*
X154550767Y-74130524D01*
X154529340Y-74124024D01*
X154450142Y-74091220D01*
X154444697Y-74088309D01*
X154444691Y-74088307D01*
X154435831Y-74083571D01*
X154435827Y-74083568D01*
X154430386Y-74080660D01*
X154359101Y-74033029D01*
X154341796Y-74018828D01*
X154281172Y-73958204D01*
X154266971Y-73940899D01*
X154219340Y-73869614D01*
X154216432Y-73864173D01*
X154216429Y-73864169D01*
X154211693Y-73855309D01*
X154211691Y-73855303D01*
X154208780Y-73849858D01*
X154175976Y-73770660D01*
X154169476Y-73749233D01*
X154152750Y-73665149D01*
X154150556Y-73642869D01*
X154150556Y-73624450D01*
X154149954Y-73612199D01*
X154148148Y-73593862D01*
X154148148Y-73106140D01*
X154149737Y-73090001D01*
X154152652Y-73080392D01*
X154157390Y-73071528D01*
X154163763Y-73063763D01*
X154176206Y-73053552D01*
X154186575Y-73046622D01*
X154203902Y-73029295D01*
X154217515Y-73008920D01*
X154226891Y-72986280D01*
X154231671Y-72962247D01*
X154231670Y-72937743D01*
X154226888Y-72913710D01*
X154217510Y-72891071D01*
X154203895Y-72870698D01*
X154186568Y-72853371D01*
X154176198Y-72846442D01*
X154163763Y-72836237D01*
X154157390Y-72828472D01*
X154152652Y-72819608D01*
X154149737Y-72809999D01*
X154148148Y-72793860D01*
X154148148Y-72306139D01*
X154149954Y-72287801D01*
X154150556Y-72275550D01*
X154150556Y-72257131D01*
X154152750Y-72234851D01*
X154169476Y-72150767D01*
X154175976Y-72129340D01*
X154208780Y-72050142D01*
X154211691Y-72044697D01*
X154211693Y-72044691D01*
X154216429Y-72035831D01*
X154216432Y-72035827D01*
X154219340Y-72030386D01*
X154266971Y-71959101D01*
X154281172Y-71941796D01*
X154341796Y-71881172D01*
X154359101Y-71866971D01*
X154430386Y-71819340D01*
X154435827Y-71816432D01*
X154435831Y-71816429D01*
X154444691Y-71811693D01*
X154444697Y-71811691D01*
X154450142Y-71808780D01*
X154529340Y-71775976D01*
X154550767Y-71769476D01*
X154634851Y-71752750D01*
X154657131Y-71750556D01*
X154675550Y-71750556D01*
X154687801Y-71749954D01*
X154706139Y-71748148D01*
X155193861Y-71748148D01*
X155212199Y-71749954D01*
G37*
G36*
X150012199Y-71749954D02*
G01*
X150024450Y-71750556D01*
X150042869Y-71750556D01*
X150065149Y-71752750D01*
X150149233Y-71769476D01*
X150170660Y-71775976D01*
X150249858Y-71808780D01*
X150255303Y-71811691D01*
X150255309Y-71811693D01*
X150264169Y-71816429D01*
X150264173Y-71816432D01*
X150269614Y-71819340D01*
X150340899Y-71866971D01*
X150358204Y-71881172D01*
X150418828Y-71941796D01*
X150433029Y-71959101D01*
X150480660Y-72030386D01*
X150483568Y-72035827D01*
X150483571Y-72035831D01*
X150488307Y-72044691D01*
X150488309Y-72044697D01*
X150491220Y-72050142D01*
X150524024Y-72129340D01*
X150530524Y-72150767D01*
X150547250Y-72234851D01*
X150549444Y-72257131D01*
X150549444Y-72275550D01*
X150550046Y-72287801D01*
X150551852Y-72306139D01*
X150551852Y-72793860D01*
X150550263Y-72809999D01*
X150547348Y-72819608D01*
X150542610Y-72828472D01*
X150536237Y-72836237D01*
X150523794Y-72846448D01*
X150513425Y-72853378D01*
X150496098Y-72870705D01*
X150482485Y-72891080D01*
X150473109Y-72913720D01*
X150468329Y-72937753D01*
X150468330Y-72962257D01*
X150473112Y-72986290D01*
X150482490Y-73008929D01*
X150496105Y-73029302D01*
X150513432Y-73046629D01*
X150523802Y-73053558D01*
X150536237Y-73063763D01*
X150542610Y-73071528D01*
X150547348Y-73080392D01*
X150550263Y-73090001D01*
X150551852Y-73106140D01*
X150551852Y-73593862D01*
X150550046Y-73612199D01*
X150549444Y-73624450D01*
X150549444Y-73642869D01*
X150547250Y-73665149D01*
X150530524Y-73749233D01*
X150524024Y-73770660D01*
X150491220Y-73849858D01*
X150488309Y-73855303D01*
X150488307Y-73855309D01*
X150483571Y-73864169D01*
X150483568Y-73864173D01*
X150480660Y-73869614D01*
X150433029Y-73940899D01*
X150418828Y-73958204D01*
X150358204Y-74018828D01*
X150340899Y-74033029D01*
X150269614Y-74080660D01*
X150264173Y-74083568D01*
X150264169Y-74083571D01*
X150255309Y-74088307D01*
X150255303Y-74088309D01*
X150249858Y-74091220D01*
X150170660Y-74124024D01*
X150149233Y-74130524D01*
X150065149Y-74147250D01*
X150042869Y-74149444D01*
X150024450Y-74149444D01*
X150012199Y-74150046D01*
X149993862Y-74151852D01*
X149506138Y-74151852D01*
X149487801Y-74150046D01*
X149475550Y-74149444D01*
X149457131Y-74149444D01*
X149434851Y-74147250D01*
X149350767Y-74130524D01*
X149329340Y-74124024D01*
X149250142Y-74091220D01*
X149244697Y-74088309D01*
X149244691Y-74088307D01*
X149235831Y-74083571D01*
X149235827Y-74083568D01*
X149230386Y-74080660D01*
X149159101Y-74033029D01*
X149141796Y-74018828D01*
X149081172Y-73958204D01*
X149066971Y-73940899D01*
X149019340Y-73869614D01*
X149016432Y-73864173D01*
X149016429Y-73864169D01*
X149011693Y-73855309D01*
X149011691Y-73855303D01*
X149008780Y-73849858D01*
X148975976Y-73770660D01*
X148969476Y-73749233D01*
X148952750Y-73665149D01*
X148950556Y-73642869D01*
X148950556Y-73624450D01*
X148949954Y-73612199D01*
X148948148Y-73593862D01*
X148948148Y-73106140D01*
X148949737Y-73090001D01*
X148952652Y-73080392D01*
X148957390Y-73071528D01*
X148963763Y-73063763D01*
X148976206Y-73053552D01*
X148986575Y-73046622D01*
X149003902Y-73029295D01*
X149017515Y-73008920D01*
X149026891Y-72986280D01*
X149031671Y-72962247D01*
X149031670Y-72937743D01*
X149026888Y-72913710D01*
X149017510Y-72891071D01*
X149003895Y-72870698D01*
X148986568Y-72853371D01*
X148976198Y-72846442D01*
X148963763Y-72836237D01*
X148957390Y-72828472D01*
X148952652Y-72819608D01*
X148949737Y-72809999D01*
X148948148Y-72793860D01*
X148948148Y-72306139D01*
X148949954Y-72287801D01*
X148950556Y-72275550D01*
X148950556Y-72257131D01*
X148952750Y-72234851D01*
X148969476Y-72150767D01*
X148975976Y-72129340D01*
X149008780Y-72050142D01*
X149011691Y-72044697D01*
X149011693Y-72044691D01*
X149016429Y-72035831D01*
X149016432Y-72035827D01*
X149019340Y-72030386D01*
X149066971Y-71959101D01*
X149081172Y-71941796D01*
X149141796Y-71881172D01*
X149159101Y-71866971D01*
X149230386Y-71819340D01*
X149235827Y-71816432D01*
X149235831Y-71816429D01*
X149244691Y-71811693D01*
X149244697Y-71811691D01*
X149250142Y-71808780D01*
X149329340Y-71775976D01*
X149350767Y-71769476D01*
X149434851Y-71752750D01*
X149457131Y-71750556D01*
X149475550Y-71750556D01*
X149487801Y-71749954D01*
X149506139Y-71748148D01*
X149993861Y-71748148D01*
X150012199Y-71749954D01*
G37*
G36*
X143821000Y-73951000D02*
G01*
X142919000Y-73951000D01*
X142919000Y-72649000D01*
X143821000Y-72649000D01*
X143821000Y-73951000D01*
G37*
G36*
X141281000Y-73951000D02*
G01*
X140379000Y-73951000D01*
X140379000Y-72649000D01*
X141281000Y-72649000D01*
X141281000Y-73951000D01*
G37*
G36*
X117474098Y-68627033D02*
G01*
X117926223Y-68814309D01*
X117938352Y-68819333D01*
X118356168Y-69098509D01*
X118711491Y-69453832D01*
X118990667Y-69871648D01*
X118990668Y-69871650D01*
X119182967Y-70335902D01*
X119281000Y-70828747D01*
X119281000Y-71331253D01*
X119182967Y-71824098D01*
X119003599Y-72257131D01*
X118990667Y-72288352D01*
X118711491Y-72706168D01*
X118356168Y-73061491D01*
X117938352Y-73340667D01*
X117938351Y-73340668D01*
X117938350Y-73340668D01*
X117474098Y-73532967D01*
X116981253Y-73631000D01*
X116478747Y-73631000D01*
X115985902Y-73532967D01*
X115521650Y-73340668D01*
X115521649Y-73340668D01*
X115521648Y-73340667D01*
X115103832Y-73061491D01*
X114748509Y-72706168D01*
X114469333Y-72288352D01*
X114456401Y-72257131D01*
X114277033Y-71824098D01*
X114179000Y-71331253D01*
X114179000Y-70828747D01*
X114277033Y-70335902D01*
X114469332Y-69871650D01*
X114469333Y-69871648D01*
X114748509Y-69453832D01*
X115103832Y-69098509D01*
X115521648Y-68819333D01*
X115533777Y-68814309D01*
X115985902Y-68627033D01*
X116478747Y-68529000D01*
X116981253Y-68529000D01*
X117474098Y-68627033D01*
G37*
G36*
X134464499Y-71753445D02*
G01*
X134501995Y-71764820D01*
X134536554Y-71783292D01*
X134566847Y-71808153D01*
X134591708Y-71838446D01*
X134610180Y-71873005D01*
X134621555Y-71910501D01*
X134626000Y-71955638D01*
X134626000Y-72694362D01*
X134621555Y-72739499D01*
X134610180Y-72776995D01*
X134591708Y-72811554D01*
X134566847Y-72841847D01*
X134536554Y-72866708D01*
X134501995Y-72885180D01*
X134464499Y-72896555D01*
X134419362Y-72901000D01*
X133780638Y-72901000D01*
X133735501Y-72896555D01*
X133698005Y-72885180D01*
X133663446Y-72866708D01*
X133633153Y-72841847D01*
X133608292Y-72811554D01*
X133589820Y-72776995D01*
X133578445Y-72739499D01*
X133574000Y-72694362D01*
X133574000Y-71955638D01*
X133578445Y-71910501D01*
X133589820Y-71873005D01*
X133608292Y-71838446D01*
X133633153Y-71808153D01*
X133663446Y-71783292D01*
X133698005Y-71764820D01*
X133735501Y-71753445D01*
X133780638Y-71749000D01*
X134419362Y-71749000D01*
X134464499Y-71753445D01*
G37*
G36*
X137064499Y-71753445D02*
G01*
X137101995Y-71764820D01*
X137136554Y-71783292D01*
X137166847Y-71808153D01*
X137191708Y-71838446D01*
X137210180Y-71873005D01*
X137221555Y-71910501D01*
X137226000Y-71955638D01*
X137226000Y-72694362D01*
X137221555Y-72739499D01*
X137210180Y-72776995D01*
X137191708Y-72811554D01*
X137166847Y-72841847D01*
X137136554Y-72866708D01*
X137101995Y-72885180D01*
X137064499Y-72896555D01*
X137019362Y-72901000D01*
X136380638Y-72901000D01*
X136335501Y-72896555D01*
X136298005Y-72885180D01*
X136263446Y-72866708D01*
X136233153Y-72841847D01*
X136208292Y-72811554D01*
X136189820Y-72776995D01*
X136178445Y-72739499D01*
X136174000Y-72694362D01*
X136174000Y-71955638D01*
X136178445Y-71910501D01*
X136189820Y-71873005D01*
X136208292Y-71838446D01*
X136233153Y-71808153D01*
X136263446Y-71783292D01*
X136298005Y-71764820D01*
X136335501Y-71753445D01*
X136380638Y-71749000D01*
X137019362Y-71749000D01*
X137064499Y-71753445D01*
G37*
G36*
X171064499Y-71528445D02*
G01*
X171101995Y-71539820D01*
X171136554Y-71558292D01*
X171166847Y-71583153D01*
X171191708Y-71613446D01*
X171210180Y-71648005D01*
X171221555Y-71685501D01*
X171226000Y-71730638D01*
X171226000Y-72469362D01*
X171221555Y-72514499D01*
X171210180Y-72551995D01*
X171191708Y-72586554D01*
X171166847Y-72616847D01*
X171136554Y-72641708D01*
X171101995Y-72660180D01*
X171064499Y-72671555D01*
X171019362Y-72676000D01*
X170380638Y-72676000D01*
X170335501Y-72671555D01*
X170298005Y-72660180D01*
X170263446Y-72641708D01*
X170233153Y-72616847D01*
X170208292Y-72586554D01*
X170189820Y-72551995D01*
X170178445Y-72514499D01*
X170174000Y-72469362D01*
X170174000Y-71730638D01*
X170178445Y-71685501D01*
X170189820Y-71648005D01*
X170208292Y-71613446D01*
X170233153Y-71583153D01*
X170263446Y-71558292D01*
X170298005Y-71539820D01*
X170335501Y-71528445D01*
X170380638Y-71524000D01*
X171019362Y-71524000D01*
X171064499Y-71528445D01*
G37*
G36*
X165764499Y-70928445D02*
G01*
X165801995Y-70939820D01*
X165836554Y-70958292D01*
X165866847Y-70983153D01*
X165891708Y-71013446D01*
X165910180Y-71048005D01*
X165921555Y-71085501D01*
X165926000Y-71130638D01*
X165926000Y-71869362D01*
X165921555Y-71914499D01*
X165910180Y-71951995D01*
X165891708Y-71986554D01*
X165866847Y-72016847D01*
X165836554Y-72041708D01*
X165801995Y-72060180D01*
X165764499Y-72071555D01*
X165719362Y-72076000D01*
X165080638Y-72076000D01*
X165035501Y-72071555D01*
X164998005Y-72060180D01*
X164963446Y-72041708D01*
X164933153Y-72016847D01*
X164908292Y-71986554D01*
X164889820Y-71951995D01*
X164878445Y-71914499D01*
X164874000Y-71869362D01*
X164874000Y-71130638D01*
X164878445Y-71085501D01*
X164889820Y-71048005D01*
X164908292Y-71013446D01*
X164933153Y-70983153D01*
X164963446Y-70958292D01*
X164998005Y-70939820D01*
X165035501Y-70928445D01*
X165080638Y-70924000D01*
X165719362Y-70924000D01*
X165764499Y-70928445D01*
G37*
G36*
X175901000Y-71901000D02*
G01*
X174099000Y-71901000D01*
X174099000Y-70099000D01*
X175901000Y-70099000D01*
X175901000Y-71901000D01*
G37*
G36*
X134464499Y-70003445D02*
G01*
X134501995Y-70014820D01*
X134536554Y-70033292D01*
X134566847Y-70058153D01*
X134591708Y-70088446D01*
X134610180Y-70123005D01*
X134621555Y-70160501D01*
X134626000Y-70205638D01*
X134626000Y-70944362D01*
X134621555Y-70989499D01*
X134610180Y-71026995D01*
X134591708Y-71061554D01*
X134566847Y-71091847D01*
X134536554Y-71116708D01*
X134501995Y-71135180D01*
X134464499Y-71146555D01*
X134419362Y-71151000D01*
X133780638Y-71151000D01*
X133735501Y-71146555D01*
X133698005Y-71135180D01*
X133663446Y-71116708D01*
X133633153Y-71091847D01*
X133608292Y-71061554D01*
X133589820Y-71026995D01*
X133578445Y-70989499D01*
X133574000Y-70944362D01*
X133574000Y-70205638D01*
X133578445Y-70160501D01*
X133589820Y-70123005D01*
X133608292Y-70088446D01*
X133633153Y-70058153D01*
X133663446Y-70033292D01*
X133698005Y-70014820D01*
X133735501Y-70003445D01*
X133780638Y-69999000D01*
X134419362Y-69999000D01*
X134464499Y-70003445D01*
G37*
G36*
X137064499Y-70003445D02*
G01*
X137101995Y-70014820D01*
X137136554Y-70033292D01*
X137166847Y-70058153D01*
X137191708Y-70088446D01*
X137210180Y-70123005D01*
X137221555Y-70160501D01*
X137226000Y-70205638D01*
X137226000Y-70944362D01*
X137221555Y-70989499D01*
X137210180Y-71026995D01*
X137191708Y-71061554D01*
X137166847Y-71091847D01*
X137136554Y-71116708D01*
X137101995Y-71135180D01*
X137064499Y-71146555D01*
X137019362Y-71151000D01*
X136380638Y-71151000D01*
X136335501Y-71146555D01*
X136298005Y-71135180D01*
X136263446Y-71116708D01*
X136233153Y-71091847D01*
X136208292Y-71061554D01*
X136189820Y-71026995D01*
X136178445Y-70989499D01*
X136174000Y-70944362D01*
X136174000Y-70205638D01*
X136178445Y-70160501D01*
X136189820Y-70123005D01*
X136208292Y-70088446D01*
X136233153Y-70058153D01*
X136263446Y-70033292D01*
X136298005Y-70014820D01*
X136335501Y-70003445D01*
X136380638Y-69999000D01*
X137019362Y-69999000D01*
X137064499Y-70003445D01*
G37*
G36*
X130714499Y-70078445D02*
G01*
X130751995Y-70089820D01*
X130786554Y-70108292D01*
X130816847Y-70133153D01*
X130841708Y-70163446D01*
X130860180Y-70198005D01*
X130871555Y-70235501D01*
X130876000Y-70280638D01*
X130876000Y-70919362D01*
X130871555Y-70964499D01*
X130860180Y-71001995D01*
X130841708Y-71036554D01*
X130816847Y-71066847D01*
X130786554Y-71091708D01*
X130751995Y-71110180D01*
X130714499Y-71121555D01*
X130669362Y-71126000D01*
X129930638Y-71126000D01*
X129885501Y-71121555D01*
X129848005Y-71110180D01*
X129813446Y-71091708D01*
X129783153Y-71066847D01*
X129758292Y-71036554D01*
X129739820Y-71001995D01*
X129728445Y-70964499D01*
X129724000Y-70919362D01*
X129724000Y-70280638D01*
X129728445Y-70235501D01*
X129739820Y-70198005D01*
X129758292Y-70163446D01*
X129783153Y-70133153D01*
X129813446Y-70108292D01*
X129848005Y-70089820D01*
X129885501Y-70078445D01*
X129930638Y-70074000D01*
X130669362Y-70074000D01*
X130714499Y-70078445D01*
G37*
G36*
X128964499Y-70078445D02*
G01*
X129001995Y-70089820D01*
X129036554Y-70108292D01*
X129066847Y-70133153D01*
X129091708Y-70163446D01*
X129110180Y-70198005D01*
X129121555Y-70235501D01*
X129126000Y-70280638D01*
X129126000Y-70919362D01*
X129121555Y-70964499D01*
X129110180Y-71001995D01*
X129091708Y-71036554D01*
X129066847Y-71066847D01*
X129036554Y-71091708D01*
X129001995Y-71110180D01*
X128964499Y-71121555D01*
X128919362Y-71126000D01*
X128180638Y-71126000D01*
X128135501Y-71121555D01*
X128098005Y-71110180D01*
X128063446Y-71091708D01*
X128033153Y-71066847D01*
X128008292Y-71036554D01*
X127989820Y-71001995D01*
X127978445Y-70964499D01*
X127974000Y-70919362D01*
X127974000Y-70280638D01*
X127978445Y-70235501D01*
X127989820Y-70198005D01*
X128008292Y-70163446D01*
X128033153Y-70133153D01*
X128063446Y-70108292D01*
X128098005Y-70089820D01*
X128135501Y-70078445D01*
X128180638Y-70074000D01*
X128919362Y-70074000D01*
X128964499Y-70078445D01*
G37*
G36*
X171064499Y-69778445D02*
G01*
X171101995Y-69789820D01*
X171136554Y-69808292D01*
X171166847Y-69833153D01*
X171191708Y-69863446D01*
X171210180Y-69898005D01*
X171221555Y-69935501D01*
X171226000Y-69980638D01*
X171226000Y-70719362D01*
X171221555Y-70764499D01*
X171210180Y-70801995D01*
X171191708Y-70836554D01*
X171166847Y-70866847D01*
X171136554Y-70891708D01*
X171101995Y-70910180D01*
X171064499Y-70921555D01*
X171019362Y-70926000D01*
X170380638Y-70926000D01*
X170335501Y-70921555D01*
X170298005Y-70910180D01*
X170263446Y-70891708D01*
X170233153Y-70866847D01*
X170208292Y-70836554D01*
X170189820Y-70801995D01*
X170178445Y-70764499D01*
X170174000Y-70719362D01*
X170174000Y-69980638D01*
X170178445Y-69935501D01*
X170189820Y-69898005D01*
X170208292Y-69863446D01*
X170233153Y-69833153D01*
X170263446Y-69808292D01*
X170298005Y-69789820D01*
X170335501Y-69778445D01*
X170380638Y-69774000D01*
X171019362Y-69774000D01*
X171064499Y-69778445D01*
G37*
G36*
X148751000Y-70801000D02*
G01*
X147849000Y-70801000D01*
X147849000Y-69799000D01*
X148751000Y-69799000D01*
X148751000Y-70801000D01*
G37*
G36*
X150651000Y-70801000D02*
G01*
X149749000Y-70801000D01*
X149749000Y-69799000D01*
X150651000Y-69799000D01*
X150651000Y-70801000D01*
G37*
G36*
X146814499Y-69628445D02*
G01*
X146851995Y-69639820D01*
X146886554Y-69658292D01*
X146916847Y-69683153D01*
X146941708Y-69713446D01*
X146960180Y-69748005D01*
X146971555Y-69785501D01*
X146976000Y-69830638D01*
X146976000Y-70569362D01*
X146971555Y-70614499D01*
X146960180Y-70651995D01*
X146941708Y-70686554D01*
X146916847Y-70716847D01*
X146886554Y-70741708D01*
X146851995Y-70760180D01*
X146814499Y-70771555D01*
X146769362Y-70776000D01*
X146130638Y-70776000D01*
X146085501Y-70771555D01*
X146048005Y-70760180D01*
X146013446Y-70741708D01*
X145983153Y-70716847D01*
X145958292Y-70686554D01*
X145939820Y-70651995D01*
X145928445Y-70614499D01*
X145924000Y-70569362D01*
X145924000Y-69830638D01*
X145928445Y-69785501D01*
X145939820Y-69748005D01*
X145958292Y-69713446D01*
X145983153Y-69683153D01*
X146013446Y-69658292D01*
X146048005Y-69639820D01*
X146085501Y-69628445D01*
X146130638Y-69624000D01*
X146769362Y-69624000D01*
X146814499Y-69628445D01*
G37*
G36*
X155451000Y-70601000D02*
G01*
X154449000Y-70601000D01*
X154449000Y-69699000D01*
X155451000Y-69699000D01*
X155451000Y-70601000D01*
G37*
G36*
X165764499Y-69178445D02*
G01*
X165801995Y-69189820D01*
X165836554Y-69208292D01*
X165866847Y-69233153D01*
X165891708Y-69263446D01*
X165910180Y-69298005D01*
X165921555Y-69335501D01*
X165926000Y-69380638D01*
X165926000Y-70119362D01*
X165921555Y-70164499D01*
X165910180Y-70201995D01*
X165891708Y-70236554D01*
X165866847Y-70266847D01*
X165836554Y-70291708D01*
X165801995Y-70310180D01*
X165764499Y-70321555D01*
X165719362Y-70326000D01*
X165080638Y-70326000D01*
X165035501Y-70321555D01*
X164998005Y-70310180D01*
X164963446Y-70291708D01*
X164933153Y-70266847D01*
X164908292Y-70236554D01*
X164889820Y-70201995D01*
X164878445Y-70164499D01*
X164874000Y-70119362D01*
X164874000Y-69380638D01*
X164878445Y-69335501D01*
X164889820Y-69298005D01*
X164908292Y-69263446D01*
X164933153Y-69233153D01*
X164963446Y-69208292D01*
X164998005Y-69189820D01*
X165035501Y-69178445D01*
X165080638Y-69174000D01*
X165719362Y-69174000D01*
X165764499Y-69178445D01*
G37*
G36*
X157451000Y-69651000D02*
G01*
X156449000Y-69651000D01*
X156449000Y-68749000D01*
X157451000Y-68749000D01*
X157451000Y-69651000D01*
G37*
G36*
X175109655Y-67563160D02*
G01*
X175262812Y-67593624D01*
X175426784Y-67661544D01*
X175574354Y-67760147D01*
X175699853Y-67885646D01*
X175798456Y-68033216D01*
X175866376Y-68197188D01*
X175901000Y-68371259D01*
X175901000Y-68548741D01*
X175866376Y-68722812D01*
X175798456Y-68886784D01*
X175699853Y-69034354D01*
X175574354Y-69159853D01*
X175426784Y-69258456D01*
X175262812Y-69326376D01*
X175113512Y-69356073D01*
X175088742Y-69361000D01*
X174911258Y-69361000D01*
X174886488Y-69356073D01*
X174737188Y-69326376D01*
X174573216Y-69258456D01*
X174425646Y-69159853D01*
X174300147Y-69034354D01*
X174201544Y-68886784D01*
X174133624Y-68722812D01*
X174099000Y-68548741D01*
X174099000Y-68371259D01*
X174133624Y-68197188D01*
X174201544Y-68033216D01*
X174300147Y-67885646D01*
X174425646Y-67760147D01*
X174573216Y-67661544D01*
X174737188Y-67593624D01*
X174890345Y-67563160D01*
X174911258Y-67559000D01*
X175088742Y-67559000D01*
X175109655Y-67563160D01*
G37*
G36*
X129726000Y-69281000D02*
G01*
X128974000Y-69281000D01*
X128974000Y-68119000D01*
X129726000Y-68119000D01*
X129726000Y-69281000D01*
G37*
G36*
X127826000Y-69281000D02*
G01*
X127074000Y-69281000D01*
X127074000Y-68119000D01*
X127826000Y-68119000D01*
X127826000Y-69281000D01*
G37*
G36*
X146814499Y-67878445D02*
G01*
X146851995Y-67889820D01*
X146886554Y-67908292D01*
X146916847Y-67933153D01*
X146941708Y-67963446D01*
X146960180Y-67998005D01*
X146971555Y-68035501D01*
X146976000Y-68080638D01*
X146976000Y-68819362D01*
X146971555Y-68864499D01*
X146960180Y-68901995D01*
X146941708Y-68936554D01*
X146916847Y-68966847D01*
X146886554Y-68991708D01*
X146851995Y-69010180D01*
X146814499Y-69021555D01*
X146769362Y-69026000D01*
X146130638Y-69026000D01*
X146085501Y-69021555D01*
X146048005Y-69010180D01*
X146013446Y-68991708D01*
X145983153Y-68966847D01*
X145958292Y-68936554D01*
X145939820Y-68901995D01*
X145928445Y-68864499D01*
X145924000Y-68819362D01*
X145924000Y-68080638D01*
X145928445Y-68035501D01*
X145939820Y-67998005D01*
X145958292Y-67963446D01*
X145983153Y-67933153D01*
X146013446Y-67908292D01*
X146048005Y-67889820D01*
X146085501Y-67878445D01*
X146130638Y-67874000D01*
X146769362Y-67874000D01*
X146814499Y-67878445D01*
G37*
G36*
X149701000Y-68801000D02*
G01*
X148799000Y-68801000D01*
X148799000Y-67799000D01*
X149701000Y-67799000D01*
X149701000Y-68801000D01*
G37*
G36*
X155451000Y-68701000D02*
G01*
X154449000Y-68701000D01*
X154449000Y-67799000D01*
X155451000Y-67799000D01*
X155451000Y-68701000D01*
G37*
G36*
X166459928Y-67556764D02*
G01*
X166481009Y-67563160D01*
X166500445Y-67573548D01*
X166517476Y-67587524D01*
X166531452Y-67604555D01*
X166541840Y-67623991D01*
X166548236Y-67645072D01*
X166551000Y-67673140D01*
X166551000Y-68136860D01*
X166548236Y-68164928D01*
X166541840Y-68186009D01*
X166531452Y-68205445D01*
X166517476Y-68222476D01*
X166500445Y-68236452D01*
X166481009Y-68246840D01*
X166459928Y-68253236D01*
X166431860Y-68256000D01*
X164618140Y-68256000D01*
X164590072Y-68253236D01*
X164568991Y-68246840D01*
X164549555Y-68236452D01*
X164532524Y-68222476D01*
X164518548Y-68205445D01*
X164508160Y-68186009D01*
X164501764Y-68164928D01*
X164499000Y-68136860D01*
X164499000Y-67673140D01*
X164501764Y-67645072D01*
X164508160Y-67623991D01*
X164518548Y-67604555D01*
X164532524Y-67587524D01*
X164549555Y-67573548D01*
X164568991Y-67563160D01*
X164590072Y-67556764D01*
X164618140Y-67554000D01*
X166431860Y-67554000D01*
X166459928Y-67556764D01*
G37*
G36*
X171409928Y-67556764D02*
G01*
X171431009Y-67563160D01*
X171450445Y-67573548D01*
X171467476Y-67587524D01*
X171481452Y-67604555D01*
X171491840Y-67623991D01*
X171498236Y-67645072D01*
X171501000Y-67673140D01*
X171501000Y-68136860D01*
X171498236Y-68164928D01*
X171491840Y-68186009D01*
X171481452Y-68205445D01*
X171467476Y-68222476D01*
X171450445Y-68236452D01*
X171431009Y-68246840D01*
X171409928Y-68253236D01*
X171381860Y-68256000D01*
X169568140Y-68256000D01*
X169540072Y-68253236D01*
X169518991Y-68246840D01*
X169499555Y-68236452D01*
X169482524Y-68222476D01*
X169468548Y-68205445D01*
X169458160Y-68186009D01*
X169451764Y-68164928D01*
X169449000Y-68136860D01*
X169449000Y-67673140D01*
X169451764Y-67645072D01*
X169458160Y-67623991D01*
X169468548Y-67604555D01*
X169482524Y-67587524D01*
X169499555Y-67573548D01*
X169518991Y-67563160D01*
X169540072Y-67556764D01*
X169568140Y-67554000D01*
X171381860Y-67554000D01*
X171409928Y-67556764D01*
G37*
G36*
X141281000Y-67951000D02*
G01*
X140379000Y-67951000D01*
X140379000Y-66649000D01*
X141281000Y-66649000D01*
X141281000Y-67951000D01*
G37*
G36*
X143821000Y-67951000D02*
G01*
X142919000Y-67951000D01*
X142919000Y-66649000D01*
X143821000Y-66649000D01*
X143821000Y-67951000D01*
G37*
G36*
X129726000Y-67081000D02*
G01*
X127074000Y-67081000D01*
X127074000Y-65919000D01*
X129726000Y-65919000D01*
X129726000Y-67081000D01*
G37*
G36*
X166459928Y-66286764D02*
G01*
X166481009Y-66293160D01*
X166500445Y-66303548D01*
X166517476Y-66317524D01*
X166531452Y-66334555D01*
X166541840Y-66353991D01*
X166548236Y-66375072D01*
X166551000Y-66403140D01*
X166551000Y-66866860D01*
X166548236Y-66894928D01*
X166541840Y-66916009D01*
X166531452Y-66935445D01*
X166517476Y-66952476D01*
X166500445Y-66966452D01*
X166481009Y-66976840D01*
X166459928Y-66983236D01*
X166431860Y-66986000D01*
X164618140Y-66986000D01*
X164590072Y-66983236D01*
X164568991Y-66976840D01*
X164549555Y-66966452D01*
X164532524Y-66952476D01*
X164518548Y-66935445D01*
X164508160Y-66916009D01*
X164501764Y-66894928D01*
X164499000Y-66866860D01*
X164499000Y-66403140D01*
X164501764Y-66375072D01*
X164508160Y-66353991D01*
X164518548Y-66334555D01*
X164532524Y-66317524D01*
X164549555Y-66303548D01*
X164568991Y-66293160D01*
X164590072Y-66286764D01*
X164618140Y-66284000D01*
X166431860Y-66284000D01*
X166459928Y-66286764D01*
G37*
G36*
X171409928Y-66286764D02*
G01*
X171431009Y-66293160D01*
X171450445Y-66303548D01*
X171467476Y-66317524D01*
X171481452Y-66334555D01*
X171491840Y-66353991D01*
X171498236Y-66375072D01*
X171501000Y-66403140D01*
X171501000Y-66866860D01*
X171498236Y-66894928D01*
X171491840Y-66916009D01*
X171481452Y-66935445D01*
X171467476Y-66952476D01*
X171450445Y-66966452D01*
X171431009Y-66976840D01*
X171409928Y-66983236D01*
X171381860Y-66986000D01*
X169568140Y-66986000D01*
X169540072Y-66983236D01*
X169518991Y-66976840D01*
X169499555Y-66966452D01*
X169482524Y-66952476D01*
X169468548Y-66935445D01*
X169458160Y-66916009D01*
X169451764Y-66894928D01*
X169449000Y-66866860D01*
X169449000Y-66403140D01*
X169451764Y-66375072D01*
X169458160Y-66353991D01*
X169468548Y-66334555D01*
X169482524Y-66317524D01*
X169499555Y-66303548D01*
X169518991Y-66293160D01*
X169540072Y-66286764D01*
X169568140Y-66284000D01*
X171381860Y-66284000D01*
X171409928Y-66286764D01*
G37*
G36*
X155414499Y-65878445D02*
G01*
X155451995Y-65889820D01*
X155486554Y-65908292D01*
X155516847Y-65933153D01*
X155541708Y-65963446D01*
X155560180Y-65998005D01*
X155571555Y-66035501D01*
X155576000Y-66080638D01*
X155576000Y-66719362D01*
X155571555Y-66764499D01*
X155560180Y-66801995D01*
X155541708Y-66836554D01*
X155516847Y-66866847D01*
X155486554Y-66891708D01*
X155451995Y-66910180D01*
X155414499Y-66921555D01*
X155369362Y-66926000D01*
X154630638Y-66926000D01*
X154585501Y-66921555D01*
X154548005Y-66910180D01*
X154513446Y-66891708D01*
X154483153Y-66866847D01*
X154458292Y-66836554D01*
X154439820Y-66801995D01*
X154428445Y-66764499D01*
X154424000Y-66719362D01*
X154424000Y-66080638D01*
X154428445Y-66035501D01*
X154439820Y-65998005D01*
X154458292Y-65963446D01*
X154483153Y-65933153D01*
X154513446Y-65908292D01*
X154548005Y-65889820D01*
X154585501Y-65878445D01*
X154630638Y-65874000D01*
X155369362Y-65874000D01*
X155414499Y-65878445D01*
G37*
G36*
X157164499Y-65878445D02*
G01*
X157201995Y-65889820D01*
X157236554Y-65908292D01*
X157266847Y-65933153D01*
X157291708Y-65963446D01*
X157310180Y-65998005D01*
X157321555Y-66035501D01*
X157326000Y-66080638D01*
X157326000Y-66719362D01*
X157321555Y-66764499D01*
X157310180Y-66801995D01*
X157291708Y-66836554D01*
X157266847Y-66866847D01*
X157236554Y-66891708D01*
X157201995Y-66910180D01*
X157164499Y-66921555D01*
X157119362Y-66926000D01*
X156380638Y-66926000D01*
X156335501Y-66921555D01*
X156298005Y-66910180D01*
X156263446Y-66891708D01*
X156233153Y-66866847D01*
X156208292Y-66836554D01*
X156189820Y-66801995D01*
X156178445Y-66764499D01*
X156174000Y-66719362D01*
X156174000Y-66080638D01*
X156178445Y-66035501D01*
X156189820Y-65998005D01*
X156208292Y-65963446D01*
X156233153Y-65933153D01*
X156263446Y-65908292D01*
X156298005Y-65889820D01*
X156335501Y-65878445D01*
X156380638Y-65874000D01*
X157119362Y-65874000D01*
X157164499Y-65878445D01*
G37*
G36*
X175109655Y-65023160D02*
G01*
X175262812Y-65053624D01*
X175426784Y-65121544D01*
X175574354Y-65220147D01*
X175699853Y-65345646D01*
X175798456Y-65493216D01*
X175866376Y-65657188D01*
X175901000Y-65831259D01*
X175901000Y-66008741D01*
X175866376Y-66182812D01*
X175798456Y-66346784D01*
X175699853Y-66494354D01*
X175574354Y-66619853D01*
X175426784Y-66718456D01*
X175262812Y-66786376D01*
X175113512Y-66816073D01*
X175088742Y-66821000D01*
X174911258Y-66821000D01*
X174886488Y-66816073D01*
X174737188Y-66786376D01*
X174573216Y-66718456D01*
X174425646Y-66619853D01*
X174300147Y-66494354D01*
X174201544Y-66346784D01*
X174133624Y-66182812D01*
X174099000Y-66008741D01*
X174099000Y-65831259D01*
X174133624Y-65657188D01*
X174201544Y-65493216D01*
X174300147Y-65345646D01*
X174425646Y-65220147D01*
X174573216Y-65121544D01*
X174737188Y-65053624D01*
X174890345Y-65023160D01*
X174911258Y-65019000D01*
X175088742Y-65019000D01*
X175109655Y-65023160D01*
G37*
G36*
X145689499Y-64778445D02*
G01*
X145726995Y-64789820D01*
X145761554Y-64808292D01*
X145791847Y-64833153D01*
X145816708Y-64863446D01*
X145835180Y-64898005D01*
X145846555Y-64935501D01*
X145851000Y-64980638D01*
X145851000Y-65619362D01*
X145846555Y-65664499D01*
X145835180Y-65701995D01*
X145816708Y-65736554D01*
X145791847Y-65766847D01*
X145761554Y-65791708D01*
X145726995Y-65810180D01*
X145689499Y-65821555D01*
X145644362Y-65826000D01*
X144905638Y-65826000D01*
X144860501Y-65821555D01*
X144823005Y-65810180D01*
X144788446Y-65791708D01*
X144758153Y-65766847D01*
X144733292Y-65736554D01*
X144714820Y-65701995D01*
X144703445Y-65664499D01*
X144699000Y-65619362D01*
X144699000Y-64980638D01*
X144703445Y-64935501D01*
X144714820Y-64898005D01*
X144733292Y-64863446D01*
X144758153Y-64833153D01*
X144788446Y-64808292D01*
X144823005Y-64789820D01*
X144860501Y-64778445D01*
X144905638Y-64774000D01*
X145644362Y-64774000D01*
X145689499Y-64778445D01*
G37*
G36*
X143939499Y-64778445D02*
G01*
X143976995Y-64789820D01*
X144011554Y-64808292D01*
X144041847Y-64833153D01*
X144066708Y-64863446D01*
X144085180Y-64898005D01*
X144096555Y-64935501D01*
X144101000Y-64980638D01*
X144101000Y-65619362D01*
X144096555Y-65664499D01*
X144085180Y-65701995D01*
X144066708Y-65736554D01*
X144041847Y-65766847D01*
X144011554Y-65791708D01*
X143976995Y-65810180D01*
X143939499Y-65821555D01*
X143894362Y-65826000D01*
X143155638Y-65826000D01*
X143110501Y-65821555D01*
X143073005Y-65810180D01*
X143038446Y-65791708D01*
X143008153Y-65766847D01*
X142983292Y-65736554D01*
X142964820Y-65701995D01*
X142953445Y-65664499D01*
X142949000Y-65619362D01*
X142949000Y-64980638D01*
X142953445Y-64935501D01*
X142964820Y-64898005D01*
X142983292Y-64863446D01*
X143008153Y-64833153D01*
X143038446Y-64808292D01*
X143073005Y-64789820D01*
X143110501Y-64778445D01*
X143155638Y-64774000D01*
X143894362Y-64774000D01*
X143939499Y-64778445D01*
G37*
G36*
X171409928Y-65016764D02*
G01*
X171431009Y-65023160D01*
X171450445Y-65033548D01*
X171467476Y-65047524D01*
X171481452Y-65064555D01*
X171491840Y-65083991D01*
X171498236Y-65105072D01*
X171501000Y-65133140D01*
X171501000Y-65596860D01*
X171498236Y-65624928D01*
X171491840Y-65646009D01*
X171481452Y-65665445D01*
X171467476Y-65682476D01*
X171450445Y-65696452D01*
X171431009Y-65706840D01*
X171409928Y-65713236D01*
X171381860Y-65716000D01*
X169568140Y-65716000D01*
X169540072Y-65713236D01*
X169518991Y-65706840D01*
X169499555Y-65696452D01*
X169482524Y-65682476D01*
X169468548Y-65665445D01*
X169458160Y-65646009D01*
X169451764Y-65624928D01*
X169449000Y-65596860D01*
X169449000Y-65133140D01*
X169451764Y-65105072D01*
X169458160Y-65083991D01*
X169468548Y-65064555D01*
X169482524Y-65047524D01*
X169499555Y-65033548D01*
X169518991Y-65023160D01*
X169540072Y-65016764D01*
X169568140Y-65014000D01*
X171381860Y-65014000D01*
X171409928Y-65016764D01*
G37*
G36*
X166459928Y-65016764D02*
G01*
X166481009Y-65023160D01*
X166500445Y-65033548D01*
X166517476Y-65047524D01*
X166531452Y-65064555D01*
X166541840Y-65083991D01*
X166548236Y-65105072D01*
X166551000Y-65133140D01*
X166551000Y-65596860D01*
X166548236Y-65624928D01*
X166541840Y-65646009D01*
X166531452Y-65665445D01*
X166517476Y-65682476D01*
X166500445Y-65696452D01*
X166481009Y-65706840D01*
X166459928Y-65713236D01*
X166431860Y-65716000D01*
X164618140Y-65716000D01*
X164590072Y-65713236D01*
X164568991Y-65706840D01*
X164549555Y-65696452D01*
X164532524Y-65682476D01*
X164518548Y-65665445D01*
X164508160Y-65646009D01*
X164501764Y-65624928D01*
X164499000Y-65596860D01*
X164499000Y-65133140D01*
X164501764Y-65105072D01*
X164508160Y-65083991D01*
X164518548Y-65064555D01*
X164532524Y-65047524D01*
X164549555Y-65033548D01*
X164568991Y-65023160D01*
X164590072Y-65016764D01*
X164618140Y-65014000D01*
X166431860Y-65014000D01*
X166459928Y-65016764D01*
G37*
G36*
X130614499Y-64278445D02*
G01*
X130651995Y-64289820D01*
X130686554Y-64308292D01*
X130716847Y-64333153D01*
X130741708Y-64363446D01*
X130760180Y-64398005D01*
X130771555Y-64435501D01*
X130776000Y-64480638D01*
X130776000Y-65119362D01*
X130771555Y-65164499D01*
X130760180Y-65201995D01*
X130741708Y-65236554D01*
X130716847Y-65266847D01*
X130686554Y-65291708D01*
X130651995Y-65310180D01*
X130614499Y-65321555D01*
X130569362Y-65326000D01*
X129830638Y-65326000D01*
X129785501Y-65321555D01*
X129748005Y-65310180D01*
X129713446Y-65291708D01*
X129683153Y-65266847D01*
X129658292Y-65236554D01*
X129639820Y-65201995D01*
X129628445Y-65164499D01*
X129624000Y-65119362D01*
X129624000Y-64480638D01*
X129628445Y-64435501D01*
X129639820Y-64398005D01*
X129658292Y-64363446D01*
X129683153Y-64333153D01*
X129713446Y-64308292D01*
X129748005Y-64289820D01*
X129785501Y-64278445D01*
X129830638Y-64274000D01*
X130569362Y-64274000D01*
X130614499Y-64278445D01*
G37*
G36*
X128864499Y-64278445D02*
G01*
X128901995Y-64289820D01*
X128936554Y-64308292D01*
X128966847Y-64333153D01*
X128991708Y-64363446D01*
X129010180Y-64398005D01*
X129021555Y-64435501D01*
X129026000Y-64480638D01*
X129026000Y-65119362D01*
X129021555Y-65164499D01*
X129010180Y-65201995D01*
X128991708Y-65236554D01*
X128966847Y-65266847D01*
X128936554Y-65291708D01*
X128901995Y-65310180D01*
X128864499Y-65321555D01*
X128819362Y-65326000D01*
X128080638Y-65326000D01*
X128035501Y-65321555D01*
X127998005Y-65310180D01*
X127963446Y-65291708D01*
X127933153Y-65266847D01*
X127908292Y-65236554D01*
X127889820Y-65201995D01*
X127878445Y-65164499D01*
X127874000Y-65119362D01*
X127874000Y-64480638D01*
X127878445Y-64435501D01*
X127889820Y-64398005D01*
X127908292Y-64363446D01*
X127933153Y-64333153D01*
X127963446Y-64308292D01*
X127998005Y-64289820D01*
X128035501Y-64278445D01*
X128080638Y-64274000D01*
X128819362Y-64274000D01*
X128864499Y-64278445D01*
G37*
G36*
X171409928Y-63746764D02*
G01*
X171431009Y-63753160D01*
X171450445Y-63763548D01*
X171467476Y-63777524D01*
X171481452Y-63794555D01*
X171491840Y-63813991D01*
X171498236Y-63835072D01*
X171501000Y-63863140D01*
X171501000Y-64326860D01*
X171498236Y-64354928D01*
X171491840Y-64376009D01*
X171481452Y-64395445D01*
X171467476Y-64412476D01*
X171450445Y-64426452D01*
X171431009Y-64436840D01*
X171409928Y-64443236D01*
X171381860Y-64446000D01*
X169568140Y-64446000D01*
X169540072Y-64443236D01*
X169518991Y-64436840D01*
X169499555Y-64426452D01*
X169482524Y-64412476D01*
X169468548Y-64395445D01*
X169458160Y-64376009D01*
X169451764Y-64354928D01*
X169449000Y-64326860D01*
X169449000Y-63863140D01*
X169451764Y-63835072D01*
X169458160Y-63813991D01*
X169468548Y-63794555D01*
X169482524Y-63777524D01*
X169499555Y-63763548D01*
X169518991Y-63753160D01*
X169540072Y-63746764D01*
X169568140Y-63744000D01*
X171381860Y-63744000D01*
X171409928Y-63746764D01*
G37*
G36*
X166459928Y-63746764D02*
G01*
X166481009Y-63753160D01*
X166500445Y-63763548D01*
X166517476Y-63777524D01*
X166531452Y-63794555D01*
X166541840Y-63813991D01*
X166548236Y-63835072D01*
X166551000Y-63863140D01*
X166551000Y-64326860D01*
X166548236Y-64354928D01*
X166541840Y-64376009D01*
X166531452Y-64395445D01*
X166517476Y-64412476D01*
X166500445Y-64426452D01*
X166481009Y-64436840D01*
X166459928Y-64443236D01*
X166431860Y-64446000D01*
X164618140Y-64446000D01*
X164590072Y-64443236D01*
X164568991Y-64436840D01*
X164549555Y-64426452D01*
X164532524Y-64412476D01*
X164518548Y-64395445D01*
X164508160Y-64376009D01*
X164501764Y-64354928D01*
X164499000Y-64326860D01*
X164499000Y-63863140D01*
X164501764Y-63835072D01*
X164508160Y-63813991D01*
X164518548Y-63794555D01*
X164532524Y-63777524D01*
X164549555Y-63763548D01*
X164568991Y-63753160D01*
X164590072Y-63746764D01*
X164618140Y-63744000D01*
X166431860Y-63744000D01*
X166459928Y-63746764D01*
G37*
G36*
X175113512Y-62483927D02*
G01*
X175262812Y-62513624D01*
X175426784Y-62581544D01*
X175574354Y-62680147D01*
X175699853Y-62805646D01*
X175798456Y-62953216D01*
X175866376Y-63117188D01*
X175901000Y-63291259D01*
X175901000Y-63468741D01*
X175866376Y-63642812D01*
X175798456Y-63806784D01*
X175699853Y-63954354D01*
X175574354Y-64079853D01*
X175426784Y-64178456D01*
X175262812Y-64246376D01*
X175123933Y-64274000D01*
X175088742Y-64281000D01*
X174911258Y-64281000D01*
X174876067Y-64274000D01*
X174737188Y-64246376D01*
X174573216Y-64178456D01*
X174425646Y-64079853D01*
X174300147Y-63954354D01*
X174201544Y-63806784D01*
X174133624Y-63642812D01*
X174099000Y-63468741D01*
X174099000Y-63291259D01*
X174133624Y-63117188D01*
X174201544Y-62953216D01*
X174300147Y-62805646D01*
X174425646Y-62680147D01*
X174573216Y-62581544D01*
X174737188Y-62513624D01*
X174886488Y-62483927D01*
X174911258Y-62479000D01*
X175088742Y-62479000D01*
X175113512Y-62483927D01*
G37*
G36*
X128377618Y-60183420D02*
G01*
X128458400Y-60207925D01*
X128500336Y-60220646D01*
X128613425Y-60281094D01*
X128712554Y-60362446D01*
X128793906Y-60461575D01*
X128854354Y-60574664D01*
X128854355Y-60574668D01*
X128891580Y-60697382D01*
X128901000Y-60793027D01*
X128901000Y-61406973D01*
X128891580Y-61502618D01*
X128869819Y-61574353D01*
X128854354Y-61625336D01*
X128793906Y-61738425D01*
X128712554Y-61837553D01*
X128613424Y-61918906D01*
X128500335Y-61979354D01*
X128468403Y-61989040D01*
X128377617Y-62016580D01*
X128250000Y-62029149D01*
X128122382Y-62016580D01*
X128031596Y-61989040D01*
X127999664Y-61979354D01*
X127886575Y-61918906D01*
X127787447Y-61837554D01*
X127706094Y-61738424D01*
X127645646Y-61625335D01*
X127630181Y-61574353D01*
X127608420Y-61502617D01*
X127599000Y-61406972D01*
X127599000Y-60793027D01*
X127608420Y-60697382D01*
X127645645Y-60574668D01*
X127645645Y-60574667D01*
X127677957Y-60514217D01*
X127706095Y-60461574D01*
X127735580Y-60425647D01*
X127787447Y-60362446D01*
X127886576Y-60281094D01*
X127999665Y-60220646D01*
X128041601Y-60207925D01*
X128122383Y-60183420D01*
X128250000Y-60170851D01*
X128377618Y-60183420D01*
G37*
G36*
X130741242Y-60178404D02*
G01*
X130778337Y-60189657D01*
X130812515Y-60207925D01*
X130842481Y-60232519D01*
X130867075Y-60262485D01*
X130885343Y-60296663D01*
X130896596Y-60333758D01*
X130901000Y-60378474D01*
X130901000Y-61821526D01*
X130896596Y-61866242D01*
X130885343Y-61903337D01*
X130867075Y-61937515D01*
X130842481Y-61967481D01*
X130812515Y-61992075D01*
X130778337Y-62010343D01*
X130741242Y-62021596D01*
X130696526Y-62026000D01*
X129803474Y-62026000D01*
X129758758Y-62021596D01*
X129721663Y-62010343D01*
X129687485Y-61992075D01*
X129657519Y-61967481D01*
X129632925Y-61937515D01*
X129614657Y-61903337D01*
X129603404Y-61866242D01*
X129599000Y-61821526D01*
X129599000Y-60378474D01*
X129603404Y-60333758D01*
X129614657Y-60296663D01*
X129632925Y-60262485D01*
X129657519Y-60232519D01*
X129687485Y-60207925D01*
X129721663Y-60189657D01*
X129758758Y-60178404D01*
X129803474Y-60174000D01*
X130696526Y-60174000D01*
X130741242Y-60178404D01*
G37*
G36*
X138953512Y-60103927D02*
G01*
X139102812Y-60133624D01*
X139266784Y-60201544D01*
X139414354Y-60300147D01*
X139539853Y-60425646D01*
X139638456Y-60573216D01*
X139706376Y-60737188D01*
X139741000Y-60911259D01*
X139741000Y-61088741D01*
X139706376Y-61262812D01*
X139638456Y-61426784D01*
X139539853Y-61574354D01*
X139414354Y-61699853D01*
X139266784Y-61798456D01*
X139102812Y-61866376D01*
X138953512Y-61896073D01*
X138928742Y-61901000D01*
X138751258Y-61901000D01*
X138726488Y-61896073D01*
X138577188Y-61866376D01*
X138413216Y-61798456D01*
X138265646Y-61699853D01*
X138140147Y-61574354D01*
X138041544Y-61426784D01*
X137973624Y-61262812D01*
X137939000Y-61088741D01*
X137939000Y-60911259D01*
X137973624Y-60737188D01*
X138041544Y-60573216D01*
X138140147Y-60425646D01*
X138265646Y-60300147D01*
X138413216Y-60201544D01*
X138577188Y-60133624D01*
X138726488Y-60103927D01*
X138751258Y-60099000D01*
X138928742Y-60099000D01*
X138953512Y-60103927D01*
G37*
G36*
X137201000Y-61901000D02*
G01*
X135399000Y-61901000D01*
X135399000Y-60099000D01*
X137201000Y-60099000D01*
X137201000Y-61901000D01*
G37*
M02*
