G04 #@! TF.GenerationSoftware,KiCad,Pcbnew,(5.1.5-0)*
G04 #@! TF.CreationDate,2022-05-12T16:28:49-06:00*
G04 #@! TF.ProjectId,uart_mux,75617274-5f6d-4757-982e-6b696361645f,rev?*
G04 #@! TF.SameCoordinates,Original*
G04 #@! TF.FileFunction,Soldermask,Bot*
G04 #@! TF.FilePolarity,Negative*
%FSLAX46Y46*%
G04 Gerber Fmt 4.6, Leading zero omitted, Abs format (unit mm)*
G04 Created by KiCad (PCBNEW (5.1.5-0)) date 2022-05-12 16:28:49*
%MOMM*%
%LPD*%
G04 APERTURE LIST*
%ADD10C,0.100000*%
G04 APERTURE END LIST*
D10*
G36*
X103536693Y-88301859D02*
G01*
X103802437Y-88354719D01*
X104303087Y-88562095D01*
X104483561Y-88682684D01*
X104753660Y-88863158D01*
X105136842Y-89246340D01*
X105178568Y-89308788D01*
X105437905Y-89696913D01*
X105645281Y-90197563D01*
X105751000Y-90729050D01*
X105751000Y-91270950D01*
X105645281Y-91802437D01*
X105437905Y-92303087D01*
X105317316Y-92483561D01*
X105136842Y-92753660D01*
X104753660Y-93136842D01*
X104483561Y-93317316D01*
X104303087Y-93437905D01*
X103802437Y-93645281D01*
X103536694Y-93698140D01*
X103270951Y-93751000D01*
X102729049Y-93751000D01*
X102463306Y-93698140D01*
X102197563Y-93645281D01*
X101696913Y-93437905D01*
X101516439Y-93317316D01*
X101246340Y-93136842D01*
X100863158Y-92753660D01*
X100682684Y-92483561D01*
X100562095Y-92303087D01*
X100354719Y-91802437D01*
X100249000Y-91270950D01*
X100249000Y-90729050D01*
X100354719Y-90197563D01*
X100562095Y-89696913D01*
X100821432Y-89308788D01*
X100863158Y-89246340D01*
X101246340Y-88863158D01*
X101516439Y-88682684D01*
X101696913Y-88562095D01*
X102197563Y-88354719D01*
X102463306Y-88301860D01*
X102729049Y-88249000D01*
X103270951Y-88249000D01*
X103536693Y-88301859D01*
G37*
G36*
X138273665Y-88272622D02*
G01*
X138347222Y-88279867D01*
X138488786Y-88322810D01*
X138619252Y-88392546D01*
X138649040Y-88416992D01*
X138733607Y-88486393D01*
X138795732Y-88562095D01*
X138827454Y-88600748D01*
X138897190Y-88731214D01*
X138940133Y-88872778D01*
X138954633Y-89020000D01*
X138940133Y-89167222D01*
X138897190Y-89308786D01*
X138827454Y-89439252D01*
X138803008Y-89469040D01*
X138733607Y-89553607D01*
X138649040Y-89623008D01*
X138619252Y-89647454D01*
X138619250Y-89647455D01*
X138526720Y-89696914D01*
X138488786Y-89717190D01*
X138347222Y-89760133D01*
X138273665Y-89767378D01*
X138236888Y-89771000D01*
X137763112Y-89771000D01*
X137726335Y-89767378D01*
X137652778Y-89760133D01*
X137511214Y-89717190D01*
X137473281Y-89696914D01*
X137380750Y-89647455D01*
X137380748Y-89647454D01*
X137350960Y-89623008D01*
X137266393Y-89553607D01*
X137196992Y-89469040D01*
X137172546Y-89439252D01*
X137102810Y-89308786D01*
X137059867Y-89167222D01*
X137045367Y-89020000D01*
X137059867Y-88872778D01*
X137102810Y-88731214D01*
X137172546Y-88600748D01*
X137204268Y-88562095D01*
X137266393Y-88486393D01*
X137350960Y-88416992D01*
X137380748Y-88392546D01*
X137511214Y-88322810D01*
X137652778Y-88279867D01*
X137726335Y-88272622D01*
X137763112Y-88269000D01*
X138236888Y-88269000D01*
X138273665Y-88272622D01*
G37*
G36*
X115379300Y-87607595D02*
G01*
X115465724Y-87624786D01*
X115587838Y-87675367D01*
X115697738Y-87748800D01*
X115791200Y-87842262D01*
X115864633Y-87952162D01*
X115915214Y-88074276D01*
X115941000Y-88203912D01*
X115941000Y-88336088D01*
X115915214Y-88465724D01*
X115864633Y-88587838D01*
X115791200Y-88697738D01*
X115697738Y-88791200D01*
X115587838Y-88864633D01*
X115465724Y-88915214D01*
X115379300Y-88932405D01*
X115336089Y-88941000D01*
X115203911Y-88941000D01*
X115160700Y-88932405D01*
X115074276Y-88915214D01*
X114952162Y-88864633D01*
X114842262Y-88791200D01*
X114748800Y-88697738D01*
X114675367Y-88587838D01*
X114624786Y-88465724D01*
X114599000Y-88336088D01*
X114599000Y-88203912D01*
X114624786Y-88074276D01*
X114675367Y-87952162D01*
X114748800Y-87842262D01*
X114842262Y-87748800D01*
X114952162Y-87675367D01*
X115074276Y-87624786D01*
X115160700Y-87607595D01*
X115203911Y-87599000D01*
X115336089Y-87599000D01*
X115379300Y-87607595D01*
G37*
G36*
X112839300Y-87607595D02*
G01*
X112925724Y-87624786D01*
X113047838Y-87675367D01*
X113157738Y-87748800D01*
X113251200Y-87842262D01*
X113324633Y-87952162D01*
X113375214Y-88074276D01*
X113401000Y-88203912D01*
X113401000Y-88336088D01*
X113375214Y-88465724D01*
X113324633Y-88587838D01*
X113251200Y-88697738D01*
X113157738Y-88791200D01*
X113047838Y-88864633D01*
X112925724Y-88915214D01*
X112839300Y-88932405D01*
X112796089Y-88941000D01*
X112663911Y-88941000D01*
X112620700Y-88932405D01*
X112534276Y-88915214D01*
X112412162Y-88864633D01*
X112302262Y-88791200D01*
X112208800Y-88697738D01*
X112135367Y-88587838D01*
X112084786Y-88465724D01*
X112059000Y-88336088D01*
X112059000Y-88203912D01*
X112084786Y-88074276D01*
X112135367Y-87952162D01*
X112208800Y-87842262D01*
X112302262Y-87748800D01*
X112412162Y-87675367D01*
X112534276Y-87624786D01*
X112620700Y-87607595D01*
X112663911Y-87599000D01*
X112796089Y-87599000D01*
X112839300Y-87607595D01*
G37*
G36*
X114109300Y-86337595D02*
G01*
X114195724Y-86354786D01*
X114317838Y-86405367D01*
X114427738Y-86478800D01*
X114521200Y-86572262D01*
X114594633Y-86682162D01*
X114645214Y-86804276D01*
X114671000Y-86933912D01*
X114671000Y-87066088D01*
X114645214Y-87195724D01*
X114594633Y-87317838D01*
X114521200Y-87427738D01*
X114427738Y-87521200D01*
X114317838Y-87594633D01*
X114195724Y-87645214D01*
X114109300Y-87662405D01*
X114066089Y-87671000D01*
X113933911Y-87671000D01*
X113890700Y-87662405D01*
X113804276Y-87645214D01*
X113682162Y-87594633D01*
X113572262Y-87521200D01*
X113478800Y-87427738D01*
X113405367Y-87317838D01*
X113354786Y-87195724D01*
X113329000Y-87066088D01*
X113329000Y-86933912D01*
X113354786Y-86804276D01*
X113405367Y-86682162D01*
X113478800Y-86572262D01*
X113572262Y-86478800D01*
X113682162Y-86405367D01*
X113804276Y-86354786D01*
X113890700Y-86337595D01*
X113933911Y-86329000D01*
X114066089Y-86329000D01*
X114109300Y-86337595D01*
G37*
G36*
X138273665Y-85732622D02*
G01*
X138347222Y-85739867D01*
X138488786Y-85782810D01*
X138619252Y-85852546D01*
X138649040Y-85876992D01*
X138733607Y-85946393D01*
X138803008Y-86030960D01*
X138827454Y-86060748D01*
X138897190Y-86191214D01*
X138940133Y-86332778D01*
X138954633Y-86480000D01*
X138940133Y-86627222D01*
X138897190Y-86768786D01*
X138827454Y-86899252D01*
X138803008Y-86929040D01*
X138733607Y-87013607D01*
X138649040Y-87083008D01*
X138619252Y-87107454D01*
X138488786Y-87177190D01*
X138347222Y-87220133D01*
X138273665Y-87227378D01*
X138236888Y-87231000D01*
X137763112Y-87231000D01*
X137726335Y-87227378D01*
X137652778Y-87220133D01*
X137511214Y-87177190D01*
X137380748Y-87107454D01*
X137350960Y-87083008D01*
X137266393Y-87013607D01*
X137196992Y-86929040D01*
X137172546Y-86899252D01*
X137102810Y-86768786D01*
X137059867Y-86627222D01*
X137045367Y-86480000D01*
X137059867Y-86332778D01*
X137102810Y-86191214D01*
X137172546Y-86060748D01*
X137196992Y-86030960D01*
X137266393Y-85946393D01*
X137350960Y-85876992D01*
X137380748Y-85852546D01*
X137511214Y-85782810D01*
X137652778Y-85739867D01*
X137726335Y-85732622D01*
X137763112Y-85729000D01*
X138236888Y-85729000D01*
X138273665Y-85732622D01*
G37*
G36*
X115379300Y-85067595D02*
G01*
X115465724Y-85084786D01*
X115587838Y-85135367D01*
X115697738Y-85208800D01*
X115791200Y-85302262D01*
X115864633Y-85412162D01*
X115915214Y-85534276D01*
X115941000Y-85663912D01*
X115941000Y-85796088D01*
X115915214Y-85925724D01*
X115864633Y-86047838D01*
X115791200Y-86157738D01*
X115697738Y-86251200D01*
X115587838Y-86324633D01*
X115465724Y-86375214D01*
X115379300Y-86392405D01*
X115336089Y-86401000D01*
X115203911Y-86401000D01*
X115160700Y-86392405D01*
X115074276Y-86375214D01*
X114952162Y-86324633D01*
X114842262Y-86251200D01*
X114748800Y-86157738D01*
X114675367Y-86047838D01*
X114624786Y-85925724D01*
X114599000Y-85796088D01*
X114599000Y-85663912D01*
X114624786Y-85534276D01*
X114675367Y-85412162D01*
X114748800Y-85302262D01*
X114842262Y-85208800D01*
X114952162Y-85135367D01*
X115074276Y-85084786D01*
X115160700Y-85067595D01*
X115203911Y-85059000D01*
X115336089Y-85059000D01*
X115379300Y-85067595D01*
G37*
G36*
X112839300Y-85067595D02*
G01*
X112925724Y-85084786D01*
X113047838Y-85135367D01*
X113157738Y-85208800D01*
X113251200Y-85302262D01*
X113324633Y-85412162D01*
X113375214Y-85534276D01*
X113401000Y-85663912D01*
X113401000Y-85796088D01*
X113375214Y-85925724D01*
X113324633Y-86047838D01*
X113251200Y-86157738D01*
X113157738Y-86251200D01*
X113047838Y-86324633D01*
X112925724Y-86375214D01*
X112839300Y-86392405D01*
X112796089Y-86401000D01*
X112663911Y-86401000D01*
X112620700Y-86392405D01*
X112534276Y-86375214D01*
X112412162Y-86324633D01*
X112302262Y-86251200D01*
X112208800Y-86157738D01*
X112135367Y-86047838D01*
X112084786Y-85925724D01*
X112059000Y-85796088D01*
X112059000Y-85663912D01*
X112084786Y-85534276D01*
X112135367Y-85412162D01*
X112208800Y-85302262D01*
X112302262Y-85208800D01*
X112412162Y-85135367D01*
X112534276Y-85084786D01*
X112620700Y-85067595D01*
X112663911Y-85059000D01*
X112796089Y-85059000D01*
X112839300Y-85067595D01*
G37*
G36*
X138273665Y-83192622D02*
G01*
X138347222Y-83199867D01*
X138488786Y-83242810D01*
X138619252Y-83312546D01*
X138649040Y-83336992D01*
X138733607Y-83406393D01*
X138803008Y-83490960D01*
X138827454Y-83520748D01*
X138897190Y-83651214D01*
X138940133Y-83792778D01*
X138954633Y-83940000D01*
X138940133Y-84087222D01*
X138897190Y-84228786D01*
X138827454Y-84359252D01*
X138803008Y-84389040D01*
X138733607Y-84473607D01*
X138649040Y-84543008D01*
X138619252Y-84567454D01*
X138488786Y-84637190D01*
X138347222Y-84680133D01*
X138273665Y-84687378D01*
X138236888Y-84691000D01*
X137763112Y-84691000D01*
X137726335Y-84687378D01*
X137652778Y-84680133D01*
X137511214Y-84637190D01*
X137380748Y-84567454D01*
X137350960Y-84543008D01*
X137266393Y-84473607D01*
X137196992Y-84389040D01*
X137172546Y-84359252D01*
X137102810Y-84228786D01*
X137059867Y-84087222D01*
X137045367Y-83940000D01*
X137059867Y-83792778D01*
X137102810Y-83651214D01*
X137172546Y-83520748D01*
X137196992Y-83490960D01*
X137266393Y-83406393D01*
X137350960Y-83336992D01*
X137380748Y-83312546D01*
X137511214Y-83242810D01*
X137652778Y-83199867D01*
X137726335Y-83192622D01*
X137763112Y-83189000D01*
X138236888Y-83189000D01*
X138273665Y-83192622D01*
G37*
G36*
X138951000Y-82151000D02*
G01*
X137049000Y-82151000D01*
X137049000Y-80649000D01*
X138951000Y-80649000D01*
X138951000Y-82151000D01*
G37*
G36*
X103536694Y-60301860D02*
G01*
X103802437Y-60354719D01*
X104303087Y-60562095D01*
X104483561Y-60682684D01*
X104753660Y-60863158D01*
X105136842Y-61246340D01*
X105317316Y-61516439D01*
X105437905Y-61696913D01*
X105645281Y-62197563D01*
X105751000Y-62729050D01*
X105751000Y-63270950D01*
X105645281Y-63802437D01*
X105437905Y-64303087D01*
X105317316Y-64483561D01*
X105136842Y-64753660D01*
X104753660Y-65136842D01*
X104483561Y-65317316D01*
X104303087Y-65437905D01*
X103802437Y-65645281D01*
X103536694Y-65698140D01*
X103270951Y-65751000D01*
X102729049Y-65751000D01*
X102463306Y-65698140D01*
X102197563Y-65645281D01*
X101696913Y-65437905D01*
X101516439Y-65317316D01*
X101246340Y-65136842D01*
X100863158Y-64753660D01*
X100682684Y-64483561D01*
X100562095Y-64303087D01*
X100354719Y-63802437D01*
X100249000Y-63270950D01*
X100249000Y-62729050D01*
X100354719Y-62197563D01*
X100562095Y-61696913D01*
X100682684Y-61516439D01*
X100863158Y-61246340D01*
X101246340Y-60863158D01*
X101516439Y-60682684D01*
X101696913Y-60562095D01*
X102197563Y-60354719D01*
X102463306Y-60301860D01*
X102729049Y-60249000D01*
X103270951Y-60249000D01*
X103536694Y-60301860D01*
G37*
M02*
