G04 #@! TF.GenerationSoftware,KiCad,Pcbnew,(5.1.5-0)*
G04 #@! TF.CreationDate,2022-05-12T16:28:49-06:00*
G04 #@! TF.ProjectId,uart_mux,75617274-5f6d-4757-982e-6b696361645f,rev?*
G04 #@! TF.SameCoordinates,Original*
G04 #@! TF.FileFunction,Paste,Top*
G04 #@! TF.FilePolarity,Positive*
%FSLAX46Y46*%
G04 Gerber Fmt 4.6, Leading zero omitted, Abs format (unit mm)*
G04 Created by KiCad (PCBNEW (5.1.5-0)) date 2022-05-12 16:28:49*
%MOMM*%
%LPD*%
G04 APERTURE LIST*
%ADD10C,0.100000*%
%ADD11R,0.650000X1.060000*%
%ADD12R,0.900000X0.800000*%
%ADD13R,1.500000X0.450000*%
G04 APERTURE END LIST*
D10*
G36*
X129564703Y-65605722D02*
G01*
X129579264Y-65607882D01*
X129593543Y-65611459D01*
X129607403Y-65616418D01*
X129620710Y-65622712D01*
X129633336Y-65630280D01*
X129645159Y-65639048D01*
X129656066Y-65648934D01*
X129665952Y-65659841D01*
X129674720Y-65671664D01*
X129682288Y-65684290D01*
X129688582Y-65697597D01*
X129693541Y-65711457D01*
X129697118Y-65725736D01*
X129699278Y-65740297D01*
X129700000Y-65755000D01*
X129700000Y-66055000D01*
X129699278Y-66069703D01*
X129697118Y-66084264D01*
X129693541Y-66098543D01*
X129688582Y-66112403D01*
X129682288Y-66125710D01*
X129674720Y-66138336D01*
X129665952Y-66150159D01*
X129656066Y-66161066D01*
X129645159Y-66170952D01*
X129633336Y-66179720D01*
X129620710Y-66187288D01*
X129607403Y-66193582D01*
X129593543Y-66198541D01*
X129579264Y-66202118D01*
X129564703Y-66204278D01*
X129550000Y-66205000D01*
X127900000Y-66205000D01*
X127885297Y-66204278D01*
X127870736Y-66202118D01*
X127856457Y-66198541D01*
X127842597Y-66193582D01*
X127829290Y-66187288D01*
X127816664Y-66179720D01*
X127804841Y-66170952D01*
X127793934Y-66161066D01*
X127784048Y-66150159D01*
X127775280Y-66138336D01*
X127767712Y-66125710D01*
X127761418Y-66112403D01*
X127756459Y-66098543D01*
X127752882Y-66084264D01*
X127750722Y-66069703D01*
X127750000Y-66055000D01*
X127750000Y-65755000D01*
X127750722Y-65740297D01*
X127752882Y-65725736D01*
X127756459Y-65711457D01*
X127761418Y-65697597D01*
X127767712Y-65684290D01*
X127775280Y-65671664D01*
X127784048Y-65659841D01*
X127793934Y-65648934D01*
X127804841Y-65639048D01*
X127816664Y-65630280D01*
X127829290Y-65622712D01*
X127842597Y-65616418D01*
X127856457Y-65611459D01*
X127870736Y-65607882D01*
X127885297Y-65605722D01*
X127900000Y-65605000D01*
X129550000Y-65605000D01*
X129564703Y-65605722D01*
G37*
G36*
X129564703Y-64335722D02*
G01*
X129579264Y-64337882D01*
X129593543Y-64341459D01*
X129607403Y-64346418D01*
X129620710Y-64352712D01*
X129633336Y-64360280D01*
X129645159Y-64369048D01*
X129656066Y-64378934D01*
X129665952Y-64389841D01*
X129674720Y-64401664D01*
X129682288Y-64414290D01*
X129688582Y-64427597D01*
X129693541Y-64441457D01*
X129697118Y-64455736D01*
X129699278Y-64470297D01*
X129700000Y-64485000D01*
X129700000Y-64785000D01*
X129699278Y-64799703D01*
X129697118Y-64814264D01*
X129693541Y-64828543D01*
X129688582Y-64842403D01*
X129682288Y-64855710D01*
X129674720Y-64868336D01*
X129665952Y-64880159D01*
X129656066Y-64891066D01*
X129645159Y-64900952D01*
X129633336Y-64909720D01*
X129620710Y-64917288D01*
X129607403Y-64923582D01*
X129593543Y-64928541D01*
X129579264Y-64932118D01*
X129564703Y-64934278D01*
X129550000Y-64935000D01*
X127900000Y-64935000D01*
X127885297Y-64934278D01*
X127870736Y-64932118D01*
X127856457Y-64928541D01*
X127842597Y-64923582D01*
X127829290Y-64917288D01*
X127816664Y-64909720D01*
X127804841Y-64900952D01*
X127793934Y-64891066D01*
X127784048Y-64880159D01*
X127775280Y-64868336D01*
X127767712Y-64855710D01*
X127761418Y-64842403D01*
X127756459Y-64828543D01*
X127752882Y-64814264D01*
X127750722Y-64799703D01*
X127750000Y-64785000D01*
X127750000Y-64485000D01*
X127750722Y-64470297D01*
X127752882Y-64455736D01*
X127756459Y-64441457D01*
X127761418Y-64427597D01*
X127767712Y-64414290D01*
X127775280Y-64401664D01*
X127784048Y-64389841D01*
X127793934Y-64378934D01*
X127804841Y-64369048D01*
X127816664Y-64360280D01*
X127829290Y-64352712D01*
X127842597Y-64346418D01*
X127856457Y-64341459D01*
X127870736Y-64337882D01*
X127885297Y-64335722D01*
X127900000Y-64335000D01*
X129550000Y-64335000D01*
X129564703Y-64335722D01*
G37*
G36*
X129564703Y-63065722D02*
G01*
X129579264Y-63067882D01*
X129593543Y-63071459D01*
X129607403Y-63076418D01*
X129620710Y-63082712D01*
X129633336Y-63090280D01*
X129645159Y-63099048D01*
X129656066Y-63108934D01*
X129665952Y-63119841D01*
X129674720Y-63131664D01*
X129682288Y-63144290D01*
X129688582Y-63157597D01*
X129693541Y-63171457D01*
X129697118Y-63185736D01*
X129699278Y-63200297D01*
X129700000Y-63215000D01*
X129700000Y-63515000D01*
X129699278Y-63529703D01*
X129697118Y-63544264D01*
X129693541Y-63558543D01*
X129688582Y-63572403D01*
X129682288Y-63585710D01*
X129674720Y-63598336D01*
X129665952Y-63610159D01*
X129656066Y-63621066D01*
X129645159Y-63630952D01*
X129633336Y-63639720D01*
X129620710Y-63647288D01*
X129607403Y-63653582D01*
X129593543Y-63658541D01*
X129579264Y-63662118D01*
X129564703Y-63664278D01*
X129550000Y-63665000D01*
X127900000Y-63665000D01*
X127885297Y-63664278D01*
X127870736Y-63662118D01*
X127856457Y-63658541D01*
X127842597Y-63653582D01*
X127829290Y-63647288D01*
X127816664Y-63639720D01*
X127804841Y-63630952D01*
X127793934Y-63621066D01*
X127784048Y-63610159D01*
X127775280Y-63598336D01*
X127767712Y-63585710D01*
X127761418Y-63572403D01*
X127756459Y-63558543D01*
X127752882Y-63544264D01*
X127750722Y-63529703D01*
X127750000Y-63515000D01*
X127750000Y-63215000D01*
X127750722Y-63200297D01*
X127752882Y-63185736D01*
X127756459Y-63171457D01*
X127761418Y-63157597D01*
X127767712Y-63144290D01*
X127775280Y-63131664D01*
X127784048Y-63119841D01*
X127793934Y-63108934D01*
X127804841Y-63099048D01*
X127816664Y-63090280D01*
X127829290Y-63082712D01*
X127842597Y-63076418D01*
X127856457Y-63071459D01*
X127870736Y-63067882D01*
X127885297Y-63065722D01*
X127900000Y-63065000D01*
X129550000Y-63065000D01*
X129564703Y-63065722D01*
G37*
G36*
X129564703Y-61795722D02*
G01*
X129579264Y-61797882D01*
X129593543Y-61801459D01*
X129607403Y-61806418D01*
X129620710Y-61812712D01*
X129633336Y-61820280D01*
X129645159Y-61829048D01*
X129656066Y-61838934D01*
X129665952Y-61849841D01*
X129674720Y-61861664D01*
X129682288Y-61874290D01*
X129688582Y-61887597D01*
X129693541Y-61901457D01*
X129697118Y-61915736D01*
X129699278Y-61930297D01*
X129700000Y-61945000D01*
X129700000Y-62245000D01*
X129699278Y-62259703D01*
X129697118Y-62274264D01*
X129693541Y-62288543D01*
X129688582Y-62302403D01*
X129682288Y-62315710D01*
X129674720Y-62328336D01*
X129665952Y-62340159D01*
X129656066Y-62351066D01*
X129645159Y-62360952D01*
X129633336Y-62369720D01*
X129620710Y-62377288D01*
X129607403Y-62383582D01*
X129593543Y-62388541D01*
X129579264Y-62392118D01*
X129564703Y-62394278D01*
X129550000Y-62395000D01*
X127900000Y-62395000D01*
X127885297Y-62394278D01*
X127870736Y-62392118D01*
X127856457Y-62388541D01*
X127842597Y-62383582D01*
X127829290Y-62377288D01*
X127816664Y-62369720D01*
X127804841Y-62360952D01*
X127793934Y-62351066D01*
X127784048Y-62340159D01*
X127775280Y-62328336D01*
X127767712Y-62315710D01*
X127761418Y-62302403D01*
X127756459Y-62288543D01*
X127752882Y-62274264D01*
X127750722Y-62259703D01*
X127750000Y-62245000D01*
X127750000Y-61945000D01*
X127750722Y-61930297D01*
X127752882Y-61915736D01*
X127756459Y-61901457D01*
X127761418Y-61887597D01*
X127767712Y-61874290D01*
X127775280Y-61861664D01*
X127784048Y-61849841D01*
X127793934Y-61838934D01*
X127804841Y-61829048D01*
X127816664Y-61820280D01*
X127829290Y-61812712D01*
X127842597Y-61806418D01*
X127856457Y-61801459D01*
X127870736Y-61797882D01*
X127885297Y-61795722D01*
X127900000Y-61795000D01*
X129550000Y-61795000D01*
X129564703Y-61795722D01*
G37*
G36*
X134514703Y-61795722D02*
G01*
X134529264Y-61797882D01*
X134543543Y-61801459D01*
X134557403Y-61806418D01*
X134570710Y-61812712D01*
X134583336Y-61820280D01*
X134595159Y-61829048D01*
X134606066Y-61838934D01*
X134615952Y-61849841D01*
X134624720Y-61861664D01*
X134632288Y-61874290D01*
X134638582Y-61887597D01*
X134643541Y-61901457D01*
X134647118Y-61915736D01*
X134649278Y-61930297D01*
X134650000Y-61945000D01*
X134650000Y-62245000D01*
X134649278Y-62259703D01*
X134647118Y-62274264D01*
X134643541Y-62288543D01*
X134638582Y-62302403D01*
X134632288Y-62315710D01*
X134624720Y-62328336D01*
X134615952Y-62340159D01*
X134606066Y-62351066D01*
X134595159Y-62360952D01*
X134583336Y-62369720D01*
X134570710Y-62377288D01*
X134557403Y-62383582D01*
X134543543Y-62388541D01*
X134529264Y-62392118D01*
X134514703Y-62394278D01*
X134500000Y-62395000D01*
X132850000Y-62395000D01*
X132835297Y-62394278D01*
X132820736Y-62392118D01*
X132806457Y-62388541D01*
X132792597Y-62383582D01*
X132779290Y-62377288D01*
X132766664Y-62369720D01*
X132754841Y-62360952D01*
X132743934Y-62351066D01*
X132734048Y-62340159D01*
X132725280Y-62328336D01*
X132717712Y-62315710D01*
X132711418Y-62302403D01*
X132706459Y-62288543D01*
X132702882Y-62274264D01*
X132700722Y-62259703D01*
X132700000Y-62245000D01*
X132700000Y-61945000D01*
X132700722Y-61930297D01*
X132702882Y-61915736D01*
X132706459Y-61901457D01*
X132711418Y-61887597D01*
X132717712Y-61874290D01*
X132725280Y-61861664D01*
X132734048Y-61849841D01*
X132743934Y-61838934D01*
X132754841Y-61829048D01*
X132766664Y-61820280D01*
X132779290Y-61812712D01*
X132792597Y-61806418D01*
X132806457Y-61801459D01*
X132820736Y-61797882D01*
X132835297Y-61795722D01*
X132850000Y-61795000D01*
X134500000Y-61795000D01*
X134514703Y-61795722D01*
G37*
G36*
X134514703Y-63065722D02*
G01*
X134529264Y-63067882D01*
X134543543Y-63071459D01*
X134557403Y-63076418D01*
X134570710Y-63082712D01*
X134583336Y-63090280D01*
X134595159Y-63099048D01*
X134606066Y-63108934D01*
X134615952Y-63119841D01*
X134624720Y-63131664D01*
X134632288Y-63144290D01*
X134638582Y-63157597D01*
X134643541Y-63171457D01*
X134647118Y-63185736D01*
X134649278Y-63200297D01*
X134650000Y-63215000D01*
X134650000Y-63515000D01*
X134649278Y-63529703D01*
X134647118Y-63544264D01*
X134643541Y-63558543D01*
X134638582Y-63572403D01*
X134632288Y-63585710D01*
X134624720Y-63598336D01*
X134615952Y-63610159D01*
X134606066Y-63621066D01*
X134595159Y-63630952D01*
X134583336Y-63639720D01*
X134570710Y-63647288D01*
X134557403Y-63653582D01*
X134543543Y-63658541D01*
X134529264Y-63662118D01*
X134514703Y-63664278D01*
X134500000Y-63665000D01*
X132850000Y-63665000D01*
X132835297Y-63664278D01*
X132820736Y-63662118D01*
X132806457Y-63658541D01*
X132792597Y-63653582D01*
X132779290Y-63647288D01*
X132766664Y-63639720D01*
X132754841Y-63630952D01*
X132743934Y-63621066D01*
X132734048Y-63610159D01*
X132725280Y-63598336D01*
X132717712Y-63585710D01*
X132711418Y-63572403D01*
X132706459Y-63558543D01*
X132702882Y-63544264D01*
X132700722Y-63529703D01*
X132700000Y-63515000D01*
X132700000Y-63215000D01*
X132700722Y-63200297D01*
X132702882Y-63185736D01*
X132706459Y-63171457D01*
X132711418Y-63157597D01*
X132717712Y-63144290D01*
X132725280Y-63131664D01*
X132734048Y-63119841D01*
X132743934Y-63108934D01*
X132754841Y-63099048D01*
X132766664Y-63090280D01*
X132779290Y-63082712D01*
X132792597Y-63076418D01*
X132806457Y-63071459D01*
X132820736Y-63067882D01*
X132835297Y-63065722D01*
X132850000Y-63065000D01*
X134500000Y-63065000D01*
X134514703Y-63065722D01*
G37*
G36*
X134514703Y-64335722D02*
G01*
X134529264Y-64337882D01*
X134543543Y-64341459D01*
X134557403Y-64346418D01*
X134570710Y-64352712D01*
X134583336Y-64360280D01*
X134595159Y-64369048D01*
X134606066Y-64378934D01*
X134615952Y-64389841D01*
X134624720Y-64401664D01*
X134632288Y-64414290D01*
X134638582Y-64427597D01*
X134643541Y-64441457D01*
X134647118Y-64455736D01*
X134649278Y-64470297D01*
X134650000Y-64485000D01*
X134650000Y-64785000D01*
X134649278Y-64799703D01*
X134647118Y-64814264D01*
X134643541Y-64828543D01*
X134638582Y-64842403D01*
X134632288Y-64855710D01*
X134624720Y-64868336D01*
X134615952Y-64880159D01*
X134606066Y-64891066D01*
X134595159Y-64900952D01*
X134583336Y-64909720D01*
X134570710Y-64917288D01*
X134557403Y-64923582D01*
X134543543Y-64928541D01*
X134529264Y-64932118D01*
X134514703Y-64934278D01*
X134500000Y-64935000D01*
X132850000Y-64935000D01*
X132835297Y-64934278D01*
X132820736Y-64932118D01*
X132806457Y-64928541D01*
X132792597Y-64923582D01*
X132779290Y-64917288D01*
X132766664Y-64909720D01*
X132754841Y-64900952D01*
X132743934Y-64891066D01*
X132734048Y-64880159D01*
X132725280Y-64868336D01*
X132717712Y-64855710D01*
X132711418Y-64842403D01*
X132706459Y-64828543D01*
X132702882Y-64814264D01*
X132700722Y-64799703D01*
X132700000Y-64785000D01*
X132700000Y-64485000D01*
X132700722Y-64470297D01*
X132702882Y-64455736D01*
X132706459Y-64441457D01*
X132711418Y-64427597D01*
X132717712Y-64414290D01*
X132725280Y-64401664D01*
X132734048Y-64389841D01*
X132743934Y-64378934D01*
X132754841Y-64369048D01*
X132766664Y-64360280D01*
X132779290Y-64352712D01*
X132792597Y-64346418D01*
X132806457Y-64341459D01*
X132820736Y-64337882D01*
X132835297Y-64335722D01*
X132850000Y-64335000D01*
X134500000Y-64335000D01*
X134514703Y-64335722D01*
G37*
G36*
X134514703Y-65605722D02*
G01*
X134529264Y-65607882D01*
X134543543Y-65611459D01*
X134557403Y-65616418D01*
X134570710Y-65622712D01*
X134583336Y-65630280D01*
X134595159Y-65639048D01*
X134606066Y-65648934D01*
X134615952Y-65659841D01*
X134624720Y-65671664D01*
X134632288Y-65684290D01*
X134638582Y-65697597D01*
X134643541Y-65711457D01*
X134647118Y-65725736D01*
X134649278Y-65740297D01*
X134650000Y-65755000D01*
X134650000Y-66055000D01*
X134649278Y-66069703D01*
X134647118Y-66084264D01*
X134643541Y-66098543D01*
X134638582Y-66112403D01*
X134632288Y-66125710D01*
X134624720Y-66138336D01*
X134615952Y-66150159D01*
X134606066Y-66161066D01*
X134595159Y-66170952D01*
X134583336Y-66179720D01*
X134570710Y-66187288D01*
X134557403Y-66193582D01*
X134543543Y-66198541D01*
X134529264Y-66202118D01*
X134514703Y-66204278D01*
X134500000Y-66205000D01*
X132850000Y-66205000D01*
X132835297Y-66204278D01*
X132820736Y-66202118D01*
X132806457Y-66198541D01*
X132792597Y-66193582D01*
X132779290Y-66187288D01*
X132766664Y-66179720D01*
X132754841Y-66170952D01*
X132743934Y-66161066D01*
X132734048Y-66150159D01*
X132725280Y-66138336D01*
X132717712Y-66125710D01*
X132711418Y-66112403D01*
X132706459Y-66098543D01*
X132702882Y-66084264D01*
X132700722Y-66069703D01*
X132700000Y-66055000D01*
X132700000Y-65755000D01*
X132700722Y-65740297D01*
X132702882Y-65725736D01*
X132706459Y-65711457D01*
X132711418Y-65697597D01*
X132717712Y-65684290D01*
X132725280Y-65671664D01*
X132734048Y-65659841D01*
X132743934Y-65648934D01*
X132754841Y-65639048D01*
X132766664Y-65630280D01*
X132779290Y-65622712D01*
X132792597Y-65616418D01*
X132806457Y-65611459D01*
X132820736Y-65607882D01*
X132835297Y-65605722D01*
X132850000Y-65605000D01*
X134500000Y-65605000D01*
X134514703Y-65605722D01*
G37*
G36*
X129664703Y-74705722D02*
G01*
X129679264Y-74707882D01*
X129693543Y-74711459D01*
X129707403Y-74716418D01*
X129720710Y-74722712D01*
X129733336Y-74730280D01*
X129745159Y-74739048D01*
X129756066Y-74748934D01*
X129765952Y-74759841D01*
X129774720Y-74771664D01*
X129782288Y-74784290D01*
X129788582Y-74797597D01*
X129793541Y-74811457D01*
X129797118Y-74825736D01*
X129799278Y-74840297D01*
X129800000Y-74855000D01*
X129800000Y-75155000D01*
X129799278Y-75169703D01*
X129797118Y-75184264D01*
X129793541Y-75198543D01*
X129788582Y-75212403D01*
X129782288Y-75225710D01*
X129774720Y-75238336D01*
X129765952Y-75250159D01*
X129756066Y-75261066D01*
X129745159Y-75270952D01*
X129733336Y-75279720D01*
X129720710Y-75287288D01*
X129707403Y-75293582D01*
X129693543Y-75298541D01*
X129679264Y-75302118D01*
X129664703Y-75304278D01*
X129650000Y-75305000D01*
X128000000Y-75305000D01*
X127985297Y-75304278D01*
X127970736Y-75302118D01*
X127956457Y-75298541D01*
X127942597Y-75293582D01*
X127929290Y-75287288D01*
X127916664Y-75279720D01*
X127904841Y-75270952D01*
X127893934Y-75261066D01*
X127884048Y-75250159D01*
X127875280Y-75238336D01*
X127867712Y-75225710D01*
X127861418Y-75212403D01*
X127856459Y-75198543D01*
X127852882Y-75184264D01*
X127850722Y-75169703D01*
X127850000Y-75155000D01*
X127850000Y-74855000D01*
X127850722Y-74840297D01*
X127852882Y-74825736D01*
X127856459Y-74811457D01*
X127861418Y-74797597D01*
X127867712Y-74784290D01*
X127875280Y-74771664D01*
X127884048Y-74759841D01*
X127893934Y-74748934D01*
X127904841Y-74739048D01*
X127916664Y-74730280D01*
X127929290Y-74722712D01*
X127942597Y-74716418D01*
X127956457Y-74711459D01*
X127970736Y-74707882D01*
X127985297Y-74705722D01*
X128000000Y-74705000D01*
X129650000Y-74705000D01*
X129664703Y-74705722D01*
G37*
G36*
X129664703Y-73435722D02*
G01*
X129679264Y-73437882D01*
X129693543Y-73441459D01*
X129707403Y-73446418D01*
X129720710Y-73452712D01*
X129733336Y-73460280D01*
X129745159Y-73469048D01*
X129756066Y-73478934D01*
X129765952Y-73489841D01*
X129774720Y-73501664D01*
X129782288Y-73514290D01*
X129788582Y-73527597D01*
X129793541Y-73541457D01*
X129797118Y-73555736D01*
X129799278Y-73570297D01*
X129800000Y-73585000D01*
X129800000Y-73885000D01*
X129799278Y-73899703D01*
X129797118Y-73914264D01*
X129793541Y-73928543D01*
X129788582Y-73942403D01*
X129782288Y-73955710D01*
X129774720Y-73968336D01*
X129765952Y-73980159D01*
X129756066Y-73991066D01*
X129745159Y-74000952D01*
X129733336Y-74009720D01*
X129720710Y-74017288D01*
X129707403Y-74023582D01*
X129693543Y-74028541D01*
X129679264Y-74032118D01*
X129664703Y-74034278D01*
X129650000Y-74035000D01*
X128000000Y-74035000D01*
X127985297Y-74034278D01*
X127970736Y-74032118D01*
X127956457Y-74028541D01*
X127942597Y-74023582D01*
X127929290Y-74017288D01*
X127916664Y-74009720D01*
X127904841Y-74000952D01*
X127893934Y-73991066D01*
X127884048Y-73980159D01*
X127875280Y-73968336D01*
X127867712Y-73955710D01*
X127861418Y-73942403D01*
X127856459Y-73928543D01*
X127852882Y-73914264D01*
X127850722Y-73899703D01*
X127850000Y-73885000D01*
X127850000Y-73585000D01*
X127850722Y-73570297D01*
X127852882Y-73555736D01*
X127856459Y-73541457D01*
X127861418Y-73527597D01*
X127867712Y-73514290D01*
X127875280Y-73501664D01*
X127884048Y-73489841D01*
X127893934Y-73478934D01*
X127904841Y-73469048D01*
X127916664Y-73460280D01*
X127929290Y-73452712D01*
X127942597Y-73446418D01*
X127956457Y-73441459D01*
X127970736Y-73437882D01*
X127985297Y-73435722D01*
X128000000Y-73435000D01*
X129650000Y-73435000D01*
X129664703Y-73435722D01*
G37*
G36*
X129664703Y-72165722D02*
G01*
X129679264Y-72167882D01*
X129693543Y-72171459D01*
X129707403Y-72176418D01*
X129720710Y-72182712D01*
X129733336Y-72190280D01*
X129745159Y-72199048D01*
X129756066Y-72208934D01*
X129765952Y-72219841D01*
X129774720Y-72231664D01*
X129782288Y-72244290D01*
X129788582Y-72257597D01*
X129793541Y-72271457D01*
X129797118Y-72285736D01*
X129799278Y-72300297D01*
X129800000Y-72315000D01*
X129800000Y-72615000D01*
X129799278Y-72629703D01*
X129797118Y-72644264D01*
X129793541Y-72658543D01*
X129788582Y-72672403D01*
X129782288Y-72685710D01*
X129774720Y-72698336D01*
X129765952Y-72710159D01*
X129756066Y-72721066D01*
X129745159Y-72730952D01*
X129733336Y-72739720D01*
X129720710Y-72747288D01*
X129707403Y-72753582D01*
X129693543Y-72758541D01*
X129679264Y-72762118D01*
X129664703Y-72764278D01*
X129650000Y-72765000D01*
X128000000Y-72765000D01*
X127985297Y-72764278D01*
X127970736Y-72762118D01*
X127956457Y-72758541D01*
X127942597Y-72753582D01*
X127929290Y-72747288D01*
X127916664Y-72739720D01*
X127904841Y-72730952D01*
X127893934Y-72721066D01*
X127884048Y-72710159D01*
X127875280Y-72698336D01*
X127867712Y-72685710D01*
X127861418Y-72672403D01*
X127856459Y-72658543D01*
X127852882Y-72644264D01*
X127850722Y-72629703D01*
X127850000Y-72615000D01*
X127850000Y-72315000D01*
X127850722Y-72300297D01*
X127852882Y-72285736D01*
X127856459Y-72271457D01*
X127861418Y-72257597D01*
X127867712Y-72244290D01*
X127875280Y-72231664D01*
X127884048Y-72219841D01*
X127893934Y-72208934D01*
X127904841Y-72199048D01*
X127916664Y-72190280D01*
X127929290Y-72182712D01*
X127942597Y-72176418D01*
X127956457Y-72171459D01*
X127970736Y-72167882D01*
X127985297Y-72165722D01*
X128000000Y-72165000D01*
X129650000Y-72165000D01*
X129664703Y-72165722D01*
G37*
G36*
X129664703Y-70895722D02*
G01*
X129679264Y-70897882D01*
X129693543Y-70901459D01*
X129707403Y-70906418D01*
X129720710Y-70912712D01*
X129733336Y-70920280D01*
X129745159Y-70929048D01*
X129756066Y-70938934D01*
X129765952Y-70949841D01*
X129774720Y-70961664D01*
X129782288Y-70974290D01*
X129788582Y-70987597D01*
X129793541Y-71001457D01*
X129797118Y-71015736D01*
X129799278Y-71030297D01*
X129800000Y-71045000D01*
X129800000Y-71345000D01*
X129799278Y-71359703D01*
X129797118Y-71374264D01*
X129793541Y-71388543D01*
X129788582Y-71402403D01*
X129782288Y-71415710D01*
X129774720Y-71428336D01*
X129765952Y-71440159D01*
X129756066Y-71451066D01*
X129745159Y-71460952D01*
X129733336Y-71469720D01*
X129720710Y-71477288D01*
X129707403Y-71483582D01*
X129693543Y-71488541D01*
X129679264Y-71492118D01*
X129664703Y-71494278D01*
X129650000Y-71495000D01*
X128000000Y-71495000D01*
X127985297Y-71494278D01*
X127970736Y-71492118D01*
X127956457Y-71488541D01*
X127942597Y-71483582D01*
X127929290Y-71477288D01*
X127916664Y-71469720D01*
X127904841Y-71460952D01*
X127893934Y-71451066D01*
X127884048Y-71440159D01*
X127875280Y-71428336D01*
X127867712Y-71415710D01*
X127861418Y-71402403D01*
X127856459Y-71388543D01*
X127852882Y-71374264D01*
X127850722Y-71359703D01*
X127850000Y-71345000D01*
X127850000Y-71045000D01*
X127850722Y-71030297D01*
X127852882Y-71015736D01*
X127856459Y-71001457D01*
X127861418Y-70987597D01*
X127867712Y-70974290D01*
X127875280Y-70961664D01*
X127884048Y-70949841D01*
X127893934Y-70938934D01*
X127904841Y-70929048D01*
X127916664Y-70920280D01*
X127929290Y-70912712D01*
X127942597Y-70906418D01*
X127956457Y-70901459D01*
X127970736Y-70897882D01*
X127985297Y-70895722D01*
X128000000Y-70895000D01*
X129650000Y-70895000D01*
X129664703Y-70895722D01*
G37*
G36*
X134614703Y-70895722D02*
G01*
X134629264Y-70897882D01*
X134643543Y-70901459D01*
X134657403Y-70906418D01*
X134670710Y-70912712D01*
X134683336Y-70920280D01*
X134695159Y-70929048D01*
X134706066Y-70938934D01*
X134715952Y-70949841D01*
X134724720Y-70961664D01*
X134732288Y-70974290D01*
X134738582Y-70987597D01*
X134743541Y-71001457D01*
X134747118Y-71015736D01*
X134749278Y-71030297D01*
X134750000Y-71045000D01*
X134750000Y-71345000D01*
X134749278Y-71359703D01*
X134747118Y-71374264D01*
X134743541Y-71388543D01*
X134738582Y-71402403D01*
X134732288Y-71415710D01*
X134724720Y-71428336D01*
X134715952Y-71440159D01*
X134706066Y-71451066D01*
X134695159Y-71460952D01*
X134683336Y-71469720D01*
X134670710Y-71477288D01*
X134657403Y-71483582D01*
X134643543Y-71488541D01*
X134629264Y-71492118D01*
X134614703Y-71494278D01*
X134600000Y-71495000D01*
X132950000Y-71495000D01*
X132935297Y-71494278D01*
X132920736Y-71492118D01*
X132906457Y-71488541D01*
X132892597Y-71483582D01*
X132879290Y-71477288D01*
X132866664Y-71469720D01*
X132854841Y-71460952D01*
X132843934Y-71451066D01*
X132834048Y-71440159D01*
X132825280Y-71428336D01*
X132817712Y-71415710D01*
X132811418Y-71402403D01*
X132806459Y-71388543D01*
X132802882Y-71374264D01*
X132800722Y-71359703D01*
X132800000Y-71345000D01*
X132800000Y-71045000D01*
X132800722Y-71030297D01*
X132802882Y-71015736D01*
X132806459Y-71001457D01*
X132811418Y-70987597D01*
X132817712Y-70974290D01*
X132825280Y-70961664D01*
X132834048Y-70949841D01*
X132843934Y-70938934D01*
X132854841Y-70929048D01*
X132866664Y-70920280D01*
X132879290Y-70912712D01*
X132892597Y-70906418D01*
X132906457Y-70901459D01*
X132920736Y-70897882D01*
X132935297Y-70895722D01*
X132950000Y-70895000D01*
X134600000Y-70895000D01*
X134614703Y-70895722D01*
G37*
G36*
X134614703Y-72165722D02*
G01*
X134629264Y-72167882D01*
X134643543Y-72171459D01*
X134657403Y-72176418D01*
X134670710Y-72182712D01*
X134683336Y-72190280D01*
X134695159Y-72199048D01*
X134706066Y-72208934D01*
X134715952Y-72219841D01*
X134724720Y-72231664D01*
X134732288Y-72244290D01*
X134738582Y-72257597D01*
X134743541Y-72271457D01*
X134747118Y-72285736D01*
X134749278Y-72300297D01*
X134750000Y-72315000D01*
X134750000Y-72615000D01*
X134749278Y-72629703D01*
X134747118Y-72644264D01*
X134743541Y-72658543D01*
X134738582Y-72672403D01*
X134732288Y-72685710D01*
X134724720Y-72698336D01*
X134715952Y-72710159D01*
X134706066Y-72721066D01*
X134695159Y-72730952D01*
X134683336Y-72739720D01*
X134670710Y-72747288D01*
X134657403Y-72753582D01*
X134643543Y-72758541D01*
X134629264Y-72762118D01*
X134614703Y-72764278D01*
X134600000Y-72765000D01*
X132950000Y-72765000D01*
X132935297Y-72764278D01*
X132920736Y-72762118D01*
X132906457Y-72758541D01*
X132892597Y-72753582D01*
X132879290Y-72747288D01*
X132866664Y-72739720D01*
X132854841Y-72730952D01*
X132843934Y-72721066D01*
X132834048Y-72710159D01*
X132825280Y-72698336D01*
X132817712Y-72685710D01*
X132811418Y-72672403D01*
X132806459Y-72658543D01*
X132802882Y-72644264D01*
X132800722Y-72629703D01*
X132800000Y-72615000D01*
X132800000Y-72315000D01*
X132800722Y-72300297D01*
X132802882Y-72285736D01*
X132806459Y-72271457D01*
X132811418Y-72257597D01*
X132817712Y-72244290D01*
X132825280Y-72231664D01*
X132834048Y-72219841D01*
X132843934Y-72208934D01*
X132854841Y-72199048D01*
X132866664Y-72190280D01*
X132879290Y-72182712D01*
X132892597Y-72176418D01*
X132906457Y-72171459D01*
X132920736Y-72167882D01*
X132935297Y-72165722D01*
X132950000Y-72165000D01*
X134600000Y-72165000D01*
X134614703Y-72165722D01*
G37*
G36*
X134614703Y-73435722D02*
G01*
X134629264Y-73437882D01*
X134643543Y-73441459D01*
X134657403Y-73446418D01*
X134670710Y-73452712D01*
X134683336Y-73460280D01*
X134695159Y-73469048D01*
X134706066Y-73478934D01*
X134715952Y-73489841D01*
X134724720Y-73501664D01*
X134732288Y-73514290D01*
X134738582Y-73527597D01*
X134743541Y-73541457D01*
X134747118Y-73555736D01*
X134749278Y-73570297D01*
X134750000Y-73585000D01*
X134750000Y-73885000D01*
X134749278Y-73899703D01*
X134747118Y-73914264D01*
X134743541Y-73928543D01*
X134738582Y-73942403D01*
X134732288Y-73955710D01*
X134724720Y-73968336D01*
X134715952Y-73980159D01*
X134706066Y-73991066D01*
X134695159Y-74000952D01*
X134683336Y-74009720D01*
X134670710Y-74017288D01*
X134657403Y-74023582D01*
X134643543Y-74028541D01*
X134629264Y-74032118D01*
X134614703Y-74034278D01*
X134600000Y-74035000D01*
X132950000Y-74035000D01*
X132935297Y-74034278D01*
X132920736Y-74032118D01*
X132906457Y-74028541D01*
X132892597Y-74023582D01*
X132879290Y-74017288D01*
X132866664Y-74009720D01*
X132854841Y-74000952D01*
X132843934Y-73991066D01*
X132834048Y-73980159D01*
X132825280Y-73968336D01*
X132817712Y-73955710D01*
X132811418Y-73942403D01*
X132806459Y-73928543D01*
X132802882Y-73914264D01*
X132800722Y-73899703D01*
X132800000Y-73885000D01*
X132800000Y-73585000D01*
X132800722Y-73570297D01*
X132802882Y-73555736D01*
X132806459Y-73541457D01*
X132811418Y-73527597D01*
X132817712Y-73514290D01*
X132825280Y-73501664D01*
X132834048Y-73489841D01*
X132843934Y-73478934D01*
X132854841Y-73469048D01*
X132866664Y-73460280D01*
X132879290Y-73452712D01*
X132892597Y-73446418D01*
X132906457Y-73441459D01*
X132920736Y-73437882D01*
X132935297Y-73435722D01*
X132950000Y-73435000D01*
X134600000Y-73435000D01*
X134614703Y-73435722D01*
G37*
G36*
X134614703Y-74705722D02*
G01*
X134629264Y-74707882D01*
X134643543Y-74711459D01*
X134657403Y-74716418D01*
X134670710Y-74722712D01*
X134683336Y-74730280D01*
X134695159Y-74739048D01*
X134706066Y-74748934D01*
X134715952Y-74759841D01*
X134724720Y-74771664D01*
X134732288Y-74784290D01*
X134738582Y-74797597D01*
X134743541Y-74811457D01*
X134747118Y-74825736D01*
X134749278Y-74840297D01*
X134750000Y-74855000D01*
X134750000Y-75155000D01*
X134749278Y-75169703D01*
X134747118Y-75184264D01*
X134743541Y-75198543D01*
X134738582Y-75212403D01*
X134732288Y-75225710D01*
X134724720Y-75238336D01*
X134715952Y-75250159D01*
X134706066Y-75261066D01*
X134695159Y-75270952D01*
X134683336Y-75279720D01*
X134670710Y-75287288D01*
X134657403Y-75293582D01*
X134643543Y-75298541D01*
X134629264Y-75302118D01*
X134614703Y-75304278D01*
X134600000Y-75305000D01*
X132950000Y-75305000D01*
X132935297Y-75304278D01*
X132920736Y-75302118D01*
X132906457Y-75298541D01*
X132892597Y-75293582D01*
X132879290Y-75287288D01*
X132866664Y-75279720D01*
X132854841Y-75270952D01*
X132843934Y-75261066D01*
X132834048Y-75250159D01*
X132825280Y-75238336D01*
X132817712Y-75225710D01*
X132811418Y-75212403D01*
X132806459Y-75198543D01*
X132802882Y-75184264D01*
X132800722Y-75169703D01*
X132800000Y-75155000D01*
X132800000Y-74855000D01*
X132800722Y-74840297D01*
X132802882Y-74825736D01*
X132806459Y-74811457D01*
X132811418Y-74797597D01*
X132817712Y-74784290D01*
X132825280Y-74771664D01*
X132834048Y-74759841D01*
X132843934Y-74748934D01*
X132854841Y-74739048D01*
X132866664Y-74730280D01*
X132879290Y-74722712D01*
X132892597Y-74716418D01*
X132906457Y-74711459D01*
X132920736Y-74707882D01*
X132935297Y-74705722D01*
X132950000Y-74705000D01*
X134600000Y-74705000D01*
X134614703Y-74705722D01*
G37*
G36*
X142949505Y-70601204D02*
G01*
X142973773Y-70604804D01*
X142997572Y-70610765D01*
X143020671Y-70619030D01*
X143042850Y-70629520D01*
X143063893Y-70642132D01*
X143083599Y-70656747D01*
X143101777Y-70673223D01*
X143118253Y-70691401D01*
X143132868Y-70711107D01*
X143145480Y-70732150D01*
X143155970Y-70754329D01*
X143164235Y-70777428D01*
X143170196Y-70801227D01*
X143173796Y-70825495D01*
X143175000Y-70849999D01*
X143175000Y-71550001D01*
X143173796Y-71574505D01*
X143170196Y-71598773D01*
X143164235Y-71622572D01*
X143155970Y-71645671D01*
X143145480Y-71667850D01*
X143132868Y-71688893D01*
X143118253Y-71708599D01*
X143101777Y-71726777D01*
X143083599Y-71743253D01*
X143063893Y-71757868D01*
X143042850Y-71770480D01*
X143020671Y-71780970D01*
X142997572Y-71789235D01*
X142973773Y-71795196D01*
X142949505Y-71798796D01*
X142925001Y-71800000D01*
X141624999Y-71800000D01*
X141600495Y-71798796D01*
X141576227Y-71795196D01*
X141552428Y-71789235D01*
X141529329Y-71780970D01*
X141507150Y-71770480D01*
X141486107Y-71757868D01*
X141466401Y-71743253D01*
X141448223Y-71726777D01*
X141431747Y-71708599D01*
X141417132Y-71688893D01*
X141404520Y-71667850D01*
X141394030Y-71645671D01*
X141385765Y-71622572D01*
X141379804Y-71598773D01*
X141376204Y-71574505D01*
X141375000Y-71550001D01*
X141375000Y-70849999D01*
X141376204Y-70825495D01*
X141379804Y-70801227D01*
X141385765Y-70777428D01*
X141394030Y-70754329D01*
X141404520Y-70732150D01*
X141417132Y-70711107D01*
X141431747Y-70691401D01*
X141448223Y-70673223D01*
X141466401Y-70656747D01*
X141486107Y-70642132D01*
X141507150Y-70629520D01*
X141529329Y-70619030D01*
X141552428Y-70610765D01*
X141576227Y-70604804D01*
X141600495Y-70601204D01*
X141624999Y-70600000D01*
X142925001Y-70600000D01*
X142949505Y-70601204D01*
G37*
G36*
X142949505Y-76201204D02*
G01*
X142973773Y-76204804D01*
X142997572Y-76210765D01*
X143020671Y-76219030D01*
X143042850Y-76229520D01*
X143063893Y-76242132D01*
X143083599Y-76256747D01*
X143101777Y-76273223D01*
X143118253Y-76291401D01*
X143132868Y-76311107D01*
X143145480Y-76332150D01*
X143155970Y-76354329D01*
X143164235Y-76377428D01*
X143170196Y-76401227D01*
X143173796Y-76425495D01*
X143175000Y-76449999D01*
X143175000Y-77150001D01*
X143173796Y-77174505D01*
X143170196Y-77198773D01*
X143164235Y-77222572D01*
X143155970Y-77245671D01*
X143145480Y-77267850D01*
X143132868Y-77288893D01*
X143118253Y-77308599D01*
X143101777Y-77326777D01*
X143083599Y-77343253D01*
X143063893Y-77357868D01*
X143042850Y-77370480D01*
X143020671Y-77380970D01*
X142997572Y-77389235D01*
X142973773Y-77395196D01*
X142949505Y-77398796D01*
X142925001Y-77400000D01*
X141624999Y-77400000D01*
X141600495Y-77398796D01*
X141576227Y-77395196D01*
X141552428Y-77389235D01*
X141529329Y-77380970D01*
X141507150Y-77370480D01*
X141486107Y-77357868D01*
X141466401Y-77343253D01*
X141448223Y-77326777D01*
X141431747Y-77308599D01*
X141417132Y-77288893D01*
X141404520Y-77267850D01*
X141394030Y-77245671D01*
X141385765Y-77222572D01*
X141379804Y-77198773D01*
X141376204Y-77174505D01*
X141375000Y-77150001D01*
X141375000Y-76449999D01*
X141376204Y-76425495D01*
X141379804Y-76401227D01*
X141385765Y-76377428D01*
X141394030Y-76354329D01*
X141404520Y-76332150D01*
X141417132Y-76311107D01*
X141431747Y-76291401D01*
X141448223Y-76273223D01*
X141466401Y-76256747D01*
X141486107Y-76242132D01*
X141507150Y-76229520D01*
X141529329Y-76219030D01*
X141552428Y-76210765D01*
X141576227Y-76204804D01*
X141600495Y-76201204D01*
X141624999Y-76200000D01*
X142925001Y-76200000D01*
X142949505Y-76201204D01*
G37*
G36*
X139039703Y-72200722D02*
G01*
X139054264Y-72202882D01*
X139068543Y-72206459D01*
X139082403Y-72211418D01*
X139095710Y-72217712D01*
X139108336Y-72225280D01*
X139120159Y-72234048D01*
X139131066Y-72243934D01*
X139140952Y-72254841D01*
X139149720Y-72266664D01*
X139157288Y-72279290D01*
X139163582Y-72292597D01*
X139168541Y-72306457D01*
X139172118Y-72320736D01*
X139174278Y-72335297D01*
X139175000Y-72350000D01*
X139175000Y-72650000D01*
X139174278Y-72664703D01*
X139172118Y-72679264D01*
X139168541Y-72693543D01*
X139163582Y-72707403D01*
X139157288Y-72720710D01*
X139149720Y-72733336D01*
X139140952Y-72745159D01*
X139131066Y-72756066D01*
X139120159Y-72765952D01*
X139108336Y-72774720D01*
X139095710Y-72782288D01*
X139082403Y-72788582D01*
X139068543Y-72793541D01*
X139054264Y-72797118D01*
X139039703Y-72799278D01*
X139025000Y-72800000D01*
X137775000Y-72800000D01*
X137760297Y-72799278D01*
X137745736Y-72797118D01*
X137731457Y-72793541D01*
X137717597Y-72788582D01*
X137704290Y-72782288D01*
X137691664Y-72774720D01*
X137679841Y-72765952D01*
X137668934Y-72756066D01*
X137659048Y-72745159D01*
X137650280Y-72733336D01*
X137642712Y-72720710D01*
X137636418Y-72707403D01*
X137631459Y-72693543D01*
X137627882Y-72679264D01*
X137625722Y-72664703D01*
X137625000Y-72650000D01*
X137625000Y-72350000D01*
X137625722Y-72335297D01*
X137627882Y-72320736D01*
X137631459Y-72306457D01*
X137636418Y-72292597D01*
X137642712Y-72279290D01*
X137650280Y-72266664D01*
X137659048Y-72254841D01*
X137668934Y-72243934D01*
X137679841Y-72234048D01*
X137691664Y-72225280D01*
X137704290Y-72217712D01*
X137717597Y-72211418D01*
X137731457Y-72206459D01*
X137745736Y-72202882D01*
X137760297Y-72200722D01*
X137775000Y-72200000D01*
X139025000Y-72200000D01*
X139039703Y-72200722D01*
G37*
G36*
X139039703Y-73200722D02*
G01*
X139054264Y-73202882D01*
X139068543Y-73206459D01*
X139082403Y-73211418D01*
X139095710Y-73217712D01*
X139108336Y-73225280D01*
X139120159Y-73234048D01*
X139131066Y-73243934D01*
X139140952Y-73254841D01*
X139149720Y-73266664D01*
X139157288Y-73279290D01*
X139163582Y-73292597D01*
X139168541Y-73306457D01*
X139172118Y-73320736D01*
X139174278Y-73335297D01*
X139175000Y-73350000D01*
X139175000Y-73650000D01*
X139174278Y-73664703D01*
X139172118Y-73679264D01*
X139168541Y-73693543D01*
X139163582Y-73707403D01*
X139157288Y-73720710D01*
X139149720Y-73733336D01*
X139140952Y-73745159D01*
X139131066Y-73756066D01*
X139120159Y-73765952D01*
X139108336Y-73774720D01*
X139095710Y-73782288D01*
X139082403Y-73788582D01*
X139068543Y-73793541D01*
X139054264Y-73797118D01*
X139039703Y-73799278D01*
X139025000Y-73800000D01*
X137775000Y-73800000D01*
X137760297Y-73799278D01*
X137745736Y-73797118D01*
X137731457Y-73793541D01*
X137717597Y-73788582D01*
X137704290Y-73782288D01*
X137691664Y-73774720D01*
X137679841Y-73765952D01*
X137668934Y-73756066D01*
X137659048Y-73745159D01*
X137650280Y-73733336D01*
X137642712Y-73720710D01*
X137636418Y-73707403D01*
X137631459Y-73693543D01*
X137627882Y-73679264D01*
X137625722Y-73664703D01*
X137625000Y-73650000D01*
X137625000Y-73350000D01*
X137625722Y-73335297D01*
X137627882Y-73320736D01*
X137631459Y-73306457D01*
X137636418Y-73292597D01*
X137642712Y-73279290D01*
X137650280Y-73266664D01*
X137659048Y-73254841D01*
X137668934Y-73243934D01*
X137679841Y-73234048D01*
X137691664Y-73225280D01*
X137704290Y-73217712D01*
X137717597Y-73211418D01*
X137731457Y-73206459D01*
X137745736Y-73202882D01*
X137760297Y-73200722D01*
X137775000Y-73200000D01*
X139025000Y-73200000D01*
X139039703Y-73200722D01*
G37*
G36*
X139039703Y-74200722D02*
G01*
X139054264Y-74202882D01*
X139068543Y-74206459D01*
X139082403Y-74211418D01*
X139095710Y-74217712D01*
X139108336Y-74225280D01*
X139120159Y-74234048D01*
X139131066Y-74243934D01*
X139140952Y-74254841D01*
X139149720Y-74266664D01*
X139157288Y-74279290D01*
X139163582Y-74292597D01*
X139168541Y-74306457D01*
X139172118Y-74320736D01*
X139174278Y-74335297D01*
X139175000Y-74350000D01*
X139175000Y-74650000D01*
X139174278Y-74664703D01*
X139172118Y-74679264D01*
X139168541Y-74693543D01*
X139163582Y-74707403D01*
X139157288Y-74720710D01*
X139149720Y-74733336D01*
X139140952Y-74745159D01*
X139131066Y-74756066D01*
X139120159Y-74765952D01*
X139108336Y-74774720D01*
X139095710Y-74782288D01*
X139082403Y-74788582D01*
X139068543Y-74793541D01*
X139054264Y-74797118D01*
X139039703Y-74799278D01*
X139025000Y-74800000D01*
X137775000Y-74800000D01*
X137760297Y-74799278D01*
X137745736Y-74797118D01*
X137731457Y-74793541D01*
X137717597Y-74788582D01*
X137704290Y-74782288D01*
X137691664Y-74774720D01*
X137679841Y-74765952D01*
X137668934Y-74756066D01*
X137659048Y-74745159D01*
X137650280Y-74733336D01*
X137642712Y-74720710D01*
X137636418Y-74707403D01*
X137631459Y-74693543D01*
X137627882Y-74679264D01*
X137625722Y-74664703D01*
X137625000Y-74650000D01*
X137625000Y-74350000D01*
X137625722Y-74335297D01*
X137627882Y-74320736D01*
X137631459Y-74306457D01*
X137636418Y-74292597D01*
X137642712Y-74279290D01*
X137650280Y-74266664D01*
X137659048Y-74254841D01*
X137668934Y-74243934D01*
X137679841Y-74234048D01*
X137691664Y-74225280D01*
X137704290Y-74217712D01*
X137717597Y-74211418D01*
X137731457Y-74206459D01*
X137745736Y-74202882D01*
X137760297Y-74200722D01*
X137775000Y-74200000D01*
X139025000Y-74200000D01*
X139039703Y-74200722D01*
G37*
G36*
X139039703Y-75200722D02*
G01*
X139054264Y-75202882D01*
X139068543Y-75206459D01*
X139082403Y-75211418D01*
X139095710Y-75217712D01*
X139108336Y-75225280D01*
X139120159Y-75234048D01*
X139131066Y-75243934D01*
X139140952Y-75254841D01*
X139149720Y-75266664D01*
X139157288Y-75279290D01*
X139163582Y-75292597D01*
X139168541Y-75306457D01*
X139172118Y-75320736D01*
X139174278Y-75335297D01*
X139175000Y-75350000D01*
X139175000Y-75650000D01*
X139174278Y-75664703D01*
X139172118Y-75679264D01*
X139168541Y-75693543D01*
X139163582Y-75707403D01*
X139157288Y-75720710D01*
X139149720Y-75733336D01*
X139140952Y-75745159D01*
X139131066Y-75756066D01*
X139120159Y-75765952D01*
X139108336Y-75774720D01*
X139095710Y-75782288D01*
X139082403Y-75788582D01*
X139068543Y-75793541D01*
X139054264Y-75797118D01*
X139039703Y-75799278D01*
X139025000Y-75800000D01*
X137775000Y-75800000D01*
X137760297Y-75799278D01*
X137745736Y-75797118D01*
X137731457Y-75793541D01*
X137717597Y-75788582D01*
X137704290Y-75782288D01*
X137691664Y-75774720D01*
X137679841Y-75765952D01*
X137668934Y-75756066D01*
X137659048Y-75745159D01*
X137650280Y-75733336D01*
X137642712Y-75720710D01*
X137636418Y-75707403D01*
X137631459Y-75693543D01*
X137627882Y-75679264D01*
X137625722Y-75664703D01*
X137625000Y-75650000D01*
X137625000Y-75350000D01*
X137625722Y-75335297D01*
X137627882Y-75320736D01*
X137631459Y-75306457D01*
X137636418Y-75292597D01*
X137642712Y-75279290D01*
X137650280Y-75266664D01*
X137659048Y-75254841D01*
X137668934Y-75243934D01*
X137679841Y-75234048D01*
X137691664Y-75225280D01*
X137704290Y-75217712D01*
X137717597Y-75211418D01*
X137731457Y-75206459D01*
X137745736Y-75202882D01*
X137760297Y-75200722D01*
X137775000Y-75200000D01*
X139025000Y-75200000D01*
X139039703Y-75200722D01*
G37*
G36*
X129085779Y-76626144D02*
G01*
X129108834Y-76629563D01*
X129131443Y-76635227D01*
X129153387Y-76643079D01*
X129174457Y-76653044D01*
X129194448Y-76665026D01*
X129213168Y-76678910D01*
X129230438Y-76694562D01*
X129246090Y-76711832D01*
X129259974Y-76730552D01*
X129271956Y-76750543D01*
X129281921Y-76771613D01*
X129289773Y-76793557D01*
X129295437Y-76816166D01*
X129298856Y-76839221D01*
X129300000Y-76862500D01*
X129300000Y-77337500D01*
X129298856Y-77360779D01*
X129295437Y-77383834D01*
X129289773Y-77406443D01*
X129281921Y-77428387D01*
X129271956Y-77449457D01*
X129259974Y-77469448D01*
X129246090Y-77488168D01*
X129230438Y-77505438D01*
X129213168Y-77521090D01*
X129194448Y-77534974D01*
X129174457Y-77546956D01*
X129153387Y-77556921D01*
X129131443Y-77564773D01*
X129108834Y-77570437D01*
X129085779Y-77573856D01*
X129062500Y-77575000D01*
X128487500Y-77575000D01*
X128464221Y-77573856D01*
X128441166Y-77570437D01*
X128418557Y-77564773D01*
X128396613Y-77556921D01*
X128375543Y-77546956D01*
X128355552Y-77534974D01*
X128336832Y-77521090D01*
X128319562Y-77505438D01*
X128303910Y-77488168D01*
X128290026Y-77469448D01*
X128278044Y-77449457D01*
X128268079Y-77428387D01*
X128260227Y-77406443D01*
X128254563Y-77383834D01*
X128251144Y-77360779D01*
X128250000Y-77337500D01*
X128250000Y-76862500D01*
X128251144Y-76839221D01*
X128254563Y-76816166D01*
X128260227Y-76793557D01*
X128268079Y-76771613D01*
X128278044Y-76750543D01*
X128290026Y-76730552D01*
X128303910Y-76711832D01*
X128319562Y-76694562D01*
X128336832Y-76678910D01*
X128355552Y-76665026D01*
X128375543Y-76653044D01*
X128396613Y-76643079D01*
X128418557Y-76635227D01*
X128441166Y-76629563D01*
X128464221Y-76626144D01*
X128487500Y-76625000D01*
X129062500Y-76625000D01*
X129085779Y-76626144D01*
G37*
G36*
X127335779Y-76626144D02*
G01*
X127358834Y-76629563D01*
X127381443Y-76635227D01*
X127403387Y-76643079D01*
X127424457Y-76653044D01*
X127444448Y-76665026D01*
X127463168Y-76678910D01*
X127480438Y-76694562D01*
X127496090Y-76711832D01*
X127509974Y-76730552D01*
X127521956Y-76750543D01*
X127531921Y-76771613D01*
X127539773Y-76793557D01*
X127545437Y-76816166D01*
X127548856Y-76839221D01*
X127550000Y-76862500D01*
X127550000Y-77337500D01*
X127548856Y-77360779D01*
X127545437Y-77383834D01*
X127539773Y-77406443D01*
X127531921Y-77428387D01*
X127521956Y-77449457D01*
X127509974Y-77469448D01*
X127496090Y-77488168D01*
X127480438Y-77505438D01*
X127463168Y-77521090D01*
X127444448Y-77534974D01*
X127424457Y-77546956D01*
X127403387Y-77556921D01*
X127381443Y-77564773D01*
X127358834Y-77570437D01*
X127335779Y-77573856D01*
X127312500Y-77575000D01*
X126737500Y-77575000D01*
X126714221Y-77573856D01*
X126691166Y-77570437D01*
X126668557Y-77564773D01*
X126646613Y-77556921D01*
X126625543Y-77546956D01*
X126605552Y-77534974D01*
X126586832Y-77521090D01*
X126569562Y-77505438D01*
X126553910Y-77488168D01*
X126540026Y-77469448D01*
X126528044Y-77449457D01*
X126518079Y-77428387D01*
X126510227Y-77406443D01*
X126504563Y-77383834D01*
X126501144Y-77360779D01*
X126500000Y-77337500D01*
X126500000Y-76862500D01*
X126501144Y-76839221D01*
X126504563Y-76816166D01*
X126510227Y-76793557D01*
X126518079Y-76771613D01*
X126528044Y-76750543D01*
X126540026Y-76730552D01*
X126553910Y-76711832D01*
X126569562Y-76694562D01*
X126586832Y-76678910D01*
X126605552Y-76665026D01*
X126625543Y-76653044D01*
X126646613Y-76643079D01*
X126668557Y-76635227D01*
X126691166Y-76629563D01*
X126714221Y-76626144D01*
X126737500Y-76625000D01*
X127312500Y-76625000D01*
X127335779Y-76626144D01*
G37*
G36*
X135985779Y-76526144D02*
G01*
X136008834Y-76529563D01*
X136031443Y-76535227D01*
X136053387Y-76543079D01*
X136074457Y-76553044D01*
X136094448Y-76565026D01*
X136113168Y-76578910D01*
X136130438Y-76594562D01*
X136146090Y-76611832D01*
X136159974Y-76630552D01*
X136171956Y-76650543D01*
X136181921Y-76671613D01*
X136189773Y-76693557D01*
X136195437Y-76716166D01*
X136198856Y-76739221D01*
X136200000Y-76762500D01*
X136200000Y-77237500D01*
X136198856Y-77260779D01*
X136195437Y-77283834D01*
X136189773Y-77306443D01*
X136181921Y-77328387D01*
X136171956Y-77349457D01*
X136159974Y-77369448D01*
X136146090Y-77388168D01*
X136130438Y-77405438D01*
X136113168Y-77421090D01*
X136094448Y-77434974D01*
X136074457Y-77446956D01*
X136053387Y-77456921D01*
X136031443Y-77464773D01*
X136008834Y-77470437D01*
X135985779Y-77473856D01*
X135962500Y-77475000D01*
X135387500Y-77475000D01*
X135364221Y-77473856D01*
X135341166Y-77470437D01*
X135318557Y-77464773D01*
X135296613Y-77456921D01*
X135275543Y-77446956D01*
X135255552Y-77434974D01*
X135236832Y-77421090D01*
X135219562Y-77405438D01*
X135203910Y-77388168D01*
X135190026Y-77369448D01*
X135178044Y-77349457D01*
X135168079Y-77328387D01*
X135160227Y-77306443D01*
X135154563Y-77283834D01*
X135151144Y-77260779D01*
X135150000Y-77237500D01*
X135150000Y-76762500D01*
X135151144Y-76739221D01*
X135154563Y-76716166D01*
X135160227Y-76693557D01*
X135168079Y-76671613D01*
X135178044Y-76650543D01*
X135190026Y-76630552D01*
X135203910Y-76611832D01*
X135219562Y-76594562D01*
X135236832Y-76578910D01*
X135255552Y-76565026D01*
X135275543Y-76553044D01*
X135296613Y-76543079D01*
X135318557Y-76535227D01*
X135341166Y-76529563D01*
X135364221Y-76526144D01*
X135387500Y-76525000D01*
X135962500Y-76525000D01*
X135985779Y-76526144D01*
G37*
G36*
X134235779Y-76526144D02*
G01*
X134258834Y-76529563D01*
X134281443Y-76535227D01*
X134303387Y-76543079D01*
X134324457Y-76553044D01*
X134344448Y-76565026D01*
X134363168Y-76578910D01*
X134380438Y-76594562D01*
X134396090Y-76611832D01*
X134409974Y-76630552D01*
X134421956Y-76650543D01*
X134431921Y-76671613D01*
X134439773Y-76693557D01*
X134445437Y-76716166D01*
X134448856Y-76739221D01*
X134450000Y-76762500D01*
X134450000Y-77237500D01*
X134448856Y-77260779D01*
X134445437Y-77283834D01*
X134439773Y-77306443D01*
X134431921Y-77328387D01*
X134421956Y-77349457D01*
X134409974Y-77369448D01*
X134396090Y-77388168D01*
X134380438Y-77405438D01*
X134363168Y-77421090D01*
X134344448Y-77434974D01*
X134324457Y-77446956D01*
X134303387Y-77456921D01*
X134281443Y-77464773D01*
X134258834Y-77470437D01*
X134235779Y-77473856D01*
X134212500Y-77475000D01*
X133637500Y-77475000D01*
X133614221Y-77473856D01*
X133591166Y-77470437D01*
X133568557Y-77464773D01*
X133546613Y-77456921D01*
X133525543Y-77446956D01*
X133505552Y-77434974D01*
X133486832Y-77421090D01*
X133469562Y-77405438D01*
X133453910Y-77388168D01*
X133440026Y-77369448D01*
X133428044Y-77349457D01*
X133418079Y-77328387D01*
X133410227Y-77306443D01*
X133404563Y-77283834D01*
X133401144Y-77260779D01*
X133400000Y-77237500D01*
X133400000Y-76762500D01*
X133401144Y-76739221D01*
X133404563Y-76716166D01*
X133410227Y-76693557D01*
X133418079Y-76671613D01*
X133428044Y-76650543D01*
X133440026Y-76630552D01*
X133453910Y-76611832D01*
X133469562Y-76594562D01*
X133486832Y-76578910D01*
X133505552Y-76565026D01*
X133525543Y-76553044D01*
X133546613Y-76543079D01*
X133568557Y-76535227D01*
X133591166Y-76529563D01*
X133614221Y-76526144D01*
X133637500Y-76525000D01*
X134212500Y-76525000D01*
X134235779Y-76526144D01*
G37*
G36*
X128885779Y-67226144D02*
G01*
X128908834Y-67229563D01*
X128931443Y-67235227D01*
X128953387Y-67243079D01*
X128974457Y-67253044D01*
X128994448Y-67265026D01*
X129013168Y-67278910D01*
X129030438Y-67294562D01*
X129046090Y-67311832D01*
X129059974Y-67330552D01*
X129071956Y-67350543D01*
X129081921Y-67371613D01*
X129089773Y-67393557D01*
X129095437Y-67416166D01*
X129098856Y-67439221D01*
X129100000Y-67462500D01*
X129100000Y-67937500D01*
X129098856Y-67960779D01*
X129095437Y-67983834D01*
X129089773Y-68006443D01*
X129081921Y-68028387D01*
X129071956Y-68049457D01*
X129059974Y-68069448D01*
X129046090Y-68088168D01*
X129030438Y-68105438D01*
X129013168Y-68121090D01*
X128994448Y-68134974D01*
X128974457Y-68146956D01*
X128953387Y-68156921D01*
X128931443Y-68164773D01*
X128908834Y-68170437D01*
X128885779Y-68173856D01*
X128862500Y-68175000D01*
X128287500Y-68175000D01*
X128264221Y-68173856D01*
X128241166Y-68170437D01*
X128218557Y-68164773D01*
X128196613Y-68156921D01*
X128175543Y-68146956D01*
X128155552Y-68134974D01*
X128136832Y-68121090D01*
X128119562Y-68105438D01*
X128103910Y-68088168D01*
X128090026Y-68069448D01*
X128078044Y-68049457D01*
X128068079Y-68028387D01*
X128060227Y-68006443D01*
X128054563Y-67983834D01*
X128051144Y-67960779D01*
X128050000Y-67937500D01*
X128050000Y-67462500D01*
X128051144Y-67439221D01*
X128054563Y-67416166D01*
X128060227Y-67393557D01*
X128068079Y-67371613D01*
X128078044Y-67350543D01*
X128090026Y-67330552D01*
X128103910Y-67311832D01*
X128119562Y-67294562D01*
X128136832Y-67278910D01*
X128155552Y-67265026D01*
X128175543Y-67253044D01*
X128196613Y-67243079D01*
X128218557Y-67235227D01*
X128241166Y-67229563D01*
X128264221Y-67226144D01*
X128287500Y-67225000D01*
X128862500Y-67225000D01*
X128885779Y-67226144D01*
G37*
G36*
X127135779Y-67226144D02*
G01*
X127158834Y-67229563D01*
X127181443Y-67235227D01*
X127203387Y-67243079D01*
X127224457Y-67253044D01*
X127244448Y-67265026D01*
X127263168Y-67278910D01*
X127280438Y-67294562D01*
X127296090Y-67311832D01*
X127309974Y-67330552D01*
X127321956Y-67350543D01*
X127331921Y-67371613D01*
X127339773Y-67393557D01*
X127345437Y-67416166D01*
X127348856Y-67439221D01*
X127350000Y-67462500D01*
X127350000Y-67937500D01*
X127348856Y-67960779D01*
X127345437Y-67983834D01*
X127339773Y-68006443D01*
X127331921Y-68028387D01*
X127321956Y-68049457D01*
X127309974Y-68069448D01*
X127296090Y-68088168D01*
X127280438Y-68105438D01*
X127263168Y-68121090D01*
X127244448Y-68134974D01*
X127224457Y-68146956D01*
X127203387Y-68156921D01*
X127181443Y-68164773D01*
X127158834Y-68170437D01*
X127135779Y-68173856D01*
X127112500Y-68175000D01*
X126537500Y-68175000D01*
X126514221Y-68173856D01*
X126491166Y-68170437D01*
X126468557Y-68164773D01*
X126446613Y-68156921D01*
X126425543Y-68146956D01*
X126405552Y-68134974D01*
X126386832Y-68121090D01*
X126369562Y-68105438D01*
X126353910Y-68088168D01*
X126340026Y-68069448D01*
X126328044Y-68049457D01*
X126318079Y-68028387D01*
X126310227Y-68006443D01*
X126304563Y-67983834D01*
X126301144Y-67960779D01*
X126300000Y-67937500D01*
X126300000Y-67462500D01*
X126301144Y-67439221D01*
X126304563Y-67416166D01*
X126310227Y-67393557D01*
X126318079Y-67371613D01*
X126328044Y-67350543D01*
X126340026Y-67330552D01*
X126353910Y-67311832D01*
X126369562Y-67294562D01*
X126386832Y-67278910D01*
X126405552Y-67265026D01*
X126425543Y-67253044D01*
X126446613Y-67243079D01*
X126468557Y-67235227D01*
X126491166Y-67229563D01*
X126514221Y-67226144D01*
X126537500Y-67225000D01*
X127112500Y-67225000D01*
X127135779Y-67226144D01*
G37*
G36*
X135085779Y-67226144D02*
G01*
X135108834Y-67229563D01*
X135131443Y-67235227D01*
X135153387Y-67243079D01*
X135174457Y-67253044D01*
X135194448Y-67265026D01*
X135213168Y-67278910D01*
X135230438Y-67294562D01*
X135246090Y-67311832D01*
X135259974Y-67330552D01*
X135271956Y-67350543D01*
X135281921Y-67371613D01*
X135289773Y-67393557D01*
X135295437Y-67416166D01*
X135298856Y-67439221D01*
X135300000Y-67462500D01*
X135300000Y-67937500D01*
X135298856Y-67960779D01*
X135295437Y-67983834D01*
X135289773Y-68006443D01*
X135281921Y-68028387D01*
X135271956Y-68049457D01*
X135259974Y-68069448D01*
X135246090Y-68088168D01*
X135230438Y-68105438D01*
X135213168Y-68121090D01*
X135194448Y-68134974D01*
X135174457Y-68146956D01*
X135153387Y-68156921D01*
X135131443Y-68164773D01*
X135108834Y-68170437D01*
X135085779Y-68173856D01*
X135062500Y-68175000D01*
X134487500Y-68175000D01*
X134464221Y-68173856D01*
X134441166Y-68170437D01*
X134418557Y-68164773D01*
X134396613Y-68156921D01*
X134375543Y-68146956D01*
X134355552Y-68134974D01*
X134336832Y-68121090D01*
X134319562Y-68105438D01*
X134303910Y-68088168D01*
X134290026Y-68069448D01*
X134278044Y-68049457D01*
X134268079Y-68028387D01*
X134260227Y-68006443D01*
X134254563Y-67983834D01*
X134251144Y-67960779D01*
X134250000Y-67937500D01*
X134250000Y-67462500D01*
X134251144Y-67439221D01*
X134254563Y-67416166D01*
X134260227Y-67393557D01*
X134268079Y-67371613D01*
X134278044Y-67350543D01*
X134290026Y-67330552D01*
X134303910Y-67311832D01*
X134319562Y-67294562D01*
X134336832Y-67278910D01*
X134355552Y-67265026D01*
X134375543Y-67253044D01*
X134396613Y-67243079D01*
X134418557Y-67235227D01*
X134441166Y-67229563D01*
X134464221Y-67226144D01*
X134487500Y-67225000D01*
X135062500Y-67225000D01*
X135085779Y-67226144D01*
G37*
G36*
X133335779Y-67226144D02*
G01*
X133358834Y-67229563D01*
X133381443Y-67235227D01*
X133403387Y-67243079D01*
X133424457Y-67253044D01*
X133444448Y-67265026D01*
X133463168Y-67278910D01*
X133480438Y-67294562D01*
X133496090Y-67311832D01*
X133509974Y-67330552D01*
X133521956Y-67350543D01*
X133531921Y-67371613D01*
X133539773Y-67393557D01*
X133545437Y-67416166D01*
X133548856Y-67439221D01*
X133550000Y-67462500D01*
X133550000Y-67937500D01*
X133548856Y-67960779D01*
X133545437Y-67983834D01*
X133539773Y-68006443D01*
X133531921Y-68028387D01*
X133521956Y-68049457D01*
X133509974Y-68069448D01*
X133496090Y-68088168D01*
X133480438Y-68105438D01*
X133463168Y-68121090D01*
X133444448Y-68134974D01*
X133424457Y-68146956D01*
X133403387Y-68156921D01*
X133381443Y-68164773D01*
X133358834Y-68170437D01*
X133335779Y-68173856D01*
X133312500Y-68175000D01*
X132737500Y-68175000D01*
X132714221Y-68173856D01*
X132691166Y-68170437D01*
X132668557Y-68164773D01*
X132646613Y-68156921D01*
X132625543Y-68146956D01*
X132605552Y-68134974D01*
X132586832Y-68121090D01*
X132569562Y-68105438D01*
X132553910Y-68088168D01*
X132540026Y-68069448D01*
X132528044Y-68049457D01*
X132518079Y-68028387D01*
X132510227Y-68006443D01*
X132504563Y-67983834D01*
X132501144Y-67960779D01*
X132500000Y-67937500D01*
X132500000Y-67462500D01*
X132501144Y-67439221D01*
X132504563Y-67416166D01*
X132510227Y-67393557D01*
X132518079Y-67371613D01*
X132528044Y-67350543D01*
X132540026Y-67330552D01*
X132553910Y-67311832D01*
X132569562Y-67294562D01*
X132586832Y-67278910D01*
X132605552Y-67265026D01*
X132625543Y-67253044D01*
X132646613Y-67243079D01*
X132668557Y-67235227D01*
X132691166Y-67229563D01*
X132714221Y-67226144D01*
X132737500Y-67225000D01*
X133312500Y-67225000D01*
X133335779Y-67226144D01*
G37*
D11*
X120660000Y-87010000D03*
X122560000Y-87010000D03*
X122560000Y-89210000D03*
X121610000Y-89210000D03*
X120660000Y-89210000D03*
D10*
G36*
X129260779Y-87001144D02*
G01*
X129283834Y-87004563D01*
X129306443Y-87010227D01*
X129328387Y-87018079D01*
X129349457Y-87028044D01*
X129369448Y-87040026D01*
X129388168Y-87053910D01*
X129405438Y-87069562D01*
X129421090Y-87086832D01*
X129434974Y-87105552D01*
X129446956Y-87125543D01*
X129456921Y-87146613D01*
X129464773Y-87168557D01*
X129470437Y-87191166D01*
X129473856Y-87214221D01*
X129475000Y-87237500D01*
X129475000Y-87812500D01*
X129473856Y-87835779D01*
X129470437Y-87858834D01*
X129464773Y-87881443D01*
X129456921Y-87903387D01*
X129446956Y-87924457D01*
X129434974Y-87944448D01*
X129421090Y-87963168D01*
X129405438Y-87980438D01*
X129388168Y-87996090D01*
X129369448Y-88009974D01*
X129349457Y-88021956D01*
X129328387Y-88031921D01*
X129306443Y-88039773D01*
X129283834Y-88045437D01*
X129260779Y-88048856D01*
X129237500Y-88050000D01*
X128762500Y-88050000D01*
X128739221Y-88048856D01*
X128716166Y-88045437D01*
X128693557Y-88039773D01*
X128671613Y-88031921D01*
X128650543Y-88021956D01*
X128630552Y-88009974D01*
X128611832Y-87996090D01*
X128594562Y-87980438D01*
X128578910Y-87963168D01*
X128565026Y-87944448D01*
X128553044Y-87924457D01*
X128543079Y-87903387D01*
X128535227Y-87881443D01*
X128529563Y-87858834D01*
X128526144Y-87835779D01*
X128525000Y-87812500D01*
X128525000Y-87237500D01*
X128526144Y-87214221D01*
X128529563Y-87191166D01*
X128535227Y-87168557D01*
X128543079Y-87146613D01*
X128553044Y-87125543D01*
X128565026Y-87105552D01*
X128578910Y-87086832D01*
X128594562Y-87069562D01*
X128611832Y-87053910D01*
X128630552Y-87040026D01*
X128650543Y-87028044D01*
X128671613Y-87018079D01*
X128693557Y-87010227D01*
X128716166Y-87004563D01*
X128739221Y-87001144D01*
X128762500Y-87000000D01*
X129237500Y-87000000D01*
X129260779Y-87001144D01*
G37*
G36*
X129260779Y-88751144D02*
G01*
X129283834Y-88754563D01*
X129306443Y-88760227D01*
X129328387Y-88768079D01*
X129349457Y-88778044D01*
X129369448Y-88790026D01*
X129388168Y-88803910D01*
X129405438Y-88819562D01*
X129421090Y-88836832D01*
X129434974Y-88855552D01*
X129446956Y-88875543D01*
X129456921Y-88896613D01*
X129464773Y-88918557D01*
X129470437Y-88941166D01*
X129473856Y-88964221D01*
X129475000Y-88987500D01*
X129475000Y-89562500D01*
X129473856Y-89585779D01*
X129470437Y-89608834D01*
X129464773Y-89631443D01*
X129456921Y-89653387D01*
X129446956Y-89674457D01*
X129434974Y-89694448D01*
X129421090Y-89713168D01*
X129405438Y-89730438D01*
X129388168Y-89746090D01*
X129369448Y-89759974D01*
X129349457Y-89771956D01*
X129328387Y-89781921D01*
X129306443Y-89789773D01*
X129283834Y-89795437D01*
X129260779Y-89798856D01*
X129237500Y-89800000D01*
X128762500Y-89800000D01*
X128739221Y-89798856D01*
X128716166Y-89795437D01*
X128693557Y-89789773D01*
X128671613Y-89781921D01*
X128650543Y-89771956D01*
X128630552Y-89759974D01*
X128611832Y-89746090D01*
X128594562Y-89730438D01*
X128578910Y-89713168D01*
X128565026Y-89694448D01*
X128553044Y-89674457D01*
X128543079Y-89653387D01*
X128535227Y-89631443D01*
X128529563Y-89608834D01*
X128526144Y-89585779D01*
X128525000Y-89562500D01*
X128525000Y-88987500D01*
X128526144Y-88964221D01*
X128529563Y-88941166D01*
X128535227Y-88918557D01*
X128543079Y-88896613D01*
X128553044Y-88875543D01*
X128565026Y-88855552D01*
X128578910Y-88836832D01*
X128594562Y-88819562D01*
X128611832Y-88803910D01*
X128630552Y-88790026D01*
X128650543Y-88778044D01*
X128671613Y-88768079D01*
X128693557Y-88760227D01*
X128716166Y-88754563D01*
X128739221Y-88751144D01*
X128762500Y-88750000D01*
X129237500Y-88750000D01*
X129260779Y-88751144D01*
G37*
D12*
X127000000Y-88400000D03*
X125000000Y-89350000D03*
X125000000Y-87450000D03*
D10*
G36*
X132599504Y-82176204D02*
G01*
X132623773Y-82179804D01*
X132647571Y-82185765D01*
X132670671Y-82194030D01*
X132692849Y-82204520D01*
X132713893Y-82217133D01*
X132733598Y-82231747D01*
X132751777Y-82248223D01*
X132768253Y-82266402D01*
X132782867Y-82286107D01*
X132795480Y-82307151D01*
X132805970Y-82329329D01*
X132814235Y-82352429D01*
X132820196Y-82376227D01*
X132823796Y-82400496D01*
X132825000Y-82425000D01*
X132825000Y-84575000D01*
X132823796Y-84599504D01*
X132820196Y-84623773D01*
X132814235Y-84647571D01*
X132805970Y-84670671D01*
X132795480Y-84692849D01*
X132782867Y-84713893D01*
X132768253Y-84733598D01*
X132751777Y-84751777D01*
X132733598Y-84768253D01*
X132713893Y-84782867D01*
X132692849Y-84795480D01*
X132670671Y-84805970D01*
X132647571Y-84814235D01*
X132623773Y-84820196D01*
X132599504Y-84823796D01*
X132575000Y-84825000D01*
X131650000Y-84825000D01*
X131625496Y-84823796D01*
X131601227Y-84820196D01*
X131577429Y-84814235D01*
X131554329Y-84805970D01*
X131532151Y-84795480D01*
X131511107Y-84782867D01*
X131491402Y-84768253D01*
X131473223Y-84751777D01*
X131456747Y-84733598D01*
X131442133Y-84713893D01*
X131429520Y-84692849D01*
X131419030Y-84670671D01*
X131410765Y-84647571D01*
X131404804Y-84623773D01*
X131401204Y-84599504D01*
X131400000Y-84575000D01*
X131400000Y-82425000D01*
X131401204Y-82400496D01*
X131404804Y-82376227D01*
X131410765Y-82352429D01*
X131419030Y-82329329D01*
X131429520Y-82307151D01*
X131442133Y-82286107D01*
X131456747Y-82266402D01*
X131473223Y-82248223D01*
X131491402Y-82231747D01*
X131511107Y-82217133D01*
X131532151Y-82204520D01*
X131554329Y-82194030D01*
X131577429Y-82185765D01*
X131601227Y-82179804D01*
X131625496Y-82176204D01*
X131650000Y-82175000D01*
X132575000Y-82175000D01*
X132599504Y-82176204D01*
G37*
G36*
X135574504Y-82176204D02*
G01*
X135598773Y-82179804D01*
X135622571Y-82185765D01*
X135645671Y-82194030D01*
X135667849Y-82204520D01*
X135688893Y-82217133D01*
X135708598Y-82231747D01*
X135726777Y-82248223D01*
X135743253Y-82266402D01*
X135757867Y-82286107D01*
X135770480Y-82307151D01*
X135780970Y-82329329D01*
X135789235Y-82352429D01*
X135795196Y-82376227D01*
X135798796Y-82400496D01*
X135800000Y-82425000D01*
X135800000Y-84575000D01*
X135798796Y-84599504D01*
X135795196Y-84623773D01*
X135789235Y-84647571D01*
X135780970Y-84670671D01*
X135770480Y-84692849D01*
X135757867Y-84713893D01*
X135743253Y-84733598D01*
X135726777Y-84751777D01*
X135708598Y-84768253D01*
X135688893Y-84782867D01*
X135667849Y-84795480D01*
X135645671Y-84805970D01*
X135622571Y-84814235D01*
X135598773Y-84820196D01*
X135574504Y-84823796D01*
X135550000Y-84825000D01*
X134625000Y-84825000D01*
X134600496Y-84823796D01*
X134576227Y-84820196D01*
X134552429Y-84814235D01*
X134529329Y-84805970D01*
X134507151Y-84795480D01*
X134486107Y-84782867D01*
X134466402Y-84768253D01*
X134448223Y-84751777D01*
X134431747Y-84733598D01*
X134417133Y-84713893D01*
X134404520Y-84692849D01*
X134394030Y-84670671D01*
X134385765Y-84647571D01*
X134379804Y-84623773D01*
X134376204Y-84599504D01*
X134375000Y-84575000D01*
X134375000Y-82425000D01*
X134376204Y-82400496D01*
X134379804Y-82376227D01*
X134385765Y-82352429D01*
X134394030Y-82329329D01*
X134404520Y-82307151D01*
X134417133Y-82286107D01*
X134431747Y-82266402D01*
X134448223Y-82248223D01*
X134466402Y-82231747D01*
X134486107Y-82217133D01*
X134507151Y-82204520D01*
X134529329Y-82194030D01*
X134552429Y-82185765D01*
X134576227Y-82179804D01*
X134600496Y-82176204D01*
X134625000Y-82175000D01*
X135550000Y-82175000D01*
X135574504Y-82176204D01*
G37*
G36*
X118960779Y-88251144D02*
G01*
X118983834Y-88254563D01*
X119006443Y-88260227D01*
X119028387Y-88268079D01*
X119049457Y-88278044D01*
X119069448Y-88290026D01*
X119088168Y-88303910D01*
X119105438Y-88319562D01*
X119121090Y-88336832D01*
X119134974Y-88355552D01*
X119146956Y-88375543D01*
X119156921Y-88396613D01*
X119164773Y-88418557D01*
X119170437Y-88441166D01*
X119173856Y-88464221D01*
X119175000Y-88487500D01*
X119175000Y-89062500D01*
X119173856Y-89085779D01*
X119170437Y-89108834D01*
X119164773Y-89131443D01*
X119156921Y-89153387D01*
X119146956Y-89174457D01*
X119134974Y-89194448D01*
X119121090Y-89213168D01*
X119105438Y-89230438D01*
X119088168Y-89246090D01*
X119069448Y-89259974D01*
X119049457Y-89271956D01*
X119028387Y-89281921D01*
X119006443Y-89289773D01*
X118983834Y-89295437D01*
X118960779Y-89298856D01*
X118937500Y-89300000D01*
X118462500Y-89300000D01*
X118439221Y-89298856D01*
X118416166Y-89295437D01*
X118393557Y-89289773D01*
X118371613Y-89281921D01*
X118350543Y-89271956D01*
X118330552Y-89259974D01*
X118311832Y-89246090D01*
X118294562Y-89230438D01*
X118278910Y-89213168D01*
X118265026Y-89194448D01*
X118253044Y-89174457D01*
X118243079Y-89153387D01*
X118235227Y-89131443D01*
X118229563Y-89108834D01*
X118226144Y-89085779D01*
X118225000Y-89062500D01*
X118225000Y-88487500D01*
X118226144Y-88464221D01*
X118229563Y-88441166D01*
X118235227Y-88418557D01*
X118243079Y-88396613D01*
X118253044Y-88375543D01*
X118265026Y-88355552D01*
X118278910Y-88336832D01*
X118294562Y-88319562D01*
X118311832Y-88303910D01*
X118330552Y-88290026D01*
X118350543Y-88278044D01*
X118371613Y-88268079D01*
X118393557Y-88260227D01*
X118416166Y-88254563D01*
X118439221Y-88251144D01*
X118462500Y-88250000D01*
X118937500Y-88250000D01*
X118960779Y-88251144D01*
G37*
G36*
X118960779Y-86501144D02*
G01*
X118983834Y-86504563D01*
X119006443Y-86510227D01*
X119028387Y-86518079D01*
X119049457Y-86528044D01*
X119069448Y-86540026D01*
X119088168Y-86553910D01*
X119105438Y-86569562D01*
X119121090Y-86586832D01*
X119134974Y-86605552D01*
X119146956Y-86625543D01*
X119156921Y-86646613D01*
X119164773Y-86668557D01*
X119170437Y-86691166D01*
X119173856Y-86714221D01*
X119175000Y-86737500D01*
X119175000Y-87312500D01*
X119173856Y-87335779D01*
X119170437Y-87358834D01*
X119164773Y-87381443D01*
X119156921Y-87403387D01*
X119146956Y-87424457D01*
X119134974Y-87444448D01*
X119121090Y-87463168D01*
X119105438Y-87480438D01*
X119088168Y-87496090D01*
X119069448Y-87509974D01*
X119049457Y-87521956D01*
X119028387Y-87531921D01*
X119006443Y-87539773D01*
X118983834Y-87545437D01*
X118960779Y-87548856D01*
X118937500Y-87550000D01*
X118462500Y-87550000D01*
X118439221Y-87548856D01*
X118416166Y-87545437D01*
X118393557Y-87539773D01*
X118371613Y-87531921D01*
X118350543Y-87521956D01*
X118330552Y-87509974D01*
X118311832Y-87496090D01*
X118294562Y-87480438D01*
X118278910Y-87463168D01*
X118265026Y-87444448D01*
X118253044Y-87424457D01*
X118243079Y-87403387D01*
X118235227Y-87381443D01*
X118229563Y-87358834D01*
X118226144Y-87335779D01*
X118225000Y-87312500D01*
X118225000Y-86737500D01*
X118226144Y-86714221D01*
X118229563Y-86691166D01*
X118235227Y-86668557D01*
X118243079Y-86646613D01*
X118253044Y-86625543D01*
X118265026Y-86605552D01*
X118278910Y-86586832D01*
X118294562Y-86569562D01*
X118311832Y-86553910D01*
X118330552Y-86540026D01*
X118350543Y-86528044D01*
X118371613Y-86518079D01*
X118393557Y-86510227D01*
X118416166Y-86504563D01*
X118439221Y-86501144D01*
X118462500Y-86500000D01*
X118937500Y-86500000D01*
X118960779Y-86501144D01*
G37*
G36*
X121135779Y-90626144D02*
G01*
X121158834Y-90629563D01*
X121181443Y-90635227D01*
X121203387Y-90643079D01*
X121224457Y-90653044D01*
X121244448Y-90665026D01*
X121263168Y-90678910D01*
X121280438Y-90694562D01*
X121296090Y-90711832D01*
X121309974Y-90730552D01*
X121321956Y-90750543D01*
X121331921Y-90771613D01*
X121339773Y-90793557D01*
X121345437Y-90816166D01*
X121348856Y-90839221D01*
X121350000Y-90862500D01*
X121350000Y-91337500D01*
X121348856Y-91360779D01*
X121345437Y-91383834D01*
X121339773Y-91406443D01*
X121331921Y-91428387D01*
X121321956Y-91449457D01*
X121309974Y-91469448D01*
X121296090Y-91488168D01*
X121280438Y-91505438D01*
X121263168Y-91521090D01*
X121244448Y-91534974D01*
X121224457Y-91546956D01*
X121203387Y-91556921D01*
X121181443Y-91564773D01*
X121158834Y-91570437D01*
X121135779Y-91573856D01*
X121112500Y-91575000D01*
X120537500Y-91575000D01*
X120514221Y-91573856D01*
X120491166Y-91570437D01*
X120468557Y-91564773D01*
X120446613Y-91556921D01*
X120425543Y-91546956D01*
X120405552Y-91534974D01*
X120386832Y-91521090D01*
X120369562Y-91505438D01*
X120353910Y-91488168D01*
X120340026Y-91469448D01*
X120328044Y-91449457D01*
X120318079Y-91428387D01*
X120310227Y-91406443D01*
X120304563Y-91383834D01*
X120301144Y-91360779D01*
X120300000Y-91337500D01*
X120300000Y-90862500D01*
X120301144Y-90839221D01*
X120304563Y-90816166D01*
X120310227Y-90793557D01*
X120318079Y-90771613D01*
X120328044Y-90750543D01*
X120340026Y-90730552D01*
X120353910Y-90711832D01*
X120369562Y-90694562D01*
X120386832Y-90678910D01*
X120405552Y-90665026D01*
X120425543Y-90653044D01*
X120446613Y-90643079D01*
X120468557Y-90635227D01*
X120491166Y-90629563D01*
X120514221Y-90626144D01*
X120537500Y-90625000D01*
X121112500Y-90625000D01*
X121135779Y-90626144D01*
G37*
G36*
X122885779Y-90626144D02*
G01*
X122908834Y-90629563D01*
X122931443Y-90635227D01*
X122953387Y-90643079D01*
X122974457Y-90653044D01*
X122994448Y-90665026D01*
X123013168Y-90678910D01*
X123030438Y-90694562D01*
X123046090Y-90711832D01*
X123059974Y-90730552D01*
X123071956Y-90750543D01*
X123081921Y-90771613D01*
X123089773Y-90793557D01*
X123095437Y-90816166D01*
X123098856Y-90839221D01*
X123100000Y-90862500D01*
X123100000Y-91337500D01*
X123098856Y-91360779D01*
X123095437Y-91383834D01*
X123089773Y-91406443D01*
X123081921Y-91428387D01*
X123071956Y-91449457D01*
X123059974Y-91469448D01*
X123046090Y-91488168D01*
X123030438Y-91505438D01*
X123013168Y-91521090D01*
X122994448Y-91534974D01*
X122974457Y-91546956D01*
X122953387Y-91556921D01*
X122931443Y-91564773D01*
X122908834Y-91570437D01*
X122885779Y-91573856D01*
X122862500Y-91575000D01*
X122287500Y-91575000D01*
X122264221Y-91573856D01*
X122241166Y-91570437D01*
X122218557Y-91564773D01*
X122196613Y-91556921D01*
X122175543Y-91546956D01*
X122155552Y-91534974D01*
X122136832Y-91521090D01*
X122119562Y-91505438D01*
X122103910Y-91488168D01*
X122090026Y-91469448D01*
X122078044Y-91449457D01*
X122068079Y-91428387D01*
X122060227Y-91406443D01*
X122054563Y-91383834D01*
X122051144Y-91360779D01*
X122050000Y-91337500D01*
X122050000Y-90862500D01*
X122051144Y-90839221D01*
X122054563Y-90816166D01*
X122060227Y-90793557D01*
X122068079Y-90771613D01*
X122078044Y-90750543D01*
X122090026Y-90730552D01*
X122103910Y-90711832D01*
X122119562Y-90694562D01*
X122136832Y-90678910D01*
X122155552Y-90665026D01*
X122175543Y-90653044D01*
X122196613Y-90643079D01*
X122218557Y-90635227D01*
X122241166Y-90629563D01*
X122264221Y-90626144D01*
X122287500Y-90625000D01*
X122862500Y-90625000D01*
X122885779Y-90626144D01*
G37*
G36*
X128549505Y-81601204D02*
G01*
X128573773Y-81604804D01*
X128597572Y-81610765D01*
X128620671Y-81619030D01*
X128642850Y-81629520D01*
X128663893Y-81642132D01*
X128683599Y-81656747D01*
X128701777Y-81673223D01*
X128718253Y-81691401D01*
X128732868Y-81711107D01*
X128745480Y-81732150D01*
X128755970Y-81754329D01*
X128764235Y-81777428D01*
X128770196Y-81801227D01*
X128773796Y-81825495D01*
X128775000Y-81849999D01*
X128775000Y-82675001D01*
X128773796Y-82699505D01*
X128770196Y-82723773D01*
X128764235Y-82747572D01*
X128755970Y-82770671D01*
X128745480Y-82792850D01*
X128732868Y-82813893D01*
X128718253Y-82833599D01*
X128701777Y-82851777D01*
X128683599Y-82868253D01*
X128663893Y-82882868D01*
X128642850Y-82895480D01*
X128620671Y-82905970D01*
X128597572Y-82914235D01*
X128573773Y-82920196D01*
X128549505Y-82923796D01*
X128525001Y-82925000D01*
X126674999Y-82925000D01*
X126650495Y-82923796D01*
X126626227Y-82920196D01*
X126602428Y-82914235D01*
X126579329Y-82905970D01*
X126557150Y-82895480D01*
X126536107Y-82882868D01*
X126516401Y-82868253D01*
X126498223Y-82851777D01*
X126481747Y-82833599D01*
X126467132Y-82813893D01*
X126454520Y-82792850D01*
X126444030Y-82770671D01*
X126435765Y-82747572D01*
X126429804Y-82723773D01*
X126426204Y-82699505D01*
X126425000Y-82675001D01*
X126425000Y-81849999D01*
X126426204Y-81825495D01*
X126429804Y-81801227D01*
X126435765Y-81777428D01*
X126444030Y-81754329D01*
X126454520Y-81732150D01*
X126467132Y-81711107D01*
X126481747Y-81691401D01*
X126498223Y-81673223D01*
X126516401Y-81656747D01*
X126536107Y-81642132D01*
X126557150Y-81629520D01*
X126579329Y-81619030D01*
X126602428Y-81610765D01*
X126626227Y-81604804D01*
X126650495Y-81601204D01*
X126674999Y-81600000D01*
X128525001Y-81600000D01*
X128549505Y-81601204D01*
G37*
G36*
X128549505Y-84676204D02*
G01*
X128573773Y-84679804D01*
X128597572Y-84685765D01*
X128620671Y-84694030D01*
X128642850Y-84704520D01*
X128663893Y-84717132D01*
X128683599Y-84731747D01*
X128701777Y-84748223D01*
X128718253Y-84766401D01*
X128732868Y-84786107D01*
X128745480Y-84807150D01*
X128755970Y-84829329D01*
X128764235Y-84852428D01*
X128770196Y-84876227D01*
X128773796Y-84900495D01*
X128775000Y-84924999D01*
X128775000Y-85750001D01*
X128773796Y-85774505D01*
X128770196Y-85798773D01*
X128764235Y-85822572D01*
X128755970Y-85845671D01*
X128745480Y-85867850D01*
X128732868Y-85888893D01*
X128718253Y-85908599D01*
X128701777Y-85926777D01*
X128683599Y-85943253D01*
X128663893Y-85957868D01*
X128642850Y-85970480D01*
X128620671Y-85980970D01*
X128597572Y-85989235D01*
X128573773Y-85995196D01*
X128549505Y-85998796D01*
X128525001Y-86000000D01*
X126674999Y-86000000D01*
X126650495Y-85998796D01*
X126626227Y-85995196D01*
X126602428Y-85989235D01*
X126579329Y-85980970D01*
X126557150Y-85970480D01*
X126536107Y-85957868D01*
X126516401Y-85943253D01*
X126498223Y-85926777D01*
X126481747Y-85908599D01*
X126467132Y-85888893D01*
X126454520Y-85867850D01*
X126444030Y-85845671D01*
X126435765Y-85822572D01*
X126429804Y-85798773D01*
X126426204Y-85774505D01*
X126425000Y-85750001D01*
X126425000Y-84924999D01*
X126426204Y-84900495D01*
X126429804Y-84876227D01*
X126435765Y-84852428D01*
X126444030Y-84829329D01*
X126454520Y-84807150D01*
X126467132Y-84786107D01*
X126481747Y-84766401D01*
X126498223Y-84748223D01*
X126516401Y-84731747D01*
X126536107Y-84717132D01*
X126557150Y-84704520D01*
X126579329Y-84694030D01*
X126602428Y-84685765D01*
X126626227Y-84679804D01*
X126650495Y-84676204D01*
X126674999Y-84675000D01*
X128525001Y-84675000D01*
X128549505Y-84676204D01*
G37*
G36*
X131060779Y-87726144D02*
G01*
X131083834Y-87729563D01*
X131106443Y-87735227D01*
X131128387Y-87743079D01*
X131149457Y-87753044D01*
X131169448Y-87765026D01*
X131188168Y-87778910D01*
X131205438Y-87794562D01*
X131221090Y-87811832D01*
X131234974Y-87830552D01*
X131246956Y-87850543D01*
X131256921Y-87871613D01*
X131264773Y-87893557D01*
X131270437Y-87916166D01*
X131273856Y-87939221D01*
X131275000Y-87962500D01*
X131275000Y-88537500D01*
X131273856Y-88560779D01*
X131270437Y-88583834D01*
X131264773Y-88606443D01*
X131256921Y-88628387D01*
X131246956Y-88649457D01*
X131234974Y-88669448D01*
X131221090Y-88688168D01*
X131205438Y-88705438D01*
X131188168Y-88721090D01*
X131169448Y-88734974D01*
X131149457Y-88746956D01*
X131128387Y-88756921D01*
X131106443Y-88764773D01*
X131083834Y-88770437D01*
X131060779Y-88773856D01*
X131037500Y-88775000D01*
X130562500Y-88775000D01*
X130539221Y-88773856D01*
X130516166Y-88770437D01*
X130493557Y-88764773D01*
X130471613Y-88756921D01*
X130450543Y-88746956D01*
X130430552Y-88734974D01*
X130411832Y-88721090D01*
X130394562Y-88705438D01*
X130378910Y-88688168D01*
X130365026Y-88669448D01*
X130353044Y-88649457D01*
X130343079Y-88628387D01*
X130335227Y-88606443D01*
X130329563Y-88583834D01*
X130326144Y-88560779D01*
X130325000Y-88537500D01*
X130325000Y-87962500D01*
X130326144Y-87939221D01*
X130329563Y-87916166D01*
X130335227Y-87893557D01*
X130343079Y-87871613D01*
X130353044Y-87850543D01*
X130365026Y-87830552D01*
X130378910Y-87811832D01*
X130394562Y-87794562D01*
X130411832Y-87778910D01*
X130430552Y-87765026D01*
X130450543Y-87753044D01*
X130471613Y-87743079D01*
X130493557Y-87735227D01*
X130516166Y-87729563D01*
X130539221Y-87726144D01*
X130562500Y-87725000D01*
X131037500Y-87725000D01*
X131060779Y-87726144D01*
G37*
G36*
X131060779Y-85976144D02*
G01*
X131083834Y-85979563D01*
X131106443Y-85985227D01*
X131128387Y-85993079D01*
X131149457Y-86003044D01*
X131169448Y-86015026D01*
X131188168Y-86028910D01*
X131205438Y-86044562D01*
X131221090Y-86061832D01*
X131234974Y-86080552D01*
X131246956Y-86100543D01*
X131256921Y-86121613D01*
X131264773Y-86143557D01*
X131270437Y-86166166D01*
X131273856Y-86189221D01*
X131275000Y-86212500D01*
X131275000Y-86787500D01*
X131273856Y-86810779D01*
X131270437Y-86833834D01*
X131264773Y-86856443D01*
X131256921Y-86878387D01*
X131246956Y-86899457D01*
X131234974Y-86919448D01*
X131221090Y-86938168D01*
X131205438Y-86955438D01*
X131188168Y-86971090D01*
X131169448Y-86984974D01*
X131149457Y-86996956D01*
X131128387Y-87006921D01*
X131106443Y-87014773D01*
X131083834Y-87020437D01*
X131060779Y-87023856D01*
X131037500Y-87025000D01*
X130562500Y-87025000D01*
X130539221Y-87023856D01*
X130516166Y-87020437D01*
X130493557Y-87014773D01*
X130471613Y-87006921D01*
X130450543Y-86996956D01*
X130430552Y-86984974D01*
X130411832Y-86971090D01*
X130394562Y-86955438D01*
X130378910Y-86938168D01*
X130365026Y-86919448D01*
X130353044Y-86899457D01*
X130343079Y-86878387D01*
X130335227Y-86856443D01*
X130329563Y-86833834D01*
X130326144Y-86810779D01*
X130325000Y-86787500D01*
X130325000Y-86212500D01*
X130326144Y-86189221D01*
X130329563Y-86166166D01*
X130335227Y-86143557D01*
X130343079Y-86121613D01*
X130353044Y-86100543D01*
X130365026Y-86080552D01*
X130378910Y-86061832D01*
X130394562Y-86044562D01*
X130411832Y-86028910D01*
X130430552Y-86015026D01*
X130450543Y-86003044D01*
X130471613Y-85993079D01*
X130493557Y-85985227D01*
X130516166Y-85979563D01*
X130539221Y-85976144D01*
X130562500Y-85975000D01*
X131037500Y-85975000D01*
X131060779Y-85976144D01*
G37*
G36*
X132960779Y-87751144D02*
G01*
X132983834Y-87754563D01*
X133006443Y-87760227D01*
X133028387Y-87768079D01*
X133049457Y-87778044D01*
X133069448Y-87790026D01*
X133088168Y-87803910D01*
X133105438Y-87819562D01*
X133121090Y-87836832D01*
X133134974Y-87855552D01*
X133146956Y-87875543D01*
X133156921Y-87896613D01*
X133164773Y-87918557D01*
X133170437Y-87941166D01*
X133173856Y-87964221D01*
X133175000Y-87987500D01*
X133175000Y-88562500D01*
X133173856Y-88585779D01*
X133170437Y-88608834D01*
X133164773Y-88631443D01*
X133156921Y-88653387D01*
X133146956Y-88674457D01*
X133134974Y-88694448D01*
X133121090Y-88713168D01*
X133105438Y-88730438D01*
X133088168Y-88746090D01*
X133069448Y-88759974D01*
X133049457Y-88771956D01*
X133028387Y-88781921D01*
X133006443Y-88789773D01*
X132983834Y-88795437D01*
X132960779Y-88798856D01*
X132937500Y-88800000D01*
X132462500Y-88800000D01*
X132439221Y-88798856D01*
X132416166Y-88795437D01*
X132393557Y-88789773D01*
X132371613Y-88781921D01*
X132350543Y-88771956D01*
X132330552Y-88759974D01*
X132311832Y-88746090D01*
X132294562Y-88730438D01*
X132278910Y-88713168D01*
X132265026Y-88694448D01*
X132253044Y-88674457D01*
X132243079Y-88653387D01*
X132235227Y-88631443D01*
X132229563Y-88608834D01*
X132226144Y-88585779D01*
X132225000Y-88562500D01*
X132225000Y-87987500D01*
X132226144Y-87964221D01*
X132229563Y-87941166D01*
X132235227Y-87918557D01*
X132243079Y-87896613D01*
X132253044Y-87875543D01*
X132265026Y-87855552D01*
X132278910Y-87836832D01*
X132294562Y-87819562D01*
X132311832Y-87803910D01*
X132330552Y-87790026D01*
X132350543Y-87778044D01*
X132371613Y-87768079D01*
X132393557Y-87760227D01*
X132416166Y-87754563D01*
X132439221Y-87751144D01*
X132462500Y-87750000D01*
X132937500Y-87750000D01*
X132960779Y-87751144D01*
G37*
G36*
X132960779Y-86001144D02*
G01*
X132983834Y-86004563D01*
X133006443Y-86010227D01*
X133028387Y-86018079D01*
X133049457Y-86028044D01*
X133069448Y-86040026D01*
X133088168Y-86053910D01*
X133105438Y-86069562D01*
X133121090Y-86086832D01*
X133134974Y-86105552D01*
X133146956Y-86125543D01*
X133156921Y-86146613D01*
X133164773Y-86168557D01*
X133170437Y-86191166D01*
X133173856Y-86214221D01*
X133175000Y-86237500D01*
X133175000Y-86812500D01*
X133173856Y-86835779D01*
X133170437Y-86858834D01*
X133164773Y-86881443D01*
X133156921Y-86903387D01*
X133146956Y-86924457D01*
X133134974Y-86944448D01*
X133121090Y-86963168D01*
X133105438Y-86980438D01*
X133088168Y-86996090D01*
X133069448Y-87009974D01*
X133049457Y-87021956D01*
X133028387Y-87031921D01*
X133006443Y-87039773D01*
X132983834Y-87045437D01*
X132960779Y-87048856D01*
X132937500Y-87050000D01*
X132462500Y-87050000D01*
X132439221Y-87048856D01*
X132416166Y-87045437D01*
X132393557Y-87039773D01*
X132371613Y-87031921D01*
X132350543Y-87021956D01*
X132330552Y-87009974D01*
X132311832Y-86996090D01*
X132294562Y-86980438D01*
X132278910Y-86963168D01*
X132265026Y-86944448D01*
X132253044Y-86924457D01*
X132243079Y-86903387D01*
X132235227Y-86881443D01*
X132229563Y-86858834D01*
X132226144Y-86835779D01*
X132225000Y-86812500D01*
X132225000Y-86237500D01*
X132226144Y-86214221D01*
X132229563Y-86191166D01*
X132235227Y-86168557D01*
X132243079Y-86146613D01*
X132253044Y-86125543D01*
X132265026Y-86105552D01*
X132278910Y-86086832D01*
X132294562Y-86069562D01*
X132311832Y-86053910D01*
X132330552Y-86040026D01*
X132350543Y-86028044D01*
X132371613Y-86018079D01*
X132393557Y-86010227D01*
X132416166Y-86004563D01*
X132439221Y-86001144D01*
X132462500Y-86000000D01*
X132937500Y-86000000D01*
X132960779Y-86001144D01*
G37*
G36*
X135549504Y-85801204D02*
G01*
X135573773Y-85804804D01*
X135597571Y-85810765D01*
X135620671Y-85819030D01*
X135642849Y-85829520D01*
X135663893Y-85842133D01*
X135683598Y-85856747D01*
X135701777Y-85873223D01*
X135718253Y-85891402D01*
X135732867Y-85911107D01*
X135745480Y-85932151D01*
X135755970Y-85954329D01*
X135764235Y-85977429D01*
X135770196Y-86001227D01*
X135773796Y-86025496D01*
X135775000Y-86050000D01*
X135775000Y-86975000D01*
X135773796Y-86999504D01*
X135770196Y-87023773D01*
X135764235Y-87047571D01*
X135755970Y-87070671D01*
X135745480Y-87092849D01*
X135732867Y-87113893D01*
X135718253Y-87133598D01*
X135701777Y-87151777D01*
X135683598Y-87168253D01*
X135663893Y-87182867D01*
X135642849Y-87195480D01*
X135620671Y-87205970D01*
X135597571Y-87214235D01*
X135573773Y-87220196D01*
X135549504Y-87223796D01*
X135525000Y-87225000D01*
X134275000Y-87225000D01*
X134250496Y-87223796D01*
X134226227Y-87220196D01*
X134202429Y-87214235D01*
X134179329Y-87205970D01*
X134157151Y-87195480D01*
X134136107Y-87182867D01*
X134116402Y-87168253D01*
X134098223Y-87151777D01*
X134081747Y-87133598D01*
X134067133Y-87113893D01*
X134054520Y-87092849D01*
X134044030Y-87070671D01*
X134035765Y-87047571D01*
X134029804Y-87023773D01*
X134026204Y-86999504D01*
X134025000Y-86975000D01*
X134025000Y-86050000D01*
X134026204Y-86025496D01*
X134029804Y-86001227D01*
X134035765Y-85977429D01*
X134044030Y-85954329D01*
X134054520Y-85932151D01*
X134067133Y-85911107D01*
X134081747Y-85891402D01*
X134098223Y-85873223D01*
X134116402Y-85856747D01*
X134136107Y-85842133D01*
X134157151Y-85829520D01*
X134179329Y-85819030D01*
X134202429Y-85810765D01*
X134226227Y-85804804D01*
X134250496Y-85801204D01*
X134275000Y-85800000D01*
X135525000Y-85800000D01*
X135549504Y-85801204D01*
G37*
G36*
X135549504Y-88776204D02*
G01*
X135573773Y-88779804D01*
X135597571Y-88785765D01*
X135620671Y-88794030D01*
X135642849Y-88804520D01*
X135663893Y-88817133D01*
X135683598Y-88831747D01*
X135701777Y-88848223D01*
X135718253Y-88866402D01*
X135732867Y-88886107D01*
X135745480Y-88907151D01*
X135755970Y-88929329D01*
X135764235Y-88952429D01*
X135770196Y-88976227D01*
X135773796Y-89000496D01*
X135775000Y-89025000D01*
X135775000Y-89950000D01*
X135773796Y-89974504D01*
X135770196Y-89998773D01*
X135764235Y-90022571D01*
X135755970Y-90045671D01*
X135745480Y-90067849D01*
X135732867Y-90088893D01*
X135718253Y-90108598D01*
X135701777Y-90126777D01*
X135683598Y-90143253D01*
X135663893Y-90157867D01*
X135642849Y-90170480D01*
X135620671Y-90180970D01*
X135597571Y-90189235D01*
X135573773Y-90195196D01*
X135549504Y-90198796D01*
X135525000Y-90200000D01*
X134275000Y-90200000D01*
X134250496Y-90198796D01*
X134226227Y-90195196D01*
X134202429Y-90189235D01*
X134179329Y-90180970D01*
X134157151Y-90170480D01*
X134136107Y-90157867D01*
X134116402Y-90143253D01*
X134098223Y-90126777D01*
X134081747Y-90108598D01*
X134067133Y-90088893D01*
X134054520Y-90067849D01*
X134044030Y-90045671D01*
X134035765Y-90022571D01*
X134029804Y-89998773D01*
X134026204Y-89974504D01*
X134025000Y-89950000D01*
X134025000Y-89025000D01*
X134026204Y-89000496D01*
X134029804Y-88976227D01*
X134035765Y-88952429D01*
X134044030Y-88929329D01*
X134054520Y-88907151D01*
X134067133Y-88886107D01*
X134081747Y-88866402D01*
X134098223Y-88848223D01*
X134116402Y-88831747D01*
X134136107Y-88817133D01*
X134157151Y-88804520D01*
X134179329Y-88794030D01*
X134202429Y-88785765D01*
X134226227Y-88779804D01*
X134250496Y-88776204D01*
X134275000Y-88775000D01*
X135525000Y-88775000D01*
X135549504Y-88776204D01*
G37*
G36*
X135774504Y-79126204D02*
G01*
X135798773Y-79129804D01*
X135822571Y-79135765D01*
X135845671Y-79144030D01*
X135867849Y-79154520D01*
X135888893Y-79167133D01*
X135908598Y-79181747D01*
X135926777Y-79198223D01*
X135943253Y-79216402D01*
X135957867Y-79236107D01*
X135970480Y-79257151D01*
X135980970Y-79279329D01*
X135989235Y-79302429D01*
X135995196Y-79326227D01*
X135998796Y-79350496D01*
X136000000Y-79375000D01*
X136000000Y-80625000D01*
X135998796Y-80649504D01*
X135995196Y-80673773D01*
X135989235Y-80697571D01*
X135980970Y-80720671D01*
X135970480Y-80742849D01*
X135957867Y-80763893D01*
X135943253Y-80783598D01*
X135926777Y-80801777D01*
X135908598Y-80818253D01*
X135888893Y-80832867D01*
X135867849Y-80845480D01*
X135845671Y-80855970D01*
X135822571Y-80864235D01*
X135798773Y-80870196D01*
X135774504Y-80873796D01*
X135750000Y-80875000D01*
X134825000Y-80875000D01*
X134800496Y-80873796D01*
X134776227Y-80870196D01*
X134752429Y-80864235D01*
X134729329Y-80855970D01*
X134707151Y-80845480D01*
X134686107Y-80832867D01*
X134666402Y-80818253D01*
X134648223Y-80801777D01*
X134631747Y-80783598D01*
X134617133Y-80763893D01*
X134604520Y-80742849D01*
X134594030Y-80720671D01*
X134585765Y-80697571D01*
X134579804Y-80673773D01*
X134576204Y-80649504D01*
X134575000Y-80625000D01*
X134575000Y-79375000D01*
X134576204Y-79350496D01*
X134579804Y-79326227D01*
X134585765Y-79302429D01*
X134594030Y-79279329D01*
X134604520Y-79257151D01*
X134617133Y-79236107D01*
X134631747Y-79216402D01*
X134648223Y-79198223D01*
X134666402Y-79181747D01*
X134686107Y-79167133D01*
X134707151Y-79154520D01*
X134729329Y-79144030D01*
X134752429Y-79135765D01*
X134776227Y-79129804D01*
X134800496Y-79126204D01*
X134825000Y-79125000D01*
X135750000Y-79125000D01*
X135774504Y-79126204D01*
G37*
G36*
X132799504Y-79126204D02*
G01*
X132823773Y-79129804D01*
X132847571Y-79135765D01*
X132870671Y-79144030D01*
X132892849Y-79154520D01*
X132913893Y-79167133D01*
X132933598Y-79181747D01*
X132951777Y-79198223D01*
X132968253Y-79216402D01*
X132982867Y-79236107D01*
X132995480Y-79257151D01*
X133005970Y-79279329D01*
X133014235Y-79302429D01*
X133020196Y-79326227D01*
X133023796Y-79350496D01*
X133025000Y-79375000D01*
X133025000Y-80625000D01*
X133023796Y-80649504D01*
X133020196Y-80673773D01*
X133014235Y-80697571D01*
X133005970Y-80720671D01*
X132995480Y-80742849D01*
X132982867Y-80763893D01*
X132968253Y-80783598D01*
X132951777Y-80801777D01*
X132933598Y-80818253D01*
X132913893Y-80832867D01*
X132892849Y-80845480D01*
X132870671Y-80855970D01*
X132847571Y-80864235D01*
X132823773Y-80870196D01*
X132799504Y-80873796D01*
X132775000Y-80875000D01*
X131850000Y-80875000D01*
X131825496Y-80873796D01*
X131801227Y-80870196D01*
X131777429Y-80864235D01*
X131754329Y-80855970D01*
X131732151Y-80845480D01*
X131711107Y-80832867D01*
X131691402Y-80818253D01*
X131673223Y-80801777D01*
X131656747Y-80783598D01*
X131642133Y-80763893D01*
X131629520Y-80742849D01*
X131619030Y-80720671D01*
X131610765Y-80697571D01*
X131604804Y-80673773D01*
X131601204Y-80649504D01*
X131600000Y-80625000D01*
X131600000Y-79375000D01*
X131601204Y-79350496D01*
X131604804Y-79326227D01*
X131610765Y-79302429D01*
X131619030Y-79279329D01*
X131629520Y-79257151D01*
X131642133Y-79236107D01*
X131656747Y-79216402D01*
X131673223Y-79198223D01*
X131691402Y-79181747D01*
X131711107Y-79167133D01*
X131732151Y-79154520D01*
X131754329Y-79144030D01*
X131777429Y-79135765D01*
X131801227Y-79129804D01*
X131825496Y-79126204D01*
X131850000Y-79125000D01*
X132775000Y-79125000D01*
X132799504Y-79126204D01*
G37*
G36*
X142849505Y-61601204D02*
G01*
X142873773Y-61604804D01*
X142897572Y-61610765D01*
X142920671Y-61619030D01*
X142942850Y-61629520D01*
X142963893Y-61642132D01*
X142983599Y-61656747D01*
X143001777Y-61673223D01*
X143018253Y-61691401D01*
X143032868Y-61711107D01*
X143045480Y-61732150D01*
X143055970Y-61754329D01*
X143064235Y-61777428D01*
X143070196Y-61801227D01*
X143073796Y-61825495D01*
X143075000Y-61849999D01*
X143075000Y-62550001D01*
X143073796Y-62574505D01*
X143070196Y-62598773D01*
X143064235Y-62622572D01*
X143055970Y-62645671D01*
X143045480Y-62667850D01*
X143032868Y-62688893D01*
X143018253Y-62708599D01*
X143001777Y-62726777D01*
X142983599Y-62743253D01*
X142963893Y-62757868D01*
X142942850Y-62770480D01*
X142920671Y-62780970D01*
X142897572Y-62789235D01*
X142873773Y-62795196D01*
X142849505Y-62798796D01*
X142825001Y-62800000D01*
X141524999Y-62800000D01*
X141500495Y-62798796D01*
X141476227Y-62795196D01*
X141452428Y-62789235D01*
X141429329Y-62780970D01*
X141407150Y-62770480D01*
X141386107Y-62757868D01*
X141366401Y-62743253D01*
X141348223Y-62726777D01*
X141331747Y-62708599D01*
X141317132Y-62688893D01*
X141304520Y-62667850D01*
X141294030Y-62645671D01*
X141285765Y-62622572D01*
X141279804Y-62598773D01*
X141276204Y-62574505D01*
X141275000Y-62550001D01*
X141275000Y-61849999D01*
X141276204Y-61825495D01*
X141279804Y-61801227D01*
X141285765Y-61777428D01*
X141294030Y-61754329D01*
X141304520Y-61732150D01*
X141317132Y-61711107D01*
X141331747Y-61691401D01*
X141348223Y-61673223D01*
X141366401Y-61656747D01*
X141386107Y-61642132D01*
X141407150Y-61629520D01*
X141429329Y-61619030D01*
X141452428Y-61610765D01*
X141476227Y-61604804D01*
X141500495Y-61601204D01*
X141524999Y-61600000D01*
X142825001Y-61600000D01*
X142849505Y-61601204D01*
G37*
G36*
X142849505Y-67201204D02*
G01*
X142873773Y-67204804D01*
X142897572Y-67210765D01*
X142920671Y-67219030D01*
X142942850Y-67229520D01*
X142963893Y-67242132D01*
X142983599Y-67256747D01*
X143001777Y-67273223D01*
X143018253Y-67291401D01*
X143032868Y-67311107D01*
X143045480Y-67332150D01*
X143055970Y-67354329D01*
X143064235Y-67377428D01*
X143070196Y-67401227D01*
X143073796Y-67425495D01*
X143075000Y-67449999D01*
X143075000Y-68150001D01*
X143073796Y-68174505D01*
X143070196Y-68198773D01*
X143064235Y-68222572D01*
X143055970Y-68245671D01*
X143045480Y-68267850D01*
X143032868Y-68288893D01*
X143018253Y-68308599D01*
X143001777Y-68326777D01*
X142983599Y-68343253D01*
X142963893Y-68357868D01*
X142942850Y-68370480D01*
X142920671Y-68380970D01*
X142897572Y-68389235D01*
X142873773Y-68395196D01*
X142849505Y-68398796D01*
X142825001Y-68400000D01*
X141524999Y-68400000D01*
X141500495Y-68398796D01*
X141476227Y-68395196D01*
X141452428Y-68389235D01*
X141429329Y-68380970D01*
X141407150Y-68370480D01*
X141386107Y-68357868D01*
X141366401Y-68343253D01*
X141348223Y-68326777D01*
X141331747Y-68308599D01*
X141317132Y-68288893D01*
X141304520Y-68267850D01*
X141294030Y-68245671D01*
X141285765Y-68222572D01*
X141279804Y-68198773D01*
X141276204Y-68174505D01*
X141275000Y-68150001D01*
X141275000Y-67449999D01*
X141276204Y-67425495D01*
X141279804Y-67401227D01*
X141285765Y-67377428D01*
X141294030Y-67354329D01*
X141304520Y-67332150D01*
X141317132Y-67311107D01*
X141331747Y-67291401D01*
X141348223Y-67273223D01*
X141366401Y-67256747D01*
X141386107Y-67242132D01*
X141407150Y-67229520D01*
X141429329Y-67219030D01*
X141452428Y-67210765D01*
X141476227Y-67204804D01*
X141500495Y-67201204D01*
X141524999Y-67200000D01*
X142825001Y-67200000D01*
X142849505Y-67201204D01*
G37*
G36*
X138939703Y-63200722D02*
G01*
X138954264Y-63202882D01*
X138968543Y-63206459D01*
X138982403Y-63211418D01*
X138995710Y-63217712D01*
X139008336Y-63225280D01*
X139020159Y-63234048D01*
X139031066Y-63243934D01*
X139040952Y-63254841D01*
X139049720Y-63266664D01*
X139057288Y-63279290D01*
X139063582Y-63292597D01*
X139068541Y-63306457D01*
X139072118Y-63320736D01*
X139074278Y-63335297D01*
X139075000Y-63350000D01*
X139075000Y-63650000D01*
X139074278Y-63664703D01*
X139072118Y-63679264D01*
X139068541Y-63693543D01*
X139063582Y-63707403D01*
X139057288Y-63720710D01*
X139049720Y-63733336D01*
X139040952Y-63745159D01*
X139031066Y-63756066D01*
X139020159Y-63765952D01*
X139008336Y-63774720D01*
X138995710Y-63782288D01*
X138982403Y-63788582D01*
X138968543Y-63793541D01*
X138954264Y-63797118D01*
X138939703Y-63799278D01*
X138925000Y-63800000D01*
X137675000Y-63800000D01*
X137660297Y-63799278D01*
X137645736Y-63797118D01*
X137631457Y-63793541D01*
X137617597Y-63788582D01*
X137604290Y-63782288D01*
X137591664Y-63774720D01*
X137579841Y-63765952D01*
X137568934Y-63756066D01*
X137559048Y-63745159D01*
X137550280Y-63733336D01*
X137542712Y-63720710D01*
X137536418Y-63707403D01*
X137531459Y-63693543D01*
X137527882Y-63679264D01*
X137525722Y-63664703D01*
X137525000Y-63650000D01*
X137525000Y-63350000D01*
X137525722Y-63335297D01*
X137527882Y-63320736D01*
X137531459Y-63306457D01*
X137536418Y-63292597D01*
X137542712Y-63279290D01*
X137550280Y-63266664D01*
X137559048Y-63254841D01*
X137568934Y-63243934D01*
X137579841Y-63234048D01*
X137591664Y-63225280D01*
X137604290Y-63217712D01*
X137617597Y-63211418D01*
X137631457Y-63206459D01*
X137645736Y-63202882D01*
X137660297Y-63200722D01*
X137675000Y-63200000D01*
X138925000Y-63200000D01*
X138939703Y-63200722D01*
G37*
G36*
X138939703Y-64200722D02*
G01*
X138954264Y-64202882D01*
X138968543Y-64206459D01*
X138982403Y-64211418D01*
X138995710Y-64217712D01*
X139008336Y-64225280D01*
X139020159Y-64234048D01*
X139031066Y-64243934D01*
X139040952Y-64254841D01*
X139049720Y-64266664D01*
X139057288Y-64279290D01*
X139063582Y-64292597D01*
X139068541Y-64306457D01*
X139072118Y-64320736D01*
X139074278Y-64335297D01*
X139075000Y-64350000D01*
X139075000Y-64650000D01*
X139074278Y-64664703D01*
X139072118Y-64679264D01*
X139068541Y-64693543D01*
X139063582Y-64707403D01*
X139057288Y-64720710D01*
X139049720Y-64733336D01*
X139040952Y-64745159D01*
X139031066Y-64756066D01*
X139020159Y-64765952D01*
X139008336Y-64774720D01*
X138995710Y-64782288D01*
X138982403Y-64788582D01*
X138968543Y-64793541D01*
X138954264Y-64797118D01*
X138939703Y-64799278D01*
X138925000Y-64800000D01*
X137675000Y-64800000D01*
X137660297Y-64799278D01*
X137645736Y-64797118D01*
X137631457Y-64793541D01*
X137617597Y-64788582D01*
X137604290Y-64782288D01*
X137591664Y-64774720D01*
X137579841Y-64765952D01*
X137568934Y-64756066D01*
X137559048Y-64745159D01*
X137550280Y-64733336D01*
X137542712Y-64720710D01*
X137536418Y-64707403D01*
X137531459Y-64693543D01*
X137527882Y-64679264D01*
X137525722Y-64664703D01*
X137525000Y-64650000D01*
X137525000Y-64350000D01*
X137525722Y-64335297D01*
X137527882Y-64320736D01*
X137531459Y-64306457D01*
X137536418Y-64292597D01*
X137542712Y-64279290D01*
X137550280Y-64266664D01*
X137559048Y-64254841D01*
X137568934Y-64243934D01*
X137579841Y-64234048D01*
X137591664Y-64225280D01*
X137604290Y-64217712D01*
X137617597Y-64211418D01*
X137631457Y-64206459D01*
X137645736Y-64202882D01*
X137660297Y-64200722D01*
X137675000Y-64200000D01*
X138925000Y-64200000D01*
X138939703Y-64200722D01*
G37*
G36*
X138939703Y-65200722D02*
G01*
X138954264Y-65202882D01*
X138968543Y-65206459D01*
X138982403Y-65211418D01*
X138995710Y-65217712D01*
X139008336Y-65225280D01*
X139020159Y-65234048D01*
X139031066Y-65243934D01*
X139040952Y-65254841D01*
X139049720Y-65266664D01*
X139057288Y-65279290D01*
X139063582Y-65292597D01*
X139068541Y-65306457D01*
X139072118Y-65320736D01*
X139074278Y-65335297D01*
X139075000Y-65350000D01*
X139075000Y-65650000D01*
X139074278Y-65664703D01*
X139072118Y-65679264D01*
X139068541Y-65693543D01*
X139063582Y-65707403D01*
X139057288Y-65720710D01*
X139049720Y-65733336D01*
X139040952Y-65745159D01*
X139031066Y-65756066D01*
X139020159Y-65765952D01*
X139008336Y-65774720D01*
X138995710Y-65782288D01*
X138982403Y-65788582D01*
X138968543Y-65793541D01*
X138954264Y-65797118D01*
X138939703Y-65799278D01*
X138925000Y-65800000D01*
X137675000Y-65800000D01*
X137660297Y-65799278D01*
X137645736Y-65797118D01*
X137631457Y-65793541D01*
X137617597Y-65788582D01*
X137604290Y-65782288D01*
X137591664Y-65774720D01*
X137579841Y-65765952D01*
X137568934Y-65756066D01*
X137559048Y-65745159D01*
X137550280Y-65733336D01*
X137542712Y-65720710D01*
X137536418Y-65707403D01*
X137531459Y-65693543D01*
X137527882Y-65679264D01*
X137525722Y-65664703D01*
X137525000Y-65650000D01*
X137525000Y-65350000D01*
X137525722Y-65335297D01*
X137527882Y-65320736D01*
X137531459Y-65306457D01*
X137536418Y-65292597D01*
X137542712Y-65279290D01*
X137550280Y-65266664D01*
X137559048Y-65254841D01*
X137568934Y-65243934D01*
X137579841Y-65234048D01*
X137591664Y-65225280D01*
X137604290Y-65217712D01*
X137617597Y-65211418D01*
X137631457Y-65206459D01*
X137645736Y-65202882D01*
X137660297Y-65200722D01*
X137675000Y-65200000D01*
X138925000Y-65200000D01*
X138939703Y-65200722D01*
G37*
G36*
X138939703Y-66200722D02*
G01*
X138954264Y-66202882D01*
X138968543Y-66206459D01*
X138982403Y-66211418D01*
X138995710Y-66217712D01*
X139008336Y-66225280D01*
X139020159Y-66234048D01*
X139031066Y-66243934D01*
X139040952Y-66254841D01*
X139049720Y-66266664D01*
X139057288Y-66279290D01*
X139063582Y-66292597D01*
X139068541Y-66306457D01*
X139072118Y-66320736D01*
X139074278Y-66335297D01*
X139075000Y-66350000D01*
X139075000Y-66650000D01*
X139074278Y-66664703D01*
X139072118Y-66679264D01*
X139068541Y-66693543D01*
X139063582Y-66707403D01*
X139057288Y-66720710D01*
X139049720Y-66733336D01*
X139040952Y-66745159D01*
X139031066Y-66756066D01*
X139020159Y-66765952D01*
X139008336Y-66774720D01*
X138995710Y-66782288D01*
X138982403Y-66788582D01*
X138968543Y-66793541D01*
X138954264Y-66797118D01*
X138939703Y-66799278D01*
X138925000Y-66800000D01*
X137675000Y-66800000D01*
X137660297Y-66799278D01*
X137645736Y-66797118D01*
X137631457Y-66793541D01*
X137617597Y-66788582D01*
X137604290Y-66782288D01*
X137591664Y-66774720D01*
X137579841Y-66765952D01*
X137568934Y-66756066D01*
X137559048Y-66745159D01*
X137550280Y-66733336D01*
X137542712Y-66720710D01*
X137536418Y-66707403D01*
X137531459Y-66693543D01*
X137527882Y-66679264D01*
X137525722Y-66664703D01*
X137525000Y-66650000D01*
X137525000Y-66350000D01*
X137525722Y-66335297D01*
X137527882Y-66320736D01*
X137531459Y-66306457D01*
X137536418Y-66292597D01*
X137542712Y-66279290D01*
X137550280Y-66266664D01*
X137559048Y-66254841D01*
X137568934Y-66243934D01*
X137579841Y-66234048D01*
X137591664Y-66225280D01*
X137604290Y-66217712D01*
X137617597Y-66211418D01*
X137631457Y-66206459D01*
X137645736Y-66202882D01*
X137660297Y-66200722D01*
X137675000Y-66200000D01*
X138925000Y-66200000D01*
X138939703Y-66200722D01*
G37*
G36*
X90299505Y-91901204D02*
G01*
X90323773Y-91904804D01*
X90347572Y-91910765D01*
X90370671Y-91919030D01*
X90392850Y-91929520D01*
X90413893Y-91942132D01*
X90433599Y-91956747D01*
X90451777Y-91973223D01*
X90468253Y-91991401D01*
X90482868Y-92011107D01*
X90495480Y-92032150D01*
X90505970Y-92054329D01*
X90514235Y-92077428D01*
X90520196Y-92101227D01*
X90523796Y-92125495D01*
X90525000Y-92149999D01*
X90525000Y-92850001D01*
X90523796Y-92874505D01*
X90520196Y-92898773D01*
X90514235Y-92922572D01*
X90505970Y-92945671D01*
X90495480Y-92967850D01*
X90482868Y-92988893D01*
X90468253Y-93008599D01*
X90451777Y-93026777D01*
X90433599Y-93043253D01*
X90413893Y-93057868D01*
X90392850Y-93070480D01*
X90370671Y-93080970D01*
X90347572Y-93089235D01*
X90323773Y-93095196D01*
X90299505Y-93098796D01*
X90275001Y-93100000D01*
X88974999Y-93100000D01*
X88950495Y-93098796D01*
X88926227Y-93095196D01*
X88902428Y-93089235D01*
X88879329Y-93080970D01*
X88857150Y-93070480D01*
X88836107Y-93057868D01*
X88816401Y-93043253D01*
X88798223Y-93026777D01*
X88781747Y-93008599D01*
X88767132Y-92988893D01*
X88754520Y-92967850D01*
X88744030Y-92945671D01*
X88735765Y-92922572D01*
X88729804Y-92898773D01*
X88726204Y-92874505D01*
X88725000Y-92850001D01*
X88725000Y-92149999D01*
X88726204Y-92125495D01*
X88729804Y-92101227D01*
X88735765Y-92077428D01*
X88744030Y-92054329D01*
X88754520Y-92032150D01*
X88767132Y-92011107D01*
X88781747Y-91991401D01*
X88798223Y-91973223D01*
X88816401Y-91956747D01*
X88836107Y-91942132D01*
X88857150Y-91929520D01*
X88879329Y-91919030D01*
X88902428Y-91910765D01*
X88926227Y-91904804D01*
X88950495Y-91901204D01*
X88974999Y-91900000D01*
X90275001Y-91900000D01*
X90299505Y-91901204D01*
G37*
G36*
X90299505Y-86301204D02*
G01*
X90323773Y-86304804D01*
X90347572Y-86310765D01*
X90370671Y-86319030D01*
X90392850Y-86329520D01*
X90413893Y-86342132D01*
X90433599Y-86356747D01*
X90451777Y-86373223D01*
X90468253Y-86391401D01*
X90482868Y-86411107D01*
X90495480Y-86432150D01*
X90505970Y-86454329D01*
X90514235Y-86477428D01*
X90520196Y-86501227D01*
X90523796Y-86525495D01*
X90525000Y-86549999D01*
X90525000Y-87250001D01*
X90523796Y-87274505D01*
X90520196Y-87298773D01*
X90514235Y-87322572D01*
X90505970Y-87345671D01*
X90495480Y-87367850D01*
X90482868Y-87388893D01*
X90468253Y-87408599D01*
X90451777Y-87426777D01*
X90433599Y-87443253D01*
X90413893Y-87457868D01*
X90392850Y-87470480D01*
X90370671Y-87480970D01*
X90347572Y-87489235D01*
X90323773Y-87495196D01*
X90299505Y-87498796D01*
X90275001Y-87500000D01*
X88974999Y-87500000D01*
X88950495Y-87498796D01*
X88926227Y-87495196D01*
X88902428Y-87489235D01*
X88879329Y-87480970D01*
X88857150Y-87470480D01*
X88836107Y-87457868D01*
X88816401Y-87443253D01*
X88798223Y-87426777D01*
X88781747Y-87408599D01*
X88767132Y-87388893D01*
X88754520Y-87367850D01*
X88744030Y-87345671D01*
X88735765Y-87322572D01*
X88729804Y-87298773D01*
X88726204Y-87274505D01*
X88725000Y-87250001D01*
X88725000Y-86549999D01*
X88726204Y-86525495D01*
X88729804Y-86501227D01*
X88735765Y-86477428D01*
X88744030Y-86454329D01*
X88754520Y-86432150D01*
X88767132Y-86411107D01*
X88781747Y-86391401D01*
X88798223Y-86373223D01*
X88816401Y-86356747D01*
X88836107Y-86342132D01*
X88857150Y-86329520D01*
X88879329Y-86319030D01*
X88902428Y-86310765D01*
X88926227Y-86304804D01*
X88950495Y-86301204D01*
X88974999Y-86300000D01*
X90275001Y-86300000D01*
X90299505Y-86301204D01*
G37*
G36*
X94139703Y-90900722D02*
G01*
X94154264Y-90902882D01*
X94168543Y-90906459D01*
X94182403Y-90911418D01*
X94195710Y-90917712D01*
X94208336Y-90925280D01*
X94220159Y-90934048D01*
X94231066Y-90943934D01*
X94240952Y-90954841D01*
X94249720Y-90966664D01*
X94257288Y-90979290D01*
X94263582Y-90992597D01*
X94268541Y-91006457D01*
X94272118Y-91020736D01*
X94274278Y-91035297D01*
X94275000Y-91050000D01*
X94275000Y-91350000D01*
X94274278Y-91364703D01*
X94272118Y-91379264D01*
X94268541Y-91393543D01*
X94263582Y-91407403D01*
X94257288Y-91420710D01*
X94249720Y-91433336D01*
X94240952Y-91445159D01*
X94231066Y-91456066D01*
X94220159Y-91465952D01*
X94208336Y-91474720D01*
X94195710Y-91482288D01*
X94182403Y-91488582D01*
X94168543Y-91493541D01*
X94154264Y-91497118D01*
X94139703Y-91499278D01*
X94125000Y-91500000D01*
X92875000Y-91500000D01*
X92860297Y-91499278D01*
X92845736Y-91497118D01*
X92831457Y-91493541D01*
X92817597Y-91488582D01*
X92804290Y-91482288D01*
X92791664Y-91474720D01*
X92779841Y-91465952D01*
X92768934Y-91456066D01*
X92759048Y-91445159D01*
X92750280Y-91433336D01*
X92742712Y-91420710D01*
X92736418Y-91407403D01*
X92731459Y-91393543D01*
X92727882Y-91379264D01*
X92725722Y-91364703D01*
X92725000Y-91350000D01*
X92725000Y-91050000D01*
X92725722Y-91035297D01*
X92727882Y-91020736D01*
X92731459Y-91006457D01*
X92736418Y-90992597D01*
X92742712Y-90979290D01*
X92750280Y-90966664D01*
X92759048Y-90954841D01*
X92768934Y-90943934D01*
X92779841Y-90934048D01*
X92791664Y-90925280D01*
X92804290Y-90917712D01*
X92817597Y-90911418D01*
X92831457Y-90906459D01*
X92845736Y-90902882D01*
X92860297Y-90900722D01*
X92875000Y-90900000D01*
X94125000Y-90900000D01*
X94139703Y-90900722D01*
G37*
G36*
X94139703Y-89900722D02*
G01*
X94154264Y-89902882D01*
X94168543Y-89906459D01*
X94182403Y-89911418D01*
X94195710Y-89917712D01*
X94208336Y-89925280D01*
X94220159Y-89934048D01*
X94231066Y-89943934D01*
X94240952Y-89954841D01*
X94249720Y-89966664D01*
X94257288Y-89979290D01*
X94263582Y-89992597D01*
X94268541Y-90006457D01*
X94272118Y-90020736D01*
X94274278Y-90035297D01*
X94275000Y-90050000D01*
X94275000Y-90350000D01*
X94274278Y-90364703D01*
X94272118Y-90379264D01*
X94268541Y-90393543D01*
X94263582Y-90407403D01*
X94257288Y-90420710D01*
X94249720Y-90433336D01*
X94240952Y-90445159D01*
X94231066Y-90456066D01*
X94220159Y-90465952D01*
X94208336Y-90474720D01*
X94195710Y-90482288D01*
X94182403Y-90488582D01*
X94168543Y-90493541D01*
X94154264Y-90497118D01*
X94139703Y-90499278D01*
X94125000Y-90500000D01*
X92875000Y-90500000D01*
X92860297Y-90499278D01*
X92845736Y-90497118D01*
X92831457Y-90493541D01*
X92817597Y-90488582D01*
X92804290Y-90482288D01*
X92791664Y-90474720D01*
X92779841Y-90465952D01*
X92768934Y-90456066D01*
X92759048Y-90445159D01*
X92750280Y-90433336D01*
X92742712Y-90420710D01*
X92736418Y-90407403D01*
X92731459Y-90393543D01*
X92727882Y-90379264D01*
X92725722Y-90364703D01*
X92725000Y-90350000D01*
X92725000Y-90050000D01*
X92725722Y-90035297D01*
X92727882Y-90020736D01*
X92731459Y-90006457D01*
X92736418Y-89992597D01*
X92742712Y-89979290D01*
X92750280Y-89966664D01*
X92759048Y-89954841D01*
X92768934Y-89943934D01*
X92779841Y-89934048D01*
X92791664Y-89925280D01*
X92804290Y-89917712D01*
X92817597Y-89911418D01*
X92831457Y-89906459D01*
X92845736Y-89902882D01*
X92860297Y-89900722D01*
X92875000Y-89900000D01*
X94125000Y-89900000D01*
X94139703Y-89900722D01*
G37*
G36*
X94139703Y-88900722D02*
G01*
X94154264Y-88902882D01*
X94168543Y-88906459D01*
X94182403Y-88911418D01*
X94195710Y-88917712D01*
X94208336Y-88925280D01*
X94220159Y-88934048D01*
X94231066Y-88943934D01*
X94240952Y-88954841D01*
X94249720Y-88966664D01*
X94257288Y-88979290D01*
X94263582Y-88992597D01*
X94268541Y-89006457D01*
X94272118Y-89020736D01*
X94274278Y-89035297D01*
X94275000Y-89050000D01*
X94275000Y-89350000D01*
X94274278Y-89364703D01*
X94272118Y-89379264D01*
X94268541Y-89393543D01*
X94263582Y-89407403D01*
X94257288Y-89420710D01*
X94249720Y-89433336D01*
X94240952Y-89445159D01*
X94231066Y-89456066D01*
X94220159Y-89465952D01*
X94208336Y-89474720D01*
X94195710Y-89482288D01*
X94182403Y-89488582D01*
X94168543Y-89493541D01*
X94154264Y-89497118D01*
X94139703Y-89499278D01*
X94125000Y-89500000D01*
X92875000Y-89500000D01*
X92860297Y-89499278D01*
X92845736Y-89497118D01*
X92831457Y-89493541D01*
X92817597Y-89488582D01*
X92804290Y-89482288D01*
X92791664Y-89474720D01*
X92779841Y-89465952D01*
X92768934Y-89456066D01*
X92759048Y-89445159D01*
X92750280Y-89433336D01*
X92742712Y-89420710D01*
X92736418Y-89407403D01*
X92731459Y-89393543D01*
X92727882Y-89379264D01*
X92725722Y-89364703D01*
X92725000Y-89350000D01*
X92725000Y-89050000D01*
X92725722Y-89035297D01*
X92727882Y-89020736D01*
X92731459Y-89006457D01*
X92736418Y-88992597D01*
X92742712Y-88979290D01*
X92750280Y-88966664D01*
X92759048Y-88954841D01*
X92768934Y-88943934D01*
X92779841Y-88934048D01*
X92791664Y-88925280D01*
X92804290Y-88917712D01*
X92817597Y-88911418D01*
X92831457Y-88906459D01*
X92845736Y-88902882D01*
X92860297Y-88900722D01*
X92875000Y-88900000D01*
X94125000Y-88900000D01*
X94139703Y-88900722D01*
G37*
G36*
X94139703Y-87900722D02*
G01*
X94154264Y-87902882D01*
X94168543Y-87906459D01*
X94182403Y-87911418D01*
X94195710Y-87917712D01*
X94208336Y-87925280D01*
X94220159Y-87934048D01*
X94231066Y-87943934D01*
X94240952Y-87954841D01*
X94249720Y-87966664D01*
X94257288Y-87979290D01*
X94263582Y-87992597D01*
X94268541Y-88006457D01*
X94272118Y-88020736D01*
X94274278Y-88035297D01*
X94275000Y-88050000D01*
X94275000Y-88350000D01*
X94274278Y-88364703D01*
X94272118Y-88379264D01*
X94268541Y-88393543D01*
X94263582Y-88407403D01*
X94257288Y-88420710D01*
X94249720Y-88433336D01*
X94240952Y-88445159D01*
X94231066Y-88456066D01*
X94220159Y-88465952D01*
X94208336Y-88474720D01*
X94195710Y-88482288D01*
X94182403Y-88488582D01*
X94168543Y-88493541D01*
X94154264Y-88497118D01*
X94139703Y-88499278D01*
X94125000Y-88500000D01*
X92875000Y-88500000D01*
X92860297Y-88499278D01*
X92845736Y-88497118D01*
X92831457Y-88493541D01*
X92817597Y-88488582D01*
X92804290Y-88482288D01*
X92791664Y-88474720D01*
X92779841Y-88465952D01*
X92768934Y-88456066D01*
X92759048Y-88445159D01*
X92750280Y-88433336D01*
X92742712Y-88420710D01*
X92736418Y-88407403D01*
X92731459Y-88393543D01*
X92727882Y-88379264D01*
X92725722Y-88364703D01*
X92725000Y-88350000D01*
X92725000Y-88050000D01*
X92725722Y-88035297D01*
X92727882Y-88020736D01*
X92731459Y-88006457D01*
X92736418Y-87992597D01*
X92742712Y-87979290D01*
X92750280Y-87966664D01*
X92759048Y-87954841D01*
X92768934Y-87943934D01*
X92779841Y-87934048D01*
X92791664Y-87925280D01*
X92804290Y-87917712D01*
X92817597Y-87911418D01*
X92831457Y-87906459D01*
X92845736Y-87902882D01*
X92860297Y-87900722D01*
X92875000Y-87900000D01*
X94125000Y-87900000D01*
X94139703Y-87900722D01*
G37*
G36*
X90299505Y-83501204D02*
G01*
X90323773Y-83504804D01*
X90347572Y-83510765D01*
X90370671Y-83519030D01*
X90392850Y-83529520D01*
X90413893Y-83542132D01*
X90433599Y-83556747D01*
X90451777Y-83573223D01*
X90468253Y-83591401D01*
X90482868Y-83611107D01*
X90495480Y-83632150D01*
X90505970Y-83654329D01*
X90514235Y-83677428D01*
X90520196Y-83701227D01*
X90523796Y-83725495D01*
X90525000Y-83749999D01*
X90525000Y-84450001D01*
X90523796Y-84474505D01*
X90520196Y-84498773D01*
X90514235Y-84522572D01*
X90505970Y-84545671D01*
X90495480Y-84567850D01*
X90482868Y-84588893D01*
X90468253Y-84608599D01*
X90451777Y-84626777D01*
X90433599Y-84643253D01*
X90413893Y-84657868D01*
X90392850Y-84670480D01*
X90370671Y-84680970D01*
X90347572Y-84689235D01*
X90323773Y-84695196D01*
X90299505Y-84698796D01*
X90275001Y-84700000D01*
X88974999Y-84700000D01*
X88950495Y-84698796D01*
X88926227Y-84695196D01*
X88902428Y-84689235D01*
X88879329Y-84680970D01*
X88857150Y-84670480D01*
X88836107Y-84657868D01*
X88816401Y-84643253D01*
X88798223Y-84626777D01*
X88781747Y-84608599D01*
X88767132Y-84588893D01*
X88754520Y-84567850D01*
X88744030Y-84545671D01*
X88735765Y-84522572D01*
X88729804Y-84498773D01*
X88726204Y-84474505D01*
X88725000Y-84450001D01*
X88725000Y-83749999D01*
X88726204Y-83725495D01*
X88729804Y-83701227D01*
X88735765Y-83677428D01*
X88744030Y-83654329D01*
X88754520Y-83632150D01*
X88767132Y-83611107D01*
X88781747Y-83591401D01*
X88798223Y-83573223D01*
X88816401Y-83556747D01*
X88836107Y-83542132D01*
X88857150Y-83529520D01*
X88879329Y-83519030D01*
X88902428Y-83510765D01*
X88926227Y-83504804D01*
X88950495Y-83501204D01*
X88974999Y-83500000D01*
X90275001Y-83500000D01*
X90299505Y-83501204D01*
G37*
G36*
X90299505Y-77901204D02*
G01*
X90323773Y-77904804D01*
X90347572Y-77910765D01*
X90370671Y-77919030D01*
X90392850Y-77929520D01*
X90413893Y-77942132D01*
X90433599Y-77956747D01*
X90451777Y-77973223D01*
X90468253Y-77991401D01*
X90482868Y-78011107D01*
X90495480Y-78032150D01*
X90505970Y-78054329D01*
X90514235Y-78077428D01*
X90520196Y-78101227D01*
X90523796Y-78125495D01*
X90525000Y-78149999D01*
X90525000Y-78850001D01*
X90523796Y-78874505D01*
X90520196Y-78898773D01*
X90514235Y-78922572D01*
X90505970Y-78945671D01*
X90495480Y-78967850D01*
X90482868Y-78988893D01*
X90468253Y-79008599D01*
X90451777Y-79026777D01*
X90433599Y-79043253D01*
X90413893Y-79057868D01*
X90392850Y-79070480D01*
X90370671Y-79080970D01*
X90347572Y-79089235D01*
X90323773Y-79095196D01*
X90299505Y-79098796D01*
X90275001Y-79100000D01*
X88974999Y-79100000D01*
X88950495Y-79098796D01*
X88926227Y-79095196D01*
X88902428Y-79089235D01*
X88879329Y-79080970D01*
X88857150Y-79070480D01*
X88836107Y-79057868D01*
X88816401Y-79043253D01*
X88798223Y-79026777D01*
X88781747Y-79008599D01*
X88767132Y-78988893D01*
X88754520Y-78967850D01*
X88744030Y-78945671D01*
X88735765Y-78922572D01*
X88729804Y-78898773D01*
X88726204Y-78874505D01*
X88725000Y-78850001D01*
X88725000Y-78149999D01*
X88726204Y-78125495D01*
X88729804Y-78101227D01*
X88735765Y-78077428D01*
X88744030Y-78054329D01*
X88754520Y-78032150D01*
X88767132Y-78011107D01*
X88781747Y-77991401D01*
X88798223Y-77973223D01*
X88816401Y-77956747D01*
X88836107Y-77942132D01*
X88857150Y-77929520D01*
X88879329Y-77919030D01*
X88902428Y-77910765D01*
X88926227Y-77904804D01*
X88950495Y-77901204D01*
X88974999Y-77900000D01*
X90275001Y-77900000D01*
X90299505Y-77901204D01*
G37*
G36*
X94139703Y-82500722D02*
G01*
X94154264Y-82502882D01*
X94168543Y-82506459D01*
X94182403Y-82511418D01*
X94195710Y-82517712D01*
X94208336Y-82525280D01*
X94220159Y-82534048D01*
X94231066Y-82543934D01*
X94240952Y-82554841D01*
X94249720Y-82566664D01*
X94257288Y-82579290D01*
X94263582Y-82592597D01*
X94268541Y-82606457D01*
X94272118Y-82620736D01*
X94274278Y-82635297D01*
X94275000Y-82650000D01*
X94275000Y-82950000D01*
X94274278Y-82964703D01*
X94272118Y-82979264D01*
X94268541Y-82993543D01*
X94263582Y-83007403D01*
X94257288Y-83020710D01*
X94249720Y-83033336D01*
X94240952Y-83045159D01*
X94231066Y-83056066D01*
X94220159Y-83065952D01*
X94208336Y-83074720D01*
X94195710Y-83082288D01*
X94182403Y-83088582D01*
X94168543Y-83093541D01*
X94154264Y-83097118D01*
X94139703Y-83099278D01*
X94125000Y-83100000D01*
X92875000Y-83100000D01*
X92860297Y-83099278D01*
X92845736Y-83097118D01*
X92831457Y-83093541D01*
X92817597Y-83088582D01*
X92804290Y-83082288D01*
X92791664Y-83074720D01*
X92779841Y-83065952D01*
X92768934Y-83056066D01*
X92759048Y-83045159D01*
X92750280Y-83033336D01*
X92742712Y-83020710D01*
X92736418Y-83007403D01*
X92731459Y-82993543D01*
X92727882Y-82979264D01*
X92725722Y-82964703D01*
X92725000Y-82950000D01*
X92725000Y-82650000D01*
X92725722Y-82635297D01*
X92727882Y-82620736D01*
X92731459Y-82606457D01*
X92736418Y-82592597D01*
X92742712Y-82579290D01*
X92750280Y-82566664D01*
X92759048Y-82554841D01*
X92768934Y-82543934D01*
X92779841Y-82534048D01*
X92791664Y-82525280D01*
X92804290Y-82517712D01*
X92817597Y-82511418D01*
X92831457Y-82506459D01*
X92845736Y-82502882D01*
X92860297Y-82500722D01*
X92875000Y-82500000D01*
X94125000Y-82500000D01*
X94139703Y-82500722D01*
G37*
G36*
X94139703Y-81500722D02*
G01*
X94154264Y-81502882D01*
X94168543Y-81506459D01*
X94182403Y-81511418D01*
X94195710Y-81517712D01*
X94208336Y-81525280D01*
X94220159Y-81534048D01*
X94231066Y-81543934D01*
X94240952Y-81554841D01*
X94249720Y-81566664D01*
X94257288Y-81579290D01*
X94263582Y-81592597D01*
X94268541Y-81606457D01*
X94272118Y-81620736D01*
X94274278Y-81635297D01*
X94275000Y-81650000D01*
X94275000Y-81950000D01*
X94274278Y-81964703D01*
X94272118Y-81979264D01*
X94268541Y-81993543D01*
X94263582Y-82007403D01*
X94257288Y-82020710D01*
X94249720Y-82033336D01*
X94240952Y-82045159D01*
X94231066Y-82056066D01*
X94220159Y-82065952D01*
X94208336Y-82074720D01*
X94195710Y-82082288D01*
X94182403Y-82088582D01*
X94168543Y-82093541D01*
X94154264Y-82097118D01*
X94139703Y-82099278D01*
X94125000Y-82100000D01*
X92875000Y-82100000D01*
X92860297Y-82099278D01*
X92845736Y-82097118D01*
X92831457Y-82093541D01*
X92817597Y-82088582D01*
X92804290Y-82082288D01*
X92791664Y-82074720D01*
X92779841Y-82065952D01*
X92768934Y-82056066D01*
X92759048Y-82045159D01*
X92750280Y-82033336D01*
X92742712Y-82020710D01*
X92736418Y-82007403D01*
X92731459Y-81993543D01*
X92727882Y-81979264D01*
X92725722Y-81964703D01*
X92725000Y-81950000D01*
X92725000Y-81650000D01*
X92725722Y-81635297D01*
X92727882Y-81620736D01*
X92731459Y-81606457D01*
X92736418Y-81592597D01*
X92742712Y-81579290D01*
X92750280Y-81566664D01*
X92759048Y-81554841D01*
X92768934Y-81543934D01*
X92779841Y-81534048D01*
X92791664Y-81525280D01*
X92804290Y-81517712D01*
X92817597Y-81511418D01*
X92831457Y-81506459D01*
X92845736Y-81502882D01*
X92860297Y-81500722D01*
X92875000Y-81500000D01*
X94125000Y-81500000D01*
X94139703Y-81500722D01*
G37*
G36*
X94139703Y-80500722D02*
G01*
X94154264Y-80502882D01*
X94168543Y-80506459D01*
X94182403Y-80511418D01*
X94195710Y-80517712D01*
X94208336Y-80525280D01*
X94220159Y-80534048D01*
X94231066Y-80543934D01*
X94240952Y-80554841D01*
X94249720Y-80566664D01*
X94257288Y-80579290D01*
X94263582Y-80592597D01*
X94268541Y-80606457D01*
X94272118Y-80620736D01*
X94274278Y-80635297D01*
X94275000Y-80650000D01*
X94275000Y-80950000D01*
X94274278Y-80964703D01*
X94272118Y-80979264D01*
X94268541Y-80993543D01*
X94263582Y-81007403D01*
X94257288Y-81020710D01*
X94249720Y-81033336D01*
X94240952Y-81045159D01*
X94231066Y-81056066D01*
X94220159Y-81065952D01*
X94208336Y-81074720D01*
X94195710Y-81082288D01*
X94182403Y-81088582D01*
X94168543Y-81093541D01*
X94154264Y-81097118D01*
X94139703Y-81099278D01*
X94125000Y-81100000D01*
X92875000Y-81100000D01*
X92860297Y-81099278D01*
X92845736Y-81097118D01*
X92831457Y-81093541D01*
X92817597Y-81088582D01*
X92804290Y-81082288D01*
X92791664Y-81074720D01*
X92779841Y-81065952D01*
X92768934Y-81056066D01*
X92759048Y-81045159D01*
X92750280Y-81033336D01*
X92742712Y-81020710D01*
X92736418Y-81007403D01*
X92731459Y-80993543D01*
X92727882Y-80979264D01*
X92725722Y-80964703D01*
X92725000Y-80950000D01*
X92725000Y-80650000D01*
X92725722Y-80635297D01*
X92727882Y-80620736D01*
X92731459Y-80606457D01*
X92736418Y-80592597D01*
X92742712Y-80579290D01*
X92750280Y-80566664D01*
X92759048Y-80554841D01*
X92768934Y-80543934D01*
X92779841Y-80534048D01*
X92791664Y-80525280D01*
X92804290Y-80517712D01*
X92817597Y-80511418D01*
X92831457Y-80506459D01*
X92845736Y-80502882D01*
X92860297Y-80500722D01*
X92875000Y-80500000D01*
X94125000Y-80500000D01*
X94139703Y-80500722D01*
G37*
G36*
X94139703Y-79500722D02*
G01*
X94154264Y-79502882D01*
X94168543Y-79506459D01*
X94182403Y-79511418D01*
X94195710Y-79517712D01*
X94208336Y-79525280D01*
X94220159Y-79534048D01*
X94231066Y-79543934D01*
X94240952Y-79554841D01*
X94249720Y-79566664D01*
X94257288Y-79579290D01*
X94263582Y-79592597D01*
X94268541Y-79606457D01*
X94272118Y-79620736D01*
X94274278Y-79635297D01*
X94275000Y-79650000D01*
X94275000Y-79950000D01*
X94274278Y-79964703D01*
X94272118Y-79979264D01*
X94268541Y-79993543D01*
X94263582Y-80007403D01*
X94257288Y-80020710D01*
X94249720Y-80033336D01*
X94240952Y-80045159D01*
X94231066Y-80056066D01*
X94220159Y-80065952D01*
X94208336Y-80074720D01*
X94195710Y-80082288D01*
X94182403Y-80088582D01*
X94168543Y-80093541D01*
X94154264Y-80097118D01*
X94139703Y-80099278D01*
X94125000Y-80100000D01*
X92875000Y-80100000D01*
X92860297Y-80099278D01*
X92845736Y-80097118D01*
X92831457Y-80093541D01*
X92817597Y-80088582D01*
X92804290Y-80082288D01*
X92791664Y-80074720D01*
X92779841Y-80065952D01*
X92768934Y-80056066D01*
X92759048Y-80045159D01*
X92750280Y-80033336D01*
X92742712Y-80020710D01*
X92736418Y-80007403D01*
X92731459Y-79993543D01*
X92727882Y-79979264D01*
X92725722Y-79964703D01*
X92725000Y-79950000D01*
X92725000Y-79650000D01*
X92725722Y-79635297D01*
X92727882Y-79620736D01*
X92731459Y-79606457D01*
X92736418Y-79592597D01*
X92742712Y-79579290D01*
X92750280Y-79566664D01*
X92759048Y-79554841D01*
X92768934Y-79543934D01*
X92779841Y-79534048D01*
X92791664Y-79525280D01*
X92804290Y-79517712D01*
X92817597Y-79511418D01*
X92831457Y-79506459D01*
X92845736Y-79502882D01*
X92860297Y-79500722D01*
X92875000Y-79500000D01*
X94125000Y-79500000D01*
X94139703Y-79500722D01*
G37*
G36*
X90299505Y-75001204D02*
G01*
X90323773Y-75004804D01*
X90347572Y-75010765D01*
X90370671Y-75019030D01*
X90392850Y-75029520D01*
X90413893Y-75042132D01*
X90433599Y-75056747D01*
X90451777Y-75073223D01*
X90468253Y-75091401D01*
X90482868Y-75111107D01*
X90495480Y-75132150D01*
X90505970Y-75154329D01*
X90514235Y-75177428D01*
X90520196Y-75201227D01*
X90523796Y-75225495D01*
X90525000Y-75249999D01*
X90525000Y-75950001D01*
X90523796Y-75974505D01*
X90520196Y-75998773D01*
X90514235Y-76022572D01*
X90505970Y-76045671D01*
X90495480Y-76067850D01*
X90482868Y-76088893D01*
X90468253Y-76108599D01*
X90451777Y-76126777D01*
X90433599Y-76143253D01*
X90413893Y-76157868D01*
X90392850Y-76170480D01*
X90370671Y-76180970D01*
X90347572Y-76189235D01*
X90323773Y-76195196D01*
X90299505Y-76198796D01*
X90275001Y-76200000D01*
X88974999Y-76200000D01*
X88950495Y-76198796D01*
X88926227Y-76195196D01*
X88902428Y-76189235D01*
X88879329Y-76180970D01*
X88857150Y-76170480D01*
X88836107Y-76157868D01*
X88816401Y-76143253D01*
X88798223Y-76126777D01*
X88781747Y-76108599D01*
X88767132Y-76088893D01*
X88754520Y-76067850D01*
X88744030Y-76045671D01*
X88735765Y-76022572D01*
X88729804Y-75998773D01*
X88726204Y-75974505D01*
X88725000Y-75950001D01*
X88725000Y-75249999D01*
X88726204Y-75225495D01*
X88729804Y-75201227D01*
X88735765Y-75177428D01*
X88744030Y-75154329D01*
X88754520Y-75132150D01*
X88767132Y-75111107D01*
X88781747Y-75091401D01*
X88798223Y-75073223D01*
X88816401Y-75056747D01*
X88836107Y-75042132D01*
X88857150Y-75029520D01*
X88879329Y-75019030D01*
X88902428Y-75010765D01*
X88926227Y-75004804D01*
X88950495Y-75001204D01*
X88974999Y-75000000D01*
X90275001Y-75000000D01*
X90299505Y-75001204D01*
G37*
G36*
X90299505Y-69401204D02*
G01*
X90323773Y-69404804D01*
X90347572Y-69410765D01*
X90370671Y-69419030D01*
X90392850Y-69429520D01*
X90413893Y-69442132D01*
X90433599Y-69456747D01*
X90451777Y-69473223D01*
X90468253Y-69491401D01*
X90482868Y-69511107D01*
X90495480Y-69532150D01*
X90505970Y-69554329D01*
X90514235Y-69577428D01*
X90520196Y-69601227D01*
X90523796Y-69625495D01*
X90525000Y-69649999D01*
X90525000Y-70350001D01*
X90523796Y-70374505D01*
X90520196Y-70398773D01*
X90514235Y-70422572D01*
X90505970Y-70445671D01*
X90495480Y-70467850D01*
X90482868Y-70488893D01*
X90468253Y-70508599D01*
X90451777Y-70526777D01*
X90433599Y-70543253D01*
X90413893Y-70557868D01*
X90392850Y-70570480D01*
X90370671Y-70580970D01*
X90347572Y-70589235D01*
X90323773Y-70595196D01*
X90299505Y-70598796D01*
X90275001Y-70600000D01*
X88974999Y-70600000D01*
X88950495Y-70598796D01*
X88926227Y-70595196D01*
X88902428Y-70589235D01*
X88879329Y-70580970D01*
X88857150Y-70570480D01*
X88836107Y-70557868D01*
X88816401Y-70543253D01*
X88798223Y-70526777D01*
X88781747Y-70508599D01*
X88767132Y-70488893D01*
X88754520Y-70467850D01*
X88744030Y-70445671D01*
X88735765Y-70422572D01*
X88729804Y-70398773D01*
X88726204Y-70374505D01*
X88725000Y-70350001D01*
X88725000Y-69649999D01*
X88726204Y-69625495D01*
X88729804Y-69601227D01*
X88735765Y-69577428D01*
X88744030Y-69554329D01*
X88754520Y-69532150D01*
X88767132Y-69511107D01*
X88781747Y-69491401D01*
X88798223Y-69473223D01*
X88816401Y-69456747D01*
X88836107Y-69442132D01*
X88857150Y-69429520D01*
X88879329Y-69419030D01*
X88902428Y-69410765D01*
X88926227Y-69404804D01*
X88950495Y-69401204D01*
X88974999Y-69400000D01*
X90275001Y-69400000D01*
X90299505Y-69401204D01*
G37*
G36*
X94139703Y-74000722D02*
G01*
X94154264Y-74002882D01*
X94168543Y-74006459D01*
X94182403Y-74011418D01*
X94195710Y-74017712D01*
X94208336Y-74025280D01*
X94220159Y-74034048D01*
X94231066Y-74043934D01*
X94240952Y-74054841D01*
X94249720Y-74066664D01*
X94257288Y-74079290D01*
X94263582Y-74092597D01*
X94268541Y-74106457D01*
X94272118Y-74120736D01*
X94274278Y-74135297D01*
X94275000Y-74150000D01*
X94275000Y-74450000D01*
X94274278Y-74464703D01*
X94272118Y-74479264D01*
X94268541Y-74493543D01*
X94263582Y-74507403D01*
X94257288Y-74520710D01*
X94249720Y-74533336D01*
X94240952Y-74545159D01*
X94231066Y-74556066D01*
X94220159Y-74565952D01*
X94208336Y-74574720D01*
X94195710Y-74582288D01*
X94182403Y-74588582D01*
X94168543Y-74593541D01*
X94154264Y-74597118D01*
X94139703Y-74599278D01*
X94125000Y-74600000D01*
X92875000Y-74600000D01*
X92860297Y-74599278D01*
X92845736Y-74597118D01*
X92831457Y-74593541D01*
X92817597Y-74588582D01*
X92804290Y-74582288D01*
X92791664Y-74574720D01*
X92779841Y-74565952D01*
X92768934Y-74556066D01*
X92759048Y-74545159D01*
X92750280Y-74533336D01*
X92742712Y-74520710D01*
X92736418Y-74507403D01*
X92731459Y-74493543D01*
X92727882Y-74479264D01*
X92725722Y-74464703D01*
X92725000Y-74450000D01*
X92725000Y-74150000D01*
X92725722Y-74135297D01*
X92727882Y-74120736D01*
X92731459Y-74106457D01*
X92736418Y-74092597D01*
X92742712Y-74079290D01*
X92750280Y-74066664D01*
X92759048Y-74054841D01*
X92768934Y-74043934D01*
X92779841Y-74034048D01*
X92791664Y-74025280D01*
X92804290Y-74017712D01*
X92817597Y-74011418D01*
X92831457Y-74006459D01*
X92845736Y-74002882D01*
X92860297Y-74000722D01*
X92875000Y-74000000D01*
X94125000Y-74000000D01*
X94139703Y-74000722D01*
G37*
G36*
X94139703Y-73000722D02*
G01*
X94154264Y-73002882D01*
X94168543Y-73006459D01*
X94182403Y-73011418D01*
X94195710Y-73017712D01*
X94208336Y-73025280D01*
X94220159Y-73034048D01*
X94231066Y-73043934D01*
X94240952Y-73054841D01*
X94249720Y-73066664D01*
X94257288Y-73079290D01*
X94263582Y-73092597D01*
X94268541Y-73106457D01*
X94272118Y-73120736D01*
X94274278Y-73135297D01*
X94275000Y-73150000D01*
X94275000Y-73450000D01*
X94274278Y-73464703D01*
X94272118Y-73479264D01*
X94268541Y-73493543D01*
X94263582Y-73507403D01*
X94257288Y-73520710D01*
X94249720Y-73533336D01*
X94240952Y-73545159D01*
X94231066Y-73556066D01*
X94220159Y-73565952D01*
X94208336Y-73574720D01*
X94195710Y-73582288D01*
X94182403Y-73588582D01*
X94168543Y-73593541D01*
X94154264Y-73597118D01*
X94139703Y-73599278D01*
X94125000Y-73600000D01*
X92875000Y-73600000D01*
X92860297Y-73599278D01*
X92845736Y-73597118D01*
X92831457Y-73593541D01*
X92817597Y-73588582D01*
X92804290Y-73582288D01*
X92791664Y-73574720D01*
X92779841Y-73565952D01*
X92768934Y-73556066D01*
X92759048Y-73545159D01*
X92750280Y-73533336D01*
X92742712Y-73520710D01*
X92736418Y-73507403D01*
X92731459Y-73493543D01*
X92727882Y-73479264D01*
X92725722Y-73464703D01*
X92725000Y-73450000D01*
X92725000Y-73150000D01*
X92725722Y-73135297D01*
X92727882Y-73120736D01*
X92731459Y-73106457D01*
X92736418Y-73092597D01*
X92742712Y-73079290D01*
X92750280Y-73066664D01*
X92759048Y-73054841D01*
X92768934Y-73043934D01*
X92779841Y-73034048D01*
X92791664Y-73025280D01*
X92804290Y-73017712D01*
X92817597Y-73011418D01*
X92831457Y-73006459D01*
X92845736Y-73002882D01*
X92860297Y-73000722D01*
X92875000Y-73000000D01*
X94125000Y-73000000D01*
X94139703Y-73000722D01*
G37*
G36*
X94139703Y-72000722D02*
G01*
X94154264Y-72002882D01*
X94168543Y-72006459D01*
X94182403Y-72011418D01*
X94195710Y-72017712D01*
X94208336Y-72025280D01*
X94220159Y-72034048D01*
X94231066Y-72043934D01*
X94240952Y-72054841D01*
X94249720Y-72066664D01*
X94257288Y-72079290D01*
X94263582Y-72092597D01*
X94268541Y-72106457D01*
X94272118Y-72120736D01*
X94274278Y-72135297D01*
X94275000Y-72150000D01*
X94275000Y-72450000D01*
X94274278Y-72464703D01*
X94272118Y-72479264D01*
X94268541Y-72493543D01*
X94263582Y-72507403D01*
X94257288Y-72520710D01*
X94249720Y-72533336D01*
X94240952Y-72545159D01*
X94231066Y-72556066D01*
X94220159Y-72565952D01*
X94208336Y-72574720D01*
X94195710Y-72582288D01*
X94182403Y-72588582D01*
X94168543Y-72593541D01*
X94154264Y-72597118D01*
X94139703Y-72599278D01*
X94125000Y-72600000D01*
X92875000Y-72600000D01*
X92860297Y-72599278D01*
X92845736Y-72597118D01*
X92831457Y-72593541D01*
X92817597Y-72588582D01*
X92804290Y-72582288D01*
X92791664Y-72574720D01*
X92779841Y-72565952D01*
X92768934Y-72556066D01*
X92759048Y-72545159D01*
X92750280Y-72533336D01*
X92742712Y-72520710D01*
X92736418Y-72507403D01*
X92731459Y-72493543D01*
X92727882Y-72479264D01*
X92725722Y-72464703D01*
X92725000Y-72450000D01*
X92725000Y-72150000D01*
X92725722Y-72135297D01*
X92727882Y-72120736D01*
X92731459Y-72106457D01*
X92736418Y-72092597D01*
X92742712Y-72079290D01*
X92750280Y-72066664D01*
X92759048Y-72054841D01*
X92768934Y-72043934D01*
X92779841Y-72034048D01*
X92791664Y-72025280D01*
X92804290Y-72017712D01*
X92817597Y-72011418D01*
X92831457Y-72006459D01*
X92845736Y-72002882D01*
X92860297Y-72000722D01*
X92875000Y-72000000D01*
X94125000Y-72000000D01*
X94139703Y-72000722D01*
G37*
G36*
X94139703Y-71000722D02*
G01*
X94154264Y-71002882D01*
X94168543Y-71006459D01*
X94182403Y-71011418D01*
X94195710Y-71017712D01*
X94208336Y-71025280D01*
X94220159Y-71034048D01*
X94231066Y-71043934D01*
X94240952Y-71054841D01*
X94249720Y-71066664D01*
X94257288Y-71079290D01*
X94263582Y-71092597D01*
X94268541Y-71106457D01*
X94272118Y-71120736D01*
X94274278Y-71135297D01*
X94275000Y-71150000D01*
X94275000Y-71450000D01*
X94274278Y-71464703D01*
X94272118Y-71479264D01*
X94268541Y-71493543D01*
X94263582Y-71507403D01*
X94257288Y-71520710D01*
X94249720Y-71533336D01*
X94240952Y-71545159D01*
X94231066Y-71556066D01*
X94220159Y-71565952D01*
X94208336Y-71574720D01*
X94195710Y-71582288D01*
X94182403Y-71588582D01*
X94168543Y-71593541D01*
X94154264Y-71597118D01*
X94139703Y-71599278D01*
X94125000Y-71600000D01*
X92875000Y-71600000D01*
X92860297Y-71599278D01*
X92845736Y-71597118D01*
X92831457Y-71593541D01*
X92817597Y-71588582D01*
X92804290Y-71582288D01*
X92791664Y-71574720D01*
X92779841Y-71565952D01*
X92768934Y-71556066D01*
X92759048Y-71545159D01*
X92750280Y-71533336D01*
X92742712Y-71520710D01*
X92736418Y-71507403D01*
X92731459Y-71493543D01*
X92727882Y-71479264D01*
X92725722Y-71464703D01*
X92725000Y-71450000D01*
X92725000Y-71150000D01*
X92725722Y-71135297D01*
X92727882Y-71120736D01*
X92731459Y-71106457D01*
X92736418Y-71092597D01*
X92742712Y-71079290D01*
X92750280Y-71066664D01*
X92759048Y-71054841D01*
X92768934Y-71043934D01*
X92779841Y-71034048D01*
X92791664Y-71025280D01*
X92804290Y-71017712D01*
X92817597Y-71011418D01*
X92831457Y-71006459D01*
X92845736Y-71002882D01*
X92860297Y-71000722D01*
X92875000Y-71000000D01*
X94125000Y-71000000D01*
X94139703Y-71000722D01*
G37*
G36*
X90199505Y-66701204D02*
G01*
X90223773Y-66704804D01*
X90247572Y-66710765D01*
X90270671Y-66719030D01*
X90292850Y-66729520D01*
X90313893Y-66742132D01*
X90333599Y-66756747D01*
X90351777Y-66773223D01*
X90368253Y-66791401D01*
X90382868Y-66811107D01*
X90395480Y-66832150D01*
X90405970Y-66854329D01*
X90414235Y-66877428D01*
X90420196Y-66901227D01*
X90423796Y-66925495D01*
X90425000Y-66949999D01*
X90425000Y-67650001D01*
X90423796Y-67674505D01*
X90420196Y-67698773D01*
X90414235Y-67722572D01*
X90405970Y-67745671D01*
X90395480Y-67767850D01*
X90382868Y-67788893D01*
X90368253Y-67808599D01*
X90351777Y-67826777D01*
X90333599Y-67843253D01*
X90313893Y-67857868D01*
X90292850Y-67870480D01*
X90270671Y-67880970D01*
X90247572Y-67889235D01*
X90223773Y-67895196D01*
X90199505Y-67898796D01*
X90175001Y-67900000D01*
X88874999Y-67900000D01*
X88850495Y-67898796D01*
X88826227Y-67895196D01*
X88802428Y-67889235D01*
X88779329Y-67880970D01*
X88757150Y-67870480D01*
X88736107Y-67857868D01*
X88716401Y-67843253D01*
X88698223Y-67826777D01*
X88681747Y-67808599D01*
X88667132Y-67788893D01*
X88654520Y-67767850D01*
X88644030Y-67745671D01*
X88635765Y-67722572D01*
X88629804Y-67698773D01*
X88626204Y-67674505D01*
X88625000Y-67650001D01*
X88625000Y-66949999D01*
X88626204Y-66925495D01*
X88629804Y-66901227D01*
X88635765Y-66877428D01*
X88644030Y-66854329D01*
X88654520Y-66832150D01*
X88667132Y-66811107D01*
X88681747Y-66791401D01*
X88698223Y-66773223D01*
X88716401Y-66756747D01*
X88736107Y-66742132D01*
X88757150Y-66729520D01*
X88779329Y-66719030D01*
X88802428Y-66710765D01*
X88826227Y-66704804D01*
X88850495Y-66701204D01*
X88874999Y-66700000D01*
X90175001Y-66700000D01*
X90199505Y-66701204D01*
G37*
G36*
X90199505Y-61101204D02*
G01*
X90223773Y-61104804D01*
X90247572Y-61110765D01*
X90270671Y-61119030D01*
X90292850Y-61129520D01*
X90313893Y-61142132D01*
X90333599Y-61156747D01*
X90351777Y-61173223D01*
X90368253Y-61191401D01*
X90382868Y-61211107D01*
X90395480Y-61232150D01*
X90405970Y-61254329D01*
X90414235Y-61277428D01*
X90420196Y-61301227D01*
X90423796Y-61325495D01*
X90425000Y-61349999D01*
X90425000Y-62050001D01*
X90423796Y-62074505D01*
X90420196Y-62098773D01*
X90414235Y-62122572D01*
X90405970Y-62145671D01*
X90395480Y-62167850D01*
X90382868Y-62188893D01*
X90368253Y-62208599D01*
X90351777Y-62226777D01*
X90333599Y-62243253D01*
X90313893Y-62257868D01*
X90292850Y-62270480D01*
X90270671Y-62280970D01*
X90247572Y-62289235D01*
X90223773Y-62295196D01*
X90199505Y-62298796D01*
X90175001Y-62300000D01*
X88874999Y-62300000D01*
X88850495Y-62298796D01*
X88826227Y-62295196D01*
X88802428Y-62289235D01*
X88779329Y-62280970D01*
X88757150Y-62270480D01*
X88736107Y-62257868D01*
X88716401Y-62243253D01*
X88698223Y-62226777D01*
X88681747Y-62208599D01*
X88667132Y-62188893D01*
X88654520Y-62167850D01*
X88644030Y-62145671D01*
X88635765Y-62122572D01*
X88629804Y-62098773D01*
X88626204Y-62074505D01*
X88625000Y-62050001D01*
X88625000Y-61349999D01*
X88626204Y-61325495D01*
X88629804Y-61301227D01*
X88635765Y-61277428D01*
X88644030Y-61254329D01*
X88654520Y-61232150D01*
X88667132Y-61211107D01*
X88681747Y-61191401D01*
X88698223Y-61173223D01*
X88716401Y-61156747D01*
X88736107Y-61142132D01*
X88757150Y-61129520D01*
X88779329Y-61119030D01*
X88802428Y-61110765D01*
X88826227Y-61104804D01*
X88850495Y-61101204D01*
X88874999Y-61100000D01*
X90175001Y-61100000D01*
X90199505Y-61101204D01*
G37*
G36*
X94039703Y-65700722D02*
G01*
X94054264Y-65702882D01*
X94068543Y-65706459D01*
X94082403Y-65711418D01*
X94095710Y-65717712D01*
X94108336Y-65725280D01*
X94120159Y-65734048D01*
X94131066Y-65743934D01*
X94140952Y-65754841D01*
X94149720Y-65766664D01*
X94157288Y-65779290D01*
X94163582Y-65792597D01*
X94168541Y-65806457D01*
X94172118Y-65820736D01*
X94174278Y-65835297D01*
X94175000Y-65850000D01*
X94175000Y-66150000D01*
X94174278Y-66164703D01*
X94172118Y-66179264D01*
X94168541Y-66193543D01*
X94163582Y-66207403D01*
X94157288Y-66220710D01*
X94149720Y-66233336D01*
X94140952Y-66245159D01*
X94131066Y-66256066D01*
X94120159Y-66265952D01*
X94108336Y-66274720D01*
X94095710Y-66282288D01*
X94082403Y-66288582D01*
X94068543Y-66293541D01*
X94054264Y-66297118D01*
X94039703Y-66299278D01*
X94025000Y-66300000D01*
X92775000Y-66300000D01*
X92760297Y-66299278D01*
X92745736Y-66297118D01*
X92731457Y-66293541D01*
X92717597Y-66288582D01*
X92704290Y-66282288D01*
X92691664Y-66274720D01*
X92679841Y-66265952D01*
X92668934Y-66256066D01*
X92659048Y-66245159D01*
X92650280Y-66233336D01*
X92642712Y-66220710D01*
X92636418Y-66207403D01*
X92631459Y-66193543D01*
X92627882Y-66179264D01*
X92625722Y-66164703D01*
X92625000Y-66150000D01*
X92625000Y-65850000D01*
X92625722Y-65835297D01*
X92627882Y-65820736D01*
X92631459Y-65806457D01*
X92636418Y-65792597D01*
X92642712Y-65779290D01*
X92650280Y-65766664D01*
X92659048Y-65754841D01*
X92668934Y-65743934D01*
X92679841Y-65734048D01*
X92691664Y-65725280D01*
X92704290Y-65717712D01*
X92717597Y-65711418D01*
X92731457Y-65706459D01*
X92745736Y-65702882D01*
X92760297Y-65700722D01*
X92775000Y-65700000D01*
X94025000Y-65700000D01*
X94039703Y-65700722D01*
G37*
G36*
X94039703Y-64700722D02*
G01*
X94054264Y-64702882D01*
X94068543Y-64706459D01*
X94082403Y-64711418D01*
X94095710Y-64717712D01*
X94108336Y-64725280D01*
X94120159Y-64734048D01*
X94131066Y-64743934D01*
X94140952Y-64754841D01*
X94149720Y-64766664D01*
X94157288Y-64779290D01*
X94163582Y-64792597D01*
X94168541Y-64806457D01*
X94172118Y-64820736D01*
X94174278Y-64835297D01*
X94175000Y-64850000D01*
X94175000Y-65150000D01*
X94174278Y-65164703D01*
X94172118Y-65179264D01*
X94168541Y-65193543D01*
X94163582Y-65207403D01*
X94157288Y-65220710D01*
X94149720Y-65233336D01*
X94140952Y-65245159D01*
X94131066Y-65256066D01*
X94120159Y-65265952D01*
X94108336Y-65274720D01*
X94095710Y-65282288D01*
X94082403Y-65288582D01*
X94068543Y-65293541D01*
X94054264Y-65297118D01*
X94039703Y-65299278D01*
X94025000Y-65300000D01*
X92775000Y-65300000D01*
X92760297Y-65299278D01*
X92745736Y-65297118D01*
X92731457Y-65293541D01*
X92717597Y-65288582D01*
X92704290Y-65282288D01*
X92691664Y-65274720D01*
X92679841Y-65265952D01*
X92668934Y-65256066D01*
X92659048Y-65245159D01*
X92650280Y-65233336D01*
X92642712Y-65220710D01*
X92636418Y-65207403D01*
X92631459Y-65193543D01*
X92627882Y-65179264D01*
X92625722Y-65164703D01*
X92625000Y-65150000D01*
X92625000Y-64850000D01*
X92625722Y-64835297D01*
X92627882Y-64820736D01*
X92631459Y-64806457D01*
X92636418Y-64792597D01*
X92642712Y-64779290D01*
X92650280Y-64766664D01*
X92659048Y-64754841D01*
X92668934Y-64743934D01*
X92679841Y-64734048D01*
X92691664Y-64725280D01*
X92704290Y-64717712D01*
X92717597Y-64711418D01*
X92731457Y-64706459D01*
X92745736Y-64702882D01*
X92760297Y-64700722D01*
X92775000Y-64700000D01*
X94025000Y-64700000D01*
X94039703Y-64700722D01*
G37*
G36*
X94039703Y-63700722D02*
G01*
X94054264Y-63702882D01*
X94068543Y-63706459D01*
X94082403Y-63711418D01*
X94095710Y-63717712D01*
X94108336Y-63725280D01*
X94120159Y-63734048D01*
X94131066Y-63743934D01*
X94140952Y-63754841D01*
X94149720Y-63766664D01*
X94157288Y-63779290D01*
X94163582Y-63792597D01*
X94168541Y-63806457D01*
X94172118Y-63820736D01*
X94174278Y-63835297D01*
X94175000Y-63850000D01*
X94175000Y-64150000D01*
X94174278Y-64164703D01*
X94172118Y-64179264D01*
X94168541Y-64193543D01*
X94163582Y-64207403D01*
X94157288Y-64220710D01*
X94149720Y-64233336D01*
X94140952Y-64245159D01*
X94131066Y-64256066D01*
X94120159Y-64265952D01*
X94108336Y-64274720D01*
X94095710Y-64282288D01*
X94082403Y-64288582D01*
X94068543Y-64293541D01*
X94054264Y-64297118D01*
X94039703Y-64299278D01*
X94025000Y-64300000D01*
X92775000Y-64300000D01*
X92760297Y-64299278D01*
X92745736Y-64297118D01*
X92731457Y-64293541D01*
X92717597Y-64288582D01*
X92704290Y-64282288D01*
X92691664Y-64274720D01*
X92679841Y-64265952D01*
X92668934Y-64256066D01*
X92659048Y-64245159D01*
X92650280Y-64233336D01*
X92642712Y-64220710D01*
X92636418Y-64207403D01*
X92631459Y-64193543D01*
X92627882Y-64179264D01*
X92625722Y-64164703D01*
X92625000Y-64150000D01*
X92625000Y-63850000D01*
X92625722Y-63835297D01*
X92627882Y-63820736D01*
X92631459Y-63806457D01*
X92636418Y-63792597D01*
X92642712Y-63779290D01*
X92650280Y-63766664D01*
X92659048Y-63754841D01*
X92668934Y-63743934D01*
X92679841Y-63734048D01*
X92691664Y-63725280D01*
X92704290Y-63717712D01*
X92717597Y-63711418D01*
X92731457Y-63706459D01*
X92745736Y-63702882D01*
X92760297Y-63700722D01*
X92775000Y-63700000D01*
X94025000Y-63700000D01*
X94039703Y-63700722D01*
G37*
G36*
X94039703Y-62700722D02*
G01*
X94054264Y-62702882D01*
X94068543Y-62706459D01*
X94082403Y-62711418D01*
X94095710Y-62717712D01*
X94108336Y-62725280D01*
X94120159Y-62734048D01*
X94131066Y-62743934D01*
X94140952Y-62754841D01*
X94149720Y-62766664D01*
X94157288Y-62779290D01*
X94163582Y-62792597D01*
X94168541Y-62806457D01*
X94172118Y-62820736D01*
X94174278Y-62835297D01*
X94175000Y-62850000D01*
X94175000Y-63150000D01*
X94174278Y-63164703D01*
X94172118Y-63179264D01*
X94168541Y-63193543D01*
X94163582Y-63207403D01*
X94157288Y-63220710D01*
X94149720Y-63233336D01*
X94140952Y-63245159D01*
X94131066Y-63256066D01*
X94120159Y-63265952D01*
X94108336Y-63274720D01*
X94095710Y-63282288D01*
X94082403Y-63288582D01*
X94068543Y-63293541D01*
X94054264Y-63297118D01*
X94039703Y-63299278D01*
X94025000Y-63300000D01*
X92775000Y-63300000D01*
X92760297Y-63299278D01*
X92745736Y-63297118D01*
X92731457Y-63293541D01*
X92717597Y-63288582D01*
X92704290Y-63282288D01*
X92691664Y-63274720D01*
X92679841Y-63265952D01*
X92668934Y-63256066D01*
X92659048Y-63245159D01*
X92650280Y-63233336D01*
X92642712Y-63220710D01*
X92636418Y-63207403D01*
X92631459Y-63193543D01*
X92627882Y-63179264D01*
X92625722Y-63164703D01*
X92625000Y-63150000D01*
X92625000Y-62850000D01*
X92625722Y-62835297D01*
X92627882Y-62820736D01*
X92631459Y-62806457D01*
X92636418Y-62792597D01*
X92642712Y-62779290D01*
X92650280Y-62766664D01*
X92659048Y-62754841D01*
X92668934Y-62743934D01*
X92679841Y-62734048D01*
X92691664Y-62725280D01*
X92704290Y-62717712D01*
X92717597Y-62711418D01*
X92731457Y-62706459D01*
X92745736Y-62702882D01*
X92760297Y-62700722D01*
X92775000Y-62700000D01*
X94025000Y-62700000D01*
X94039703Y-62700722D01*
G37*
D13*
X106250000Y-74825000D03*
X106250000Y-75475000D03*
X106250000Y-76125000D03*
X106250000Y-76775000D03*
X106250000Y-77425000D03*
X106250000Y-78075000D03*
X106250000Y-78725000D03*
X106250000Y-79375000D03*
X100350000Y-79375000D03*
X100350000Y-78725000D03*
X100350000Y-78075000D03*
X100350000Y-77425000D03*
X100350000Y-76775000D03*
X100350000Y-76125000D03*
X100350000Y-75475000D03*
X100350000Y-74825000D03*
D10*
G36*
X108760779Y-73751144D02*
G01*
X108783834Y-73754563D01*
X108806443Y-73760227D01*
X108828387Y-73768079D01*
X108849457Y-73778044D01*
X108869448Y-73790026D01*
X108888168Y-73803910D01*
X108905438Y-73819562D01*
X108921090Y-73836832D01*
X108934974Y-73855552D01*
X108946956Y-73875543D01*
X108956921Y-73896613D01*
X108964773Y-73918557D01*
X108970437Y-73941166D01*
X108973856Y-73964221D01*
X108975000Y-73987500D01*
X108975000Y-74562500D01*
X108973856Y-74585779D01*
X108970437Y-74608834D01*
X108964773Y-74631443D01*
X108956921Y-74653387D01*
X108946956Y-74674457D01*
X108934974Y-74694448D01*
X108921090Y-74713168D01*
X108905438Y-74730438D01*
X108888168Y-74746090D01*
X108869448Y-74759974D01*
X108849457Y-74771956D01*
X108828387Y-74781921D01*
X108806443Y-74789773D01*
X108783834Y-74795437D01*
X108760779Y-74798856D01*
X108737500Y-74800000D01*
X108262500Y-74800000D01*
X108239221Y-74798856D01*
X108216166Y-74795437D01*
X108193557Y-74789773D01*
X108171613Y-74781921D01*
X108150543Y-74771956D01*
X108130552Y-74759974D01*
X108111832Y-74746090D01*
X108094562Y-74730438D01*
X108078910Y-74713168D01*
X108065026Y-74694448D01*
X108053044Y-74674457D01*
X108043079Y-74653387D01*
X108035227Y-74631443D01*
X108029563Y-74608834D01*
X108026144Y-74585779D01*
X108025000Y-74562500D01*
X108025000Y-73987500D01*
X108026144Y-73964221D01*
X108029563Y-73941166D01*
X108035227Y-73918557D01*
X108043079Y-73896613D01*
X108053044Y-73875543D01*
X108065026Y-73855552D01*
X108078910Y-73836832D01*
X108094562Y-73819562D01*
X108111832Y-73803910D01*
X108130552Y-73790026D01*
X108150543Y-73778044D01*
X108171613Y-73768079D01*
X108193557Y-73760227D01*
X108216166Y-73754563D01*
X108239221Y-73751144D01*
X108262500Y-73750000D01*
X108737500Y-73750000D01*
X108760779Y-73751144D01*
G37*
G36*
X108760779Y-72001144D02*
G01*
X108783834Y-72004563D01*
X108806443Y-72010227D01*
X108828387Y-72018079D01*
X108849457Y-72028044D01*
X108869448Y-72040026D01*
X108888168Y-72053910D01*
X108905438Y-72069562D01*
X108921090Y-72086832D01*
X108934974Y-72105552D01*
X108946956Y-72125543D01*
X108956921Y-72146613D01*
X108964773Y-72168557D01*
X108970437Y-72191166D01*
X108973856Y-72214221D01*
X108975000Y-72237500D01*
X108975000Y-72812500D01*
X108973856Y-72835779D01*
X108970437Y-72858834D01*
X108964773Y-72881443D01*
X108956921Y-72903387D01*
X108946956Y-72924457D01*
X108934974Y-72944448D01*
X108921090Y-72963168D01*
X108905438Y-72980438D01*
X108888168Y-72996090D01*
X108869448Y-73009974D01*
X108849457Y-73021956D01*
X108828387Y-73031921D01*
X108806443Y-73039773D01*
X108783834Y-73045437D01*
X108760779Y-73048856D01*
X108737500Y-73050000D01*
X108262500Y-73050000D01*
X108239221Y-73048856D01*
X108216166Y-73045437D01*
X108193557Y-73039773D01*
X108171613Y-73031921D01*
X108150543Y-73021956D01*
X108130552Y-73009974D01*
X108111832Y-72996090D01*
X108094562Y-72980438D01*
X108078910Y-72963168D01*
X108065026Y-72944448D01*
X108053044Y-72924457D01*
X108043079Y-72903387D01*
X108035227Y-72881443D01*
X108029563Y-72858834D01*
X108026144Y-72835779D01*
X108025000Y-72812500D01*
X108025000Y-72237500D01*
X108026144Y-72214221D01*
X108029563Y-72191166D01*
X108035227Y-72168557D01*
X108043079Y-72146613D01*
X108053044Y-72125543D01*
X108065026Y-72105552D01*
X108078910Y-72086832D01*
X108094562Y-72069562D01*
X108111832Y-72053910D01*
X108130552Y-72040026D01*
X108150543Y-72028044D01*
X108171613Y-72018079D01*
X108193557Y-72010227D01*
X108216166Y-72004563D01*
X108239221Y-72001144D01*
X108262500Y-72000000D01*
X108737500Y-72000000D01*
X108760779Y-72001144D01*
G37*
M02*
