G04 #@! TF.GenerationSoftware,KiCad,Pcbnew,(5.1.5-0)*
G04 #@! TF.CreationDate,2022-05-12T16:28:49-06:00*
G04 #@! TF.ProjectId,uart_mux,75617274-5f6d-4757-982e-6b696361645f,rev?*
G04 #@! TF.SameCoordinates,Original*
G04 #@! TF.FileFunction,Legend,Top*
G04 #@! TF.FilePolarity,Positive*
%FSLAX46Y46*%
G04 Gerber Fmt 4.6, Leading zero omitted, Abs format (unit mm)*
G04 Created by KiCad (PCBNEW (5.1.5-0)) date 2022-05-12 16:28:49*
%MOMM*%
%LPD*%
G04 APERTURE LIST*
%ADD10C,0.150000*%
%ADD11C,0.120000*%
%ADD12C,0.100000*%
%ADD13C,5.502000*%
%ADD14R,0.752000X1.162000*%
%ADD15R,1.002000X0.902000*%
%ADD16R,1.902000X1.502000*%
%ADD17O,1.902000X1.502000*%
%ADD18C,1.342000*%
%ADD19R,1.602000X0.552000*%
G04 APERTURE END LIST*
D10*
X108071428Y-81928571D02*
X108214285Y-81976190D01*
X108261904Y-82023809D01*
X108309523Y-82119047D01*
X108309523Y-82261904D01*
X108261904Y-82357142D01*
X108214285Y-82404761D01*
X108119047Y-82452380D01*
X107738095Y-82452380D01*
X107738095Y-81452380D01*
X108071428Y-81452380D01*
X108166666Y-81500000D01*
X108214285Y-81547619D01*
X108261904Y-81642857D01*
X108261904Y-81738095D01*
X108214285Y-81833333D01*
X108166666Y-81880952D01*
X108071428Y-81928571D01*
X107738095Y-81928571D01*
X107761904Y-80166666D02*
X108238095Y-80166666D01*
X107666666Y-80452380D02*
X108000000Y-79452380D01*
X108333333Y-80452380D01*
X106195238Y-63527380D02*
X106195238Y-64336904D01*
X106242857Y-64432142D01*
X106290476Y-64479761D01*
X106385714Y-64527380D01*
X106576190Y-64527380D01*
X106671428Y-64479761D01*
X106719047Y-64432142D01*
X106766666Y-64336904D01*
X106766666Y-63527380D01*
X107195238Y-64241666D02*
X107671428Y-64241666D01*
X107100000Y-64527380D02*
X107433333Y-63527380D01*
X107766666Y-64527380D01*
X108671428Y-64527380D02*
X108338095Y-64051190D01*
X108100000Y-64527380D02*
X108100000Y-63527380D01*
X108480952Y-63527380D01*
X108576190Y-63575000D01*
X108623809Y-63622619D01*
X108671428Y-63717857D01*
X108671428Y-63860714D01*
X108623809Y-63955952D01*
X108576190Y-64003571D01*
X108480952Y-64051190D01*
X108100000Y-64051190D01*
X108957142Y-63527380D02*
X109528571Y-63527380D01*
X109242857Y-64527380D02*
X109242857Y-63527380D01*
X110623809Y-64527380D02*
X110623809Y-63527380D01*
X110957142Y-64241666D01*
X111290476Y-63527380D01*
X111290476Y-64527380D01*
X112195238Y-63860714D02*
X112195238Y-64527380D01*
X111766666Y-63860714D02*
X111766666Y-64384523D01*
X111814285Y-64479761D01*
X111909523Y-64527380D01*
X112052380Y-64527380D01*
X112147619Y-64479761D01*
X112195238Y-64432142D01*
X112576190Y-64527380D02*
X113100000Y-63860714D01*
X112576190Y-63860714D02*
X113100000Y-64527380D01*
X107361904Y-65510714D02*
X107361904Y-66177380D01*
X107123809Y-65129761D02*
X106885714Y-65844047D01*
X107504761Y-65844047D01*
X108600000Y-65129761D02*
X107742857Y-66415476D01*
X108885714Y-65272619D02*
X108933333Y-65225000D01*
X109028571Y-65177380D01*
X109266666Y-65177380D01*
X109361904Y-65225000D01*
X109409523Y-65272619D01*
X109457142Y-65367857D01*
X109457142Y-65463095D01*
X109409523Y-65605952D01*
X108838095Y-66177380D01*
X109457142Y-66177380D01*
X110076190Y-65177380D02*
X110171428Y-65177380D01*
X110266666Y-65225000D01*
X110314285Y-65272619D01*
X110361904Y-65367857D01*
X110409523Y-65558333D01*
X110409523Y-65796428D01*
X110361904Y-65986904D01*
X110314285Y-66082142D01*
X110266666Y-66129761D01*
X110171428Y-66177380D01*
X110076190Y-66177380D01*
X109980952Y-66129761D01*
X109933333Y-66082142D01*
X109885714Y-65986904D01*
X109838095Y-65796428D01*
X109838095Y-65558333D01*
X109885714Y-65367857D01*
X109933333Y-65272619D01*
X109980952Y-65225000D01*
X110076190Y-65177380D01*
X110790476Y-65272619D02*
X110838095Y-65225000D01*
X110933333Y-65177380D01*
X111171428Y-65177380D01*
X111266666Y-65225000D01*
X111314285Y-65272619D01*
X111361904Y-65367857D01*
X111361904Y-65463095D01*
X111314285Y-65605952D01*
X110742857Y-66177380D01*
X111361904Y-66177380D01*
X111742857Y-65272619D02*
X111790476Y-65225000D01*
X111885714Y-65177380D01*
X112123809Y-65177380D01*
X112219047Y-65225000D01*
X112266666Y-65272619D01*
X112314285Y-65367857D01*
X112314285Y-65463095D01*
X112266666Y-65605952D01*
X111695238Y-66177380D01*
X112314285Y-66177380D01*
D11*
X131200000Y-66560000D02*
X134650000Y-66560000D01*
X131200000Y-66560000D02*
X129250000Y-66560000D01*
X131200000Y-61440000D02*
X133150000Y-61440000D01*
X131200000Y-61440000D02*
X129250000Y-61440000D01*
X131300000Y-75660000D02*
X134750000Y-75660000D01*
X131300000Y-75660000D02*
X129350000Y-75660000D01*
X131300000Y-70540000D02*
X133250000Y-70540000D01*
X131300000Y-70540000D02*
X129350000Y-70540000D01*
X143085000Y-75940000D02*
X143085000Y-72060000D01*
X138615000Y-70890000D02*
X138615000Y-71940000D01*
X141115000Y-70890000D02*
X138615000Y-70890000D01*
X138615000Y-76060000D02*
X137625000Y-76060000D01*
X138615000Y-77110000D02*
X138615000Y-76060000D01*
X141115000Y-77110000D02*
X138615000Y-77110000D01*
X127728733Y-77610000D02*
X128071267Y-77610000D01*
X127728733Y-76590000D02*
X128071267Y-76590000D01*
X134628733Y-77510000D02*
X134971267Y-77510000D01*
X134628733Y-76490000D02*
X134971267Y-76490000D01*
X127528733Y-68210000D02*
X127871267Y-68210000D01*
X127528733Y-67190000D02*
X127871267Y-67190000D01*
X133728733Y-68210000D02*
X134071267Y-68210000D01*
X133728733Y-67190000D02*
X134071267Y-67190000D01*
X120000000Y-87210000D02*
X120000000Y-89660000D01*
X123220000Y-89010000D02*
X123220000Y-87210000D01*
X129510000Y-88571267D02*
X129510000Y-88228733D01*
X128490000Y-88571267D02*
X128490000Y-88228733D01*
X126760000Y-89980000D02*
X125300000Y-89980000D01*
X126760000Y-86820000D02*
X124600000Y-86820000D01*
X126760000Y-86820000D02*
X126760000Y-87750000D01*
X126760000Y-89980000D02*
X126760000Y-89050000D01*
X136550000Y-79130000D02*
X136550000Y-80330000D01*
X137750000Y-79130000D02*
X136550000Y-79130000D01*
X143090000Y-91100000D02*
X136750000Y-91100000D01*
X136750000Y-79330000D02*
X136750000Y-91100000D01*
X143090000Y-79330000D02*
X136750000Y-79330000D01*
X143090000Y-79330000D02*
X143090000Y-91100000D01*
X134202064Y-82140000D02*
X132997936Y-82140000D01*
X134202064Y-84860000D02*
X132997936Y-84860000D01*
X126700000Y-92600000D02*
X125300000Y-92600000D01*
X124600000Y-91900000D02*
X124600000Y-91300000D01*
X125300000Y-90600000D02*
X126700000Y-90600000D01*
X127400000Y-91300000D02*
X127400000Y-91900000D01*
X127400000Y-91900000D02*
G75*
G02X126700000Y-92600000I-700000J0D01*
G01*
X126700000Y-90600000D02*
G75*
G02X127400000Y-91300000I0J-700000D01*
G01*
X124600000Y-91300000D02*
G75*
G02X125300000Y-90600000I700000J0D01*
G01*
X125300000Y-92600000D02*
G75*
G02X124600000Y-91900000I0J700000D01*
G01*
X114620000Y-88870000D02*
X113380000Y-88870000D01*
X114620000Y-85130000D02*
X113380000Y-85130000D01*
X112130000Y-87620000D02*
X112130000Y-86380000D01*
X115870000Y-87620000D02*
X115870000Y-86380000D01*
X118190000Y-87728733D02*
X118190000Y-88071267D01*
X119210000Y-87728733D02*
X119210000Y-88071267D01*
X121871267Y-90590000D02*
X121528733Y-90590000D01*
X121871267Y-91610000D02*
X121528733Y-91610000D01*
X129110000Y-86260000D02*
X129110000Y-82050000D01*
X126090000Y-86260000D02*
X129110000Y-86260000D01*
X126090000Y-82050000D02*
X126090000Y-86260000D01*
X130290000Y-87203733D02*
X130290000Y-87546267D01*
X131310000Y-87203733D02*
X131310000Y-87546267D01*
X132190000Y-87228733D02*
X132190000Y-87571267D01*
X133210000Y-87228733D02*
X133210000Y-87571267D01*
X135810000Y-88602064D02*
X135810000Y-87397936D01*
X133990000Y-88602064D02*
X133990000Y-87397936D01*
X133197936Y-80910000D02*
X134402064Y-80910000D01*
X133197936Y-79090000D02*
X134402064Y-79090000D01*
X142985000Y-66940000D02*
X142985000Y-63060000D01*
X138515000Y-61890000D02*
X138515000Y-62940000D01*
X141015000Y-61890000D02*
X138515000Y-61890000D01*
X138515000Y-67060000D02*
X137525000Y-67060000D01*
X138515000Y-68110000D02*
X138515000Y-67060000D01*
X141015000Y-68110000D02*
X138515000Y-68110000D01*
X88815000Y-87760000D02*
X88815000Y-91640000D01*
X93285000Y-92810000D02*
X93285000Y-91760000D01*
X90785000Y-92810000D02*
X93285000Y-92810000D01*
X93285000Y-87640000D02*
X94275000Y-87640000D01*
X93285000Y-86590000D02*
X93285000Y-87640000D01*
X90785000Y-86590000D02*
X93285000Y-86590000D01*
X88815000Y-79360000D02*
X88815000Y-83240000D01*
X93285000Y-84410000D02*
X93285000Y-83360000D01*
X90785000Y-84410000D02*
X93285000Y-84410000D01*
X93285000Y-79240000D02*
X94275000Y-79240000D01*
X93285000Y-78190000D02*
X93285000Y-79240000D01*
X90785000Y-78190000D02*
X93285000Y-78190000D01*
X88815000Y-70860000D02*
X88815000Y-74740000D01*
X93285000Y-75910000D02*
X93285000Y-74860000D01*
X90785000Y-75910000D02*
X93285000Y-75910000D01*
X93285000Y-70740000D02*
X94275000Y-70740000D01*
X93285000Y-69690000D02*
X93285000Y-70740000D01*
X90785000Y-69690000D02*
X93285000Y-69690000D01*
X88715000Y-62560000D02*
X88715000Y-66440000D01*
X93185000Y-67610000D02*
X93185000Y-66560000D01*
X90685000Y-67610000D02*
X93185000Y-67610000D01*
X93185000Y-62440000D02*
X94175000Y-62440000D01*
X93185000Y-61390000D02*
X93185000Y-62440000D01*
X90685000Y-61390000D02*
X93185000Y-61390000D01*
D10*
X99525000Y-74300000D02*
X105500000Y-74300000D01*
X101100000Y-79825000D02*
X105500000Y-79825000D01*
D11*
X107990000Y-73228733D02*
X107990000Y-73571267D01*
X109010000Y-73228733D02*
X109010000Y-73571267D01*
D10*
X130438095Y-66852380D02*
X130438095Y-67661904D01*
X130485714Y-67757142D01*
X130533333Y-67804761D01*
X130628571Y-67852380D01*
X130819047Y-67852380D01*
X130914285Y-67804761D01*
X130961904Y-67757142D01*
X131009523Y-67661904D01*
X131009523Y-66852380D01*
X131628571Y-67280952D02*
X131533333Y-67233333D01*
X131485714Y-67185714D01*
X131438095Y-67090476D01*
X131438095Y-67042857D01*
X131485714Y-66947619D01*
X131533333Y-66900000D01*
X131628571Y-66852380D01*
X131819047Y-66852380D01*
X131914285Y-66900000D01*
X131961904Y-66947619D01*
X132009523Y-67042857D01*
X132009523Y-67090476D01*
X131961904Y-67185714D01*
X131914285Y-67233333D01*
X131819047Y-67280952D01*
X131628571Y-67280952D01*
X131533333Y-67328571D01*
X131485714Y-67376190D01*
X131438095Y-67471428D01*
X131438095Y-67661904D01*
X131485714Y-67757142D01*
X131533333Y-67804761D01*
X131628571Y-67852380D01*
X131819047Y-67852380D01*
X131914285Y-67804761D01*
X131961904Y-67757142D01*
X132009523Y-67661904D01*
X132009523Y-67471428D01*
X131961904Y-67376190D01*
X131914285Y-67328571D01*
X131819047Y-67280952D01*
X130538095Y-75952380D02*
X130538095Y-76761904D01*
X130585714Y-76857142D01*
X130633333Y-76904761D01*
X130728571Y-76952380D01*
X130919047Y-76952380D01*
X131014285Y-76904761D01*
X131061904Y-76857142D01*
X131109523Y-76761904D01*
X131109523Y-75952380D01*
X132014285Y-76285714D02*
X132014285Y-76952380D01*
X131776190Y-75904761D02*
X131538095Y-76619047D01*
X132157142Y-76619047D01*
X102238095Y-87752380D02*
X102238095Y-86752380D01*
X102238095Y-87228571D02*
X102809523Y-87228571D01*
X102809523Y-87752380D02*
X102809523Y-86752380D01*
X103238095Y-86847619D02*
X103285714Y-86800000D01*
X103380952Y-86752380D01*
X103619047Y-86752380D01*
X103714285Y-86800000D01*
X103761904Y-86847619D01*
X103809523Y-86942857D01*
X103809523Y-87038095D01*
X103761904Y-87180952D01*
X103190476Y-87752380D01*
X103809523Y-87752380D01*
X102238095Y-59752380D02*
X102238095Y-58752380D01*
X102238095Y-59228571D02*
X102809523Y-59228571D01*
X102809523Y-59752380D02*
X102809523Y-58752380D01*
X103809523Y-59752380D02*
X103238095Y-59752380D01*
X103523809Y-59752380D02*
X103523809Y-58752380D01*
X103428571Y-58895238D01*
X103333333Y-58990476D01*
X103238095Y-59038095D01*
X135872380Y-74333333D02*
X136586666Y-74333333D01*
X136729523Y-74380952D01*
X136824761Y-74476190D01*
X136872380Y-74619047D01*
X136872380Y-74714285D01*
X136300952Y-73714285D02*
X136253333Y-73809523D01*
X136205714Y-73857142D01*
X136110476Y-73904761D01*
X136062857Y-73904761D01*
X135967619Y-73857142D01*
X135920000Y-73809523D01*
X135872380Y-73714285D01*
X135872380Y-73523809D01*
X135920000Y-73428571D01*
X135967619Y-73380952D01*
X136062857Y-73333333D01*
X136110476Y-73333333D01*
X136205714Y-73380952D01*
X136253333Y-73428571D01*
X136300952Y-73523809D01*
X136300952Y-73714285D01*
X136348571Y-73809523D01*
X136396190Y-73857142D01*
X136491428Y-73904761D01*
X136681904Y-73904761D01*
X136777142Y-73857142D01*
X136824761Y-73809523D01*
X136872380Y-73714285D01*
X136872380Y-73523809D01*
X136824761Y-73428571D01*
X136777142Y-73380952D01*
X136681904Y-73333333D01*
X136491428Y-73333333D01*
X136396190Y-73380952D01*
X136348571Y-73428571D01*
X136300952Y-73523809D01*
X124057142Y-77757142D02*
X124009523Y-77804761D01*
X123866666Y-77852380D01*
X123771428Y-77852380D01*
X123628571Y-77804761D01*
X123533333Y-77709523D01*
X123485714Y-77614285D01*
X123438095Y-77423809D01*
X123438095Y-77280952D01*
X123485714Y-77090476D01*
X123533333Y-76995238D01*
X123628571Y-76900000D01*
X123771428Y-76852380D01*
X123866666Y-76852380D01*
X124009523Y-76900000D01*
X124057142Y-76947619D01*
X125009523Y-77852380D02*
X124438095Y-77852380D01*
X124723809Y-77852380D02*
X124723809Y-76852380D01*
X124628571Y-76995238D01*
X124533333Y-77090476D01*
X124438095Y-77138095D01*
X125390476Y-76947619D02*
X125438095Y-76900000D01*
X125533333Y-76852380D01*
X125771428Y-76852380D01*
X125866666Y-76900000D01*
X125914285Y-76947619D01*
X125961904Y-77042857D01*
X125961904Y-77138095D01*
X125914285Y-77280952D01*
X125342857Y-77852380D01*
X125961904Y-77852380D01*
X134357142Y-78757142D02*
X134309523Y-78804761D01*
X134166666Y-78852380D01*
X134071428Y-78852380D01*
X133928571Y-78804761D01*
X133833333Y-78709523D01*
X133785714Y-78614285D01*
X133738095Y-78423809D01*
X133738095Y-78280952D01*
X133785714Y-78090476D01*
X133833333Y-77995238D01*
X133928571Y-77900000D01*
X134071428Y-77852380D01*
X134166666Y-77852380D01*
X134309523Y-77900000D01*
X134357142Y-77947619D01*
X135309523Y-78852380D02*
X134738095Y-78852380D01*
X135023809Y-78852380D02*
X135023809Y-77852380D01*
X134928571Y-77995238D01*
X134833333Y-78090476D01*
X134738095Y-78138095D01*
X136261904Y-78852380D02*
X135690476Y-78852380D01*
X135976190Y-78852380D02*
X135976190Y-77852380D01*
X135880952Y-77995238D01*
X135785714Y-78090476D01*
X135690476Y-78138095D01*
X126657142Y-69957142D02*
X126609523Y-70004761D01*
X126466666Y-70052380D01*
X126371428Y-70052380D01*
X126228571Y-70004761D01*
X126133333Y-69909523D01*
X126085714Y-69814285D01*
X126038095Y-69623809D01*
X126038095Y-69480952D01*
X126085714Y-69290476D01*
X126133333Y-69195238D01*
X126228571Y-69100000D01*
X126371428Y-69052380D01*
X126466666Y-69052380D01*
X126609523Y-69100000D01*
X126657142Y-69147619D01*
X127038095Y-69147619D02*
X127085714Y-69100000D01*
X127180952Y-69052380D01*
X127419047Y-69052380D01*
X127514285Y-69100000D01*
X127561904Y-69147619D01*
X127609523Y-69242857D01*
X127609523Y-69338095D01*
X127561904Y-69480952D01*
X126990476Y-70052380D01*
X127609523Y-70052380D01*
X128466666Y-69052380D02*
X128276190Y-69052380D01*
X128180952Y-69100000D01*
X128133333Y-69147619D01*
X128038095Y-69290476D01*
X127990476Y-69480952D01*
X127990476Y-69861904D01*
X128038095Y-69957142D01*
X128085714Y-70004761D01*
X128180952Y-70052380D01*
X128371428Y-70052380D01*
X128466666Y-70004761D01*
X128514285Y-69957142D01*
X128561904Y-69861904D01*
X128561904Y-69623809D01*
X128514285Y-69528571D01*
X128466666Y-69480952D01*
X128371428Y-69433333D01*
X128180952Y-69433333D01*
X128085714Y-69480952D01*
X128038095Y-69528571D01*
X127990476Y-69623809D01*
X133257142Y-69757142D02*
X133209523Y-69804761D01*
X133066666Y-69852380D01*
X132971428Y-69852380D01*
X132828571Y-69804761D01*
X132733333Y-69709523D01*
X132685714Y-69614285D01*
X132638095Y-69423809D01*
X132638095Y-69280952D01*
X132685714Y-69090476D01*
X132733333Y-68995238D01*
X132828571Y-68900000D01*
X132971428Y-68852380D01*
X133066666Y-68852380D01*
X133209523Y-68900000D01*
X133257142Y-68947619D01*
X133638095Y-68947619D02*
X133685714Y-68900000D01*
X133780952Y-68852380D01*
X134019047Y-68852380D01*
X134114285Y-68900000D01*
X134161904Y-68947619D01*
X134209523Y-69042857D01*
X134209523Y-69138095D01*
X134161904Y-69280952D01*
X133590476Y-69852380D01*
X134209523Y-69852380D01*
X135114285Y-68852380D02*
X134638095Y-68852380D01*
X134590476Y-69328571D01*
X134638095Y-69280952D01*
X134733333Y-69233333D01*
X134971428Y-69233333D01*
X135066666Y-69280952D01*
X135114285Y-69328571D01*
X135161904Y-69423809D01*
X135161904Y-69661904D01*
X135114285Y-69757142D01*
X135066666Y-69804761D01*
X134971428Y-69852380D01*
X134733333Y-69852380D01*
X134638095Y-69804761D01*
X134590476Y-69757142D01*
X118252380Y-91561904D02*
X119061904Y-91561904D01*
X119157142Y-91514285D01*
X119204761Y-91466666D01*
X119252380Y-91371428D01*
X119252380Y-91180952D01*
X119204761Y-91085714D01*
X119157142Y-91038095D01*
X119061904Y-90990476D01*
X118252380Y-90990476D01*
X118347619Y-90561904D02*
X118300000Y-90514285D01*
X118252380Y-90419047D01*
X118252380Y-90180952D01*
X118300000Y-90085714D01*
X118347619Y-90038095D01*
X118442857Y-89990476D01*
X118538095Y-89990476D01*
X118680952Y-90038095D01*
X119252380Y-90609523D01*
X119252380Y-89990476D01*
X129352380Y-91366666D02*
X128876190Y-91700000D01*
X129352380Y-91938095D02*
X128352380Y-91938095D01*
X128352380Y-91557142D01*
X128400000Y-91461904D01*
X128447619Y-91414285D01*
X128542857Y-91366666D01*
X128685714Y-91366666D01*
X128780952Y-91414285D01*
X128828571Y-91461904D01*
X128876190Y-91557142D01*
X128876190Y-91938095D01*
X129352380Y-90414285D02*
X129352380Y-90985714D01*
X129352380Y-90700000D02*
X128352380Y-90700000D01*
X128495238Y-90795238D01*
X128590476Y-90890476D01*
X128638095Y-90985714D01*
X124704761Y-86447619D02*
X124609523Y-86400000D01*
X124514285Y-86304761D01*
X124371428Y-86161904D01*
X124276190Y-86114285D01*
X124180952Y-86114285D01*
X124228571Y-86352380D02*
X124133333Y-86304761D01*
X124038095Y-86209523D01*
X123990476Y-86019047D01*
X123990476Y-85685714D01*
X124038095Y-85495238D01*
X124133333Y-85400000D01*
X124228571Y-85352380D01*
X124419047Y-85352380D01*
X124514285Y-85400000D01*
X124609523Y-85495238D01*
X124657142Y-85685714D01*
X124657142Y-86019047D01*
X124609523Y-86209523D01*
X124514285Y-86304761D01*
X124419047Y-86352380D01*
X124228571Y-86352380D01*
X125609523Y-86352380D02*
X125038095Y-86352380D01*
X125323809Y-86352380D02*
X125323809Y-85352380D01*
X125228571Y-85495238D01*
X125133333Y-85590476D01*
X125038095Y-85638095D01*
X137785714Y-78852380D02*
X137785714Y-77852380D01*
X138166666Y-77852380D01*
X138261904Y-77900000D01*
X138309523Y-77947619D01*
X138357142Y-78042857D01*
X138357142Y-78185714D01*
X138309523Y-78280952D01*
X138261904Y-78328571D01*
X138166666Y-78376190D01*
X137785714Y-78376190D01*
X138738095Y-78804761D02*
X138880952Y-78852380D01*
X139119047Y-78852380D01*
X139214285Y-78804761D01*
X139261904Y-78757142D01*
X139309523Y-78661904D01*
X139309523Y-78566666D01*
X139261904Y-78471428D01*
X139214285Y-78423809D01*
X139119047Y-78376190D01*
X138928571Y-78328571D01*
X138833333Y-78280952D01*
X138785714Y-78233333D01*
X138738095Y-78138095D01*
X138738095Y-78042857D01*
X138785714Y-77947619D01*
X138833333Y-77900000D01*
X138928571Y-77852380D01*
X139166666Y-77852380D01*
X139309523Y-77900000D01*
X140261904Y-78852380D02*
X139690476Y-78852380D01*
X139976190Y-78852380D02*
X139976190Y-77852380D01*
X139880952Y-77995238D01*
X139785714Y-78090476D01*
X139690476Y-78138095D01*
X130233333Y-83052380D02*
X129757142Y-83052380D01*
X129757142Y-82052380D01*
X131090476Y-83052380D02*
X130519047Y-83052380D01*
X130804761Y-83052380D02*
X130804761Y-82052380D01*
X130709523Y-82195238D01*
X130614285Y-82290476D01*
X130519047Y-82338095D01*
X122466666Y-92152380D02*
X122466666Y-92866666D01*
X122419047Y-93009523D01*
X122323809Y-93104761D01*
X122180952Y-93152380D01*
X122085714Y-93152380D01*
X122942857Y-93152380D02*
X122942857Y-92152380D01*
X123323809Y-92152380D01*
X123419047Y-92200000D01*
X123466666Y-92247619D01*
X123514285Y-92342857D01*
X123514285Y-92485714D01*
X123466666Y-92580952D01*
X123419047Y-92628571D01*
X123323809Y-92676190D01*
X122942857Y-92676190D01*
X124466666Y-93152380D02*
X123895238Y-93152380D01*
X124180952Y-93152380D02*
X124180952Y-92152380D01*
X124085714Y-92295238D01*
X123990476Y-92390476D01*
X123895238Y-92438095D01*
X113626666Y-83252380D02*
X113626666Y-83966666D01*
X113579047Y-84109523D01*
X113483809Y-84204761D01*
X113340952Y-84252380D01*
X113245714Y-84252380D01*
X114007619Y-83252380D02*
X114674285Y-83252380D01*
X114245714Y-84252380D01*
X117357142Y-90266666D02*
X117404761Y-90314285D01*
X117452380Y-90457142D01*
X117452380Y-90552380D01*
X117404761Y-90695238D01*
X117309523Y-90790476D01*
X117214285Y-90838095D01*
X117023809Y-90885714D01*
X116880952Y-90885714D01*
X116690476Y-90838095D01*
X116595238Y-90790476D01*
X116500000Y-90695238D01*
X116452380Y-90552380D01*
X116452380Y-90457142D01*
X116500000Y-90314285D01*
X116547619Y-90266666D01*
X117452380Y-89790476D02*
X117452380Y-89600000D01*
X117404761Y-89504761D01*
X117357142Y-89457142D01*
X117214285Y-89361904D01*
X117023809Y-89314285D01*
X116642857Y-89314285D01*
X116547619Y-89361904D01*
X116500000Y-89409523D01*
X116452380Y-89504761D01*
X116452380Y-89695238D01*
X116500000Y-89790476D01*
X116547619Y-89838095D01*
X116642857Y-89885714D01*
X116880952Y-89885714D01*
X116976190Y-89838095D01*
X117023809Y-89790476D01*
X117071428Y-89695238D01*
X117071428Y-89504761D01*
X117023809Y-89409523D01*
X116976190Y-89361904D01*
X116880952Y-89314285D01*
X119933333Y-92957142D02*
X119885714Y-93004761D01*
X119742857Y-93052380D01*
X119647619Y-93052380D01*
X119504761Y-93004761D01*
X119409523Y-92909523D01*
X119361904Y-92814285D01*
X119314285Y-92623809D01*
X119314285Y-92480952D01*
X119361904Y-92290476D01*
X119409523Y-92195238D01*
X119504761Y-92100000D01*
X119647619Y-92052380D01*
X119742857Y-92052380D01*
X119885714Y-92100000D01*
X119933333Y-92147619D01*
X120266666Y-92052380D02*
X120933333Y-92052380D01*
X120504761Y-93052380D01*
X125607142Y-83966666D02*
X125654761Y-84014285D01*
X125702380Y-84157142D01*
X125702380Y-84252380D01*
X125654761Y-84395238D01*
X125559523Y-84490476D01*
X125464285Y-84538095D01*
X125273809Y-84585714D01*
X125130952Y-84585714D01*
X124940476Y-84538095D01*
X124845238Y-84490476D01*
X124750000Y-84395238D01*
X124702380Y-84252380D01*
X124702380Y-84157142D01*
X124750000Y-84014285D01*
X124797619Y-83966666D01*
X124702380Y-83109523D02*
X124702380Y-83300000D01*
X124750000Y-83395238D01*
X124797619Y-83442857D01*
X124940476Y-83538095D01*
X125130952Y-83585714D01*
X125511904Y-83585714D01*
X125607142Y-83538095D01*
X125654761Y-83490476D01*
X125702380Y-83395238D01*
X125702380Y-83204761D01*
X125654761Y-83109523D01*
X125607142Y-83061904D01*
X125511904Y-83014285D01*
X125273809Y-83014285D01*
X125178571Y-83061904D01*
X125130952Y-83109523D01*
X125083333Y-83204761D01*
X125083333Y-83395238D01*
X125130952Y-83490476D01*
X125178571Y-83538095D01*
X125273809Y-83585714D01*
X131557142Y-90816666D02*
X131604761Y-90864285D01*
X131652380Y-91007142D01*
X131652380Y-91102380D01*
X131604761Y-91245238D01*
X131509523Y-91340476D01*
X131414285Y-91388095D01*
X131223809Y-91435714D01*
X131080952Y-91435714D01*
X130890476Y-91388095D01*
X130795238Y-91340476D01*
X130700000Y-91245238D01*
X130652380Y-91102380D01*
X130652380Y-91007142D01*
X130700000Y-90864285D01*
X130747619Y-90816666D01*
X130652380Y-89911904D02*
X130652380Y-90388095D01*
X131128571Y-90435714D01*
X131080952Y-90388095D01*
X131033333Y-90292857D01*
X131033333Y-90054761D01*
X131080952Y-89959523D01*
X131128571Y-89911904D01*
X131223809Y-89864285D01*
X131461904Y-89864285D01*
X131557142Y-89911904D01*
X131604761Y-89959523D01*
X131652380Y-90054761D01*
X131652380Y-90292857D01*
X131604761Y-90388095D01*
X131557142Y-90435714D01*
X133057142Y-90366666D02*
X133104761Y-90414285D01*
X133152380Y-90557142D01*
X133152380Y-90652380D01*
X133104761Y-90795238D01*
X133009523Y-90890476D01*
X132914285Y-90938095D01*
X132723809Y-90985714D01*
X132580952Y-90985714D01*
X132390476Y-90938095D01*
X132295238Y-90890476D01*
X132200000Y-90795238D01*
X132152380Y-90652380D01*
X132152380Y-90557142D01*
X132200000Y-90414285D01*
X132247619Y-90366666D01*
X132485714Y-89509523D02*
X133152380Y-89509523D01*
X132104761Y-89747619D02*
X132819047Y-89985714D01*
X132819047Y-89366666D01*
X135757142Y-91866666D02*
X135804761Y-91914285D01*
X135852380Y-92057142D01*
X135852380Y-92152380D01*
X135804761Y-92295238D01*
X135709523Y-92390476D01*
X135614285Y-92438095D01*
X135423809Y-92485714D01*
X135280952Y-92485714D01*
X135090476Y-92438095D01*
X134995238Y-92390476D01*
X134900000Y-92295238D01*
X134852380Y-92152380D01*
X134852380Y-92057142D01*
X134900000Y-91914285D01*
X134947619Y-91866666D01*
X134852380Y-91533333D02*
X134852380Y-90914285D01*
X135233333Y-91247619D01*
X135233333Y-91104761D01*
X135280952Y-91009523D01*
X135328571Y-90961904D01*
X135423809Y-90914285D01*
X135661904Y-90914285D01*
X135757142Y-90961904D01*
X135804761Y-91009523D01*
X135852380Y-91104761D01*
X135852380Y-91390476D01*
X135804761Y-91485714D01*
X135757142Y-91533333D01*
X130233333Y-80557142D02*
X130185714Y-80604761D01*
X130042857Y-80652380D01*
X129947619Y-80652380D01*
X129804761Y-80604761D01*
X129709523Y-80509523D01*
X129661904Y-80414285D01*
X129614285Y-80223809D01*
X129614285Y-80080952D01*
X129661904Y-79890476D01*
X129709523Y-79795238D01*
X129804761Y-79700000D01*
X129947619Y-79652380D01*
X130042857Y-79652380D01*
X130185714Y-79700000D01*
X130233333Y-79747619D01*
X130614285Y-79747619D02*
X130661904Y-79700000D01*
X130757142Y-79652380D01*
X130995238Y-79652380D01*
X131090476Y-79700000D01*
X131138095Y-79747619D01*
X131185714Y-79842857D01*
X131185714Y-79938095D01*
X131138095Y-80080952D01*
X130566666Y-80652380D01*
X131185714Y-80652380D01*
X135772380Y-65333333D02*
X136486666Y-65333333D01*
X136629523Y-65380952D01*
X136724761Y-65476190D01*
X136772380Y-65619047D01*
X136772380Y-65714285D01*
X135772380Y-64428571D02*
X135772380Y-64619047D01*
X135820000Y-64714285D01*
X135867619Y-64761904D01*
X136010476Y-64857142D01*
X136200952Y-64904761D01*
X136581904Y-64904761D01*
X136677142Y-64857142D01*
X136724761Y-64809523D01*
X136772380Y-64714285D01*
X136772380Y-64523809D01*
X136724761Y-64428571D01*
X136677142Y-64380952D01*
X136581904Y-64333333D01*
X136343809Y-64333333D01*
X136248571Y-64380952D01*
X136200952Y-64428571D01*
X136153333Y-64523809D01*
X136153333Y-64714285D01*
X136200952Y-64809523D01*
X136248571Y-64857142D01*
X136343809Y-64904761D01*
X94932380Y-90033333D02*
X95646666Y-90033333D01*
X95789523Y-90080952D01*
X95884761Y-90176190D01*
X95932380Y-90319047D01*
X95932380Y-90414285D01*
X95265714Y-89128571D02*
X95932380Y-89128571D01*
X94884761Y-89366666D02*
X95599047Y-89604761D01*
X95599047Y-88985714D01*
X94932380Y-81633333D02*
X95646666Y-81633333D01*
X95789523Y-81680952D01*
X95884761Y-81776190D01*
X95932380Y-81919047D01*
X95932380Y-82014285D01*
X94932380Y-81252380D02*
X94932380Y-80633333D01*
X95313333Y-80966666D01*
X95313333Y-80823809D01*
X95360952Y-80728571D01*
X95408571Y-80680952D01*
X95503809Y-80633333D01*
X95741904Y-80633333D01*
X95837142Y-80680952D01*
X95884761Y-80728571D01*
X95932380Y-80823809D01*
X95932380Y-81109523D01*
X95884761Y-81204761D01*
X95837142Y-81252380D01*
X94932380Y-73133333D02*
X95646666Y-73133333D01*
X95789523Y-73180952D01*
X95884761Y-73276190D01*
X95932380Y-73419047D01*
X95932380Y-73514285D01*
X95027619Y-72704761D02*
X94980000Y-72657142D01*
X94932380Y-72561904D01*
X94932380Y-72323809D01*
X94980000Y-72228571D01*
X95027619Y-72180952D01*
X95122857Y-72133333D01*
X95218095Y-72133333D01*
X95360952Y-72180952D01*
X95932380Y-72752380D01*
X95932380Y-72133333D01*
X94832380Y-64833333D02*
X95546666Y-64833333D01*
X95689523Y-64880952D01*
X95784761Y-64976190D01*
X95832380Y-65119047D01*
X95832380Y-65214285D01*
X95832380Y-63833333D02*
X95832380Y-64404761D01*
X95832380Y-64119047D02*
X94832380Y-64119047D01*
X94975238Y-64214285D01*
X95070476Y-64309523D01*
X95118095Y-64404761D01*
X102538095Y-73002380D02*
X102538095Y-73811904D01*
X102585714Y-73907142D01*
X102633333Y-73954761D01*
X102728571Y-74002380D01*
X102919047Y-74002380D01*
X103014285Y-73954761D01*
X103061904Y-73907142D01*
X103109523Y-73811904D01*
X103109523Y-73002380D01*
X104109523Y-74002380D02*
X103538095Y-74002380D01*
X103823809Y-74002380D02*
X103823809Y-73002380D01*
X103728571Y-73145238D01*
X103633333Y-73240476D01*
X103538095Y-73288095D01*
X110287142Y-73566666D02*
X110334761Y-73614285D01*
X110382380Y-73757142D01*
X110382380Y-73852380D01*
X110334761Y-73995238D01*
X110239523Y-74090476D01*
X110144285Y-74138095D01*
X109953809Y-74185714D01*
X109810952Y-74185714D01*
X109620476Y-74138095D01*
X109525238Y-74090476D01*
X109430000Y-73995238D01*
X109382380Y-73852380D01*
X109382380Y-73757142D01*
X109430000Y-73614285D01*
X109477619Y-73566666D01*
X110382380Y-72614285D02*
X110382380Y-73185714D01*
X110382380Y-72900000D02*
X109382380Y-72900000D01*
X109525238Y-72995238D01*
X109620476Y-73090476D01*
X109668095Y-73185714D01*
%LPC*%
D12*
G36*
X129592702Y-65554845D02*
G01*
X129609738Y-65557372D01*
X129626445Y-65561557D01*
X129642661Y-65567359D01*
X129658230Y-65574723D01*
X129673003Y-65583577D01*
X129686836Y-65593837D01*
X129699597Y-65605403D01*
X129711163Y-65618164D01*
X129721423Y-65631997D01*
X129730277Y-65646770D01*
X129737641Y-65662339D01*
X129743443Y-65678555D01*
X129747628Y-65695262D01*
X129750155Y-65712298D01*
X129751000Y-65729500D01*
X129751000Y-66080500D01*
X129750155Y-66097702D01*
X129747628Y-66114738D01*
X129743443Y-66131445D01*
X129737641Y-66147661D01*
X129730277Y-66163230D01*
X129721423Y-66178003D01*
X129711163Y-66191836D01*
X129699597Y-66204597D01*
X129686836Y-66216163D01*
X129673003Y-66226423D01*
X129658230Y-66235277D01*
X129642661Y-66242641D01*
X129626445Y-66248443D01*
X129609738Y-66252628D01*
X129592702Y-66255155D01*
X129575500Y-66256000D01*
X127874500Y-66256000D01*
X127857298Y-66255155D01*
X127840262Y-66252628D01*
X127823555Y-66248443D01*
X127807339Y-66242641D01*
X127791770Y-66235277D01*
X127776997Y-66226423D01*
X127763164Y-66216163D01*
X127750403Y-66204597D01*
X127738837Y-66191836D01*
X127728577Y-66178003D01*
X127719723Y-66163230D01*
X127712359Y-66147661D01*
X127706557Y-66131445D01*
X127702372Y-66114738D01*
X127699845Y-66097702D01*
X127699000Y-66080500D01*
X127699000Y-65729500D01*
X127699845Y-65712298D01*
X127702372Y-65695262D01*
X127706557Y-65678555D01*
X127712359Y-65662339D01*
X127719723Y-65646770D01*
X127728577Y-65631997D01*
X127738837Y-65618164D01*
X127750403Y-65605403D01*
X127763164Y-65593837D01*
X127776997Y-65583577D01*
X127791770Y-65574723D01*
X127807339Y-65567359D01*
X127823555Y-65561557D01*
X127840262Y-65557372D01*
X127857298Y-65554845D01*
X127874500Y-65554000D01*
X129575500Y-65554000D01*
X129592702Y-65554845D01*
G37*
G36*
X129592702Y-64284845D02*
G01*
X129609738Y-64287372D01*
X129626445Y-64291557D01*
X129642661Y-64297359D01*
X129658230Y-64304723D01*
X129673003Y-64313577D01*
X129686836Y-64323837D01*
X129699597Y-64335403D01*
X129711163Y-64348164D01*
X129721423Y-64361997D01*
X129730277Y-64376770D01*
X129737641Y-64392339D01*
X129743443Y-64408555D01*
X129747628Y-64425262D01*
X129750155Y-64442298D01*
X129751000Y-64459500D01*
X129751000Y-64810500D01*
X129750155Y-64827702D01*
X129747628Y-64844738D01*
X129743443Y-64861445D01*
X129737641Y-64877661D01*
X129730277Y-64893230D01*
X129721423Y-64908003D01*
X129711163Y-64921836D01*
X129699597Y-64934597D01*
X129686836Y-64946163D01*
X129673003Y-64956423D01*
X129658230Y-64965277D01*
X129642661Y-64972641D01*
X129626445Y-64978443D01*
X129609738Y-64982628D01*
X129592702Y-64985155D01*
X129575500Y-64986000D01*
X127874500Y-64986000D01*
X127857298Y-64985155D01*
X127840262Y-64982628D01*
X127823555Y-64978443D01*
X127807339Y-64972641D01*
X127791770Y-64965277D01*
X127776997Y-64956423D01*
X127763164Y-64946163D01*
X127750403Y-64934597D01*
X127738837Y-64921836D01*
X127728577Y-64908003D01*
X127719723Y-64893230D01*
X127712359Y-64877661D01*
X127706557Y-64861445D01*
X127702372Y-64844738D01*
X127699845Y-64827702D01*
X127699000Y-64810500D01*
X127699000Y-64459500D01*
X127699845Y-64442298D01*
X127702372Y-64425262D01*
X127706557Y-64408555D01*
X127712359Y-64392339D01*
X127719723Y-64376770D01*
X127728577Y-64361997D01*
X127738837Y-64348164D01*
X127750403Y-64335403D01*
X127763164Y-64323837D01*
X127776997Y-64313577D01*
X127791770Y-64304723D01*
X127807339Y-64297359D01*
X127823555Y-64291557D01*
X127840262Y-64287372D01*
X127857298Y-64284845D01*
X127874500Y-64284000D01*
X129575500Y-64284000D01*
X129592702Y-64284845D01*
G37*
G36*
X129592702Y-63014845D02*
G01*
X129609738Y-63017372D01*
X129626445Y-63021557D01*
X129642661Y-63027359D01*
X129658230Y-63034723D01*
X129673003Y-63043577D01*
X129686836Y-63053837D01*
X129699597Y-63065403D01*
X129711163Y-63078164D01*
X129721423Y-63091997D01*
X129730277Y-63106770D01*
X129737641Y-63122339D01*
X129743443Y-63138555D01*
X129747628Y-63155262D01*
X129750155Y-63172298D01*
X129751000Y-63189500D01*
X129751000Y-63540500D01*
X129750155Y-63557702D01*
X129747628Y-63574738D01*
X129743443Y-63591445D01*
X129737641Y-63607661D01*
X129730277Y-63623230D01*
X129721423Y-63638003D01*
X129711163Y-63651836D01*
X129699597Y-63664597D01*
X129686836Y-63676163D01*
X129673003Y-63686423D01*
X129658230Y-63695277D01*
X129642661Y-63702641D01*
X129626445Y-63708443D01*
X129609738Y-63712628D01*
X129592702Y-63715155D01*
X129575500Y-63716000D01*
X127874500Y-63716000D01*
X127857298Y-63715155D01*
X127840262Y-63712628D01*
X127823555Y-63708443D01*
X127807339Y-63702641D01*
X127791770Y-63695277D01*
X127776997Y-63686423D01*
X127763164Y-63676163D01*
X127750403Y-63664597D01*
X127738837Y-63651836D01*
X127728577Y-63638003D01*
X127719723Y-63623230D01*
X127712359Y-63607661D01*
X127706557Y-63591445D01*
X127702372Y-63574738D01*
X127699845Y-63557702D01*
X127699000Y-63540500D01*
X127699000Y-63189500D01*
X127699845Y-63172298D01*
X127702372Y-63155262D01*
X127706557Y-63138555D01*
X127712359Y-63122339D01*
X127719723Y-63106770D01*
X127728577Y-63091997D01*
X127738837Y-63078164D01*
X127750403Y-63065403D01*
X127763164Y-63053837D01*
X127776997Y-63043577D01*
X127791770Y-63034723D01*
X127807339Y-63027359D01*
X127823555Y-63021557D01*
X127840262Y-63017372D01*
X127857298Y-63014845D01*
X127874500Y-63014000D01*
X129575500Y-63014000D01*
X129592702Y-63014845D01*
G37*
G36*
X129592702Y-61744845D02*
G01*
X129609738Y-61747372D01*
X129626445Y-61751557D01*
X129642661Y-61757359D01*
X129658230Y-61764723D01*
X129673003Y-61773577D01*
X129686836Y-61783837D01*
X129699597Y-61795403D01*
X129711163Y-61808164D01*
X129721423Y-61821997D01*
X129730277Y-61836770D01*
X129737641Y-61852339D01*
X129743443Y-61868555D01*
X129747628Y-61885262D01*
X129750155Y-61902298D01*
X129751000Y-61919500D01*
X129751000Y-62270500D01*
X129750155Y-62287702D01*
X129747628Y-62304738D01*
X129743443Y-62321445D01*
X129737641Y-62337661D01*
X129730277Y-62353230D01*
X129721423Y-62368003D01*
X129711163Y-62381836D01*
X129699597Y-62394597D01*
X129686836Y-62406163D01*
X129673003Y-62416423D01*
X129658230Y-62425277D01*
X129642661Y-62432641D01*
X129626445Y-62438443D01*
X129609738Y-62442628D01*
X129592702Y-62445155D01*
X129575500Y-62446000D01*
X127874500Y-62446000D01*
X127857298Y-62445155D01*
X127840262Y-62442628D01*
X127823555Y-62438443D01*
X127807339Y-62432641D01*
X127791770Y-62425277D01*
X127776997Y-62416423D01*
X127763164Y-62406163D01*
X127750403Y-62394597D01*
X127738837Y-62381836D01*
X127728577Y-62368003D01*
X127719723Y-62353230D01*
X127712359Y-62337661D01*
X127706557Y-62321445D01*
X127702372Y-62304738D01*
X127699845Y-62287702D01*
X127699000Y-62270500D01*
X127699000Y-61919500D01*
X127699845Y-61902298D01*
X127702372Y-61885262D01*
X127706557Y-61868555D01*
X127712359Y-61852339D01*
X127719723Y-61836770D01*
X127728577Y-61821997D01*
X127738837Y-61808164D01*
X127750403Y-61795403D01*
X127763164Y-61783837D01*
X127776997Y-61773577D01*
X127791770Y-61764723D01*
X127807339Y-61757359D01*
X127823555Y-61751557D01*
X127840262Y-61747372D01*
X127857298Y-61744845D01*
X127874500Y-61744000D01*
X129575500Y-61744000D01*
X129592702Y-61744845D01*
G37*
G36*
X134542702Y-61744845D02*
G01*
X134559738Y-61747372D01*
X134576445Y-61751557D01*
X134592661Y-61757359D01*
X134608230Y-61764723D01*
X134623003Y-61773577D01*
X134636836Y-61783837D01*
X134649597Y-61795403D01*
X134661163Y-61808164D01*
X134671423Y-61821997D01*
X134680277Y-61836770D01*
X134687641Y-61852339D01*
X134693443Y-61868555D01*
X134697628Y-61885262D01*
X134700155Y-61902298D01*
X134701000Y-61919500D01*
X134701000Y-62270500D01*
X134700155Y-62287702D01*
X134697628Y-62304738D01*
X134693443Y-62321445D01*
X134687641Y-62337661D01*
X134680277Y-62353230D01*
X134671423Y-62368003D01*
X134661163Y-62381836D01*
X134649597Y-62394597D01*
X134636836Y-62406163D01*
X134623003Y-62416423D01*
X134608230Y-62425277D01*
X134592661Y-62432641D01*
X134576445Y-62438443D01*
X134559738Y-62442628D01*
X134542702Y-62445155D01*
X134525500Y-62446000D01*
X132824500Y-62446000D01*
X132807298Y-62445155D01*
X132790262Y-62442628D01*
X132773555Y-62438443D01*
X132757339Y-62432641D01*
X132741770Y-62425277D01*
X132726997Y-62416423D01*
X132713164Y-62406163D01*
X132700403Y-62394597D01*
X132688837Y-62381836D01*
X132678577Y-62368003D01*
X132669723Y-62353230D01*
X132662359Y-62337661D01*
X132656557Y-62321445D01*
X132652372Y-62304738D01*
X132649845Y-62287702D01*
X132649000Y-62270500D01*
X132649000Y-61919500D01*
X132649845Y-61902298D01*
X132652372Y-61885262D01*
X132656557Y-61868555D01*
X132662359Y-61852339D01*
X132669723Y-61836770D01*
X132678577Y-61821997D01*
X132688837Y-61808164D01*
X132700403Y-61795403D01*
X132713164Y-61783837D01*
X132726997Y-61773577D01*
X132741770Y-61764723D01*
X132757339Y-61757359D01*
X132773555Y-61751557D01*
X132790262Y-61747372D01*
X132807298Y-61744845D01*
X132824500Y-61744000D01*
X134525500Y-61744000D01*
X134542702Y-61744845D01*
G37*
G36*
X134542702Y-63014845D02*
G01*
X134559738Y-63017372D01*
X134576445Y-63021557D01*
X134592661Y-63027359D01*
X134608230Y-63034723D01*
X134623003Y-63043577D01*
X134636836Y-63053837D01*
X134649597Y-63065403D01*
X134661163Y-63078164D01*
X134671423Y-63091997D01*
X134680277Y-63106770D01*
X134687641Y-63122339D01*
X134693443Y-63138555D01*
X134697628Y-63155262D01*
X134700155Y-63172298D01*
X134701000Y-63189500D01*
X134701000Y-63540500D01*
X134700155Y-63557702D01*
X134697628Y-63574738D01*
X134693443Y-63591445D01*
X134687641Y-63607661D01*
X134680277Y-63623230D01*
X134671423Y-63638003D01*
X134661163Y-63651836D01*
X134649597Y-63664597D01*
X134636836Y-63676163D01*
X134623003Y-63686423D01*
X134608230Y-63695277D01*
X134592661Y-63702641D01*
X134576445Y-63708443D01*
X134559738Y-63712628D01*
X134542702Y-63715155D01*
X134525500Y-63716000D01*
X132824500Y-63716000D01*
X132807298Y-63715155D01*
X132790262Y-63712628D01*
X132773555Y-63708443D01*
X132757339Y-63702641D01*
X132741770Y-63695277D01*
X132726997Y-63686423D01*
X132713164Y-63676163D01*
X132700403Y-63664597D01*
X132688837Y-63651836D01*
X132678577Y-63638003D01*
X132669723Y-63623230D01*
X132662359Y-63607661D01*
X132656557Y-63591445D01*
X132652372Y-63574738D01*
X132649845Y-63557702D01*
X132649000Y-63540500D01*
X132649000Y-63189500D01*
X132649845Y-63172298D01*
X132652372Y-63155262D01*
X132656557Y-63138555D01*
X132662359Y-63122339D01*
X132669723Y-63106770D01*
X132678577Y-63091997D01*
X132688837Y-63078164D01*
X132700403Y-63065403D01*
X132713164Y-63053837D01*
X132726997Y-63043577D01*
X132741770Y-63034723D01*
X132757339Y-63027359D01*
X132773555Y-63021557D01*
X132790262Y-63017372D01*
X132807298Y-63014845D01*
X132824500Y-63014000D01*
X134525500Y-63014000D01*
X134542702Y-63014845D01*
G37*
G36*
X134542702Y-64284845D02*
G01*
X134559738Y-64287372D01*
X134576445Y-64291557D01*
X134592661Y-64297359D01*
X134608230Y-64304723D01*
X134623003Y-64313577D01*
X134636836Y-64323837D01*
X134649597Y-64335403D01*
X134661163Y-64348164D01*
X134671423Y-64361997D01*
X134680277Y-64376770D01*
X134687641Y-64392339D01*
X134693443Y-64408555D01*
X134697628Y-64425262D01*
X134700155Y-64442298D01*
X134701000Y-64459500D01*
X134701000Y-64810500D01*
X134700155Y-64827702D01*
X134697628Y-64844738D01*
X134693443Y-64861445D01*
X134687641Y-64877661D01*
X134680277Y-64893230D01*
X134671423Y-64908003D01*
X134661163Y-64921836D01*
X134649597Y-64934597D01*
X134636836Y-64946163D01*
X134623003Y-64956423D01*
X134608230Y-64965277D01*
X134592661Y-64972641D01*
X134576445Y-64978443D01*
X134559738Y-64982628D01*
X134542702Y-64985155D01*
X134525500Y-64986000D01*
X132824500Y-64986000D01*
X132807298Y-64985155D01*
X132790262Y-64982628D01*
X132773555Y-64978443D01*
X132757339Y-64972641D01*
X132741770Y-64965277D01*
X132726997Y-64956423D01*
X132713164Y-64946163D01*
X132700403Y-64934597D01*
X132688837Y-64921836D01*
X132678577Y-64908003D01*
X132669723Y-64893230D01*
X132662359Y-64877661D01*
X132656557Y-64861445D01*
X132652372Y-64844738D01*
X132649845Y-64827702D01*
X132649000Y-64810500D01*
X132649000Y-64459500D01*
X132649845Y-64442298D01*
X132652372Y-64425262D01*
X132656557Y-64408555D01*
X132662359Y-64392339D01*
X132669723Y-64376770D01*
X132678577Y-64361997D01*
X132688837Y-64348164D01*
X132700403Y-64335403D01*
X132713164Y-64323837D01*
X132726997Y-64313577D01*
X132741770Y-64304723D01*
X132757339Y-64297359D01*
X132773555Y-64291557D01*
X132790262Y-64287372D01*
X132807298Y-64284845D01*
X132824500Y-64284000D01*
X134525500Y-64284000D01*
X134542702Y-64284845D01*
G37*
G36*
X134542702Y-65554845D02*
G01*
X134559738Y-65557372D01*
X134576445Y-65561557D01*
X134592661Y-65567359D01*
X134608230Y-65574723D01*
X134623003Y-65583577D01*
X134636836Y-65593837D01*
X134649597Y-65605403D01*
X134661163Y-65618164D01*
X134671423Y-65631997D01*
X134680277Y-65646770D01*
X134687641Y-65662339D01*
X134693443Y-65678555D01*
X134697628Y-65695262D01*
X134700155Y-65712298D01*
X134701000Y-65729500D01*
X134701000Y-66080500D01*
X134700155Y-66097702D01*
X134697628Y-66114738D01*
X134693443Y-66131445D01*
X134687641Y-66147661D01*
X134680277Y-66163230D01*
X134671423Y-66178003D01*
X134661163Y-66191836D01*
X134649597Y-66204597D01*
X134636836Y-66216163D01*
X134623003Y-66226423D01*
X134608230Y-66235277D01*
X134592661Y-66242641D01*
X134576445Y-66248443D01*
X134559738Y-66252628D01*
X134542702Y-66255155D01*
X134525500Y-66256000D01*
X132824500Y-66256000D01*
X132807298Y-66255155D01*
X132790262Y-66252628D01*
X132773555Y-66248443D01*
X132757339Y-66242641D01*
X132741770Y-66235277D01*
X132726997Y-66226423D01*
X132713164Y-66216163D01*
X132700403Y-66204597D01*
X132688837Y-66191836D01*
X132678577Y-66178003D01*
X132669723Y-66163230D01*
X132662359Y-66147661D01*
X132656557Y-66131445D01*
X132652372Y-66114738D01*
X132649845Y-66097702D01*
X132649000Y-66080500D01*
X132649000Y-65729500D01*
X132649845Y-65712298D01*
X132652372Y-65695262D01*
X132656557Y-65678555D01*
X132662359Y-65662339D01*
X132669723Y-65646770D01*
X132678577Y-65631997D01*
X132688837Y-65618164D01*
X132700403Y-65605403D01*
X132713164Y-65593837D01*
X132726997Y-65583577D01*
X132741770Y-65574723D01*
X132757339Y-65567359D01*
X132773555Y-65561557D01*
X132790262Y-65557372D01*
X132807298Y-65554845D01*
X132824500Y-65554000D01*
X134525500Y-65554000D01*
X134542702Y-65554845D01*
G37*
G36*
X129692702Y-74654845D02*
G01*
X129709738Y-74657372D01*
X129726445Y-74661557D01*
X129742661Y-74667359D01*
X129758230Y-74674723D01*
X129773003Y-74683577D01*
X129786836Y-74693837D01*
X129799597Y-74705403D01*
X129811163Y-74718164D01*
X129821423Y-74731997D01*
X129830277Y-74746770D01*
X129837641Y-74762339D01*
X129843443Y-74778555D01*
X129847628Y-74795262D01*
X129850155Y-74812298D01*
X129851000Y-74829500D01*
X129851000Y-75180500D01*
X129850155Y-75197702D01*
X129847628Y-75214738D01*
X129843443Y-75231445D01*
X129837641Y-75247661D01*
X129830277Y-75263230D01*
X129821423Y-75278003D01*
X129811163Y-75291836D01*
X129799597Y-75304597D01*
X129786836Y-75316163D01*
X129773003Y-75326423D01*
X129758230Y-75335277D01*
X129742661Y-75342641D01*
X129726445Y-75348443D01*
X129709738Y-75352628D01*
X129692702Y-75355155D01*
X129675500Y-75356000D01*
X127974500Y-75356000D01*
X127957298Y-75355155D01*
X127940262Y-75352628D01*
X127923555Y-75348443D01*
X127907339Y-75342641D01*
X127891770Y-75335277D01*
X127876997Y-75326423D01*
X127863164Y-75316163D01*
X127850403Y-75304597D01*
X127838837Y-75291836D01*
X127828577Y-75278003D01*
X127819723Y-75263230D01*
X127812359Y-75247661D01*
X127806557Y-75231445D01*
X127802372Y-75214738D01*
X127799845Y-75197702D01*
X127799000Y-75180500D01*
X127799000Y-74829500D01*
X127799845Y-74812298D01*
X127802372Y-74795262D01*
X127806557Y-74778555D01*
X127812359Y-74762339D01*
X127819723Y-74746770D01*
X127828577Y-74731997D01*
X127838837Y-74718164D01*
X127850403Y-74705403D01*
X127863164Y-74693837D01*
X127876997Y-74683577D01*
X127891770Y-74674723D01*
X127907339Y-74667359D01*
X127923555Y-74661557D01*
X127940262Y-74657372D01*
X127957298Y-74654845D01*
X127974500Y-74654000D01*
X129675500Y-74654000D01*
X129692702Y-74654845D01*
G37*
G36*
X129692702Y-73384845D02*
G01*
X129709738Y-73387372D01*
X129726445Y-73391557D01*
X129742661Y-73397359D01*
X129758230Y-73404723D01*
X129773003Y-73413577D01*
X129786836Y-73423837D01*
X129799597Y-73435403D01*
X129811163Y-73448164D01*
X129821423Y-73461997D01*
X129830277Y-73476770D01*
X129837641Y-73492339D01*
X129843443Y-73508555D01*
X129847628Y-73525262D01*
X129850155Y-73542298D01*
X129851000Y-73559500D01*
X129851000Y-73910500D01*
X129850155Y-73927702D01*
X129847628Y-73944738D01*
X129843443Y-73961445D01*
X129837641Y-73977661D01*
X129830277Y-73993230D01*
X129821423Y-74008003D01*
X129811163Y-74021836D01*
X129799597Y-74034597D01*
X129786836Y-74046163D01*
X129773003Y-74056423D01*
X129758230Y-74065277D01*
X129742661Y-74072641D01*
X129726445Y-74078443D01*
X129709738Y-74082628D01*
X129692702Y-74085155D01*
X129675500Y-74086000D01*
X127974500Y-74086000D01*
X127957298Y-74085155D01*
X127940262Y-74082628D01*
X127923555Y-74078443D01*
X127907339Y-74072641D01*
X127891770Y-74065277D01*
X127876997Y-74056423D01*
X127863164Y-74046163D01*
X127850403Y-74034597D01*
X127838837Y-74021836D01*
X127828577Y-74008003D01*
X127819723Y-73993230D01*
X127812359Y-73977661D01*
X127806557Y-73961445D01*
X127802372Y-73944738D01*
X127799845Y-73927702D01*
X127799000Y-73910500D01*
X127799000Y-73559500D01*
X127799845Y-73542298D01*
X127802372Y-73525262D01*
X127806557Y-73508555D01*
X127812359Y-73492339D01*
X127819723Y-73476770D01*
X127828577Y-73461997D01*
X127838837Y-73448164D01*
X127850403Y-73435403D01*
X127863164Y-73423837D01*
X127876997Y-73413577D01*
X127891770Y-73404723D01*
X127907339Y-73397359D01*
X127923555Y-73391557D01*
X127940262Y-73387372D01*
X127957298Y-73384845D01*
X127974500Y-73384000D01*
X129675500Y-73384000D01*
X129692702Y-73384845D01*
G37*
G36*
X129692702Y-72114845D02*
G01*
X129709738Y-72117372D01*
X129726445Y-72121557D01*
X129742661Y-72127359D01*
X129758230Y-72134723D01*
X129773003Y-72143577D01*
X129786836Y-72153837D01*
X129799597Y-72165403D01*
X129811163Y-72178164D01*
X129821423Y-72191997D01*
X129830277Y-72206770D01*
X129837641Y-72222339D01*
X129843443Y-72238555D01*
X129847628Y-72255262D01*
X129850155Y-72272298D01*
X129851000Y-72289500D01*
X129851000Y-72640500D01*
X129850155Y-72657702D01*
X129847628Y-72674738D01*
X129843443Y-72691445D01*
X129837641Y-72707661D01*
X129830277Y-72723230D01*
X129821423Y-72738003D01*
X129811163Y-72751836D01*
X129799597Y-72764597D01*
X129786836Y-72776163D01*
X129773003Y-72786423D01*
X129758230Y-72795277D01*
X129742661Y-72802641D01*
X129726445Y-72808443D01*
X129709738Y-72812628D01*
X129692702Y-72815155D01*
X129675500Y-72816000D01*
X127974500Y-72816000D01*
X127957298Y-72815155D01*
X127940262Y-72812628D01*
X127923555Y-72808443D01*
X127907339Y-72802641D01*
X127891770Y-72795277D01*
X127876997Y-72786423D01*
X127863164Y-72776163D01*
X127850403Y-72764597D01*
X127838837Y-72751836D01*
X127828577Y-72738003D01*
X127819723Y-72723230D01*
X127812359Y-72707661D01*
X127806557Y-72691445D01*
X127802372Y-72674738D01*
X127799845Y-72657702D01*
X127799000Y-72640500D01*
X127799000Y-72289500D01*
X127799845Y-72272298D01*
X127802372Y-72255262D01*
X127806557Y-72238555D01*
X127812359Y-72222339D01*
X127819723Y-72206770D01*
X127828577Y-72191997D01*
X127838837Y-72178164D01*
X127850403Y-72165403D01*
X127863164Y-72153837D01*
X127876997Y-72143577D01*
X127891770Y-72134723D01*
X127907339Y-72127359D01*
X127923555Y-72121557D01*
X127940262Y-72117372D01*
X127957298Y-72114845D01*
X127974500Y-72114000D01*
X129675500Y-72114000D01*
X129692702Y-72114845D01*
G37*
G36*
X129692702Y-70844845D02*
G01*
X129709738Y-70847372D01*
X129726445Y-70851557D01*
X129742661Y-70857359D01*
X129758230Y-70864723D01*
X129773003Y-70873577D01*
X129786836Y-70883837D01*
X129799597Y-70895403D01*
X129811163Y-70908164D01*
X129821423Y-70921997D01*
X129830277Y-70936770D01*
X129837641Y-70952339D01*
X129843443Y-70968555D01*
X129847628Y-70985262D01*
X129850155Y-71002298D01*
X129851000Y-71019500D01*
X129851000Y-71370500D01*
X129850155Y-71387702D01*
X129847628Y-71404738D01*
X129843443Y-71421445D01*
X129837641Y-71437661D01*
X129830277Y-71453230D01*
X129821423Y-71468003D01*
X129811163Y-71481836D01*
X129799597Y-71494597D01*
X129786836Y-71506163D01*
X129773003Y-71516423D01*
X129758230Y-71525277D01*
X129742661Y-71532641D01*
X129726445Y-71538443D01*
X129709738Y-71542628D01*
X129692702Y-71545155D01*
X129675500Y-71546000D01*
X127974500Y-71546000D01*
X127957298Y-71545155D01*
X127940262Y-71542628D01*
X127923555Y-71538443D01*
X127907339Y-71532641D01*
X127891770Y-71525277D01*
X127876997Y-71516423D01*
X127863164Y-71506163D01*
X127850403Y-71494597D01*
X127838837Y-71481836D01*
X127828577Y-71468003D01*
X127819723Y-71453230D01*
X127812359Y-71437661D01*
X127806557Y-71421445D01*
X127802372Y-71404738D01*
X127799845Y-71387702D01*
X127799000Y-71370500D01*
X127799000Y-71019500D01*
X127799845Y-71002298D01*
X127802372Y-70985262D01*
X127806557Y-70968555D01*
X127812359Y-70952339D01*
X127819723Y-70936770D01*
X127828577Y-70921997D01*
X127838837Y-70908164D01*
X127850403Y-70895403D01*
X127863164Y-70883837D01*
X127876997Y-70873577D01*
X127891770Y-70864723D01*
X127907339Y-70857359D01*
X127923555Y-70851557D01*
X127940262Y-70847372D01*
X127957298Y-70844845D01*
X127974500Y-70844000D01*
X129675500Y-70844000D01*
X129692702Y-70844845D01*
G37*
G36*
X134642702Y-70844845D02*
G01*
X134659738Y-70847372D01*
X134676445Y-70851557D01*
X134692661Y-70857359D01*
X134708230Y-70864723D01*
X134723003Y-70873577D01*
X134736836Y-70883837D01*
X134749597Y-70895403D01*
X134761163Y-70908164D01*
X134771423Y-70921997D01*
X134780277Y-70936770D01*
X134787641Y-70952339D01*
X134793443Y-70968555D01*
X134797628Y-70985262D01*
X134800155Y-71002298D01*
X134801000Y-71019500D01*
X134801000Y-71370500D01*
X134800155Y-71387702D01*
X134797628Y-71404738D01*
X134793443Y-71421445D01*
X134787641Y-71437661D01*
X134780277Y-71453230D01*
X134771423Y-71468003D01*
X134761163Y-71481836D01*
X134749597Y-71494597D01*
X134736836Y-71506163D01*
X134723003Y-71516423D01*
X134708230Y-71525277D01*
X134692661Y-71532641D01*
X134676445Y-71538443D01*
X134659738Y-71542628D01*
X134642702Y-71545155D01*
X134625500Y-71546000D01*
X132924500Y-71546000D01*
X132907298Y-71545155D01*
X132890262Y-71542628D01*
X132873555Y-71538443D01*
X132857339Y-71532641D01*
X132841770Y-71525277D01*
X132826997Y-71516423D01*
X132813164Y-71506163D01*
X132800403Y-71494597D01*
X132788837Y-71481836D01*
X132778577Y-71468003D01*
X132769723Y-71453230D01*
X132762359Y-71437661D01*
X132756557Y-71421445D01*
X132752372Y-71404738D01*
X132749845Y-71387702D01*
X132749000Y-71370500D01*
X132749000Y-71019500D01*
X132749845Y-71002298D01*
X132752372Y-70985262D01*
X132756557Y-70968555D01*
X132762359Y-70952339D01*
X132769723Y-70936770D01*
X132778577Y-70921997D01*
X132788837Y-70908164D01*
X132800403Y-70895403D01*
X132813164Y-70883837D01*
X132826997Y-70873577D01*
X132841770Y-70864723D01*
X132857339Y-70857359D01*
X132873555Y-70851557D01*
X132890262Y-70847372D01*
X132907298Y-70844845D01*
X132924500Y-70844000D01*
X134625500Y-70844000D01*
X134642702Y-70844845D01*
G37*
G36*
X134642702Y-72114845D02*
G01*
X134659738Y-72117372D01*
X134676445Y-72121557D01*
X134692661Y-72127359D01*
X134708230Y-72134723D01*
X134723003Y-72143577D01*
X134736836Y-72153837D01*
X134749597Y-72165403D01*
X134761163Y-72178164D01*
X134771423Y-72191997D01*
X134780277Y-72206770D01*
X134787641Y-72222339D01*
X134793443Y-72238555D01*
X134797628Y-72255262D01*
X134800155Y-72272298D01*
X134801000Y-72289500D01*
X134801000Y-72640500D01*
X134800155Y-72657702D01*
X134797628Y-72674738D01*
X134793443Y-72691445D01*
X134787641Y-72707661D01*
X134780277Y-72723230D01*
X134771423Y-72738003D01*
X134761163Y-72751836D01*
X134749597Y-72764597D01*
X134736836Y-72776163D01*
X134723003Y-72786423D01*
X134708230Y-72795277D01*
X134692661Y-72802641D01*
X134676445Y-72808443D01*
X134659738Y-72812628D01*
X134642702Y-72815155D01*
X134625500Y-72816000D01*
X132924500Y-72816000D01*
X132907298Y-72815155D01*
X132890262Y-72812628D01*
X132873555Y-72808443D01*
X132857339Y-72802641D01*
X132841770Y-72795277D01*
X132826997Y-72786423D01*
X132813164Y-72776163D01*
X132800403Y-72764597D01*
X132788837Y-72751836D01*
X132778577Y-72738003D01*
X132769723Y-72723230D01*
X132762359Y-72707661D01*
X132756557Y-72691445D01*
X132752372Y-72674738D01*
X132749845Y-72657702D01*
X132749000Y-72640500D01*
X132749000Y-72289500D01*
X132749845Y-72272298D01*
X132752372Y-72255262D01*
X132756557Y-72238555D01*
X132762359Y-72222339D01*
X132769723Y-72206770D01*
X132778577Y-72191997D01*
X132788837Y-72178164D01*
X132800403Y-72165403D01*
X132813164Y-72153837D01*
X132826997Y-72143577D01*
X132841770Y-72134723D01*
X132857339Y-72127359D01*
X132873555Y-72121557D01*
X132890262Y-72117372D01*
X132907298Y-72114845D01*
X132924500Y-72114000D01*
X134625500Y-72114000D01*
X134642702Y-72114845D01*
G37*
G36*
X134642702Y-73384845D02*
G01*
X134659738Y-73387372D01*
X134676445Y-73391557D01*
X134692661Y-73397359D01*
X134708230Y-73404723D01*
X134723003Y-73413577D01*
X134736836Y-73423837D01*
X134749597Y-73435403D01*
X134761163Y-73448164D01*
X134771423Y-73461997D01*
X134780277Y-73476770D01*
X134787641Y-73492339D01*
X134793443Y-73508555D01*
X134797628Y-73525262D01*
X134800155Y-73542298D01*
X134801000Y-73559500D01*
X134801000Y-73910500D01*
X134800155Y-73927702D01*
X134797628Y-73944738D01*
X134793443Y-73961445D01*
X134787641Y-73977661D01*
X134780277Y-73993230D01*
X134771423Y-74008003D01*
X134761163Y-74021836D01*
X134749597Y-74034597D01*
X134736836Y-74046163D01*
X134723003Y-74056423D01*
X134708230Y-74065277D01*
X134692661Y-74072641D01*
X134676445Y-74078443D01*
X134659738Y-74082628D01*
X134642702Y-74085155D01*
X134625500Y-74086000D01*
X132924500Y-74086000D01*
X132907298Y-74085155D01*
X132890262Y-74082628D01*
X132873555Y-74078443D01*
X132857339Y-74072641D01*
X132841770Y-74065277D01*
X132826997Y-74056423D01*
X132813164Y-74046163D01*
X132800403Y-74034597D01*
X132788837Y-74021836D01*
X132778577Y-74008003D01*
X132769723Y-73993230D01*
X132762359Y-73977661D01*
X132756557Y-73961445D01*
X132752372Y-73944738D01*
X132749845Y-73927702D01*
X132749000Y-73910500D01*
X132749000Y-73559500D01*
X132749845Y-73542298D01*
X132752372Y-73525262D01*
X132756557Y-73508555D01*
X132762359Y-73492339D01*
X132769723Y-73476770D01*
X132778577Y-73461997D01*
X132788837Y-73448164D01*
X132800403Y-73435403D01*
X132813164Y-73423837D01*
X132826997Y-73413577D01*
X132841770Y-73404723D01*
X132857339Y-73397359D01*
X132873555Y-73391557D01*
X132890262Y-73387372D01*
X132907298Y-73384845D01*
X132924500Y-73384000D01*
X134625500Y-73384000D01*
X134642702Y-73384845D01*
G37*
G36*
X134642702Y-74654845D02*
G01*
X134659738Y-74657372D01*
X134676445Y-74661557D01*
X134692661Y-74667359D01*
X134708230Y-74674723D01*
X134723003Y-74683577D01*
X134736836Y-74693837D01*
X134749597Y-74705403D01*
X134761163Y-74718164D01*
X134771423Y-74731997D01*
X134780277Y-74746770D01*
X134787641Y-74762339D01*
X134793443Y-74778555D01*
X134797628Y-74795262D01*
X134800155Y-74812298D01*
X134801000Y-74829500D01*
X134801000Y-75180500D01*
X134800155Y-75197702D01*
X134797628Y-75214738D01*
X134793443Y-75231445D01*
X134787641Y-75247661D01*
X134780277Y-75263230D01*
X134771423Y-75278003D01*
X134761163Y-75291836D01*
X134749597Y-75304597D01*
X134736836Y-75316163D01*
X134723003Y-75326423D01*
X134708230Y-75335277D01*
X134692661Y-75342641D01*
X134676445Y-75348443D01*
X134659738Y-75352628D01*
X134642702Y-75355155D01*
X134625500Y-75356000D01*
X132924500Y-75356000D01*
X132907298Y-75355155D01*
X132890262Y-75352628D01*
X132873555Y-75348443D01*
X132857339Y-75342641D01*
X132841770Y-75335277D01*
X132826997Y-75326423D01*
X132813164Y-75316163D01*
X132800403Y-75304597D01*
X132788837Y-75291836D01*
X132778577Y-75278003D01*
X132769723Y-75263230D01*
X132762359Y-75247661D01*
X132756557Y-75231445D01*
X132752372Y-75214738D01*
X132749845Y-75197702D01*
X132749000Y-75180500D01*
X132749000Y-74829500D01*
X132749845Y-74812298D01*
X132752372Y-74795262D01*
X132756557Y-74778555D01*
X132762359Y-74762339D01*
X132769723Y-74746770D01*
X132778577Y-74731997D01*
X132788837Y-74718164D01*
X132800403Y-74705403D01*
X132813164Y-74693837D01*
X132826997Y-74683577D01*
X132841770Y-74674723D01*
X132857339Y-74667359D01*
X132873555Y-74661557D01*
X132890262Y-74657372D01*
X132907298Y-74654845D01*
X132924500Y-74654000D01*
X134625500Y-74654000D01*
X134642702Y-74654845D01*
G37*
D13*
X103000000Y-91000000D03*
X103000000Y-63000000D03*
D12*
G36*
X142981338Y-70550306D02*
G01*
X143007669Y-70554212D01*
X143033490Y-70560680D01*
X143058553Y-70569648D01*
X143082617Y-70581029D01*
X143105449Y-70594714D01*
X143126830Y-70610571D01*
X143146553Y-70628447D01*
X143164429Y-70648170D01*
X143180286Y-70669551D01*
X143193971Y-70692383D01*
X143205352Y-70716447D01*
X143214320Y-70741510D01*
X143220788Y-70767331D01*
X143224694Y-70793662D01*
X143226000Y-70820249D01*
X143226000Y-71579751D01*
X143224694Y-71606338D01*
X143220788Y-71632669D01*
X143214320Y-71658490D01*
X143205352Y-71683553D01*
X143193971Y-71707617D01*
X143180286Y-71730449D01*
X143164429Y-71751830D01*
X143146553Y-71771553D01*
X143126830Y-71789429D01*
X143105449Y-71805286D01*
X143082617Y-71818971D01*
X143058553Y-71830352D01*
X143033490Y-71839320D01*
X143007669Y-71845788D01*
X142981338Y-71849694D01*
X142954751Y-71851000D01*
X141595249Y-71851000D01*
X141568662Y-71849694D01*
X141542331Y-71845788D01*
X141516510Y-71839320D01*
X141491447Y-71830352D01*
X141467383Y-71818971D01*
X141444551Y-71805286D01*
X141423170Y-71789429D01*
X141403447Y-71771553D01*
X141385571Y-71751830D01*
X141369714Y-71730449D01*
X141356029Y-71707617D01*
X141344648Y-71683553D01*
X141335680Y-71658490D01*
X141329212Y-71632669D01*
X141325306Y-71606338D01*
X141324000Y-71579751D01*
X141324000Y-70820249D01*
X141325306Y-70793662D01*
X141329212Y-70767331D01*
X141335680Y-70741510D01*
X141344648Y-70716447D01*
X141356029Y-70692383D01*
X141369714Y-70669551D01*
X141385571Y-70648170D01*
X141403447Y-70628447D01*
X141423170Y-70610571D01*
X141444551Y-70594714D01*
X141467383Y-70581029D01*
X141491447Y-70569648D01*
X141516510Y-70560680D01*
X141542331Y-70554212D01*
X141568662Y-70550306D01*
X141595249Y-70549000D01*
X142954751Y-70549000D01*
X142981338Y-70550306D01*
G37*
G36*
X142981338Y-76150306D02*
G01*
X143007669Y-76154212D01*
X143033490Y-76160680D01*
X143058553Y-76169648D01*
X143082617Y-76181029D01*
X143105449Y-76194714D01*
X143126830Y-76210571D01*
X143146553Y-76228447D01*
X143164429Y-76248170D01*
X143180286Y-76269551D01*
X143193971Y-76292383D01*
X143205352Y-76316447D01*
X143214320Y-76341510D01*
X143220788Y-76367331D01*
X143224694Y-76393662D01*
X143226000Y-76420249D01*
X143226000Y-77179751D01*
X143224694Y-77206338D01*
X143220788Y-77232669D01*
X143214320Y-77258490D01*
X143205352Y-77283553D01*
X143193971Y-77307617D01*
X143180286Y-77330449D01*
X143164429Y-77351830D01*
X143146553Y-77371553D01*
X143126830Y-77389429D01*
X143105449Y-77405286D01*
X143082617Y-77418971D01*
X143058553Y-77430352D01*
X143033490Y-77439320D01*
X143007669Y-77445788D01*
X142981338Y-77449694D01*
X142954751Y-77451000D01*
X141595249Y-77451000D01*
X141568662Y-77449694D01*
X141542331Y-77445788D01*
X141516510Y-77439320D01*
X141491447Y-77430352D01*
X141467383Y-77418971D01*
X141444551Y-77405286D01*
X141423170Y-77389429D01*
X141403447Y-77371553D01*
X141385571Y-77351830D01*
X141369714Y-77330449D01*
X141356029Y-77307617D01*
X141344648Y-77283553D01*
X141335680Y-77258490D01*
X141329212Y-77232669D01*
X141325306Y-77206338D01*
X141324000Y-77179751D01*
X141324000Y-76420249D01*
X141325306Y-76393662D01*
X141329212Y-76367331D01*
X141335680Y-76341510D01*
X141344648Y-76316447D01*
X141356029Y-76292383D01*
X141369714Y-76269551D01*
X141385571Y-76248170D01*
X141403447Y-76228447D01*
X141423170Y-76210571D01*
X141444551Y-76194714D01*
X141467383Y-76181029D01*
X141491447Y-76169648D01*
X141516510Y-76160680D01*
X141542331Y-76154212D01*
X141568662Y-76150306D01*
X141595249Y-76149000D01*
X142954751Y-76149000D01*
X142981338Y-76150306D01*
G37*
G36*
X139067702Y-72149845D02*
G01*
X139084738Y-72152372D01*
X139101445Y-72156557D01*
X139117661Y-72162359D01*
X139133230Y-72169723D01*
X139148003Y-72178577D01*
X139161836Y-72188837D01*
X139174597Y-72200403D01*
X139186163Y-72213164D01*
X139196423Y-72226997D01*
X139205277Y-72241770D01*
X139212641Y-72257339D01*
X139218443Y-72273555D01*
X139222628Y-72290262D01*
X139225155Y-72307298D01*
X139226000Y-72324500D01*
X139226000Y-72675500D01*
X139225155Y-72692702D01*
X139222628Y-72709738D01*
X139218443Y-72726445D01*
X139212641Y-72742661D01*
X139205277Y-72758230D01*
X139196423Y-72773003D01*
X139186163Y-72786836D01*
X139174597Y-72799597D01*
X139161836Y-72811163D01*
X139148003Y-72821423D01*
X139133230Y-72830277D01*
X139117661Y-72837641D01*
X139101445Y-72843443D01*
X139084738Y-72847628D01*
X139067702Y-72850155D01*
X139050500Y-72851000D01*
X137749500Y-72851000D01*
X137732298Y-72850155D01*
X137715262Y-72847628D01*
X137698555Y-72843443D01*
X137682339Y-72837641D01*
X137666770Y-72830277D01*
X137651997Y-72821423D01*
X137638164Y-72811163D01*
X137625403Y-72799597D01*
X137613837Y-72786836D01*
X137603577Y-72773003D01*
X137594723Y-72758230D01*
X137587359Y-72742661D01*
X137581557Y-72726445D01*
X137577372Y-72709738D01*
X137574845Y-72692702D01*
X137574000Y-72675500D01*
X137574000Y-72324500D01*
X137574845Y-72307298D01*
X137577372Y-72290262D01*
X137581557Y-72273555D01*
X137587359Y-72257339D01*
X137594723Y-72241770D01*
X137603577Y-72226997D01*
X137613837Y-72213164D01*
X137625403Y-72200403D01*
X137638164Y-72188837D01*
X137651997Y-72178577D01*
X137666770Y-72169723D01*
X137682339Y-72162359D01*
X137698555Y-72156557D01*
X137715262Y-72152372D01*
X137732298Y-72149845D01*
X137749500Y-72149000D01*
X139050500Y-72149000D01*
X139067702Y-72149845D01*
G37*
G36*
X139067702Y-73149845D02*
G01*
X139084738Y-73152372D01*
X139101445Y-73156557D01*
X139117661Y-73162359D01*
X139133230Y-73169723D01*
X139148003Y-73178577D01*
X139161836Y-73188837D01*
X139174597Y-73200403D01*
X139186163Y-73213164D01*
X139196423Y-73226997D01*
X139205277Y-73241770D01*
X139212641Y-73257339D01*
X139218443Y-73273555D01*
X139222628Y-73290262D01*
X139225155Y-73307298D01*
X139226000Y-73324500D01*
X139226000Y-73675500D01*
X139225155Y-73692702D01*
X139222628Y-73709738D01*
X139218443Y-73726445D01*
X139212641Y-73742661D01*
X139205277Y-73758230D01*
X139196423Y-73773003D01*
X139186163Y-73786836D01*
X139174597Y-73799597D01*
X139161836Y-73811163D01*
X139148003Y-73821423D01*
X139133230Y-73830277D01*
X139117661Y-73837641D01*
X139101445Y-73843443D01*
X139084738Y-73847628D01*
X139067702Y-73850155D01*
X139050500Y-73851000D01*
X137749500Y-73851000D01*
X137732298Y-73850155D01*
X137715262Y-73847628D01*
X137698555Y-73843443D01*
X137682339Y-73837641D01*
X137666770Y-73830277D01*
X137651997Y-73821423D01*
X137638164Y-73811163D01*
X137625403Y-73799597D01*
X137613837Y-73786836D01*
X137603577Y-73773003D01*
X137594723Y-73758230D01*
X137587359Y-73742661D01*
X137581557Y-73726445D01*
X137577372Y-73709738D01*
X137574845Y-73692702D01*
X137574000Y-73675500D01*
X137574000Y-73324500D01*
X137574845Y-73307298D01*
X137577372Y-73290262D01*
X137581557Y-73273555D01*
X137587359Y-73257339D01*
X137594723Y-73241770D01*
X137603577Y-73226997D01*
X137613837Y-73213164D01*
X137625403Y-73200403D01*
X137638164Y-73188837D01*
X137651997Y-73178577D01*
X137666770Y-73169723D01*
X137682339Y-73162359D01*
X137698555Y-73156557D01*
X137715262Y-73152372D01*
X137732298Y-73149845D01*
X137749500Y-73149000D01*
X139050500Y-73149000D01*
X139067702Y-73149845D01*
G37*
G36*
X139067702Y-74149845D02*
G01*
X139084738Y-74152372D01*
X139101445Y-74156557D01*
X139117661Y-74162359D01*
X139133230Y-74169723D01*
X139148003Y-74178577D01*
X139161836Y-74188837D01*
X139174597Y-74200403D01*
X139186163Y-74213164D01*
X139196423Y-74226997D01*
X139205277Y-74241770D01*
X139212641Y-74257339D01*
X139218443Y-74273555D01*
X139222628Y-74290262D01*
X139225155Y-74307298D01*
X139226000Y-74324500D01*
X139226000Y-74675500D01*
X139225155Y-74692702D01*
X139222628Y-74709738D01*
X139218443Y-74726445D01*
X139212641Y-74742661D01*
X139205277Y-74758230D01*
X139196423Y-74773003D01*
X139186163Y-74786836D01*
X139174597Y-74799597D01*
X139161836Y-74811163D01*
X139148003Y-74821423D01*
X139133230Y-74830277D01*
X139117661Y-74837641D01*
X139101445Y-74843443D01*
X139084738Y-74847628D01*
X139067702Y-74850155D01*
X139050500Y-74851000D01*
X137749500Y-74851000D01*
X137732298Y-74850155D01*
X137715262Y-74847628D01*
X137698555Y-74843443D01*
X137682339Y-74837641D01*
X137666770Y-74830277D01*
X137651997Y-74821423D01*
X137638164Y-74811163D01*
X137625403Y-74799597D01*
X137613837Y-74786836D01*
X137603577Y-74773003D01*
X137594723Y-74758230D01*
X137587359Y-74742661D01*
X137581557Y-74726445D01*
X137577372Y-74709738D01*
X137574845Y-74692702D01*
X137574000Y-74675500D01*
X137574000Y-74324500D01*
X137574845Y-74307298D01*
X137577372Y-74290262D01*
X137581557Y-74273555D01*
X137587359Y-74257339D01*
X137594723Y-74241770D01*
X137603577Y-74226997D01*
X137613837Y-74213164D01*
X137625403Y-74200403D01*
X137638164Y-74188837D01*
X137651997Y-74178577D01*
X137666770Y-74169723D01*
X137682339Y-74162359D01*
X137698555Y-74156557D01*
X137715262Y-74152372D01*
X137732298Y-74149845D01*
X137749500Y-74149000D01*
X139050500Y-74149000D01*
X139067702Y-74149845D01*
G37*
G36*
X139067702Y-75149845D02*
G01*
X139084738Y-75152372D01*
X139101445Y-75156557D01*
X139117661Y-75162359D01*
X139133230Y-75169723D01*
X139148003Y-75178577D01*
X139161836Y-75188837D01*
X139174597Y-75200403D01*
X139186163Y-75213164D01*
X139196423Y-75226997D01*
X139205277Y-75241770D01*
X139212641Y-75257339D01*
X139218443Y-75273555D01*
X139222628Y-75290262D01*
X139225155Y-75307298D01*
X139226000Y-75324500D01*
X139226000Y-75675500D01*
X139225155Y-75692702D01*
X139222628Y-75709738D01*
X139218443Y-75726445D01*
X139212641Y-75742661D01*
X139205277Y-75758230D01*
X139196423Y-75773003D01*
X139186163Y-75786836D01*
X139174597Y-75799597D01*
X139161836Y-75811163D01*
X139148003Y-75821423D01*
X139133230Y-75830277D01*
X139117661Y-75837641D01*
X139101445Y-75843443D01*
X139084738Y-75847628D01*
X139067702Y-75850155D01*
X139050500Y-75851000D01*
X137749500Y-75851000D01*
X137732298Y-75850155D01*
X137715262Y-75847628D01*
X137698555Y-75843443D01*
X137682339Y-75837641D01*
X137666770Y-75830277D01*
X137651997Y-75821423D01*
X137638164Y-75811163D01*
X137625403Y-75799597D01*
X137613837Y-75786836D01*
X137603577Y-75773003D01*
X137594723Y-75758230D01*
X137587359Y-75742661D01*
X137581557Y-75726445D01*
X137577372Y-75709738D01*
X137574845Y-75692702D01*
X137574000Y-75675500D01*
X137574000Y-75324500D01*
X137574845Y-75307298D01*
X137577372Y-75290262D01*
X137581557Y-75273555D01*
X137587359Y-75257339D01*
X137594723Y-75241770D01*
X137603577Y-75226997D01*
X137613837Y-75213164D01*
X137625403Y-75200403D01*
X137638164Y-75188837D01*
X137651997Y-75178577D01*
X137666770Y-75169723D01*
X137682339Y-75162359D01*
X137698555Y-75156557D01*
X137715262Y-75152372D01*
X137732298Y-75149845D01*
X137749500Y-75149000D01*
X139050500Y-75149000D01*
X139067702Y-75149845D01*
G37*
G36*
X129113779Y-76575266D02*
G01*
X129139309Y-76579053D01*
X129164345Y-76585325D01*
X129188646Y-76594020D01*
X129211977Y-76605055D01*
X129234115Y-76618323D01*
X129254845Y-76633698D01*
X129273969Y-76651031D01*
X129291302Y-76670155D01*
X129306677Y-76690885D01*
X129319945Y-76713023D01*
X129330980Y-76736354D01*
X129339675Y-76760655D01*
X129345947Y-76785691D01*
X129349734Y-76811221D01*
X129351000Y-76837000D01*
X129351000Y-77363000D01*
X129349734Y-77388779D01*
X129345947Y-77414309D01*
X129339675Y-77439345D01*
X129330980Y-77463646D01*
X129319945Y-77486977D01*
X129306677Y-77509115D01*
X129291302Y-77529845D01*
X129273969Y-77548969D01*
X129254845Y-77566302D01*
X129234115Y-77581677D01*
X129211977Y-77594945D01*
X129188646Y-77605980D01*
X129164345Y-77614675D01*
X129139309Y-77620947D01*
X129113779Y-77624734D01*
X129088000Y-77626000D01*
X128462000Y-77626000D01*
X128436221Y-77624734D01*
X128410691Y-77620947D01*
X128385655Y-77614675D01*
X128361354Y-77605980D01*
X128338023Y-77594945D01*
X128315885Y-77581677D01*
X128295155Y-77566302D01*
X128276031Y-77548969D01*
X128258698Y-77529845D01*
X128243323Y-77509115D01*
X128230055Y-77486977D01*
X128219020Y-77463646D01*
X128210325Y-77439345D01*
X128204053Y-77414309D01*
X128200266Y-77388779D01*
X128199000Y-77363000D01*
X128199000Y-76837000D01*
X128200266Y-76811221D01*
X128204053Y-76785691D01*
X128210325Y-76760655D01*
X128219020Y-76736354D01*
X128230055Y-76713023D01*
X128243323Y-76690885D01*
X128258698Y-76670155D01*
X128276031Y-76651031D01*
X128295155Y-76633698D01*
X128315885Y-76618323D01*
X128338023Y-76605055D01*
X128361354Y-76594020D01*
X128385655Y-76585325D01*
X128410691Y-76579053D01*
X128436221Y-76575266D01*
X128462000Y-76574000D01*
X129088000Y-76574000D01*
X129113779Y-76575266D01*
G37*
G36*
X127363779Y-76575266D02*
G01*
X127389309Y-76579053D01*
X127414345Y-76585325D01*
X127438646Y-76594020D01*
X127461977Y-76605055D01*
X127484115Y-76618323D01*
X127504845Y-76633698D01*
X127523969Y-76651031D01*
X127541302Y-76670155D01*
X127556677Y-76690885D01*
X127569945Y-76713023D01*
X127580980Y-76736354D01*
X127589675Y-76760655D01*
X127595947Y-76785691D01*
X127599734Y-76811221D01*
X127601000Y-76837000D01*
X127601000Y-77363000D01*
X127599734Y-77388779D01*
X127595947Y-77414309D01*
X127589675Y-77439345D01*
X127580980Y-77463646D01*
X127569945Y-77486977D01*
X127556677Y-77509115D01*
X127541302Y-77529845D01*
X127523969Y-77548969D01*
X127504845Y-77566302D01*
X127484115Y-77581677D01*
X127461977Y-77594945D01*
X127438646Y-77605980D01*
X127414345Y-77614675D01*
X127389309Y-77620947D01*
X127363779Y-77624734D01*
X127338000Y-77626000D01*
X126712000Y-77626000D01*
X126686221Y-77624734D01*
X126660691Y-77620947D01*
X126635655Y-77614675D01*
X126611354Y-77605980D01*
X126588023Y-77594945D01*
X126565885Y-77581677D01*
X126545155Y-77566302D01*
X126526031Y-77548969D01*
X126508698Y-77529845D01*
X126493323Y-77509115D01*
X126480055Y-77486977D01*
X126469020Y-77463646D01*
X126460325Y-77439345D01*
X126454053Y-77414309D01*
X126450266Y-77388779D01*
X126449000Y-77363000D01*
X126449000Y-76837000D01*
X126450266Y-76811221D01*
X126454053Y-76785691D01*
X126460325Y-76760655D01*
X126469020Y-76736354D01*
X126480055Y-76713023D01*
X126493323Y-76690885D01*
X126508698Y-76670155D01*
X126526031Y-76651031D01*
X126545155Y-76633698D01*
X126565885Y-76618323D01*
X126588023Y-76605055D01*
X126611354Y-76594020D01*
X126635655Y-76585325D01*
X126660691Y-76579053D01*
X126686221Y-76575266D01*
X126712000Y-76574000D01*
X127338000Y-76574000D01*
X127363779Y-76575266D01*
G37*
G36*
X136013779Y-76475266D02*
G01*
X136039309Y-76479053D01*
X136064345Y-76485325D01*
X136088646Y-76494020D01*
X136111977Y-76505055D01*
X136134115Y-76518323D01*
X136154845Y-76533698D01*
X136173969Y-76551031D01*
X136191302Y-76570155D01*
X136206677Y-76590885D01*
X136219945Y-76613023D01*
X136230980Y-76636354D01*
X136239675Y-76660655D01*
X136245947Y-76685691D01*
X136249734Y-76711221D01*
X136251000Y-76737000D01*
X136251000Y-77263000D01*
X136249734Y-77288779D01*
X136245947Y-77314309D01*
X136239675Y-77339345D01*
X136230980Y-77363646D01*
X136219945Y-77386977D01*
X136206677Y-77409115D01*
X136191302Y-77429845D01*
X136173969Y-77448969D01*
X136154845Y-77466302D01*
X136134115Y-77481677D01*
X136111977Y-77494945D01*
X136088646Y-77505980D01*
X136064345Y-77514675D01*
X136039309Y-77520947D01*
X136013779Y-77524734D01*
X135988000Y-77526000D01*
X135362000Y-77526000D01*
X135336221Y-77524734D01*
X135310691Y-77520947D01*
X135285655Y-77514675D01*
X135261354Y-77505980D01*
X135238023Y-77494945D01*
X135215885Y-77481677D01*
X135195155Y-77466302D01*
X135176031Y-77448969D01*
X135158698Y-77429845D01*
X135143323Y-77409115D01*
X135130055Y-77386977D01*
X135119020Y-77363646D01*
X135110325Y-77339345D01*
X135104053Y-77314309D01*
X135100266Y-77288779D01*
X135099000Y-77263000D01*
X135099000Y-76737000D01*
X135100266Y-76711221D01*
X135104053Y-76685691D01*
X135110325Y-76660655D01*
X135119020Y-76636354D01*
X135130055Y-76613023D01*
X135143323Y-76590885D01*
X135158698Y-76570155D01*
X135176031Y-76551031D01*
X135195155Y-76533698D01*
X135215885Y-76518323D01*
X135238023Y-76505055D01*
X135261354Y-76494020D01*
X135285655Y-76485325D01*
X135310691Y-76479053D01*
X135336221Y-76475266D01*
X135362000Y-76474000D01*
X135988000Y-76474000D01*
X136013779Y-76475266D01*
G37*
G36*
X134263779Y-76475266D02*
G01*
X134289309Y-76479053D01*
X134314345Y-76485325D01*
X134338646Y-76494020D01*
X134361977Y-76505055D01*
X134384115Y-76518323D01*
X134404845Y-76533698D01*
X134423969Y-76551031D01*
X134441302Y-76570155D01*
X134456677Y-76590885D01*
X134469945Y-76613023D01*
X134480980Y-76636354D01*
X134489675Y-76660655D01*
X134495947Y-76685691D01*
X134499734Y-76711221D01*
X134501000Y-76737000D01*
X134501000Y-77263000D01*
X134499734Y-77288779D01*
X134495947Y-77314309D01*
X134489675Y-77339345D01*
X134480980Y-77363646D01*
X134469945Y-77386977D01*
X134456677Y-77409115D01*
X134441302Y-77429845D01*
X134423969Y-77448969D01*
X134404845Y-77466302D01*
X134384115Y-77481677D01*
X134361977Y-77494945D01*
X134338646Y-77505980D01*
X134314345Y-77514675D01*
X134289309Y-77520947D01*
X134263779Y-77524734D01*
X134238000Y-77526000D01*
X133612000Y-77526000D01*
X133586221Y-77524734D01*
X133560691Y-77520947D01*
X133535655Y-77514675D01*
X133511354Y-77505980D01*
X133488023Y-77494945D01*
X133465885Y-77481677D01*
X133445155Y-77466302D01*
X133426031Y-77448969D01*
X133408698Y-77429845D01*
X133393323Y-77409115D01*
X133380055Y-77386977D01*
X133369020Y-77363646D01*
X133360325Y-77339345D01*
X133354053Y-77314309D01*
X133350266Y-77288779D01*
X133349000Y-77263000D01*
X133349000Y-76737000D01*
X133350266Y-76711221D01*
X133354053Y-76685691D01*
X133360325Y-76660655D01*
X133369020Y-76636354D01*
X133380055Y-76613023D01*
X133393323Y-76590885D01*
X133408698Y-76570155D01*
X133426031Y-76551031D01*
X133445155Y-76533698D01*
X133465885Y-76518323D01*
X133488023Y-76505055D01*
X133511354Y-76494020D01*
X133535655Y-76485325D01*
X133560691Y-76479053D01*
X133586221Y-76475266D01*
X133612000Y-76474000D01*
X134238000Y-76474000D01*
X134263779Y-76475266D01*
G37*
G36*
X128913779Y-67175266D02*
G01*
X128939309Y-67179053D01*
X128964345Y-67185325D01*
X128988646Y-67194020D01*
X129011977Y-67205055D01*
X129034115Y-67218323D01*
X129054845Y-67233698D01*
X129073969Y-67251031D01*
X129091302Y-67270155D01*
X129106677Y-67290885D01*
X129119945Y-67313023D01*
X129130980Y-67336354D01*
X129139675Y-67360655D01*
X129145947Y-67385691D01*
X129149734Y-67411221D01*
X129151000Y-67437000D01*
X129151000Y-67963000D01*
X129149734Y-67988779D01*
X129145947Y-68014309D01*
X129139675Y-68039345D01*
X129130980Y-68063646D01*
X129119945Y-68086977D01*
X129106677Y-68109115D01*
X129091302Y-68129845D01*
X129073969Y-68148969D01*
X129054845Y-68166302D01*
X129034115Y-68181677D01*
X129011977Y-68194945D01*
X128988646Y-68205980D01*
X128964345Y-68214675D01*
X128939309Y-68220947D01*
X128913779Y-68224734D01*
X128888000Y-68226000D01*
X128262000Y-68226000D01*
X128236221Y-68224734D01*
X128210691Y-68220947D01*
X128185655Y-68214675D01*
X128161354Y-68205980D01*
X128138023Y-68194945D01*
X128115885Y-68181677D01*
X128095155Y-68166302D01*
X128076031Y-68148969D01*
X128058698Y-68129845D01*
X128043323Y-68109115D01*
X128030055Y-68086977D01*
X128019020Y-68063646D01*
X128010325Y-68039345D01*
X128004053Y-68014309D01*
X128000266Y-67988779D01*
X127999000Y-67963000D01*
X127999000Y-67437000D01*
X128000266Y-67411221D01*
X128004053Y-67385691D01*
X128010325Y-67360655D01*
X128019020Y-67336354D01*
X128030055Y-67313023D01*
X128043323Y-67290885D01*
X128058698Y-67270155D01*
X128076031Y-67251031D01*
X128095155Y-67233698D01*
X128115885Y-67218323D01*
X128138023Y-67205055D01*
X128161354Y-67194020D01*
X128185655Y-67185325D01*
X128210691Y-67179053D01*
X128236221Y-67175266D01*
X128262000Y-67174000D01*
X128888000Y-67174000D01*
X128913779Y-67175266D01*
G37*
G36*
X127163779Y-67175266D02*
G01*
X127189309Y-67179053D01*
X127214345Y-67185325D01*
X127238646Y-67194020D01*
X127261977Y-67205055D01*
X127284115Y-67218323D01*
X127304845Y-67233698D01*
X127323969Y-67251031D01*
X127341302Y-67270155D01*
X127356677Y-67290885D01*
X127369945Y-67313023D01*
X127380980Y-67336354D01*
X127389675Y-67360655D01*
X127395947Y-67385691D01*
X127399734Y-67411221D01*
X127401000Y-67437000D01*
X127401000Y-67963000D01*
X127399734Y-67988779D01*
X127395947Y-68014309D01*
X127389675Y-68039345D01*
X127380980Y-68063646D01*
X127369945Y-68086977D01*
X127356677Y-68109115D01*
X127341302Y-68129845D01*
X127323969Y-68148969D01*
X127304845Y-68166302D01*
X127284115Y-68181677D01*
X127261977Y-68194945D01*
X127238646Y-68205980D01*
X127214345Y-68214675D01*
X127189309Y-68220947D01*
X127163779Y-68224734D01*
X127138000Y-68226000D01*
X126512000Y-68226000D01*
X126486221Y-68224734D01*
X126460691Y-68220947D01*
X126435655Y-68214675D01*
X126411354Y-68205980D01*
X126388023Y-68194945D01*
X126365885Y-68181677D01*
X126345155Y-68166302D01*
X126326031Y-68148969D01*
X126308698Y-68129845D01*
X126293323Y-68109115D01*
X126280055Y-68086977D01*
X126269020Y-68063646D01*
X126260325Y-68039345D01*
X126254053Y-68014309D01*
X126250266Y-67988779D01*
X126249000Y-67963000D01*
X126249000Y-67437000D01*
X126250266Y-67411221D01*
X126254053Y-67385691D01*
X126260325Y-67360655D01*
X126269020Y-67336354D01*
X126280055Y-67313023D01*
X126293323Y-67290885D01*
X126308698Y-67270155D01*
X126326031Y-67251031D01*
X126345155Y-67233698D01*
X126365885Y-67218323D01*
X126388023Y-67205055D01*
X126411354Y-67194020D01*
X126435655Y-67185325D01*
X126460691Y-67179053D01*
X126486221Y-67175266D01*
X126512000Y-67174000D01*
X127138000Y-67174000D01*
X127163779Y-67175266D01*
G37*
G36*
X135113779Y-67175266D02*
G01*
X135139309Y-67179053D01*
X135164345Y-67185325D01*
X135188646Y-67194020D01*
X135211977Y-67205055D01*
X135234115Y-67218323D01*
X135254845Y-67233698D01*
X135273969Y-67251031D01*
X135291302Y-67270155D01*
X135306677Y-67290885D01*
X135319945Y-67313023D01*
X135330980Y-67336354D01*
X135339675Y-67360655D01*
X135345947Y-67385691D01*
X135349734Y-67411221D01*
X135351000Y-67437000D01*
X135351000Y-67963000D01*
X135349734Y-67988779D01*
X135345947Y-68014309D01*
X135339675Y-68039345D01*
X135330980Y-68063646D01*
X135319945Y-68086977D01*
X135306677Y-68109115D01*
X135291302Y-68129845D01*
X135273969Y-68148969D01*
X135254845Y-68166302D01*
X135234115Y-68181677D01*
X135211977Y-68194945D01*
X135188646Y-68205980D01*
X135164345Y-68214675D01*
X135139309Y-68220947D01*
X135113779Y-68224734D01*
X135088000Y-68226000D01*
X134462000Y-68226000D01*
X134436221Y-68224734D01*
X134410691Y-68220947D01*
X134385655Y-68214675D01*
X134361354Y-68205980D01*
X134338023Y-68194945D01*
X134315885Y-68181677D01*
X134295155Y-68166302D01*
X134276031Y-68148969D01*
X134258698Y-68129845D01*
X134243323Y-68109115D01*
X134230055Y-68086977D01*
X134219020Y-68063646D01*
X134210325Y-68039345D01*
X134204053Y-68014309D01*
X134200266Y-67988779D01*
X134199000Y-67963000D01*
X134199000Y-67437000D01*
X134200266Y-67411221D01*
X134204053Y-67385691D01*
X134210325Y-67360655D01*
X134219020Y-67336354D01*
X134230055Y-67313023D01*
X134243323Y-67290885D01*
X134258698Y-67270155D01*
X134276031Y-67251031D01*
X134295155Y-67233698D01*
X134315885Y-67218323D01*
X134338023Y-67205055D01*
X134361354Y-67194020D01*
X134385655Y-67185325D01*
X134410691Y-67179053D01*
X134436221Y-67175266D01*
X134462000Y-67174000D01*
X135088000Y-67174000D01*
X135113779Y-67175266D01*
G37*
G36*
X133363779Y-67175266D02*
G01*
X133389309Y-67179053D01*
X133414345Y-67185325D01*
X133438646Y-67194020D01*
X133461977Y-67205055D01*
X133484115Y-67218323D01*
X133504845Y-67233698D01*
X133523969Y-67251031D01*
X133541302Y-67270155D01*
X133556677Y-67290885D01*
X133569945Y-67313023D01*
X133580980Y-67336354D01*
X133589675Y-67360655D01*
X133595947Y-67385691D01*
X133599734Y-67411221D01*
X133601000Y-67437000D01*
X133601000Y-67963000D01*
X133599734Y-67988779D01*
X133595947Y-68014309D01*
X133589675Y-68039345D01*
X133580980Y-68063646D01*
X133569945Y-68086977D01*
X133556677Y-68109115D01*
X133541302Y-68129845D01*
X133523969Y-68148969D01*
X133504845Y-68166302D01*
X133484115Y-68181677D01*
X133461977Y-68194945D01*
X133438646Y-68205980D01*
X133414345Y-68214675D01*
X133389309Y-68220947D01*
X133363779Y-68224734D01*
X133338000Y-68226000D01*
X132712000Y-68226000D01*
X132686221Y-68224734D01*
X132660691Y-68220947D01*
X132635655Y-68214675D01*
X132611354Y-68205980D01*
X132588023Y-68194945D01*
X132565885Y-68181677D01*
X132545155Y-68166302D01*
X132526031Y-68148969D01*
X132508698Y-68129845D01*
X132493323Y-68109115D01*
X132480055Y-68086977D01*
X132469020Y-68063646D01*
X132460325Y-68039345D01*
X132454053Y-68014309D01*
X132450266Y-67988779D01*
X132449000Y-67963000D01*
X132449000Y-67437000D01*
X132450266Y-67411221D01*
X132454053Y-67385691D01*
X132460325Y-67360655D01*
X132469020Y-67336354D01*
X132480055Y-67313023D01*
X132493323Y-67290885D01*
X132508698Y-67270155D01*
X132526031Y-67251031D01*
X132545155Y-67233698D01*
X132565885Y-67218323D01*
X132588023Y-67205055D01*
X132611354Y-67194020D01*
X132635655Y-67185325D01*
X132660691Y-67179053D01*
X132686221Y-67175266D01*
X132712000Y-67174000D01*
X133338000Y-67174000D01*
X133363779Y-67175266D01*
G37*
D14*
X120660000Y-87010000D03*
X122560000Y-87010000D03*
X122560000Y-89210000D03*
X121610000Y-89210000D03*
X120660000Y-89210000D03*
D12*
G36*
X129288779Y-86950266D02*
G01*
X129314309Y-86954053D01*
X129339345Y-86960325D01*
X129363646Y-86969020D01*
X129386977Y-86980055D01*
X129409115Y-86993323D01*
X129429845Y-87008698D01*
X129448969Y-87026031D01*
X129466302Y-87045155D01*
X129481677Y-87065885D01*
X129494945Y-87088023D01*
X129505980Y-87111354D01*
X129514675Y-87135655D01*
X129520947Y-87160691D01*
X129524734Y-87186221D01*
X129526000Y-87212000D01*
X129526000Y-87838000D01*
X129524734Y-87863779D01*
X129520947Y-87889309D01*
X129514675Y-87914345D01*
X129505980Y-87938646D01*
X129494945Y-87961977D01*
X129481677Y-87984115D01*
X129466302Y-88004845D01*
X129448969Y-88023969D01*
X129429845Y-88041302D01*
X129409115Y-88056677D01*
X129386977Y-88069945D01*
X129363646Y-88080980D01*
X129339345Y-88089675D01*
X129314309Y-88095947D01*
X129288779Y-88099734D01*
X129263000Y-88101000D01*
X128737000Y-88101000D01*
X128711221Y-88099734D01*
X128685691Y-88095947D01*
X128660655Y-88089675D01*
X128636354Y-88080980D01*
X128613023Y-88069945D01*
X128590885Y-88056677D01*
X128570155Y-88041302D01*
X128551031Y-88023969D01*
X128533698Y-88004845D01*
X128518323Y-87984115D01*
X128505055Y-87961977D01*
X128494020Y-87938646D01*
X128485325Y-87914345D01*
X128479053Y-87889309D01*
X128475266Y-87863779D01*
X128474000Y-87838000D01*
X128474000Y-87212000D01*
X128475266Y-87186221D01*
X128479053Y-87160691D01*
X128485325Y-87135655D01*
X128494020Y-87111354D01*
X128505055Y-87088023D01*
X128518323Y-87065885D01*
X128533698Y-87045155D01*
X128551031Y-87026031D01*
X128570155Y-87008698D01*
X128590885Y-86993323D01*
X128613023Y-86980055D01*
X128636354Y-86969020D01*
X128660655Y-86960325D01*
X128685691Y-86954053D01*
X128711221Y-86950266D01*
X128737000Y-86949000D01*
X129263000Y-86949000D01*
X129288779Y-86950266D01*
G37*
G36*
X129288779Y-88700266D02*
G01*
X129314309Y-88704053D01*
X129339345Y-88710325D01*
X129363646Y-88719020D01*
X129386977Y-88730055D01*
X129409115Y-88743323D01*
X129429845Y-88758698D01*
X129448969Y-88776031D01*
X129466302Y-88795155D01*
X129481677Y-88815885D01*
X129494945Y-88838023D01*
X129505980Y-88861354D01*
X129514675Y-88885655D01*
X129520947Y-88910691D01*
X129524734Y-88936221D01*
X129526000Y-88962000D01*
X129526000Y-89588000D01*
X129524734Y-89613779D01*
X129520947Y-89639309D01*
X129514675Y-89664345D01*
X129505980Y-89688646D01*
X129494945Y-89711977D01*
X129481677Y-89734115D01*
X129466302Y-89754845D01*
X129448969Y-89773969D01*
X129429845Y-89791302D01*
X129409115Y-89806677D01*
X129386977Y-89819945D01*
X129363646Y-89830980D01*
X129339345Y-89839675D01*
X129314309Y-89845947D01*
X129288779Y-89849734D01*
X129263000Y-89851000D01*
X128737000Y-89851000D01*
X128711221Y-89849734D01*
X128685691Y-89845947D01*
X128660655Y-89839675D01*
X128636354Y-89830980D01*
X128613023Y-89819945D01*
X128590885Y-89806677D01*
X128570155Y-89791302D01*
X128551031Y-89773969D01*
X128533698Y-89754845D01*
X128518323Y-89734115D01*
X128505055Y-89711977D01*
X128494020Y-89688646D01*
X128485325Y-89664345D01*
X128479053Y-89639309D01*
X128475266Y-89613779D01*
X128474000Y-89588000D01*
X128474000Y-88962000D01*
X128475266Y-88936221D01*
X128479053Y-88910691D01*
X128485325Y-88885655D01*
X128494020Y-88861354D01*
X128505055Y-88838023D01*
X128518323Y-88815885D01*
X128533698Y-88795155D01*
X128551031Y-88776031D01*
X128570155Y-88758698D01*
X128590885Y-88743323D01*
X128613023Y-88730055D01*
X128636354Y-88719020D01*
X128660655Y-88710325D01*
X128685691Y-88704053D01*
X128711221Y-88700266D01*
X128737000Y-88699000D01*
X129263000Y-88699000D01*
X129288779Y-88700266D01*
G37*
D15*
X127000000Y-88400000D03*
X125000000Y-89350000D03*
X125000000Y-87450000D03*
D16*
X138000000Y-81400000D03*
D17*
X138000000Y-83940000D03*
X138000000Y-86480000D03*
X138000000Y-89020000D03*
D12*
G36*
X132634363Y-82125290D02*
G01*
X132660369Y-82129148D01*
X132685871Y-82135535D01*
X132710624Y-82144392D01*
X132734390Y-82155633D01*
X132756939Y-82169148D01*
X132778056Y-82184809D01*
X132797535Y-82202465D01*
X132815191Y-82221944D01*
X132830852Y-82243061D01*
X132844367Y-82265610D01*
X132855608Y-82289376D01*
X132864465Y-82314129D01*
X132870852Y-82339631D01*
X132874710Y-82365637D01*
X132876000Y-82391895D01*
X132876000Y-84608105D01*
X132874710Y-84634363D01*
X132870852Y-84660369D01*
X132864465Y-84685871D01*
X132855608Y-84710624D01*
X132844367Y-84734390D01*
X132830852Y-84756939D01*
X132815191Y-84778056D01*
X132797535Y-84797535D01*
X132778056Y-84815191D01*
X132756939Y-84830852D01*
X132734390Y-84844367D01*
X132710624Y-84855608D01*
X132685871Y-84864465D01*
X132660369Y-84870852D01*
X132634363Y-84874710D01*
X132608105Y-84876000D01*
X131616895Y-84876000D01*
X131590637Y-84874710D01*
X131564631Y-84870852D01*
X131539129Y-84864465D01*
X131514376Y-84855608D01*
X131490610Y-84844367D01*
X131468061Y-84830852D01*
X131446944Y-84815191D01*
X131427465Y-84797535D01*
X131409809Y-84778056D01*
X131394148Y-84756939D01*
X131380633Y-84734390D01*
X131369392Y-84710624D01*
X131360535Y-84685871D01*
X131354148Y-84660369D01*
X131350290Y-84634363D01*
X131349000Y-84608105D01*
X131349000Y-82391895D01*
X131350290Y-82365637D01*
X131354148Y-82339631D01*
X131360535Y-82314129D01*
X131369392Y-82289376D01*
X131380633Y-82265610D01*
X131394148Y-82243061D01*
X131409809Y-82221944D01*
X131427465Y-82202465D01*
X131446944Y-82184809D01*
X131468061Y-82169148D01*
X131490610Y-82155633D01*
X131514376Y-82144392D01*
X131539129Y-82135535D01*
X131564631Y-82129148D01*
X131590637Y-82125290D01*
X131616895Y-82124000D01*
X132608105Y-82124000D01*
X132634363Y-82125290D01*
G37*
G36*
X135609363Y-82125290D02*
G01*
X135635369Y-82129148D01*
X135660871Y-82135535D01*
X135685624Y-82144392D01*
X135709390Y-82155633D01*
X135731939Y-82169148D01*
X135753056Y-82184809D01*
X135772535Y-82202465D01*
X135790191Y-82221944D01*
X135805852Y-82243061D01*
X135819367Y-82265610D01*
X135830608Y-82289376D01*
X135839465Y-82314129D01*
X135845852Y-82339631D01*
X135849710Y-82365637D01*
X135851000Y-82391895D01*
X135851000Y-84608105D01*
X135849710Y-84634363D01*
X135845852Y-84660369D01*
X135839465Y-84685871D01*
X135830608Y-84710624D01*
X135819367Y-84734390D01*
X135805852Y-84756939D01*
X135790191Y-84778056D01*
X135772535Y-84797535D01*
X135753056Y-84815191D01*
X135731939Y-84830852D01*
X135709390Y-84844367D01*
X135685624Y-84855608D01*
X135660871Y-84864465D01*
X135635369Y-84870852D01*
X135609363Y-84874710D01*
X135583105Y-84876000D01*
X134591895Y-84876000D01*
X134565637Y-84874710D01*
X134539631Y-84870852D01*
X134514129Y-84864465D01*
X134489376Y-84855608D01*
X134465610Y-84844367D01*
X134443061Y-84830852D01*
X134421944Y-84815191D01*
X134402465Y-84797535D01*
X134384809Y-84778056D01*
X134369148Y-84756939D01*
X134355633Y-84734390D01*
X134344392Y-84710624D01*
X134335535Y-84685871D01*
X134329148Y-84660369D01*
X134325290Y-84634363D01*
X134324000Y-84608105D01*
X134324000Y-82391895D01*
X134325290Y-82365637D01*
X134329148Y-82339631D01*
X134335535Y-82314129D01*
X134344392Y-82289376D01*
X134355633Y-82265610D01*
X134369148Y-82243061D01*
X134384809Y-82221944D01*
X134402465Y-82202465D01*
X134421944Y-82184809D01*
X134443061Y-82169148D01*
X134465610Y-82155633D01*
X134489376Y-82144392D01*
X134514129Y-82135535D01*
X134539631Y-82129148D01*
X134565637Y-82125290D01*
X134591895Y-82124000D01*
X135583105Y-82124000D01*
X135609363Y-82125290D01*
G37*
G36*
X125343888Y-92400398D02*
G01*
X125325466Y-92400398D01*
X125320467Y-92400152D01*
X125271636Y-92395342D01*
X125266686Y-92394608D01*
X125218561Y-92385036D01*
X125213705Y-92383820D01*
X125166750Y-92369576D01*
X125162039Y-92367890D01*
X125116706Y-92349113D01*
X125112180Y-92346973D01*
X125068907Y-92323842D01*
X125064616Y-92321269D01*
X125023817Y-92294009D01*
X125019796Y-92291027D01*
X124981867Y-92259899D01*
X124978159Y-92256538D01*
X124943462Y-92221841D01*
X124940101Y-92218133D01*
X124908973Y-92180204D01*
X124905991Y-92176183D01*
X124878731Y-92135384D01*
X124876158Y-92131093D01*
X124853027Y-92087820D01*
X124850887Y-92083294D01*
X124832110Y-92037961D01*
X124830424Y-92033250D01*
X124816180Y-91986295D01*
X124814964Y-91981439D01*
X124805392Y-91933314D01*
X124804658Y-91928364D01*
X124799848Y-91879533D01*
X124799602Y-91874534D01*
X124799602Y-91856112D01*
X124799000Y-91850000D01*
X124799000Y-91350000D01*
X124799602Y-91343888D01*
X124799602Y-91325466D01*
X124799848Y-91320467D01*
X124804658Y-91271636D01*
X124805392Y-91266686D01*
X124814964Y-91218561D01*
X124816180Y-91213705D01*
X124830424Y-91166750D01*
X124832110Y-91162039D01*
X124850887Y-91116706D01*
X124853027Y-91112180D01*
X124876158Y-91068907D01*
X124878731Y-91064616D01*
X124905991Y-91023817D01*
X124908973Y-91019796D01*
X124940101Y-90981867D01*
X124943462Y-90978159D01*
X124978159Y-90943462D01*
X124981867Y-90940101D01*
X125019796Y-90908973D01*
X125023817Y-90905991D01*
X125064616Y-90878731D01*
X125068907Y-90876158D01*
X125112180Y-90853027D01*
X125116706Y-90850887D01*
X125162039Y-90832110D01*
X125166750Y-90830424D01*
X125213705Y-90816180D01*
X125218561Y-90814964D01*
X125266686Y-90805392D01*
X125271636Y-90804658D01*
X125320467Y-90799848D01*
X125325466Y-90799602D01*
X125343888Y-90799602D01*
X125350000Y-90799000D01*
X125850000Y-90799000D01*
X125859950Y-90799980D01*
X125869517Y-90802882D01*
X125878334Y-90807595D01*
X125886062Y-90813938D01*
X125892405Y-90821666D01*
X125897118Y-90830483D01*
X125900020Y-90840050D01*
X125901000Y-90850000D01*
X125901000Y-92350000D01*
X125900020Y-92359950D01*
X125897118Y-92369517D01*
X125892405Y-92378334D01*
X125886062Y-92386062D01*
X125878334Y-92392405D01*
X125869517Y-92397118D01*
X125859950Y-92400020D01*
X125850000Y-92401000D01*
X125350000Y-92401000D01*
X125343888Y-92400398D01*
G37*
G36*
X126140050Y-92400020D02*
G01*
X126130483Y-92397118D01*
X126121666Y-92392405D01*
X126113938Y-92386062D01*
X126107595Y-92378334D01*
X126102882Y-92369517D01*
X126099980Y-92359950D01*
X126099000Y-92350000D01*
X126099000Y-90850000D01*
X126099980Y-90840050D01*
X126102882Y-90830483D01*
X126107595Y-90821666D01*
X126113938Y-90813938D01*
X126121666Y-90807595D01*
X126130483Y-90802882D01*
X126140050Y-90799980D01*
X126150000Y-90799000D01*
X126650000Y-90799000D01*
X126656112Y-90799602D01*
X126674534Y-90799602D01*
X126679533Y-90799848D01*
X126728364Y-90804658D01*
X126733314Y-90805392D01*
X126781439Y-90814964D01*
X126786295Y-90816180D01*
X126833250Y-90830424D01*
X126837961Y-90832110D01*
X126883294Y-90850887D01*
X126887820Y-90853027D01*
X126931093Y-90876158D01*
X126935384Y-90878731D01*
X126976183Y-90905991D01*
X126980204Y-90908973D01*
X127018133Y-90940101D01*
X127021841Y-90943462D01*
X127056538Y-90978159D01*
X127059899Y-90981867D01*
X127091027Y-91019796D01*
X127094009Y-91023817D01*
X127121269Y-91064616D01*
X127123842Y-91068907D01*
X127146973Y-91112180D01*
X127149113Y-91116706D01*
X127167890Y-91162039D01*
X127169576Y-91166750D01*
X127183820Y-91213705D01*
X127185036Y-91218561D01*
X127194608Y-91266686D01*
X127195342Y-91271636D01*
X127200152Y-91320467D01*
X127200398Y-91325466D01*
X127200398Y-91343888D01*
X127201000Y-91350000D01*
X127201000Y-91850000D01*
X127200398Y-91856112D01*
X127200398Y-91874534D01*
X127200152Y-91879533D01*
X127195342Y-91928364D01*
X127194608Y-91933314D01*
X127185036Y-91981439D01*
X127183820Y-91986295D01*
X127169576Y-92033250D01*
X127167890Y-92037961D01*
X127149113Y-92083294D01*
X127146973Y-92087820D01*
X127123842Y-92131093D01*
X127121269Y-92135384D01*
X127094009Y-92176183D01*
X127091027Y-92180204D01*
X127059899Y-92218133D01*
X127056538Y-92221841D01*
X127021841Y-92256538D01*
X127018133Y-92259899D01*
X126980204Y-92291027D01*
X126976183Y-92294009D01*
X126935384Y-92321269D01*
X126931093Y-92323842D01*
X126887820Y-92346973D01*
X126883294Y-92349113D01*
X126837961Y-92367890D01*
X126833250Y-92369576D01*
X126786295Y-92383820D01*
X126781439Y-92385036D01*
X126733314Y-92394608D01*
X126728364Y-92395342D01*
X126679533Y-92400152D01*
X126674534Y-92400398D01*
X126656112Y-92400398D01*
X126650000Y-92401000D01*
X126150000Y-92401000D01*
X126140050Y-92400020D01*
G37*
D18*
X112730000Y-88270000D03*
X115270000Y-85730000D03*
X115270000Y-88270000D03*
X112730000Y-85730000D03*
X114000000Y-87000000D03*
D12*
G36*
X118988779Y-88200266D02*
G01*
X119014309Y-88204053D01*
X119039345Y-88210325D01*
X119063646Y-88219020D01*
X119086977Y-88230055D01*
X119109115Y-88243323D01*
X119129845Y-88258698D01*
X119148969Y-88276031D01*
X119166302Y-88295155D01*
X119181677Y-88315885D01*
X119194945Y-88338023D01*
X119205980Y-88361354D01*
X119214675Y-88385655D01*
X119220947Y-88410691D01*
X119224734Y-88436221D01*
X119226000Y-88462000D01*
X119226000Y-89088000D01*
X119224734Y-89113779D01*
X119220947Y-89139309D01*
X119214675Y-89164345D01*
X119205980Y-89188646D01*
X119194945Y-89211977D01*
X119181677Y-89234115D01*
X119166302Y-89254845D01*
X119148969Y-89273969D01*
X119129845Y-89291302D01*
X119109115Y-89306677D01*
X119086977Y-89319945D01*
X119063646Y-89330980D01*
X119039345Y-89339675D01*
X119014309Y-89345947D01*
X118988779Y-89349734D01*
X118963000Y-89351000D01*
X118437000Y-89351000D01*
X118411221Y-89349734D01*
X118385691Y-89345947D01*
X118360655Y-89339675D01*
X118336354Y-89330980D01*
X118313023Y-89319945D01*
X118290885Y-89306677D01*
X118270155Y-89291302D01*
X118251031Y-89273969D01*
X118233698Y-89254845D01*
X118218323Y-89234115D01*
X118205055Y-89211977D01*
X118194020Y-89188646D01*
X118185325Y-89164345D01*
X118179053Y-89139309D01*
X118175266Y-89113779D01*
X118174000Y-89088000D01*
X118174000Y-88462000D01*
X118175266Y-88436221D01*
X118179053Y-88410691D01*
X118185325Y-88385655D01*
X118194020Y-88361354D01*
X118205055Y-88338023D01*
X118218323Y-88315885D01*
X118233698Y-88295155D01*
X118251031Y-88276031D01*
X118270155Y-88258698D01*
X118290885Y-88243323D01*
X118313023Y-88230055D01*
X118336354Y-88219020D01*
X118360655Y-88210325D01*
X118385691Y-88204053D01*
X118411221Y-88200266D01*
X118437000Y-88199000D01*
X118963000Y-88199000D01*
X118988779Y-88200266D01*
G37*
G36*
X118988779Y-86450266D02*
G01*
X119014309Y-86454053D01*
X119039345Y-86460325D01*
X119063646Y-86469020D01*
X119086977Y-86480055D01*
X119109115Y-86493323D01*
X119129845Y-86508698D01*
X119148969Y-86526031D01*
X119166302Y-86545155D01*
X119181677Y-86565885D01*
X119194945Y-86588023D01*
X119205980Y-86611354D01*
X119214675Y-86635655D01*
X119220947Y-86660691D01*
X119224734Y-86686221D01*
X119226000Y-86712000D01*
X119226000Y-87338000D01*
X119224734Y-87363779D01*
X119220947Y-87389309D01*
X119214675Y-87414345D01*
X119205980Y-87438646D01*
X119194945Y-87461977D01*
X119181677Y-87484115D01*
X119166302Y-87504845D01*
X119148969Y-87523969D01*
X119129845Y-87541302D01*
X119109115Y-87556677D01*
X119086977Y-87569945D01*
X119063646Y-87580980D01*
X119039345Y-87589675D01*
X119014309Y-87595947D01*
X118988779Y-87599734D01*
X118963000Y-87601000D01*
X118437000Y-87601000D01*
X118411221Y-87599734D01*
X118385691Y-87595947D01*
X118360655Y-87589675D01*
X118336354Y-87580980D01*
X118313023Y-87569945D01*
X118290885Y-87556677D01*
X118270155Y-87541302D01*
X118251031Y-87523969D01*
X118233698Y-87504845D01*
X118218323Y-87484115D01*
X118205055Y-87461977D01*
X118194020Y-87438646D01*
X118185325Y-87414345D01*
X118179053Y-87389309D01*
X118175266Y-87363779D01*
X118174000Y-87338000D01*
X118174000Y-86712000D01*
X118175266Y-86686221D01*
X118179053Y-86660691D01*
X118185325Y-86635655D01*
X118194020Y-86611354D01*
X118205055Y-86588023D01*
X118218323Y-86565885D01*
X118233698Y-86545155D01*
X118251031Y-86526031D01*
X118270155Y-86508698D01*
X118290885Y-86493323D01*
X118313023Y-86480055D01*
X118336354Y-86469020D01*
X118360655Y-86460325D01*
X118385691Y-86454053D01*
X118411221Y-86450266D01*
X118437000Y-86449000D01*
X118963000Y-86449000D01*
X118988779Y-86450266D01*
G37*
G36*
X121163779Y-90575266D02*
G01*
X121189309Y-90579053D01*
X121214345Y-90585325D01*
X121238646Y-90594020D01*
X121261977Y-90605055D01*
X121284115Y-90618323D01*
X121304845Y-90633698D01*
X121323969Y-90651031D01*
X121341302Y-90670155D01*
X121356677Y-90690885D01*
X121369945Y-90713023D01*
X121380980Y-90736354D01*
X121389675Y-90760655D01*
X121395947Y-90785691D01*
X121399734Y-90811221D01*
X121401000Y-90837000D01*
X121401000Y-91363000D01*
X121399734Y-91388779D01*
X121395947Y-91414309D01*
X121389675Y-91439345D01*
X121380980Y-91463646D01*
X121369945Y-91486977D01*
X121356677Y-91509115D01*
X121341302Y-91529845D01*
X121323969Y-91548969D01*
X121304845Y-91566302D01*
X121284115Y-91581677D01*
X121261977Y-91594945D01*
X121238646Y-91605980D01*
X121214345Y-91614675D01*
X121189309Y-91620947D01*
X121163779Y-91624734D01*
X121138000Y-91626000D01*
X120512000Y-91626000D01*
X120486221Y-91624734D01*
X120460691Y-91620947D01*
X120435655Y-91614675D01*
X120411354Y-91605980D01*
X120388023Y-91594945D01*
X120365885Y-91581677D01*
X120345155Y-91566302D01*
X120326031Y-91548969D01*
X120308698Y-91529845D01*
X120293323Y-91509115D01*
X120280055Y-91486977D01*
X120269020Y-91463646D01*
X120260325Y-91439345D01*
X120254053Y-91414309D01*
X120250266Y-91388779D01*
X120249000Y-91363000D01*
X120249000Y-90837000D01*
X120250266Y-90811221D01*
X120254053Y-90785691D01*
X120260325Y-90760655D01*
X120269020Y-90736354D01*
X120280055Y-90713023D01*
X120293323Y-90690885D01*
X120308698Y-90670155D01*
X120326031Y-90651031D01*
X120345155Y-90633698D01*
X120365885Y-90618323D01*
X120388023Y-90605055D01*
X120411354Y-90594020D01*
X120435655Y-90585325D01*
X120460691Y-90579053D01*
X120486221Y-90575266D01*
X120512000Y-90574000D01*
X121138000Y-90574000D01*
X121163779Y-90575266D01*
G37*
G36*
X122913779Y-90575266D02*
G01*
X122939309Y-90579053D01*
X122964345Y-90585325D01*
X122988646Y-90594020D01*
X123011977Y-90605055D01*
X123034115Y-90618323D01*
X123054845Y-90633698D01*
X123073969Y-90651031D01*
X123091302Y-90670155D01*
X123106677Y-90690885D01*
X123119945Y-90713023D01*
X123130980Y-90736354D01*
X123139675Y-90760655D01*
X123145947Y-90785691D01*
X123149734Y-90811221D01*
X123151000Y-90837000D01*
X123151000Y-91363000D01*
X123149734Y-91388779D01*
X123145947Y-91414309D01*
X123139675Y-91439345D01*
X123130980Y-91463646D01*
X123119945Y-91486977D01*
X123106677Y-91509115D01*
X123091302Y-91529845D01*
X123073969Y-91548969D01*
X123054845Y-91566302D01*
X123034115Y-91581677D01*
X123011977Y-91594945D01*
X122988646Y-91605980D01*
X122964345Y-91614675D01*
X122939309Y-91620947D01*
X122913779Y-91624734D01*
X122888000Y-91626000D01*
X122262000Y-91626000D01*
X122236221Y-91624734D01*
X122210691Y-91620947D01*
X122185655Y-91614675D01*
X122161354Y-91605980D01*
X122138023Y-91594945D01*
X122115885Y-91581677D01*
X122095155Y-91566302D01*
X122076031Y-91548969D01*
X122058698Y-91529845D01*
X122043323Y-91509115D01*
X122030055Y-91486977D01*
X122019020Y-91463646D01*
X122010325Y-91439345D01*
X122004053Y-91414309D01*
X122000266Y-91388779D01*
X121999000Y-91363000D01*
X121999000Y-90837000D01*
X122000266Y-90811221D01*
X122004053Y-90785691D01*
X122010325Y-90760655D01*
X122019020Y-90736354D01*
X122030055Y-90713023D01*
X122043323Y-90690885D01*
X122058698Y-90670155D01*
X122076031Y-90651031D01*
X122095155Y-90633698D01*
X122115885Y-90618323D01*
X122138023Y-90605055D01*
X122161354Y-90594020D01*
X122185655Y-90585325D01*
X122210691Y-90579053D01*
X122236221Y-90575266D01*
X122262000Y-90574000D01*
X122888000Y-90574000D01*
X122913779Y-90575266D01*
G37*
G36*
X128583147Y-81550296D02*
G01*
X128609283Y-81554173D01*
X128634913Y-81560594D01*
X128659791Y-81569495D01*
X128683677Y-81580792D01*
X128706340Y-81594376D01*
X128727563Y-81610116D01*
X128747140Y-81627860D01*
X128764884Y-81647437D01*
X128780624Y-81668660D01*
X128794208Y-81691323D01*
X128805505Y-81715209D01*
X128814406Y-81740087D01*
X128820827Y-81765717D01*
X128824704Y-81791853D01*
X128826000Y-81818244D01*
X128826000Y-82706756D01*
X128824704Y-82733147D01*
X128820827Y-82759283D01*
X128814406Y-82784913D01*
X128805505Y-82809791D01*
X128794208Y-82833677D01*
X128780624Y-82856340D01*
X128764884Y-82877563D01*
X128747140Y-82897140D01*
X128727563Y-82914884D01*
X128706340Y-82930624D01*
X128683677Y-82944208D01*
X128659791Y-82955505D01*
X128634913Y-82964406D01*
X128609283Y-82970827D01*
X128583147Y-82974704D01*
X128556756Y-82976000D01*
X126643244Y-82976000D01*
X126616853Y-82974704D01*
X126590717Y-82970827D01*
X126565087Y-82964406D01*
X126540209Y-82955505D01*
X126516323Y-82944208D01*
X126493660Y-82930624D01*
X126472437Y-82914884D01*
X126452860Y-82897140D01*
X126435116Y-82877563D01*
X126419376Y-82856340D01*
X126405792Y-82833677D01*
X126394495Y-82809791D01*
X126385594Y-82784913D01*
X126379173Y-82759283D01*
X126375296Y-82733147D01*
X126374000Y-82706756D01*
X126374000Y-81818244D01*
X126375296Y-81791853D01*
X126379173Y-81765717D01*
X126385594Y-81740087D01*
X126394495Y-81715209D01*
X126405792Y-81691323D01*
X126419376Y-81668660D01*
X126435116Y-81647437D01*
X126452860Y-81627860D01*
X126472437Y-81610116D01*
X126493660Y-81594376D01*
X126516323Y-81580792D01*
X126540209Y-81569495D01*
X126565087Y-81560594D01*
X126590717Y-81554173D01*
X126616853Y-81550296D01*
X126643244Y-81549000D01*
X128556756Y-81549000D01*
X128583147Y-81550296D01*
G37*
G36*
X128583147Y-84625296D02*
G01*
X128609283Y-84629173D01*
X128634913Y-84635594D01*
X128659791Y-84644495D01*
X128683677Y-84655792D01*
X128706340Y-84669376D01*
X128727563Y-84685116D01*
X128747140Y-84702860D01*
X128764884Y-84722437D01*
X128780624Y-84743660D01*
X128794208Y-84766323D01*
X128805505Y-84790209D01*
X128814406Y-84815087D01*
X128820827Y-84840717D01*
X128824704Y-84866853D01*
X128826000Y-84893244D01*
X128826000Y-85781756D01*
X128824704Y-85808147D01*
X128820827Y-85834283D01*
X128814406Y-85859913D01*
X128805505Y-85884791D01*
X128794208Y-85908677D01*
X128780624Y-85931340D01*
X128764884Y-85952563D01*
X128747140Y-85972140D01*
X128727563Y-85989884D01*
X128706340Y-86005624D01*
X128683677Y-86019208D01*
X128659791Y-86030505D01*
X128634913Y-86039406D01*
X128609283Y-86045827D01*
X128583147Y-86049704D01*
X128556756Y-86051000D01*
X126643244Y-86051000D01*
X126616853Y-86049704D01*
X126590717Y-86045827D01*
X126565087Y-86039406D01*
X126540209Y-86030505D01*
X126516323Y-86019208D01*
X126493660Y-86005624D01*
X126472437Y-85989884D01*
X126452860Y-85972140D01*
X126435116Y-85952563D01*
X126419376Y-85931340D01*
X126405792Y-85908677D01*
X126394495Y-85884791D01*
X126385594Y-85859913D01*
X126379173Y-85834283D01*
X126375296Y-85808147D01*
X126374000Y-85781756D01*
X126374000Y-84893244D01*
X126375296Y-84866853D01*
X126379173Y-84840717D01*
X126385594Y-84815087D01*
X126394495Y-84790209D01*
X126405792Y-84766323D01*
X126419376Y-84743660D01*
X126435116Y-84722437D01*
X126452860Y-84702860D01*
X126472437Y-84685116D01*
X126493660Y-84669376D01*
X126516323Y-84655792D01*
X126540209Y-84644495D01*
X126565087Y-84635594D01*
X126590717Y-84629173D01*
X126616853Y-84625296D01*
X126643244Y-84624000D01*
X128556756Y-84624000D01*
X128583147Y-84625296D01*
G37*
G36*
X131088779Y-87675266D02*
G01*
X131114309Y-87679053D01*
X131139345Y-87685325D01*
X131163646Y-87694020D01*
X131186977Y-87705055D01*
X131209115Y-87718323D01*
X131229845Y-87733698D01*
X131248969Y-87751031D01*
X131266302Y-87770155D01*
X131281677Y-87790885D01*
X131294945Y-87813023D01*
X131305980Y-87836354D01*
X131314675Y-87860655D01*
X131320947Y-87885691D01*
X131324734Y-87911221D01*
X131326000Y-87937000D01*
X131326000Y-88563000D01*
X131324734Y-88588779D01*
X131320947Y-88614309D01*
X131314675Y-88639345D01*
X131305980Y-88663646D01*
X131294945Y-88686977D01*
X131281677Y-88709115D01*
X131266302Y-88729845D01*
X131248969Y-88748969D01*
X131229845Y-88766302D01*
X131209115Y-88781677D01*
X131186977Y-88794945D01*
X131163646Y-88805980D01*
X131139345Y-88814675D01*
X131114309Y-88820947D01*
X131088779Y-88824734D01*
X131063000Y-88826000D01*
X130537000Y-88826000D01*
X130511221Y-88824734D01*
X130485691Y-88820947D01*
X130460655Y-88814675D01*
X130436354Y-88805980D01*
X130413023Y-88794945D01*
X130390885Y-88781677D01*
X130370155Y-88766302D01*
X130351031Y-88748969D01*
X130333698Y-88729845D01*
X130318323Y-88709115D01*
X130305055Y-88686977D01*
X130294020Y-88663646D01*
X130285325Y-88639345D01*
X130279053Y-88614309D01*
X130275266Y-88588779D01*
X130274000Y-88563000D01*
X130274000Y-87937000D01*
X130275266Y-87911221D01*
X130279053Y-87885691D01*
X130285325Y-87860655D01*
X130294020Y-87836354D01*
X130305055Y-87813023D01*
X130318323Y-87790885D01*
X130333698Y-87770155D01*
X130351031Y-87751031D01*
X130370155Y-87733698D01*
X130390885Y-87718323D01*
X130413023Y-87705055D01*
X130436354Y-87694020D01*
X130460655Y-87685325D01*
X130485691Y-87679053D01*
X130511221Y-87675266D01*
X130537000Y-87674000D01*
X131063000Y-87674000D01*
X131088779Y-87675266D01*
G37*
G36*
X131088779Y-85925266D02*
G01*
X131114309Y-85929053D01*
X131139345Y-85935325D01*
X131163646Y-85944020D01*
X131186977Y-85955055D01*
X131209115Y-85968323D01*
X131229845Y-85983698D01*
X131248969Y-86001031D01*
X131266302Y-86020155D01*
X131281677Y-86040885D01*
X131294945Y-86063023D01*
X131305980Y-86086354D01*
X131314675Y-86110655D01*
X131320947Y-86135691D01*
X131324734Y-86161221D01*
X131326000Y-86187000D01*
X131326000Y-86813000D01*
X131324734Y-86838779D01*
X131320947Y-86864309D01*
X131314675Y-86889345D01*
X131305980Y-86913646D01*
X131294945Y-86936977D01*
X131281677Y-86959115D01*
X131266302Y-86979845D01*
X131248969Y-86998969D01*
X131229845Y-87016302D01*
X131209115Y-87031677D01*
X131186977Y-87044945D01*
X131163646Y-87055980D01*
X131139345Y-87064675D01*
X131114309Y-87070947D01*
X131088779Y-87074734D01*
X131063000Y-87076000D01*
X130537000Y-87076000D01*
X130511221Y-87074734D01*
X130485691Y-87070947D01*
X130460655Y-87064675D01*
X130436354Y-87055980D01*
X130413023Y-87044945D01*
X130390885Y-87031677D01*
X130370155Y-87016302D01*
X130351031Y-86998969D01*
X130333698Y-86979845D01*
X130318323Y-86959115D01*
X130305055Y-86936977D01*
X130294020Y-86913646D01*
X130285325Y-86889345D01*
X130279053Y-86864309D01*
X130275266Y-86838779D01*
X130274000Y-86813000D01*
X130274000Y-86187000D01*
X130275266Y-86161221D01*
X130279053Y-86135691D01*
X130285325Y-86110655D01*
X130294020Y-86086354D01*
X130305055Y-86063023D01*
X130318323Y-86040885D01*
X130333698Y-86020155D01*
X130351031Y-86001031D01*
X130370155Y-85983698D01*
X130390885Y-85968323D01*
X130413023Y-85955055D01*
X130436354Y-85944020D01*
X130460655Y-85935325D01*
X130485691Y-85929053D01*
X130511221Y-85925266D01*
X130537000Y-85924000D01*
X131063000Y-85924000D01*
X131088779Y-85925266D01*
G37*
G36*
X132988779Y-87700266D02*
G01*
X133014309Y-87704053D01*
X133039345Y-87710325D01*
X133063646Y-87719020D01*
X133086977Y-87730055D01*
X133109115Y-87743323D01*
X133129845Y-87758698D01*
X133148969Y-87776031D01*
X133166302Y-87795155D01*
X133181677Y-87815885D01*
X133194945Y-87838023D01*
X133205980Y-87861354D01*
X133214675Y-87885655D01*
X133220947Y-87910691D01*
X133224734Y-87936221D01*
X133226000Y-87962000D01*
X133226000Y-88588000D01*
X133224734Y-88613779D01*
X133220947Y-88639309D01*
X133214675Y-88664345D01*
X133205980Y-88688646D01*
X133194945Y-88711977D01*
X133181677Y-88734115D01*
X133166302Y-88754845D01*
X133148969Y-88773969D01*
X133129845Y-88791302D01*
X133109115Y-88806677D01*
X133086977Y-88819945D01*
X133063646Y-88830980D01*
X133039345Y-88839675D01*
X133014309Y-88845947D01*
X132988779Y-88849734D01*
X132963000Y-88851000D01*
X132437000Y-88851000D01*
X132411221Y-88849734D01*
X132385691Y-88845947D01*
X132360655Y-88839675D01*
X132336354Y-88830980D01*
X132313023Y-88819945D01*
X132290885Y-88806677D01*
X132270155Y-88791302D01*
X132251031Y-88773969D01*
X132233698Y-88754845D01*
X132218323Y-88734115D01*
X132205055Y-88711977D01*
X132194020Y-88688646D01*
X132185325Y-88664345D01*
X132179053Y-88639309D01*
X132175266Y-88613779D01*
X132174000Y-88588000D01*
X132174000Y-87962000D01*
X132175266Y-87936221D01*
X132179053Y-87910691D01*
X132185325Y-87885655D01*
X132194020Y-87861354D01*
X132205055Y-87838023D01*
X132218323Y-87815885D01*
X132233698Y-87795155D01*
X132251031Y-87776031D01*
X132270155Y-87758698D01*
X132290885Y-87743323D01*
X132313023Y-87730055D01*
X132336354Y-87719020D01*
X132360655Y-87710325D01*
X132385691Y-87704053D01*
X132411221Y-87700266D01*
X132437000Y-87699000D01*
X132963000Y-87699000D01*
X132988779Y-87700266D01*
G37*
G36*
X132988779Y-85950266D02*
G01*
X133014309Y-85954053D01*
X133039345Y-85960325D01*
X133063646Y-85969020D01*
X133086977Y-85980055D01*
X133109115Y-85993323D01*
X133129845Y-86008698D01*
X133148969Y-86026031D01*
X133166302Y-86045155D01*
X133181677Y-86065885D01*
X133194945Y-86088023D01*
X133205980Y-86111354D01*
X133214675Y-86135655D01*
X133220947Y-86160691D01*
X133224734Y-86186221D01*
X133226000Y-86212000D01*
X133226000Y-86838000D01*
X133224734Y-86863779D01*
X133220947Y-86889309D01*
X133214675Y-86914345D01*
X133205980Y-86938646D01*
X133194945Y-86961977D01*
X133181677Y-86984115D01*
X133166302Y-87004845D01*
X133148969Y-87023969D01*
X133129845Y-87041302D01*
X133109115Y-87056677D01*
X133086977Y-87069945D01*
X133063646Y-87080980D01*
X133039345Y-87089675D01*
X133014309Y-87095947D01*
X132988779Y-87099734D01*
X132963000Y-87101000D01*
X132437000Y-87101000D01*
X132411221Y-87099734D01*
X132385691Y-87095947D01*
X132360655Y-87089675D01*
X132336354Y-87080980D01*
X132313023Y-87069945D01*
X132290885Y-87056677D01*
X132270155Y-87041302D01*
X132251031Y-87023969D01*
X132233698Y-87004845D01*
X132218323Y-86984115D01*
X132205055Y-86961977D01*
X132194020Y-86938646D01*
X132185325Y-86914345D01*
X132179053Y-86889309D01*
X132175266Y-86863779D01*
X132174000Y-86838000D01*
X132174000Y-86212000D01*
X132175266Y-86186221D01*
X132179053Y-86160691D01*
X132185325Y-86135655D01*
X132194020Y-86111354D01*
X132205055Y-86088023D01*
X132218323Y-86065885D01*
X132233698Y-86045155D01*
X132251031Y-86026031D01*
X132270155Y-86008698D01*
X132290885Y-85993323D01*
X132313023Y-85980055D01*
X132336354Y-85969020D01*
X132360655Y-85960325D01*
X132385691Y-85954053D01*
X132411221Y-85950266D01*
X132437000Y-85949000D01*
X132963000Y-85949000D01*
X132988779Y-85950266D01*
G37*
G36*
X135584363Y-85750290D02*
G01*
X135610369Y-85754148D01*
X135635871Y-85760535D01*
X135660624Y-85769392D01*
X135684390Y-85780633D01*
X135706939Y-85794148D01*
X135728056Y-85809809D01*
X135747535Y-85827465D01*
X135765191Y-85846944D01*
X135780852Y-85868061D01*
X135794367Y-85890610D01*
X135805608Y-85914376D01*
X135814465Y-85939129D01*
X135820852Y-85964631D01*
X135824710Y-85990637D01*
X135826000Y-86016895D01*
X135826000Y-87008105D01*
X135824710Y-87034363D01*
X135820852Y-87060369D01*
X135814465Y-87085871D01*
X135805608Y-87110624D01*
X135794367Y-87134390D01*
X135780852Y-87156939D01*
X135765191Y-87178056D01*
X135747535Y-87197535D01*
X135728056Y-87215191D01*
X135706939Y-87230852D01*
X135684390Y-87244367D01*
X135660624Y-87255608D01*
X135635871Y-87264465D01*
X135610369Y-87270852D01*
X135584363Y-87274710D01*
X135558105Y-87276000D01*
X134241895Y-87276000D01*
X134215637Y-87274710D01*
X134189631Y-87270852D01*
X134164129Y-87264465D01*
X134139376Y-87255608D01*
X134115610Y-87244367D01*
X134093061Y-87230852D01*
X134071944Y-87215191D01*
X134052465Y-87197535D01*
X134034809Y-87178056D01*
X134019148Y-87156939D01*
X134005633Y-87134390D01*
X133994392Y-87110624D01*
X133985535Y-87085871D01*
X133979148Y-87060369D01*
X133975290Y-87034363D01*
X133974000Y-87008105D01*
X133974000Y-86016895D01*
X133975290Y-85990637D01*
X133979148Y-85964631D01*
X133985535Y-85939129D01*
X133994392Y-85914376D01*
X134005633Y-85890610D01*
X134019148Y-85868061D01*
X134034809Y-85846944D01*
X134052465Y-85827465D01*
X134071944Y-85809809D01*
X134093061Y-85794148D01*
X134115610Y-85780633D01*
X134139376Y-85769392D01*
X134164129Y-85760535D01*
X134189631Y-85754148D01*
X134215637Y-85750290D01*
X134241895Y-85749000D01*
X135558105Y-85749000D01*
X135584363Y-85750290D01*
G37*
G36*
X135584363Y-88725290D02*
G01*
X135610369Y-88729148D01*
X135635871Y-88735535D01*
X135660624Y-88744392D01*
X135684390Y-88755633D01*
X135706939Y-88769148D01*
X135728056Y-88784809D01*
X135747535Y-88802465D01*
X135765191Y-88821944D01*
X135780852Y-88843061D01*
X135794367Y-88865610D01*
X135805608Y-88889376D01*
X135814465Y-88914129D01*
X135820852Y-88939631D01*
X135824710Y-88965637D01*
X135826000Y-88991895D01*
X135826000Y-89983105D01*
X135824710Y-90009363D01*
X135820852Y-90035369D01*
X135814465Y-90060871D01*
X135805608Y-90085624D01*
X135794367Y-90109390D01*
X135780852Y-90131939D01*
X135765191Y-90153056D01*
X135747535Y-90172535D01*
X135728056Y-90190191D01*
X135706939Y-90205852D01*
X135684390Y-90219367D01*
X135660624Y-90230608D01*
X135635871Y-90239465D01*
X135610369Y-90245852D01*
X135584363Y-90249710D01*
X135558105Y-90251000D01*
X134241895Y-90251000D01*
X134215637Y-90249710D01*
X134189631Y-90245852D01*
X134164129Y-90239465D01*
X134139376Y-90230608D01*
X134115610Y-90219367D01*
X134093061Y-90205852D01*
X134071944Y-90190191D01*
X134052465Y-90172535D01*
X134034809Y-90153056D01*
X134019148Y-90131939D01*
X134005633Y-90109390D01*
X133994392Y-90085624D01*
X133985535Y-90060871D01*
X133979148Y-90035369D01*
X133975290Y-90009363D01*
X133974000Y-89983105D01*
X133974000Y-88991895D01*
X133975290Y-88965637D01*
X133979148Y-88939631D01*
X133985535Y-88914129D01*
X133994392Y-88889376D01*
X134005633Y-88865610D01*
X134019148Y-88843061D01*
X134034809Y-88821944D01*
X134052465Y-88802465D01*
X134071944Y-88784809D01*
X134093061Y-88769148D01*
X134115610Y-88755633D01*
X134139376Y-88744392D01*
X134164129Y-88735535D01*
X134189631Y-88729148D01*
X134215637Y-88725290D01*
X134241895Y-88724000D01*
X135558105Y-88724000D01*
X135584363Y-88725290D01*
G37*
G36*
X135809363Y-79075290D02*
G01*
X135835369Y-79079148D01*
X135860871Y-79085535D01*
X135885624Y-79094392D01*
X135909390Y-79105633D01*
X135931939Y-79119148D01*
X135953056Y-79134809D01*
X135972535Y-79152465D01*
X135990191Y-79171944D01*
X136005852Y-79193061D01*
X136019367Y-79215610D01*
X136030608Y-79239376D01*
X136039465Y-79264129D01*
X136045852Y-79289631D01*
X136049710Y-79315637D01*
X136051000Y-79341895D01*
X136051000Y-80658105D01*
X136049710Y-80684363D01*
X136045852Y-80710369D01*
X136039465Y-80735871D01*
X136030608Y-80760624D01*
X136019367Y-80784390D01*
X136005852Y-80806939D01*
X135990191Y-80828056D01*
X135972535Y-80847535D01*
X135953056Y-80865191D01*
X135931939Y-80880852D01*
X135909390Y-80894367D01*
X135885624Y-80905608D01*
X135860871Y-80914465D01*
X135835369Y-80920852D01*
X135809363Y-80924710D01*
X135783105Y-80926000D01*
X134791895Y-80926000D01*
X134765637Y-80924710D01*
X134739631Y-80920852D01*
X134714129Y-80914465D01*
X134689376Y-80905608D01*
X134665610Y-80894367D01*
X134643061Y-80880852D01*
X134621944Y-80865191D01*
X134602465Y-80847535D01*
X134584809Y-80828056D01*
X134569148Y-80806939D01*
X134555633Y-80784390D01*
X134544392Y-80760624D01*
X134535535Y-80735871D01*
X134529148Y-80710369D01*
X134525290Y-80684363D01*
X134524000Y-80658105D01*
X134524000Y-79341895D01*
X134525290Y-79315637D01*
X134529148Y-79289631D01*
X134535535Y-79264129D01*
X134544392Y-79239376D01*
X134555633Y-79215610D01*
X134569148Y-79193061D01*
X134584809Y-79171944D01*
X134602465Y-79152465D01*
X134621944Y-79134809D01*
X134643061Y-79119148D01*
X134665610Y-79105633D01*
X134689376Y-79094392D01*
X134714129Y-79085535D01*
X134739631Y-79079148D01*
X134765637Y-79075290D01*
X134791895Y-79074000D01*
X135783105Y-79074000D01*
X135809363Y-79075290D01*
G37*
G36*
X132834363Y-79075290D02*
G01*
X132860369Y-79079148D01*
X132885871Y-79085535D01*
X132910624Y-79094392D01*
X132934390Y-79105633D01*
X132956939Y-79119148D01*
X132978056Y-79134809D01*
X132997535Y-79152465D01*
X133015191Y-79171944D01*
X133030852Y-79193061D01*
X133044367Y-79215610D01*
X133055608Y-79239376D01*
X133064465Y-79264129D01*
X133070852Y-79289631D01*
X133074710Y-79315637D01*
X133076000Y-79341895D01*
X133076000Y-80658105D01*
X133074710Y-80684363D01*
X133070852Y-80710369D01*
X133064465Y-80735871D01*
X133055608Y-80760624D01*
X133044367Y-80784390D01*
X133030852Y-80806939D01*
X133015191Y-80828056D01*
X132997535Y-80847535D01*
X132978056Y-80865191D01*
X132956939Y-80880852D01*
X132934390Y-80894367D01*
X132910624Y-80905608D01*
X132885871Y-80914465D01*
X132860369Y-80920852D01*
X132834363Y-80924710D01*
X132808105Y-80926000D01*
X131816895Y-80926000D01*
X131790637Y-80924710D01*
X131764631Y-80920852D01*
X131739129Y-80914465D01*
X131714376Y-80905608D01*
X131690610Y-80894367D01*
X131668061Y-80880852D01*
X131646944Y-80865191D01*
X131627465Y-80847535D01*
X131609809Y-80828056D01*
X131594148Y-80806939D01*
X131580633Y-80784390D01*
X131569392Y-80760624D01*
X131560535Y-80735871D01*
X131554148Y-80710369D01*
X131550290Y-80684363D01*
X131549000Y-80658105D01*
X131549000Y-79341895D01*
X131550290Y-79315637D01*
X131554148Y-79289631D01*
X131560535Y-79264129D01*
X131569392Y-79239376D01*
X131580633Y-79215610D01*
X131594148Y-79193061D01*
X131609809Y-79171944D01*
X131627465Y-79152465D01*
X131646944Y-79134809D01*
X131668061Y-79119148D01*
X131690610Y-79105633D01*
X131714376Y-79094392D01*
X131739129Y-79085535D01*
X131764631Y-79079148D01*
X131790637Y-79075290D01*
X131816895Y-79074000D01*
X132808105Y-79074000D01*
X132834363Y-79075290D01*
G37*
G36*
X142881338Y-61550306D02*
G01*
X142907669Y-61554212D01*
X142933490Y-61560680D01*
X142958553Y-61569648D01*
X142982617Y-61581029D01*
X143005449Y-61594714D01*
X143026830Y-61610571D01*
X143046553Y-61628447D01*
X143064429Y-61648170D01*
X143080286Y-61669551D01*
X143093971Y-61692383D01*
X143105352Y-61716447D01*
X143114320Y-61741510D01*
X143120788Y-61767331D01*
X143124694Y-61793662D01*
X143126000Y-61820249D01*
X143126000Y-62579751D01*
X143124694Y-62606338D01*
X143120788Y-62632669D01*
X143114320Y-62658490D01*
X143105352Y-62683553D01*
X143093971Y-62707617D01*
X143080286Y-62730449D01*
X143064429Y-62751830D01*
X143046553Y-62771553D01*
X143026830Y-62789429D01*
X143005449Y-62805286D01*
X142982617Y-62818971D01*
X142958553Y-62830352D01*
X142933490Y-62839320D01*
X142907669Y-62845788D01*
X142881338Y-62849694D01*
X142854751Y-62851000D01*
X141495249Y-62851000D01*
X141468662Y-62849694D01*
X141442331Y-62845788D01*
X141416510Y-62839320D01*
X141391447Y-62830352D01*
X141367383Y-62818971D01*
X141344551Y-62805286D01*
X141323170Y-62789429D01*
X141303447Y-62771553D01*
X141285571Y-62751830D01*
X141269714Y-62730449D01*
X141256029Y-62707617D01*
X141244648Y-62683553D01*
X141235680Y-62658490D01*
X141229212Y-62632669D01*
X141225306Y-62606338D01*
X141224000Y-62579751D01*
X141224000Y-61820249D01*
X141225306Y-61793662D01*
X141229212Y-61767331D01*
X141235680Y-61741510D01*
X141244648Y-61716447D01*
X141256029Y-61692383D01*
X141269714Y-61669551D01*
X141285571Y-61648170D01*
X141303447Y-61628447D01*
X141323170Y-61610571D01*
X141344551Y-61594714D01*
X141367383Y-61581029D01*
X141391447Y-61569648D01*
X141416510Y-61560680D01*
X141442331Y-61554212D01*
X141468662Y-61550306D01*
X141495249Y-61549000D01*
X142854751Y-61549000D01*
X142881338Y-61550306D01*
G37*
G36*
X142881338Y-67150306D02*
G01*
X142907669Y-67154212D01*
X142933490Y-67160680D01*
X142958553Y-67169648D01*
X142982617Y-67181029D01*
X143005449Y-67194714D01*
X143026830Y-67210571D01*
X143046553Y-67228447D01*
X143064429Y-67248170D01*
X143080286Y-67269551D01*
X143093971Y-67292383D01*
X143105352Y-67316447D01*
X143114320Y-67341510D01*
X143120788Y-67367331D01*
X143124694Y-67393662D01*
X143126000Y-67420249D01*
X143126000Y-68179751D01*
X143124694Y-68206338D01*
X143120788Y-68232669D01*
X143114320Y-68258490D01*
X143105352Y-68283553D01*
X143093971Y-68307617D01*
X143080286Y-68330449D01*
X143064429Y-68351830D01*
X143046553Y-68371553D01*
X143026830Y-68389429D01*
X143005449Y-68405286D01*
X142982617Y-68418971D01*
X142958553Y-68430352D01*
X142933490Y-68439320D01*
X142907669Y-68445788D01*
X142881338Y-68449694D01*
X142854751Y-68451000D01*
X141495249Y-68451000D01*
X141468662Y-68449694D01*
X141442331Y-68445788D01*
X141416510Y-68439320D01*
X141391447Y-68430352D01*
X141367383Y-68418971D01*
X141344551Y-68405286D01*
X141323170Y-68389429D01*
X141303447Y-68371553D01*
X141285571Y-68351830D01*
X141269714Y-68330449D01*
X141256029Y-68307617D01*
X141244648Y-68283553D01*
X141235680Y-68258490D01*
X141229212Y-68232669D01*
X141225306Y-68206338D01*
X141224000Y-68179751D01*
X141224000Y-67420249D01*
X141225306Y-67393662D01*
X141229212Y-67367331D01*
X141235680Y-67341510D01*
X141244648Y-67316447D01*
X141256029Y-67292383D01*
X141269714Y-67269551D01*
X141285571Y-67248170D01*
X141303447Y-67228447D01*
X141323170Y-67210571D01*
X141344551Y-67194714D01*
X141367383Y-67181029D01*
X141391447Y-67169648D01*
X141416510Y-67160680D01*
X141442331Y-67154212D01*
X141468662Y-67150306D01*
X141495249Y-67149000D01*
X142854751Y-67149000D01*
X142881338Y-67150306D01*
G37*
G36*
X138967702Y-63149845D02*
G01*
X138984738Y-63152372D01*
X139001445Y-63156557D01*
X139017661Y-63162359D01*
X139033230Y-63169723D01*
X139048003Y-63178577D01*
X139061836Y-63188837D01*
X139074597Y-63200403D01*
X139086163Y-63213164D01*
X139096423Y-63226997D01*
X139105277Y-63241770D01*
X139112641Y-63257339D01*
X139118443Y-63273555D01*
X139122628Y-63290262D01*
X139125155Y-63307298D01*
X139126000Y-63324500D01*
X139126000Y-63675500D01*
X139125155Y-63692702D01*
X139122628Y-63709738D01*
X139118443Y-63726445D01*
X139112641Y-63742661D01*
X139105277Y-63758230D01*
X139096423Y-63773003D01*
X139086163Y-63786836D01*
X139074597Y-63799597D01*
X139061836Y-63811163D01*
X139048003Y-63821423D01*
X139033230Y-63830277D01*
X139017661Y-63837641D01*
X139001445Y-63843443D01*
X138984738Y-63847628D01*
X138967702Y-63850155D01*
X138950500Y-63851000D01*
X137649500Y-63851000D01*
X137632298Y-63850155D01*
X137615262Y-63847628D01*
X137598555Y-63843443D01*
X137582339Y-63837641D01*
X137566770Y-63830277D01*
X137551997Y-63821423D01*
X137538164Y-63811163D01*
X137525403Y-63799597D01*
X137513837Y-63786836D01*
X137503577Y-63773003D01*
X137494723Y-63758230D01*
X137487359Y-63742661D01*
X137481557Y-63726445D01*
X137477372Y-63709738D01*
X137474845Y-63692702D01*
X137474000Y-63675500D01*
X137474000Y-63324500D01*
X137474845Y-63307298D01*
X137477372Y-63290262D01*
X137481557Y-63273555D01*
X137487359Y-63257339D01*
X137494723Y-63241770D01*
X137503577Y-63226997D01*
X137513837Y-63213164D01*
X137525403Y-63200403D01*
X137538164Y-63188837D01*
X137551997Y-63178577D01*
X137566770Y-63169723D01*
X137582339Y-63162359D01*
X137598555Y-63156557D01*
X137615262Y-63152372D01*
X137632298Y-63149845D01*
X137649500Y-63149000D01*
X138950500Y-63149000D01*
X138967702Y-63149845D01*
G37*
G36*
X138967702Y-64149845D02*
G01*
X138984738Y-64152372D01*
X139001445Y-64156557D01*
X139017661Y-64162359D01*
X139033230Y-64169723D01*
X139048003Y-64178577D01*
X139061836Y-64188837D01*
X139074597Y-64200403D01*
X139086163Y-64213164D01*
X139096423Y-64226997D01*
X139105277Y-64241770D01*
X139112641Y-64257339D01*
X139118443Y-64273555D01*
X139122628Y-64290262D01*
X139125155Y-64307298D01*
X139126000Y-64324500D01*
X139126000Y-64675500D01*
X139125155Y-64692702D01*
X139122628Y-64709738D01*
X139118443Y-64726445D01*
X139112641Y-64742661D01*
X139105277Y-64758230D01*
X139096423Y-64773003D01*
X139086163Y-64786836D01*
X139074597Y-64799597D01*
X139061836Y-64811163D01*
X139048003Y-64821423D01*
X139033230Y-64830277D01*
X139017661Y-64837641D01*
X139001445Y-64843443D01*
X138984738Y-64847628D01*
X138967702Y-64850155D01*
X138950500Y-64851000D01*
X137649500Y-64851000D01*
X137632298Y-64850155D01*
X137615262Y-64847628D01*
X137598555Y-64843443D01*
X137582339Y-64837641D01*
X137566770Y-64830277D01*
X137551997Y-64821423D01*
X137538164Y-64811163D01*
X137525403Y-64799597D01*
X137513837Y-64786836D01*
X137503577Y-64773003D01*
X137494723Y-64758230D01*
X137487359Y-64742661D01*
X137481557Y-64726445D01*
X137477372Y-64709738D01*
X137474845Y-64692702D01*
X137474000Y-64675500D01*
X137474000Y-64324500D01*
X137474845Y-64307298D01*
X137477372Y-64290262D01*
X137481557Y-64273555D01*
X137487359Y-64257339D01*
X137494723Y-64241770D01*
X137503577Y-64226997D01*
X137513837Y-64213164D01*
X137525403Y-64200403D01*
X137538164Y-64188837D01*
X137551997Y-64178577D01*
X137566770Y-64169723D01*
X137582339Y-64162359D01*
X137598555Y-64156557D01*
X137615262Y-64152372D01*
X137632298Y-64149845D01*
X137649500Y-64149000D01*
X138950500Y-64149000D01*
X138967702Y-64149845D01*
G37*
G36*
X138967702Y-65149845D02*
G01*
X138984738Y-65152372D01*
X139001445Y-65156557D01*
X139017661Y-65162359D01*
X139033230Y-65169723D01*
X139048003Y-65178577D01*
X139061836Y-65188837D01*
X139074597Y-65200403D01*
X139086163Y-65213164D01*
X139096423Y-65226997D01*
X139105277Y-65241770D01*
X139112641Y-65257339D01*
X139118443Y-65273555D01*
X139122628Y-65290262D01*
X139125155Y-65307298D01*
X139126000Y-65324500D01*
X139126000Y-65675500D01*
X139125155Y-65692702D01*
X139122628Y-65709738D01*
X139118443Y-65726445D01*
X139112641Y-65742661D01*
X139105277Y-65758230D01*
X139096423Y-65773003D01*
X139086163Y-65786836D01*
X139074597Y-65799597D01*
X139061836Y-65811163D01*
X139048003Y-65821423D01*
X139033230Y-65830277D01*
X139017661Y-65837641D01*
X139001445Y-65843443D01*
X138984738Y-65847628D01*
X138967702Y-65850155D01*
X138950500Y-65851000D01*
X137649500Y-65851000D01*
X137632298Y-65850155D01*
X137615262Y-65847628D01*
X137598555Y-65843443D01*
X137582339Y-65837641D01*
X137566770Y-65830277D01*
X137551997Y-65821423D01*
X137538164Y-65811163D01*
X137525403Y-65799597D01*
X137513837Y-65786836D01*
X137503577Y-65773003D01*
X137494723Y-65758230D01*
X137487359Y-65742661D01*
X137481557Y-65726445D01*
X137477372Y-65709738D01*
X137474845Y-65692702D01*
X137474000Y-65675500D01*
X137474000Y-65324500D01*
X137474845Y-65307298D01*
X137477372Y-65290262D01*
X137481557Y-65273555D01*
X137487359Y-65257339D01*
X137494723Y-65241770D01*
X137503577Y-65226997D01*
X137513837Y-65213164D01*
X137525403Y-65200403D01*
X137538164Y-65188837D01*
X137551997Y-65178577D01*
X137566770Y-65169723D01*
X137582339Y-65162359D01*
X137598555Y-65156557D01*
X137615262Y-65152372D01*
X137632298Y-65149845D01*
X137649500Y-65149000D01*
X138950500Y-65149000D01*
X138967702Y-65149845D01*
G37*
G36*
X138967702Y-66149845D02*
G01*
X138984738Y-66152372D01*
X139001445Y-66156557D01*
X139017661Y-66162359D01*
X139033230Y-66169723D01*
X139048003Y-66178577D01*
X139061836Y-66188837D01*
X139074597Y-66200403D01*
X139086163Y-66213164D01*
X139096423Y-66226997D01*
X139105277Y-66241770D01*
X139112641Y-66257339D01*
X139118443Y-66273555D01*
X139122628Y-66290262D01*
X139125155Y-66307298D01*
X139126000Y-66324500D01*
X139126000Y-66675500D01*
X139125155Y-66692702D01*
X139122628Y-66709738D01*
X139118443Y-66726445D01*
X139112641Y-66742661D01*
X139105277Y-66758230D01*
X139096423Y-66773003D01*
X139086163Y-66786836D01*
X139074597Y-66799597D01*
X139061836Y-66811163D01*
X139048003Y-66821423D01*
X139033230Y-66830277D01*
X139017661Y-66837641D01*
X139001445Y-66843443D01*
X138984738Y-66847628D01*
X138967702Y-66850155D01*
X138950500Y-66851000D01*
X137649500Y-66851000D01*
X137632298Y-66850155D01*
X137615262Y-66847628D01*
X137598555Y-66843443D01*
X137582339Y-66837641D01*
X137566770Y-66830277D01*
X137551997Y-66821423D01*
X137538164Y-66811163D01*
X137525403Y-66799597D01*
X137513837Y-66786836D01*
X137503577Y-66773003D01*
X137494723Y-66758230D01*
X137487359Y-66742661D01*
X137481557Y-66726445D01*
X137477372Y-66709738D01*
X137474845Y-66692702D01*
X137474000Y-66675500D01*
X137474000Y-66324500D01*
X137474845Y-66307298D01*
X137477372Y-66290262D01*
X137481557Y-66273555D01*
X137487359Y-66257339D01*
X137494723Y-66241770D01*
X137503577Y-66226997D01*
X137513837Y-66213164D01*
X137525403Y-66200403D01*
X137538164Y-66188837D01*
X137551997Y-66178577D01*
X137566770Y-66169723D01*
X137582339Y-66162359D01*
X137598555Y-66156557D01*
X137615262Y-66152372D01*
X137632298Y-66149845D01*
X137649500Y-66149000D01*
X138950500Y-66149000D01*
X138967702Y-66149845D01*
G37*
G36*
X90331338Y-91850306D02*
G01*
X90357669Y-91854212D01*
X90383490Y-91860680D01*
X90408553Y-91869648D01*
X90432617Y-91881029D01*
X90455449Y-91894714D01*
X90476830Y-91910571D01*
X90496553Y-91928447D01*
X90514429Y-91948170D01*
X90530286Y-91969551D01*
X90543971Y-91992383D01*
X90555352Y-92016447D01*
X90564320Y-92041510D01*
X90570788Y-92067331D01*
X90574694Y-92093662D01*
X90576000Y-92120249D01*
X90576000Y-92879751D01*
X90574694Y-92906338D01*
X90570788Y-92932669D01*
X90564320Y-92958490D01*
X90555352Y-92983553D01*
X90543971Y-93007617D01*
X90530286Y-93030449D01*
X90514429Y-93051830D01*
X90496553Y-93071553D01*
X90476830Y-93089429D01*
X90455449Y-93105286D01*
X90432617Y-93118971D01*
X90408553Y-93130352D01*
X90383490Y-93139320D01*
X90357669Y-93145788D01*
X90331338Y-93149694D01*
X90304751Y-93151000D01*
X88945249Y-93151000D01*
X88918662Y-93149694D01*
X88892331Y-93145788D01*
X88866510Y-93139320D01*
X88841447Y-93130352D01*
X88817383Y-93118971D01*
X88794551Y-93105286D01*
X88773170Y-93089429D01*
X88753447Y-93071553D01*
X88735571Y-93051830D01*
X88719714Y-93030449D01*
X88706029Y-93007617D01*
X88694648Y-92983553D01*
X88685680Y-92958490D01*
X88679212Y-92932669D01*
X88675306Y-92906338D01*
X88674000Y-92879751D01*
X88674000Y-92120249D01*
X88675306Y-92093662D01*
X88679212Y-92067331D01*
X88685680Y-92041510D01*
X88694648Y-92016447D01*
X88706029Y-91992383D01*
X88719714Y-91969551D01*
X88735571Y-91948170D01*
X88753447Y-91928447D01*
X88773170Y-91910571D01*
X88794551Y-91894714D01*
X88817383Y-91881029D01*
X88841447Y-91869648D01*
X88866510Y-91860680D01*
X88892331Y-91854212D01*
X88918662Y-91850306D01*
X88945249Y-91849000D01*
X90304751Y-91849000D01*
X90331338Y-91850306D01*
G37*
G36*
X90331338Y-86250306D02*
G01*
X90357669Y-86254212D01*
X90383490Y-86260680D01*
X90408553Y-86269648D01*
X90432617Y-86281029D01*
X90455449Y-86294714D01*
X90476830Y-86310571D01*
X90496553Y-86328447D01*
X90514429Y-86348170D01*
X90530286Y-86369551D01*
X90543971Y-86392383D01*
X90555352Y-86416447D01*
X90564320Y-86441510D01*
X90570788Y-86467331D01*
X90574694Y-86493662D01*
X90576000Y-86520249D01*
X90576000Y-87279751D01*
X90574694Y-87306338D01*
X90570788Y-87332669D01*
X90564320Y-87358490D01*
X90555352Y-87383553D01*
X90543971Y-87407617D01*
X90530286Y-87430449D01*
X90514429Y-87451830D01*
X90496553Y-87471553D01*
X90476830Y-87489429D01*
X90455449Y-87505286D01*
X90432617Y-87518971D01*
X90408553Y-87530352D01*
X90383490Y-87539320D01*
X90357669Y-87545788D01*
X90331338Y-87549694D01*
X90304751Y-87551000D01*
X88945249Y-87551000D01*
X88918662Y-87549694D01*
X88892331Y-87545788D01*
X88866510Y-87539320D01*
X88841447Y-87530352D01*
X88817383Y-87518971D01*
X88794551Y-87505286D01*
X88773170Y-87489429D01*
X88753447Y-87471553D01*
X88735571Y-87451830D01*
X88719714Y-87430449D01*
X88706029Y-87407617D01*
X88694648Y-87383553D01*
X88685680Y-87358490D01*
X88679212Y-87332669D01*
X88675306Y-87306338D01*
X88674000Y-87279751D01*
X88674000Y-86520249D01*
X88675306Y-86493662D01*
X88679212Y-86467331D01*
X88685680Y-86441510D01*
X88694648Y-86416447D01*
X88706029Y-86392383D01*
X88719714Y-86369551D01*
X88735571Y-86348170D01*
X88753447Y-86328447D01*
X88773170Y-86310571D01*
X88794551Y-86294714D01*
X88817383Y-86281029D01*
X88841447Y-86269648D01*
X88866510Y-86260680D01*
X88892331Y-86254212D01*
X88918662Y-86250306D01*
X88945249Y-86249000D01*
X90304751Y-86249000D01*
X90331338Y-86250306D01*
G37*
G36*
X94167702Y-90849845D02*
G01*
X94184738Y-90852372D01*
X94201445Y-90856557D01*
X94217661Y-90862359D01*
X94233230Y-90869723D01*
X94248003Y-90878577D01*
X94261836Y-90888837D01*
X94274597Y-90900403D01*
X94286163Y-90913164D01*
X94296423Y-90926997D01*
X94305277Y-90941770D01*
X94312641Y-90957339D01*
X94318443Y-90973555D01*
X94322628Y-90990262D01*
X94325155Y-91007298D01*
X94326000Y-91024500D01*
X94326000Y-91375500D01*
X94325155Y-91392702D01*
X94322628Y-91409738D01*
X94318443Y-91426445D01*
X94312641Y-91442661D01*
X94305277Y-91458230D01*
X94296423Y-91473003D01*
X94286163Y-91486836D01*
X94274597Y-91499597D01*
X94261836Y-91511163D01*
X94248003Y-91521423D01*
X94233230Y-91530277D01*
X94217661Y-91537641D01*
X94201445Y-91543443D01*
X94184738Y-91547628D01*
X94167702Y-91550155D01*
X94150500Y-91551000D01*
X92849500Y-91551000D01*
X92832298Y-91550155D01*
X92815262Y-91547628D01*
X92798555Y-91543443D01*
X92782339Y-91537641D01*
X92766770Y-91530277D01*
X92751997Y-91521423D01*
X92738164Y-91511163D01*
X92725403Y-91499597D01*
X92713837Y-91486836D01*
X92703577Y-91473003D01*
X92694723Y-91458230D01*
X92687359Y-91442661D01*
X92681557Y-91426445D01*
X92677372Y-91409738D01*
X92674845Y-91392702D01*
X92674000Y-91375500D01*
X92674000Y-91024500D01*
X92674845Y-91007298D01*
X92677372Y-90990262D01*
X92681557Y-90973555D01*
X92687359Y-90957339D01*
X92694723Y-90941770D01*
X92703577Y-90926997D01*
X92713837Y-90913164D01*
X92725403Y-90900403D01*
X92738164Y-90888837D01*
X92751997Y-90878577D01*
X92766770Y-90869723D01*
X92782339Y-90862359D01*
X92798555Y-90856557D01*
X92815262Y-90852372D01*
X92832298Y-90849845D01*
X92849500Y-90849000D01*
X94150500Y-90849000D01*
X94167702Y-90849845D01*
G37*
G36*
X94167702Y-89849845D02*
G01*
X94184738Y-89852372D01*
X94201445Y-89856557D01*
X94217661Y-89862359D01*
X94233230Y-89869723D01*
X94248003Y-89878577D01*
X94261836Y-89888837D01*
X94274597Y-89900403D01*
X94286163Y-89913164D01*
X94296423Y-89926997D01*
X94305277Y-89941770D01*
X94312641Y-89957339D01*
X94318443Y-89973555D01*
X94322628Y-89990262D01*
X94325155Y-90007298D01*
X94326000Y-90024500D01*
X94326000Y-90375500D01*
X94325155Y-90392702D01*
X94322628Y-90409738D01*
X94318443Y-90426445D01*
X94312641Y-90442661D01*
X94305277Y-90458230D01*
X94296423Y-90473003D01*
X94286163Y-90486836D01*
X94274597Y-90499597D01*
X94261836Y-90511163D01*
X94248003Y-90521423D01*
X94233230Y-90530277D01*
X94217661Y-90537641D01*
X94201445Y-90543443D01*
X94184738Y-90547628D01*
X94167702Y-90550155D01*
X94150500Y-90551000D01*
X92849500Y-90551000D01*
X92832298Y-90550155D01*
X92815262Y-90547628D01*
X92798555Y-90543443D01*
X92782339Y-90537641D01*
X92766770Y-90530277D01*
X92751997Y-90521423D01*
X92738164Y-90511163D01*
X92725403Y-90499597D01*
X92713837Y-90486836D01*
X92703577Y-90473003D01*
X92694723Y-90458230D01*
X92687359Y-90442661D01*
X92681557Y-90426445D01*
X92677372Y-90409738D01*
X92674845Y-90392702D01*
X92674000Y-90375500D01*
X92674000Y-90024500D01*
X92674845Y-90007298D01*
X92677372Y-89990262D01*
X92681557Y-89973555D01*
X92687359Y-89957339D01*
X92694723Y-89941770D01*
X92703577Y-89926997D01*
X92713837Y-89913164D01*
X92725403Y-89900403D01*
X92738164Y-89888837D01*
X92751997Y-89878577D01*
X92766770Y-89869723D01*
X92782339Y-89862359D01*
X92798555Y-89856557D01*
X92815262Y-89852372D01*
X92832298Y-89849845D01*
X92849500Y-89849000D01*
X94150500Y-89849000D01*
X94167702Y-89849845D01*
G37*
G36*
X94167702Y-88849845D02*
G01*
X94184738Y-88852372D01*
X94201445Y-88856557D01*
X94217661Y-88862359D01*
X94233230Y-88869723D01*
X94248003Y-88878577D01*
X94261836Y-88888837D01*
X94274597Y-88900403D01*
X94286163Y-88913164D01*
X94296423Y-88926997D01*
X94305277Y-88941770D01*
X94312641Y-88957339D01*
X94318443Y-88973555D01*
X94322628Y-88990262D01*
X94325155Y-89007298D01*
X94326000Y-89024500D01*
X94326000Y-89375500D01*
X94325155Y-89392702D01*
X94322628Y-89409738D01*
X94318443Y-89426445D01*
X94312641Y-89442661D01*
X94305277Y-89458230D01*
X94296423Y-89473003D01*
X94286163Y-89486836D01*
X94274597Y-89499597D01*
X94261836Y-89511163D01*
X94248003Y-89521423D01*
X94233230Y-89530277D01*
X94217661Y-89537641D01*
X94201445Y-89543443D01*
X94184738Y-89547628D01*
X94167702Y-89550155D01*
X94150500Y-89551000D01*
X92849500Y-89551000D01*
X92832298Y-89550155D01*
X92815262Y-89547628D01*
X92798555Y-89543443D01*
X92782339Y-89537641D01*
X92766770Y-89530277D01*
X92751997Y-89521423D01*
X92738164Y-89511163D01*
X92725403Y-89499597D01*
X92713837Y-89486836D01*
X92703577Y-89473003D01*
X92694723Y-89458230D01*
X92687359Y-89442661D01*
X92681557Y-89426445D01*
X92677372Y-89409738D01*
X92674845Y-89392702D01*
X92674000Y-89375500D01*
X92674000Y-89024500D01*
X92674845Y-89007298D01*
X92677372Y-88990262D01*
X92681557Y-88973555D01*
X92687359Y-88957339D01*
X92694723Y-88941770D01*
X92703577Y-88926997D01*
X92713837Y-88913164D01*
X92725403Y-88900403D01*
X92738164Y-88888837D01*
X92751997Y-88878577D01*
X92766770Y-88869723D01*
X92782339Y-88862359D01*
X92798555Y-88856557D01*
X92815262Y-88852372D01*
X92832298Y-88849845D01*
X92849500Y-88849000D01*
X94150500Y-88849000D01*
X94167702Y-88849845D01*
G37*
G36*
X94167702Y-87849845D02*
G01*
X94184738Y-87852372D01*
X94201445Y-87856557D01*
X94217661Y-87862359D01*
X94233230Y-87869723D01*
X94248003Y-87878577D01*
X94261836Y-87888837D01*
X94274597Y-87900403D01*
X94286163Y-87913164D01*
X94296423Y-87926997D01*
X94305277Y-87941770D01*
X94312641Y-87957339D01*
X94318443Y-87973555D01*
X94322628Y-87990262D01*
X94325155Y-88007298D01*
X94326000Y-88024500D01*
X94326000Y-88375500D01*
X94325155Y-88392702D01*
X94322628Y-88409738D01*
X94318443Y-88426445D01*
X94312641Y-88442661D01*
X94305277Y-88458230D01*
X94296423Y-88473003D01*
X94286163Y-88486836D01*
X94274597Y-88499597D01*
X94261836Y-88511163D01*
X94248003Y-88521423D01*
X94233230Y-88530277D01*
X94217661Y-88537641D01*
X94201445Y-88543443D01*
X94184738Y-88547628D01*
X94167702Y-88550155D01*
X94150500Y-88551000D01*
X92849500Y-88551000D01*
X92832298Y-88550155D01*
X92815262Y-88547628D01*
X92798555Y-88543443D01*
X92782339Y-88537641D01*
X92766770Y-88530277D01*
X92751997Y-88521423D01*
X92738164Y-88511163D01*
X92725403Y-88499597D01*
X92713837Y-88486836D01*
X92703577Y-88473003D01*
X92694723Y-88458230D01*
X92687359Y-88442661D01*
X92681557Y-88426445D01*
X92677372Y-88409738D01*
X92674845Y-88392702D01*
X92674000Y-88375500D01*
X92674000Y-88024500D01*
X92674845Y-88007298D01*
X92677372Y-87990262D01*
X92681557Y-87973555D01*
X92687359Y-87957339D01*
X92694723Y-87941770D01*
X92703577Y-87926997D01*
X92713837Y-87913164D01*
X92725403Y-87900403D01*
X92738164Y-87888837D01*
X92751997Y-87878577D01*
X92766770Y-87869723D01*
X92782339Y-87862359D01*
X92798555Y-87856557D01*
X92815262Y-87852372D01*
X92832298Y-87849845D01*
X92849500Y-87849000D01*
X94150500Y-87849000D01*
X94167702Y-87849845D01*
G37*
G36*
X90331338Y-83450306D02*
G01*
X90357669Y-83454212D01*
X90383490Y-83460680D01*
X90408553Y-83469648D01*
X90432617Y-83481029D01*
X90455449Y-83494714D01*
X90476830Y-83510571D01*
X90496553Y-83528447D01*
X90514429Y-83548170D01*
X90530286Y-83569551D01*
X90543971Y-83592383D01*
X90555352Y-83616447D01*
X90564320Y-83641510D01*
X90570788Y-83667331D01*
X90574694Y-83693662D01*
X90576000Y-83720249D01*
X90576000Y-84479751D01*
X90574694Y-84506338D01*
X90570788Y-84532669D01*
X90564320Y-84558490D01*
X90555352Y-84583553D01*
X90543971Y-84607617D01*
X90530286Y-84630449D01*
X90514429Y-84651830D01*
X90496553Y-84671553D01*
X90476830Y-84689429D01*
X90455449Y-84705286D01*
X90432617Y-84718971D01*
X90408553Y-84730352D01*
X90383490Y-84739320D01*
X90357669Y-84745788D01*
X90331338Y-84749694D01*
X90304751Y-84751000D01*
X88945249Y-84751000D01*
X88918662Y-84749694D01*
X88892331Y-84745788D01*
X88866510Y-84739320D01*
X88841447Y-84730352D01*
X88817383Y-84718971D01*
X88794551Y-84705286D01*
X88773170Y-84689429D01*
X88753447Y-84671553D01*
X88735571Y-84651830D01*
X88719714Y-84630449D01*
X88706029Y-84607617D01*
X88694648Y-84583553D01*
X88685680Y-84558490D01*
X88679212Y-84532669D01*
X88675306Y-84506338D01*
X88674000Y-84479751D01*
X88674000Y-83720249D01*
X88675306Y-83693662D01*
X88679212Y-83667331D01*
X88685680Y-83641510D01*
X88694648Y-83616447D01*
X88706029Y-83592383D01*
X88719714Y-83569551D01*
X88735571Y-83548170D01*
X88753447Y-83528447D01*
X88773170Y-83510571D01*
X88794551Y-83494714D01*
X88817383Y-83481029D01*
X88841447Y-83469648D01*
X88866510Y-83460680D01*
X88892331Y-83454212D01*
X88918662Y-83450306D01*
X88945249Y-83449000D01*
X90304751Y-83449000D01*
X90331338Y-83450306D01*
G37*
G36*
X90331338Y-77850306D02*
G01*
X90357669Y-77854212D01*
X90383490Y-77860680D01*
X90408553Y-77869648D01*
X90432617Y-77881029D01*
X90455449Y-77894714D01*
X90476830Y-77910571D01*
X90496553Y-77928447D01*
X90514429Y-77948170D01*
X90530286Y-77969551D01*
X90543971Y-77992383D01*
X90555352Y-78016447D01*
X90564320Y-78041510D01*
X90570788Y-78067331D01*
X90574694Y-78093662D01*
X90576000Y-78120249D01*
X90576000Y-78879751D01*
X90574694Y-78906338D01*
X90570788Y-78932669D01*
X90564320Y-78958490D01*
X90555352Y-78983553D01*
X90543971Y-79007617D01*
X90530286Y-79030449D01*
X90514429Y-79051830D01*
X90496553Y-79071553D01*
X90476830Y-79089429D01*
X90455449Y-79105286D01*
X90432617Y-79118971D01*
X90408553Y-79130352D01*
X90383490Y-79139320D01*
X90357669Y-79145788D01*
X90331338Y-79149694D01*
X90304751Y-79151000D01*
X88945249Y-79151000D01*
X88918662Y-79149694D01*
X88892331Y-79145788D01*
X88866510Y-79139320D01*
X88841447Y-79130352D01*
X88817383Y-79118971D01*
X88794551Y-79105286D01*
X88773170Y-79089429D01*
X88753447Y-79071553D01*
X88735571Y-79051830D01*
X88719714Y-79030449D01*
X88706029Y-79007617D01*
X88694648Y-78983553D01*
X88685680Y-78958490D01*
X88679212Y-78932669D01*
X88675306Y-78906338D01*
X88674000Y-78879751D01*
X88674000Y-78120249D01*
X88675306Y-78093662D01*
X88679212Y-78067331D01*
X88685680Y-78041510D01*
X88694648Y-78016447D01*
X88706029Y-77992383D01*
X88719714Y-77969551D01*
X88735571Y-77948170D01*
X88753447Y-77928447D01*
X88773170Y-77910571D01*
X88794551Y-77894714D01*
X88817383Y-77881029D01*
X88841447Y-77869648D01*
X88866510Y-77860680D01*
X88892331Y-77854212D01*
X88918662Y-77850306D01*
X88945249Y-77849000D01*
X90304751Y-77849000D01*
X90331338Y-77850306D01*
G37*
G36*
X94167702Y-82449845D02*
G01*
X94184738Y-82452372D01*
X94201445Y-82456557D01*
X94217661Y-82462359D01*
X94233230Y-82469723D01*
X94248003Y-82478577D01*
X94261836Y-82488837D01*
X94274597Y-82500403D01*
X94286163Y-82513164D01*
X94296423Y-82526997D01*
X94305277Y-82541770D01*
X94312641Y-82557339D01*
X94318443Y-82573555D01*
X94322628Y-82590262D01*
X94325155Y-82607298D01*
X94326000Y-82624500D01*
X94326000Y-82975500D01*
X94325155Y-82992702D01*
X94322628Y-83009738D01*
X94318443Y-83026445D01*
X94312641Y-83042661D01*
X94305277Y-83058230D01*
X94296423Y-83073003D01*
X94286163Y-83086836D01*
X94274597Y-83099597D01*
X94261836Y-83111163D01*
X94248003Y-83121423D01*
X94233230Y-83130277D01*
X94217661Y-83137641D01*
X94201445Y-83143443D01*
X94184738Y-83147628D01*
X94167702Y-83150155D01*
X94150500Y-83151000D01*
X92849500Y-83151000D01*
X92832298Y-83150155D01*
X92815262Y-83147628D01*
X92798555Y-83143443D01*
X92782339Y-83137641D01*
X92766770Y-83130277D01*
X92751997Y-83121423D01*
X92738164Y-83111163D01*
X92725403Y-83099597D01*
X92713837Y-83086836D01*
X92703577Y-83073003D01*
X92694723Y-83058230D01*
X92687359Y-83042661D01*
X92681557Y-83026445D01*
X92677372Y-83009738D01*
X92674845Y-82992702D01*
X92674000Y-82975500D01*
X92674000Y-82624500D01*
X92674845Y-82607298D01*
X92677372Y-82590262D01*
X92681557Y-82573555D01*
X92687359Y-82557339D01*
X92694723Y-82541770D01*
X92703577Y-82526997D01*
X92713837Y-82513164D01*
X92725403Y-82500403D01*
X92738164Y-82488837D01*
X92751997Y-82478577D01*
X92766770Y-82469723D01*
X92782339Y-82462359D01*
X92798555Y-82456557D01*
X92815262Y-82452372D01*
X92832298Y-82449845D01*
X92849500Y-82449000D01*
X94150500Y-82449000D01*
X94167702Y-82449845D01*
G37*
G36*
X94167702Y-81449845D02*
G01*
X94184738Y-81452372D01*
X94201445Y-81456557D01*
X94217661Y-81462359D01*
X94233230Y-81469723D01*
X94248003Y-81478577D01*
X94261836Y-81488837D01*
X94274597Y-81500403D01*
X94286163Y-81513164D01*
X94296423Y-81526997D01*
X94305277Y-81541770D01*
X94312641Y-81557339D01*
X94318443Y-81573555D01*
X94322628Y-81590262D01*
X94325155Y-81607298D01*
X94326000Y-81624500D01*
X94326000Y-81975500D01*
X94325155Y-81992702D01*
X94322628Y-82009738D01*
X94318443Y-82026445D01*
X94312641Y-82042661D01*
X94305277Y-82058230D01*
X94296423Y-82073003D01*
X94286163Y-82086836D01*
X94274597Y-82099597D01*
X94261836Y-82111163D01*
X94248003Y-82121423D01*
X94233230Y-82130277D01*
X94217661Y-82137641D01*
X94201445Y-82143443D01*
X94184738Y-82147628D01*
X94167702Y-82150155D01*
X94150500Y-82151000D01*
X92849500Y-82151000D01*
X92832298Y-82150155D01*
X92815262Y-82147628D01*
X92798555Y-82143443D01*
X92782339Y-82137641D01*
X92766770Y-82130277D01*
X92751997Y-82121423D01*
X92738164Y-82111163D01*
X92725403Y-82099597D01*
X92713837Y-82086836D01*
X92703577Y-82073003D01*
X92694723Y-82058230D01*
X92687359Y-82042661D01*
X92681557Y-82026445D01*
X92677372Y-82009738D01*
X92674845Y-81992702D01*
X92674000Y-81975500D01*
X92674000Y-81624500D01*
X92674845Y-81607298D01*
X92677372Y-81590262D01*
X92681557Y-81573555D01*
X92687359Y-81557339D01*
X92694723Y-81541770D01*
X92703577Y-81526997D01*
X92713837Y-81513164D01*
X92725403Y-81500403D01*
X92738164Y-81488837D01*
X92751997Y-81478577D01*
X92766770Y-81469723D01*
X92782339Y-81462359D01*
X92798555Y-81456557D01*
X92815262Y-81452372D01*
X92832298Y-81449845D01*
X92849500Y-81449000D01*
X94150500Y-81449000D01*
X94167702Y-81449845D01*
G37*
G36*
X94167702Y-80449845D02*
G01*
X94184738Y-80452372D01*
X94201445Y-80456557D01*
X94217661Y-80462359D01*
X94233230Y-80469723D01*
X94248003Y-80478577D01*
X94261836Y-80488837D01*
X94274597Y-80500403D01*
X94286163Y-80513164D01*
X94296423Y-80526997D01*
X94305277Y-80541770D01*
X94312641Y-80557339D01*
X94318443Y-80573555D01*
X94322628Y-80590262D01*
X94325155Y-80607298D01*
X94326000Y-80624500D01*
X94326000Y-80975500D01*
X94325155Y-80992702D01*
X94322628Y-81009738D01*
X94318443Y-81026445D01*
X94312641Y-81042661D01*
X94305277Y-81058230D01*
X94296423Y-81073003D01*
X94286163Y-81086836D01*
X94274597Y-81099597D01*
X94261836Y-81111163D01*
X94248003Y-81121423D01*
X94233230Y-81130277D01*
X94217661Y-81137641D01*
X94201445Y-81143443D01*
X94184738Y-81147628D01*
X94167702Y-81150155D01*
X94150500Y-81151000D01*
X92849500Y-81151000D01*
X92832298Y-81150155D01*
X92815262Y-81147628D01*
X92798555Y-81143443D01*
X92782339Y-81137641D01*
X92766770Y-81130277D01*
X92751997Y-81121423D01*
X92738164Y-81111163D01*
X92725403Y-81099597D01*
X92713837Y-81086836D01*
X92703577Y-81073003D01*
X92694723Y-81058230D01*
X92687359Y-81042661D01*
X92681557Y-81026445D01*
X92677372Y-81009738D01*
X92674845Y-80992702D01*
X92674000Y-80975500D01*
X92674000Y-80624500D01*
X92674845Y-80607298D01*
X92677372Y-80590262D01*
X92681557Y-80573555D01*
X92687359Y-80557339D01*
X92694723Y-80541770D01*
X92703577Y-80526997D01*
X92713837Y-80513164D01*
X92725403Y-80500403D01*
X92738164Y-80488837D01*
X92751997Y-80478577D01*
X92766770Y-80469723D01*
X92782339Y-80462359D01*
X92798555Y-80456557D01*
X92815262Y-80452372D01*
X92832298Y-80449845D01*
X92849500Y-80449000D01*
X94150500Y-80449000D01*
X94167702Y-80449845D01*
G37*
G36*
X94167702Y-79449845D02*
G01*
X94184738Y-79452372D01*
X94201445Y-79456557D01*
X94217661Y-79462359D01*
X94233230Y-79469723D01*
X94248003Y-79478577D01*
X94261836Y-79488837D01*
X94274597Y-79500403D01*
X94286163Y-79513164D01*
X94296423Y-79526997D01*
X94305277Y-79541770D01*
X94312641Y-79557339D01*
X94318443Y-79573555D01*
X94322628Y-79590262D01*
X94325155Y-79607298D01*
X94326000Y-79624500D01*
X94326000Y-79975500D01*
X94325155Y-79992702D01*
X94322628Y-80009738D01*
X94318443Y-80026445D01*
X94312641Y-80042661D01*
X94305277Y-80058230D01*
X94296423Y-80073003D01*
X94286163Y-80086836D01*
X94274597Y-80099597D01*
X94261836Y-80111163D01*
X94248003Y-80121423D01*
X94233230Y-80130277D01*
X94217661Y-80137641D01*
X94201445Y-80143443D01*
X94184738Y-80147628D01*
X94167702Y-80150155D01*
X94150500Y-80151000D01*
X92849500Y-80151000D01*
X92832298Y-80150155D01*
X92815262Y-80147628D01*
X92798555Y-80143443D01*
X92782339Y-80137641D01*
X92766770Y-80130277D01*
X92751997Y-80121423D01*
X92738164Y-80111163D01*
X92725403Y-80099597D01*
X92713837Y-80086836D01*
X92703577Y-80073003D01*
X92694723Y-80058230D01*
X92687359Y-80042661D01*
X92681557Y-80026445D01*
X92677372Y-80009738D01*
X92674845Y-79992702D01*
X92674000Y-79975500D01*
X92674000Y-79624500D01*
X92674845Y-79607298D01*
X92677372Y-79590262D01*
X92681557Y-79573555D01*
X92687359Y-79557339D01*
X92694723Y-79541770D01*
X92703577Y-79526997D01*
X92713837Y-79513164D01*
X92725403Y-79500403D01*
X92738164Y-79488837D01*
X92751997Y-79478577D01*
X92766770Y-79469723D01*
X92782339Y-79462359D01*
X92798555Y-79456557D01*
X92815262Y-79452372D01*
X92832298Y-79449845D01*
X92849500Y-79449000D01*
X94150500Y-79449000D01*
X94167702Y-79449845D01*
G37*
G36*
X90331338Y-74950306D02*
G01*
X90357669Y-74954212D01*
X90383490Y-74960680D01*
X90408553Y-74969648D01*
X90432617Y-74981029D01*
X90455449Y-74994714D01*
X90476830Y-75010571D01*
X90496553Y-75028447D01*
X90514429Y-75048170D01*
X90530286Y-75069551D01*
X90543971Y-75092383D01*
X90555352Y-75116447D01*
X90564320Y-75141510D01*
X90570788Y-75167331D01*
X90574694Y-75193662D01*
X90576000Y-75220249D01*
X90576000Y-75979751D01*
X90574694Y-76006338D01*
X90570788Y-76032669D01*
X90564320Y-76058490D01*
X90555352Y-76083553D01*
X90543971Y-76107617D01*
X90530286Y-76130449D01*
X90514429Y-76151830D01*
X90496553Y-76171553D01*
X90476830Y-76189429D01*
X90455449Y-76205286D01*
X90432617Y-76218971D01*
X90408553Y-76230352D01*
X90383490Y-76239320D01*
X90357669Y-76245788D01*
X90331338Y-76249694D01*
X90304751Y-76251000D01*
X88945249Y-76251000D01*
X88918662Y-76249694D01*
X88892331Y-76245788D01*
X88866510Y-76239320D01*
X88841447Y-76230352D01*
X88817383Y-76218971D01*
X88794551Y-76205286D01*
X88773170Y-76189429D01*
X88753447Y-76171553D01*
X88735571Y-76151830D01*
X88719714Y-76130449D01*
X88706029Y-76107617D01*
X88694648Y-76083553D01*
X88685680Y-76058490D01*
X88679212Y-76032669D01*
X88675306Y-76006338D01*
X88674000Y-75979751D01*
X88674000Y-75220249D01*
X88675306Y-75193662D01*
X88679212Y-75167331D01*
X88685680Y-75141510D01*
X88694648Y-75116447D01*
X88706029Y-75092383D01*
X88719714Y-75069551D01*
X88735571Y-75048170D01*
X88753447Y-75028447D01*
X88773170Y-75010571D01*
X88794551Y-74994714D01*
X88817383Y-74981029D01*
X88841447Y-74969648D01*
X88866510Y-74960680D01*
X88892331Y-74954212D01*
X88918662Y-74950306D01*
X88945249Y-74949000D01*
X90304751Y-74949000D01*
X90331338Y-74950306D01*
G37*
G36*
X90331338Y-69350306D02*
G01*
X90357669Y-69354212D01*
X90383490Y-69360680D01*
X90408553Y-69369648D01*
X90432617Y-69381029D01*
X90455449Y-69394714D01*
X90476830Y-69410571D01*
X90496553Y-69428447D01*
X90514429Y-69448170D01*
X90530286Y-69469551D01*
X90543971Y-69492383D01*
X90555352Y-69516447D01*
X90564320Y-69541510D01*
X90570788Y-69567331D01*
X90574694Y-69593662D01*
X90576000Y-69620249D01*
X90576000Y-70379751D01*
X90574694Y-70406338D01*
X90570788Y-70432669D01*
X90564320Y-70458490D01*
X90555352Y-70483553D01*
X90543971Y-70507617D01*
X90530286Y-70530449D01*
X90514429Y-70551830D01*
X90496553Y-70571553D01*
X90476830Y-70589429D01*
X90455449Y-70605286D01*
X90432617Y-70618971D01*
X90408553Y-70630352D01*
X90383490Y-70639320D01*
X90357669Y-70645788D01*
X90331338Y-70649694D01*
X90304751Y-70651000D01*
X88945249Y-70651000D01*
X88918662Y-70649694D01*
X88892331Y-70645788D01*
X88866510Y-70639320D01*
X88841447Y-70630352D01*
X88817383Y-70618971D01*
X88794551Y-70605286D01*
X88773170Y-70589429D01*
X88753447Y-70571553D01*
X88735571Y-70551830D01*
X88719714Y-70530449D01*
X88706029Y-70507617D01*
X88694648Y-70483553D01*
X88685680Y-70458490D01*
X88679212Y-70432669D01*
X88675306Y-70406338D01*
X88674000Y-70379751D01*
X88674000Y-69620249D01*
X88675306Y-69593662D01*
X88679212Y-69567331D01*
X88685680Y-69541510D01*
X88694648Y-69516447D01*
X88706029Y-69492383D01*
X88719714Y-69469551D01*
X88735571Y-69448170D01*
X88753447Y-69428447D01*
X88773170Y-69410571D01*
X88794551Y-69394714D01*
X88817383Y-69381029D01*
X88841447Y-69369648D01*
X88866510Y-69360680D01*
X88892331Y-69354212D01*
X88918662Y-69350306D01*
X88945249Y-69349000D01*
X90304751Y-69349000D01*
X90331338Y-69350306D01*
G37*
G36*
X94167702Y-73949845D02*
G01*
X94184738Y-73952372D01*
X94201445Y-73956557D01*
X94217661Y-73962359D01*
X94233230Y-73969723D01*
X94248003Y-73978577D01*
X94261836Y-73988837D01*
X94274597Y-74000403D01*
X94286163Y-74013164D01*
X94296423Y-74026997D01*
X94305277Y-74041770D01*
X94312641Y-74057339D01*
X94318443Y-74073555D01*
X94322628Y-74090262D01*
X94325155Y-74107298D01*
X94326000Y-74124500D01*
X94326000Y-74475500D01*
X94325155Y-74492702D01*
X94322628Y-74509738D01*
X94318443Y-74526445D01*
X94312641Y-74542661D01*
X94305277Y-74558230D01*
X94296423Y-74573003D01*
X94286163Y-74586836D01*
X94274597Y-74599597D01*
X94261836Y-74611163D01*
X94248003Y-74621423D01*
X94233230Y-74630277D01*
X94217661Y-74637641D01*
X94201445Y-74643443D01*
X94184738Y-74647628D01*
X94167702Y-74650155D01*
X94150500Y-74651000D01*
X92849500Y-74651000D01*
X92832298Y-74650155D01*
X92815262Y-74647628D01*
X92798555Y-74643443D01*
X92782339Y-74637641D01*
X92766770Y-74630277D01*
X92751997Y-74621423D01*
X92738164Y-74611163D01*
X92725403Y-74599597D01*
X92713837Y-74586836D01*
X92703577Y-74573003D01*
X92694723Y-74558230D01*
X92687359Y-74542661D01*
X92681557Y-74526445D01*
X92677372Y-74509738D01*
X92674845Y-74492702D01*
X92674000Y-74475500D01*
X92674000Y-74124500D01*
X92674845Y-74107298D01*
X92677372Y-74090262D01*
X92681557Y-74073555D01*
X92687359Y-74057339D01*
X92694723Y-74041770D01*
X92703577Y-74026997D01*
X92713837Y-74013164D01*
X92725403Y-74000403D01*
X92738164Y-73988837D01*
X92751997Y-73978577D01*
X92766770Y-73969723D01*
X92782339Y-73962359D01*
X92798555Y-73956557D01*
X92815262Y-73952372D01*
X92832298Y-73949845D01*
X92849500Y-73949000D01*
X94150500Y-73949000D01*
X94167702Y-73949845D01*
G37*
G36*
X94167702Y-72949845D02*
G01*
X94184738Y-72952372D01*
X94201445Y-72956557D01*
X94217661Y-72962359D01*
X94233230Y-72969723D01*
X94248003Y-72978577D01*
X94261836Y-72988837D01*
X94274597Y-73000403D01*
X94286163Y-73013164D01*
X94296423Y-73026997D01*
X94305277Y-73041770D01*
X94312641Y-73057339D01*
X94318443Y-73073555D01*
X94322628Y-73090262D01*
X94325155Y-73107298D01*
X94326000Y-73124500D01*
X94326000Y-73475500D01*
X94325155Y-73492702D01*
X94322628Y-73509738D01*
X94318443Y-73526445D01*
X94312641Y-73542661D01*
X94305277Y-73558230D01*
X94296423Y-73573003D01*
X94286163Y-73586836D01*
X94274597Y-73599597D01*
X94261836Y-73611163D01*
X94248003Y-73621423D01*
X94233230Y-73630277D01*
X94217661Y-73637641D01*
X94201445Y-73643443D01*
X94184738Y-73647628D01*
X94167702Y-73650155D01*
X94150500Y-73651000D01*
X92849500Y-73651000D01*
X92832298Y-73650155D01*
X92815262Y-73647628D01*
X92798555Y-73643443D01*
X92782339Y-73637641D01*
X92766770Y-73630277D01*
X92751997Y-73621423D01*
X92738164Y-73611163D01*
X92725403Y-73599597D01*
X92713837Y-73586836D01*
X92703577Y-73573003D01*
X92694723Y-73558230D01*
X92687359Y-73542661D01*
X92681557Y-73526445D01*
X92677372Y-73509738D01*
X92674845Y-73492702D01*
X92674000Y-73475500D01*
X92674000Y-73124500D01*
X92674845Y-73107298D01*
X92677372Y-73090262D01*
X92681557Y-73073555D01*
X92687359Y-73057339D01*
X92694723Y-73041770D01*
X92703577Y-73026997D01*
X92713837Y-73013164D01*
X92725403Y-73000403D01*
X92738164Y-72988837D01*
X92751997Y-72978577D01*
X92766770Y-72969723D01*
X92782339Y-72962359D01*
X92798555Y-72956557D01*
X92815262Y-72952372D01*
X92832298Y-72949845D01*
X92849500Y-72949000D01*
X94150500Y-72949000D01*
X94167702Y-72949845D01*
G37*
G36*
X94167702Y-71949845D02*
G01*
X94184738Y-71952372D01*
X94201445Y-71956557D01*
X94217661Y-71962359D01*
X94233230Y-71969723D01*
X94248003Y-71978577D01*
X94261836Y-71988837D01*
X94274597Y-72000403D01*
X94286163Y-72013164D01*
X94296423Y-72026997D01*
X94305277Y-72041770D01*
X94312641Y-72057339D01*
X94318443Y-72073555D01*
X94322628Y-72090262D01*
X94325155Y-72107298D01*
X94326000Y-72124500D01*
X94326000Y-72475500D01*
X94325155Y-72492702D01*
X94322628Y-72509738D01*
X94318443Y-72526445D01*
X94312641Y-72542661D01*
X94305277Y-72558230D01*
X94296423Y-72573003D01*
X94286163Y-72586836D01*
X94274597Y-72599597D01*
X94261836Y-72611163D01*
X94248003Y-72621423D01*
X94233230Y-72630277D01*
X94217661Y-72637641D01*
X94201445Y-72643443D01*
X94184738Y-72647628D01*
X94167702Y-72650155D01*
X94150500Y-72651000D01*
X92849500Y-72651000D01*
X92832298Y-72650155D01*
X92815262Y-72647628D01*
X92798555Y-72643443D01*
X92782339Y-72637641D01*
X92766770Y-72630277D01*
X92751997Y-72621423D01*
X92738164Y-72611163D01*
X92725403Y-72599597D01*
X92713837Y-72586836D01*
X92703577Y-72573003D01*
X92694723Y-72558230D01*
X92687359Y-72542661D01*
X92681557Y-72526445D01*
X92677372Y-72509738D01*
X92674845Y-72492702D01*
X92674000Y-72475500D01*
X92674000Y-72124500D01*
X92674845Y-72107298D01*
X92677372Y-72090262D01*
X92681557Y-72073555D01*
X92687359Y-72057339D01*
X92694723Y-72041770D01*
X92703577Y-72026997D01*
X92713837Y-72013164D01*
X92725403Y-72000403D01*
X92738164Y-71988837D01*
X92751997Y-71978577D01*
X92766770Y-71969723D01*
X92782339Y-71962359D01*
X92798555Y-71956557D01*
X92815262Y-71952372D01*
X92832298Y-71949845D01*
X92849500Y-71949000D01*
X94150500Y-71949000D01*
X94167702Y-71949845D01*
G37*
G36*
X94167702Y-70949845D02*
G01*
X94184738Y-70952372D01*
X94201445Y-70956557D01*
X94217661Y-70962359D01*
X94233230Y-70969723D01*
X94248003Y-70978577D01*
X94261836Y-70988837D01*
X94274597Y-71000403D01*
X94286163Y-71013164D01*
X94296423Y-71026997D01*
X94305277Y-71041770D01*
X94312641Y-71057339D01*
X94318443Y-71073555D01*
X94322628Y-71090262D01*
X94325155Y-71107298D01*
X94326000Y-71124500D01*
X94326000Y-71475500D01*
X94325155Y-71492702D01*
X94322628Y-71509738D01*
X94318443Y-71526445D01*
X94312641Y-71542661D01*
X94305277Y-71558230D01*
X94296423Y-71573003D01*
X94286163Y-71586836D01*
X94274597Y-71599597D01*
X94261836Y-71611163D01*
X94248003Y-71621423D01*
X94233230Y-71630277D01*
X94217661Y-71637641D01*
X94201445Y-71643443D01*
X94184738Y-71647628D01*
X94167702Y-71650155D01*
X94150500Y-71651000D01*
X92849500Y-71651000D01*
X92832298Y-71650155D01*
X92815262Y-71647628D01*
X92798555Y-71643443D01*
X92782339Y-71637641D01*
X92766770Y-71630277D01*
X92751997Y-71621423D01*
X92738164Y-71611163D01*
X92725403Y-71599597D01*
X92713837Y-71586836D01*
X92703577Y-71573003D01*
X92694723Y-71558230D01*
X92687359Y-71542661D01*
X92681557Y-71526445D01*
X92677372Y-71509738D01*
X92674845Y-71492702D01*
X92674000Y-71475500D01*
X92674000Y-71124500D01*
X92674845Y-71107298D01*
X92677372Y-71090262D01*
X92681557Y-71073555D01*
X92687359Y-71057339D01*
X92694723Y-71041770D01*
X92703577Y-71026997D01*
X92713837Y-71013164D01*
X92725403Y-71000403D01*
X92738164Y-70988837D01*
X92751997Y-70978577D01*
X92766770Y-70969723D01*
X92782339Y-70962359D01*
X92798555Y-70956557D01*
X92815262Y-70952372D01*
X92832298Y-70949845D01*
X92849500Y-70949000D01*
X94150500Y-70949000D01*
X94167702Y-70949845D01*
G37*
G36*
X90231338Y-66650306D02*
G01*
X90257669Y-66654212D01*
X90283490Y-66660680D01*
X90308553Y-66669648D01*
X90332617Y-66681029D01*
X90355449Y-66694714D01*
X90376830Y-66710571D01*
X90396553Y-66728447D01*
X90414429Y-66748170D01*
X90430286Y-66769551D01*
X90443971Y-66792383D01*
X90455352Y-66816447D01*
X90464320Y-66841510D01*
X90470788Y-66867331D01*
X90474694Y-66893662D01*
X90476000Y-66920249D01*
X90476000Y-67679751D01*
X90474694Y-67706338D01*
X90470788Y-67732669D01*
X90464320Y-67758490D01*
X90455352Y-67783553D01*
X90443971Y-67807617D01*
X90430286Y-67830449D01*
X90414429Y-67851830D01*
X90396553Y-67871553D01*
X90376830Y-67889429D01*
X90355449Y-67905286D01*
X90332617Y-67918971D01*
X90308553Y-67930352D01*
X90283490Y-67939320D01*
X90257669Y-67945788D01*
X90231338Y-67949694D01*
X90204751Y-67951000D01*
X88845249Y-67951000D01*
X88818662Y-67949694D01*
X88792331Y-67945788D01*
X88766510Y-67939320D01*
X88741447Y-67930352D01*
X88717383Y-67918971D01*
X88694551Y-67905286D01*
X88673170Y-67889429D01*
X88653447Y-67871553D01*
X88635571Y-67851830D01*
X88619714Y-67830449D01*
X88606029Y-67807617D01*
X88594648Y-67783553D01*
X88585680Y-67758490D01*
X88579212Y-67732669D01*
X88575306Y-67706338D01*
X88574000Y-67679751D01*
X88574000Y-66920249D01*
X88575306Y-66893662D01*
X88579212Y-66867331D01*
X88585680Y-66841510D01*
X88594648Y-66816447D01*
X88606029Y-66792383D01*
X88619714Y-66769551D01*
X88635571Y-66748170D01*
X88653447Y-66728447D01*
X88673170Y-66710571D01*
X88694551Y-66694714D01*
X88717383Y-66681029D01*
X88741447Y-66669648D01*
X88766510Y-66660680D01*
X88792331Y-66654212D01*
X88818662Y-66650306D01*
X88845249Y-66649000D01*
X90204751Y-66649000D01*
X90231338Y-66650306D01*
G37*
G36*
X90231338Y-61050306D02*
G01*
X90257669Y-61054212D01*
X90283490Y-61060680D01*
X90308553Y-61069648D01*
X90332617Y-61081029D01*
X90355449Y-61094714D01*
X90376830Y-61110571D01*
X90396553Y-61128447D01*
X90414429Y-61148170D01*
X90430286Y-61169551D01*
X90443971Y-61192383D01*
X90455352Y-61216447D01*
X90464320Y-61241510D01*
X90470788Y-61267331D01*
X90474694Y-61293662D01*
X90476000Y-61320249D01*
X90476000Y-62079751D01*
X90474694Y-62106338D01*
X90470788Y-62132669D01*
X90464320Y-62158490D01*
X90455352Y-62183553D01*
X90443971Y-62207617D01*
X90430286Y-62230449D01*
X90414429Y-62251830D01*
X90396553Y-62271553D01*
X90376830Y-62289429D01*
X90355449Y-62305286D01*
X90332617Y-62318971D01*
X90308553Y-62330352D01*
X90283490Y-62339320D01*
X90257669Y-62345788D01*
X90231338Y-62349694D01*
X90204751Y-62351000D01*
X88845249Y-62351000D01*
X88818662Y-62349694D01*
X88792331Y-62345788D01*
X88766510Y-62339320D01*
X88741447Y-62330352D01*
X88717383Y-62318971D01*
X88694551Y-62305286D01*
X88673170Y-62289429D01*
X88653447Y-62271553D01*
X88635571Y-62251830D01*
X88619714Y-62230449D01*
X88606029Y-62207617D01*
X88594648Y-62183553D01*
X88585680Y-62158490D01*
X88579212Y-62132669D01*
X88575306Y-62106338D01*
X88574000Y-62079751D01*
X88574000Y-61320249D01*
X88575306Y-61293662D01*
X88579212Y-61267331D01*
X88585680Y-61241510D01*
X88594648Y-61216447D01*
X88606029Y-61192383D01*
X88619714Y-61169551D01*
X88635571Y-61148170D01*
X88653447Y-61128447D01*
X88673170Y-61110571D01*
X88694551Y-61094714D01*
X88717383Y-61081029D01*
X88741447Y-61069648D01*
X88766510Y-61060680D01*
X88792331Y-61054212D01*
X88818662Y-61050306D01*
X88845249Y-61049000D01*
X90204751Y-61049000D01*
X90231338Y-61050306D01*
G37*
G36*
X94067702Y-65649845D02*
G01*
X94084738Y-65652372D01*
X94101445Y-65656557D01*
X94117661Y-65662359D01*
X94133230Y-65669723D01*
X94148003Y-65678577D01*
X94161836Y-65688837D01*
X94174597Y-65700403D01*
X94186163Y-65713164D01*
X94196423Y-65726997D01*
X94205277Y-65741770D01*
X94212641Y-65757339D01*
X94218443Y-65773555D01*
X94222628Y-65790262D01*
X94225155Y-65807298D01*
X94226000Y-65824500D01*
X94226000Y-66175500D01*
X94225155Y-66192702D01*
X94222628Y-66209738D01*
X94218443Y-66226445D01*
X94212641Y-66242661D01*
X94205277Y-66258230D01*
X94196423Y-66273003D01*
X94186163Y-66286836D01*
X94174597Y-66299597D01*
X94161836Y-66311163D01*
X94148003Y-66321423D01*
X94133230Y-66330277D01*
X94117661Y-66337641D01*
X94101445Y-66343443D01*
X94084738Y-66347628D01*
X94067702Y-66350155D01*
X94050500Y-66351000D01*
X92749500Y-66351000D01*
X92732298Y-66350155D01*
X92715262Y-66347628D01*
X92698555Y-66343443D01*
X92682339Y-66337641D01*
X92666770Y-66330277D01*
X92651997Y-66321423D01*
X92638164Y-66311163D01*
X92625403Y-66299597D01*
X92613837Y-66286836D01*
X92603577Y-66273003D01*
X92594723Y-66258230D01*
X92587359Y-66242661D01*
X92581557Y-66226445D01*
X92577372Y-66209738D01*
X92574845Y-66192702D01*
X92574000Y-66175500D01*
X92574000Y-65824500D01*
X92574845Y-65807298D01*
X92577372Y-65790262D01*
X92581557Y-65773555D01*
X92587359Y-65757339D01*
X92594723Y-65741770D01*
X92603577Y-65726997D01*
X92613837Y-65713164D01*
X92625403Y-65700403D01*
X92638164Y-65688837D01*
X92651997Y-65678577D01*
X92666770Y-65669723D01*
X92682339Y-65662359D01*
X92698555Y-65656557D01*
X92715262Y-65652372D01*
X92732298Y-65649845D01*
X92749500Y-65649000D01*
X94050500Y-65649000D01*
X94067702Y-65649845D01*
G37*
G36*
X94067702Y-64649845D02*
G01*
X94084738Y-64652372D01*
X94101445Y-64656557D01*
X94117661Y-64662359D01*
X94133230Y-64669723D01*
X94148003Y-64678577D01*
X94161836Y-64688837D01*
X94174597Y-64700403D01*
X94186163Y-64713164D01*
X94196423Y-64726997D01*
X94205277Y-64741770D01*
X94212641Y-64757339D01*
X94218443Y-64773555D01*
X94222628Y-64790262D01*
X94225155Y-64807298D01*
X94226000Y-64824500D01*
X94226000Y-65175500D01*
X94225155Y-65192702D01*
X94222628Y-65209738D01*
X94218443Y-65226445D01*
X94212641Y-65242661D01*
X94205277Y-65258230D01*
X94196423Y-65273003D01*
X94186163Y-65286836D01*
X94174597Y-65299597D01*
X94161836Y-65311163D01*
X94148003Y-65321423D01*
X94133230Y-65330277D01*
X94117661Y-65337641D01*
X94101445Y-65343443D01*
X94084738Y-65347628D01*
X94067702Y-65350155D01*
X94050500Y-65351000D01*
X92749500Y-65351000D01*
X92732298Y-65350155D01*
X92715262Y-65347628D01*
X92698555Y-65343443D01*
X92682339Y-65337641D01*
X92666770Y-65330277D01*
X92651997Y-65321423D01*
X92638164Y-65311163D01*
X92625403Y-65299597D01*
X92613837Y-65286836D01*
X92603577Y-65273003D01*
X92594723Y-65258230D01*
X92587359Y-65242661D01*
X92581557Y-65226445D01*
X92577372Y-65209738D01*
X92574845Y-65192702D01*
X92574000Y-65175500D01*
X92574000Y-64824500D01*
X92574845Y-64807298D01*
X92577372Y-64790262D01*
X92581557Y-64773555D01*
X92587359Y-64757339D01*
X92594723Y-64741770D01*
X92603577Y-64726997D01*
X92613837Y-64713164D01*
X92625403Y-64700403D01*
X92638164Y-64688837D01*
X92651997Y-64678577D01*
X92666770Y-64669723D01*
X92682339Y-64662359D01*
X92698555Y-64656557D01*
X92715262Y-64652372D01*
X92732298Y-64649845D01*
X92749500Y-64649000D01*
X94050500Y-64649000D01*
X94067702Y-64649845D01*
G37*
G36*
X94067702Y-63649845D02*
G01*
X94084738Y-63652372D01*
X94101445Y-63656557D01*
X94117661Y-63662359D01*
X94133230Y-63669723D01*
X94148003Y-63678577D01*
X94161836Y-63688837D01*
X94174597Y-63700403D01*
X94186163Y-63713164D01*
X94196423Y-63726997D01*
X94205277Y-63741770D01*
X94212641Y-63757339D01*
X94218443Y-63773555D01*
X94222628Y-63790262D01*
X94225155Y-63807298D01*
X94226000Y-63824500D01*
X94226000Y-64175500D01*
X94225155Y-64192702D01*
X94222628Y-64209738D01*
X94218443Y-64226445D01*
X94212641Y-64242661D01*
X94205277Y-64258230D01*
X94196423Y-64273003D01*
X94186163Y-64286836D01*
X94174597Y-64299597D01*
X94161836Y-64311163D01*
X94148003Y-64321423D01*
X94133230Y-64330277D01*
X94117661Y-64337641D01*
X94101445Y-64343443D01*
X94084738Y-64347628D01*
X94067702Y-64350155D01*
X94050500Y-64351000D01*
X92749500Y-64351000D01*
X92732298Y-64350155D01*
X92715262Y-64347628D01*
X92698555Y-64343443D01*
X92682339Y-64337641D01*
X92666770Y-64330277D01*
X92651997Y-64321423D01*
X92638164Y-64311163D01*
X92625403Y-64299597D01*
X92613837Y-64286836D01*
X92603577Y-64273003D01*
X92594723Y-64258230D01*
X92587359Y-64242661D01*
X92581557Y-64226445D01*
X92577372Y-64209738D01*
X92574845Y-64192702D01*
X92574000Y-64175500D01*
X92574000Y-63824500D01*
X92574845Y-63807298D01*
X92577372Y-63790262D01*
X92581557Y-63773555D01*
X92587359Y-63757339D01*
X92594723Y-63741770D01*
X92603577Y-63726997D01*
X92613837Y-63713164D01*
X92625403Y-63700403D01*
X92638164Y-63688837D01*
X92651997Y-63678577D01*
X92666770Y-63669723D01*
X92682339Y-63662359D01*
X92698555Y-63656557D01*
X92715262Y-63652372D01*
X92732298Y-63649845D01*
X92749500Y-63649000D01*
X94050500Y-63649000D01*
X94067702Y-63649845D01*
G37*
G36*
X94067702Y-62649845D02*
G01*
X94084738Y-62652372D01*
X94101445Y-62656557D01*
X94117661Y-62662359D01*
X94133230Y-62669723D01*
X94148003Y-62678577D01*
X94161836Y-62688837D01*
X94174597Y-62700403D01*
X94186163Y-62713164D01*
X94196423Y-62726997D01*
X94205277Y-62741770D01*
X94212641Y-62757339D01*
X94218443Y-62773555D01*
X94222628Y-62790262D01*
X94225155Y-62807298D01*
X94226000Y-62824500D01*
X94226000Y-63175500D01*
X94225155Y-63192702D01*
X94222628Y-63209738D01*
X94218443Y-63226445D01*
X94212641Y-63242661D01*
X94205277Y-63258230D01*
X94196423Y-63273003D01*
X94186163Y-63286836D01*
X94174597Y-63299597D01*
X94161836Y-63311163D01*
X94148003Y-63321423D01*
X94133230Y-63330277D01*
X94117661Y-63337641D01*
X94101445Y-63343443D01*
X94084738Y-63347628D01*
X94067702Y-63350155D01*
X94050500Y-63351000D01*
X92749500Y-63351000D01*
X92732298Y-63350155D01*
X92715262Y-63347628D01*
X92698555Y-63343443D01*
X92682339Y-63337641D01*
X92666770Y-63330277D01*
X92651997Y-63321423D01*
X92638164Y-63311163D01*
X92625403Y-63299597D01*
X92613837Y-63286836D01*
X92603577Y-63273003D01*
X92594723Y-63258230D01*
X92587359Y-63242661D01*
X92581557Y-63226445D01*
X92577372Y-63209738D01*
X92574845Y-63192702D01*
X92574000Y-63175500D01*
X92574000Y-62824500D01*
X92574845Y-62807298D01*
X92577372Y-62790262D01*
X92581557Y-62773555D01*
X92587359Y-62757339D01*
X92594723Y-62741770D01*
X92603577Y-62726997D01*
X92613837Y-62713164D01*
X92625403Y-62700403D01*
X92638164Y-62688837D01*
X92651997Y-62678577D01*
X92666770Y-62669723D01*
X92682339Y-62662359D01*
X92698555Y-62656557D01*
X92715262Y-62652372D01*
X92732298Y-62649845D01*
X92749500Y-62649000D01*
X94050500Y-62649000D01*
X94067702Y-62649845D01*
G37*
D19*
X106250000Y-74825000D03*
X106250000Y-75475000D03*
X106250000Y-76125000D03*
X106250000Y-76775000D03*
X106250000Y-77425000D03*
X106250000Y-78075000D03*
X106250000Y-78725000D03*
X106250000Y-79375000D03*
X100350000Y-79375000D03*
X100350000Y-78725000D03*
X100350000Y-78075000D03*
X100350000Y-77425000D03*
X100350000Y-76775000D03*
X100350000Y-76125000D03*
X100350000Y-75475000D03*
X100350000Y-74825000D03*
D12*
G36*
X108788779Y-73700266D02*
G01*
X108814309Y-73704053D01*
X108839345Y-73710325D01*
X108863646Y-73719020D01*
X108886977Y-73730055D01*
X108909115Y-73743323D01*
X108929845Y-73758698D01*
X108948969Y-73776031D01*
X108966302Y-73795155D01*
X108981677Y-73815885D01*
X108994945Y-73838023D01*
X109005980Y-73861354D01*
X109014675Y-73885655D01*
X109020947Y-73910691D01*
X109024734Y-73936221D01*
X109026000Y-73962000D01*
X109026000Y-74588000D01*
X109024734Y-74613779D01*
X109020947Y-74639309D01*
X109014675Y-74664345D01*
X109005980Y-74688646D01*
X108994945Y-74711977D01*
X108981677Y-74734115D01*
X108966302Y-74754845D01*
X108948969Y-74773969D01*
X108929845Y-74791302D01*
X108909115Y-74806677D01*
X108886977Y-74819945D01*
X108863646Y-74830980D01*
X108839345Y-74839675D01*
X108814309Y-74845947D01*
X108788779Y-74849734D01*
X108763000Y-74851000D01*
X108237000Y-74851000D01*
X108211221Y-74849734D01*
X108185691Y-74845947D01*
X108160655Y-74839675D01*
X108136354Y-74830980D01*
X108113023Y-74819945D01*
X108090885Y-74806677D01*
X108070155Y-74791302D01*
X108051031Y-74773969D01*
X108033698Y-74754845D01*
X108018323Y-74734115D01*
X108005055Y-74711977D01*
X107994020Y-74688646D01*
X107985325Y-74664345D01*
X107979053Y-74639309D01*
X107975266Y-74613779D01*
X107974000Y-74588000D01*
X107974000Y-73962000D01*
X107975266Y-73936221D01*
X107979053Y-73910691D01*
X107985325Y-73885655D01*
X107994020Y-73861354D01*
X108005055Y-73838023D01*
X108018323Y-73815885D01*
X108033698Y-73795155D01*
X108051031Y-73776031D01*
X108070155Y-73758698D01*
X108090885Y-73743323D01*
X108113023Y-73730055D01*
X108136354Y-73719020D01*
X108160655Y-73710325D01*
X108185691Y-73704053D01*
X108211221Y-73700266D01*
X108237000Y-73699000D01*
X108763000Y-73699000D01*
X108788779Y-73700266D01*
G37*
G36*
X108788779Y-71950266D02*
G01*
X108814309Y-71954053D01*
X108839345Y-71960325D01*
X108863646Y-71969020D01*
X108886977Y-71980055D01*
X108909115Y-71993323D01*
X108929845Y-72008698D01*
X108948969Y-72026031D01*
X108966302Y-72045155D01*
X108981677Y-72065885D01*
X108994945Y-72088023D01*
X109005980Y-72111354D01*
X109014675Y-72135655D01*
X109020947Y-72160691D01*
X109024734Y-72186221D01*
X109026000Y-72212000D01*
X109026000Y-72838000D01*
X109024734Y-72863779D01*
X109020947Y-72889309D01*
X109014675Y-72914345D01*
X109005980Y-72938646D01*
X108994945Y-72961977D01*
X108981677Y-72984115D01*
X108966302Y-73004845D01*
X108948969Y-73023969D01*
X108929845Y-73041302D01*
X108909115Y-73056677D01*
X108886977Y-73069945D01*
X108863646Y-73080980D01*
X108839345Y-73089675D01*
X108814309Y-73095947D01*
X108788779Y-73099734D01*
X108763000Y-73101000D01*
X108237000Y-73101000D01*
X108211221Y-73099734D01*
X108185691Y-73095947D01*
X108160655Y-73089675D01*
X108136354Y-73080980D01*
X108113023Y-73069945D01*
X108090885Y-73056677D01*
X108070155Y-73041302D01*
X108051031Y-73023969D01*
X108033698Y-73004845D01*
X108018323Y-72984115D01*
X108005055Y-72961977D01*
X107994020Y-72938646D01*
X107985325Y-72914345D01*
X107979053Y-72889309D01*
X107975266Y-72863779D01*
X107974000Y-72838000D01*
X107974000Y-72212000D01*
X107975266Y-72186221D01*
X107979053Y-72160691D01*
X107985325Y-72135655D01*
X107994020Y-72111354D01*
X108005055Y-72088023D01*
X108018323Y-72065885D01*
X108033698Y-72045155D01*
X108051031Y-72026031D01*
X108070155Y-72008698D01*
X108090885Y-71993323D01*
X108113023Y-71980055D01*
X108136354Y-71969020D01*
X108160655Y-71960325D01*
X108185691Y-71954053D01*
X108211221Y-71950266D01*
X108237000Y-71949000D01*
X108763000Y-71949000D01*
X108788779Y-71950266D01*
G37*
M02*
