G04 #@! TF.GenerationSoftware,KiCad,Pcbnew,(5.1.5-0)*
G04 #@! TF.CreationDate,2021-10-28T11:32:37-06:00*
G04 #@! TF.ProjectId,TPS61165-heater-v2,54505336-3131-4363-952d-686561746572,rev?*
G04 #@! TF.SameCoordinates,Original*
G04 #@! TF.FileFunction,Paste,Top*
G04 #@! TF.FilePolarity,Positive*
%FSLAX46Y46*%
G04 Gerber Fmt 4.6, Leading zero omitted, Abs format (unit mm)*
G04 Created by KiCad (PCBNEW (5.1.5-0)) date 2021-10-28 11:32:37*
%MOMM*%
%LPD*%
G04 APERTURE LIST*
%ADD10C,0.100000*%
%ADD11R,3.000000X2.000000*%
%ADD12R,1.560000X0.650000*%
%ADD13R,5.300000X2.000000*%
%ADD14O,1.800000X1.100000*%
%ADD15R,1.500000X0.800000*%
%ADD16R,1.500000X0.760000*%
%ADD17R,1.500000X0.700000*%
%ADD18R,0.900000X1.200000*%
G04 APERTURE END LIST*
D10*
G36*
X123124000Y-77850000D02*
G01*
X123124000Y-78650000D01*
X121626000Y-78650000D01*
X121626000Y-77850000D01*
X123124000Y-77850000D01*
G37*
G36*
X123124000Y-79100000D02*
G01*
X123124000Y-79860000D01*
X121626000Y-79860000D01*
X121626000Y-79100000D01*
X123124000Y-79100000D01*
G37*
G36*
X123124000Y-80149000D02*
G01*
X123124000Y-80850000D01*
X121626000Y-80850000D01*
X121626000Y-80149000D01*
X123124000Y-80149000D01*
G37*
G36*
X123124000Y-81150000D02*
G01*
X123124000Y-81851000D01*
X121626000Y-81851000D01*
X121626000Y-81150000D01*
X123124000Y-81150000D01*
G37*
G36*
X123124000Y-82140000D02*
G01*
X123124000Y-82900000D01*
X121626000Y-82900000D01*
X121626000Y-82140000D01*
X123124000Y-82140000D01*
G37*
G36*
X123124000Y-83349000D02*
G01*
X123124000Y-84150000D01*
X121626000Y-84150000D01*
X121626000Y-83349000D01*
X123124000Y-83349000D01*
G37*
D11*
X127300000Y-77390000D03*
X127300000Y-85010000D03*
X134900000Y-85010000D03*
X134900000Y-77390000D03*
D10*
G36*
X148910779Y-84926144D02*
G01*
X148933834Y-84929563D01*
X148956443Y-84935227D01*
X148978387Y-84943079D01*
X148999457Y-84953044D01*
X149019448Y-84965026D01*
X149038168Y-84978910D01*
X149055438Y-84994562D01*
X149071090Y-85011832D01*
X149084974Y-85030552D01*
X149096956Y-85050543D01*
X149106921Y-85071613D01*
X149114773Y-85093557D01*
X149120437Y-85116166D01*
X149123856Y-85139221D01*
X149125000Y-85162500D01*
X149125000Y-85637500D01*
X149123856Y-85660779D01*
X149120437Y-85683834D01*
X149114773Y-85706443D01*
X149106921Y-85728387D01*
X149096956Y-85749457D01*
X149084974Y-85769448D01*
X149071090Y-85788168D01*
X149055438Y-85805438D01*
X149038168Y-85821090D01*
X149019448Y-85834974D01*
X148999457Y-85846956D01*
X148978387Y-85856921D01*
X148956443Y-85864773D01*
X148933834Y-85870437D01*
X148910779Y-85873856D01*
X148887500Y-85875000D01*
X148312500Y-85875000D01*
X148289221Y-85873856D01*
X148266166Y-85870437D01*
X148243557Y-85864773D01*
X148221613Y-85856921D01*
X148200543Y-85846956D01*
X148180552Y-85834974D01*
X148161832Y-85821090D01*
X148144562Y-85805438D01*
X148128910Y-85788168D01*
X148115026Y-85769448D01*
X148103044Y-85749457D01*
X148093079Y-85728387D01*
X148085227Y-85706443D01*
X148079563Y-85683834D01*
X148076144Y-85660779D01*
X148075000Y-85637500D01*
X148075000Y-85162500D01*
X148076144Y-85139221D01*
X148079563Y-85116166D01*
X148085227Y-85093557D01*
X148093079Y-85071613D01*
X148103044Y-85050543D01*
X148115026Y-85030552D01*
X148128910Y-85011832D01*
X148144562Y-84994562D01*
X148161832Y-84978910D01*
X148180552Y-84965026D01*
X148200543Y-84953044D01*
X148221613Y-84943079D01*
X148243557Y-84935227D01*
X148266166Y-84929563D01*
X148289221Y-84926144D01*
X148312500Y-84925000D01*
X148887500Y-84925000D01*
X148910779Y-84926144D01*
G37*
G36*
X150660779Y-84926144D02*
G01*
X150683834Y-84929563D01*
X150706443Y-84935227D01*
X150728387Y-84943079D01*
X150749457Y-84953044D01*
X150769448Y-84965026D01*
X150788168Y-84978910D01*
X150805438Y-84994562D01*
X150821090Y-85011832D01*
X150834974Y-85030552D01*
X150846956Y-85050543D01*
X150856921Y-85071613D01*
X150864773Y-85093557D01*
X150870437Y-85116166D01*
X150873856Y-85139221D01*
X150875000Y-85162500D01*
X150875000Y-85637500D01*
X150873856Y-85660779D01*
X150870437Y-85683834D01*
X150864773Y-85706443D01*
X150856921Y-85728387D01*
X150846956Y-85749457D01*
X150834974Y-85769448D01*
X150821090Y-85788168D01*
X150805438Y-85805438D01*
X150788168Y-85821090D01*
X150769448Y-85834974D01*
X150749457Y-85846956D01*
X150728387Y-85856921D01*
X150706443Y-85864773D01*
X150683834Y-85870437D01*
X150660779Y-85873856D01*
X150637500Y-85875000D01*
X150062500Y-85875000D01*
X150039221Y-85873856D01*
X150016166Y-85870437D01*
X149993557Y-85864773D01*
X149971613Y-85856921D01*
X149950543Y-85846956D01*
X149930552Y-85834974D01*
X149911832Y-85821090D01*
X149894562Y-85805438D01*
X149878910Y-85788168D01*
X149865026Y-85769448D01*
X149853044Y-85749457D01*
X149843079Y-85728387D01*
X149835227Y-85706443D01*
X149829563Y-85683834D01*
X149826144Y-85660779D01*
X149825000Y-85637500D01*
X149825000Y-85162500D01*
X149826144Y-85139221D01*
X149829563Y-85116166D01*
X149835227Y-85093557D01*
X149843079Y-85071613D01*
X149853044Y-85050543D01*
X149865026Y-85030552D01*
X149878910Y-85011832D01*
X149894562Y-84994562D01*
X149911832Y-84978910D01*
X149930552Y-84965026D01*
X149950543Y-84953044D01*
X149971613Y-84943079D01*
X149993557Y-84935227D01*
X150016166Y-84929563D01*
X150039221Y-84926144D01*
X150062500Y-84925000D01*
X150637500Y-84925000D01*
X150660779Y-84926144D01*
G37*
G36*
X139635779Y-65626144D02*
G01*
X139658834Y-65629563D01*
X139681443Y-65635227D01*
X139703387Y-65643079D01*
X139724457Y-65653044D01*
X139744448Y-65665026D01*
X139763168Y-65678910D01*
X139780438Y-65694562D01*
X139796090Y-65711832D01*
X139809974Y-65730552D01*
X139821956Y-65750543D01*
X139831921Y-65771613D01*
X139839773Y-65793557D01*
X139845437Y-65816166D01*
X139848856Y-65839221D01*
X139850000Y-65862500D01*
X139850000Y-66337500D01*
X139848856Y-66360779D01*
X139845437Y-66383834D01*
X139839773Y-66406443D01*
X139831921Y-66428387D01*
X139821956Y-66449457D01*
X139809974Y-66469448D01*
X139796090Y-66488168D01*
X139780438Y-66505438D01*
X139763168Y-66521090D01*
X139744448Y-66534974D01*
X139724457Y-66546956D01*
X139703387Y-66556921D01*
X139681443Y-66564773D01*
X139658834Y-66570437D01*
X139635779Y-66573856D01*
X139612500Y-66575000D01*
X139037500Y-66575000D01*
X139014221Y-66573856D01*
X138991166Y-66570437D01*
X138968557Y-66564773D01*
X138946613Y-66556921D01*
X138925543Y-66546956D01*
X138905552Y-66534974D01*
X138886832Y-66521090D01*
X138869562Y-66505438D01*
X138853910Y-66488168D01*
X138840026Y-66469448D01*
X138828044Y-66449457D01*
X138818079Y-66428387D01*
X138810227Y-66406443D01*
X138804563Y-66383834D01*
X138801144Y-66360779D01*
X138800000Y-66337500D01*
X138800000Y-65862500D01*
X138801144Y-65839221D01*
X138804563Y-65816166D01*
X138810227Y-65793557D01*
X138818079Y-65771613D01*
X138828044Y-65750543D01*
X138840026Y-65730552D01*
X138853910Y-65711832D01*
X138869562Y-65694562D01*
X138886832Y-65678910D01*
X138905552Y-65665026D01*
X138925543Y-65653044D01*
X138946613Y-65643079D01*
X138968557Y-65635227D01*
X138991166Y-65629563D01*
X139014221Y-65626144D01*
X139037500Y-65625000D01*
X139612500Y-65625000D01*
X139635779Y-65626144D01*
G37*
G36*
X141385779Y-65626144D02*
G01*
X141408834Y-65629563D01*
X141431443Y-65635227D01*
X141453387Y-65643079D01*
X141474457Y-65653044D01*
X141494448Y-65665026D01*
X141513168Y-65678910D01*
X141530438Y-65694562D01*
X141546090Y-65711832D01*
X141559974Y-65730552D01*
X141571956Y-65750543D01*
X141581921Y-65771613D01*
X141589773Y-65793557D01*
X141595437Y-65816166D01*
X141598856Y-65839221D01*
X141600000Y-65862500D01*
X141600000Y-66337500D01*
X141598856Y-66360779D01*
X141595437Y-66383834D01*
X141589773Y-66406443D01*
X141581921Y-66428387D01*
X141571956Y-66449457D01*
X141559974Y-66469448D01*
X141546090Y-66488168D01*
X141530438Y-66505438D01*
X141513168Y-66521090D01*
X141494448Y-66534974D01*
X141474457Y-66546956D01*
X141453387Y-66556921D01*
X141431443Y-66564773D01*
X141408834Y-66570437D01*
X141385779Y-66573856D01*
X141362500Y-66575000D01*
X140787500Y-66575000D01*
X140764221Y-66573856D01*
X140741166Y-66570437D01*
X140718557Y-66564773D01*
X140696613Y-66556921D01*
X140675543Y-66546956D01*
X140655552Y-66534974D01*
X140636832Y-66521090D01*
X140619562Y-66505438D01*
X140603910Y-66488168D01*
X140590026Y-66469448D01*
X140578044Y-66449457D01*
X140568079Y-66428387D01*
X140560227Y-66406443D01*
X140554563Y-66383834D01*
X140551144Y-66360779D01*
X140550000Y-66337500D01*
X140550000Y-65862500D01*
X140551144Y-65839221D01*
X140554563Y-65816166D01*
X140560227Y-65793557D01*
X140568079Y-65771613D01*
X140578044Y-65750543D01*
X140590026Y-65730552D01*
X140603910Y-65711832D01*
X140619562Y-65694562D01*
X140636832Y-65678910D01*
X140655552Y-65665026D01*
X140675543Y-65653044D01*
X140696613Y-65643079D01*
X140718557Y-65635227D01*
X140741166Y-65629563D01*
X140764221Y-65626144D01*
X140787500Y-65625000D01*
X141362500Y-65625000D01*
X141385779Y-65626144D01*
G37*
D12*
X147880000Y-80730000D03*
X147880000Y-81680000D03*
X147880000Y-79780000D03*
X150580000Y-79780000D03*
X150580000Y-80730000D03*
X150580000Y-81680000D03*
D13*
X142400000Y-76300000D03*
X142400000Y-79700000D03*
D10*
G36*
X152160779Y-74451144D02*
G01*
X152183834Y-74454563D01*
X152206443Y-74460227D01*
X152228387Y-74468079D01*
X152249457Y-74478044D01*
X152269448Y-74490026D01*
X152288168Y-74503910D01*
X152305438Y-74519562D01*
X152321090Y-74536832D01*
X152334974Y-74555552D01*
X152346956Y-74575543D01*
X152356921Y-74596613D01*
X152364773Y-74618557D01*
X152370437Y-74641166D01*
X152373856Y-74664221D01*
X152375000Y-74687500D01*
X152375000Y-75262500D01*
X152373856Y-75285779D01*
X152370437Y-75308834D01*
X152364773Y-75331443D01*
X152356921Y-75353387D01*
X152346956Y-75374457D01*
X152334974Y-75394448D01*
X152321090Y-75413168D01*
X152305438Y-75430438D01*
X152288168Y-75446090D01*
X152269448Y-75459974D01*
X152249457Y-75471956D01*
X152228387Y-75481921D01*
X152206443Y-75489773D01*
X152183834Y-75495437D01*
X152160779Y-75498856D01*
X152137500Y-75500000D01*
X151662500Y-75500000D01*
X151639221Y-75498856D01*
X151616166Y-75495437D01*
X151593557Y-75489773D01*
X151571613Y-75481921D01*
X151550543Y-75471956D01*
X151530552Y-75459974D01*
X151511832Y-75446090D01*
X151494562Y-75430438D01*
X151478910Y-75413168D01*
X151465026Y-75394448D01*
X151453044Y-75374457D01*
X151443079Y-75353387D01*
X151435227Y-75331443D01*
X151429563Y-75308834D01*
X151426144Y-75285779D01*
X151425000Y-75262500D01*
X151425000Y-74687500D01*
X151426144Y-74664221D01*
X151429563Y-74641166D01*
X151435227Y-74618557D01*
X151443079Y-74596613D01*
X151453044Y-74575543D01*
X151465026Y-74555552D01*
X151478910Y-74536832D01*
X151494562Y-74519562D01*
X151511832Y-74503910D01*
X151530552Y-74490026D01*
X151550543Y-74478044D01*
X151571613Y-74468079D01*
X151593557Y-74460227D01*
X151616166Y-74454563D01*
X151639221Y-74451144D01*
X151662500Y-74450000D01*
X152137500Y-74450000D01*
X152160779Y-74451144D01*
G37*
G36*
X152160779Y-72701144D02*
G01*
X152183834Y-72704563D01*
X152206443Y-72710227D01*
X152228387Y-72718079D01*
X152249457Y-72728044D01*
X152269448Y-72740026D01*
X152288168Y-72753910D01*
X152305438Y-72769562D01*
X152321090Y-72786832D01*
X152334974Y-72805552D01*
X152346956Y-72825543D01*
X152356921Y-72846613D01*
X152364773Y-72868557D01*
X152370437Y-72891166D01*
X152373856Y-72914221D01*
X152375000Y-72937500D01*
X152375000Y-73512500D01*
X152373856Y-73535779D01*
X152370437Y-73558834D01*
X152364773Y-73581443D01*
X152356921Y-73603387D01*
X152346956Y-73624457D01*
X152334974Y-73644448D01*
X152321090Y-73663168D01*
X152305438Y-73680438D01*
X152288168Y-73696090D01*
X152269448Y-73709974D01*
X152249457Y-73721956D01*
X152228387Y-73731921D01*
X152206443Y-73739773D01*
X152183834Y-73745437D01*
X152160779Y-73748856D01*
X152137500Y-73750000D01*
X151662500Y-73750000D01*
X151639221Y-73748856D01*
X151616166Y-73745437D01*
X151593557Y-73739773D01*
X151571613Y-73731921D01*
X151550543Y-73721956D01*
X151530552Y-73709974D01*
X151511832Y-73696090D01*
X151494562Y-73680438D01*
X151478910Y-73663168D01*
X151465026Y-73644448D01*
X151453044Y-73624457D01*
X151443079Y-73603387D01*
X151435227Y-73581443D01*
X151429563Y-73558834D01*
X151426144Y-73535779D01*
X151425000Y-73512500D01*
X151425000Y-72937500D01*
X151426144Y-72914221D01*
X151429563Y-72891166D01*
X151435227Y-72868557D01*
X151443079Y-72846613D01*
X151453044Y-72825543D01*
X151465026Y-72805552D01*
X151478910Y-72786832D01*
X151494562Y-72769562D01*
X151511832Y-72753910D01*
X151530552Y-72740026D01*
X151550543Y-72728044D01*
X151571613Y-72718079D01*
X151593557Y-72710227D01*
X151616166Y-72704563D01*
X151639221Y-72701144D01*
X151662500Y-72700000D01*
X152137500Y-72700000D01*
X152160779Y-72701144D01*
G37*
G36*
X149435779Y-82926144D02*
G01*
X149458834Y-82929563D01*
X149481443Y-82935227D01*
X149503387Y-82943079D01*
X149524457Y-82953044D01*
X149544448Y-82965026D01*
X149563168Y-82978910D01*
X149580438Y-82994562D01*
X149596090Y-83011832D01*
X149609974Y-83030552D01*
X149621956Y-83050543D01*
X149631921Y-83071613D01*
X149639773Y-83093557D01*
X149645437Y-83116166D01*
X149648856Y-83139221D01*
X149650000Y-83162500D01*
X149650000Y-83637500D01*
X149648856Y-83660779D01*
X149645437Y-83683834D01*
X149639773Y-83706443D01*
X149631921Y-83728387D01*
X149621956Y-83749457D01*
X149609974Y-83769448D01*
X149596090Y-83788168D01*
X149580438Y-83805438D01*
X149563168Y-83821090D01*
X149544448Y-83834974D01*
X149524457Y-83846956D01*
X149503387Y-83856921D01*
X149481443Y-83864773D01*
X149458834Y-83870437D01*
X149435779Y-83873856D01*
X149412500Y-83875000D01*
X148837500Y-83875000D01*
X148814221Y-83873856D01*
X148791166Y-83870437D01*
X148768557Y-83864773D01*
X148746613Y-83856921D01*
X148725543Y-83846956D01*
X148705552Y-83834974D01*
X148686832Y-83821090D01*
X148669562Y-83805438D01*
X148653910Y-83788168D01*
X148640026Y-83769448D01*
X148628044Y-83749457D01*
X148618079Y-83728387D01*
X148610227Y-83706443D01*
X148604563Y-83683834D01*
X148601144Y-83660779D01*
X148600000Y-83637500D01*
X148600000Y-83162500D01*
X148601144Y-83139221D01*
X148604563Y-83116166D01*
X148610227Y-83093557D01*
X148618079Y-83071613D01*
X148628044Y-83050543D01*
X148640026Y-83030552D01*
X148653910Y-83011832D01*
X148669562Y-82994562D01*
X148686832Y-82978910D01*
X148705552Y-82965026D01*
X148725543Y-82953044D01*
X148746613Y-82943079D01*
X148768557Y-82935227D01*
X148791166Y-82929563D01*
X148814221Y-82926144D01*
X148837500Y-82925000D01*
X149412500Y-82925000D01*
X149435779Y-82926144D01*
G37*
G36*
X151185779Y-82926144D02*
G01*
X151208834Y-82929563D01*
X151231443Y-82935227D01*
X151253387Y-82943079D01*
X151274457Y-82953044D01*
X151294448Y-82965026D01*
X151313168Y-82978910D01*
X151330438Y-82994562D01*
X151346090Y-83011832D01*
X151359974Y-83030552D01*
X151371956Y-83050543D01*
X151381921Y-83071613D01*
X151389773Y-83093557D01*
X151395437Y-83116166D01*
X151398856Y-83139221D01*
X151400000Y-83162500D01*
X151400000Y-83637500D01*
X151398856Y-83660779D01*
X151395437Y-83683834D01*
X151389773Y-83706443D01*
X151381921Y-83728387D01*
X151371956Y-83749457D01*
X151359974Y-83769448D01*
X151346090Y-83788168D01*
X151330438Y-83805438D01*
X151313168Y-83821090D01*
X151294448Y-83834974D01*
X151274457Y-83846956D01*
X151253387Y-83856921D01*
X151231443Y-83864773D01*
X151208834Y-83870437D01*
X151185779Y-83873856D01*
X151162500Y-83875000D01*
X150587500Y-83875000D01*
X150564221Y-83873856D01*
X150541166Y-83870437D01*
X150518557Y-83864773D01*
X150496613Y-83856921D01*
X150475543Y-83846956D01*
X150455552Y-83834974D01*
X150436832Y-83821090D01*
X150419562Y-83805438D01*
X150403910Y-83788168D01*
X150390026Y-83769448D01*
X150378044Y-83749457D01*
X150368079Y-83728387D01*
X150360227Y-83706443D01*
X150354563Y-83683834D01*
X150351144Y-83660779D01*
X150350000Y-83637500D01*
X150350000Y-83162500D01*
X150351144Y-83139221D01*
X150354563Y-83116166D01*
X150360227Y-83093557D01*
X150368079Y-83071613D01*
X150378044Y-83050543D01*
X150390026Y-83030552D01*
X150403910Y-83011832D01*
X150419562Y-82994562D01*
X150436832Y-82978910D01*
X150455552Y-82965026D01*
X150475543Y-82953044D01*
X150496613Y-82943079D01*
X150518557Y-82935227D01*
X150541166Y-82929563D01*
X150564221Y-82926144D01*
X150587500Y-82925000D01*
X151162500Y-82925000D01*
X151185779Y-82926144D01*
G37*
D14*
X118425000Y-76680000D03*
X118425000Y-85320000D03*
X122225000Y-76680000D03*
X122225000Y-85320000D03*
D15*
X122375000Y-78250000D03*
D16*
X122375000Y-79480000D03*
D17*
X122375000Y-80500000D03*
X122375000Y-81500000D03*
D16*
X122375000Y-82520000D03*
D15*
X122375000Y-83750000D03*
D18*
X148550000Y-77300000D03*
X151850000Y-77300000D03*
D10*
G36*
X146274505Y-83651204D02*
G01*
X146298773Y-83654804D01*
X146322572Y-83660765D01*
X146345671Y-83669030D01*
X146367850Y-83679520D01*
X146388893Y-83692132D01*
X146408599Y-83706747D01*
X146426777Y-83723223D01*
X146443253Y-83741401D01*
X146457868Y-83761107D01*
X146470480Y-83782150D01*
X146480970Y-83804329D01*
X146489235Y-83827428D01*
X146495196Y-83851227D01*
X146498796Y-83875495D01*
X146500000Y-83899999D01*
X146500000Y-84550001D01*
X146498796Y-84574505D01*
X146495196Y-84598773D01*
X146489235Y-84622572D01*
X146480970Y-84645671D01*
X146470480Y-84667850D01*
X146457868Y-84688893D01*
X146443253Y-84708599D01*
X146426777Y-84726777D01*
X146408599Y-84743253D01*
X146388893Y-84757868D01*
X146367850Y-84770480D01*
X146345671Y-84780970D01*
X146322572Y-84789235D01*
X146298773Y-84795196D01*
X146274505Y-84798796D01*
X146250001Y-84800000D01*
X145349999Y-84800000D01*
X145325495Y-84798796D01*
X145301227Y-84795196D01*
X145277428Y-84789235D01*
X145254329Y-84780970D01*
X145232150Y-84770480D01*
X145211107Y-84757868D01*
X145191401Y-84743253D01*
X145173223Y-84726777D01*
X145156747Y-84708599D01*
X145142132Y-84688893D01*
X145129520Y-84667850D01*
X145119030Y-84645671D01*
X145110765Y-84622572D01*
X145104804Y-84598773D01*
X145101204Y-84574505D01*
X145100000Y-84550001D01*
X145100000Y-83899999D01*
X145101204Y-83875495D01*
X145104804Y-83851227D01*
X145110765Y-83827428D01*
X145119030Y-83804329D01*
X145129520Y-83782150D01*
X145142132Y-83761107D01*
X145156747Y-83741401D01*
X145173223Y-83723223D01*
X145191401Y-83706747D01*
X145211107Y-83692132D01*
X145232150Y-83679520D01*
X145254329Y-83669030D01*
X145277428Y-83660765D01*
X145301227Y-83654804D01*
X145325495Y-83651204D01*
X145349999Y-83650000D01*
X146250001Y-83650000D01*
X146274505Y-83651204D01*
G37*
G36*
X146274505Y-81601204D02*
G01*
X146298773Y-81604804D01*
X146322572Y-81610765D01*
X146345671Y-81619030D01*
X146367850Y-81629520D01*
X146388893Y-81642132D01*
X146408599Y-81656747D01*
X146426777Y-81673223D01*
X146443253Y-81691401D01*
X146457868Y-81711107D01*
X146470480Y-81732150D01*
X146480970Y-81754329D01*
X146489235Y-81777428D01*
X146495196Y-81801227D01*
X146498796Y-81825495D01*
X146500000Y-81849999D01*
X146500000Y-82500001D01*
X146498796Y-82524505D01*
X146495196Y-82548773D01*
X146489235Y-82572572D01*
X146480970Y-82595671D01*
X146470480Y-82617850D01*
X146457868Y-82638893D01*
X146443253Y-82658599D01*
X146426777Y-82676777D01*
X146408599Y-82693253D01*
X146388893Y-82707868D01*
X146367850Y-82720480D01*
X146345671Y-82730970D01*
X146322572Y-82739235D01*
X146298773Y-82745196D01*
X146274505Y-82748796D01*
X146250001Y-82750000D01*
X145349999Y-82750000D01*
X145325495Y-82748796D01*
X145301227Y-82745196D01*
X145277428Y-82739235D01*
X145254329Y-82730970D01*
X145232150Y-82720480D01*
X145211107Y-82707868D01*
X145191401Y-82693253D01*
X145173223Y-82676777D01*
X145156747Y-82658599D01*
X145142132Y-82638893D01*
X145129520Y-82617850D01*
X145119030Y-82595671D01*
X145110765Y-82572572D01*
X145104804Y-82548773D01*
X145101204Y-82524505D01*
X145100000Y-82500001D01*
X145100000Y-81849999D01*
X145101204Y-81825495D01*
X145104804Y-81801227D01*
X145110765Y-81777428D01*
X145119030Y-81754329D01*
X145129520Y-81732150D01*
X145142132Y-81711107D01*
X145156747Y-81691401D01*
X145173223Y-81673223D01*
X145191401Y-81656747D01*
X145211107Y-81642132D01*
X145232150Y-81629520D01*
X145254329Y-81619030D01*
X145277428Y-81610765D01*
X145301227Y-81604804D01*
X145325495Y-81601204D01*
X145349999Y-81600000D01*
X146250001Y-81600000D01*
X146274505Y-81601204D01*
G37*
G36*
X155874505Y-78826204D02*
G01*
X155898773Y-78829804D01*
X155922572Y-78835765D01*
X155945671Y-78844030D01*
X155967850Y-78854520D01*
X155988893Y-78867132D01*
X156008599Y-78881747D01*
X156026777Y-78898223D01*
X156043253Y-78916401D01*
X156057868Y-78936107D01*
X156070480Y-78957150D01*
X156080970Y-78979329D01*
X156089235Y-79002428D01*
X156095196Y-79026227D01*
X156098796Y-79050495D01*
X156100000Y-79074999D01*
X156100000Y-79725001D01*
X156098796Y-79749505D01*
X156095196Y-79773773D01*
X156089235Y-79797572D01*
X156080970Y-79820671D01*
X156070480Y-79842850D01*
X156057868Y-79863893D01*
X156043253Y-79883599D01*
X156026777Y-79901777D01*
X156008599Y-79918253D01*
X155988893Y-79932868D01*
X155967850Y-79945480D01*
X155945671Y-79955970D01*
X155922572Y-79964235D01*
X155898773Y-79970196D01*
X155874505Y-79973796D01*
X155850001Y-79975000D01*
X154949999Y-79975000D01*
X154925495Y-79973796D01*
X154901227Y-79970196D01*
X154877428Y-79964235D01*
X154854329Y-79955970D01*
X154832150Y-79945480D01*
X154811107Y-79932868D01*
X154791401Y-79918253D01*
X154773223Y-79901777D01*
X154756747Y-79883599D01*
X154742132Y-79863893D01*
X154729520Y-79842850D01*
X154719030Y-79820671D01*
X154710765Y-79797572D01*
X154704804Y-79773773D01*
X154701204Y-79749505D01*
X154700000Y-79725001D01*
X154700000Y-79074999D01*
X154701204Y-79050495D01*
X154704804Y-79026227D01*
X154710765Y-79002428D01*
X154719030Y-78979329D01*
X154729520Y-78957150D01*
X154742132Y-78936107D01*
X154756747Y-78916401D01*
X154773223Y-78898223D01*
X154791401Y-78881747D01*
X154811107Y-78867132D01*
X154832150Y-78854520D01*
X154854329Y-78844030D01*
X154877428Y-78835765D01*
X154901227Y-78829804D01*
X154925495Y-78826204D01*
X154949999Y-78825000D01*
X155850001Y-78825000D01*
X155874505Y-78826204D01*
G37*
G36*
X155874505Y-76776204D02*
G01*
X155898773Y-76779804D01*
X155922572Y-76785765D01*
X155945671Y-76794030D01*
X155967850Y-76804520D01*
X155988893Y-76817132D01*
X156008599Y-76831747D01*
X156026777Y-76848223D01*
X156043253Y-76866401D01*
X156057868Y-76886107D01*
X156070480Y-76907150D01*
X156080970Y-76929329D01*
X156089235Y-76952428D01*
X156095196Y-76976227D01*
X156098796Y-77000495D01*
X156100000Y-77024999D01*
X156100000Y-77675001D01*
X156098796Y-77699505D01*
X156095196Y-77723773D01*
X156089235Y-77747572D01*
X156080970Y-77770671D01*
X156070480Y-77792850D01*
X156057868Y-77813893D01*
X156043253Y-77833599D01*
X156026777Y-77851777D01*
X156008599Y-77868253D01*
X155988893Y-77882868D01*
X155967850Y-77895480D01*
X155945671Y-77905970D01*
X155922572Y-77914235D01*
X155898773Y-77920196D01*
X155874505Y-77923796D01*
X155850001Y-77925000D01*
X154949999Y-77925000D01*
X154925495Y-77923796D01*
X154901227Y-77920196D01*
X154877428Y-77914235D01*
X154854329Y-77905970D01*
X154832150Y-77895480D01*
X154811107Y-77882868D01*
X154791401Y-77868253D01*
X154773223Y-77851777D01*
X154756747Y-77833599D01*
X154742132Y-77813893D01*
X154729520Y-77792850D01*
X154719030Y-77770671D01*
X154710765Y-77747572D01*
X154704804Y-77723773D01*
X154701204Y-77699505D01*
X154700000Y-77675001D01*
X154700000Y-77024999D01*
X154701204Y-77000495D01*
X154704804Y-76976227D01*
X154710765Y-76952428D01*
X154719030Y-76929329D01*
X154729520Y-76907150D01*
X154742132Y-76886107D01*
X154756747Y-76866401D01*
X154773223Y-76848223D01*
X154791401Y-76831747D01*
X154811107Y-76817132D01*
X154832150Y-76804520D01*
X154854329Y-76794030D01*
X154877428Y-76785765D01*
X154901227Y-76779804D01*
X154925495Y-76776204D01*
X154949999Y-76775000D01*
X155850001Y-76775000D01*
X155874505Y-76776204D01*
G37*
G36*
X153460779Y-79101144D02*
G01*
X153483834Y-79104563D01*
X153506443Y-79110227D01*
X153528387Y-79118079D01*
X153549457Y-79128044D01*
X153569448Y-79140026D01*
X153588168Y-79153910D01*
X153605438Y-79169562D01*
X153621090Y-79186832D01*
X153634974Y-79205552D01*
X153646956Y-79225543D01*
X153656921Y-79246613D01*
X153664773Y-79268557D01*
X153670437Y-79291166D01*
X153673856Y-79314221D01*
X153675000Y-79337500D01*
X153675000Y-79912500D01*
X153673856Y-79935779D01*
X153670437Y-79958834D01*
X153664773Y-79981443D01*
X153656921Y-80003387D01*
X153646956Y-80024457D01*
X153634974Y-80044448D01*
X153621090Y-80063168D01*
X153605438Y-80080438D01*
X153588168Y-80096090D01*
X153569448Y-80109974D01*
X153549457Y-80121956D01*
X153528387Y-80131921D01*
X153506443Y-80139773D01*
X153483834Y-80145437D01*
X153460779Y-80148856D01*
X153437500Y-80150000D01*
X152962500Y-80150000D01*
X152939221Y-80148856D01*
X152916166Y-80145437D01*
X152893557Y-80139773D01*
X152871613Y-80131921D01*
X152850543Y-80121956D01*
X152830552Y-80109974D01*
X152811832Y-80096090D01*
X152794562Y-80080438D01*
X152778910Y-80063168D01*
X152765026Y-80044448D01*
X152753044Y-80024457D01*
X152743079Y-80003387D01*
X152735227Y-79981443D01*
X152729563Y-79958834D01*
X152726144Y-79935779D01*
X152725000Y-79912500D01*
X152725000Y-79337500D01*
X152726144Y-79314221D01*
X152729563Y-79291166D01*
X152735227Y-79268557D01*
X152743079Y-79246613D01*
X152753044Y-79225543D01*
X152765026Y-79205552D01*
X152778910Y-79186832D01*
X152794562Y-79169562D01*
X152811832Y-79153910D01*
X152830552Y-79140026D01*
X152850543Y-79128044D01*
X152871613Y-79118079D01*
X152893557Y-79110227D01*
X152916166Y-79104563D01*
X152939221Y-79101144D01*
X152962500Y-79100000D01*
X153437500Y-79100000D01*
X153460779Y-79101144D01*
G37*
G36*
X153460779Y-80851144D02*
G01*
X153483834Y-80854563D01*
X153506443Y-80860227D01*
X153528387Y-80868079D01*
X153549457Y-80878044D01*
X153569448Y-80890026D01*
X153588168Y-80903910D01*
X153605438Y-80919562D01*
X153621090Y-80936832D01*
X153634974Y-80955552D01*
X153646956Y-80975543D01*
X153656921Y-80996613D01*
X153664773Y-81018557D01*
X153670437Y-81041166D01*
X153673856Y-81064221D01*
X153675000Y-81087500D01*
X153675000Y-81662500D01*
X153673856Y-81685779D01*
X153670437Y-81708834D01*
X153664773Y-81731443D01*
X153656921Y-81753387D01*
X153646956Y-81774457D01*
X153634974Y-81794448D01*
X153621090Y-81813168D01*
X153605438Y-81830438D01*
X153588168Y-81846090D01*
X153569448Y-81859974D01*
X153549457Y-81871956D01*
X153528387Y-81881921D01*
X153506443Y-81889773D01*
X153483834Y-81895437D01*
X153460779Y-81898856D01*
X153437500Y-81900000D01*
X152962500Y-81900000D01*
X152939221Y-81898856D01*
X152916166Y-81895437D01*
X152893557Y-81889773D01*
X152871613Y-81881921D01*
X152850543Y-81871956D01*
X152830552Y-81859974D01*
X152811832Y-81846090D01*
X152794562Y-81830438D01*
X152778910Y-81813168D01*
X152765026Y-81794448D01*
X152753044Y-81774457D01*
X152743079Y-81753387D01*
X152735227Y-81731443D01*
X152729563Y-81708834D01*
X152726144Y-81685779D01*
X152725000Y-81662500D01*
X152725000Y-81087500D01*
X152726144Y-81064221D01*
X152729563Y-81041166D01*
X152735227Y-81018557D01*
X152743079Y-80996613D01*
X152753044Y-80975543D01*
X152765026Y-80955552D01*
X152778910Y-80936832D01*
X152794562Y-80919562D01*
X152811832Y-80903910D01*
X152830552Y-80890026D01*
X152850543Y-80878044D01*
X152871613Y-80868079D01*
X152893557Y-80860227D01*
X152916166Y-80854563D01*
X152939221Y-80851144D01*
X152962500Y-80850000D01*
X153437500Y-80850000D01*
X153460779Y-80851144D01*
G37*
M02*
