G04 #@! TF.GenerationSoftware,KiCad,Pcbnew,(5.1.5-0)*
G04 #@! TF.CreationDate,2021-10-28T11:32:37-06:00*
G04 #@! TF.ProjectId,TPS61165-heater-v2,54505336-3131-4363-952d-686561746572,rev?*
G04 #@! TF.SameCoordinates,Original*
G04 #@! TF.FileFunction,Legend,Top*
G04 #@! TF.FilePolarity,Positive*
%FSLAX46Y46*%
G04 Gerber Fmt 4.6, Leading zero omitted, Abs format (unit mm)*
G04 Created by KiCad (PCBNEW (5.1.5-0)) date 2021-10-28 11:32:37*
%MOMM*%
%LPD*%
G04 APERTURE LIST*
%ADD10C,0.150000*%
%ADD11C,0.254000*%
%ADD12C,0.120000*%
%ADD13C,0.152000*%
%ADD14R,3.102000X2.102000*%
%ADD15C,0.100000*%
%ADD16R,1.662000X0.752000*%
%ADD17C,1.342000*%
%ADD18O,1.802000X1.802000*%
%ADD19R,1.802000X1.802000*%
%ADD20R,5.402000X2.102000*%
%ADD21O,1.852000X1.302000*%
%ADD22O,1.902000X1.202000*%
%ADD23R,1.602000X0.902000*%
%ADD24R,1.602000X0.862000*%
%ADD25R,1.602000X0.802000*%
%ADD26R,1.002000X1.302000*%
G04 APERTURE END LIST*
D10*
X130709523Y-71385714D02*
X130709523Y-72195238D01*
X130661904Y-72290476D01*
X130614285Y-72338095D01*
X130519047Y-72385714D01*
X130376190Y-72385714D01*
X130280952Y-72338095D01*
X130709523Y-72004761D02*
X130614285Y-72052380D01*
X130423809Y-72052380D01*
X130328571Y-72004761D01*
X130280952Y-71957142D01*
X130233333Y-71861904D01*
X130233333Y-71576190D01*
X130280952Y-71480952D01*
X130328571Y-71433333D01*
X130423809Y-71385714D01*
X130614285Y-71385714D01*
X130709523Y-71433333D01*
X131185714Y-71385714D02*
X131185714Y-72052380D01*
X131185714Y-71480952D02*
X131233333Y-71433333D01*
X131328571Y-71385714D01*
X131471428Y-71385714D01*
X131566666Y-71433333D01*
X131614285Y-71528571D01*
X131614285Y-72052380D01*
X132519047Y-72052380D02*
X132519047Y-71052380D01*
X132519047Y-72004761D02*
X132423809Y-72052380D01*
X132233333Y-72052380D01*
X132138095Y-72004761D01*
X132090476Y-71957142D01*
X132042857Y-71861904D01*
X132042857Y-71576190D01*
X132090476Y-71480952D01*
X132138095Y-71433333D01*
X132233333Y-71385714D01*
X132423809Y-71385714D01*
X132519047Y-71433333D01*
X137480952Y-71804761D02*
X137385714Y-71852380D01*
X137195238Y-71852380D01*
X137100000Y-71804761D01*
X137052380Y-71757142D01*
X137004761Y-71661904D01*
X137004761Y-71376190D01*
X137052380Y-71280952D01*
X137100000Y-71233333D01*
X137195238Y-71185714D01*
X137385714Y-71185714D01*
X137480952Y-71233333D01*
X137766666Y-71185714D02*
X138147619Y-71185714D01*
X137909523Y-70852380D02*
X137909523Y-71709523D01*
X137957142Y-71804761D01*
X138052380Y-71852380D01*
X138147619Y-71852380D01*
X138480952Y-71852380D02*
X138480952Y-71185714D01*
X138480952Y-71376190D02*
X138528571Y-71280952D01*
X138576190Y-71233333D01*
X138671428Y-71185714D01*
X138766666Y-71185714D01*
X139242857Y-71852380D02*
X139147619Y-71804761D01*
X139100000Y-71709523D01*
X139100000Y-70852380D01*
X117833333Y-58035714D02*
X117833333Y-59035714D01*
X117833333Y-58083333D02*
X117928571Y-58035714D01*
X118119047Y-58035714D01*
X118214285Y-58083333D01*
X118261904Y-58130952D01*
X118309523Y-58226190D01*
X118309523Y-58511904D01*
X118261904Y-58607142D01*
X118214285Y-58654761D01*
X118119047Y-58702380D01*
X117928571Y-58702380D01*
X117833333Y-58654761D01*
X118880952Y-58702380D02*
X118785714Y-58654761D01*
X118738095Y-58607142D01*
X118690476Y-58511904D01*
X118690476Y-58226190D01*
X118738095Y-58130952D01*
X118785714Y-58083333D01*
X118880952Y-58035714D01*
X119023809Y-58035714D01*
X119119047Y-58083333D01*
X119166666Y-58130952D01*
X119214285Y-58226190D01*
X119214285Y-58511904D01*
X119166666Y-58607142D01*
X119119047Y-58654761D01*
X119023809Y-58702380D01*
X118880952Y-58702380D01*
X119547619Y-58035714D02*
X119738095Y-58702380D01*
X119928571Y-58226190D01*
X120119047Y-58702380D01*
X120309523Y-58035714D01*
X121071428Y-58654761D02*
X120976190Y-58702380D01*
X120785714Y-58702380D01*
X120690476Y-58654761D01*
X120642857Y-58559523D01*
X120642857Y-58178571D01*
X120690476Y-58083333D01*
X120785714Y-58035714D01*
X120976190Y-58035714D01*
X121071428Y-58083333D01*
X121119047Y-58178571D01*
X121119047Y-58273809D01*
X120642857Y-58369047D01*
X121547619Y-58702380D02*
X121547619Y-58035714D01*
X121547619Y-58226190D02*
X121595238Y-58130952D01*
X121642857Y-58083333D01*
X121738095Y-58035714D01*
X121833333Y-58035714D01*
X122928571Y-58702380D02*
X122928571Y-57702380D01*
X123357142Y-58702380D02*
X123357142Y-58178571D01*
X123309523Y-58083333D01*
X123214285Y-58035714D01*
X123071428Y-58035714D01*
X122976190Y-58083333D01*
X122928571Y-58130952D01*
X124214285Y-58654761D02*
X124119047Y-58702380D01*
X123928571Y-58702380D01*
X123833333Y-58654761D01*
X123785714Y-58559523D01*
X123785714Y-58178571D01*
X123833333Y-58083333D01*
X123928571Y-58035714D01*
X124119047Y-58035714D01*
X124214285Y-58083333D01*
X124261904Y-58178571D01*
X124261904Y-58273809D01*
X123785714Y-58369047D01*
X125119047Y-58702380D02*
X125119047Y-58178571D01*
X125071428Y-58083333D01*
X124976190Y-58035714D01*
X124785714Y-58035714D01*
X124690476Y-58083333D01*
X125119047Y-58654761D02*
X125023809Y-58702380D01*
X124785714Y-58702380D01*
X124690476Y-58654761D01*
X124642857Y-58559523D01*
X124642857Y-58464285D01*
X124690476Y-58369047D01*
X124785714Y-58321428D01*
X125023809Y-58321428D01*
X125119047Y-58273809D01*
X125452380Y-58035714D02*
X125833333Y-58035714D01*
X125595238Y-57702380D02*
X125595238Y-58559523D01*
X125642857Y-58654761D01*
X125738095Y-58702380D01*
X125833333Y-58702380D01*
X126547619Y-58654761D02*
X126452380Y-58702380D01*
X126261904Y-58702380D01*
X126166666Y-58654761D01*
X126119047Y-58559523D01*
X126119047Y-58178571D01*
X126166666Y-58083333D01*
X126261904Y-58035714D01*
X126452380Y-58035714D01*
X126547619Y-58083333D01*
X126595238Y-58178571D01*
X126595238Y-58273809D01*
X126119047Y-58369047D01*
X127023809Y-58702380D02*
X127023809Y-58035714D01*
X127023809Y-58226190D02*
X127071428Y-58130952D01*
X127119047Y-58083333D01*
X127214285Y-58035714D01*
X127309523Y-58035714D01*
X118857142Y-59352380D02*
X119428571Y-59352380D01*
X119142857Y-60352380D02*
X119142857Y-59352380D01*
X119761904Y-60352380D02*
X119761904Y-59352380D01*
X120142857Y-59352380D01*
X120238095Y-59400000D01*
X120285714Y-59447619D01*
X120333333Y-59542857D01*
X120333333Y-59685714D01*
X120285714Y-59780952D01*
X120238095Y-59828571D01*
X120142857Y-59876190D01*
X119761904Y-59876190D01*
X120714285Y-60304761D02*
X120857142Y-60352380D01*
X121095238Y-60352380D01*
X121190476Y-60304761D01*
X121238095Y-60257142D01*
X121285714Y-60161904D01*
X121285714Y-60066666D01*
X121238095Y-59971428D01*
X121190476Y-59923809D01*
X121095238Y-59876190D01*
X120904761Y-59828571D01*
X120809523Y-59780952D01*
X120761904Y-59733333D01*
X120714285Y-59638095D01*
X120714285Y-59542857D01*
X120761904Y-59447619D01*
X120809523Y-59400000D01*
X120904761Y-59352380D01*
X121142857Y-59352380D01*
X121285714Y-59400000D01*
X122142857Y-59352380D02*
X121952380Y-59352380D01*
X121857142Y-59400000D01*
X121809523Y-59447619D01*
X121714285Y-59590476D01*
X121666666Y-59780952D01*
X121666666Y-60161904D01*
X121714285Y-60257142D01*
X121761904Y-60304761D01*
X121857142Y-60352380D01*
X122047619Y-60352380D01*
X122142857Y-60304761D01*
X122190476Y-60257142D01*
X122238095Y-60161904D01*
X122238095Y-59923809D01*
X122190476Y-59828571D01*
X122142857Y-59780952D01*
X122047619Y-59733333D01*
X121857142Y-59733333D01*
X121761904Y-59780952D01*
X121714285Y-59828571D01*
X121666666Y-59923809D01*
X123190476Y-60352380D02*
X122619047Y-60352380D01*
X122904761Y-60352380D02*
X122904761Y-59352380D01*
X122809523Y-59495238D01*
X122714285Y-59590476D01*
X122619047Y-59638095D01*
X124142857Y-60352380D02*
X123571428Y-60352380D01*
X123857142Y-60352380D02*
X123857142Y-59352380D01*
X123761904Y-59495238D01*
X123666666Y-59590476D01*
X123571428Y-59638095D01*
X125000000Y-59352380D02*
X124809523Y-59352380D01*
X124714285Y-59400000D01*
X124666666Y-59447619D01*
X124571428Y-59590476D01*
X124523809Y-59780952D01*
X124523809Y-60161904D01*
X124571428Y-60257142D01*
X124619047Y-60304761D01*
X124714285Y-60352380D01*
X124904761Y-60352380D01*
X125000000Y-60304761D01*
X125047619Y-60257142D01*
X125095238Y-60161904D01*
X125095238Y-59923809D01*
X125047619Y-59828571D01*
X125000000Y-59780952D01*
X124904761Y-59733333D01*
X124714285Y-59733333D01*
X124619047Y-59780952D01*
X124571428Y-59828571D01*
X124523809Y-59923809D01*
X126000000Y-59352380D02*
X125523809Y-59352380D01*
X125476190Y-59828571D01*
X125523809Y-59780952D01*
X125619047Y-59733333D01*
X125857142Y-59733333D01*
X125952380Y-59780952D01*
X126000000Y-59828571D01*
X126047619Y-59923809D01*
X126047619Y-60161904D01*
X126000000Y-60257142D01*
X125952380Y-60304761D01*
X125857142Y-60352380D01*
X125619047Y-60352380D01*
X125523809Y-60304761D01*
X125476190Y-60257142D01*
X119880952Y-62002380D02*
X119309523Y-62002380D01*
X119595238Y-62002380D02*
X119595238Y-61002380D01*
X119500000Y-61145238D01*
X119404761Y-61240476D01*
X119309523Y-61288095D01*
X120500000Y-61002380D02*
X120595238Y-61002380D01*
X120690476Y-61050000D01*
X120738095Y-61097619D01*
X120785714Y-61192857D01*
X120833333Y-61383333D01*
X120833333Y-61621428D01*
X120785714Y-61811904D01*
X120738095Y-61907142D01*
X120690476Y-61954761D01*
X120595238Y-62002380D01*
X120500000Y-62002380D01*
X120404761Y-61954761D01*
X120357142Y-61907142D01*
X120309523Y-61811904D01*
X120261904Y-61621428D01*
X120261904Y-61383333D01*
X120309523Y-61192857D01*
X120357142Y-61097619D01*
X120404761Y-61050000D01*
X120500000Y-61002380D01*
X121976190Y-60954761D02*
X121119047Y-62240476D01*
X122261904Y-61097619D02*
X122309523Y-61050000D01*
X122404761Y-61002380D01*
X122642857Y-61002380D01*
X122738095Y-61050000D01*
X122785714Y-61097619D01*
X122833333Y-61192857D01*
X122833333Y-61288095D01*
X122785714Y-61430952D01*
X122214285Y-62002380D01*
X122833333Y-62002380D01*
X123452380Y-61002380D02*
X123547619Y-61002380D01*
X123642857Y-61050000D01*
X123690476Y-61097619D01*
X123738095Y-61192857D01*
X123785714Y-61383333D01*
X123785714Y-61621428D01*
X123738095Y-61811904D01*
X123690476Y-61907142D01*
X123642857Y-61954761D01*
X123547619Y-62002380D01*
X123452380Y-62002380D01*
X123357142Y-61954761D01*
X123309523Y-61907142D01*
X123261904Y-61811904D01*
X123214285Y-61621428D01*
X123214285Y-61383333D01*
X123261904Y-61192857D01*
X123309523Y-61097619D01*
X123357142Y-61050000D01*
X123452380Y-61002380D01*
X124166666Y-61097619D02*
X124214285Y-61050000D01*
X124309523Y-61002380D01*
X124547619Y-61002380D01*
X124642857Y-61050000D01*
X124690476Y-61097619D01*
X124738095Y-61192857D01*
X124738095Y-61288095D01*
X124690476Y-61430952D01*
X124119047Y-62002380D01*
X124738095Y-62002380D01*
X125690476Y-62002380D02*
X125119047Y-62002380D01*
X125404761Y-62002380D02*
X125404761Y-61002380D01*
X125309523Y-61145238D01*
X125214285Y-61240476D01*
X125119047Y-61288095D01*
D11*
X132678000Y-82597000D02*
G75*
G03X131662000Y-82597000I-508000J0D01*
G01*
X131662000Y-82597000D02*
G75*
G03X130646000Y-82597000I-508000J0D01*
G01*
X130646000Y-82597000D02*
G75*
G03X129630000Y-82597000I-508000J0D01*
G01*
X131554000Y-79803000D02*
G75*
G03X132570000Y-79803000I508000J0D01*
G01*
X130538000Y-79803000D02*
G75*
G03X131554000Y-79803000I508000J0D01*
G01*
X129522000Y-79803000D02*
G75*
G03X130538000Y-79803000I508000J0D01*
G01*
X127417000Y-78914000D02*
G75*
G03X127417000Y-78914000I-254000J0D01*
G01*
X126401000Y-78621000D02*
X126401000Y-83779000D01*
X135672000Y-78621000D02*
X135672000Y-83779000D01*
X127871000Y-79803000D02*
X129522000Y-79803000D01*
X134329000Y-79803000D02*
X132678000Y-79803000D01*
X134329000Y-82597000D02*
X132678000Y-82597000D01*
X128179000Y-80819000D02*
X133767000Y-80819000D01*
X133767000Y-81581000D02*
X128179000Y-81581000D01*
X127871000Y-82597000D02*
X129522000Y-82597000D01*
X129322000Y-76882000D02*
X132878000Y-76882000D01*
X132878000Y-85518000D02*
X129322000Y-85518000D01*
D12*
X149646267Y-84890000D02*
X149303733Y-84890000D01*
X149646267Y-85910000D02*
X149303733Y-85910000D01*
X140371267Y-65590000D02*
X140028733Y-65590000D01*
X140371267Y-66610000D02*
X140028733Y-66610000D01*
X139600000Y-69650000D02*
X139600000Y-68250000D01*
X140300000Y-67550000D02*
X140900000Y-67550000D01*
X141600000Y-68250000D02*
X141600000Y-69650000D01*
X140900000Y-70350000D02*
X140300000Y-70350000D01*
X140300000Y-70350000D02*
G75*
G02X139600000Y-69650000I0J700000D01*
G01*
X141600000Y-69650000D02*
G75*
G02X140900000Y-70350000I-700000J0D01*
G01*
X140900000Y-67550000D02*
G75*
G02X141600000Y-68250000I0J-700000D01*
G01*
X139600000Y-68250000D02*
G75*
G02X140300000Y-67550000I700000J0D01*
G01*
X153750000Y-86500000D02*
X152350000Y-86500000D01*
X151650000Y-85800000D02*
X151650000Y-85200000D01*
X152350000Y-84500000D02*
X153750000Y-84500000D01*
X154450000Y-85200000D02*
X154450000Y-85800000D01*
X154450000Y-85800000D02*
G75*
G02X153750000Y-86500000I-700000J0D01*
G01*
X153750000Y-84500000D02*
G75*
G02X154450000Y-85200000I0J-700000D01*
G01*
X151650000Y-85200000D02*
G75*
G02X152350000Y-84500000I700000J0D01*
G01*
X152350000Y-86500000D02*
G75*
G02X151650000Y-85800000I0J700000D01*
G01*
X148330000Y-82340000D02*
X151280000Y-82340000D01*
X150130000Y-79120000D02*
X148330000Y-79120000D01*
X158080000Y-86210000D02*
X156840000Y-86210000D01*
X158080000Y-82470000D02*
X156840000Y-82470000D01*
X155590000Y-84960000D02*
X155590000Y-83720000D01*
X159330000Y-84960000D02*
X159330000Y-83720000D01*
X138330000Y-73700000D02*
X138330000Y-75030000D01*
X138330000Y-75030000D02*
X137000000Y-75030000D01*
X135730000Y-75030000D02*
X133130000Y-75030000D01*
X133130000Y-72370000D02*
X133130000Y-75030000D01*
X135730000Y-72370000D02*
X133130000Y-72370000D01*
X135730000Y-72370000D02*
X135730000Y-75030000D01*
D11*
X139500000Y-80850000D02*
X139500000Y-75150000D01*
X145300000Y-80850000D02*
X145300000Y-75150000D01*
D12*
X151390000Y-73928733D02*
X151390000Y-74271267D01*
X152410000Y-73928733D02*
X152410000Y-74271267D01*
X150171267Y-82890000D02*
X149828733Y-82890000D01*
X150171267Y-83910000D02*
X149828733Y-83910000D01*
X133580000Y-66530000D02*
X134820000Y-66530000D01*
X133580000Y-70270000D02*
X134820000Y-70270000D01*
X136070000Y-67780000D02*
X136070000Y-69020000D01*
X132330000Y-67780000D02*
X132330000Y-69020000D01*
X149590000Y-72160000D02*
X150840000Y-72160000D01*
X149590000Y-70910000D02*
X149590000Y-72160000D01*
X154000000Y-68800000D02*
X153500000Y-68800000D01*
X153500000Y-68700000D02*
X154000000Y-68700000D01*
X153500000Y-68900000D02*
X153500000Y-68700000D01*
X154000000Y-68900000D02*
X153500000Y-68900000D01*
X152500000Y-65740000D02*
X152500000Y-66350000D01*
X151200000Y-65740000D02*
X151200000Y-66350000D01*
X152500000Y-71860000D02*
X152500000Y-71250000D01*
X151200000Y-71860000D02*
X151200000Y-71250000D01*
X150500000Y-68300000D02*
X149890000Y-68300000D01*
X150500000Y-66350000D02*
X150500000Y-68300000D01*
X154000000Y-66350000D02*
X150500000Y-66350000D01*
X154000000Y-71250000D02*
X154000000Y-66350000D01*
X150500000Y-71250000D02*
X154000000Y-71250000D01*
X150500000Y-69300000D02*
X150500000Y-71250000D01*
X149890000Y-69300000D02*
X150500000Y-69300000D01*
X149790000Y-70100000D02*
X149790000Y-70400000D01*
X149690000Y-70400000D02*
X149890000Y-70400000D01*
X149690000Y-70100000D02*
X149690000Y-70400000D01*
X149890000Y-70100000D02*
X149690000Y-70100000D01*
X149890000Y-65740000D02*
X149890000Y-71860000D01*
X154610000Y-65740000D02*
X149890000Y-65740000D01*
X154610000Y-71860000D02*
X154610000Y-65740000D01*
X149890000Y-71860000D02*
X154610000Y-71860000D01*
X144000000Y-71130000D02*
X142670000Y-71130000D01*
X142670000Y-71130000D02*
X142670000Y-69800000D01*
X142670000Y-68530000D02*
X142670000Y-65930000D01*
X145330000Y-65930000D02*
X142670000Y-65930000D01*
X145330000Y-68530000D02*
X145330000Y-65930000D01*
X145330000Y-68530000D02*
X142670000Y-68530000D01*
X125010000Y-65540000D02*
X123760000Y-65540000D01*
X125010000Y-66790000D02*
X125010000Y-65540000D01*
X120600000Y-68900000D02*
X121100000Y-68900000D01*
X121100000Y-69000000D02*
X120600000Y-69000000D01*
X121100000Y-68800000D02*
X121100000Y-69000000D01*
X120600000Y-68800000D02*
X121100000Y-68800000D01*
X122100000Y-71960000D02*
X122100000Y-71350000D01*
X123400000Y-71960000D02*
X123400000Y-71350000D01*
X122100000Y-65840000D02*
X122100000Y-66450000D01*
X123400000Y-65840000D02*
X123400000Y-66450000D01*
X124100000Y-69400000D02*
X124710000Y-69400000D01*
X124100000Y-71350000D02*
X124100000Y-69400000D01*
X120600000Y-71350000D02*
X124100000Y-71350000D01*
X120600000Y-66450000D02*
X120600000Y-71350000D01*
X124100000Y-66450000D02*
X120600000Y-66450000D01*
X124100000Y-68400000D02*
X124100000Y-66450000D01*
X124710000Y-68400000D02*
X124100000Y-68400000D01*
X124810000Y-67600000D02*
X124810000Y-67300000D01*
X124910000Y-67300000D02*
X124710000Y-67300000D01*
X124910000Y-67600000D02*
X124910000Y-67300000D01*
X124710000Y-67600000D02*
X124910000Y-67600000D01*
X124710000Y-71960000D02*
X124710000Y-65840000D01*
X119990000Y-71960000D02*
X124710000Y-71960000D01*
X119990000Y-65840000D02*
X119990000Y-71960000D01*
X124710000Y-65840000D02*
X119990000Y-65840000D01*
D11*
X120963000Y-85400000D02*
X119723000Y-85400000D01*
X120915000Y-76600000D02*
X119675000Y-76600000D01*
X115824000Y-85409000D02*
X117175000Y-85409000D01*
X115825000Y-76600000D02*
X117205000Y-76600000D01*
X115825000Y-76590000D02*
X115825000Y-85410000D01*
D12*
X152450000Y-78300000D02*
X148550000Y-78300000D01*
X152450000Y-76300000D02*
X148550000Y-76300000D01*
X152450000Y-78300000D02*
X152450000Y-76300000D01*
X145090000Y-82938748D02*
X145090000Y-83461252D01*
X146510000Y-82938748D02*
X146510000Y-83461252D01*
X154690000Y-78113748D02*
X154690000Y-78636252D01*
X156110000Y-78113748D02*
X156110000Y-78636252D01*
X153710000Y-80671267D02*
X153710000Y-80328733D01*
X152690000Y-80671267D02*
X152690000Y-80328733D01*
D13*
X127051942Y-75218357D02*
X126670942Y-75218357D01*
X126670942Y-75817071D02*
X126670942Y-74674071D01*
X127215228Y-74674071D01*
X128194942Y-75817071D02*
X127650657Y-75817071D01*
X127650657Y-74674071D01*
X128521514Y-74782928D02*
X128575942Y-74728500D01*
X128684800Y-74674071D01*
X128956942Y-74674071D01*
X129065800Y-74728500D01*
X129120228Y-74782928D01*
X129174657Y-74891785D01*
X129174657Y-75000642D01*
X129120228Y-75163928D01*
X128467085Y-75817071D01*
X129174657Y-75817071D01*
D10*
X149308333Y-87282380D02*
X148975000Y-86806190D01*
X148736904Y-87282380D02*
X148736904Y-86282380D01*
X149117857Y-86282380D01*
X149213095Y-86330000D01*
X149260714Y-86377619D01*
X149308333Y-86472857D01*
X149308333Y-86615714D01*
X149260714Y-86710952D01*
X149213095Y-86758571D01*
X149117857Y-86806190D01*
X148736904Y-86806190D01*
X149689285Y-86377619D02*
X149736904Y-86330000D01*
X149832142Y-86282380D01*
X150070238Y-86282380D01*
X150165476Y-86330000D01*
X150213095Y-86377619D01*
X150260714Y-86472857D01*
X150260714Y-86568095D01*
X150213095Y-86710952D01*
X149641666Y-87282380D01*
X150260714Y-87282380D01*
X139933333Y-65252380D02*
X139600000Y-64776190D01*
X139361904Y-65252380D02*
X139361904Y-64252380D01*
X139742857Y-64252380D01*
X139838095Y-64300000D01*
X139885714Y-64347619D01*
X139933333Y-64442857D01*
X139933333Y-64585714D01*
X139885714Y-64680952D01*
X139838095Y-64728571D01*
X139742857Y-64776190D01*
X139361904Y-64776190D01*
X140790476Y-64585714D02*
X140790476Y-65252380D01*
X140552380Y-64204761D02*
X140314285Y-64919047D01*
X140933333Y-64919047D01*
X138252380Y-69783333D02*
X138966666Y-69783333D01*
X139109523Y-69830952D01*
X139204761Y-69926190D01*
X139252380Y-70069047D01*
X139252380Y-70164285D01*
X139252380Y-69307142D02*
X138252380Y-69307142D01*
X138252380Y-68926190D01*
X138300000Y-68830952D01*
X138347619Y-68783333D01*
X138442857Y-68735714D01*
X138585714Y-68735714D01*
X138680952Y-68783333D01*
X138728571Y-68830952D01*
X138776190Y-68926190D01*
X138776190Y-69307142D01*
X138347619Y-68354761D02*
X138300000Y-68307142D01*
X138252380Y-68211904D01*
X138252380Y-67973809D01*
X138300000Y-67878571D01*
X138347619Y-67830952D01*
X138442857Y-67783333D01*
X138538095Y-67783333D01*
X138680952Y-67830952D01*
X139252380Y-68402380D01*
X139252380Y-67783333D01*
X152216666Y-86752380D02*
X152216666Y-87466666D01*
X152169047Y-87609523D01*
X152073809Y-87704761D01*
X151930952Y-87752380D01*
X151835714Y-87752380D01*
X152692857Y-87752380D02*
X152692857Y-86752380D01*
X153073809Y-86752380D01*
X153169047Y-86800000D01*
X153216666Y-86847619D01*
X153264285Y-86942857D01*
X153264285Y-87085714D01*
X153216666Y-87180952D01*
X153169047Y-87228571D01*
X153073809Y-87276190D01*
X152692857Y-87276190D01*
X154216666Y-87752380D02*
X153645238Y-87752380D01*
X153930952Y-87752380D02*
X153930952Y-86752380D01*
X153835714Y-86895238D01*
X153740476Y-86990476D01*
X153645238Y-87038095D01*
X152138095Y-82442380D02*
X152138095Y-83251904D01*
X152185714Y-83347142D01*
X152233333Y-83394761D01*
X152328571Y-83442380D01*
X152519047Y-83442380D01*
X152614285Y-83394761D01*
X152661904Y-83347142D01*
X152709523Y-83251904D01*
X152709523Y-82442380D01*
X153709523Y-83442380D02*
X153138095Y-83442380D01*
X153423809Y-83442380D02*
X153423809Y-82442380D01*
X153328571Y-82585238D01*
X153233333Y-82680476D01*
X153138095Y-82728095D01*
X157086666Y-80592380D02*
X157086666Y-81306666D01*
X157039047Y-81449523D01*
X156943809Y-81544761D01*
X156800952Y-81592380D01*
X156705714Y-81592380D01*
X157467619Y-80592380D02*
X158134285Y-80592380D01*
X157705714Y-81592380D01*
X131452380Y-73933333D02*
X132166666Y-73933333D01*
X132309523Y-73980952D01*
X132404761Y-74076190D01*
X132452380Y-74219047D01*
X132452380Y-74314285D01*
X131452380Y-73028571D02*
X131452380Y-73219047D01*
X131500000Y-73314285D01*
X131547619Y-73361904D01*
X131690476Y-73457142D01*
X131880952Y-73504761D01*
X132261904Y-73504761D01*
X132357142Y-73457142D01*
X132404761Y-73409523D01*
X132452380Y-73314285D01*
X132452380Y-73123809D01*
X132404761Y-73028571D01*
X132357142Y-72980952D01*
X132261904Y-72933333D01*
X132023809Y-72933333D01*
X131928571Y-72980952D01*
X131880952Y-73028571D01*
X131833333Y-73123809D01*
X131833333Y-73314285D01*
X131880952Y-73409523D01*
X131928571Y-73457142D01*
X132023809Y-73504761D01*
D13*
X144617071Y-73884771D02*
X144617071Y-74429057D01*
X143474071Y-74429057D01*
X144617071Y-72905057D02*
X144617071Y-73558200D01*
X144617071Y-73231628D02*
X143474071Y-73231628D01*
X143637357Y-73340485D01*
X143746214Y-73449342D01*
X143800642Y-73558200D01*
D10*
X153782380Y-74266666D02*
X153306190Y-74600000D01*
X153782380Y-74838095D02*
X152782380Y-74838095D01*
X152782380Y-74457142D01*
X152830000Y-74361904D01*
X152877619Y-74314285D01*
X152972857Y-74266666D01*
X153115714Y-74266666D01*
X153210952Y-74314285D01*
X153258571Y-74361904D01*
X153306190Y-74457142D01*
X153306190Y-74838095D01*
X152782380Y-73933333D02*
X152782380Y-73314285D01*
X153163333Y-73647619D01*
X153163333Y-73504761D01*
X153210952Y-73409523D01*
X153258571Y-73361904D01*
X153353809Y-73314285D01*
X153591904Y-73314285D01*
X153687142Y-73361904D01*
X153734761Y-73409523D01*
X153782380Y-73504761D01*
X153782380Y-73790476D01*
X153734761Y-73885714D01*
X153687142Y-73933333D01*
X147533333Y-83752380D02*
X147200000Y-83276190D01*
X146961904Y-83752380D02*
X146961904Y-82752380D01*
X147342857Y-82752380D01*
X147438095Y-82800000D01*
X147485714Y-82847619D01*
X147533333Y-82942857D01*
X147533333Y-83085714D01*
X147485714Y-83180952D01*
X147438095Y-83228571D01*
X147342857Y-83276190D01*
X146961904Y-83276190D01*
X148485714Y-83752380D02*
X147914285Y-83752380D01*
X148200000Y-83752380D02*
X148200000Y-82752380D01*
X148104761Y-82895238D01*
X148009523Y-82990476D01*
X147914285Y-83038095D01*
X137066666Y-66152380D02*
X137066666Y-66866666D01*
X137019047Y-67009523D01*
X136923809Y-67104761D01*
X136780952Y-67152380D01*
X136685714Y-67152380D01*
X138019047Y-66152380D02*
X137542857Y-66152380D01*
X137495238Y-66628571D01*
X137542857Y-66580952D01*
X137638095Y-66533333D01*
X137876190Y-66533333D01*
X137971428Y-66580952D01*
X138019047Y-66628571D01*
X138066666Y-66723809D01*
X138066666Y-66961904D01*
X138019047Y-67057142D01*
X137971428Y-67104761D01*
X137876190Y-67152380D01*
X137638095Y-67152380D01*
X137542857Y-67104761D01*
X137495238Y-67057142D01*
X148152380Y-71533333D02*
X148866666Y-71533333D01*
X149009523Y-71580952D01*
X149104761Y-71676190D01*
X149152380Y-71819047D01*
X149152380Y-71914285D01*
X148485714Y-70628571D02*
X149152380Y-70628571D01*
X148104761Y-70866666D02*
X148819047Y-71104761D01*
X148819047Y-70485714D01*
X141766666Y-71452380D02*
X141766666Y-72166666D01*
X141719047Y-72309523D01*
X141623809Y-72404761D01*
X141480952Y-72452380D01*
X141385714Y-72452380D01*
X142147619Y-71452380D02*
X142766666Y-71452380D01*
X142433333Y-71833333D01*
X142576190Y-71833333D01*
X142671428Y-71880952D01*
X142719047Y-71928571D01*
X142766666Y-72023809D01*
X142766666Y-72261904D01*
X142719047Y-72357142D01*
X142671428Y-72404761D01*
X142576190Y-72452380D01*
X142290476Y-72452380D01*
X142195238Y-72404761D01*
X142147619Y-72357142D01*
X125252380Y-69233333D02*
X125966666Y-69233333D01*
X126109523Y-69280952D01*
X126204761Y-69376190D01*
X126252380Y-69519047D01*
X126252380Y-69614285D01*
X125347619Y-68804761D02*
X125300000Y-68757142D01*
X125252380Y-68661904D01*
X125252380Y-68423809D01*
X125300000Y-68328571D01*
X125347619Y-68280952D01*
X125442857Y-68233333D01*
X125538095Y-68233333D01*
X125680952Y-68280952D01*
X126252380Y-68852380D01*
X126252380Y-68233333D01*
D13*
X123574071Y-81159514D02*
X124390500Y-81159514D01*
X124553785Y-81213942D01*
X124662642Y-81322800D01*
X124717071Y-81486085D01*
X124717071Y-81594942D01*
X124717071Y-80016514D02*
X124717071Y-80669657D01*
X124717071Y-80343085D02*
X123574071Y-80343085D01*
X123737357Y-80451942D01*
X123846214Y-80560800D01*
X123900642Y-80669657D01*
D10*
X146261904Y-77452380D02*
X146261904Y-76452380D01*
X146500000Y-76452380D01*
X146642857Y-76500000D01*
X146738095Y-76595238D01*
X146785714Y-76690476D01*
X146833333Y-76880952D01*
X146833333Y-77023809D01*
X146785714Y-77214285D01*
X146738095Y-77309523D01*
X146642857Y-77404761D01*
X146500000Y-77452380D01*
X146261904Y-77452380D01*
X147785714Y-77452380D02*
X147214285Y-77452380D01*
X147500000Y-77452380D02*
X147500000Y-76452380D01*
X147404761Y-76595238D01*
X147309523Y-76690476D01*
X147214285Y-76738095D01*
X146257142Y-86341666D02*
X146304761Y-86389285D01*
X146352380Y-86532142D01*
X146352380Y-86627380D01*
X146304761Y-86770238D01*
X146209523Y-86865476D01*
X146114285Y-86913095D01*
X145923809Y-86960714D01*
X145780952Y-86960714D01*
X145590476Y-86913095D01*
X145495238Y-86865476D01*
X145400000Y-86770238D01*
X145352380Y-86627380D01*
X145352380Y-86532142D01*
X145400000Y-86389285D01*
X145447619Y-86341666D01*
X145352380Y-86008333D02*
X145352380Y-85389285D01*
X145733333Y-85722619D01*
X145733333Y-85579761D01*
X145780952Y-85484523D01*
X145828571Y-85436904D01*
X145923809Y-85389285D01*
X146161904Y-85389285D01*
X146257142Y-85436904D01*
X146304761Y-85484523D01*
X146352380Y-85579761D01*
X146352380Y-85865476D01*
X146304761Y-85960714D01*
X146257142Y-86008333D01*
X157407142Y-78541666D02*
X157454761Y-78589285D01*
X157502380Y-78732142D01*
X157502380Y-78827380D01*
X157454761Y-78970238D01*
X157359523Y-79065476D01*
X157264285Y-79113095D01*
X157073809Y-79160714D01*
X156930952Y-79160714D01*
X156740476Y-79113095D01*
X156645238Y-79065476D01*
X156550000Y-78970238D01*
X156502380Y-78827380D01*
X156502380Y-78732142D01*
X156550000Y-78589285D01*
X156597619Y-78541666D01*
X156597619Y-78160714D02*
X156550000Y-78113095D01*
X156502380Y-78017857D01*
X156502380Y-77779761D01*
X156550000Y-77684523D01*
X156597619Y-77636904D01*
X156692857Y-77589285D01*
X156788095Y-77589285D01*
X156930952Y-77636904D01*
X157502380Y-78208333D01*
X157502380Y-77589285D01*
X153727142Y-77826666D02*
X153774761Y-77874285D01*
X153822380Y-78017142D01*
X153822380Y-78112380D01*
X153774761Y-78255238D01*
X153679523Y-78350476D01*
X153584285Y-78398095D01*
X153393809Y-78445714D01*
X153250952Y-78445714D01*
X153060476Y-78398095D01*
X152965238Y-78350476D01*
X152870000Y-78255238D01*
X152822380Y-78112380D01*
X152822380Y-78017142D01*
X152870000Y-77874285D01*
X152917619Y-77826666D01*
X153822380Y-76874285D02*
X153822380Y-77445714D01*
X153822380Y-77160000D02*
X152822380Y-77160000D01*
X152965238Y-77255238D01*
X153060476Y-77350476D01*
X153108095Y-77445714D01*
%LPC*%
D14*
X127300000Y-77390000D03*
X127300000Y-85010000D03*
X134900000Y-85010000D03*
X134900000Y-77390000D03*
D15*
G36*
X148938779Y-84875266D02*
G01*
X148964309Y-84879053D01*
X148989345Y-84885325D01*
X149013646Y-84894020D01*
X149036977Y-84905055D01*
X149059115Y-84918323D01*
X149079845Y-84933698D01*
X149098969Y-84951031D01*
X149116302Y-84970155D01*
X149131677Y-84990885D01*
X149144945Y-85013023D01*
X149155980Y-85036354D01*
X149164675Y-85060655D01*
X149170947Y-85085691D01*
X149174734Y-85111221D01*
X149176000Y-85137000D01*
X149176000Y-85663000D01*
X149174734Y-85688779D01*
X149170947Y-85714309D01*
X149164675Y-85739345D01*
X149155980Y-85763646D01*
X149144945Y-85786977D01*
X149131677Y-85809115D01*
X149116302Y-85829845D01*
X149098969Y-85848969D01*
X149079845Y-85866302D01*
X149059115Y-85881677D01*
X149036977Y-85894945D01*
X149013646Y-85905980D01*
X148989345Y-85914675D01*
X148964309Y-85920947D01*
X148938779Y-85924734D01*
X148913000Y-85926000D01*
X148287000Y-85926000D01*
X148261221Y-85924734D01*
X148235691Y-85920947D01*
X148210655Y-85914675D01*
X148186354Y-85905980D01*
X148163023Y-85894945D01*
X148140885Y-85881677D01*
X148120155Y-85866302D01*
X148101031Y-85848969D01*
X148083698Y-85829845D01*
X148068323Y-85809115D01*
X148055055Y-85786977D01*
X148044020Y-85763646D01*
X148035325Y-85739345D01*
X148029053Y-85714309D01*
X148025266Y-85688779D01*
X148024000Y-85663000D01*
X148024000Y-85137000D01*
X148025266Y-85111221D01*
X148029053Y-85085691D01*
X148035325Y-85060655D01*
X148044020Y-85036354D01*
X148055055Y-85013023D01*
X148068323Y-84990885D01*
X148083698Y-84970155D01*
X148101031Y-84951031D01*
X148120155Y-84933698D01*
X148140885Y-84918323D01*
X148163023Y-84905055D01*
X148186354Y-84894020D01*
X148210655Y-84885325D01*
X148235691Y-84879053D01*
X148261221Y-84875266D01*
X148287000Y-84874000D01*
X148913000Y-84874000D01*
X148938779Y-84875266D01*
G37*
G36*
X150688779Y-84875266D02*
G01*
X150714309Y-84879053D01*
X150739345Y-84885325D01*
X150763646Y-84894020D01*
X150786977Y-84905055D01*
X150809115Y-84918323D01*
X150829845Y-84933698D01*
X150848969Y-84951031D01*
X150866302Y-84970155D01*
X150881677Y-84990885D01*
X150894945Y-85013023D01*
X150905980Y-85036354D01*
X150914675Y-85060655D01*
X150920947Y-85085691D01*
X150924734Y-85111221D01*
X150926000Y-85137000D01*
X150926000Y-85663000D01*
X150924734Y-85688779D01*
X150920947Y-85714309D01*
X150914675Y-85739345D01*
X150905980Y-85763646D01*
X150894945Y-85786977D01*
X150881677Y-85809115D01*
X150866302Y-85829845D01*
X150848969Y-85848969D01*
X150829845Y-85866302D01*
X150809115Y-85881677D01*
X150786977Y-85894945D01*
X150763646Y-85905980D01*
X150739345Y-85914675D01*
X150714309Y-85920947D01*
X150688779Y-85924734D01*
X150663000Y-85926000D01*
X150037000Y-85926000D01*
X150011221Y-85924734D01*
X149985691Y-85920947D01*
X149960655Y-85914675D01*
X149936354Y-85905980D01*
X149913023Y-85894945D01*
X149890885Y-85881677D01*
X149870155Y-85866302D01*
X149851031Y-85848969D01*
X149833698Y-85829845D01*
X149818323Y-85809115D01*
X149805055Y-85786977D01*
X149794020Y-85763646D01*
X149785325Y-85739345D01*
X149779053Y-85714309D01*
X149775266Y-85688779D01*
X149774000Y-85663000D01*
X149774000Y-85137000D01*
X149775266Y-85111221D01*
X149779053Y-85085691D01*
X149785325Y-85060655D01*
X149794020Y-85036354D01*
X149805055Y-85013023D01*
X149818323Y-84990885D01*
X149833698Y-84970155D01*
X149851031Y-84951031D01*
X149870155Y-84933698D01*
X149890885Y-84918323D01*
X149913023Y-84905055D01*
X149936354Y-84894020D01*
X149960655Y-84885325D01*
X149985691Y-84879053D01*
X150011221Y-84875266D01*
X150037000Y-84874000D01*
X150663000Y-84874000D01*
X150688779Y-84875266D01*
G37*
G36*
X139663779Y-65575266D02*
G01*
X139689309Y-65579053D01*
X139714345Y-65585325D01*
X139738646Y-65594020D01*
X139761977Y-65605055D01*
X139784115Y-65618323D01*
X139804845Y-65633698D01*
X139823969Y-65651031D01*
X139841302Y-65670155D01*
X139856677Y-65690885D01*
X139869945Y-65713023D01*
X139880980Y-65736354D01*
X139889675Y-65760655D01*
X139895947Y-65785691D01*
X139899734Y-65811221D01*
X139901000Y-65837000D01*
X139901000Y-66363000D01*
X139899734Y-66388779D01*
X139895947Y-66414309D01*
X139889675Y-66439345D01*
X139880980Y-66463646D01*
X139869945Y-66486977D01*
X139856677Y-66509115D01*
X139841302Y-66529845D01*
X139823969Y-66548969D01*
X139804845Y-66566302D01*
X139784115Y-66581677D01*
X139761977Y-66594945D01*
X139738646Y-66605980D01*
X139714345Y-66614675D01*
X139689309Y-66620947D01*
X139663779Y-66624734D01*
X139638000Y-66626000D01*
X139012000Y-66626000D01*
X138986221Y-66624734D01*
X138960691Y-66620947D01*
X138935655Y-66614675D01*
X138911354Y-66605980D01*
X138888023Y-66594945D01*
X138865885Y-66581677D01*
X138845155Y-66566302D01*
X138826031Y-66548969D01*
X138808698Y-66529845D01*
X138793323Y-66509115D01*
X138780055Y-66486977D01*
X138769020Y-66463646D01*
X138760325Y-66439345D01*
X138754053Y-66414309D01*
X138750266Y-66388779D01*
X138749000Y-66363000D01*
X138749000Y-65837000D01*
X138750266Y-65811221D01*
X138754053Y-65785691D01*
X138760325Y-65760655D01*
X138769020Y-65736354D01*
X138780055Y-65713023D01*
X138793323Y-65690885D01*
X138808698Y-65670155D01*
X138826031Y-65651031D01*
X138845155Y-65633698D01*
X138865885Y-65618323D01*
X138888023Y-65605055D01*
X138911354Y-65594020D01*
X138935655Y-65585325D01*
X138960691Y-65579053D01*
X138986221Y-65575266D01*
X139012000Y-65574000D01*
X139638000Y-65574000D01*
X139663779Y-65575266D01*
G37*
G36*
X141413779Y-65575266D02*
G01*
X141439309Y-65579053D01*
X141464345Y-65585325D01*
X141488646Y-65594020D01*
X141511977Y-65605055D01*
X141534115Y-65618323D01*
X141554845Y-65633698D01*
X141573969Y-65651031D01*
X141591302Y-65670155D01*
X141606677Y-65690885D01*
X141619945Y-65713023D01*
X141630980Y-65736354D01*
X141639675Y-65760655D01*
X141645947Y-65785691D01*
X141649734Y-65811221D01*
X141651000Y-65837000D01*
X141651000Y-66363000D01*
X141649734Y-66388779D01*
X141645947Y-66414309D01*
X141639675Y-66439345D01*
X141630980Y-66463646D01*
X141619945Y-66486977D01*
X141606677Y-66509115D01*
X141591302Y-66529845D01*
X141573969Y-66548969D01*
X141554845Y-66566302D01*
X141534115Y-66581677D01*
X141511977Y-66594945D01*
X141488646Y-66605980D01*
X141464345Y-66614675D01*
X141439309Y-66620947D01*
X141413779Y-66624734D01*
X141388000Y-66626000D01*
X140762000Y-66626000D01*
X140736221Y-66624734D01*
X140710691Y-66620947D01*
X140685655Y-66614675D01*
X140661354Y-66605980D01*
X140638023Y-66594945D01*
X140615885Y-66581677D01*
X140595155Y-66566302D01*
X140576031Y-66548969D01*
X140558698Y-66529845D01*
X140543323Y-66509115D01*
X140530055Y-66486977D01*
X140519020Y-66463646D01*
X140510325Y-66439345D01*
X140504053Y-66414309D01*
X140500266Y-66388779D01*
X140499000Y-66363000D01*
X140499000Y-65837000D01*
X140500266Y-65811221D01*
X140504053Y-65785691D01*
X140510325Y-65760655D01*
X140519020Y-65736354D01*
X140530055Y-65713023D01*
X140543323Y-65690885D01*
X140558698Y-65670155D01*
X140576031Y-65651031D01*
X140595155Y-65633698D01*
X140615885Y-65618323D01*
X140638023Y-65605055D01*
X140661354Y-65594020D01*
X140685655Y-65585325D01*
X140710691Y-65579053D01*
X140736221Y-65575266D01*
X140762000Y-65574000D01*
X141388000Y-65574000D01*
X141413779Y-65575266D01*
G37*
G36*
X139799602Y-68293888D02*
G01*
X139799602Y-68275466D01*
X139799848Y-68270467D01*
X139804658Y-68221636D01*
X139805392Y-68216686D01*
X139814964Y-68168561D01*
X139816180Y-68163705D01*
X139830424Y-68116750D01*
X139832110Y-68112039D01*
X139850887Y-68066706D01*
X139853027Y-68062180D01*
X139876158Y-68018907D01*
X139878731Y-68014616D01*
X139905991Y-67973817D01*
X139908973Y-67969796D01*
X139940101Y-67931867D01*
X139943462Y-67928159D01*
X139978159Y-67893462D01*
X139981867Y-67890101D01*
X140019796Y-67858973D01*
X140023817Y-67855991D01*
X140064616Y-67828731D01*
X140068907Y-67826158D01*
X140112180Y-67803027D01*
X140116706Y-67800887D01*
X140162039Y-67782110D01*
X140166750Y-67780424D01*
X140213705Y-67766180D01*
X140218561Y-67764964D01*
X140266686Y-67755392D01*
X140271636Y-67754658D01*
X140320467Y-67749848D01*
X140325466Y-67749602D01*
X140343888Y-67749602D01*
X140350000Y-67749000D01*
X140850000Y-67749000D01*
X140856112Y-67749602D01*
X140874534Y-67749602D01*
X140879533Y-67749848D01*
X140928364Y-67754658D01*
X140933314Y-67755392D01*
X140981439Y-67764964D01*
X140986295Y-67766180D01*
X141033250Y-67780424D01*
X141037961Y-67782110D01*
X141083294Y-67800887D01*
X141087820Y-67803027D01*
X141131093Y-67826158D01*
X141135384Y-67828731D01*
X141176183Y-67855991D01*
X141180204Y-67858973D01*
X141218133Y-67890101D01*
X141221841Y-67893462D01*
X141256538Y-67928159D01*
X141259899Y-67931867D01*
X141291027Y-67969796D01*
X141294009Y-67973817D01*
X141321269Y-68014616D01*
X141323842Y-68018907D01*
X141346973Y-68062180D01*
X141349113Y-68066706D01*
X141367890Y-68112039D01*
X141369576Y-68116750D01*
X141383820Y-68163705D01*
X141385036Y-68168561D01*
X141394608Y-68216686D01*
X141395342Y-68221636D01*
X141400152Y-68270467D01*
X141400398Y-68275466D01*
X141400398Y-68293888D01*
X141401000Y-68300000D01*
X141401000Y-68800000D01*
X141400020Y-68809950D01*
X141397118Y-68819517D01*
X141392405Y-68828334D01*
X141386062Y-68836062D01*
X141378334Y-68842405D01*
X141369517Y-68847118D01*
X141359950Y-68850020D01*
X141350000Y-68851000D01*
X139850000Y-68851000D01*
X139840050Y-68850020D01*
X139830483Y-68847118D01*
X139821666Y-68842405D01*
X139813938Y-68836062D01*
X139807595Y-68828334D01*
X139802882Y-68819517D01*
X139799980Y-68809950D01*
X139799000Y-68800000D01*
X139799000Y-68300000D01*
X139799602Y-68293888D01*
G37*
G36*
X139799980Y-69090050D02*
G01*
X139802882Y-69080483D01*
X139807595Y-69071666D01*
X139813938Y-69063938D01*
X139821666Y-69057595D01*
X139830483Y-69052882D01*
X139840050Y-69049980D01*
X139850000Y-69049000D01*
X141350000Y-69049000D01*
X141359950Y-69049980D01*
X141369517Y-69052882D01*
X141378334Y-69057595D01*
X141386062Y-69063938D01*
X141392405Y-69071666D01*
X141397118Y-69080483D01*
X141400020Y-69090050D01*
X141401000Y-69100000D01*
X141401000Y-69600000D01*
X141400398Y-69606112D01*
X141400398Y-69624534D01*
X141400152Y-69629533D01*
X141395342Y-69678364D01*
X141394608Y-69683314D01*
X141385036Y-69731439D01*
X141383820Y-69736295D01*
X141369576Y-69783250D01*
X141367890Y-69787961D01*
X141349113Y-69833294D01*
X141346973Y-69837820D01*
X141323842Y-69881093D01*
X141321269Y-69885384D01*
X141294009Y-69926183D01*
X141291027Y-69930204D01*
X141259899Y-69968133D01*
X141256538Y-69971841D01*
X141221841Y-70006538D01*
X141218133Y-70009899D01*
X141180204Y-70041027D01*
X141176183Y-70044009D01*
X141135384Y-70071269D01*
X141131093Y-70073842D01*
X141087820Y-70096973D01*
X141083294Y-70099113D01*
X141037961Y-70117890D01*
X141033250Y-70119576D01*
X140986295Y-70133820D01*
X140981439Y-70135036D01*
X140933314Y-70144608D01*
X140928364Y-70145342D01*
X140879533Y-70150152D01*
X140874534Y-70150398D01*
X140856112Y-70150398D01*
X140850000Y-70151000D01*
X140350000Y-70151000D01*
X140343888Y-70150398D01*
X140325466Y-70150398D01*
X140320467Y-70150152D01*
X140271636Y-70145342D01*
X140266686Y-70144608D01*
X140218561Y-70135036D01*
X140213705Y-70133820D01*
X140166750Y-70119576D01*
X140162039Y-70117890D01*
X140116706Y-70099113D01*
X140112180Y-70096973D01*
X140068907Y-70073842D01*
X140064616Y-70071269D01*
X140023817Y-70044009D01*
X140019796Y-70041027D01*
X139981867Y-70009899D01*
X139978159Y-70006538D01*
X139943462Y-69971841D01*
X139940101Y-69968133D01*
X139908973Y-69930204D01*
X139905991Y-69926183D01*
X139878731Y-69885384D01*
X139876158Y-69881093D01*
X139853027Y-69837820D01*
X139850887Y-69833294D01*
X139832110Y-69787961D01*
X139830424Y-69783250D01*
X139816180Y-69736295D01*
X139814964Y-69731439D01*
X139805392Y-69683314D01*
X139804658Y-69678364D01*
X139799848Y-69629533D01*
X139799602Y-69624534D01*
X139799602Y-69606112D01*
X139799000Y-69600000D01*
X139799000Y-69100000D01*
X139799980Y-69090050D01*
G37*
G36*
X152393888Y-86300398D02*
G01*
X152375466Y-86300398D01*
X152370467Y-86300152D01*
X152321636Y-86295342D01*
X152316686Y-86294608D01*
X152268561Y-86285036D01*
X152263705Y-86283820D01*
X152216750Y-86269576D01*
X152212039Y-86267890D01*
X152166706Y-86249113D01*
X152162180Y-86246973D01*
X152118907Y-86223842D01*
X152114616Y-86221269D01*
X152073817Y-86194009D01*
X152069796Y-86191027D01*
X152031867Y-86159899D01*
X152028159Y-86156538D01*
X151993462Y-86121841D01*
X151990101Y-86118133D01*
X151958973Y-86080204D01*
X151955991Y-86076183D01*
X151928731Y-86035384D01*
X151926158Y-86031093D01*
X151903027Y-85987820D01*
X151900887Y-85983294D01*
X151882110Y-85937961D01*
X151880424Y-85933250D01*
X151866180Y-85886295D01*
X151864964Y-85881439D01*
X151855392Y-85833314D01*
X151854658Y-85828364D01*
X151849848Y-85779533D01*
X151849602Y-85774534D01*
X151849602Y-85756112D01*
X151849000Y-85750000D01*
X151849000Y-85250000D01*
X151849602Y-85243888D01*
X151849602Y-85225466D01*
X151849848Y-85220467D01*
X151854658Y-85171636D01*
X151855392Y-85166686D01*
X151864964Y-85118561D01*
X151866180Y-85113705D01*
X151880424Y-85066750D01*
X151882110Y-85062039D01*
X151900887Y-85016706D01*
X151903027Y-85012180D01*
X151926158Y-84968907D01*
X151928731Y-84964616D01*
X151955991Y-84923817D01*
X151958973Y-84919796D01*
X151990101Y-84881867D01*
X151993462Y-84878159D01*
X152028159Y-84843462D01*
X152031867Y-84840101D01*
X152069796Y-84808973D01*
X152073817Y-84805991D01*
X152114616Y-84778731D01*
X152118907Y-84776158D01*
X152162180Y-84753027D01*
X152166706Y-84750887D01*
X152212039Y-84732110D01*
X152216750Y-84730424D01*
X152263705Y-84716180D01*
X152268561Y-84714964D01*
X152316686Y-84705392D01*
X152321636Y-84704658D01*
X152370467Y-84699848D01*
X152375466Y-84699602D01*
X152393888Y-84699602D01*
X152400000Y-84699000D01*
X152900000Y-84699000D01*
X152909950Y-84699980D01*
X152919517Y-84702882D01*
X152928334Y-84707595D01*
X152936062Y-84713938D01*
X152942405Y-84721666D01*
X152947118Y-84730483D01*
X152950020Y-84740050D01*
X152951000Y-84750000D01*
X152951000Y-86250000D01*
X152950020Y-86259950D01*
X152947118Y-86269517D01*
X152942405Y-86278334D01*
X152936062Y-86286062D01*
X152928334Y-86292405D01*
X152919517Y-86297118D01*
X152909950Y-86300020D01*
X152900000Y-86301000D01*
X152400000Y-86301000D01*
X152393888Y-86300398D01*
G37*
G36*
X153190050Y-86300020D02*
G01*
X153180483Y-86297118D01*
X153171666Y-86292405D01*
X153163938Y-86286062D01*
X153157595Y-86278334D01*
X153152882Y-86269517D01*
X153149980Y-86259950D01*
X153149000Y-86250000D01*
X153149000Y-84750000D01*
X153149980Y-84740050D01*
X153152882Y-84730483D01*
X153157595Y-84721666D01*
X153163938Y-84713938D01*
X153171666Y-84707595D01*
X153180483Y-84702882D01*
X153190050Y-84699980D01*
X153200000Y-84699000D01*
X153700000Y-84699000D01*
X153706112Y-84699602D01*
X153724534Y-84699602D01*
X153729533Y-84699848D01*
X153778364Y-84704658D01*
X153783314Y-84705392D01*
X153831439Y-84714964D01*
X153836295Y-84716180D01*
X153883250Y-84730424D01*
X153887961Y-84732110D01*
X153933294Y-84750887D01*
X153937820Y-84753027D01*
X153981093Y-84776158D01*
X153985384Y-84778731D01*
X154026183Y-84805991D01*
X154030204Y-84808973D01*
X154068133Y-84840101D01*
X154071841Y-84843462D01*
X154106538Y-84878159D01*
X154109899Y-84881867D01*
X154141027Y-84919796D01*
X154144009Y-84923817D01*
X154171269Y-84964616D01*
X154173842Y-84968907D01*
X154196973Y-85012180D01*
X154199113Y-85016706D01*
X154217890Y-85062039D01*
X154219576Y-85066750D01*
X154233820Y-85113705D01*
X154235036Y-85118561D01*
X154244608Y-85166686D01*
X154245342Y-85171636D01*
X154250152Y-85220467D01*
X154250398Y-85225466D01*
X154250398Y-85243888D01*
X154251000Y-85250000D01*
X154251000Y-85750000D01*
X154250398Y-85756112D01*
X154250398Y-85774534D01*
X154250152Y-85779533D01*
X154245342Y-85828364D01*
X154244608Y-85833314D01*
X154235036Y-85881439D01*
X154233820Y-85886295D01*
X154219576Y-85933250D01*
X154217890Y-85937961D01*
X154199113Y-85983294D01*
X154196973Y-85987820D01*
X154173842Y-86031093D01*
X154171269Y-86035384D01*
X154144009Y-86076183D01*
X154141027Y-86080204D01*
X154109899Y-86118133D01*
X154106538Y-86121841D01*
X154071841Y-86156538D01*
X154068133Y-86159899D01*
X154030204Y-86191027D01*
X154026183Y-86194009D01*
X153985384Y-86221269D01*
X153981093Y-86223842D01*
X153937820Y-86246973D01*
X153933294Y-86249113D01*
X153887961Y-86267890D01*
X153883250Y-86269576D01*
X153836295Y-86283820D01*
X153831439Y-86285036D01*
X153783314Y-86294608D01*
X153778364Y-86295342D01*
X153729533Y-86300152D01*
X153724534Y-86300398D01*
X153706112Y-86300398D01*
X153700000Y-86301000D01*
X153200000Y-86301000D01*
X153190050Y-86300020D01*
G37*
D16*
X147880000Y-80730000D03*
X147880000Y-81680000D03*
X147880000Y-79780000D03*
X150580000Y-79780000D03*
X150580000Y-80730000D03*
X150580000Y-81680000D03*
D17*
X156190000Y-85610000D03*
X158730000Y-83070000D03*
X158730000Y-85610000D03*
X156190000Y-83070000D03*
X157460000Y-84340000D03*
D18*
X134460000Y-73700000D03*
D19*
X137000000Y-73700000D03*
D20*
X142400000Y-76300000D03*
X142400000Y-79700000D03*
D15*
G36*
X152188779Y-74400266D02*
G01*
X152214309Y-74404053D01*
X152239345Y-74410325D01*
X152263646Y-74419020D01*
X152286977Y-74430055D01*
X152309115Y-74443323D01*
X152329845Y-74458698D01*
X152348969Y-74476031D01*
X152366302Y-74495155D01*
X152381677Y-74515885D01*
X152394945Y-74538023D01*
X152405980Y-74561354D01*
X152414675Y-74585655D01*
X152420947Y-74610691D01*
X152424734Y-74636221D01*
X152426000Y-74662000D01*
X152426000Y-75288000D01*
X152424734Y-75313779D01*
X152420947Y-75339309D01*
X152414675Y-75364345D01*
X152405980Y-75388646D01*
X152394945Y-75411977D01*
X152381677Y-75434115D01*
X152366302Y-75454845D01*
X152348969Y-75473969D01*
X152329845Y-75491302D01*
X152309115Y-75506677D01*
X152286977Y-75519945D01*
X152263646Y-75530980D01*
X152239345Y-75539675D01*
X152214309Y-75545947D01*
X152188779Y-75549734D01*
X152163000Y-75551000D01*
X151637000Y-75551000D01*
X151611221Y-75549734D01*
X151585691Y-75545947D01*
X151560655Y-75539675D01*
X151536354Y-75530980D01*
X151513023Y-75519945D01*
X151490885Y-75506677D01*
X151470155Y-75491302D01*
X151451031Y-75473969D01*
X151433698Y-75454845D01*
X151418323Y-75434115D01*
X151405055Y-75411977D01*
X151394020Y-75388646D01*
X151385325Y-75364345D01*
X151379053Y-75339309D01*
X151375266Y-75313779D01*
X151374000Y-75288000D01*
X151374000Y-74662000D01*
X151375266Y-74636221D01*
X151379053Y-74610691D01*
X151385325Y-74585655D01*
X151394020Y-74561354D01*
X151405055Y-74538023D01*
X151418323Y-74515885D01*
X151433698Y-74495155D01*
X151451031Y-74476031D01*
X151470155Y-74458698D01*
X151490885Y-74443323D01*
X151513023Y-74430055D01*
X151536354Y-74419020D01*
X151560655Y-74410325D01*
X151585691Y-74404053D01*
X151611221Y-74400266D01*
X151637000Y-74399000D01*
X152163000Y-74399000D01*
X152188779Y-74400266D01*
G37*
G36*
X152188779Y-72650266D02*
G01*
X152214309Y-72654053D01*
X152239345Y-72660325D01*
X152263646Y-72669020D01*
X152286977Y-72680055D01*
X152309115Y-72693323D01*
X152329845Y-72708698D01*
X152348969Y-72726031D01*
X152366302Y-72745155D01*
X152381677Y-72765885D01*
X152394945Y-72788023D01*
X152405980Y-72811354D01*
X152414675Y-72835655D01*
X152420947Y-72860691D01*
X152424734Y-72886221D01*
X152426000Y-72912000D01*
X152426000Y-73538000D01*
X152424734Y-73563779D01*
X152420947Y-73589309D01*
X152414675Y-73614345D01*
X152405980Y-73638646D01*
X152394945Y-73661977D01*
X152381677Y-73684115D01*
X152366302Y-73704845D01*
X152348969Y-73723969D01*
X152329845Y-73741302D01*
X152309115Y-73756677D01*
X152286977Y-73769945D01*
X152263646Y-73780980D01*
X152239345Y-73789675D01*
X152214309Y-73795947D01*
X152188779Y-73799734D01*
X152163000Y-73801000D01*
X151637000Y-73801000D01*
X151611221Y-73799734D01*
X151585691Y-73795947D01*
X151560655Y-73789675D01*
X151536354Y-73780980D01*
X151513023Y-73769945D01*
X151490885Y-73756677D01*
X151470155Y-73741302D01*
X151451031Y-73723969D01*
X151433698Y-73704845D01*
X151418323Y-73684115D01*
X151405055Y-73661977D01*
X151394020Y-73638646D01*
X151385325Y-73614345D01*
X151379053Y-73589309D01*
X151375266Y-73563779D01*
X151374000Y-73538000D01*
X151374000Y-72912000D01*
X151375266Y-72886221D01*
X151379053Y-72860691D01*
X151385325Y-72835655D01*
X151394020Y-72811354D01*
X151405055Y-72788023D01*
X151418323Y-72765885D01*
X151433698Y-72745155D01*
X151451031Y-72726031D01*
X151470155Y-72708698D01*
X151490885Y-72693323D01*
X151513023Y-72680055D01*
X151536354Y-72669020D01*
X151560655Y-72660325D01*
X151585691Y-72654053D01*
X151611221Y-72650266D01*
X151637000Y-72649000D01*
X152163000Y-72649000D01*
X152188779Y-72650266D01*
G37*
G36*
X149463779Y-82875266D02*
G01*
X149489309Y-82879053D01*
X149514345Y-82885325D01*
X149538646Y-82894020D01*
X149561977Y-82905055D01*
X149584115Y-82918323D01*
X149604845Y-82933698D01*
X149623969Y-82951031D01*
X149641302Y-82970155D01*
X149656677Y-82990885D01*
X149669945Y-83013023D01*
X149680980Y-83036354D01*
X149689675Y-83060655D01*
X149695947Y-83085691D01*
X149699734Y-83111221D01*
X149701000Y-83137000D01*
X149701000Y-83663000D01*
X149699734Y-83688779D01*
X149695947Y-83714309D01*
X149689675Y-83739345D01*
X149680980Y-83763646D01*
X149669945Y-83786977D01*
X149656677Y-83809115D01*
X149641302Y-83829845D01*
X149623969Y-83848969D01*
X149604845Y-83866302D01*
X149584115Y-83881677D01*
X149561977Y-83894945D01*
X149538646Y-83905980D01*
X149514345Y-83914675D01*
X149489309Y-83920947D01*
X149463779Y-83924734D01*
X149438000Y-83926000D01*
X148812000Y-83926000D01*
X148786221Y-83924734D01*
X148760691Y-83920947D01*
X148735655Y-83914675D01*
X148711354Y-83905980D01*
X148688023Y-83894945D01*
X148665885Y-83881677D01*
X148645155Y-83866302D01*
X148626031Y-83848969D01*
X148608698Y-83829845D01*
X148593323Y-83809115D01*
X148580055Y-83786977D01*
X148569020Y-83763646D01*
X148560325Y-83739345D01*
X148554053Y-83714309D01*
X148550266Y-83688779D01*
X148549000Y-83663000D01*
X148549000Y-83137000D01*
X148550266Y-83111221D01*
X148554053Y-83085691D01*
X148560325Y-83060655D01*
X148569020Y-83036354D01*
X148580055Y-83013023D01*
X148593323Y-82990885D01*
X148608698Y-82970155D01*
X148626031Y-82951031D01*
X148645155Y-82933698D01*
X148665885Y-82918323D01*
X148688023Y-82905055D01*
X148711354Y-82894020D01*
X148735655Y-82885325D01*
X148760691Y-82879053D01*
X148786221Y-82875266D01*
X148812000Y-82874000D01*
X149438000Y-82874000D01*
X149463779Y-82875266D01*
G37*
G36*
X151213779Y-82875266D02*
G01*
X151239309Y-82879053D01*
X151264345Y-82885325D01*
X151288646Y-82894020D01*
X151311977Y-82905055D01*
X151334115Y-82918323D01*
X151354845Y-82933698D01*
X151373969Y-82951031D01*
X151391302Y-82970155D01*
X151406677Y-82990885D01*
X151419945Y-83013023D01*
X151430980Y-83036354D01*
X151439675Y-83060655D01*
X151445947Y-83085691D01*
X151449734Y-83111221D01*
X151451000Y-83137000D01*
X151451000Y-83663000D01*
X151449734Y-83688779D01*
X151445947Y-83714309D01*
X151439675Y-83739345D01*
X151430980Y-83763646D01*
X151419945Y-83786977D01*
X151406677Y-83809115D01*
X151391302Y-83829845D01*
X151373969Y-83848969D01*
X151354845Y-83866302D01*
X151334115Y-83881677D01*
X151311977Y-83894945D01*
X151288646Y-83905980D01*
X151264345Y-83914675D01*
X151239309Y-83920947D01*
X151213779Y-83924734D01*
X151188000Y-83926000D01*
X150562000Y-83926000D01*
X150536221Y-83924734D01*
X150510691Y-83920947D01*
X150485655Y-83914675D01*
X150461354Y-83905980D01*
X150438023Y-83894945D01*
X150415885Y-83881677D01*
X150395155Y-83866302D01*
X150376031Y-83848969D01*
X150358698Y-83829845D01*
X150343323Y-83809115D01*
X150330055Y-83786977D01*
X150319020Y-83763646D01*
X150310325Y-83739345D01*
X150304053Y-83714309D01*
X150300266Y-83688779D01*
X150299000Y-83663000D01*
X150299000Y-83137000D01*
X150300266Y-83111221D01*
X150304053Y-83085691D01*
X150310325Y-83060655D01*
X150319020Y-83036354D01*
X150330055Y-83013023D01*
X150343323Y-82990885D01*
X150358698Y-82970155D01*
X150376031Y-82951031D01*
X150395155Y-82933698D01*
X150415885Y-82918323D01*
X150438023Y-82905055D01*
X150461354Y-82894020D01*
X150485655Y-82885325D01*
X150510691Y-82879053D01*
X150536221Y-82875266D01*
X150562000Y-82874000D01*
X151188000Y-82874000D01*
X151213779Y-82875266D01*
G37*
D17*
X135470000Y-67130000D03*
X132930000Y-69670000D03*
X132930000Y-67130000D03*
X135470000Y-69670000D03*
X134200000Y-68400000D03*
D21*
X151700000Y-67800000D03*
D15*
G36*
X152381338Y-69150306D02*
G01*
X152407669Y-69154212D01*
X152433490Y-69160680D01*
X152458553Y-69169648D01*
X152482617Y-69181029D01*
X152505449Y-69194714D01*
X152526830Y-69210571D01*
X152546553Y-69228447D01*
X152564429Y-69248170D01*
X152580286Y-69269551D01*
X152593971Y-69292383D01*
X152605352Y-69316447D01*
X152614320Y-69341510D01*
X152620788Y-69367331D01*
X152624694Y-69393662D01*
X152626000Y-69420249D01*
X152626000Y-70179751D01*
X152624694Y-70206338D01*
X152620788Y-70232669D01*
X152614320Y-70258490D01*
X152605352Y-70283553D01*
X152593971Y-70307617D01*
X152580286Y-70330449D01*
X152564429Y-70351830D01*
X152546553Y-70371553D01*
X152526830Y-70389429D01*
X152505449Y-70405286D01*
X152482617Y-70418971D01*
X152458553Y-70430352D01*
X152433490Y-70439320D01*
X152407669Y-70445788D01*
X152381338Y-70449694D01*
X152354751Y-70451000D01*
X151045249Y-70451000D01*
X151018662Y-70449694D01*
X150992331Y-70445788D01*
X150966510Y-70439320D01*
X150941447Y-70430352D01*
X150917383Y-70418971D01*
X150894551Y-70405286D01*
X150873170Y-70389429D01*
X150853447Y-70371553D01*
X150835571Y-70351830D01*
X150819714Y-70330449D01*
X150806029Y-70307617D01*
X150794648Y-70283553D01*
X150785680Y-70258490D01*
X150779212Y-70232669D01*
X150775306Y-70206338D01*
X150774000Y-70179751D01*
X150774000Y-69420249D01*
X150775306Y-69393662D01*
X150779212Y-69367331D01*
X150785680Y-69341510D01*
X150794648Y-69316447D01*
X150806029Y-69292383D01*
X150819714Y-69269551D01*
X150835571Y-69248170D01*
X150853447Y-69228447D01*
X150873170Y-69210571D01*
X150894551Y-69194714D01*
X150917383Y-69181029D01*
X150941447Y-69169648D01*
X150966510Y-69160680D01*
X150992331Y-69154212D01*
X151018662Y-69150306D01*
X151045249Y-69149000D01*
X152354751Y-69149000D01*
X152381338Y-69150306D01*
G37*
D18*
X144000000Y-67260000D03*
D19*
X144000000Y-69800000D03*
D21*
X122900000Y-69900000D03*
D15*
G36*
X123581338Y-67250306D02*
G01*
X123607669Y-67254212D01*
X123633490Y-67260680D01*
X123658553Y-67269648D01*
X123682617Y-67281029D01*
X123705449Y-67294714D01*
X123726830Y-67310571D01*
X123746553Y-67328447D01*
X123764429Y-67348170D01*
X123780286Y-67369551D01*
X123793971Y-67392383D01*
X123805352Y-67416447D01*
X123814320Y-67441510D01*
X123820788Y-67467331D01*
X123824694Y-67493662D01*
X123826000Y-67520249D01*
X123826000Y-68279751D01*
X123824694Y-68306338D01*
X123820788Y-68332669D01*
X123814320Y-68358490D01*
X123805352Y-68383553D01*
X123793971Y-68407617D01*
X123780286Y-68430449D01*
X123764429Y-68451830D01*
X123746553Y-68471553D01*
X123726830Y-68489429D01*
X123705449Y-68505286D01*
X123682617Y-68518971D01*
X123658553Y-68530352D01*
X123633490Y-68539320D01*
X123607669Y-68545788D01*
X123581338Y-68549694D01*
X123554751Y-68551000D01*
X122245249Y-68551000D01*
X122218662Y-68549694D01*
X122192331Y-68545788D01*
X122166510Y-68539320D01*
X122141447Y-68530352D01*
X122117383Y-68518971D01*
X122094551Y-68505286D01*
X122073170Y-68489429D01*
X122053447Y-68471553D01*
X122035571Y-68451830D01*
X122019714Y-68430449D01*
X122006029Y-68407617D01*
X121994648Y-68383553D01*
X121985680Y-68358490D01*
X121979212Y-68332669D01*
X121975306Y-68306338D01*
X121974000Y-68279751D01*
X121974000Y-67520249D01*
X121975306Y-67493662D01*
X121979212Y-67467331D01*
X121985680Y-67441510D01*
X121994648Y-67416447D01*
X122006029Y-67392383D01*
X122019714Y-67369551D01*
X122035571Y-67348170D01*
X122053447Y-67328447D01*
X122073170Y-67310571D01*
X122094551Y-67294714D01*
X122117383Y-67281029D01*
X122141447Y-67269648D01*
X122166510Y-67260680D01*
X122192331Y-67254212D01*
X122218662Y-67250306D01*
X122245249Y-67249000D01*
X123554751Y-67249000D01*
X123581338Y-67250306D01*
G37*
D22*
X118425000Y-76680000D03*
X118425000Y-85320000D03*
X122225000Y-76680000D03*
X122225000Y-85320000D03*
D23*
X122375000Y-78250000D03*
D24*
X122375000Y-79480000D03*
D25*
X122375000Y-80500000D03*
X122375000Y-81500000D03*
D24*
X122375000Y-82520000D03*
D23*
X122375000Y-83750000D03*
D26*
X148550000Y-77300000D03*
X151850000Y-77300000D03*
D15*
G36*
X146305505Y-83600311D02*
G01*
X146331925Y-83604230D01*
X146357835Y-83610720D01*
X146382983Y-83619718D01*
X146407128Y-83631138D01*
X146430038Y-83644869D01*
X146451492Y-83660780D01*
X146471282Y-83678718D01*
X146489220Y-83698508D01*
X146505131Y-83719962D01*
X146518862Y-83742872D01*
X146530282Y-83767017D01*
X146539280Y-83792165D01*
X146545770Y-83818075D01*
X146549689Y-83844495D01*
X146551000Y-83871173D01*
X146551000Y-84578827D01*
X146549689Y-84605505D01*
X146545770Y-84631925D01*
X146539280Y-84657835D01*
X146530282Y-84682983D01*
X146518862Y-84707128D01*
X146505131Y-84730038D01*
X146489220Y-84751492D01*
X146471282Y-84771282D01*
X146451492Y-84789220D01*
X146430038Y-84805131D01*
X146407128Y-84818862D01*
X146382983Y-84830282D01*
X146357835Y-84839280D01*
X146331925Y-84845770D01*
X146305505Y-84849689D01*
X146278827Y-84851000D01*
X145321173Y-84851000D01*
X145294495Y-84849689D01*
X145268075Y-84845770D01*
X145242165Y-84839280D01*
X145217017Y-84830282D01*
X145192872Y-84818862D01*
X145169962Y-84805131D01*
X145148508Y-84789220D01*
X145128718Y-84771282D01*
X145110780Y-84751492D01*
X145094869Y-84730038D01*
X145081138Y-84707128D01*
X145069718Y-84682983D01*
X145060720Y-84657835D01*
X145054230Y-84631925D01*
X145050311Y-84605505D01*
X145049000Y-84578827D01*
X145049000Y-83871173D01*
X145050311Y-83844495D01*
X145054230Y-83818075D01*
X145060720Y-83792165D01*
X145069718Y-83767017D01*
X145081138Y-83742872D01*
X145094869Y-83719962D01*
X145110780Y-83698508D01*
X145128718Y-83678718D01*
X145148508Y-83660780D01*
X145169962Y-83644869D01*
X145192872Y-83631138D01*
X145217017Y-83619718D01*
X145242165Y-83610720D01*
X145268075Y-83604230D01*
X145294495Y-83600311D01*
X145321173Y-83599000D01*
X146278827Y-83599000D01*
X146305505Y-83600311D01*
G37*
G36*
X146305505Y-81550311D02*
G01*
X146331925Y-81554230D01*
X146357835Y-81560720D01*
X146382983Y-81569718D01*
X146407128Y-81581138D01*
X146430038Y-81594869D01*
X146451492Y-81610780D01*
X146471282Y-81628718D01*
X146489220Y-81648508D01*
X146505131Y-81669962D01*
X146518862Y-81692872D01*
X146530282Y-81717017D01*
X146539280Y-81742165D01*
X146545770Y-81768075D01*
X146549689Y-81794495D01*
X146551000Y-81821173D01*
X146551000Y-82528827D01*
X146549689Y-82555505D01*
X146545770Y-82581925D01*
X146539280Y-82607835D01*
X146530282Y-82632983D01*
X146518862Y-82657128D01*
X146505131Y-82680038D01*
X146489220Y-82701492D01*
X146471282Y-82721282D01*
X146451492Y-82739220D01*
X146430038Y-82755131D01*
X146407128Y-82768862D01*
X146382983Y-82780282D01*
X146357835Y-82789280D01*
X146331925Y-82795770D01*
X146305505Y-82799689D01*
X146278827Y-82801000D01*
X145321173Y-82801000D01*
X145294495Y-82799689D01*
X145268075Y-82795770D01*
X145242165Y-82789280D01*
X145217017Y-82780282D01*
X145192872Y-82768862D01*
X145169962Y-82755131D01*
X145148508Y-82739220D01*
X145128718Y-82721282D01*
X145110780Y-82701492D01*
X145094869Y-82680038D01*
X145081138Y-82657128D01*
X145069718Y-82632983D01*
X145060720Y-82607835D01*
X145054230Y-82581925D01*
X145050311Y-82555505D01*
X145049000Y-82528827D01*
X145049000Y-81821173D01*
X145050311Y-81794495D01*
X145054230Y-81768075D01*
X145060720Y-81742165D01*
X145069718Y-81717017D01*
X145081138Y-81692872D01*
X145094869Y-81669962D01*
X145110780Y-81648508D01*
X145128718Y-81628718D01*
X145148508Y-81610780D01*
X145169962Y-81594869D01*
X145192872Y-81581138D01*
X145217017Y-81569718D01*
X145242165Y-81560720D01*
X145268075Y-81554230D01*
X145294495Y-81550311D01*
X145321173Y-81549000D01*
X146278827Y-81549000D01*
X146305505Y-81550311D01*
G37*
G36*
X155905505Y-78775311D02*
G01*
X155931925Y-78779230D01*
X155957835Y-78785720D01*
X155982983Y-78794718D01*
X156007128Y-78806138D01*
X156030038Y-78819869D01*
X156051492Y-78835780D01*
X156071282Y-78853718D01*
X156089220Y-78873508D01*
X156105131Y-78894962D01*
X156118862Y-78917872D01*
X156130282Y-78942017D01*
X156139280Y-78967165D01*
X156145770Y-78993075D01*
X156149689Y-79019495D01*
X156151000Y-79046173D01*
X156151000Y-79753827D01*
X156149689Y-79780505D01*
X156145770Y-79806925D01*
X156139280Y-79832835D01*
X156130282Y-79857983D01*
X156118862Y-79882128D01*
X156105131Y-79905038D01*
X156089220Y-79926492D01*
X156071282Y-79946282D01*
X156051492Y-79964220D01*
X156030038Y-79980131D01*
X156007128Y-79993862D01*
X155982983Y-80005282D01*
X155957835Y-80014280D01*
X155931925Y-80020770D01*
X155905505Y-80024689D01*
X155878827Y-80026000D01*
X154921173Y-80026000D01*
X154894495Y-80024689D01*
X154868075Y-80020770D01*
X154842165Y-80014280D01*
X154817017Y-80005282D01*
X154792872Y-79993862D01*
X154769962Y-79980131D01*
X154748508Y-79964220D01*
X154728718Y-79946282D01*
X154710780Y-79926492D01*
X154694869Y-79905038D01*
X154681138Y-79882128D01*
X154669718Y-79857983D01*
X154660720Y-79832835D01*
X154654230Y-79806925D01*
X154650311Y-79780505D01*
X154649000Y-79753827D01*
X154649000Y-79046173D01*
X154650311Y-79019495D01*
X154654230Y-78993075D01*
X154660720Y-78967165D01*
X154669718Y-78942017D01*
X154681138Y-78917872D01*
X154694869Y-78894962D01*
X154710780Y-78873508D01*
X154728718Y-78853718D01*
X154748508Y-78835780D01*
X154769962Y-78819869D01*
X154792872Y-78806138D01*
X154817017Y-78794718D01*
X154842165Y-78785720D01*
X154868075Y-78779230D01*
X154894495Y-78775311D01*
X154921173Y-78774000D01*
X155878827Y-78774000D01*
X155905505Y-78775311D01*
G37*
G36*
X155905505Y-76725311D02*
G01*
X155931925Y-76729230D01*
X155957835Y-76735720D01*
X155982983Y-76744718D01*
X156007128Y-76756138D01*
X156030038Y-76769869D01*
X156051492Y-76785780D01*
X156071282Y-76803718D01*
X156089220Y-76823508D01*
X156105131Y-76844962D01*
X156118862Y-76867872D01*
X156130282Y-76892017D01*
X156139280Y-76917165D01*
X156145770Y-76943075D01*
X156149689Y-76969495D01*
X156151000Y-76996173D01*
X156151000Y-77703827D01*
X156149689Y-77730505D01*
X156145770Y-77756925D01*
X156139280Y-77782835D01*
X156130282Y-77807983D01*
X156118862Y-77832128D01*
X156105131Y-77855038D01*
X156089220Y-77876492D01*
X156071282Y-77896282D01*
X156051492Y-77914220D01*
X156030038Y-77930131D01*
X156007128Y-77943862D01*
X155982983Y-77955282D01*
X155957835Y-77964280D01*
X155931925Y-77970770D01*
X155905505Y-77974689D01*
X155878827Y-77976000D01*
X154921173Y-77976000D01*
X154894495Y-77974689D01*
X154868075Y-77970770D01*
X154842165Y-77964280D01*
X154817017Y-77955282D01*
X154792872Y-77943862D01*
X154769962Y-77930131D01*
X154748508Y-77914220D01*
X154728718Y-77896282D01*
X154710780Y-77876492D01*
X154694869Y-77855038D01*
X154681138Y-77832128D01*
X154669718Y-77807983D01*
X154660720Y-77782835D01*
X154654230Y-77756925D01*
X154650311Y-77730505D01*
X154649000Y-77703827D01*
X154649000Y-76996173D01*
X154650311Y-76969495D01*
X154654230Y-76943075D01*
X154660720Y-76917165D01*
X154669718Y-76892017D01*
X154681138Y-76867872D01*
X154694869Y-76844962D01*
X154710780Y-76823508D01*
X154728718Y-76803718D01*
X154748508Y-76785780D01*
X154769962Y-76769869D01*
X154792872Y-76756138D01*
X154817017Y-76744718D01*
X154842165Y-76735720D01*
X154868075Y-76729230D01*
X154894495Y-76725311D01*
X154921173Y-76724000D01*
X155878827Y-76724000D01*
X155905505Y-76725311D01*
G37*
G36*
X153488779Y-79050266D02*
G01*
X153514309Y-79054053D01*
X153539345Y-79060325D01*
X153563646Y-79069020D01*
X153586977Y-79080055D01*
X153609115Y-79093323D01*
X153629845Y-79108698D01*
X153648969Y-79126031D01*
X153666302Y-79145155D01*
X153681677Y-79165885D01*
X153694945Y-79188023D01*
X153705980Y-79211354D01*
X153714675Y-79235655D01*
X153720947Y-79260691D01*
X153724734Y-79286221D01*
X153726000Y-79312000D01*
X153726000Y-79938000D01*
X153724734Y-79963779D01*
X153720947Y-79989309D01*
X153714675Y-80014345D01*
X153705980Y-80038646D01*
X153694945Y-80061977D01*
X153681677Y-80084115D01*
X153666302Y-80104845D01*
X153648969Y-80123969D01*
X153629845Y-80141302D01*
X153609115Y-80156677D01*
X153586977Y-80169945D01*
X153563646Y-80180980D01*
X153539345Y-80189675D01*
X153514309Y-80195947D01*
X153488779Y-80199734D01*
X153463000Y-80201000D01*
X152937000Y-80201000D01*
X152911221Y-80199734D01*
X152885691Y-80195947D01*
X152860655Y-80189675D01*
X152836354Y-80180980D01*
X152813023Y-80169945D01*
X152790885Y-80156677D01*
X152770155Y-80141302D01*
X152751031Y-80123969D01*
X152733698Y-80104845D01*
X152718323Y-80084115D01*
X152705055Y-80061977D01*
X152694020Y-80038646D01*
X152685325Y-80014345D01*
X152679053Y-79989309D01*
X152675266Y-79963779D01*
X152674000Y-79938000D01*
X152674000Y-79312000D01*
X152675266Y-79286221D01*
X152679053Y-79260691D01*
X152685325Y-79235655D01*
X152694020Y-79211354D01*
X152705055Y-79188023D01*
X152718323Y-79165885D01*
X152733698Y-79145155D01*
X152751031Y-79126031D01*
X152770155Y-79108698D01*
X152790885Y-79093323D01*
X152813023Y-79080055D01*
X152836354Y-79069020D01*
X152860655Y-79060325D01*
X152885691Y-79054053D01*
X152911221Y-79050266D01*
X152937000Y-79049000D01*
X153463000Y-79049000D01*
X153488779Y-79050266D01*
G37*
G36*
X153488779Y-80800266D02*
G01*
X153514309Y-80804053D01*
X153539345Y-80810325D01*
X153563646Y-80819020D01*
X153586977Y-80830055D01*
X153609115Y-80843323D01*
X153629845Y-80858698D01*
X153648969Y-80876031D01*
X153666302Y-80895155D01*
X153681677Y-80915885D01*
X153694945Y-80938023D01*
X153705980Y-80961354D01*
X153714675Y-80985655D01*
X153720947Y-81010691D01*
X153724734Y-81036221D01*
X153726000Y-81062000D01*
X153726000Y-81688000D01*
X153724734Y-81713779D01*
X153720947Y-81739309D01*
X153714675Y-81764345D01*
X153705980Y-81788646D01*
X153694945Y-81811977D01*
X153681677Y-81834115D01*
X153666302Y-81854845D01*
X153648969Y-81873969D01*
X153629845Y-81891302D01*
X153609115Y-81906677D01*
X153586977Y-81919945D01*
X153563646Y-81930980D01*
X153539345Y-81939675D01*
X153514309Y-81945947D01*
X153488779Y-81949734D01*
X153463000Y-81951000D01*
X152937000Y-81951000D01*
X152911221Y-81949734D01*
X152885691Y-81945947D01*
X152860655Y-81939675D01*
X152836354Y-81930980D01*
X152813023Y-81919945D01*
X152790885Y-81906677D01*
X152770155Y-81891302D01*
X152751031Y-81873969D01*
X152733698Y-81854845D01*
X152718323Y-81834115D01*
X152705055Y-81811977D01*
X152694020Y-81788646D01*
X152685325Y-81764345D01*
X152679053Y-81739309D01*
X152675266Y-81713779D01*
X152674000Y-81688000D01*
X152674000Y-81062000D01*
X152675266Y-81036221D01*
X152679053Y-81010691D01*
X152685325Y-80985655D01*
X152694020Y-80961354D01*
X152705055Y-80938023D01*
X152718323Y-80915885D01*
X152733698Y-80895155D01*
X152751031Y-80876031D01*
X152770155Y-80858698D01*
X152790885Y-80843323D01*
X152813023Y-80830055D01*
X152836354Y-80819020D01*
X152860655Y-80810325D01*
X152885691Y-80804053D01*
X152911221Y-80800266D01*
X152937000Y-80799000D01*
X153463000Y-80799000D01*
X153488779Y-80800266D01*
G37*
M02*
