G04 #@! TF.GenerationSoftware,KiCad,Pcbnew,(5.1.5-0)*
G04 #@! TF.CreationDate,2022-02-21T13:17:38-07:00*
G04 #@! TF.ProjectId,diode_ref,64696f64-655f-4726-9566-2e6b69636164,rev?*
G04 #@! TF.SameCoordinates,Original*
G04 #@! TF.FileFunction,Soldermask,Top*
G04 #@! TF.FilePolarity,Negative*
%FSLAX46Y46*%
G04 Gerber Fmt 4.6, Leading zero omitted, Abs format (unit mm)*
G04 Created by KiCad (PCBNEW (5.1.5-0)) date 2022-02-21 13:17:38*
%MOMM*%
%LPD*%
G04 APERTURE LIST*
%ADD10C,0.100000*%
G04 APERTURE END LIST*
D10*
G36*
X138751000Y-80551000D02*
G01*
X137649000Y-80551000D01*
X137649000Y-79449000D01*
X138751000Y-79449000D01*
X138751000Y-80551000D01*
G37*
G36*
X135951000Y-80551000D02*
G01*
X134849000Y-80551000D01*
X134849000Y-79449000D01*
X135951000Y-79449000D01*
X135951000Y-80551000D01*
G37*
G36*
X126464499Y-78928445D02*
G01*
X126501995Y-78939820D01*
X126536554Y-78958292D01*
X126566847Y-78983153D01*
X126591708Y-79013446D01*
X126610180Y-79048005D01*
X126621555Y-79085501D01*
X126626000Y-79130638D01*
X126626000Y-79869362D01*
X126621555Y-79914499D01*
X126610180Y-79951995D01*
X126591708Y-79986554D01*
X126566847Y-80016847D01*
X126536554Y-80041708D01*
X126501995Y-80060180D01*
X126464499Y-80071555D01*
X126419362Y-80076000D01*
X125780638Y-80076000D01*
X125735501Y-80071555D01*
X125698005Y-80060180D01*
X125663446Y-80041708D01*
X125633153Y-80016847D01*
X125608292Y-79986554D01*
X125589820Y-79951995D01*
X125578445Y-79914499D01*
X125574000Y-79869362D01*
X125574000Y-79130638D01*
X125578445Y-79085501D01*
X125589820Y-79048005D01*
X125608292Y-79013446D01*
X125633153Y-78983153D01*
X125663446Y-78958292D01*
X125698005Y-78939820D01*
X125735501Y-78928445D01*
X125780638Y-78924000D01*
X126419362Y-78924000D01*
X126464499Y-78928445D01*
G37*
G36*
X128464499Y-78878445D02*
G01*
X128501995Y-78889820D01*
X128536554Y-78908292D01*
X128566847Y-78933153D01*
X128591708Y-78963446D01*
X128610180Y-78998005D01*
X128621555Y-79035501D01*
X128626000Y-79080638D01*
X128626000Y-79819362D01*
X128621555Y-79864499D01*
X128610180Y-79901995D01*
X128591708Y-79936554D01*
X128566847Y-79966847D01*
X128536554Y-79991708D01*
X128501995Y-80010180D01*
X128464499Y-80021555D01*
X128419362Y-80026000D01*
X127780638Y-80026000D01*
X127735501Y-80021555D01*
X127698005Y-80010180D01*
X127663446Y-79991708D01*
X127633153Y-79966847D01*
X127608292Y-79936554D01*
X127589820Y-79901995D01*
X127578445Y-79864499D01*
X127574000Y-79819362D01*
X127574000Y-79080638D01*
X127578445Y-79035501D01*
X127589820Y-78998005D01*
X127608292Y-78963446D01*
X127633153Y-78933153D01*
X127663446Y-78908292D01*
X127698005Y-78889820D01*
X127735501Y-78878445D01*
X127780638Y-78874000D01*
X128419362Y-78874000D01*
X128464499Y-78878445D01*
G37*
G36*
X130601000Y-79901000D02*
G01*
X129599000Y-79901000D01*
X129599000Y-78999000D01*
X130601000Y-78999000D01*
X130601000Y-79901000D01*
G37*
G36*
X136960721Y-78070174D02*
G01*
X137060995Y-78111709D01*
X137105812Y-78141655D01*
X137151242Y-78172010D01*
X137227990Y-78248758D01*
X137242816Y-78270947D01*
X137288291Y-78339005D01*
X137329826Y-78439279D01*
X137351000Y-78545730D01*
X137351000Y-78654270D01*
X137329826Y-78760721D01*
X137288291Y-78860995D01*
X137288290Y-78860996D01*
X137227990Y-78951242D01*
X137151242Y-79027990D01*
X137140001Y-79035501D01*
X137060995Y-79088291D01*
X136960721Y-79129826D01*
X136854270Y-79151000D01*
X136745730Y-79151000D01*
X136639279Y-79129826D01*
X136539005Y-79088291D01*
X136459999Y-79035501D01*
X136448758Y-79027990D01*
X136372010Y-78951242D01*
X136311710Y-78860996D01*
X136311709Y-78860995D01*
X136270174Y-78760721D01*
X136249000Y-78654270D01*
X136249000Y-78545730D01*
X136270174Y-78439279D01*
X136311709Y-78339005D01*
X136357184Y-78270947D01*
X136372010Y-78248758D01*
X136448758Y-78172010D01*
X136494188Y-78141655D01*
X136539005Y-78111709D01*
X136639279Y-78070174D01*
X136745730Y-78049000D01*
X136854270Y-78049000D01*
X136960721Y-78070174D01*
G37*
G36*
X132601000Y-78951000D02*
G01*
X131599000Y-78951000D01*
X131599000Y-78049000D01*
X132601000Y-78049000D01*
X132601000Y-78951000D01*
G37*
G36*
X126464499Y-77178445D02*
G01*
X126501995Y-77189820D01*
X126536554Y-77208292D01*
X126566847Y-77233153D01*
X126591708Y-77263446D01*
X126610180Y-77298005D01*
X126621555Y-77335501D01*
X126626000Y-77380638D01*
X126626000Y-78119362D01*
X126621555Y-78164499D01*
X126610180Y-78201995D01*
X126591708Y-78236554D01*
X126566847Y-78266847D01*
X126536554Y-78291708D01*
X126501995Y-78310180D01*
X126464499Y-78321555D01*
X126419362Y-78326000D01*
X125780638Y-78326000D01*
X125735501Y-78321555D01*
X125698005Y-78310180D01*
X125663446Y-78291708D01*
X125633153Y-78266847D01*
X125608292Y-78236554D01*
X125589820Y-78201995D01*
X125578445Y-78164499D01*
X125574000Y-78119362D01*
X125574000Y-77380638D01*
X125578445Y-77335501D01*
X125589820Y-77298005D01*
X125608292Y-77263446D01*
X125633153Y-77233153D01*
X125663446Y-77208292D01*
X125698005Y-77189820D01*
X125735501Y-77178445D01*
X125780638Y-77174000D01*
X126419362Y-77174000D01*
X126464499Y-77178445D01*
G37*
G36*
X128464499Y-77128445D02*
G01*
X128501995Y-77139820D01*
X128536554Y-77158292D01*
X128566847Y-77183153D01*
X128591708Y-77213446D01*
X128610180Y-77248005D01*
X128621555Y-77285501D01*
X128626000Y-77330638D01*
X128626000Y-78069362D01*
X128621555Y-78114499D01*
X128610180Y-78151995D01*
X128591708Y-78186554D01*
X128566847Y-78216847D01*
X128536554Y-78241708D01*
X128501995Y-78260180D01*
X128464499Y-78271555D01*
X128419362Y-78276000D01*
X127780638Y-78276000D01*
X127735501Y-78271555D01*
X127698005Y-78260180D01*
X127663446Y-78241708D01*
X127633153Y-78216847D01*
X127608292Y-78186554D01*
X127589820Y-78151995D01*
X127578445Y-78114499D01*
X127574000Y-78069362D01*
X127574000Y-77330638D01*
X127578445Y-77285501D01*
X127589820Y-77248005D01*
X127608292Y-77213446D01*
X127633153Y-77183153D01*
X127663446Y-77158292D01*
X127698005Y-77139820D01*
X127735501Y-77128445D01*
X127780638Y-77124000D01*
X128419362Y-77124000D01*
X128464499Y-77128445D01*
G37*
G36*
X117462199Y-75749954D02*
G01*
X117474450Y-75750556D01*
X117492869Y-75750556D01*
X117515149Y-75752750D01*
X117599233Y-75769476D01*
X117620660Y-75775976D01*
X117699858Y-75808780D01*
X117705303Y-75811691D01*
X117705309Y-75811693D01*
X117714169Y-75816429D01*
X117714173Y-75816432D01*
X117719614Y-75819340D01*
X117790899Y-75866971D01*
X117808204Y-75881172D01*
X117868828Y-75941796D01*
X117883029Y-75959101D01*
X117930660Y-76030386D01*
X117933568Y-76035827D01*
X117933571Y-76035831D01*
X117938307Y-76044691D01*
X117938309Y-76044697D01*
X117941220Y-76050142D01*
X117974024Y-76129340D01*
X117980524Y-76150767D01*
X117997250Y-76234851D01*
X117999444Y-76257131D01*
X117999444Y-76275550D01*
X118000046Y-76287801D01*
X118001852Y-76306139D01*
X118001852Y-76793860D01*
X118000263Y-76809999D01*
X117997348Y-76819608D01*
X117992610Y-76828472D01*
X117986237Y-76836237D01*
X117973794Y-76846448D01*
X117963425Y-76853378D01*
X117946098Y-76870705D01*
X117932485Y-76891080D01*
X117923109Y-76913720D01*
X117918329Y-76937753D01*
X117918330Y-76962257D01*
X117923112Y-76986290D01*
X117932490Y-77008929D01*
X117946105Y-77029302D01*
X117963432Y-77046629D01*
X117973802Y-77053558D01*
X117986237Y-77063763D01*
X117992610Y-77071528D01*
X117997348Y-77080392D01*
X118000263Y-77090001D01*
X118001852Y-77106140D01*
X118001852Y-77593862D01*
X118000046Y-77612199D01*
X117999444Y-77624450D01*
X117999444Y-77642869D01*
X117997250Y-77665149D01*
X117980524Y-77749233D01*
X117974024Y-77770660D01*
X117941220Y-77849858D01*
X117938309Y-77855303D01*
X117938307Y-77855309D01*
X117933571Y-77864169D01*
X117933568Y-77864173D01*
X117930660Y-77869614D01*
X117883029Y-77940899D01*
X117868828Y-77958204D01*
X117808204Y-78018828D01*
X117790899Y-78033029D01*
X117719614Y-78080660D01*
X117714173Y-78083568D01*
X117714169Y-78083571D01*
X117705309Y-78088307D01*
X117705303Y-78088309D01*
X117699858Y-78091220D01*
X117620660Y-78124024D01*
X117599233Y-78130524D01*
X117515149Y-78147250D01*
X117492869Y-78149444D01*
X117474450Y-78149444D01*
X117462199Y-78150046D01*
X117443862Y-78151852D01*
X116956138Y-78151852D01*
X116937801Y-78150046D01*
X116925550Y-78149444D01*
X116907131Y-78149444D01*
X116884851Y-78147250D01*
X116800767Y-78130524D01*
X116779340Y-78124024D01*
X116700142Y-78091220D01*
X116694697Y-78088309D01*
X116694691Y-78088307D01*
X116685831Y-78083571D01*
X116685827Y-78083568D01*
X116680386Y-78080660D01*
X116609101Y-78033029D01*
X116591796Y-78018828D01*
X116531172Y-77958204D01*
X116516971Y-77940899D01*
X116469340Y-77869614D01*
X116466432Y-77864173D01*
X116466429Y-77864169D01*
X116461693Y-77855309D01*
X116461691Y-77855303D01*
X116458780Y-77849858D01*
X116425976Y-77770660D01*
X116419476Y-77749233D01*
X116402750Y-77665149D01*
X116400556Y-77642869D01*
X116400556Y-77624450D01*
X116399954Y-77612199D01*
X116398148Y-77593862D01*
X116398148Y-77106140D01*
X116399737Y-77090001D01*
X116402652Y-77080392D01*
X116407390Y-77071528D01*
X116413763Y-77063763D01*
X116426206Y-77053552D01*
X116436575Y-77046622D01*
X116453902Y-77029295D01*
X116467515Y-77008920D01*
X116476891Y-76986280D01*
X116481671Y-76962247D01*
X116481670Y-76937743D01*
X116476888Y-76913710D01*
X116467510Y-76891071D01*
X116453895Y-76870698D01*
X116436568Y-76853371D01*
X116426198Y-76846442D01*
X116413763Y-76836237D01*
X116407390Y-76828472D01*
X116402652Y-76819608D01*
X116399737Y-76809999D01*
X116398148Y-76793860D01*
X116398148Y-76306139D01*
X116399954Y-76287801D01*
X116400556Y-76275550D01*
X116400556Y-76257131D01*
X116402750Y-76234851D01*
X116419476Y-76150767D01*
X116425976Y-76129340D01*
X116458780Y-76050142D01*
X116461691Y-76044697D01*
X116461693Y-76044691D01*
X116466429Y-76035831D01*
X116466432Y-76035827D01*
X116469340Y-76030386D01*
X116516971Y-75959101D01*
X116531172Y-75941796D01*
X116591796Y-75881172D01*
X116609101Y-75866971D01*
X116680386Y-75819340D01*
X116685827Y-75816432D01*
X116685831Y-75816429D01*
X116694691Y-75811693D01*
X116694697Y-75811691D01*
X116700142Y-75808780D01*
X116779340Y-75775976D01*
X116800767Y-75769476D01*
X116884851Y-75752750D01*
X116907131Y-75750556D01*
X116925550Y-75750556D01*
X116937801Y-75749954D01*
X116956139Y-75748148D01*
X117443861Y-75748148D01*
X117462199Y-75749954D01*
G37*
G36*
X123762199Y-75649954D02*
G01*
X123774450Y-75650556D01*
X123792869Y-75650556D01*
X123815149Y-75652750D01*
X123899233Y-75669476D01*
X123920660Y-75675976D01*
X123999858Y-75708780D01*
X124005303Y-75711691D01*
X124005309Y-75711693D01*
X124014169Y-75716429D01*
X124014173Y-75716432D01*
X124019614Y-75719340D01*
X124090899Y-75766971D01*
X124108204Y-75781172D01*
X124168828Y-75841796D01*
X124183029Y-75859101D01*
X124230660Y-75930386D01*
X124233568Y-75935827D01*
X124233571Y-75935831D01*
X124238307Y-75944691D01*
X124238309Y-75944697D01*
X124241220Y-75950142D01*
X124274024Y-76029340D01*
X124280524Y-76050767D01*
X124297250Y-76134851D01*
X124299444Y-76157131D01*
X124299444Y-76175550D01*
X124300046Y-76187801D01*
X124301852Y-76206139D01*
X124301852Y-76693860D01*
X124300263Y-76709999D01*
X124297348Y-76719608D01*
X124292610Y-76728472D01*
X124286237Y-76736237D01*
X124273794Y-76746448D01*
X124263425Y-76753378D01*
X124246098Y-76770705D01*
X124232485Y-76791080D01*
X124223109Y-76813720D01*
X124218329Y-76837753D01*
X124218330Y-76862257D01*
X124223112Y-76886290D01*
X124232490Y-76908929D01*
X124246105Y-76929302D01*
X124263432Y-76946629D01*
X124273802Y-76953558D01*
X124286237Y-76963763D01*
X124292610Y-76971528D01*
X124297348Y-76980392D01*
X124300263Y-76990001D01*
X124301852Y-77006140D01*
X124301852Y-77493862D01*
X124300046Y-77512199D01*
X124299444Y-77524450D01*
X124299444Y-77542869D01*
X124297250Y-77565149D01*
X124280524Y-77649233D01*
X124274024Y-77670660D01*
X124241220Y-77749858D01*
X124238309Y-77755303D01*
X124238307Y-77755309D01*
X124233571Y-77764169D01*
X124233568Y-77764173D01*
X124230660Y-77769614D01*
X124183029Y-77840899D01*
X124168828Y-77858204D01*
X124108204Y-77918828D01*
X124090899Y-77933029D01*
X124019614Y-77980660D01*
X124014173Y-77983568D01*
X124014169Y-77983571D01*
X124005309Y-77988307D01*
X124005303Y-77988309D01*
X123999858Y-77991220D01*
X123920660Y-78024024D01*
X123899233Y-78030524D01*
X123815149Y-78047250D01*
X123792869Y-78049444D01*
X123774450Y-78049444D01*
X123762199Y-78050046D01*
X123743862Y-78051852D01*
X123256138Y-78051852D01*
X123237801Y-78050046D01*
X123225550Y-78049444D01*
X123207131Y-78049444D01*
X123184851Y-78047250D01*
X123100767Y-78030524D01*
X123079340Y-78024024D01*
X123000142Y-77991220D01*
X122994697Y-77988309D01*
X122994691Y-77988307D01*
X122985831Y-77983571D01*
X122985827Y-77983568D01*
X122980386Y-77980660D01*
X122909101Y-77933029D01*
X122891796Y-77918828D01*
X122831172Y-77858204D01*
X122816971Y-77840899D01*
X122769340Y-77769614D01*
X122766432Y-77764173D01*
X122766429Y-77764169D01*
X122761693Y-77755309D01*
X122761691Y-77755303D01*
X122758780Y-77749858D01*
X122725976Y-77670660D01*
X122719476Y-77649233D01*
X122702750Y-77565149D01*
X122700556Y-77542869D01*
X122700556Y-77524450D01*
X122699954Y-77512199D01*
X122698148Y-77493862D01*
X122698148Y-77006140D01*
X122699737Y-76990001D01*
X122702652Y-76980392D01*
X122707390Y-76971528D01*
X122713763Y-76963763D01*
X122726206Y-76953552D01*
X122736575Y-76946622D01*
X122753902Y-76929295D01*
X122767515Y-76908920D01*
X122776891Y-76886280D01*
X122781671Y-76862247D01*
X122781670Y-76837743D01*
X122776888Y-76813710D01*
X122767510Y-76791071D01*
X122753895Y-76770698D01*
X122736568Y-76753371D01*
X122726198Y-76746442D01*
X122713763Y-76736237D01*
X122707390Y-76728472D01*
X122702652Y-76719608D01*
X122699737Y-76709999D01*
X122698148Y-76693860D01*
X122698148Y-76206139D01*
X122699954Y-76187801D01*
X122700556Y-76175550D01*
X122700556Y-76157131D01*
X122702750Y-76134851D01*
X122719476Y-76050767D01*
X122725976Y-76029340D01*
X122758780Y-75950142D01*
X122761691Y-75944697D01*
X122761693Y-75944691D01*
X122766429Y-75935831D01*
X122766432Y-75935827D01*
X122769340Y-75930386D01*
X122816971Y-75859101D01*
X122831172Y-75841796D01*
X122891796Y-75781172D01*
X122909101Y-75766971D01*
X122980386Y-75719340D01*
X122985827Y-75716432D01*
X122985831Y-75716429D01*
X122994691Y-75711693D01*
X122994697Y-75711691D01*
X123000142Y-75708780D01*
X123079340Y-75675976D01*
X123100767Y-75669476D01*
X123184851Y-75652750D01*
X123207131Y-75650556D01*
X123225550Y-75650556D01*
X123237801Y-75649954D01*
X123256139Y-75648148D01*
X123743861Y-75648148D01*
X123762199Y-75649954D01*
G37*
G36*
X120662199Y-75649954D02*
G01*
X120674450Y-75650556D01*
X120692869Y-75650556D01*
X120715149Y-75652750D01*
X120799233Y-75669476D01*
X120820660Y-75675976D01*
X120899858Y-75708780D01*
X120905303Y-75711691D01*
X120905309Y-75711693D01*
X120914169Y-75716429D01*
X120914173Y-75716432D01*
X120919614Y-75719340D01*
X120990899Y-75766971D01*
X121008204Y-75781172D01*
X121068828Y-75841796D01*
X121083029Y-75859101D01*
X121130660Y-75930386D01*
X121133568Y-75935827D01*
X121133571Y-75935831D01*
X121138307Y-75944691D01*
X121138309Y-75944697D01*
X121141220Y-75950142D01*
X121174024Y-76029340D01*
X121180524Y-76050767D01*
X121197250Y-76134851D01*
X121199444Y-76157131D01*
X121199444Y-76175550D01*
X121200046Y-76187801D01*
X121201852Y-76206139D01*
X121201852Y-76693860D01*
X121200263Y-76709999D01*
X121197348Y-76719608D01*
X121192610Y-76728472D01*
X121186237Y-76736237D01*
X121173794Y-76746448D01*
X121163425Y-76753378D01*
X121146098Y-76770705D01*
X121132485Y-76791080D01*
X121123109Y-76813720D01*
X121118329Y-76837753D01*
X121118330Y-76862257D01*
X121123112Y-76886290D01*
X121132490Y-76908929D01*
X121146105Y-76929302D01*
X121163432Y-76946629D01*
X121173802Y-76953558D01*
X121186237Y-76963763D01*
X121192610Y-76971528D01*
X121197348Y-76980392D01*
X121200263Y-76990001D01*
X121201852Y-77006140D01*
X121201852Y-77493862D01*
X121200046Y-77512199D01*
X121199444Y-77524450D01*
X121199444Y-77542869D01*
X121197250Y-77565149D01*
X121180524Y-77649233D01*
X121174024Y-77670660D01*
X121141220Y-77749858D01*
X121138309Y-77755303D01*
X121138307Y-77755309D01*
X121133571Y-77764169D01*
X121133568Y-77764173D01*
X121130660Y-77769614D01*
X121083029Y-77840899D01*
X121068828Y-77858204D01*
X121008204Y-77918828D01*
X120990899Y-77933029D01*
X120919614Y-77980660D01*
X120914173Y-77983568D01*
X120914169Y-77983571D01*
X120905309Y-77988307D01*
X120905303Y-77988309D01*
X120899858Y-77991220D01*
X120820660Y-78024024D01*
X120799233Y-78030524D01*
X120715149Y-78047250D01*
X120692869Y-78049444D01*
X120674450Y-78049444D01*
X120662199Y-78050046D01*
X120643862Y-78051852D01*
X120156138Y-78051852D01*
X120137801Y-78050046D01*
X120125550Y-78049444D01*
X120107131Y-78049444D01*
X120084851Y-78047250D01*
X120000767Y-78030524D01*
X119979340Y-78024024D01*
X119900142Y-77991220D01*
X119894697Y-77988309D01*
X119894691Y-77988307D01*
X119885831Y-77983571D01*
X119885827Y-77983568D01*
X119880386Y-77980660D01*
X119809101Y-77933029D01*
X119791796Y-77918828D01*
X119731172Y-77858204D01*
X119716971Y-77840899D01*
X119669340Y-77769614D01*
X119666432Y-77764173D01*
X119666429Y-77764169D01*
X119661693Y-77755309D01*
X119661691Y-77755303D01*
X119658780Y-77749858D01*
X119625976Y-77670660D01*
X119619476Y-77649233D01*
X119602750Y-77565149D01*
X119600556Y-77542869D01*
X119600556Y-77524450D01*
X119599954Y-77512199D01*
X119598148Y-77493862D01*
X119598148Y-77006140D01*
X119599737Y-76990001D01*
X119602652Y-76980392D01*
X119607390Y-76971528D01*
X119613763Y-76963763D01*
X119626206Y-76953552D01*
X119636575Y-76946622D01*
X119653902Y-76929295D01*
X119667515Y-76908920D01*
X119676891Y-76886280D01*
X119681671Y-76862247D01*
X119681670Y-76837743D01*
X119676888Y-76813710D01*
X119667510Y-76791071D01*
X119653895Y-76770698D01*
X119636568Y-76753371D01*
X119626198Y-76746442D01*
X119613763Y-76736237D01*
X119607390Y-76728472D01*
X119602652Y-76719608D01*
X119599737Y-76709999D01*
X119598148Y-76693860D01*
X119598148Y-76206139D01*
X119599954Y-76187801D01*
X119600556Y-76175550D01*
X119600556Y-76157131D01*
X119602750Y-76134851D01*
X119619476Y-76050767D01*
X119625976Y-76029340D01*
X119658780Y-75950142D01*
X119661691Y-75944697D01*
X119661693Y-75944691D01*
X119666429Y-75935831D01*
X119666432Y-75935827D01*
X119669340Y-75930386D01*
X119716971Y-75859101D01*
X119731172Y-75841796D01*
X119791796Y-75781172D01*
X119809101Y-75766971D01*
X119880386Y-75719340D01*
X119885827Y-75716432D01*
X119885831Y-75716429D01*
X119894691Y-75711693D01*
X119894697Y-75711691D01*
X119900142Y-75708780D01*
X119979340Y-75675976D01*
X120000767Y-75669476D01*
X120084851Y-75652750D01*
X120107131Y-75650556D01*
X120125550Y-75650556D01*
X120137801Y-75649954D01*
X120156139Y-75648148D01*
X120643861Y-75648148D01*
X120662199Y-75649954D01*
G37*
G36*
X130601000Y-78001000D02*
G01*
X129599000Y-78001000D01*
X129599000Y-77099000D01*
X130601000Y-77099000D01*
X130601000Y-78001000D01*
G37*
G36*
X135951000Y-77751000D02*
G01*
X134849000Y-77751000D01*
X134849000Y-76649000D01*
X135951000Y-76649000D01*
X135951000Y-77751000D01*
G37*
G36*
X138751000Y-77751000D02*
G01*
X137649000Y-77751000D01*
X137649000Y-76649000D01*
X138751000Y-76649000D01*
X138751000Y-77751000D01*
G37*
G36*
X132314499Y-74878445D02*
G01*
X132351995Y-74889820D01*
X132386554Y-74908292D01*
X132416847Y-74933153D01*
X132441708Y-74963446D01*
X132460180Y-74998005D01*
X132471555Y-75035501D01*
X132476000Y-75080638D01*
X132476000Y-75719362D01*
X132471555Y-75764499D01*
X132460180Y-75801995D01*
X132441708Y-75836554D01*
X132416847Y-75866847D01*
X132386554Y-75891708D01*
X132351995Y-75910180D01*
X132314499Y-75921555D01*
X132269362Y-75926000D01*
X131530638Y-75926000D01*
X131485501Y-75921555D01*
X131448005Y-75910180D01*
X131413446Y-75891708D01*
X131383153Y-75866847D01*
X131358292Y-75836554D01*
X131339820Y-75801995D01*
X131328445Y-75764499D01*
X131324000Y-75719362D01*
X131324000Y-75080638D01*
X131328445Y-75035501D01*
X131339820Y-74998005D01*
X131358292Y-74963446D01*
X131383153Y-74933153D01*
X131413446Y-74908292D01*
X131448005Y-74889820D01*
X131485501Y-74878445D01*
X131530638Y-74874000D01*
X132269362Y-74874000D01*
X132314499Y-74878445D01*
G37*
G36*
X130564499Y-74878445D02*
G01*
X130601995Y-74889820D01*
X130636554Y-74908292D01*
X130666847Y-74933153D01*
X130691708Y-74963446D01*
X130710180Y-74998005D01*
X130721555Y-75035501D01*
X130726000Y-75080638D01*
X130726000Y-75719362D01*
X130721555Y-75764499D01*
X130710180Y-75801995D01*
X130691708Y-75836554D01*
X130666847Y-75866847D01*
X130636554Y-75891708D01*
X130601995Y-75910180D01*
X130564499Y-75921555D01*
X130519362Y-75926000D01*
X129780638Y-75926000D01*
X129735501Y-75921555D01*
X129698005Y-75910180D01*
X129663446Y-75891708D01*
X129633153Y-75866847D01*
X129608292Y-75836554D01*
X129589820Y-75801995D01*
X129578445Y-75764499D01*
X129574000Y-75719362D01*
X129574000Y-75080638D01*
X129578445Y-75035501D01*
X129589820Y-74998005D01*
X129608292Y-74963446D01*
X129633153Y-74933153D01*
X129663446Y-74908292D01*
X129698005Y-74889820D01*
X129735501Y-74878445D01*
X129780638Y-74874000D01*
X130519362Y-74874000D01*
X130564499Y-74878445D01*
G37*
G36*
X123879591Y-73690585D02*
G01*
X123913569Y-73700893D01*
X123944890Y-73717634D01*
X123972339Y-73740161D01*
X123994866Y-73767610D01*
X124011607Y-73798931D01*
X124021915Y-73832909D01*
X124026000Y-73874390D01*
X124026000Y-74475610D01*
X124021915Y-74517091D01*
X124011607Y-74551069D01*
X123994866Y-74582390D01*
X123972339Y-74609839D01*
X123944890Y-74632366D01*
X123913569Y-74649107D01*
X123879591Y-74659415D01*
X123838110Y-74663500D01*
X123161890Y-74663500D01*
X123120409Y-74659415D01*
X123086431Y-74649107D01*
X123055110Y-74632366D01*
X123027661Y-74609839D01*
X123005134Y-74582390D01*
X122988393Y-74551069D01*
X122978085Y-74517091D01*
X122974000Y-74475610D01*
X122974000Y-73874390D01*
X122978085Y-73832909D01*
X122988393Y-73798931D01*
X123005134Y-73767610D01*
X123027661Y-73740161D01*
X123055110Y-73717634D01*
X123086431Y-73700893D01*
X123120409Y-73690585D01*
X123161890Y-73686500D01*
X123838110Y-73686500D01*
X123879591Y-73690585D01*
G37*
G36*
X120945781Y-73115795D02*
G01*
X120981816Y-73126727D01*
X121015024Y-73144477D01*
X121044134Y-73168366D01*
X121068023Y-73197476D01*
X121085773Y-73230684D01*
X121096705Y-73266719D01*
X121101000Y-73310331D01*
X121101000Y-74339669D01*
X121096705Y-74383281D01*
X121085773Y-74419316D01*
X121068023Y-74452524D01*
X121044134Y-74481634D01*
X121015024Y-74505523D01*
X120981816Y-74523273D01*
X120945781Y-74534205D01*
X120902169Y-74538500D01*
X119897831Y-74538500D01*
X119854219Y-74534205D01*
X119818184Y-74523273D01*
X119784976Y-74505523D01*
X119755866Y-74481634D01*
X119731977Y-74452524D01*
X119714227Y-74419316D01*
X119703295Y-74383281D01*
X119699000Y-74339669D01*
X119699000Y-73310331D01*
X119703295Y-73266719D01*
X119714227Y-73230684D01*
X119731977Y-73197476D01*
X119755866Y-73168366D01*
X119784976Y-73144477D01*
X119818184Y-73126727D01*
X119854219Y-73115795D01*
X119897831Y-73111500D01*
X120902169Y-73111500D01*
X120945781Y-73115795D01*
G37*
G36*
X116841568Y-69634000D02*
G01*
X117054675Y-69722272D01*
X117054677Y-69722273D01*
X117246469Y-69850425D01*
X117409575Y-70013531D01*
X117409576Y-70013533D01*
X117537728Y-70205325D01*
X117626000Y-70418432D01*
X117671000Y-70644665D01*
X117671000Y-70875335D01*
X117626000Y-71101568D01*
X117537728Y-71314675D01*
X117537727Y-71314677D01*
X117409575Y-71506469D01*
X117246469Y-71669575D01*
X117054677Y-71797727D01*
X117054676Y-71797728D01*
X117054675Y-71797728D01*
X116835491Y-71888517D01*
X116813880Y-71900068D01*
X116794938Y-71915613D01*
X116779393Y-71934555D01*
X116767842Y-71956166D01*
X116760729Y-71979615D01*
X116758327Y-72004001D01*
X116760729Y-72028387D01*
X116767842Y-72051836D01*
X116779393Y-72073447D01*
X116794938Y-72092389D01*
X116813880Y-72107934D01*
X116835491Y-72119485D01*
X116858940Y-72126598D01*
X116883326Y-72129000D01*
X117671000Y-72129000D01*
X117671000Y-74471000D01*
X115329000Y-74471000D01*
X115329000Y-72129000D01*
X116116674Y-72129000D01*
X116141060Y-72126598D01*
X116164509Y-72119485D01*
X116186120Y-72107934D01*
X116205062Y-72092389D01*
X116220607Y-72073447D01*
X116232158Y-72051836D01*
X116239271Y-72028387D01*
X116241673Y-72004001D01*
X116239271Y-71979615D01*
X116232158Y-71956166D01*
X116220607Y-71934555D01*
X116205062Y-71915613D01*
X116186120Y-71900068D01*
X116164509Y-71888517D01*
X115945325Y-71797728D01*
X115945324Y-71797728D01*
X115945323Y-71797727D01*
X115753531Y-71669575D01*
X115590425Y-71506469D01*
X115462273Y-71314677D01*
X115462272Y-71314675D01*
X115374000Y-71101568D01*
X115329000Y-70875335D01*
X115329000Y-70644665D01*
X115374000Y-70418432D01*
X115462272Y-70205325D01*
X115590424Y-70013533D01*
X115590425Y-70013531D01*
X115753531Y-69850425D01*
X115945323Y-69722273D01*
X115945325Y-69722272D01*
X116158432Y-69634000D01*
X116384665Y-69589000D01*
X116615335Y-69589000D01*
X116841568Y-69634000D01*
G37*
G36*
X132501000Y-74201000D02*
G01*
X131599000Y-74201000D01*
X131599000Y-73199000D01*
X132501000Y-73199000D01*
X132501000Y-74201000D01*
G37*
G36*
X130601000Y-74201000D02*
G01*
X129699000Y-74201000D01*
X129699000Y-73199000D01*
X130601000Y-73199000D01*
X130601000Y-74201000D01*
G37*
G36*
X123879591Y-72115585D02*
G01*
X123913569Y-72125893D01*
X123944890Y-72142634D01*
X123972339Y-72165161D01*
X123994866Y-72192610D01*
X124011607Y-72223931D01*
X124021915Y-72257909D01*
X124026000Y-72299390D01*
X124026000Y-72900610D01*
X124021915Y-72942091D01*
X124011607Y-72976069D01*
X123994866Y-73007390D01*
X123972339Y-73034839D01*
X123944890Y-73057366D01*
X123913569Y-73074107D01*
X123879591Y-73084415D01*
X123838110Y-73088500D01*
X123161890Y-73088500D01*
X123120409Y-73084415D01*
X123086431Y-73074107D01*
X123055110Y-73057366D01*
X123027661Y-73034839D01*
X123005134Y-73007390D01*
X122988393Y-72976069D01*
X122978085Y-72942091D01*
X122974000Y-72900610D01*
X122974000Y-72299390D01*
X122978085Y-72257909D01*
X122988393Y-72223931D01*
X123005134Y-72192610D01*
X123027661Y-72165161D01*
X123055110Y-72142634D01*
X123086431Y-72125893D01*
X123120409Y-72115585D01*
X123161890Y-72111500D01*
X123838110Y-72111500D01*
X123879591Y-72115585D01*
G37*
G36*
X120945781Y-71190795D02*
G01*
X120981816Y-71201727D01*
X121015024Y-71219477D01*
X121044134Y-71243366D01*
X121068023Y-71272476D01*
X121085773Y-71305684D01*
X121096705Y-71341719D01*
X121101000Y-71385331D01*
X121101000Y-72414669D01*
X121096705Y-72458281D01*
X121085773Y-72494316D01*
X121068023Y-72527524D01*
X121044134Y-72556634D01*
X121015024Y-72580523D01*
X120981816Y-72598273D01*
X120945781Y-72609205D01*
X120902169Y-72613500D01*
X119897831Y-72613500D01*
X119854219Y-72609205D01*
X119818184Y-72598273D01*
X119784976Y-72580523D01*
X119755866Y-72556634D01*
X119731977Y-72527524D01*
X119714227Y-72494316D01*
X119703295Y-72458281D01*
X119699000Y-72414669D01*
X119699000Y-71385331D01*
X119703295Y-71341719D01*
X119714227Y-71305684D01*
X119731977Y-71272476D01*
X119755866Y-71243366D01*
X119784976Y-71219477D01*
X119818184Y-71201727D01*
X119854219Y-71190795D01*
X119897831Y-71186500D01*
X120902169Y-71186500D01*
X120945781Y-71190795D01*
G37*
G36*
X131551000Y-72201000D02*
G01*
X130649000Y-72201000D01*
X130649000Y-71199000D01*
X131551000Y-71199000D01*
X131551000Y-72201000D01*
G37*
G36*
X138751000Y-70351000D02*
G01*
X137649000Y-70351000D01*
X137649000Y-69249000D01*
X138751000Y-69249000D01*
X138751000Y-70351000D01*
G37*
G36*
X135951000Y-70351000D02*
G01*
X134849000Y-70351000D01*
X134849000Y-69249000D01*
X135951000Y-69249000D01*
X135951000Y-70351000D01*
G37*
G36*
X134189499Y-67978445D02*
G01*
X134226995Y-67989820D01*
X134261554Y-68008292D01*
X134291847Y-68033153D01*
X134316708Y-68063446D01*
X134335180Y-68098005D01*
X134346555Y-68135501D01*
X134351000Y-68180638D01*
X134351000Y-68819362D01*
X134346555Y-68864499D01*
X134335180Y-68901995D01*
X134316708Y-68936554D01*
X134291847Y-68966847D01*
X134261554Y-68991708D01*
X134226995Y-69010180D01*
X134189499Y-69021555D01*
X134144362Y-69026000D01*
X133405638Y-69026000D01*
X133360501Y-69021555D01*
X133323005Y-69010180D01*
X133288446Y-68991708D01*
X133258153Y-68966847D01*
X133233292Y-68936554D01*
X133214820Y-68901995D01*
X133203445Y-68864499D01*
X133199000Y-68819362D01*
X133199000Y-68180638D01*
X133203445Y-68135501D01*
X133214820Y-68098005D01*
X133233292Y-68063446D01*
X133258153Y-68033153D01*
X133288446Y-68008292D01*
X133323005Y-67989820D01*
X133360501Y-67978445D01*
X133405638Y-67974000D01*
X134144362Y-67974000D01*
X134189499Y-67978445D01*
G37*
G36*
X132439499Y-67978445D02*
G01*
X132476995Y-67989820D01*
X132511554Y-68008292D01*
X132541847Y-68033153D01*
X132566708Y-68063446D01*
X132585180Y-68098005D01*
X132596555Y-68135501D01*
X132601000Y-68180638D01*
X132601000Y-68819362D01*
X132596555Y-68864499D01*
X132585180Y-68901995D01*
X132566708Y-68936554D01*
X132541847Y-68966847D01*
X132511554Y-68991708D01*
X132476995Y-69010180D01*
X132439499Y-69021555D01*
X132394362Y-69026000D01*
X131655638Y-69026000D01*
X131610501Y-69021555D01*
X131573005Y-69010180D01*
X131538446Y-68991708D01*
X131508153Y-68966847D01*
X131483292Y-68936554D01*
X131464820Y-68901995D01*
X131453445Y-68864499D01*
X131449000Y-68819362D01*
X131449000Y-68180638D01*
X131453445Y-68135501D01*
X131464820Y-68098005D01*
X131483292Y-68063446D01*
X131508153Y-68033153D01*
X131538446Y-68008292D01*
X131573005Y-67989820D01*
X131610501Y-67978445D01*
X131655638Y-67974000D01*
X132394362Y-67974000D01*
X132439499Y-67978445D01*
G37*
G36*
X136960721Y-67870174D02*
G01*
X137060995Y-67911709D01*
X137060996Y-67911710D01*
X137151242Y-67972010D01*
X137227990Y-68048758D01*
X137237804Y-68063446D01*
X137288291Y-68139005D01*
X137329826Y-68239279D01*
X137351000Y-68345730D01*
X137351000Y-68454270D01*
X137329826Y-68560721D01*
X137288291Y-68660995D01*
X137288290Y-68660996D01*
X137227990Y-68751242D01*
X137151242Y-68827990D01*
X137105812Y-68858345D01*
X137060995Y-68888291D01*
X136960721Y-68929826D01*
X136854270Y-68951000D01*
X136745730Y-68951000D01*
X136639279Y-68929826D01*
X136539005Y-68888291D01*
X136494188Y-68858345D01*
X136448758Y-68827990D01*
X136372010Y-68751242D01*
X136311710Y-68660996D01*
X136311709Y-68660995D01*
X136270174Y-68560721D01*
X136249000Y-68454270D01*
X136249000Y-68345730D01*
X136270174Y-68239279D01*
X136311709Y-68139005D01*
X136362196Y-68063446D01*
X136372010Y-68048758D01*
X136448758Y-67972010D01*
X136539004Y-67911710D01*
X136539005Y-67911709D01*
X136639279Y-67870174D01*
X136745730Y-67849000D01*
X136854270Y-67849000D01*
X136960721Y-67870174D01*
G37*
G36*
X138751000Y-67551000D02*
G01*
X137649000Y-67551000D01*
X137649000Y-66449000D01*
X138751000Y-66449000D01*
X138751000Y-67551000D01*
G37*
G36*
X135951000Y-67551000D02*
G01*
X134849000Y-67551000D01*
X134849000Y-66449000D01*
X135951000Y-66449000D01*
X135951000Y-67551000D01*
G37*
G36*
X118964499Y-65678445D02*
G01*
X119001995Y-65689820D01*
X119036554Y-65708292D01*
X119066847Y-65733153D01*
X119091708Y-65763446D01*
X119110180Y-65798005D01*
X119121555Y-65835501D01*
X119126000Y-65880638D01*
X119126000Y-66519362D01*
X119121555Y-66564499D01*
X119110180Y-66601995D01*
X119091708Y-66636554D01*
X119066847Y-66666847D01*
X119036554Y-66691708D01*
X119001995Y-66710180D01*
X118964499Y-66721555D01*
X118919362Y-66726000D01*
X118180638Y-66726000D01*
X118135501Y-66721555D01*
X118098005Y-66710180D01*
X118063446Y-66691708D01*
X118033153Y-66666847D01*
X118008292Y-66636554D01*
X117989820Y-66601995D01*
X117978445Y-66564499D01*
X117974000Y-66519362D01*
X117974000Y-65880638D01*
X117978445Y-65835501D01*
X117989820Y-65798005D01*
X118008292Y-65763446D01*
X118033153Y-65733153D01*
X118063446Y-65708292D01*
X118098005Y-65689820D01*
X118135501Y-65678445D01*
X118180638Y-65674000D01*
X118919362Y-65674000D01*
X118964499Y-65678445D01*
G37*
G36*
X120714499Y-65678445D02*
G01*
X120751995Y-65689820D01*
X120786554Y-65708292D01*
X120816847Y-65733153D01*
X120841708Y-65763446D01*
X120860180Y-65798005D01*
X120871555Y-65835501D01*
X120876000Y-65880638D01*
X120876000Y-66519362D01*
X120871555Y-66564499D01*
X120860180Y-66601995D01*
X120841708Y-66636554D01*
X120816847Y-66666847D01*
X120786554Y-66691708D01*
X120751995Y-66710180D01*
X120714499Y-66721555D01*
X120669362Y-66726000D01*
X119930638Y-66726000D01*
X119885501Y-66721555D01*
X119848005Y-66710180D01*
X119813446Y-66691708D01*
X119783153Y-66666847D01*
X119758292Y-66636554D01*
X119739820Y-66601995D01*
X119728445Y-66564499D01*
X119724000Y-66519362D01*
X119724000Y-65880638D01*
X119728445Y-65835501D01*
X119739820Y-65798005D01*
X119758292Y-65763446D01*
X119783153Y-65733153D01*
X119813446Y-65708292D01*
X119848005Y-65689820D01*
X119885501Y-65678445D01*
X119930638Y-65674000D01*
X120669362Y-65674000D01*
X120714499Y-65678445D01*
G37*
G36*
X126413062Y-63928181D02*
G01*
X126447981Y-63938774D01*
X126480163Y-63955976D01*
X126508373Y-63979127D01*
X126531524Y-64007337D01*
X126548726Y-64039519D01*
X126559319Y-64074438D01*
X126563500Y-64116895D01*
X126563500Y-66483105D01*
X126559319Y-66525562D01*
X126548726Y-66560481D01*
X126531524Y-66592663D01*
X126508373Y-66620873D01*
X126480163Y-66644024D01*
X126447981Y-66661226D01*
X126413062Y-66671819D01*
X126370605Y-66676000D01*
X125229395Y-66676000D01*
X125186938Y-66671819D01*
X125152019Y-66661226D01*
X125119837Y-66644024D01*
X125091627Y-66620873D01*
X125068476Y-66592663D01*
X125051274Y-66560481D01*
X125040681Y-66525562D01*
X125036500Y-66483105D01*
X125036500Y-64116895D01*
X125040681Y-64074438D01*
X125051274Y-64039519D01*
X125068476Y-64007337D01*
X125091627Y-63979127D01*
X125119837Y-63955976D01*
X125152019Y-63938774D01*
X125186938Y-63928181D01*
X125229395Y-63924000D01*
X126370605Y-63924000D01*
X126413062Y-63928181D01*
G37*
G36*
X123438062Y-63928181D02*
G01*
X123472981Y-63938774D01*
X123505163Y-63955976D01*
X123533373Y-63979127D01*
X123556524Y-64007337D01*
X123573726Y-64039519D01*
X123584319Y-64074438D01*
X123588500Y-64116895D01*
X123588500Y-66483105D01*
X123584319Y-66525562D01*
X123573726Y-66560481D01*
X123556524Y-66592663D01*
X123533373Y-66620873D01*
X123505163Y-66644024D01*
X123472981Y-66661226D01*
X123438062Y-66671819D01*
X123395605Y-66676000D01*
X122254395Y-66676000D01*
X122211938Y-66671819D01*
X122177019Y-66661226D01*
X122144837Y-66644024D01*
X122116627Y-66620873D01*
X122093476Y-66592663D01*
X122076274Y-66560481D01*
X122065681Y-66525562D01*
X122061500Y-66483105D01*
X122061500Y-64116895D01*
X122065681Y-64074438D01*
X122076274Y-64039519D01*
X122093476Y-64007337D01*
X122116627Y-63979127D01*
X122144837Y-63955976D01*
X122177019Y-63938774D01*
X122211938Y-63928181D01*
X122254395Y-63924000D01*
X123395605Y-63924000D01*
X123438062Y-63928181D01*
G37*
G36*
X114151000Y-65951000D02*
G01*
X113049000Y-65951000D01*
X113049000Y-64849000D01*
X114151000Y-64849000D01*
X114151000Y-65951000D01*
G37*
G36*
X116951000Y-65951000D02*
G01*
X115849000Y-65951000D01*
X115849000Y-64849000D01*
X116951000Y-64849000D01*
X116951000Y-65951000D01*
G37*
G36*
X128651000Y-65851000D02*
G01*
X127549000Y-65851000D01*
X127549000Y-64749000D01*
X128651000Y-64749000D01*
X128651000Y-65851000D01*
G37*
G36*
X131451000Y-65851000D02*
G01*
X130349000Y-65851000D01*
X130349000Y-64749000D01*
X131451000Y-64749000D01*
X131451000Y-65851000D01*
G37*
G36*
X121001000Y-64551000D02*
G01*
X119999000Y-64551000D01*
X119999000Y-63649000D01*
X121001000Y-63649000D01*
X121001000Y-64551000D01*
G37*
G36*
X115160721Y-63470174D02*
G01*
X115260995Y-63511709D01*
X115260996Y-63511710D01*
X115351242Y-63572010D01*
X115427990Y-63648758D01*
X115458345Y-63694188D01*
X115488291Y-63739005D01*
X115529826Y-63839279D01*
X115551000Y-63945730D01*
X115551000Y-64054270D01*
X115529826Y-64160721D01*
X115488291Y-64260995D01*
X115488290Y-64260996D01*
X115427990Y-64351242D01*
X115351242Y-64427990D01*
X115348494Y-64429826D01*
X115260995Y-64488291D01*
X115160721Y-64529826D01*
X115054270Y-64551000D01*
X114945730Y-64551000D01*
X114839279Y-64529826D01*
X114739005Y-64488291D01*
X114651506Y-64429826D01*
X114648758Y-64427990D01*
X114572010Y-64351242D01*
X114511710Y-64260996D01*
X114511709Y-64260995D01*
X114470174Y-64160721D01*
X114449000Y-64054270D01*
X114449000Y-63945730D01*
X114470174Y-63839279D01*
X114511709Y-63739005D01*
X114541655Y-63694188D01*
X114572010Y-63648758D01*
X114648758Y-63572010D01*
X114739004Y-63511710D01*
X114739005Y-63511709D01*
X114839279Y-63470174D01*
X114945730Y-63449000D01*
X115054270Y-63449000D01*
X115160721Y-63470174D01*
G37*
G36*
X129660721Y-63370174D02*
G01*
X129760995Y-63411709D01*
X129760996Y-63411710D01*
X129851242Y-63472010D01*
X129927990Y-63548758D01*
X129927991Y-63548760D01*
X129988291Y-63639005D01*
X130029826Y-63739279D01*
X130051000Y-63845730D01*
X130051000Y-63954270D01*
X130029826Y-64060721D01*
X129988291Y-64160995D01*
X129988290Y-64160996D01*
X129927990Y-64251242D01*
X129851242Y-64327990D01*
X129816446Y-64351240D01*
X129760995Y-64388291D01*
X129660721Y-64429826D01*
X129554270Y-64451000D01*
X129445730Y-64451000D01*
X129339279Y-64429826D01*
X129239005Y-64388291D01*
X129183554Y-64351240D01*
X129148758Y-64327990D01*
X129072010Y-64251242D01*
X129011710Y-64160996D01*
X129011709Y-64160995D01*
X128970174Y-64060721D01*
X128949000Y-63954270D01*
X128949000Y-63845730D01*
X128970174Y-63739279D01*
X129011709Y-63639005D01*
X129072009Y-63548760D01*
X129072010Y-63548758D01*
X129148758Y-63472010D01*
X129239004Y-63411710D01*
X129239005Y-63411709D01*
X129339279Y-63370174D01*
X129445730Y-63349000D01*
X129554270Y-63349000D01*
X129660721Y-63370174D01*
G37*
G36*
X119001000Y-63601000D02*
G01*
X117999000Y-63601000D01*
X117999000Y-62699000D01*
X119001000Y-62699000D01*
X119001000Y-63601000D01*
G37*
G36*
X116951000Y-63151000D02*
G01*
X115849000Y-63151000D01*
X115849000Y-62049000D01*
X116951000Y-62049000D01*
X116951000Y-63151000D01*
G37*
G36*
X114151000Y-63151000D02*
G01*
X113049000Y-63151000D01*
X113049000Y-62049000D01*
X114151000Y-62049000D01*
X114151000Y-63151000D01*
G37*
G36*
X131451000Y-63051000D02*
G01*
X130349000Y-63051000D01*
X130349000Y-61949000D01*
X131451000Y-61949000D01*
X131451000Y-63051000D01*
G37*
G36*
X128651000Y-63051000D02*
G01*
X127549000Y-63051000D01*
X127549000Y-61949000D01*
X128651000Y-61949000D01*
X128651000Y-63051000D01*
G37*
G36*
X121001000Y-62651000D02*
G01*
X119999000Y-62651000D01*
X119999000Y-61749000D01*
X121001000Y-61749000D01*
X121001000Y-62651000D01*
G37*
M02*
