%FSLAX45Y45*%
G04 Gerber Fmt 4.5, Leading zero omitted, Abs format (unit mm)*
G04 Created by KiCad (PCBNEW (5.1.5-0)) date 2022-02-21 13:17:41*
%MOMM*%
%LPD*%
G04 APERTURE LIST*
%TA.AperFunction,Profile*%
%ADD10C,0.050000*%
%TD*%
%ADD11C,0.200000*%
%ADD12C,0.300000*%
G04 APERTURE END LIST*
D10*
X11000000Y-8500000D02*
X11000000Y-6000000D01*
X14000000Y-8500000D02*
X11000000Y-8500000D01*
X14000000Y-6000000D02*
X14000000Y-8500000D01*
X11000000Y-6000000D02*
X14000000Y-6000000D01*
D11*
X11590000Y-7016000D02*
X11710000Y-7136000D01*
X11710000Y-7016000D02*
X11590000Y-7136000D01*
X11590000Y-7270000D02*
X11710000Y-7390000D01*
X11710000Y-7270000D02*
X11590000Y-7390000D01*
D12*
X11283928Y-8968214D02*
X11283928Y-8668214D01*
X11355357Y-8668214D01*
X11398214Y-8682500D01*
X11426786Y-8711072D01*
X11441071Y-8739643D01*
X11455357Y-8796786D01*
X11455357Y-8839643D01*
X11441071Y-8896786D01*
X11426786Y-8925357D01*
X11398214Y-8953929D01*
X11355357Y-8968214D01*
X11283928Y-8968214D01*
X11583928Y-8968214D02*
X11583928Y-8768214D01*
X11583928Y-8825357D02*
X11598214Y-8796786D01*
X11612500Y-8782500D01*
X11641071Y-8768214D01*
X11669643Y-8768214D01*
X11769643Y-8968214D02*
X11769643Y-8768214D01*
X11769643Y-8668214D02*
X11755357Y-8682500D01*
X11769643Y-8696786D01*
X11783928Y-8682500D01*
X11769643Y-8668214D01*
X11769643Y-8696786D01*
X11955357Y-8968214D02*
X11926786Y-8953929D01*
X11912500Y-8925357D01*
X11912500Y-8668214D01*
X12112500Y-8968214D02*
X12083928Y-8953929D01*
X12069643Y-8925357D01*
X12069643Y-8668214D01*
X12455357Y-8968214D02*
X12455357Y-8668214D01*
X12555357Y-8882500D01*
X12655357Y-8668214D01*
X12655357Y-8968214D01*
X12926786Y-8968214D02*
X12926786Y-8811072D01*
X12912500Y-8782500D01*
X12883928Y-8768214D01*
X12826786Y-8768214D01*
X12798214Y-8782500D01*
X12926786Y-8953929D02*
X12898214Y-8968214D01*
X12826786Y-8968214D01*
X12798214Y-8953929D01*
X12783928Y-8925357D01*
X12783928Y-8896786D01*
X12798214Y-8868214D01*
X12826786Y-8853929D01*
X12898214Y-8853929D01*
X12926786Y-8839643D01*
X13069643Y-8768214D02*
X13069643Y-9068214D01*
X13069643Y-8782500D02*
X13098214Y-8768214D01*
X13155357Y-8768214D01*
X13183928Y-8782500D01*
X13198214Y-8796786D01*
X13212500Y-8825357D01*
X13212500Y-8911072D01*
X13198214Y-8939643D01*
X13183928Y-8953929D01*
X13155357Y-8968214D01*
X13098214Y-8968214D01*
X13069643Y-8953929D01*
X13341071Y-8939643D02*
X13355357Y-8953929D01*
X13341071Y-8968214D01*
X13326786Y-8953929D01*
X13341071Y-8939643D01*
X13341071Y-8968214D01*
X13341071Y-8782500D02*
X13355357Y-8796786D01*
X13341071Y-8811072D01*
X13326786Y-8796786D01*
X13341071Y-8782500D01*
X13341071Y-8811072D01*
X10877500Y-9402500D02*
X10997500Y-9522500D01*
X10997500Y-9402500D02*
X10877500Y-9522500D01*
X11441071Y-9598214D02*
X11269643Y-9598214D01*
X11355357Y-9598214D02*
X11355357Y-9298214D01*
X11326786Y-9341072D01*
X11298214Y-9369643D01*
X11269643Y-9383929D01*
X11569643Y-9569643D02*
X11583928Y-9583929D01*
X11569643Y-9598214D01*
X11555357Y-9583929D01*
X11569643Y-9569643D01*
X11569643Y-9598214D01*
X11698214Y-9326786D02*
X11712500Y-9312500D01*
X11741071Y-9298214D01*
X11812500Y-9298214D01*
X11841071Y-9312500D01*
X11855357Y-9326786D01*
X11869643Y-9355357D01*
X11869643Y-9383929D01*
X11855357Y-9426786D01*
X11683928Y-9598214D01*
X11869643Y-9598214D01*
X12055357Y-9298214D02*
X12083928Y-9298214D01*
X12112500Y-9312500D01*
X12126786Y-9326786D01*
X12141071Y-9355357D01*
X12155357Y-9412500D01*
X12155357Y-9483929D01*
X12141071Y-9541072D01*
X12126786Y-9569643D01*
X12112500Y-9583929D01*
X12083928Y-9598214D01*
X12055357Y-9598214D01*
X12026786Y-9583929D01*
X12012500Y-9569643D01*
X11998214Y-9541072D01*
X11983928Y-9483929D01*
X11983928Y-9412500D01*
X11998214Y-9355357D01*
X12012500Y-9326786D01*
X12026786Y-9312500D01*
X12055357Y-9298214D01*
X12283928Y-9598214D02*
X12283928Y-9398214D01*
X12283928Y-9426786D02*
X12298214Y-9412500D01*
X12326786Y-9398214D01*
X12369643Y-9398214D01*
X12398214Y-9412500D01*
X12412500Y-9441072D01*
X12412500Y-9598214D01*
X12412500Y-9441072D02*
X12426786Y-9412500D01*
X12455357Y-9398214D01*
X12498214Y-9398214D01*
X12526786Y-9412500D01*
X12541071Y-9441072D01*
X12541071Y-9598214D01*
X12683928Y-9598214D02*
X12683928Y-9398214D01*
X12683928Y-9426786D02*
X12698214Y-9412500D01*
X12726786Y-9398214D01*
X12769643Y-9398214D01*
X12798214Y-9412500D01*
X12812500Y-9441072D01*
X12812500Y-9598214D01*
X12812500Y-9441072D02*
X12826786Y-9412500D01*
X12855357Y-9398214D01*
X12898214Y-9398214D01*
X12926786Y-9412500D01*
X12941071Y-9441072D01*
X12941071Y-9598214D01*
X13526786Y-9283929D02*
X13269643Y-9669643D01*
X13912500Y-9298214D02*
X13941071Y-9298214D01*
X13969643Y-9312500D01*
X13983928Y-9326786D01*
X13998214Y-9355357D01*
X14012500Y-9412500D01*
X14012500Y-9483929D01*
X13998214Y-9541072D01*
X13983928Y-9569643D01*
X13969643Y-9583929D01*
X13941071Y-9598214D01*
X13912500Y-9598214D01*
X13883928Y-9583929D01*
X13869643Y-9569643D01*
X13855357Y-9541072D01*
X13841071Y-9483929D01*
X13841071Y-9412500D01*
X13855357Y-9355357D01*
X13869643Y-9326786D01*
X13883928Y-9312500D01*
X13912500Y-9298214D01*
X14141071Y-9569643D02*
X14155357Y-9583929D01*
X14141071Y-9598214D01*
X14126786Y-9583929D01*
X14141071Y-9569643D01*
X14141071Y-9598214D01*
X14341071Y-9298214D02*
X14369643Y-9298214D01*
X14398214Y-9312500D01*
X14412500Y-9326786D01*
X14426786Y-9355357D01*
X14441071Y-9412500D01*
X14441071Y-9483929D01*
X14426786Y-9541072D01*
X14412500Y-9569643D01*
X14398214Y-9583929D01*
X14369643Y-9598214D01*
X14341071Y-9598214D01*
X14312500Y-9583929D01*
X14298214Y-9569643D01*
X14283928Y-9541072D01*
X14269643Y-9483929D01*
X14269643Y-9412500D01*
X14283928Y-9355357D01*
X14298214Y-9326786D01*
X14312500Y-9312500D01*
X14341071Y-9298214D01*
X14698214Y-9398214D02*
X14698214Y-9598214D01*
X14626786Y-9283929D02*
X14555357Y-9498214D01*
X14741071Y-9498214D01*
X14826786Y-9298214D02*
X15026786Y-9298214D01*
X14898214Y-9598214D01*
X15126786Y-9298214D02*
X15126786Y-9355357D01*
X15241071Y-9298214D02*
X15241071Y-9355357D01*
X15683928Y-9712500D02*
X15669643Y-9698214D01*
X15641071Y-9655357D01*
X15626786Y-9626786D01*
X15612500Y-9583929D01*
X15598214Y-9512500D01*
X15598214Y-9455357D01*
X15612500Y-9383929D01*
X15626786Y-9341072D01*
X15641071Y-9312500D01*
X15669643Y-9269643D01*
X15683928Y-9255357D01*
X15783928Y-9326786D02*
X15798214Y-9312500D01*
X15826786Y-9298214D01*
X15898214Y-9298214D01*
X15926786Y-9312500D01*
X15941071Y-9326786D01*
X15955357Y-9355357D01*
X15955357Y-9383929D01*
X15941071Y-9426786D01*
X15769643Y-9598214D01*
X15955357Y-9598214D01*
X16312500Y-9598214D02*
X16312500Y-9298214D01*
X16441071Y-9598214D02*
X16441071Y-9441072D01*
X16426786Y-9412500D01*
X16398214Y-9398214D01*
X16355357Y-9398214D01*
X16326786Y-9412500D01*
X16312500Y-9426786D01*
X16626786Y-9598214D02*
X16598214Y-9583929D01*
X16583928Y-9569643D01*
X16569643Y-9541072D01*
X16569643Y-9455357D01*
X16583928Y-9426786D01*
X16598214Y-9412500D01*
X16626786Y-9398214D01*
X16669643Y-9398214D01*
X16698214Y-9412500D01*
X16712500Y-9426786D01*
X16726786Y-9455357D01*
X16726786Y-9541072D01*
X16712500Y-9569643D01*
X16698214Y-9583929D01*
X16669643Y-9598214D01*
X16626786Y-9598214D01*
X16898214Y-9598214D02*
X16869643Y-9583929D01*
X16855357Y-9555357D01*
X16855357Y-9298214D01*
X17126786Y-9583929D02*
X17098214Y-9598214D01*
X17041071Y-9598214D01*
X17012500Y-9583929D01*
X16998214Y-9555357D01*
X16998214Y-9441072D01*
X17012500Y-9412500D01*
X17041071Y-9398214D01*
X17098214Y-9398214D01*
X17126786Y-9412500D01*
X17141071Y-9441072D01*
X17141071Y-9469643D01*
X16998214Y-9498214D01*
X17255357Y-9583929D02*
X17283928Y-9598214D01*
X17341071Y-9598214D01*
X17369643Y-9583929D01*
X17383928Y-9555357D01*
X17383928Y-9541072D01*
X17369643Y-9512500D01*
X17341071Y-9498214D01*
X17298214Y-9498214D01*
X17269643Y-9483929D01*
X17255357Y-9455357D01*
X17255357Y-9441072D01*
X17269643Y-9412500D01*
X17298214Y-9398214D01*
X17341071Y-9398214D01*
X17369643Y-9412500D01*
X17483928Y-9712500D02*
X17498214Y-9698214D01*
X17526786Y-9655357D01*
X17541071Y-9626786D01*
X17555357Y-9583929D01*
X17569643Y-9512500D01*
X17569643Y-9455357D01*
X17555357Y-9383929D01*
X17541071Y-9341072D01*
X17526786Y-9312500D01*
X17498214Y-9269643D01*
X17483928Y-9255357D01*
M02*
