G04 #@! TF.GenerationSoftware,KiCad,Pcbnew,(5.1.5-0)*
G04 #@! TF.CreationDate,2022-02-21T13:17:38-07:00*
G04 #@! TF.ProjectId,diode_ref,64696f64-655f-4726-9566-2e6b69636164,rev?*
G04 #@! TF.SameCoordinates,Original*
G04 #@! TF.FileFunction,Paste,Top*
G04 #@! TF.FilePolarity,Positive*
%FSLAX46Y46*%
G04 Gerber Fmt 4.6, Leading zero omitted, Abs format (unit mm)*
G04 Created by KiCad (PCBNEW (5.1.5-0)) date 2022-02-21 13:17:38*
%MOMM*%
%LPD*%
G04 APERTURE LIST*
%ADD10C,0.100000*%
%ADD11R,0.900000X0.800000*%
%ADD12R,1.000000X1.000000*%
%ADD13C,1.000000*%
%ADD14R,0.800000X0.900000*%
G04 APERTURE END LIST*
D10*
G36*
X118860779Y-65726144D02*
G01*
X118883834Y-65729563D01*
X118906443Y-65735227D01*
X118928387Y-65743079D01*
X118949457Y-65753044D01*
X118969448Y-65765026D01*
X118988168Y-65778910D01*
X119005438Y-65794562D01*
X119021090Y-65811832D01*
X119034974Y-65830552D01*
X119046956Y-65850543D01*
X119056921Y-65871613D01*
X119064773Y-65893557D01*
X119070437Y-65916166D01*
X119073856Y-65939221D01*
X119075000Y-65962500D01*
X119075000Y-66437500D01*
X119073856Y-66460779D01*
X119070437Y-66483834D01*
X119064773Y-66506443D01*
X119056921Y-66528387D01*
X119046956Y-66549457D01*
X119034974Y-66569448D01*
X119021090Y-66588168D01*
X119005438Y-66605438D01*
X118988168Y-66621090D01*
X118969448Y-66634974D01*
X118949457Y-66646956D01*
X118928387Y-66656921D01*
X118906443Y-66664773D01*
X118883834Y-66670437D01*
X118860779Y-66673856D01*
X118837500Y-66675000D01*
X118262500Y-66675000D01*
X118239221Y-66673856D01*
X118216166Y-66670437D01*
X118193557Y-66664773D01*
X118171613Y-66656921D01*
X118150543Y-66646956D01*
X118130552Y-66634974D01*
X118111832Y-66621090D01*
X118094562Y-66605438D01*
X118078910Y-66588168D01*
X118065026Y-66569448D01*
X118053044Y-66549457D01*
X118043079Y-66528387D01*
X118035227Y-66506443D01*
X118029563Y-66483834D01*
X118026144Y-66460779D01*
X118025000Y-66437500D01*
X118025000Y-65962500D01*
X118026144Y-65939221D01*
X118029563Y-65916166D01*
X118035227Y-65893557D01*
X118043079Y-65871613D01*
X118053044Y-65850543D01*
X118065026Y-65830552D01*
X118078910Y-65811832D01*
X118094562Y-65794562D01*
X118111832Y-65778910D01*
X118130552Y-65765026D01*
X118150543Y-65753044D01*
X118171613Y-65743079D01*
X118193557Y-65735227D01*
X118216166Y-65729563D01*
X118239221Y-65726144D01*
X118262500Y-65725000D01*
X118837500Y-65725000D01*
X118860779Y-65726144D01*
G37*
G36*
X120610779Y-65726144D02*
G01*
X120633834Y-65729563D01*
X120656443Y-65735227D01*
X120678387Y-65743079D01*
X120699457Y-65753044D01*
X120719448Y-65765026D01*
X120738168Y-65778910D01*
X120755438Y-65794562D01*
X120771090Y-65811832D01*
X120784974Y-65830552D01*
X120796956Y-65850543D01*
X120806921Y-65871613D01*
X120814773Y-65893557D01*
X120820437Y-65916166D01*
X120823856Y-65939221D01*
X120825000Y-65962500D01*
X120825000Y-66437500D01*
X120823856Y-66460779D01*
X120820437Y-66483834D01*
X120814773Y-66506443D01*
X120806921Y-66528387D01*
X120796956Y-66549457D01*
X120784974Y-66569448D01*
X120771090Y-66588168D01*
X120755438Y-66605438D01*
X120738168Y-66621090D01*
X120719448Y-66634974D01*
X120699457Y-66646956D01*
X120678387Y-66656921D01*
X120656443Y-66664773D01*
X120633834Y-66670437D01*
X120610779Y-66673856D01*
X120587500Y-66675000D01*
X120012500Y-66675000D01*
X119989221Y-66673856D01*
X119966166Y-66670437D01*
X119943557Y-66664773D01*
X119921613Y-66656921D01*
X119900543Y-66646956D01*
X119880552Y-66634974D01*
X119861832Y-66621090D01*
X119844562Y-66605438D01*
X119828910Y-66588168D01*
X119815026Y-66569448D01*
X119803044Y-66549457D01*
X119793079Y-66528387D01*
X119785227Y-66506443D01*
X119779563Y-66483834D01*
X119776144Y-66460779D01*
X119775000Y-66437500D01*
X119775000Y-65962500D01*
X119776144Y-65939221D01*
X119779563Y-65916166D01*
X119785227Y-65893557D01*
X119793079Y-65871613D01*
X119803044Y-65850543D01*
X119815026Y-65830552D01*
X119828910Y-65811832D01*
X119844562Y-65794562D01*
X119861832Y-65778910D01*
X119880552Y-65765026D01*
X119900543Y-65753044D01*
X119921613Y-65743079D01*
X119943557Y-65735227D01*
X119966166Y-65729563D01*
X119989221Y-65726144D01*
X120012500Y-65725000D01*
X120587500Y-65725000D01*
X120610779Y-65726144D01*
G37*
D11*
X118500000Y-63150000D03*
X120500000Y-62200000D03*
X120500000Y-64100000D03*
D12*
X128100000Y-62500000D03*
X130900000Y-62500000D03*
X130900000Y-65300000D03*
X128100000Y-65300000D03*
D13*
X129500000Y-63900000D03*
D12*
X113600000Y-62600000D03*
X116400000Y-62600000D03*
X116400000Y-65400000D03*
X113600000Y-65400000D03*
D13*
X115000000Y-64000000D03*
D10*
G36*
X126287004Y-63976204D02*
G01*
X126311273Y-63979804D01*
X126335071Y-63985765D01*
X126358171Y-63994030D01*
X126380349Y-64004520D01*
X126401393Y-64017133D01*
X126421098Y-64031747D01*
X126439277Y-64048223D01*
X126455753Y-64066402D01*
X126470367Y-64086107D01*
X126482980Y-64107151D01*
X126493470Y-64129329D01*
X126501735Y-64152429D01*
X126507696Y-64176227D01*
X126511296Y-64200496D01*
X126512500Y-64225000D01*
X126512500Y-66375000D01*
X126511296Y-66399504D01*
X126507696Y-66423773D01*
X126501735Y-66447571D01*
X126493470Y-66470671D01*
X126482980Y-66492849D01*
X126470367Y-66513893D01*
X126455753Y-66533598D01*
X126439277Y-66551777D01*
X126421098Y-66568253D01*
X126401393Y-66582867D01*
X126380349Y-66595480D01*
X126358171Y-66605970D01*
X126335071Y-66614235D01*
X126311273Y-66620196D01*
X126287004Y-66623796D01*
X126262500Y-66625000D01*
X125337500Y-66625000D01*
X125312996Y-66623796D01*
X125288727Y-66620196D01*
X125264929Y-66614235D01*
X125241829Y-66605970D01*
X125219651Y-66595480D01*
X125198607Y-66582867D01*
X125178902Y-66568253D01*
X125160723Y-66551777D01*
X125144247Y-66533598D01*
X125129633Y-66513893D01*
X125117020Y-66492849D01*
X125106530Y-66470671D01*
X125098265Y-66447571D01*
X125092304Y-66423773D01*
X125088704Y-66399504D01*
X125087500Y-66375000D01*
X125087500Y-64225000D01*
X125088704Y-64200496D01*
X125092304Y-64176227D01*
X125098265Y-64152429D01*
X125106530Y-64129329D01*
X125117020Y-64107151D01*
X125129633Y-64086107D01*
X125144247Y-64066402D01*
X125160723Y-64048223D01*
X125178902Y-64031747D01*
X125198607Y-64017133D01*
X125219651Y-64004520D01*
X125241829Y-63994030D01*
X125264929Y-63985765D01*
X125288727Y-63979804D01*
X125312996Y-63976204D01*
X125337500Y-63975000D01*
X126262500Y-63975000D01*
X126287004Y-63976204D01*
G37*
G36*
X123312004Y-63976204D02*
G01*
X123336273Y-63979804D01*
X123360071Y-63985765D01*
X123383171Y-63994030D01*
X123405349Y-64004520D01*
X123426393Y-64017133D01*
X123446098Y-64031747D01*
X123464277Y-64048223D01*
X123480753Y-64066402D01*
X123495367Y-64086107D01*
X123507980Y-64107151D01*
X123518470Y-64129329D01*
X123526735Y-64152429D01*
X123532696Y-64176227D01*
X123536296Y-64200496D01*
X123537500Y-64225000D01*
X123537500Y-66375000D01*
X123536296Y-66399504D01*
X123532696Y-66423773D01*
X123526735Y-66447571D01*
X123518470Y-66470671D01*
X123507980Y-66492849D01*
X123495367Y-66513893D01*
X123480753Y-66533598D01*
X123464277Y-66551777D01*
X123446098Y-66568253D01*
X123426393Y-66582867D01*
X123405349Y-66595480D01*
X123383171Y-66605970D01*
X123360071Y-66614235D01*
X123336273Y-66620196D01*
X123312004Y-66623796D01*
X123287500Y-66625000D01*
X122362500Y-66625000D01*
X122337996Y-66623796D01*
X122313727Y-66620196D01*
X122289929Y-66614235D01*
X122266829Y-66605970D01*
X122244651Y-66595480D01*
X122223607Y-66582867D01*
X122203902Y-66568253D01*
X122185723Y-66551777D01*
X122169247Y-66533598D01*
X122154633Y-66513893D01*
X122142020Y-66492849D01*
X122131530Y-66470671D01*
X122123265Y-66447571D01*
X122117304Y-66423773D01*
X122113704Y-66399504D01*
X122112500Y-66375000D01*
X122112500Y-64225000D01*
X122113704Y-64200496D01*
X122117304Y-64176227D01*
X122123265Y-64152429D01*
X122131530Y-64129329D01*
X122142020Y-64107151D01*
X122154633Y-64086107D01*
X122169247Y-64066402D01*
X122185723Y-64048223D01*
X122203902Y-64031747D01*
X122223607Y-64017133D01*
X122244651Y-64004520D01*
X122266829Y-63994030D01*
X122289929Y-63985765D01*
X122313727Y-63979804D01*
X122337996Y-63976204D01*
X122362500Y-63975000D01*
X123287500Y-63975000D01*
X123312004Y-63976204D01*
G37*
D12*
X135400000Y-77200000D03*
X138200000Y-77200000D03*
X138200000Y-80000000D03*
X135400000Y-80000000D03*
D13*
X136800000Y-78600000D03*
D12*
X135400000Y-67000000D03*
X138200000Y-67000000D03*
X138200000Y-69800000D03*
X135400000Y-69800000D03*
D13*
X136800000Y-68400000D03*
D10*
G36*
X128360779Y-78926144D02*
G01*
X128383834Y-78929563D01*
X128406443Y-78935227D01*
X128428387Y-78943079D01*
X128449457Y-78953044D01*
X128469448Y-78965026D01*
X128488168Y-78978910D01*
X128505438Y-78994562D01*
X128521090Y-79011832D01*
X128534974Y-79030552D01*
X128546956Y-79050543D01*
X128556921Y-79071613D01*
X128564773Y-79093557D01*
X128570437Y-79116166D01*
X128573856Y-79139221D01*
X128575000Y-79162500D01*
X128575000Y-79737500D01*
X128573856Y-79760779D01*
X128570437Y-79783834D01*
X128564773Y-79806443D01*
X128556921Y-79828387D01*
X128546956Y-79849457D01*
X128534974Y-79869448D01*
X128521090Y-79888168D01*
X128505438Y-79905438D01*
X128488168Y-79921090D01*
X128469448Y-79934974D01*
X128449457Y-79946956D01*
X128428387Y-79956921D01*
X128406443Y-79964773D01*
X128383834Y-79970437D01*
X128360779Y-79973856D01*
X128337500Y-79975000D01*
X127862500Y-79975000D01*
X127839221Y-79973856D01*
X127816166Y-79970437D01*
X127793557Y-79964773D01*
X127771613Y-79956921D01*
X127750543Y-79946956D01*
X127730552Y-79934974D01*
X127711832Y-79921090D01*
X127694562Y-79905438D01*
X127678910Y-79888168D01*
X127665026Y-79869448D01*
X127653044Y-79849457D01*
X127643079Y-79828387D01*
X127635227Y-79806443D01*
X127629563Y-79783834D01*
X127626144Y-79760779D01*
X127625000Y-79737500D01*
X127625000Y-79162500D01*
X127626144Y-79139221D01*
X127629563Y-79116166D01*
X127635227Y-79093557D01*
X127643079Y-79071613D01*
X127653044Y-79050543D01*
X127665026Y-79030552D01*
X127678910Y-79011832D01*
X127694562Y-78994562D01*
X127711832Y-78978910D01*
X127730552Y-78965026D01*
X127750543Y-78953044D01*
X127771613Y-78943079D01*
X127793557Y-78935227D01*
X127816166Y-78929563D01*
X127839221Y-78926144D01*
X127862500Y-78925000D01*
X128337500Y-78925000D01*
X128360779Y-78926144D01*
G37*
G36*
X128360779Y-77176144D02*
G01*
X128383834Y-77179563D01*
X128406443Y-77185227D01*
X128428387Y-77193079D01*
X128449457Y-77203044D01*
X128469448Y-77215026D01*
X128488168Y-77228910D01*
X128505438Y-77244562D01*
X128521090Y-77261832D01*
X128534974Y-77280552D01*
X128546956Y-77300543D01*
X128556921Y-77321613D01*
X128564773Y-77343557D01*
X128570437Y-77366166D01*
X128573856Y-77389221D01*
X128575000Y-77412500D01*
X128575000Y-77987500D01*
X128573856Y-78010779D01*
X128570437Y-78033834D01*
X128564773Y-78056443D01*
X128556921Y-78078387D01*
X128546956Y-78099457D01*
X128534974Y-78119448D01*
X128521090Y-78138168D01*
X128505438Y-78155438D01*
X128488168Y-78171090D01*
X128469448Y-78184974D01*
X128449457Y-78196956D01*
X128428387Y-78206921D01*
X128406443Y-78214773D01*
X128383834Y-78220437D01*
X128360779Y-78223856D01*
X128337500Y-78225000D01*
X127862500Y-78225000D01*
X127839221Y-78223856D01*
X127816166Y-78220437D01*
X127793557Y-78214773D01*
X127771613Y-78206921D01*
X127750543Y-78196956D01*
X127730552Y-78184974D01*
X127711832Y-78171090D01*
X127694562Y-78155438D01*
X127678910Y-78138168D01*
X127665026Y-78119448D01*
X127653044Y-78099457D01*
X127643079Y-78078387D01*
X127635227Y-78056443D01*
X127629563Y-78033834D01*
X127626144Y-78010779D01*
X127625000Y-77987500D01*
X127625000Y-77412500D01*
X127626144Y-77389221D01*
X127629563Y-77366166D01*
X127635227Y-77343557D01*
X127643079Y-77321613D01*
X127653044Y-77300543D01*
X127665026Y-77280552D01*
X127678910Y-77261832D01*
X127694562Y-77244562D01*
X127711832Y-77228910D01*
X127730552Y-77215026D01*
X127750543Y-77203044D01*
X127771613Y-77193079D01*
X127793557Y-77185227D01*
X127816166Y-77179563D01*
X127839221Y-77176144D01*
X127862500Y-77175000D01*
X128337500Y-77175000D01*
X128360779Y-77176144D01*
G37*
G36*
X130460779Y-74926144D02*
G01*
X130483834Y-74929563D01*
X130506443Y-74935227D01*
X130528387Y-74943079D01*
X130549457Y-74953044D01*
X130569448Y-74965026D01*
X130588168Y-74978910D01*
X130605438Y-74994562D01*
X130621090Y-75011832D01*
X130634974Y-75030552D01*
X130646956Y-75050543D01*
X130656921Y-75071613D01*
X130664773Y-75093557D01*
X130670437Y-75116166D01*
X130673856Y-75139221D01*
X130675000Y-75162500D01*
X130675000Y-75637500D01*
X130673856Y-75660779D01*
X130670437Y-75683834D01*
X130664773Y-75706443D01*
X130656921Y-75728387D01*
X130646956Y-75749457D01*
X130634974Y-75769448D01*
X130621090Y-75788168D01*
X130605438Y-75805438D01*
X130588168Y-75821090D01*
X130569448Y-75834974D01*
X130549457Y-75846956D01*
X130528387Y-75856921D01*
X130506443Y-75864773D01*
X130483834Y-75870437D01*
X130460779Y-75873856D01*
X130437500Y-75875000D01*
X129862500Y-75875000D01*
X129839221Y-75873856D01*
X129816166Y-75870437D01*
X129793557Y-75864773D01*
X129771613Y-75856921D01*
X129750543Y-75846956D01*
X129730552Y-75834974D01*
X129711832Y-75821090D01*
X129694562Y-75805438D01*
X129678910Y-75788168D01*
X129665026Y-75769448D01*
X129653044Y-75749457D01*
X129643079Y-75728387D01*
X129635227Y-75706443D01*
X129629563Y-75683834D01*
X129626144Y-75660779D01*
X129625000Y-75637500D01*
X129625000Y-75162500D01*
X129626144Y-75139221D01*
X129629563Y-75116166D01*
X129635227Y-75093557D01*
X129643079Y-75071613D01*
X129653044Y-75050543D01*
X129665026Y-75030552D01*
X129678910Y-75011832D01*
X129694562Y-74994562D01*
X129711832Y-74978910D01*
X129730552Y-74965026D01*
X129750543Y-74953044D01*
X129771613Y-74943079D01*
X129793557Y-74935227D01*
X129816166Y-74929563D01*
X129839221Y-74926144D01*
X129862500Y-74925000D01*
X130437500Y-74925000D01*
X130460779Y-74926144D01*
G37*
G36*
X132210779Y-74926144D02*
G01*
X132233834Y-74929563D01*
X132256443Y-74935227D01*
X132278387Y-74943079D01*
X132299457Y-74953044D01*
X132319448Y-74965026D01*
X132338168Y-74978910D01*
X132355438Y-74994562D01*
X132371090Y-75011832D01*
X132384974Y-75030552D01*
X132396956Y-75050543D01*
X132406921Y-75071613D01*
X132414773Y-75093557D01*
X132420437Y-75116166D01*
X132423856Y-75139221D01*
X132425000Y-75162500D01*
X132425000Y-75637500D01*
X132423856Y-75660779D01*
X132420437Y-75683834D01*
X132414773Y-75706443D01*
X132406921Y-75728387D01*
X132396956Y-75749457D01*
X132384974Y-75769448D01*
X132371090Y-75788168D01*
X132355438Y-75805438D01*
X132338168Y-75821090D01*
X132319448Y-75834974D01*
X132299457Y-75846956D01*
X132278387Y-75856921D01*
X132256443Y-75864773D01*
X132233834Y-75870437D01*
X132210779Y-75873856D01*
X132187500Y-75875000D01*
X131612500Y-75875000D01*
X131589221Y-75873856D01*
X131566166Y-75870437D01*
X131543557Y-75864773D01*
X131521613Y-75856921D01*
X131500543Y-75846956D01*
X131480552Y-75834974D01*
X131461832Y-75821090D01*
X131444562Y-75805438D01*
X131428910Y-75788168D01*
X131415026Y-75769448D01*
X131403044Y-75749457D01*
X131393079Y-75728387D01*
X131385227Y-75706443D01*
X131379563Y-75683834D01*
X131376144Y-75660779D01*
X131375000Y-75637500D01*
X131375000Y-75162500D01*
X131376144Y-75139221D01*
X131379563Y-75116166D01*
X131385227Y-75093557D01*
X131393079Y-75071613D01*
X131403044Y-75050543D01*
X131415026Y-75030552D01*
X131428910Y-75011832D01*
X131444562Y-74994562D01*
X131461832Y-74978910D01*
X131480552Y-74965026D01*
X131500543Y-74953044D01*
X131521613Y-74943079D01*
X131543557Y-74935227D01*
X131566166Y-74929563D01*
X131589221Y-74926144D01*
X131612500Y-74925000D01*
X132187500Y-74925000D01*
X132210779Y-74926144D01*
G37*
G36*
X134085779Y-68026144D02*
G01*
X134108834Y-68029563D01*
X134131443Y-68035227D01*
X134153387Y-68043079D01*
X134174457Y-68053044D01*
X134194448Y-68065026D01*
X134213168Y-68078910D01*
X134230438Y-68094562D01*
X134246090Y-68111832D01*
X134259974Y-68130552D01*
X134271956Y-68150543D01*
X134281921Y-68171613D01*
X134289773Y-68193557D01*
X134295437Y-68216166D01*
X134298856Y-68239221D01*
X134300000Y-68262500D01*
X134300000Y-68737500D01*
X134298856Y-68760779D01*
X134295437Y-68783834D01*
X134289773Y-68806443D01*
X134281921Y-68828387D01*
X134271956Y-68849457D01*
X134259974Y-68869448D01*
X134246090Y-68888168D01*
X134230438Y-68905438D01*
X134213168Y-68921090D01*
X134194448Y-68934974D01*
X134174457Y-68946956D01*
X134153387Y-68956921D01*
X134131443Y-68964773D01*
X134108834Y-68970437D01*
X134085779Y-68973856D01*
X134062500Y-68975000D01*
X133487500Y-68975000D01*
X133464221Y-68973856D01*
X133441166Y-68970437D01*
X133418557Y-68964773D01*
X133396613Y-68956921D01*
X133375543Y-68946956D01*
X133355552Y-68934974D01*
X133336832Y-68921090D01*
X133319562Y-68905438D01*
X133303910Y-68888168D01*
X133290026Y-68869448D01*
X133278044Y-68849457D01*
X133268079Y-68828387D01*
X133260227Y-68806443D01*
X133254563Y-68783834D01*
X133251144Y-68760779D01*
X133250000Y-68737500D01*
X133250000Y-68262500D01*
X133251144Y-68239221D01*
X133254563Y-68216166D01*
X133260227Y-68193557D01*
X133268079Y-68171613D01*
X133278044Y-68150543D01*
X133290026Y-68130552D01*
X133303910Y-68111832D01*
X133319562Y-68094562D01*
X133336832Y-68078910D01*
X133355552Y-68065026D01*
X133375543Y-68053044D01*
X133396613Y-68043079D01*
X133418557Y-68035227D01*
X133441166Y-68029563D01*
X133464221Y-68026144D01*
X133487500Y-68025000D01*
X134062500Y-68025000D01*
X134085779Y-68026144D01*
G37*
G36*
X132335779Y-68026144D02*
G01*
X132358834Y-68029563D01*
X132381443Y-68035227D01*
X132403387Y-68043079D01*
X132424457Y-68053044D01*
X132444448Y-68065026D01*
X132463168Y-68078910D01*
X132480438Y-68094562D01*
X132496090Y-68111832D01*
X132509974Y-68130552D01*
X132521956Y-68150543D01*
X132531921Y-68171613D01*
X132539773Y-68193557D01*
X132545437Y-68216166D01*
X132548856Y-68239221D01*
X132550000Y-68262500D01*
X132550000Y-68737500D01*
X132548856Y-68760779D01*
X132545437Y-68783834D01*
X132539773Y-68806443D01*
X132531921Y-68828387D01*
X132521956Y-68849457D01*
X132509974Y-68869448D01*
X132496090Y-68888168D01*
X132480438Y-68905438D01*
X132463168Y-68921090D01*
X132444448Y-68934974D01*
X132424457Y-68946956D01*
X132403387Y-68956921D01*
X132381443Y-68964773D01*
X132358834Y-68970437D01*
X132335779Y-68973856D01*
X132312500Y-68975000D01*
X131737500Y-68975000D01*
X131714221Y-68973856D01*
X131691166Y-68970437D01*
X131668557Y-68964773D01*
X131646613Y-68956921D01*
X131625543Y-68946956D01*
X131605552Y-68934974D01*
X131586832Y-68921090D01*
X131569562Y-68905438D01*
X131553910Y-68888168D01*
X131540026Y-68869448D01*
X131528044Y-68849457D01*
X131518079Y-68828387D01*
X131510227Y-68806443D01*
X131504563Y-68783834D01*
X131501144Y-68760779D01*
X131500000Y-68737500D01*
X131500000Y-68262500D01*
X131501144Y-68239221D01*
X131504563Y-68216166D01*
X131510227Y-68193557D01*
X131518079Y-68171613D01*
X131528044Y-68150543D01*
X131540026Y-68130552D01*
X131553910Y-68111832D01*
X131569562Y-68094562D01*
X131586832Y-68078910D01*
X131605552Y-68065026D01*
X131625543Y-68053044D01*
X131646613Y-68043079D01*
X131668557Y-68035227D01*
X131691166Y-68029563D01*
X131714221Y-68026144D01*
X131737500Y-68025000D01*
X132312500Y-68025000D01*
X132335779Y-68026144D01*
G37*
G36*
X126360779Y-78976144D02*
G01*
X126383834Y-78979563D01*
X126406443Y-78985227D01*
X126428387Y-78993079D01*
X126449457Y-79003044D01*
X126469448Y-79015026D01*
X126488168Y-79028910D01*
X126505438Y-79044562D01*
X126521090Y-79061832D01*
X126534974Y-79080552D01*
X126546956Y-79100543D01*
X126556921Y-79121613D01*
X126564773Y-79143557D01*
X126570437Y-79166166D01*
X126573856Y-79189221D01*
X126575000Y-79212500D01*
X126575000Y-79787500D01*
X126573856Y-79810779D01*
X126570437Y-79833834D01*
X126564773Y-79856443D01*
X126556921Y-79878387D01*
X126546956Y-79899457D01*
X126534974Y-79919448D01*
X126521090Y-79938168D01*
X126505438Y-79955438D01*
X126488168Y-79971090D01*
X126469448Y-79984974D01*
X126449457Y-79996956D01*
X126428387Y-80006921D01*
X126406443Y-80014773D01*
X126383834Y-80020437D01*
X126360779Y-80023856D01*
X126337500Y-80025000D01*
X125862500Y-80025000D01*
X125839221Y-80023856D01*
X125816166Y-80020437D01*
X125793557Y-80014773D01*
X125771613Y-80006921D01*
X125750543Y-79996956D01*
X125730552Y-79984974D01*
X125711832Y-79971090D01*
X125694562Y-79955438D01*
X125678910Y-79938168D01*
X125665026Y-79919448D01*
X125653044Y-79899457D01*
X125643079Y-79878387D01*
X125635227Y-79856443D01*
X125629563Y-79833834D01*
X125626144Y-79810779D01*
X125625000Y-79787500D01*
X125625000Y-79212500D01*
X125626144Y-79189221D01*
X125629563Y-79166166D01*
X125635227Y-79143557D01*
X125643079Y-79121613D01*
X125653044Y-79100543D01*
X125665026Y-79080552D01*
X125678910Y-79061832D01*
X125694562Y-79044562D01*
X125711832Y-79028910D01*
X125730552Y-79015026D01*
X125750543Y-79003044D01*
X125771613Y-78993079D01*
X125793557Y-78985227D01*
X125816166Y-78979563D01*
X125839221Y-78976144D01*
X125862500Y-78975000D01*
X126337500Y-78975000D01*
X126360779Y-78976144D01*
G37*
G36*
X126360779Y-77226144D02*
G01*
X126383834Y-77229563D01*
X126406443Y-77235227D01*
X126428387Y-77243079D01*
X126449457Y-77253044D01*
X126469448Y-77265026D01*
X126488168Y-77278910D01*
X126505438Y-77294562D01*
X126521090Y-77311832D01*
X126534974Y-77330552D01*
X126546956Y-77350543D01*
X126556921Y-77371613D01*
X126564773Y-77393557D01*
X126570437Y-77416166D01*
X126573856Y-77439221D01*
X126575000Y-77462500D01*
X126575000Y-78037500D01*
X126573856Y-78060779D01*
X126570437Y-78083834D01*
X126564773Y-78106443D01*
X126556921Y-78128387D01*
X126546956Y-78149457D01*
X126534974Y-78169448D01*
X126521090Y-78188168D01*
X126505438Y-78205438D01*
X126488168Y-78221090D01*
X126469448Y-78234974D01*
X126449457Y-78246956D01*
X126428387Y-78256921D01*
X126406443Y-78264773D01*
X126383834Y-78270437D01*
X126360779Y-78273856D01*
X126337500Y-78275000D01*
X125862500Y-78275000D01*
X125839221Y-78273856D01*
X125816166Y-78270437D01*
X125793557Y-78264773D01*
X125771613Y-78256921D01*
X125750543Y-78246956D01*
X125730552Y-78234974D01*
X125711832Y-78221090D01*
X125694562Y-78205438D01*
X125678910Y-78188168D01*
X125665026Y-78169448D01*
X125653044Y-78149457D01*
X125643079Y-78128387D01*
X125635227Y-78106443D01*
X125629563Y-78083834D01*
X125626144Y-78060779D01*
X125625000Y-78037500D01*
X125625000Y-77462500D01*
X125626144Y-77439221D01*
X125629563Y-77416166D01*
X125635227Y-77393557D01*
X125643079Y-77371613D01*
X125653044Y-77350543D01*
X125665026Y-77330552D01*
X125678910Y-77311832D01*
X125694562Y-77294562D01*
X125711832Y-77278910D01*
X125730552Y-77265026D01*
X125750543Y-77253044D01*
X125771613Y-77243079D01*
X125793557Y-77235227D01*
X125816166Y-77229563D01*
X125839221Y-77226144D01*
X125862500Y-77225000D01*
X126337500Y-77225000D01*
X126360779Y-77226144D01*
G37*
D11*
X132100000Y-78500000D03*
X130100000Y-79450000D03*
X130100000Y-77550000D03*
D14*
X131100000Y-71700000D03*
X132050000Y-73700000D03*
X130150000Y-73700000D03*
D10*
G36*
X123777691Y-72163553D02*
G01*
X123798926Y-72166703D01*
X123819750Y-72171919D01*
X123839962Y-72179151D01*
X123859368Y-72188330D01*
X123877781Y-72199366D01*
X123895024Y-72212154D01*
X123910930Y-72226570D01*
X123925346Y-72242476D01*
X123938134Y-72259719D01*
X123949170Y-72278132D01*
X123958349Y-72297538D01*
X123965581Y-72317750D01*
X123970797Y-72338574D01*
X123973947Y-72359809D01*
X123975000Y-72381250D01*
X123975000Y-72818750D01*
X123973947Y-72840191D01*
X123970797Y-72861426D01*
X123965581Y-72882250D01*
X123958349Y-72902462D01*
X123949170Y-72921868D01*
X123938134Y-72940281D01*
X123925346Y-72957524D01*
X123910930Y-72973430D01*
X123895024Y-72987846D01*
X123877781Y-73000634D01*
X123859368Y-73011670D01*
X123839962Y-73020849D01*
X123819750Y-73028081D01*
X123798926Y-73033297D01*
X123777691Y-73036447D01*
X123756250Y-73037500D01*
X123243750Y-73037500D01*
X123222309Y-73036447D01*
X123201074Y-73033297D01*
X123180250Y-73028081D01*
X123160038Y-73020849D01*
X123140632Y-73011670D01*
X123122219Y-73000634D01*
X123104976Y-72987846D01*
X123089070Y-72973430D01*
X123074654Y-72957524D01*
X123061866Y-72940281D01*
X123050830Y-72921868D01*
X123041651Y-72902462D01*
X123034419Y-72882250D01*
X123029203Y-72861426D01*
X123026053Y-72840191D01*
X123025000Y-72818750D01*
X123025000Y-72381250D01*
X123026053Y-72359809D01*
X123029203Y-72338574D01*
X123034419Y-72317750D01*
X123041651Y-72297538D01*
X123050830Y-72278132D01*
X123061866Y-72259719D01*
X123074654Y-72242476D01*
X123089070Y-72226570D01*
X123104976Y-72212154D01*
X123122219Y-72199366D01*
X123140632Y-72188330D01*
X123160038Y-72179151D01*
X123180250Y-72171919D01*
X123201074Y-72166703D01*
X123222309Y-72163553D01*
X123243750Y-72162500D01*
X123756250Y-72162500D01*
X123777691Y-72163553D01*
G37*
G36*
X123777691Y-73738553D02*
G01*
X123798926Y-73741703D01*
X123819750Y-73746919D01*
X123839962Y-73754151D01*
X123859368Y-73763330D01*
X123877781Y-73774366D01*
X123895024Y-73787154D01*
X123910930Y-73801570D01*
X123925346Y-73817476D01*
X123938134Y-73834719D01*
X123949170Y-73853132D01*
X123958349Y-73872538D01*
X123965581Y-73892750D01*
X123970797Y-73913574D01*
X123973947Y-73934809D01*
X123975000Y-73956250D01*
X123975000Y-74393750D01*
X123973947Y-74415191D01*
X123970797Y-74436426D01*
X123965581Y-74457250D01*
X123958349Y-74477462D01*
X123949170Y-74496868D01*
X123938134Y-74515281D01*
X123925346Y-74532524D01*
X123910930Y-74548430D01*
X123895024Y-74562846D01*
X123877781Y-74575634D01*
X123859368Y-74586670D01*
X123839962Y-74595849D01*
X123819750Y-74603081D01*
X123798926Y-74608297D01*
X123777691Y-74611447D01*
X123756250Y-74612500D01*
X123243750Y-74612500D01*
X123222309Y-74611447D01*
X123201074Y-74608297D01*
X123180250Y-74603081D01*
X123160038Y-74595849D01*
X123140632Y-74586670D01*
X123122219Y-74575634D01*
X123104976Y-74562846D01*
X123089070Y-74548430D01*
X123074654Y-74532524D01*
X123061866Y-74515281D01*
X123050830Y-74496868D01*
X123041651Y-74477462D01*
X123034419Y-74457250D01*
X123029203Y-74436426D01*
X123026053Y-74415191D01*
X123025000Y-74393750D01*
X123025000Y-73956250D01*
X123026053Y-73934809D01*
X123029203Y-73913574D01*
X123034419Y-73892750D01*
X123041651Y-73872538D01*
X123050830Y-73853132D01*
X123061866Y-73834719D01*
X123074654Y-73817476D01*
X123089070Y-73801570D01*
X123104976Y-73787154D01*
X123122219Y-73774366D01*
X123140632Y-73763330D01*
X123160038Y-73754151D01*
X123180250Y-73746919D01*
X123201074Y-73741703D01*
X123222309Y-73738553D01*
X123243750Y-73737500D01*
X123756250Y-73737500D01*
X123777691Y-73738553D01*
G37*
G36*
X120824504Y-71238704D02*
G01*
X120848773Y-71242304D01*
X120872571Y-71248265D01*
X120895671Y-71256530D01*
X120917849Y-71267020D01*
X120938893Y-71279633D01*
X120958598Y-71294247D01*
X120976777Y-71310723D01*
X120993253Y-71328902D01*
X121007867Y-71348607D01*
X121020480Y-71369651D01*
X121030970Y-71391829D01*
X121039235Y-71414929D01*
X121045196Y-71438727D01*
X121048796Y-71462996D01*
X121050000Y-71487500D01*
X121050000Y-72312500D01*
X121048796Y-72337004D01*
X121045196Y-72361273D01*
X121039235Y-72385071D01*
X121030970Y-72408171D01*
X121020480Y-72430349D01*
X121007867Y-72451393D01*
X120993253Y-72471098D01*
X120976777Y-72489277D01*
X120958598Y-72505753D01*
X120938893Y-72520367D01*
X120917849Y-72532980D01*
X120895671Y-72543470D01*
X120872571Y-72551735D01*
X120848773Y-72557696D01*
X120824504Y-72561296D01*
X120800000Y-72562500D01*
X120000000Y-72562500D01*
X119975496Y-72561296D01*
X119951227Y-72557696D01*
X119927429Y-72551735D01*
X119904329Y-72543470D01*
X119882151Y-72532980D01*
X119861107Y-72520367D01*
X119841402Y-72505753D01*
X119823223Y-72489277D01*
X119806747Y-72471098D01*
X119792133Y-72451393D01*
X119779520Y-72430349D01*
X119769030Y-72408171D01*
X119760765Y-72385071D01*
X119754804Y-72361273D01*
X119751204Y-72337004D01*
X119750000Y-72312500D01*
X119750000Y-71487500D01*
X119751204Y-71462996D01*
X119754804Y-71438727D01*
X119760765Y-71414929D01*
X119769030Y-71391829D01*
X119779520Y-71369651D01*
X119792133Y-71348607D01*
X119806747Y-71328902D01*
X119823223Y-71310723D01*
X119841402Y-71294247D01*
X119861107Y-71279633D01*
X119882151Y-71267020D01*
X119904329Y-71256530D01*
X119927429Y-71248265D01*
X119951227Y-71242304D01*
X119975496Y-71238704D01*
X120000000Y-71237500D01*
X120800000Y-71237500D01*
X120824504Y-71238704D01*
G37*
G36*
X120824504Y-73163704D02*
G01*
X120848773Y-73167304D01*
X120872571Y-73173265D01*
X120895671Y-73181530D01*
X120917849Y-73192020D01*
X120938893Y-73204633D01*
X120958598Y-73219247D01*
X120976777Y-73235723D01*
X120993253Y-73253902D01*
X121007867Y-73273607D01*
X121020480Y-73294651D01*
X121030970Y-73316829D01*
X121039235Y-73339929D01*
X121045196Y-73363727D01*
X121048796Y-73387996D01*
X121050000Y-73412500D01*
X121050000Y-74237500D01*
X121048796Y-74262004D01*
X121045196Y-74286273D01*
X121039235Y-74310071D01*
X121030970Y-74333171D01*
X121020480Y-74355349D01*
X121007867Y-74376393D01*
X120993253Y-74396098D01*
X120976777Y-74414277D01*
X120958598Y-74430753D01*
X120938893Y-74445367D01*
X120917849Y-74457980D01*
X120895671Y-74468470D01*
X120872571Y-74476735D01*
X120848773Y-74482696D01*
X120824504Y-74486296D01*
X120800000Y-74487500D01*
X120000000Y-74487500D01*
X119975496Y-74486296D01*
X119951227Y-74482696D01*
X119927429Y-74476735D01*
X119904329Y-74468470D01*
X119882151Y-74457980D01*
X119861107Y-74445367D01*
X119841402Y-74430753D01*
X119823223Y-74414277D01*
X119806747Y-74396098D01*
X119792133Y-74376393D01*
X119779520Y-74355349D01*
X119769030Y-74333171D01*
X119760765Y-74310071D01*
X119754804Y-74286273D01*
X119751204Y-74262004D01*
X119750000Y-74237500D01*
X119750000Y-73412500D01*
X119751204Y-73387996D01*
X119754804Y-73363727D01*
X119760765Y-73339929D01*
X119769030Y-73316829D01*
X119779520Y-73294651D01*
X119792133Y-73273607D01*
X119806747Y-73253902D01*
X119823223Y-73235723D01*
X119841402Y-73219247D01*
X119861107Y-73204633D01*
X119882151Y-73192020D01*
X119904329Y-73181530D01*
X119927429Y-73173265D01*
X119951227Y-73167304D01*
X119975496Y-73163704D01*
X120000000Y-73162500D01*
X120800000Y-73162500D01*
X120824504Y-73163704D01*
G37*
M02*
