G04 #@! TF.GenerationSoftware,KiCad,Pcbnew,(5.1.5-0)*
G04 #@! TF.CreationDate,2021-11-01T14:26:59-06:00*
G04 #@! TF.ProjectId,2ch-ads,3263682d-6164-4732-9e6b-696361645f70,rev?*
G04 #@! TF.SameCoordinates,Original*
G04 #@! TF.FileFunction,Legend,Top*
G04 #@! TF.FilePolarity,Positive*
%FSLAX46Y46*%
G04 Gerber Fmt 4.6, Leading zero omitted, Abs format (unit mm)*
G04 Created by KiCad (PCBNEW (5.1.5-0)) date 2021-11-01 14:26:59*
%MOMM*%
%LPD*%
G04 APERTURE LIST*
%ADD10C,0.150000*%
%ADD11C,0.120000*%
G04 APERTURE END LIST*
D10*
X103071428Y-123452380D02*
X103071428Y-122928571D01*
X103023809Y-122833333D01*
X102928571Y-122785714D01*
X102738095Y-122785714D01*
X102642857Y-122833333D01*
X103071428Y-123404761D02*
X102976190Y-123452380D01*
X102738095Y-123452380D01*
X102642857Y-123404761D01*
X102595238Y-123309523D01*
X102595238Y-123214285D01*
X102642857Y-123119047D01*
X102738095Y-123071428D01*
X102976190Y-123071428D01*
X103071428Y-123023809D01*
X103976190Y-123452380D02*
X103976190Y-122452380D01*
X103976190Y-123404761D02*
X103880952Y-123452380D01*
X103690476Y-123452380D01*
X103595238Y-123404761D01*
X103547619Y-123357142D01*
X103499999Y-123261904D01*
X103499999Y-122976190D01*
X103547619Y-122880952D01*
X103595238Y-122833333D01*
X103690476Y-122785714D01*
X103880952Y-122785714D01*
X103976190Y-122833333D01*
X104404761Y-123404761D02*
X104499999Y-123452380D01*
X104690476Y-123452380D01*
X104785714Y-123404761D01*
X104833333Y-123309523D01*
X104833333Y-123261904D01*
X104785714Y-123166666D01*
X104690476Y-123119047D01*
X104547619Y-123119047D01*
X104452380Y-123071428D01*
X104404761Y-122976190D01*
X104404761Y-122928571D01*
X104452380Y-122833333D01*
X104547619Y-122785714D01*
X104690476Y-122785714D01*
X104785714Y-122833333D01*
X105785714Y-123452380D02*
X105214285Y-123452380D01*
X105499999Y-123452380D02*
X105499999Y-122452380D01*
X105404761Y-122595238D01*
X105309523Y-122690476D01*
X105214285Y-122738095D01*
X106738095Y-123452380D02*
X106166666Y-123452380D01*
X106452380Y-123452380D02*
X106452380Y-122452380D01*
X106357142Y-122595238D01*
X106261904Y-122690476D01*
X106166666Y-122738095D01*
X107690476Y-123452380D02*
X107119047Y-123452380D01*
X107404761Y-123452380D02*
X107404761Y-122452380D01*
X107309523Y-122595238D01*
X107214285Y-122690476D01*
X107119047Y-122738095D01*
X108071428Y-122547619D02*
X108119047Y-122500000D01*
X108214285Y-122452380D01*
X108452380Y-122452380D01*
X108547619Y-122500000D01*
X108595238Y-122547619D01*
X108642857Y-122642857D01*
X108642857Y-122738095D01*
X108595238Y-122880952D01*
X108023809Y-123452380D01*
X108642857Y-123452380D01*
X109642857Y-123357142D02*
X109595238Y-123404761D01*
X109452380Y-123452380D01*
X109357142Y-123452380D01*
X109214285Y-123404761D01*
X109119047Y-123309523D01*
X109071428Y-123214285D01*
X109023809Y-123023809D01*
X109023809Y-122880952D01*
X109071428Y-122690476D01*
X109119047Y-122595238D01*
X109214285Y-122500000D01*
X109357142Y-122452380D01*
X109452380Y-122452380D01*
X109595238Y-122500000D01*
X109642857Y-122547619D01*
X110261904Y-122452380D02*
X110357142Y-122452380D01*
X110452380Y-122500000D01*
X110499999Y-122547619D01*
X110547619Y-122642857D01*
X110595238Y-122833333D01*
X110595238Y-123071428D01*
X110547619Y-123261904D01*
X110499999Y-123357142D01*
X110452380Y-123404761D01*
X110357142Y-123452380D01*
X110261904Y-123452380D01*
X110166666Y-123404761D01*
X110119047Y-123357142D01*
X110071428Y-123261904D01*
X110023809Y-123071428D01*
X110023809Y-122833333D01*
X110071428Y-122642857D01*
X110119047Y-122547619D01*
X110166666Y-122500000D01*
X110261904Y-122452380D01*
X111452380Y-122785714D02*
X111452380Y-123452380D01*
X111214285Y-122404761D02*
X110976190Y-123119047D01*
X111595238Y-123119047D01*
X112738095Y-123452380D02*
X112738095Y-122785714D01*
X112738095Y-122976190D02*
X112785714Y-122880952D01*
X112833333Y-122833333D01*
X112928571Y-122785714D01*
X113023809Y-122785714D01*
X113738095Y-123404761D02*
X113642857Y-123452380D01*
X113452380Y-123452380D01*
X113357142Y-123404761D01*
X113309523Y-123309523D01*
X113309523Y-122928571D01*
X113357142Y-122833333D01*
X113452380Y-122785714D01*
X113642857Y-122785714D01*
X113738095Y-122833333D01*
X113785714Y-122928571D01*
X113785714Y-123023809D01*
X113309523Y-123119047D01*
X114642857Y-123452380D02*
X114642857Y-122928571D01*
X114595238Y-122833333D01*
X114499999Y-122785714D01*
X114309523Y-122785714D01*
X114214285Y-122833333D01*
X114642857Y-123404761D02*
X114547619Y-123452380D01*
X114309523Y-123452380D01*
X114214285Y-123404761D01*
X114166666Y-123309523D01*
X114166666Y-123214285D01*
X114214285Y-123119047D01*
X114309523Y-123071428D01*
X114547619Y-123071428D01*
X114642857Y-123023809D01*
X115547619Y-123452380D02*
X115547619Y-122452380D01*
X115547619Y-123404761D02*
X115452380Y-123452380D01*
X115261904Y-123452380D01*
X115166666Y-123404761D01*
X115119047Y-123357142D01*
X115071428Y-123261904D01*
X115071428Y-122976190D01*
X115119047Y-122880952D01*
X115166666Y-122833333D01*
X115261904Y-122785714D01*
X115452380Y-122785714D01*
X115547619Y-122833333D01*
X116166666Y-123452380D02*
X116071428Y-123404761D01*
X116023809Y-123357142D01*
X115976190Y-123261904D01*
X115976190Y-122976190D01*
X116023809Y-122880952D01*
X116071428Y-122833333D01*
X116166666Y-122785714D01*
X116309523Y-122785714D01*
X116404761Y-122833333D01*
X116452380Y-122880952D01*
X116499999Y-122976190D01*
X116499999Y-123261904D01*
X116452380Y-123357142D01*
X116404761Y-123404761D01*
X116309523Y-123452380D01*
X116166666Y-123452380D01*
X117357142Y-122785714D02*
X117357142Y-123452380D01*
X116928571Y-122785714D02*
X116928571Y-123309523D01*
X116976190Y-123404761D01*
X117071428Y-123452380D01*
X117214285Y-123452380D01*
X117309523Y-123404761D01*
X117357142Y-123357142D01*
X117690476Y-122785714D02*
X118071428Y-122785714D01*
X117833333Y-122452380D02*
X117833333Y-123309523D01*
X117880952Y-123404761D01*
X117976190Y-123452380D01*
X118071428Y-123452380D01*
X119880952Y-122404761D02*
X119023809Y-123690476D01*
X121404761Y-123452380D02*
X121404761Y-122452380D01*
X121404761Y-123404761D02*
X121309523Y-123452380D01*
X121119047Y-123452380D01*
X121023809Y-123404761D01*
X120976190Y-123357142D01*
X120928571Y-123261904D01*
X120928571Y-122976190D01*
X120976190Y-122880952D01*
X121023809Y-122833333D01*
X121119047Y-122785714D01*
X121309523Y-122785714D01*
X121404761Y-122833333D01*
X122309523Y-122785714D02*
X122309523Y-123452380D01*
X121880952Y-122785714D02*
X121880952Y-123309523D01*
X121928571Y-123404761D01*
X122023809Y-123452380D01*
X122166666Y-123452380D01*
X122261904Y-123404761D01*
X122309523Y-123357142D01*
X123214285Y-123452380D02*
X123214285Y-122928571D01*
X123166666Y-122833333D01*
X123071428Y-122785714D01*
X122880952Y-122785714D01*
X122785714Y-122833333D01*
X123214285Y-123404761D02*
X123119047Y-123452380D01*
X122880952Y-123452380D01*
X122785714Y-123404761D01*
X122738095Y-123309523D01*
X122738095Y-123214285D01*
X122785714Y-123119047D01*
X122880952Y-123071428D01*
X123119047Y-123071428D01*
X123214285Y-123023809D01*
X123833333Y-123452380D02*
X123738095Y-123404761D01*
X123690476Y-123309523D01*
X123690476Y-122452380D01*
X125499999Y-123452380D02*
X124928571Y-123452380D01*
X125214285Y-123452380D02*
X125214285Y-122452380D01*
X125119047Y-122595238D01*
X125023809Y-122690476D01*
X124928571Y-122738095D01*
X126452380Y-123452380D02*
X125880952Y-123452380D01*
X126166666Y-123452380D02*
X126166666Y-122452380D01*
X126071428Y-122595238D01*
X125976190Y-122690476D01*
X125880952Y-122738095D01*
X127595238Y-122404761D02*
X126738095Y-123690476D01*
X127880952Y-122547619D02*
X127928571Y-122500000D01*
X128023809Y-122452380D01*
X128261904Y-122452380D01*
X128357142Y-122500000D01*
X128404761Y-122547619D01*
X128452380Y-122642857D01*
X128452380Y-122738095D01*
X128404761Y-122880952D01*
X127833333Y-123452380D01*
X128452380Y-123452380D01*
X129404761Y-123452380D02*
X128833333Y-123452380D01*
X129119047Y-123452380D02*
X129119047Y-122452380D01*
X129023809Y-122595238D01*
X128928571Y-122690476D01*
X128833333Y-122738095D01*
D11*
X121411267Y-82220000D02*
X121068733Y-82220000D01*
X121411267Y-83240000D02*
X121068733Y-83240000D01*
X115039564Y-94940000D02*
X113835436Y-94940000D01*
X115039564Y-96760000D02*
X113835436Y-96760000D01*
X107460000Y-96221267D02*
X107460000Y-95878733D01*
X106440000Y-96221267D02*
X106440000Y-95878733D01*
X122396267Y-100540000D02*
X122053733Y-100540000D01*
X122396267Y-101560000D02*
X122053733Y-101560000D01*
X116464564Y-102240000D02*
X115260436Y-102240000D01*
X116464564Y-104060000D02*
X115260436Y-104060000D01*
X107460000Y-105321267D02*
X107460000Y-104978733D01*
X106440000Y-105321267D02*
X106440000Y-104978733D01*
X112450000Y-97250000D02*
X113850000Y-97250000D01*
X114550000Y-97950000D02*
X114550000Y-98550000D01*
X113850000Y-99250000D02*
X112450000Y-99250000D01*
X111750000Y-98550000D02*
X111750000Y-97950000D01*
X111750000Y-97950000D02*
G75*
G02X112450000Y-97250000I700000J0D01*
G01*
X112450000Y-99250000D02*
G75*
G02X111750000Y-98550000I0J700000D01*
G01*
X114550000Y-98550000D02*
G75*
G02X113850000Y-99250000I-700000J0D01*
G01*
X113850000Y-97250000D02*
G75*
G02X114550000Y-97950000I0J-700000D01*
G01*
X115300000Y-99750000D02*
X116700000Y-99750000D01*
X117400000Y-100450000D02*
X117400000Y-101050000D01*
X116700000Y-101750000D02*
X115300000Y-101750000D01*
X114600000Y-101050000D02*
X114600000Y-100450000D01*
X114600000Y-100450000D02*
G75*
G02X115300000Y-99750000I700000J0D01*
G01*
X115300000Y-101750000D02*
G75*
G02X114600000Y-101050000I0J700000D01*
G01*
X117400000Y-101050000D02*
G75*
G02X116700000Y-101750000I-700000J0D01*
G01*
X116700000Y-99750000D02*
G75*
G02X117400000Y-100450000I0J-700000D01*
G01*
X121396267Y-83940000D02*
X121053733Y-83940000D01*
X121396267Y-84960000D02*
X121053733Y-84960000D01*
X121796267Y-102440000D02*
X121453733Y-102440000D01*
X121796267Y-103460000D02*
X121453733Y-103460000D01*
X109946267Y-99740000D02*
X109603733Y-99740000D01*
X109946267Y-100760000D02*
X109603733Y-100760000D01*
X140150000Y-83010000D02*
X143600000Y-83010000D01*
X140150000Y-83010000D02*
X138200000Y-83010000D01*
X140150000Y-77890000D02*
X142100000Y-77890000D01*
X140150000Y-77890000D02*
X138200000Y-77890000D01*
X135660000Y-82496267D02*
X135660000Y-82153733D01*
X134640000Y-82496267D02*
X134640000Y-82153733D01*
X132660000Y-82496267D02*
X132660000Y-82153733D01*
X131640000Y-82496267D02*
X131640000Y-82153733D01*
X154260000Y-81096267D02*
X154260000Y-80753733D01*
X153240000Y-81096267D02*
X153240000Y-80753733D01*
X147060000Y-80296267D02*
X147060000Y-79953733D01*
X146040000Y-80296267D02*
X146040000Y-79953733D01*
X152160000Y-78310000D02*
X152160000Y-82190000D01*
X149040000Y-83360000D02*
X149040000Y-82310000D01*
X150190000Y-83360000D02*
X149040000Y-83360000D01*
X149040000Y-78190000D02*
X148050000Y-78190000D01*
X149040000Y-77140000D02*
X149040000Y-78190000D01*
X150190000Y-77140000D02*
X149040000Y-77140000D01*
D10*
X121950000Y-86375000D02*
X121950000Y-92350000D01*
X116425000Y-87950000D02*
X116425000Y-92350000D01*
X121750000Y-104675000D02*
X121750000Y-110650000D01*
X116225000Y-106250000D02*
X116225000Y-110650000D01*
D11*
X138196267Y-83940000D02*
X137853733Y-83940000D01*
X138196267Y-84960000D02*
X137853733Y-84960000D01*
X143103733Y-84960000D02*
X143446267Y-84960000D01*
X143103733Y-83940000D02*
X143446267Y-83940000D01*
X116828733Y-98960000D02*
X117171267Y-98960000D01*
X116828733Y-97940000D02*
X117171267Y-97940000D01*
X120753733Y-95960000D02*
X121096267Y-95960000D01*
X120753733Y-94940000D02*
X121096267Y-94940000D01*
X115860000Y-93146267D02*
X115860000Y-92803733D01*
X114840000Y-93146267D02*
X114840000Y-92803733D01*
X113940000Y-89303733D02*
X113940000Y-89646267D01*
X114960000Y-89303733D02*
X114960000Y-89646267D01*
X112240000Y-91803733D02*
X112240000Y-92146267D01*
X113260000Y-91803733D02*
X113260000Y-92146267D01*
X112240000Y-87103733D02*
X112240000Y-87446267D01*
X113260000Y-87103733D02*
X113260000Y-87446267D01*
X117403733Y-116260000D02*
X117746267Y-116260000D01*
X117403733Y-115240000D02*
X117746267Y-115240000D01*
X120403733Y-114060000D02*
X120746267Y-114060000D01*
X120403733Y-113040000D02*
X120746267Y-113040000D01*
X115660000Y-111446267D02*
X115660000Y-111103733D01*
X114640000Y-111446267D02*
X114640000Y-111103733D01*
X113740000Y-107603733D02*
X113740000Y-107946267D01*
X114760000Y-107603733D02*
X114760000Y-107946267D01*
X112040000Y-110103733D02*
X112040000Y-110446267D01*
X113060000Y-110103733D02*
X113060000Y-110446267D01*
X112040000Y-105403733D02*
X112040000Y-105746267D01*
X113060000Y-105403733D02*
X113060000Y-105746267D01*
X152302500Y-109760000D02*
X156512500Y-109760000D01*
X152302500Y-106740000D02*
X152302500Y-109760000D01*
X156512500Y-106740000D02*
X152302500Y-106740000D01*
X139570000Y-121620000D02*
X138330000Y-121620000D01*
X139570000Y-117880000D02*
X138330000Y-117880000D01*
X137080000Y-120370000D02*
X137080000Y-119130000D01*
X140820000Y-120370000D02*
X140820000Y-119130000D01*
X166746267Y-89640000D02*
X166403733Y-89640000D01*
X166746267Y-90660000D02*
X166403733Y-90660000D01*
X166621267Y-87840000D02*
X166278733Y-87840000D01*
X166621267Y-88860000D02*
X166278733Y-88860000D01*
X137950000Y-116450000D02*
X137950000Y-113650000D01*
X137950000Y-113650000D02*
X139950000Y-113650000D01*
X139950000Y-113650000D02*
X139950000Y-116450000D01*
X139950000Y-116450000D02*
X137950000Y-116450000D01*
X138650000Y-110550000D02*
X141450000Y-110550000D01*
X141450000Y-110550000D02*
X141450000Y-112550000D01*
X141450000Y-112550000D02*
X138650000Y-112550000D01*
X138650000Y-112550000D02*
X138650000Y-110550000D01*
X109700000Y-83750000D02*
X108460000Y-83750000D01*
X109700000Y-80010000D02*
X108460000Y-80010000D01*
X107210000Y-82500000D02*
X107210000Y-81260000D01*
X110950000Y-82500000D02*
X110950000Y-81260000D01*
X110070000Y-118320000D02*
X108830000Y-118320000D01*
X110070000Y-114580000D02*
X108830000Y-114580000D01*
X107580000Y-117070000D02*
X107580000Y-115830000D01*
X111320000Y-117070000D02*
X111320000Y-115830000D01*
X162421267Y-98940000D02*
X162078733Y-98940000D01*
X162421267Y-99960000D02*
X162078733Y-99960000D01*
X166453733Y-100260000D02*
X166796267Y-100260000D01*
X166453733Y-99240000D02*
X166796267Y-99240000D01*
X163750000Y-98310000D02*
X167200000Y-98310000D01*
X163750000Y-98310000D02*
X161800000Y-98310000D01*
X163750000Y-93190000D02*
X165700000Y-93190000D01*
X163750000Y-93190000D02*
X161800000Y-93190000D01*
X144950000Y-111810000D02*
X147400000Y-111810000D01*
X146750000Y-108590000D02*
X144950000Y-108590000D01*
X144850000Y-116470000D02*
X147300000Y-116470000D01*
X146650000Y-113250000D02*
X144850000Y-113250000D01*
X154546267Y-111240000D02*
X154203733Y-111240000D01*
X154546267Y-112260000D02*
X154203733Y-112260000D01*
X165352064Y-106390000D02*
X164147936Y-106390000D01*
X165352064Y-109110000D02*
X164147936Y-109110000D01*
X171710000Y-99490000D02*
X172860000Y-99490000D01*
X172860000Y-99490000D02*
X172860000Y-98440000D01*
X172860000Y-98440000D02*
X173850000Y-98440000D01*
X171710000Y-93270000D02*
X172860000Y-93270000D01*
X172860000Y-93270000D02*
X172860000Y-94320000D01*
X169740000Y-98320000D02*
X169740000Y-94440000D01*
X171790000Y-85140000D02*
X170640000Y-85140000D01*
X170640000Y-85140000D02*
X170640000Y-86190000D01*
X170640000Y-86190000D02*
X169650000Y-86190000D01*
X171790000Y-91360000D02*
X170640000Y-91360000D01*
X170640000Y-91360000D02*
X170640000Y-90310000D01*
X173760000Y-86310000D02*
X173760000Y-90190000D01*
X143260000Y-110546267D02*
X143260000Y-110203733D01*
X142240000Y-110546267D02*
X142240000Y-110203733D01*
X143260000Y-114921267D02*
X143260000Y-114578733D01*
X142240000Y-114921267D02*
X142240000Y-114578733D01*
X150260000Y-114796267D02*
X150260000Y-114453733D01*
X149240000Y-114796267D02*
X149240000Y-114453733D01*
X150260000Y-110296267D02*
X150260000Y-109953733D01*
X149240000Y-110296267D02*
X149240000Y-109953733D01*
X167660000Y-112864564D02*
X167660000Y-111660436D01*
X165840000Y-112864564D02*
X165840000Y-111660436D01*
X164147936Y-105660000D02*
X165352064Y-105660000D01*
X164147936Y-103840000D02*
X165352064Y-103840000D01*
X159185000Y-97971267D02*
X159185000Y-97628733D01*
X158165000Y-97971267D02*
X158165000Y-97628733D01*
X157578733Y-95260000D02*
X157921267Y-95260000D01*
X157578733Y-94240000D02*
X157921267Y-94240000D01*
X168300000Y-103480000D02*
X168300000Y-104680000D01*
X169500000Y-103480000D02*
X168300000Y-103480000D01*
X174840000Y-115450000D02*
X168500000Y-115450000D01*
X168500000Y-103680000D02*
X168500000Y-115450000D01*
X174840000Y-103680000D02*
X168500000Y-103680000D01*
X174840000Y-103680000D02*
X174840000Y-115450000D01*
X155110000Y-116230000D02*
X153650000Y-116230000D01*
X155110000Y-113070000D02*
X152950000Y-113070000D01*
X155110000Y-113070000D02*
X155110000Y-114000000D01*
X155110000Y-116230000D02*
X155110000Y-115300000D01*
X161050000Y-117000000D02*
X159650000Y-117000000D01*
X158950000Y-116300000D02*
X158950000Y-115700000D01*
X159650000Y-115000000D02*
X161050000Y-115000000D01*
X161750000Y-115700000D02*
X161750000Y-116300000D01*
X161750000Y-116300000D02*
G75*
G02X161050000Y-117000000I-700000J0D01*
G01*
X161050000Y-115000000D02*
G75*
G02X161750000Y-115700000I0J-700000D01*
G01*
X158950000Y-115700000D02*
G75*
G02X159650000Y-115000000I700000J0D01*
G01*
X159650000Y-117000000D02*
G75*
G02X158950000Y-116300000I0J700000D01*
G01*
D10*
X153950000Y-87750000D02*
X154450000Y-87750000D01*
X154450000Y-87850000D02*
X153950000Y-87850000D01*
X154450000Y-87650000D02*
X154450000Y-87850000D01*
X153950000Y-87650000D02*
X154450000Y-87650000D01*
X158050000Y-86450000D02*
X158050000Y-86150000D01*
X158150000Y-86150000D02*
X157950000Y-86150000D01*
X158150000Y-86450000D02*
X158150000Y-86150000D01*
X157950000Y-86450000D02*
X158150000Y-86450000D01*
X155450000Y-90200000D02*
X155450000Y-90700000D01*
X156750000Y-90200000D02*
X156750000Y-90700000D01*
X155450000Y-84800000D02*
X155450000Y-85300000D01*
X156750000Y-84800000D02*
X156750000Y-85300000D01*
X157450000Y-88250000D02*
X157950000Y-88250000D01*
X157450000Y-90200000D02*
X157450000Y-88250000D01*
X153950000Y-90200000D02*
X157450000Y-90200000D01*
X153950000Y-85300000D02*
X153950000Y-90200000D01*
X157450000Y-85300000D02*
X153950000Y-85300000D01*
X157450000Y-87250000D02*
X157450000Y-85300000D01*
X157950000Y-87250000D02*
X157450000Y-87250000D01*
X153450000Y-90700000D02*
X153450000Y-84800000D01*
X157950000Y-90700000D02*
X153450000Y-90700000D01*
X157950000Y-84800000D02*
X157950000Y-90700000D01*
X153450000Y-84800000D02*
X157950000Y-84800000D01*
X156650000Y-83550000D02*
X155850000Y-83550000D01*
X155850000Y-83550000D02*
X156250000Y-83550000D01*
X156250000Y-83550000D02*
X156250000Y-83750000D01*
X156250000Y-83750000D02*
X156250000Y-83150000D01*
X156250000Y-83150000D02*
X156250000Y-83950000D01*
X146850000Y-87800000D02*
X147350000Y-87800000D01*
X147350000Y-87900000D02*
X146850000Y-87900000D01*
X147350000Y-87700000D02*
X147350000Y-87900000D01*
X146850000Y-87700000D02*
X147350000Y-87700000D01*
X150950000Y-86500000D02*
X150950000Y-86200000D01*
X151050000Y-86200000D02*
X150850000Y-86200000D01*
X151050000Y-86500000D02*
X151050000Y-86200000D01*
X150850000Y-86500000D02*
X151050000Y-86500000D01*
X148350000Y-90250000D02*
X148350000Y-90750000D01*
X149650000Y-90250000D02*
X149650000Y-90750000D01*
X148350000Y-84850000D02*
X148350000Y-85350000D01*
X149650000Y-84850000D02*
X149650000Y-85350000D01*
X150350000Y-88300000D02*
X150850000Y-88300000D01*
X150350000Y-90250000D02*
X150350000Y-88300000D01*
X146850000Y-90250000D02*
X150350000Y-90250000D01*
X146850000Y-85350000D02*
X146850000Y-90250000D01*
X150350000Y-85350000D02*
X146850000Y-85350000D01*
X150350000Y-87300000D02*
X150350000Y-85350000D01*
X150850000Y-87300000D02*
X150350000Y-87300000D01*
X146350000Y-90750000D02*
X146350000Y-84850000D01*
X150850000Y-90750000D02*
X146350000Y-90750000D01*
X150850000Y-84850000D02*
X150850000Y-90750000D01*
X146350000Y-84850000D02*
X150850000Y-84850000D01*
X149550000Y-83600000D02*
X148750000Y-83600000D01*
X148750000Y-83600000D02*
X149150000Y-83600000D01*
X149150000Y-83600000D02*
X149150000Y-83800000D01*
X149150000Y-83800000D02*
X149150000Y-83200000D01*
X149150000Y-83200000D02*
X149150000Y-84000000D01*
D11*
X159900000Y-105250000D02*
X159900000Y-102700000D01*
X161600000Y-105250000D02*
X161600000Y-102700000D01*
X159900000Y-105250000D02*
X161600000Y-105250000D01*
X151550000Y-95500000D02*
X149000000Y-95500000D01*
X151550000Y-93800000D02*
X149000000Y-93800000D01*
X151550000Y-95500000D02*
X151550000Y-93800000D01*
X160290000Y-112478733D02*
X160290000Y-112821267D01*
X161310000Y-112478733D02*
X161310000Y-112821267D01*
X158490000Y-112478733D02*
X158490000Y-112821267D01*
X159510000Y-112478733D02*
X159510000Y-112821267D01*
X120986252Y-97940000D02*
X120463748Y-97940000D01*
X120986252Y-99360000D02*
X120463748Y-99360000D01*
X121636252Y-115265000D02*
X121113748Y-115265000D01*
X121636252Y-116685000D02*
X121113748Y-116685000D01*
X110139267Y-90490000D02*
X109796733Y-90490000D01*
X110139267Y-91510000D02*
X109796733Y-91510000D01*
X110107267Y-87740000D02*
X109764733Y-87740000D01*
X110107267Y-88760000D02*
X109764733Y-88760000D01*
X109796733Y-96010000D02*
X110139267Y-96010000D01*
X109796733Y-94990000D02*
X110139267Y-94990000D01*
X109939267Y-108790000D02*
X109596733Y-108790000D01*
X109939267Y-109810000D02*
X109596733Y-109810000D01*
X109907267Y-106040000D02*
X109564733Y-106040000D01*
X109907267Y-107060000D02*
X109564733Y-107060000D01*
X109578733Y-105060000D02*
X109921267Y-105060000D01*
X109578733Y-104040000D02*
X109921267Y-104040000D01*
X109828733Y-86760000D02*
X110171267Y-86760000D01*
X109828733Y-85740000D02*
X110171267Y-85740000D01*
X105913000Y-85221000D02*
X105913000Y-115431000D01*
X105913000Y-85221000D02*
X93003000Y-85221000D01*
X93003000Y-115431000D02*
X105913000Y-115431000D01*
X93003000Y-115431000D02*
X93003000Y-85221000D01*
D10*
X124022142Y-83182380D02*
X123688809Y-82706190D01*
X123450714Y-83182380D02*
X123450714Y-82182380D01*
X123831666Y-82182380D01*
X123926904Y-82230000D01*
X123974523Y-82277619D01*
X124022142Y-82372857D01*
X124022142Y-82515714D01*
X123974523Y-82610952D01*
X123926904Y-82658571D01*
X123831666Y-82706190D01*
X123450714Y-82706190D01*
X124403095Y-82277619D02*
X124450714Y-82230000D01*
X124545952Y-82182380D01*
X124784047Y-82182380D01*
X124879285Y-82230000D01*
X124926904Y-82277619D01*
X124974523Y-82372857D01*
X124974523Y-82468095D01*
X124926904Y-82610952D01*
X124355476Y-83182380D01*
X124974523Y-83182380D01*
X125307857Y-82182380D02*
X125926904Y-82182380D01*
X125593571Y-82563333D01*
X125736428Y-82563333D01*
X125831666Y-82610952D01*
X125879285Y-82658571D01*
X125926904Y-82753809D01*
X125926904Y-82991904D01*
X125879285Y-83087142D01*
X125831666Y-83134761D01*
X125736428Y-83182380D01*
X125450714Y-83182380D01*
X125355476Y-83134761D01*
X125307857Y-83087142D01*
X117507142Y-95502380D02*
X117173809Y-95026190D01*
X116935714Y-95502380D02*
X116935714Y-94502380D01*
X117316666Y-94502380D01*
X117411904Y-94550000D01*
X117459523Y-94597619D01*
X117507142Y-94692857D01*
X117507142Y-94835714D01*
X117459523Y-94930952D01*
X117411904Y-94978571D01*
X117316666Y-95026190D01*
X116935714Y-95026190D01*
X117888095Y-94597619D02*
X117935714Y-94550000D01*
X118030952Y-94502380D01*
X118269047Y-94502380D01*
X118364285Y-94550000D01*
X118411904Y-94597619D01*
X118459523Y-94692857D01*
X118459523Y-94788095D01*
X118411904Y-94930952D01*
X117840476Y-95502380D01*
X118459523Y-95502380D01*
X118840476Y-94597619D02*
X118888095Y-94550000D01*
X118983333Y-94502380D01*
X119221428Y-94502380D01*
X119316666Y-94550000D01*
X119364285Y-94597619D01*
X119411904Y-94692857D01*
X119411904Y-94788095D01*
X119364285Y-94930952D01*
X118792857Y-95502380D01*
X119411904Y-95502380D01*
X107502380Y-93617857D02*
X107026190Y-93951190D01*
X107502380Y-94189285D02*
X106502380Y-94189285D01*
X106502380Y-93808333D01*
X106550000Y-93713095D01*
X106597619Y-93665476D01*
X106692857Y-93617857D01*
X106835714Y-93617857D01*
X106930952Y-93665476D01*
X106978571Y-93713095D01*
X107026190Y-93808333D01*
X107026190Y-94189285D01*
X106597619Y-93236904D02*
X106550000Y-93189285D01*
X106502380Y-93094047D01*
X106502380Y-92855952D01*
X106550000Y-92760714D01*
X106597619Y-92713095D01*
X106692857Y-92665476D01*
X106788095Y-92665476D01*
X106930952Y-92713095D01*
X107502380Y-93284523D01*
X107502380Y-92665476D01*
X107502380Y-91713095D02*
X107502380Y-92284523D01*
X107502380Y-91998809D02*
X106502380Y-91998809D01*
X106645238Y-92094047D01*
X106740476Y-92189285D01*
X106788095Y-92284523D01*
X121582142Y-102932380D02*
X121248809Y-102456190D01*
X121010714Y-102932380D02*
X121010714Y-101932380D01*
X121391666Y-101932380D01*
X121486904Y-101980000D01*
X121534523Y-102027619D01*
X121582142Y-102122857D01*
X121582142Y-102265714D01*
X121534523Y-102360952D01*
X121486904Y-102408571D01*
X121391666Y-102456190D01*
X121010714Y-102456190D01*
X121963095Y-102027619D02*
X122010714Y-101980000D01*
X122105952Y-101932380D01*
X122344047Y-101932380D01*
X122439285Y-101980000D01*
X122486904Y-102027619D01*
X122534523Y-102122857D01*
X122534523Y-102218095D01*
X122486904Y-102360952D01*
X121915476Y-102932380D01*
X122534523Y-102932380D01*
X123153571Y-101932380D02*
X123248809Y-101932380D01*
X123344047Y-101980000D01*
X123391666Y-102027619D01*
X123439285Y-102122857D01*
X123486904Y-102313333D01*
X123486904Y-102551428D01*
X123439285Y-102741904D01*
X123391666Y-102837142D01*
X123344047Y-102884761D01*
X123248809Y-102932380D01*
X123153571Y-102932380D01*
X123058333Y-102884761D01*
X123010714Y-102837142D01*
X122963095Y-102741904D01*
X122915476Y-102551428D01*
X122915476Y-102313333D01*
X122963095Y-102122857D01*
X123010714Y-102027619D01*
X123058333Y-101980000D01*
X123153571Y-101932380D01*
X112307142Y-101702380D02*
X111973809Y-101226190D01*
X111735714Y-101702380D02*
X111735714Y-100702380D01*
X112116666Y-100702380D01*
X112211904Y-100750000D01*
X112259523Y-100797619D01*
X112307142Y-100892857D01*
X112307142Y-101035714D01*
X112259523Y-101130952D01*
X112211904Y-101178571D01*
X112116666Y-101226190D01*
X111735714Y-101226190D01*
X113259523Y-101702380D02*
X112688095Y-101702380D01*
X112973809Y-101702380D02*
X112973809Y-100702380D01*
X112878571Y-100845238D01*
X112783333Y-100940476D01*
X112688095Y-100988095D01*
X114116666Y-100702380D02*
X113926190Y-100702380D01*
X113830952Y-100750000D01*
X113783333Y-100797619D01*
X113688095Y-100940476D01*
X113640476Y-101130952D01*
X113640476Y-101511904D01*
X113688095Y-101607142D01*
X113735714Y-101654761D01*
X113830952Y-101702380D01*
X114021428Y-101702380D01*
X114116666Y-101654761D01*
X114164285Y-101607142D01*
X114211904Y-101511904D01*
X114211904Y-101273809D01*
X114164285Y-101178571D01*
X114116666Y-101130952D01*
X114021428Y-101083333D01*
X113830952Y-101083333D01*
X113735714Y-101130952D01*
X113688095Y-101178571D01*
X113640476Y-101273809D01*
X107402380Y-108992857D02*
X106926190Y-109326190D01*
X107402380Y-109564285D02*
X106402380Y-109564285D01*
X106402380Y-109183333D01*
X106450000Y-109088095D01*
X106497619Y-109040476D01*
X106592857Y-108992857D01*
X106735714Y-108992857D01*
X106830952Y-109040476D01*
X106878571Y-109088095D01*
X106926190Y-109183333D01*
X106926190Y-109564285D01*
X107402380Y-108040476D02*
X107402380Y-108611904D01*
X107402380Y-108326190D02*
X106402380Y-108326190D01*
X106545238Y-108421428D01*
X106640476Y-108516666D01*
X106688095Y-108611904D01*
X106497619Y-107659523D02*
X106450000Y-107611904D01*
X106402380Y-107516666D01*
X106402380Y-107278571D01*
X106450000Y-107183333D01*
X106497619Y-107135714D01*
X106592857Y-107088095D01*
X106688095Y-107088095D01*
X106830952Y-107135714D01*
X107402380Y-107707142D01*
X107402380Y-107088095D01*
X108640476Y-98002380D02*
X108640476Y-98716666D01*
X108592857Y-98859523D01*
X108497619Y-98954761D01*
X108354761Y-99002380D01*
X108259523Y-99002380D01*
X109116666Y-99002380D02*
X109116666Y-98002380D01*
X109497619Y-98002380D01*
X109592857Y-98050000D01*
X109640476Y-98097619D01*
X109688095Y-98192857D01*
X109688095Y-98335714D01*
X109640476Y-98430952D01*
X109592857Y-98478571D01*
X109497619Y-98526190D01*
X109116666Y-98526190D01*
X110640476Y-99002380D02*
X110069047Y-99002380D01*
X110354761Y-99002380D02*
X110354761Y-98002380D01*
X110259523Y-98145238D01*
X110164285Y-98240476D01*
X110069047Y-98288095D01*
X111592857Y-99002380D02*
X111021428Y-99002380D01*
X111307142Y-99002380D02*
X111307142Y-98002380D01*
X111211904Y-98145238D01*
X111116666Y-98240476D01*
X111021428Y-98288095D01*
X112216666Y-99702380D02*
X112216666Y-100416666D01*
X112169047Y-100559523D01*
X112073809Y-100654761D01*
X111930952Y-100702380D01*
X111835714Y-100702380D01*
X112692857Y-100702380D02*
X112692857Y-99702380D01*
X113073809Y-99702380D01*
X113169047Y-99750000D01*
X113216666Y-99797619D01*
X113264285Y-99892857D01*
X113264285Y-100035714D01*
X113216666Y-100130952D01*
X113169047Y-100178571D01*
X113073809Y-100226190D01*
X112692857Y-100226190D01*
X114169047Y-99702380D02*
X113692857Y-99702380D01*
X113645238Y-100178571D01*
X113692857Y-100130952D01*
X113788095Y-100083333D01*
X114026190Y-100083333D01*
X114121428Y-100130952D01*
X114169047Y-100178571D01*
X114216666Y-100273809D01*
X114216666Y-100511904D01*
X114169047Y-100607142D01*
X114121428Y-100654761D01*
X114026190Y-100702380D01*
X113788095Y-100702380D01*
X113692857Y-100654761D01*
X113645238Y-100607142D01*
X123807142Y-84907142D02*
X123759523Y-84954761D01*
X123616666Y-85002380D01*
X123521428Y-85002380D01*
X123378571Y-84954761D01*
X123283333Y-84859523D01*
X123235714Y-84764285D01*
X123188095Y-84573809D01*
X123188095Y-84430952D01*
X123235714Y-84240476D01*
X123283333Y-84145238D01*
X123378571Y-84050000D01*
X123521428Y-84002380D01*
X123616666Y-84002380D01*
X123759523Y-84050000D01*
X123807142Y-84097619D01*
X124188095Y-84097619D02*
X124235714Y-84050000D01*
X124330952Y-84002380D01*
X124569047Y-84002380D01*
X124664285Y-84050000D01*
X124711904Y-84097619D01*
X124759523Y-84192857D01*
X124759523Y-84288095D01*
X124711904Y-84430952D01*
X124140476Y-85002380D01*
X124759523Y-85002380D01*
X125092857Y-84002380D02*
X125759523Y-84002380D01*
X125330952Y-85002380D01*
X120982142Y-104737142D02*
X120934523Y-104784761D01*
X120791666Y-104832380D01*
X120696428Y-104832380D01*
X120553571Y-104784761D01*
X120458333Y-104689523D01*
X120410714Y-104594285D01*
X120363095Y-104403809D01*
X120363095Y-104260952D01*
X120410714Y-104070476D01*
X120458333Y-103975238D01*
X120553571Y-103880000D01*
X120696428Y-103832380D01*
X120791666Y-103832380D01*
X120934523Y-103880000D01*
X120982142Y-103927619D01*
X121363095Y-103927619D02*
X121410714Y-103880000D01*
X121505952Y-103832380D01*
X121744047Y-103832380D01*
X121839285Y-103880000D01*
X121886904Y-103927619D01*
X121934523Y-104022857D01*
X121934523Y-104118095D01*
X121886904Y-104260952D01*
X121315476Y-104832380D01*
X121934523Y-104832380D01*
X122886904Y-104832380D02*
X122315476Y-104832380D01*
X122601190Y-104832380D02*
X122601190Y-103832380D01*
X122505952Y-103975238D01*
X122410714Y-104070476D01*
X122315476Y-104118095D01*
X109608333Y-102132380D02*
X109275000Y-101656190D01*
X109036904Y-102132380D02*
X109036904Y-101132380D01*
X109417857Y-101132380D01*
X109513095Y-101180000D01*
X109560714Y-101227619D01*
X109608333Y-101322857D01*
X109608333Y-101465714D01*
X109560714Y-101560952D01*
X109513095Y-101608571D01*
X109417857Y-101656190D01*
X109036904Y-101656190D01*
X109941666Y-101132380D02*
X110560714Y-101132380D01*
X110227380Y-101513333D01*
X110370238Y-101513333D01*
X110465476Y-101560952D01*
X110513095Y-101608571D01*
X110560714Y-101703809D01*
X110560714Y-101941904D01*
X110513095Y-102037142D01*
X110465476Y-102084761D01*
X110370238Y-102132380D01*
X110084523Y-102132380D01*
X109989285Y-102084761D01*
X109941666Y-102037142D01*
X139388095Y-83302380D02*
X139388095Y-84111904D01*
X139435714Y-84207142D01*
X139483333Y-84254761D01*
X139578571Y-84302380D01*
X139769047Y-84302380D01*
X139864285Y-84254761D01*
X139911904Y-84207142D01*
X139959523Y-84111904D01*
X139959523Y-83302380D01*
X140388095Y-83397619D02*
X140435714Y-83350000D01*
X140530952Y-83302380D01*
X140769047Y-83302380D01*
X140864285Y-83350000D01*
X140911904Y-83397619D01*
X140959523Y-83492857D01*
X140959523Y-83588095D01*
X140911904Y-83730952D01*
X140340476Y-84302380D01*
X140959523Y-84302380D01*
X134172380Y-82967857D02*
X133696190Y-83301190D01*
X134172380Y-83539285D02*
X133172380Y-83539285D01*
X133172380Y-83158333D01*
X133220000Y-83063095D01*
X133267619Y-83015476D01*
X133362857Y-82967857D01*
X133505714Y-82967857D01*
X133600952Y-83015476D01*
X133648571Y-83063095D01*
X133696190Y-83158333D01*
X133696190Y-83539285D01*
X134172380Y-82015476D02*
X134172380Y-82586904D01*
X134172380Y-82301190D02*
X133172380Y-82301190D01*
X133315238Y-82396428D01*
X133410476Y-82491666D01*
X133458095Y-82586904D01*
X134172380Y-81063095D02*
X134172380Y-81634523D01*
X134172380Y-81348809D02*
X133172380Y-81348809D01*
X133315238Y-81444047D01*
X133410476Y-81539285D01*
X133458095Y-81634523D01*
X131172380Y-82967857D02*
X130696190Y-83301190D01*
X131172380Y-83539285D02*
X130172380Y-83539285D01*
X130172380Y-83158333D01*
X130220000Y-83063095D01*
X130267619Y-83015476D01*
X130362857Y-82967857D01*
X130505714Y-82967857D01*
X130600952Y-83015476D01*
X130648571Y-83063095D01*
X130696190Y-83158333D01*
X130696190Y-83539285D01*
X131172380Y-82015476D02*
X131172380Y-82586904D01*
X131172380Y-82301190D02*
X130172380Y-82301190D01*
X130315238Y-82396428D01*
X130410476Y-82491666D01*
X130458095Y-82586904D01*
X130172380Y-81396428D02*
X130172380Y-81301190D01*
X130220000Y-81205952D01*
X130267619Y-81158333D01*
X130362857Y-81110714D01*
X130553333Y-81063095D01*
X130791428Y-81063095D01*
X130981904Y-81110714D01*
X131077142Y-81158333D01*
X131124761Y-81205952D01*
X131172380Y-81301190D01*
X131172380Y-81396428D01*
X131124761Y-81491666D01*
X131077142Y-81539285D01*
X130981904Y-81586904D01*
X130791428Y-81634523D01*
X130553333Y-81634523D01*
X130362857Y-81586904D01*
X130267619Y-81539285D01*
X130220000Y-81491666D01*
X130172380Y-81396428D01*
X156202380Y-80416666D02*
X155726190Y-80750000D01*
X156202380Y-80988095D02*
X155202380Y-80988095D01*
X155202380Y-80607142D01*
X155250000Y-80511904D01*
X155297619Y-80464285D01*
X155392857Y-80416666D01*
X155535714Y-80416666D01*
X155630952Y-80464285D01*
X155678571Y-80511904D01*
X155726190Y-80607142D01*
X155726190Y-80988095D01*
X155535714Y-79559523D02*
X156202380Y-79559523D01*
X155154761Y-79797619D02*
X155869047Y-80035714D01*
X155869047Y-79416666D01*
X145572380Y-80291666D02*
X145096190Y-80625000D01*
X145572380Y-80863095D02*
X144572380Y-80863095D01*
X144572380Y-80482142D01*
X144620000Y-80386904D01*
X144667619Y-80339285D01*
X144762857Y-80291666D01*
X144905714Y-80291666D01*
X145000952Y-80339285D01*
X145048571Y-80386904D01*
X145096190Y-80482142D01*
X145096190Y-80863095D01*
X144667619Y-79910714D02*
X144620000Y-79863095D01*
X144572380Y-79767857D01*
X144572380Y-79529761D01*
X144620000Y-79434523D01*
X144667619Y-79386904D01*
X144762857Y-79339285D01*
X144858095Y-79339285D01*
X145000952Y-79386904D01*
X145572380Y-79958333D01*
X145572380Y-79339285D01*
X153202380Y-76583333D02*
X153916666Y-76583333D01*
X154059523Y-76630952D01*
X154154761Y-76726190D01*
X154202380Y-76869047D01*
X154202380Y-76964285D01*
X153630952Y-75964285D02*
X153583333Y-76059523D01*
X153535714Y-76107142D01*
X153440476Y-76154761D01*
X153392857Y-76154761D01*
X153297619Y-76107142D01*
X153250000Y-76059523D01*
X153202380Y-75964285D01*
X153202380Y-75773809D01*
X153250000Y-75678571D01*
X153297619Y-75630952D01*
X153392857Y-75583333D01*
X153440476Y-75583333D01*
X153535714Y-75630952D01*
X153583333Y-75678571D01*
X153630952Y-75773809D01*
X153630952Y-75964285D01*
X153678571Y-76059523D01*
X153726190Y-76107142D01*
X153821428Y-76154761D01*
X154011904Y-76154761D01*
X154107142Y-76107142D01*
X154154761Y-76059523D01*
X154202380Y-75964285D01*
X154202380Y-75773809D01*
X154154761Y-75678571D01*
X154107142Y-75630952D01*
X154011904Y-75583333D01*
X153821428Y-75583333D01*
X153726190Y-75630952D01*
X153678571Y-75678571D01*
X153630952Y-75773809D01*
X123152380Y-91126190D02*
X122152380Y-91126190D01*
X123057142Y-90078571D02*
X123104761Y-90126190D01*
X123152380Y-90269047D01*
X123152380Y-90364285D01*
X123104761Y-90507142D01*
X123009523Y-90602380D01*
X122914285Y-90650000D01*
X122723809Y-90697619D01*
X122580952Y-90697619D01*
X122390476Y-90650000D01*
X122295238Y-90602380D01*
X122200000Y-90507142D01*
X122152380Y-90364285D01*
X122152380Y-90269047D01*
X122200000Y-90126190D01*
X122247619Y-90078571D01*
X122247619Y-89697619D02*
X122200000Y-89650000D01*
X122152380Y-89554761D01*
X122152380Y-89316666D01*
X122200000Y-89221428D01*
X122247619Y-89173809D01*
X122342857Y-89126190D01*
X122438095Y-89126190D01*
X122580952Y-89173809D01*
X123152380Y-89745238D01*
X123152380Y-89126190D01*
X122952380Y-109426190D02*
X121952380Y-109426190D01*
X122857142Y-108378571D02*
X122904761Y-108426190D01*
X122952380Y-108569047D01*
X122952380Y-108664285D01*
X122904761Y-108807142D01*
X122809523Y-108902380D01*
X122714285Y-108950000D01*
X122523809Y-108997619D01*
X122380952Y-108997619D01*
X122190476Y-108950000D01*
X122095238Y-108902380D01*
X122000000Y-108807142D01*
X121952380Y-108664285D01*
X121952380Y-108569047D01*
X122000000Y-108426190D01*
X122047619Y-108378571D01*
X122952380Y-107426190D02*
X122952380Y-107997619D01*
X122952380Y-107711904D02*
X121952380Y-107711904D01*
X122095238Y-107807142D01*
X122190476Y-107902380D01*
X122238095Y-107997619D01*
X137382142Y-86237142D02*
X137334523Y-86284761D01*
X137191666Y-86332380D01*
X137096428Y-86332380D01*
X136953571Y-86284761D01*
X136858333Y-86189523D01*
X136810714Y-86094285D01*
X136763095Y-85903809D01*
X136763095Y-85760952D01*
X136810714Y-85570476D01*
X136858333Y-85475238D01*
X136953571Y-85380000D01*
X137096428Y-85332380D01*
X137191666Y-85332380D01*
X137334523Y-85380000D01*
X137382142Y-85427619D01*
X137763095Y-85427619D02*
X137810714Y-85380000D01*
X137905952Y-85332380D01*
X138144047Y-85332380D01*
X138239285Y-85380000D01*
X138286904Y-85427619D01*
X138334523Y-85522857D01*
X138334523Y-85618095D01*
X138286904Y-85760952D01*
X137715476Y-86332380D01*
X138334523Y-86332380D01*
X138953571Y-85332380D02*
X139048809Y-85332380D01*
X139144047Y-85380000D01*
X139191666Y-85427619D01*
X139239285Y-85522857D01*
X139286904Y-85713333D01*
X139286904Y-85951428D01*
X139239285Y-86141904D01*
X139191666Y-86237142D01*
X139144047Y-86284761D01*
X139048809Y-86332380D01*
X138953571Y-86332380D01*
X138858333Y-86284761D01*
X138810714Y-86237142D01*
X138763095Y-86141904D01*
X138715476Y-85951428D01*
X138715476Y-85713333D01*
X138763095Y-85522857D01*
X138810714Y-85427619D01*
X138858333Y-85380000D01*
X138953571Y-85332380D01*
X143507142Y-86807142D02*
X143459523Y-86854761D01*
X143316666Y-86902380D01*
X143221428Y-86902380D01*
X143078571Y-86854761D01*
X142983333Y-86759523D01*
X142935714Y-86664285D01*
X142888095Y-86473809D01*
X142888095Y-86330952D01*
X142935714Y-86140476D01*
X142983333Y-86045238D01*
X143078571Y-85950000D01*
X143221428Y-85902380D01*
X143316666Y-85902380D01*
X143459523Y-85950000D01*
X143507142Y-85997619D01*
X144459523Y-86902380D02*
X143888095Y-86902380D01*
X144173809Y-86902380D02*
X144173809Y-85902380D01*
X144078571Y-86045238D01*
X143983333Y-86140476D01*
X143888095Y-86188095D01*
X144935714Y-86902380D02*
X145126190Y-86902380D01*
X145221428Y-86854761D01*
X145269047Y-86807142D01*
X145364285Y-86664285D01*
X145411904Y-86473809D01*
X145411904Y-86092857D01*
X145364285Y-85997619D01*
X145316666Y-85950000D01*
X145221428Y-85902380D01*
X145030952Y-85902380D01*
X144935714Y-85950000D01*
X144888095Y-85997619D01*
X144840476Y-86092857D01*
X144840476Y-86330952D01*
X144888095Y-86426190D01*
X144935714Y-86473809D01*
X145030952Y-86521428D01*
X145221428Y-86521428D01*
X145316666Y-86473809D01*
X145364285Y-86426190D01*
X145411904Y-86330952D01*
X117407142Y-97407142D02*
X117359523Y-97454761D01*
X117216666Y-97502380D01*
X117121428Y-97502380D01*
X116978571Y-97454761D01*
X116883333Y-97359523D01*
X116835714Y-97264285D01*
X116788095Y-97073809D01*
X116788095Y-96930952D01*
X116835714Y-96740476D01*
X116883333Y-96645238D01*
X116978571Y-96550000D01*
X117121428Y-96502380D01*
X117216666Y-96502380D01*
X117359523Y-96550000D01*
X117407142Y-96597619D01*
X118359523Y-97502380D02*
X117788095Y-97502380D01*
X118073809Y-97502380D02*
X118073809Y-96502380D01*
X117978571Y-96645238D01*
X117883333Y-96740476D01*
X117788095Y-96788095D01*
X118930952Y-96930952D02*
X118835714Y-96883333D01*
X118788095Y-96835714D01*
X118740476Y-96740476D01*
X118740476Y-96692857D01*
X118788095Y-96597619D01*
X118835714Y-96550000D01*
X118930952Y-96502380D01*
X119121428Y-96502380D01*
X119216666Y-96550000D01*
X119264285Y-96597619D01*
X119311904Y-96692857D01*
X119311904Y-96740476D01*
X119264285Y-96835714D01*
X119216666Y-96883333D01*
X119121428Y-96930952D01*
X118930952Y-96930952D01*
X118835714Y-96978571D01*
X118788095Y-97026190D01*
X118740476Y-97121428D01*
X118740476Y-97311904D01*
X118788095Y-97407142D01*
X118835714Y-97454761D01*
X118930952Y-97502380D01*
X119121428Y-97502380D01*
X119216666Y-97454761D01*
X119264285Y-97407142D01*
X119311904Y-97311904D01*
X119311904Y-97121428D01*
X119264285Y-97026190D01*
X119216666Y-96978571D01*
X119121428Y-96930952D01*
X120557142Y-97407142D02*
X120509523Y-97454761D01*
X120366666Y-97502380D01*
X120271428Y-97502380D01*
X120128571Y-97454761D01*
X120033333Y-97359523D01*
X119985714Y-97264285D01*
X119938095Y-97073809D01*
X119938095Y-96930952D01*
X119985714Y-96740476D01*
X120033333Y-96645238D01*
X120128571Y-96550000D01*
X120271428Y-96502380D01*
X120366666Y-96502380D01*
X120509523Y-96550000D01*
X120557142Y-96597619D01*
X121509523Y-97502380D02*
X120938095Y-97502380D01*
X121223809Y-97502380D02*
X121223809Y-96502380D01*
X121128571Y-96645238D01*
X121033333Y-96740476D01*
X120938095Y-96788095D01*
X121842857Y-96502380D02*
X122509523Y-96502380D01*
X122080952Y-97502380D01*
X114277142Y-93617857D02*
X114324761Y-93665476D01*
X114372380Y-93808333D01*
X114372380Y-93903571D01*
X114324761Y-94046428D01*
X114229523Y-94141666D01*
X114134285Y-94189285D01*
X113943809Y-94236904D01*
X113800952Y-94236904D01*
X113610476Y-94189285D01*
X113515238Y-94141666D01*
X113420000Y-94046428D01*
X113372380Y-93903571D01*
X113372380Y-93808333D01*
X113420000Y-93665476D01*
X113467619Y-93617857D01*
X114372380Y-92665476D02*
X114372380Y-93236904D01*
X114372380Y-92951190D02*
X113372380Y-92951190D01*
X113515238Y-93046428D01*
X113610476Y-93141666D01*
X113658095Y-93236904D01*
X114372380Y-91713095D02*
X114372380Y-92284523D01*
X114372380Y-91998809D02*
X113372380Y-91998809D01*
X113515238Y-92094047D01*
X113610476Y-92189285D01*
X113658095Y-92284523D01*
X116237142Y-90117857D02*
X116284761Y-90165476D01*
X116332380Y-90308333D01*
X116332380Y-90403571D01*
X116284761Y-90546428D01*
X116189523Y-90641666D01*
X116094285Y-90689285D01*
X115903809Y-90736904D01*
X115760952Y-90736904D01*
X115570476Y-90689285D01*
X115475238Y-90641666D01*
X115380000Y-90546428D01*
X115332380Y-90403571D01*
X115332380Y-90308333D01*
X115380000Y-90165476D01*
X115427619Y-90117857D01*
X116332380Y-89165476D02*
X116332380Y-89736904D01*
X116332380Y-89451190D02*
X115332380Y-89451190D01*
X115475238Y-89546428D01*
X115570476Y-89641666D01*
X115618095Y-89736904D01*
X115332380Y-88546428D02*
X115332380Y-88451190D01*
X115380000Y-88355952D01*
X115427619Y-88308333D01*
X115522857Y-88260714D01*
X115713333Y-88213095D01*
X115951428Y-88213095D01*
X116141904Y-88260714D01*
X116237142Y-88308333D01*
X116284761Y-88355952D01*
X116332380Y-88451190D01*
X116332380Y-88546428D01*
X116284761Y-88641666D01*
X116237142Y-88689285D01*
X116141904Y-88736904D01*
X115951428Y-88784523D01*
X115713333Y-88784523D01*
X115522857Y-88736904D01*
X115427619Y-88689285D01*
X115380000Y-88641666D01*
X115332380Y-88546428D01*
X111807142Y-93816666D02*
X111854761Y-93864285D01*
X111902380Y-94007142D01*
X111902380Y-94102380D01*
X111854761Y-94245238D01*
X111759523Y-94340476D01*
X111664285Y-94388095D01*
X111473809Y-94435714D01*
X111330952Y-94435714D01*
X111140476Y-94388095D01*
X111045238Y-94340476D01*
X110950000Y-94245238D01*
X110902380Y-94102380D01*
X110902380Y-94007142D01*
X110950000Y-93864285D01*
X110997619Y-93816666D01*
X111902380Y-93340476D02*
X111902380Y-93150000D01*
X111854761Y-93054761D01*
X111807142Y-93007142D01*
X111664285Y-92911904D01*
X111473809Y-92864285D01*
X111092857Y-92864285D01*
X110997619Y-92911904D01*
X110950000Y-92959523D01*
X110902380Y-93054761D01*
X110902380Y-93245238D01*
X110950000Y-93340476D01*
X110997619Y-93388095D01*
X111092857Y-93435714D01*
X111330952Y-93435714D01*
X111426190Y-93388095D01*
X111473809Y-93340476D01*
X111521428Y-93245238D01*
X111521428Y-93054761D01*
X111473809Y-92959523D01*
X111426190Y-92911904D01*
X111330952Y-92864285D01*
X113207142Y-84616666D02*
X113254761Y-84664285D01*
X113302380Y-84807142D01*
X113302380Y-84902380D01*
X113254761Y-85045238D01*
X113159523Y-85140476D01*
X113064285Y-85188095D01*
X112873809Y-85235714D01*
X112730952Y-85235714D01*
X112540476Y-85188095D01*
X112445238Y-85140476D01*
X112350000Y-85045238D01*
X112302380Y-84902380D01*
X112302380Y-84807142D01*
X112350000Y-84664285D01*
X112397619Y-84616666D01*
X112730952Y-84045238D02*
X112683333Y-84140476D01*
X112635714Y-84188095D01*
X112540476Y-84235714D01*
X112492857Y-84235714D01*
X112397619Y-84188095D01*
X112350000Y-84140476D01*
X112302380Y-84045238D01*
X112302380Y-83854761D01*
X112350000Y-83759523D01*
X112397619Y-83711904D01*
X112492857Y-83664285D01*
X112540476Y-83664285D01*
X112635714Y-83711904D01*
X112683333Y-83759523D01*
X112730952Y-83854761D01*
X112730952Y-84045238D01*
X112778571Y-84140476D01*
X112826190Y-84188095D01*
X112921428Y-84235714D01*
X113111904Y-84235714D01*
X113207142Y-84188095D01*
X113254761Y-84140476D01*
X113302380Y-84045238D01*
X113302380Y-83854761D01*
X113254761Y-83759523D01*
X113207142Y-83711904D01*
X113111904Y-83664285D01*
X112921428Y-83664285D01*
X112826190Y-83711904D01*
X112778571Y-83759523D01*
X112730952Y-83854761D01*
X117383333Y-117807142D02*
X117335714Y-117854761D01*
X117192857Y-117902380D01*
X117097619Y-117902380D01*
X116954761Y-117854761D01*
X116859523Y-117759523D01*
X116811904Y-117664285D01*
X116764285Y-117473809D01*
X116764285Y-117330952D01*
X116811904Y-117140476D01*
X116859523Y-117045238D01*
X116954761Y-116950000D01*
X117097619Y-116902380D01*
X117192857Y-116902380D01*
X117335714Y-116950000D01*
X117383333Y-116997619D01*
X117716666Y-116902380D02*
X118383333Y-116902380D01*
X117954761Y-117902380D01*
X120683333Y-115507142D02*
X120635714Y-115554761D01*
X120492857Y-115602380D01*
X120397619Y-115602380D01*
X120254761Y-115554761D01*
X120159523Y-115459523D01*
X120111904Y-115364285D01*
X120064285Y-115173809D01*
X120064285Y-115030952D01*
X120111904Y-114840476D01*
X120159523Y-114745238D01*
X120254761Y-114650000D01*
X120397619Y-114602380D01*
X120492857Y-114602380D01*
X120635714Y-114650000D01*
X120683333Y-114697619D01*
X121588095Y-114602380D02*
X121111904Y-114602380D01*
X121064285Y-115078571D01*
X121111904Y-115030952D01*
X121207142Y-114983333D01*
X121445238Y-114983333D01*
X121540476Y-115030952D01*
X121588095Y-115078571D01*
X121635714Y-115173809D01*
X121635714Y-115411904D01*
X121588095Y-115507142D01*
X121540476Y-115554761D01*
X121445238Y-115602380D01*
X121207142Y-115602380D01*
X121111904Y-115554761D01*
X121064285Y-115507142D01*
X114077142Y-111441666D02*
X114124761Y-111489285D01*
X114172380Y-111632142D01*
X114172380Y-111727380D01*
X114124761Y-111870238D01*
X114029523Y-111965476D01*
X113934285Y-112013095D01*
X113743809Y-112060714D01*
X113600952Y-112060714D01*
X113410476Y-112013095D01*
X113315238Y-111965476D01*
X113220000Y-111870238D01*
X113172380Y-111727380D01*
X113172380Y-111632142D01*
X113220000Y-111489285D01*
X113267619Y-111441666D01*
X113505714Y-110584523D02*
X114172380Y-110584523D01*
X113124761Y-110822619D02*
X113839047Y-111060714D01*
X113839047Y-110441666D01*
X116037142Y-107941666D02*
X116084761Y-107989285D01*
X116132380Y-108132142D01*
X116132380Y-108227380D01*
X116084761Y-108370238D01*
X115989523Y-108465476D01*
X115894285Y-108513095D01*
X115703809Y-108560714D01*
X115560952Y-108560714D01*
X115370476Y-108513095D01*
X115275238Y-108465476D01*
X115180000Y-108370238D01*
X115132380Y-108227380D01*
X115132380Y-108132142D01*
X115180000Y-107989285D01*
X115227619Y-107941666D01*
X115132380Y-107608333D02*
X115132380Y-106989285D01*
X115513333Y-107322619D01*
X115513333Y-107179761D01*
X115560952Y-107084523D01*
X115608571Y-107036904D01*
X115703809Y-106989285D01*
X115941904Y-106989285D01*
X116037142Y-107036904D01*
X116084761Y-107084523D01*
X116132380Y-107179761D01*
X116132380Y-107465476D01*
X116084761Y-107560714D01*
X116037142Y-107608333D01*
X111607142Y-112116666D02*
X111654761Y-112164285D01*
X111702380Y-112307142D01*
X111702380Y-112402380D01*
X111654761Y-112545238D01*
X111559523Y-112640476D01*
X111464285Y-112688095D01*
X111273809Y-112735714D01*
X111130952Y-112735714D01*
X110940476Y-112688095D01*
X110845238Y-112640476D01*
X110750000Y-112545238D01*
X110702380Y-112402380D01*
X110702380Y-112307142D01*
X110750000Y-112164285D01*
X110797619Y-112116666D01*
X110797619Y-111735714D02*
X110750000Y-111688095D01*
X110702380Y-111592857D01*
X110702380Y-111354761D01*
X110750000Y-111259523D01*
X110797619Y-111211904D01*
X110892857Y-111164285D01*
X110988095Y-111164285D01*
X111130952Y-111211904D01*
X111702380Y-111783333D01*
X111702380Y-111164285D01*
X113007142Y-102916666D02*
X113054761Y-102964285D01*
X113102380Y-103107142D01*
X113102380Y-103202380D01*
X113054761Y-103345238D01*
X112959523Y-103440476D01*
X112864285Y-103488095D01*
X112673809Y-103535714D01*
X112530952Y-103535714D01*
X112340476Y-103488095D01*
X112245238Y-103440476D01*
X112150000Y-103345238D01*
X112102380Y-103202380D01*
X112102380Y-103107142D01*
X112150000Y-102964285D01*
X112197619Y-102916666D01*
X113102380Y-101964285D02*
X113102380Y-102535714D01*
X113102380Y-102250000D02*
X112102380Y-102250000D01*
X112245238Y-102345238D01*
X112340476Y-102440476D01*
X112388095Y-102535714D01*
X154119642Y-106257142D02*
X154072023Y-106304761D01*
X153929166Y-106352380D01*
X153833928Y-106352380D01*
X153691071Y-106304761D01*
X153595833Y-106209523D01*
X153548214Y-106114285D01*
X153500595Y-105923809D01*
X153500595Y-105780952D01*
X153548214Y-105590476D01*
X153595833Y-105495238D01*
X153691071Y-105400000D01*
X153833928Y-105352380D01*
X153929166Y-105352380D01*
X154072023Y-105400000D01*
X154119642Y-105447619D01*
X155072023Y-106352380D02*
X154500595Y-106352380D01*
X154786309Y-106352380D02*
X154786309Y-105352380D01*
X154691071Y-105495238D01*
X154595833Y-105590476D01*
X154500595Y-105638095D01*
X155405357Y-105352380D02*
X156024404Y-105352380D01*
X155691071Y-105733333D01*
X155833928Y-105733333D01*
X155929166Y-105780952D01*
X155976785Y-105828571D01*
X156024404Y-105923809D01*
X156024404Y-106161904D01*
X155976785Y-106257142D01*
X155929166Y-106304761D01*
X155833928Y-106352380D01*
X155548214Y-106352380D01*
X155452976Y-106304761D01*
X155405357Y-106257142D01*
X138100476Y-116002380D02*
X138100476Y-116716666D01*
X138052857Y-116859523D01*
X137957619Y-116954761D01*
X137814761Y-117002380D01*
X137719523Y-117002380D01*
X139100476Y-117002380D02*
X138529047Y-117002380D01*
X138814761Y-117002380D02*
X138814761Y-116002380D01*
X138719523Y-116145238D01*
X138624285Y-116240476D01*
X138529047Y-116288095D01*
X139719523Y-116002380D02*
X139814761Y-116002380D01*
X139910000Y-116050000D01*
X139957619Y-116097619D01*
X140005238Y-116192857D01*
X140052857Y-116383333D01*
X140052857Y-116621428D01*
X140005238Y-116811904D01*
X139957619Y-116907142D01*
X139910000Y-116954761D01*
X139814761Y-117002380D01*
X139719523Y-117002380D01*
X139624285Y-116954761D01*
X139576666Y-116907142D01*
X139529047Y-116811904D01*
X139481428Y-116621428D01*
X139481428Y-116383333D01*
X139529047Y-116192857D01*
X139576666Y-116097619D01*
X139624285Y-116050000D01*
X139719523Y-116002380D01*
X162407142Y-90602380D02*
X162073809Y-90126190D01*
X161835714Y-90602380D02*
X161835714Y-89602380D01*
X162216666Y-89602380D01*
X162311904Y-89650000D01*
X162359523Y-89697619D01*
X162407142Y-89792857D01*
X162407142Y-89935714D01*
X162359523Y-90030952D01*
X162311904Y-90078571D01*
X162216666Y-90126190D01*
X161835714Y-90126190D01*
X163359523Y-90602380D02*
X162788095Y-90602380D01*
X163073809Y-90602380D02*
X163073809Y-89602380D01*
X162978571Y-89745238D01*
X162883333Y-89840476D01*
X162788095Y-89888095D01*
X163835714Y-90602380D02*
X164026190Y-90602380D01*
X164121428Y-90554761D01*
X164169047Y-90507142D01*
X164264285Y-90364285D01*
X164311904Y-90173809D01*
X164311904Y-89792857D01*
X164264285Y-89697619D01*
X164216666Y-89650000D01*
X164121428Y-89602380D01*
X163930952Y-89602380D01*
X163835714Y-89650000D01*
X163788095Y-89697619D01*
X163740476Y-89792857D01*
X163740476Y-90030952D01*
X163788095Y-90126190D01*
X163835714Y-90173809D01*
X163930952Y-90221428D01*
X164121428Y-90221428D01*
X164216666Y-90173809D01*
X164264285Y-90126190D01*
X164311904Y-90030952D01*
X162507142Y-88702380D02*
X162173809Y-88226190D01*
X161935714Y-88702380D02*
X161935714Y-87702380D01*
X162316666Y-87702380D01*
X162411904Y-87750000D01*
X162459523Y-87797619D01*
X162507142Y-87892857D01*
X162507142Y-88035714D01*
X162459523Y-88130952D01*
X162411904Y-88178571D01*
X162316666Y-88226190D01*
X161935714Y-88226190D01*
X163459523Y-88702380D02*
X162888095Y-88702380D01*
X163173809Y-88702380D02*
X163173809Y-87702380D01*
X163078571Y-87845238D01*
X162983333Y-87940476D01*
X162888095Y-87988095D01*
X164030952Y-88130952D02*
X163935714Y-88083333D01*
X163888095Y-88035714D01*
X163840476Y-87940476D01*
X163840476Y-87892857D01*
X163888095Y-87797619D01*
X163935714Y-87750000D01*
X164030952Y-87702380D01*
X164221428Y-87702380D01*
X164316666Y-87750000D01*
X164364285Y-87797619D01*
X164411904Y-87892857D01*
X164411904Y-87940476D01*
X164364285Y-88035714D01*
X164316666Y-88083333D01*
X164221428Y-88130952D01*
X164030952Y-88130952D01*
X163935714Y-88178571D01*
X163888095Y-88226190D01*
X163840476Y-88321428D01*
X163840476Y-88511904D01*
X163888095Y-88607142D01*
X163935714Y-88654761D01*
X164030952Y-88702380D01*
X164221428Y-88702380D01*
X164316666Y-88654761D01*
X164364285Y-88607142D01*
X164411904Y-88511904D01*
X164411904Y-88321428D01*
X164364285Y-88226190D01*
X164316666Y-88178571D01*
X164221428Y-88130952D01*
X136602380Y-115883333D02*
X137316666Y-115883333D01*
X137459523Y-115930952D01*
X137554761Y-116026190D01*
X137602380Y-116169047D01*
X137602380Y-116264285D01*
X137602380Y-115407142D02*
X136602380Y-115407142D01*
X136602380Y-115026190D01*
X136650000Y-114930952D01*
X136697619Y-114883333D01*
X136792857Y-114835714D01*
X136935714Y-114835714D01*
X137030952Y-114883333D01*
X137078571Y-114930952D01*
X137126190Y-115026190D01*
X137126190Y-115407142D01*
X136935714Y-113978571D02*
X137602380Y-113978571D01*
X136554761Y-114216666D02*
X137269047Y-114454761D01*
X137269047Y-113835714D01*
X139216666Y-109202380D02*
X139216666Y-109916666D01*
X139169047Y-110059523D01*
X139073809Y-110154761D01*
X138930952Y-110202380D01*
X138835714Y-110202380D01*
X139692857Y-110202380D02*
X139692857Y-109202380D01*
X140073809Y-109202380D01*
X140169047Y-109250000D01*
X140216666Y-109297619D01*
X140264285Y-109392857D01*
X140264285Y-109535714D01*
X140216666Y-109630952D01*
X140169047Y-109678571D01*
X140073809Y-109726190D01*
X139692857Y-109726190D01*
X140597619Y-109202380D02*
X141216666Y-109202380D01*
X140883333Y-109583333D01*
X141026190Y-109583333D01*
X141121428Y-109630952D01*
X141169047Y-109678571D01*
X141216666Y-109773809D01*
X141216666Y-110011904D01*
X141169047Y-110107142D01*
X141121428Y-110154761D01*
X141026190Y-110202380D01*
X140740476Y-110202380D01*
X140645238Y-110154761D01*
X140597619Y-110107142D01*
X108706666Y-78132380D02*
X108706666Y-78846666D01*
X108659047Y-78989523D01*
X108563809Y-79084761D01*
X108420952Y-79132380D01*
X108325714Y-79132380D01*
X109087619Y-78132380D02*
X109754285Y-78132380D01*
X109325714Y-79132380D01*
X109076666Y-112702380D02*
X109076666Y-113416666D01*
X109029047Y-113559523D01*
X108933809Y-113654761D01*
X108790952Y-113702380D01*
X108695714Y-113702380D01*
X109981428Y-112702380D02*
X109790952Y-112702380D01*
X109695714Y-112750000D01*
X109648095Y-112797619D01*
X109552857Y-112940476D01*
X109505238Y-113130952D01*
X109505238Y-113511904D01*
X109552857Y-113607142D01*
X109600476Y-113654761D01*
X109695714Y-113702380D01*
X109886190Y-113702380D01*
X109981428Y-113654761D01*
X110029047Y-113607142D01*
X110076666Y-113511904D01*
X110076666Y-113273809D01*
X110029047Y-113178571D01*
X109981428Y-113130952D01*
X109886190Y-113083333D01*
X109695714Y-113083333D01*
X109600476Y-113130952D01*
X109552857Y-113178571D01*
X109505238Y-113273809D01*
X161807142Y-101407142D02*
X161759523Y-101454761D01*
X161616666Y-101502380D01*
X161521428Y-101502380D01*
X161378571Y-101454761D01*
X161283333Y-101359523D01*
X161235714Y-101264285D01*
X161188095Y-101073809D01*
X161188095Y-100930952D01*
X161235714Y-100740476D01*
X161283333Y-100645238D01*
X161378571Y-100550000D01*
X161521428Y-100502380D01*
X161616666Y-100502380D01*
X161759523Y-100550000D01*
X161807142Y-100597619D01*
X162188095Y-100597619D02*
X162235714Y-100550000D01*
X162330952Y-100502380D01*
X162569047Y-100502380D01*
X162664285Y-100550000D01*
X162711904Y-100597619D01*
X162759523Y-100692857D01*
X162759523Y-100788095D01*
X162711904Y-100930952D01*
X162140476Y-101502380D01*
X162759523Y-101502380D01*
X163616666Y-100502380D02*
X163426190Y-100502380D01*
X163330952Y-100550000D01*
X163283333Y-100597619D01*
X163188095Y-100740476D01*
X163140476Y-100930952D01*
X163140476Y-101311904D01*
X163188095Y-101407142D01*
X163235714Y-101454761D01*
X163330952Y-101502380D01*
X163521428Y-101502380D01*
X163616666Y-101454761D01*
X163664285Y-101407142D01*
X163711904Y-101311904D01*
X163711904Y-101073809D01*
X163664285Y-100978571D01*
X163616666Y-100930952D01*
X163521428Y-100883333D01*
X163330952Y-100883333D01*
X163235714Y-100930952D01*
X163188095Y-100978571D01*
X163140476Y-101073809D01*
X167107142Y-102107142D02*
X167059523Y-102154761D01*
X166916666Y-102202380D01*
X166821428Y-102202380D01*
X166678571Y-102154761D01*
X166583333Y-102059523D01*
X166535714Y-101964285D01*
X166488095Y-101773809D01*
X166488095Y-101630952D01*
X166535714Y-101440476D01*
X166583333Y-101345238D01*
X166678571Y-101250000D01*
X166821428Y-101202380D01*
X166916666Y-101202380D01*
X167059523Y-101250000D01*
X167107142Y-101297619D01*
X167488095Y-101297619D02*
X167535714Y-101250000D01*
X167630952Y-101202380D01*
X167869047Y-101202380D01*
X167964285Y-101250000D01*
X168011904Y-101297619D01*
X168059523Y-101392857D01*
X168059523Y-101488095D01*
X168011904Y-101630952D01*
X167440476Y-102202380D01*
X168059523Y-102202380D01*
X168964285Y-101202380D02*
X168488095Y-101202380D01*
X168440476Y-101678571D01*
X168488095Y-101630952D01*
X168583333Y-101583333D01*
X168821428Y-101583333D01*
X168916666Y-101630952D01*
X168964285Y-101678571D01*
X169011904Y-101773809D01*
X169011904Y-102011904D01*
X168964285Y-102107142D01*
X168916666Y-102154761D01*
X168821428Y-102202380D01*
X168583333Y-102202380D01*
X168488095Y-102154761D01*
X168440476Y-102107142D01*
X167588095Y-97902380D02*
X167588095Y-98711904D01*
X167635714Y-98807142D01*
X167683333Y-98854761D01*
X167778571Y-98902380D01*
X167969047Y-98902380D01*
X168064285Y-98854761D01*
X168111904Y-98807142D01*
X168159523Y-98711904D01*
X168159523Y-97902380D01*
X168778571Y-98330952D02*
X168683333Y-98283333D01*
X168635714Y-98235714D01*
X168588095Y-98140476D01*
X168588095Y-98092857D01*
X168635714Y-97997619D01*
X168683333Y-97950000D01*
X168778571Y-97902380D01*
X168969047Y-97902380D01*
X169064285Y-97950000D01*
X169111904Y-97997619D01*
X169159523Y-98092857D01*
X169159523Y-98140476D01*
X169111904Y-98235714D01*
X169064285Y-98283333D01*
X168969047Y-98330952D01*
X168778571Y-98330952D01*
X168683333Y-98378571D01*
X168635714Y-98426190D01*
X168588095Y-98521428D01*
X168588095Y-98711904D01*
X168635714Y-98807142D01*
X168683333Y-98854761D01*
X168778571Y-98902380D01*
X168969047Y-98902380D01*
X169064285Y-98854761D01*
X169111904Y-98807142D01*
X169159523Y-98711904D01*
X169159523Y-98521428D01*
X169111904Y-98426190D01*
X169064285Y-98378571D01*
X168969047Y-98330952D01*
X145188095Y-112102380D02*
X145188095Y-112911904D01*
X145235714Y-113007142D01*
X145283333Y-113054761D01*
X145378571Y-113102380D01*
X145569047Y-113102380D01*
X145664285Y-113054761D01*
X145711904Y-113007142D01*
X145759523Y-112911904D01*
X145759523Y-112102380D01*
X146140476Y-112102380D02*
X146807142Y-112102380D01*
X146378571Y-113102380D01*
X144988095Y-117212380D02*
X144988095Y-118021904D01*
X145035714Y-118117142D01*
X145083333Y-118164761D01*
X145178571Y-118212380D01*
X145369047Y-118212380D01*
X145464285Y-118164761D01*
X145511904Y-118117142D01*
X145559523Y-118021904D01*
X145559523Y-117212380D01*
X146559523Y-118212380D02*
X145988095Y-118212380D01*
X146273809Y-118212380D02*
X146273809Y-117212380D01*
X146178571Y-117355238D01*
X146083333Y-117450476D01*
X145988095Y-117498095D01*
X156732142Y-112202380D02*
X156398809Y-111726190D01*
X156160714Y-112202380D02*
X156160714Y-111202380D01*
X156541666Y-111202380D01*
X156636904Y-111250000D01*
X156684523Y-111297619D01*
X156732142Y-111392857D01*
X156732142Y-111535714D01*
X156684523Y-111630952D01*
X156636904Y-111678571D01*
X156541666Y-111726190D01*
X156160714Y-111726190D01*
X157684523Y-112202380D02*
X157113095Y-112202380D01*
X157398809Y-112202380D02*
X157398809Y-111202380D01*
X157303571Y-111345238D01*
X157208333Y-111440476D01*
X157113095Y-111488095D01*
X158017857Y-111202380D02*
X158684523Y-111202380D01*
X158255952Y-112202380D01*
X162583333Y-110482380D02*
X162107142Y-110482380D01*
X162107142Y-109482380D01*
X162821428Y-109482380D02*
X163440476Y-109482380D01*
X163107142Y-109863333D01*
X163250000Y-109863333D01*
X163345238Y-109910952D01*
X163392857Y-109958571D01*
X163440476Y-110053809D01*
X163440476Y-110291904D01*
X163392857Y-110387142D01*
X163345238Y-110434761D01*
X163250000Y-110482380D01*
X162964285Y-110482380D01*
X162869047Y-110434761D01*
X162821428Y-110387142D01*
X167902380Y-96713333D02*
X168616666Y-96713333D01*
X168759523Y-96760952D01*
X168854761Y-96856190D01*
X168902380Y-96999047D01*
X168902380Y-97094285D01*
X167902380Y-95760952D02*
X167902380Y-96237142D01*
X168378571Y-96284761D01*
X168330952Y-96237142D01*
X168283333Y-96141904D01*
X168283333Y-95903809D01*
X168330952Y-95808571D01*
X168378571Y-95760952D01*
X168473809Y-95713333D01*
X168711904Y-95713333D01*
X168807142Y-95760952D01*
X168854761Y-95808571D01*
X168902380Y-95903809D01*
X168902380Y-96141904D01*
X168854761Y-96237142D01*
X168807142Y-96284761D01*
X174502380Y-88583333D02*
X175216666Y-88583333D01*
X175359523Y-88630952D01*
X175454761Y-88726190D01*
X175502380Y-88869047D01*
X175502380Y-88964285D01*
X174835714Y-87678571D02*
X175502380Y-87678571D01*
X174454761Y-87916666D02*
X175169047Y-88154761D01*
X175169047Y-87535714D01*
X143207142Y-107792857D02*
X143254761Y-107840476D01*
X143302380Y-107983333D01*
X143302380Y-108078571D01*
X143254761Y-108221428D01*
X143159523Y-108316666D01*
X143064285Y-108364285D01*
X142873809Y-108411904D01*
X142730952Y-108411904D01*
X142540476Y-108364285D01*
X142445238Y-108316666D01*
X142350000Y-108221428D01*
X142302380Y-108078571D01*
X142302380Y-107983333D01*
X142350000Y-107840476D01*
X142397619Y-107792857D01*
X142397619Y-107411904D02*
X142350000Y-107364285D01*
X142302380Y-107269047D01*
X142302380Y-107030952D01*
X142350000Y-106935714D01*
X142397619Y-106888095D01*
X142492857Y-106840476D01*
X142588095Y-106840476D01*
X142730952Y-106888095D01*
X143302380Y-107459523D01*
X143302380Y-106840476D01*
X142635714Y-105983333D02*
X143302380Y-105983333D01*
X142254761Y-106221428D02*
X142969047Y-106459523D01*
X142969047Y-105840476D01*
X141677142Y-115392857D02*
X141724761Y-115440476D01*
X141772380Y-115583333D01*
X141772380Y-115678571D01*
X141724761Y-115821428D01*
X141629523Y-115916666D01*
X141534285Y-115964285D01*
X141343809Y-116011904D01*
X141200952Y-116011904D01*
X141010476Y-115964285D01*
X140915238Y-115916666D01*
X140820000Y-115821428D01*
X140772380Y-115678571D01*
X140772380Y-115583333D01*
X140820000Y-115440476D01*
X140867619Y-115392857D01*
X141772380Y-114440476D02*
X141772380Y-115011904D01*
X141772380Y-114726190D02*
X140772380Y-114726190D01*
X140915238Y-114821428D01*
X141010476Y-114916666D01*
X141058095Y-115011904D01*
X140772380Y-113583333D02*
X140772380Y-113773809D01*
X140820000Y-113869047D01*
X140867619Y-113916666D01*
X141010476Y-114011904D01*
X141200952Y-114059523D01*
X141581904Y-114059523D01*
X141677142Y-114011904D01*
X141724761Y-113964285D01*
X141772380Y-113869047D01*
X141772380Y-113678571D01*
X141724761Y-113583333D01*
X141677142Y-113535714D01*
X141581904Y-113488095D01*
X141343809Y-113488095D01*
X141248571Y-113535714D01*
X141200952Y-113583333D01*
X141153333Y-113678571D01*
X141153333Y-113869047D01*
X141200952Y-113964285D01*
X141248571Y-114011904D01*
X141343809Y-114059523D01*
X148677142Y-115267857D02*
X148724761Y-115315476D01*
X148772380Y-115458333D01*
X148772380Y-115553571D01*
X148724761Y-115696428D01*
X148629523Y-115791666D01*
X148534285Y-115839285D01*
X148343809Y-115886904D01*
X148200952Y-115886904D01*
X148010476Y-115839285D01*
X147915238Y-115791666D01*
X147820000Y-115696428D01*
X147772380Y-115553571D01*
X147772380Y-115458333D01*
X147820000Y-115315476D01*
X147867619Y-115267857D01*
X148772380Y-114315476D02*
X148772380Y-114886904D01*
X148772380Y-114601190D02*
X147772380Y-114601190D01*
X147915238Y-114696428D01*
X148010476Y-114791666D01*
X148058095Y-114886904D01*
X147772380Y-113410714D02*
X147772380Y-113886904D01*
X148248571Y-113934523D01*
X148200952Y-113886904D01*
X148153333Y-113791666D01*
X148153333Y-113553571D01*
X148200952Y-113458333D01*
X148248571Y-113410714D01*
X148343809Y-113363095D01*
X148581904Y-113363095D01*
X148677142Y-113410714D01*
X148724761Y-113458333D01*
X148772380Y-113553571D01*
X148772380Y-113791666D01*
X148724761Y-113886904D01*
X148677142Y-113934523D01*
X148677142Y-110767857D02*
X148724761Y-110815476D01*
X148772380Y-110958333D01*
X148772380Y-111053571D01*
X148724761Y-111196428D01*
X148629523Y-111291666D01*
X148534285Y-111339285D01*
X148343809Y-111386904D01*
X148200952Y-111386904D01*
X148010476Y-111339285D01*
X147915238Y-111291666D01*
X147820000Y-111196428D01*
X147772380Y-111053571D01*
X147772380Y-110958333D01*
X147820000Y-110815476D01*
X147867619Y-110767857D01*
X148772380Y-109815476D02*
X148772380Y-110386904D01*
X148772380Y-110101190D02*
X147772380Y-110101190D01*
X147915238Y-110196428D01*
X148010476Y-110291666D01*
X148058095Y-110386904D01*
X148105714Y-108958333D02*
X148772380Y-108958333D01*
X147724761Y-109196428D02*
X148439047Y-109434523D01*
X148439047Y-108815476D01*
X165287142Y-112905357D02*
X165334761Y-112952976D01*
X165382380Y-113095833D01*
X165382380Y-113191071D01*
X165334761Y-113333928D01*
X165239523Y-113429166D01*
X165144285Y-113476785D01*
X164953809Y-113524404D01*
X164810952Y-113524404D01*
X164620476Y-113476785D01*
X164525238Y-113429166D01*
X164430000Y-113333928D01*
X164382380Y-113191071D01*
X164382380Y-113095833D01*
X164430000Y-112952976D01*
X164477619Y-112905357D01*
X165382380Y-111952976D02*
X165382380Y-112524404D01*
X165382380Y-112238690D02*
X164382380Y-112238690D01*
X164525238Y-112333928D01*
X164620476Y-112429166D01*
X164668095Y-112524404D01*
X164477619Y-111572023D02*
X164430000Y-111524404D01*
X164382380Y-111429166D01*
X164382380Y-111191071D01*
X164430000Y-111095833D01*
X164477619Y-111048214D01*
X164572857Y-111000595D01*
X164668095Y-111000595D01*
X164810952Y-111048214D01*
X165382380Y-111619642D01*
X165382380Y-111000595D01*
X164583333Y-103287142D02*
X164535714Y-103334761D01*
X164392857Y-103382380D01*
X164297619Y-103382380D01*
X164154761Y-103334761D01*
X164059523Y-103239523D01*
X164011904Y-103144285D01*
X163964285Y-102953809D01*
X163964285Y-102810952D01*
X164011904Y-102620476D01*
X164059523Y-102525238D01*
X164154761Y-102430000D01*
X164297619Y-102382380D01*
X164392857Y-102382380D01*
X164535714Y-102430000D01*
X164583333Y-102477619D01*
X165440476Y-102382380D02*
X165250000Y-102382380D01*
X165154761Y-102430000D01*
X165107142Y-102477619D01*
X165011904Y-102620476D01*
X164964285Y-102810952D01*
X164964285Y-103191904D01*
X165011904Y-103287142D01*
X165059523Y-103334761D01*
X165154761Y-103382380D01*
X165345238Y-103382380D01*
X165440476Y-103334761D01*
X165488095Y-103287142D01*
X165535714Y-103191904D01*
X165535714Y-102953809D01*
X165488095Y-102858571D01*
X165440476Y-102810952D01*
X165345238Y-102763333D01*
X165154761Y-102763333D01*
X165059523Y-102810952D01*
X165011904Y-102858571D01*
X164964285Y-102953809D01*
X159127380Y-100966666D02*
X158651190Y-101300000D01*
X159127380Y-101538095D02*
X158127380Y-101538095D01*
X158127380Y-101157142D01*
X158175000Y-101061904D01*
X158222619Y-101014285D01*
X158317857Y-100966666D01*
X158460714Y-100966666D01*
X158555952Y-101014285D01*
X158603571Y-101061904D01*
X158651190Y-101157142D01*
X158651190Y-101538095D01*
X158127380Y-100109523D02*
X158127380Y-100300000D01*
X158175000Y-100395238D01*
X158222619Y-100442857D01*
X158365476Y-100538095D01*
X158555952Y-100585714D01*
X158936904Y-100585714D01*
X159032142Y-100538095D01*
X159079761Y-100490476D01*
X159127380Y-100395238D01*
X159127380Y-100204761D01*
X159079761Y-100109523D01*
X159032142Y-100061904D01*
X158936904Y-100014285D01*
X158698809Y-100014285D01*
X158603571Y-100061904D01*
X158555952Y-100109523D01*
X158508333Y-100204761D01*
X158508333Y-100395238D01*
X158555952Y-100490476D01*
X158603571Y-100538095D01*
X158698809Y-100585714D01*
X154708333Y-95202380D02*
X154375000Y-94726190D01*
X154136904Y-95202380D02*
X154136904Y-94202380D01*
X154517857Y-94202380D01*
X154613095Y-94250000D01*
X154660714Y-94297619D01*
X154708333Y-94392857D01*
X154708333Y-94535714D01*
X154660714Y-94630952D01*
X154613095Y-94678571D01*
X154517857Y-94726190D01*
X154136904Y-94726190D01*
X155613095Y-94202380D02*
X155136904Y-94202380D01*
X155089285Y-94678571D01*
X155136904Y-94630952D01*
X155232142Y-94583333D01*
X155470238Y-94583333D01*
X155565476Y-94630952D01*
X155613095Y-94678571D01*
X155660714Y-94773809D01*
X155660714Y-95011904D01*
X155613095Y-95107142D01*
X155565476Y-95154761D01*
X155470238Y-95202380D01*
X155232142Y-95202380D01*
X155136904Y-95154761D01*
X155089285Y-95107142D01*
X169535714Y-103202380D02*
X169535714Y-102202380D01*
X169916666Y-102202380D01*
X170011904Y-102250000D01*
X170059523Y-102297619D01*
X170107142Y-102392857D01*
X170107142Y-102535714D01*
X170059523Y-102630952D01*
X170011904Y-102678571D01*
X169916666Y-102726190D01*
X169535714Y-102726190D01*
X170488095Y-103154761D02*
X170630952Y-103202380D01*
X170869047Y-103202380D01*
X170964285Y-103154761D01*
X171011904Y-103107142D01*
X171059523Y-103011904D01*
X171059523Y-102916666D01*
X171011904Y-102821428D01*
X170964285Y-102773809D01*
X170869047Y-102726190D01*
X170678571Y-102678571D01*
X170583333Y-102630952D01*
X170535714Y-102583333D01*
X170488095Y-102488095D01*
X170488095Y-102392857D01*
X170535714Y-102297619D01*
X170583333Y-102250000D01*
X170678571Y-102202380D01*
X170916666Y-102202380D01*
X171059523Y-102250000D01*
X172011904Y-103202380D02*
X171440476Y-103202380D01*
X171726190Y-103202380D02*
X171726190Y-102202380D01*
X171630952Y-102345238D01*
X171535714Y-102440476D01*
X171440476Y-102488095D01*
X157154761Y-115997619D02*
X157059523Y-115950000D01*
X156964285Y-115854761D01*
X156821428Y-115711904D01*
X156726190Y-115664285D01*
X156630952Y-115664285D01*
X156678571Y-115902380D02*
X156583333Y-115854761D01*
X156488095Y-115759523D01*
X156440476Y-115569047D01*
X156440476Y-115235714D01*
X156488095Y-115045238D01*
X156583333Y-114950000D01*
X156678571Y-114902380D01*
X156869047Y-114902380D01*
X156964285Y-114950000D01*
X157059523Y-115045238D01*
X157107142Y-115235714D01*
X157107142Y-115569047D01*
X157059523Y-115759523D01*
X156964285Y-115854761D01*
X156869047Y-115902380D01*
X156678571Y-115902380D01*
X158059523Y-115902380D02*
X157488095Y-115902380D01*
X157773809Y-115902380D02*
X157773809Y-114902380D01*
X157678571Y-115045238D01*
X157583333Y-115140476D01*
X157488095Y-115188095D01*
X159516666Y-117252380D02*
X159516666Y-117966666D01*
X159469047Y-118109523D01*
X159373809Y-118204761D01*
X159230952Y-118252380D01*
X159135714Y-118252380D01*
X159992857Y-118252380D02*
X159992857Y-117252380D01*
X160373809Y-117252380D01*
X160469047Y-117300000D01*
X160516666Y-117347619D01*
X160564285Y-117442857D01*
X160564285Y-117585714D01*
X160516666Y-117680952D01*
X160469047Y-117728571D01*
X160373809Y-117776190D01*
X159992857Y-117776190D01*
X160945238Y-117347619D02*
X160992857Y-117300000D01*
X161088095Y-117252380D01*
X161326190Y-117252380D01*
X161421428Y-117300000D01*
X161469047Y-117347619D01*
X161516666Y-117442857D01*
X161516666Y-117538095D01*
X161469047Y-117680952D01*
X160897619Y-118252380D01*
X161516666Y-118252380D01*
X154178380Y-83654333D02*
X154892666Y-83654333D01*
X155035523Y-83701952D01*
X155130761Y-83797190D01*
X155178380Y-83940047D01*
X155178380Y-84035285D01*
X154178380Y-83273380D02*
X154178380Y-82654333D01*
X154559333Y-82987666D01*
X154559333Y-82844809D01*
X154606952Y-82749571D01*
X154654571Y-82701952D01*
X154749809Y-82654333D01*
X154987904Y-82654333D01*
X155083142Y-82701952D01*
X155130761Y-82749571D01*
X155178380Y-82844809D01*
X155178380Y-83130523D01*
X155130761Y-83225761D01*
X155083142Y-83273380D01*
X147078380Y-83704333D02*
X147792666Y-83704333D01*
X147935523Y-83751952D01*
X148030761Y-83847190D01*
X148078380Y-83990047D01*
X148078380Y-84085285D01*
X147173619Y-83275761D02*
X147126000Y-83228142D01*
X147078380Y-83132904D01*
X147078380Y-82894809D01*
X147126000Y-82799571D01*
X147173619Y-82751952D01*
X147268857Y-82704333D01*
X147364095Y-82704333D01*
X147506952Y-82751952D01*
X148078380Y-83323380D01*
X148078380Y-82704333D01*
X161202380Y-107488095D02*
X160202380Y-107488095D01*
X160202380Y-107250000D01*
X160250000Y-107107142D01*
X160345238Y-107011904D01*
X160440476Y-106964285D01*
X160630952Y-106916666D01*
X160773809Y-106916666D01*
X160964285Y-106964285D01*
X161059523Y-107011904D01*
X161154761Y-107107142D01*
X161202380Y-107250000D01*
X161202380Y-107488095D01*
X160297619Y-106535714D02*
X160250000Y-106488095D01*
X160202380Y-106392857D01*
X160202380Y-106154761D01*
X160250000Y-106059523D01*
X160297619Y-106011904D01*
X160392857Y-105964285D01*
X160488095Y-105964285D01*
X160630952Y-106011904D01*
X161202380Y-106583333D01*
X161202380Y-105964285D01*
X149311904Y-96952380D02*
X149311904Y-95952380D01*
X149550000Y-95952380D01*
X149692857Y-96000000D01*
X149788095Y-96095238D01*
X149835714Y-96190476D01*
X149883333Y-96380952D01*
X149883333Y-96523809D01*
X149835714Y-96714285D01*
X149788095Y-96809523D01*
X149692857Y-96904761D01*
X149550000Y-96952380D01*
X149311904Y-96952380D01*
X150835714Y-96952380D02*
X150264285Y-96952380D01*
X150550000Y-96952380D02*
X150550000Y-95952380D01*
X150454761Y-96095238D01*
X150359523Y-96190476D01*
X150264285Y-96238095D01*
X161257142Y-110092857D02*
X161304761Y-110140476D01*
X161352380Y-110283333D01*
X161352380Y-110378571D01*
X161304761Y-110521428D01*
X161209523Y-110616666D01*
X161114285Y-110664285D01*
X160923809Y-110711904D01*
X160780952Y-110711904D01*
X160590476Y-110664285D01*
X160495238Y-110616666D01*
X160400000Y-110521428D01*
X160352380Y-110378571D01*
X160352380Y-110283333D01*
X160400000Y-110140476D01*
X160447619Y-110092857D01*
X160447619Y-109711904D02*
X160400000Y-109664285D01*
X160352380Y-109569047D01*
X160352380Y-109330952D01*
X160400000Y-109235714D01*
X160447619Y-109188095D01*
X160542857Y-109140476D01*
X160638095Y-109140476D01*
X160780952Y-109188095D01*
X161352380Y-109759523D01*
X161352380Y-109140476D01*
X160352380Y-108807142D02*
X160352380Y-108188095D01*
X160733333Y-108521428D01*
X160733333Y-108378571D01*
X160780952Y-108283333D01*
X160828571Y-108235714D01*
X160923809Y-108188095D01*
X161161904Y-108188095D01*
X161257142Y-108235714D01*
X161304761Y-108283333D01*
X161352380Y-108378571D01*
X161352380Y-108664285D01*
X161304761Y-108759523D01*
X161257142Y-108807142D01*
X159457142Y-110092857D02*
X159504761Y-110140476D01*
X159552380Y-110283333D01*
X159552380Y-110378571D01*
X159504761Y-110521428D01*
X159409523Y-110616666D01*
X159314285Y-110664285D01*
X159123809Y-110711904D01*
X158980952Y-110711904D01*
X158790476Y-110664285D01*
X158695238Y-110616666D01*
X158600000Y-110521428D01*
X158552380Y-110378571D01*
X158552380Y-110283333D01*
X158600000Y-110140476D01*
X158647619Y-110092857D01*
X158647619Y-109711904D02*
X158600000Y-109664285D01*
X158552380Y-109569047D01*
X158552380Y-109330952D01*
X158600000Y-109235714D01*
X158647619Y-109188095D01*
X158742857Y-109140476D01*
X158838095Y-109140476D01*
X158980952Y-109188095D01*
X159552380Y-109759523D01*
X159552380Y-109140476D01*
X158647619Y-108759523D02*
X158600000Y-108711904D01*
X158552380Y-108616666D01*
X158552380Y-108378571D01*
X158600000Y-108283333D01*
X158647619Y-108235714D01*
X158742857Y-108188095D01*
X158838095Y-108188095D01*
X158980952Y-108235714D01*
X159552380Y-108807142D01*
X159552380Y-108188095D01*
X123533333Y-99102380D02*
X123057142Y-99102380D01*
X123057142Y-98102380D01*
X123819047Y-98197619D02*
X123866666Y-98150000D01*
X123961904Y-98102380D01*
X124200000Y-98102380D01*
X124295238Y-98150000D01*
X124342857Y-98197619D01*
X124390476Y-98292857D01*
X124390476Y-98388095D01*
X124342857Y-98530952D01*
X123771428Y-99102380D01*
X124390476Y-99102380D01*
X124183333Y-116427380D02*
X123707142Y-116427380D01*
X123707142Y-115427380D01*
X125040476Y-116427380D02*
X124469047Y-116427380D01*
X124754761Y-116427380D02*
X124754761Y-115427380D01*
X124659523Y-115570238D01*
X124564285Y-115665476D01*
X124469047Y-115713095D01*
X109325142Y-92882380D02*
X108991809Y-92406190D01*
X108753714Y-92882380D02*
X108753714Y-91882380D01*
X109134666Y-91882380D01*
X109229904Y-91930000D01*
X109277523Y-91977619D01*
X109325142Y-92072857D01*
X109325142Y-92215714D01*
X109277523Y-92310952D01*
X109229904Y-92358571D01*
X109134666Y-92406190D01*
X108753714Y-92406190D01*
X110277523Y-92882380D02*
X109706095Y-92882380D01*
X109991809Y-92882380D02*
X109991809Y-91882380D01*
X109896571Y-92025238D01*
X109801333Y-92120476D01*
X109706095Y-92168095D01*
X111182285Y-91882380D02*
X110706095Y-91882380D01*
X110658476Y-92358571D01*
X110706095Y-92310952D01*
X110801333Y-92263333D01*
X111039428Y-92263333D01*
X111134666Y-92310952D01*
X111182285Y-92358571D01*
X111229904Y-92453809D01*
X111229904Y-92691904D01*
X111182285Y-92787142D01*
X111134666Y-92834761D01*
X111039428Y-92882380D01*
X110801333Y-92882380D01*
X110706095Y-92834761D01*
X110658476Y-92787142D01*
X109293142Y-90132380D02*
X108959809Y-89656190D01*
X108721714Y-90132380D02*
X108721714Y-89132380D01*
X109102666Y-89132380D01*
X109197904Y-89180000D01*
X109245523Y-89227619D01*
X109293142Y-89322857D01*
X109293142Y-89465714D01*
X109245523Y-89560952D01*
X109197904Y-89608571D01*
X109102666Y-89656190D01*
X108721714Y-89656190D01*
X110245523Y-90132380D02*
X109674095Y-90132380D01*
X109959809Y-90132380D02*
X109959809Y-89132380D01*
X109864571Y-89275238D01*
X109769333Y-89370476D01*
X109674095Y-89418095D01*
X111102666Y-89465714D02*
X111102666Y-90132380D01*
X110864571Y-89084761D02*
X110626476Y-89799047D01*
X111245523Y-89799047D01*
X109325142Y-97452380D02*
X108991809Y-96976190D01*
X108753714Y-97452380D02*
X108753714Y-96452380D01*
X109134666Y-96452380D01*
X109229904Y-96500000D01*
X109277523Y-96547619D01*
X109325142Y-96642857D01*
X109325142Y-96785714D01*
X109277523Y-96880952D01*
X109229904Y-96928571D01*
X109134666Y-96976190D01*
X108753714Y-96976190D01*
X110277523Y-97452380D02*
X109706095Y-97452380D01*
X109991809Y-97452380D02*
X109991809Y-96452380D01*
X109896571Y-96595238D01*
X109801333Y-96690476D01*
X109706095Y-96738095D01*
X110610857Y-96452380D02*
X111229904Y-96452380D01*
X110896571Y-96833333D01*
X111039428Y-96833333D01*
X111134666Y-96880952D01*
X111182285Y-96928571D01*
X111229904Y-97023809D01*
X111229904Y-97261904D01*
X111182285Y-97357142D01*
X111134666Y-97404761D01*
X111039428Y-97452380D01*
X110753714Y-97452380D01*
X110658476Y-97404761D01*
X110610857Y-97357142D01*
X109601333Y-111182380D02*
X109268000Y-110706190D01*
X109029904Y-111182380D02*
X109029904Y-110182380D01*
X109410857Y-110182380D01*
X109506095Y-110230000D01*
X109553714Y-110277619D01*
X109601333Y-110372857D01*
X109601333Y-110515714D01*
X109553714Y-110610952D01*
X109506095Y-110658571D01*
X109410857Y-110706190D01*
X109029904Y-110706190D01*
X110077523Y-111182380D02*
X110268000Y-111182380D01*
X110363238Y-111134761D01*
X110410857Y-111087142D01*
X110506095Y-110944285D01*
X110553714Y-110753809D01*
X110553714Y-110372857D01*
X110506095Y-110277619D01*
X110458476Y-110230000D01*
X110363238Y-110182380D01*
X110172761Y-110182380D01*
X110077523Y-110230000D01*
X110029904Y-110277619D01*
X109982285Y-110372857D01*
X109982285Y-110610952D01*
X110029904Y-110706190D01*
X110077523Y-110753809D01*
X110172761Y-110801428D01*
X110363238Y-110801428D01*
X110458476Y-110753809D01*
X110506095Y-110706190D01*
X110553714Y-110610952D01*
X109569333Y-108432380D02*
X109236000Y-107956190D01*
X108997904Y-108432380D02*
X108997904Y-107432380D01*
X109378857Y-107432380D01*
X109474095Y-107480000D01*
X109521714Y-107527619D01*
X109569333Y-107622857D01*
X109569333Y-107765714D01*
X109521714Y-107860952D01*
X109474095Y-107908571D01*
X109378857Y-107956190D01*
X108997904Y-107956190D01*
X110140761Y-107860952D02*
X110045523Y-107813333D01*
X109997904Y-107765714D01*
X109950285Y-107670476D01*
X109950285Y-107622857D01*
X109997904Y-107527619D01*
X110045523Y-107480000D01*
X110140761Y-107432380D01*
X110331238Y-107432380D01*
X110426476Y-107480000D01*
X110474095Y-107527619D01*
X110521714Y-107622857D01*
X110521714Y-107670476D01*
X110474095Y-107765714D01*
X110426476Y-107813333D01*
X110331238Y-107860952D01*
X110140761Y-107860952D01*
X110045523Y-107908571D01*
X109997904Y-107956190D01*
X109950285Y-108051428D01*
X109950285Y-108241904D01*
X109997904Y-108337142D01*
X110045523Y-108384761D01*
X110140761Y-108432380D01*
X110331238Y-108432380D01*
X110426476Y-108384761D01*
X110474095Y-108337142D01*
X110521714Y-108241904D01*
X110521714Y-108051428D01*
X110474095Y-107956190D01*
X110426476Y-107908571D01*
X110331238Y-107860952D01*
X110583333Y-103602380D02*
X110250000Y-103126190D01*
X110011904Y-103602380D02*
X110011904Y-102602380D01*
X110392857Y-102602380D01*
X110488095Y-102650000D01*
X110535714Y-102697619D01*
X110583333Y-102792857D01*
X110583333Y-102935714D01*
X110535714Y-103030952D01*
X110488095Y-103078571D01*
X110392857Y-103126190D01*
X110011904Y-103126190D01*
X110916666Y-102602380D02*
X111583333Y-102602380D01*
X111154761Y-103602380D01*
X109833333Y-85272380D02*
X109500000Y-84796190D01*
X109261904Y-85272380D02*
X109261904Y-84272380D01*
X109642857Y-84272380D01*
X109738095Y-84320000D01*
X109785714Y-84367619D01*
X109833333Y-84462857D01*
X109833333Y-84605714D01*
X109785714Y-84700952D01*
X109738095Y-84748571D01*
X109642857Y-84796190D01*
X109261904Y-84796190D01*
X110785714Y-85272380D02*
X110214285Y-85272380D01*
X110500000Y-85272380D02*
X110500000Y-84272380D01*
X110404761Y-84415238D01*
X110309523Y-84510476D01*
X110214285Y-84558095D01*
X104252380Y-117433333D02*
X104966666Y-117433333D01*
X105109523Y-117480952D01*
X105204761Y-117576190D01*
X105252380Y-117719047D01*
X105252380Y-117814285D01*
X105252380Y-116433333D02*
X105252380Y-117004761D01*
X105252380Y-116719047D02*
X104252380Y-116719047D01*
X104395238Y-116814285D01*
X104490476Y-116909523D01*
X104538095Y-117004761D01*
X100916666Y-76902380D02*
X100916666Y-75902380D01*
X101250000Y-76616666D01*
X101583333Y-75902380D01*
X101583333Y-76902380D01*
X102059523Y-76902380D02*
X102059523Y-75902380D01*
X102059523Y-76378571D02*
X102630952Y-76378571D01*
X102630952Y-76902380D02*
X102630952Y-75902380D01*
X103630952Y-76902380D02*
X103059523Y-76902380D01*
X103345238Y-76902380D02*
X103345238Y-75902380D01*
X103250000Y-76045238D01*
X103154761Y-76140476D01*
X103059523Y-76188095D01*
X164916666Y-76902380D02*
X164916666Y-75902380D01*
X165250000Y-76616666D01*
X165583333Y-75902380D01*
X165583333Y-76902380D01*
X166059523Y-76902380D02*
X166059523Y-75902380D01*
X166059523Y-76378571D02*
X166630952Y-76378571D01*
X166630952Y-76902380D02*
X166630952Y-75902380D01*
X167059523Y-75997619D02*
X167107142Y-75950000D01*
X167202380Y-75902380D01*
X167440476Y-75902380D01*
X167535714Y-75950000D01*
X167583333Y-75997619D01*
X167630952Y-76092857D01*
X167630952Y-76188095D01*
X167583333Y-76330952D01*
X167011904Y-76902380D01*
X167630952Y-76902380D01*
X95666666Y-116952380D02*
X95666666Y-115952380D01*
X96000000Y-116666666D01*
X96333333Y-115952380D01*
X96333333Y-116952380D01*
X96809523Y-116952380D02*
X96809523Y-115952380D01*
X96809523Y-116428571D02*
X97380952Y-116428571D01*
X97380952Y-116952380D02*
X97380952Y-115952380D01*
X97761904Y-115952380D02*
X98380952Y-115952380D01*
X98047619Y-116333333D01*
X98190476Y-116333333D01*
X98285714Y-116380952D01*
X98333333Y-116428571D01*
X98380952Y-116523809D01*
X98380952Y-116761904D01*
X98333333Y-116857142D01*
X98285714Y-116904761D01*
X98190476Y-116952380D01*
X97904761Y-116952380D01*
X97809523Y-116904761D01*
X97761904Y-116857142D01*
X169666666Y-116952380D02*
X169666666Y-115952380D01*
X170000000Y-116666666D01*
X170333333Y-115952380D01*
X170333333Y-116952380D01*
X170809523Y-116952380D02*
X170809523Y-115952380D01*
X170809523Y-116428571D02*
X171380952Y-116428571D01*
X171380952Y-116952380D02*
X171380952Y-115952380D01*
X172285714Y-116285714D02*
X172285714Y-116952380D01*
X172047619Y-115904761D02*
X171809523Y-116619047D01*
X172428571Y-116619047D01*
M02*
