M48
; DRILL file {KiCad (5.1.5-0)} date Monday, November 01, 2021 at 02:27:02 PM
; FORMAT={-:-/ absolute / inch / decimal}
; #@! TF.CreationDate,2021-11-01T14:27:02-06:00
; #@! TF.GenerationSoftware,Kicad,Pcbnew,(5.1.5-0)
; #@! TF.FileFunction,Plated,1,2,PTH
FMAT,2
INCH
T1C0.0157
T2C0.0276
T3C0.0331
T4C0.0394
T5C0.0402
T6C0.1201
T7C0.1378
%
G90
G05
T1
X4.2106Y-4.0689
X4.25Y-3.7618
X4.3642Y-3.8091
X4.3996Y-3.6713
X4.4272Y-4.0689
X4.4311Y-4.4311
X4.5463Y-4.3022
X4.5492Y-4.561
X4.5502Y-4.1585
X4.5522Y-3.5817
X4.564Y-3.4508
X4.6124Y-4.4468
X4.6142Y-3.7205
X4.6437Y-4.0817
X4.6437Y-4.4498
X4.6752Y-3.5138
X4.6772Y-4.0502
X4.7061Y-3.8287
X4.7134Y-4.2374
X4.7177Y-4.0091
X4.7461Y-4.2067
X4.7539Y-3.5531
X4.7815Y-4.2067
X4.8176Y-4.3196
X4.8185Y-3.6476
X4.8232Y-3.4339
X4.8287Y-4.4705
X4.8327Y-3.75
X4.8425Y-3.7071
X4.852Y-3.2559
X4.8622Y-4.5787
X4.8957Y-3.8327
X4.9114Y-3.9075
X4.9114Y-4.0256
X4.9382Y-3.5413
X4.9508Y-3.6713
X4.9508Y-3.8287
X4.9626Y-4.2441
X4.974Y-4.0811
X4.9902Y-3.5925
X5.0295Y-3.75
X5.0295Y-3.9075
X5.0295Y-4.0256
X5.0295Y-4.1437
X5.0295Y-4.2224
X5.0295Y-4.3209
X5.1476Y-3.8484
X5.1476Y-3.9862
X5.1476Y-4.2224
X5.1476Y-4.3209
X5.187Y-3.7894
X5.2264Y-3.3957
X5.2264Y-3.5138
X5.2264Y-3.6319
X5.2264Y-3.75
X5.2657Y-3.8484
X5.2657Y-3.9862
X5.2657Y-4.1043
X5.2657Y-4.2224
X5.2657Y-4.3209
X5.2657Y-3.8051
X5.2962Y-4.2933
X5.3297Y-3.8839
X5.3307Y-3.9546
X5.3445Y-3.3957
X5.3445Y-3.5138
X5.3445Y-3.6319
X5.3445Y-3.75
X5.3839Y-3.8484
X5.3839Y-3.9862
X5.3839Y-4.1043
X5.3839Y-4.2224
X5.3839Y-4.3012
X5.4587Y-4.3917
X5.5413Y-4.5531
X5.6909Y-3.2618
X5.7303Y-3.2933
X5.7382Y-3.0728
X5.8957Y-4.435
X5.939Y-4.1909
X6.0413Y-3.8642
X6.1909Y-3.9114
X6.1909Y-4.0138
X6.3287Y-3.5138
X6.3287Y-3.6319
X6.4075Y-3.9862
X6.4469Y-3.5138
X6.4469Y-3.6319
X6.6319Y-3.4154
X6.6319Y-3.872
X6.6634Y-3.5807
T2
X5.872Y-3.4173
X5.872Y-3.4961
X6.1516Y-3.4154
X6.1516Y-3.4941
T3
X4.2591Y-4.5346
X4.2591Y-4.6346
X4.3091Y-4.5846
X4.3591Y-4.5346
X4.3591Y-4.6346
X5.4205Y-4.6646
X5.4205Y-4.7646
X5.4705Y-4.7146
X5.5205Y-4.6646
X5.5205Y-4.7646
X4.2445Y-3.1736
X4.2445Y-3.2736
X4.2945Y-3.2236
X4.3445Y-3.1736
X4.3445Y-3.2736
T4
X6.6831Y-4.1634
X6.6831Y-4.2634
X6.6831Y-4.3634
X6.6831Y-4.4634
T5
X3.9852Y-3.7898
X3.9852Y-3.9
X3.9852Y-4.0052
X3.9852Y-4.115
X4.095Y-3.7351
X4.095Y-3.8449
X4.095Y-3.95
X4.095Y-4.0599
X4.095Y-4.165
T6
X4.0399Y-3.4599
X4.0399Y-4.4449
T7
X3.8189Y-3.1102
X6.7323Y-3.1102
X3.8189Y-4.7638
X6.7323Y-4.7638
T0
M30
