G04 #@! TF.GenerationSoftware,KiCad,Pcbnew,(5.1.5-0)*
G04 #@! TF.CreationDate,2021-10-12T13:01:33-06:00*
G04 #@! TF.ProjectId,TPS61165-heater,54505336-3131-4363-952d-686561746572,rev?*
G04 #@! TF.SameCoordinates,Original*
G04 #@! TF.FileFunction,Copper,L1,Top*
G04 #@! TF.FilePolarity,Positive*
%FSLAX46Y46*%
G04 Gerber Fmt 4.6, Leading zero omitted, Abs format (unit mm)*
G04 Created by KiCad (PCBNEW (5.1.5-0)) date 2021-10-12 13:01:33*
%MOMM*%
%LPD*%
G04 APERTURE LIST*
%ADD10R,1.800000X1.600000*%
%ADD11R,5.300000X2.000000*%
%ADD12R,1.500000X1.000000*%
%ADD13C,0.100000*%
%ADD14O,1.700000X1.700000*%
%ADD15R,1.700000X1.700000*%
%ADD16R,2.825000X1.400000*%
%ADD17R,1.000000X1.600000*%
%ADD18C,1.240000*%
%ADD19O,1.750000X1.200000*%
%ADD20O,1.800000X1.100000*%
%ADD21R,1.500000X0.800000*%
%ADD22R,1.500000X0.760000*%
%ADD23R,1.500000X0.700000*%
%ADD24R,0.900000X1.200000*%
%ADD25C,0.800000*%
%ADD26C,1.000000*%
%ADD27C,0.250000*%
%ADD28C,0.254000*%
G04 APERTURE END LIST*
D10*
X152576000Y-74130000D03*
X152576000Y-76670000D03*
X142824000Y-76670000D03*
X142824000Y-74130000D03*
D11*
X143400000Y-81600000D03*
X143400000Y-85000000D03*
D12*
X143700000Y-66500000D03*
X143700000Y-65200000D03*
X143700000Y-63900000D03*
X140500000Y-66500000D03*
X140500000Y-65200000D03*
X140500000Y-63900000D03*
G04 #@! TA.AperFunction,SMDPad,CuDef*
D13*
G36*
X151657351Y-64350361D02*
G01*
X151664632Y-64351441D01*
X151671771Y-64353229D01*
X151678701Y-64355709D01*
X151685355Y-64358856D01*
X151691668Y-64362640D01*
X151697579Y-64367024D01*
X151703033Y-64371967D01*
X151707976Y-64377421D01*
X151712360Y-64383332D01*
X151716144Y-64389645D01*
X151719291Y-64396299D01*
X151721771Y-64403229D01*
X151723559Y-64410368D01*
X151724639Y-64417649D01*
X151725000Y-64425000D01*
X151725000Y-64575000D01*
X151724639Y-64582351D01*
X151723559Y-64589632D01*
X151721771Y-64596771D01*
X151719291Y-64603701D01*
X151716144Y-64610355D01*
X151712360Y-64616668D01*
X151707976Y-64622579D01*
X151703033Y-64628033D01*
X151697579Y-64632976D01*
X151691668Y-64637360D01*
X151685355Y-64641144D01*
X151678701Y-64644291D01*
X151671771Y-64646771D01*
X151664632Y-64648559D01*
X151657351Y-64649639D01*
X151650000Y-64650000D01*
X150350000Y-64650000D01*
X150342649Y-64649639D01*
X150335368Y-64648559D01*
X150328229Y-64646771D01*
X150321299Y-64644291D01*
X150314645Y-64641144D01*
X150308332Y-64637360D01*
X150302421Y-64632976D01*
X150296967Y-64628033D01*
X150292024Y-64622579D01*
X150287640Y-64616668D01*
X150283856Y-64610355D01*
X150280709Y-64603701D01*
X150278229Y-64596771D01*
X150276441Y-64589632D01*
X150275361Y-64582351D01*
X150275000Y-64575000D01*
X150275000Y-64425000D01*
X150275361Y-64417649D01*
X150276441Y-64410368D01*
X150278229Y-64403229D01*
X150280709Y-64396299D01*
X150283856Y-64389645D01*
X150287640Y-64383332D01*
X150292024Y-64377421D01*
X150296967Y-64371967D01*
X150302421Y-64367024D01*
X150308332Y-64362640D01*
X150314645Y-64358856D01*
X150321299Y-64355709D01*
X150328229Y-64353229D01*
X150335368Y-64351441D01*
X150342649Y-64350361D01*
X150350000Y-64350000D01*
X151650000Y-64350000D01*
X151657351Y-64350361D01*
G37*
G04 #@! TD.AperFunction*
G04 #@! TA.AperFunction,SMDPad,CuDef*
G36*
X151657351Y-64850361D02*
G01*
X151664632Y-64851441D01*
X151671771Y-64853229D01*
X151678701Y-64855709D01*
X151685355Y-64858856D01*
X151691668Y-64862640D01*
X151697579Y-64867024D01*
X151703033Y-64871967D01*
X151707976Y-64877421D01*
X151712360Y-64883332D01*
X151716144Y-64889645D01*
X151719291Y-64896299D01*
X151721771Y-64903229D01*
X151723559Y-64910368D01*
X151724639Y-64917649D01*
X151725000Y-64925000D01*
X151725000Y-65075000D01*
X151724639Y-65082351D01*
X151723559Y-65089632D01*
X151721771Y-65096771D01*
X151719291Y-65103701D01*
X151716144Y-65110355D01*
X151712360Y-65116668D01*
X151707976Y-65122579D01*
X151703033Y-65128033D01*
X151697579Y-65132976D01*
X151691668Y-65137360D01*
X151685355Y-65141144D01*
X151678701Y-65144291D01*
X151671771Y-65146771D01*
X151664632Y-65148559D01*
X151657351Y-65149639D01*
X151650000Y-65150000D01*
X150350000Y-65150000D01*
X150342649Y-65149639D01*
X150335368Y-65148559D01*
X150328229Y-65146771D01*
X150321299Y-65144291D01*
X150314645Y-65141144D01*
X150308332Y-65137360D01*
X150302421Y-65132976D01*
X150296967Y-65128033D01*
X150292024Y-65122579D01*
X150287640Y-65116668D01*
X150283856Y-65110355D01*
X150280709Y-65103701D01*
X150278229Y-65096771D01*
X150276441Y-65089632D01*
X150275361Y-65082351D01*
X150275000Y-65075000D01*
X150275000Y-64925000D01*
X150275361Y-64917649D01*
X150276441Y-64910368D01*
X150278229Y-64903229D01*
X150280709Y-64896299D01*
X150283856Y-64889645D01*
X150287640Y-64883332D01*
X150292024Y-64877421D01*
X150296967Y-64871967D01*
X150302421Y-64867024D01*
X150308332Y-64862640D01*
X150314645Y-64858856D01*
X150321299Y-64855709D01*
X150328229Y-64853229D01*
X150335368Y-64851441D01*
X150342649Y-64850361D01*
X150350000Y-64850000D01*
X151650000Y-64850000D01*
X151657351Y-64850361D01*
G37*
G04 #@! TD.AperFunction*
G04 #@! TA.AperFunction,SMDPad,CuDef*
G36*
X151657351Y-65350361D02*
G01*
X151664632Y-65351441D01*
X151671771Y-65353229D01*
X151678701Y-65355709D01*
X151685355Y-65358856D01*
X151691668Y-65362640D01*
X151697579Y-65367024D01*
X151703033Y-65371967D01*
X151707976Y-65377421D01*
X151712360Y-65383332D01*
X151716144Y-65389645D01*
X151719291Y-65396299D01*
X151721771Y-65403229D01*
X151723559Y-65410368D01*
X151724639Y-65417649D01*
X151725000Y-65425000D01*
X151725000Y-65575000D01*
X151724639Y-65582351D01*
X151723559Y-65589632D01*
X151721771Y-65596771D01*
X151719291Y-65603701D01*
X151716144Y-65610355D01*
X151712360Y-65616668D01*
X151707976Y-65622579D01*
X151703033Y-65628033D01*
X151697579Y-65632976D01*
X151691668Y-65637360D01*
X151685355Y-65641144D01*
X151678701Y-65644291D01*
X151671771Y-65646771D01*
X151664632Y-65648559D01*
X151657351Y-65649639D01*
X151650000Y-65650000D01*
X150350000Y-65650000D01*
X150342649Y-65649639D01*
X150335368Y-65648559D01*
X150328229Y-65646771D01*
X150321299Y-65644291D01*
X150314645Y-65641144D01*
X150308332Y-65637360D01*
X150302421Y-65632976D01*
X150296967Y-65628033D01*
X150292024Y-65622579D01*
X150287640Y-65616668D01*
X150283856Y-65610355D01*
X150280709Y-65603701D01*
X150278229Y-65596771D01*
X150276441Y-65589632D01*
X150275361Y-65582351D01*
X150275000Y-65575000D01*
X150275000Y-65425000D01*
X150275361Y-65417649D01*
X150276441Y-65410368D01*
X150278229Y-65403229D01*
X150280709Y-65396299D01*
X150283856Y-65389645D01*
X150287640Y-65383332D01*
X150292024Y-65377421D01*
X150296967Y-65371967D01*
X150302421Y-65367024D01*
X150308332Y-65362640D01*
X150314645Y-65358856D01*
X150321299Y-65355709D01*
X150328229Y-65353229D01*
X150335368Y-65351441D01*
X150342649Y-65350361D01*
X150350000Y-65350000D01*
X151650000Y-65350000D01*
X151657351Y-65350361D01*
G37*
G04 #@! TD.AperFunction*
G04 #@! TA.AperFunction,SMDPad,CuDef*
G36*
X151657351Y-65850361D02*
G01*
X151664632Y-65851441D01*
X151671771Y-65853229D01*
X151678701Y-65855709D01*
X151685355Y-65858856D01*
X151691668Y-65862640D01*
X151697579Y-65867024D01*
X151703033Y-65871967D01*
X151707976Y-65877421D01*
X151712360Y-65883332D01*
X151716144Y-65889645D01*
X151719291Y-65896299D01*
X151721771Y-65903229D01*
X151723559Y-65910368D01*
X151724639Y-65917649D01*
X151725000Y-65925000D01*
X151725000Y-66075000D01*
X151724639Y-66082351D01*
X151723559Y-66089632D01*
X151721771Y-66096771D01*
X151719291Y-66103701D01*
X151716144Y-66110355D01*
X151712360Y-66116668D01*
X151707976Y-66122579D01*
X151703033Y-66128033D01*
X151697579Y-66132976D01*
X151691668Y-66137360D01*
X151685355Y-66141144D01*
X151678701Y-66144291D01*
X151671771Y-66146771D01*
X151664632Y-66148559D01*
X151657351Y-66149639D01*
X151650000Y-66150000D01*
X150350000Y-66150000D01*
X150342649Y-66149639D01*
X150335368Y-66148559D01*
X150328229Y-66146771D01*
X150321299Y-66144291D01*
X150314645Y-66141144D01*
X150308332Y-66137360D01*
X150302421Y-66132976D01*
X150296967Y-66128033D01*
X150292024Y-66122579D01*
X150287640Y-66116668D01*
X150283856Y-66110355D01*
X150280709Y-66103701D01*
X150278229Y-66096771D01*
X150276441Y-66089632D01*
X150275361Y-66082351D01*
X150275000Y-66075000D01*
X150275000Y-65925000D01*
X150275361Y-65917649D01*
X150276441Y-65910368D01*
X150278229Y-65903229D01*
X150280709Y-65896299D01*
X150283856Y-65889645D01*
X150287640Y-65883332D01*
X150292024Y-65877421D01*
X150296967Y-65871967D01*
X150302421Y-65867024D01*
X150308332Y-65862640D01*
X150314645Y-65858856D01*
X150321299Y-65855709D01*
X150328229Y-65853229D01*
X150335368Y-65851441D01*
X150342649Y-65850361D01*
X150350000Y-65850000D01*
X151650000Y-65850000D01*
X151657351Y-65850361D01*
G37*
G04 #@! TD.AperFunction*
G04 #@! TA.AperFunction,SMDPad,CuDef*
G36*
X151657351Y-66350361D02*
G01*
X151664632Y-66351441D01*
X151671771Y-66353229D01*
X151678701Y-66355709D01*
X151685355Y-66358856D01*
X151691668Y-66362640D01*
X151697579Y-66367024D01*
X151703033Y-66371967D01*
X151707976Y-66377421D01*
X151712360Y-66383332D01*
X151716144Y-66389645D01*
X151719291Y-66396299D01*
X151721771Y-66403229D01*
X151723559Y-66410368D01*
X151724639Y-66417649D01*
X151725000Y-66425000D01*
X151725000Y-66575000D01*
X151724639Y-66582351D01*
X151723559Y-66589632D01*
X151721771Y-66596771D01*
X151719291Y-66603701D01*
X151716144Y-66610355D01*
X151712360Y-66616668D01*
X151707976Y-66622579D01*
X151703033Y-66628033D01*
X151697579Y-66632976D01*
X151691668Y-66637360D01*
X151685355Y-66641144D01*
X151678701Y-66644291D01*
X151671771Y-66646771D01*
X151664632Y-66648559D01*
X151657351Y-66649639D01*
X151650000Y-66650000D01*
X150350000Y-66650000D01*
X150342649Y-66649639D01*
X150335368Y-66648559D01*
X150328229Y-66646771D01*
X150321299Y-66644291D01*
X150314645Y-66641144D01*
X150308332Y-66637360D01*
X150302421Y-66632976D01*
X150296967Y-66628033D01*
X150292024Y-66622579D01*
X150287640Y-66616668D01*
X150283856Y-66610355D01*
X150280709Y-66603701D01*
X150278229Y-66596771D01*
X150276441Y-66589632D01*
X150275361Y-66582351D01*
X150275000Y-66575000D01*
X150275000Y-66425000D01*
X150275361Y-66417649D01*
X150276441Y-66410368D01*
X150278229Y-66403229D01*
X150280709Y-66396299D01*
X150283856Y-66389645D01*
X150287640Y-66383332D01*
X150292024Y-66377421D01*
X150296967Y-66371967D01*
X150302421Y-66367024D01*
X150308332Y-66362640D01*
X150314645Y-66358856D01*
X150321299Y-66355709D01*
X150328229Y-66353229D01*
X150335368Y-66351441D01*
X150342649Y-66350361D01*
X150350000Y-66350000D01*
X151650000Y-66350000D01*
X151657351Y-66350361D01*
G37*
G04 #@! TD.AperFunction*
G04 #@! TA.AperFunction,SMDPad,CuDef*
G36*
X147257351Y-66350361D02*
G01*
X147264632Y-66351441D01*
X147271771Y-66353229D01*
X147278701Y-66355709D01*
X147285355Y-66358856D01*
X147291668Y-66362640D01*
X147297579Y-66367024D01*
X147303033Y-66371967D01*
X147307976Y-66377421D01*
X147312360Y-66383332D01*
X147316144Y-66389645D01*
X147319291Y-66396299D01*
X147321771Y-66403229D01*
X147323559Y-66410368D01*
X147324639Y-66417649D01*
X147325000Y-66425000D01*
X147325000Y-66575000D01*
X147324639Y-66582351D01*
X147323559Y-66589632D01*
X147321771Y-66596771D01*
X147319291Y-66603701D01*
X147316144Y-66610355D01*
X147312360Y-66616668D01*
X147307976Y-66622579D01*
X147303033Y-66628033D01*
X147297579Y-66632976D01*
X147291668Y-66637360D01*
X147285355Y-66641144D01*
X147278701Y-66644291D01*
X147271771Y-66646771D01*
X147264632Y-66648559D01*
X147257351Y-66649639D01*
X147250000Y-66650000D01*
X145950000Y-66650000D01*
X145942649Y-66649639D01*
X145935368Y-66648559D01*
X145928229Y-66646771D01*
X145921299Y-66644291D01*
X145914645Y-66641144D01*
X145908332Y-66637360D01*
X145902421Y-66632976D01*
X145896967Y-66628033D01*
X145892024Y-66622579D01*
X145887640Y-66616668D01*
X145883856Y-66610355D01*
X145880709Y-66603701D01*
X145878229Y-66596771D01*
X145876441Y-66589632D01*
X145875361Y-66582351D01*
X145875000Y-66575000D01*
X145875000Y-66425000D01*
X145875361Y-66417649D01*
X145876441Y-66410368D01*
X145878229Y-66403229D01*
X145880709Y-66396299D01*
X145883856Y-66389645D01*
X145887640Y-66383332D01*
X145892024Y-66377421D01*
X145896967Y-66371967D01*
X145902421Y-66367024D01*
X145908332Y-66362640D01*
X145914645Y-66358856D01*
X145921299Y-66355709D01*
X145928229Y-66353229D01*
X145935368Y-66351441D01*
X145942649Y-66350361D01*
X145950000Y-66350000D01*
X147250000Y-66350000D01*
X147257351Y-66350361D01*
G37*
G04 #@! TD.AperFunction*
G04 #@! TA.AperFunction,SMDPad,CuDef*
G36*
X147257351Y-65850361D02*
G01*
X147264632Y-65851441D01*
X147271771Y-65853229D01*
X147278701Y-65855709D01*
X147285355Y-65858856D01*
X147291668Y-65862640D01*
X147297579Y-65867024D01*
X147303033Y-65871967D01*
X147307976Y-65877421D01*
X147312360Y-65883332D01*
X147316144Y-65889645D01*
X147319291Y-65896299D01*
X147321771Y-65903229D01*
X147323559Y-65910368D01*
X147324639Y-65917649D01*
X147325000Y-65925000D01*
X147325000Y-66075000D01*
X147324639Y-66082351D01*
X147323559Y-66089632D01*
X147321771Y-66096771D01*
X147319291Y-66103701D01*
X147316144Y-66110355D01*
X147312360Y-66116668D01*
X147307976Y-66122579D01*
X147303033Y-66128033D01*
X147297579Y-66132976D01*
X147291668Y-66137360D01*
X147285355Y-66141144D01*
X147278701Y-66144291D01*
X147271771Y-66146771D01*
X147264632Y-66148559D01*
X147257351Y-66149639D01*
X147250000Y-66150000D01*
X145950000Y-66150000D01*
X145942649Y-66149639D01*
X145935368Y-66148559D01*
X145928229Y-66146771D01*
X145921299Y-66144291D01*
X145914645Y-66141144D01*
X145908332Y-66137360D01*
X145902421Y-66132976D01*
X145896967Y-66128033D01*
X145892024Y-66122579D01*
X145887640Y-66116668D01*
X145883856Y-66110355D01*
X145880709Y-66103701D01*
X145878229Y-66096771D01*
X145876441Y-66089632D01*
X145875361Y-66082351D01*
X145875000Y-66075000D01*
X145875000Y-65925000D01*
X145875361Y-65917649D01*
X145876441Y-65910368D01*
X145878229Y-65903229D01*
X145880709Y-65896299D01*
X145883856Y-65889645D01*
X145887640Y-65883332D01*
X145892024Y-65877421D01*
X145896967Y-65871967D01*
X145902421Y-65867024D01*
X145908332Y-65862640D01*
X145914645Y-65858856D01*
X145921299Y-65855709D01*
X145928229Y-65853229D01*
X145935368Y-65851441D01*
X145942649Y-65850361D01*
X145950000Y-65850000D01*
X147250000Y-65850000D01*
X147257351Y-65850361D01*
G37*
G04 #@! TD.AperFunction*
G04 #@! TA.AperFunction,SMDPad,CuDef*
G36*
X147257351Y-65350361D02*
G01*
X147264632Y-65351441D01*
X147271771Y-65353229D01*
X147278701Y-65355709D01*
X147285355Y-65358856D01*
X147291668Y-65362640D01*
X147297579Y-65367024D01*
X147303033Y-65371967D01*
X147307976Y-65377421D01*
X147312360Y-65383332D01*
X147316144Y-65389645D01*
X147319291Y-65396299D01*
X147321771Y-65403229D01*
X147323559Y-65410368D01*
X147324639Y-65417649D01*
X147325000Y-65425000D01*
X147325000Y-65575000D01*
X147324639Y-65582351D01*
X147323559Y-65589632D01*
X147321771Y-65596771D01*
X147319291Y-65603701D01*
X147316144Y-65610355D01*
X147312360Y-65616668D01*
X147307976Y-65622579D01*
X147303033Y-65628033D01*
X147297579Y-65632976D01*
X147291668Y-65637360D01*
X147285355Y-65641144D01*
X147278701Y-65644291D01*
X147271771Y-65646771D01*
X147264632Y-65648559D01*
X147257351Y-65649639D01*
X147250000Y-65650000D01*
X145950000Y-65650000D01*
X145942649Y-65649639D01*
X145935368Y-65648559D01*
X145928229Y-65646771D01*
X145921299Y-65644291D01*
X145914645Y-65641144D01*
X145908332Y-65637360D01*
X145902421Y-65632976D01*
X145896967Y-65628033D01*
X145892024Y-65622579D01*
X145887640Y-65616668D01*
X145883856Y-65610355D01*
X145880709Y-65603701D01*
X145878229Y-65596771D01*
X145876441Y-65589632D01*
X145875361Y-65582351D01*
X145875000Y-65575000D01*
X145875000Y-65425000D01*
X145875361Y-65417649D01*
X145876441Y-65410368D01*
X145878229Y-65403229D01*
X145880709Y-65396299D01*
X145883856Y-65389645D01*
X145887640Y-65383332D01*
X145892024Y-65377421D01*
X145896967Y-65371967D01*
X145902421Y-65367024D01*
X145908332Y-65362640D01*
X145914645Y-65358856D01*
X145921299Y-65355709D01*
X145928229Y-65353229D01*
X145935368Y-65351441D01*
X145942649Y-65350361D01*
X145950000Y-65350000D01*
X147250000Y-65350000D01*
X147257351Y-65350361D01*
G37*
G04 #@! TD.AperFunction*
G04 #@! TA.AperFunction,SMDPad,CuDef*
G36*
X147257351Y-64850361D02*
G01*
X147264632Y-64851441D01*
X147271771Y-64853229D01*
X147278701Y-64855709D01*
X147285355Y-64858856D01*
X147291668Y-64862640D01*
X147297579Y-64867024D01*
X147303033Y-64871967D01*
X147307976Y-64877421D01*
X147312360Y-64883332D01*
X147316144Y-64889645D01*
X147319291Y-64896299D01*
X147321771Y-64903229D01*
X147323559Y-64910368D01*
X147324639Y-64917649D01*
X147325000Y-64925000D01*
X147325000Y-65075000D01*
X147324639Y-65082351D01*
X147323559Y-65089632D01*
X147321771Y-65096771D01*
X147319291Y-65103701D01*
X147316144Y-65110355D01*
X147312360Y-65116668D01*
X147307976Y-65122579D01*
X147303033Y-65128033D01*
X147297579Y-65132976D01*
X147291668Y-65137360D01*
X147285355Y-65141144D01*
X147278701Y-65144291D01*
X147271771Y-65146771D01*
X147264632Y-65148559D01*
X147257351Y-65149639D01*
X147250000Y-65150000D01*
X145950000Y-65150000D01*
X145942649Y-65149639D01*
X145935368Y-65148559D01*
X145928229Y-65146771D01*
X145921299Y-65144291D01*
X145914645Y-65141144D01*
X145908332Y-65137360D01*
X145902421Y-65132976D01*
X145896967Y-65128033D01*
X145892024Y-65122579D01*
X145887640Y-65116668D01*
X145883856Y-65110355D01*
X145880709Y-65103701D01*
X145878229Y-65096771D01*
X145876441Y-65089632D01*
X145875361Y-65082351D01*
X145875000Y-65075000D01*
X145875000Y-64925000D01*
X145875361Y-64917649D01*
X145876441Y-64910368D01*
X145878229Y-64903229D01*
X145880709Y-64896299D01*
X145883856Y-64889645D01*
X145887640Y-64883332D01*
X145892024Y-64877421D01*
X145896967Y-64871967D01*
X145902421Y-64867024D01*
X145908332Y-64862640D01*
X145914645Y-64858856D01*
X145921299Y-64855709D01*
X145928229Y-64853229D01*
X145935368Y-64851441D01*
X145942649Y-64850361D01*
X145950000Y-64850000D01*
X147250000Y-64850000D01*
X147257351Y-64850361D01*
G37*
G04 #@! TD.AperFunction*
G04 #@! TA.AperFunction,SMDPad,CuDef*
G36*
X147257351Y-64350361D02*
G01*
X147264632Y-64351441D01*
X147271771Y-64353229D01*
X147278701Y-64355709D01*
X147285355Y-64358856D01*
X147291668Y-64362640D01*
X147297579Y-64367024D01*
X147303033Y-64371967D01*
X147307976Y-64377421D01*
X147312360Y-64383332D01*
X147316144Y-64389645D01*
X147319291Y-64396299D01*
X147321771Y-64403229D01*
X147323559Y-64410368D01*
X147324639Y-64417649D01*
X147325000Y-64425000D01*
X147325000Y-64575000D01*
X147324639Y-64582351D01*
X147323559Y-64589632D01*
X147321771Y-64596771D01*
X147319291Y-64603701D01*
X147316144Y-64610355D01*
X147312360Y-64616668D01*
X147307976Y-64622579D01*
X147303033Y-64628033D01*
X147297579Y-64632976D01*
X147291668Y-64637360D01*
X147285355Y-64641144D01*
X147278701Y-64644291D01*
X147271771Y-64646771D01*
X147264632Y-64648559D01*
X147257351Y-64649639D01*
X147250000Y-64650000D01*
X145950000Y-64650000D01*
X145942649Y-64649639D01*
X145935368Y-64648559D01*
X145928229Y-64646771D01*
X145921299Y-64644291D01*
X145914645Y-64641144D01*
X145908332Y-64637360D01*
X145902421Y-64632976D01*
X145896967Y-64628033D01*
X145892024Y-64622579D01*
X145887640Y-64616668D01*
X145883856Y-64610355D01*
X145880709Y-64603701D01*
X145878229Y-64596771D01*
X145876441Y-64589632D01*
X145875361Y-64582351D01*
X145875000Y-64575000D01*
X145875000Y-64425000D01*
X145875361Y-64417649D01*
X145876441Y-64410368D01*
X145878229Y-64403229D01*
X145880709Y-64396299D01*
X145883856Y-64389645D01*
X145887640Y-64383332D01*
X145892024Y-64377421D01*
X145896967Y-64371967D01*
X145902421Y-64367024D01*
X145908332Y-64362640D01*
X145914645Y-64358856D01*
X145921299Y-64355709D01*
X145928229Y-64353229D01*
X145935368Y-64351441D01*
X145942649Y-64350361D01*
X145950000Y-64350000D01*
X147250000Y-64350000D01*
X147257351Y-64350361D01*
G37*
G04 #@! TD.AperFunction*
G04 #@! TA.AperFunction,SMDPad,CuDef*
G36*
X146660779Y-69851144D02*
G01*
X146683834Y-69854563D01*
X146706443Y-69860227D01*
X146728387Y-69868079D01*
X146749457Y-69878044D01*
X146769448Y-69890026D01*
X146788168Y-69903910D01*
X146805438Y-69919562D01*
X146821090Y-69936832D01*
X146834974Y-69955552D01*
X146846956Y-69975543D01*
X146856921Y-69996613D01*
X146864773Y-70018557D01*
X146870437Y-70041166D01*
X146873856Y-70064221D01*
X146875000Y-70087500D01*
X146875000Y-70662500D01*
X146873856Y-70685779D01*
X146870437Y-70708834D01*
X146864773Y-70731443D01*
X146856921Y-70753387D01*
X146846956Y-70774457D01*
X146834974Y-70794448D01*
X146821090Y-70813168D01*
X146805438Y-70830438D01*
X146788168Y-70846090D01*
X146769448Y-70859974D01*
X146749457Y-70871956D01*
X146728387Y-70881921D01*
X146706443Y-70889773D01*
X146683834Y-70895437D01*
X146660779Y-70898856D01*
X146637500Y-70900000D01*
X146162500Y-70900000D01*
X146139221Y-70898856D01*
X146116166Y-70895437D01*
X146093557Y-70889773D01*
X146071613Y-70881921D01*
X146050543Y-70871956D01*
X146030552Y-70859974D01*
X146011832Y-70846090D01*
X145994562Y-70830438D01*
X145978910Y-70813168D01*
X145965026Y-70794448D01*
X145953044Y-70774457D01*
X145943079Y-70753387D01*
X145935227Y-70731443D01*
X145929563Y-70708834D01*
X145926144Y-70685779D01*
X145925000Y-70662500D01*
X145925000Y-70087500D01*
X145926144Y-70064221D01*
X145929563Y-70041166D01*
X145935227Y-70018557D01*
X145943079Y-69996613D01*
X145953044Y-69975543D01*
X145965026Y-69955552D01*
X145978910Y-69936832D01*
X145994562Y-69919562D01*
X146011832Y-69903910D01*
X146030552Y-69890026D01*
X146050543Y-69878044D01*
X146071613Y-69868079D01*
X146093557Y-69860227D01*
X146116166Y-69854563D01*
X146139221Y-69851144D01*
X146162500Y-69850000D01*
X146637500Y-69850000D01*
X146660779Y-69851144D01*
G37*
G04 #@! TD.AperFunction*
G04 #@! TA.AperFunction,SMDPad,CuDef*
G36*
X146660779Y-68101144D02*
G01*
X146683834Y-68104563D01*
X146706443Y-68110227D01*
X146728387Y-68118079D01*
X146749457Y-68128044D01*
X146769448Y-68140026D01*
X146788168Y-68153910D01*
X146805438Y-68169562D01*
X146821090Y-68186832D01*
X146834974Y-68205552D01*
X146846956Y-68225543D01*
X146856921Y-68246613D01*
X146864773Y-68268557D01*
X146870437Y-68291166D01*
X146873856Y-68314221D01*
X146875000Y-68337500D01*
X146875000Y-68912500D01*
X146873856Y-68935779D01*
X146870437Y-68958834D01*
X146864773Y-68981443D01*
X146856921Y-69003387D01*
X146846956Y-69024457D01*
X146834974Y-69044448D01*
X146821090Y-69063168D01*
X146805438Y-69080438D01*
X146788168Y-69096090D01*
X146769448Y-69109974D01*
X146749457Y-69121956D01*
X146728387Y-69131921D01*
X146706443Y-69139773D01*
X146683834Y-69145437D01*
X146660779Y-69148856D01*
X146637500Y-69150000D01*
X146162500Y-69150000D01*
X146139221Y-69148856D01*
X146116166Y-69145437D01*
X146093557Y-69139773D01*
X146071613Y-69131921D01*
X146050543Y-69121956D01*
X146030552Y-69109974D01*
X146011832Y-69096090D01*
X145994562Y-69080438D01*
X145978910Y-69063168D01*
X145965026Y-69044448D01*
X145953044Y-69024457D01*
X145943079Y-69003387D01*
X145935227Y-68981443D01*
X145929563Y-68958834D01*
X145926144Y-68935779D01*
X145925000Y-68912500D01*
X145925000Y-68337500D01*
X145926144Y-68314221D01*
X145929563Y-68291166D01*
X145935227Y-68268557D01*
X145943079Y-68246613D01*
X145953044Y-68225543D01*
X145965026Y-68205552D01*
X145978910Y-68186832D01*
X145994562Y-68169562D01*
X146011832Y-68153910D01*
X146030552Y-68140026D01*
X146050543Y-68128044D01*
X146071613Y-68118079D01*
X146093557Y-68110227D01*
X146116166Y-68104563D01*
X146139221Y-68101144D01*
X146162500Y-68100000D01*
X146637500Y-68100000D01*
X146660779Y-68101144D01*
G37*
G04 #@! TD.AperFunction*
G04 #@! TA.AperFunction,SMDPad,CuDef*
G36*
X144560779Y-69776144D02*
G01*
X144583834Y-69779563D01*
X144606443Y-69785227D01*
X144628387Y-69793079D01*
X144649457Y-69803044D01*
X144669448Y-69815026D01*
X144688168Y-69828910D01*
X144705438Y-69844562D01*
X144721090Y-69861832D01*
X144734974Y-69880552D01*
X144746956Y-69900543D01*
X144756921Y-69921613D01*
X144764773Y-69943557D01*
X144770437Y-69966166D01*
X144773856Y-69989221D01*
X144775000Y-70012500D01*
X144775000Y-70587500D01*
X144773856Y-70610779D01*
X144770437Y-70633834D01*
X144764773Y-70656443D01*
X144756921Y-70678387D01*
X144746956Y-70699457D01*
X144734974Y-70719448D01*
X144721090Y-70738168D01*
X144705438Y-70755438D01*
X144688168Y-70771090D01*
X144669448Y-70784974D01*
X144649457Y-70796956D01*
X144628387Y-70806921D01*
X144606443Y-70814773D01*
X144583834Y-70820437D01*
X144560779Y-70823856D01*
X144537500Y-70825000D01*
X144062500Y-70825000D01*
X144039221Y-70823856D01*
X144016166Y-70820437D01*
X143993557Y-70814773D01*
X143971613Y-70806921D01*
X143950543Y-70796956D01*
X143930552Y-70784974D01*
X143911832Y-70771090D01*
X143894562Y-70755438D01*
X143878910Y-70738168D01*
X143865026Y-70719448D01*
X143853044Y-70699457D01*
X143843079Y-70678387D01*
X143835227Y-70656443D01*
X143829563Y-70633834D01*
X143826144Y-70610779D01*
X143825000Y-70587500D01*
X143825000Y-70012500D01*
X143826144Y-69989221D01*
X143829563Y-69966166D01*
X143835227Y-69943557D01*
X143843079Y-69921613D01*
X143853044Y-69900543D01*
X143865026Y-69880552D01*
X143878910Y-69861832D01*
X143894562Y-69844562D01*
X143911832Y-69828910D01*
X143930552Y-69815026D01*
X143950543Y-69803044D01*
X143971613Y-69793079D01*
X143993557Y-69785227D01*
X144016166Y-69779563D01*
X144039221Y-69776144D01*
X144062500Y-69775000D01*
X144537500Y-69775000D01*
X144560779Y-69776144D01*
G37*
G04 #@! TD.AperFunction*
G04 #@! TA.AperFunction,SMDPad,CuDef*
G36*
X144560779Y-68026144D02*
G01*
X144583834Y-68029563D01*
X144606443Y-68035227D01*
X144628387Y-68043079D01*
X144649457Y-68053044D01*
X144669448Y-68065026D01*
X144688168Y-68078910D01*
X144705438Y-68094562D01*
X144721090Y-68111832D01*
X144734974Y-68130552D01*
X144746956Y-68150543D01*
X144756921Y-68171613D01*
X144764773Y-68193557D01*
X144770437Y-68216166D01*
X144773856Y-68239221D01*
X144775000Y-68262500D01*
X144775000Y-68837500D01*
X144773856Y-68860779D01*
X144770437Y-68883834D01*
X144764773Y-68906443D01*
X144756921Y-68928387D01*
X144746956Y-68949457D01*
X144734974Y-68969448D01*
X144721090Y-68988168D01*
X144705438Y-69005438D01*
X144688168Y-69021090D01*
X144669448Y-69034974D01*
X144649457Y-69046956D01*
X144628387Y-69056921D01*
X144606443Y-69064773D01*
X144583834Y-69070437D01*
X144560779Y-69073856D01*
X144537500Y-69075000D01*
X144062500Y-69075000D01*
X144039221Y-69073856D01*
X144016166Y-69070437D01*
X143993557Y-69064773D01*
X143971613Y-69056921D01*
X143950543Y-69046956D01*
X143930552Y-69034974D01*
X143911832Y-69021090D01*
X143894562Y-69005438D01*
X143878910Y-68988168D01*
X143865026Y-68969448D01*
X143853044Y-68949457D01*
X143843079Y-68928387D01*
X143835227Y-68906443D01*
X143829563Y-68883834D01*
X143826144Y-68860779D01*
X143825000Y-68837500D01*
X143825000Y-68262500D01*
X143826144Y-68239221D01*
X143829563Y-68216166D01*
X143835227Y-68193557D01*
X143843079Y-68171613D01*
X143853044Y-68150543D01*
X143865026Y-68130552D01*
X143878910Y-68111832D01*
X143894562Y-68094562D01*
X143911832Y-68078910D01*
X143930552Y-68065026D01*
X143950543Y-68053044D01*
X143971613Y-68043079D01*
X143993557Y-68035227D01*
X144016166Y-68029563D01*
X144039221Y-68026144D01*
X144062500Y-68025000D01*
X144537500Y-68025000D01*
X144560779Y-68026144D01*
G37*
G04 #@! TD.AperFunction*
G04 #@! TA.AperFunction,SMDPad,CuDef*
G36*
X153360779Y-71251144D02*
G01*
X153383834Y-71254563D01*
X153406443Y-71260227D01*
X153428387Y-71268079D01*
X153449457Y-71278044D01*
X153469448Y-71290026D01*
X153488168Y-71303910D01*
X153505438Y-71319562D01*
X153521090Y-71336832D01*
X153534974Y-71355552D01*
X153546956Y-71375543D01*
X153556921Y-71396613D01*
X153564773Y-71418557D01*
X153570437Y-71441166D01*
X153573856Y-71464221D01*
X153575000Y-71487500D01*
X153575000Y-72062500D01*
X153573856Y-72085779D01*
X153570437Y-72108834D01*
X153564773Y-72131443D01*
X153556921Y-72153387D01*
X153546956Y-72174457D01*
X153534974Y-72194448D01*
X153521090Y-72213168D01*
X153505438Y-72230438D01*
X153488168Y-72246090D01*
X153469448Y-72259974D01*
X153449457Y-72271956D01*
X153428387Y-72281921D01*
X153406443Y-72289773D01*
X153383834Y-72295437D01*
X153360779Y-72298856D01*
X153337500Y-72300000D01*
X152862500Y-72300000D01*
X152839221Y-72298856D01*
X152816166Y-72295437D01*
X152793557Y-72289773D01*
X152771613Y-72281921D01*
X152750543Y-72271956D01*
X152730552Y-72259974D01*
X152711832Y-72246090D01*
X152694562Y-72230438D01*
X152678910Y-72213168D01*
X152665026Y-72194448D01*
X152653044Y-72174457D01*
X152643079Y-72153387D01*
X152635227Y-72131443D01*
X152629563Y-72108834D01*
X152626144Y-72085779D01*
X152625000Y-72062500D01*
X152625000Y-71487500D01*
X152626144Y-71464221D01*
X152629563Y-71441166D01*
X152635227Y-71418557D01*
X152643079Y-71396613D01*
X152653044Y-71375543D01*
X152665026Y-71355552D01*
X152678910Y-71336832D01*
X152694562Y-71319562D01*
X152711832Y-71303910D01*
X152730552Y-71290026D01*
X152750543Y-71278044D01*
X152771613Y-71268079D01*
X152793557Y-71260227D01*
X152816166Y-71254563D01*
X152839221Y-71251144D01*
X152862500Y-71250000D01*
X153337500Y-71250000D01*
X153360779Y-71251144D01*
G37*
G04 #@! TD.AperFunction*
G04 #@! TA.AperFunction,SMDPad,CuDef*
G36*
X153360779Y-69501144D02*
G01*
X153383834Y-69504563D01*
X153406443Y-69510227D01*
X153428387Y-69518079D01*
X153449457Y-69528044D01*
X153469448Y-69540026D01*
X153488168Y-69553910D01*
X153505438Y-69569562D01*
X153521090Y-69586832D01*
X153534974Y-69605552D01*
X153546956Y-69625543D01*
X153556921Y-69646613D01*
X153564773Y-69668557D01*
X153570437Y-69691166D01*
X153573856Y-69714221D01*
X153575000Y-69737500D01*
X153575000Y-70312500D01*
X153573856Y-70335779D01*
X153570437Y-70358834D01*
X153564773Y-70381443D01*
X153556921Y-70403387D01*
X153546956Y-70424457D01*
X153534974Y-70444448D01*
X153521090Y-70463168D01*
X153505438Y-70480438D01*
X153488168Y-70496090D01*
X153469448Y-70509974D01*
X153449457Y-70521956D01*
X153428387Y-70531921D01*
X153406443Y-70539773D01*
X153383834Y-70545437D01*
X153360779Y-70548856D01*
X153337500Y-70550000D01*
X152862500Y-70550000D01*
X152839221Y-70548856D01*
X152816166Y-70545437D01*
X152793557Y-70539773D01*
X152771613Y-70531921D01*
X152750543Y-70521956D01*
X152730552Y-70509974D01*
X152711832Y-70496090D01*
X152694562Y-70480438D01*
X152678910Y-70463168D01*
X152665026Y-70444448D01*
X152653044Y-70424457D01*
X152643079Y-70403387D01*
X152635227Y-70381443D01*
X152629563Y-70358834D01*
X152626144Y-70335779D01*
X152625000Y-70312500D01*
X152625000Y-69737500D01*
X152626144Y-69714221D01*
X152629563Y-69691166D01*
X152635227Y-69668557D01*
X152643079Y-69646613D01*
X152653044Y-69625543D01*
X152665026Y-69605552D01*
X152678910Y-69586832D01*
X152694562Y-69569562D01*
X152711832Y-69553910D01*
X152730552Y-69540026D01*
X152750543Y-69528044D01*
X152771613Y-69518079D01*
X152793557Y-69510227D01*
X152816166Y-69504563D01*
X152839221Y-69501144D01*
X152862500Y-69500000D01*
X153337500Y-69500000D01*
X153360779Y-69501144D01*
G37*
G04 #@! TD.AperFunction*
G04 #@! TA.AperFunction,SMDPad,CuDef*
G36*
X134774505Y-62101204D02*
G01*
X134798773Y-62104804D01*
X134822572Y-62110765D01*
X134845671Y-62119030D01*
X134867850Y-62129520D01*
X134888893Y-62142132D01*
X134908599Y-62156747D01*
X134926777Y-62173223D01*
X134943253Y-62191401D01*
X134957868Y-62211107D01*
X134970480Y-62232150D01*
X134980970Y-62254329D01*
X134989235Y-62277428D01*
X134995196Y-62301227D01*
X134998796Y-62325495D01*
X135000000Y-62349999D01*
X135000000Y-63050001D01*
X134998796Y-63074505D01*
X134995196Y-63098773D01*
X134989235Y-63122572D01*
X134980970Y-63145671D01*
X134970480Y-63167850D01*
X134957868Y-63188893D01*
X134943253Y-63208599D01*
X134926777Y-63226777D01*
X134908599Y-63243253D01*
X134888893Y-63257868D01*
X134867850Y-63270480D01*
X134845671Y-63280970D01*
X134822572Y-63289235D01*
X134798773Y-63295196D01*
X134774505Y-63298796D01*
X134750001Y-63300000D01*
X133449999Y-63300000D01*
X133425495Y-63298796D01*
X133401227Y-63295196D01*
X133377428Y-63289235D01*
X133354329Y-63280970D01*
X133332150Y-63270480D01*
X133311107Y-63257868D01*
X133291401Y-63243253D01*
X133273223Y-63226777D01*
X133256747Y-63208599D01*
X133242132Y-63188893D01*
X133229520Y-63167850D01*
X133219030Y-63145671D01*
X133210765Y-63122572D01*
X133204804Y-63098773D01*
X133201204Y-63074505D01*
X133200000Y-63050001D01*
X133200000Y-62349999D01*
X133201204Y-62325495D01*
X133204804Y-62301227D01*
X133210765Y-62277428D01*
X133219030Y-62254329D01*
X133229520Y-62232150D01*
X133242132Y-62211107D01*
X133256747Y-62191401D01*
X133273223Y-62173223D01*
X133291401Y-62156747D01*
X133311107Y-62142132D01*
X133332150Y-62129520D01*
X133354329Y-62119030D01*
X133377428Y-62110765D01*
X133401227Y-62104804D01*
X133425495Y-62101204D01*
X133449999Y-62100000D01*
X134750001Y-62100000D01*
X134774505Y-62101204D01*
G37*
G04 #@! TD.AperFunction*
G04 #@! TA.AperFunction,SMDPad,CuDef*
G36*
X134774505Y-67701204D02*
G01*
X134798773Y-67704804D01*
X134822572Y-67710765D01*
X134845671Y-67719030D01*
X134867850Y-67729520D01*
X134888893Y-67742132D01*
X134908599Y-67756747D01*
X134926777Y-67773223D01*
X134943253Y-67791401D01*
X134957868Y-67811107D01*
X134970480Y-67832150D01*
X134980970Y-67854329D01*
X134989235Y-67877428D01*
X134995196Y-67901227D01*
X134998796Y-67925495D01*
X135000000Y-67949999D01*
X135000000Y-68650001D01*
X134998796Y-68674505D01*
X134995196Y-68698773D01*
X134989235Y-68722572D01*
X134980970Y-68745671D01*
X134970480Y-68767850D01*
X134957868Y-68788893D01*
X134943253Y-68808599D01*
X134926777Y-68826777D01*
X134908599Y-68843253D01*
X134888893Y-68857868D01*
X134867850Y-68870480D01*
X134845671Y-68880970D01*
X134822572Y-68889235D01*
X134798773Y-68895196D01*
X134774505Y-68898796D01*
X134750001Y-68900000D01*
X133449999Y-68900000D01*
X133425495Y-68898796D01*
X133401227Y-68895196D01*
X133377428Y-68889235D01*
X133354329Y-68880970D01*
X133332150Y-68870480D01*
X133311107Y-68857868D01*
X133291401Y-68843253D01*
X133273223Y-68826777D01*
X133256747Y-68808599D01*
X133242132Y-68788893D01*
X133229520Y-68767850D01*
X133219030Y-68745671D01*
X133210765Y-68722572D01*
X133204804Y-68698773D01*
X133201204Y-68674505D01*
X133200000Y-68650001D01*
X133200000Y-67949999D01*
X133201204Y-67925495D01*
X133204804Y-67901227D01*
X133210765Y-67877428D01*
X133219030Y-67854329D01*
X133229520Y-67832150D01*
X133242132Y-67811107D01*
X133256747Y-67791401D01*
X133273223Y-67773223D01*
X133291401Y-67756747D01*
X133311107Y-67742132D01*
X133332150Y-67729520D01*
X133354329Y-67719030D01*
X133377428Y-67710765D01*
X133401227Y-67704804D01*
X133425495Y-67701204D01*
X133449999Y-67700000D01*
X134750001Y-67700000D01*
X134774505Y-67701204D01*
G37*
G04 #@! TD.AperFunction*
G04 #@! TA.AperFunction,SMDPad,CuDef*
G36*
X137264703Y-63700722D02*
G01*
X137279264Y-63702882D01*
X137293543Y-63706459D01*
X137307403Y-63711418D01*
X137320710Y-63717712D01*
X137333336Y-63725280D01*
X137345159Y-63734048D01*
X137356066Y-63743934D01*
X137365952Y-63754841D01*
X137374720Y-63766664D01*
X137382288Y-63779290D01*
X137388582Y-63792597D01*
X137393541Y-63806457D01*
X137397118Y-63820736D01*
X137399278Y-63835297D01*
X137400000Y-63850000D01*
X137400000Y-64150000D01*
X137399278Y-64164703D01*
X137397118Y-64179264D01*
X137393541Y-64193543D01*
X137388582Y-64207403D01*
X137382288Y-64220710D01*
X137374720Y-64233336D01*
X137365952Y-64245159D01*
X137356066Y-64256066D01*
X137345159Y-64265952D01*
X137333336Y-64274720D01*
X137320710Y-64282288D01*
X137307403Y-64288582D01*
X137293543Y-64293541D01*
X137279264Y-64297118D01*
X137264703Y-64299278D01*
X137250000Y-64300000D01*
X136000000Y-64300000D01*
X135985297Y-64299278D01*
X135970736Y-64297118D01*
X135956457Y-64293541D01*
X135942597Y-64288582D01*
X135929290Y-64282288D01*
X135916664Y-64274720D01*
X135904841Y-64265952D01*
X135893934Y-64256066D01*
X135884048Y-64245159D01*
X135875280Y-64233336D01*
X135867712Y-64220710D01*
X135861418Y-64207403D01*
X135856459Y-64193543D01*
X135852882Y-64179264D01*
X135850722Y-64164703D01*
X135850000Y-64150000D01*
X135850000Y-63850000D01*
X135850722Y-63835297D01*
X135852882Y-63820736D01*
X135856459Y-63806457D01*
X135861418Y-63792597D01*
X135867712Y-63779290D01*
X135875280Y-63766664D01*
X135884048Y-63754841D01*
X135893934Y-63743934D01*
X135904841Y-63734048D01*
X135916664Y-63725280D01*
X135929290Y-63717712D01*
X135942597Y-63711418D01*
X135956457Y-63706459D01*
X135970736Y-63702882D01*
X135985297Y-63700722D01*
X136000000Y-63700000D01*
X137250000Y-63700000D01*
X137264703Y-63700722D01*
G37*
G04 #@! TD.AperFunction*
G04 #@! TA.AperFunction,SMDPad,CuDef*
G36*
X137264703Y-64700722D02*
G01*
X137279264Y-64702882D01*
X137293543Y-64706459D01*
X137307403Y-64711418D01*
X137320710Y-64717712D01*
X137333336Y-64725280D01*
X137345159Y-64734048D01*
X137356066Y-64743934D01*
X137365952Y-64754841D01*
X137374720Y-64766664D01*
X137382288Y-64779290D01*
X137388582Y-64792597D01*
X137393541Y-64806457D01*
X137397118Y-64820736D01*
X137399278Y-64835297D01*
X137400000Y-64850000D01*
X137400000Y-65150000D01*
X137399278Y-65164703D01*
X137397118Y-65179264D01*
X137393541Y-65193543D01*
X137388582Y-65207403D01*
X137382288Y-65220710D01*
X137374720Y-65233336D01*
X137365952Y-65245159D01*
X137356066Y-65256066D01*
X137345159Y-65265952D01*
X137333336Y-65274720D01*
X137320710Y-65282288D01*
X137307403Y-65288582D01*
X137293543Y-65293541D01*
X137279264Y-65297118D01*
X137264703Y-65299278D01*
X137250000Y-65300000D01*
X136000000Y-65300000D01*
X135985297Y-65299278D01*
X135970736Y-65297118D01*
X135956457Y-65293541D01*
X135942597Y-65288582D01*
X135929290Y-65282288D01*
X135916664Y-65274720D01*
X135904841Y-65265952D01*
X135893934Y-65256066D01*
X135884048Y-65245159D01*
X135875280Y-65233336D01*
X135867712Y-65220710D01*
X135861418Y-65207403D01*
X135856459Y-65193543D01*
X135852882Y-65179264D01*
X135850722Y-65164703D01*
X135850000Y-65150000D01*
X135850000Y-64850000D01*
X135850722Y-64835297D01*
X135852882Y-64820736D01*
X135856459Y-64806457D01*
X135861418Y-64792597D01*
X135867712Y-64779290D01*
X135875280Y-64766664D01*
X135884048Y-64754841D01*
X135893934Y-64743934D01*
X135904841Y-64734048D01*
X135916664Y-64725280D01*
X135929290Y-64717712D01*
X135942597Y-64711418D01*
X135956457Y-64706459D01*
X135970736Y-64702882D01*
X135985297Y-64700722D01*
X136000000Y-64700000D01*
X137250000Y-64700000D01*
X137264703Y-64700722D01*
G37*
G04 #@! TD.AperFunction*
G04 #@! TA.AperFunction,SMDPad,CuDef*
G36*
X137264703Y-65700722D02*
G01*
X137279264Y-65702882D01*
X137293543Y-65706459D01*
X137307403Y-65711418D01*
X137320710Y-65717712D01*
X137333336Y-65725280D01*
X137345159Y-65734048D01*
X137356066Y-65743934D01*
X137365952Y-65754841D01*
X137374720Y-65766664D01*
X137382288Y-65779290D01*
X137388582Y-65792597D01*
X137393541Y-65806457D01*
X137397118Y-65820736D01*
X137399278Y-65835297D01*
X137400000Y-65850000D01*
X137400000Y-66150000D01*
X137399278Y-66164703D01*
X137397118Y-66179264D01*
X137393541Y-66193543D01*
X137388582Y-66207403D01*
X137382288Y-66220710D01*
X137374720Y-66233336D01*
X137365952Y-66245159D01*
X137356066Y-66256066D01*
X137345159Y-66265952D01*
X137333336Y-66274720D01*
X137320710Y-66282288D01*
X137307403Y-66288582D01*
X137293543Y-66293541D01*
X137279264Y-66297118D01*
X137264703Y-66299278D01*
X137250000Y-66300000D01*
X136000000Y-66300000D01*
X135985297Y-66299278D01*
X135970736Y-66297118D01*
X135956457Y-66293541D01*
X135942597Y-66288582D01*
X135929290Y-66282288D01*
X135916664Y-66274720D01*
X135904841Y-66265952D01*
X135893934Y-66256066D01*
X135884048Y-66245159D01*
X135875280Y-66233336D01*
X135867712Y-66220710D01*
X135861418Y-66207403D01*
X135856459Y-66193543D01*
X135852882Y-66179264D01*
X135850722Y-66164703D01*
X135850000Y-66150000D01*
X135850000Y-65850000D01*
X135850722Y-65835297D01*
X135852882Y-65820736D01*
X135856459Y-65806457D01*
X135861418Y-65792597D01*
X135867712Y-65779290D01*
X135875280Y-65766664D01*
X135884048Y-65754841D01*
X135893934Y-65743934D01*
X135904841Y-65734048D01*
X135916664Y-65725280D01*
X135929290Y-65717712D01*
X135942597Y-65711418D01*
X135956457Y-65706459D01*
X135970736Y-65702882D01*
X135985297Y-65700722D01*
X136000000Y-65700000D01*
X137250000Y-65700000D01*
X137264703Y-65700722D01*
G37*
G04 #@! TD.AperFunction*
G04 #@! TA.AperFunction,SMDPad,CuDef*
G36*
X137264703Y-66700722D02*
G01*
X137279264Y-66702882D01*
X137293543Y-66706459D01*
X137307403Y-66711418D01*
X137320710Y-66717712D01*
X137333336Y-66725280D01*
X137345159Y-66734048D01*
X137356066Y-66743934D01*
X137365952Y-66754841D01*
X137374720Y-66766664D01*
X137382288Y-66779290D01*
X137388582Y-66792597D01*
X137393541Y-66806457D01*
X137397118Y-66820736D01*
X137399278Y-66835297D01*
X137400000Y-66850000D01*
X137400000Y-67150000D01*
X137399278Y-67164703D01*
X137397118Y-67179264D01*
X137393541Y-67193543D01*
X137388582Y-67207403D01*
X137382288Y-67220710D01*
X137374720Y-67233336D01*
X137365952Y-67245159D01*
X137356066Y-67256066D01*
X137345159Y-67265952D01*
X137333336Y-67274720D01*
X137320710Y-67282288D01*
X137307403Y-67288582D01*
X137293543Y-67293541D01*
X137279264Y-67297118D01*
X137264703Y-67299278D01*
X137250000Y-67300000D01*
X136000000Y-67300000D01*
X135985297Y-67299278D01*
X135970736Y-67297118D01*
X135956457Y-67293541D01*
X135942597Y-67288582D01*
X135929290Y-67282288D01*
X135916664Y-67274720D01*
X135904841Y-67265952D01*
X135893934Y-67256066D01*
X135884048Y-67245159D01*
X135875280Y-67233336D01*
X135867712Y-67220710D01*
X135861418Y-67207403D01*
X135856459Y-67193543D01*
X135852882Y-67179264D01*
X135850722Y-67164703D01*
X135850000Y-67150000D01*
X135850000Y-66850000D01*
X135850722Y-66835297D01*
X135852882Y-66820736D01*
X135856459Y-66806457D01*
X135861418Y-66792597D01*
X135867712Y-66779290D01*
X135875280Y-66766664D01*
X135884048Y-66754841D01*
X135893934Y-66743934D01*
X135904841Y-66734048D01*
X135916664Y-66725280D01*
X135929290Y-66717712D01*
X135942597Y-66711418D01*
X135956457Y-66706459D01*
X135970736Y-66702882D01*
X135985297Y-66700722D01*
X136000000Y-66700000D01*
X137250000Y-66700000D01*
X137264703Y-66700722D01*
G37*
G04 #@! TD.AperFunction*
G04 #@! TA.AperFunction,SMDPad,CuDef*
G36*
X151385779Y-67726144D02*
G01*
X151408834Y-67729563D01*
X151431443Y-67735227D01*
X151453387Y-67743079D01*
X151474457Y-67753044D01*
X151494448Y-67765026D01*
X151513168Y-67778910D01*
X151530438Y-67794562D01*
X151546090Y-67811832D01*
X151559974Y-67830552D01*
X151571956Y-67850543D01*
X151581921Y-67871613D01*
X151589773Y-67893557D01*
X151595437Y-67916166D01*
X151598856Y-67939221D01*
X151600000Y-67962500D01*
X151600000Y-68437500D01*
X151598856Y-68460779D01*
X151595437Y-68483834D01*
X151589773Y-68506443D01*
X151581921Y-68528387D01*
X151571956Y-68549457D01*
X151559974Y-68569448D01*
X151546090Y-68588168D01*
X151530438Y-68605438D01*
X151513168Y-68621090D01*
X151494448Y-68634974D01*
X151474457Y-68646956D01*
X151453387Y-68656921D01*
X151431443Y-68664773D01*
X151408834Y-68670437D01*
X151385779Y-68673856D01*
X151362500Y-68675000D01*
X150787500Y-68675000D01*
X150764221Y-68673856D01*
X150741166Y-68670437D01*
X150718557Y-68664773D01*
X150696613Y-68656921D01*
X150675543Y-68646956D01*
X150655552Y-68634974D01*
X150636832Y-68621090D01*
X150619562Y-68605438D01*
X150603910Y-68588168D01*
X150590026Y-68569448D01*
X150578044Y-68549457D01*
X150568079Y-68528387D01*
X150560227Y-68506443D01*
X150554563Y-68483834D01*
X150551144Y-68460779D01*
X150550000Y-68437500D01*
X150550000Y-67962500D01*
X150551144Y-67939221D01*
X150554563Y-67916166D01*
X150560227Y-67893557D01*
X150568079Y-67871613D01*
X150578044Y-67850543D01*
X150590026Y-67830552D01*
X150603910Y-67811832D01*
X150619562Y-67794562D01*
X150636832Y-67778910D01*
X150655552Y-67765026D01*
X150675543Y-67753044D01*
X150696613Y-67743079D01*
X150718557Y-67735227D01*
X150741166Y-67729563D01*
X150764221Y-67726144D01*
X150787500Y-67725000D01*
X151362500Y-67725000D01*
X151385779Y-67726144D01*
G37*
G04 #@! TD.AperFunction*
G04 #@! TA.AperFunction,SMDPad,CuDef*
G36*
X149635779Y-67726144D02*
G01*
X149658834Y-67729563D01*
X149681443Y-67735227D01*
X149703387Y-67743079D01*
X149724457Y-67753044D01*
X149744448Y-67765026D01*
X149763168Y-67778910D01*
X149780438Y-67794562D01*
X149796090Y-67811832D01*
X149809974Y-67830552D01*
X149821956Y-67850543D01*
X149831921Y-67871613D01*
X149839773Y-67893557D01*
X149845437Y-67916166D01*
X149848856Y-67939221D01*
X149850000Y-67962500D01*
X149850000Y-68437500D01*
X149848856Y-68460779D01*
X149845437Y-68483834D01*
X149839773Y-68506443D01*
X149831921Y-68528387D01*
X149821956Y-68549457D01*
X149809974Y-68569448D01*
X149796090Y-68588168D01*
X149780438Y-68605438D01*
X149763168Y-68621090D01*
X149744448Y-68634974D01*
X149724457Y-68646956D01*
X149703387Y-68656921D01*
X149681443Y-68664773D01*
X149658834Y-68670437D01*
X149635779Y-68673856D01*
X149612500Y-68675000D01*
X149037500Y-68675000D01*
X149014221Y-68673856D01*
X148991166Y-68670437D01*
X148968557Y-68664773D01*
X148946613Y-68656921D01*
X148925543Y-68646956D01*
X148905552Y-68634974D01*
X148886832Y-68621090D01*
X148869562Y-68605438D01*
X148853910Y-68588168D01*
X148840026Y-68569448D01*
X148828044Y-68549457D01*
X148818079Y-68528387D01*
X148810227Y-68506443D01*
X148804563Y-68483834D01*
X148801144Y-68460779D01*
X148800000Y-68437500D01*
X148800000Y-67962500D01*
X148801144Y-67939221D01*
X148804563Y-67916166D01*
X148810227Y-67893557D01*
X148818079Y-67871613D01*
X148828044Y-67850543D01*
X148840026Y-67830552D01*
X148853910Y-67811832D01*
X148869562Y-67794562D01*
X148886832Y-67778910D01*
X148905552Y-67765026D01*
X148925543Y-67753044D01*
X148946613Y-67743079D01*
X148968557Y-67735227D01*
X148991166Y-67729563D01*
X149014221Y-67726144D01*
X149037500Y-67725000D01*
X149612500Y-67725000D01*
X149635779Y-67726144D01*
G37*
G04 #@! TD.AperFunction*
G04 #@! TA.AperFunction,SMDPad,CuDef*
G36*
X140485779Y-73626144D02*
G01*
X140508834Y-73629563D01*
X140531443Y-73635227D01*
X140553387Y-73643079D01*
X140574457Y-73653044D01*
X140594448Y-73665026D01*
X140613168Y-73678910D01*
X140630438Y-73694562D01*
X140646090Y-73711832D01*
X140659974Y-73730552D01*
X140671956Y-73750543D01*
X140681921Y-73771613D01*
X140689773Y-73793557D01*
X140695437Y-73816166D01*
X140698856Y-73839221D01*
X140700000Y-73862500D01*
X140700000Y-74337500D01*
X140698856Y-74360779D01*
X140695437Y-74383834D01*
X140689773Y-74406443D01*
X140681921Y-74428387D01*
X140671956Y-74449457D01*
X140659974Y-74469448D01*
X140646090Y-74488168D01*
X140630438Y-74505438D01*
X140613168Y-74521090D01*
X140594448Y-74534974D01*
X140574457Y-74546956D01*
X140553387Y-74556921D01*
X140531443Y-74564773D01*
X140508834Y-74570437D01*
X140485779Y-74573856D01*
X140462500Y-74575000D01*
X139887500Y-74575000D01*
X139864221Y-74573856D01*
X139841166Y-74570437D01*
X139818557Y-74564773D01*
X139796613Y-74556921D01*
X139775543Y-74546956D01*
X139755552Y-74534974D01*
X139736832Y-74521090D01*
X139719562Y-74505438D01*
X139703910Y-74488168D01*
X139690026Y-74469448D01*
X139678044Y-74449457D01*
X139668079Y-74428387D01*
X139660227Y-74406443D01*
X139654563Y-74383834D01*
X139651144Y-74360779D01*
X139650000Y-74337500D01*
X139650000Y-73862500D01*
X139651144Y-73839221D01*
X139654563Y-73816166D01*
X139660227Y-73793557D01*
X139668079Y-73771613D01*
X139678044Y-73750543D01*
X139690026Y-73730552D01*
X139703910Y-73711832D01*
X139719562Y-73694562D01*
X139736832Y-73678910D01*
X139755552Y-73665026D01*
X139775543Y-73653044D01*
X139796613Y-73643079D01*
X139818557Y-73635227D01*
X139841166Y-73629563D01*
X139864221Y-73626144D01*
X139887500Y-73625000D01*
X140462500Y-73625000D01*
X140485779Y-73626144D01*
G37*
G04 #@! TD.AperFunction*
G04 #@! TA.AperFunction,SMDPad,CuDef*
G36*
X138735779Y-73626144D02*
G01*
X138758834Y-73629563D01*
X138781443Y-73635227D01*
X138803387Y-73643079D01*
X138824457Y-73653044D01*
X138844448Y-73665026D01*
X138863168Y-73678910D01*
X138880438Y-73694562D01*
X138896090Y-73711832D01*
X138909974Y-73730552D01*
X138921956Y-73750543D01*
X138931921Y-73771613D01*
X138939773Y-73793557D01*
X138945437Y-73816166D01*
X138948856Y-73839221D01*
X138950000Y-73862500D01*
X138950000Y-74337500D01*
X138948856Y-74360779D01*
X138945437Y-74383834D01*
X138939773Y-74406443D01*
X138931921Y-74428387D01*
X138921956Y-74449457D01*
X138909974Y-74469448D01*
X138896090Y-74488168D01*
X138880438Y-74505438D01*
X138863168Y-74521090D01*
X138844448Y-74534974D01*
X138824457Y-74546956D01*
X138803387Y-74556921D01*
X138781443Y-74564773D01*
X138758834Y-74570437D01*
X138735779Y-74573856D01*
X138712500Y-74575000D01*
X138137500Y-74575000D01*
X138114221Y-74573856D01*
X138091166Y-74570437D01*
X138068557Y-74564773D01*
X138046613Y-74556921D01*
X138025543Y-74546956D01*
X138005552Y-74534974D01*
X137986832Y-74521090D01*
X137969562Y-74505438D01*
X137953910Y-74488168D01*
X137940026Y-74469448D01*
X137928044Y-74449457D01*
X137918079Y-74428387D01*
X137910227Y-74406443D01*
X137904563Y-74383834D01*
X137901144Y-74360779D01*
X137900000Y-74337500D01*
X137900000Y-73862500D01*
X137901144Y-73839221D01*
X137904563Y-73816166D01*
X137910227Y-73793557D01*
X137918079Y-73771613D01*
X137928044Y-73750543D01*
X137940026Y-73730552D01*
X137953910Y-73711832D01*
X137969562Y-73694562D01*
X137986832Y-73678910D01*
X138005552Y-73665026D01*
X138025543Y-73653044D01*
X138046613Y-73643079D01*
X138068557Y-73635227D01*
X138091166Y-73629563D01*
X138114221Y-73626144D01*
X138137500Y-73625000D01*
X138712500Y-73625000D01*
X138735779Y-73626144D01*
G37*
G04 #@! TD.AperFunction*
D14*
X136080000Y-59200000D03*
X133540000Y-59200000D03*
D15*
X131000000Y-59200000D03*
D16*
X135237000Y-82230000D03*
X135237000Y-84770000D03*
X126763000Y-84770000D03*
X126763000Y-82230000D03*
D17*
X147930000Y-83430000D03*
G04 #@! TA.AperFunction,SMDPad,CuDef*
D13*
G36*
X147145439Y-83880451D02*
G01*
X147154540Y-83881801D01*
X147163464Y-83884037D01*
X147172127Y-83887136D01*
X147180443Y-83891070D01*
X147188335Y-83895800D01*
X147195724Y-83901280D01*
X147202541Y-83907459D01*
X147208720Y-83914276D01*
X147214200Y-83921665D01*
X147218930Y-83929557D01*
X147222864Y-83937873D01*
X147225963Y-83946536D01*
X147228199Y-83955460D01*
X147229549Y-83964561D01*
X147230000Y-83973750D01*
X147230000Y-84186250D01*
X147229549Y-84195439D01*
X147228199Y-84204540D01*
X147225963Y-84213464D01*
X147222864Y-84222127D01*
X147218930Y-84230443D01*
X147214200Y-84238335D01*
X147208720Y-84245724D01*
X147202541Y-84252541D01*
X147195724Y-84258720D01*
X147188335Y-84264200D01*
X147180443Y-84268930D01*
X147172127Y-84272864D01*
X147163464Y-84275963D01*
X147154540Y-84278199D01*
X147145439Y-84279549D01*
X147136250Y-84280000D01*
X146948750Y-84280000D01*
X146939561Y-84279549D01*
X146930460Y-84278199D01*
X146921536Y-84275963D01*
X146912873Y-84272864D01*
X146904557Y-84268930D01*
X146896665Y-84264200D01*
X146889276Y-84258720D01*
X146882459Y-84252541D01*
X146876280Y-84245724D01*
X146870800Y-84238335D01*
X146866070Y-84230443D01*
X146862136Y-84222127D01*
X146859037Y-84213464D01*
X146856801Y-84204540D01*
X146855451Y-84195439D01*
X146855000Y-84186250D01*
X146855000Y-83973750D01*
X146855451Y-83964561D01*
X146856801Y-83955460D01*
X146859037Y-83946536D01*
X146862136Y-83937873D01*
X146866070Y-83929557D01*
X146870800Y-83921665D01*
X146876280Y-83914276D01*
X146882459Y-83907459D01*
X146889276Y-83901280D01*
X146896665Y-83895800D01*
X146904557Y-83891070D01*
X146912873Y-83887136D01*
X146921536Y-83884037D01*
X146930460Y-83881801D01*
X146939561Y-83880451D01*
X146948750Y-83880000D01*
X147136250Y-83880000D01*
X147145439Y-83880451D01*
G37*
G04 #@! TD.AperFunction*
G04 #@! TA.AperFunction,SMDPad,CuDef*
G36*
X147145439Y-83230451D02*
G01*
X147154540Y-83231801D01*
X147163464Y-83234037D01*
X147172127Y-83237136D01*
X147180443Y-83241070D01*
X147188335Y-83245800D01*
X147195724Y-83251280D01*
X147202541Y-83257459D01*
X147208720Y-83264276D01*
X147214200Y-83271665D01*
X147218930Y-83279557D01*
X147222864Y-83287873D01*
X147225963Y-83296536D01*
X147228199Y-83305460D01*
X147229549Y-83314561D01*
X147230000Y-83323750D01*
X147230000Y-83536250D01*
X147229549Y-83545439D01*
X147228199Y-83554540D01*
X147225963Y-83563464D01*
X147222864Y-83572127D01*
X147218930Y-83580443D01*
X147214200Y-83588335D01*
X147208720Y-83595724D01*
X147202541Y-83602541D01*
X147195724Y-83608720D01*
X147188335Y-83614200D01*
X147180443Y-83618930D01*
X147172127Y-83622864D01*
X147163464Y-83625963D01*
X147154540Y-83628199D01*
X147145439Y-83629549D01*
X147136250Y-83630000D01*
X146948750Y-83630000D01*
X146939561Y-83629549D01*
X146930460Y-83628199D01*
X146921536Y-83625963D01*
X146912873Y-83622864D01*
X146904557Y-83618930D01*
X146896665Y-83614200D01*
X146889276Y-83608720D01*
X146882459Y-83602541D01*
X146876280Y-83595724D01*
X146870800Y-83588335D01*
X146866070Y-83580443D01*
X146862136Y-83572127D01*
X146859037Y-83563464D01*
X146856801Y-83554540D01*
X146855451Y-83545439D01*
X146855000Y-83536250D01*
X146855000Y-83323750D01*
X146855451Y-83314561D01*
X146856801Y-83305460D01*
X146859037Y-83296536D01*
X146862136Y-83287873D01*
X146866070Y-83279557D01*
X146870800Y-83271665D01*
X146876280Y-83264276D01*
X146882459Y-83257459D01*
X146889276Y-83251280D01*
X146896665Y-83245800D01*
X146904557Y-83241070D01*
X146912873Y-83237136D01*
X146921536Y-83234037D01*
X146930460Y-83231801D01*
X146939561Y-83230451D01*
X146948750Y-83230000D01*
X147136250Y-83230000D01*
X147145439Y-83230451D01*
G37*
G04 #@! TD.AperFunction*
G04 #@! TA.AperFunction,SMDPad,CuDef*
G36*
X147145439Y-82580451D02*
G01*
X147154540Y-82581801D01*
X147163464Y-82584037D01*
X147172127Y-82587136D01*
X147180443Y-82591070D01*
X147188335Y-82595800D01*
X147195724Y-82601280D01*
X147202541Y-82607459D01*
X147208720Y-82614276D01*
X147214200Y-82621665D01*
X147218930Y-82629557D01*
X147222864Y-82637873D01*
X147225963Y-82646536D01*
X147228199Y-82655460D01*
X147229549Y-82664561D01*
X147230000Y-82673750D01*
X147230000Y-82886250D01*
X147229549Y-82895439D01*
X147228199Y-82904540D01*
X147225963Y-82913464D01*
X147222864Y-82922127D01*
X147218930Y-82930443D01*
X147214200Y-82938335D01*
X147208720Y-82945724D01*
X147202541Y-82952541D01*
X147195724Y-82958720D01*
X147188335Y-82964200D01*
X147180443Y-82968930D01*
X147172127Y-82972864D01*
X147163464Y-82975963D01*
X147154540Y-82978199D01*
X147145439Y-82979549D01*
X147136250Y-82980000D01*
X146948750Y-82980000D01*
X146939561Y-82979549D01*
X146930460Y-82978199D01*
X146921536Y-82975963D01*
X146912873Y-82972864D01*
X146904557Y-82968930D01*
X146896665Y-82964200D01*
X146889276Y-82958720D01*
X146882459Y-82952541D01*
X146876280Y-82945724D01*
X146870800Y-82938335D01*
X146866070Y-82930443D01*
X146862136Y-82922127D01*
X146859037Y-82913464D01*
X146856801Y-82904540D01*
X146855451Y-82895439D01*
X146855000Y-82886250D01*
X146855000Y-82673750D01*
X146855451Y-82664561D01*
X146856801Y-82655460D01*
X146859037Y-82646536D01*
X146862136Y-82637873D01*
X146866070Y-82629557D01*
X146870800Y-82621665D01*
X146876280Y-82614276D01*
X146882459Y-82607459D01*
X146889276Y-82601280D01*
X146896665Y-82595800D01*
X146904557Y-82591070D01*
X146912873Y-82587136D01*
X146921536Y-82584037D01*
X146930460Y-82581801D01*
X146939561Y-82580451D01*
X146948750Y-82580000D01*
X147136250Y-82580000D01*
X147145439Y-82580451D01*
G37*
G04 #@! TD.AperFunction*
G04 #@! TA.AperFunction,SMDPad,CuDef*
G36*
X148920439Y-82580451D02*
G01*
X148929540Y-82581801D01*
X148938464Y-82584037D01*
X148947127Y-82587136D01*
X148955443Y-82591070D01*
X148963335Y-82595800D01*
X148970724Y-82601280D01*
X148977541Y-82607459D01*
X148983720Y-82614276D01*
X148989200Y-82621665D01*
X148993930Y-82629557D01*
X148997864Y-82637873D01*
X149000963Y-82646536D01*
X149003199Y-82655460D01*
X149004549Y-82664561D01*
X149005000Y-82673750D01*
X149005000Y-82886250D01*
X149004549Y-82895439D01*
X149003199Y-82904540D01*
X149000963Y-82913464D01*
X148997864Y-82922127D01*
X148993930Y-82930443D01*
X148989200Y-82938335D01*
X148983720Y-82945724D01*
X148977541Y-82952541D01*
X148970724Y-82958720D01*
X148963335Y-82964200D01*
X148955443Y-82968930D01*
X148947127Y-82972864D01*
X148938464Y-82975963D01*
X148929540Y-82978199D01*
X148920439Y-82979549D01*
X148911250Y-82980000D01*
X148723750Y-82980000D01*
X148714561Y-82979549D01*
X148705460Y-82978199D01*
X148696536Y-82975963D01*
X148687873Y-82972864D01*
X148679557Y-82968930D01*
X148671665Y-82964200D01*
X148664276Y-82958720D01*
X148657459Y-82952541D01*
X148651280Y-82945724D01*
X148645800Y-82938335D01*
X148641070Y-82930443D01*
X148637136Y-82922127D01*
X148634037Y-82913464D01*
X148631801Y-82904540D01*
X148630451Y-82895439D01*
X148630000Y-82886250D01*
X148630000Y-82673750D01*
X148630451Y-82664561D01*
X148631801Y-82655460D01*
X148634037Y-82646536D01*
X148637136Y-82637873D01*
X148641070Y-82629557D01*
X148645800Y-82621665D01*
X148651280Y-82614276D01*
X148657459Y-82607459D01*
X148664276Y-82601280D01*
X148671665Y-82595800D01*
X148679557Y-82591070D01*
X148687873Y-82587136D01*
X148696536Y-82584037D01*
X148705460Y-82581801D01*
X148714561Y-82580451D01*
X148723750Y-82580000D01*
X148911250Y-82580000D01*
X148920439Y-82580451D01*
G37*
G04 #@! TD.AperFunction*
G04 #@! TA.AperFunction,SMDPad,CuDef*
G36*
X148920439Y-83230451D02*
G01*
X148929540Y-83231801D01*
X148938464Y-83234037D01*
X148947127Y-83237136D01*
X148955443Y-83241070D01*
X148963335Y-83245800D01*
X148970724Y-83251280D01*
X148977541Y-83257459D01*
X148983720Y-83264276D01*
X148989200Y-83271665D01*
X148993930Y-83279557D01*
X148997864Y-83287873D01*
X149000963Y-83296536D01*
X149003199Y-83305460D01*
X149004549Y-83314561D01*
X149005000Y-83323750D01*
X149005000Y-83536250D01*
X149004549Y-83545439D01*
X149003199Y-83554540D01*
X149000963Y-83563464D01*
X148997864Y-83572127D01*
X148993930Y-83580443D01*
X148989200Y-83588335D01*
X148983720Y-83595724D01*
X148977541Y-83602541D01*
X148970724Y-83608720D01*
X148963335Y-83614200D01*
X148955443Y-83618930D01*
X148947127Y-83622864D01*
X148938464Y-83625963D01*
X148929540Y-83628199D01*
X148920439Y-83629549D01*
X148911250Y-83630000D01*
X148723750Y-83630000D01*
X148714561Y-83629549D01*
X148705460Y-83628199D01*
X148696536Y-83625963D01*
X148687873Y-83622864D01*
X148679557Y-83618930D01*
X148671665Y-83614200D01*
X148664276Y-83608720D01*
X148657459Y-83602541D01*
X148651280Y-83595724D01*
X148645800Y-83588335D01*
X148641070Y-83580443D01*
X148637136Y-83572127D01*
X148634037Y-83563464D01*
X148631801Y-83554540D01*
X148630451Y-83545439D01*
X148630000Y-83536250D01*
X148630000Y-83323750D01*
X148630451Y-83314561D01*
X148631801Y-83305460D01*
X148634037Y-83296536D01*
X148637136Y-83287873D01*
X148641070Y-83279557D01*
X148645800Y-83271665D01*
X148651280Y-83264276D01*
X148657459Y-83257459D01*
X148664276Y-83251280D01*
X148671665Y-83245800D01*
X148679557Y-83241070D01*
X148687873Y-83237136D01*
X148696536Y-83234037D01*
X148705460Y-83231801D01*
X148714561Y-83230451D01*
X148723750Y-83230000D01*
X148911250Y-83230000D01*
X148920439Y-83230451D01*
G37*
G04 #@! TD.AperFunction*
G04 #@! TA.AperFunction,SMDPad,CuDef*
G36*
X148920439Y-83880451D02*
G01*
X148929540Y-83881801D01*
X148938464Y-83884037D01*
X148947127Y-83887136D01*
X148955443Y-83891070D01*
X148963335Y-83895800D01*
X148970724Y-83901280D01*
X148977541Y-83907459D01*
X148983720Y-83914276D01*
X148989200Y-83921665D01*
X148993930Y-83929557D01*
X148997864Y-83937873D01*
X149000963Y-83946536D01*
X149003199Y-83955460D01*
X149004549Y-83964561D01*
X149005000Y-83973750D01*
X149005000Y-84186250D01*
X149004549Y-84195439D01*
X149003199Y-84204540D01*
X149000963Y-84213464D01*
X148997864Y-84222127D01*
X148993930Y-84230443D01*
X148989200Y-84238335D01*
X148983720Y-84245724D01*
X148977541Y-84252541D01*
X148970724Y-84258720D01*
X148963335Y-84264200D01*
X148955443Y-84268930D01*
X148947127Y-84272864D01*
X148938464Y-84275963D01*
X148929540Y-84278199D01*
X148920439Y-84279549D01*
X148911250Y-84280000D01*
X148723750Y-84280000D01*
X148714561Y-84279549D01*
X148705460Y-84278199D01*
X148696536Y-84275963D01*
X148687873Y-84272864D01*
X148679557Y-84268930D01*
X148671665Y-84264200D01*
X148664276Y-84258720D01*
X148657459Y-84252541D01*
X148651280Y-84245724D01*
X148645800Y-84238335D01*
X148641070Y-84230443D01*
X148637136Y-84222127D01*
X148634037Y-84213464D01*
X148631801Y-84204540D01*
X148630451Y-84195439D01*
X148630000Y-84186250D01*
X148630000Y-83973750D01*
X148630451Y-83964561D01*
X148631801Y-83955460D01*
X148634037Y-83946536D01*
X148637136Y-83937873D01*
X148641070Y-83929557D01*
X148645800Y-83921665D01*
X148651280Y-83914276D01*
X148657459Y-83907459D01*
X148664276Y-83901280D01*
X148671665Y-83895800D01*
X148679557Y-83891070D01*
X148687873Y-83887136D01*
X148696536Y-83884037D01*
X148705460Y-83881801D01*
X148714561Y-83880451D01*
X148723750Y-83880000D01*
X148911250Y-83880000D01*
X148920439Y-83880451D01*
G37*
G04 #@! TD.AperFunction*
G04 #@! TA.AperFunction,SMDPad,CuDef*
G36*
X149760779Y-86751144D02*
G01*
X149783834Y-86754563D01*
X149806443Y-86760227D01*
X149828387Y-86768079D01*
X149849457Y-86778044D01*
X149869448Y-86790026D01*
X149888168Y-86803910D01*
X149905438Y-86819562D01*
X149921090Y-86836832D01*
X149934974Y-86855552D01*
X149946956Y-86875543D01*
X149956921Y-86896613D01*
X149964773Y-86918557D01*
X149970437Y-86941166D01*
X149973856Y-86964221D01*
X149975000Y-86987500D01*
X149975000Y-87562500D01*
X149973856Y-87585779D01*
X149970437Y-87608834D01*
X149964773Y-87631443D01*
X149956921Y-87653387D01*
X149946956Y-87674457D01*
X149934974Y-87694448D01*
X149921090Y-87713168D01*
X149905438Y-87730438D01*
X149888168Y-87746090D01*
X149869448Y-87759974D01*
X149849457Y-87771956D01*
X149828387Y-87781921D01*
X149806443Y-87789773D01*
X149783834Y-87795437D01*
X149760779Y-87798856D01*
X149737500Y-87800000D01*
X149262500Y-87800000D01*
X149239221Y-87798856D01*
X149216166Y-87795437D01*
X149193557Y-87789773D01*
X149171613Y-87781921D01*
X149150543Y-87771956D01*
X149130552Y-87759974D01*
X149111832Y-87746090D01*
X149094562Y-87730438D01*
X149078910Y-87713168D01*
X149065026Y-87694448D01*
X149053044Y-87674457D01*
X149043079Y-87653387D01*
X149035227Y-87631443D01*
X149029563Y-87608834D01*
X149026144Y-87585779D01*
X149025000Y-87562500D01*
X149025000Y-86987500D01*
X149026144Y-86964221D01*
X149029563Y-86941166D01*
X149035227Y-86918557D01*
X149043079Y-86896613D01*
X149053044Y-86875543D01*
X149065026Y-86855552D01*
X149078910Y-86836832D01*
X149094562Y-86819562D01*
X149111832Y-86803910D01*
X149130552Y-86790026D01*
X149150543Y-86778044D01*
X149171613Y-86768079D01*
X149193557Y-86760227D01*
X149216166Y-86754563D01*
X149239221Y-86751144D01*
X149262500Y-86750000D01*
X149737500Y-86750000D01*
X149760779Y-86751144D01*
G37*
G04 #@! TD.AperFunction*
G04 #@! TA.AperFunction,SMDPad,CuDef*
G36*
X149760779Y-85001144D02*
G01*
X149783834Y-85004563D01*
X149806443Y-85010227D01*
X149828387Y-85018079D01*
X149849457Y-85028044D01*
X149869448Y-85040026D01*
X149888168Y-85053910D01*
X149905438Y-85069562D01*
X149921090Y-85086832D01*
X149934974Y-85105552D01*
X149946956Y-85125543D01*
X149956921Y-85146613D01*
X149964773Y-85168557D01*
X149970437Y-85191166D01*
X149973856Y-85214221D01*
X149975000Y-85237500D01*
X149975000Y-85812500D01*
X149973856Y-85835779D01*
X149970437Y-85858834D01*
X149964773Y-85881443D01*
X149956921Y-85903387D01*
X149946956Y-85924457D01*
X149934974Y-85944448D01*
X149921090Y-85963168D01*
X149905438Y-85980438D01*
X149888168Y-85996090D01*
X149869448Y-86009974D01*
X149849457Y-86021956D01*
X149828387Y-86031921D01*
X149806443Y-86039773D01*
X149783834Y-86045437D01*
X149760779Y-86048856D01*
X149737500Y-86050000D01*
X149262500Y-86050000D01*
X149239221Y-86048856D01*
X149216166Y-86045437D01*
X149193557Y-86039773D01*
X149171613Y-86031921D01*
X149150543Y-86021956D01*
X149130552Y-86009974D01*
X149111832Y-85996090D01*
X149094562Y-85980438D01*
X149078910Y-85963168D01*
X149065026Y-85944448D01*
X149053044Y-85924457D01*
X149043079Y-85903387D01*
X149035227Y-85881443D01*
X149029563Y-85858834D01*
X149026144Y-85835779D01*
X149025000Y-85812500D01*
X149025000Y-85237500D01*
X149026144Y-85214221D01*
X149029563Y-85191166D01*
X149035227Y-85168557D01*
X149043079Y-85146613D01*
X149053044Y-85125543D01*
X149065026Y-85105552D01*
X149078910Y-85086832D01*
X149094562Y-85069562D01*
X149111832Y-85053910D01*
X149130552Y-85040026D01*
X149150543Y-85028044D01*
X149171613Y-85018079D01*
X149193557Y-85010227D01*
X149216166Y-85004563D01*
X149239221Y-85001144D01*
X149262500Y-85000000D01*
X149737500Y-85000000D01*
X149760779Y-85001144D01*
G37*
G04 #@! TD.AperFunction*
D18*
X141600000Y-57160000D03*
X139060000Y-59700000D03*
X139060000Y-57160000D03*
X141600000Y-59700000D03*
X140330000Y-58430000D03*
D19*
X148800000Y-58000000D03*
G04 #@! TA.AperFunction,ComponentPad*
D13*
G36*
X149449505Y-59401204D02*
G01*
X149473773Y-59404804D01*
X149497572Y-59410765D01*
X149520671Y-59419030D01*
X149542850Y-59429520D01*
X149563893Y-59442132D01*
X149583599Y-59456747D01*
X149601777Y-59473223D01*
X149618253Y-59491401D01*
X149632868Y-59511107D01*
X149645480Y-59532150D01*
X149655970Y-59554329D01*
X149664235Y-59577428D01*
X149670196Y-59601227D01*
X149673796Y-59625495D01*
X149675000Y-59649999D01*
X149675000Y-60350001D01*
X149673796Y-60374505D01*
X149670196Y-60398773D01*
X149664235Y-60422572D01*
X149655970Y-60445671D01*
X149645480Y-60467850D01*
X149632868Y-60488893D01*
X149618253Y-60508599D01*
X149601777Y-60526777D01*
X149583599Y-60543253D01*
X149563893Y-60557868D01*
X149542850Y-60570480D01*
X149520671Y-60580970D01*
X149497572Y-60589235D01*
X149473773Y-60595196D01*
X149449505Y-60598796D01*
X149425001Y-60600000D01*
X148174999Y-60600000D01*
X148150495Y-60598796D01*
X148126227Y-60595196D01*
X148102428Y-60589235D01*
X148079329Y-60580970D01*
X148057150Y-60570480D01*
X148036107Y-60557868D01*
X148016401Y-60543253D01*
X147998223Y-60526777D01*
X147981747Y-60508599D01*
X147967132Y-60488893D01*
X147954520Y-60467850D01*
X147944030Y-60445671D01*
X147935765Y-60422572D01*
X147929804Y-60398773D01*
X147926204Y-60374505D01*
X147925000Y-60350001D01*
X147925000Y-59649999D01*
X147926204Y-59625495D01*
X147929804Y-59601227D01*
X147935765Y-59577428D01*
X147944030Y-59554329D01*
X147954520Y-59532150D01*
X147967132Y-59511107D01*
X147981747Y-59491401D01*
X147998223Y-59473223D01*
X148016401Y-59456747D01*
X148036107Y-59442132D01*
X148057150Y-59429520D01*
X148079329Y-59419030D01*
X148102428Y-59410765D01*
X148126227Y-59404804D01*
X148150495Y-59401204D01*
X148174999Y-59400000D01*
X149425001Y-59400000D01*
X149449505Y-59401204D01*
G37*
G04 #@! TD.AperFunction*
D14*
X144700000Y-57460000D03*
D15*
X144700000Y-60000000D03*
D19*
X123000000Y-72700000D03*
G04 #@! TA.AperFunction,ComponentPad*
D13*
G36*
X123649505Y-70101204D02*
G01*
X123673773Y-70104804D01*
X123697572Y-70110765D01*
X123720671Y-70119030D01*
X123742850Y-70129520D01*
X123763893Y-70142132D01*
X123783599Y-70156747D01*
X123801777Y-70173223D01*
X123818253Y-70191401D01*
X123832868Y-70211107D01*
X123845480Y-70232150D01*
X123855970Y-70254329D01*
X123864235Y-70277428D01*
X123870196Y-70301227D01*
X123873796Y-70325495D01*
X123875000Y-70349999D01*
X123875000Y-71050001D01*
X123873796Y-71074505D01*
X123870196Y-71098773D01*
X123864235Y-71122572D01*
X123855970Y-71145671D01*
X123845480Y-71167850D01*
X123832868Y-71188893D01*
X123818253Y-71208599D01*
X123801777Y-71226777D01*
X123783599Y-71243253D01*
X123763893Y-71257868D01*
X123742850Y-71270480D01*
X123720671Y-71280970D01*
X123697572Y-71289235D01*
X123673773Y-71295196D01*
X123649505Y-71298796D01*
X123625001Y-71300000D01*
X122374999Y-71300000D01*
X122350495Y-71298796D01*
X122326227Y-71295196D01*
X122302428Y-71289235D01*
X122279329Y-71280970D01*
X122257150Y-71270480D01*
X122236107Y-71257868D01*
X122216401Y-71243253D01*
X122198223Y-71226777D01*
X122181747Y-71208599D01*
X122167132Y-71188893D01*
X122154520Y-71167850D01*
X122144030Y-71145671D01*
X122135765Y-71122572D01*
X122129804Y-71098773D01*
X122126204Y-71074505D01*
X122125000Y-71050001D01*
X122125000Y-70349999D01*
X122126204Y-70325495D01*
X122129804Y-70301227D01*
X122135765Y-70277428D01*
X122144030Y-70254329D01*
X122154520Y-70232150D01*
X122167132Y-70211107D01*
X122181747Y-70191401D01*
X122198223Y-70173223D01*
X122216401Y-70156747D01*
X122236107Y-70142132D01*
X122257150Y-70129520D01*
X122279329Y-70119030D01*
X122302428Y-70110765D01*
X122326227Y-70104804D01*
X122350495Y-70101204D01*
X122374999Y-70100000D01*
X123625001Y-70100000D01*
X123649505Y-70101204D01*
G37*
G04 #@! TD.AperFunction*
D20*
X118525000Y-79480000D03*
X118525000Y-88120000D03*
X122325000Y-79480000D03*
X122325000Y-88120000D03*
D21*
X122475000Y-81050000D03*
D22*
X122475000Y-82280000D03*
D23*
X122475000Y-83300000D03*
X122475000Y-84300000D03*
D22*
X122475000Y-85320000D03*
D21*
X122475000Y-86550000D03*
D24*
X147250000Y-80000000D03*
X150550000Y-80000000D03*
G04 #@! TA.AperFunction,SMDPad,CuDef*
D13*
G36*
X139074505Y-82101204D02*
G01*
X139098773Y-82104804D01*
X139122572Y-82110765D01*
X139145671Y-82119030D01*
X139167850Y-82129520D01*
X139188893Y-82142132D01*
X139208599Y-82156747D01*
X139226777Y-82173223D01*
X139243253Y-82191401D01*
X139257868Y-82211107D01*
X139270480Y-82232150D01*
X139280970Y-82254329D01*
X139289235Y-82277428D01*
X139295196Y-82301227D01*
X139298796Y-82325495D01*
X139300000Y-82349999D01*
X139300000Y-83000001D01*
X139298796Y-83024505D01*
X139295196Y-83048773D01*
X139289235Y-83072572D01*
X139280970Y-83095671D01*
X139270480Y-83117850D01*
X139257868Y-83138893D01*
X139243253Y-83158599D01*
X139226777Y-83176777D01*
X139208599Y-83193253D01*
X139188893Y-83207868D01*
X139167850Y-83220480D01*
X139145671Y-83230970D01*
X139122572Y-83239235D01*
X139098773Y-83245196D01*
X139074505Y-83248796D01*
X139050001Y-83250000D01*
X138149999Y-83250000D01*
X138125495Y-83248796D01*
X138101227Y-83245196D01*
X138077428Y-83239235D01*
X138054329Y-83230970D01*
X138032150Y-83220480D01*
X138011107Y-83207868D01*
X137991401Y-83193253D01*
X137973223Y-83176777D01*
X137956747Y-83158599D01*
X137942132Y-83138893D01*
X137929520Y-83117850D01*
X137919030Y-83095671D01*
X137910765Y-83072572D01*
X137904804Y-83048773D01*
X137901204Y-83024505D01*
X137900000Y-83000001D01*
X137900000Y-82349999D01*
X137901204Y-82325495D01*
X137904804Y-82301227D01*
X137910765Y-82277428D01*
X137919030Y-82254329D01*
X137929520Y-82232150D01*
X137942132Y-82211107D01*
X137956747Y-82191401D01*
X137973223Y-82173223D01*
X137991401Y-82156747D01*
X138011107Y-82142132D01*
X138032150Y-82129520D01*
X138054329Y-82119030D01*
X138077428Y-82110765D01*
X138101227Y-82104804D01*
X138125495Y-82101204D01*
X138149999Y-82100000D01*
X139050001Y-82100000D01*
X139074505Y-82101204D01*
G37*
G04 #@! TD.AperFunction*
G04 #@! TA.AperFunction,SMDPad,CuDef*
G36*
X139074505Y-84151204D02*
G01*
X139098773Y-84154804D01*
X139122572Y-84160765D01*
X139145671Y-84169030D01*
X139167850Y-84179520D01*
X139188893Y-84192132D01*
X139208599Y-84206747D01*
X139226777Y-84223223D01*
X139243253Y-84241401D01*
X139257868Y-84261107D01*
X139270480Y-84282150D01*
X139280970Y-84304329D01*
X139289235Y-84327428D01*
X139295196Y-84351227D01*
X139298796Y-84375495D01*
X139300000Y-84399999D01*
X139300000Y-85050001D01*
X139298796Y-85074505D01*
X139295196Y-85098773D01*
X139289235Y-85122572D01*
X139280970Y-85145671D01*
X139270480Y-85167850D01*
X139257868Y-85188893D01*
X139243253Y-85208599D01*
X139226777Y-85226777D01*
X139208599Y-85243253D01*
X139188893Y-85257868D01*
X139167850Y-85270480D01*
X139145671Y-85280970D01*
X139122572Y-85289235D01*
X139098773Y-85295196D01*
X139074505Y-85298796D01*
X139050001Y-85300000D01*
X138149999Y-85300000D01*
X138125495Y-85298796D01*
X138101227Y-85295196D01*
X138077428Y-85289235D01*
X138054329Y-85280970D01*
X138032150Y-85270480D01*
X138011107Y-85257868D01*
X137991401Y-85243253D01*
X137973223Y-85226777D01*
X137956747Y-85208599D01*
X137942132Y-85188893D01*
X137929520Y-85167850D01*
X137919030Y-85145671D01*
X137910765Y-85122572D01*
X137904804Y-85098773D01*
X137901204Y-85074505D01*
X137900000Y-85050001D01*
X137900000Y-84399999D01*
X137901204Y-84375495D01*
X137904804Y-84351227D01*
X137910765Y-84327428D01*
X137919030Y-84304329D01*
X137929520Y-84282150D01*
X137942132Y-84261107D01*
X137956747Y-84241401D01*
X137973223Y-84223223D01*
X137991401Y-84206747D01*
X138011107Y-84192132D01*
X138032150Y-84179520D01*
X138054329Y-84169030D01*
X138077428Y-84160765D01*
X138101227Y-84154804D01*
X138125495Y-84151204D01*
X138149999Y-84150000D01*
X139050001Y-84150000D01*
X139074505Y-84151204D01*
G37*
G04 #@! TD.AperFunction*
G04 #@! TA.AperFunction,SMDPad,CuDef*
G36*
X153174505Y-81526204D02*
G01*
X153198773Y-81529804D01*
X153222572Y-81535765D01*
X153245671Y-81544030D01*
X153267850Y-81554520D01*
X153288893Y-81567132D01*
X153308599Y-81581747D01*
X153326777Y-81598223D01*
X153343253Y-81616401D01*
X153357868Y-81636107D01*
X153370480Y-81657150D01*
X153380970Y-81679329D01*
X153389235Y-81702428D01*
X153395196Y-81726227D01*
X153398796Y-81750495D01*
X153400000Y-81774999D01*
X153400000Y-82425001D01*
X153398796Y-82449505D01*
X153395196Y-82473773D01*
X153389235Y-82497572D01*
X153380970Y-82520671D01*
X153370480Y-82542850D01*
X153357868Y-82563893D01*
X153343253Y-82583599D01*
X153326777Y-82601777D01*
X153308599Y-82618253D01*
X153288893Y-82632868D01*
X153267850Y-82645480D01*
X153245671Y-82655970D01*
X153222572Y-82664235D01*
X153198773Y-82670196D01*
X153174505Y-82673796D01*
X153150001Y-82675000D01*
X152249999Y-82675000D01*
X152225495Y-82673796D01*
X152201227Y-82670196D01*
X152177428Y-82664235D01*
X152154329Y-82655970D01*
X152132150Y-82645480D01*
X152111107Y-82632868D01*
X152091401Y-82618253D01*
X152073223Y-82601777D01*
X152056747Y-82583599D01*
X152042132Y-82563893D01*
X152029520Y-82542850D01*
X152019030Y-82520671D01*
X152010765Y-82497572D01*
X152004804Y-82473773D01*
X152001204Y-82449505D01*
X152000000Y-82425001D01*
X152000000Y-81774999D01*
X152001204Y-81750495D01*
X152004804Y-81726227D01*
X152010765Y-81702428D01*
X152019030Y-81679329D01*
X152029520Y-81657150D01*
X152042132Y-81636107D01*
X152056747Y-81616401D01*
X152073223Y-81598223D01*
X152091401Y-81581747D01*
X152111107Y-81567132D01*
X152132150Y-81554520D01*
X152154329Y-81544030D01*
X152177428Y-81535765D01*
X152201227Y-81529804D01*
X152225495Y-81526204D01*
X152249999Y-81525000D01*
X153150001Y-81525000D01*
X153174505Y-81526204D01*
G37*
G04 #@! TD.AperFunction*
G04 #@! TA.AperFunction,SMDPad,CuDef*
G36*
X153174505Y-79476204D02*
G01*
X153198773Y-79479804D01*
X153222572Y-79485765D01*
X153245671Y-79494030D01*
X153267850Y-79504520D01*
X153288893Y-79517132D01*
X153308599Y-79531747D01*
X153326777Y-79548223D01*
X153343253Y-79566401D01*
X153357868Y-79586107D01*
X153370480Y-79607150D01*
X153380970Y-79629329D01*
X153389235Y-79652428D01*
X153395196Y-79676227D01*
X153398796Y-79700495D01*
X153400000Y-79724999D01*
X153400000Y-80375001D01*
X153398796Y-80399505D01*
X153395196Y-80423773D01*
X153389235Y-80447572D01*
X153380970Y-80470671D01*
X153370480Y-80492850D01*
X153357868Y-80513893D01*
X153343253Y-80533599D01*
X153326777Y-80551777D01*
X153308599Y-80568253D01*
X153288893Y-80582868D01*
X153267850Y-80595480D01*
X153245671Y-80605970D01*
X153222572Y-80614235D01*
X153198773Y-80620196D01*
X153174505Y-80623796D01*
X153150001Y-80625000D01*
X152249999Y-80625000D01*
X152225495Y-80623796D01*
X152201227Y-80620196D01*
X152177428Y-80614235D01*
X152154329Y-80605970D01*
X152132150Y-80595480D01*
X152111107Y-80582868D01*
X152091401Y-80568253D01*
X152073223Y-80551777D01*
X152056747Y-80533599D01*
X152042132Y-80513893D01*
X152029520Y-80492850D01*
X152019030Y-80470671D01*
X152010765Y-80447572D01*
X152004804Y-80423773D01*
X152001204Y-80399505D01*
X152000000Y-80375001D01*
X152000000Y-79724999D01*
X152001204Y-79700495D01*
X152004804Y-79676227D01*
X152010765Y-79652428D01*
X152019030Y-79629329D01*
X152029520Y-79607150D01*
X152042132Y-79586107D01*
X152056747Y-79566401D01*
X152073223Y-79548223D01*
X152091401Y-79531747D01*
X152111107Y-79517132D01*
X152132150Y-79504520D01*
X152154329Y-79494030D01*
X152177428Y-79485765D01*
X152201227Y-79479804D01*
X152225495Y-79476204D01*
X152249999Y-79475000D01*
X153150001Y-79475000D01*
X153174505Y-79476204D01*
G37*
G04 #@! TD.AperFunction*
G04 #@! TA.AperFunction,SMDPad,CuDef*
G36*
X150860779Y-81601144D02*
G01*
X150883834Y-81604563D01*
X150906443Y-81610227D01*
X150928387Y-81618079D01*
X150949457Y-81628044D01*
X150969448Y-81640026D01*
X150988168Y-81653910D01*
X151005438Y-81669562D01*
X151021090Y-81686832D01*
X151034974Y-81705552D01*
X151046956Y-81725543D01*
X151056921Y-81746613D01*
X151064773Y-81768557D01*
X151070437Y-81791166D01*
X151073856Y-81814221D01*
X151075000Y-81837500D01*
X151075000Y-82412500D01*
X151073856Y-82435779D01*
X151070437Y-82458834D01*
X151064773Y-82481443D01*
X151056921Y-82503387D01*
X151046956Y-82524457D01*
X151034974Y-82544448D01*
X151021090Y-82563168D01*
X151005438Y-82580438D01*
X150988168Y-82596090D01*
X150969448Y-82609974D01*
X150949457Y-82621956D01*
X150928387Y-82631921D01*
X150906443Y-82639773D01*
X150883834Y-82645437D01*
X150860779Y-82648856D01*
X150837500Y-82650000D01*
X150362500Y-82650000D01*
X150339221Y-82648856D01*
X150316166Y-82645437D01*
X150293557Y-82639773D01*
X150271613Y-82631921D01*
X150250543Y-82621956D01*
X150230552Y-82609974D01*
X150211832Y-82596090D01*
X150194562Y-82580438D01*
X150178910Y-82563168D01*
X150165026Y-82544448D01*
X150153044Y-82524457D01*
X150143079Y-82503387D01*
X150135227Y-82481443D01*
X150129563Y-82458834D01*
X150126144Y-82435779D01*
X150125000Y-82412500D01*
X150125000Y-81837500D01*
X150126144Y-81814221D01*
X150129563Y-81791166D01*
X150135227Y-81768557D01*
X150143079Y-81746613D01*
X150153044Y-81725543D01*
X150165026Y-81705552D01*
X150178910Y-81686832D01*
X150194562Y-81669562D01*
X150211832Y-81653910D01*
X150230552Y-81640026D01*
X150250543Y-81628044D01*
X150271613Y-81618079D01*
X150293557Y-81610227D01*
X150316166Y-81604563D01*
X150339221Y-81601144D01*
X150362500Y-81600000D01*
X150837500Y-81600000D01*
X150860779Y-81601144D01*
G37*
G04 #@! TD.AperFunction*
G04 #@! TA.AperFunction,SMDPad,CuDef*
G36*
X150860779Y-83351144D02*
G01*
X150883834Y-83354563D01*
X150906443Y-83360227D01*
X150928387Y-83368079D01*
X150949457Y-83378044D01*
X150969448Y-83390026D01*
X150988168Y-83403910D01*
X151005438Y-83419562D01*
X151021090Y-83436832D01*
X151034974Y-83455552D01*
X151046956Y-83475543D01*
X151056921Y-83496613D01*
X151064773Y-83518557D01*
X151070437Y-83541166D01*
X151073856Y-83564221D01*
X151075000Y-83587500D01*
X151075000Y-84162500D01*
X151073856Y-84185779D01*
X151070437Y-84208834D01*
X151064773Y-84231443D01*
X151056921Y-84253387D01*
X151046956Y-84274457D01*
X151034974Y-84294448D01*
X151021090Y-84313168D01*
X151005438Y-84330438D01*
X150988168Y-84346090D01*
X150969448Y-84359974D01*
X150949457Y-84371956D01*
X150928387Y-84381921D01*
X150906443Y-84389773D01*
X150883834Y-84395437D01*
X150860779Y-84398856D01*
X150837500Y-84400000D01*
X150362500Y-84400000D01*
X150339221Y-84398856D01*
X150316166Y-84395437D01*
X150293557Y-84389773D01*
X150271613Y-84381921D01*
X150250543Y-84371956D01*
X150230552Y-84359974D01*
X150211832Y-84346090D01*
X150194562Y-84330438D01*
X150178910Y-84313168D01*
X150165026Y-84294448D01*
X150153044Y-84274457D01*
X150143079Y-84253387D01*
X150135227Y-84231443D01*
X150129563Y-84208834D01*
X150126144Y-84185779D01*
X150125000Y-84162500D01*
X150125000Y-83587500D01*
X150126144Y-83564221D01*
X150129563Y-83541166D01*
X150135227Y-83518557D01*
X150143079Y-83496613D01*
X150153044Y-83475543D01*
X150165026Y-83455552D01*
X150178910Y-83436832D01*
X150194562Y-83419562D01*
X150211832Y-83403910D01*
X150230552Y-83390026D01*
X150250543Y-83378044D01*
X150271613Y-83368079D01*
X150293557Y-83360227D01*
X150316166Y-83354563D01*
X150339221Y-83351144D01*
X150362500Y-83350000D01*
X150837500Y-83350000D01*
X150860779Y-83351144D01*
G37*
G04 #@! TD.AperFunction*
D25*
X147900000Y-83800000D03*
X147900000Y-83000000D03*
X147900000Y-84600000D03*
X147900000Y-82200000D03*
X147900000Y-87300000D03*
X152700000Y-83600000D03*
X152500000Y-86800000D03*
X138400000Y-79300000D03*
X141700000Y-79300000D03*
X138350000Y-80650000D03*
X141700000Y-78000000D03*
X149300000Y-66300000D03*
X147800000Y-68000000D03*
X151100000Y-69500000D03*
X143700000Y-63900000D03*
X140500000Y-63900000D03*
X138300000Y-67025000D03*
X134799990Y-66300000D03*
X136070155Y-68917229D03*
X141700000Y-69700003D03*
X146400000Y-68625000D03*
X141700000Y-68700000D03*
X144300000Y-68550000D03*
D26*
X152700000Y-82100000D02*
X150800000Y-82100000D01*
D27*
X150125000Y-82300000D02*
X149325000Y-81500000D01*
X150125000Y-82300000D02*
X150600000Y-82300000D01*
X150025000Y-81200000D02*
X149900000Y-81200000D01*
X149900000Y-81200000D02*
X150800000Y-82100000D01*
X150600000Y-81775000D02*
X150025000Y-81200000D01*
X150600000Y-82300000D02*
X150600000Y-81775000D01*
X150120000Y-82780000D02*
X150600000Y-82300000D01*
X148817500Y-82780000D02*
X150120000Y-82780000D01*
X135682000Y-82675000D02*
X135237000Y-82230000D01*
X138600000Y-82675000D02*
X135682000Y-82675000D01*
X138600000Y-82675000D02*
X138600000Y-80900000D01*
X138600000Y-80900000D02*
X138350000Y-80650000D01*
D26*
X150125000Y-82300000D02*
X148900000Y-81075000D01*
X148900000Y-81075000D02*
X148900000Y-80500000D01*
D27*
X138350000Y-80650000D02*
X137900000Y-80200000D01*
X149600000Y-66000000D02*
X149300000Y-66300000D01*
X151000000Y-66000000D02*
X149600000Y-66000000D01*
X151075000Y-69475000D02*
X151100000Y-69500000D01*
X151075000Y-68200000D02*
X151075000Y-69475000D01*
X138275000Y-67000000D02*
X138300000Y-67025000D01*
X136625000Y-67000000D02*
X138275000Y-67000000D01*
X149980000Y-83430000D02*
X148817500Y-83430000D01*
X150600000Y-84050000D02*
X149980000Y-83430000D01*
D26*
X152650000Y-80000000D02*
X152700000Y-80050000D01*
X150550000Y-80000000D02*
X152650000Y-80000000D01*
X152700000Y-76794000D02*
X152576000Y-76670000D01*
X152700000Y-80050000D02*
X152700000Y-76794000D01*
X143170000Y-84770000D02*
X143400000Y-85000000D01*
X135237000Y-84770000D02*
X143170000Y-84770000D01*
X143400000Y-85000000D02*
X146100000Y-85000000D01*
X146100000Y-85000000D02*
X146700000Y-84400000D01*
X143400000Y-81600000D02*
X145900000Y-81600000D01*
X147250000Y-80950000D02*
X146600000Y-81600000D01*
X147250000Y-80000000D02*
X147250000Y-80950000D01*
X146600000Y-81600000D02*
X146700000Y-82400000D01*
X145900000Y-81600000D02*
X146600000Y-81600000D01*
D27*
X146700000Y-82625000D02*
X146700000Y-82400000D01*
X146855000Y-82780000D02*
X146700000Y-82625000D01*
X147042500Y-82780000D02*
X146855000Y-82780000D01*
D26*
X126763000Y-82230000D02*
X125583000Y-81050000D01*
X127475500Y-82230000D02*
X128875501Y-83630001D01*
X128875501Y-86030001D02*
X128355491Y-86550011D01*
X128875501Y-83630001D02*
X128875501Y-86030001D01*
X126763000Y-82230000D02*
X127475500Y-82230000D01*
X124600000Y-86600000D02*
X122475000Y-86550011D01*
X128355491Y-86550011D02*
X124600000Y-86600000D01*
X123925010Y-75225010D02*
X123925010Y-80974990D01*
X123000000Y-74300000D02*
X123925010Y-75225010D01*
X123900000Y-81000000D02*
X122475000Y-81050000D01*
X123925010Y-80974990D02*
X123900000Y-81000000D01*
X123000000Y-72700000D02*
X123000000Y-74300000D01*
X125583000Y-81050000D02*
X123900000Y-81000000D01*
X123770499Y-85350001D02*
X122475000Y-85350001D01*
X124350500Y-84770000D02*
X123770499Y-85350001D01*
X126763000Y-84770000D02*
X124350500Y-84770000D01*
X121024999Y-82389999D02*
X121164999Y-82249999D01*
X121164999Y-85350001D02*
X121024999Y-85210001D01*
X121164999Y-82249999D02*
X121977929Y-82249999D01*
X123785001Y-85350001D02*
X121164999Y-85350001D01*
X121024999Y-85210001D02*
X121024999Y-82389999D01*
X124300000Y-84835002D02*
X123785001Y-85350001D01*
X124300000Y-84719500D02*
X124300000Y-84835002D01*
X124350500Y-84770000D02*
X124300000Y-84719500D01*
X120724990Y-85510010D02*
X121024999Y-85210001D01*
X122125000Y-70700000D02*
X120724990Y-72100010D01*
X120724990Y-82089990D02*
X121024999Y-82389999D01*
X120724990Y-72100010D02*
X120724990Y-82089990D01*
X123000000Y-70700000D02*
X122125000Y-70700000D01*
D27*
X149500000Y-84762500D02*
X148817500Y-84080000D01*
X149500000Y-85525000D02*
X149500000Y-84762500D01*
D26*
X145240000Y-58000000D02*
X144700000Y-57460000D01*
X148800000Y-58000000D02*
X145240000Y-58000000D01*
X150675000Y-58000000D02*
X148800000Y-58000000D01*
X152772070Y-58000000D02*
X150675000Y-58000000D01*
X154600010Y-83327992D02*
X154600010Y-59827940D01*
X152403002Y-85525000D02*
X154600010Y-83327992D01*
X154600010Y-59827940D02*
X152772070Y-58000000D01*
X149500000Y-85525000D02*
X152403002Y-85525000D01*
D27*
X147042500Y-83430000D02*
X140994998Y-83430000D01*
X140943190Y-83430000D02*
X140000000Y-82486810D01*
X140994998Y-83430000D02*
X140943190Y-83430000D01*
X140000000Y-82486810D02*
X140000000Y-76500000D01*
X137300000Y-76500000D02*
X133600000Y-72800000D01*
X140000000Y-76500000D02*
X137300000Y-76500000D01*
X137200000Y-76500000D02*
X137300000Y-76500000D01*
X131000000Y-70300000D02*
X137200000Y-76500000D01*
X131000000Y-59200000D02*
X131000000Y-60300000D01*
X131000000Y-70300000D02*
X131000000Y-59200000D01*
D26*
X144725000Y-60025000D02*
X144700000Y-60000000D01*
X153100000Y-60025000D02*
X144725000Y-60025000D01*
D27*
X153000000Y-65000000D02*
X153100000Y-65100000D01*
D26*
X153100000Y-65100000D02*
X153100000Y-70025000D01*
D27*
X151000000Y-65000000D02*
X153000000Y-65000000D01*
D26*
X153100000Y-60025000D02*
X153100000Y-65100000D01*
D27*
X143600000Y-60000000D02*
X144700000Y-60000000D01*
X142800000Y-59200000D02*
X143600000Y-60000000D01*
X142800000Y-58500000D02*
X142800000Y-59200000D01*
X140800000Y-58500000D02*
X142800000Y-58500000D01*
X138425000Y-74085000D02*
X138425000Y-74100000D01*
X133540000Y-60402081D02*
X132300000Y-61642081D01*
X133540000Y-59200000D02*
X133540000Y-60402081D01*
X137900000Y-74100000D02*
X138425000Y-74100000D01*
X132300000Y-68500000D02*
X137900000Y-74100000D01*
X132300000Y-61642081D02*
X132300000Y-68500000D01*
X142794000Y-74100000D02*
X142824000Y-74130000D01*
X140175000Y-74100000D02*
X142794000Y-74100000D01*
X139300000Y-66300000D02*
X139500000Y-66500000D01*
X136925000Y-66300000D02*
X139300000Y-66300000D01*
X139500000Y-66500000D02*
X140500000Y-66500000D01*
X136625000Y-66000000D02*
X136925000Y-66300000D01*
X140500000Y-66500000D02*
X143700000Y-66500000D01*
X143499990Y-69974990D02*
X143825000Y-70300000D01*
X143499990Y-67450010D02*
X143499990Y-69974990D01*
X143825000Y-70300000D02*
X144300000Y-70300000D01*
X143700000Y-67250000D02*
X143499990Y-67450010D01*
X143700000Y-66500000D02*
X143700000Y-67250000D01*
X146325000Y-70300000D02*
X146400000Y-70375000D01*
X144300000Y-70300000D02*
X146325000Y-70300000D01*
X149325000Y-68675000D02*
X149325000Y-68200000D01*
X147625000Y-70375000D02*
X149325000Y-68675000D01*
X146400000Y-70375000D02*
X147625000Y-70375000D01*
X150550000Y-66500000D02*
X151000000Y-66500000D01*
X149325000Y-67725000D02*
X150550000Y-66500000D01*
X149325000Y-68200000D02*
X149325000Y-67725000D01*
X146600000Y-68425000D02*
X146400000Y-68625000D01*
X146600000Y-66500000D02*
X146600000Y-68425000D01*
X135850000Y-64000000D02*
X134799990Y-65050010D01*
X134799990Y-65050010D02*
X134799990Y-66300000D01*
X136625000Y-64000000D02*
X135850000Y-64000000D01*
X136852929Y-69700003D02*
X141700000Y-69700003D01*
X136070155Y-68917229D02*
X136852929Y-69700003D01*
X145809298Y-66000000D02*
X145400000Y-66409298D01*
X146600000Y-66000000D02*
X145809298Y-66000000D01*
X144775000Y-68550000D02*
X144300000Y-68550000D01*
X145400000Y-67925000D02*
X144775000Y-68550000D01*
X145400000Y-66409298D02*
X145400000Y-67925000D01*
X136878232Y-68700000D02*
X141700000Y-68700000D01*
X135524990Y-67346758D02*
X136878232Y-68700000D01*
X135524990Y-65325010D02*
X135524990Y-67346758D01*
X135850000Y-65000000D02*
X135524990Y-65325010D01*
X136625000Y-65000000D02*
X135850000Y-65000000D01*
D26*
X152576000Y-72299000D02*
X153100000Y-71775000D01*
X152576000Y-74130000D02*
X152576000Y-72299000D01*
D27*
X152050010Y-65759308D02*
X151790702Y-65500000D01*
X151725000Y-65500000D02*
X151000000Y-65500000D01*
X152050010Y-71200010D02*
X152050010Y-65759308D01*
X151790702Y-65500000D02*
X151725000Y-65500000D01*
X152625000Y-71775000D02*
X152050010Y-71200010D01*
X153100000Y-71775000D02*
X152625000Y-71775000D01*
X151790702Y-65500000D02*
X149700000Y-65500000D01*
X149700000Y-65500000D02*
X149700000Y-64600000D01*
X149800000Y-64500000D02*
X151000000Y-64500000D01*
X149700000Y-64600000D02*
X149800000Y-64500000D01*
X143900000Y-65000000D02*
X143700000Y-65200000D01*
X146600000Y-65000000D02*
X143900000Y-65000000D01*
X146600000Y-64500000D02*
X144800000Y-62700000D01*
X141500000Y-65200000D02*
X140500000Y-65200000D01*
X141575001Y-65124999D02*
X141500000Y-65200000D01*
X141575001Y-64189997D02*
X141575001Y-65124999D01*
X143064998Y-62700000D02*
X141575001Y-64189997D01*
X144800000Y-62700000D02*
X143064998Y-62700000D01*
D28*
G36*
X159340001Y-89340000D02*
G01*
X129834142Y-89340000D01*
X129837987Y-87800000D01*
X148386928Y-87800000D01*
X148399188Y-87924482D01*
X148435498Y-88044180D01*
X148494463Y-88154494D01*
X148573815Y-88251185D01*
X148670506Y-88330537D01*
X148780820Y-88389502D01*
X148900518Y-88425812D01*
X149025000Y-88438072D01*
X149214250Y-88435000D01*
X149373000Y-88276250D01*
X149373000Y-87402000D01*
X149627000Y-87402000D01*
X149627000Y-88276250D01*
X149785750Y-88435000D01*
X149975000Y-88438072D01*
X150099482Y-88425812D01*
X150219180Y-88389502D01*
X150329494Y-88330537D01*
X150426185Y-88251185D01*
X150505537Y-88154494D01*
X150564502Y-88044180D01*
X150600812Y-87924482D01*
X150613072Y-87800000D01*
X150610000Y-87560750D01*
X150451250Y-87402000D01*
X149627000Y-87402000D01*
X149373000Y-87402000D01*
X148548750Y-87402000D01*
X148390000Y-87560750D01*
X148386928Y-87800000D01*
X129837987Y-87800000D01*
X129840905Y-86631595D01*
X129929177Y-86466448D01*
X129994078Y-86252500D01*
X129994898Y-86244180D01*
X130004413Y-86147567D01*
X130010501Y-86085753D01*
X130010501Y-86085746D01*
X130015991Y-86030002D01*
X130010501Y-85974258D01*
X130010501Y-83685742D01*
X130015991Y-83630000D01*
X130010501Y-83574258D01*
X130010501Y-83574249D01*
X129994078Y-83407502D01*
X129929177Y-83193554D01*
X129849860Y-83045160D01*
X129853643Y-81530000D01*
X133186428Y-81530000D01*
X133189500Y-81944250D01*
X133348250Y-82103000D01*
X135110000Y-82103000D01*
X135110000Y-81053750D01*
X134951250Y-80895000D01*
X133824500Y-80891928D01*
X133700018Y-80904188D01*
X133580320Y-80940498D01*
X133470006Y-80999463D01*
X133373315Y-81078815D01*
X133293963Y-81175506D01*
X133234998Y-81285820D01*
X133198688Y-81405518D01*
X133186428Y-81530000D01*
X129853643Y-81530000D01*
X129905804Y-60639493D01*
X129905820Y-60639502D01*
X130025518Y-60675812D01*
X130150000Y-60688072D01*
X130240001Y-60688072D01*
X130240000Y-70262678D01*
X130236324Y-70300000D01*
X130240000Y-70337322D01*
X130240000Y-70337332D01*
X130250997Y-70448985D01*
X130273748Y-70523985D01*
X130294454Y-70592246D01*
X130365026Y-70724276D01*
X130373830Y-70735003D01*
X130459999Y-70840001D01*
X130489003Y-70863804D01*
X136636201Y-77011003D01*
X136659999Y-77040001D01*
X136688997Y-77063799D01*
X136775723Y-77134974D01*
X136907753Y-77205546D01*
X137051014Y-77249003D01*
X137162667Y-77260000D01*
X137162676Y-77260000D01*
X137199999Y-77263676D01*
X137237322Y-77260000D01*
X137262676Y-77260000D01*
X137299999Y-77263676D01*
X137337322Y-77260000D01*
X139240001Y-77260000D01*
X139240000Y-81462373D01*
X138885750Y-81465000D01*
X138727000Y-81623750D01*
X138727000Y-82548000D01*
X138747000Y-82548000D01*
X138747000Y-82802000D01*
X138727000Y-82802000D01*
X138727000Y-82822000D01*
X138473000Y-82822000D01*
X138473000Y-82802000D01*
X138453000Y-82802000D01*
X138453000Y-82548000D01*
X138473000Y-82548000D01*
X138473000Y-81623750D01*
X138314250Y-81465000D01*
X137900000Y-81461928D01*
X137775518Y-81474188D01*
X137655820Y-81510498D01*
X137545506Y-81569463D01*
X137448815Y-81648815D01*
X137369463Y-81745506D01*
X137310498Y-81855820D01*
X137284521Y-81941456D01*
X137287572Y-81530000D01*
X137275312Y-81405518D01*
X137239002Y-81285820D01*
X137180037Y-81175506D01*
X137100685Y-81078815D01*
X137003994Y-80999463D01*
X136893680Y-80940498D01*
X136773982Y-80904188D01*
X136649500Y-80891928D01*
X135522750Y-80895000D01*
X135364000Y-81053750D01*
X135364000Y-82103000D01*
X135384000Y-82103000D01*
X135384000Y-82357000D01*
X135364000Y-82357000D01*
X135364000Y-82377000D01*
X135110000Y-82377000D01*
X135110000Y-82357000D01*
X133348250Y-82357000D01*
X133189500Y-82515750D01*
X133186428Y-82930000D01*
X133198688Y-83054482D01*
X133234998Y-83174180D01*
X133293963Y-83284494D01*
X133373315Y-83381185D01*
X133470006Y-83460537D01*
X133543835Y-83500000D01*
X133470006Y-83539463D01*
X133373315Y-83618815D01*
X133293963Y-83715506D01*
X133234998Y-83825820D01*
X133198688Y-83945518D01*
X133186428Y-84070000D01*
X133186428Y-85470000D01*
X133198688Y-85594482D01*
X133234998Y-85714180D01*
X133293963Y-85824494D01*
X133373315Y-85921185D01*
X133470006Y-86000537D01*
X133580320Y-86059502D01*
X133700018Y-86095812D01*
X133824500Y-86108072D01*
X136649500Y-86108072D01*
X136773982Y-86095812D01*
X136893680Y-86059502D01*
X137003994Y-86000537D01*
X137100685Y-85921185D01*
X137113968Y-85905000D01*
X137923973Y-85905000D01*
X137976745Y-85921008D01*
X138149999Y-85938072D01*
X139050001Y-85938072D01*
X139223255Y-85921008D01*
X139276027Y-85905000D01*
X140111928Y-85905000D01*
X140111928Y-86000000D01*
X140124188Y-86124482D01*
X140160498Y-86244180D01*
X140219463Y-86354494D01*
X140298815Y-86451185D01*
X140395506Y-86530537D01*
X140505820Y-86589502D01*
X140625518Y-86625812D01*
X140750000Y-86638072D01*
X146050000Y-86638072D01*
X146174482Y-86625812D01*
X146294180Y-86589502D01*
X146404494Y-86530537D01*
X146501185Y-86451185D01*
X146580537Y-86354494D01*
X146639502Y-86244180D01*
X146675812Y-86124482D01*
X146688072Y-86000000D01*
X146688072Y-85972631D01*
X146733623Y-85948284D01*
X146906449Y-85806449D01*
X146941996Y-85763135D01*
X147541988Y-85163143D01*
X147648283Y-85033622D01*
X147753675Y-84836447D01*
X147788891Y-84720359D01*
X147803000Y-84706250D01*
X147803000Y-84673849D01*
X147818577Y-84622500D01*
X147840491Y-84400001D01*
X147838527Y-84380061D01*
X147854010Y-84329021D01*
X147868072Y-84186250D01*
X147868072Y-83973750D01*
X147854010Y-83830979D01*
X147830962Y-83755000D01*
X147854010Y-83679021D01*
X147868072Y-83536250D01*
X147868072Y-83323750D01*
X147854010Y-83180979D01*
X147830962Y-83105000D01*
X147854010Y-83029021D01*
X147868072Y-82886250D01*
X147868072Y-82673750D01*
X147854010Y-82530979D01*
X147837382Y-82476165D01*
X147833150Y-82314542D01*
X147795088Y-82010043D01*
X148013135Y-81791996D01*
X148056449Y-81756449D01*
X148198284Y-81583623D01*
X148303676Y-81386447D01*
X148368577Y-81172499D01*
X148381998Y-81036231D01*
X148390491Y-80950000D01*
X148385000Y-80894248D01*
X148385000Y-79944248D01*
X148368577Y-79777501D01*
X148338072Y-79676940D01*
X148338072Y-79400000D01*
X148325812Y-79275518D01*
X148289502Y-79155820D01*
X148230537Y-79045506D01*
X148151185Y-78948815D01*
X148054494Y-78869463D01*
X147944180Y-78810498D01*
X147824482Y-78774188D01*
X147700000Y-78761928D01*
X146800000Y-78761928D01*
X146675518Y-78774188D01*
X146555820Y-78810498D01*
X146445506Y-78869463D01*
X146348815Y-78948815D01*
X146269463Y-79045506D01*
X146210498Y-79155820D01*
X146174188Y-79275518D01*
X146161928Y-79400000D01*
X146161928Y-79676941D01*
X146131423Y-79777502D01*
X146115000Y-79944249D01*
X146115000Y-79968330D01*
X146050000Y-79961928D01*
X140760000Y-79961928D01*
X140760000Y-77470000D01*
X141285928Y-77470000D01*
X141298188Y-77594482D01*
X141334498Y-77714180D01*
X141393463Y-77824494D01*
X141472815Y-77921185D01*
X141569506Y-78000537D01*
X141679820Y-78059502D01*
X141799518Y-78095812D01*
X141924000Y-78108072D01*
X142538250Y-78105000D01*
X142697000Y-77946250D01*
X142697000Y-76797000D01*
X142951000Y-76797000D01*
X142951000Y-77946250D01*
X143109750Y-78105000D01*
X143724000Y-78108072D01*
X143848482Y-78095812D01*
X143968180Y-78059502D01*
X144078494Y-78000537D01*
X144175185Y-77921185D01*
X144254537Y-77824494D01*
X144313502Y-77714180D01*
X144349812Y-77594482D01*
X144362072Y-77470000D01*
X144359000Y-76955750D01*
X144200250Y-76797000D01*
X142951000Y-76797000D01*
X142697000Y-76797000D01*
X141447750Y-76797000D01*
X141289000Y-76955750D01*
X141285928Y-77470000D01*
X140760000Y-77470000D01*
X140760000Y-76537333D01*
X140763677Y-76500000D01*
X140752277Y-76384250D01*
X140749003Y-76351014D01*
X140705546Y-76207753D01*
X140634974Y-76075724D01*
X140540001Y-75959999D01*
X140424276Y-75865026D01*
X140292247Y-75794454D01*
X140148986Y-75750997D01*
X140093357Y-75745518D01*
X140037333Y-75740000D01*
X140000000Y-75736323D01*
X139962667Y-75740000D01*
X137614802Y-75740000D01*
X134111002Y-72236201D01*
X134024276Y-72165026D01*
X133892246Y-72094454D01*
X133859245Y-72084444D01*
X131760000Y-69985199D01*
X131760000Y-69040001D01*
X131788998Y-69063799D01*
X137298450Y-74573252D01*
X137328577Y-74672567D01*
X137409488Y-74823942D01*
X137518377Y-74956623D01*
X137651058Y-75065512D01*
X137802433Y-75146423D01*
X137966684Y-75196248D01*
X138137500Y-75213072D01*
X138712500Y-75213072D01*
X138883316Y-75196248D01*
X139047567Y-75146423D01*
X139198942Y-75065512D01*
X139300000Y-74982575D01*
X139401058Y-75065512D01*
X139552433Y-75146423D01*
X139716684Y-75196248D01*
X139887500Y-75213072D01*
X140462500Y-75213072D01*
X140633316Y-75196248D01*
X140797567Y-75146423D01*
X140948942Y-75065512D01*
X141081623Y-74956623D01*
X141160920Y-74860000D01*
X141285928Y-74860000D01*
X141285928Y-74930000D01*
X141298188Y-75054482D01*
X141334498Y-75174180D01*
X141393463Y-75284494D01*
X141472815Y-75381185D01*
X141495741Y-75400000D01*
X141472815Y-75418815D01*
X141393463Y-75515506D01*
X141334498Y-75625820D01*
X141298188Y-75745518D01*
X141285928Y-75870000D01*
X141289000Y-76384250D01*
X141447750Y-76543000D01*
X142697000Y-76543000D01*
X142697000Y-76523000D01*
X142951000Y-76523000D01*
X142951000Y-76543000D01*
X144200250Y-76543000D01*
X144359000Y-76384250D01*
X144362072Y-75870000D01*
X144349812Y-75745518D01*
X144313502Y-75625820D01*
X144254537Y-75515506D01*
X144175185Y-75418815D01*
X144152259Y-75400000D01*
X144175185Y-75381185D01*
X144254537Y-75284494D01*
X144313502Y-75174180D01*
X144349812Y-75054482D01*
X144362072Y-74930000D01*
X144362072Y-73330000D01*
X144349812Y-73205518D01*
X144313502Y-73085820D01*
X144254537Y-72975506D01*
X144175185Y-72878815D01*
X144078494Y-72799463D01*
X143968180Y-72740498D01*
X143848482Y-72704188D01*
X143724000Y-72691928D01*
X141924000Y-72691928D01*
X141799518Y-72704188D01*
X141679820Y-72740498D01*
X141569506Y-72799463D01*
X141472815Y-72878815D01*
X141393463Y-72975506D01*
X141334498Y-73085820D01*
X141298188Y-73205518D01*
X141285928Y-73330000D01*
X141285928Y-73340000D01*
X141160920Y-73340000D01*
X141081623Y-73243377D01*
X140948942Y-73134488D01*
X140797567Y-73053577D01*
X140633316Y-73003752D01*
X140462500Y-72986928D01*
X139887500Y-72986928D01*
X139716684Y-73003752D01*
X139552433Y-73053577D01*
X139401058Y-73134488D01*
X139300000Y-73217425D01*
X139198942Y-73134488D01*
X139047567Y-73053577D01*
X138883316Y-73003752D01*
X138712500Y-72986928D01*
X138137500Y-72986928D01*
X137966684Y-73003752D01*
X137899066Y-73024264D01*
X134412873Y-69538072D01*
X134750001Y-69538072D01*
X134923255Y-69521008D01*
X135089851Y-69470472D01*
X135167356Y-69429045D01*
X135266218Y-69577003D01*
X135410381Y-69721166D01*
X135579899Y-69834434D01*
X135768257Y-69912455D01*
X135968216Y-69952229D01*
X136030353Y-69952229D01*
X136289130Y-70211005D01*
X136312928Y-70240004D01*
X136341926Y-70263802D01*
X136428653Y-70334977D01*
X136560682Y-70405549D01*
X136703943Y-70449006D01*
X136852929Y-70463680D01*
X136890262Y-70460003D01*
X140996289Y-70460003D01*
X141040226Y-70503940D01*
X141209744Y-70617208D01*
X141398102Y-70695229D01*
X141598061Y-70735003D01*
X141801939Y-70735003D01*
X142001898Y-70695229D01*
X142190256Y-70617208D01*
X142359774Y-70503940D01*
X142503937Y-70359777D01*
X142617205Y-70190259D01*
X142695226Y-70001901D01*
X142735000Y-69801942D01*
X142735000Y-69598064D01*
X142695226Y-69398105D01*
X142617205Y-69209747D01*
X142610693Y-69200002D01*
X142617205Y-69190256D01*
X142695226Y-69001898D01*
X142735000Y-68801939D01*
X142735000Y-68598061D01*
X142695226Y-68398102D01*
X142617205Y-68209744D01*
X142503937Y-68040226D01*
X142359774Y-67896063D01*
X142190256Y-67782795D01*
X142001898Y-67704774D01*
X141801939Y-67665000D01*
X141598061Y-67665000D01*
X141398102Y-67704774D01*
X141209744Y-67782795D01*
X141040226Y-67896063D01*
X140996289Y-67940000D01*
X137193034Y-67940000D01*
X137189786Y-67936752D01*
X137400000Y-67938072D01*
X137524482Y-67925812D01*
X137644180Y-67889502D01*
X137754494Y-67830537D01*
X137851185Y-67751185D01*
X137930537Y-67654494D01*
X137989502Y-67544180D01*
X138025812Y-67424482D01*
X138038072Y-67300000D01*
X138035000Y-67285750D01*
X137876252Y-67127002D01*
X138035000Y-67127002D01*
X138035000Y-67060000D01*
X138984368Y-67060000D01*
X139075724Y-67134974D01*
X139137366Y-67167923D01*
X139160498Y-67244180D01*
X139219463Y-67354494D01*
X139298815Y-67451185D01*
X139395506Y-67530537D01*
X139505820Y-67589502D01*
X139625518Y-67625812D01*
X139750000Y-67638072D01*
X141250000Y-67638072D01*
X141374482Y-67625812D01*
X141494180Y-67589502D01*
X141604494Y-67530537D01*
X141701185Y-67451185D01*
X141780537Y-67354494D01*
X141831046Y-67260000D01*
X142368954Y-67260000D01*
X142419463Y-67354494D01*
X142498815Y-67451185D01*
X142595506Y-67530537D01*
X142705820Y-67589502D01*
X142739990Y-67599867D01*
X142739991Y-69937658D01*
X142736314Y-69974990D01*
X142750988Y-70123975D01*
X142794444Y-70267236D01*
X142865016Y-70399266D01*
X142917880Y-70463680D01*
X142959990Y-70514991D01*
X142988988Y-70538789D01*
X143203232Y-70753033D01*
X143203752Y-70758316D01*
X143253577Y-70922567D01*
X143334488Y-71073942D01*
X143443377Y-71206623D01*
X143576058Y-71315512D01*
X143727433Y-71396423D01*
X143891684Y-71446248D01*
X144062500Y-71463072D01*
X144537500Y-71463072D01*
X144708316Y-71446248D01*
X144872567Y-71396423D01*
X145023942Y-71315512D01*
X145156623Y-71206623D01*
X145265512Y-71073942D01*
X145272964Y-71060000D01*
X145386948Y-71060000D01*
X145434488Y-71148942D01*
X145543377Y-71281623D01*
X145676058Y-71390512D01*
X145827433Y-71471423D01*
X145991684Y-71521248D01*
X146162500Y-71538072D01*
X146637500Y-71538072D01*
X146808316Y-71521248D01*
X146972567Y-71471423D01*
X147123942Y-71390512D01*
X147256623Y-71281623D01*
X147365512Y-71148942D01*
X147372964Y-71135000D01*
X147587678Y-71135000D01*
X147625000Y-71138676D01*
X147662322Y-71135000D01*
X147662333Y-71135000D01*
X147773986Y-71124003D01*
X147917247Y-71080546D01*
X148049276Y-71009974D01*
X148165001Y-70915001D01*
X148188804Y-70885997D01*
X149778034Y-69296768D01*
X149783316Y-69296248D01*
X149947567Y-69246423D01*
X150098942Y-69165512D01*
X150122839Y-69145901D01*
X150195506Y-69205537D01*
X150305820Y-69264502D01*
X150425518Y-69300812D01*
X150550000Y-69313072D01*
X150789250Y-69310000D01*
X150948000Y-69151250D01*
X150948000Y-68327000D01*
X150928000Y-68327000D01*
X150928000Y-68073000D01*
X150948000Y-68073000D01*
X150948000Y-68053000D01*
X151202000Y-68053000D01*
X151202000Y-68073000D01*
X151222000Y-68073000D01*
X151222000Y-68327000D01*
X151202000Y-68327000D01*
X151202000Y-69151250D01*
X151290010Y-69239260D01*
X151290010Y-71162687D01*
X151286334Y-71200010D01*
X151290010Y-71237332D01*
X151290010Y-71237342D01*
X151301007Y-71348995D01*
X151341581Y-71482753D01*
X151344464Y-71492256D01*
X151415036Y-71624286D01*
X151448759Y-71665377D01*
X151510009Y-71740011D01*
X151539012Y-71763813D01*
X151562531Y-71787332D01*
X151522324Y-71862554D01*
X151457423Y-72076502D01*
X151435509Y-72299000D01*
X151441000Y-72354751D01*
X151441000Y-72737713D01*
X151431820Y-72740498D01*
X151321506Y-72799463D01*
X151224815Y-72878815D01*
X151145463Y-72975506D01*
X151086498Y-73085820D01*
X151050188Y-73205518D01*
X151037928Y-73330000D01*
X151037928Y-74930000D01*
X151050188Y-75054482D01*
X151086498Y-75174180D01*
X151145463Y-75284494D01*
X151224815Y-75381185D01*
X151247741Y-75400000D01*
X151224815Y-75418815D01*
X151145463Y-75515506D01*
X151086498Y-75625820D01*
X151050188Y-75745518D01*
X151037928Y-75870000D01*
X151037928Y-77470000D01*
X151050188Y-77594482D01*
X151086498Y-77714180D01*
X151145463Y-77824494D01*
X151224815Y-77921185D01*
X151321506Y-78000537D01*
X151431820Y-78059502D01*
X151551518Y-78095812D01*
X151565001Y-78097140D01*
X151565000Y-78865000D01*
X151346144Y-78865000D01*
X151244180Y-78810498D01*
X151124482Y-78774188D01*
X151000000Y-78761928D01*
X150100000Y-78761928D01*
X149975518Y-78774188D01*
X149855820Y-78810498D01*
X149745506Y-78869463D01*
X149648815Y-78948815D01*
X149569463Y-79045506D01*
X149510498Y-79155820D01*
X149474188Y-79275518D01*
X149461928Y-79400000D01*
X149461928Y-79676940D01*
X149431423Y-79777501D01*
X149409509Y-80000000D01*
X149431423Y-80222499D01*
X149461928Y-80323060D01*
X149461928Y-80600000D01*
X149474188Y-80724482D01*
X149510498Y-80844180D01*
X149569463Y-80954494D01*
X149648815Y-81051185D01*
X149720796Y-81110258D01*
X149673815Y-81148815D01*
X149594463Y-81245506D01*
X149535498Y-81355820D01*
X149499188Y-81475518D01*
X149486928Y-81600000D01*
X149490000Y-81839250D01*
X149648750Y-81998000D01*
X150473000Y-81998000D01*
X150473000Y-81978000D01*
X150727000Y-81978000D01*
X150727000Y-81998000D01*
X151551250Y-81998000D01*
X151576250Y-81973000D01*
X152573000Y-81973000D01*
X152573000Y-81953000D01*
X152827000Y-81953000D01*
X152827000Y-81973000D01*
X152847000Y-81973000D01*
X152847000Y-82227000D01*
X152827000Y-82227000D01*
X152827000Y-83151250D01*
X152985750Y-83310000D01*
X153012670Y-83310200D01*
X151932871Y-84390000D01*
X151679053Y-84390000D01*
X151696248Y-84333316D01*
X151713072Y-84162500D01*
X151713072Y-83587500D01*
X151696248Y-83416684D01*
X151646423Y-83252433D01*
X151602486Y-83170231D01*
X151645506Y-83205537D01*
X151755820Y-83264502D01*
X151875518Y-83300812D01*
X152000000Y-83313072D01*
X152414250Y-83310000D01*
X152573000Y-83151250D01*
X152573000Y-82227000D01*
X151523750Y-82227000D01*
X151498750Y-82252000D01*
X150727000Y-82252000D01*
X150727000Y-82272000D01*
X150473000Y-82272000D01*
X150473000Y-82252000D01*
X149648750Y-82252000D01*
X149583492Y-82317258D01*
X149546157Y-82241940D01*
X149469807Y-82142861D01*
X149375594Y-82060581D01*
X149267140Y-81998263D01*
X149148612Y-81958299D01*
X149036750Y-81945000D01*
X148878000Y-82103750D01*
X148878000Y-82176201D01*
X148784494Y-82099463D01*
X148716218Y-82062968D01*
X148598250Y-81945000D01*
X148486388Y-81958299D01*
X148384723Y-81992577D01*
X148215750Y-81995000D01*
X148057000Y-82153750D01*
X148057000Y-82306177D01*
X148033289Y-82354010D01*
X148000666Y-82474765D01*
X147995000Y-82548250D01*
X148057000Y-82610250D01*
X148057000Y-82949750D01*
X147995000Y-83011750D01*
X148000666Y-83085235D01*
X148016855Y-83145161D01*
X148005990Y-83180979D01*
X147991928Y-83323750D01*
X147991928Y-83536250D01*
X148005990Y-83679021D01*
X148029038Y-83755000D01*
X148005990Y-83830979D01*
X147991928Y-83973750D01*
X147991928Y-84186250D01*
X148005990Y-84329021D01*
X148047635Y-84466306D01*
X148057000Y-84483827D01*
X148057000Y-84706250D01*
X148215750Y-84865000D01*
X148430000Y-84868072D01*
X148454540Y-84865655D01*
X148470627Y-84870535D01*
X148453577Y-84902433D01*
X148403752Y-85066684D01*
X148386928Y-85237500D01*
X148386928Y-85284354D01*
X148381423Y-85302501D01*
X148359509Y-85525000D01*
X148381423Y-85747499D01*
X148386928Y-85765646D01*
X148386928Y-85812500D01*
X148403752Y-85983316D01*
X148453577Y-86147567D01*
X148534488Y-86298942D01*
X148554099Y-86322839D01*
X148494463Y-86395506D01*
X148435498Y-86505820D01*
X148399188Y-86625518D01*
X148386928Y-86750000D01*
X148390000Y-86989250D01*
X148548750Y-87148000D01*
X149373000Y-87148000D01*
X149373000Y-87128000D01*
X149627000Y-87128000D01*
X149627000Y-87148000D01*
X150451250Y-87148000D01*
X150610000Y-86989250D01*
X150613072Y-86750000D01*
X150604208Y-86660000D01*
X152347251Y-86660000D01*
X152403002Y-86665491D01*
X152458753Y-86660000D01*
X152458754Y-86660000D01*
X152625501Y-86643577D01*
X152839449Y-86578676D01*
X153036625Y-86473284D01*
X153209451Y-86331449D01*
X153244998Y-86288136D01*
X155363156Y-84169979D01*
X155406459Y-84134441D01*
X155459345Y-84070000D01*
X155548294Y-83961615D01*
X155653686Y-83764439D01*
X155718587Y-83550491D01*
X155740501Y-83327992D01*
X155735010Y-83272240D01*
X155735010Y-59883692D01*
X155740501Y-59827940D01*
X155718587Y-59605441D01*
X155653686Y-59391493D01*
X155548294Y-59194317D01*
X155441999Y-59064796D01*
X155441997Y-59064794D01*
X155406459Y-59021491D01*
X155363156Y-58985953D01*
X153614065Y-57236864D01*
X153578519Y-57193551D01*
X153405693Y-57051716D01*
X153208517Y-56946324D01*
X152994569Y-56881423D01*
X152827822Y-56865000D01*
X152827821Y-56865000D01*
X152772070Y-56859509D01*
X152716319Y-56865000D01*
X149571437Y-56865000D01*
X149549901Y-56853489D01*
X149317102Y-56782870D01*
X149135665Y-56765000D01*
X148464335Y-56765000D01*
X148282898Y-56782870D01*
X148050099Y-56853489D01*
X148028563Y-56865000D01*
X146060895Y-56865000D01*
X146015990Y-56756589D01*
X145853475Y-56513368D01*
X145646632Y-56306525D01*
X145403411Y-56144010D01*
X145133158Y-56032068D01*
X144846260Y-55975000D01*
X144553740Y-55975000D01*
X144266842Y-56032068D01*
X143996589Y-56144010D01*
X143753368Y-56306525D01*
X143546525Y-56513368D01*
X143384010Y-56756589D01*
X143272068Y-57026842D01*
X143215000Y-57313740D01*
X143215000Y-57606260D01*
X143272068Y-57893158D01*
X143279027Y-57909959D01*
X143224276Y-57865026D01*
X143092247Y-57794454D01*
X142948986Y-57750997D01*
X142837333Y-57740000D01*
X142800000Y-57736323D01*
X142762667Y-57740000D01*
X142714741Y-57740000D01*
X142792582Y-57569942D01*
X142849642Y-57329404D01*
X142858680Y-57082355D01*
X142819347Y-56838291D01*
X142733156Y-56606590D01*
X142689691Y-56525274D01*
X142464072Y-56475533D01*
X141779605Y-57160000D01*
X141793748Y-57174143D01*
X141614143Y-57353748D01*
X141600000Y-57339605D01*
X141585858Y-57353748D01*
X141406253Y-57174143D01*
X141420395Y-57160000D01*
X140735928Y-56475533D01*
X140510309Y-56525274D01*
X140407418Y-56750058D01*
X140350358Y-56990596D01*
X140343612Y-57175000D01*
X140315291Y-57175000D01*
X140318680Y-57082355D01*
X140279347Y-56838291D01*
X140193156Y-56606590D01*
X140149691Y-56525274D01*
X139924072Y-56475533D01*
X139239605Y-57160000D01*
X139253748Y-57174143D01*
X139074143Y-57353748D01*
X139060000Y-57339605D01*
X138375533Y-58024072D01*
X138425274Y-58249691D01*
X138650058Y-58352582D01*
X138890596Y-58409642D01*
X139075000Y-58416388D01*
X139075000Y-58444709D01*
X138982355Y-58441320D01*
X138738291Y-58480653D01*
X138506590Y-58566844D01*
X138425274Y-58610309D01*
X138375533Y-58835928D01*
X139060000Y-59520395D01*
X139074143Y-59506253D01*
X139253748Y-59685858D01*
X139239605Y-59700000D01*
X139924072Y-60384467D01*
X140149691Y-60334726D01*
X140252582Y-60109942D01*
X140309642Y-59869404D01*
X140316388Y-59685000D01*
X140344709Y-59685000D01*
X140341320Y-59777645D01*
X140380653Y-60021709D01*
X140466844Y-60253410D01*
X140510309Y-60334726D01*
X140735928Y-60384467D01*
X141420395Y-59700000D01*
X141406253Y-59685858D01*
X141585858Y-59506253D01*
X141600000Y-59520395D01*
X141614143Y-59506253D01*
X141793748Y-59685858D01*
X141779605Y-59700000D01*
X142464072Y-60384467D01*
X142689691Y-60334726D01*
X142743145Y-60217946D01*
X143036201Y-60511002D01*
X143059999Y-60540001D01*
X143175724Y-60634974D01*
X143211928Y-60654326D01*
X143211928Y-60850000D01*
X143224188Y-60974482D01*
X143260498Y-61094180D01*
X143319463Y-61204494D01*
X143398815Y-61301185D01*
X143495506Y-61380537D01*
X143605820Y-61439502D01*
X143725518Y-61475812D01*
X143850000Y-61488072D01*
X145550000Y-61488072D01*
X145674482Y-61475812D01*
X145794180Y-61439502D01*
X145904494Y-61380537D01*
X146001185Y-61301185D01*
X146080537Y-61204494D01*
X146104320Y-61160000D01*
X147815557Y-61160000D01*
X147835149Y-61170472D01*
X148001745Y-61221008D01*
X148174999Y-61238072D01*
X149425001Y-61238072D01*
X149598255Y-61221008D01*
X149764851Y-61170472D01*
X149784443Y-61160000D01*
X151965000Y-61160000D01*
X151965001Y-63788720D01*
X151922881Y-63766207D01*
X151789113Y-63725629D01*
X151650000Y-63711928D01*
X150350000Y-63711928D01*
X150210887Y-63725629D01*
X150163512Y-63740000D01*
X149837322Y-63740000D01*
X149799999Y-63736324D01*
X149762677Y-63740000D01*
X149762667Y-63740000D01*
X149651014Y-63750997D01*
X149507753Y-63794454D01*
X149375724Y-63865026D01*
X149259999Y-63959999D01*
X149236196Y-63989003D01*
X149188998Y-64036201D01*
X149160000Y-64059999D01*
X149136202Y-64088997D01*
X149136201Y-64088998D01*
X149065026Y-64175724D01*
X148994454Y-64307754D01*
X148973754Y-64375997D01*
X148950998Y-64451014D01*
X148940000Y-64562667D01*
X148940000Y-64562678D01*
X148936324Y-64600000D01*
X148940000Y-64637322D01*
X148940000Y-65462667D01*
X148936323Y-65500000D01*
X148950997Y-65648986D01*
X148994454Y-65792247D01*
X149065026Y-65924276D01*
X149127171Y-66000000D01*
X149159999Y-66040001D01*
X149275724Y-66134974D01*
X149407753Y-66205546D01*
X149551014Y-66249003D01*
X149648384Y-66258593D01*
X149651156Y-66283996D01*
X149651180Y-66284071D01*
X149650629Y-66285887D01*
X149646403Y-66328795D01*
X148871967Y-67103232D01*
X148866684Y-67103752D01*
X148702433Y-67153577D01*
X148551058Y-67234488D01*
X148418377Y-67343377D01*
X148309488Y-67476058D01*
X148228577Y-67627433D01*
X148178752Y-67791684D01*
X148161928Y-67962500D01*
X148161928Y-68437500D01*
X148178752Y-68608316D01*
X148210901Y-68714297D01*
X147346864Y-69578335D01*
X147282575Y-69500000D01*
X147365512Y-69398942D01*
X147446423Y-69247567D01*
X147496248Y-69083316D01*
X147513072Y-68912500D01*
X147513072Y-68337500D01*
X147496248Y-68166684D01*
X147446423Y-68002433D01*
X147365512Y-67851058D01*
X147360000Y-67844342D01*
X147360000Y-67277238D01*
X147389113Y-67274371D01*
X147522881Y-67233793D01*
X147646162Y-67167898D01*
X147754218Y-67079218D01*
X147842898Y-66971162D01*
X147908793Y-66847881D01*
X147949371Y-66714113D01*
X147963072Y-66575000D01*
X147963072Y-66425000D01*
X147949371Y-66285887D01*
X147938485Y-66250000D01*
X147949371Y-66214113D01*
X147963072Y-66075000D01*
X147963072Y-65925000D01*
X147949371Y-65785887D01*
X147938485Y-65750000D01*
X147949371Y-65714113D01*
X147963072Y-65575000D01*
X147963072Y-65425000D01*
X147949371Y-65285887D01*
X147938485Y-65250000D01*
X147949371Y-65214113D01*
X147963072Y-65075000D01*
X147963072Y-64925000D01*
X147949371Y-64785887D01*
X147938485Y-64750000D01*
X147949371Y-64714113D01*
X147963072Y-64575000D01*
X147963072Y-64425000D01*
X147949371Y-64285887D01*
X147908793Y-64152119D01*
X147842898Y-64028838D01*
X147754218Y-63920782D01*
X147646162Y-63832102D01*
X147522881Y-63766207D01*
X147389113Y-63725629D01*
X147250000Y-63711928D01*
X146886731Y-63711928D01*
X145363803Y-62189002D01*
X145340001Y-62159999D01*
X145224276Y-62065026D01*
X145092247Y-61994454D01*
X144948986Y-61950997D01*
X144837333Y-61940000D01*
X144837322Y-61940000D01*
X144800000Y-61936324D01*
X144762678Y-61940000D01*
X143102321Y-61940000D01*
X143064998Y-61936324D01*
X143027675Y-61940000D01*
X143027665Y-61940000D01*
X142916012Y-61950997D01*
X142772751Y-61994454D01*
X142640721Y-62065026D01*
X142557081Y-62133668D01*
X142524997Y-62159999D01*
X142501199Y-62188997D01*
X141719304Y-62970893D01*
X141701185Y-62948815D01*
X141604494Y-62869463D01*
X141494180Y-62810498D01*
X141374482Y-62774188D01*
X141250000Y-62761928D01*
X140785750Y-62765000D01*
X140627000Y-62923750D01*
X140627000Y-63773000D01*
X140647000Y-63773000D01*
X140647000Y-64027000D01*
X140627000Y-64027000D01*
X140627000Y-64047000D01*
X140373000Y-64047000D01*
X140373000Y-64027000D01*
X139273750Y-64027000D01*
X139115000Y-64185750D01*
X139111928Y-64400000D01*
X139124188Y-64524482D01*
X139131929Y-64550000D01*
X139124188Y-64575518D01*
X139111928Y-64700000D01*
X139111928Y-65540000D01*
X137973584Y-65540000D01*
X137952204Y-65500000D01*
X137978084Y-65451582D01*
X138022929Y-65303745D01*
X138038072Y-65150000D01*
X138038072Y-64850000D01*
X138022929Y-64696255D01*
X137978084Y-64548418D01*
X137952204Y-64500000D01*
X137978084Y-64451582D01*
X138022929Y-64303745D01*
X138038072Y-64150000D01*
X138038072Y-63850000D01*
X138022929Y-63696255D01*
X137978084Y-63548418D01*
X137905258Y-63412171D01*
X137895270Y-63400000D01*
X139111928Y-63400000D01*
X139115000Y-63614250D01*
X139273750Y-63773000D01*
X140373000Y-63773000D01*
X140373000Y-62923750D01*
X140214250Y-62765000D01*
X139750000Y-62761928D01*
X139625518Y-62774188D01*
X139505820Y-62810498D01*
X139395506Y-62869463D01*
X139298815Y-62948815D01*
X139219463Y-63045506D01*
X139160498Y-63155820D01*
X139124188Y-63275518D01*
X139111928Y-63400000D01*
X137895270Y-63400000D01*
X137807251Y-63292749D01*
X137687829Y-63194742D01*
X137551582Y-63121916D01*
X137403745Y-63077071D01*
X137250000Y-63061928D01*
X136000000Y-63061928D01*
X135846255Y-63077071D01*
X135698418Y-63121916D01*
X135627242Y-63159961D01*
X135638072Y-63050001D01*
X135638072Y-62349999D01*
X135621008Y-62176745D01*
X135570472Y-62010149D01*
X135488405Y-61856613D01*
X135377962Y-61722038D01*
X135243387Y-61611595D01*
X135089851Y-61529528D01*
X134923255Y-61478992D01*
X134750001Y-61461928D01*
X133554955Y-61461928D01*
X134051003Y-60965880D01*
X134080001Y-60942082D01*
X134174974Y-60826357D01*
X134245546Y-60694328D01*
X134289003Y-60551067D01*
X134295913Y-60480909D01*
X134486632Y-60353475D01*
X134693475Y-60146632D01*
X134815195Y-59964466D01*
X134884822Y-60081355D01*
X135079731Y-60297588D01*
X135313080Y-60471641D01*
X135575901Y-60596825D01*
X135723110Y-60641476D01*
X135953000Y-60520155D01*
X135953000Y-59327000D01*
X136207000Y-59327000D01*
X136207000Y-60520155D01*
X136436890Y-60641476D01*
X136584099Y-60596825D01*
X136652863Y-60564072D01*
X138375533Y-60564072D01*
X138425274Y-60789691D01*
X138650058Y-60892582D01*
X138890596Y-60949642D01*
X139137645Y-60958680D01*
X139381709Y-60919347D01*
X139613410Y-60833156D01*
X139694726Y-60789691D01*
X139744467Y-60564072D01*
X140915533Y-60564072D01*
X140965274Y-60789691D01*
X141190058Y-60892582D01*
X141430596Y-60949642D01*
X141677645Y-60958680D01*
X141921709Y-60919347D01*
X142153410Y-60833156D01*
X142234726Y-60789691D01*
X142284467Y-60564072D01*
X141600000Y-59879605D01*
X140915533Y-60564072D01*
X139744467Y-60564072D01*
X139060000Y-59879605D01*
X138375533Y-60564072D01*
X136652863Y-60564072D01*
X136846920Y-60471641D01*
X137080269Y-60297588D01*
X137275178Y-60081355D01*
X137424157Y-59831252D01*
X137443172Y-59777645D01*
X137801320Y-59777645D01*
X137840653Y-60021709D01*
X137926844Y-60253410D01*
X137970309Y-60334726D01*
X138195928Y-60384467D01*
X138880395Y-59700000D01*
X138195928Y-59015533D01*
X137970309Y-59065274D01*
X137867418Y-59290058D01*
X137810358Y-59530596D01*
X137801320Y-59777645D01*
X137443172Y-59777645D01*
X137521481Y-59556891D01*
X137400814Y-59327000D01*
X136207000Y-59327000D01*
X135953000Y-59327000D01*
X135933000Y-59327000D01*
X135933000Y-59073000D01*
X135953000Y-59073000D01*
X135953000Y-57879845D01*
X136207000Y-57879845D01*
X136207000Y-59073000D01*
X137400814Y-59073000D01*
X137521481Y-58843109D01*
X137424157Y-58568748D01*
X137275178Y-58318645D01*
X137080269Y-58102412D01*
X136846920Y-57928359D01*
X136584099Y-57803175D01*
X136436890Y-57758524D01*
X136207000Y-57879845D01*
X135953000Y-57879845D01*
X135723110Y-57758524D01*
X135575901Y-57803175D01*
X135313080Y-57928359D01*
X135079731Y-58102412D01*
X134884822Y-58318645D01*
X134815195Y-58435534D01*
X134693475Y-58253368D01*
X134486632Y-58046525D01*
X134243411Y-57884010D01*
X133973158Y-57772068D01*
X133686260Y-57715000D01*
X133393740Y-57715000D01*
X133106842Y-57772068D01*
X132836589Y-57884010D01*
X132593368Y-58046525D01*
X132461513Y-58178380D01*
X132439502Y-58105820D01*
X132380537Y-57995506D01*
X132301185Y-57898815D01*
X132204494Y-57819463D01*
X132094180Y-57760498D01*
X131974482Y-57724188D01*
X131850000Y-57711928D01*
X130150000Y-57711928D01*
X130025518Y-57724188D01*
X129912998Y-57758321D01*
X129914298Y-57237645D01*
X137801320Y-57237645D01*
X137840653Y-57481709D01*
X137926844Y-57713410D01*
X137970309Y-57794726D01*
X138195928Y-57844467D01*
X138880395Y-57160000D01*
X138195928Y-56475533D01*
X137970309Y-56525274D01*
X137867418Y-56750058D01*
X137810358Y-56990596D01*
X137801320Y-57237645D01*
X129914298Y-57237645D01*
X129916649Y-56295928D01*
X138375533Y-56295928D01*
X139060000Y-56980395D01*
X139744467Y-56295928D01*
X140915533Y-56295928D01*
X141600000Y-56980395D01*
X142284467Y-56295928D01*
X142234726Y-56070309D01*
X142009942Y-55967418D01*
X141769404Y-55910358D01*
X141522355Y-55901320D01*
X141278291Y-55940653D01*
X141046590Y-56026844D01*
X140965274Y-56070309D01*
X140915533Y-56295928D01*
X139744467Y-56295928D01*
X139694726Y-56070309D01*
X139469942Y-55967418D01*
X139229404Y-55910358D01*
X138982355Y-55901320D01*
X138738291Y-55940653D01*
X138506590Y-56026844D01*
X138425274Y-56070309D01*
X138375533Y-56295928D01*
X129916649Y-56295928D01*
X129918237Y-55660000D01*
X159340000Y-55660000D01*
X159340001Y-89340000D01*
G37*
X159340001Y-89340000D02*
X129834142Y-89340000D01*
X129837987Y-87800000D01*
X148386928Y-87800000D01*
X148399188Y-87924482D01*
X148435498Y-88044180D01*
X148494463Y-88154494D01*
X148573815Y-88251185D01*
X148670506Y-88330537D01*
X148780820Y-88389502D01*
X148900518Y-88425812D01*
X149025000Y-88438072D01*
X149214250Y-88435000D01*
X149373000Y-88276250D01*
X149373000Y-87402000D01*
X149627000Y-87402000D01*
X149627000Y-88276250D01*
X149785750Y-88435000D01*
X149975000Y-88438072D01*
X150099482Y-88425812D01*
X150219180Y-88389502D01*
X150329494Y-88330537D01*
X150426185Y-88251185D01*
X150505537Y-88154494D01*
X150564502Y-88044180D01*
X150600812Y-87924482D01*
X150613072Y-87800000D01*
X150610000Y-87560750D01*
X150451250Y-87402000D01*
X149627000Y-87402000D01*
X149373000Y-87402000D01*
X148548750Y-87402000D01*
X148390000Y-87560750D01*
X148386928Y-87800000D01*
X129837987Y-87800000D01*
X129840905Y-86631595D01*
X129929177Y-86466448D01*
X129994078Y-86252500D01*
X129994898Y-86244180D01*
X130004413Y-86147567D01*
X130010501Y-86085753D01*
X130010501Y-86085746D01*
X130015991Y-86030002D01*
X130010501Y-85974258D01*
X130010501Y-83685742D01*
X130015991Y-83630000D01*
X130010501Y-83574258D01*
X130010501Y-83574249D01*
X129994078Y-83407502D01*
X129929177Y-83193554D01*
X129849860Y-83045160D01*
X129853643Y-81530000D01*
X133186428Y-81530000D01*
X133189500Y-81944250D01*
X133348250Y-82103000D01*
X135110000Y-82103000D01*
X135110000Y-81053750D01*
X134951250Y-80895000D01*
X133824500Y-80891928D01*
X133700018Y-80904188D01*
X133580320Y-80940498D01*
X133470006Y-80999463D01*
X133373315Y-81078815D01*
X133293963Y-81175506D01*
X133234998Y-81285820D01*
X133198688Y-81405518D01*
X133186428Y-81530000D01*
X129853643Y-81530000D01*
X129905804Y-60639493D01*
X129905820Y-60639502D01*
X130025518Y-60675812D01*
X130150000Y-60688072D01*
X130240001Y-60688072D01*
X130240000Y-70262678D01*
X130236324Y-70300000D01*
X130240000Y-70337322D01*
X130240000Y-70337332D01*
X130250997Y-70448985D01*
X130273748Y-70523985D01*
X130294454Y-70592246D01*
X130365026Y-70724276D01*
X130373830Y-70735003D01*
X130459999Y-70840001D01*
X130489003Y-70863804D01*
X136636201Y-77011003D01*
X136659999Y-77040001D01*
X136688997Y-77063799D01*
X136775723Y-77134974D01*
X136907753Y-77205546D01*
X137051014Y-77249003D01*
X137162667Y-77260000D01*
X137162676Y-77260000D01*
X137199999Y-77263676D01*
X137237322Y-77260000D01*
X137262676Y-77260000D01*
X137299999Y-77263676D01*
X137337322Y-77260000D01*
X139240001Y-77260000D01*
X139240000Y-81462373D01*
X138885750Y-81465000D01*
X138727000Y-81623750D01*
X138727000Y-82548000D01*
X138747000Y-82548000D01*
X138747000Y-82802000D01*
X138727000Y-82802000D01*
X138727000Y-82822000D01*
X138473000Y-82822000D01*
X138473000Y-82802000D01*
X138453000Y-82802000D01*
X138453000Y-82548000D01*
X138473000Y-82548000D01*
X138473000Y-81623750D01*
X138314250Y-81465000D01*
X137900000Y-81461928D01*
X137775518Y-81474188D01*
X137655820Y-81510498D01*
X137545506Y-81569463D01*
X137448815Y-81648815D01*
X137369463Y-81745506D01*
X137310498Y-81855820D01*
X137284521Y-81941456D01*
X137287572Y-81530000D01*
X137275312Y-81405518D01*
X137239002Y-81285820D01*
X137180037Y-81175506D01*
X137100685Y-81078815D01*
X137003994Y-80999463D01*
X136893680Y-80940498D01*
X136773982Y-80904188D01*
X136649500Y-80891928D01*
X135522750Y-80895000D01*
X135364000Y-81053750D01*
X135364000Y-82103000D01*
X135384000Y-82103000D01*
X135384000Y-82357000D01*
X135364000Y-82357000D01*
X135364000Y-82377000D01*
X135110000Y-82377000D01*
X135110000Y-82357000D01*
X133348250Y-82357000D01*
X133189500Y-82515750D01*
X133186428Y-82930000D01*
X133198688Y-83054482D01*
X133234998Y-83174180D01*
X133293963Y-83284494D01*
X133373315Y-83381185D01*
X133470006Y-83460537D01*
X133543835Y-83500000D01*
X133470006Y-83539463D01*
X133373315Y-83618815D01*
X133293963Y-83715506D01*
X133234998Y-83825820D01*
X133198688Y-83945518D01*
X133186428Y-84070000D01*
X133186428Y-85470000D01*
X133198688Y-85594482D01*
X133234998Y-85714180D01*
X133293963Y-85824494D01*
X133373315Y-85921185D01*
X133470006Y-86000537D01*
X133580320Y-86059502D01*
X133700018Y-86095812D01*
X133824500Y-86108072D01*
X136649500Y-86108072D01*
X136773982Y-86095812D01*
X136893680Y-86059502D01*
X137003994Y-86000537D01*
X137100685Y-85921185D01*
X137113968Y-85905000D01*
X137923973Y-85905000D01*
X137976745Y-85921008D01*
X138149999Y-85938072D01*
X139050001Y-85938072D01*
X139223255Y-85921008D01*
X139276027Y-85905000D01*
X140111928Y-85905000D01*
X140111928Y-86000000D01*
X140124188Y-86124482D01*
X140160498Y-86244180D01*
X140219463Y-86354494D01*
X140298815Y-86451185D01*
X140395506Y-86530537D01*
X140505820Y-86589502D01*
X140625518Y-86625812D01*
X140750000Y-86638072D01*
X146050000Y-86638072D01*
X146174482Y-86625812D01*
X146294180Y-86589502D01*
X146404494Y-86530537D01*
X146501185Y-86451185D01*
X146580537Y-86354494D01*
X146639502Y-86244180D01*
X146675812Y-86124482D01*
X146688072Y-86000000D01*
X146688072Y-85972631D01*
X146733623Y-85948284D01*
X146906449Y-85806449D01*
X146941996Y-85763135D01*
X147541988Y-85163143D01*
X147648283Y-85033622D01*
X147753675Y-84836447D01*
X147788891Y-84720359D01*
X147803000Y-84706250D01*
X147803000Y-84673849D01*
X147818577Y-84622500D01*
X147840491Y-84400001D01*
X147838527Y-84380061D01*
X147854010Y-84329021D01*
X147868072Y-84186250D01*
X147868072Y-83973750D01*
X147854010Y-83830979D01*
X147830962Y-83755000D01*
X147854010Y-83679021D01*
X147868072Y-83536250D01*
X147868072Y-83323750D01*
X147854010Y-83180979D01*
X147830962Y-83105000D01*
X147854010Y-83029021D01*
X147868072Y-82886250D01*
X147868072Y-82673750D01*
X147854010Y-82530979D01*
X147837382Y-82476165D01*
X147833150Y-82314542D01*
X147795088Y-82010043D01*
X148013135Y-81791996D01*
X148056449Y-81756449D01*
X148198284Y-81583623D01*
X148303676Y-81386447D01*
X148368577Y-81172499D01*
X148381998Y-81036231D01*
X148390491Y-80950000D01*
X148385000Y-80894248D01*
X148385000Y-79944248D01*
X148368577Y-79777501D01*
X148338072Y-79676940D01*
X148338072Y-79400000D01*
X148325812Y-79275518D01*
X148289502Y-79155820D01*
X148230537Y-79045506D01*
X148151185Y-78948815D01*
X148054494Y-78869463D01*
X147944180Y-78810498D01*
X147824482Y-78774188D01*
X147700000Y-78761928D01*
X146800000Y-78761928D01*
X146675518Y-78774188D01*
X146555820Y-78810498D01*
X146445506Y-78869463D01*
X146348815Y-78948815D01*
X146269463Y-79045506D01*
X146210498Y-79155820D01*
X146174188Y-79275518D01*
X146161928Y-79400000D01*
X146161928Y-79676941D01*
X146131423Y-79777502D01*
X146115000Y-79944249D01*
X146115000Y-79968330D01*
X146050000Y-79961928D01*
X140760000Y-79961928D01*
X140760000Y-77470000D01*
X141285928Y-77470000D01*
X141298188Y-77594482D01*
X141334498Y-77714180D01*
X141393463Y-77824494D01*
X141472815Y-77921185D01*
X141569506Y-78000537D01*
X141679820Y-78059502D01*
X141799518Y-78095812D01*
X141924000Y-78108072D01*
X142538250Y-78105000D01*
X142697000Y-77946250D01*
X142697000Y-76797000D01*
X142951000Y-76797000D01*
X142951000Y-77946250D01*
X143109750Y-78105000D01*
X143724000Y-78108072D01*
X143848482Y-78095812D01*
X143968180Y-78059502D01*
X144078494Y-78000537D01*
X144175185Y-77921185D01*
X144254537Y-77824494D01*
X144313502Y-77714180D01*
X144349812Y-77594482D01*
X144362072Y-77470000D01*
X144359000Y-76955750D01*
X144200250Y-76797000D01*
X142951000Y-76797000D01*
X142697000Y-76797000D01*
X141447750Y-76797000D01*
X141289000Y-76955750D01*
X141285928Y-77470000D01*
X140760000Y-77470000D01*
X140760000Y-76537333D01*
X140763677Y-76500000D01*
X140752277Y-76384250D01*
X140749003Y-76351014D01*
X140705546Y-76207753D01*
X140634974Y-76075724D01*
X140540001Y-75959999D01*
X140424276Y-75865026D01*
X140292247Y-75794454D01*
X140148986Y-75750997D01*
X140093357Y-75745518D01*
X140037333Y-75740000D01*
X140000000Y-75736323D01*
X139962667Y-75740000D01*
X137614802Y-75740000D01*
X134111002Y-72236201D01*
X134024276Y-72165026D01*
X133892246Y-72094454D01*
X133859245Y-72084444D01*
X131760000Y-69985199D01*
X131760000Y-69040001D01*
X131788998Y-69063799D01*
X137298450Y-74573252D01*
X137328577Y-74672567D01*
X137409488Y-74823942D01*
X137518377Y-74956623D01*
X137651058Y-75065512D01*
X137802433Y-75146423D01*
X137966684Y-75196248D01*
X138137500Y-75213072D01*
X138712500Y-75213072D01*
X138883316Y-75196248D01*
X139047567Y-75146423D01*
X139198942Y-75065512D01*
X139300000Y-74982575D01*
X139401058Y-75065512D01*
X139552433Y-75146423D01*
X139716684Y-75196248D01*
X139887500Y-75213072D01*
X140462500Y-75213072D01*
X140633316Y-75196248D01*
X140797567Y-75146423D01*
X140948942Y-75065512D01*
X141081623Y-74956623D01*
X141160920Y-74860000D01*
X141285928Y-74860000D01*
X141285928Y-74930000D01*
X141298188Y-75054482D01*
X141334498Y-75174180D01*
X141393463Y-75284494D01*
X141472815Y-75381185D01*
X141495741Y-75400000D01*
X141472815Y-75418815D01*
X141393463Y-75515506D01*
X141334498Y-75625820D01*
X141298188Y-75745518D01*
X141285928Y-75870000D01*
X141289000Y-76384250D01*
X141447750Y-76543000D01*
X142697000Y-76543000D01*
X142697000Y-76523000D01*
X142951000Y-76523000D01*
X142951000Y-76543000D01*
X144200250Y-76543000D01*
X144359000Y-76384250D01*
X144362072Y-75870000D01*
X144349812Y-75745518D01*
X144313502Y-75625820D01*
X144254537Y-75515506D01*
X144175185Y-75418815D01*
X144152259Y-75400000D01*
X144175185Y-75381185D01*
X144254537Y-75284494D01*
X144313502Y-75174180D01*
X144349812Y-75054482D01*
X144362072Y-74930000D01*
X144362072Y-73330000D01*
X144349812Y-73205518D01*
X144313502Y-73085820D01*
X144254537Y-72975506D01*
X144175185Y-72878815D01*
X144078494Y-72799463D01*
X143968180Y-72740498D01*
X143848482Y-72704188D01*
X143724000Y-72691928D01*
X141924000Y-72691928D01*
X141799518Y-72704188D01*
X141679820Y-72740498D01*
X141569506Y-72799463D01*
X141472815Y-72878815D01*
X141393463Y-72975506D01*
X141334498Y-73085820D01*
X141298188Y-73205518D01*
X141285928Y-73330000D01*
X141285928Y-73340000D01*
X141160920Y-73340000D01*
X141081623Y-73243377D01*
X140948942Y-73134488D01*
X140797567Y-73053577D01*
X140633316Y-73003752D01*
X140462500Y-72986928D01*
X139887500Y-72986928D01*
X139716684Y-73003752D01*
X139552433Y-73053577D01*
X139401058Y-73134488D01*
X139300000Y-73217425D01*
X139198942Y-73134488D01*
X139047567Y-73053577D01*
X138883316Y-73003752D01*
X138712500Y-72986928D01*
X138137500Y-72986928D01*
X137966684Y-73003752D01*
X137899066Y-73024264D01*
X134412873Y-69538072D01*
X134750001Y-69538072D01*
X134923255Y-69521008D01*
X135089851Y-69470472D01*
X135167356Y-69429045D01*
X135266218Y-69577003D01*
X135410381Y-69721166D01*
X135579899Y-69834434D01*
X135768257Y-69912455D01*
X135968216Y-69952229D01*
X136030353Y-69952229D01*
X136289130Y-70211005D01*
X136312928Y-70240004D01*
X136341926Y-70263802D01*
X136428653Y-70334977D01*
X136560682Y-70405549D01*
X136703943Y-70449006D01*
X136852929Y-70463680D01*
X136890262Y-70460003D01*
X140996289Y-70460003D01*
X141040226Y-70503940D01*
X141209744Y-70617208D01*
X141398102Y-70695229D01*
X141598061Y-70735003D01*
X141801939Y-70735003D01*
X142001898Y-70695229D01*
X142190256Y-70617208D01*
X142359774Y-70503940D01*
X142503937Y-70359777D01*
X142617205Y-70190259D01*
X142695226Y-70001901D01*
X142735000Y-69801942D01*
X142735000Y-69598064D01*
X142695226Y-69398105D01*
X142617205Y-69209747D01*
X142610693Y-69200002D01*
X142617205Y-69190256D01*
X142695226Y-69001898D01*
X142735000Y-68801939D01*
X142735000Y-68598061D01*
X142695226Y-68398102D01*
X142617205Y-68209744D01*
X142503937Y-68040226D01*
X142359774Y-67896063D01*
X142190256Y-67782795D01*
X142001898Y-67704774D01*
X141801939Y-67665000D01*
X141598061Y-67665000D01*
X141398102Y-67704774D01*
X141209744Y-67782795D01*
X141040226Y-67896063D01*
X140996289Y-67940000D01*
X137193034Y-67940000D01*
X137189786Y-67936752D01*
X137400000Y-67938072D01*
X137524482Y-67925812D01*
X137644180Y-67889502D01*
X137754494Y-67830537D01*
X137851185Y-67751185D01*
X137930537Y-67654494D01*
X137989502Y-67544180D01*
X138025812Y-67424482D01*
X138038072Y-67300000D01*
X138035000Y-67285750D01*
X137876252Y-67127002D01*
X138035000Y-67127002D01*
X138035000Y-67060000D01*
X138984368Y-67060000D01*
X139075724Y-67134974D01*
X139137366Y-67167923D01*
X139160498Y-67244180D01*
X139219463Y-67354494D01*
X139298815Y-67451185D01*
X139395506Y-67530537D01*
X139505820Y-67589502D01*
X139625518Y-67625812D01*
X139750000Y-67638072D01*
X141250000Y-67638072D01*
X141374482Y-67625812D01*
X141494180Y-67589502D01*
X141604494Y-67530537D01*
X141701185Y-67451185D01*
X141780537Y-67354494D01*
X141831046Y-67260000D01*
X142368954Y-67260000D01*
X142419463Y-67354494D01*
X142498815Y-67451185D01*
X142595506Y-67530537D01*
X142705820Y-67589502D01*
X142739990Y-67599867D01*
X142739991Y-69937658D01*
X142736314Y-69974990D01*
X142750988Y-70123975D01*
X142794444Y-70267236D01*
X142865016Y-70399266D01*
X142917880Y-70463680D01*
X142959990Y-70514991D01*
X142988988Y-70538789D01*
X143203232Y-70753033D01*
X143203752Y-70758316D01*
X143253577Y-70922567D01*
X143334488Y-71073942D01*
X143443377Y-71206623D01*
X143576058Y-71315512D01*
X143727433Y-71396423D01*
X143891684Y-71446248D01*
X144062500Y-71463072D01*
X144537500Y-71463072D01*
X144708316Y-71446248D01*
X144872567Y-71396423D01*
X145023942Y-71315512D01*
X145156623Y-71206623D01*
X145265512Y-71073942D01*
X145272964Y-71060000D01*
X145386948Y-71060000D01*
X145434488Y-71148942D01*
X145543377Y-71281623D01*
X145676058Y-71390512D01*
X145827433Y-71471423D01*
X145991684Y-71521248D01*
X146162500Y-71538072D01*
X146637500Y-71538072D01*
X146808316Y-71521248D01*
X146972567Y-71471423D01*
X147123942Y-71390512D01*
X147256623Y-71281623D01*
X147365512Y-71148942D01*
X147372964Y-71135000D01*
X147587678Y-71135000D01*
X147625000Y-71138676D01*
X147662322Y-71135000D01*
X147662333Y-71135000D01*
X147773986Y-71124003D01*
X147917247Y-71080546D01*
X148049276Y-71009974D01*
X148165001Y-70915001D01*
X148188804Y-70885997D01*
X149778034Y-69296768D01*
X149783316Y-69296248D01*
X149947567Y-69246423D01*
X150098942Y-69165512D01*
X150122839Y-69145901D01*
X150195506Y-69205537D01*
X150305820Y-69264502D01*
X150425518Y-69300812D01*
X150550000Y-69313072D01*
X150789250Y-69310000D01*
X150948000Y-69151250D01*
X150948000Y-68327000D01*
X150928000Y-68327000D01*
X150928000Y-68073000D01*
X150948000Y-68073000D01*
X150948000Y-68053000D01*
X151202000Y-68053000D01*
X151202000Y-68073000D01*
X151222000Y-68073000D01*
X151222000Y-68327000D01*
X151202000Y-68327000D01*
X151202000Y-69151250D01*
X151290010Y-69239260D01*
X151290010Y-71162687D01*
X151286334Y-71200010D01*
X151290010Y-71237332D01*
X151290010Y-71237342D01*
X151301007Y-71348995D01*
X151341581Y-71482753D01*
X151344464Y-71492256D01*
X151415036Y-71624286D01*
X151448759Y-71665377D01*
X151510009Y-71740011D01*
X151539012Y-71763813D01*
X151562531Y-71787332D01*
X151522324Y-71862554D01*
X151457423Y-72076502D01*
X151435509Y-72299000D01*
X151441000Y-72354751D01*
X151441000Y-72737713D01*
X151431820Y-72740498D01*
X151321506Y-72799463D01*
X151224815Y-72878815D01*
X151145463Y-72975506D01*
X151086498Y-73085820D01*
X151050188Y-73205518D01*
X151037928Y-73330000D01*
X151037928Y-74930000D01*
X151050188Y-75054482D01*
X151086498Y-75174180D01*
X151145463Y-75284494D01*
X151224815Y-75381185D01*
X151247741Y-75400000D01*
X151224815Y-75418815D01*
X151145463Y-75515506D01*
X151086498Y-75625820D01*
X151050188Y-75745518D01*
X151037928Y-75870000D01*
X151037928Y-77470000D01*
X151050188Y-77594482D01*
X151086498Y-77714180D01*
X151145463Y-77824494D01*
X151224815Y-77921185D01*
X151321506Y-78000537D01*
X151431820Y-78059502D01*
X151551518Y-78095812D01*
X151565001Y-78097140D01*
X151565000Y-78865000D01*
X151346144Y-78865000D01*
X151244180Y-78810498D01*
X151124482Y-78774188D01*
X151000000Y-78761928D01*
X150100000Y-78761928D01*
X149975518Y-78774188D01*
X149855820Y-78810498D01*
X149745506Y-78869463D01*
X149648815Y-78948815D01*
X149569463Y-79045506D01*
X149510498Y-79155820D01*
X149474188Y-79275518D01*
X149461928Y-79400000D01*
X149461928Y-79676940D01*
X149431423Y-79777501D01*
X149409509Y-80000000D01*
X149431423Y-80222499D01*
X149461928Y-80323060D01*
X149461928Y-80600000D01*
X149474188Y-80724482D01*
X149510498Y-80844180D01*
X149569463Y-80954494D01*
X149648815Y-81051185D01*
X149720796Y-81110258D01*
X149673815Y-81148815D01*
X149594463Y-81245506D01*
X149535498Y-81355820D01*
X149499188Y-81475518D01*
X149486928Y-81600000D01*
X149490000Y-81839250D01*
X149648750Y-81998000D01*
X150473000Y-81998000D01*
X150473000Y-81978000D01*
X150727000Y-81978000D01*
X150727000Y-81998000D01*
X151551250Y-81998000D01*
X151576250Y-81973000D01*
X152573000Y-81973000D01*
X152573000Y-81953000D01*
X152827000Y-81953000D01*
X152827000Y-81973000D01*
X152847000Y-81973000D01*
X152847000Y-82227000D01*
X152827000Y-82227000D01*
X152827000Y-83151250D01*
X152985750Y-83310000D01*
X153012670Y-83310200D01*
X151932871Y-84390000D01*
X151679053Y-84390000D01*
X151696248Y-84333316D01*
X151713072Y-84162500D01*
X151713072Y-83587500D01*
X151696248Y-83416684D01*
X151646423Y-83252433D01*
X151602486Y-83170231D01*
X151645506Y-83205537D01*
X151755820Y-83264502D01*
X151875518Y-83300812D01*
X152000000Y-83313072D01*
X152414250Y-83310000D01*
X152573000Y-83151250D01*
X152573000Y-82227000D01*
X151523750Y-82227000D01*
X151498750Y-82252000D01*
X150727000Y-82252000D01*
X150727000Y-82272000D01*
X150473000Y-82272000D01*
X150473000Y-82252000D01*
X149648750Y-82252000D01*
X149583492Y-82317258D01*
X149546157Y-82241940D01*
X149469807Y-82142861D01*
X149375594Y-82060581D01*
X149267140Y-81998263D01*
X149148612Y-81958299D01*
X149036750Y-81945000D01*
X148878000Y-82103750D01*
X148878000Y-82176201D01*
X148784494Y-82099463D01*
X148716218Y-82062968D01*
X148598250Y-81945000D01*
X148486388Y-81958299D01*
X148384723Y-81992577D01*
X148215750Y-81995000D01*
X148057000Y-82153750D01*
X148057000Y-82306177D01*
X148033289Y-82354010D01*
X148000666Y-82474765D01*
X147995000Y-82548250D01*
X148057000Y-82610250D01*
X148057000Y-82949750D01*
X147995000Y-83011750D01*
X148000666Y-83085235D01*
X148016855Y-83145161D01*
X148005990Y-83180979D01*
X147991928Y-83323750D01*
X147991928Y-83536250D01*
X148005990Y-83679021D01*
X148029038Y-83755000D01*
X148005990Y-83830979D01*
X147991928Y-83973750D01*
X147991928Y-84186250D01*
X148005990Y-84329021D01*
X148047635Y-84466306D01*
X148057000Y-84483827D01*
X148057000Y-84706250D01*
X148215750Y-84865000D01*
X148430000Y-84868072D01*
X148454540Y-84865655D01*
X148470627Y-84870535D01*
X148453577Y-84902433D01*
X148403752Y-85066684D01*
X148386928Y-85237500D01*
X148386928Y-85284354D01*
X148381423Y-85302501D01*
X148359509Y-85525000D01*
X148381423Y-85747499D01*
X148386928Y-85765646D01*
X148386928Y-85812500D01*
X148403752Y-85983316D01*
X148453577Y-86147567D01*
X148534488Y-86298942D01*
X148554099Y-86322839D01*
X148494463Y-86395506D01*
X148435498Y-86505820D01*
X148399188Y-86625518D01*
X148386928Y-86750000D01*
X148390000Y-86989250D01*
X148548750Y-87148000D01*
X149373000Y-87148000D01*
X149373000Y-87128000D01*
X149627000Y-87128000D01*
X149627000Y-87148000D01*
X150451250Y-87148000D01*
X150610000Y-86989250D01*
X150613072Y-86750000D01*
X150604208Y-86660000D01*
X152347251Y-86660000D01*
X152403002Y-86665491D01*
X152458753Y-86660000D01*
X152458754Y-86660000D01*
X152625501Y-86643577D01*
X152839449Y-86578676D01*
X153036625Y-86473284D01*
X153209451Y-86331449D01*
X153244998Y-86288136D01*
X155363156Y-84169979D01*
X155406459Y-84134441D01*
X155459345Y-84070000D01*
X155548294Y-83961615D01*
X155653686Y-83764439D01*
X155718587Y-83550491D01*
X155740501Y-83327992D01*
X155735010Y-83272240D01*
X155735010Y-59883692D01*
X155740501Y-59827940D01*
X155718587Y-59605441D01*
X155653686Y-59391493D01*
X155548294Y-59194317D01*
X155441999Y-59064796D01*
X155441997Y-59064794D01*
X155406459Y-59021491D01*
X155363156Y-58985953D01*
X153614065Y-57236864D01*
X153578519Y-57193551D01*
X153405693Y-57051716D01*
X153208517Y-56946324D01*
X152994569Y-56881423D01*
X152827822Y-56865000D01*
X152827821Y-56865000D01*
X152772070Y-56859509D01*
X152716319Y-56865000D01*
X149571437Y-56865000D01*
X149549901Y-56853489D01*
X149317102Y-56782870D01*
X149135665Y-56765000D01*
X148464335Y-56765000D01*
X148282898Y-56782870D01*
X148050099Y-56853489D01*
X148028563Y-56865000D01*
X146060895Y-56865000D01*
X146015990Y-56756589D01*
X145853475Y-56513368D01*
X145646632Y-56306525D01*
X145403411Y-56144010D01*
X145133158Y-56032068D01*
X144846260Y-55975000D01*
X144553740Y-55975000D01*
X144266842Y-56032068D01*
X143996589Y-56144010D01*
X143753368Y-56306525D01*
X143546525Y-56513368D01*
X143384010Y-56756589D01*
X143272068Y-57026842D01*
X143215000Y-57313740D01*
X143215000Y-57606260D01*
X143272068Y-57893158D01*
X143279027Y-57909959D01*
X143224276Y-57865026D01*
X143092247Y-57794454D01*
X142948986Y-57750997D01*
X142837333Y-57740000D01*
X142800000Y-57736323D01*
X142762667Y-57740000D01*
X142714741Y-57740000D01*
X142792582Y-57569942D01*
X142849642Y-57329404D01*
X142858680Y-57082355D01*
X142819347Y-56838291D01*
X142733156Y-56606590D01*
X142689691Y-56525274D01*
X142464072Y-56475533D01*
X141779605Y-57160000D01*
X141793748Y-57174143D01*
X141614143Y-57353748D01*
X141600000Y-57339605D01*
X141585858Y-57353748D01*
X141406253Y-57174143D01*
X141420395Y-57160000D01*
X140735928Y-56475533D01*
X140510309Y-56525274D01*
X140407418Y-56750058D01*
X140350358Y-56990596D01*
X140343612Y-57175000D01*
X140315291Y-57175000D01*
X140318680Y-57082355D01*
X140279347Y-56838291D01*
X140193156Y-56606590D01*
X140149691Y-56525274D01*
X139924072Y-56475533D01*
X139239605Y-57160000D01*
X139253748Y-57174143D01*
X139074143Y-57353748D01*
X139060000Y-57339605D01*
X138375533Y-58024072D01*
X138425274Y-58249691D01*
X138650058Y-58352582D01*
X138890596Y-58409642D01*
X139075000Y-58416388D01*
X139075000Y-58444709D01*
X138982355Y-58441320D01*
X138738291Y-58480653D01*
X138506590Y-58566844D01*
X138425274Y-58610309D01*
X138375533Y-58835928D01*
X139060000Y-59520395D01*
X139074143Y-59506253D01*
X139253748Y-59685858D01*
X139239605Y-59700000D01*
X139924072Y-60384467D01*
X140149691Y-60334726D01*
X140252582Y-60109942D01*
X140309642Y-59869404D01*
X140316388Y-59685000D01*
X140344709Y-59685000D01*
X140341320Y-59777645D01*
X140380653Y-60021709D01*
X140466844Y-60253410D01*
X140510309Y-60334726D01*
X140735928Y-60384467D01*
X141420395Y-59700000D01*
X141406253Y-59685858D01*
X141585858Y-59506253D01*
X141600000Y-59520395D01*
X141614143Y-59506253D01*
X141793748Y-59685858D01*
X141779605Y-59700000D01*
X142464072Y-60384467D01*
X142689691Y-60334726D01*
X142743145Y-60217946D01*
X143036201Y-60511002D01*
X143059999Y-60540001D01*
X143175724Y-60634974D01*
X143211928Y-60654326D01*
X143211928Y-60850000D01*
X143224188Y-60974482D01*
X143260498Y-61094180D01*
X143319463Y-61204494D01*
X143398815Y-61301185D01*
X143495506Y-61380537D01*
X143605820Y-61439502D01*
X143725518Y-61475812D01*
X143850000Y-61488072D01*
X145550000Y-61488072D01*
X145674482Y-61475812D01*
X145794180Y-61439502D01*
X145904494Y-61380537D01*
X146001185Y-61301185D01*
X146080537Y-61204494D01*
X146104320Y-61160000D01*
X147815557Y-61160000D01*
X147835149Y-61170472D01*
X148001745Y-61221008D01*
X148174999Y-61238072D01*
X149425001Y-61238072D01*
X149598255Y-61221008D01*
X149764851Y-61170472D01*
X149784443Y-61160000D01*
X151965000Y-61160000D01*
X151965001Y-63788720D01*
X151922881Y-63766207D01*
X151789113Y-63725629D01*
X151650000Y-63711928D01*
X150350000Y-63711928D01*
X150210887Y-63725629D01*
X150163512Y-63740000D01*
X149837322Y-63740000D01*
X149799999Y-63736324D01*
X149762677Y-63740000D01*
X149762667Y-63740000D01*
X149651014Y-63750997D01*
X149507753Y-63794454D01*
X149375724Y-63865026D01*
X149259999Y-63959999D01*
X149236196Y-63989003D01*
X149188998Y-64036201D01*
X149160000Y-64059999D01*
X149136202Y-64088997D01*
X149136201Y-64088998D01*
X149065026Y-64175724D01*
X148994454Y-64307754D01*
X148973754Y-64375997D01*
X148950998Y-64451014D01*
X148940000Y-64562667D01*
X148940000Y-64562678D01*
X148936324Y-64600000D01*
X148940000Y-64637322D01*
X148940000Y-65462667D01*
X148936323Y-65500000D01*
X148950997Y-65648986D01*
X148994454Y-65792247D01*
X149065026Y-65924276D01*
X149127171Y-66000000D01*
X149159999Y-66040001D01*
X149275724Y-66134974D01*
X149407753Y-66205546D01*
X149551014Y-66249003D01*
X149648384Y-66258593D01*
X149651156Y-66283996D01*
X149651180Y-66284071D01*
X149650629Y-66285887D01*
X149646403Y-66328795D01*
X148871967Y-67103232D01*
X148866684Y-67103752D01*
X148702433Y-67153577D01*
X148551058Y-67234488D01*
X148418377Y-67343377D01*
X148309488Y-67476058D01*
X148228577Y-67627433D01*
X148178752Y-67791684D01*
X148161928Y-67962500D01*
X148161928Y-68437500D01*
X148178752Y-68608316D01*
X148210901Y-68714297D01*
X147346864Y-69578335D01*
X147282575Y-69500000D01*
X147365512Y-69398942D01*
X147446423Y-69247567D01*
X147496248Y-69083316D01*
X147513072Y-68912500D01*
X147513072Y-68337500D01*
X147496248Y-68166684D01*
X147446423Y-68002433D01*
X147365512Y-67851058D01*
X147360000Y-67844342D01*
X147360000Y-67277238D01*
X147389113Y-67274371D01*
X147522881Y-67233793D01*
X147646162Y-67167898D01*
X147754218Y-67079218D01*
X147842898Y-66971162D01*
X147908793Y-66847881D01*
X147949371Y-66714113D01*
X147963072Y-66575000D01*
X147963072Y-66425000D01*
X147949371Y-66285887D01*
X147938485Y-66250000D01*
X147949371Y-66214113D01*
X147963072Y-66075000D01*
X147963072Y-65925000D01*
X147949371Y-65785887D01*
X147938485Y-65750000D01*
X147949371Y-65714113D01*
X147963072Y-65575000D01*
X147963072Y-65425000D01*
X147949371Y-65285887D01*
X147938485Y-65250000D01*
X147949371Y-65214113D01*
X147963072Y-65075000D01*
X147963072Y-64925000D01*
X147949371Y-64785887D01*
X147938485Y-64750000D01*
X147949371Y-64714113D01*
X147963072Y-64575000D01*
X147963072Y-64425000D01*
X147949371Y-64285887D01*
X147908793Y-64152119D01*
X147842898Y-64028838D01*
X147754218Y-63920782D01*
X147646162Y-63832102D01*
X147522881Y-63766207D01*
X147389113Y-63725629D01*
X147250000Y-63711928D01*
X146886731Y-63711928D01*
X145363803Y-62189002D01*
X145340001Y-62159999D01*
X145224276Y-62065026D01*
X145092247Y-61994454D01*
X144948986Y-61950997D01*
X144837333Y-61940000D01*
X144837322Y-61940000D01*
X144800000Y-61936324D01*
X144762678Y-61940000D01*
X143102321Y-61940000D01*
X143064998Y-61936324D01*
X143027675Y-61940000D01*
X143027665Y-61940000D01*
X142916012Y-61950997D01*
X142772751Y-61994454D01*
X142640721Y-62065026D01*
X142557081Y-62133668D01*
X142524997Y-62159999D01*
X142501199Y-62188997D01*
X141719304Y-62970893D01*
X141701185Y-62948815D01*
X141604494Y-62869463D01*
X141494180Y-62810498D01*
X141374482Y-62774188D01*
X141250000Y-62761928D01*
X140785750Y-62765000D01*
X140627000Y-62923750D01*
X140627000Y-63773000D01*
X140647000Y-63773000D01*
X140647000Y-64027000D01*
X140627000Y-64027000D01*
X140627000Y-64047000D01*
X140373000Y-64047000D01*
X140373000Y-64027000D01*
X139273750Y-64027000D01*
X139115000Y-64185750D01*
X139111928Y-64400000D01*
X139124188Y-64524482D01*
X139131929Y-64550000D01*
X139124188Y-64575518D01*
X139111928Y-64700000D01*
X139111928Y-65540000D01*
X137973584Y-65540000D01*
X137952204Y-65500000D01*
X137978084Y-65451582D01*
X138022929Y-65303745D01*
X138038072Y-65150000D01*
X138038072Y-64850000D01*
X138022929Y-64696255D01*
X137978084Y-64548418D01*
X137952204Y-64500000D01*
X137978084Y-64451582D01*
X138022929Y-64303745D01*
X138038072Y-64150000D01*
X138038072Y-63850000D01*
X138022929Y-63696255D01*
X137978084Y-63548418D01*
X137905258Y-63412171D01*
X137895270Y-63400000D01*
X139111928Y-63400000D01*
X139115000Y-63614250D01*
X139273750Y-63773000D01*
X140373000Y-63773000D01*
X140373000Y-62923750D01*
X140214250Y-62765000D01*
X139750000Y-62761928D01*
X139625518Y-62774188D01*
X139505820Y-62810498D01*
X139395506Y-62869463D01*
X139298815Y-62948815D01*
X139219463Y-63045506D01*
X139160498Y-63155820D01*
X139124188Y-63275518D01*
X139111928Y-63400000D01*
X137895270Y-63400000D01*
X137807251Y-63292749D01*
X137687829Y-63194742D01*
X137551582Y-63121916D01*
X137403745Y-63077071D01*
X137250000Y-63061928D01*
X136000000Y-63061928D01*
X135846255Y-63077071D01*
X135698418Y-63121916D01*
X135627242Y-63159961D01*
X135638072Y-63050001D01*
X135638072Y-62349999D01*
X135621008Y-62176745D01*
X135570472Y-62010149D01*
X135488405Y-61856613D01*
X135377962Y-61722038D01*
X135243387Y-61611595D01*
X135089851Y-61529528D01*
X134923255Y-61478992D01*
X134750001Y-61461928D01*
X133554955Y-61461928D01*
X134051003Y-60965880D01*
X134080001Y-60942082D01*
X134174974Y-60826357D01*
X134245546Y-60694328D01*
X134289003Y-60551067D01*
X134295913Y-60480909D01*
X134486632Y-60353475D01*
X134693475Y-60146632D01*
X134815195Y-59964466D01*
X134884822Y-60081355D01*
X135079731Y-60297588D01*
X135313080Y-60471641D01*
X135575901Y-60596825D01*
X135723110Y-60641476D01*
X135953000Y-60520155D01*
X135953000Y-59327000D01*
X136207000Y-59327000D01*
X136207000Y-60520155D01*
X136436890Y-60641476D01*
X136584099Y-60596825D01*
X136652863Y-60564072D01*
X138375533Y-60564072D01*
X138425274Y-60789691D01*
X138650058Y-60892582D01*
X138890596Y-60949642D01*
X139137645Y-60958680D01*
X139381709Y-60919347D01*
X139613410Y-60833156D01*
X139694726Y-60789691D01*
X139744467Y-60564072D01*
X140915533Y-60564072D01*
X140965274Y-60789691D01*
X141190058Y-60892582D01*
X141430596Y-60949642D01*
X141677645Y-60958680D01*
X141921709Y-60919347D01*
X142153410Y-60833156D01*
X142234726Y-60789691D01*
X142284467Y-60564072D01*
X141600000Y-59879605D01*
X140915533Y-60564072D01*
X139744467Y-60564072D01*
X139060000Y-59879605D01*
X138375533Y-60564072D01*
X136652863Y-60564072D01*
X136846920Y-60471641D01*
X137080269Y-60297588D01*
X137275178Y-60081355D01*
X137424157Y-59831252D01*
X137443172Y-59777645D01*
X137801320Y-59777645D01*
X137840653Y-60021709D01*
X137926844Y-60253410D01*
X137970309Y-60334726D01*
X138195928Y-60384467D01*
X138880395Y-59700000D01*
X138195928Y-59015533D01*
X137970309Y-59065274D01*
X137867418Y-59290058D01*
X137810358Y-59530596D01*
X137801320Y-59777645D01*
X137443172Y-59777645D01*
X137521481Y-59556891D01*
X137400814Y-59327000D01*
X136207000Y-59327000D01*
X135953000Y-59327000D01*
X135933000Y-59327000D01*
X135933000Y-59073000D01*
X135953000Y-59073000D01*
X135953000Y-57879845D01*
X136207000Y-57879845D01*
X136207000Y-59073000D01*
X137400814Y-59073000D01*
X137521481Y-58843109D01*
X137424157Y-58568748D01*
X137275178Y-58318645D01*
X137080269Y-58102412D01*
X136846920Y-57928359D01*
X136584099Y-57803175D01*
X136436890Y-57758524D01*
X136207000Y-57879845D01*
X135953000Y-57879845D01*
X135723110Y-57758524D01*
X135575901Y-57803175D01*
X135313080Y-57928359D01*
X135079731Y-58102412D01*
X134884822Y-58318645D01*
X134815195Y-58435534D01*
X134693475Y-58253368D01*
X134486632Y-58046525D01*
X134243411Y-57884010D01*
X133973158Y-57772068D01*
X133686260Y-57715000D01*
X133393740Y-57715000D01*
X133106842Y-57772068D01*
X132836589Y-57884010D01*
X132593368Y-58046525D01*
X132461513Y-58178380D01*
X132439502Y-58105820D01*
X132380537Y-57995506D01*
X132301185Y-57898815D01*
X132204494Y-57819463D01*
X132094180Y-57760498D01*
X131974482Y-57724188D01*
X131850000Y-57711928D01*
X130150000Y-57711928D01*
X130025518Y-57724188D01*
X129912998Y-57758321D01*
X129914298Y-57237645D01*
X137801320Y-57237645D01*
X137840653Y-57481709D01*
X137926844Y-57713410D01*
X137970309Y-57794726D01*
X138195928Y-57844467D01*
X138880395Y-57160000D01*
X138195928Y-56475533D01*
X137970309Y-56525274D01*
X137867418Y-56750058D01*
X137810358Y-56990596D01*
X137801320Y-57237645D01*
X129914298Y-57237645D01*
X129916649Y-56295928D01*
X138375533Y-56295928D01*
X139060000Y-56980395D01*
X139744467Y-56295928D01*
X140915533Y-56295928D01*
X141600000Y-56980395D01*
X142284467Y-56295928D01*
X142234726Y-56070309D01*
X142009942Y-55967418D01*
X141769404Y-55910358D01*
X141522355Y-55901320D01*
X141278291Y-55940653D01*
X141046590Y-56026844D01*
X140965274Y-56070309D01*
X140915533Y-56295928D01*
X139744467Y-56295928D01*
X139694726Y-56070309D01*
X139469942Y-55967418D01*
X139229404Y-55910358D01*
X138982355Y-55901320D01*
X138738291Y-55940653D01*
X138506590Y-56026844D01*
X138425274Y-56070309D01*
X138375533Y-56295928D01*
X129916649Y-56295928D01*
X129918237Y-55660000D01*
X159340000Y-55660000D01*
X159340001Y-89340000D01*
G36*
X136632753Y-67005546D02*
G01*
X136772000Y-67047785D01*
X136772000Y-67127000D01*
X136752000Y-67127000D01*
X136752000Y-67147000D01*
X136498000Y-67147000D01*
X136498000Y-67127000D01*
X136478000Y-67127000D01*
X136478000Y-66938072D01*
X136506520Y-66938072D01*
X136632753Y-67005546D01*
G37*
X136632753Y-67005546D02*
X136772000Y-67047785D01*
X136772000Y-67127000D01*
X136752000Y-67127000D01*
X136752000Y-67147000D01*
X136498000Y-67147000D01*
X136498000Y-67127000D01*
X136478000Y-67127000D01*
X136478000Y-66938072D01*
X136506520Y-66938072D01*
X136632753Y-67005546D01*
G36*
X143827000Y-63773000D02*
G01*
X143847000Y-63773000D01*
X143847000Y-64027000D01*
X143827000Y-64027000D01*
X143827000Y-64047000D01*
X143573000Y-64047000D01*
X143573000Y-64027000D01*
X143553000Y-64027000D01*
X143553000Y-63773000D01*
X143573000Y-63773000D01*
X143573000Y-63753000D01*
X143827000Y-63753000D01*
X143827000Y-63773000D01*
G37*
X143827000Y-63773000D02*
X143847000Y-63773000D01*
X143847000Y-64027000D01*
X143827000Y-64027000D01*
X143827000Y-64047000D01*
X143573000Y-64047000D01*
X143573000Y-64027000D01*
X143553000Y-64027000D01*
X143553000Y-63773000D01*
X143573000Y-63773000D01*
X143573000Y-63753000D01*
X143827000Y-63753000D01*
X143827000Y-63773000D01*
M02*
