%FSLAX45Y45*%
G04 Gerber Fmt 4.5, Leading zero omitted, Abs format (unit mm)*
G04 Created by KiCad (PCBNEW (5.1.5-0)) date 2022-06-07 15:44:30*
%MOMM*%
%LPD*%
G04 APERTURE LIST*
%TA.AperFunction,Profile*%
%ADD10C,0.050000*%
%TD*%
%ADD11C,0.200000*%
%ADD12C,0.300000*%
G04 APERTURE END LIST*
D10*
X7000000Y-10500000D02*
X7000000Y-6800000D01*
X13700000Y-10500000D02*
X7000000Y-10500000D01*
X13700000Y-6800000D02*
X13700000Y-10500000D01*
X7000000Y-6800000D02*
X13700000Y-6800000D01*
D11*
X11320000Y-9180000D02*
X11360000Y-9220000D01*
X11360000Y-9180000D02*
X11320000Y-9220000D01*
X12354000Y-10120000D02*
G75*
G03X12354000Y-10120000I-50000J0D01*
G01*
X12608000Y-10120000D02*
G75*
G03X12608000Y-10120000I-50000J0D01*
G01*
X12862000Y-10120000D02*
G75*
G03X12862000Y-10120000I-50000J0D01*
G01*
X13116000Y-10120000D02*
G75*
G03X13116000Y-10120000I-50000J0D01*
G01*
X13370000Y-10120000D02*
G75*
G03X13370000Y-10120000I-50000J0D01*
G01*
D12*
X7283928Y-10968214D02*
X7283928Y-10668214D01*
X7355357Y-10668214D01*
X7398214Y-10682500D01*
X7426786Y-10711072D01*
X7441071Y-10739643D01*
X7455357Y-10796786D01*
X7455357Y-10839643D01*
X7441071Y-10896786D01*
X7426786Y-10925357D01*
X7398214Y-10953929D01*
X7355357Y-10968214D01*
X7283928Y-10968214D01*
X7583928Y-10968214D02*
X7583928Y-10768214D01*
X7583928Y-10825357D02*
X7598214Y-10796786D01*
X7612500Y-10782500D01*
X7641071Y-10768214D01*
X7669643Y-10768214D01*
X7769643Y-10968214D02*
X7769643Y-10768214D01*
X7769643Y-10668214D02*
X7755357Y-10682500D01*
X7769643Y-10696786D01*
X7783928Y-10682500D01*
X7769643Y-10668214D01*
X7769643Y-10696786D01*
X7955357Y-10968214D02*
X7926786Y-10953929D01*
X7912500Y-10925357D01*
X7912500Y-10668214D01*
X8112500Y-10968214D02*
X8083928Y-10953929D01*
X8069643Y-10925357D01*
X8069643Y-10668214D01*
X8455357Y-10968214D02*
X8455357Y-10668214D01*
X8555357Y-10882500D01*
X8655357Y-10668214D01*
X8655357Y-10968214D01*
X8926786Y-10968214D02*
X8926786Y-10811072D01*
X8912500Y-10782500D01*
X8883928Y-10768214D01*
X8826786Y-10768214D01*
X8798214Y-10782500D01*
X8926786Y-10953929D02*
X8898214Y-10968214D01*
X8826786Y-10968214D01*
X8798214Y-10953929D01*
X8783928Y-10925357D01*
X8783928Y-10896786D01*
X8798214Y-10868214D01*
X8826786Y-10853929D01*
X8898214Y-10853929D01*
X8926786Y-10839643D01*
X9069643Y-10768214D02*
X9069643Y-11068214D01*
X9069643Y-10782500D02*
X9098214Y-10768214D01*
X9155357Y-10768214D01*
X9183928Y-10782500D01*
X9198214Y-10796786D01*
X9212500Y-10825357D01*
X9212500Y-10911072D01*
X9198214Y-10939643D01*
X9183928Y-10953929D01*
X9155357Y-10968214D01*
X9098214Y-10968214D01*
X9069643Y-10953929D01*
X9341071Y-10939643D02*
X9355357Y-10953929D01*
X9341071Y-10968214D01*
X9326786Y-10953929D01*
X9341071Y-10939643D01*
X9341071Y-10968214D01*
X9341071Y-10782500D02*
X9355357Y-10796786D01*
X9341071Y-10811072D01*
X9326786Y-10796786D01*
X9341071Y-10782500D01*
X9341071Y-10811072D01*
X6957500Y-11442500D02*
X6997500Y-11482500D01*
X6997500Y-11442500D02*
X6957500Y-11482500D01*
X7341071Y-11298214D02*
X7369643Y-11298214D01*
X7398214Y-11312500D01*
X7412500Y-11326786D01*
X7426786Y-11355357D01*
X7441071Y-11412500D01*
X7441071Y-11483929D01*
X7426786Y-11541071D01*
X7412500Y-11569643D01*
X7398214Y-11583929D01*
X7369643Y-11598214D01*
X7341071Y-11598214D01*
X7312500Y-11583929D01*
X7298214Y-11569643D01*
X7283928Y-11541071D01*
X7269643Y-11483929D01*
X7269643Y-11412500D01*
X7283928Y-11355357D01*
X7298214Y-11326786D01*
X7312500Y-11312500D01*
X7341071Y-11298214D01*
X7569643Y-11569643D02*
X7583928Y-11583929D01*
X7569643Y-11598214D01*
X7555357Y-11583929D01*
X7569643Y-11569643D01*
X7569643Y-11598214D01*
X7841071Y-11398214D02*
X7841071Y-11598214D01*
X7769643Y-11283929D02*
X7698214Y-11498214D01*
X7883928Y-11498214D01*
X8055357Y-11298214D02*
X8083928Y-11298214D01*
X8112500Y-11312500D01*
X8126786Y-11326786D01*
X8141071Y-11355357D01*
X8155357Y-11412500D01*
X8155357Y-11483929D01*
X8141071Y-11541071D01*
X8126786Y-11569643D01*
X8112500Y-11583929D01*
X8083928Y-11598214D01*
X8055357Y-11598214D01*
X8026786Y-11583929D01*
X8012500Y-11569643D01*
X7998214Y-11541071D01*
X7983928Y-11483929D01*
X7983928Y-11412500D01*
X7998214Y-11355357D01*
X8012500Y-11326786D01*
X8026786Y-11312500D01*
X8055357Y-11298214D01*
X8283928Y-11598214D02*
X8283928Y-11398214D01*
X8283928Y-11426786D02*
X8298214Y-11412500D01*
X8326786Y-11398214D01*
X8369643Y-11398214D01*
X8398214Y-11412500D01*
X8412500Y-11441071D01*
X8412500Y-11598214D01*
X8412500Y-11441071D02*
X8426786Y-11412500D01*
X8455357Y-11398214D01*
X8498214Y-11398214D01*
X8526786Y-11412500D01*
X8541071Y-11441071D01*
X8541071Y-11598214D01*
X8683928Y-11598214D02*
X8683928Y-11398214D01*
X8683928Y-11426786D02*
X8698214Y-11412500D01*
X8726786Y-11398214D01*
X8769643Y-11398214D01*
X8798214Y-11412500D01*
X8812500Y-11441071D01*
X8812500Y-11598214D01*
X8812500Y-11441071D02*
X8826786Y-11412500D01*
X8855357Y-11398214D01*
X8898214Y-11398214D01*
X8926786Y-11412500D01*
X8941071Y-11441071D01*
X8941071Y-11598214D01*
X9526786Y-11283929D02*
X9269643Y-11669643D01*
X9912500Y-11298214D02*
X9941071Y-11298214D01*
X9969643Y-11312500D01*
X9983928Y-11326786D01*
X9998214Y-11355357D01*
X10012500Y-11412500D01*
X10012500Y-11483929D01*
X9998214Y-11541071D01*
X9983928Y-11569643D01*
X9969643Y-11583929D01*
X9941071Y-11598214D01*
X9912500Y-11598214D01*
X9883928Y-11583929D01*
X9869643Y-11569643D01*
X9855357Y-11541071D01*
X9841071Y-11483929D01*
X9841071Y-11412500D01*
X9855357Y-11355357D01*
X9869643Y-11326786D01*
X9883928Y-11312500D01*
X9912500Y-11298214D01*
X10141071Y-11569643D02*
X10155357Y-11583929D01*
X10141071Y-11598214D01*
X10126786Y-11583929D01*
X10141071Y-11569643D01*
X10141071Y-11598214D01*
X10341071Y-11298214D02*
X10369643Y-11298214D01*
X10398214Y-11312500D01*
X10412500Y-11326786D01*
X10426786Y-11355357D01*
X10441071Y-11412500D01*
X10441071Y-11483929D01*
X10426786Y-11541071D01*
X10412500Y-11569643D01*
X10398214Y-11583929D01*
X10369643Y-11598214D01*
X10341071Y-11598214D01*
X10312500Y-11583929D01*
X10298214Y-11569643D01*
X10283928Y-11541071D01*
X10269643Y-11483929D01*
X10269643Y-11412500D01*
X10283928Y-11355357D01*
X10298214Y-11326786D01*
X10312500Y-11312500D01*
X10341071Y-11298214D01*
X10726786Y-11598214D02*
X10555357Y-11598214D01*
X10641071Y-11598214D02*
X10641071Y-11298214D01*
X10612500Y-11341071D01*
X10583928Y-11369643D01*
X10555357Y-11383929D01*
X10983928Y-11298214D02*
X10926786Y-11298214D01*
X10898214Y-11312500D01*
X10883928Y-11326786D01*
X10855357Y-11369643D01*
X10841071Y-11426786D01*
X10841071Y-11541071D01*
X10855357Y-11569643D01*
X10869643Y-11583929D01*
X10898214Y-11598214D01*
X10955357Y-11598214D01*
X10983928Y-11583929D01*
X10998214Y-11569643D01*
X11012500Y-11541071D01*
X11012500Y-11469643D01*
X10998214Y-11441071D01*
X10983928Y-11426786D01*
X10955357Y-11412500D01*
X10898214Y-11412500D01*
X10869643Y-11426786D01*
X10855357Y-11441071D01*
X10841071Y-11469643D01*
X11126786Y-11298214D02*
X11126786Y-11355357D01*
X11241071Y-11298214D02*
X11241071Y-11355357D01*
X11683928Y-11712500D02*
X11669643Y-11698214D01*
X11641071Y-11655357D01*
X11626786Y-11626786D01*
X11612500Y-11583929D01*
X11598214Y-11512500D01*
X11598214Y-11455357D01*
X11612500Y-11383929D01*
X11626786Y-11341071D01*
X11641071Y-11312500D01*
X11669643Y-11269643D01*
X11683928Y-11255357D01*
X11955357Y-11598214D02*
X11783928Y-11598214D01*
X11869643Y-11598214D02*
X11869643Y-11298214D01*
X11841071Y-11341071D01*
X11812500Y-11369643D01*
X11783928Y-11383929D01*
X12312500Y-11598214D02*
X12312500Y-11298214D01*
X12441071Y-11598214D02*
X12441071Y-11441071D01*
X12426786Y-11412500D01*
X12398214Y-11398214D01*
X12355357Y-11398214D01*
X12326786Y-11412500D01*
X12312500Y-11426786D01*
X12626786Y-11598214D02*
X12598214Y-11583929D01*
X12583928Y-11569643D01*
X12569643Y-11541071D01*
X12569643Y-11455357D01*
X12583928Y-11426786D01*
X12598214Y-11412500D01*
X12626786Y-11398214D01*
X12669643Y-11398214D01*
X12698214Y-11412500D01*
X12712500Y-11426786D01*
X12726786Y-11455357D01*
X12726786Y-11541071D01*
X12712500Y-11569643D01*
X12698214Y-11583929D01*
X12669643Y-11598214D01*
X12626786Y-11598214D01*
X12898214Y-11598214D02*
X12869643Y-11583929D01*
X12855357Y-11555357D01*
X12855357Y-11298214D01*
X13126786Y-11583929D02*
X13098214Y-11598214D01*
X13041071Y-11598214D01*
X13012500Y-11583929D01*
X12998214Y-11555357D01*
X12998214Y-11441071D01*
X13012500Y-11412500D01*
X13041071Y-11398214D01*
X13098214Y-11398214D01*
X13126786Y-11412500D01*
X13141071Y-11441071D01*
X13141071Y-11469643D01*
X12998214Y-11498214D01*
X13241071Y-11712500D02*
X13255357Y-11698214D01*
X13283928Y-11655357D01*
X13298214Y-11626786D01*
X13312500Y-11583929D01*
X13326786Y-11512500D01*
X13326786Y-11455357D01*
X13312500Y-11383929D01*
X13298214Y-11341071D01*
X13283928Y-11312500D01*
X13255357Y-11269643D01*
X13241071Y-11255357D01*
X6997500Y-11858500D02*
G75*
G03X6997500Y-11858500I-50000J0D01*
G01*
X7441071Y-11994214D02*
X7269643Y-11994214D01*
X7355357Y-11994214D02*
X7355357Y-11694214D01*
X7326786Y-11737071D01*
X7298214Y-11765643D01*
X7269643Y-11779929D01*
X7569643Y-11965643D02*
X7583928Y-11979929D01*
X7569643Y-11994214D01*
X7555357Y-11979929D01*
X7569643Y-11965643D01*
X7569643Y-11994214D01*
X7769643Y-11694214D02*
X7798214Y-11694214D01*
X7826786Y-11708500D01*
X7841071Y-11722786D01*
X7855357Y-11751357D01*
X7869643Y-11808500D01*
X7869643Y-11879929D01*
X7855357Y-11937071D01*
X7841071Y-11965643D01*
X7826786Y-11979929D01*
X7798214Y-11994214D01*
X7769643Y-11994214D01*
X7741071Y-11979929D01*
X7726786Y-11965643D01*
X7712500Y-11937071D01*
X7698214Y-11879929D01*
X7698214Y-11808500D01*
X7712500Y-11751357D01*
X7726786Y-11722786D01*
X7741071Y-11708500D01*
X7769643Y-11694214D01*
X8055357Y-11694214D02*
X8083928Y-11694214D01*
X8112500Y-11708500D01*
X8126786Y-11722786D01*
X8141071Y-11751357D01*
X8155357Y-11808500D01*
X8155357Y-11879929D01*
X8141071Y-11937071D01*
X8126786Y-11965643D01*
X8112500Y-11979929D01*
X8083928Y-11994214D01*
X8055357Y-11994214D01*
X8026786Y-11979929D01*
X8012500Y-11965643D01*
X7998214Y-11937071D01*
X7983928Y-11879929D01*
X7983928Y-11808500D01*
X7998214Y-11751357D01*
X8012500Y-11722786D01*
X8026786Y-11708500D01*
X8055357Y-11694214D01*
X8283928Y-11994214D02*
X8283928Y-11794214D01*
X8283928Y-11822786D02*
X8298214Y-11808500D01*
X8326786Y-11794214D01*
X8369643Y-11794214D01*
X8398214Y-11808500D01*
X8412500Y-11837071D01*
X8412500Y-11994214D01*
X8412500Y-11837071D02*
X8426786Y-11808500D01*
X8455357Y-11794214D01*
X8498214Y-11794214D01*
X8526786Y-11808500D01*
X8541071Y-11837071D01*
X8541071Y-11994214D01*
X8683928Y-11994214D02*
X8683928Y-11794214D01*
X8683928Y-11822786D02*
X8698214Y-11808500D01*
X8726786Y-11794214D01*
X8769643Y-11794214D01*
X8798214Y-11808500D01*
X8812500Y-11837071D01*
X8812500Y-11994214D01*
X8812500Y-11837071D02*
X8826786Y-11808500D01*
X8855357Y-11794214D01*
X8898214Y-11794214D01*
X8926786Y-11808500D01*
X8941071Y-11837071D01*
X8941071Y-11994214D01*
X9526786Y-11679929D02*
X9269643Y-12065643D01*
X9912500Y-11694214D02*
X9941071Y-11694214D01*
X9969643Y-11708500D01*
X9983928Y-11722786D01*
X9998214Y-11751357D01*
X10012500Y-11808500D01*
X10012500Y-11879929D01*
X9998214Y-11937071D01*
X9983928Y-11965643D01*
X9969643Y-11979929D01*
X9941071Y-11994214D01*
X9912500Y-11994214D01*
X9883928Y-11979929D01*
X9869643Y-11965643D01*
X9855357Y-11937071D01*
X9841071Y-11879929D01*
X9841071Y-11808500D01*
X9855357Y-11751357D01*
X9869643Y-11722786D01*
X9883928Y-11708500D01*
X9912500Y-11694214D01*
X10141071Y-11965643D02*
X10155357Y-11979929D01*
X10141071Y-11994214D01*
X10126786Y-11979929D01*
X10141071Y-11965643D01*
X10141071Y-11994214D01*
X10341071Y-11694214D02*
X10369643Y-11694214D01*
X10398214Y-11708500D01*
X10412500Y-11722786D01*
X10426786Y-11751357D01*
X10441071Y-11808500D01*
X10441071Y-11879929D01*
X10426786Y-11937071D01*
X10412500Y-11965643D01*
X10398214Y-11979929D01*
X10369643Y-11994214D01*
X10341071Y-11994214D01*
X10312500Y-11979929D01*
X10298214Y-11965643D01*
X10283928Y-11937071D01*
X10269643Y-11879929D01*
X10269643Y-11808500D01*
X10283928Y-11751357D01*
X10298214Y-11722786D01*
X10312500Y-11708500D01*
X10341071Y-11694214D01*
X10541071Y-11694214D02*
X10726786Y-11694214D01*
X10626786Y-11808500D01*
X10669643Y-11808500D01*
X10698214Y-11822786D01*
X10712500Y-11837071D01*
X10726786Y-11865643D01*
X10726786Y-11937071D01*
X10712500Y-11965643D01*
X10698214Y-11979929D01*
X10669643Y-11994214D01*
X10583928Y-11994214D01*
X10555357Y-11979929D01*
X10541071Y-11965643D01*
X10869643Y-11994214D02*
X10926786Y-11994214D01*
X10955357Y-11979929D01*
X10969643Y-11965643D01*
X10998214Y-11922786D01*
X11012500Y-11865643D01*
X11012500Y-11751357D01*
X10998214Y-11722786D01*
X10983928Y-11708500D01*
X10955357Y-11694214D01*
X10898214Y-11694214D01*
X10869643Y-11708500D01*
X10855357Y-11722786D01*
X10841071Y-11751357D01*
X10841071Y-11822786D01*
X10855357Y-11851357D01*
X10869643Y-11865643D01*
X10898214Y-11879929D01*
X10955357Y-11879929D01*
X10983928Y-11865643D01*
X10998214Y-11851357D01*
X11012500Y-11822786D01*
X11126786Y-11694214D02*
X11126786Y-11751357D01*
X11241071Y-11694214D02*
X11241071Y-11751357D01*
X11683928Y-12108500D02*
X11669643Y-12094214D01*
X11641071Y-12051357D01*
X11626786Y-12022786D01*
X11612500Y-11979929D01*
X11598214Y-11908500D01*
X11598214Y-11851357D01*
X11612500Y-11779929D01*
X11626786Y-11737071D01*
X11641071Y-11708500D01*
X11669643Y-11665643D01*
X11683928Y-11651357D01*
X11941071Y-11694214D02*
X11798214Y-11694214D01*
X11783928Y-11837071D01*
X11798214Y-11822786D01*
X11826786Y-11808500D01*
X11898214Y-11808500D01*
X11926786Y-11822786D01*
X11941071Y-11837071D01*
X11955357Y-11865643D01*
X11955357Y-11937071D01*
X11941071Y-11965643D01*
X11926786Y-11979929D01*
X11898214Y-11994214D01*
X11826786Y-11994214D01*
X11798214Y-11979929D01*
X11783928Y-11965643D01*
X12312500Y-11994214D02*
X12312500Y-11694214D01*
X12441071Y-11994214D02*
X12441071Y-11837071D01*
X12426786Y-11808500D01*
X12398214Y-11794214D01*
X12355357Y-11794214D01*
X12326786Y-11808500D01*
X12312500Y-11822786D01*
X12626786Y-11994214D02*
X12598214Y-11979929D01*
X12583928Y-11965643D01*
X12569643Y-11937071D01*
X12569643Y-11851357D01*
X12583928Y-11822786D01*
X12598214Y-11808500D01*
X12626786Y-11794214D01*
X12669643Y-11794214D01*
X12698214Y-11808500D01*
X12712500Y-11822786D01*
X12726786Y-11851357D01*
X12726786Y-11937071D01*
X12712500Y-11965643D01*
X12698214Y-11979929D01*
X12669643Y-11994214D01*
X12626786Y-11994214D01*
X12898214Y-11994214D02*
X12869643Y-11979929D01*
X12855357Y-11951357D01*
X12855357Y-11694214D01*
X13126786Y-11979929D02*
X13098214Y-11994214D01*
X13041071Y-11994214D01*
X13012500Y-11979929D01*
X12998214Y-11951357D01*
X12998214Y-11837071D01*
X13012500Y-11808500D01*
X13041071Y-11794214D01*
X13098214Y-11794214D01*
X13126786Y-11808500D01*
X13141071Y-11837071D01*
X13141071Y-11865643D01*
X12998214Y-11894214D01*
X13255357Y-11979929D02*
X13283928Y-11994214D01*
X13341071Y-11994214D01*
X13369643Y-11979929D01*
X13383928Y-11951357D01*
X13383928Y-11937071D01*
X13369643Y-11908500D01*
X13341071Y-11894214D01*
X13298214Y-11894214D01*
X13269643Y-11879929D01*
X13255357Y-11851357D01*
X13255357Y-11837071D01*
X13269643Y-11808500D01*
X13298214Y-11794214D01*
X13341071Y-11794214D01*
X13369643Y-11808500D01*
X13483928Y-12108500D02*
X13498214Y-12094214D01*
X13526786Y-12051357D01*
X13541071Y-12022786D01*
X13555357Y-11979929D01*
X13569643Y-11908500D01*
X13569643Y-11851357D01*
X13555357Y-11779929D01*
X13541071Y-11737071D01*
X13526786Y-11708500D01*
X13498214Y-11665643D01*
X13483928Y-11651357D01*
M02*
