G04 #@! TF.GenerationSoftware,KiCad,Pcbnew,(5.1.5-0)*
G04 #@! TF.CreationDate,2022-06-07T15:44:26-06:00*
G04 #@! TF.ProjectId,low_power_heater,6c6f775f-706f-4776-9572-5f6865617465,rev?*
G04 #@! TF.SameCoordinates,Original*
G04 #@! TF.FileFunction,Soldermask,Bot*
G04 #@! TF.FilePolarity,Negative*
%FSLAX46Y46*%
G04 Gerber Fmt 4.6, Leading zero omitted, Abs format (unit mm)*
G04 Created by KiCad (PCBNEW (5.1.5-0)) date 2022-06-07 15:44:26*
%MOMM*%
%LPD*%
G04 APERTURE LIST*
%ADD10C,0.100000*%
G04 APERTURE END LIST*
D10*
G36*
X134101000Y-102101000D02*
G01*
X132299000Y-102101000D01*
X132299000Y-100299000D01*
X134101000Y-100299000D01*
X134101000Y-102101000D01*
G37*
G36*
X130773512Y-100303927D02*
G01*
X130922812Y-100333624D01*
X131086784Y-100401544D01*
X131234354Y-100500147D01*
X131359853Y-100625646D01*
X131458456Y-100773216D01*
X131526376Y-100937188D01*
X131561000Y-101111259D01*
X131561000Y-101288741D01*
X131526376Y-101462812D01*
X131458456Y-101626784D01*
X131359853Y-101774354D01*
X131234354Y-101899853D01*
X131086784Y-101998456D01*
X130922812Y-102066376D01*
X130773512Y-102096073D01*
X130748742Y-102101000D01*
X130571258Y-102101000D01*
X130546488Y-102096073D01*
X130397188Y-102066376D01*
X130233216Y-101998456D01*
X130085646Y-101899853D01*
X129960147Y-101774354D01*
X129861544Y-101626784D01*
X129793624Y-101462812D01*
X129759000Y-101288741D01*
X129759000Y-101111259D01*
X129793624Y-100937188D01*
X129861544Y-100773216D01*
X129960147Y-100625646D01*
X130085646Y-100500147D01*
X130233216Y-100401544D01*
X130397188Y-100333624D01*
X130546488Y-100303927D01*
X130571258Y-100299000D01*
X130748742Y-100299000D01*
X130773512Y-100303927D01*
G37*
G36*
X128233512Y-100303927D02*
G01*
X128382812Y-100333624D01*
X128546784Y-100401544D01*
X128694354Y-100500147D01*
X128819853Y-100625646D01*
X128918456Y-100773216D01*
X128986376Y-100937188D01*
X129021000Y-101111259D01*
X129021000Y-101288741D01*
X128986376Y-101462812D01*
X128918456Y-101626784D01*
X128819853Y-101774354D01*
X128694354Y-101899853D01*
X128546784Y-101998456D01*
X128382812Y-102066376D01*
X128233512Y-102096073D01*
X128208742Y-102101000D01*
X128031258Y-102101000D01*
X128006488Y-102096073D01*
X127857188Y-102066376D01*
X127693216Y-101998456D01*
X127545646Y-101899853D01*
X127420147Y-101774354D01*
X127321544Y-101626784D01*
X127253624Y-101462812D01*
X127219000Y-101288741D01*
X127219000Y-101111259D01*
X127253624Y-100937188D01*
X127321544Y-100773216D01*
X127420147Y-100625646D01*
X127545646Y-100500147D01*
X127693216Y-100401544D01*
X127857188Y-100333624D01*
X128006488Y-100303927D01*
X128031258Y-100299000D01*
X128208742Y-100299000D01*
X128233512Y-100303927D01*
G37*
G36*
X125693512Y-100303927D02*
G01*
X125842812Y-100333624D01*
X126006784Y-100401544D01*
X126154354Y-100500147D01*
X126279853Y-100625646D01*
X126378456Y-100773216D01*
X126446376Y-100937188D01*
X126481000Y-101111259D01*
X126481000Y-101288741D01*
X126446376Y-101462812D01*
X126378456Y-101626784D01*
X126279853Y-101774354D01*
X126154354Y-101899853D01*
X126006784Y-101998456D01*
X125842812Y-102066376D01*
X125693512Y-102096073D01*
X125668742Y-102101000D01*
X125491258Y-102101000D01*
X125466488Y-102096073D01*
X125317188Y-102066376D01*
X125153216Y-101998456D01*
X125005646Y-101899853D01*
X124880147Y-101774354D01*
X124781544Y-101626784D01*
X124713624Y-101462812D01*
X124679000Y-101288741D01*
X124679000Y-101111259D01*
X124713624Y-100937188D01*
X124781544Y-100773216D01*
X124880147Y-100625646D01*
X125005646Y-100500147D01*
X125153216Y-100401544D01*
X125317188Y-100333624D01*
X125466488Y-100303927D01*
X125491258Y-100299000D01*
X125668742Y-100299000D01*
X125693512Y-100303927D01*
G37*
G36*
X123153512Y-100303927D02*
G01*
X123302812Y-100333624D01*
X123466784Y-100401544D01*
X123614354Y-100500147D01*
X123739853Y-100625646D01*
X123838456Y-100773216D01*
X123906376Y-100937188D01*
X123941000Y-101111259D01*
X123941000Y-101288741D01*
X123906376Y-101462812D01*
X123838456Y-101626784D01*
X123739853Y-101774354D01*
X123614354Y-101899853D01*
X123466784Y-101998456D01*
X123302812Y-102066376D01*
X123153512Y-102096073D01*
X123128742Y-102101000D01*
X122951258Y-102101000D01*
X122926488Y-102096073D01*
X122777188Y-102066376D01*
X122613216Y-101998456D01*
X122465646Y-101899853D01*
X122340147Y-101774354D01*
X122241544Y-101626784D01*
X122173624Y-101462812D01*
X122139000Y-101288741D01*
X122139000Y-101111259D01*
X122173624Y-100937188D01*
X122241544Y-100773216D01*
X122340147Y-100625646D01*
X122465646Y-100500147D01*
X122613216Y-100401544D01*
X122777188Y-100333624D01*
X122926488Y-100303927D01*
X122951258Y-100299000D01*
X123128742Y-100299000D01*
X123153512Y-100303927D01*
G37*
M02*
