%FSLAX45Y45*%
G04 Gerber Fmt 4.5, Leading zero omitted, Abs format (unit mm)*
G04 Created by KiCad (PCBNEW (5.1.5-0)) date 2022-06-07 15:44:30*
%MOMM*%
%LPD*%
G04 APERTURE LIST*
%TA.AperFunction,Profile*%
%ADD10C,0.050000*%
%TD*%
%ADD11C,0.200000*%
%ADD12C,0.300000*%
G04 APERTURE END LIST*
D10*
X7000000Y-10500000D02*
X7000000Y-6800000D01*
X13700000Y-10500000D02*
X7000000Y-10500000D01*
X13700000Y-6800000D02*
X13700000Y-10500000D01*
X7000000Y-6800000D02*
X13700000Y-6800000D01*
D11*
D12*
X7283928Y-10968214D02*
X7283928Y-10668214D01*
X7355357Y-10668214D01*
X7398214Y-10682500D01*
X7426786Y-10711072D01*
X7441071Y-10739643D01*
X7455357Y-10796786D01*
X7455357Y-10839643D01*
X7441071Y-10896786D01*
X7426786Y-10925357D01*
X7398214Y-10953929D01*
X7355357Y-10968214D01*
X7283928Y-10968214D01*
X7583928Y-10968214D02*
X7583928Y-10768214D01*
X7583928Y-10825357D02*
X7598214Y-10796786D01*
X7612500Y-10782500D01*
X7641071Y-10768214D01*
X7669643Y-10768214D01*
X7769643Y-10968214D02*
X7769643Y-10768214D01*
X7769643Y-10668214D02*
X7755357Y-10682500D01*
X7769643Y-10696786D01*
X7783928Y-10682500D01*
X7769643Y-10668214D01*
X7769643Y-10696786D01*
X7955357Y-10968214D02*
X7926786Y-10953929D01*
X7912500Y-10925357D01*
X7912500Y-10668214D01*
X8112500Y-10968214D02*
X8083928Y-10953929D01*
X8069643Y-10925357D01*
X8069643Y-10668214D01*
X8455357Y-10968214D02*
X8455357Y-10668214D01*
X8555357Y-10882500D01*
X8655357Y-10668214D01*
X8655357Y-10968214D01*
X8926786Y-10968214D02*
X8926786Y-10811072D01*
X8912500Y-10782500D01*
X8883928Y-10768214D01*
X8826786Y-10768214D01*
X8798214Y-10782500D01*
X8926786Y-10953929D02*
X8898214Y-10968214D01*
X8826786Y-10968214D01*
X8798214Y-10953929D01*
X8783928Y-10925357D01*
X8783928Y-10896786D01*
X8798214Y-10868214D01*
X8826786Y-10853929D01*
X8898214Y-10853929D01*
X8926786Y-10839643D01*
X9069643Y-10768214D02*
X9069643Y-11068214D01*
X9069643Y-10782500D02*
X9098214Y-10768214D01*
X9155357Y-10768214D01*
X9183928Y-10782500D01*
X9198214Y-10796786D01*
X9212500Y-10825357D01*
X9212500Y-10911072D01*
X9198214Y-10939643D01*
X9183928Y-10953929D01*
X9155357Y-10968214D01*
X9098214Y-10968214D01*
X9069643Y-10953929D01*
X9341071Y-10939643D02*
X9355357Y-10953929D01*
X9341071Y-10968214D01*
X9326786Y-10953929D01*
X9341071Y-10939643D01*
X9341071Y-10968214D01*
X9341071Y-10782500D02*
X9355357Y-10796786D01*
X9341071Y-10811072D01*
X9326786Y-10796786D01*
X9341071Y-10782500D01*
X9341071Y-10811072D01*
M02*
