G04 #@! TF.GenerationSoftware,KiCad,Pcbnew,(5.1.5-0)*
G04 #@! TF.CreationDate,2022-06-07T15:44:26-06:00*
G04 #@! TF.ProjectId,low_power_heater,6c6f775f-706f-4776-9572-5f6865617465,rev?*
G04 #@! TF.SameCoordinates,Original*
G04 #@! TF.FileFunction,Copper,L2,Bot*
G04 #@! TF.FilePolarity,Positive*
%FSLAX46Y46*%
G04 Gerber Fmt 4.6, Leading zero omitted, Abs format (unit mm)*
G04 Created by KiCad (PCBNEW (5.1.5-0)) date 2022-06-07 15:44:26*
%MOMM*%
%LPD*%
G04 APERTURE LIST*
%ADD10O,1.700000X1.700000*%
%ADD11R,1.700000X1.700000*%
%ADD12C,0.800000*%
%ADD13C,0.250000*%
%ADD14C,0.254000*%
G04 APERTURE END LIST*
D10*
X123040000Y-101200000D03*
X125580000Y-101200000D03*
X128120000Y-101200000D03*
X130660000Y-101200000D03*
D11*
X133200000Y-101200000D03*
D12*
X113400000Y-92000000D03*
D13*
X125100000Y-92000000D02*
X113965685Y-92000000D01*
X113965685Y-92000000D02*
X113400000Y-92000000D01*
X133200000Y-100100000D02*
X125100000Y-92000000D01*
X133200000Y-101200000D02*
X133200000Y-100100000D01*
D14*
G36*
X136340001Y-104340000D02*
G01*
X70660000Y-104340000D01*
X70660000Y-101053740D01*
X121555000Y-101053740D01*
X121555000Y-101346260D01*
X121612068Y-101633158D01*
X121724010Y-101903411D01*
X121886525Y-102146632D01*
X122093368Y-102353475D01*
X122336589Y-102515990D01*
X122606842Y-102627932D01*
X122893740Y-102685000D01*
X123186260Y-102685000D01*
X123473158Y-102627932D01*
X123743411Y-102515990D01*
X123986632Y-102353475D01*
X124193475Y-102146632D01*
X124310000Y-101972240D01*
X124426525Y-102146632D01*
X124633368Y-102353475D01*
X124876589Y-102515990D01*
X125146842Y-102627932D01*
X125433740Y-102685000D01*
X125726260Y-102685000D01*
X126013158Y-102627932D01*
X126283411Y-102515990D01*
X126526632Y-102353475D01*
X126733475Y-102146632D01*
X126850000Y-101972240D01*
X126966525Y-102146632D01*
X127173368Y-102353475D01*
X127416589Y-102515990D01*
X127686842Y-102627932D01*
X127973740Y-102685000D01*
X128266260Y-102685000D01*
X128553158Y-102627932D01*
X128823411Y-102515990D01*
X129066632Y-102353475D01*
X129273475Y-102146632D01*
X129395195Y-101964466D01*
X129464822Y-102081355D01*
X129659731Y-102297588D01*
X129893080Y-102471641D01*
X130155901Y-102596825D01*
X130303110Y-102641476D01*
X130533000Y-102520155D01*
X130533000Y-101327000D01*
X130513000Y-101327000D01*
X130513000Y-101073000D01*
X130533000Y-101073000D01*
X130533000Y-99879845D01*
X130303110Y-99758524D01*
X130155901Y-99803175D01*
X129893080Y-99928359D01*
X129659731Y-100102412D01*
X129464822Y-100318645D01*
X129395195Y-100435534D01*
X129273475Y-100253368D01*
X129066632Y-100046525D01*
X128823411Y-99884010D01*
X128553158Y-99772068D01*
X128266260Y-99715000D01*
X127973740Y-99715000D01*
X127686842Y-99772068D01*
X127416589Y-99884010D01*
X127173368Y-100046525D01*
X126966525Y-100253368D01*
X126850000Y-100427760D01*
X126733475Y-100253368D01*
X126526632Y-100046525D01*
X126283411Y-99884010D01*
X126013158Y-99772068D01*
X125726260Y-99715000D01*
X125433740Y-99715000D01*
X125146842Y-99772068D01*
X124876589Y-99884010D01*
X124633368Y-100046525D01*
X124426525Y-100253368D01*
X124310000Y-100427760D01*
X124193475Y-100253368D01*
X123986632Y-100046525D01*
X123743411Y-99884010D01*
X123473158Y-99772068D01*
X123186260Y-99715000D01*
X122893740Y-99715000D01*
X122606842Y-99772068D01*
X122336589Y-99884010D01*
X122093368Y-100046525D01*
X121886525Y-100253368D01*
X121724010Y-100496589D01*
X121612068Y-100766842D01*
X121555000Y-101053740D01*
X70660000Y-101053740D01*
X70660000Y-91898061D01*
X112365000Y-91898061D01*
X112365000Y-92101939D01*
X112404774Y-92301898D01*
X112482795Y-92490256D01*
X112596063Y-92659774D01*
X112740226Y-92803937D01*
X112909744Y-92917205D01*
X113098102Y-92995226D01*
X113298061Y-93035000D01*
X113501939Y-93035000D01*
X113701898Y-92995226D01*
X113890256Y-92917205D01*
X114059774Y-92803937D01*
X114103711Y-92760000D01*
X124785199Y-92760000D01*
X131912655Y-99887457D01*
X131898815Y-99898815D01*
X131819463Y-99995506D01*
X131760498Y-100105820D01*
X131736034Y-100186466D01*
X131660269Y-100102412D01*
X131426920Y-99928359D01*
X131164099Y-99803175D01*
X131016890Y-99758524D01*
X130787000Y-99879845D01*
X130787000Y-101073000D01*
X130807000Y-101073000D01*
X130807000Y-101327000D01*
X130787000Y-101327000D01*
X130787000Y-102520155D01*
X131016890Y-102641476D01*
X131164099Y-102596825D01*
X131426920Y-102471641D01*
X131660269Y-102297588D01*
X131736034Y-102213534D01*
X131760498Y-102294180D01*
X131819463Y-102404494D01*
X131898815Y-102501185D01*
X131995506Y-102580537D01*
X132105820Y-102639502D01*
X132225518Y-102675812D01*
X132350000Y-102688072D01*
X134050000Y-102688072D01*
X134174482Y-102675812D01*
X134294180Y-102639502D01*
X134404494Y-102580537D01*
X134501185Y-102501185D01*
X134580537Y-102404494D01*
X134639502Y-102294180D01*
X134675812Y-102174482D01*
X134688072Y-102050000D01*
X134688072Y-100350000D01*
X134675812Y-100225518D01*
X134639502Y-100105820D01*
X134580537Y-99995506D01*
X134501185Y-99898815D01*
X134404494Y-99819463D01*
X134294180Y-99760498D01*
X134174482Y-99724188D01*
X134050000Y-99711928D01*
X133854326Y-99711928D01*
X133834974Y-99675724D01*
X133740001Y-99559999D01*
X133711003Y-99536201D01*
X125663804Y-91489003D01*
X125640001Y-91459999D01*
X125524276Y-91365026D01*
X125392247Y-91294454D01*
X125248986Y-91250997D01*
X125137333Y-91240000D01*
X125137322Y-91240000D01*
X125100000Y-91236324D01*
X125062678Y-91240000D01*
X114103711Y-91240000D01*
X114059774Y-91196063D01*
X113890256Y-91082795D01*
X113701898Y-91004774D01*
X113501939Y-90965000D01*
X113298061Y-90965000D01*
X113098102Y-91004774D01*
X112909744Y-91082795D01*
X112740226Y-91196063D01*
X112596063Y-91340226D01*
X112482795Y-91509744D01*
X112404774Y-91698102D01*
X112365000Y-91898061D01*
X70660000Y-91898061D01*
X70660000Y-68660000D01*
X136340000Y-68660000D01*
X136340001Y-104340000D01*
G37*
X136340001Y-104340000D02*
X70660000Y-104340000D01*
X70660000Y-101053740D01*
X121555000Y-101053740D01*
X121555000Y-101346260D01*
X121612068Y-101633158D01*
X121724010Y-101903411D01*
X121886525Y-102146632D01*
X122093368Y-102353475D01*
X122336589Y-102515990D01*
X122606842Y-102627932D01*
X122893740Y-102685000D01*
X123186260Y-102685000D01*
X123473158Y-102627932D01*
X123743411Y-102515990D01*
X123986632Y-102353475D01*
X124193475Y-102146632D01*
X124310000Y-101972240D01*
X124426525Y-102146632D01*
X124633368Y-102353475D01*
X124876589Y-102515990D01*
X125146842Y-102627932D01*
X125433740Y-102685000D01*
X125726260Y-102685000D01*
X126013158Y-102627932D01*
X126283411Y-102515990D01*
X126526632Y-102353475D01*
X126733475Y-102146632D01*
X126850000Y-101972240D01*
X126966525Y-102146632D01*
X127173368Y-102353475D01*
X127416589Y-102515990D01*
X127686842Y-102627932D01*
X127973740Y-102685000D01*
X128266260Y-102685000D01*
X128553158Y-102627932D01*
X128823411Y-102515990D01*
X129066632Y-102353475D01*
X129273475Y-102146632D01*
X129395195Y-101964466D01*
X129464822Y-102081355D01*
X129659731Y-102297588D01*
X129893080Y-102471641D01*
X130155901Y-102596825D01*
X130303110Y-102641476D01*
X130533000Y-102520155D01*
X130533000Y-101327000D01*
X130513000Y-101327000D01*
X130513000Y-101073000D01*
X130533000Y-101073000D01*
X130533000Y-99879845D01*
X130303110Y-99758524D01*
X130155901Y-99803175D01*
X129893080Y-99928359D01*
X129659731Y-100102412D01*
X129464822Y-100318645D01*
X129395195Y-100435534D01*
X129273475Y-100253368D01*
X129066632Y-100046525D01*
X128823411Y-99884010D01*
X128553158Y-99772068D01*
X128266260Y-99715000D01*
X127973740Y-99715000D01*
X127686842Y-99772068D01*
X127416589Y-99884010D01*
X127173368Y-100046525D01*
X126966525Y-100253368D01*
X126850000Y-100427760D01*
X126733475Y-100253368D01*
X126526632Y-100046525D01*
X126283411Y-99884010D01*
X126013158Y-99772068D01*
X125726260Y-99715000D01*
X125433740Y-99715000D01*
X125146842Y-99772068D01*
X124876589Y-99884010D01*
X124633368Y-100046525D01*
X124426525Y-100253368D01*
X124310000Y-100427760D01*
X124193475Y-100253368D01*
X123986632Y-100046525D01*
X123743411Y-99884010D01*
X123473158Y-99772068D01*
X123186260Y-99715000D01*
X122893740Y-99715000D01*
X122606842Y-99772068D01*
X122336589Y-99884010D01*
X122093368Y-100046525D01*
X121886525Y-100253368D01*
X121724010Y-100496589D01*
X121612068Y-100766842D01*
X121555000Y-101053740D01*
X70660000Y-101053740D01*
X70660000Y-91898061D01*
X112365000Y-91898061D01*
X112365000Y-92101939D01*
X112404774Y-92301898D01*
X112482795Y-92490256D01*
X112596063Y-92659774D01*
X112740226Y-92803937D01*
X112909744Y-92917205D01*
X113098102Y-92995226D01*
X113298061Y-93035000D01*
X113501939Y-93035000D01*
X113701898Y-92995226D01*
X113890256Y-92917205D01*
X114059774Y-92803937D01*
X114103711Y-92760000D01*
X124785199Y-92760000D01*
X131912655Y-99887457D01*
X131898815Y-99898815D01*
X131819463Y-99995506D01*
X131760498Y-100105820D01*
X131736034Y-100186466D01*
X131660269Y-100102412D01*
X131426920Y-99928359D01*
X131164099Y-99803175D01*
X131016890Y-99758524D01*
X130787000Y-99879845D01*
X130787000Y-101073000D01*
X130807000Y-101073000D01*
X130807000Y-101327000D01*
X130787000Y-101327000D01*
X130787000Y-102520155D01*
X131016890Y-102641476D01*
X131164099Y-102596825D01*
X131426920Y-102471641D01*
X131660269Y-102297588D01*
X131736034Y-102213534D01*
X131760498Y-102294180D01*
X131819463Y-102404494D01*
X131898815Y-102501185D01*
X131995506Y-102580537D01*
X132105820Y-102639502D01*
X132225518Y-102675812D01*
X132350000Y-102688072D01*
X134050000Y-102688072D01*
X134174482Y-102675812D01*
X134294180Y-102639502D01*
X134404494Y-102580537D01*
X134501185Y-102501185D01*
X134580537Y-102404494D01*
X134639502Y-102294180D01*
X134675812Y-102174482D01*
X134688072Y-102050000D01*
X134688072Y-100350000D01*
X134675812Y-100225518D01*
X134639502Y-100105820D01*
X134580537Y-99995506D01*
X134501185Y-99898815D01*
X134404494Y-99819463D01*
X134294180Y-99760498D01*
X134174482Y-99724188D01*
X134050000Y-99711928D01*
X133854326Y-99711928D01*
X133834974Y-99675724D01*
X133740001Y-99559999D01*
X133711003Y-99536201D01*
X125663804Y-91489003D01*
X125640001Y-91459999D01*
X125524276Y-91365026D01*
X125392247Y-91294454D01*
X125248986Y-91250997D01*
X125137333Y-91240000D01*
X125137322Y-91240000D01*
X125100000Y-91236324D01*
X125062678Y-91240000D01*
X114103711Y-91240000D01*
X114059774Y-91196063D01*
X113890256Y-91082795D01*
X113701898Y-91004774D01*
X113501939Y-90965000D01*
X113298061Y-90965000D01*
X113098102Y-91004774D01*
X112909744Y-91082795D01*
X112740226Y-91196063D01*
X112596063Y-91340226D01*
X112482795Y-91509744D01*
X112404774Y-91698102D01*
X112365000Y-91898061D01*
X70660000Y-91898061D01*
X70660000Y-68660000D01*
X136340000Y-68660000D01*
X136340001Y-104340000D01*
M02*
