G04 #@! TF.GenerationSoftware,KiCad,Pcbnew,(5.1.5-0)*
G04 #@! TF.CreationDate,2021-08-24T11:58:41-06:00*
G04 #@! TF.ProjectId,2ch-ads,3263682d-6164-4732-9e6b-696361645f70,rev?*
G04 #@! TF.SameCoordinates,Original*
G04 #@! TF.FileFunction,Copper,L2,Bot*
G04 #@! TF.FilePolarity,Positive*
%FSLAX46Y46*%
G04 Gerber Fmt 4.6, Leading zero omitted, Abs format (unit mm)*
G04 Created by KiCad (PCBNEW (5.1.5-0)) date 2021-08-24 11:58:41*
%MOMM*%
%LPD*%
G04 APERTURE LIST*
%ADD10C,1.240000*%
%ADD11R,1.800000X1.400000*%
%ADD12O,1.800000X1.400000*%
%ADD13O,1.700000X1.200000*%
%ADD14R,1.700000X1.200000*%
%ADD15C,3.810000*%
%ADD16R,1.520000X1.520000*%
%ADD17C,1.520000*%
%ADD18C,7.000000*%
%ADD19C,0.600000*%
%ADD20C,0.500000*%
%ADD21C,0.250000*%
%ADD22C,0.254000*%
G04 APERTURE END LIST*
D10*
X137680000Y-121020000D03*
X140220000Y-118480000D03*
X140220000Y-121020000D03*
X137680000Y-118480000D03*
X138950000Y-119750000D03*
X107810000Y-83150000D03*
X110350000Y-80610000D03*
X110350000Y-83150000D03*
X107810000Y-80610000D03*
X109080000Y-81880000D03*
X108180000Y-117720000D03*
X110720000Y-115180000D03*
X110720000Y-117720000D03*
X108180000Y-115180000D03*
X109450000Y-116450000D03*
D11*
X169750000Y-105750000D03*
D12*
X169750000Y-108290000D03*
X169750000Y-110830000D03*
X169750000Y-113370000D03*
D13*
X156250000Y-88750000D03*
D14*
X156250000Y-86750000D03*
D13*
X149150000Y-88800000D03*
D14*
X149150000Y-86800000D03*
D15*
X102613000Y-87881000D03*
X102613000Y-112901000D03*
D16*
X104013000Y-105791000D03*
D17*
X104013000Y-103121000D03*
X104013000Y-100331000D03*
X104013000Y-97661000D03*
X104013000Y-94871000D03*
X101223000Y-104521000D03*
X101223000Y-101731000D03*
X101223000Y-99061000D03*
X101223000Y-96261000D03*
D18*
X97000000Y-79000000D03*
X171000000Y-79000000D03*
X97000000Y-121000000D03*
X171000000Y-121000000D03*
D19*
X149750000Y-112650000D03*
X140750000Y-115650000D03*
X168450000Y-98350000D03*
X169250000Y-90950000D03*
X168450000Y-86750000D03*
X153950000Y-98650000D03*
X157250000Y-101950000D03*
X150850000Y-106450000D03*
X138650000Y-111550000D03*
X133750000Y-101250000D03*
X136750000Y-101250000D03*
X136750000Y-104250000D03*
X133750000Y-104250000D03*
X133750000Y-107250000D03*
X136750000Y-107250000D03*
X133750000Y-109750000D03*
X130750000Y-109750000D03*
X127750000Y-109750000D03*
X130750000Y-107250000D03*
X127750000Y-107250000D03*
X136750000Y-109250000D03*
X133750000Y-97750000D03*
X136750000Y-97750000D03*
X130750000Y-97750000D03*
X127750000Y-95250000D03*
X130750000Y-101250000D03*
X127750000Y-99250000D03*
X125750000Y-93250000D03*
X125750000Y-97250000D03*
X112750000Y-95600000D03*
X111750000Y-93250000D03*
X112450000Y-103350000D03*
X116150000Y-97850000D03*
X112550000Y-112550000D03*
X115550000Y-115850000D03*
X122650000Y-113550000D03*
X122750000Y-95250000D03*
X118750000Y-89250000D03*
X120750000Y-90250000D03*
X132750000Y-95250000D03*
X135750000Y-95250000D03*
X135750000Y-92250000D03*
X132750000Y-92250000D03*
X132750000Y-89250000D03*
X135750000Y-89250000D03*
X135750000Y-86250000D03*
X132750000Y-86250000D03*
X131750000Y-96250000D03*
X124750000Y-105250000D03*
X127750000Y-105250000D03*
X127750000Y-102250000D03*
X124750000Y-102250000D03*
X124750000Y-99250000D03*
X162750000Y-101250000D03*
X160750000Y-92250000D03*
X163750000Y-92250000D03*
X163750000Y-89250000D03*
X160750000Y-89250000D03*
X157250000Y-99350000D03*
X117950000Y-103675000D03*
X117950000Y-113025000D03*
X117153718Y-112947941D03*
X107010000Y-104550000D03*
X117491942Y-95016942D03*
X106375000Y-96375000D03*
X118800000Y-102875000D03*
X123500000Y-116300000D03*
X124350000Y-97350000D03*
X119535456Y-97250000D03*
X145550000Y-83650000D03*
X144550000Y-82850000D03*
X145750000Y-78050000D03*
X115475000Y-109275000D03*
X115575000Y-105625000D03*
X115625000Y-90975000D03*
X115925000Y-87650000D03*
X135400466Y-100446625D03*
X135374622Y-98650000D03*
X133750001Y-96650000D03*
X134524598Y-109050000D03*
D20*
X149200000Y-88750000D02*
X149150000Y-88800000D01*
X156250000Y-88750000D02*
X149200000Y-88750000D01*
X156250000Y-89850000D02*
X156250000Y-88750000D01*
X157350000Y-90950000D02*
X156250000Y-89850000D01*
D21*
X168450000Y-91750000D02*
X169250000Y-90950000D01*
X168450000Y-98350000D02*
X168450000Y-91750000D01*
D20*
X169250000Y-90950000D02*
X157350000Y-90950000D01*
D21*
X168450000Y-90150000D02*
X169250000Y-90950000D01*
X168450000Y-86750000D02*
X168450000Y-90150000D01*
X157250000Y-101950000D02*
X153950000Y-98650000D01*
X143750000Y-106450000D02*
X138650000Y-111550000D01*
X150850000Y-106450000D02*
X143750000Y-106450000D01*
X101223000Y-106824398D02*
X101223000Y-105595802D01*
X101223000Y-105595802D02*
X101223000Y-104521000D01*
X109450000Y-115051398D02*
X101223000Y-106824398D01*
X109450000Y-116450000D02*
X109450000Y-115051398D01*
X105313598Y-81880000D02*
X108203188Y-81880000D01*
X108203188Y-81880000D02*
X109080000Y-81880000D01*
X100137999Y-87055599D02*
X105313598Y-81880000D01*
X100137999Y-97975999D02*
X100137999Y-87055599D01*
X101223000Y-99061000D02*
X100137999Y-97975999D01*
X117950000Y-103675000D02*
X117950000Y-113025000D01*
X117153718Y-112947941D02*
X117153718Y-104221282D01*
X117153718Y-104221282D02*
X117175000Y-104200000D01*
X117175000Y-104200000D02*
X117175000Y-103675000D01*
X117175000Y-103675000D02*
X115000000Y-103675000D01*
X115000000Y-103675000D02*
X113175000Y-105500000D01*
X113175000Y-105500000D02*
X107900000Y-105500000D01*
X107010000Y-104610000D02*
X107010000Y-104550000D01*
X107900000Y-105500000D02*
X107010000Y-104610000D01*
X117067678Y-95016942D02*
X117000736Y-94950000D01*
X117491942Y-95016942D02*
X117067678Y-95016942D01*
X107800000Y-94950000D02*
X106375000Y-96375000D01*
X117000736Y-94950000D02*
X107800000Y-94950000D01*
D20*
X118800000Y-113643297D02*
X121474227Y-116317524D01*
X118800000Y-102875000D02*
X118800000Y-113643297D01*
X123482476Y-116317524D02*
X123500000Y-116300000D01*
X121474227Y-116317524D02*
X123482476Y-116317524D01*
D21*
X120250000Y-97250000D02*
X119535456Y-97250000D01*
X120350000Y-97350000D02*
X124350000Y-97350000D01*
X120250000Y-97250000D02*
X120350000Y-97350000D01*
X148050000Y-88800000D02*
X149150000Y-88800000D01*
X145849999Y-86599999D02*
X148050000Y-88800000D01*
X145849999Y-83949999D02*
X145849999Y-86599999D01*
X145550000Y-83650000D02*
X145849999Y-83949999D01*
X144550000Y-79250000D02*
X145750000Y-78050000D01*
X144550000Y-82850000D02*
X144550000Y-79250000D01*
X115475000Y-105725000D02*
X115575000Y-105625000D01*
X115475000Y-109275000D02*
X115475000Y-105725000D01*
X115625000Y-90975000D02*
X115625000Y-88150000D01*
X115925000Y-87850000D02*
X115925000Y-87650000D01*
X115625000Y-88150000D02*
X115925000Y-87850000D01*
X135400466Y-100446625D02*
X135400466Y-99222578D01*
X135374622Y-99196734D02*
X135374622Y-98650000D01*
X135400466Y-99222578D02*
X135374622Y-99196734D01*
X134375001Y-97275000D02*
X134375001Y-108900403D01*
X134375001Y-108900403D02*
X134524598Y-109050000D01*
X133750001Y-96650000D02*
X134375001Y-97275000D01*
D22*
G36*
X168364091Y-75788136D02*
G01*
X167788136Y-76364091D01*
X167335611Y-77041343D01*
X167023906Y-77793865D01*
X166865000Y-78592738D01*
X166865000Y-79407262D01*
X167023906Y-80206135D01*
X167335611Y-80958657D01*
X167788136Y-81635909D01*
X168364091Y-82211864D01*
X169041343Y-82664389D01*
X169793865Y-82976094D01*
X170592738Y-83135000D01*
X171407262Y-83135000D01*
X172206135Y-82976094D01*
X172958657Y-82664389D01*
X173635909Y-82211864D01*
X174211864Y-81635909D01*
X174290001Y-81518969D01*
X174290000Y-118481030D01*
X174211864Y-118364091D01*
X173635909Y-117788136D01*
X172958657Y-117335611D01*
X172206135Y-117023906D01*
X171407262Y-116865000D01*
X170592738Y-116865000D01*
X169793865Y-117023906D01*
X169041343Y-117335611D01*
X168364091Y-117788136D01*
X167788136Y-118364091D01*
X167335611Y-119041343D01*
X167023906Y-119793865D01*
X166865000Y-120592738D01*
X166865000Y-121407262D01*
X167023906Y-122206135D01*
X167335611Y-122958657D01*
X167788136Y-123635909D01*
X168364091Y-124211864D01*
X168481030Y-124290000D01*
X99518970Y-124290000D01*
X99635909Y-124211864D01*
X100211864Y-123635909D01*
X100664389Y-122958657D01*
X100976094Y-122206135D01*
X101040156Y-121884072D01*
X136995533Y-121884072D01*
X137045274Y-122109691D01*
X137270058Y-122212582D01*
X137510596Y-122269642D01*
X137757645Y-122278680D01*
X138001709Y-122239347D01*
X138233410Y-122153156D01*
X138314726Y-122109691D01*
X138364467Y-121884072D01*
X139535533Y-121884072D01*
X139585274Y-122109691D01*
X139810058Y-122212582D01*
X140050596Y-122269642D01*
X140297645Y-122278680D01*
X140541709Y-122239347D01*
X140773410Y-122153156D01*
X140854726Y-122109691D01*
X140904467Y-121884072D01*
X140220000Y-121199605D01*
X139535533Y-121884072D01*
X138364467Y-121884072D01*
X137680000Y-121199605D01*
X136995533Y-121884072D01*
X101040156Y-121884072D01*
X101135000Y-121407262D01*
X101135000Y-121097645D01*
X136421320Y-121097645D01*
X136460653Y-121341709D01*
X136546844Y-121573410D01*
X136590309Y-121654726D01*
X136815928Y-121704467D01*
X137500395Y-121020000D01*
X136815928Y-120335533D01*
X136590309Y-120385274D01*
X136487418Y-120610058D01*
X136430358Y-120850596D01*
X136421320Y-121097645D01*
X101135000Y-121097645D01*
X101135000Y-120592738D01*
X100976094Y-119793865D01*
X100789784Y-119344072D01*
X136995533Y-119344072D01*
X137045274Y-119569691D01*
X137270058Y-119672582D01*
X137510596Y-119729642D01*
X137695000Y-119736388D01*
X137695000Y-119764709D01*
X137602355Y-119761320D01*
X137358291Y-119800653D01*
X137126590Y-119886844D01*
X137045274Y-119930309D01*
X136995533Y-120155928D01*
X137680000Y-120840395D01*
X137694143Y-120826253D01*
X137873748Y-121005858D01*
X137859605Y-121020000D01*
X138544072Y-121704467D01*
X138769691Y-121654726D01*
X138872582Y-121429942D01*
X138929642Y-121189404D01*
X138936388Y-121005000D01*
X138964709Y-121005000D01*
X138961320Y-121097645D01*
X139000653Y-121341709D01*
X139086844Y-121573410D01*
X139130309Y-121654726D01*
X139355928Y-121704467D01*
X140040395Y-121020000D01*
X140399605Y-121020000D01*
X141084072Y-121704467D01*
X141309691Y-121654726D01*
X141412582Y-121429942D01*
X141469642Y-121189404D01*
X141478680Y-120942355D01*
X141439347Y-120698291D01*
X141353156Y-120466590D01*
X141309691Y-120385274D01*
X141084072Y-120335533D01*
X140399605Y-121020000D01*
X140040395Y-121020000D01*
X140026253Y-121005858D01*
X140205858Y-120826253D01*
X140220000Y-120840395D01*
X140904467Y-120155928D01*
X140854726Y-119930309D01*
X140629942Y-119827418D01*
X140389404Y-119770358D01*
X140205000Y-119763612D01*
X140205000Y-119735291D01*
X140297645Y-119738680D01*
X140541709Y-119699347D01*
X140773410Y-119613156D01*
X140854726Y-119569691D01*
X140904467Y-119344072D01*
X140220000Y-118659605D01*
X140205858Y-118673748D01*
X140026253Y-118494143D01*
X140040395Y-118480000D01*
X140399605Y-118480000D01*
X141084072Y-119164467D01*
X141309691Y-119114726D01*
X141412582Y-118889942D01*
X141469642Y-118649404D01*
X141478680Y-118402355D01*
X141439347Y-118158291D01*
X141353156Y-117926590D01*
X141309691Y-117845274D01*
X141084072Y-117795533D01*
X140399605Y-118480000D01*
X140040395Y-118480000D01*
X139355928Y-117795533D01*
X139130309Y-117845274D01*
X139027418Y-118070058D01*
X138970358Y-118310596D01*
X138963612Y-118495000D01*
X138935291Y-118495000D01*
X138938680Y-118402355D01*
X138899347Y-118158291D01*
X138813156Y-117926590D01*
X138769691Y-117845274D01*
X138544072Y-117795533D01*
X137859605Y-118480000D01*
X137873748Y-118494143D01*
X137694143Y-118673748D01*
X137680000Y-118659605D01*
X136995533Y-119344072D01*
X100789784Y-119344072D01*
X100664389Y-119041343D01*
X100358851Y-118584072D01*
X107495533Y-118584072D01*
X107545274Y-118809691D01*
X107770058Y-118912582D01*
X108010596Y-118969642D01*
X108257645Y-118978680D01*
X108501709Y-118939347D01*
X108733410Y-118853156D01*
X108814726Y-118809691D01*
X108864467Y-118584072D01*
X110035533Y-118584072D01*
X110085274Y-118809691D01*
X110310058Y-118912582D01*
X110550596Y-118969642D01*
X110797645Y-118978680D01*
X111041709Y-118939347D01*
X111273410Y-118853156D01*
X111354726Y-118809691D01*
X111404467Y-118584072D01*
X111378040Y-118557645D01*
X136421320Y-118557645D01*
X136460653Y-118801709D01*
X136546844Y-119033410D01*
X136590309Y-119114726D01*
X136815928Y-119164467D01*
X137500395Y-118480000D01*
X136815928Y-117795533D01*
X136590309Y-117845274D01*
X136487418Y-118070058D01*
X136430358Y-118310596D01*
X136421320Y-118557645D01*
X111378040Y-118557645D01*
X110720000Y-117899605D01*
X110035533Y-118584072D01*
X108864467Y-118584072D01*
X108180000Y-117899605D01*
X107495533Y-118584072D01*
X100358851Y-118584072D01*
X100211864Y-118364091D01*
X99645418Y-117797645D01*
X106921320Y-117797645D01*
X106960653Y-118041709D01*
X107046844Y-118273410D01*
X107090309Y-118354726D01*
X107315928Y-118404467D01*
X108000395Y-117720000D01*
X107315928Y-117035533D01*
X107090309Y-117085274D01*
X106987418Y-117310058D01*
X106930358Y-117550596D01*
X106921320Y-117797645D01*
X99645418Y-117797645D01*
X99635909Y-117788136D01*
X98958657Y-117335611D01*
X98206135Y-117023906D01*
X97407262Y-116865000D01*
X96592738Y-116865000D01*
X95793865Y-117023906D01*
X95041343Y-117335611D01*
X94364091Y-117788136D01*
X93788136Y-118364091D01*
X93710000Y-118481030D01*
X93710000Y-112650832D01*
X100073000Y-112650832D01*
X100073000Y-113151168D01*
X100170611Y-113641891D01*
X100362081Y-114104141D01*
X100640053Y-114520156D01*
X100993844Y-114873947D01*
X101409859Y-115151919D01*
X101872109Y-115343389D01*
X102362832Y-115441000D01*
X102863168Y-115441000D01*
X103353891Y-115343389D01*
X103560895Y-115257645D01*
X106921320Y-115257645D01*
X106960653Y-115501709D01*
X107046844Y-115733410D01*
X107090309Y-115814726D01*
X107315928Y-115864467D01*
X108000395Y-115180000D01*
X107315928Y-114495533D01*
X107090309Y-114545274D01*
X106987418Y-114770058D01*
X106930358Y-115010596D01*
X106921320Y-115257645D01*
X103560895Y-115257645D01*
X103816141Y-115151919D01*
X104232156Y-114873947D01*
X104585947Y-114520156D01*
X104863919Y-114104141D01*
X105055389Y-113641891D01*
X105153000Y-113151168D01*
X105153000Y-112650832D01*
X105055389Y-112160109D01*
X104863919Y-111697859D01*
X104585947Y-111281844D01*
X104232156Y-110928053D01*
X103816141Y-110650081D01*
X103353891Y-110458611D01*
X102863168Y-110361000D01*
X102362832Y-110361000D01*
X101872109Y-110458611D01*
X101409859Y-110650081D01*
X100993844Y-110928053D01*
X100640053Y-111281844D01*
X100362081Y-111697859D01*
X100170611Y-112160109D01*
X100073000Y-112650832D01*
X93710000Y-112650832D01*
X93710000Y-87055599D01*
X99374323Y-87055599D01*
X99378000Y-87092931D01*
X99377999Y-97938677D01*
X99374323Y-97975999D01*
X99377999Y-98013321D01*
X99377999Y-98013331D01*
X99388996Y-98124984D01*
X99413909Y-98207111D01*
X99432453Y-98268245D01*
X99503025Y-98400275D01*
X99529930Y-98433058D01*
X99597998Y-98516000D01*
X99627001Y-98539803D01*
X99858329Y-98771130D01*
X99828000Y-98923604D01*
X99828000Y-99198396D01*
X99881609Y-99467907D01*
X99986767Y-99721780D01*
X100139433Y-99950261D01*
X100333739Y-100144567D01*
X100562220Y-100297233D01*
X100800664Y-100396000D01*
X100562220Y-100494767D01*
X100333739Y-100647433D01*
X100139433Y-100841739D01*
X99986767Y-101070220D01*
X99881609Y-101324093D01*
X99828000Y-101593604D01*
X99828000Y-101868396D01*
X99881609Y-102137907D01*
X99986767Y-102391780D01*
X100139433Y-102620261D01*
X100333739Y-102814567D01*
X100562220Y-102967233D01*
X100816093Y-103072391D01*
X101085604Y-103126000D01*
X100816093Y-103179609D01*
X100562220Y-103284767D01*
X100333739Y-103437433D01*
X100139433Y-103631739D01*
X99986767Y-103860220D01*
X99881609Y-104114093D01*
X99828000Y-104383604D01*
X99828000Y-104658396D01*
X99881609Y-104927907D01*
X99986767Y-105181780D01*
X100139433Y-105410261D01*
X100333739Y-105604567D01*
X100463001Y-105690937D01*
X100463000Y-106787075D01*
X100459324Y-106824398D01*
X100463000Y-106861720D01*
X100463000Y-106861730D01*
X100473997Y-106973383D01*
X100505068Y-107075812D01*
X100517454Y-107116644D01*
X100588026Y-107248674D01*
X100627871Y-107297224D01*
X100682999Y-107364399D01*
X100712003Y-107388202D01*
X107521580Y-114197780D01*
X107495533Y-114315928D01*
X108180000Y-115000395D01*
X108194143Y-114986253D01*
X108373748Y-115165858D01*
X108359605Y-115180000D01*
X108373748Y-115194143D01*
X108194143Y-115373748D01*
X108180000Y-115359605D01*
X107495533Y-116044072D01*
X107545274Y-116269691D01*
X107770058Y-116372582D01*
X108010596Y-116429642D01*
X108195000Y-116436388D01*
X108195000Y-116464709D01*
X108102355Y-116461320D01*
X107858291Y-116500653D01*
X107626590Y-116586844D01*
X107545274Y-116630309D01*
X107495533Y-116855928D01*
X108180000Y-117540395D01*
X108194143Y-117526253D01*
X108373748Y-117705858D01*
X108359605Y-117720000D01*
X109044072Y-118404467D01*
X109269691Y-118354726D01*
X109372582Y-118129942D01*
X109429642Y-117889404D01*
X109436388Y-117705000D01*
X109464709Y-117705000D01*
X109461320Y-117797645D01*
X109500653Y-118041709D01*
X109586844Y-118273410D01*
X109630309Y-118354726D01*
X109855928Y-118404467D01*
X110540395Y-117720000D01*
X110899605Y-117720000D01*
X111584072Y-118404467D01*
X111809691Y-118354726D01*
X111912582Y-118129942D01*
X111969642Y-117889404D01*
X111978680Y-117642355D01*
X111974422Y-117615928D01*
X136995533Y-117615928D01*
X137680000Y-118300395D01*
X138364467Y-117615928D01*
X139535533Y-117615928D01*
X140220000Y-118300395D01*
X140904467Y-117615928D01*
X140854726Y-117390309D01*
X140629942Y-117287418D01*
X140389404Y-117230358D01*
X140142355Y-117221320D01*
X139898291Y-117260653D01*
X139666590Y-117346844D01*
X139585274Y-117390309D01*
X139535533Y-117615928D01*
X138364467Y-117615928D01*
X138314726Y-117390309D01*
X138089942Y-117287418D01*
X137849404Y-117230358D01*
X137602355Y-117221320D01*
X137358291Y-117260653D01*
X137126590Y-117346844D01*
X137045274Y-117390309D01*
X136995533Y-117615928D01*
X111974422Y-117615928D01*
X111939347Y-117398291D01*
X111853156Y-117166590D01*
X111809691Y-117085274D01*
X111584072Y-117035533D01*
X110899605Y-117720000D01*
X110540395Y-117720000D01*
X110526253Y-117705858D01*
X110705858Y-117526253D01*
X110720000Y-117540395D01*
X111404467Y-116855928D01*
X111354726Y-116630309D01*
X111129942Y-116527418D01*
X110889404Y-116470358D01*
X110705000Y-116463612D01*
X110705000Y-116435291D01*
X110797645Y-116438680D01*
X111041709Y-116399347D01*
X111273410Y-116313156D01*
X111354726Y-116269691D01*
X111404467Y-116044072D01*
X110720000Y-115359605D01*
X110705858Y-115373748D01*
X110526253Y-115194143D01*
X110540395Y-115180000D01*
X110899605Y-115180000D01*
X111584072Y-115864467D01*
X111809691Y-115814726D01*
X111912582Y-115589942D01*
X111969642Y-115349404D01*
X111978680Y-115102355D01*
X111939347Y-114858291D01*
X111853156Y-114626590D01*
X111809691Y-114545274D01*
X111584072Y-114495533D01*
X110899605Y-115180000D01*
X110540395Y-115180000D01*
X110171221Y-114810826D01*
X110155546Y-114759151D01*
X110151153Y-114750932D01*
X110084974Y-114627121D01*
X110013799Y-114540395D01*
X109990001Y-114511397D01*
X109961003Y-114487599D01*
X109789332Y-114315928D01*
X110035533Y-114315928D01*
X110720000Y-115000395D01*
X111404467Y-114315928D01*
X111354726Y-114090309D01*
X111129942Y-113987418D01*
X110889404Y-113930358D01*
X110642355Y-113921320D01*
X110398291Y-113960653D01*
X110166590Y-114046844D01*
X110085274Y-114090309D01*
X110035533Y-114315928D01*
X109789332Y-114315928D01*
X101983000Y-106509597D01*
X101983000Y-105690936D01*
X102112261Y-105604567D01*
X102306567Y-105410261D01*
X102459233Y-105181780D01*
X102521688Y-105031000D01*
X102614928Y-105031000D01*
X102614928Y-106551000D01*
X102627188Y-106675482D01*
X102663498Y-106795180D01*
X102722463Y-106905494D01*
X102801815Y-107002185D01*
X102898506Y-107081537D01*
X103008820Y-107140502D01*
X103128518Y-107176812D01*
X103253000Y-107189072D01*
X104773000Y-107189072D01*
X104897482Y-107176812D01*
X105017180Y-107140502D01*
X105127494Y-107081537D01*
X105224185Y-107002185D01*
X105303537Y-106905494D01*
X105362502Y-106795180D01*
X105398812Y-106675482D01*
X105411072Y-106551000D01*
X105411072Y-105031000D01*
X105398812Y-104906518D01*
X105362502Y-104786820D01*
X105303537Y-104676506D01*
X105224185Y-104579815D01*
X105127494Y-104500463D01*
X105047887Y-104457911D01*
X106075000Y-104457911D01*
X106075000Y-104642089D01*
X106110932Y-104822729D01*
X106181414Y-104992889D01*
X106283738Y-105146028D01*
X106413972Y-105276262D01*
X106567111Y-105378586D01*
X106737271Y-105449068D01*
X106783453Y-105458254D01*
X107336201Y-106011003D01*
X107359999Y-106040001D01*
X107388997Y-106063799D01*
X107475723Y-106134974D01*
X107554855Y-106177271D01*
X107607753Y-106205546D01*
X107751014Y-106249003D01*
X107862667Y-106260000D01*
X107862676Y-106260000D01*
X107899999Y-106263676D01*
X107937322Y-106260000D01*
X113137678Y-106260000D01*
X113175000Y-106263676D01*
X113212322Y-106260000D01*
X113212333Y-106260000D01*
X113323986Y-106249003D01*
X113467247Y-106205546D01*
X113599276Y-106134974D01*
X113715001Y-106040001D01*
X113738804Y-106010997D01*
X115314802Y-104435000D01*
X116393719Y-104435000D01*
X116393719Y-105167344D01*
X116301262Y-105028972D01*
X116171028Y-104898738D01*
X116017889Y-104796414D01*
X115847729Y-104725932D01*
X115667089Y-104690000D01*
X115482911Y-104690000D01*
X115302271Y-104725932D01*
X115132111Y-104796414D01*
X114978972Y-104898738D01*
X114848738Y-105028972D01*
X114746414Y-105182111D01*
X114675932Y-105352271D01*
X114640000Y-105532911D01*
X114640000Y-105717089D01*
X114675932Y-105897729D01*
X114715001Y-105992050D01*
X114715000Y-108729464D01*
X114646414Y-108832111D01*
X114575932Y-109002271D01*
X114540000Y-109182911D01*
X114540000Y-109367089D01*
X114575932Y-109547729D01*
X114646414Y-109717889D01*
X114748738Y-109871028D01*
X114878972Y-110001262D01*
X115032111Y-110103586D01*
X115202271Y-110174068D01*
X115382911Y-110210000D01*
X115567089Y-110210000D01*
X115747729Y-110174068D01*
X115917889Y-110103586D01*
X116071028Y-110001262D01*
X116201262Y-109871028D01*
X116303586Y-109717889D01*
X116374068Y-109547729D01*
X116393718Y-109448941D01*
X116393718Y-112402405D01*
X116325132Y-112505052D01*
X116254650Y-112675212D01*
X116218718Y-112855852D01*
X116218718Y-113040030D01*
X116254650Y-113220670D01*
X116325132Y-113390830D01*
X116427456Y-113543969D01*
X116557690Y-113674203D01*
X116710829Y-113776527D01*
X116880989Y-113847009D01*
X117061629Y-113882941D01*
X117245807Y-113882941D01*
X117426447Y-113847009D01*
X117470166Y-113828900D01*
X117507111Y-113853586D01*
X117677271Y-113924068D01*
X117857911Y-113960000D01*
X117971250Y-113960000D01*
X117978412Y-113983610D01*
X118060590Y-114137356D01*
X118143468Y-114238343D01*
X118143471Y-114238346D01*
X118171184Y-114272114D01*
X118204951Y-114299826D01*
X120817697Y-116912573D01*
X120845410Y-116946341D01*
X120879178Y-116974054D01*
X120879180Y-116974056D01*
X120898609Y-116990001D01*
X120980168Y-117056935D01*
X121133914Y-117139113D01*
X121300737Y-117189719D01*
X121430750Y-117202524D01*
X121430760Y-117202524D01*
X121474226Y-117206805D01*
X121517692Y-117202524D01*
X123244645Y-117202524D01*
X123407911Y-117235000D01*
X123592089Y-117235000D01*
X123772729Y-117199068D01*
X123942889Y-117128586D01*
X124096028Y-117026262D01*
X124226262Y-116896028D01*
X124328586Y-116742889D01*
X124399068Y-116572729D01*
X124435000Y-116392089D01*
X124435000Y-116207911D01*
X124399068Y-116027271D01*
X124328586Y-115857111D01*
X124226262Y-115703972D01*
X124096028Y-115573738D01*
X124072342Y-115557911D01*
X139815000Y-115557911D01*
X139815000Y-115742089D01*
X139850932Y-115922729D01*
X139921414Y-116092889D01*
X140023738Y-116246028D01*
X140153972Y-116376262D01*
X140307111Y-116478586D01*
X140477271Y-116549068D01*
X140657911Y-116585000D01*
X140842089Y-116585000D01*
X141022729Y-116549068D01*
X141192889Y-116478586D01*
X141346028Y-116376262D01*
X141476262Y-116246028D01*
X141578586Y-116092889D01*
X141649068Y-115922729D01*
X141685000Y-115742089D01*
X141685000Y-115557911D01*
X141649068Y-115377271D01*
X141578586Y-115207111D01*
X141476262Y-115053972D01*
X141346028Y-114923738D01*
X141192889Y-114821414D01*
X141022729Y-114750932D01*
X140842089Y-114715000D01*
X140657911Y-114715000D01*
X140477271Y-114750932D01*
X140307111Y-114821414D01*
X140153972Y-114923738D01*
X140023738Y-115053972D01*
X139921414Y-115207111D01*
X139850932Y-115377271D01*
X139815000Y-115557911D01*
X124072342Y-115557911D01*
X123942889Y-115471414D01*
X123772729Y-115400932D01*
X123592089Y-115365000D01*
X123407911Y-115365000D01*
X123227271Y-115400932D01*
X123151001Y-115432524D01*
X121840806Y-115432524D01*
X119778282Y-113370000D01*
X168208541Y-113370000D01*
X168234317Y-113631706D01*
X168310653Y-113883354D01*
X168434618Y-114115275D01*
X168601445Y-114318555D01*
X168804725Y-114485382D01*
X169036646Y-114609347D01*
X169288294Y-114685683D01*
X169484421Y-114705000D01*
X170015579Y-114705000D01*
X170211706Y-114685683D01*
X170463354Y-114609347D01*
X170695275Y-114485382D01*
X170898555Y-114318555D01*
X171065382Y-114115275D01*
X171189347Y-113883354D01*
X171265683Y-113631706D01*
X171291459Y-113370000D01*
X171265683Y-113108294D01*
X171189347Y-112856646D01*
X171065382Y-112624725D01*
X170898555Y-112421445D01*
X170695275Y-112254618D01*
X170463354Y-112130653D01*
X170367358Y-112101533D01*
X170587104Y-112009372D01*
X170804946Y-111862418D01*
X170989933Y-111675789D01*
X171134956Y-111456657D01*
X171234442Y-111213443D01*
X171242716Y-111163329D01*
X171119374Y-110957000D01*
X169877000Y-110957000D01*
X169877000Y-110977000D01*
X169623000Y-110977000D01*
X169623000Y-110957000D01*
X168380626Y-110957000D01*
X168257284Y-111163329D01*
X168265558Y-111213443D01*
X168365044Y-111456657D01*
X168510067Y-111675789D01*
X168695054Y-111862418D01*
X168912896Y-112009372D01*
X169132642Y-112101533D01*
X169036646Y-112130653D01*
X168804725Y-112254618D01*
X168601445Y-112421445D01*
X168434618Y-112624725D01*
X168310653Y-112856646D01*
X168234317Y-113108294D01*
X168208541Y-113370000D01*
X119778282Y-113370000D01*
X119685000Y-113276719D01*
X119685000Y-111457911D01*
X137715000Y-111457911D01*
X137715000Y-111642089D01*
X137750932Y-111822729D01*
X137821414Y-111992889D01*
X137923738Y-112146028D01*
X138053972Y-112276262D01*
X138207111Y-112378586D01*
X138377271Y-112449068D01*
X138557911Y-112485000D01*
X138742089Y-112485000D01*
X138922729Y-112449068D01*
X139092889Y-112378586D01*
X139246028Y-112276262D01*
X139376262Y-112146028D01*
X139478586Y-111992889D01*
X139549068Y-111822729D01*
X139573153Y-111701648D01*
X142984801Y-108290000D01*
X168208541Y-108290000D01*
X168234317Y-108551706D01*
X168310653Y-108803354D01*
X168434618Y-109035275D01*
X168601445Y-109238555D01*
X168804725Y-109405382D01*
X169036646Y-109529347D01*
X169132642Y-109558467D01*
X168912896Y-109650628D01*
X168695054Y-109797582D01*
X168510067Y-109984211D01*
X168365044Y-110203343D01*
X168265558Y-110446557D01*
X168257284Y-110496671D01*
X168380626Y-110703000D01*
X169623000Y-110703000D01*
X169623000Y-110683000D01*
X169877000Y-110683000D01*
X169877000Y-110703000D01*
X171119374Y-110703000D01*
X171242716Y-110496671D01*
X171234442Y-110446557D01*
X171134956Y-110203343D01*
X170989933Y-109984211D01*
X170804946Y-109797582D01*
X170587104Y-109650628D01*
X170367358Y-109558467D01*
X170463354Y-109529347D01*
X170695275Y-109405382D01*
X170898555Y-109238555D01*
X171065382Y-109035275D01*
X171189347Y-108803354D01*
X171265683Y-108551706D01*
X171291459Y-108290000D01*
X171265683Y-108028294D01*
X171189347Y-107776646D01*
X171065382Y-107544725D01*
X170898555Y-107341445D01*
X170695275Y-107174618D01*
X170533360Y-107088072D01*
X170650000Y-107088072D01*
X170774482Y-107075812D01*
X170894180Y-107039502D01*
X171004494Y-106980537D01*
X171101185Y-106901185D01*
X171180537Y-106804494D01*
X171239502Y-106694180D01*
X171275812Y-106574482D01*
X171288072Y-106450000D01*
X171288072Y-105050000D01*
X171275812Y-104925518D01*
X171239502Y-104805820D01*
X171180537Y-104695506D01*
X171101185Y-104598815D01*
X171004494Y-104519463D01*
X170894180Y-104460498D01*
X170774482Y-104424188D01*
X170650000Y-104411928D01*
X168850000Y-104411928D01*
X168725518Y-104424188D01*
X168605820Y-104460498D01*
X168495506Y-104519463D01*
X168398815Y-104598815D01*
X168319463Y-104695506D01*
X168260498Y-104805820D01*
X168224188Y-104925518D01*
X168211928Y-105050000D01*
X168211928Y-106450000D01*
X168224188Y-106574482D01*
X168260498Y-106694180D01*
X168319463Y-106804494D01*
X168398815Y-106901185D01*
X168495506Y-106980537D01*
X168605820Y-107039502D01*
X168725518Y-107075812D01*
X168850000Y-107088072D01*
X168966640Y-107088072D01*
X168804725Y-107174618D01*
X168601445Y-107341445D01*
X168434618Y-107544725D01*
X168310653Y-107776646D01*
X168234317Y-108028294D01*
X168208541Y-108290000D01*
X142984801Y-108290000D01*
X144064802Y-107210000D01*
X150304465Y-107210000D01*
X150407111Y-107278586D01*
X150577271Y-107349068D01*
X150757911Y-107385000D01*
X150942089Y-107385000D01*
X151122729Y-107349068D01*
X151292889Y-107278586D01*
X151446028Y-107176262D01*
X151576262Y-107046028D01*
X151678586Y-106892889D01*
X151749068Y-106722729D01*
X151785000Y-106542089D01*
X151785000Y-106357911D01*
X151749068Y-106177271D01*
X151678586Y-106007111D01*
X151576262Y-105853972D01*
X151446028Y-105723738D01*
X151292889Y-105621414D01*
X151122729Y-105550932D01*
X150942089Y-105515000D01*
X150757911Y-105515000D01*
X150577271Y-105550932D01*
X150407111Y-105621414D01*
X150304465Y-105690000D01*
X143787322Y-105690000D01*
X143749999Y-105686324D01*
X143712676Y-105690000D01*
X143712667Y-105690000D01*
X143601014Y-105700997D01*
X143457753Y-105744454D01*
X143325724Y-105815026D01*
X143209999Y-105909999D01*
X143186201Y-105938997D01*
X138498352Y-110626847D01*
X138377271Y-110650932D01*
X138207111Y-110721414D01*
X138053972Y-110823738D01*
X137923738Y-110953972D01*
X137821414Y-111107111D01*
X137750932Y-111277271D01*
X137715000Y-111457911D01*
X119685000Y-111457911D01*
X119685000Y-103181692D01*
X119699068Y-103147729D01*
X119735000Y-102967089D01*
X119735000Y-102782911D01*
X119699068Y-102602271D01*
X119628586Y-102432111D01*
X119526262Y-102278972D01*
X119396028Y-102148738D01*
X119242889Y-102046414D01*
X119072729Y-101975932D01*
X118892089Y-101940000D01*
X118707911Y-101940000D01*
X118527271Y-101975932D01*
X118357111Y-102046414D01*
X118203972Y-102148738D01*
X118073738Y-102278972D01*
X117971414Y-102432111D01*
X117900932Y-102602271D01*
X117873536Y-102740000D01*
X117857911Y-102740000D01*
X117677271Y-102775932D01*
X117507111Y-102846414D01*
X117368017Y-102939353D01*
X117323986Y-102925997D01*
X117212333Y-102915000D01*
X117175000Y-102911323D01*
X117137667Y-102915000D01*
X115037325Y-102915000D01*
X115000000Y-102911324D01*
X114962675Y-102915000D01*
X114962667Y-102915000D01*
X114851014Y-102925997D01*
X114707753Y-102969454D01*
X114575724Y-103040026D01*
X114459999Y-103134999D01*
X114436201Y-103163997D01*
X112860199Y-104740000D01*
X108214802Y-104740000D01*
X107945000Y-104470199D01*
X107945000Y-104457911D01*
X107909068Y-104277271D01*
X107838586Y-104107111D01*
X107736262Y-103953972D01*
X107606028Y-103823738D01*
X107452889Y-103721414D01*
X107282729Y-103650932D01*
X107102089Y-103615000D01*
X106917911Y-103615000D01*
X106737271Y-103650932D01*
X106567111Y-103721414D01*
X106413972Y-103823738D01*
X106283738Y-103953972D01*
X106181414Y-104107111D01*
X106110932Y-104277271D01*
X106075000Y-104457911D01*
X105047887Y-104457911D01*
X105017180Y-104441498D01*
X104897482Y-104405188D01*
X104773000Y-104392928D01*
X104587605Y-104392928D01*
X104673780Y-104357233D01*
X104902261Y-104204567D01*
X105096567Y-104010261D01*
X105249233Y-103781780D01*
X105354391Y-103527907D01*
X105408000Y-103258396D01*
X105408000Y-102983604D01*
X105354391Y-102714093D01*
X105249233Y-102460220D01*
X105096567Y-102231739D01*
X104902261Y-102037433D01*
X104673780Y-101884767D01*
X104419907Y-101779609D01*
X104150396Y-101726000D01*
X104419907Y-101672391D01*
X104673780Y-101567233D01*
X104902261Y-101414567D01*
X105096567Y-101220261D01*
X105249233Y-100991780D01*
X105354391Y-100737907D01*
X105408000Y-100468396D01*
X105408000Y-100193604D01*
X105354391Y-99924093D01*
X105249233Y-99670220D01*
X105096567Y-99441739D01*
X104902261Y-99247433D01*
X104673780Y-99094767D01*
X104435336Y-98996000D01*
X104673780Y-98897233D01*
X104902261Y-98744567D01*
X105096567Y-98550261D01*
X105249233Y-98321780D01*
X105354391Y-98067907D01*
X105408000Y-97798396D01*
X105408000Y-97523604D01*
X105354391Y-97254093D01*
X105249233Y-97000220D01*
X105096567Y-96771739D01*
X104902261Y-96577433D01*
X104673780Y-96424767D01*
X104419907Y-96319609D01*
X104235414Y-96282911D01*
X105440000Y-96282911D01*
X105440000Y-96467089D01*
X105475932Y-96647729D01*
X105546414Y-96817889D01*
X105648738Y-96971028D01*
X105778972Y-97101262D01*
X105932111Y-97203586D01*
X106102271Y-97274068D01*
X106282911Y-97310000D01*
X106467089Y-97310000D01*
X106647729Y-97274068D01*
X106817889Y-97203586D01*
X106886246Y-97157911D01*
X118600456Y-97157911D01*
X118600456Y-97342089D01*
X118636388Y-97522729D01*
X118706870Y-97692889D01*
X118809194Y-97846028D01*
X118939428Y-97976262D01*
X119092567Y-98078586D01*
X119262727Y-98149068D01*
X119443367Y-98185000D01*
X119627545Y-98185000D01*
X119808185Y-98149068D01*
X119978345Y-98078586D01*
X120032794Y-98042205D01*
X120057753Y-98055546D01*
X120201014Y-98099003D01*
X120312667Y-98110000D01*
X120312677Y-98110000D01*
X120349999Y-98113676D01*
X120387322Y-98110000D01*
X123804465Y-98110000D01*
X123907111Y-98178586D01*
X124077271Y-98249068D01*
X124257911Y-98285000D01*
X124442089Y-98285000D01*
X124622729Y-98249068D01*
X124792889Y-98178586D01*
X124946028Y-98076262D01*
X125076262Y-97946028D01*
X125178586Y-97792889D01*
X125249068Y-97622729D01*
X125285000Y-97442089D01*
X125285000Y-97257911D01*
X125249068Y-97077271D01*
X125178586Y-96907111D01*
X125076262Y-96753972D01*
X124946028Y-96623738D01*
X124847511Y-96557911D01*
X132815001Y-96557911D01*
X132815001Y-96742089D01*
X132850933Y-96922729D01*
X132921415Y-97092889D01*
X133023739Y-97246028D01*
X133153973Y-97376262D01*
X133307112Y-97478586D01*
X133477272Y-97549068D01*
X133598351Y-97573152D01*
X133615001Y-97589802D01*
X133615002Y-108830198D01*
X133589598Y-108957911D01*
X133589598Y-109142089D01*
X133625530Y-109322729D01*
X133696012Y-109492889D01*
X133798336Y-109646028D01*
X133928570Y-109776262D01*
X134081709Y-109878586D01*
X134251869Y-109949068D01*
X134432509Y-109985000D01*
X134616687Y-109985000D01*
X134797327Y-109949068D01*
X134967487Y-109878586D01*
X135120626Y-109776262D01*
X135250860Y-109646028D01*
X135353184Y-109492889D01*
X135423666Y-109322729D01*
X135459598Y-109142089D01*
X135459598Y-108957911D01*
X135423666Y-108777271D01*
X135353184Y-108607111D01*
X135250860Y-108453972D01*
X135135001Y-108338113D01*
X135135001Y-101347138D01*
X135308377Y-101381625D01*
X135492555Y-101381625D01*
X135673195Y-101345693D01*
X135843355Y-101275211D01*
X135996494Y-101172887D01*
X136126728Y-101042653D01*
X136229052Y-100889514D01*
X136299534Y-100719354D01*
X136335466Y-100538714D01*
X136335466Y-100354536D01*
X136299534Y-100173896D01*
X136229052Y-100003736D01*
X136160466Y-99901090D01*
X136160466Y-99259901D01*
X136164142Y-99222578D01*
X136160466Y-99185256D01*
X136160466Y-99185245D01*
X136158029Y-99160504D01*
X136203208Y-99092889D01*
X136273690Y-98922729D01*
X136309622Y-98742089D01*
X136309622Y-98557911D01*
X153015000Y-98557911D01*
X153015000Y-98742089D01*
X153050932Y-98922729D01*
X153121414Y-99092889D01*
X153223738Y-99246028D01*
X153353972Y-99376262D01*
X153507111Y-99478586D01*
X153677271Y-99549068D01*
X153798352Y-99573153D01*
X156326847Y-102101649D01*
X156350932Y-102222729D01*
X156421414Y-102392889D01*
X156523738Y-102546028D01*
X156653972Y-102676262D01*
X156807111Y-102778586D01*
X156977271Y-102849068D01*
X157157911Y-102885000D01*
X157342089Y-102885000D01*
X157522729Y-102849068D01*
X157692889Y-102778586D01*
X157846028Y-102676262D01*
X157976262Y-102546028D01*
X158078586Y-102392889D01*
X158149068Y-102222729D01*
X158185000Y-102042089D01*
X158185000Y-101857911D01*
X158149068Y-101677271D01*
X158078586Y-101507111D01*
X157976262Y-101353972D01*
X157846028Y-101223738D01*
X157692889Y-101121414D01*
X157522729Y-101050932D01*
X157401649Y-101026847D01*
X154873153Y-98498352D01*
X154849068Y-98377271D01*
X154778586Y-98207111D01*
X154676262Y-98053972D01*
X154546028Y-97923738D01*
X154392889Y-97821414D01*
X154222729Y-97750932D01*
X154042089Y-97715000D01*
X153857911Y-97715000D01*
X153677271Y-97750932D01*
X153507111Y-97821414D01*
X153353972Y-97923738D01*
X153223738Y-98053972D01*
X153121414Y-98207111D01*
X153050932Y-98377271D01*
X153015000Y-98557911D01*
X136309622Y-98557911D01*
X136273690Y-98377271D01*
X136203208Y-98207111D01*
X136100884Y-98053972D01*
X135970650Y-97923738D01*
X135817511Y-97821414D01*
X135647351Y-97750932D01*
X135466711Y-97715000D01*
X135282533Y-97715000D01*
X135135001Y-97744346D01*
X135135001Y-97312322D01*
X135138677Y-97274999D01*
X135135001Y-97237676D01*
X135135001Y-97237667D01*
X135124004Y-97126014D01*
X135080547Y-96982753D01*
X135009975Y-96850724D01*
X134945154Y-96771739D01*
X134938800Y-96763996D01*
X134938796Y-96763992D01*
X134915002Y-96734999D01*
X134886010Y-96711206D01*
X134673153Y-96498350D01*
X134649069Y-96377271D01*
X134578587Y-96207111D01*
X134476263Y-96053972D01*
X134346029Y-95923738D01*
X134192890Y-95821414D01*
X134022730Y-95750932D01*
X133842090Y-95715000D01*
X133657912Y-95715000D01*
X133477272Y-95750932D01*
X133307112Y-95821414D01*
X133153973Y-95923738D01*
X133023739Y-96053972D01*
X132921415Y-96207111D01*
X132850933Y-96377271D01*
X132815001Y-96557911D01*
X124847511Y-96557911D01*
X124792889Y-96521414D01*
X124622729Y-96450932D01*
X124442089Y-96415000D01*
X124257911Y-96415000D01*
X124077271Y-96450932D01*
X123907111Y-96521414D01*
X123804465Y-96590000D01*
X120627456Y-96590000D01*
X120542247Y-96544454D01*
X120398986Y-96500997D01*
X120287333Y-96490000D01*
X120287322Y-96490000D01*
X120250000Y-96486324D01*
X120212678Y-96490000D01*
X120080991Y-96490000D01*
X119978345Y-96421414D01*
X119808185Y-96350932D01*
X119627545Y-96315000D01*
X119443367Y-96315000D01*
X119262727Y-96350932D01*
X119092567Y-96421414D01*
X118939428Y-96523738D01*
X118809194Y-96653972D01*
X118706870Y-96807111D01*
X118636388Y-96977271D01*
X118600456Y-97157911D01*
X106886246Y-97157911D01*
X106971028Y-97101262D01*
X107101262Y-96971028D01*
X107203586Y-96817889D01*
X107274068Y-96647729D01*
X107298153Y-96526649D01*
X108114802Y-95710000D01*
X116752068Y-95710000D01*
X116775431Y-95722488D01*
X116918692Y-95765945D01*
X116931894Y-95767245D01*
X117049053Y-95845528D01*
X117219213Y-95916010D01*
X117399853Y-95951942D01*
X117584031Y-95951942D01*
X117764671Y-95916010D01*
X117934831Y-95845528D01*
X118087970Y-95743204D01*
X118218204Y-95612970D01*
X118320528Y-95459831D01*
X118391010Y-95289671D01*
X118426942Y-95109031D01*
X118426942Y-94924853D01*
X118391010Y-94744213D01*
X118320528Y-94574053D01*
X118218204Y-94420914D01*
X118087970Y-94290680D01*
X117934831Y-94188356D01*
X117764671Y-94117874D01*
X117584031Y-94081942D01*
X117399853Y-94081942D01*
X117219213Y-94117874D01*
X117049053Y-94188356D01*
X117045498Y-94190732D01*
X117038069Y-94190000D01*
X117038058Y-94190000D01*
X117000736Y-94186324D01*
X116963414Y-94190000D01*
X107837322Y-94190000D01*
X107799999Y-94186324D01*
X107762676Y-94190000D01*
X107762667Y-94190000D01*
X107651014Y-94200997D01*
X107507753Y-94244454D01*
X107375724Y-94315026D01*
X107259999Y-94409999D01*
X107236201Y-94438997D01*
X106223351Y-95451847D01*
X106102271Y-95475932D01*
X105932111Y-95546414D01*
X105778972Y-95648738D01*
X105648738Y-95778972D01*
X105546414Y-95932111D01*
X105475932Y-96102271D01*
X105440000Y-96282911D01*
X104235414Y-96282911D01*
X104150396Y-96266000D01*
X104419907Y-96212391D01*
X104673780Y-96107233D01*
X104902261Y-95954567D01*
X105096567Y-95760261D01*
X105249233Y-95531780D01*
X105354391Y-95277907D01*
X105408000Y-95008396D01*
X105408000Y-94733604D01*
X105354391Y-94464093D01*
X105249233Y-94210220D01*
X105096567Y-93981739D01*
X104902261Y-93787433D01*
X104673780Y-93634767D01*
X104419907Y-93529609D01*
X104150396Y-93476000D01*
X103875604Y-93476000D01*
X103606093Y-93529609D01*
X103352220Y-93634767D01*
X103123739Y-93787433D01*
X102929433Y-93981739D01*
X102776767Y-94210220D01*
X102671609Y-94464093D01*
X102618000Y-94733604D01*
X102618000Y-95008396D01*
X102671609Y-95277907D01*
X102776767Y-95531780D01*
X102929433Y-95760261D01*
X103123739Y-95954567D01*
X103352220Y-96107233D01*
X103606093Y-96212391D01*
X103875604Y-96266000D01*
X103606093Y-96319609D01*
X103352220Y-96424767D01*
X103123739Y-96577433D01*
X102929433Y-96771739D01*
X102776767Y-97000220D01*
X102671609Y-97254093D01*
X102618000Y-97523604D01*
X102618000Y-97798396D01*
X102671609Y-98067907D01*
X102776767Y-98321780D01*
X102929433Y-98550261D01*
X103123739Y-98744567D01*
X103352220Y-98897233D01*
X103590664Y-98996000D01*
X103352220Y-99094767D01*
X103123739Y-99247433D01*
X102929433Y-99441739D01*
X102776767Y-99670220D01*
X102671609Y-99924093D01*
X102618000Y-100193604D01*
X102618000Y-100468396D01*
X102671609Y-100737907D01*
X102776767Y-100991780D01*
X102929433Y-101220261D01*
X103123739Y-101414567D01*
X103352220Y-101567233D01*
X103606093Y-101672391D01*
X103875604Y-101726000D01*
X103606093Y-101779609D01*
X103352220Y-101884767D01*
X103123739Y-102037433D01*
X102929433Y-102231739D01*
X102776767Y-102460220D01*
X102671609Y-102714093D01*
X102618000Y-102983604D01*
X102618000Y-103258396D01*
X102671609Y-103527907D01*
X102776767Y-103781780D01*
X102929433Y-104010261D01*
X103123739Y-104204567D01*
X103352220Y-104357233D01*
X103438395Y-104392928D01*
X103253000Y-104392928D01*
X103128518Y-104405188D01*
X103008820Y-104441498D01*
X102898506Y-104500463D01*
X102801815Y-104579815D01*
X102722463Y-104676506D01*
X102663498Y-104786820D01*
X102627188Y-104906518D01*
X102614928Y-105031000D01*
X102521688Y-105031000D01*
X102564391Y-104927907D01*
X102618000Y-104658396D01*
X102618000Y-104383604D01*
X102564391Y-104114093D01*
X102459233Y-103860220D01*
X102306567Y-103631739D01*
X102112261Y-103437433D01*
X101883780Y-103284767D01*
X101629907Y-103179609D01*
X101360396Y-103126000D01*
X101629907Y-103072391D01*
X101883780Y-102967233D01*
X102112261Y-102814567D01*
X102306567Y-102620261D01*
X102459233Y-102391780D01*
X102564391Y-102137907D01*
X102618000Y-101868396D01*
X102618000Y-101593604D01*
X102564391Y-101324093D01*
X102459233Y-101070220D01*
X102306567Y-100841739D01*
X102112261Y-100647433D01*
X101883780Y-100494767D01*
X101645336Y-100396000D01*
X101883780Y-100297233D01*
X102112261Y-100144567D01*
X102306567Y-99950261D01*
X102459233Y-99721780D01*
X102564391Y-99467907D01*
X102618000Y-99198396D01*
X102618000Y-98923604D01*
X102564391Y-98654093D01*
X102459233Y-98400220D01*
X102306567Y-98171739D01*
X102112261Y-97977433D01*
X101883780Y-97824767D01*
X101629907Y-97719609D01*
X101360396Y-97666000D01*
X101085604Y-97666000D01*
X100933130Y-97696329D01*
X100897999Y-97661198D01*
X100897999Y-97618683D01*
X101085604Y-97656000D01*
X101360396Y-97656000D01*
X101629907Y-97602391D01*
X101883780Y-97497233D01*
X102112261Y-97344567D01*
X102306567Y-97150261D01*
X102459233Y-96921780D01*
X102564391Y-96667907D01*
X102618000Y-96398396D01*
X102618000Y-96123604D01*
X102564391Y-95854093D01*
X102459233Y-95600220D01*
X102306567Y-95371739D01*
X102112261Y-95177433D01*
X101883780Y-95024767D01*
X101629907Y-94919609D01*
X101360396Y-94866000D01*
X101085604Y-94866000D01*
X100897999Y-94903317D01*
X100897999Y-90882911D01*
X114690000Y-90882911D01*
X114690000Y-91067089D01*
X114725932Y-91247729D01*
X114796414Y-91417889D01*
X114898738Y-91571028D01*
X115028972Y-91701262D01*
X115182111Y-91803586D01*
X115352271Y-91874068D01*
X115532911Y-91910000D01*
X115717089Y-91910000D01*
X115897729Y-91874068D01*
X116067889Y-91803586D01*
X116221028Y-91701262D01*
X116351262Y-91571028D01*
X116453586Y-91417889D01*
X116524068Y-91247729D01*
X116560000Y-91067089D01*
X116560000Y-90882911D01*
X116524068Y-90702271D01*
X116453586Y-90532111D01*
X116385000Y-90429465D01*
X116385000Y-88467153D01*
X116521028Y-88376262D01*
X116651262Y-88246028D01*
X116753586Y-88092889D01*
X116824068Y-87922729D01*
X116860000Y-87742089D01*
X116860000Y-87557911D01*
X116824068Y-87377271D01*
X116753586Y-87207111D01*
X116651262Y-87053972D01*
X116521028Y-86923738D01*
X116367889Y-86821414D01*
X116197729Y-86750932D01*
X116017089Y-86715000D01*
X115832911Y-86715000D01*
X115652271Y-86750932D01*
X115482111Y-86821414D01*
X115328972Y-86923738D01*
X115198738Y-87053972D01*
X115096414Y-87207111D01*
X115025932Y-87377271D01*
X114990000Y-87557911D01*
X114990000Y-87725773D01*
X114919454Y-87857754D01*
X114894657Y-87939502D01*
X114876614Y-87998985D01*
X114875998Y-88001015D01*
X114861324Y-88150000D01*
X114865001Y-88187332D01*
X114865000Y-90429464D01*
X114796414Y-90532111D01*
X114725932Y-90702271D01*
X114690000Y-90882911D01*
X100897999Y-90882911D01*
X100897999Y-89758102D01*
X100993844Y-89853947D01*
X101409859Y-90131919D01*
X101872109Y-90323389D01*
X102362832Y-90421000D01*
X102863168Y-90421000D01*
X103353891Y-90323389D01*
X103816141Y-90131919D01*
X104232156Y-89853947D01*
X104585947Y-89500156D01*
X104863919Y-89084141D01*
X105055389Y-88621891D01*
X105153000Y-88131168D01*
X105153000Y-87630832D01*
X105055389Y-87140109D01*
X104863919Y-86677859D01*
X104585947Y-86261844D01*
X104232156Y-85908053D01*
X103816141Y-85630081D01*
X103353891Y-85438611D01*
X102916743Y-85351657D01*
X104254328Y-84014072D01*
X107125533Y-84014072D01*
X107175274Y-84239691D01*
X107400058Y-84342582D01*
X107640596Y-84399642D01*
X107887645Y-84408680D01*
X108131709Y-84369347D01*
X108363410Y-84283156D01*
X108444726Y-84239691D01*
X108494467Y-84014072D01*
X109665533Y-84014072D01*
X109715274Y-84239691D01*
X109940058Y-84342582D01*
X110180596Y-84399642D01*
X110427645Y-84408680D01*
X110671709Y-84369347D01*
X110903410Y-84283156D01*
X110984726Y-84239691D01*
X111034467Y-84014072D01*
X110350000Y-83329605D01*
X109665533Y-84014072D01*
X108494467Y-84014072D01*
X107810000Y-83329605D01*
X107125533Y-84014072D01*
X104254328Y-84014072D01*
X105628400Y-82640000D01*
X106663218Y-82640000D01*
X106617418Y-82740058D01*
X106560358Y-82980596D01*
X106551320Y-83227645D01*
X106590653Y-83471709D01*
X106676844Y-83703410D01*
X106720309Y-83784726D01*
X106945928Y-83834467D01*
X107630395Y-83150000D01*
X107616253Y-83135858D01*
X107795858Y-82956253D01*
X107810000Y-82970395D01*
X107824143Y-82956253D01*
X108003748Y-83135858D01*
X107989605Y-83150000D01*
X108674072Y-83834467D01*
X108899691Y-83784726D01*
X109002582Y-83559942D01*
X109059642Y-83319404D01*
X109066388Y-83135000D01*
X109094709Y-83135000D01*
X109091320Y-83227645D01*
X109130653Y-83471709D01*
X109216844Y-83703410D01*
X109260309Y-83784726D01*
X109485928Y-83834467D01*
X110170395Y-83150000D01*
X110529605Y-83150000D01*
X111214072Y-83834467D01*
X111439691Y-83784726D01*
X111542582Y-83559942D01*
X111599642Y-83319404D01*
X111608680Y-83072355D01*
X111569347Y-82828291D01*
X111543167Y-82757911D01*
X143615000Y-82757911D01*
X143615000Y-82942089D01*
X143650932Y-83122729D01*
X143721414Y-83292889D01*
X143823738Y-83446028D01*
X143953972Y-83576262D01*
X144107111Y-83678586D01*
X144277271Y-83749068D01*
X144457911Y-83785000D01*
X144623536Y-83785000D01*
X144650932Y-83922729D01*
X144721414Y-84092889D01*
X144823738Y-84246028D01*
X144953972Y-84376262D01*
X145089999Y-84467152D01*
X145090000Y-86562667D01*
X145086323Y-86599999D01*
X145090000Y-86637332D01*
X145100997Y-86748985D01*
X145114179Y-86792441D01*
X145144453Y-86892245D01*
X145215025Y-87024275D01*
X145265948Y-87086324D01*
X145309999Y-87140000D01*
X145338997Y-87163798D01*
X147486201Y-89311003D01*
X147509999Y-89340001D01*
X147625724Y-89434974D01*
X147757753Y-89505546D01*
X147901014Y-89549003D01*
X147918451Y-89550720D01*
X148022498Y-89677502D01*
X148210551Y-89831833D01*
X148425099Y-89946511D01*
X148657898Y-90017130D01*
X148839335Y-90035000D01*
X149460665Y-90035000D01*
X149642102Y-90017130D01*
X149874901Y-89946511D01*
X150089449Y-89831833D01*
X150277502Y-89677502D01*
X150312382Y-89635000D01*
X155131634Y-89635000D01*
X155310551Y-89781833D01*
X155364588Y-89810716D01*
X155360719Y-89850000D01*
X155365000Y-89893469D01*
X155365000Y-89893476D01*
X155372254Y-89967130D01*
X155377805Y-90023490D01*
X155386130Y-90050932D01*
X155428411Y-90190312D01*
X155510589Y-90344058D01*
X155621183Y-90478817D01*
X155654956Y-90506534D01*
X156693470Y-91545049D01*
X156721183Y-91578817D01*
X156754951Y-91606530D01*
X156754953Y-91606532D01*
X156814677Y-91655546D01*
X156855941Y-91689411D01*
X157009687Y-91771589D01*
X157125903Y-91806843D01*
X157176509Y-91822195D01*
X157191306Y-91823652D01*
X157306523Y-91835000D01*
X157306531Y-91835000D01*
X157350000Y-91839281D01*
X157393469Y-91835000D01*
X167690001Y-91835000D01*
X167690000Y-97804464D01*
X167621414Y-97907111D01*
X167550932Y-98077271D01*
X167515000Y-98257911D01*
X167515000Y-98442089D01*
X167550932Y-98622729D01*
X167621414Y-98792889D01*
X167723738Y-98946028D01*
X167853972Y-99076262D01*
X168007111Y-99178586D01*
X168177271Y-99249068D01*
X168357911Y-99285000D01*
X168542089Y-99285000D01*
X168722729Y-99249068D01*
X168892889Y-99178586D01*
X169046028Y-99076262D01*
X169176262Y-98946028D01*
X169278586Y-98792889D01*
X169349068Y-98622729D01*
X169385000Y-98442089D01*
X169385000Y-98257911D01*
X169349068Y-98077271D01*
X169278586Y-97907111D01*
X169210000Y-97804465D01*
X169210000Y-92064801D01*
X169401649Y-91873153D01*
X169522729Y-91849068D01*
X169692889Y-91778586D01*
X169846028Y-91676262D01*
X169976262Y-91546028D01*
X170078586Y-91392889D01*
X170149068Y-91222729D01*
X170185000Y-91042089D01*
X170185000Y-90857911D01*
X170149068Y-90677271D01*
X170078586Y-90507111D01*
X169976262Y-90353972D01*
X169846028Y-90223738D01*
X169692889Y-90121414D01*
X169522729Y-90050932D01*
X169401649Y-90026847D01*
X169210000Y-89835199D01*
X169210000Y-87295535D01*
X169278586Y-87192889D01*
X169349068Y-87022729D01*
X169385000Y-86842089D01*
X169385000Y-86657911D01*
X169349068Y-86477271D01*
X169278586Y-86307111D01*
X169176262Y-86153972D01*
X169046028Y-86023738D01*
X168892889Y-85921414D01*
X168722729Y-85850932D01*
X168542089Y-85815000D01*
X168357911Y-85815000D01*
X168177271Y-85850932D01*
X168007111Y-85921414D01*
X167853972Y-86023738D01*
X167723738Y-86153972D01*
X167621414Y-86307111D01*
X167550932Y-86477271D01*
X167515000Y-86657911D01*
X167515000Y-86842089D01*
X167550932Y-87022729D01*
X167621414Y-87192889D01*
X167690000Y-87295536D01*
X167690001Y-90065000D01*
X157716579Y-90065000D01*
X157323444Y-89671866D01*
X157377502Y-89627502D01*
X157531833Y-89439449D01*
X157646511Y-89224901D01*
X157717130Y-88992102D01*
X157740975Y-88750000D01*
X157717130Y-88507898D01*
X157646511Y-88275099D01*
X157531833Y-88060551D01*
X157405564Y-87906691D01*
X157454494Y-87880537D01*
X157551185Y-87801185D01*
X157630537Y-87704494D01*
X157689502Y-87594180D01*
X157725812Y-87474482D01*
X157738072Y-87350000D01*
X157738072Y-86150000D01*
X157725812Y-86025518D01*
X157689502Y-85905820D01*
X157630537Y-85795506D01*
X157551185Y-85698815D01*
X157454494Y-85619463D01*
X157344180Y-85560498D01*
X157224482Y-85524188D01*
X157100000Y-85511928D01*
X155400000Y-85511928D01*
X155275518Y-85524188D01*
X155155820Y-85560498D01*
X155045506Y-85619463D01*
X154948815Y-85698815D01*
X154869463Y-85795506D01*
X154810498Y-85905820D01*
X154774188Y-86025518D01*
X154761928Y-86150000D01*
X154761928Y-87350000D01*
X154774188Y-87474482D01*
X154810498Y-87594180D01*
X154869463Y-87704494D01*
X154948815Y-87801185D01*
X155026574Y-87865000D01*
X150434351Y-87865000D01*
X150451185Y-87851185D01*
X150530537Y-87754494D01*
X150589502Y-87644180D01*
X150625812Y-87524482D01*
X150638072Y-87400000D01*
X150638072Y-86200000D01*
X150625812Y-86075518D01*
X150589502Y-85955820D01*
X150530537Y-85845506D01*
X150451185Y-85748815D01*
X150354494Y-85669463D01*
X150244180Y-85610498D01*
X150124482Y-85574188D01*
X150000000Y-85561928D01*
X148300000Y-85561928D01*
X148175518Y-85574188D01*
X148055820Y-85610498D01*
X147945506Y-85669463D01*
X147848815Y-85748815D01*
X147769463Y-85845506D01*
X147710498Y-85955820D01*
X147674188Y-86075518D01*
X147661928Y-86200000D01*
X147661928Y-87337126D01*
X146609999Y-86285198D01*
X146609999Y-83987324D01*
X146613675Y-83949999D01*
X146609999Y-83912674D01*
X146609999Y-83912666D01*
X146599002Y-83801013D01*
X146555545Y-83657752D01*
X146484973Y-83525723D01*
X146476558Y-83515469D01*
X146449068Y-83377271D01*
X146378586Y-83207111D01*
X146276262Y-83053972D01*
X146146028Y-82923738D01*
X145992889Y-82821414D01*
X145822729Y-82750932D01*
X145642089Y-82715000D01*
X145476464Y-82715000D01*
X145449068Y-82577271D01*
X145378586Y-82407111D01*
X145310000Y-82304465D01*
X145310000Y-79564801D01*
X145901649Y-78973153D01*
X146022729Y-78949068D01*
X146192889Y-78878586D01*
X146346028Y-78776262D01*
X146476262Y-78646028D01*
X146578586Y-78492889D01*
X146649068Y-78322729D01*
X146685000Y-78142089D01*
X146685000Y-77957911D01*
X146649068Y-77777271D01*
X146578586Y-77607111D01*
X146476262Y-77453972D01*
X146346028Y-77323738D01*
X146192889Y-77221414D01*
X146022729Y-77150932D01*
X145842089Y-77115000D01*
X145657911Y-77115000D01*
X145477271Y-77150932D01*
X145307111Y-77221414D01*
X145153972Y-77323738D01*
X145023738Y-77453972D01*
X144921414Y-77607111D01*
X144850932Y-77777271D01*
X144826847Y-77898351D01*
X144038998Y-78686201D01*
X144010000Y-78709999D01*
X143986202Y-78738997D01*
X143986201Y-78738998D01*
X143915026Y-78825724D01*
X143844454Y-78957754D01*
X143800998Y-79101015D01*
X143786324Y-79250000D01*
X143790001Y-79287332D01*
X143790000Y-82304464D01*
X143721414Y-82407111D01*
X143650932Y-82577271D01*
X143615000Y-82757911D01*
X111543167Y-82757911D01*
X111483156Y-82596590D01*
X111439691Y-82515274D01*
X111214072Y-82465533D01*
X110529605Y-83150000D01*
X110170395Y-83150000D01*
X110156253Y-83135858D01*
X110335858Y-82956253D01*
X110350000Y-82970395D01*
X111034467Y-82285928D01*
X110984726Y-82060309D01*
X110759942Y-81957418D01*
X110519404Y-81900358D01*
X110335000Y-81893612D01*
X110335000Y-81865291D01*
X110427645Y-81868680D01*
X110671709Y-81829347D01*
X110903410Y-81743156D01*
X110984726Y-81699691D01*
X111034467Y-81474072D01*
X110350000Y-80789605D01*
X110335858Y-80803748D01*
X110156253Y-80624143D01*
X110170395Y-80610000D01*
X110529605Y-80610000D01*
X111214072Y-81294467D01*
X111439691Y-81244726D01*
X111542582Y-81019942D01*
X111599642Y-80779404D01*
X111608680Y-80532355D01*
X111569347Y-80288291D01*
X111483156Y-80056590D01*
X111439691Y-79975274D01*
X111214072Y-79925533D01*
X110529605Y-80610000D01*
X110170395Y-80610000D01*
X109485928Y-79925533D01*
X109260309Y-79975274D01*
X109157418Y-80200058D01*
X109100358Y-80440596D01*
X109093612Y-80625000D01*
X109065291Y-80625000D01*
X109068680Y-80532355D01*
X109029347Y-80288291D01*
X108943156Y-80056590D01*
X108899691Y-79975274D01*
X108674072Y-79925533D01*
X107989605Y-80610000D01*
X108003748Y-80624143D01*
X107824143Y-80803748D01*
X107810000Y-80789605D01*
X107795858Y-80803748D01*
X107616253Y-80624143D01*
X107630395Y-80610000D01*
X106945928Y-79925533D01*
X106720309Y-79975274D01*
X106617418Y-80200058D01*
X106560358Y-80440596D01*
X106551320Y-80687645D01*
X106590653Y-80931709D01*
X106660696Y-81120000D01*
X105350920Y-81120000D01*
X105313597Y-81116324D01*
X105276274Y-81120000D01*
X105276265Y-81120000D01*
X105164612Y-81130997D01*
X105021351Y-81174454D01*
X104889322Y-81245026D01*
X104773597Y-81339999D01*
X104749799Y-81368997D01*
X99626997Y-86491800D01*
X99597999Y-86515598D01*
X99574201Y-86544596D01*
X99574200Y-86544597D01*
X99503025Y-86631323D01*
X99432453Y-86763353D01*
X99414841Y-86821414D01*
X99393356Y-86892245D01*
X99388997Y-86906614D01*
X99374323Y-87055599D01*
X93710000Y-87055599D01*
X93710000Y-81518970D01*
X93788136Y-81635909D01*
X94364091Y-82211864D01*
X95041343Y-82664389D01*
X95793865Y-82976094D01*
X96592738Y-83135000D01*
X97407262Y-83135000D01*
X98206135Y-82976094D01*
X98958657Y-82664389D01*
X99635909Y-82211864D01*
X100211864Y-81635909D01*
X100664389Y-80958657D01*
X100976094Y-80206135D01*
X101067635Y-79745928D01*
X107125533Y-79745928D01*
X107810000Y-80430395D01*
X108494467Y-79745928D01*
X109665533Y-79745928D01*
X110350000Y-80430395D01*
X111034467Y-79745928D01*
X110984726Y-79520309D01*
X110759942Y-79417418D01*
X110519404Y-79360358D01*
X110272355Y-79351320D01*
X110028291Y-79390653D01*
X109796590Y-79476844D01*
X109715274Y-79520309D01*
X109665533Y-79745928D01*
X108494467Y-79745928D01*
X108444726Y-79520309D01*
X108219942Y-79417418D01*
X107979404Y-79360358D01*
X107732355Y-79351320D01*
X107488291Y-79390653D01*
X107256590Y-79476844D01*
X107175274Y-79520309D01*
X107125533Y-79745928D01*
X101067635Y-79745928D01*
X101135000Y-79407262D01*
X101135000Y-78592738D01*
X100976094Y-77793865D01*
X100664389Y-77041343D01*
X100211864Y-76364091D01*
X99635909Y-75788136D01*
X99518970Y-75710000D01*
X168481030Y-75710000D01*
X168364091Y-75788136D01*
G37*
X168364091Y-75788136D02*
X167788136Y-76364091D01*
X167335611Y-77041343D01*
X167023906Y-77793865D01*
X166865000Y-78592738D01*
X166865000Y-79407262D01*
X167023906Y-80206135D01*
X167335611Y-80958657D01*
X167788136Y-81635909D01*
X168364091Y-82211864D01*
X169041343Y-82664389D01*
X169793865Y-82976094D01*
X170592738Y-83135000D01*
X171407262Y-83135000D01*
X172206135Y-82976094D01*
X172958657Y-82664389D01*
X173635909Y-82211864D01*
X174211864Y-81635909D01*
X174290001Y-81518969D01*
X174290000Y-118481030D01*
X174211864Y-118364091D01*
X173635909Y-117788136D01*
X172958657Y-117335611D01*
X172206135Y-117023906D01*
X171407262Y-116865000D01*
X170592738Y-116865000D01*
X169793865Y-117023906D01*
X169041343Y-117335611D01*
X168364091Y-117788136D01*
X167788136Y-118364091D01*
X167335611Y-119041343D01*
X167023906Y-119793865D01*
X166865000Y-120592738D01*
X166865000Y-121407262D01*
X167023906Y-122206135D01*
X167335611Y-122958657D01*
X167788136Y-123635909D01*
X168364091Y-124211864D01*
X168481030Y-124290000D01*
X99518970Y-124290000D01*
X99635909Y-124211864D01*
X100211864Y-123635909D01*
X100664389Y-122958657D01*
X100976094Y-122206135D01*
X101040156Y-121884072D01*
X136995533Y-121884072D01*
X137045274Y-122109691D01*
X137270058Y-122212582D01*
X137510596Y-122269642D01*
X137757645Y-122278680D01*
X138001709Y-122239347D01*
X138233410Y-122153156D01*
X138314726Y-122109691D01*
X138364467Y-121884072D01*
X139535533Y-121884072D01*
X139585274Y-122109691D01*
X139810058Y-122212582D01*
X140050596Y-122269642D01*
X140297645Y-122278680D01*
X140541709Y-122239347D01*
X140773410Y-122153156D01*
X140854726Y-122109691D01*
X140904467Y-121884072D01*
X140220000Y-121199605D01*
X139535533Y-121884072D01*
X138364467Y-121884072D01*
X137680000Y-121199605D01*
X136995533Y-121884072D01*
X101040156Y-121884072D01*
X101135000Y-121407262D01*
X101135000Y-121097645D01*
X136421320Y-121097645D01*
X136460653Y-121341709D01*
X136546844Y-121573410D01*
X136590309Y-121654726D01*
X136815928Y-121704467D01*
X137500395Y-121020000D01*
X136815928Y-120335533D01*
X136590309Y-120385274D01*
X136487418Y-120610058D01*
X136430358Y-120850596D01*
X136421320Y-121097645D01*
X101135000Y-121097645D01*
X101135000Y-120592738D01*
X100976094Y-119793865D01*
X100789784Y-119344072D01*
X136995533Y-119344072D01*
X137045274Y-119569691D01*
X137270058Y-119672582D01*
X137510596Y-119729642D01*
X137695000Y-119736388D01*
X137695000Y-119764709D01*
X137602355Y-119761320D01*
X137358291Y-119800653D01*
X137126590Y-119886844D01*
X137045274Y-119930309D01*
X136995533Y-120155928D01*
X137680000Y-120840395D01*
X137694143Y-120826253D01*
X137873748Y-121005858D01*
X137859605Y-121020000D01*
X138544072Y-121704467D01*
X138769691Y-121654726D01*
X138872582Y-121429942D01*
X138929642Y-121189404D01*
X138936388Y-121005000D01*
X138964709Y-121005000D01*
X138961320Y-121097645D01*
X139000653Y-121341709D01*
X139086844Y-121573410D01*
X139130309Y-121654726D01*
X139355928Y-121704467D01*
X140040395Y-121020000D01*
X140399605Y-121020000D01*
X141084072Y-121704467D01*
X141309691Y-121654726D01*
X141412582Y-121429942D01*
X141469642Y-121189404D01*
X141478680Y-120942355D01*
X141439347Y-120698291D01*
X141353156Y-120466590D01*
X141309691Y-120385274D01*
X141084072Y-120335533D01*
X140399605Y-121020000D01*
X140040395Y-121020000D01*
X140026253Y-121005858D01*
X140205858Y-120826253D01*
X140220000Y-120840395D01*
X140904467Y-120155928D01*
X140854726Y-119930309D01*
X140629942Y-119827418D01*
X140389404Y-119770358D01*
X140205000Y-119763612D01*
X140205000Y-119735291D01*
X140297645Y-119738680D01*
X140541709Y-119699347D01*
X140773410Y-119613156D01*
X140854726Y-119569691D01*
X140904467Y-119344072D01*
X140220000Y-118659605D01*
X140205858Y-118673748D01*
X140026253Y-118494143D01*
X140040395Y-118480000D01*
X140399605Y-118480000D01*
X141084072Y-119164467D01*
X141309691Y-119114726D01*
X141412582Y-118889942D01*
X141469642Y-118649404D01*
X141478680Y-118402355D01*
X141439347Y-118158291D01*
X141353156Y-117926590D01*
X141309691Y-117845274D01*
X141084072Y-117795533D01*
X140399605Y-118480000D01*
X140040395Y-118480000D01*
X139355928Y-117795533D01*
X139130309Y-117845274D01*
X139027418Y-118070058D01*
X138970358Y-118310596D01*
X138963612Y-118495000D01*
X138935291Y-118495000D01*
X138938680Y-118402355D01*
X138899347Y-118158291D01*
X138813156Y-117926590D01*
X138769691Y-117845274D01*
X138544072Y-117795533D01*
X137859605Y-118480000D01*
X137873748Y-118494143D01*
X137694143Y-118673748D01*
X137680000Y-118659605D01*
X136995533Y-119344072D01*
X100789784Y-119344072D01*
X100664389Y-119041343D01*
X100358851Y-118584072D01*
X107495533Y-118584072D01*
X107545274Y-118809691D01*
X107770058Y-118912582D01*
X108010596Y-118969642D01*
X108257645Y-118978680D01*
X108501709Y-118939347D01*
X108733410Y-118853156D01*
X108814726Y-118809691D01*
X108864467Y-118584072D01*
X110035533Y-118584072D01*
X110085274Y-118809691D01*
X110310058Y-118912582D01*
X110550596Y-118969642D01*
X110797645Y-118978680D01*
X111041709Y-118939347D01*
X111273410Y-118853156D01*
X111354726Y-118809691D01*
X111404467Y-118584072D01*
X111378040Y-118557645D01*
X136421320Y-118557645D01*
X136460653Y-118801709D01*
X136546844Y-119033410D01*
X136590309Y-119114726D01*
X136815928Y-119164467D01*
X137500395Y-118480000D01*
X136815928Y-117795533D01*
X136590309Y-117845274D01*
X136487418Y-118070058D01*
X136430358Y-118310596D01*
X136421320Y-118557645D01*
X111378040Y-118557645D01*
X110720000Y-117899605D01*
X110035533Y-118584072D01*
X108864467Y-118584072D01*
X108180000Y-117899605D01*
X107495533Y-118584072D01*
X100358851Y-118584072D01*
X100211864Y-118364091D01*
X99645418Y-117797645D01*
X106921320Y-117797645D01*
X106960653Y-118041709D01*
X107046844Y-118273410D01*
X107090309Y-118354726D01*
X107315928Y-118404467D01*
X108000395Y-117720000D01*
X107315928Y-117035533D01*
X107090309Y-117085274D01*
X106987418Y-117310058D01*
X106930358Y-117550596D01*
X106921320Y-117797645D01*
X99645418Y-117797645D01*
X99635909Y-117788136D01*
X98958657Y-117335611D01*
X98206135Y-117023906D01*
X97407262Y-116865000D01*
X96592738Y-116865000D01*
X95793865Y-117023906D01*
X95041343Y-117335611D01*
X94364091Y-117788136D01*
X93788136Y-118364091D01*
X93710000Y-118481030D01*
X93710000Y-112650832D01*
X100073000Y-112650832D01*
X100073000Y-113151168D01*
X100170611Y-113641891D01*
X100362081Y-114104141D01*
X100640053Y-114520156D01*
X100993844Y-114873947D01*
X101409859Y-115151919D01*
X101872109Y-115343389D01*
X102362832Y-115441000D01*
X102863168Y-115441000D01*
X103353891Y-115343389D01*
X103560895Y-115257645D01*
X106921320Y-115257645D01*
X106960653Y-115501709D01*
X107046844Y-115733410D01*
X107090309Y-115814726D01*
X107315928Y-115864467D01*
X108000395Y-115180000D01*
X107315928Y-114495533D01*
X107090309Y-114545274D01*
X106987418Y-114770058D01*
X106930358Y-115010596D01*
X106921320Y-115257645D01*
X103560895Y-115257645D01*
X103816141Y-115151919D01*
X104232156Y-114873947D01*
X104585947Y-114520156D01*
X104863919Y-114104141D01*
X105055389Y-113641891D01*
X105153000Y-113151168D01*
X105153000Y-112650832D01*
X105055389Y-112160109D01*
X104863919Y-111697859D01*
X104585947Y-111281844D01*
X104232156Y-110928053D01*
X103816141Y-110650081D01*
X103353891Y-110458611D01*
X102863168Y-110361000D01*
X102362832Y-110361000D01*
X101872109Y-110458611D01*
X101409859Y-110650081D01*
X100993844Y-110928053D01*
X100640053Y-111281844D01*
X100362081Y-111697859D01*
X100170611Y-112160109D01*
X100073000Y-112650832D01*
X93710000Y-112650832D01*
X93710000Y-87055599D01*
X99374323Y-87055599D01*
X99378000Y-87092931D01*
X99377999Y-97938677D01*
X99374323Y-97975999D01*
X99377999Y-98013321D01*
X99377999Y-98013331D01*
X99388996Y-98124984D01*
X99413909Y-98207111D01*
X99432453Y-98268245D01*
X99503025Y-98400275D01*
X99529930Y-98433058D01*
X99597998Y-98516000D01*
X99627001Y-98539803D01*
X99858329Y-98771130D01*
X99828000Y-98923604D01*
X99828000Y-99198396D01*
X99881609Y-99467907D01*
X99986767Y-99721780D01*
X100139433Y-99950261D01*
X100333739Y-100144567D01*
X100562220Y-100297233D01*
X100800664Y-100396000D01*
X100562220Y-100494767D01*
X100333739Y-100647433D01*
X100139433Y-100841739D01*
X99986767Y-101070220D01*
X99881609Y-101324093D01*
X99828000Y-101593604D01*
X99828000Y-101868396D01*
X99881609Y-102137907D01*
X99986767Y-102391780D01*
X100139433Y-102620261D01*
X100333739Y-102814567D01*
X100562220Y-102967233D01*
X100816093Y-103072391D01*
X101085604Y-103126000D01*
X100816093Y-103179609D01*
X100562220Y-103284767D01*
X100333739Y-103437433D01*
X100139433Y-103631739D01*
X99986767Y-103860220D01*
X99881609Y-104114093D01*
X99828000Y-104383604D01*
X99828000Y-104658396D01*
X99881609Y-104927907D01*
X99986767Y-105181780D01*
X100139433Y-105410261D01*
X100333739Y-105604567D01*
X100463001Y-105690937D01*
X100463000Y-106787075D01*
X100459324Y-106824398D01*
X100463000Y-106861720D01*
X100463000Y-106861730D01*
X100473997Y-106973383D01*
X100505068Y-107075812D01*
X100517454Y-107116644D01*
X100588026Y-107248674D01*
X100627871Y-107297224D01*
X100682999Y-107364399D01*
X100712003Y-107388202D01*
X107521580Y-114197780D01*
X107495533Y-114315928D01*
X108180000Y-115000395D01*
X108194143Y-114986253D01*
X108373748Y-115165858D01*
X108359605Y-115180000D01*
X108373748Y-115194143D01*
X108194143Y-115373748D01*
X108180000Y-115359605D01*
X107495533Y-116044072D01*
X107545274Y-116269691D01*
X107770058Y-116372582D01*
X108010596Y-116429642D01*
X108195000Y-116436388D01*
X108195000Y-116464709D01*
X108102355Y-116461320D01*
X107858291Y-116500653D01*
X107626590Y-116586844D01*
X107545274Y-116630309D01*
X107495533Y-116855928D01*
X108180000Y-117540395D01*
X108194143Y-117526253D01*
X108373748Y-117705858D01*
X108359605Y-117720000D01*
X109044072Y-118404467D01*
X109269691Y-118354726D01*
X109372582Y-118129942D01*
X109429642Y-117889404D01*
X109436388Y-117705000D01*
X109464709Y-117705000D01*
X109461320Y-117797645D01*
X109500653Y-118041709D01*
X109586844Y-118273410D01*
X109630309Y-118354726D01*
X109855928Y-118404467D01*
X110540395Y-117720000D01*
X110899605Y-117720000D01*
X111584072Y-118404467D01*
X111809691Y-118354726D01*
X111912582Y-118129942D01*
X111969642Y-117889404D01*
X111978680Y-117642355D01*
X111974422Y-117615928D01*
X136995533Y-117615928D01*
X137680000Y-118300395D01*
X138364467Y-117615928D01*
X139535533Y-117615928D01*
X140220000Y-118300395D01*
X140904467Y-117615928D01*
X140854726Y-117390309D01*
X140629942Y-117287418D01*
X140389404Y-117230358D01*
X140142355Y-117221320D01*
X139898291Y-117260653D01*
X139666590Y-117346844D01*
X139585274Y-117390309D01*
X139535533Y-117615928D01*
X138364467Y-117615928D01*
X138314726Y-117390309D01*
X138089942Y-117287418D01*
X137849404Y-117230358D01*
X137602355Y-117221320D01*
X137358291Y-117260653D01*
X137126590Y-117346844D01*
X137045274Y-117390309D01*
X136995533Y-117615928D01*
X111974422Y-117615928D01*
X111939347Y-117398291D01*
X111853156Y-117166590D01*
X111809691Y-117085274D01*
X111584072Y-117035533D01*
X110899605Y-117720000D01*
X110540395Y-117720000D01*
X110526253Y-117705858D01*
X110705858Y-117526253D01*
X110720000Y-117540395D01*
X111404467Y-116855928D01*
X111354726Y-116630309D01*
X111129942Y-116527418D01*
X110889404Y-116470358D01*
X110705000Y-116463612D01*
X110705000Y-116435291D01*
X110797645Y-116438680D01*
X111041709Y-116399347D01*
X111273410Y-116313156D01*
X111354726Y-116269691D01*
X111404467Y-116044072D01*
X110720000Y-115359605D01*
X110705858Y-115373748D01*
X110526253Y-115194143D01*
X110540395Y-115180000D01*
X110899605Y-115180000D01*
X111584072Y-115864467D01*
X111809691Y-115814726D01*
X111912582Y-115589942D01*
X111969642Y-115349404D01*
X111978680Y-115102355D01*
X111939347Y-114858291D01*
X111853156Y-114626590D01*
X111809691Y-114545274D01*
X111584072Y-114495533D01*
X110899605Y-115180000D01*
X110540395Y-115180000D01*
X110171221Y-114810826D01*
X110155546Y-114759151D01*
X110151153Y-114750932D01*
X110084974Y-114627121D01*
X110013799Y-114540395D01*
X109990001Y-114511397D01*
X109961003Y-114487599D01*
X109789332Y-114315928D01*
X110035533Y-114315928D01*
X110720000Y-115000395D01*
X111404467Y-114315928D01*
X111354726Y-114090309D01*
X111129942Y-113987418D01*
X110889404Y-113930358D01*
X110642355Y-113921320D01*
X110398291Y-113960653D01*
X110166590Y-114046844D01*
X110085274Y-114090309D01*
X110035533Y-114315928D01*
X109789332Y-114315928D01*
X101983000Y-106509597D01*
X101983000Y-105690936D01*
X102112261Y-105604567D01*
X102306567Y-105410261D01*
X102459233Y-105181780D01*
X102521688Y-105031000D01*
X102614928Y-105031000D01*
X102614928Y-106551000D01*
X102627188Y-106675482D01*
X102663498Y-106795180D01*
X102722463Y-106905494D01*
X102801815Y-107002185D01*
X102898506Y-107081537D01*
X103008820Y-107140502D01*
X103128518Y-107176812D01*
X103253000Y-107189072D01*
X104773000Y-107189072D01*
X104897482Y-107176812D01*
X105017180Y-107140502D01*
X105127494Y-107081537D01*
X105224185Y-107002185D01*
X105303537Y-106905494D01*
X105362502Y-106795180D01*
X105398812Y-106675482D01*
X105411072Y-106551000D01*
X105411072Y-105031000D01*
X105398812Y-104906518D01*
X105362502Y-104786820D01*
X105303537Y-104676506D01*
X105224185Y-104579815D01*
X105127494Y-104500463D01*
X105047887Y-104457911D01*
X106075000Y-104457911D01*
X106075000Y-104642089D01*
X106110932Y-104822729D01*
X106181414Y-104992889D01*
X106283738Y-105146028D01*
X106413972Y-105276262D01*
X106567111Y-105378586D01*
X106737271Y-105449068D01*
X106783453Y-105458254D01*
X107336201Y-106011003D01*
X107359999Y-106040001D01*
X107388997Y-106063799D01*
X107475723Y-106134974D01*
X107554855Y-106177271D01*
X107607753Y-106205546D01*
X107751014Y-106249003D01*
X107862667Y-106260000D01*
X107862676Y-106260000D01*
X107899999Y-106263676D01*
X107937322Y-106260000D01*
X113137678Y-106260000D01*
X113175000Y-106263676D01*
X113212322Y-106260000D01*
X113212333Y-106260000D01*
X113323986Y-106249003D01*
X113467247Y-106205546D01*
X113599276Y-106134974D01*
X113715001Y-106040001D01*
X113738804Y-106010997D01*
X115314802Y-104435000D01*
X116393719Y-104435000D01*
X116393719Y-105167344D01*
X116301262Y-105028972D01*
X116171028Y-104898738D01*
X116017889Y-104796414D01*
X115847729Y-104725932D01*
X115667089Y-104690000D01*
X115482911Y-104690000D01*
X115302271Y-104725932D01*
X115132111Y-104796414D01*
X114978972Y-104898738D01*
X114848738Y-105028972D01*
X114746414Y-105182111D01*
X114675932Y-105352271D01*
X114640000Y-105532911D01*
X114640000Y-105717089D01*
X114675932Y-105897729D01*
X114715001Y-105992050D01*
X114715000Y-108729464D01*
X114646414Y-108832111D01*
X114575932Y-109002271D01*
X114540000Y-109182911D01*
X114540000Y-109367089D01*
X114575932Y-109547729D01*
X114646414Y-109717889D01*
X114748738Y-109871028D01*
X114878972Y-110001262D01*
X115032111Y-110103586D01*
X115202271Y-110174068D01*
X115382911Y-110210000D01*
X115567089Y-110210000D01*
X115747729Y-110174068D01*
X115917889Y-110103586D01*
X116071028Y-110001262D01*
X116201262Y-109871028D01*
X116303586Y-109717889D01*
X116374068Y-109547729D01*
X116393718Y-109448941D01*
X116393718Y-112402405D01*
X116325132Y-112505052D01*
X116254650Y-112675212D01*
X116218718Y-112855852D01*
X116218718Y-113040030D01*
X116254650Y-113220670D01*
X116325132Y-113390830D01*
X116427456Y-113543969D01*
X116557690Y-113674203D01*
X116710829Y-113776527D01*
X116880989Y-113847009D01*
X117061629Y-113882941D01*
X117245807Y-113882941D01*
X117426447Y-113847009D01*
X117470166Y-113828900D01*
X117507111Y-113853586D01*
X117677271Y-113924068D01*
X117857911Y-113960000D01*
X117971250Y-113960000D01*
X117978412Y-113983610D01*
X118060590Y-114137356D01*
X118143468Y-114238343D01*
X118143471Y-114238346D01*
X118171184Y-114272114D01*
X118204951Y-114299826D01*
X120817697Y-116912573D01*
X120845410Y-116946341D01*
X120879178Y-116974054D01*
X120879180Y-116974056D01*
X120898609Y-116990001D01*
X120980168Y-117056935D01*
X121133914Y-117139113D01*
X121300737Y-117189719D01*
X121430750Y-117202524D01*
X121430760Y-117202524D01*
X121474226Y-117206805D01*
X121517692Y-117202524D01*
X123244645Y-117202524D01*
X123407911Y-117235000D01*
X123592089Y-117235000D01*
X123772729Y-117199068D01*
X123942889Y-117128586D01*
X124096028Y-117026262D01*
X124226262Y-116896028D01*
X124328586Y-116742889D01*
X124399068Y-116572729D01*
X124435000Y-116392089D01*
X124435000Y-116207911D01*
X124399068Y-116027271D01*
X124328586Y-115857111D01*
X124226262Y-115703972D01*
X124096028Y-115573738D01*
X124072342Y-115557911D01*
X139815000Y-115557911D01*
X139815000Y-115742089D01*
X139850932Y-115922729D01*
X139921414Y-116092889D01*
X140023738Y-116246028D01*
X140153972Y-116376262D01*
X140307111Y-116478586D01*
X140477271Y-116549068D01*
X140657911Y-116585000D01*
X140842089Y-116585000D01*
X141022729Y-116549068D01*
X141192889Y-116478586D01*
X141346028Y-116376262D01*
X141476262Y-116246028D01*
X141578586Y-116092889D01*
X141649068Y-115922729D01*
X141685000Y-115742089D01*
X141685000Y-115557911D01*
X141649068Y-115377271D01*
X141578586Y-115207111D01*
X141476262Y-115053972D01*
X141346028Y-114923738D01*
X141192889Y-114821414D01*
X141022729Y-114750932D01*
X140842089Y-114715000D01*
X140657911Y-114715000D01*
X140477271Y-114750932D01*
X140307111Y-114821414D01*
X140153972Y-114923738D01*
X140023738Y-115053972D01*
X139921414Y-115207111D01*
X139850932Y-115377271D01*
X139815000Y-115557911D01*
X124072342Y-115557911D01*
X123942889Y-115471414D01*
X123772729Y-115400932D01*
X123592089Y-115365000D01*
X123407911Y-115365000D01*
X123227271Y-115400932D01*
X123151001Y-115432524D01*
X121840806Y-115432524D01*
X119778282Y-113370000D01*
X168208541Y-113370000D01*
X168234317Y-113631706D01*
X168310653Y-113883354D01*
X168434618Y-114115275D01*
X168601445Y-114318555D01*
X168804725Y-114485382D01*
X169036646Y-114609347D01*
X169288294Y-114685683D01*
X169484421Y-114705000D01*
X170015579Y-114705000D01*
X170211706Y-114685683D01*
X170463354Y-114609347D01*
X170695275Y-114485382D01*
X170898555Y-114318555D01*
X171065382Y-114115275D01*
X171189347Y-113883354D01*
X171265683Y-113631706D01*
X171291459Y-113370000D01*
X171265683Y-113108294D01*
X171189347Y-112856646D01*
X171065382Y-112624725D01*
X170898555Y-112421445D01*
X170695275Y-112254618D01*
X170463354Y-112130653D01*
X170367358Y-112101533D01*
X170587104Y-112009372D01*
X170804946Y-111862418D01*
X170989933Y-111675789D01*
X171134956Y-111456657D01*
X171234442Y-111213443D01*
X171242716Y-111163329D01*
X171119374Y-110957000D01*
X169877000Y-110957000D01*
X169877000Y-110977000D01*
X169623000Y-110977000D01*
X169623000Y-110957000D01*
X168380626Y-110957000D01*
X168257284Y-111163329D01*
X168265558Y-111213443D01*
X168365044Y-111456657D01*
X168510067Y-111675789D01*
X168695054Y-111862418D01*
X168912896Y-112009372D01*
X169132642Y-112101533D01*
X169036646Y-112130653D01*
X168804725Y-112254618D01*
X168601445Y-112421445D01*
X168434618Y-112624725D01*
X168310653Y-112856646D01*
X168234317Y-113108294D01*
X168208541Y-113370000D01*
X119778282Y-113370000D01*
X119685000Y-113276719D01*
X119685000Y-111457911D01*
X137715000Y-111457911D01*
X137715000Y-111642089D01*
X137750932Y-111822729D01*
X137821414Y-111992889D01*
X137923738Y-112146028D01*
X138053972Y-112276262D01*
X138207111Y-112378586D01*
X138377271Y-112449068D01*
X138557911Y-112485000D01*
X138742089Y-112485000D01*
X138922729Y-112449068D01*
X139092889Y-112378586D01*
X139246028Y-112276262D01*
X139376262Y-112146028D01*
X139478586Y-111992889D01*
X139549068Y-111822729D01*
X139573153Y-111701648D01*
X142984801Y-108290000D01*
X168208541Y-108290000D01*
X168234317Y-108551706D01*
X168310653Y-108803354D01*
X168434618Y-109035275D01*
X168601445Y-109238555D01*
X168804725Y-109405382D01*
X169036646Y-109529347D01*
X169132642Y-109558467D01*
X168912896Y-109650628D01*
X168695054Y-109797582D01*
X168510067Y-109984211D01*
X168365044Y-110203343D01*
X168265558Y-110446557D01*
X168257284Y-110496671D01*
X168380626Y-110703000D01*
X169623000Y-110703000D01*
X169623000Y-110683000D01*
X169877000Y-110683000D01*
X169877000Y-110703000D01*
X171119374Y-110703000D01*
X171242716Y-110496671D01*
X171234442Y-110446557D01*
X171134956Y-110203343D01*
X170989933Y-109984211D01*
X170804946Y-109797582D01*
X170587104Y-109650628D01*
X170367358Y-109558467D01*
X170463354Y-109529347D01*
X170695275Y-109405382D01*
X170898555Y-109238555D01*
X171065382Y-109035275D01*
X171189347Y-108803354D01*
X171265683Y-108551706D01*
X171291459Y-108290000D01*
X171265683Y-108028294D01*
X171189347Y-107776646D01*
X171065382Y-107544725D01*
X170898555Y-107341445D01*
X170695275Y-107174618D01*
X170533360Y-107088072D01*
X170650000Y-107088072D01*
X170774482Y-107075812D01*
X170894180Y-107039502D01*
X171004494Y-106980537D01*
X171101185Y-106901185D01*
X171180537Y-106804494D01*
X171239502Y-106694180D01*
X171275812Y-106574482D01*
X171288072Y-106450000D01*
X171288072Y-105050000D01*
X171275812Y-104925518D01*
X171239502Y-104805820D01*
X171180537Y-104695506D01*
X171101185Y-104598815D01*
X171004494Y-104519463D01*
X170894180Y-104460498D01*
X170774482Y-104424188D01*
X170650000Y-104411928D01*
X168850000Y-104411928D01*
X168725518Y-104424188D01*
X168605820Y-104460498D01*
X168495506Y-104519463D01*
X168398815Y-104598815D01*
X168319463Y-104695506D01*
X168260498Y-104805820D01*
X168224188Y-104925518D01*
X168211928Y-105050000D01*
X168211928Y-106450000D01*
X168224188Y-106574482D01*
X168260498Y-106694180D01*
X168319463Y-106804494D01*
X168398815Y-106901185D01*
X168495506Y-106980537D01*
X168605820Y-107039502D01*
X168725518Y-107075812D01*
X168850000Y-107088072D01*
X168966640Y-107088072D01*
X168804725Y-107174618D01*
X168601445Y-107341445D01*
X168434618Y-107544725D01*
X168310653Y-107776646D01*
X168234317Y-108028294D01*
X168208541Y-108290000D01*
X142984801Y-108290000D01*
X144064802Y-107210000D01*
X150304465Y-107210000D01*
X150407111Y-107278586D01*
X150577271Y-107349068D01*
X150757911Y-107385000D01*
X150942089Y-107385000D01*
X151122729Y-107349068D01*
X151292889Y-107278586D01*
X151446028Y-107176262D01*
X151576262Y-107046028D01*
X151678586Y-106892889D01*
X151749068Y-106722729D01*
X151785000Y-106542089D01*
X151785000Y-106357911D01*
X151749068Y-106177271D01*
X151678586Y-106007111D01*
X151576262Y-105853972D01*
X151446028Y-105723738D01*
X151292889Y-105621414D01*
X151122729Y-105550932D01*
X150942089Y-105515000D01*
X150757911Y-105515000D01*
X150577271Y-105550932D01*
X150407111Y-105621414D01*
X150304465Y-105690000D01*
X143787322Y-105690000D01*
X143749999Y-105686324D01*
X143712676Y-105690000D01*
X143712667Y-105690000D01*
X143601014Y-105700997D01*
X143457753Y-105744454D01*
X143325724Y-105815026D01*
X143209999Y-105909999D01*
X143186201Y-105938997D01*
X138498352Y-110626847D01*
X138377271Y-110650932D01*
X138207111Y-110721414D01*
X138053972Y-110823738D01*
X137923738Y-110953972D01*
X137821414Y-111107111D01*
X137750932Y-111277271D01*
X137715000Y-111457911D01*
X119685000Y-111457911D01*
X119685000Y-103181692D01*
X119699068Y-103147729D01*
X119735000Y-102967089D01*
X119735000Y-102782911D01*
X119699068Y-102602271D01*
X119628586Y-102432111D01*
X119526262Y-102278972D01*
X119396028Y-102148738D01*
X119242889Y-102046414D01*
X119072729Y-101975932D01*
X118892089Y-101940000D01*
X118707911Y-101940000D01*
X118527271Y-101975932D01*
X118357111Y-102046414D01*
X118203972Y-102148738D01*
X118073738Y-102278972D01*
X117971414Y-102432111D01*
X117900932Y-102602271D01*
X117873536Y-102740000D01*
X117857911Y-102740000D01*
X117677271Y-102775932D01*
X117507111Y-102846414D01*
X117368017Y-102939353D01*
X117323986Y-102925997D01*
X117212333Y-102915000D01*
X117175000Y-102911323D01*
X117137667Y-102915000D01*
X115037325Y-102915000D01*
X115000000Y-102911324D01*
X114962675Y-102915000D01*
X114962667Y-102915000D01*
X114851014Y-102925997D01*
X114707753Y-102969454D01*
X114575724Y-103040026D01*
X114459999Y-103134999D01*
X114436201Y-103163997D01*
X112860199Y-104740000D01*
X108214802Y-104740000D01*
X107945000Y-104470199D01*
X107945000Y-104457911D01*
X107909068Y-104277271D01*
X107838586Y-104107111D01*
X107736262Y-103953972D01*
X107606028Y-103823738D01*
X107452889Y-103721414D01*
X107282729Y-103650932D01*
X107102089Y-103615000D01*
X106917911Y-103615000D01*
X106737271Y-103650932D01*
X106567111Y-103721414D01*
X106413972Y-103823738D01*
X106283738Y-103953972D01*
X106181414Y-104107111D01*
X106110932Y-104277271D01*
X106075000Y-104457911D01*
X105047887Y-104457911D01*
X105017180Y-104441498D01*
X104897482Y-104405188D01*
X104773000Y-104392928D01*
X104587605Y-104392928D01*
X104673780Y-104357233D01*
X104902261Y-104204567D01*
X105096567Y-104010261D01*
X105249233Y-103781780D01*
X105354391Y-103527907D01*
X105408000Y-103258396D01*
X105408000Y-102983604D01*
X105354391Y-102714093D01*
X105249233Y-102460220D01*
X105096567Y-102231739D01*
X104902261Y-102037433D01*
X104673780Y-101884767D01*
X104419907Y-101779609D01*
X104150396Y-101726000D01*
X104419907Y-101672391D01*
X104673780Y-101567233D01*
X104902261Y-101414567D01*
X105096567Y-101220261D01*
X105249233Y-100991780D01*
X105354391Y-100737907D01*
X105408000Y-100468396D01*
X105408000Y-100193604D01*
X105354391Y-99924093D01*
X105249233Y-99670220D01*
X105096567Y-99441739D01*
X104902261Y-99247433D01*
X104673780Y-99094767D01*
X104435336Y-98996000D01*
X104673780Y-98897233D01*
X104902261Y-98744567D01*
X105096567Y-98550261D01*
X105249233Y-98321780D01*
X105354391Y-98067907D01*
X105408000Y-97798396D01*
X105408000Y-97523604D01*
X105354391Y-97254093D01*
X105249233Y-97000220D01*
X105096567Y-96771739D01*
X104902261Y-96577433D01*
X104673780Y-96424767D01*
X104419907Y-96319609D01*
X104235414Y-96282911D01*
X105440000Y-96282911D01*
X105440000Y-96467089D01*
X105475932Y-96647729D01*
X105546414Y-96817889D01*
X105648738Y-96971028D01*
X105778972Y-97101262D01*
X105932111Y-97203586D01*
X106102271Y-97274068D01*
X106282911Y-97310000D01*
X106467089Y-97310000D01*
X106647729Y-97274068D01*
X106817889Y-97203586D01*
X106886246Y-97157911D01*
X118600456Y-97157911D01*
X118600456Y-97342089D01*
X118636388Y-97522729D01*
X118706870Y-97692889D01*
X118809194Y-97846028D01*
X118939428Y-97976262D01*
X119092567Y-98078586D01*
X119262727Y-98149068D01*
X119443367Y-98185000D01*
X119627545Y-98185000D01*
X119808185Y-98149068D01*
X119978345Y-98078586D01*
X120032794Y-98042205D01*
X120057753Y-98055546D01*
X120201014Y-98099003D01*
X120312667Y-98110000D01*
X120312677Y-98110000D01*
X120349999Y-98113676D01*
X120387322Y-98110000D01*
X123804465Y-98110000D01*
X123907111Y-98178586D01*
X124077271Y-98249068D01*
X124257911Y-98285000D01*
X124442089Y-98285000D01*
X124622729Y-98249068D01*
X124792889Y-98178586D01*
X124946028Y-98076262D01*
X125076262Y-97946028D01*
X125178586Y-97792889D01*
X125249068Y-97622729D01*
X125285000Y-97442089D01*
X125285000Y-97257911D01*
X125249068Y-97077271D01*
X125178586Y-96907111D01*
X125076262Y-96753972D01*
X124946028Y-96623738D01*
X124847511Y-96557911D01*
X132815001Y-96557911D01*
X132815001Y-96742089D01*
X132850933Y-96922729D01*
X132921415Y-97092889D01*
X133023739Y-97246028D01*
X133153973Y-97376262D01*
X133307112Y-97478586D01*
X133477272Y-97549068D01*
X133598351Y-97573152D01*
X133615001Y-97589802D01*
X133615002Y-108830198D01*
X133589598Y-108957911D01*
X133589598Y-109142089D01*
X133625530Y-109322729D01*
X133696012Y-109492889D01*
X133798336Y-109646028D01*
X133928570Y-109776262D01*
X134081709Y-109878586D01*
X134251869Y-109949068D01*
X134432509Y-109985000D01*
X134616687Y-109985000D01*
X134797327Y-109949068D01*
X134967487Y-109878586D01*
X135120626Y-109776262D01*
X135250860Y-109646028D01*
X135353184Y-109492889D01*
X135423666Y-109322729D01*
X135459598Y-109142089D01*
X135459598Y-108957911D01*
X135423666Y-108777271D01*
X135353184Y-108607111D01*
X135250860Y-108453972D01*
X135135001Y-108338113D01*
X135135001Y-101347138D01*
X135308377Y-101381625D01*
X135492555Y-101381625D01*
X135673195Y-101345693D01*
X135843355Y-101275211D01*
X135996494Y-101172887D01*
X136126728Y-101042653D01*
X136229052Y-100889514D01*
X136299534Y-100719354D01*
X136335466Y-100538714D01*
X136335466Y-100354536D01*
X136299534Y-100173896D01*
X136229052Y-100003736D01*
X136160466Y-99901090D01*
X136160466Y-99259901D01*
X136164142Y-99222578D01*
X136160466Y-99185256D01*
X136160466Y-99185245D01*
X136158029Y-99160504D01*
X136203208Y-99092889D01*
X136273690Y-98922729D01*
X136309622Y-98742089D01*
X136309622Y-98557911D01*
X153015000Y-98557911D01*
X153015000Y-98742089D01*
X153050932Y-98922729D01*
X153121414Y-99092889D01*
X153223738Y-99246028D01*
X153353972Y-99376262D01*
X153507111Y-99478586D01*
X153677271Y-99549068D01*
X153798352Y-99573153D01*
X156326847Y-102101649D01*
X156350932Y-102222729D01*
X156421414Y-102392889D01*
X156523738Y-102546028D01*
X156653972Y-102676262D01*
X156807111Y-102778586D01*
X156977271Y-102849068D01*
X157157911Y-102885000D01*
X157342089Y-102885000D01*
X157522729Y-102849068D01*
X157692889Y-102778586D01*
X157846028Y-102676262D01*
X157976262Y-102546028D01*
X158078586Y-102392889D01*
X158149068Y-102222729D01*
X158185000Y-102042089D01*
X158185000Y-101857911D01*
X158149068Y-101677271D01*
X158078586Y-101507111D01*
X157976262Y-101353972D01*
X157846028Y-101223738D01*
X157692889Y-101121414D01*
X157522729Y-101050932D01*
X157401649Y-101026847D01*
X154873153Y-98498352D01*
X154849068Y-98377271D01*
X154778586Y-98207111D01*
X154676262Y-98053972D01*
X154546028Y-97923738D01*
X154392889Y-97821414D01*
X154222729Y-97750932D01*
X154042089Y-97715000D01*
X153857911Y-97715000D01*
X153677271Y-97750932D01*
X153507111Y-97821414D01*
X153353972Y-97923738D01*
X153223738Y-98053972D01*
X153121414Y-98207111D01*
X153050932Y-98377271D01*
X153015000Y-98557911D01*
X136309622Y-98557911D01*
X136273690Y-98377271D01*
X136203208Y-98207111D01*
X136100884Y-98053972D01*
X135970650Y-97923738D01*
X135817511Y-97821414D01*
X135647351Y-97750932D01*
X135466711Y-97715000D01*
X135282533Y-97715000D01*
X135135001Y-97744346D01*
X135135001Y-97312322D01*
X135138677Y-97274999D01*
X135135001Y-97237676D01*
X135135001Y-97237667D01*
X135124004Y-97126014D01*
X135080547Y-96982753D01*
X135009975Y-96850724D01*
X134945154Y-96771739D01*
X134938800Y-96763996D01*
X134938796Y-96763992D01*
X134915002Y-96734999D01*
X134886010Y-96711206D01*
X134673153Y-96498350D01*
X134649069Y-96377271D01*
X134578587Y-96207111D01*
X134476263Y-96053972D01*
X134346029Y-95923738D01*
X134192890Y-95821414D01*
X134022730Y-95750932D01*
X133842090Y-95715000D01*
X133657912Y-95715000D01*
X133477272Y-95750932D01*
X133307112Y-95821414D01*
X133153973Y-95923738D01*
X133023739Y-96053972D01*
X132921415Y-96207111D01*
X132850933Y-96377271D01*
X132815001Y-96557911D01*
X124847511Y-96557911D01*
X124792889Y-96521414D01*
X124622729Y-96450932D01*
X124442089Y-96415000D01*
X124257911Y-96415000D01*
X124077271Y-96450932D01*
X123907111Y-96521414D01*
X123804465Y-96590000D01*
X120627456Y-96590000D01*
X120542247Y-96544454D01*
X120398986Y-96500997D01*
X120287333Y-96490000D01*
X120287322Y-96490000D01*
X120250000Y-96486324D01*
X120212678Y-96490000D01*
X120080991Y-96490000D01*
X119978345Y-96421414D01*
X119808185Y-96350932D01*
X119627545Y-96315000D01*
X119443367Y-96315000D01*
X119262727Y-96350932D01*
X119092567Y-96421414D01*
X118939428Y-96523738D01*
X118809194Y-96653972D01*
X118706870Y-96807111D01*
X118636388Y-96977271D01*
X118600456Y-97157911D01*
X106886246Y-97157911D01*
X106971028Y-97101262D01*
X107101262Y-96971028D01*
X107203586Y-96817889D01*
X107274068Y-96647729D01*
X107298153Y-96526649D01*
X108114802Y-95710000D01*
X116752068Y-95710000D01*
X116775431Y-95722488D01*
X116918692Y-95765945D01*
X116931894Y-95767245D01*
X117049053Y-95845528D01*
X117219213Y-95916010D01*
X117399853Y-95951942D01*
X117584031Y-95951942D01*
X117764671Y-95916010D01*
X117934831Y-95845528D01*
X118087970Y-95743204D01*
X118218204Y-95612970D01*
X118320528Y-95459831D01*
X118391010Y-95289671D01*
X118426942Y-95109031D01*
X118426942Y-94924853D01*
X118391010Y-94744213D01*
X118320528Y-94574053D01*
X118218204Y-94420914D01*
X118087970Y-94290680D01*
X117934831Y-94188356D01*
X117764671Y-94117874D01*
X117584031Y-94081942D01*
X117399853Y-94081942D01*
X117219213Y-94117874D01*
X117049053Y-94188356D01*
X117045498Y-94190732D01*
X117038069Y-94190000D01*
X117038058Y-94190000D01*
X117000736Y-94186324D01*
X116963414Y-94190000D01*
X107837322Y-94190000D01*
X107799999Y-94186324D01*
X107762676Y-94190000D01*
X107762667Y-94190000D01*
X107651014Y-94200997D01*
X107507753Y-94244454D01*
X107375724Y-94315026D01*
X107259999Y-94409999D01*
X107236201Y-94438997D01*
X106223351Y-95451847D01*
X106102271Y-95475932D01*
X105932111Y-95546414D01*
X105778972Y-95648738D01*
X105648738Y-95778972D01*
X105546414Y-95932111D01*
X105475932Y-96102271D01*
X105440000Y-96282911D01*
X104235414Y-96282911D01*
X104150396Y-96266000D01*
X104419907Y-96212391D01*
X104673780Y-96107233D01*
X104902261Y-95954567D01*
X105096567Y-95760261D01*
X105249233Y-95531780D01*
X105354391Y-95277907D01*
X105408000Y-95008396D01*
X105408000Y-94733604D01*
X105354391Y-94464093D01*
X105249233Y-94210220D01*
X105096567Y-93981739D01*
X104902261Y-93787433D01*
X104673780Y-93634767D01*
X104419907Y-93529609D01*
X104150396Y-93476000D01*
X103875604Y-93476000D01*
X103606093Y-93529609D01*
X103352220Y-93634767D01*
X103123739Y-93787433D01*
X102929433Y-93981739D01*
X102776767Y-94210220D01*
X102671609Y-94464093D01*
X102618000Y-94733604D01*
X102618000Y-95008396D01*
X102671609Y-95277907D01*
X102776767Y-95531780D01*
X102929433Y-95760261D01*
X103123739Y-95954567D01*
X103352220Y-96107233D01*
X103606093Y-96212391D01*
X103875604Y-96266000D01*
X103606093Y-96319609D01*
X103352220Y-96424767D01*
X103123739Y-96577433D01*
X102929433Y-96771739D01*
X102776767Y-97000220D01*
X102671609Y-97254093D01*
X102618000Y-97523604D01*
X102618000Y-97798396D01*
X102671609Y-98067907D01*
X102776767Y-98321780D01*
X102929433Y-98550261D01*
X103123739Y-98744567D01*
X103352220Y-98897233D01*
X103590664Y-98996000D01*
X103352220Y-99094767D01*
X103123739Y-99247433D01*
X102929433Y-99441739D01*
X102776767Y-99670220D01*
X102671609Y-99924093D01*
X102618000Y-100193604D01*
X102618000Y-100468396D01*
X102671609Y-100737907D01*
X102776767Y-100991780D01*
X102929433Y-101220261D01*
X103123739Y-101414567D01*
X103352220Y-101567233D01*
X103606093Y-101672391D01*
X103875604Y-101726000D01*
X103606093Y-101779609D01*
X103352220Y-101884767D01*
X103123739Y-102037433D01*
X102929433Y-102231739D01*
X102776767Y-102460220D01*
X102671609Y-102714093D01*
X102618000Y-102983604D01*
X102618000Y-103258396D01*
X102671609Y-103527907D01*
X102776767Y-103781780D01*
X102929433Y-104010261D01*
X103123739Y-104204567D01*
X103352220Y-104357233D01*
X103438395Y-104392928D01*
X103253000Y-104392928D01*
X103128518Y-104405188D01*
X103008820Y-104441498D01*
X102898506Y-104500463D01*
X102801815Y-104579815D01*
X102722463Y-104676506D01*
X102663498Y-104786820D01*
X102627188Y-104906518D01*
X102614928Y-105031000D01*
X102521688Y-105031000D01*
X102564391Y-104927907D01*
X102618000Y-104658396D01*
X102618000Y-104383604D01*
X102564391Y-104114093D01*
X102459233Y-103860220D01*
X102306567Y-103631739D01*
X102112261Y-103437433D01*
X101883780Y-103284767D01*
X101629907Y-103179609D01*
X101360396Y-103126000D01*
X101629907Y-103072391D01*
X101883780Y-102967233D01*
X102112261Y-102814567D01*
X102306567Y-102620261D01*
X102459233Y-102391780D01*
X102564391Y-102137907D01*
X102618000Y-101868396D01*
X102618000Y-101593604D01*
X102564391Y-101324093D01*
X102459233Y-101070220D01*
X102306567Y-100841739D01*
X102112261Y-100647433D01*
X101883780Y-100494767D01*
X101645336Y-100396000D01*
X101883780Y-100297233D01*
X102112261Y-100144567D01*
X102306567Y-99950261D01*
X102459233Y-99721780D01*
X102564391Y-99467907D01*
X102618000Y-99198396D01*
X102618000Y-98923604D01*
X102564391Y-98654093D01*
X102459233Y-98400220D01*
X102306567Y-98171739D01*
X102112261Y-97977433D01*
X101883780Y-97824767D01*
X101629907Y-97719609D01*
X101360396Y-97666000D01*
X101085604Y-97666000D01*
X100933130Y-97696329D01*
X100897999Y-97661198D01*
X100897999Y-97618683D01*
X101085604Y-97656000D01*
X101360396Y-97656000D01*
X101629907Y-97602391D01*
X101883780Y-97497233D01*
X102112261Y-97344567D01*
X102306567Y-97150261D01*
X102459233Y-96921780D01*
X102564391Y-96667907D01*
X102618000Y-96398396D01*
X102618000Y-96123604D01*
X102564391Y-95854093D01*
X102459233Y-95600220D01*
X102306567Y-95371739D01*
X102112261Y-95177433D01*
X101883780Y-95024767D01*
X101629907Y-94919609D01*
X101360396Y-94866000D01*
X101085604Y-94866000D01*
X100897999Y-94903317D01*
X100897999Y-90882911D01*
X114690000Y-90882911D01*
X114690000Y-91067089D01*
X114725932Y-91247729D01*
X114796414Y-91417889D01*
X114898738Y-91571028D01*
X115028972Y-91701262D01*
X115182111Y-91803586D01*
X115352271Y-91874068D01*
X115532911Y-91910000D01*
X115717089Y-91910000D01*
X115897729Y-91874068D01*
X116067889Y-91803586D01*
X116221028Y-91701262D01*
X116351262Y-91571028D01*
X116453586Y-91417889D01*
X116524068Y-91247729D01*
X116560000Y-91067089D01*
X116560000Y-90882911D01*
X116524068Y-90702271D01*
X116453586Y-90532111D01*
X116385000Y-90429465D01*
X116385000Y-88467153D01*
X116521028Y-88376262D01*
X116651262Y-88246028D01*
X116753586Y-88092889D01*
X116824068Y-87922729D01*
X116860000Y-87742089D01*
X116860000Y-87557911D01*
X116824068Y-87377271D01*
X116753586Y-87207111D01*
X116651262Y-87053972D01*
X116521028Y-86923738D01*
X116367889Y-86821414D01*
X116197729Y-86750932D01*
X116017089Y-86715000D01*
X115832911Y-86715000D01*
X115652271Y-86750932D01*
X115482111Y-86821414D01*
X115328972Y-86923738D01*
X115198738Y-87053972D01*
X115096414Y-87207111D01*
X115025932Y-87377271D01*
X114990000Y-87557911D01*
X114990000Y-87725773D01*
X114919454Y-87857754D01*
X114894657Y-87939502D01*
X114876614Y-87998985D01*
X114875998Y-88001015D01*
X114861324Y-88150000D01*
X114865001Y-88187332D01*
X114865000Y-90429464D01*
X114796414Y-90532111D01*
X114725932Y-90702271D01*
X114690000Y-90882911D01*
X100897999Y-90882911D01*
X100897999Y-89758102D01*
X100993844Y-89853947D01*
X101409859Y-90131919D01*
X101872109Y-90323389D01*
X102362832Y-90421000D01*
X102863168Y-90421000D01*
X103353891Y-90323389D01*
X103816141Y-90131919D01*
X104232156Y-89853947D01*
X104585947Y-89500156D01*
X104863919Y-89084141D01*
X105055389Y-88621891D01*
X105153000Y-88131168D01*
X105153000Y-87630832D01*
X105055389Y-87140109D01*
X104863919Y-86677859D01*
X104585947Y-86261844D01*
X104232156Y-85908053D01*
X103816141Y-85630081D01*
X103353891Y-85438611D01*
X102916743Y-85351657D01*
X104254328Y-84014072D01*
X107125533Y-84014072D01*
X107175274Y-84239691D01*
X107400058Y-84342582D01*
X107640596Y-84399642D01*
X107887645Y-84408680D01*
X108131709Y-84369347D01*
X108363410Y-84283156D01*
X108444726Y-84239691D01*
X108494467Y-84014072D01*
X109665533Y-84014072D01*
X109715274Y-84239691D01*
X109940058Y-84342582D01*
X110180596Y-84399642D01*
X110427645Y-84408680D01*
X110671709Y-84369347D01*
X110903410Y-84283156D01*
X110984726Y-84239691D01*
X111034467Y-84014072D01*
X110350000Y-83329605D01*
X109665533Y-84014072D01*
X108494467Y-84014072D01*
X107810000Y-83329605D01*
X107125533Y-84014072D01*
X104254328Y-84014072D01*
X105628400Y-82640000D01*
X106663218Y-82640000D01*
X106617418Y-82740058D01*
X106560358Y-82980596D01*
X106551320Y-83227645D01*
X106590653Y-83471709D01*
X106676844Y-83703410D01*
X106720309Y-83784726D01*
X106945928Y-83834467D01*
X107630395Y-83150000D01*
X107616253Y-83135858D01*
X107795858Y-82956253D01*
X107810000Y-82970395D01*
X107824143Y-82956253D01*
X108003748Y-83135858D01*
X107989605Y-83150000D01*
X108674072Y-83834467D01*
X108899691Y-83784726D01*
X109002582Y-83559942D01*
X109059642Y-83319404D01*
X109066388Y-83135000D01*
X109094709Y-83135000D01*
X109091320Y-83227645D01*
X109130653Y-83471709D01*
X109216844Y-83703410D01*
X109260309Y-83784726D01*
X109485928Y-83834467D01*
X110170395Y-83150000D01*
X110529605Y-83150000D01*
X111214072Y-83834467D01*
X111439691Y-83784726D01*
X111542582Y-83559942D01*
X111599642Y-83319404D01*
X111608680Y-83072355D01*
X111569347Y-82828291D01*
X111543167Y-82757911D01*
X143615000Y-82757911D01*
X143615000Y-82942089D01*
X143650932Y-83122729D01*
X143721414Y-83292889D01*
X143823738Y-83446028D01*
X143953972Y-83576262D01*
X144107111Y-83678586D01*
X144277271Y-83749068D01*
X144457911Y-83785000D01*
X144623536Y-83785000D01*
X144650932Y-83922729D01*
X144721414Y-84092889D01*
X144823738Y-84246028D01*
X144953972Y-84376262D01*
X145089999Y-84467152D01*
X145090000Y-86562667D01*
X145086323Y-86599999D01*
X145090000Y-86637332D01*
X145100997Y-86748985D01*
X145114179Y-86792441D01*
X145144453Y-86892245D01*
X145215025Y-87024275D01*
X145265948Y-87086324D01*
X145309999Y-87140000D01*
X145338997Y-87163798D01*
X147486201Y-89311003D01*
X147509999Y-89340001D01*
X147625724Y-89434974D01*
X147757753Y-89505546D01*
X147901014Y-89549003D01*
X147918451Y-89550720D01*
X148022498Y-89677502D01*
X148210551Y-89831833D01*
X148425099Y-89946511D01*
X148657898Y-90017130D01*
X148839335Y-90035000D01*
X149460665Y-90035000D01*
X149642102Y-90017130D01*
X149874901Y-89946511D01*
X150089449Y-89831833D01*
X150277502Y-89677502D01*
X150312382Y-89635000D01*
X155131634Y-89635000D01*
X155310551Y-89781833D01*
X155364588Y-89810716D01*
X155360719Y-89850000D01*
X155365000Y-89893469D01*
X155365000Y-89893476D01*
X155372254Y-89967130D01*
X155377805Y-90023490D01*
X155386130Y-90050932D01*
X155428411Y-90190312D01*
X155510589Y-90344058D01*
X155621183Y-90478817D01*
X155654956Y-90506534D01*
X156693470Y-91545049D01*
X156721183Y-91578817D01*
X156754951Y-91606530D01*
X156754953Y-91606532D01*
X156814677Y-91655546D01*
X156855941Y-91689411D01*
X157009687Y-91771589D01*
X157125903Y-91806843D01*
X157176509Y-91822195D01*
X157191306Y-91823652D01*
X157306523Y-91835000D01*
X157306531Y-91835000D01*
X157350000Y-91839281D01*
X157393469Y-91835000D01*
X167690001Y-91835000D01*
X167690000Y-97804464D01*
X167621414Y-97907111D01*
X167550932Y-98077271D01*
X167515000Y-98257911D01*
X167515000Y-98442089D01*
X167550932Y-98622729D01*
X167621414Y-98792889D01*
X167723738Y-98946028D01*
X167853972Y-99076262D01*
X168007111Y-99178586D01*
X168177271Y-99249068D01*
X168357911Y-99285000D01*
X168542089Y-99285000D01*
X168722729Y-99249068D01*
X168892889Y-99178586D01*
X169046028Y-99076262D01*
X169176262Y-98946028D01*
X169278586Y-98792889D01*
X169349068Y-98622729D01*
X169385000Y-98442089D01*
X169385000Y-98257911D01*
X169349068Y-98077271D01*
X169278586Y-97907111D01*
X169210000Y-97804465D01*
X169210000Y-92064801D01*
X169401649Y-91873153D01*
X169522729Y-91849068D01*
X169692889Y-91778586D01*
X169846028Y-91676262D01*
X169976262Y-91546028D01*
X170078586Y-91392889D01*
X170149068Y-91222729D01*
X170185000Y-91042089D01*
X170185000Y-90857911D01*
X170149068Y-90677271D01*
X170078586Y-90507111D01*
X169976262Y-90353972D01*
X169846028Y-90223738D01*
X169692889Y-90121414D01*
X169522729Y-90050932D01*
X169401649Y-90026847D01*
X169210000Y-89835199D01*
X169210000Y-87295535D01*
X169278586Y-87192889D01*
X169349068Y-87022729D01*
X169385000Y-86842089D01*
X169385000Y-86657911D01*
X169349068Y-86477271D01*
X169278586Y-86307111D01*
X169176262Y-86153972D01*
X169046028Y-86023738D01*
X168892889Y-85921414D01*
X168722729Y-85850932D01*
X168542089Y-85815000D01*
X168357911Y-85815000D01*
X168177271Y-85850932D01*
X168007111Y-85921414D01*
X167853972Y-86023738D01*
X167723738Y-86153972D01*
X167621414Y-86307111D01*
X167550932Y-86477271D01*
X167515000Y-86657911D01*
X167515000Y-86842089D01*
X167550932Y-87022729D01*
X167621414Y-87192889D01*
X167690000Y-87295536D01*
X167690001Y-90065000D01*
X157716579Y-90065000D01*
X157323444Y-89671866D01*
X157377502Y-89627502D01*
X157531833Y-89439449D01*
X157646511Y-89224901D01*
X157717130Y-88992102D01*
X157740975Y-88750000D01*
X157717130Y-88507898D01*
X157646511Y-88275099D01*
X157531833Y-88060551D01*
X157405564Y-87906691D01*
X157454494Y-87880537D01*
X157551185Y-87801185D01*
X157630537Y-87704494D01*
X157689502Y-87594180D01*
X157725812Y-87474482D01*
X157738072Y-87350000D01*
X157738072Y-86150000D01*
X157725812Y-86025518D01*
X157689502Y-85905820D01*
X157630537Y-85795506D01*
X157551185Y-85698815D01*
X157454494Y-85619463D01*
X157344180Y-85560498D01*
X157224482Y-85524188D01*
X157100000Y-85511928D01*
X155400000Y-85511928D01*
X155275518Y-85524188D01*
X155155820Y-85560498D01*
X155045506Y-85619463D01*
X154948815Y-85698815D01*
X154869463Y-85795506D01*
X154810498Y-85905820D01*
X154774188Y-86025518D01*
X154761928Y-86150000D01*
X154761928Y-87350000D01*
X154774188Y-87474482D01*
X154810498Y-87594180D01*
X154869463Y-87704494D01*
X154948815Y-87801185D01*
X155026574Y-87865000D01*
X150434351Y-87865000D01*
X150451185Y-87851185D01*
X150530537Y-87754494D01*
X150589502Y-87644180D01*
X150625812Y-87524482D01*
X150638072Y-87400000D01*
X150638072Y-86200000D01*
X150625812Y-86075518D01*
X150589502Y-85955820D01*
X150530537Y-85845506D01*
X150451185Y-85748815D01*
X150354494Y-85669463D01*
X150244180Y-85610498D01*
X150124482Y-85574188D01*
X150000000Y-85561928D01*
X148300000Y-85561928D01*
X148175518Y-85574188D01*
X148055820Y-85610498D01*
X147945506Y-85669463D01*
X147848815Y-85748815D01*
X147769463Y-85845506D01*
X147710498Y-85955820D01*
X147674188Y-86075518D01*
X147661928Y-86200000D01*
X147661928Y-87337126D01*
X146609999Y-86285198D01*
X146609999Y-83987324D01*
X146613675Y-83949999D01*
X146609999Y-83912674D01*
X146609999Y-83912666D01*
X146599002Y-83801013D01*
X146555545Y-83657752D01*
X146484973Y-83525723D01*
X146476558Y-83515469D01*
X146449068Y-83377271D01*
X146378586Y-83207111D01*
X146276262Y-83053972D01*
X146146028Y-82923738D01*
X145992889Y-82821414D01*
X145822729Y-82750932D01*
X145642089Y-82715000D01*
X145476464Y-82715000D01*
X145449068Y-82577271D01*
X145378586Y-82407111D01*
X145310000Y-82304465D01*
X145310000Y-79564801D01*
X145901649Y-78973153D01*
X146022729Y-78949068D01*
X146192889Y-78878586D01*
X146346028Y-78776262D01*
X146476262Y-78646028D01*
X146578586Y-78492889D01*
X146649068Y-78322729D01*
X146685000Y-78142089D01*
X146685000Y-77957911D01*
X146649068Y-77777271D01*
X146578586Y-77607111D01*
X146476262Y-77453972D01*
X146346028Y-77323738D01*
X146192889Y-77221414D01*
X146022729Y-77150932D01*
X145842089Y-77115000D01*
X145657911Y-77115000D01*
X145477271Y-77150932D01*
X145307111Y-77221414D01*
X145153972Y-77323738D01*
X145023738Y-77453972D01*
X144921414Y-77607111D01*
X144850932Y-77777271D01*
X144826847Y-77898351D01*
X144038998Y-78686201D01*
X144010000Y-78709999D01*
X143986202Y-78738997D01*
X143986201Y-78738998D01*
X143915026Y-78825724D01*
X143844454Y-78957754D01*
X143800998Y-79101015D01*
X143786324Y-79250000D01*
X143790001Y-79287332D01*
X143790000Y-82304464D01*
X143721414Y-82407111D01*
X143650932Y-82577271D01*
X143615000Y-82757911D01*
X111543167Y-82757911D01*
X111483156Y-82596590D01*
X111439691Y-82515274D01*
X111214072Y-82465533D01*
X110529605Y-83150000D01*
X110170395Y-83150000D01*
X110156253Y-83135858D01*
X110335858Y-82956253D01*
X110350000Y-82970395D01*
X111034467Y-82285928D01*
X110984726Y-82060309D01*
X110759942Y-81957418D01*
X110519404Y-81900358D01*
X110335000Y-81893612D01*
X110335000Y-81865291D01*
X110427645Y-81868680D01*
X110671709Y-81829347D01*
X110903410Y-81743156D01*
X110984726Y-81699691D01*
X111034467Y-81474072D01*
X110350000Y-80789605D01*
X110335858Y-80803748D01*
X110156253Y-80624143D01*
X110170395Y-80610000D01*
X110529605Y-80610000D01*
X111214072Y-81294467D01*
X111439691Y-81244726D01*
X111542582Y-81019942D01*
X111599642Y-80779404D01*
X111608680Y-80532355D01*
X111569347Y-80288291D01*
X111483156Y-80056590D01*
X111439691Y-79975274D01*
X111214072Y-79925533D01*
X110529605Y-80610000D01*
X110170395Y-80610000D01*
X109485928Y-79925533D01*
X109260309Y-79975274D01*
X109157418Y-80200058D01*
X109100358Y-80440596D01*
X109093612Y-80625000D01*
X109065291Y-80625000D01*
X109068680Y-80532355D01*
X109029347Y-80288291D01*
X108943156Y-80056590D01*
X108899691Y-79975274D01*
X108674072Y-79925533D01*
X107989605Y-80610000D01*
X108003748Y-80624143D01*
X107824143Y-80803748D01*
X107810000Y-80789605D01*
X107795858Y-80803748D01*
X107616253Y-80624143D01*
X107630395Y-80610000D01*
X106945928Y-79925533D01*
X106720309Y-79975274D01*
X106617418Y-80200058D01*
X106560358Y-80440596D01*
X106551320Y-80687645D01*
X106590653Y-80931709D01*
X106660696Y-81120000D01*
X105350920Y-81120000D01*
X105313597Y-81116324D01*
X105276274Y-81120000D01*
X105276265Y-81120000D01*
X105164612Y-81130997D01*
X105021351Y-81174454D01*
X104889322Y-81245026D01*
X104773597Y-81339999D01*
X104749799Y-81368997D01*
X99626997Y-86491800D01*
X99597999Y-86515598D01*
X99574201Y-86544596D01*
X99574200Y-86544597D01*
X99503025Y-86631323D01*
X99432453Y-86763353D01*
X99414841Y-86821414D01*
X99393356Y-86892245D01*
X99388997Y-86906614D01*
X99374323Y-87055599D01*
X93710000Y-87055599D01*
X93710000Y-81518970D01*
X93788136Y-81635909D01*
X94364091Y-82211864D01*
X95041343Y-82664389D01*
X95793865Y-82976094D01*
X96592738Y-83135000D01*
X97407262Y-83135000D01*
X98206135Y-82976094D01*
X98958657Y-82664389D01*
X99635909Y-82211864D01*
X100211864Y-81635909D01*
X100664389Y-80958657D01*
X100976094Y-80206135D01*
X101067635Y-79745928D01*
X107125533Y-79745928D01*
X107810000Y-80430395D01*
X108494467Y-79745928D01*
X109665533Y-79745928D01*
X110350000Y-80430395D01*
X111034467Y-79745928D01*
X110984726Y-79520309D01*
X110759942Y-79417418D01*
X110519404Y-79360358D01*
X110272355Y-79351320D01*
X110028291Y-79390653D01*
X109796590Y-79476844D01*
X109715274Y-79520309D01*
X109665533Y-79745928D01*
X108494467Y-79745928D01*
X108444726Y-79520309D01*
X108219942Y-79417418D01*
X107979404Y-79360358D01*
X107732355Y-79351320D01*
X107488291Y-79390653D01*
X107256590Y-79476844D01*
X107175274Y-79520309D01*
X107125533Y-79745928D01*
X101067635Y-79745928D01*
X101135000Y-79407262D01*
X101135000Y-78592738D01*
X100976094Y-77793865D01*
X100664389Y-77041343D01*
X100211864Y-76364091D01*
X99635909Y-75788136D01*
X99518970Y-75710000D01*
X168481030Y-75710000D01*
X168364091Y-75788136D01*
M02*
