G04 #@! TF.GenerationSoftware,KiCad,Pcbnew,(5.1.5-0)*
G04 #@! TF.CreationDate,2022-03-29T15:48:06-06:00*
G04 #@! TF.ProjectId,polarity_swap,706f6c61-7269-4747-995f-737761702e6b,1*
G04 #@! TF.SameCoordinates,Original*
G04 #@! TF.FileFunction,Copper,L1,Top*
G04 #@! TF.FilePolarity,Positive*
%FSLAX46Y46*%
G04 Gerber Fmt 4.6, Leading zero omitted, Abs format (unit mm)*
G04 Created by KiCad (PCBNEW (5.1.5-0)) date 2022-03-29 15:48:06*
%MOMM*%
%LPD*%
G04 APERTURE LIST*
%ADD10O,1.700000X1.700000*%
%ADD11R,1.700000X1.700000*%
%ADD12R,2.200000X1.600000*%
%ADD13C,0.152400*%
%ADD14R,0.900000X0.800000*%
%ADD15C,0.600000*%
%ADD16C,0.127000*%
%ADD17C,0.254000*%
G04 APERTURE END LIST*
D10*
X-9600000Y-5340000D03*
D11*
X-9600000Y-2800000D03*
D10*
X-9400000Y-13960000D03*
D11*
X-9400000Y-16500000D03*
D10*
X-41000000Y-6260000D03*
D11*
X-41000000Y-8800000D03*
D10*
X-41040000Y-15700000D03*
D11*
X-38500000Y-15700000D03*
D12*
X-23850000Y-13990000D03*
X-23850000Y-16530000D03*
X-15150000Y-19070000D03*
X-23850000Y-21610000D03*
X-15150000Y-21610000D03*
X-15150000Y-16530000D03*
X-15150000Y-13990000D03*
X-23850000Y-19070000D03*
X-23841000Y185001D03*
X-23841000Y-2354999D03*
X-15141000Y-4894999D03*
X-23841000Y-7434999D03*
X-15141000Y-7434999D03*
X-15141000Y-2354999D03*
X-15141000Y185001D03*
X-23841000Y-4894999D03*
G04 #@! TA.AperFunction,SMDPad,CuDef*
D13*
G36*
X-26139221Y-18176144D02*
G01*
X-26116166Y-18179563D01*
X-26093557Y-18185227D01*
X-26071613Y-18193079D01*
X-26050543Y-18203044D01*
X-26030552Y-18215026D01*
X-26011832Y-18228910D01*
X-25994562Y-18244562D01*
X-25978910Y-18261832D01*
X-25965026Y-18280552D01*
X-25953044Y-18300543D01*
X-25943079Y-18321613D01*
X-25935227Y-18343557D01*
X-25929563Y-18366166D01*
X-25926144Y-18389221D01*
X-25925000Y-18412500D01*
X-25925000Y-18987500D01*
X-25926144Y-19010779D01*
X-25929563Y-19033834D01*
X-25935227Y-19056443D01*
X-25943079Y-19078387D01*
X-25953044Y-19099457D01*
X-25965026Y-19119448D01*
X-25978910Y-19138168D01*
X-25994562Y-19155438D01*
X-26011832Y-19171090D01*
X-26030552Y-19184974D01*
X-26050543Y-19196956D01*
X-26071613Y-19206921D01*
X-26093557Y-19214773D01*
X-26116166Y-19220437D01*
X-26139221Y-19223856D01*
X-26162500Y-19225000D01*
X-26637500Y-19225000D01*
X-26660779Y-19223856D01*
X-26683834Y-19220437D01*
X-26706443Y-19214773D01*
X-26728387Y-19206921D01*
X-26749457Y-19196956D01*
X-26769448Y-19184974D01*
X-26788168Y-19171090D01*
X-26805438Y-19155438D01*
X-26821090Y-19138168D01*
X-26834974Y-19119448D01*
X-26846956Y-19099457D01*
X-26856921Y-19078387D01*
X-26864773Y-19056443D01*
X-26870437Y-19033834D01*
X-26873856Y-19010779D01*
X-26875000Y-18987500D01*
X-26875000Y-18412500D01*
X-26873856Y-18389221D01*
X-26870437Y-18366166D01*
X-26864773Y-18343557D01*
X-26856921Y-18321613D01*
X-26846956Y-18300543D01*
X-26834974Y-18280552D01*
X-26821090Y-18261832D01*
X-26805438Y-18244562D01*
X-26788168Y-18228910D01*
X-26769448Y-18215026D01*
X-26749457Y-18203044D01*
X-26728387Y-18193079D01*
X-26706443Y-18185227D01*
X-26683834Y-18179563D01*
X-26660779Y-18176144D01*
X-26637500Y-18175000D01*
X-26162500Y-18175000D01*
X-26139221Y-18176144D01*
G37*
G04 #@! TD.AperFunction*
G04 #@! TA.AperFunction,SMDPad,CuDef*
G36*
X-26139221Y-16426144D02*
G01*
X-26116166Y-16429563D01*
X-26093557Y-16435227D01*
X-26071613Y-16443079D01*
X-26050543Y-16453044D01*
X-26030552Y-16465026D01*
X-26011832Y-16478910D01*
X-25994562Y-16494562D01*
X-25978910Y-16511832D01*
X-25965026Y-16530552D01*
X-25953044Y-16550543D01*
X-25943079Y-16571613D01*
X-25935227Y-16593557D01*
X-25929563Y-16616166D01*
X-25926144Y-16639221D01*
X-25925000Y-16662500D01*
X-25925000Y-17237500D01*
X-25926144Y-17260779D01*
X-25929563Y-17283834D01*
X-25935227Y-17306443D01*
X-25943079Y-17328387D01*
X-25953044Y-17349457D01*
X-25965026Y-17369448D01*
X-25978910Y-17388168D01*
X-25994562Y-17405438D01*
X-26011832Y-17421090D01*
X-26030552Y-17434974D01*
X-26050543Y-17446956D01*
X-26071613Y-17456921D01*
X-26093557Y-17464773D01*
X-26116166Y-17470437D01*
X-26139221Y-17473856D01*
X-26162500Y-17475000D01*
X-26637500Y-17475000D01*
X-26660779Y-17473856D01*
X-26683834Y-17470437D01*
X-26706443Y-17464773D01*
X-26728387Y-17456921D01*
X-26749457Y-17446956D01*
X-26769448Y-17434974D01*
X-26788168Y-17421090D01*
X-26805438Y-17405438D01*
X-26821090Y-17388168D01*
X-26834974Y-17369448D01*
X-26846956Y-17349457D01*
X-26856921Y-17328387D01*
X-26864773Y-17306443D01*
X-26870437Y-17283834D01*
X-26873856Y-17260779D01*
X-26875000Y-17237500D01*
X-26875000Y-16662500D01*
X-26873856Y-16639221D01*
X-26870437Y-16616166D01*
X-26864773Y-16593557D01*
X-26856921Y-16571613D01*
X-26846956Y-16550543D01*
X-26834974Y-16530552D01*
X-26821090Y-16511832D01*
X-26805438Y-16494562D01*
X-26788168Y-16478910D01*
X-26769448Y-16465026D01*
X-26749457Y-16453044D01*
X-26728387Y-16443079D01*
X-26706443Y-16435227D01*
X-26683834Y-16429563D01*
X-26660779Y-16426144D01*
X-26637500Y-16425000D01*
X-26162500Y-16425000D01*
X-26139221Y-16426144D01*
G37*
G04 #@! TD.AperFunction*
G04 #@! TA.AperFunction,SMDPad,CuDef*
G36*
X-28589221Y-21226144D02*
G01*
X-28566166Y-21229563D01*
X-28543557Y-21235227D01*
X-28521613Y-21243079D01*
X-28500543Y-21253044D01*
X-28480552Y-21265026D01*
X-28461832Y-21278910D01*
X-28444562Y-21294562D01*
X-28428910Y-21311832D01*
X-28415026Y-21330552D01*
X-28403044Y-21350543D01*
X-28393079Y-21371613D01*
X-28385227Y-21393557D01*
X-28379563Y-21416166D01*
X-28376144Y-21439221D01*
X-28375000Y-21462500D01*
X-28375000Y-21937500D01*
X-28376144Y-21960779D01*
X-28379563Y-21983834D01*
X-28385227Y-22006443D01*
X-28393079Y-22028387D01*
X-28403044Y-22049457D01*
X-28415026Y-22069448D01*
X-28428910Y-22088168D01*
X-28444562Y-22105438D01*
X-28461832Y-22121090D01*
X-28480552Y-22134974D01*
X-28500543Y-22146956D01*
X-28521613Y-22156921D01*
X-28543557Y-22164773D01*
X-28566166Y-22170437D01*
X-28589221Y-22173856D01*
X-28612500Y-22175000D01*
X-29187500Y-22175000D01*
X-29210779Y-22173856D01*
X-29233834Y-22170437D01*
X-29256443Y-22164773D01*
X-29278387Y-22156921D01*
X-29299457Y-22146956D01*
X-29319448Y-22134974D01*
X-29338168Y-22121090D01*
X-29355438Y-22105438D01*
X-29371090Y-22088168D01*
X-29384974Y-22069448D01*
X-29396956Y-22049457D01*
X-29406921Y-22028387D01*
X-29414773Y-22006443D01*
X-29420437Y-21983834D01*
X-29423856Y-21960779D01*
X-29425000Y-21937500D01*
X-29425000Y-21462500D01*
X-29423856Y-21439221D01*
X-29420437Y-21416166D01*
X-29414773Y-21393557D01*
X-29406921Y-21371613D01*
X-29396956Y-21350543D01*
X-29384974Y-21330552D01*
X-29371090Y-21311832D01*
X-29355438Y-21294562D01*
X-29338168Y-21278910D01*
X-29319448Y-21265026D01*
X-29299457Y-21253044D01*
X-29278387Y-21243079D01*
X-29256443Y-21235227D01*
X-29233834Y-21229563D01*
X-29210779Y-21226144D01*
X-29187500Y-21225000D01*
X-28612500Y-21225000D01*
X-28589221Y-21226144D01*
G37*
G04 #@! TD.AperFunction*
G04 #@! TA.AperFunction,SMDPad,CuDef*
G36*
X-26839221Y-21226144D02*
G01*
X-26816166Y-21229563D01*
X-26793557Y-21235227D01*
X-26771613Y-21243079D01*
X-26750543Y-21253044D01*
X-26730552Y-21265026D01*
X-26711832Y-21278910D01*
X-26694562Y-21294562D01*
X-26678910Y-21311832D01*
X-26665026Y-21330552D01*
X-26653044Y-21350543D01*
X-26643079Y-21371613D01*
X-26635227Y-21393557D01*
X-26629563Y-21416166D01*
X-26626144Y-21439221D01*
X-26625000Y-21462500D01*
X-26625000Y-21937500D01*
X-26626144Y-21960779D01*
X-26629563Y-21983834D01*
X-26635227Y-22006443D01*
X-26643079Y-22028387D01*
X-26653044Y-22049457D01*
X-26665026Y-22069448D01*
X-26678910Y-22088168D01*
X-26694562Y-22105438D01*
X-26711832Y-22121090D01*
X-26730552Y-22134974D01*
X-26750543Y-22146956D01*
X-26771613Y-22156921D01*
X-26793557Y-22164773D01*
X-26816166Y-22170437D01*
X-26839221Y-22173856D01*
X-26862500Y-22175000D01*
X-27437500Y-22175000D01*
X-27460779Y-22173856D01*
X-27483834Y-22170437D01*
X-27506443Y-22164773D01*
X-27528387Y-22156921D01*
X-27549457Y-22146956D01*
X-27569448Y-22134974D01*
X-27588168Y-22121090D01*
X-27605438Y-22105438D01*
X-27621090Y-22088168D01*
X-27634974Y-22069448D01*
X-27646956Y-22049457D01*
X-27656921Y-22028387D01*
X-27664773Y-22006443D01*
X-27670437Y-21983834D01*
X-27673856Y-21960779D01*
X-27675000Y-21937500D01*
X-27675000Y-21462500D01*
X-27673856Y-21439221D01*
X-27670437Y-21416166D01*
X-27664773Y-21393557D01*
X-27656921Y-21371613D01*
X-27646956Y-21350543D01*
X-27634974Y-21330552D01*
X-27621090Y-21311832D01*
X-27605438Y-21294562D01*
X-27588168Y-21278910D01*
X-27569448Y-21265026D01*
X-27549457Y-21253044D01*
X-27528387Y-21243079D01*
X-27506443Y-21235227D01*
X-27483834Y-21229563D01*
X-27460779Y-21226144D01*
X-27437500Y-21225000D01*
X-26862500Y-21225000D01*
X-26839221Y-21226144D01*
G37*
G04 #@! TD.AperFunction*
G04 #@! TA.AperFunction,SMDPad,CuDef*
G36*
X-26239221Y-2201144D02*
G01*
X-26216166Y-2204563D01*
X-26193557Y-2210227D01*
X-26171613Y-2218079D01*
X-26150543Y-2228044D01*
X-26130552Y-2240026D01*
X-26111832Y-2253910D01*
X-26094562Y-2269562D01*
X-26078910Y-2286832D01*
X-26065026Y-2305552D01*
X-26053044Y-2325543D01*
X-26043079Y-2346613D01*
X-26035227Y-2368557D01*
X-26029563Y-2391166D01*
X-26026144Y-2414221D01*
X-26025000Y-2437500D01*
X-26025000Y-3012500D01*
X-26026144Y-3035779D01*
X-26029563Y-3058834D01*
X-26035227Y-3081443D01*
X-26043079Y-3103387D01*
X-26053044Y-3124457D01*
X-26065026Y-3144448D01*
X-26078910Y-3163168D01*
X-26094562Y-3180438D01*
X-26111832Y-3196090D01*
X-26130552Y-3209974D01*
X-26150543Y-3221956D01*
X-26171613Y-3231921D01*
X-26193557Y-3239773D01*
X-26216166Y-3245437D01*
X-26239221Y-3248856D01*
X-26262500Y-3250000D01*
X-26737500Y-3250000D01*
X-26760779Y-3248856D01*
X-26783834Y-3245437D01*
X-26806443Y-3239773D01*
X-26828387Y-3231921D01*
X-26849457Y-3221956D01*
X-26869448Y-3209974D01*
X-26888168Y-3196090D01*
X-26905438Y-3180438D01*
X-26921090Y-3163168D01*
X-26934974Y-3144448D01*
X-26946956Y-3124457D01*
X-26956921Y-3103387D01*
X-26964773Y-3081443D01*
X-26970437Y-3058834D01*
X-26973856Y-3035779D01*
X-26975000Y-3012500D01*
X-26975000Y-2437500D01*
X-26973856Y-2414221D01*
X-26970437Y-2391166D01*
X-26964773Y-2368557D01*
X-26956921Y-2346613D01*
X-26946956Y-2325543D01*
X-26934974Y-2305552D01*
X-26921090Y-2286832D01*
X-26905438Y-2269562D01*
X-26888168Y-2253910D01*
X-26869448Y-2240026D01*
X-26849457Y-2228044D01*
X-26828387Y-2218079D01*
X-26806443Y-2210227D01*
X-26783834Y-2204563D01*
X-26760779Y-2201144D01*
X-26737500Y-2200000D01*
X-26262500Y-2200000D01*
X-26239221Y-2201144D01*
G37*
G04 #@! TD.AperFunction*
G04 #@! TA.AperFunction,SMDPad,CuDef*
G36*
X-26239221Y-3951144D02*
G01*
X-26216166Y-3954563D01*
X-26193557Y-3960227D01*
X-26171613Y-3968079D01*
X-26150543Y-3978044D01*
X-26130552Y-3990026D01*
X-26111832Y-4003910D01*
X-26094562Y-4019562D01*
X-26078910Y-4036832D01*
X-26065026Y-4055552D01*
X-26053044Y-4075543D01*
X-26043079Y-4096613D01*
X-26035227Y-4118557D01*
X-26029563Y-4141166D01*
X-26026144Y-4164221D01*
X-26025000Y-4187500D01*
X-26025000Y-4762500D01*
X-26026144Y-4785779D01*
X-26029563Y-4808834D01*
X-26035227Y-4831443D01*
X-26043079Y-4853387D01*
X-26053044Y-4874457D01*
X-26065026Y-4894448D01*
X-26078910Y-4913168D01*
X-26094562Y-4930438D01*
X-26111832Y-4946090D01*
X-26130552Y-4959974D01*
X-26150543Y-4971956D01*
X-26171613Y-4981921D01*
X-26193557Y-4989773D01*
X-26216166Y-4995437D01*
X-26239221Y-4998856D01*
X-26262500Y-5000000D01*
X-26737500Y-5000000D01*
X-26760779Y-4998856D01*
X-26783834Y-4995437D01*
X-26806443Y-4989773D01*
X-26828387Y-4981921D01*
X-26849457Y-4971956D01*
X-26869448Y-4959974D01*
X-26888168Y-4946090D01*
X-26905438Y-4930438D01*
X-26921090Y-4913168D01*
X-26934974Y-4894448D01*
X-26946956Y-4874457D01*
X-26956921Y-4853387D01*
X-26964773Y-4831443D01*
X-26970437Y-4808834D01*
X-26973856Y-4785779D01*
X-26975000Y-4762500D01*
X-26975000Y-4187500D01*
X-26973856Y-4164221D01*
X-26970437Y-4141166D01*
X-26964773Y-4118557D01*
X-26956921Y-4096613D01*
X-26946956Y-4075543D01*
X-26934974Y-4055552D01*
X-26921090Y-4036832D01*
X-26905438Y-4019562D01*
X-26888168Y-4003910D01*
X-26869448Y-3990026D01*
X-26849457Y-3978044D01*
X-26828387Y-3968079D01*
X-26806443Y-3960227D01*
X-26783834Y-3954563D01*
X-26760779Y-3951144D01*
X-26737500Y-3950000D01*
X-26262500Y-3950000D01*
X-26239221Y-3951144D01*
G37*
G04 #@! TD.AperFunction*
G04 #@! TA.AperFunction,SMDPad,CuDef*
G36*
X-26614221Y-7026144D02*
G01*
X-26591166Y-7029563D01*
X-26568557Y-7035227D01*
X-26546613Y-7043079D01*
X-26525543Y-7053044D01*
X-26505552Y-7065026D01*
X-26486832Y-7078910D01*
X-26469562Y-7094562D01*
X-26453910Y-7111832D01*
X-26440026Y-7130552D01*
X-26428044Y-7150543D01*
X-26418079Y-7171613D01*
X-26410227Y-7193557D01*
X-26404563Y-7216166D01*
X-26401144Y-7239221D01*
X-26400000Y-7262500D01*
X-26400000Y-7737500D01*
X-26401144Y-7760779D01*
X-26404563Y-7783834D01*
X-26410227Y-7806443D01*
X-26418079Y-7828387D01*
X-26428044Y-7849457D01*
X-26440026Y-7869448D01*
X-26453910Y-7888168D01*
X-26469562Y-7905438D01*
X-26486832Y-7921090D01*
X-26505552Y-7934974D01*
X-26525543Y-7946956D01*
X-26546613Y-7956921D01*
X-26568557Y-7964773D01*
X-26591166Y-7970437D01*
X-26614221Y-7973856D01*
X-26637500Y-7975000D01*
X-27212500Y-7975000D01*
X-27235779Y-7973856D01*
X-27258834Y-7970437D01*
X-27281443Y-7964773D01*
X-27303387Y-7956921D01*
X-27324457Y-7946956D01*
X-27344448Y-7934974D01*
X-27363168Y-7921090D01*
X-27380438Y-7905438D01*
X-27396090Y-7888168D01*
X-27409974Y-7869448D01*
X-27421956Y-7849457D01*
X-27431921Y-7828387D01*
X-27439773Y-7806443D01*
X-27445437Y-7783834D01*
X-27448856Y-7760779D01*
X-27450000Y-7737500D01*
X-27450000Y-7262500D01*
X-27448856Y-7239221D01*
X-27445437Y-7216166D01*
X-27439773Y-7193557D01*
X-27431921Y-7171613D01*
X-27421956Y-7150543D01*
X-27409974Y-7130552D01*
X-27396090Y-7111832D01*
X-27380438Y-7094562D01*
X-27363168Y-7078910D01*
X-27344448Y-7065026D01*
X-27324457Y-7053044D01*
X-27303387Y-7043079D01*
X-27281443Y-7035227D01*
X-27258834Y-7029563D01*
X-27235779Y-7026144D01*
X-27212500Y-7025000D01*
X-26637500Y-7025000D01*
X-26614221Y-7026144D01*
G37*
G04 #@! TD.AperFunction*
G04 #@! TA.AperFunction,SMDPad,CuDef*
G36*
X-28364221Y-7026144D02*
G01*
X-28341166Y-7029563D01*
X-28318557Y-7035227D01*
X-28296613Y-7043079D01*
X-28275543Y-7053044D01*
X-28255552Y-7065026D01*
X-28236832Y-7078910D01*
X-28219562Y-7094562D01*
X-28203910Y-7111832D01*
X-28190026Y-7130552D01*
X-28178044Y-7150543D01*
X-28168079Y-7171613D01*
X-28160227Y-7193557D01*
X-28154563Y-7216166D01*
X-28151144Y-7239221D01*
X-28150000Y-7262500D01*
X-28150000Y-7737500D01*
X-28151144Y-7760779D01*
X-28154563Y-7783834D01*
X-28160227Y-7806443D01*
X-28168079Y-7828387D01*
X-28178044Y-7849457D01*
X-28190026Y-7869448D01*
X-28203910Y-7888168D01*
X-28219562Y-7905438D01*
X-28236832Y-7921090D01*
X-28255552Y-7934974D01*
X-28275543Y-7946956D01*
X-28296613Y-7956921D01*
X-28318557Y-7964773D01*
X-28341166Y-7970437D01*
X-28364221Y-7973856D01*
X-28387500Y-7975000D01*
X-28962500Y-7975000D01*
X-28985779Y-7973856D01*
X-29008834Y-7970437D01*
X-29031443Y-7964773D01*
X-29053387Y-7956921D01*
X-29074457Y-7946956D01*
X-29094448Y-7934974D01*
X-29113168Y-7921090D01*
X-29130438Y-7905438D01*
X-29146090Y-7888168D01*
X-29159974Y-7869448D01*
X-29171956Y-7849457D01*
X-29181921Y-7828387D01*
X-29189773Y-7806443D01*
X-29195437Y-7783834D01*
X-29198856Y-7760779D01*
X-29200000Y-7737500D01*
X-29200000Y-7262500D01*
X-29198856Y-7239221D01*
X-29195437Y-7216166D01*
X-29189773Y-7193557D01*
X-29181921Y-7171613D01*
X-29171956Y-7150543D01*
X-29159974Y-7130552D01*
X-29146090Y-7111832D01*
X-29130438Y-7094562D01*
X-29113168Y-7078910D01*
X-29094448Y-7065026D01*
X-29074457Y-7053044D01*
X-29053387Y-7043079D01*
X-29031443Y-7035227D01*
X-29008834Y-7029563D01*
X-28985779Y-7026144D01*
X-28962500Y-7025000D01*
X-28387500Y-7025000D01*
X-28364221Y-7026144D01*
G37*
G04 #@! TD.AperFunction*
D14*
X-33100000Y-11100000D03*
X-35100000Y-12050000D03*
X-35100000Y-10150000D03*
X-29300000Y-11100000D03*
X-31300000Y-12050000D03*
X-31300000Y-10150000D03*
D10*
X-32100000Y-1760000D03*
D11*
X-32100000Y-4300000D03*
D15*
X-25800000Y-1600000D03*
X-27800000Y-11100000D03*
X-13500000Y-16500000D03*
D16*
X-27060000Y-21610000D02*
X-27150000Y-21700000D01*
X-23850000Y-21610000D02*
X-27060000Y-21610000D01*
X-26129999Y-2354999D02*
X-26500000Y-2725000D01*
X-23841000Y-2354999D02*
X-26129999Y-2354999D01*
X-36500000Y-1760000D02*
X-32100000Y-1760000D01*
X-41000000Y-6260000D02*
X-36500000Y-1760000D01*
X-22614000Y-2354999D02*
X-21100000Y-3868999D01*
X-23841000Y-2354999D02*
X-22614000Y-2354999D01*
X-22623000Y-21610000D02*
X-23850000Y-21610000D01*
X-21100000Y-20087000D02*
X-22623000Y-21610000D01*
X-21100000Y-3868999D02*
X-21100000Y-20087000D01*
X-26025000Y-2725000D02*
X-25800000Y-2500000D01*
X-25800000Y-2500000D02*
X-25800000Y-1600000D01*
X-26500000Y-2725000D02*
X-26025000Y-2725000D01*
X-29877000Y-11100000D02*
X-33100000Y-11100000D01*
X-29300000Y-11100000D02*
X-29877000Y-11100000D01*
X-29300000Y-11100000D02*
X-27800000Y-11100000D01*
X-31300000Y-12577000D02*
X-31300000Y-12050000D01*
X-34423000Y-15700000D02*
X-31300000Y-12577000D01*
X-38500000Y-15700000D02*
X-34423000Y-15700000D01*
X-25980000Y-16530000D02*
X-26400000Y-16950000D01*
X-23850000Y-16530000D02*
X-25980000Y-16530000D01*
X-26859999Y-7434999D02*
X-26925000Y-7500000D01*
X-23841000Y-7434999D02*
X-26859999Y-7434999D01*
X-22623000Y-16530000D02*
X-22000000Y-15907000D01*
X-23850000Y-16530000D02*
X-22623000Y-16530000D01*
X-22614000Y-7434999D02*
X-23841000Y-7434999D01*
X-22000000Y-8048999D02*
X-22614000Y-7434999D01*
X-22000000Y-15907000D02*
X-22000000Y-8048999D01*
X-30723000Y-10150000D02*
X-30673000Y-10100000D01*
X-31300000Y-10150000D02*
X-30723000Y-10150000D01*
X-26925000Y-7975000D02*
X-26925000Y-7500000D01*
X-29050000Y-10100000D02*
X-26925000Y-7975000D01*
X-30673000Y-10100000D02*
X-29050000Y-10100000D01*
X-35923000Y-8800000D02*
X-35100000Y-9623000D01*
X-35100000Y-9623000D02*
X-35100000Y-10150000D01*
X-41000000Y-8800000D02*
X-35923000Y-8800000D01*
X-31300000Y-10150000D02*
X-35100000Y-10150000D01*
X-28675000Y-3421999D02*
X-28675000Y-7025000D01*
X-28675000Y-7025000D02*
X-28675000Y-7500000D01*
X-25068000Y185001D02*
X-28675000Y-3421999D01*
X-23841000Y185001D02*
X-25068000Y185001D01*
X-26080001Y-4894999D02*
X-26500000Y-4475000D01*
X-23841000Y-4894999D02*
X-26080001Y-4894999D01*
X-28900000Y-21225000D02*
X-28900000Y-21700000D01*
X-25077000Y-13990000D02*
X-28900000Y-17813000D01*
X-28900000Y-17813000D02*
X-28900000Y-21225000D01*
X-23850000Y-13990000D02*
X-25077000Y-13990000D01*
X-26030000Y-19070000D02*
X-26400000Y-18700000D01*
X-23850000Y-19070000D02*
X-26030000Y-19070000D01*
X-10045001Y-2354999D02*
X-9600000Y-2800000D01*
X-15141000Y-2354999D02*
X-10045001Y-2354999D01*
X-15141000Y-4894999D02*
X-15141000Y-2354999D01*
X-9400000Y-17087000D02*
X-9400000Y-16500000D01*
X-13923000Y-21610000D02*
X-9400000Y-17087000D01*
X-15150000Y-21610000D02*
X-13923000Y-21610000D01*
X-8359499Y-12989500D02*
X-8359499Y-16436499D01*
X-13914000Y-7434999D02*
X-8359499Y-12989500D01*
X-8423000Y-16500000D02*
X-9400000Y-16500000D01*
X-8359499Y-16436499D02*
X-8423000Y-16500000D01*
X-15141000Y-7434999D02*
X-13914000Y-7434999D01*
X-9430000Y-13990000D02*
X-9400000Y-13960000D01*
X-15150000Y-13990000D02*
X-9430000Y-13990000D01*
X-16377000Y-13990000D02*
X-17000000Y-13367000D01*
X-15150000Y-13990000D02*
X-16377000Y-13990000D01*
X-16368000Y185001D02*
X-15141000Y185001D01*
X-17000000Y-446999D02*
X-16368000Y185001D01*
X-17000000Y-13367000D02*
X-17000000Y-446999D01*
X-15150000Y-19070000D02*
X-15150000Y-16530000D01*
X-16377000Y-16530000D02*
X-16800000Y-16107000D01*
X-15150000Y-16530000D02*
X-16377000Y-16530000D01*
X-13893000Y-16500000D02*
X-13500000Y-16500000D01*
X-13923000Y-16530000D02*
X-13893000Y-16500000D01*
X-15150000Y-16530000D02*
X-13923000Y-16530000D01*
D17*
G36*
X-5654049Y-24345950D02*
G01*
X-44345950Y-24345950D01*
X-44345950Y-16056891D01*
X-42481481Y-16056891D01*
X-42384157Y-16331252D01*
X-42235178Y-16581355D01*
X-42040269Y-16797588D01*
X-41806920Y-16971641D01*
X-41544099Y-17096825D01*
X-41396890Y-17141476D01*
X-41167000Y-17020155D01*
X-41167000Y-15827000D01*
X-42360814Y-15827000D01*
X-42481481Y-16056891D01*
X-44345950Y-16056891D01*
X-44345950Y-15343109D01*
X-42481481Y-15343109D01*
X-42360814Y-15573000D01*
X-41167000Y-15573000D01*
X-41167000Y-14379845D01*
X-41396890Y-14258524D01*
X-41544099Y-14303175D01*
X-41806920Y-14428359D01*
X-42040269Y-14602412D01*
X-42235178Y-14818645D01*
X-42384157Y-15068748D01*
X-42481481Y-15343109D01*
X-44345950Y-15343109D01*
X-44345950Y-12450000D01*
X-36188072Y-12450000D01*
X-36175812Y-12574482D01*
X-36139502Y-12694180D01*
X-36080537Y-12804494D01*
X-36001185Y-12901185D01*
X-35904494Y-12980537D01*
X-35794180Y-13039502D01*
X-35674482Y-13075812D01*
X-35550000Y-13088072D01*
X-35385750Y-13085000D01*
X-35227000Y-12926250D01*
X-35227000Y-12177000D01*
X-34973000Y-12177000D01*
X-34973000Y-12926250D01*
X-34814250Y-13085000D01*
X-34650000Y-13088072D01*
X-34525518Y-13075812D01*
X-34405820Y-13039502D01*
X-34295506Y-12980537D01*
X-34198815Y-12901185D01*
X-34119463Y-12804494D01*
X-34060498Y-12694180D01*
X-34024188Y-12574482D01*
X-34011928Y-12450000D01*
X-34015000Y-12335750D01*
X-34173750Y-12177000D01*
X-34973000Y-12177000D01*
X-35227000Y-12177000D01*
X-36026250Y-12177000D01*
X-36185000Y-12335750D01*
X-36188072Y-12450000D01*
X-44345950Y-12450000D01*
X-44345950Y-7950000D01*
X-42488072Y-7950000D01*
X-42488072Y-9650000D01*
X-42475812Y-9774482D01*
X-42439502Y-9894180D01*
X-42380537Y-10004494D01*
X-42301185Y-10101185D01*
X-42204494Y-10180537D01*
X-42094180Y-10239502D01*
X-41974482Y-10275812D01*
X-41850000Y-10288072D01*
X-40150000Y-10288072D01*
X-40025518Y-10275812D01*
X-39905820Y-10239502D01*
X-39795506Y-10180537D01*
X-39698815Y-10101185D01*
X-39619463Y-10004494D01*
X-39560498Y-9894180D01*
X-39524188Y-9774482D01*
X-39511928Y-9650000D01*
X-39511928Y-9498500D01*
X-36212327Y-9498500D01*
X-36154748Y-9556079D01*
X-36175812Y-9625518D01*
X-36188072Y-9750000D01*
X-36188072Y-10550000D01*
X-36175812Y-10674482D01*
X-36139502Y-10794180D01*
X-36080537Y-10904494D01*
X-36001185Y-11001185D01*
X-35904494Y-11080537D01*
X-35868082Y-11100000D01*
X-35904494Y-11119463D01*
X-36001185Y-11198815D01*
X-36080537Y-11295506D01*
X-36139502Y-11405820D01*
X-36175812Y-11525518D01*
X-36188072Y-11650000D01*
X-36185000Y-11764250D01*
X-36026250Y-11923000D01*
X-35227000Y-11923000D01*
X-35227000Y-11903000D01*
X-34973000Y-11903000D01*
X-34973000Y-11923000D01*
X-34173750Y-11923000D01*
X-34089143Y-11838393D01*
X-34080537Y-11854494D01*
X-34001185Y-11951185D01*
X-33904494Y-12030537D01*
X-33794180Y-12089502D01*
X-33674482Y-12125812D01*
X-33550000Y-12138072D01*
X-32650000Y-12138072D01*
X-32525518Y-12125812D01*
X-32405820Y-12089502D01*
X-32388072Y-12080015D01*
X-32388072Y-12450000D01*
X-32375812Y-12574482D01*
X-32354748Y-12643920D01*
X-34712327Y-15001500D01*
X-37011928Y-15001500D01*
X-37011928Y-14850000D01*
X-37024188Y-14725518D01*
X-37060498Y-14605820D01*
X-37119463Y-14495506D01*
X-37198815Y-14398815D01*
X-37295506Y-14319463D01*
X-37405820Y-14260498D01*
X-37525518Y-14224188D01*
X-37650000Y-14211928D01*
X-39350000Y-14211928D01*
X-39474482Y-14224188D01*
X-39594180Y-14260498D01*
X-39704494Y-14319463D01*
X-39801185Y-14398815D01*
X-39880537Y-14495506D01*
X-39939502Y-14605820D01*
X-39963966Y-14686466D01*
X-40039731Y-14602412D01*
X-40273080Y-14428359D01*
X-40535901Y-14303175D01*
X-40683110Y-14258524D01*
X-40913000Y-14379845D01*
X-40913000Y-15573000D01*
X-40893000Y-15573000D01*
X-40893000Y-15827000D01*
X-40913000Y-15827000D01*
X-40913000Y-17020155D01*
X-40683110Y-17141476D01*
X-40535901Y-17096825D01*
X-40273080Y-16971641D01*
X-40039731Y-16797588D01*
X-39963966Y-16713534D01*
X-39939502Y-16794180D01*
X-39880537Y-16904494D01*
X-39801185Y-17001185D01*
X-39704494Y-17080537D01*
X-39594180Y-17139502D01*
X-39474482Y-17175812D01*
X-39350000Y-17188072D01*
X-37650000Y-17188072D01*
X-37525518Y-17175812D01*
X-37405820Y-17139502D01*
X-37295506Y-17080537D01*
X-37198815Y-17001185D01*
X-37119463Y-16904494D01*
X-37060498Y-16794180D01*
X-37024188Y-16674482D01*
X-37011928Y-16550000D01*
X-37011928Y-16398500D01*
X-34457298Y-16398500D01*
X-34423000Y-16401878D01*
X-34388702Y-16398500D01*
X-34388691Y-16398500D01*
X-34286070Y-16388393D01*
X-34154403Y-16348452D01*
X-34033057Y-16283591D01*
X-33926697Y-16196303D01*
X-33904825Y-16169652D01*
X-30830338Y-13095166D01*
X-30817834Y-13084904D01*
X-30725518Y-13075812D01*
X-30605820Y-13039502D01*
X-30495506Y-12980537D01*
X-30398815Y-12901185D01*
X-30319463Y-12804494D01*
X-30260498Y-12694180D01*
X-30224188Y-12574482D01*
X-30211928Y-12450000D01*
X-30211928Y-11938095D01*
X-30201185Y-11951185D01*
X-30104494Y-12030537D01*
X-29994180Y-12089502D01*
X-29874482Y-12125812D01*
X-29750000Y-12138072D01*
X-28850000Y-12138072D01*
X-28725518Y-12125812D01*
X-28605820Y-12089502D01*
X-28495506Y-12030537D01*
X-28398815Y-11951185D01*
X-28331615Y-11869301D01*
X-28242889Y-11928586D01*
X-28072729Y-11999068D01*
X-27892089Y-12035000D01*
X-27707911Y-12035000D01*
X-27527271Y-11999068D01*
X-27357111Y-11928586D01*
X-27203972Y-11826262D01*
X-27073738Y-11696028D01*
X-26971414Y-11542889D01*
X-26900932Y-11372729D01*
X-26865000Y-11192089D01*
X-26865000Y-11007911D01*
X-26900932Y-10827271D01*
X-26971414Y-10657111D01*
X-27073738Y-10503972D01*
X-27203972Y-10373738D01*
X-27357111Y-10271414D01*
X-27527271Y-10200932D01*
X-27707911Y-10165000D01*
X-27892089Y-10165000D01*
X-28072729Y-10200932D01*
X-28227009Y-10264836D01*
X-26568442Y-8606270D01*
X-26466684Y-8596248D01*
X-26302433Y-8546423D01*
X-26151058Y-8465512D01*
X-26018377Y-8356623D01*
X-25909488Y-8223942D01*
X-25861146Y-8133499D01*
X-25579072Y-8133499D01*
X-25579072Y-8234999D01*
X-25566812Y-8359481D01*
X-25530502Y-8479179D01*
X-25471537Y-8589493D01*
X-25392185Y-8686184D01*
X-25295494Y-8765536D01*
X-25185180Y-8824501D01*
X-25065482Y-8860811D01*
X-24941000Y-8873071D01*
X-22741000Y-8873071D01*
X-22698499Y-8868885D01*
X-22698500Y-12557000D01*
X-22750000Y-12551928D01*
X-24950000Y-12551928D01*
X-25074482Y-12564188D01*
X-25194180Y-12600498D01*
X-25304494Y-12659463D01*
X-25401185Y-12738815D01*
X-25480537Y-12835506D01*
X-25539502Y-12945820D01*
X-25575812Y-13065518D01*
X-25588072Y-13190000D01*
X-25588072Y-13511693D01*
X-25595171Y-13520343D01*
X-29369656Y-17294829D01*
X-29396303Y-17316698D01*
X-29418171Y-17343344D01*
X-29418174Y-17343347D01*
X-29483591Y-17423057D01*
X-29512394Y-17476944D01*
X-29548452Y-17544404D01*
X-29588393Y-17676071D01*
X-29598500Y-17778692D01*
X-29598500Y-17778702D01*
X-29601878Y-17813000D01*
X-29598500Y-17847298D01*
X-29598499Y-20694163D01*
X-29673942Y-20734488D01*
X-29806623Y-20843377D01*
X-29915512Y-20976058D01*
X-29996423Y-21127433D01*
X-30046248Y-21291684D01*
X-30063072Y-21462500D01*
X-30063072Y-21937500D01*
X-30046248Y-22108316D01*
X-29996423Y-22272567D01*
X-29915512Y-22423942D01*
X-29806623Y-22556623D01*
X-29673942Y-22665512D01*
X-29522567Y-22746423D01*
X-29358316Y-22796248D01*
X-29187500Y-22813072D01*
X-28612500Y-22813072D01*
X-28441684Y-22796248D01*
X-28277433Y-22746423D01*
X-28126058Y-22665512D01*
X-28025000Y-22582575D01*
X-27923942Y-22665512D01*
X-27772567Y-22746423D01*
X-27608316Y-22796248D01*
X-27437500Y-22813072D01*
X-26862500Y-22813072D01*
X-26691684Y-22796248D01*
X-26527433Y-22746423D01*
X-26376058Y-22665512D01*
X-26243377Y-22556623D01*
X-26134488Y-22423942D01*
X-26072783Y-22308500D01*
X-25588072Y-22308500D01*
X-25588072Y-22410000D01*
X-25575812Y-22534482D01*
X-25539502Y-22654180D01*
X-25480537Y-22764494D01*
X-25401185Y-22861185D01*
X-25304494Y-22940537D01*
X-25194180Y-22999502D01*
X-25074482Y-23035812D01*
X-24950000Y-23048072D01*
X-22750000Y-23048072D01*
X-22625518Y-23035812D01*
X-22505820Y-22999502D01*
X-22395506Y-22940537D01*
X-22298815Y-22861185D01*
X-22219463Y-22764494D01*
X-22160498Y-22654180D01*
X-22124188Y-22534482D01*
X-22111928Y-22410000D01*
X-22111928Y-22088307D01*
X-22104825Y-22079652D01*
X-20630338Y-20605166D01*
X-20603697Y-20583303D01*
X-20581834Y-20556663D01*
X-20581826Y-20556655D01*
X-20516409Y-20476944D01*
X-20451549Y-20355599D01*
X-20451548Y-20355597D01*
X-20411607Y-20223930D01*
X-20401500Y-20121309D01*
X-20401500Y-20121299D01*
X-20398122Y-20087001D01*
X-20401500Y-20052703D01*
X-20401500Y-3903296D01*
X-20398122Y-3868998D01*
X-20401500Y-3834700D01*
X-20401500Y-3834690D01*
X-20411607Y-3732069D01*
X-20451548Y-3600402D01*
X-20504210Y-3501878D01*
X-20516409Y-3479055D01*
X-20581827Y-3399344D01*
X-20581833Y-3399338D01*
X-20603698Y-3372696D01*
X-20630338Y-3350833D01*
X-22095825Y-1885347D01*
X-22102928Y-1876692D01*
X-22102928Y-1554999D01*
X-22115188Y-1430517D01*
X-22151498Y-1310819D01*
X-22210463Y-1200505D01*
X-22289815Y-1103814D01*
X-22312741Y-1084999D01*
X-22289815Y-1066184D01*
X-22210463Y-969493D01*
X-22151498Y-859179D01*
X-22115188Y-739481D01*
X-22102928Y-614999D01*
X-22102928Y-446999D01*
X-17701878Y-446999D01*
X-17698499Y-481307D01*
X-17698500Y-13332702D01*
X-17701878Y-13367000D01*
X-17698500Y-13401298D01*
X-17698500Y-13401308D01*
X-17688393Y-13503929D01*
X-17659232Y-13600058D01*
X-17648451Y-13635598D01*
X-17583591Y-13756943D01*
X-17518174Y-13836653D01*
X-17518171Y-13836656D01*
X-17496303Y-13863302D01*
X-17469656Y-13885171D01*
X-16895173Y-14459655D01*
X-16888072Y-14468307D01*
X-16888072Y-14790000D01*
X-16875812Y-14914482D01*
X-16839502Y-15034180D01*
X-16780537Y-15144494D01*
X-16701185Y-15241185D01*
X-16678259Y-15260000D01*
X-16701185Y-15278815D01*
X-16780537Y-15375506D01*
X-16796549Y-15405462D01*
X-16800000Y-15405122D01*
X-16936929Y-15418608D01*
X-17068598Y-15458549D01*
X-17189943Y-15523409D01*
X-17296303Y-15610697D01*
X-17383591Y-15717057D01*
X-17448451Y-15838402D01*
X-17488392Y-15970071D01*
X-17501878Y-16107000D01*
X-17488392Y-16243929D01*
X-17448451Y-16375598D01*
X-17383591Y-16496943D01*
X-17318174Y-16576653D01*
X-16895175Y-16999652D01*
X-16888072Y-17008307D01*
X-16888072Y-17330000D01*
X-16875812Y-17454482D01*
X-16839502Y-17574180D01*
X-16780537Y-17684494D01*
X-16701185Y-17781185D01*
X-16678259Y-17800000D01*
X-16701185Y-17818815D01*
X-16780537Y-17915506D01*
X-16839502Y-18025820D01*
X-16875812Y-18145518D01*
X-16888072Y-18270000D01*
X-16888072Y-19870000D01*
X-16875812Y-19994482D01*
X-16839502Y-20114180D01*
X-16780537Y-20224494D01*
X-16701185Y-20321185D01*
X-16678259Y-20340000D01*
X-16701185Y-20358815D01*
X-16780537Y-20455506D01*
X-16839502Y-20565820D01*
X-16875812Y-20685518D01*
X-16888072Y-20810000D01*
X-16888072Y-22410000D01*
X-16875812Y-22534482D01*
X-16839502Y-22654180D01*
X-16780537Y-22764494D01*
X-16701185Y-22861185D01*
X-16604494Y-22940537D01*
X-16494180Y-22999502D01*
X-16374482Y-23035812D01*
X-16250000Y-23048072D01*
X-14050000Y-23048072D01*
X-13925518Y-23035812D01*
X-13805820Y-22999502D01*
X-13695506Y-22940537D01*
X-13598815Y-22861185D01*
X-13519463Y-22764494D01*
X-13460498Y-22654180D01*
X-13424188Y-22534482D01*
X-13411928Y-22410000D01*
X-13411928Y-22088307D01*
X-13404825Y-22079652D01*
X-9313244Y-17988072D01*
X-8550000Y-17988072D01*
X-8425518Y-17975812D01*
X-8305820Y-17939502D01*
X-8195506Y-17880537D01*
X-8098815Y-17801185D01*
X-8019463Y-17704494D01*
X-7960498Y-17594180D01*
X-7924188Y-17474482D01*
X-7911928Y-17350000D01*
X-7911928Y-16978307D01*
X-7904825Y-16969652D01*
X-7889847Y-16954674D01*
X-7863196Y-16932802D01*
X-7775908Y-16826442D01*
X-7711047Y-16705096D01*
X-7671106Y-16573429D01*
X-7660999Y-16470808D01*
X-7660999Y-16470797D01*
X-7657621Y-16436499D01*
X-7660999Y-16402201D01*
X-7660999Y-13023798D01*
X-7657621Y-12989500D01*
X-7660999Y-12955202D01*
X-7660999Y-12955191D01*
X-7671106Y-12852570D01*
X-7711047Y-12720903D01*
X-7775908Y-12599557D01*
X-7794420Y-12577000D01*
X-7841325Y-12519846D01*
X-7841332Y-12519839D01*
X-7863197Y-12493197D01*
X-7889837Y-12471334D01*
X-13395825Y-6965347D01*
X-13402928Y-6956692D01*
X-13402928Y-6634999D01*
X-13415188Y-6510517D01*
X-13451498Y-6390819D01*
X-13510463Y-6280505D01*
X-13589815Y-6183814D01*
X-13612741Y-6164999D01*
X-13589815Y-6146184D01*
X-13510463Y-6049493D01*
X-13451498Y-5939179D01*
X-13415188Y-5819481D01*
X-13402928Y-5694999D01*
X-13402928Y-4094999D01*
X-13415188Y-3970517D01*
X-13451498Y-3850819D01*
X-13510463Y-3740505D01*
X-13589815Y-3643814D01*
X-13612741Y-3624999D01*
X-13589815Y-3606184D01*
X-13510463Y-3509493D01*
X-13451498Y-3399179D01*
X-13415188Y-3279481D01*
X-13402928Y-3154999D01*
X-13402928Y-3053499D01*
X-11088072Y-3053499D01*
X-11088072Y-3650000D01*
X-11075812Y-3774482D01*
X-11039502Y-3894180D01*
X-10980537Y-4004494D01*
X-10901185Y-4101185D01*
X-10804494Y-4180537D01*
X-10694180Y-4239502D01*
X-10621620Y-4261513D01*
X-10753475Y-4393368D01*
X-10915990Y-4636589D01*
X-11027932Y-4906842D01*
X-11085000Y-5193740D01*
X-11085000Y-5486260D01*
X-11027932Y-5773158D01*
X-10915990Y-6043411D01*
X-10753475Y-6286632D01*
X-10546632Y-6493475D01*
X-10303411Y-6655990D01*
X-10033158Y-6767932D01*
X-9746260Y-6825000D01*
X-9453740Y-6825000D01*
X-9166842Y-6767932D01*
X-8896589Y-6655990D01*
X-8653368Y-6493475D01*
X-8446525Y-6286632D01*
X-8284010Y-6043411D01*
X-8172068Y-5773158D01*
X-8115000Y-5486260D01*
X-8115000Y-5193740D01*
X-8172068Y-4906842D01*
X-8284010Y-4636589D01*
X-8446525Y-4393368D01*
X-8578380Y-4261513D01*
X-8505820Y-4239502D01*
X-8395506Y-4180537D01*
X-8298815Y-4101185D01*
X-8219463Y-4004494D01*
X-8160498Y-3894180D01*
X-8124188Y-3774482D01*
X-8111928Y-3650000D01*
X-8111928Y-1950000D01*
X-8124188Y-1825518D01*
X-8160498Y-1705820D01*
X-8219463Y-1595506D01*
X-8298815Y-1498815D01*
X-8395506Y-1419463D01*
X-8505820Y-1360498D01*
X-8625518Y-1324188D01*
X-8750000Y-1311928D01*
X-10450000Y-1311928D01*
X-10574482Y-1324188D01*
X-10694180Y-1360498D01*
X-10804494Y-1419463D01*
X-10901185Y-1498815D01*
X-10980537Y-1595506D01*
X-11013139Y-1656499D01*
X-13402928Y-1656499D01*
X-13402928Y-1554999D01*
X-13415188Y-1430517D01*
X-13451498Y-1310819D01*
X-13510463Y-1200505D01*
X-13589815Y-1103814D01*
X-13612741Y-1084999D01*
X-13589815Y-1066184D01*
X-13510463Y-969493D01*
X-13451498Y-859179D01*
X-13415188Y-739481D01*
X-13402928Y-614999D01*
X-13402928Y985001D01*
X-13415188Y1109483D01*
X-13451498Y1229181D01*
X-13510463Y1339495D01*
X-13589815Y1436186D01*
X-13686506Y1515538D01*
X-13796820Y1574503D01*
X-13916518Y1610813D01*
X-14041000Y1623073D01*
X-16241000Y1623073D01*
X-16365482Y1610813D01*
X-16485180Y1574503D01*
X-16595494Y1515538D01*
X-16692185Y1436186D01*
X-16771537Y1339495D01*
X-16830502Y1229181D01*
X-16866812Y1109483D01*
X-16879072Y985001D01*
X-16879072Y663308D01*
X-16886171Y654658D01*
X-17469657Y71171D01*
X-17496302Y49304D01*
X-17518170Y22658D01*
X-17518174Y22654D01*
X-17583591Y-57056D01*
X-17648451Y-178401D01*
X-17688392Y-310070D01*
X-17701878Y-446999D01*
X-22102928Y-446999D01*
X-22102928Y985001D01*
X-22115188Y1109483D01*
X-22151498Y1229181D01*
X-22210463Y1339495D01*
X-22289815Y1436186D01*
X-22386506Y1515538D01*
X-22496820Y1574503D01*
X-22616518Y1610813D01*
X-22741000Y1623073D01*
X-24941000Y1623073D01*
X-25065482Y1610813D01*
X-25185180Y1574503D01*
X-25295494Y1515538D01*
X-25392185Y1436186D01*
X-25471537Y1339495D01*
X-25530502Y1229181D01*
X-25566812Y1109483D01*
X-25579072Y985001D01*
X-25579072Y663308D01*
X-25586171Y654658D01*
X-29144656Y-2903828D01*
X-29171303Y-2925697D01*
X-29193171Y-2952343D01*
X-29193174Y-2952346D01*
X-29258591Y-3032056D01*
X-29302895Y-3114943D01*
X-29323452Y-3153403D01*
X-29363393Y-3285070D01*
X-29373500Y-3387691D01*
X-29373500Y-3387701D01*
X-29376878Y-3421999D01*
X-29373500Y-3456297D01*
X-29373499Y-6494163D01*
X-29448942Y-6534488D01*
X-29581623Y-6643377D01*
X-29690512Y-6776058D01*
X-29771423Y-6927433D01*
X-29821248Y-7091684D01*
X-29838072Y-7262500D01*
X-29838072Y-7737500D01*
X-29821248Y-7908316D01*
X-29771423Y-8072567D01*
X-29690512Y-8223942D01*
X-29581623Y-8356623D01*
X-29448942Y-8465512D01*
X-29297567Y-8546423D01*
X-29133316Y-8596248D01*
X-28962500Y-8613072D01*
X-28550899Y-8613072D01*
X-29339327Y-9401500D01*
X-30316259Y-9401500D01*
X-30319463Y-9395506D01*
X-30398815Y-9298815D01*
X-30495506Y-9219463D01*
X-30605820Y-9160498D01*
X-30725518Y-9124188D01*
X-30850000Y-9111928D01*
X-31750000Y-9111928D01*
X-31874482Y-9124188D01*
X-31994180Y-9160498D01*
X-32104494Y-9219463D01*
X-32201185Y-9298815D01*
X-32280537Y-9395506D01*
X-32310467Y-9451500D01*
X-34089533Y-9451500D01*
X-34119463Y-9395506D01*
X-34198815Y-9298815D01*
X-34295506Y-9219463D01*
X-34405820Y-9160498D01*
X-34525518Y-9124188D01*
X-34617834Y-9115096D01*
X-34630339Y-9104834D01*
X-35404825Y-8330348D01*
X-35426697Y-8303697D01*
X-35533057Y-8216409D01*
X-35654403Y-8151548D01*
X-35786070Y-8111607D01*
X-35888691Y-8101500D01*
X-35888702Y-8101500D01*
X-35923000Y-8098122D01*
X-35957298Y-8101500D01*
X-39511928Y-8101500D01*
X-39511928Y-7950000D01*
X-39524188Y-7825518D01*
X-39560498Y-7705820D01*
X-39619463Y-7595506D01*
X-39698815Y-7498815D01*
X-39795506Y-7419463D01*
X-39905820Y-7360498D01*
X-39978380Y-7338487D01*
X-39846525Y-7206632D01*
X-39684010Y-6963411D01*
X-39572068Y-6693158D01*
X-39515000Y-6406260D01*
X-39515000Y-6113740D01*
X-39572068Y-5826842D01*
X-39574103Y-5821930D01*
X-36210672Y-2458500D01*
X-33418024Y-2458500D01*
X-33415990Y-2463411D01*
X-33253475Y-2706632D01*
X-33121620Y-2838487D01*
X-33194180Y-2860498D01*
X-33304494Y-2919463D01*
X-33401185Y-2998815D01*
X-33480537Y-3095506D01*
X-33539502Y-3205820D01*
X-33575812Y-3325518D01*
X-33588072Y-3450000D01*
X-33588072Y-5150000D01*
X-33575812Y-5274482D01*
X-33539502Y-5394180D01*
X-33480537Y-5504494D01*
X-33401185Y-5601185D01*
X-33304494Y-5680537D01*
X-33194180Y-5739502D01*
X-33074482Y-5775812D01*
X-32950000Y-5788072D01*
X-31250000Y-5788072D01*
X-31125518Y-5775812D01*
X-31005820Y-5739502D01*
X-30895506Y-5680537D01*
X-30798815Y-5601185D01*
X-30719463Y-5504494D01*
X-30660498Y-5394180D01*
X-30624188Y-5274482D01*
X-30611928Y-5150000D01*
X-30611928Y-3450000D01*
X-30624188Y-3325518D01*
X-30660498Y-3205820D01*
X-30719463Y-3095506D01*
X-30798815Y-2998815D01*
X-30895506Y-2919463D01*
X-31005820Y-2860498D01*
X-31078380Y-2838487D01*
X-30946525Y-2706632D01*
X-30784010Y-2463411D01*
X-30672068Y-2193158D01*
X-30615000Y-1906260D01*
X-30615000Y-1613740D01*
X-30672068Y-1326842D01*
X-30784010Y-1056589D01*
X-30946525Y-813368D01*
X-31153368Y-606525D01*
X-31396589Y-444010D01*
X-31666842Y-332068D01*
X-31953740Y-275000D01*
X-32246260Y-275000D01*
X-32533158Y-332068D01*
X-32803411Y-444010D01*
X-33046632Y-606525D01*
X-33253475Y-813368D01*
X-33415990Y-1056589D01*
X-33418024Y-1061500D01*
X-36465703Y-1061500D01*
X-36500001Y-1058122D01*
X-36534299Y-1061500D01*
X-36534309Y-1061500D01*
X-36636930Y-1071607D01*
X-36768597Y-1111548D01*
X-36768599Y-1111549D01*
X-36889944Y-1176409D01*
X-36969654Y-1241826D01*
X-36969657Y-1241829D01*
X-36996303Y-1263697D01*
X-37018171Y-1290343D01*
X-40561930Y-4834103D01*
X-40566842Y-4832068D01*
X-40853740Y-4775000D01*
X-41146260Y-4775000D01*
X-41433158Y-4832068D01*
X-41703411Y-4944010D01*
X-41946632Y-5106525D01*
X-42153475Y-5313368D01*
X-42315990Y-5556589D01*
X-42427932Y-5826842D01*
X-42485000Y-6113740D01*
X-42485000Y-6406260D01*
X-42427932Y-6693158D01*
X-42315990Y-6963411D01*
X-42153475Y-7206632D01*
X-42021620Y-7338487D01*
X-42094180Y-7360498D01*
X-42204494Y-7419463D01*
X-42301185Y-7498815D01*
X-42380537Y-7595506D01*
X-42439502Y-7705820D01*
X-42475812Y-7825518D01*
X-42488072Y-7950000D01*
X-44345950Y-7950000D01*
X-44345950Y4345950D01*
X-5654050Y4345950D01*
X-5654049Y-24345950D01*
G37*
X-5654049Y-24345950D02*
X-44345950Y-24345950D01*
X-44345950Y-16056891D01*
X-42481481Y-16056891D01*
X-42384157Y-16331252D01*
X-42235178Y-16581355D01*
X-42040269Y-16797588D01*
X-41806920Y-16971641D01*
X-41544099Y-17096825D01*
X-41396890Y-17141476D01*
X-41167000Y-17020155D01*
X-41167000Y-15827000D01*
X-42360814Y-15827000D01*
X-42481481Y-16056891D01*
X-44345950Y-16056891D01*
X-44345950Y-15343109D01*
X-42481481Y-15343109D01*
X-42360814Y-15573000D01*
X-41167000Y-15573000D01*
X-41167000Y-14379845D01*
X-41396890Y-14258524D01*
X-41544099Y-14303175D01*
X-41806920Y-14428359D01*
X-42040269Y-14602412D01*
X-42235178Y-14818645D01*
X-42384157Y-15068748D01*
X-42481481Y-15343109D01*
X-44345950Y-15343109D01*
X-44345950Y-12450000D01*
X-36188072Y-12450000D01*
X-36175812Y-12574482D01*
X-36139502Y-12694180D01*
X-36080537Y-12804494D01*
X-36001185Y-12901185D01*
X-35904494Y-12980537D01*
X-35794180Y-13039502D01*
X-35674482Y-13075812D01*
X-35550000Y-13088072D01*
X-35385750Y-13085000D01*
X-35227000Y-12926250D01*
X-35227000Y-12177000D01*
X-34973000Y-12177000D01*
X-34973000Y-12926250D01*
X-34814250Y-13085000D01*
X-34650000Y-13088072D01*
X-34525518Y-13075812D01*
X-34405820Y-13039502D01*
X-34295506Y-12980537D01*
X-34198815Y-12901185D01*
X-34119463Y-12804494D01*
X-34060498Y-12694180D01*
X-34024188Y-12574482D01*
X-34011928Y-12450000D01*
X-34015000Y-12335750D01*
X-34173750Y-12177000D01*
X-34973000Y-12177000D01*
X-35227000Y-12177000D01*
X-36026250Y-12177000D01*
X-36185000Y-12335750D01*
X-36188072Y-12450000D01*
X-44345950Y-12450000D01*
X-44345950Y-7950000D01*
X-42488072Y-7950000D01*
X-42488072Y-9650000D01*
X-42475812Y-9774482D01*
X-42439502Y-9894180D01*
X-42380537Y-10004494D01*
X-42301185Y-10101185D01*
X-42204494Y-10180537D01*
X-42094180Y-10239502D01*
X-41974482Y-10275812D01*
X-41850000Y-10288072D01*
X-40150000Y-10288072D01*
X-40025518Y-10275812D01*
X-39905820Y-10239502D01*
X-39795506Y-10180537D01*
X-39698815Y-10101185D01*
X-39619463Y-10004494D01*
X-39560498Y-9894180D01*
X-39524188Y-9774482D01*
X-39511928Y-9650000D01*
X-39511928Y-9498500D01*
X-36212327Y-9498500D01*
X-36154748Y-9556079D01*
X-36175812Y-9625518D01*
X-36188072Y-9750000D01*
X-36188072Y-10550000D01*
X-36175812Y-10674482D01*
X-36139502Y-10794180D01*
X-36080537Y-10904494D01*
X-36001185Y-11001185D01*
X-35904494Y-11080537D01*
X-35868082Y-11100000D01*
X-35904494Y-11119463D01*
X-36001185Y-11198815D01*
X-36080537Y-11295506D01*
X-36139502Y-11405820D01*
X-36175812Y-11525518D01*
X-36188072Y-11650000D01*
X-36185000Y-11764250D01*
X-36026250Y-11923000D01*
X-35227000Y-11923000D01*
X-35227000Y-11903000D01*
X-34973000Y-11903000D01*
X-34973000Y-11923000D01*
X-34173750Y-11923000D01*
X-34089143Y-11838393D01*
X-34080537Y-11854494D01*
X-34001185Y-11951185D01*
X-33904494Y-12030537D01*
X-33794180Y-12089502D01*
X-33674482Y-12125812D01*
X-33550000Y-12138072D01*
X-32650000Y-12138072D01*
X-32525518Y-12125812D01*
X-32405820Y-12089502D01*
X-32388072Y-12080015D01*
X-32388072Y-12450000D01*
X-32375812Y-12574482D01*
X-32354748Y-12643920D01*
X-34712327Y-15001500D01*
X-37011928Y-15001500D01*
X-37011928Y-14850000D01*
X-37024188Y-14725518D01*
X-37060498Y-14605820D01*
X-37119463Y-14495506D01*
X-37198815Y-14398815D01*
X-37295506Y-14319463D01*
X-37405820Y-14260498D01*
X-37525518Y-14224188D01*
X-37650000Y-14211928D01*
X-39350000Y-14211928D01*
X-39474482Y-14224188D01*
X-39594180Y-14260498D01*
X-39704494Y-14319463D01*
X-39801185Y-14398815D01*
X-39880537Y-14495506D01*
X-39939502Y-14605820D01*
X-39963966Y-14686466D01*
X-40039731Y-14602412D01*
X-40273080Y-14428359D01*
X-40535901Y-14303175D01*
X-40683110Y-14258524D01*
X-40913000Y-14379845D01*
X-40913000Y-15573000D01*
X-40893000Y-15573000D01*
X-40893000Y-15827000D01*
X-40913000Y-15827000D01*
X-40913000Y-17020155D01*
X-40683110Y-17141476D01*
X-40535901Y-17096825D01*
X-40273080Y-16971641D01*
X-40039731Y-16797588D01*
X-39963966Y-16713534D01*
X-39939502Y-16794180D01*
X-39880537Y-16904494D01*
X-39801185Y-17001185D01*
X-39704494Y-17080537D01*
X-39594180Y-17139502D01*
X-39474482Y-17175812D01*
X-39350000Y-17188072D01*
X-37650000Y-17188072D01*
X-37525518Y-17175812D01*
X-37405820Y-17139502D01*
X-37295506Y-17080537D01*
X-37198815Y-17001185D01*
X-37119463Y-16904494D01*
X-37060498Y-16794180D01*
X-37024188Y-16674482D01*
X-37011928Y-16550000D01*
X-37011928Y-16398500D01*
X-34457298Y-16398500D01*
X-34423000Y-16401878D01*
X-34388702Y-16398500D01*
X-34388691Y-16398500D01*
X-34286070Y-16388393D01*
X-34154403Y-16348452D01*
X-34033057Y-16283591D01*
X-33926697Y-16196303D01*
X-33904825Y-16169652D01*
X-30830338Y-13095166D01*
X-30817834Y-13084904D01*
X-30725518Y-13075812D01*
X-30605820Y-13039502D01*
X-30495506Y-12980537D01*
X-30398815Y-12901185D01*
X-30319463Y-12804494D01*
X-30260498Y-12694180D01*
X-30224188Y-12574482D01*
X-30211928Y-12450000D01*
X-30211928Y-11938095D01*
X-30201185Y-11951185D01*
X-30104494Y-12030537D01*
X-29994180Y-12089502D01*
X-29874482Y-12125812D01*
X-29750000Y-12138072D01*
X-28850000Y-12138072D01*
X-28725518Y-12125812D01*
X-28605820Y-12089502D01*
X-28495506Y-12030537D01*
X-28398815Y-11951185D01*
X-28331615Y-11869301D01*
X-28242889Y-11928586D01*
X-28072729Y-11999068D01*
X-27892089Y-12035000D01*
X-27707911Y-12035000D01*
X-27527271Y-11999068D01*
X-27357111Y-11928586D01*
X-27203972Y-11826262D01*
X-27073738Y-11696028D01*
X-26971414Y-11542889D01*
X-26900932Y-11372729D01*
X-26865000Y-11192089D01*
X-26865000Y-11007911D01*
X-26900932Y-10827271D01*
X-26971414Y-10657111D01*
X-27073738Y-10503972D01*
X-27203972Y-10373738D01*
X-27357111Y-10271414D01*
X-27527271Y-10200932D01*
X-27707911Y-10165000D01*
X-27892089Y-10165000D01*
X-28072729Y-10200932D01*
X-28227009Y-10264836D01*
X-26568442Y-8606270D01*
X-26466684Y-8596248D01*
X-26302433Y-8546423D01*
X-26151058Y-8465512D01*
X-26018377Y-8356623D01*
X-25909488Y-8223942D01*
X-25861146Y-8133499D01*
X-25579072Y-8133499D01*
X-25579072Y-8234999D01*
X-25566812Y-8359481D01*
X-25530502Y-8479179D01*
X-25471537Y-8589493D01*
X-25392185Y-8686184D01*
X-25295494Y-8765536D01*
X-25185180Y-8824501D01*
X-25065482Y-8860811D01*
X-24941000Y-8873071D01*
X-22741000Y-8873071D01*
X-22698499Y-8868885D01*
X-22698500Y-12557000D01*
X-22750000Y-12551928D01*
X-24950000Y-12551928D01*
X-25074482Y-12564188D01*
X-25194180Y-12600498D01*
X-25304494Y-12659463D01*
X-25401185Y-12738815D01*
X-25480537Y-12835506D01*
X-25539502Y-12945820D01*
X-25575812Y-13065518D01*
X-25588072Y-13190000D01*
X-25588072Y-13511693D01*
X-25595171Y-13520343D01*
X-29369656Y-17294829D01*
X-29396303Y-17316698D01*
X-29418171Y-17343344D01*
X-29418174Y-17343347D01*
X-29483591Y-17423057D01*
X-29512394Y-17476944D01*
X-29548452Y-17544404D01*
X-29588393Y-17676071D01*
X-29598500Y-17778692D01*
X-29598500Y-17778702D01*
X-29601878Y-17813000D01*
X-29598500Y-17847298D01*
X-29598499Y-20694163D01*
X-29673942Y-20734488D01*
X-29806623Y-20843377D01*
X-29915512Y-20976058D01*
X-29996423Y-21127433D01*
X-30046248Y-21291684D01*
X-30063072Y-21462500D01*
X-30063072Y-21937500D01*
X-30046248Y-22108316D01*
X-29996423Y-22272567D01*
X-29915512Y-22423942D01*
X-29806623Y-22556623D01*
X-29673942Y-22665512D01*
X-29522567Y-22746423D01*
X-29358316Y-22796248D01*
X-29187500Y-22813072D01*
X-28612500Y-22813072D01*
X-28441684Y-22796248D01*
X-28277433Y-22746423D01*
X-28126058Y-22665512D01*
X-28025000Y-22582575D01*
X-27923942Y-22665512D01*
X-27772567Y-22746423D01*
X-27608316Y-22796248D01*
X-27437500Y-22813072D01*
X-26862500Y-22813072D01*
X-26691684Y-22796248D01*
X-26527433Y-22746423D01*
X-26376058Y-22665512D01*
X-26243377Y-22556623D01*
X-26134488Y-22423942D01*
X-26072783Y-22308500D01*
X-25588072Y-22308500D01*
X-25588072Y-22410000D01*
X-25575812Y-22534482D01*
X-25539502Y-22654180D01*
X-25480537Y-22764494D01*
X-25401185Y-22861185D01*
X-25304494Y-22940537D01*
X-25194180Y-22999502D01*
X-25074482Y-23035812D01*
X-24950000Y-23048072D01*
X-22750000Y-23048072D01*
X-22625518Y-23035812D01*
X-22505820Y-22999502D01*
X-22395506Y-22940537D01*
X-22298815Y-22861185D01*
X-22219463Y-22764494D01*
X-22160498Y-22654180D01*
X-22124188Y-22534482D01*
X-22111928Y-22410000D01*
X-22111928Y-22088307D01*
X-22104825Y-22079652D01*
X-20630338Y-20605166D01*
X-20603697Y-20583303D01*
X-20581834Y-20556663D01*
X-20581826Y-20556655D01*
X-20516409Y-20476944D01*
X-20451549Y-20355599D01*
X-20451548Y-20355597D01*
X-20411607Y-20223930D01*
X-20401500Y-20121309D01*
X-20401500Y-20121299D01*
X-20398122Y-20087001D01*
X-20401500Y-20052703D01*
X-20401500Y-3903296D01*
X-20398122Y-3868998D01*
X-20401500Y-3834700D01*
X-20401500Y-3834690D01*
X-20411607Y-3732069D01*
X-20451548Y-3600402D01*
X-20504210Y-3501878D01*
X-20516409Y-3479055D01*
X-20581827Y-3399344D01*
X-20581833Y-3399338D01*
X-20603698Y-3372696D01*
X-20630338Y-3350833D01*
X-22095825Y-1885347D01*
X-22102928Y-1876692D01*
X-22102928Y-1554999D01*
X-22115188Y-1430517D01*
X-22151498Y-1310819D01*
X-22210463Y-1200505D01*
X-22289815Y-1103814D01*
X-22312741Y-1084999D01*
X-22289815Y-1066184D01*
X-22210463Y-969493D01*
X-22151498Y-859179D01*
X-22115188Y-739481D01*
X-22102928Y-614999D01*
X-22102928Y-446999D01*
X-17701878Y-446999D01*
X-17698499Y-481307D01*
X-17698500Y-13332702D01*
X-17701878Y-13367000D01*
X-17698500Y-13401298D01*
X-17698500Y-13401308D01*
X-17688393Y-13503929D01*
X-17659232Y-13600058D01*
X-17648451Y-13635598D01*
X-17583591Y-13756943D01*
X-17518174Y-13836653D01*
X-17518171Y-13836656D01*
X-17496303Y-13863302D01*
X-17469656Y-13885171D01*
X-16895173Y-14459655D01*
X-16888072Y-14468307D01*
X-16888072Y-14790000D01*
X-16875812Y-14914482D01*
X-16839502Y-15034180D01*
X-16780537Y-15144494D01*
X-16701185Y-15241185D01*
X-16678259Y-15260000D01*
X-16701185Y-15278815D01*
X-16780537Y-15375506D01*
X-16796549Y-15405462D01*
X-16800000Y-15405122D01*
X-16936929Y-15418608D01*
X-17068598Y-15458549D01*
X-17189943Y-15523409D01*
X-17296303Y-15610697D01*
X-17383591Y-15717057D01*
X-17448451Y-15838402D01*
X-17488392Y-15970071D01*
X-17501878Y-16107000D01*
X-17488392Y-16243929D01*
X-17448451Y-16375598D01*
X-17383591Y-16496943D01*
X-17318174Y-16576653D01*
X-16895175Y-16999652D01*
X-16888072Y-17008307D01*
X-16888072Y-17330000D01*
X-16875812Y-17454482D01*
X-16839502Y-17574180D01*
X-16780537Y-17684494D01*
X-16701185Y-17781185D01*
X-16678259Y-17800000D01*
X-16701185Y-17818815D01*
X-16780537Y-17915506D01*
X-16839502Y-18025820D01*
X-16875812Y-18145518D01*
X-16888072Y-18270000D01*
X-16888072Y-19870000D01*
X-16875812Y-19994482D01*
X-16839502Y-20114180D01*
X-16780537Y-20224494D01*
X-16701185Y-20321185D01*
X-16678259Y-20340000D01*
X-16701185Y-20358815D01*
X-16780537Y-20455506D01*
X-16839502Y-20565820D01*
X-16875812Y-20685518D01*
X-16888072Y-20810000D01*
X-16888072Y-22410000D01*
X-16875812Y-22534482D01*
X-16839502Y-22654180D01*
X-16780537Y-22764494D01*
X-16701185Y-22861185D01*
X-16604494Y-22940537D01*
X-16494180Y-22999502D01*
X-16374482Y-23035812D01*
X-16250000Y-23048072D01*
X-14050000Y-23048072D01*
X-13925518Y-23035812D01*
X-13805820Y-22999502D01*
X-13695506Y-22940537D01*
X-13598815Y-22861185D01*
X-13519463Y-22764494D01*
X-13460498Y-22654180D01*
X-13424188Y-22534482D01*
X-13411928Y-22410000D01*
X-13411928Y-22088307D01*
X-13404825Y-22079652D01*
X-9313244Y-17988072D01*
X-8550000Y-17988072D01*
X-8425518Y-17975812D01*
X-8305820Y-17939502D01*
X-8195506Y-17880537D01*
X-8098815Y-17801185D01*
X-8019463Y-17704494D01*
X-7960498Y-17594180D01*
X-7924188Y-17474482D01*
X-7911928Y-17350000D01*
X-7911928Y-16978307D01*
X-7904825Y-16969652D01*
X-7889847Y-16954674D01*
X-7863196Y-16932802D01*
X-7775908Y-16826442D01*
X-7711047Y-16705096D01*
X-7671106Y-16573429D01*
X-7660999Y-16470808D01*
X-7660999Y-16470797D01*
X-7657621Y-16436499D01*
X-7660999Y-16402201D01*
X-7660999Y-13023798D01*
X-7657621Y-12989500D01*
X-7660999Y-12955202D01*
X-7660999Y-12955191D01*
X-7671106Y-12852570D01*
X-7711047Y-12720903D01*
X-7775908Y-12599557D01*
X-7794420Y-12577000D01*
X-7841325Y-12519846D01*
X-7841332Y-12519839D01*
X-7863197Y-12493197D01*
X-7889837Y-12471334D01*
X-13395825Y-6965347D01*
X-13402928Y-6956692D01*
X-13402928Y-6634999D01*
X-13415188Y-6510517D01*
X-13451498Y-6390819D01*
X-13510463Y-6280505D01*
X-13589815Y-6183814D01*
X-13612741Y-6164999D01*
X-13589815Y-6146184D01*
X-13510463Y-6049493D01*
X-13451498Y-5939179D01*
X-13415188Y-5819481D01*
X-13402928Y-5694999D01*
X-13402928Y-4094999D01*
X-13415188Y-3970517D01*
X-13451498Y-3850819D01*
X-13510463Y-3740505D01*
X-13589815Y-3643814D01*
X-13612741Y-3624999D01*
X-13589815Y-3606184D01*
X-13510463Y-3509493D01*
X-13451498Y-3399179D01*
X-13415188Y-3279481D01*
X-13402928Y-3154999D01*
X-13402928Y-3053499D01*
X-11088072Y-3053499D01*
X-11088072Y-3650000D01*
X-11075812Y-3774482D01*
X-11039502Y-3894180D01*
X-10980537Y-4004494D01*
X-10901185Y-4101185D01*
X-10804494Y-4180537D01*
X-10694180Y-4239502D01*
X-10621620Y-4261513D01*
X-10753475Y-4393368D01*
X-10915990Y-4636589D01*
X-11027932Y-4906842D01*
X-11085000Y-5193740D01*
X-11085000Y-5486260D01*
X-11027932Y-5773158D01*
X-10915990Y-6043411D01*
X-10753475Y-6286632D01*
X-10546632Y-6493475D01*
X-10303411Y-6655990D01*
X-10033158Y-6767932D01*
X-9746260Y-6825000D01*
X-9453740Y-6825000D01*
X-9166842Y-6767932D01*
X-8896589Y-6655990D01*
X-8653368Y-6493475D01*
X-8446525Y-6286632D01*
X-8284010Y-6043411D01*
X-8172068Y-5773158D01*
X-8115000Y-5486260D01*
X-8115000Y-5193740D01*
X-8172068Y-4906842D01*
X-8284010Y-4636589D01*
X-8446525Y-4393368D01*
X-8578380Y-4261513D01*
X-8505820Y-4239502D01*
X-8395506Y-4180537D01*
X-8298815Y-4101185D01*
X-8219463Y-4004494D01*
X-8160498Y-3894180D01*
X-8124188Y-3774482D01*
X-8111928Y-3650000D01*
X-8111928Y-1950000D01*
X-8124188Y-1825518D01*
X-8160498Y-1705820D01*
X-8219463Y-1595506D01*
X-8298815Y-1498815D01*
X-8395506Y-1419463D01*
X-8505820Y-1360498D01*
X-8625518Y-1324188D01*
X-8750000Y-1311928D01*
X-10450000Y-1311928D01*
X-10574482Y-1324188D01*
X-10694180Y-1360498D01*
X-10804494Y-1419463D01*
X-10901185Y-1498815D01*
X-10980537Y-1595506D01*
X-11013139Y-1656499D01*
X-13402928Y-1656499D01*
X-13402928Y-1554999D01*
X-13415188Y-1430517D01*
X-13451498Y-1310819D01*
X-13510463Y-1200505D01*
X-13589815Y-1103814D01*
X-13612741Y-1084999D01*
X-13589815Y-1066184D01*
X-13510463Y-969493D01*
X-13451498Y-859179D01*
X-13415188Y-739481D01*
X-13402928Y-614999D01*
X-13402928Y985001D01*
X-13415188Y1109483D01*
X-13451498Y1229181D01*
X-13510463Y1339495D01*
X-13589815Y1436186D01*
X-13686506Y1515538D01*
X-13796820Y1574503D01*
X-13916518Y1610813D01*
X-14041000Y1623073D01*
X-16241000Y1623073D01*
X-16365482Y1610813D01*
X-16485180Y1574503D01*
X-16595494Y1515538D01*
X-16692185Y1436186D01*
X-16771537Y1339495D01*
X-16830502Y1229181D01*
X-16866812Y1109483D01*
X-16879072Y985001D01*
X-16879072Y663308D01*
X-16886171Y654658D01*
X-17469657Y71171D01*
X-17496302Y49304D01*
X-17518170Y22658D01*
X-17518174Y22654D01*
X-17583591Y-57056D01*
X-17648451Y-178401D01*
X-17688392Y-310070D01*
X-17701878Y-446999D01*
X-22102928Y-446999D01*
X-22102928Y985001D01*
X-22115188Y1109483D01*
X-22151498Y1229181D01*
X-22210463Y1339495D01*
X-22289815Y1436186D01*
X-22386506Y1515538D01*
X-22496820Y1574503D01*
X-22616518Y1610813D01*
X-22741000Y1623073D01*
X-24941000Y1623073D01*
X-25065482Y1610813D01*
X-25185180Y1574503D01*
X-25295494Y1515538D01*
X-25392185Y1436186D01*
X-25471537Y1339495D01*
X-25530502Y1229181D01*
X-25566812Y1109483D01*
X-25579072Y985001D01*
X-25579072Y663308D01*
X-25586171Y654658D01*
X-29144656Y-2903828D01*
X-29171303Y-2925697D01*
X-29193171Y-2952343D01*
X-29193174Y-2952346D01*
X-29258591Y-3032056D01*
X-29302895Y-3114943D01*
X-29323452Y-3153403D01*
X-29363393Y-3285070D01*
X-29373500Y-3387691D01*
X-29373500Y-3387701D01*
X-29376878Y-3421999D01*
X-29373500Y-3456297D01*
X-29373499Y-6494163D01*
X-29448942Y-6534488D01*
X-29581623Y-6643377D01*
X-29690512Y-6776058D01*
X-29771423Y-6927433D01*
X-29821248Y-7091684D01*
X-29838072Y-7262500D01*
X-29838072Y-7737500D01*
X-29821248Y-7908316D01*
X-29771423Y-8072567D01*
X-29690512Y-8223942D01*
X-29581623Y-8356623D01*
X-29448942Y-8465512D01*
X-29297567Y-8546423D01*
X-29133316Y-8596248D01*
X-28962500Y-8613072D01*
X-28550899Y-8613072D01*
X-29339327Y-9401500D01*
X-30316259Y-9401500D01*
X-30319463Y-9395506D01*
X-30398815Y-9298815D01*
X-30495506Y-9219463D01*
X-30605820Y-9160498D01*
X-30725518Y-9124188D01*
X-30850000Y-9111928D01*
X-31750000Y-9111928D01*
X-31874482Y-9124188D01*
X-31994180Y-9160498D01*
X-32104494Y-9219463D01*
X-32201185Y-9298815D01*
X-32280537Y-9395506D01*
X-32310467Y-9451500D01*
X-34089533Y-9451500D01*
X-34119463Y-9395506D01*
X-34198815Y-9298815D01*
X-34295506Y-9219463D01*
X-34405820Y-9160498D01*
X-34525518Y-9124188D01*
X-34617834Y-9115096D01*
X-34630339Y-9104834D01*
X-35404825Y-8330348D01*
X-35426697Y-8303697D01*
X-35533057Y-8216409D01*
X-35654403Y-8151548D01*
X-35786070Y-8111607D01*
X-35888691Y-8101500D01*
X-35888702Y-8101500D01*
X-35923000Y-8098122D01*
X-35957298Y-8101500D01*
X-39511928Y-8101500D01*
X-39511928Y-7950000D01*
X-39524188Y-7825518D01*
X-39560498Y-7705820D01*
X-39619463Y-7595506D01*
X-39698815Y-7498815D01*
X-39795506Y-7419463D01*
X-39905820Y-7360498D01*
X-39978380Y-7338487D01*
X-39846525Y-7206632D01*
X-39684010Y-6963411D01*
X-39572068Y-6693158D01*
X-39515000Y-6406260D01*
X-39515000Y-6113740D01*
X-39572068Y-5826842D01*
X-39574103Y-5821930D01*
X-36210672Y-2458500D01*
X-33418024Y-2458500D01*
X-33415990Y-2463411D01*
X-33253475Y-2706632D01*
X-33121620Y-2838487D01*
X-33194180Y-2860498D01*
X-33304494Y-2919463D01*
X-33401185Y-2998815D01*
X-33480537Y-3095506D01*
X-33539502Y-3205820D01*
X-33575812Y-3325518D01*
X-33588072Y-3450000D01*
X-33588072Y-5150000D01*
X-33575812Y-5274482D01*
X-33539502Y-5394180D01*
X-33480537Y-5504494D01*
X-33401185Y-5601185D01*
X-33304494Y-5680537D01*
X-33194180Y-5739502D01*
X-33074482Y-5775812D01*
X-32950000Y-5788072D01*
X-31250000Y-5788072D01*
X-31125518Y-5775812D01*
X-31005820Y-5739502D01*
X-30895506Y-5680537D01*
X-30798815Y-5601185D01*
X-30719463Y-5504494D01*
X-30660498Y-5394180D01*
X-30624188Y-5274482D01*
X-30611928Y-5150000D01*
X-30611928Y-3450000D01*
X-30624188Y-3325518D01*
X-30660498Y-3205820D01*
X-30719463Y-3095506D01*
X-30798815Y-2998815D01*
X-30895506Y-2919463D01*
X-31005820Y-2860498D01*
X-31078380Y-2838487D01*
X-30946525Y-2706632D01*
X-30784010Y-2463411D01*
X-30672068Y-2193158D01*
X-30615000Y-1906260D01*
X-30615000Y-1613740D01*
X-30672068Y-1326842D01*
X-30784010Y-1056589D01*
X-30946525Y-813368D01*
X-31153368Y-606525D01*
X-31396589Y-444010D01*
X-31666842Y-332068D01*
X-31953740Y-275000D01*
X-32246260Y-275000D01*
X-32533158Y-332068D01*
X-32803411Y-444010D01*
X-33046632Y-606525D01*
X-33253475Y-813368D01*
X-33415990Y-1056589D01*
X-33418024Y-1061500D01*
X-36465703Y-1061500D01*
X-36500001Y-1058122D01*
X-36534299Y-1061500D01*
X-36534309Y-1061500D01*
X-36636930Y-1071607D01*
X-36768597Y-1111548D01*
X-36768599Y-1111549D01*
X-36889944Y-1176409D01*
X-36969654Y-1241826D01*
X-36969657Y-1241829D01*
X-36996303Y-1263697D01*
X-37018171Y-1290343D01*
X-40561930Y-4834103D01*
X-40566842Y-4832068D01*
X-40853740Y-4775000D01*
X-41146260Y-4775000D01*
X-41433158Y-4832068D01*
X-41703411Y-4944010D01*
X-41946632Y-5106525D01*
X-42153475Y-5313368D01*
X-42315990Y-5556589D01*
X-42427932Y-5826842D01*
X-42485000Y-6113740D01*
X-42485000Y-6406260D01*
X-42427932Y-6693158D01*
X-42315990Y-6963411D01*
X-42153475Y-7206632D01*
X-42021620Y-7338487D01*
X-42094180Y-7360498D01*
X-42204494Y-7419463D01*
X-42301185Y-7498815D01*
X-42380537Y-7595506D01*
X-42439502Y-7705820D01*
X-42475812Y-7825518D01*
X-42488072Y-7950000D01*
X-44345950Y-7950000D01*
X-44345950Y4345950D01*
X-5654050Y4345950D01*
X-5654049Y-24345950D01*
M02*
