G04 #@! TF.GenerationSoftware,KiCad,Pcbnew,(5.1.5-0)*
G04 #@! TF.CreationDate,2022-03-29T15:48:06-06:00*
G04 #@! TF.ProjectId,polarity_swap,706f6c61-7269-4747-995f-737761702e6b,1*
G04 #@! TF.SameCoordinates,Original*
G04 #@! TF.FileFunction,Copper,L2,Bot*
G04 #@! TF.FilePolarity,Positive*
%FSLAX46Y46*%
G04 Gerber Fmt 4.6, Leading zero omitted, Abs format (unit mm)*
G04 Created by KiCad (PCBNEW (5.1.5-0)) date 2022-03-29 15:48:06*
%MOMM*%
%LPD*%
G04 APERTURE LIST*
%ADD10O,1.700000X1.700000*%
%ADD11R,1.700000X1.700000*%
%ADD12C,0.600000*%
%ADD13C,0.127000*%
%ADD14C,0.254000*%
G04 APERTURE END LIST*
D10*
X-9600000Y-5340000D03*
D11*
X-9600000Y-2800000D03*
D10*
X-9400000Y-13960000D03*
D11*
X-9400000Y-16500000D03*
D10*
X-41000000Y-6260000D03*
D11*
X-41000000Y-8800000D03*
D10*
X-41040000Y-15700000D03*
D11*
X-38500000Y-15700000D03*
D10*
X-32100000Y-1760000D03*
D11*
X-32100000Y-4300000D03*
D12*
X-25800000Y-1600000D03*
X-27800000Y-11100000D03*
X-13500000Y-16500000D03*
D13*
X-31940000Y-1600000D02*
X-32100000Y-1760000D01*
X-25800000Y-1600000D02*
X-31940000Y-1600000D01*
X-31123000Y-4300000D02*
X-32100000Y-4300000D01*
X-27800000Y-7623000D02*
X-31123000Y-4300000D01*
X-27800000Y-11100000D02*
X-27800000Y-7623000D01*
X-13500000Y-9240000D02*
X-9600000Y-5340000D01*
X-13500000Y-16500000D02*
X-13500000Y-9240000D01*
D14*
G36*
X-5654049Y-24345950D02*
G01*
X-44345950Y-24345950D01*
X-44345950Y-16056891D01*
X-42481481Y-16056891D01*
X-42384157Y-16331252D01*
X-42235178Y-16581355D01*
X-42040269Y-16797588D01*
X-41806920Y-16971641D01*
X-41544099Y-17096825D01*
X-41396890Y-17141476D01*
X-41167000Y-17020155D01*
X-41167000Y-15827000D01*
X-42360814Y-15827000D01*
X-42481481Y-16056891D01*
X-44345950Y-16056891D01*
X-44345950Y-15343109D01*
X-42481481Y-15343109D01*
X-42360814Y-15573000D01*
X-41167000Y-15573000D01*
X-41167000Y-14379845D01*
X-40913000Y-14379845D01*
X-40913000Y-15573000D01*
X-40893000Y-15573000D01*
X-40893000Y-15827000D01*
X-40913000Y-15827000D01*
X-40913000Y-17020155D01*
X-40683110Y-17141476D01*
X-40535901Y-17096825D01*
X-40273080Y-16971641D01*
X-40039731Y-16797588D01*
X-39963966Y-16713534D01*
X-39939502Y-16794180D01*
X-39880537Y-16904494D01*
X-39801185Y-17001185D01*
X-39704494Y-17080537D01*
X-39594180Y-17139502D01*
X-39474482Y-17175812D01*
X-39350000Y-17188072D01*
X-37650000Y-17188072D01*
X-37525518Y-17175812D01*
X-37405820Y-17139502D01*
X-37295506Y-17080537D01*
X-37198815Y-17001185D01*
X-37119463Y-16904494D01*
X-37060498Y-16794180D01*
X-37024188Y-16674482D01*
X-37011928Y-16550000D01*
X-37011928Y-16407911D01*
X-14435000Y-16407911D01*
X-14435000Y-16592089D01*
X-14399068Y-16772729D01*
X-14328586Y-16942889D01*
X-14226262Y-17096028D01*
X-14096028Y-17226262D01*
X-13942889Y-17328586D01*
X-13772729Y-17399068D01*
X-13592089Y-17435000D01*
X-13407911Y-17435000D01*
X-13227271Y-17399068D01*
X-13057111Y-17328586D01*
X-12903972Y-17226262D01*
X-12773738Y-17096028D01*
X-12671414Y-16942889D01*
X-12600932Y-16772729D01*
X-12565000Y-16592089D01*
X-12565000Y-16407911D01*
X-12600932Y-16227271D01*
X-12671414Y-16057111D01*
X-12773738Y-15903972D01*
X-12801500Y-15876210D01*
X-12801500Y-15650000D01*
X-10888072Y-15650000D01*
X-10888072Y-17350000D01*
X-10875812Y-17474482D01*
X-10839502Y-17594180D01*
X-10780537Y-17704494D01*
X-10701185Y-17801185D01*
X-10604494Y-17880537D01*
X-10494180Y-17939502D01*
X-10374482Y-17975812D01*
X-10250000Y-17988072D01*
X-8550000Y-17988072D01*
X-8425518Y-17975812D01*
X-8305820Y-17939502D01*
X-8195506Y-17880537D01*
X-8098815Y-17801185D01*
X-8019463Y-17704494D01*
X-7960498Y-17594180D01*
X-7924188Y-17474482D01*
X-7911928Y-17350000D01*
X-7911928Y-15650000D01*
X-7924188Y-15525518D01*
X-7960498Y-15405820D01*
X-8019463Y-15295506D01*
X-8098815Y-15198815D01*
X-8195506Y-15119463D01*
X-8305820Y-15060498D01*
X-8378380Y-15038487D01*
X-8246525Y-14906632D01*
X-8084010Y-14663411D01*
X-7972068Y-14393158D01*
X-7915000Y-14106260D01*
X-7915000Y-13813740D01*
X-7972068Y-13526842D01*
X-8084010Y-13256589D01*
X-8246525Y-13013368D01*
X-8453368Y-12806525D01*
X-8696589Y-12644010D01*
X-8966842Y-12532068D01*
X-9253740Y-12475000D01*
X-9546260Y-12475000D01*
X-9833158Y-12532068D01*
X-10103411Y-12644010D01*
X-10346632Y-12806525D01*
X-10553475Y-13013368D01*
X-10715990Y-13256589D01*
X-10827932Y-13526842D01*
X-10885000Y-13813740D01*
X-10885000Y-14106260D01*
X-10827932Y-14393158D01*
X-10715990Y-14663411D01*
X-10553475Y-14906632D01*
X-10421620Y-15038487D01*
X-10494180Y-15060498D01*
X-10604494Y-15119463D01*
X-10701185Y-15198815D01*
X-10780537Y-15295506D01*
X-10839502Y-15405820D01*
X-10875812Y-15525518D01*
X-10888072Y-15650000D01*
X-12801500Y-15650000D01*
X-12801500Y-9529327D01*
X-10038070Y-6765897D01*
X-10033158Y-6767932D01*
X-9746260Y-6825000D01*
X-9453740Y-6825000D01*
X-9166842Y-6767932D01*
X-8896589Y-6655990D01*
X-8653368Y-6493475D01*
X-8446525Y-6286632D01*
X-8284010Y-6043411D01*
X-8172068Y-5773158D01*
X-8115000Y-5486260D01*
X-8115000Y-5193740D01*
X-8172068Y-4906842D01*
X-8284010Y-4636589D01*
X-8446525Y-4393368D01*
X-8578380Y-4261513D01*
X-8505820Y-4239502D01*
X-8395506Y-4180537D01*
X-8298815Y-4101185D01*
X-8219463Y-4004494D01*
X-8160498Y-3894180D01*
X-8124188Y-3774482D01*
X-8111928Y-3650000D01*
X-8111928Y-1950000D01*
X-8124188Y-1825518D01*
X-8160498Y-1705820D01*
X-8219463Y-1595506D01*
X-8298815Y-1498815D01*
X-8395506Y-1419463D01*
X-8505820Y-1360498D01*
X-8625518Y-1324188D01*
X-8750000Y-1311928D01*
X-10450000Y-1311928D01*
X-10574482Y-1324188D01*
X-10694180Y-1360498D01*
X-10804494Y-1419463D01*
X-10901185Y-1498815D01*
X-10980537Y-1595506D01*
X-11039502Y-1705820D01*
X-11075812Y-1825518D01*
X-11088072Y-1950000D01*
X-11088072Y-3650000D01*
X-11075812Y-3774482D01*
X-11039502Y-3894180D01*
X-10980537Y-4004494D01*
X-10901185Y-4101185D01*
X-10804494Y-4180537D01*
X-10694180Y-4239502D01*
X-10621620Y-4261513D01*
X-10753475Y-4393368D01*
X-10915990Y-4636589D01*
X-11027932Y-4906842D01*
X-11085000Y-5193740D01*
X-11085000Y-5486260D01*
X-11027932Y-5773158D01*
X-11025897Y-5778070D01*
X-13969656Y-8721829D01*
X-13996302Y-8743697D01*
X-14018170Y-8770343D01*
X-14018174Y-8770347D01*
X-14083591Y-8850057D01*
X-14148451Y-8971402D01*
X-14188392Y-9103071D01*
X-14201878Y-9240000D01*
X-14198499Y-9274308D01*
X-14198500Y-15876210D01*
X-14226262Y-15903972D01*
X-14328586Y-16057111D01*
X-14399068Y-16227271D01*
X-14435000Y-16407911D01*
X-37011928Y-16407911D01*
X-37011928Y-14850000D01*
X-37024188Y-14725518D01*
X-37060498Y-14605820D01*
X-37119463Y-14495506D01*
X-37198815Y-14398815D01*
X-37295506Y-14319463D01*
X-37405820Y-14260498D01*
X-37525518Y-14224188D01*
X-37650000Y-14211928D01*
X-39350000Y-14211928D01*
X-39474482Y-14224188D01*
X-39594180Y-14260498D01*
X-39704494Y-14319463D01*
X-39801185Y-14398815D01*
X-39880537Y-14495506D01*
X-39939502Y-14605820D01*
X-39963966Y-14686466D01*
X-40039731Y-14602412D01*
X-40273080Y-14428359D01*
X-40535901Y-14303175D01*
X-40683110Y-14258524D01*
X-40913000Y-14379845D01*
X-41167000Y-14379845D01*
X-41396890Y-14258524D01*
X-41544099Y-14303175D01*
X-41806920Y-14428359D01*
X-42040269Y-14602412D01*
X-42235178Y-14818645D01*
X-42384157Y-15068748D01*
X-42481481Y-15343109D01*
X-44345950Y-15343109D01*
X-44345950Y-7950000D01*
X-42488072Y-7950000D01*
X-42488072Y-9650000D01*
X-42475812Y-9774482D01*
X-42439502Y-9894180D01*
X-42380537Y-10004494D01*
X-42301185Y-10101185D01*
X-42204494Y-10180537D01*
X-42094180Y-10239502D01*
X-41974482Y-10275812D01*
X-41850000Y-10288072D01*
X-40150000Y-10288072D01*
X-40025518Y-10275812D01*
X-39905820Y-10239502D01*
X-39795506Y-10180537D01*
X-39698815Y-10101185D01*
X-39619463Y-10004494D01*
X-39560498Y-9894180D01*
X-39524188Y-9774482D01*
X-39511928Y-9650000D01*
X-39511928Y-7950000D01*
X-39524188Y-7825518D01*
X-39560498Y-7705820D01*
X-39619463Y-7595506D01*
X-39698815Y-7498815D01*
X-39795506Y-7419463D01*
X-39905820Y-7360498D01*
X-39978380Y-7338487D01*
X-39846525Y-7206632D01*
X-39684010Y-6963411D01*
X-39572068Y-6693158D01*
X-39515000Y-6406260D01*
X-39515000Y-6113740D01*
X-39572068Y-5826842D01*
X-39684010Y-5556589D01*
X-39846525Y-5313368D01*
X-40053368Y-5106525D01*
X-40296589Y-4944010D01*
X-40566842Y-4832068D01*
X-40853740Y-4775000D01*
X-41146260Y-4775000D01*
X-41433158Y-4832068D01*
X-41703411Y-4944010D01*
X-41946632Y-5106525D01*
X-42153475Y-5313368D01*
X-42315990Y-5556589D01*
X-42427932Y-5826842D01*
X-42485000Y-6113740D01*
X-42485000Y-6406260D01*
X-42427932Y-6693158D01*
X-42315990Y-6963411D01*
X-42153475Y-7206632D01*
X-42021620Y-7338487D01*
X-42094180Y-7360498D01*
X-42204494Y-7419463D01*
X-42301185Y-7498815D01*
X-42380537Y-7595506D01*
X-42439502Y-7705820D01*
X-42475812Y-7825518D01*
X-42488072Y-7950000D01*
X-44345950Y-7950000D01*
X-44345950Y-3450000D01*
X-33588072Y-3450000D01*
X-33588072Y-5150000D01*
X-33575812Y-5274482D01*
X-33539502Y-5394180D01*
X-33480537Y-5504494D01*
X-33401185Y-5601185D01*
X-33304494Y-5680537D01*
X-33194180Y-5739502D01*
X-33074482Y-5775812D01*
X-32950000Y-5788072D01*
X-31250000Y-5788072D01*
X-31125518Y-5775812D01*
X-31005820Y-5739502D01*
X-30895506Y-5680537D01*
X-30804762Y-5606065D01*
X-28498499Y-7912329D01*
X-28498500Y-10476210D01*
X-28526262Y-10503972D01*
X-28628586Y-10657111D01*
X-28699068Y-10827271D01*
X-28735000Y-11007911D01*
X-28735000Y-11192089D01*
X-28699068Y-11372729D01*
X-28628586Y-11542889D01*
X-28526262Y-11696028D01*
X-28396028Y-11826262D01*
X-28242889Y-11928586D01*
X-28072729Y-11999068D01*
X-27892089Y-12035000D01*
X-27707911Y-12035000D01*
X-27527271Y-11999068D01*
X-27357111Y-11928586D01*
X-27203972Y-11826262D01*
X-27073738Y-11696028D01*
X-26971414Y-11542889D01*
X-26900932Y-11372729D01*
X-26865000Y-11192089D01*
X-26865000Y-11007911D01*
X-26900932Y-10827271D01*
X-26971414Y-10657111D01*
X-27073738Y-10503972D01*
X-27101500Y-10476210D01*
X-27101500Y-7657298D01*
X-27098122Y-7623000D01*
X-27101500Y-7588702D01*
X-27101500Y-7588691D01*
X-27111607Y-7486070D01*
X-27151548Y-7354403D01*
X-27216409Y-7233057D01*
X-27281826Y-7153346D01*
X-27281829Y-7153343D01*
X-27303697Y-7126697D01*
X-27330343Y-7104829D01*
X-30604825Y-3830348D01*
X-30611928Y-3821693D01*
X-30611928Y-3450000D01*
X-30624188Y-3325518D01*
X-30660498Y-3205820D01*
X-30719463Y-3095506D01*
X-30798815Y-2998815D01*
X-30895506Y-2919463D01*
X-31005820Y-2860498D01*
X-31078380Y-2838487D01*
X-30946525Y-2706632D01*
X-30784010Y-2463411D01*
X-30715702Y-2298500D01*
X-26423790Y-2298500D01*
X-26396028Y-2326262D01*
X-26242889Y-2428586D01*
X-26072729Y-2499068D01*
X-25892089Y-2535000D01*
X-25707911Y-2535000D01*
X-25527271Y-2499068D01*
X-25357111Y-2428586D01*
X-25203972Y-2326262D01*
X-25073738Y-2196028D01*
X-24971414Y-2042889D01*
X-24900932Y-1872729D01*
X-24865000Y-1692089D01*
X-24865000Y-1507911D01*
X-24900932Y-1327271D01*
X-24971414Y-1157111D01*
X-25073738Y-1003972D01*
X-25203972Y-873738D01*
X-25357111Y-771414D01*
X-25527271Y-700932D01*
X-25707911Y-665000D01*
X-25892089Y-665000D01*
X-26072729Y-700932D01*
X-26242889Y-771414D01*
X-26396028Y-873738D01*
X-26423790Y-901500D01*
X-30887637Y-901500D01*
X-30946525Y-813368D01*
X-31153368Y-606525D01*
X-31396589Y-444010D01*
X-31666842Y-332068D01*
X-31953740Y-275000D01*
X-32246260Y-275000D01*
X-32533158Y-332068D01*
X-32803411Y-444010D01*
X-33046632Y-606525D01*
X-33253475Y-813368D01*
X-33415990Y-1056589D01*
X-33527932Y-1326842D01*
X-33585000Y-1613740D01*
X-33585000Y-1906260D01*
X-33527932Y-2193158D01*
X-33415990Y-2463411D01*
X-33253475Y-2706632D01*
X-33121620Y-2838487D01*
X-33194180Y-2860498D01*
X-33304494Y-2919463D01*
X-33401185Y-2998815D01*
X-33480537Y-3095506D01*
X-33539502Y-3205820D01*
X-33575812Y-3325518D01*
X-33588072Y-3450000D01*
X-44345950Y-3450000D01*
X-44345950Y4345950D01*
X-5654050Y4345950D01*
X-5654049Y-24345950D01*
G37*
X-5654049Y-24345950D02*
X-44345950Y-24345950D01*
X-44345950Y-16056891D01*
X-42481481Y-16056891D01*
X-42384157Y-16331252D01*
X-42235178Y-16581355D01*
X-42040269Y-16797588D01*
X-41806920Y-16971641D01*
X-41544099Y-17096825D01*
X-41396890Y-17141476D01*
X-41167000Y-17020155D01*
X-41167000Y-15827000D01*
X-42360814Y-15827000D01*
X-42481481Y-16056891D01*
X-44345950Y-16056891D01*
X-44345950Y-15343109D01*
X-42481481Y-15343109D01*
X-42360814Y-15573000D01*
X-41167000Y-15573000D01*
X-41167000Y-14379845D01*
X-40913000Y-14379845D01*
X-40913000Y-15573000D01*
X-40893000Y-15573000D01*
X-40893000Y-15827000D01*
X-40913000Y-15827000D01*
X-40913000Y-17020155D01*
X-40683110Y-17141476D01*
X-40535901Y-17096825D01*
X-40273080Y-16971641D01*
X-40039731Y-16797588D01*
X-39963966Y-16713534D01*
X-39939502Y-16794180D01*
X-39880537Y-16904494D01*
X-39801185Y-17001185D01*
X-39704494Y-17080537D01*
X-39594180Y-17139502D01*
X-39474482Y-17175812D01*
X-39350000Y-17188072D01*
X-37650000Y-17188072D01*
X-37525518Y-17175812D01*
X-37405820Y-17139502D01*
X-37295506Y-17080537D01*
X-37198815Y-17001185D01*
X-37119463Y-16904494D01*
X-37060498Y-16794180D01*
X-37024188Y-16674482D01*
X-37011928Y-16550000D01*
X-37011928Y-16407911D01*
X-14435000Y-16407911D01*
X-14435000Y-16592089D01*
X-14399068Y-16772729D01*
X-14328586Y-16942889D01*
X-14226262Y-17096028D01*
X-14096028Y-17226262D01*
X-13942889Y-17328586D01*
X-13772729Y-17399068D01*
X-13592089Y-17435000D01*
X-13407911Y-17435000D01*
X-13227271Y-17399068D01*
X-13057111Y-17328586D01*
X-12903972Y-17226262D01*
X-12773738Y-17096028D01*
X-12671414Y-16942889D01*
X-12600932Y-16772729D01*
X-12565000Y-16592089D01*
X-12565000Y-16407911D01*
X-12600932Y-16227271D01*
X-12671414Y-16057111D01*
X-12773738Y-15903972D01*
X-12801500Y-15876210D01*
X-12801500Y-15650000D01*
X-10888072Y-15650000D01*
X-10888072Y-17350000D01*
X-10875812Y-17474482D01*
X-10839502Y-17594180D01*
X-10780537Y-17704494D01*
X-10701185Y-17801185D01*
X-10604494Y-17880537D01*
X-10494180Y-17939502D01*
X-10374482Y-17975812D01*
X-10250000Y-17988072D01*
X-8550000Y-17988072D01*
X-8425518Y-17975812D01*
X-8305820Y-17939502D01*
X-8195506Y-17880537D01*
X-8098815Y-17801185D01*
X-8019463Y-17704494D01*
X-7960498Y-17594180D01*
X-7924188Y-17474482D01*
X-7911928Y-17350000D01*
X-7911928Y-15650000D01*
X-7924188Y-15525518D01*
X-7960498Y-15405820D01*
X-8019463Y-15295506D01*
X-8098815Y-15198815D01*
X-8195506Y-15119463D01*
X-8305820Y-15060498D01*
X-8378380Y-15038487D01*
X-8246525Y-14906632D01*
X-8084010Y-14663411D01*
X-7972068Y-14393158D01*
X-7915000Y-14106260D01*
X-7915000Y-13813740D01*
X-7972068Y-13526842D01*
X-8084010Y-13256589D01*
X-8246525Y-13013368D01*
X-8453368Y-12806525D01*
X-8696589Y-12644010D01*
X-8966842Y-12532068D01*
X-9253740Y-12475000D01*
X-9546260Y-12475000D01*
X-9833158Y-12532068D01*
X-10103411Y-12644010D01*
X-10346632Y-12806525D01*
X-10553475Y-13013368D01*
X-10715990Y-13256589D01*
X-10827932Y-13526842D01*
X-10885000Y-13813740D01*
X-10885000Y-14106260D01*
X-10827932Y-14393158D01*
X-10715990Y-14663411D01*
X-10553475Y-14906632D01*
X-10421620Y-15038487D01*
X-10494180Y-15060498D01*
X-10604494Y-15119463D01*
X-10701185Y-15198815D01*
X-10780537Y-15295506D01*
X-10839502Y-15405820D01*
X-10875812Y-15525518D01*
X-10888072Y-15650000D01*
X-12801500Y-15650000D01*
X-12801500Y-9529327D01*
X-10038070Y-6765897D01*
X-10033158Y-6767932D01*
X-9746260Y-6825000D01*
X-9453740Y-6825000D01*
X-9166842Y-6767932D01*
X-8896589Y-6655990D01*
X-8653368Y-6493475D01*
X-8446525Y-6286632D01*
X-8284010Y-6043411D01*
X-8172068Y-5773158D01*
X-8115000Y-5486260D01*
X-8115000Y-5193740D01*
X-8172068Y-4906842D01*
X-8284010Y-4636589D01*
X-8446525Y-4393368D01*
X-8578380Y-4261513D01*
X-8505820Y-4239502D01*
X-8395506Y-4180537D01*
X-8298815Y-4101185D01*
X-8219463Y-4004494D01*
X-8160498Y-3894180D01*
X-8124188Y-3774482D01*
X-8111928Y-3650000D01*
X-8111928Y-1950000D01*
X-8124188Y-1825518D01*
X-8160498Y-1705820D01*
X-8219463Y-1595506D01*
X-8298815Y-1498815D01*
X-8395506Y-1419463D01*
X-8505820Y-1360498D01*
X-8625518Y-1324188D01*
X-8750000Y-1311928D01*
X-10450000Y-1311928D01*
X-10574482Y-1324188D01*
X-10694180Y-1360498D01*
X-10804494Y-1419463D01*
X-10901185Y-1498815D01*
X-10980537Y-1595506D01*
X-11039502Y-1705820D01*
X-11075812Y-1825518D01*
X-11088072Y-1950000D01*
X-11088072Y-3650000D01*
X-11075812Y-3774482D01*
X-11039502Y-3894180D01*
X-10980537Y-4004494D01*
X-10901185Y-4101185D01*
X-10804494Y-4180537D01*
X-10694180Y-4239502D01*
X-10621620Y-4261513D01*
X-10753475Y-4393368D01*
X-10915990Y-4636589D01*
X-11027932Y-4906842D01*
X-11085000Y-5193740D01*
X-11085000Y-5486260D01*
X-11027932Y-5773158D01*
X-11025897Y-5778070D01*
X-13969656Y-8721829D01*
X-13996302Y-8743697D01*
X-14018170Y-8770343D01*
X-14018174Y-8770347D01*
X-14083591Y-8850057D01*
X-14148451Y-8971402D01*
X-14188392Y-9103071D01*
X-14201878Y-9240000D01*
X-14198499Y-9274308D01*
X-14198500Y-15876210D01*
X-14226262Y-15903972D01*
X-14328586Y-16057111D01*
X-14399068Y-16227271D01*
X-14435000Y-16407911D01*
X-37011928Y-16407911D01*
X-37011928Y-14850000D01*
X-37024188Y-14725518D01*
X-37060498Y-14605820D01*
X-37119463Y-14495506D01*
X-37198815Y-14398815D01*
X-37295506Y-14319463D01*
X-37405820Y-14260498D01*
X-37525518Y-14224188D01*
X-37650000Y-14211928D01*
X-39350000Y-14211928D01*
X-39474482Y-14224188D01*
X-39594180Y-14260498D01*
X-39704494Y-14319463D01*
X-39801185Y-14398815D01*
X-39880537Y-14495506D01*
X-39939502Y-14605820D01*
X-39963966Y-14686466D01*
X-40039731Y-14602412D01*
X-40273080Y-14428359D01*
X-40535901Y-14303175D01*
X-40683110Y-14258524D01*
X-40913000Y-14379845D01*
X-41167000Y-14379845D01*
X-41396890Y-14258524D01*
X-41544099Y-14303175D01*
X-41806920Y-14428359D01*
X-42040269Y-14602412D01*
X-42235178Y-14818645D01*
X-42384157Y-15068748D01*
X-42481481Y-15343109D01*
X-44345950Y-15343109D01*
X-44345950Y-7950000D01*
X-42488072Y-7950000D01*
X-42488072Y-9650000D01*
X-42475812Y-9774482D01*
X-42439502Y-9894180D01*
X-42380537Y-10004494D01*
X-42301185Y-10101185D01*
X-42204494Y-10180537D01*
X-42094180Y-10239502D01*
X-41974482Y-10275812D01*
X-41850000Y-10288072D01*
X-40150000Y-10288072D01*
X-40025518Y-10275812D01*
X-39905820Y-10239502D01*
X-39795506Y-10180537D01*
X-39698815Y-10101185D01*
X-39619463Y-10004494D01*
X-39560498Y-9894180D01*
X-39524188Y-9774482D01*
X-39511928Y-9650000D01*
X-39511928Y-7950000D01*
X-39524188Y-7825518D01*
X-39560498Y-7705820D01*
X-39619463Y-7595506D01*
X-39698815Y-7498815D01*
X-39795506Y-7419463D01*
X-39905820Y-7360498D01*
X-39978380Y-7338487D01*
X-39846525Y-7206632D01*
X-39684010Y-6963411D01*
X-39572068Y-6693158D01*
X-39515000Y-6406260D01*
X-39515000Y-6113740D01*
X-39572068Y-5826842D01*
X-39684010Y-5556589D01*
X-39846525Y-5313368D01*
X-40053368Y-5106525D01*
X-40296589Y-4944010D01*
X-40566842Y-4832068D01*
X-40853740Y-4775000D01*
X-41146260Y-4775000D01*
X-41433158Y-4832068D01*
X-41703411Y-4944010D01*
X-41946632Y-5106525D01*
X-42153475Y-5313368D01*
X-42315990Y-5556589D01*
X-42427932Y-5826842D01*
X-42485000Y-6113740D01*
X-42485000Y-6406260D01*
X-42427932Y-6693158D01*
X-42315990Y-6963411D01*
X-42153475Y-7206632D01*
X-42021620Y-7338487D01*
X-42094180Y-7360498D01*
X-42204494Y-7419463D01*
X-42301185Y-7498815D01*
X-42380537Y-7595506D01*
X-42439502Y-7705820D01*
X-42475812Y-7825518D01*
X-42488072Y-7950000D01*
X-44345950Y-7950000D01*
X-44345950Y-3450000D01*
X-33588072Y-3450000D01*
X-33588072Y-5150000D01*
X-33575812Y-5274482D01*
X-33539502Y-5394180D01*
X-33480537Y-5504494D01*
X-33401185Y-5601185D01*
X-33304494Y-5680537D01*
X-33194180Y-5739502D01*
X-33074482Y-5775812D01*
X-32950000Y-5788072D01*
X-31250000Y-5788072D01*
X-31125518Y-5775812D01*
X-31005820Y-5739502D01*
X-30895506Y-5680537D01*
X-30804762Y-5606065D01*
X-28498499Y-7912329D01*
X-28498500Y-10476210D01*
X-28526262Y-10503972D01*
X-28628586Y-10657111D01*
X-28699068Y-10827271D01*
X-28735000Y-11007911D01*
X-28735000Y-11192089D01*
X-28699068Y-11372729D01*
X-28628586Y-11542889D01*
X-28526262Y-11696028D01*
X-28396028Y-11826262D01*
X-28242889Y-11928586D01*
X-28072729Y-11999068D01*
X-27892089Y-12035000D01*
X-27707911Y-12035000D01*
X-27527271Y-11999068D01*
X-27357111Y-11928586D01*
X-27203972Y-11826262D01*
X-27073738Y-11696028D01*
X-26971414Y-11542889D01*
X-26900932Y-11372729D01*
X-26865000Y-11192089D01*
X-26865000Y-11007911D01*
X-26900932Y-10827271D01*
X-26971414Y-10657111D01*
X-27073738Y-10503972D01*
X-27101500Y-10476210D01*
X-27101500Y-7657298D01*
X-27098122Y-7623000D01*
X-27101500Y-7588702D01*
X-27101500Y-7588691D01*
X-27111607Y-7486070D01*
X-27151548Y-7354403D01*
X-27216409Y-7233057D01*
X-27281826Y-7153346D01*
X-27281829Y-7153343D01*
X-27303697Y-7126697D01*
X-27330343Y-7104829D01*
X-30604825Y-3830348D01*
X-30611928Y-3821693D01*
X-30611928Y-3450000D01*
X-30624188Y-3325518D01*
X-30660498Y-3205820D01*
X-30719463Y-3095506D01*
X-30798815Y-2998815D01*
X-30895506Y-2919463D01*
X-31005820Y-2860498D01*
X-31078380Y-2838487D01*
X-30946525Y-2706632D01*
X-30784010Y-2463411D01*
X-30715702Y-2298500D01*
X-26423790Y-2298500D01*
X-26396028Y-2326262D01*
X-26242889Y-2428586D01*
X-26072729Y-2499068D01*
X-25892089Y-2535000D01*
X-25707911Y-2535000D01*
X-25527271Y-2499068D01*
X-25357111Y-2428586D01*
X-25203972Y-2326262D01*
X-25073738Y-2196028D01*
X-24971414Y-2042889D01*
X-24900932Y-1872729D01*
X-24865000Y-1692089D01*
X-24865000Y-1507911D01*
X-24900932Y-1327271D01*
X-24971414Y-1157111D01*
X-25073738Y-1003972D01*
X-25203972Y-873738D01*
X-25357111Y-771414D01*
X-25527271Y-700932D01*
X-25707911Y-665000D01*
X-25892089Y-665000D01*
X-26072729Y-700932D01*
X-26242889Y-771414D01*
X-26396028Y-873738D01*
X-26423790Y-901500D01*
X-30887637Y-901500D01*
X-30946525Y-813368D01*
X-31153368Y-606525D01*
X-31396589Y-444010D01*
X-31666842Y-332068D01*
X-31953740Y-275000D01*
X-32246260Y-275000D01*
X-32533158Y-332068D01*
X-32803411Y-444010D01*
X-33046632Y-606525D01*
X-33253475Y-813368D01*
X-33415990Y-1056589D01*
X-33527932Y-1326842D01*
X-33585000Y-1613740D01*
X-33585000Y-1906260D01*
X-33527932Y-2193158D01*
X-33415990Y-2463411D01*
X-33253475Y-2706632D01*
X-33121620Y-2838487D01*
X-33194180Y-2860498D01*
X-33304494Y-2919463D01*
X-33401185Y-2998815D01*
X-33480537Y-3095506D01*
X-33539502Y-3205820D01*
X-33575812Y-3325518D01*
X-33588072Y-3450000D01*
X-44345950Y-3450000D01*
X-44345950Y4345950D01*
X-5654050Y4345950D01*
X-5654049Y-24345950D01*
M02*
