G04 #@! TF.GenerationSoftware,KiCad,Pcbnew,(5.1.5-0)*
G04 #@! TF.CreationDate,2022-03-29T15:48:06-06:00*
G04 #@! TF.ProjectId,polarity_swap,706f6c61-7269-4747-995f-737761702e6b,1*
G04 #@! TF.SameCoordinates,Original*
G04 #@! TF.FileFunction,Legend,Top*
G04 #@! TF.FilePolarity,Positive*
%FSLAX46Y46*%
G04 Gerber Fmt 4.6, Leading zero omitted, Abs format (unit mm)*
G04 Created by KiCad (PCBNEW (5.1.5-0)) date 2022-03-29 15:48:06*
%MOMM*%
%LPD*%
G04 APERTURE LIST*
%ADD10C,0.152400*%
%ADD11C,0.120000*%
%ADD12C,0.254000*%
%ADD13C,0.150000*%
%ADD14C,0.152000*%
%ADD15O,1.700000X1.700000*%
%ADD16R,1.700000X1.700000*%
%ADD17R,2.200000X1.600000*%
%ADD18R,0.900000X0.800000*%
G04 APERTURE END LIST*
D10*
X-42421980Y-19554228D02*
X-42421980Y-20367028D01*
X-42421980Y-19592933D02*
X-42344571Y-19554228D01*
X-42189752Y-19554228D01*
X-42112342Y-19592933D01*
X-42073638Y-19631638D01*
X-42034933Y-19709047D01*
X-42034933Y-19941276D01*
X-42073638Y-20018685D01*
X-42112342Y-20057390D01*
X-42189752Y-20096095D01*
X-42344571Y-20096095D01*
X-42421980Y-20057390D01*
X-41570476Y-20096095D02*
X-41647885Y-20057390D01*
X-41686590Y-20018685D01*
X-41725295Y-19941276D01*
X-41725295Y-19709047D01*
X-41686590Y-19631638D01*
X-41647885Y-19592933D01*
X-41570476Y-19554228D01*
X-41454361Y-19554228D01*
X-41376952Y-19592933D01*
X-41338247Y-19631638D01*
X-41299542Y-19709047D01*
X-41299542Y-19941276D01*
X-41338247Y-20018685D01*
X-41376952Y-20057390D01*
X-41454361Y-20096095D01*
X-41570476Y-20096095D01*
X-40835085Y-20096095D02*
X-40912495Y-20057390D01*
X-40951200Y-19979980D01*
X-40951200Y-19283295D01*
X-40177104Y-20096095D02*
X-40177104Y-19670342D01*
X-40215809Y-19592933D01*
X-40293219Y-19554228D01*
X-40448038Y-19554228D01*
X-40525447Y-19592933D01*
X-40177104Y-20057390D02*
X-40254514Y-20096095D01*
X-40448038Y-20096095D01*
X-40525447Y-20057390D01*
X-40564152Y-19979980D01*
X-40564152Y-19902571D01*
X-40525447Y-19825161D01*
X-40448038Y-19786457D01*
X-40254514Y-19786457D01*
X-40177104Y-19747752D01*
X-39790057Y-20096095D02*
X-39790057Y-19554228D01*
X-39790057Y-19709047D02*
X-39751352Y-19631638D01*
X-39712647Y-19592933D01*
X-39635238Y-19554228D01*
X-39557828Y-19554228D01*
X-39286895Y-20096095D02*
X-39286895Y-19554228D01*
X-39286895Y-19283295D02*
X-39325600Y-19322000D01*
X-39286895Y-19360704D01*
X-39248190Y-19322000D01*
X-39286895Y-19283295D01*
X-39286895Y-19360704D01*
X-39015961Y-19554228D02*
X-38706323Y-19554228D01*
X-38899847Y-19283295D02*
X-38899847Y-19979980D01*
X-38861142Y-20057390D01*
X-38783733Y-20096095D01*
X-38706323Y-20096095D01*
X-38512800Y-19554228D02*
X-38319276Y-20096095D01*
X-38125752Y-19554228D02*
X-38319276Y-20096095D01*
X-38396685Y-20289619D01*
X-38435390Y-20328323D01*
X-38512800Y-20367028D01*
X-37196838Y-20096095D02*
X-37196838Y-19554228D01*
X-37196838Y-19283295D02*
X-37235542Y-19322000D01*
X-37196838Y-19360704D01*
X-37158133Y-19322000D01*
X-37196838Y-19283295D01*
X-37196838Y-19360704D01*
X-36809790Y-19554228D02*
X-36809790Y-20096095D01*
X-36809790Y-19631638D02*
X-36771085Y-19592933D01*
X-36693676Y-19554228D01*
X-36577561Y-19554228D01*
X-36500152Y-19592933D01*
X-36461447Y-19670342D01*
X-36461447Y-20096095D01*
X-36151809Y-19554228D02*
X-35958285Y-20096095D01*
X-35764761Y-19554228D01*
X-35145485Y-20057390D02*
X-35222895Y-20096095D01*
X-35377714Y-20096095D01*
X-35455123Y-20057390D01*
X-35493828Y-19979980D01*
X-35493828Y-19670342D01*
X-35455123Y-19592933D01*
X-35377714Y-19554228D01*
X-35222895Y-19554228D01*
X-35145485Y-19592933D01*
X-35106780Y-19670342D01*
X-35106780Y-19747752D01*
X-35493828Y-19825161D01*
X-34758438Y-20096095D02*
X-34758438Y-19554228D01*
X-34758438Y-19709047D02*
X-34719733Y-19631638D01*
X-34681028Y-19592933D01*
X-34603619Y-19554228D01*
X-34526209Y-19554228D01*
X-34371390Y-19554228D02*
X-34061752Y-19554228D01*
X-34255276Y-19283295D02*
X-34255276Y-19979980D01*
X-34216571Y-20057390D01*
X-34139161Y-20096095D01*
X-34061752Y-20096095D01*
X-33481180Y-20057390D02*
X-33558590Y-20096095D01*
X-33713409Y-20096095D01*
X-33790819Y-20057390D01*
X-33829523Y-19979980D01*
X-33829523Y-19670342D01*
X-33790819Y-19592933D01*
X-33713409Y-19554228D01*
X-33558590Y-19554228D01*
X-33481180Y-19592933D01*
X-33442476Y-19670342D01*
X-33442476Y-19747752D01*
X-33829523Y-19825161D01*
X-33094133Y-20096095D02*
X-33094133Y-19554228D01*
X-33094133Y-19709047D02*
X-33055428Y-19631638D01*
X-33016723Y-19592933D01*
X-32939314Y-19554228D01*
X-32861904Y-19554228D01*
X-39170780Y-20654895D02*
X-38667619Y-20654895D01*
X-38938552Y-20964533D01*
X-38822438Y-20964533D01*
X-38745028Y-21003238D01*
X-38706323Y-21041942D01*
X-38667619Y-21119352D01*
X-38667619Y-21312876D01*
X-38706323Y-21390285D01*
X-38745028Y-21428990D01*
X-38822438Y-21467695D01*
X-39054666Y-21467695D01*
X-39132076Y-21428990D01*
X-39170780Y-21390285D01*
X-37738704Y-20616190D02*
X-38435390Y-21661219D01*
X-37506476Y-20732304D02*
X-37467771Y-20693600D01*
X-37390361Y-20654895D01*
X-37196838Y-20654895D01*
X-37119428Y-20693600D01*
X-37080723Y-20732304D01*
X-37042019Y-20809714D01*
X-37042019Y-20887123D01*
X-37080723Y-21003238D01*
X-37545180Y-21467695D01*
X-37042019Y-21467695D01*
X-36732380Y-20732304D02*
X-36693676Y-20693600D01*
X-36616266Y-20654895D01*
X-36422742Y-20654895D01*
X-36345333Y-20693600D01*
X-36306628Y-20732304D01*
X-36267923Y-20809714D01*
X-36267923Y-20887123D01*
X-36306628Y-21003238D01*
X-36771085Y-21467695D01*
X-36267923Y-21467695D01*
X-41338247Y-22761885D02*
X-41376952Y-22800590D01*
X-41493066Y-22839295D01*
X-41570476Y-22839295D01*
X-41686590Y-22800590D01*
X-41763999Y-22723180D01*
X-41802704Y-22645771D01*
X-41841409Y-22490952D01*
X-41841409Y-22374838D01*
X-41802704Y-22220019D01*
X-41763999Y-22142609D01*
X-41686590Y-22065200D01*
X-41570476Y-22026495D01*
X-41493066Y-22026495D01*
X-41376952Y-22065200D01*
X-41338247Y-22103904D01*
X-40989904Y-22839295D02*
X-40989904Y-22026495D01*
X-40718971Y-22607066D01*
X-40448038Y-22026495D01*
X-40448038Y-22839295D01*
X-39906171Y-22026495D02*
X-39751352Y-22026495D01*
X-39673942Y-22065200D01*
X-39596533Y-22142609D01*
X-39557828Y-22297428D01*
X-39557828Y-22568361D01*
X-39596533Y-22723180D01*
X-39673942Y-22800590D01*
X-39751352Y-22839295D01*
X-39906171Y-22839295D01*
X-39983580Y-22800590D01*
X-40060990Y-22723180D01*
X-40099695Y-22568361D01*
X-40099695Y-22297428D01*
X-40060990Y-22142609D01*
X-39983580Y-22065200D01*
X-39906171Y-22026495D01*
X-39248190Y-22800590D02*
X-39132076Y-22839295D01*
X-38938552Y-22839295D01*
X-38861142Y-22800590D01*
X-38822438Y-22761885D01*
X-38783733Y-22684476D01*
X-38783733Y-22607066D01*
X-38822438Y-22529657D01*
X-38861142Y-22490952D01*
X-38938552Y-22452247D01*
X-39093371Y-22413542D01*
X-39170780Y-22374838D01*
X-39209485Y-22336133D01*
X-39248190Y-22258723D01*
X-39248190Y-22181314D01*
X-39209485Y-22103904D01*
X-39170780Y-22065200D01*
X-39093371Y-22026495D01*
X-38899847Y-22026495D01*
X-38783733Y-22065200D01*
X-37816114Y-22839295D02*
X-37816114Y-22297428D01*
X-37816114Y-22026495D02*
X-37854819Y-22065200D01*
X-37816114Y-22103904D01*
X-37777409Y-22065200D01*
X-37816114Y-22026495D01*
X-37816114Y-22103904D01*
X-37429066Y-22297428D02*
X-37429066Y-22839295D01*
X-37429066Y-22374838D02*
X-37390361Y-22336133D01*
X-37312952Y-22297428D01*
X-37196838Y-22297428D01*
X-37119428Y-22336133D01*
X-37080723Y-22413542D01*
X-37080723Y-22839295D01*
X-36771085Y-22297428D02*
X-36577561Y-22839295D01*
X-36384038Y-22297428D01*
X-35764761Y-22800590D02*
X-35842171Y-22839295D01*
X-35996990Y-22839295D01*
X-36074400Y-22800590D01*
X-36113104Y-22723180D01*
X-36113104Y-22413542D01*
X-36074400Y-22336133D01*
X-35996990Y-22297428D01*
X-35842171Y-22297428D01*
X-35764761Y-22336133D01*
X-35726057Y-22413542D01*
X-35726057Y-22490952D01*
X-36113104Y-22568361D01*
X-35377714Y-22839295D02*
X-35377714Y-22297428D01*
X-35377714Y-22452247D02*
X-35339009Y-22374838D01*
X-35300304Y-22336133D01*
X-35222895Y-22297428D01*
X-35145485Y-22297428D01*
X-34990666Y-22297428D02*
X-34681028Y-22297428D01*
X-34874552Y-22026495D02*
X-34874552Y-22723180D01*
X-34835847Y-22800590D01*
X-34758438Y-22839295D01*
X-34681028Y-22839295D01*
X-34100457Y-22800590D02*
X-34177866Y-22839295D01*
X-34332685Y-22839295D01*
X-34410095Y-22800590D01*
X-34448800Y-22723180D01*
X-34448800Y-22413542D01*
X-34410095Y-22336133D01*
X-34332685Y-22297428D01*
X-34177866Y-22297428D01*
X-34100457Y-22336133D01*
X-34061752Y-22413542D01*
X-34061752Y-22490952D01*
X-34448800Y-22568361D01*
X-33713409Y-22839295D02*
X-33713409Y-22297428D01*
X-33713409Y-22452247D02*
X-33674704Y-22374838D01*
X-33636000Y-22336133D01*
X-33558590Y-22297428D01*
X-33481180Y-22297428D01*
X-7103161Y-14167695D02*
X-7103161Y-13625828D01*
X-7103161Y-13354895D02*
X-7141866Y-13393600D01*
X-7103161Y-13432304D01*
X-7064457Y-13393600D01*
X-7103161Y-13354895D01*
X-7103161Y-13432304D01*
X-6716114Y-13858057D02*
X-6096838Y-13858057D01*
X-6406476Y-14167695D02*
X-6406476Y-13548419D01*
X-7461219Y-2767695D02*
X-7538628Y-2728990D01*
X-7577333Y-2690285D01*
X-7616038Y-2612876D01*
X-7616038Y-2380647D01*
X-7577333Y-2303238D01*
X-7538628Y-2264533D01*
X-7461219Y-2225828D01*
X-7345104Y-2225828D01*
X-7267695Y-2264533D01*
X-7228990Y-2303238D01*
X-7190285Y-2380647D01*
X-7190285Y-2612876D01*
X-7228990Y-2690285D01*
X-7267695Y-2728990D01*
X-7345104Y-2767695D01*
X-7461219Y-2767695D01*
X-6841942Y-2458057D02*
X-6222666Y-2458057D01*
X-6532304Y-2767695D02*
X-6532304Y-2148419D01*
X-34709638Y-928990D02*
X-34787047Y-967695D01*
X-34941866Y-967695D01*
X-35019276Y-928990D01*
X-35057980Y-890285D01*
X-35096685Y-812876D01*
X-35096685Y-580647D01*
X-35057980Y-503238D01*
X-35019276Y-464533D01*
X-34941866Y-425828D01*
X-34787047Y-425828D01*
X-34709638Y-464533D01*
X-34361295Y-658057D02*
X-33742019Y-658057D01*
X-38509638Y-8528990D02*
X-38587047Y-8567695D01*
X-38741866Y-8567695D01*
X-38819276Y-8528990D01*
X-38857980Y-8490285D01*
X-38896685Y-8412876D01*
X-38896685Y-8180647D01*
X-38857980Y-8103238D01*
X-38819276Y-8064533D01*
X-38741866Y-8025828D01*
X-38587047Y-8025828D01*
X-38509638Y-8064533D01*
X-38161295Y-8258057D02*
X-37542019Y-8258057D01*
X-37851657Y-8567695D02*
X-37851657Y-7948419D01*
D11*
X-10930000Y-1470000D02*
X-9600000Y-1470000D01*
X-10930000Y-2800000D02*
X-10930000Y-1470000D01*
X-10930000Y-4070000D02*
X-8270000Y-4070000D01*
X-8270000Y-4070000D02*
X-8270000Y-6670000D01*
X-10930000Y-4070000D02*
X-10930000Y-6670000D01*
X-10930000Y-6670000D02*
X-8270000Y-6670000D01*
X-8070000Y-17830000D02*
X-9400000Y-17830000D01*
X-8070000Y-16500000D02*
X-8070000Y-17830000D01*
X-8070000Y-15230000D02*
X-10730000Y-15230000D01*
X-10730000Y-15230000D02*
X-10730000Y-12630000D01*
X-8070000Y-15230000D02*
X-8070000Y-12630000D01*
X-8070000Y-12630000D02*
X-10730000Y-12630000D01*
X-39670000Y-10130000D02*
X-41000000Y-10130000D01*
X-39670000Y-8800000D02*
X-39670000Y-10130000D01*
X-39670000Y-7530000D02*
X-42330000Y-7530000D01*
X-42330000Y-7530000D02*
X-42330000Y-4930000D01*
X-39670000Y-7530000D02*
X-39670000Y-4930000D01*
X-39670000Y-4930000D02*
X-42330000Y-4930000D01*
X-37170000Y-14370000D02*
X-37170000Y-15700000D01*
X-38500000Y-14370000D02*
X-37170000Y-14370000D01*
X-39770000Y-14370000D02*
X-39770000Y-17030000D01*
X-39770000Y-17030000D02*
X-42370000Y-17030000D01*
X-39770000Y-14370000D02*
X-42370000Y-14370000D01*
X-42370000Y-14370000D02*
X-42370000Y-17030000D01*
D12*
X-23638000Y-12593000D02*
G75*
G03X-23638000Y-12593000I-180000J0D01*
G01*
X-20135000Y-12974000D02*
G75*
G03X-18865000Y-12974000I635000J0D01*
G01*
X-22040000Y-12974000D02*
X-20135000Y-12974000D01*
X-22040000Y-22753000D02*
X-22040000Y-12974000D01*
X-16960000Y-22753000D02*
X-22040000Y-22753000D01*
X-16960000Y-12974000D02*
X-16960000Y-22753000D01*
X-18865000Y-12974000D02*
X-16960000Y-12974000D01*
X-23629000Y1582001D02*
G75*
G03X-23629000Y1582001I-180000J0D01*
G01*
X-20126000Y1201001D02*
G75*
G03X-18856000Y1201001I635000J0D01*
G01*
X-22031000Y1201001D02*
X-20126000Y1201001D01*
X-22031000Y-8577999D02*
X-22031000Y1201001D01*
X-16951000Y-8577999D02*
X-22031000Y-8577999D01*
X-16951000Y1201001D02*
X-16951000Y-8577999D01*
X-18856000Y1201001D02*
X-16951000Y1201001D01*
D11*
X-26910000Y-17653733D02*
X-26910000Y-17996267D01*
X-25890000Y-17653733D02*
X-25890000Y-17996267D01*
X-27853733Y-21190000D02*
X-28196267Y-21190000D01*
X-27853733Y-22210000D02*
X-28196267Y-22210000D01*
X-25990000Y-3771267D02*
X-25990000Y-3428733D01*
X-27010000Y-3771267D02*
X-27010000Y-3428733D01*
X-27971267Y-8010000D02*
X-27628733Y-8010000D01*
X-27971267Y-6990000D02*
X-27628733Y-6990000D01*
X-33340000Y-12680000D02*
X-34800000Y-12680000D01*
X-33340000Y-9520000D02*
X-35500000Y-9520000D01*
X-33340000Y-9520000D02*
X-33340000Y-10450000D01*
X-33340000Y-12680000D02*
X-33340000Y-11750000D01*
X-29540000Y-12680000D02*
X-31000000Y-12680000D01*
X-29540000Y-9520000D02*
X-31700000Y-9520000D01*
X-29540000Y-9520000D02*
X-29540000Y-10450000D01*
X-29540000Y-12680000D02*
X-29540000Y-11750000D01*
X-30770000Y-5630000D02*
X-32100000Y-5630000D01*
X-30770000Y-4300000D02*
X-30770000Y-5630000D01*
X-30770000Y-3030000D02*
X-33430000Y-3030000D01*
X-33430000Y-3030000D02*
X-33430000Y-430000D01*
X-30770000Y-3030000D02*
X-30770000Y-430000D01*
X-30770000Y-430000D02*
X-33430000Y-430000D01*
D13*
X-9933333Y77619D02*
X-9933333Y-636666D01*
X-9980952Y-779523D01*
X-10076190Y-874761D01*
X-10219047Y-922380D01*
X-10314285Y-922380D01*
X-9028571Y-255714D02*
X-9028571Y-922380D01*
X-9266666Y125238D02*
X-9504761Y-589047D01*
X-8885714Y-589047D01*
X-9733333Y-18282380D02*
X-9733333Y-18996666D01*
X-9780952Y-19139523D01*
X-9876190Y-19234761D01*
X-10019047Y-19282380D01*
X-10114285Y-19282380D01*
X-9352380Y-18282380D02*
X-8733333Y-18282380D01*
X-9066666Y-18663333D01*
X-8923809Y-18663333D01*
X-8828571Y-18710952D01*
X-8780952Y-18758571D01*
X-8733333Y-18853809D01*
X-8733333Y-19091904D01*
X-8780952Y-19187142D01*
X-8828571Y-19234761D01*
X-8923809Y-19282380D01*
X-9209523Y-19282380D01*
X-9304761Y-19234761D01*
X-9352380Y-19187142D01*
X-41333333Y-10582380D02*
X-41333333Y-11296666D01*
X-41380952Y-11439523D01*
X-41476190Y-11534761D01*
X-41619047Y-11582380D01*
X-41714285Y-11582380D01*
X-40904761Y-10677619D02*
X-40857142Y-10630000D01*
X-40761904Y-10582380D01*
X-40523809Y-10582380D01*
X-40428571Y-10630000D01*
X-40380952Y-10677619D01*
X-40333333Y-10772857D01*
X-40333333Y-10868095D01*
X-40380952Y-11010952D01*
X-40952380Y-11582380D01*
X-40333333Y-11582380D01*
X-36717619Y-16033333D02*
X-36003333Y-16033333D01*
X-35860476Y-16080952D01*
X-35765238Y-16176190D01*
X-35717619Y-16319047D01*
X-35717619Y-16414285D01*
X-35717619Y-15033333D02*
X-35717619Y-15604761D01*
X-35717619Y-15319047D02*
X-36717619Y-15319047D01*
X-36574761Y-15414285D01*
X-36479523Y-15509523D01*
X-36431904Y-15604761D01*
D14*
X-14384928Y-19531657D02*
X-13459642Y-19531657D01*
X-13350785Y-19477228D01*
X-13296357Y-19422800D01*
X-13241928Y-19313942D01*
X-13241928Y-19096228D01*
X-13296357Y-18987371D01*
X-13350785Y-18932942D01*
X-13459642Y-18878514D01*
X-14384928Y-18878514D01*
X-14276071Y-18388657D02*
X-14330500Y-18334228D01*
X-14384928Y-18225371D01*
X-14384928Y-17953228D01*
X-14330500Y-17844371D01*
X-14276071Y-17789942D01*
X-14167214Y-17735514D01*
X-14058357Y-17735514D01*
X-13895071Y-17789942D01*
X-13241928Y-18443085D01*
X-13241928Y-17735514D01*
X-14375928Y-5356656D02*
X-13450642Y-5356656D01*
X-13341785Y-5302227D01*
X-13287357Y-5247799D01*
X-13232928Y-5138941D01*
X-13232928Y-4921227D01*
X-13287357Y-4812370D01*
X-13341785Y-4757941D01*
X-13450642Y-4703513D01*
X-14375928Y-4703513D01*
X-13232928Y-3560513D02*
X-13232928Y-4213656D01*
X-13232928Y-3887084D02*
X-14375928Y-3887084D01*
X-14212642Y-3995941D01*
X-14103785Y-4104799D01*
X-14049357Y-4213656D01*
D13*
X-27747619Y-17966666D02*
X-28223809Y-18300000D01*
X-27747619Y-18538095D02*
X-28747619Y-18538095D01*
X-28747619Y-18157142D01*
X-28700000Y-18061904D01*
X-28652380Y-18014285D01*
X-28557142Y-17966666D01*
X-28414285Y-17966666D01*
X-28319047Y-18014285D01*
X-28271428Y-18061904D01*
X-28223809Y-18157142D01*
X-28223809Y-18538095D01*
X-28414285Y-17109523D02*
X-27747619Y-17109523D01*
X-28795238Y-17347619D02*
X-28080952Y-17585714D01*
X-28080952Y-16966666D01*
X-28191666Y-23582380D02*
X-28525000Y-23106190D01*
X-28763095Y-23582380D02*
X-28763095Y-22582380D01*
X-28382142Y-22582380D01*
X-28286904Y-22630000D01*
X-28239285Y-22677619D01*
X-28191666Y-22772857D01*
X-28191666Y-22915714D01*
X-28239285Y-23010952D01*
X-28286904Y-23058571D01*
X-28382142Y-23106190D01*
X-28763095Y-23106190D01*
X-27858333Y-22582380D02*
X-27239285Y-22582380D01*
X-27572619Y-22963333D01*
X-27429761Y-22963333D01*
X-27334523Y-23010952D01*
X-27286904Y-23058571D01*
X-27239285Y-23153809D01*
X-27239285Y-23391904D01*
X-27286904Y-23487142D01*
X-27334523Y-23534761D01*
X-27429761Y-23582380D01*
X-27715476Y-23582380D01*
X-27810714Y-23534761D01*
X-27858333Y-23487142D01*
X-27477619Y-3766666D02*
X-27953809Y-4100000D01*
X-27477619Y-4338095D02*
X-28477619Y-4338095D01*
X-28477619Y-3957142D01*
X-28430000Y-3861904D01*
X-28382380Y-3814285D01*
X-28287142Y-3766666D01*
X-28144285Y-3766666D01*
X-28049047Y-3814285D01*
X-28001428Y-3861904D01*
X-27953809Y-3957142D01*
X-27953809Y-4338095D01*
X-28382380Y-3385714D02*
X-28430000Y-3338095D01*
X-28477619Y-3242857D01*
X-28477619Y-3004761D01*
X-28430000Y-2909523D01*
X-28382380Y-2861904D01*
X-28287142Y-2814285D01*
X-28191904Y-2814285D01*
X-28049047Y-2861904D01*
X-27477619Y-3433333D01*
X-27477619Y-2814285D01*
X-27966666Y-6522380D02*
X-28300000Y-6046190D01*
X-28538095Y-6522380D02*
X-28538095Y-5522380D01*
X-28157142Y-5522380D01*
X-28061904Y-5570000D01*
X-28014285Y-5617619D01*
X-27966666Y-5712857D01*
X-27966666Y-5855714D01*
X-28014285Y-5950952D01*
X-28061904Y-5998571D01*
X-28157142Y-6046190D01*
X-28538095Y-6046190D01*
X-27014285Y-6522380D02*
X-27585714Y-6522380D01*
X-27300000Y-6522380D02*
X-27300000Y-5522380D01*
X-27395238Y-5665238D01*
X-27490476Y-5760476D01*
X-27585714Y-5808095D01*
X-34195238Y-9147619D02*
X-34290476Y-9100000D01*
X-34385714Y-9004761D01*
X-34528571Y-8861904D01*
X-34623809Y-8814285D01*
X-34719047Y-8814285D01*
X-34671428Y-9052380D02*
X-34766666Y-9004761D01*
X-34861904Y-8909523D01*
X-34909523Y-8719047D01*
X-34909523Y-8385714D01*
X-34861904Y-8195238D01*
X-34766666Y-8100000D01*
X-34671428Y-8052380D01*
X-34480952Y-8052380D01*
X-34385714Y-8100000D01*
X-34290476Y-8195238D01*
X-34242857Y-8385714D01*
X-34242857Y-8719047D01*
X-34290476Y-8909523D01*
X-34385714Y-9004761D01*
X-34480952Y-9052380D01*
X-34671428Y-9052380D01*
X-33861904Y-8147619D02*
X-33814285Y-8100000D01*
X-33719047Y-8052380D01*
X-33480952Y-8052380D01*
X-33385714Y-8100000D01*
X-33338095Y-8147619D01*
X-33290476Y-8242857D01*
X-33290476Y-8338095D01*
X-33338095Y-8480952D01*
X-33909523Y-9052380D01*
X-33290476Y-9052380D01*
X-30395238Y-9147619D02*
X-30490476Y-9100000D01*
X-30585714Y-9004761D01*
X-30728571Y-8861904D01*
X-30823809Y-8814285D01*
X-30919047Y-8814285D01*
X-30871428Y-9052380D02*
X-30966666Y-9004761D01*
X-31061904Y-8909523D01*
X-31109523Y-8719047D01*
X-31109523Y-8385714D01*
X-31061904Y-8195238D01*
X-30966666Y-8100000D01*
X-30871428Y-8052380D01*
X-30680952Y-8052380D01*
X-30585714Y-8100000D01*
X-30490476Y-8195238D01*
X-30442857Y-8385714D01*
X-30442857Y-8719047D01*
X-30490476Y-8909523D01*
X-30585714Y-9004761D01*
X-30680952Y-9052380D01*
X-30871428Y-9052380D01*
X-29490476Y-9052380D02*
X-30061904Y-9052380D01*
X-29776190Y-9052380D02*
X-29776190Y-8052380D01*
X-29871428Y-8195238D01*
X-29966666Y-8290476D01*
X-30061904Y-8338095D01*
X-32909523Y-6082380D02*
X-32909523Y-6796666D01*
X-32957142Y-6939523D01*
X-33052380Y-7034761D01*
X-33195238Y-7082380D01*
X-33290476Y-7082380D01*
X-31909523Y-7082380D02*
X-32480952Y-7082380D01*
X-32195238Y-7082380D02*
X-32195238Y-6082380D01*
X-32290476Y-6225238D01*
X-32385714Y-6320476D01*
X-32480952Y-6368095D01*
X-31528571Y-6177619D02*
X-31480952Y-6130000D01*
X-31385714Y-6082380D01*
X-31147619Y-6082380D01*
X-31052380Y-6130000D01*
X-31004761Y-6177619D01*
X-30957142Y-6272857D01*
X-30957142Y-6368095D01*
X-31004761Y-6510952D01*
X-31576190Y-7082380D01*
X-30957142Y-7082380D01*
%LPC*%
D15*
X-9600000Y-5340000D03*
D16*
X-9600000Y-2800000D03*
D15*
X-9400000Y-13960000D03*
D16*
X-9400000Y-16500000D03*
D15*
X-41000000Y-6260000D03*
D16*
X-41000000Y-8800000D03*
D15*
X-41040000Y-15700000D03*
D16*
X-38500000Y-15700000D03*
D17*
X-23850000Y-13990000D03*
X-23850000Y-16530000D03*
X-15150000Y-19070000D03*
X-23850000Y-21610000D03*
X-15150000Y-21610000D03*
X-15150000Y-16530000D03*
X-15150000Y-13990000D03*
X-23850000Y-19070000D03*
X-23841000Y185001D03*
X-23841000Y-2354999D03*
X-15141000Y-4894999D03*
X-23841000Y-7434999D03*
X-15141000Y-7434999D03*
X-15141000Y-2354999D03*
X-15141000Y185001D03*
X-23841000Y-4894999D03*
D10*
G36*
X-26139221Y-18176144D02*
G01*
X-26116166Y-18179563D01*
X-26093557Y-18185227D01*
X-26071613Y-18193079D01*
X-26050543Y-18203044D01*
X-26030552Y-18215026D01*
X-26011832Y-18228910D01*
X-25994562Y-18244562D01*
X-25978910Y-18261832D01*
X-25965026Y-18280552D01*
X-25953044Y-18300543D01*
X-25943079Y-18321613D01*
X-25935227Y-18343557D01*
X-25929563Y-18366166D01*
X-25926144Y-18389221D01*
X-25925000Y-18412500D01*
X-25925000Y-18987500D01*
X-25926144Y-19010779D01*
X-25929563Y-19033834D01*
X-25935227Y-19056443D01*
X-25943079Y-19078387D01*
X-25953044Y-19099457D01*
X-25965026Y-19119448D01*
X-25978910Y-19138168D01*
X-25994562Y-19155438D01*
X-26011832Y-19171090D01*
X-26030552Y-19184974D01*
X-26050543Y-19196956D01*
X-26071613Y-19206921D01*
X-26093557Y-19214773D01*
X-26116166Y-19220437D01*
X-26139221Y-19223856D01*
X-26162500Y-19225000D01*
X-26637500Y-19225000D01*
X-26660779Y-19223856D01*
X-26683834Y-19220437D01*
X-26706443Y-19214773D01*
X-26728387Y-19206921D01*
X-26749457Y-19196956D01*
X-26769448Y-19184974D01*
X-26788168Y-19171090D01*
X-26805438Y-19155438D01*
X-26821090Y-19138168D01*
X-26834974Y-19119448D01*
X-26846956Y-19099457D01*
X-26856921Y-19078387D01*
X-26864773Y-19056443D01*
X-26870437Y-19033834D01*
X-26873856Y-19010779D01*
X-26875000Y-18987500D01*
X-26875000Y-18412500D01*
X-26873856Y-18389221D01*
X-26870437Y-18366166D01*
X-26864773Y-18343557D01*
X-26856921Y-18321613D01*
X-26846956Y-18300543D01*
X-26834974Y-18280552D01*
X-26821090Y-18261832D01*
X-26805438Y-18244562D01*
X-26788168Y-18228910D01*
X-26769448Y-18215026D01*
X-26749457Y-18203044D01*
X-26728387Y-18193079D01*
X-26706443Y-18185227D01*
X-26683834Y-18179563D01*
X-26660779Y-18176144D01*
X-26637500Y-18175000D01*
X-26162500Y-18175000D01*
X-26139221Y-18176144D01*
G37*
G36*
X-26139221Y-16426144D02*
G01*
X-26116166Y-16429563D01*
X-26093557Y-16435227D01*
X-26071613Y-16443079D01*
X-26050543Y-16453044D01*
X-26030552Y-16465026D01*
X-26011832Y-16478910D01*
X-25994562Y-16494562D01*
X-25978910Y-16511832D01*
X-25965026Y-16530552D01*
X-25953044Y-16550543D01*
X-25943079Y-16571613D01*
X-25935227Y-16593557D01*
X-25929563Y-16616166D01*
X-25926144Y-16639221D01*
X-25925000Y-16662500D01*
X-25925000Y-17237500D01*
X-25926144Y-17260779D01*
X-25929563Y-17283834D01*
X-25935227Y-17306443D01*
X-25943079Y-17328387D01*
X-25953044Y-17349457D01*
X-25965026Y-17369448D01*
X-25978910Y-17388168D01*
X-25994562Y-17405438D01*
X-26011832Y-17421090D01*
X-26030552Y-17434974D01*
X-26050543Y-17446956D01*
X-26071613Y-17456921D01*
X-26093557Y-17464773D01*
X-26116166Y-17470437D01*
X-26139221Y-17473856D01*
X-26162500Y-17475000D01*
X-26637500Y-17475000D01*
X-26660779Y-17473856D01*
X-26683834Y-17470437D01*
X-26706443Y-17464773D01*
X-26728387Y-17456921D01*
X-26749457Y-17446956D01*
X-26769448Y-17434974D01*
X-26788168Y-17421090D01*
X-26805438Y-17405438D01*
X-26821090Y-17388168D01*
X-26834974Y-17369448D01*
X-26846956Y-17349457D01*
X-26856921Y-17328387D01*
X-26864773Y-17306443D01*
X-26870437Y-17283834D01*
X-26873856Y-17260779D01*
X-26875000Y-17237500D01*
X-26875000Y-16662500D01*
X-26873856Y-16639221D01*
X-26870437Y-16616166D01*
X-26864773Y-16593557D01*
X-26856921Y-16571613D01*
X-26846956Y-16550543D01*
X-26834974Y-16530552D01*
X-26821090Y-16511832D01*
X-26805438Y-16494562D01*
X-26788168Y-16478910D01*
X-26769448Y-16465026D01*
X-26749457Y-16453044D01*
X-26728387Y-16443079D01*
X-26706443Y-16435227D01*
X-26683834Y-16429563D01*
X-26660779Y-16426144D01*
X-26637500Y-16425000D01*
X-26162500Y-16425000D01*
X-26139221Y-16426144D01*
G37*
G36*
X-28589221Y-21226144D02*
G01*
X-28566166Y-21229563D01*
X-28543557Y-21235227D01*
X-28521613Y-21243079D01*
X-28500543Y-21253044D01*
X-28480552Y-21265026D01*
X-28461832Y-21278910D01*
X-28444562Y-21294562D01*
X-28428910Y-21311832D01*
X-28415026Y-21330552D01*
X-28403044Y-21350543D01*
X-28393079Y-21371613D01*
X-28385227Y-21393557D01*
X-28379563Y-21416166D01*
X-28376144Y-21439221D01*
X-28375000Y-21462500D01*
X-28375000Y-21937500D01*
X-28376144Y-21960779D01*
X-28379563Y-21983834D01*
X-28385227Y-22006443D01*
X-28393079Y-22028387D01*
X-28403044Y-22049457D01*
X-28415026Y-22069448D01*
X-28428910Y-22088168D01*
X-28444562Y-22105438D01*
X-28461832Y-22121090D01*
X-28480552Y-22134974D01*
X-28500543Y-22146956D01*
X-28521613Y-22156921D01*
X-28543557Y-22164773D01*
X-28566166Y-22170437D01*
X-28589221Y-22173856D01*
X-28612500Y-22175000D01*
X-29187500Y-22175000D01*
X-29210779Y-22173856D01*
X-29233834Y-22170437D01*
X-29256443Y-22164773D01*
X-29278387Y-22156921D01*
X-29299457Y-22146956D01*
X-29319448Y-22134974D01*
X-29338168Y-22121090D01*
X-29355438Y-22105438D01*
X-29371090Y-22088168D01*
X-29384974Y-22069448D01*
X-29396956Y-22049457D01*
X-29406921Y-22028387D01*
X-29414773Y-22006443D01*
X-29420437Y-21983834D01*
X-29423856Y-21960779D01*
X-29425000Y-21937500D01*
X-29425000Y-21462500D01*
X-29423856Y-21439221D01*
X-29420437Y-21416166D01*
X-29414773Y-21393557D01*
X-29406921Y-21371613D01*
X-29396956Y-21350543D01*
X-29384974Y-21330552D01*
X-29371090Y-21311832D01*
X-29355438Y-21294562D01*
X-29338168Y-21278910D01*
X-29319448Y-21265026D01*
X-29299457Y-21253044D01*
X-29278387Y-21243079D01*
X-29256443Y-21235227D01*
X-29233834Y-21229563D01*
X-29210779Y-21226144D01*
X-29187500Y-21225000D01*
X-28612500Y-21225000D01*
X-28589221Y-21226144D01*
G37*
G36*
X-26839221Y-21226144D02*
G01*
X-26816166Y-21229563D01*
X-26793557Y-21235227D01*
X-26771613Y-21243079D01*
X-26750543Y-21253044D01*
X-26730552Y-21265026D01*
X-26711832Y-21278910D01*
X-26694562Y-21294562D01*
X-26678910Y-21311832D01*
X-26665026Y-21330552D01*
X-26653044Y-21350543D01*
X-26643079Y-21371613D01*
X-26635227Y-21393557D01*
X-26629563Y-21416166D01*
X-26626144Y-21439221D01*
X-26625000Y-21462500D01*
X-26625000Y-21937500D01*
X-26626144Y-21960779D01*
X-26629563Y-21983834D01*
X-26635227Y-22006443D01*
X-26643079Y-22028387D01*
X-26653044Y-22049457D01*
X-26665026Y-22069448D01*
X-26678910Y-22088168D01*
X-26694562Y-22105438D01*
X-26711832Y-22121090D01*
X-26730552Y-22134974D01*
X-26750543Y-22146956D01*
X-26771613Y-22156921D01*
X-26793557Y-22164773D01*
X-26816166Y-22170437D01*
X-26839221Y-22173856D01*
X-26862500Y-22175000D01*
X-27437500Y-22175000D01*
X-27460779Y-22173856D01*
X-27483834Y-22170437D01*
X-27506443Y-22164773D01*
X-27528387Y-22156921D01*
X-27549457Y-22146956D01*
X-27569448Y-22134974D01*
X-27588168Y-22121090D01*
X-27605438Y-22105438D01*
X-27621090Y-22088168D01*
X-27634974Y-22069448D01*
X-27646956Y-22049457D01*
X-27656921Y-22028387D01*
X-27664773Y-22006443D01*
X-27670437Y-21983834D01*
X-27673856Y-21960779D01*
X-27675000Y-21937500D01*
X-27675000Y-21462500D01*
X-27673856Y-21439221D01*
X-27670437Y-21416166D01*
X-27664773Y-21393557D01*
X-27656921Y-21371613D01*
X-27646956Y-21350543D01*
X-27634974Y-21330552D01*
X-27621090Y-21311832D01*
X-27605438Y-21294562D01*
X-27588168Y-21278910D01*
X-27569448Y-21265026D01*
X-27549457Y-21253044D01*
X-27528387Y-21243079D01*
X-27506443Y-21235227D01*
X-27483834Y-21229563D01*
X-27460779Y-21226144D01*
X-27437500Y-21225000D01*
X-26862500Y-21225000D01*
X-26839221Y-21226144D01*
G37*
G36*
X-26239221Y-2201144D02*
G01*
X-26216166Y-2204563D01*
X-26193557Y-2210227D01*
X-26171613Y-2218079D01*
X-26150543Y-2228044D01*
X-26130552Y-2240026D01*
X-26111832Y-2253910D01*
X-26094562Y-2269562D01*
X-26078910Y-2286832D01*
X-26065026Y-2305552D01*
X-26053044Y-2325543D01*
X-26043079Y-2346613D01*
X-26035227Y-2368557D01*
X-26029563Y-2391166D01*
X-26026144Y-2414221D01*
X-26025000Y-2437500D01*
X-26025000Y-3012500D01*
X-26026144Y-3035779D01*
X-26029563Y-3058834D01*
X-26035227Y-3081443D01*
X-26043079Y-3103387D01*
X-26053044Y-3124457D01*
X-26065026Y-3144448D01*
X-26078910Y-3163168D01*
X-26094562Y-3180438D01*
X-26111832Y-3196090D01*
X-26130552Y-3209974D01*
X-26150543Y-3221956D01*
X-26171613Y-3231921D01*
X-26193557Y-3239773D01*
X-26216166Y-3245437D01*
X-26239221Y-3248856D01*
X-26262500Y-3250000D01*
X-26737500Y-3250000D01*
X-26760779Y-3248856D01*
X-26783834Y-3245437D01*
X-26806443Y-3239773D01*
X-26828387Y-3231921D01*
X-26849457Y-3221956D01*
X-26869448Y-3209974D01*
X-26888168Y-3196090D01*
X-26905438Y-3180438D01*
X-26921090Y-3163168D01*
X-26934974Y-3144448D01*
X-26946956Y-3124457D01*
X-26956921Y-3103387D01*
X-26964773Y-3081443D01*
X-26970437Y-3058834D01*
X-26973856Y-3035779D01*
X-26975000Y-3012500D01*
X-26975000Y-2437500D01*
X-26973856Y-2414221D01*
X-26970437Y-2391166D01*
X-26964773Y-2368557D01*
X-26956921Y-2346613D01*
X-26946956Y-2325543D01*
X-26934974Y-2305552D01*
X-26921090Y-2286832D01*
X-26905438Y-2269562D01*
X-26888168Y-2253910D01*
X-26869448Y-2240026D01*
X-26849457Y-2228044D01*
X-26828387Y-2218079D01*
X-26806443Y-2210227D01*
X-26783834Y-2204563D01*
X-26760779Y-2201144D01*
X-26737500Y-2200000D01*
X-26262500Y-2200000D01*
X-26239221Y-2201144D01*
G37*
G36*
X-26239221Y-3951144D02*
G01*
X-26216166Y-3954563D01*
X-26193557Y-3960227D01*
X-26171613Y-3968079D01*
X-26150543Y-3978044D01*
X-26130552Y-3990026D01*
X-26111832Y-4003910D01*
X-26094562Y-4019562D01*
X-26078910Y-4036832D01*
X-26065026Y-4055552D01*
X-26053044Y-4075543D01*
X-26043079Y-4096613D01*
X-26035227Y-4118557D01*
X-26029563Y-4141166D01*
X-26026144Y-4164221D01*
X-26025000Y-4187500D01*
X-26025000Y-4762500D01*
X-26026144Y-4785779D01*
X-26029563Y-4808834D01*
X-26035227Y-4831443D01*
X-26043079Y-4853387D01*
X-26053044Y-4874457D01*
X-26065026Y-4894448D01*
X-26078910Y-4913168D01*
X-26094562Y-4930438D01*
X-26111832Y-4946090D01*
X-26130552Y-4959974D01*
X-26150543Y-4971956D01*
X-26171613Y-4981921D01*
X-26193557Y-4989773D01*
X-26216166Y-4995437D01*
X-26239221Y-4998856D01*
X-26262500Y-5000000D01*
X-26737500Y-5000000D01*
X-26760779Y-4998856D01*
X-26783834Y-4995437D01*
X-26806443Y-4989773D01*
X-26828387Y-4981921D01*
X-26849457Y-4971956D01*
X-26869448Y-4959974D01*
X-26888168Y-4946090D01*
X-26905438Y-4930438D01*
X-26921090Y-4913168D01*
X-26934974Y-4894448D01*
X-26946956Y-4874457D01*
X-26956921Y-4853387D01*
X-26964773Y-4831443D01*
X-26970437Y-4808834D01*
X-26973856Y-4785779D01*
X-26975000Y-4762500D01*
X-26975000Y-4187500D01*
X-26973856Y-4164221D01*
X-26970437Y-4141166D01*
X-26964773Y-4118557D01*
X-26956921Y-4096613D01*
X-26946956Y-4075543D01*
X-26934974Y-4055552D01*
X-26921090Y-4036832D01*
X-26905438Y-4019562D01*
X-26888168Y-4003910D01*
X-26869448Y-3990026D01*
X-26849457Y-3978044D01*
X-26828387Y-3968079D01*
X-26806443Y-3960227D01*
X-26783834Y-3954563D01*
X-26760779Y-3951144D01*
X-26737500Y-3950000D01*
X-26262500Y-3950000D01*
X-26239221Y-3951144D01*
G37*
G36*
X-26614221Y-7026144D02*
G01*
X-26591166Y-7029563D01*
X-26568557Y-7035227D01*
X-26546613Y-7043079D01*
X-26525543Y-7053044D01*
X-26505552Y-7065026D01*
X-26486832Y-7078910D01*
X-26469562Y-7094562D01*
X-26453910Y-7111832D01*
X-26440026Y-7130552D01*
X-26428044Y-7150543D01*
X-26418079Y-7171613D01*
X-26410227Y-7193557D01*
X-26404563Y-7216166D01*
X-26401144Y-7239221D01*
X-26400000Y-7262500D01*
X-26400000Y-7737500D01*
X-26401144Y-7760779D01*
X-26404563Y-7783834D01*
X-26410227Y-7806443D01*
X-26418079Y-7828387D01*
X-26428044Y-7849457D01*
X-26440026Y-7869448D01*
X-26453910Y-7888168D01*
X-26469562Y-7905438D01*
X-26486832Y-7921090D01*
X-26505552Y-7934974D01*
X-26525543Y-7946956D01*
X-26546613Y-7956921D01*
X-26568557Y-7964773D01*
X-26591166Y-7970437D01*
X-26614221Y-7973856D01*
X-26637500Y-7975000D01*
X-27212500Y-7975000D01*
X-27235779Y-7973856D01*
X-27258834Y-7970437D01*
X-27281443Y-7964773D01*
X-27303387Y-7956921D01*
X-27324457Y-7946956D01*
X-27344448Y-7934974D01*
X-27363168Y-7921090D01*
X-27380438Y-7905438D01*
X-27396090Y-7888168D01*
X-27409974Y-7869448D01*
X-27421956Y-7849457D01*
X-27431921Y-7828387D01*
X-27439773Y-7806443D01*
X-27445437Y-7783834D01*
X-27448856Y-7760779D01*
X-27450000Y-7737500D01*
X-27450000Y-7262500D01*
X-27448856Y-7239221D01*
X-27445437Y-7216166D01*
X-27439773Y-7193557D01*
X-27431921Y-7171613D01*
X-27421956Y-7150543D01*
X-27409974Y-7130552D01*
X-27396090Y-7111832D01*
X-27380438Y-7094562D01*
X-27363168Y-7078910D01*
X-27344448Y-7065026D01*
X-27324457Y-7053044D01*
X-27303387Y-7043079D01*
X-27281443Y-7035227D01*
X-27258834Y-7029563D01*
X-27235779Y-7026144D01*
X-27212500Y-7025000D01*
X-26637500Y-7025000D01*
X-26614221Y-7026144D01*
G37*
G36*
X-28364221Y-7026144D02*
G01*
X-28341166Y-7029563D01*
X-28318557Y-7035227D01*
X-28296613Y-7043079D01*
X-28275543Y-7053044D01*
X-28255552Y-7065026D01*
X-28236832Y-7078910D01*
X-28219562Y-7094562D01*
X-28203910Y-7111832D01*
X-28190026Y-7130552D01*
X-28178044Y-7150543D01*
X-28168079Y-7171613D01*
X-28160227Y-7193557D01*
X-28154563Y-7216166D01*
X-28151144Y-7239221D01*
X-28150000Y-7262500D01*
X-28150000Y-7737500D01*
X-28151144Y-7760779D01*
X-28154563Y-7783834D01*
X-28160227Y-7806443D01*
X-28168079Y-7828387D01*
X-28178044Y-7849457D01*
X-28190026Y-7869448D01*
X-28203910Y-7888168D01*
X-28219562Y-7905438D01*
X-28236832Y-7921090D01*
X-28255552Y-7934974D01*
X-28275543Y-7946956D01*
X-28296613Y-7956921D01*
X-28318557Y-7964773D01*
X-28341166Y-7970437D01*
X-28364221Y-7973856D01*
X-28387500Y-7975000D01*
X-28962500Y-7975000D01*
X-28985779Y-7973856D01*
X-29008834Y-7970437D01*
X-29031443Y-7964773D01*
X-29053387Y-7956921D01*
X-29074457Y-7946956D01*
X-29094448Y-7934974D01*
X-29113168Y-7921090D01*
X-29130438Y-7905438D01*
X-29146090Y-7888168D01*
X-29159974Y-7869448D01*
X-29171956Y-7849457D01*
X-29181921Y-7828387D01*
X-29189773Y-7806443D01*
X-29195437Y-7783834D01*
X-29198856Y-7760779D01*
X-29200000Y-7737500D01*
X-29200000Y-7262500D01*
X-29198856Y-7239221D01*
X-29195437Y-7216166D01*
X-29189773Y-7193557D01*
X-29181921Y-7171613D01*
X-29171956Y-7150543D01*
X-29159974Y-7130552D01*
X-29146090Y-7111832D01*
X-29130438Y-7094562D01*
X-29113168Y-7078910D01*
X-29094448Y-7065026D01*
X-29074457Y-7053044D01*
X-29053387Y-7043079D01*
X-29031443Y-7035227D01*
X-29008834Y-7029563D01*
X-28985779Y-7026144D01*
X-28962500Y-7025000D01*
X-28387500Y-7025000D01*
X-28364221Y-7026144D01*
G37*
D18*
X-33100000Y-11100000D03*
X-35100000Y-12050000D03*
X-35100000Y-10150000D03*
X-29300000Y-11100000D03*
X-31300000Y-12050000D03*
X-31300000Y-10150000D03*
D15*
X-32100000Y-1760000D03*
D16*
X-32100000Y-4300000D03*
M02*
