%FSLAX45Y45*%
G04 Gerber Fmt 4.5, Leading zero omitted, Abs format (unit mm)*
G04 Created by KiCad (PCBNEW (5.1.5-0)) date 2022-03-29 15:48:20*
%MOMM*%
%LPD*%
G04 APERTURE LIST*
%TA.AperFunction,Profile*%
%ADD10C,0.038100*%
%TD*%
%ADD11C,0.200000*%
%ADD12C,0.300000*%
G04 APERTURE END LIST*
D10*
X-4500000Y-2500000D02*
X-4500000Y500000D01*
X-500000Y-2500000D02*
X-4500000Y-2500000D01*
X-500000Y500000D02*
X-500000Y-2500000D01*
X-4500000Y500000D02*
X-500000Y500000D01*
D11*
D12*
X-4215477Y-2967619D02*
X-4215477Y-2667619D01*
X-4144048Y-2667619D01*
X-4101191Y-2681905D01*
X-4072619Y-2710477D01*
X-4058334Y-2739048D01*
X-4044048Y-2796191D01*
X-4044048Y-2839048D01*
X-4058334Y-2896191D01*
X-4072619Y-2924762D01*
X-4101191Y-2953334D01*
X-4144048Y-2967619D01*
X-4215477Y-2967619D01*
X-3915476Y-2967619D02*
X-3915476Y-2767619D01*
X-3915476Y-2824762D02*
X-3901191Y-2796191D01*
X-3886905Y-2781905D01*
X-3858334Y-2767619D01*
X-3829762Y-2767619D01*
X-3729762Y-2967619D02*
X-3729762Y-2767619D01*
X-3729762Y-2667619D02*
X-3744048Y-2681905D01*
X-3729762Y-2696191D01*
X-3715476Y-2681905D01*
X-3729762Y-2667619D01*
X-3729762Y-2696191D01*
X-3544048Y-2967619D02*
X-3572619Y-2953334D01*
X-3586905Y-2924762D01*
X-3586905Y-2667619D01*
X-3386905Y-2967619D02*
X-3415476Y-2953334D01*
X-3429762Y-2924762D01*
X-3429762Y-2667619D01*
X-3044048Y-2967619D02*
X-3044048Y-2667619D01*
X-2944048Y-2881905D01*
X-2844048Y-2667619D01*
X-2844048Y-2967619D01*
X-2572619Y-2967619D02*
X-2572619Y-2810476D01*
X-2586905Y-2781905D01*
X-2615477Y-2767619D01*
X-2672619Y-2767619D01*
X-2701191Y-2781905D01*
X-2572619Y-2953334D02*
X-2601191Y-2967619D01*
X-2672619Y-2967619D01*
X-2701191Y-2953334D01*
X-2715477Y-2924762D01*
X-2715477Y-2896191D01*
X-2701191Y-2867619D01*
X-2672619Y-2853334D01*
X-2601191Y-2853334D01*
X-2572619Y-2839048D01*
X-2429762Y-2767619D02*
X-2429762Y-3067619D01*
X-2429762Y-2781905D02*
X-2401191Y-2767619D01*
X-2344048Y-2767619D01*
X-2315477Y-2781905D01*
X-2301191Y-2796191D01*
X-2286905Y-2824762D01*
X-2286905Y-2910476D01*
X-2301191Y-2939048D01*
X-2315477Y-2953334D01*
X-2344048Y-2967619D01*
X-2401191Y-2967619D01*
X-2429762Y-2953334D01*
X-2158334Y-2939048D02*
X-2144048Y-2953334D01*
X-2158334Y-2967619D01*
X-2172619Y-2953334D01*
X-2158334Y-2939048D01*
X-2158334Y-2967619D01*
X-2158334Y-2781905D02*
X-2144048Y-2796191D01*
X-2158334Y-2810476D01*
X-2172619Y-2796191D01*
X-2158334Y-2781905D01*
X-2158334Y-2810476D01*
M02*
