%FSLAX45Y45*%
G04 Gerber Fmt 4.5, Leading zero omitted, Abs format (unit mm)*
G04 Created by KiCad (PCBNEW (5.1.5-0)) date 2022-03-30 10:24:27*
%MOMM*%
%LPD*%
G04 APERTURE LIST*
%TA.AperFunction,Profile*%
%ADD10C,0.150000*%
%TD*%
%ADD11C,0.200000*%
%ADD12C,0.300000*%
G04 APERTURE END LIST*
D10*
X10000000Y-8100000D02*
X13900000Y-8100000D01*
X10000000Y-10000000D02*
X10000000Y-8100000D01*
X13900000Y-10000000D02*
X10000000Y-10000000D01*
X13900000Y-8100000D02*
X13900000Y-10000000D01*
D11*
X10815000Y-9385000D02*
X10855000Y-9425000D01*
X10855000Y-9385000D02*
X10815000Y-9425000D01*
X11045000Y-9315000D02*
X11085000Y-9355000D01*
X11085000Y-9315000D02*
X11045000Y-9355000D01*
X11185000Y-9335000D02*
X11225000Y-9375000D01*
X11225000Y-9335000D02*
X11185000Y-9375000D01*
X11285000Y-9185000D02*
X11325000Y-9225000D01*
X11325000Y-9185000D02*
X11285000Y-9225000D01*
X11542500Y-9077500D02*
X11582500Y-9117500D01*
X11582500Y-9077500D02*
X11542500Y-9117500D01*
X11572500Y-8745000D02*
X11612500Y-8785000D01*
X11612500Y-8745000D02*
X11572500Y-8785000D01*
X11700181Y-9430181D02*
X11740181Y-9470181D01*
X11740181Y-9430181D02*
X11700181Y-9470181D01*
X11795000Y-9435000D02*
X11835000Y-9475000D01*
X11835000Y-9435000D02*
X11795000Y-9475000D01*
X11855000Y-8905000D02*
X11895000Y-8945000D01*
X11895000Y-8905000D02*
X11855000Y-8945000D01*
X12055000Y-9005000D02*
X12095000Y-9045000D01*
X12095000Y-9005000D02*
X12055000Y-9045000D01*
X12076809Y-8557355D02*
X12116809Y-8597355D01*
X12116809Y-8557355D02*
X12076809Y-8597355D01*
X12175000Y-8565000D02*
X12215000Y-8605000D01*
X12215000Y-8565000D02*
X12175000Y-8605000D01*
X12205000Y-9475000D02*
X12245000Y-9515000D01*
X12245000Y-9475000D02*
X12205000Y-9515000D01*
X12695000Y-9285000D02*
X12735000Y-9325000D01*
X12735000Y-9285000D02*
X12695000Y-9325000D01*
X12695000Y-9585000D02*
X12735000Y-9625000D01*
X12735000Y-9585000D02*
X12695000Y-9625000D01*
X12705000Y-8595000D02*
X12745000Y-8635000D01*
X12745000Y-8595000D02*
X12705000Y-8635000D01*
X12705000Y-8965000D02*
X12745000Y-9005000D01*
X12745000Y-8965000D02*
X12705000Y-9005000D01*
X12940001Y-9285000D02*
X12980001Y-9325000D01*
X12980001Y-9285000D02*
X12940001Y-9325000D01*
X13000000Y-8965000D02*
X13040000Y-9005000D01*
X13040000Y-8965000D02*
X13000000Y-9005000D01*
X13065001Y-9285000D02*
X13105001Y-9325000D01*
X13105001Y-9285000D02*
X13065001Y-9325000D01*
X13180000Y-9100000D02*
X13220000Y-9140000D01*
X13220000Y-9100000D02*
X13180000Y-9140000D01*
X13185000Y-9200000D02*
X13225000Y-9240000D01*
X13225000Y-9200000D02*
X13185000Y-9240000D01*
X13525000Y-9105000D02*
X13565000Y-9145000D01*
X13565000Y-9105000D02*
X13525000Y-9145000D01*
X13415000Y-9680000D02*
X13455000Y-9720000D01*
X13455000Y-9680000D02*
X13415000Y-9720000D01*
X13463327Y-9563327D02*
X13503327Y-9603327D01*
X13503327Y-9563327D02*
X13463327Y-9603327D01*
X13463327Y-9796673D02*
X13503327Y-9836673D01*
X13503327Y-9796673D02*
X13463327Y-9836673D01*
X13580000Y-9515000D02*
X13620000Y-9555000D01*
X13620000Y-9515000D02*
X13580000Y-9555000D01*
X13580000Y-9845000D02*
X13620000Y-9885000D01*
X13620000Y-9845000D02*
X13580000Y-9885000D01*
X13696673Y-9563327D02*
X13736673Y-9603327D01*
X13736673Y-9563327D02*
X13696673Y-9603327D01*
X13696673Y-9796673D02*
X13736673Y-9836673D01*
X13736673Y-9796673D02*
X13696673Y-9836673D01*
X13745000Y-9680000D02*
X13785000Y-9720000D01*
X13785000Y-9680000D02*
X13745000Y-9720000D01*
X10115000Y-9680000D02*
X10155000Y-9720000D01*
X10155000Y-9680000D02*
X10115000Y-9720000D01*
X10163327Y-9563327D02*
X10203327Y-9603327D01*
X10203327Y-9563327D02*
X10163327Y-9603327D01*
X10163327Y-9796673D02*
X10203327Y-9836673D01*
X10203327Y-9796673D02*
X10163327Y-9836673D01*
X10280000Y-9515000D02*
X10320000Y-9555000D01*
X10320000Y-9515000D02*
X10280000Y-9555000D01*
X10280000Y-9845000D02*
X10320000Y-9885000D01*
X10320000Y-9845000D02*
X10280000Y-9885000D01*
X10396673Y-9563327D02*
X10436673Y-9603327D01*
X10436673Y-9563327D02*
X10396673Y-9603327D01*
X10396673Y-9796673D02*
X10436673Y-9836673D01*
X10436673Y-9796673D02*
X10396673Y-9836673D01*
X10445000Y-9680000D02*
X10485000Y-9720000D01*
X10485000Y-9680000D02*
X10445000Y-9720000D01*
X10115000Y-8380000D02*
X10155000Y-8420000D01*
X10155000Y-8380000D02*
X10115000Y-8420000D01*
X10163327Y-8263327D02*
X10203327Y-8303327D01*
X10203327Y-8263327D02*
X10163327Y-8303327D01*
X10163327Y-8496673D02*
X10203327Y-8536673D01*
X10203327Y-8496673D02*
X10163327Y-8536673D01*
X10280000Y-8215000D02*
X10320000Y-8255000D01*
X10320000Y-8215000D02*
X10280000Y-8255000D01*
X10280000Y-8545000D02*
X10320000Y-8585000D01*
X10320000Y-8545000D02*
X10280000Y-8585000D01*
X10396673Y-8263327D02*
X10436673Y-8303327D01*
X10436673Y-8263327D02*
X10396673Y-8303327D01*
X10396673Y-8496673D02*
X10436673Y-8536673D01*
X10436673Y-8496673D02*
X10396673Y-8536673D01*
X10445000Y-8380000D02*
X10485000Y-8420000D01*
X10485000Y-8380000D02*
X10445000Y-8420000D01*
X13415000Y-8380000D02*
X13455000Y-8420000D01*
X13455000Y-8380000D02*
X13415000Y-8420000D01*
X13463327Y-8263327D02*
X13503327Y-8303327D01*
X13503327Y-8263327D02*
X13463327Y-8303327D01*
X13463327Y-8496673D02*
X13503327Y-8536673D01*
X13503327Y-8496673D02*
X13463327Y-8536673D01*
X13580000Y-8215000D02*
X13620000Y-8255000D01*
X13620000Y-8215000D02*
X13580000Y-8255000D01*
X13580000Y-8545000D02*
X13620000Y-8585000D01*
X13620000Y-8545000D02*
X13580000Y-8585000D01*
X13696673Y-8263327D02*
X13736673Y-8303327D01*
X13736673Y-8263327D02*
X13696673Y-8303327D01*
X13696673Y-8496673D02*
X13736673Y-8536673D01*
X13736673Y-8496673D02*
X13696673Y-8536673D01*
X13745000Y-8380000D02*
X13785000Y-8420000D01*
X13785000Y-8380000D02*
X13745000Y-8420000D01*
X10410000Y-9700000D02*
G75*
G03X10410000Y-9700000I-110000J0D01*
G01*
X10410000Y-8400000D02*
G75*
G03X10410000Y-8400000I-110000J0D01*
G01*
X13710000Y-8400000D02*
G75*
G03X13710000Y-8400000I-110000J0D01*
G01*
X13710000Y-9700000D02*
G75*
G03X13710000Y-9700000I-110000J0D01*
G01*
D12*
X10278928Y-10473214D02*
X10278928Y-10173214D01*
X10350357Y-10173214D01*
X10393214Y-10187500D01*
X10421786Y-10216072D01*
X10436071Y-10244643D01*
X10450357Y-10301786D01*
X10450357Y-10344643D01*
X10436071Y-10401786D01*
X10421786Y-10430357D01*
X10393214Y-10458929D01*
X10350357Y-10473214D01*
X10278928Y-10473214D01*
X10578928Y-10473214D02*
X10578928Y-10273214D01*
X10578928Y-10330357D02*
X10593214Y-10301786D01*
X10607500Y-10287500D01*
X10636071Y-10273214D01*
X10664643Y-10273214D01*
X10764643Y-10473214D02*
X10764643Y-10273214D01*
X10764643Y-10173214D02*
X10750357Y-10187500D01*
X10764643Y-10201786D01*
X10778928Y-10187500D01*
X10764643Y-10173214D01*
X10764643Y-10201786D01*
X10950357Y-10473214D02*
X10921786Y-10458929D01*
X10907500Y-10430357D01*
X10907500Y-10173214D01*
X11107500Y-10473214D02*
X11078928Y-10458929D01*
X11064643Y-10430357D01*
X11064643Y-10173214D01*
X11450357Y-10473214D02*
X11450357Y-10173214D01*
X11550357Y-10387500D01*
X11650357Y-10173214D01*
X11650357Y-10473214D01*
X11921786Y-10473214D02*
X11921786Y-10316072D01*
X11907500Y-10287500D01*
X11878928Y-10273214D01*
X11821786Y-10273214D01*
X11793214Y-10287500D01*
X11921786Y-10458929D02*
X11893214Y-10473214D01*
X11821786Y-10473214D01*
X11793214Y-10458929D01*
X11778928Y-10430357D01*
X11778928Y-10401786D01*
X11793214Y-10373214D01*
X11821786Y-10358929D01*
X11893214Y-10358929D01*
X11921786Y-10344643D01*
X12064643Y-10273214D02*
X12064643Y-10573214D01*
X12064643Y-10287500D02*
X12093214Y-10273214D01*
X12150357Y-10273214D01*
X12178928Y-10287500D01*
X12193214Y-10301786D01*
X12207500Y-10330357D01*
X12207500Y-10416072D01*
X12193214Y-10444643D01*
X12178928Y-10458929D01*
X12150357Y-10473214D01*
X12093214Y-10473214D01*
X12064643Y-10458929D01*
X12336071Y-10444643D02*
X12350357Y-10458929D01*
X12336071Y-10473214D01*
X12321786Y-10458929D01*
X12336071Y-10444643D01*
X12336071Y-10473214D01*
X12336071Y-10287500D02*
X12350357Y-10301786D01*
X12336071Y-10316072D01*
X12321786Y-10301786D01*
X12336071Y-10287500D01*
X12336071Y-10316072D01*
X9952500Y-10947500D02*
X9992500Y-10987500D01*
X9992500Y-10947500D02*
X9952500Y-10987500D01*
X10336071Y-10803214D02*
X10364643Y-10803214D01*
X10393214Y-10817500D01*
X10407500Y-10831786D01*
X10421786Y-10860357D01*
X10436071Y-10917500D01*
X10436071Y-10988929D01*
X10421786Y-11046072D01*
X10407500Y-11074643D01*
X10393214Y-11088929D01*
X10364643Y-11103214D01*
X10336071Y-11103214D01*
X10307500Y-11088929D01*
X10293214Y-11074643D01*
X10278928Y-11046072D01*
X10264643Y-10988929D01*
X10264643Y-10917500D01*
X10278928Y-10860357D01*
X10293214Y-10831786D01*
X10307500Y-10817500D01*
X10336071Y-10803214D01*
X10564643Y-11074643D02*
X10578928Y-11088929D01*
X10564643Y-11103214D01*
X10550357Y-11088929D01*
X10564643Y-11074643D01*
X10564643Y-11103214D01*
X10836071Y-10903214D02*
X10836071Y-11103214D01*
X10764643Y-10788929D02*
X10693214Y-11003214D01*
X10878928Y-11003214D01*
X11050357Y-10803214D02*
X11078928Y-10803214D01*
X11107500Y-10817500D01*
X11121786Y-10831786D01*
X11136071Y-10860357D01*
X11150357Y-10917500D01*
X11150357Y-10988929D01*
X11136071Y-11046072D01*
X11121786Y-11074643D01*
X11107500Y-11088929D01*
X11078928Y-11103214D01*
X11050357Y-11103214D01*
X11021786Y-11088929D01*
X11007500Y-11074643D01*
X10993214Y-11046072D01*
X10978928Y-10988929D01*
X10978928Y-10917500D01*
X10993214Y-10860357D01*
X11007500Y-10831786D01*
X11021786Y-10817500D01*
X11050357Y-10803214D01*
X11278928Y-11103214D02*
X11278928Y-10903214D01*
X11278928Y-10931786D02*
X11293214Y-10917500D01*
X11321786Y-10903214D01*
X11364643Y-10903214D01*
X11393214Y-10917500D01*
X11407500Y-10946072D01*
X11407500Y-11103214D01*
X11407500Y-10946072D02*
X11421786Y-10917500D01*
X11450357Y-10903214D01*
X11493214Y-10903214D01*
X11521786Y-10917500D01*
X11536071Y-10946072D01*
X11536071Y-11103214D01*
X11678928Y-11103214D02*
X11678928Y-10903214D01*
X11678928Y-10931786D02*
X11693214Y-10917500D01*
X11721786Y-10903214D01*
X11764643Y-10903214D01*
X11793214Y-10917500D01*
X11807500Y-10946072D01*
X11807500Y-11103214D01*
X11807500Y-10946072D02*
X11821786Y-10917500D01*
X11850357Y-10903214D01*
X11893214Y-10903214D01*
X11921786Y-10917500D01*
X11936071Y-10946072D01*
X11936071Y-11103214D01*
X12521786Y-10788929D02*
X12264643Y-11174643D01*
X12907500Y-10803214D02*
X12936071Y-10803214D01*
X12964643Y-10817500D01*
X12978928Y-10831786D01*
X12993214Y-10860357D01*
X13007500Y-10917500D01*
X13007500Y-10988929D01*
X12993214Y-11046072D01*
X12978928Y-11074643D01*
X12964643Y-11088929D01*
X12936071Y-11103214D01*
X12907500Y-11103214D01*
X12878928Y-11088929D01*
X12864643Y-11074643D01*
X12850357Y-11046072D01*
X12836071Y-10988929D01*
X12836071Y-10917500D01*
X12850357Y-10860357D01*
X12864643Y-10831786D01*
X12878928Y-10817500D01*
X12907500Y-10803214D01*
X13136071Y-11074643D02*
X13150357Y-11088929D01*
X13136071Y-11103214D01*
X13121786Y-11088929D01*
X13136071Y-11074643D01*
X13136071Y-11103214D01*
X13336071Y-10803214D02*
X13364643Y-10803214D01*
X13393214Y-10817500D01*
X13407500Y-10831786D01*
X13421786Y-10860357D01*
X13436071Y-10917500D01*
X13436071Y-10988929D01*
X13421786Y-11046072D01*
X13407500Y-11074643D01*
X13393214Y-11088929D01*
X13364643Y-11103214D01*
X13336071Y-11103214D01*
X13307500Y-11088929D01*
X13293214Y-11074643D01*
X13278928Y-11046072D01*
X13264643Y-10988929D01*
X13264643Y-10917500D01*
X13278928Y-10860357D01*
X13293214Y-10831786D01*
X13307500Y-10817500D01*
X13336071Y-10803214D01*
X13721786Y-11103214D02*
X13550357Y-11103214D01*
X13636071Y-11103214D02*
X13636071Y-10803214D01*
X13607500Y-10846072D01*
X13578928Y-10874643D01*
X13550357Y-10888929D01*
X13978928Y-10803214D02*
X13921786Y-10803214D01*
X13893214Y-10817500D01*
X13878928Y-10831786D01*
X13850357Y-10874643D01*
X13836071Y-10931786D01*
X13836071Y-11046072D01*
X13850357Y-11074643D01*
X13864643Y-11088929D01*
X13893214Y-11103214D01*
X13950357Y-11103214D01*
X13978928Y-11088929D01*
X13993214Y-11074643D01*
X14007500Y-11046072D01*
X14007500Y-10974643D01*
X13993214Y-10946072D01*
X13978928Y-10931786D01*
X13950357Y-10917500D01*
X13893214Y-10917500D01*
X13864643Y-10931786D01*
X13850357Y-10946072D01*
X13836071Y-10974643D01*
X14121786Y-10803214D02*
X14121786Y-10860357D01*
X14236071Y-10803214D02*
X14236071Y-10860357D01*
X14678928Y-11217500D02*
X14664643Y-11203214D01*
X14636071Y-11160357D01*
X14621786Y-11131786D01*
X14607500Y-11088929D01*
X14593214Y-11017500D01*
X14593214Y-10960357D01*
X14607500Y-10888929D01*
X14621786Y-10846072D01*
X14636071Y-10817500D01*
X14664643Y-10774643D01*
X14678928Y-10760357D01*
X14936071Y-10803214D02*
X14793214Y-10803214D01*
X14778928Y-10946072D01*
X14793214Y-10931786D01*
X14821786Y-10917500D01*
X14893214Y-10917500D01*
X14921786Y-10931786D01*
X14936071Y-10946072D01*
X14950357Y-10974643D01*
X14950357Y-11046072D01*
X14936071Y-11074643D01*
X14921786Y-11088929D01*
X14893214Y-11103214D01*
X14821786Y-11103214D01*
X14793214Y-11088929D01*
X14778928Y-11074643D01*
X15221786Y-10803214D02*
X15078928Y-10803214D01*
X15064643Y-10946072D01*
X15078928Y-10931786D01*
X15107500Y-10917500D01*
X15178928Y-10917500D01*
X15207500Y-10931786D01*
X15221786Y-10946072D01*
X15236071Y-10974643D01*
X15236071Y-11046072D01*
X15221786Y-11074643D01*
X15207500Y-11088929D01*
X15178928Y-11103214D01*
X15107500Y-11103214D01*
X15078928Y-11088929D01*
X15064643Y-11074643D01*
X15593214Y-11103214D02*
X15593214Y-10803214D01*
X15721786Y-11103214D02*
X15721786Y-10946072D01*
X15707500Y-10917500D01*
X15678928Y-10903214D01*
X15636071Y-10903214D01*
X15607500Y-10917500D01*
X15593214Y-10931786D01*
X15907500Y-11103214D02*
X15878928Y-11088929D01*
X15864643Y-11074643D01*
X15850357Y-11046072D01*
X15850357Y-10960357D01*
X15864643Y-10931786D01*
X15878928Y-10917500D01*
X15907500Y-10903214D01*
X15950357Y-10903214D01*
X15978928Y-10917500D01*
X15993214Y-10931786D01*
X16007500Y-10960357D01*
X16007500Y-11046072D01*
X15993214Y-11074643D01*
X15978928Y-11088929D01*
X15950357Y-11103214D01*
X15907500Y-11103214D01*
X16178928Y-11103214D02*
X16150357Y-11088929D01*
X16136071Y-11060357D01*
X16136071Y-10803214D01*
X16407500Y-11088929D02*
X16378928Y-11103214D01*
X16321786Y-11103214D01*
X16293214Y-11088929D01*
X16278928Y-11060357D01*
X16278928Y-10946072D01*
X16293214Y-10917500D01*
X16321786Y-10903214D01*
X16378928Y-10903214D01*
X16407500Y-10917500D01*
X16421786Y-10946072D01*
X16421786Y-10974643D01*
X16278928Y-11003214D01*
X16536071Y-11088929D02*
X16564643Y-11103214D01*
X16621786Y-11103214D01*
X16650357Y-11088929D01*
X16664643Y-11060357D01*
X16664643Y-11046072D01*
X16650357Y-11017500D01*
X16621786Y-11003214D01*
X16578928Y-11003214D01*
X16550357Y-10988929D01*
X16536071Y-10960357D01*
X16536071Y-10946072D01*
X16550357Y-10917500D01*
X16578928Y-10903214D01*
X16621786Y-10903214D01*
X16650357Y-10917500D01*
X16764643Y-11217500D02*
X16778928Y-11203214D01*
X16807500Y-11160357D01*
X16821786Y-11131786D01*
X16836071Y-11088929D01*
X16850357Y-11017500D01*
X16850357Y-10960357D01*
X16836071Y-10888929D01*
X16821786Y-10846072D01*
X16807500Y-10817500D01*
X16778928Y-10774643D01*
X16764643Y-10760357D01*
X9992500Y-11363500D02*
G75*
G03X9992500Y-11363500I-110000J0D01*
G01*
X10264643Y-11227786D02*
X10278928Y-11213500D01*
X10307500Y-11199214D01*
X10378928Y-11199214D01*
X10407500Y-11213500D01*
X10421786Y-11227786D01*
X10436071Y-11256357D01*
X10436071Y-11284929D01*
X10421786Y-11327786D01*
X10250357Y-11499214D01*
X10436071Y-11499214D01*
X10564643Y-11470643D02*
X10578928Y-11484929D01*
X10564643Y-11499214D01*
X10550357Y-11484929D01*
X10564643Y-11470643D01*
X10564643Y-11499214D01*
X10693214Y-11227786D02*
X10707500Y-11213500D01*
X10736071Y-11199214D01*
X10807500Y-11199214D01*
X10836071Y-11213500D01*
X10850357Y-11227786D01*
X10864643Y-11256357D01*
X10864643Y-11284929D01*
X10850357Y-11327786D01*
X10678928Y-11499214D01*
X10864643Y-11499214D01*
X11050357Y-11199214D02*
X11078928Y-11199214D01*
X11107500Y-11213500D01*
X11121786Y-11227786D01*
X11136071Y-11256357D01*
X11150357Y-11313500D01*
X11150357Y-11384929D01*
X11136071Y-11442071D01*
X11121786Y-11470643D01*
X11107500Y-11484929D01*
X11078928Y-11499214D01*
X11050357Y-11499214D01*
X11021786Y-11484929D01*
X11007500Y-11470643D01*
X10993214Y-11442071D01*
X10978928Y-11384929D01*
X10978928Y-11313500D01*
X10993214Y-11256357D01*
X11007500Y-11227786D01*
X11021786Y-11213500D01*
X11050357Y-11199214D01*
X11278928Y-11499214D02*
X11278928Y-11299214D01*
X11278928Y-11327786D02*
X11293214Y-11313500D01*
X11321786Y-11299214D01*
X11364643Y-11299214D01*
X11393214Y-11313500D01*
X11407500Y-11342071D01*
X11407500Y-11499214D01*
X11407500Y-11342071D02*
X11421786Y-11313500D01*
X11450357Y-11299214D01*
X11493214Y-11299214D01*
X11521786Y-11313500D01*
X11536071Y-11342071D01*
X11536071Y-11499214D01*
X11678928Y-11499214D02*
X11678928Y-11299214D01*
X11678928Y-11327786D02*
X11693214Y-11313500D01*
X11721786Y-11299214D01*
X11764643Y-11299214D01*
X11793214Y-11313500D01*
X11807500Y-11342071D01*
X11807500Y-11499214D01*
X11807500Y-11342071D02*
X11821786Y-11313500D01*
X11850357Y-11299214D01*
X11893214Y-11299214D01*
X11921786Y-11313500D01*
X11936071Y-11342071D01*
X11936071Y-11499214D01*
X12521786Y-11184929D02*
X12264643Y-11570643D01*
X12907500Y-11199214D02*
X12936071Y-11199214D01*
X12964643Y-11213500D01*
X12978928Y-11227786D01*
X12993214Y-11256357D01*
X13007500Y-11313500D01*
X13007500Y-11384929D01*
X12993214Y-11442071D01*
X12978928Y-11470643D01*
X12964643Y-11484929D01*
X12936071Y-11499214D01*
X12907500Y-11499214D01*
X12878928Y-11484929D01*
X12864643Y-11470643D01*
X12850357Y-11442071D01*
X12836071Y-11384929D01*
X12836071Y-11313500D01*
X12850357Y-11256357D01*
X12864643Y-11227786D01*
X12878928Y-11213500D01*
X12907500Y-11199214D01*
X13136071Y-11470643D02*
X13150357Y-11484929D01*
X13136071Y-11499214D01*
X13121786Y-11484929D01*
X13136071Y-11470643D01*
X13136071Y-11499214D01*
X13336071Y-11199214D02*
X13364643Y-11199214D01*
X13393214Y-11213500D01*
X13407500Y-11227786D01*
X13421786Y-11256357D01*
X13436071Y-11313500D01*
X13436071Y-11384929D01*
X13421786Y-11442071D01*
X13407500Y-11470643D01*
X13393214Y-11484929D01*
X13364643Y-11499214D01*
X13336071Y-11499214D01*
X13307500Y-11484929D01*
X13293214Y-11470643D01*
X13278928Y-11442071D01*
X13264643Y-11384929D01*
X13264643Y-11313500D01*
X13278928Y-11256357D01*
X13293214Y-11227786D01*
X13307500Y-11213500D01*
X13336071Y-11199214D01*
X13607500Y-11327786D02*
X13578928Y-11313500D01*
X13564643Y-11299214D01*
X13550357Y-11270643D01*
X13550357Y-11256357D01*
X13564643Y-11227786D01*
X13578928Y-11213500D01*
X13607500Y-11199214D01*
X13664643Y-11199214D01*
X13693214Y-11213500D01*
X13707500Y-11227786D01*
X13721786Y-11256357D01*
X13721786Y-11270643D01*
X13707500Y-11299214D01*
X13693214Y-11313500D01*
X13664643Y-11327786D01*
X13607500Y-11327786D01*
X13578928Y-11342071D01*
X13564643Y-11356357D01*
X13550357Y-11384929D01*
X13550357Y-11442071D01*
X13564643Y-11470643D01*
X13578928Y-11484929D01*
X13607500Y-11499214D01*
X13664643Y-11499214D01*
X13693214Y-11484929D01*
X13707500Y-11470643D01*
X13721786Y-11442071D01*
X13721786Y-11384929D01*
X13707500Y-11356357D01*
X13693214Y-11342071D01*
X13664643Y-11327786D01*
X13821786Y-11199214D02*
X14021786Y-11199214D01*
X13893214Y-11499214D01*
X14121786Y-11199214D02*
X14121786Y-11256357D01*
X14236071Y-11199214D02*
X14236071Y-11256357D01*
X14678928Y-11613500D02*
X14664643Y-11599214D01*
X14636071Y-11556357D01*
X14621786Y-11527786D01*
X14607500Y-11484929D01*
X14593214Y-11413500D01*
X14593214Y-11356357D01*
X14607500Y-11284929D01*
X14621786Y-11242071D01*
X14636071Y-11213500D01*
X14664643Y-11170643D01*
X14678928Y-11156357D01*
X14921786Y-11299214D02*
X14921786Y-11499214D01*
X14850357Y-11184929D02*
X14778928Y-11399214D01*
X14964643Y-11399214D01*
X15307500Y-11499214D02*
X15307500Y-11199214D01*
X15436071Y-11499214D02*
X15436071Y-11342071D01*
X15421786Y-11313500D01*
X15393214Y-11299214D01*
X15350357Y-11299214D01*
X15321786Y-11313500D01*
X15307500Y-11327786D01*
X15621786Y-11499214D02*
X15593214Y-11484929D01*
X15578928Y-11470643D01*
X15564643Y-11442071D01*
X15564643Y-11356357D01*
X15578928Y-11327786D01*
X15593214Y-11313500D01*
X15621786Y-11299214D01*
X15664643Y-11299214D01*
X15693214Y-11313500D01*
X15707500Y-11327786D01*
X15721786Y-11356357D01*
X15721786Y-11442071D01*
X15707500Y-11470643D01*
X15693214Y-11484929D01*
X15664643Y-11499214D01*
X15621786Y-11499214D01*
X15893214Y-11499214D02*
X15864643Y-11484929D01*
X15850357Y-11456357D01*
X15850357Y-11199214D01*
X16121786Y-11484929D02*
X16093214Y-11499214D01*
X16036071Y-11499214D01*
X16007500Y-11484929D01*
X15993214Y-11456357D01*
X15993214Y-11342071D01*
X16007500Y-11313500D01*
X16036071Y-11299214D01*
X16093214Y-11299214D01*
X16121786Y-11313500D01*
X16136071Y-11342071D01*
X16136071Y-11370643D01*
X15993214Y-11399214D01*
X16250357Y-11484929D02*
X16278928Y-11499214D01*
X16336071Y-11499214D01*
X16364643Y-11484929D01*
X16378928Y-11456357D01*
X16378928Y-11442071D01*
X16364643Y-11413500D01*
X16336071Y-11399214D01*
X16293214Y-11399214D01*
X16264643Y-11384929D01*
X16250357Y-11356357D01*
X16250357Y-11342071D01*
X16264643Y-11313500D01*
X16293214Y-11299214D01*
X16336071Y-11299214D01*
X16364643Y-11313500D01*
X16478928Y-11613500D02*
X16493214Y-11599214D01*
X16521786Y-11556357D01*
X16536071Y-11527786D01*
X16550357Y-11484929D01*
X16564643Y-11413500D01*
X16564643Y-11356357D01*
X16550357Y-11284929D01*
X16536071Y-11242071D01*
X16521786Y-11213500D01*
X16493214Y-11170643D01*
X16478928Y-11156357D01*
M02*
