G04 #@! TF.GenerationSoftware,KiCad,Pcbnew,(5.1.5-0)*
G04 #@! TF.CreationDate,2022-03-31T12:05:24-06:00*
G04 #@! TF.ProjectId,two-wire-single,74776f2d-7769-4726-952d-73696e676c65,rev?*
G04 #@! TF.SameCoordinates,Original*
G04 #@! TF.FileFunction,Legend,Top*
G04 #@! TF.FilePolarity,Positive*
%FSLAX46Y46*%
G04 Gerber Fmt 4.6, Leading zero omitted, Abs format (unit mm)*
G04 Created by KiCad (PCBNEW (5.1.5-0)) date 2022-03-31 12:05:24*
%MOMM*%
%LPD*%
G04 APERTURE LIST*
%ADD10C,0.150000*%
%ADD11C,0.120000*%
G04 APERTURE END LIST*
D10*
X106964285Y-99054761D02*
X107059523Y-99102380D01*
X107250000Y-99102380D01*
X107345238Y-99054761D01*
X107392857Y-98959523D01*
X107392857Y-98911904D01*
X107345238Y-98816666D01*
X107250000Y-98769047D01*
X107107142Y-98769047D01*
X107011904Y-98721428D01*
X106964285Y-98626190D01*
X106964285Y-98578571D01*
X107011904Y-98483333D01*
X107107142Y-98435714D01*
X107250000Y-98435714D01*
X107345238Y-98483333D01*
X107821428Y-99102380D02*
X107821428Y-98435714D01*
X107821428Y-98102380D02*
X107773809Y-98150000D01*
X107821428Y-98197619D01*
X107869047Y-98150000D01*
X107821428Y-98102380D01*
X107821428Y-98197619D01*
X108297619Y-98435714D02*
X108297619Y-99102380D01*
X108297619Y-98530952D02*
X108345238Y-98483333D01*
X108440476Y-98435714D01*
X108583333Y-98435714D01*
X108678571Y-98483333D01*
X108726190Y-98578571D01*
X108726190Y-99102380D01*
X109630952Y-98435714D02*
X109630952Y-99245238D01*
X109583333Y-99340476D01*
X109535714Y-99388095D01*
X109440476Y-99435714D01*
X109297619Y-99435714D01*
X109202380Y-99388095D01*
X109630952Y-99054761D02*
X109535714Y-99102380D01*
X109345238Y-99102380D01*
X109250000Y-99054761D01*
X109202380Y-99007142D01*
X109154761Y-98911904D01*
X109154761Y-98626190D01*
X109202380Y-98530952D01*
X109250000Y-98483333D01*
X109345238Y-98435714D01*
X109535714Y-98435714D01*
X109630952Y-98483333D01*
X110250000Y-99102380D02*
X110154761Y-99054761D01*
X110107142Y-98959523D01*
X110107142Y-98102380D01*
X111011904Y-99054761D02*
X110916666Y-99102380D01*
X110726190Y-99102380D01*
X110630952Y-99054761D01*
X110583333Y-98959523D01*
X110583333Y-98578571D01*
X110630952Y-98483333D01*
X110726190Y-98435714D01*
X110916666Y-98435714D01*
X111011904Y-98483333D01*
X111059523Y-98578571D01*
X111059523Y-98673809D01*
X110583333Y-98769047D01*
X112678571Y-99102380D02*
X112678571Y-98102380D01*
X112678571Y-99054761D02*
X112583333Y-99102380D01*
X112392857Y-99102380D01*
X112297619Y-99054761D01*
X112250000Y-99007142D01*
X112202380Y-98911904D01*
X112202380Y-98626190D01*
X112250000Y-98530952D01*
X112297619Y-98483333D01*
X112392857Y-98435714D01*
X112583333Y-98435714D01*
X112678571Y-98483333D01*
X113154761Y-99102380D02*
X113154761Y-98435714D01*
X113154761Y-98102380D02*
X113107142Y-98150000D01*
X113154761Y-98197619D01*
X113202380Y-98150000D01*
X113154761Y-98102380D01*
X113154761Y-98197619D01*
X113773809Y-99102380D02*
X113678571Y-99054761D01*
X113630952Y-99007142D01*
X113583333Y-98911904D01*
X113583333Y-98626190D01*
X113630952Y-98530952D01*
X113678571Y-98483333D01*
X113773809Y-98435714D01*
X113916666Y-98435714D01*
X114011904Y-98483333D01*
X114059523Y-98530952D01*
X114107142Y-98626190D01*
X114107142Y-98911904D01*
X114059523Y-99007142D01*
X114011904Y-99054761D01*
X113916666Y-99102380D01*
X113773809Y-99102380D01*
X114964285Y-99102380D02*
X114964285Y-98102380D01*
X114964285Y-99054761D02*
X114869047Y-99102380D01*
X114678571Y-99102380D01*
X114583333Y-99054761D01*
X114535714Y-99007142D01*
X114488095Y-98911904D01*
X114488095Y-98626190D01*
X114535714Y-98530952D01*
X114583333Y-98483333D01*
X114678571Y-98435714D01*
X114869047Y-98435714D01*
X114964285Y-98483333D01*
X115821428Y-99054761D02*
X115726190Y-99102380D01*
X115535714Y-99102380D01*
X115440476Y-99054761D01*
X115392857Y-98959523D01*
X115392857Y-98578571D01*
X115440476Y-98483333D01*
X115535714Y-98435714D01*
X115726190Y-98435714D01*
X115821428Y-98483333D01*
X115869047Y-98578571D01*
X115869047Y-98673809D01*
X115392857Y-98769047D01*
X116964285Y-98102380D02*
X117583333Y-98102380D01*
X117250000Y-98483333D01*
X117392857Y-98483333D01*
X117488095Y-98530952D01*
X117535714Y-98578571D01*
X117583333Y-98673809D01*
X117583333Y-98911904D01*
X117535714Y-99007142D01*
X117488095Y-99054761D01*
X117392857Y-99102380D01*
X117107142Y-99102380D01*
X117011904Y-99054761D01*
X116964285Y-99007142D01*
X118726190Y-98054761D02*
X117869047Y-99340476D01*
X119011904Y-98197619D02*
X119059523Y-98150000D01*
X119154761Y-98102380D01*
X119392857Y-98102380D01*
X119488095Y-98150000D01*
X119535714Y-98197619D01*
X119583333Y-98292857D01*
X119583333Y-98388095D01*
X119535714Y-98530952D01*
X118964285Y-99102380D01*
X119583333Y-99102380D01*
X119964285Y-98197619D02*
X120011904Y-98150000D01*
X120107142Y-98102380D01*
X120345238Y-98102380D01*
X120440476Y-98150000D01*
X120488095Y-98197619D01*
X120535714Y-98292857D01*
X120535714Y-98388095D01*
X120488095Y-98530952D01*
X119916666Y-99102380D01*
X120535714Y-99102380D01*
X130950000Y-85802380D02*
X131140476Y-85802380D01*
X131235714Y-85850000D01*
X131330952Y-85945238D01*
X131378571Y-86135714D01*
X131378571Y-86469047D01*
X131330952Y-86659523D01*
X131235714Y-86754761D01*
X131140476Y-86802380D01*
X130950000Y-86802380D01*
X130854761Y-86754761D01*
X130759523Y-86659523D01*
X130711904Y-86469047D01*
X130711904Y-86135714D01*
X130759523Y-85945238D01*
X130854761Y-85850000D01*
X130950000Y-85802380D01*
X131807142Y-85802380D02*
X131807142Y-86611904D01*
X131854761Y-86707142D01*
X131902380Y-86754761D01*
X131997619Y-86802380D01*
X132188095Y-86802380D01*
X132283333Y-86754761D01*
X132330952Y-86707142D01*
X132378571Y-86611904D01*
X132378571Y-85802380D01*
X132711904Y-85802380D02*
X133283333Y-85802380D01*
X132997619Y-86802380D02*
X132997619Y-85802380D01*
X105326190Y-86402380D02*
X105326190Y-85402380D01*
X105802380Y-86402380D02*
X105802380Y-85402380D01*
X106373809Y-86402380D01*
X106373809Y-85402380D01*
D11*
X115650000Y-82220000D02*
X116980000Y-82220000D01*
X116980000Y-82220000D02*
X116980000Y-83550000D01*
X116980000Y-84760000D02*
X116980000Y-84880000D01*
X114320000Y-84760000D02*
X114320000Y-84880000D01*
X114320000Y-84880000D02*
X116980000Y-84880000D01*
X138435000Y-92440000D02*
X138435000Y-88560000D01*
X133965000Y-87390000D02*
X133965000Y-88440000D01*
X136465000Y-87390000D02*
X133965000Y-87390000D01*
X133965000Y-92560000D02*
X132975000Y-92560000D01*
X133965000Y-93610000D02*
X133965000Y-92560000D01*
X136465000Y-93610000D02*
X133965000Y-93610000D01*
X130910000Y-96671267D02*
X130910000Y-96328733D01*
X129890000Y-96671267D02*
X129890000Y-96328733D01*
X132560000Y-96671267D02*
X132560000Y-96328733D01*
X131540000Y-96671267D02*
X131540000Y-96328733D01*
X108950000Y-91550000D02*
X108950000Y-92950000D01*
X108250000Y-93650000D02*
X107650000Y-93650000D01*
X106950000Y-92950000D02*
X106950000Y-91550000D01*
X107650000Y-90850000D02*
X108250000Y-90850000D01*
X108250000Y-90850000D02*
G75*
G02X108950000Y-91550000I0J-700000D01*
G01*
X106950000Y-91550000D02*
G75*
G02X107650000Y-90850000I700000J0D01*
G01*
X107650000Y-93650000D02*
G75*
G02X106950000Y-92950000I0J700000D01*
G01*
X108950000Y-92950000D02*
G75*
G02X108250000Y-93650000I-700000J0D01*
G01*
X108950000Y-88050000D02*
X108950000Y-89450000D01*
X108250000Y-90150000D02*
X107650000Y-90150000D01*
X106950000Y-89450000D02*
X106950000Y-88050000D01*
X107650000Y-87350000D02*
X108250000Y-87350000D01*
X108250000Y-87350000D02*
G75*
G02X108950000Y-88050000I0J-700000D01*
G01*
X106950000Y-88050000D02*
G75*
G02X107650000Y-87350000I700000J0D01*
G01*
X107650000Y-90150000D02*
G75*
G02X106950000Y-89450000I0J700000D01*
G01*
X108950000Y-89450000D02*
G75*
G02X108250000Y-90150000I-700000J0D01*
G01*
X100565000Y-88610000D02*
X100565000Y-92490000D01*
X105035000Y-93660000D02*
X105035000Y-92610000D01*
X102535000Y-93660000D02*
X105035000Y-93660000D01*
X105035000Y-88490000D02*
X106025000Y-88490000D01*
X105035000Y-87440000D02*
X105035000Y-88490000D01*
X102535000Y-87440000D02*
X105035000Y-87440000D01*
D10*
X121950000Y-86375000D02*
X121950000Y-92350000D01*
X116425000Y-87950000D02*
X116425000Y-92350000D01*
D11*
X121711252Y-96040000D02*
X121188748Y-96040000D01*
X121711252Y-97460000D02*
X121188748Y-97460000D01*
D10*
X112516666Y-82802380D02*
X112516666Y-83516666D01*
X112469047Y-83659523D01*
X112373809Y-83754761D01*
X112230952Y-83802380D01*
X112135714Y-83802380D01*
X112897619Y-82802380D02*
X113516666Y-82802380D01*
X113183333Y-83183333D01*
X113326190Y-83183333D01*
X113421428Y-83230952D01*
X113469047Y-83278571D01*
X113516666Y-83373809D01*
X113516666Y-83611904D01*
X113469047Y-83707142D01*
X113421428Y-83754761D01*
X113326190Y-83802380D01*
X113040476Y-83802380D01*
X112945238Y-83754761D01*
X112897619Y-83707142D01*
X131222380Y-90833333D02*
X131936666Y-90833333D01*
X132079523Y-90880952D01*
X132174761Y-90976190D01*
X132222380Y-91119047D01*
X132222380Y-91214285D01*
X131317619Y-90404761D02*
X131270000Y-90357142D01*
X131222380Y-90261904D01*
X131222380Y-90023809D01*
X131270000Y-89928571D01*
X131317619Y-89880952D01*
X131412857Y-89833333D01*
X131508095Y-89833333D01*
X131650952Y-89880952D01*
X132222380Y-90452380D01*
X132222380Y-89833333D01*
X129422380Y-96666666D02*
X128946190Y-97000000D01*
X129422380Y-97238095D02*
X128422380Y-97238095D01*
X128422380Y-96857142D01*
X128470000Y-96761904D01*
X128517619Y-96714285D01*
X128612857Y-96666666D01*
X128755714Y-96666666D01*
X128850952Y-96714285D01*
X128898571Y-96761904D01*
X128946190Y-96857142D01*
X128946190Y-97238095D01*
X128517619Y-96285714D02*
X128470000Y-96238095D01*
X128422380Y-96142857D01*
X128422380Y-95904761D01*
X128470000Y-95809523D01*
X128517619Y-95761904D01*
X128612857Y-95714285D01*
X128708095Y-95714285D01*
X128850952Y-95761904D01*
X129422380Y-96333333D01*
X129422380Y-95714285D01*
X131072380Y-96666666D02*
X130596190Y-97000000D01*
X131072380Y-97238095D02*
X130072380Y-97238095D01*
X130072380Y-96857142D01*
X130120000Y-96761904D01*
X130167619Y-96714285D01*
X130262857Y-96666666D01*
X130405714Y-96666666D01*
X130500952Y-96714285D01*
X130548571Y-96761904D01*
X130596190Y-96857142D01*
X130596190Y-97238095D01*
X131072380Y-95714285D02*
X131072380Y-96285714D01*
X131072380Y-96000000D02*
X130072380Y-96000000D01*
X130215238Y-96095238D01*
X130310476Y-96190476D01*
X130358095Y-96285714D01*
X105916666Y-82802380D02*
X105916666Y-81802380D01*
X106250000Y-82516666D01*
X106583333Y-81802380D01*
X106583333Y-82802380D01*
X107059523Y-82802380D02*
X107059523Y-81802380D01*
X107059523Y-82278571D02*
X107630952Y-82278571D01*
X107630952Y-82802380D02*
X107630952Y-81802380D01*
X108630952Y-82802380D02*
X108059523Y-82802380D01*
X108345238Y-82802380D02*
X108345238Y-81802380D01*
X108250000Y-81945238D01*
X108154761Y-82040476D01*
X108059523Y-82088095D01*
X131216666Y-82602380D02*
X131216666Y-81602380D01*
X131550000Y-82316666D01*
X131883333Y-81602380D01*
X131883333Y-82602380D01*
X132359523Y-82602380D02*
X132359523Y-81602380D01*
X132359523Y-82078571D02*
X132930952Y-82078571D01*
X132930952Y-82602380D02*
X132930952Y-81602380D01*
X133359523Y-81697619D02*
X133407142Y-81650000D01*
X133502380Y-81602380D01*
X133740476Y-81602380D01*
X133835714Y-81650000D01*
X133883333Y-81697619D01*
X133930952Y-81792857D01*
X133930952Y-81888095D01*
X133883333Y-82030952D01*
X133311904Y-82602380D01*
X133930952Y-82602380D01*
X101666666Y-92952380D02*
X101666666Y-91952380D01*
X102000000Y-92666666D01*
X102333333Y-91952380D01*
X102333333Y-92952380D01*
X102809523Y-92952380D02*
X102809523Y-91952380D01*
X102809523Y-92428571D02*
X103380952Y-92428571D01*
X103380952Y-92952380D02*
X103380952Y-91952380D01*
X103761904Y-91952380D02*
X104380952Y-91952380D01*
X104047619Y-92333333D01*
X104190476Y-92333333D01*
X104285714Y-92380952D01*
X104333333Y-92428571D01*
X104380952Y-92523809D01*
X104380952Y-92761904D01*
X104333333Y-92857142D01*
X104285714Y-92904761D01*
X104190476Y-92952380D01*
X103904761Y-92952380D01*
X103809523Y-92904761D01*
X103761904Y-92857142D01*
X134666666Y-92952380D02*
X134666666Y-91952380D01*
X135000000Y-92666666D01*
X135333333Y-91952380D01*
X135333333Y-92952380D01*
X135809523Y-92952380D02*
X135809523Y-91952380D01*
X135809523Y-92428571D02*
X136380952Y-92428571D01*
X136380952Y-92952380D02*
X136380952Y-91952380D01*
X137285714Y-92285714D02*
X137285714Y-92952380D01*
X137047619Y-91904761D02*
X136809523Y-92619047D01*
X137428571Y-92619047D01*
X107002380Y-95883333D02*
X107716666Y-95883333D01*
X107859523Y-95930952D01*
X107954761Y-96026190D01*
X108002380Y-96169047D01*
X108002380Y-96264285D01*
X108002380Y-95407142D02*
X107002380Y-95407142D01*
X107002380Y-95026190D01*
X107050000Y-94930952D01*
X107097619Y-94883333D01*
X107192857Y-94835714D01*
X107335714Y-94835714D01*
X107430952Y-94883333D01*
X107478571Y-94930952D01*
X107526190Y-95026190D01*
X107526190Y-95407142D01*
X107097619Y-94454761D02*
X107050000Y-94407142D01*
X107002380Y-94311904D01*
X107002380Y-94073809D01*
X107050000Y-93978571D01*
X107097619Y-93930952D01*
X107192857Y-93883333D01*
X107288095Y-93883333D01*
X107430952Y-93930952D01*
X108002380Y-94502380D01*
X108002380Y-93883333D01*
X107202380Y-87033333D02*
X107916666Y-87033333D01*
X108059523Y-87080952D01*
X108154761Y-87176190D01*
X108202380Y-87319047D01*
X108202380Y-87414285D01*
X108202380Y-86557142D02*
X107202380Y-86557142D01*
X107202380Y-86176190D01*
X107250000Y-86080952D01*
X107297619Y-86033333D01*
X107392857Y-85985714D01*
X107535714Y-85985714D01*
X107630952Y-86033333D01*
X107678571Y-86080952D01*
X107726190Y-86176190D01*
X107726190Y-86557142D01*
X108202380Y-85033333D02*
X108202380Y-85604761D01*
X108202380Y-85319047D02*
X107202380Y-85319047D01*
X107345238Y-85414285D01*
X107440476Y-85509523D01*
X107488095Y-85604761D01*
X120907142Y-86172380D02*
X120573809Y-85696190D01*
X120335714Y-86172380D02*
X120335714Y-85172380D01*
X120716666Y-85172380D01*
X120811904Y-85220000D01*
X120859523Y-85267619D01*
X120907142Y-85362857D01*
X120907142Y-85505714D01*
X120859523Y-85600952D01*
X120811904Y-85648571D01*
X120716666Y-85696190D01*
X120335714Y-85696190D01*
X121288095Y-85267619D02*
X121335714Y-85220000D01*
X121430952Y-85172380D01*
X121669047Y-85172380D01*
X121764285Y-85220000D01*
X121811904Y-85267619D01*
X121859523Y-85362857D01*
X121859523Y-85458095D01*
X121811904Y-85600952D01*
X121240476Y-86172380D01*
X121859523Y-86172380D01*
X122192857Y-85172380D02*
X122811904Y-85172380D01*
X122478571Y-85553333D01*
X122621428Y-85553333D01*
X122716666Y-85600952D01*
X122764285Y-85648571D01*
X122811904Y-85743809D01*
X122811904Y-85981904D01*
X122764285Y-86077142D01*
X122716666Y-86124761D01*
X122621428Y-86172380D01*
X122335714Y-86172380D01*
X122240476Y-86124761D01*
X122192857Y-86077142D01*
X110507142Y-91672380D02*
X110173809Y-91196190D01*
X109935714Y-91672380D02*
X109935714Y-90672380D01*
X110316666Y-90672380D01*
X110411904Y-90720000D01*
X110459523Y-90767619D01*
X110507142Y-90862857D01*
X110507142Y-91005714D01*
X110459523Y-91100952D01*
X110411904Y-91148571D01*
X110316666Y-91196190D01*
X109935714Y-91196190D01*
X111459523Y-91672380D02*
X110888095Y-91672380D01*
X111173809Y-91672380D02*
X111173809Y-90672380D01*
X111078571Y-90815238D01*
X110983333Y-90910476D01*
X110888095Y-90958095D01*
X112364285Y-90672380D02*
X111888095Y-90672380D01*
X111840476Y-91148571D01*
X111888095Y-91100952D01*
X111983333Y-91053333D01*
X112221428Y-91053333D01*
X112316666Y-91100952D01*
X112364285Y-91148571D01*
X112411904Y-91243809D01*
X112411904Y-91481904D01*
X112364285Y-91577142D01*
X112316666Y-91624761D01*
X112221428Y-91672380D01*
X111983333Y-91672380D01*
X111888095Y-91624761D01*
X111840476Y-91577142D01*
X110107142Y-88102380D02*
X109773809Y-87626190D01*
X109535714Y-88102380D02*
X109535714Y-87102380D01*
X109916666Y-87102380D01*
X110011904Y-87150000D01*
X110059523Y-87197619D01*
X110107142Y-87292857D01*
X110107142Y-87435714D01*
X110059523Y-87530952D01*
X110011904Y-87578571D01*
X109916666Y-87626190D01*
X109535714Y-87626190D01*
X111059523Y-88102380D02*
X110488095Y-88102380D01*
X110773809Y-88102380D02*
X110773809Y-87102380D01*
X110678571Y-87245238D01*
X110583333Y-87340476D01*
X110488095Y-87388095D01*
X111916666Y-87435714D02*
X111916666Y-88102380D01*
X111678571Y-87054761D02*
X111440476Y-87769047D01*
X112059523Y-87769047D01*
X109707142Y-94002380D02*
X109373809Y-93526190D01*
X109135714Y-94002380D02*
X109135714Y-93002380D01*
X109516666Y-93002380D01*
X109611904Y-93050000D01*
X109659523Y-93097619D01*
X109707142Y-93192857D01*
X109707142Y-93335714D01*
X109659523Y-93430952D01*
X109611904Y-93478571D01*
X109516666Y-93526190D01*
X109135714Y-93526190D01*
X110659523Y-94002380D02*
X110088095Y-94002380D01*
X110373809Y-94002380D02*
X110373809Y-93002380D01*
X110278571Y-93145238D01*
X110183333Y-93240476D01*
X110088095Y-93288095D01*
X110992857Y-93002380D02*
X111611904Y-93002380D01*
X111278571Y-93383333D01*
X111421428Y-93383333D01*
X111516666Y-93430952D01*
X111564285Y-93478571D01*
X111611904Y-93573809D01*
X111611904Y-93811904D01*
X111564285Y-93907142D01*
X111516666Y-93954761D01*
X111421428Y-94002380D01*
X111135714Y-94002380D01*
X111040476Y-93954761D01*
X110992857Y-93907142D01*
X118607142Y-83737142D02*
X118559523Y-83784761D01*
X118416666Y-83832380D01*
X118321428Y-83832380D01*
X118178571Y-83784761D01*
X118083333Y-83689523D01*
X118035714Y-83594285D01*
X117988095Y-83403809D01*
X117988095Y-83260952D01*
X118035714Y-83070476D01*
X118083333Y-82975238D01*
X118178571Y-82880000D01*
X118321428Y-82832380D01*
X118416666Y-82832380D01*
X118559523Y-82880000D01*
X118607142Y-82927619D01*
X118988095Y-82927619D02*
X119035714Y-82880000D01*
X119130952Y-82832380D01*
X119369047Y-82832380D01*
X119464285Y-82880000D01*
X119511904Y-82927619D01*
X119559523Y-83022857D01*
X119559523Y-83118095D01*
X119511904Y-83260952D01*
X118940476Y-83832380D01*
X119559523Y-83832380D01*
X119892857Y-82832380D02*
X120559523Y-82832380D01*
X120130952Y-83832380D01*
X115107142Y-96107142D02*
X115059523Y-96154761D01*
X114916666Y-96202380D01*
X114821428Y-96202380D01*
X114678571Y-96154761D01*
X114583333Y-96059523D01*
X114535714Y-95964285D01*
X114488095Y-95773809D01*
X114488095Y-95630952D01*
X114535714Y-95440476D01*
X114583333Y-95345238D01*
X114678571Y-95250000D01*
X114821428Y-95202380D01*
X114916666Y-95202380D01*
X115059523Y-95250000D01*
X115107142Y-95297619D01*
X116059523Y-96202380D02*
X115488095Y-96202380D01*
X115773809Y-96202380D02*
X115773809Y-95202380D01*
X115678571Y-95345238D01*
X115583333Y-95440476D01*
X115488095Y-95488095D01*
X116630952Y-95630952D02*
X116535714Y-95583333D01*
X116488095Y-95535714D01*
X116440476Y-95440476D01*
X116440476Y-95392857D01*
X116488095Y-95297619D01*
X116535714Y-95250000D01*
X116630952Y-95202380D01*
X116821428Y-95202380D01*
X116916666Y-95250000D01*
X116964285Y-95297619D01*
X117011904Y-95392857D01*
X117011904Y-95440476D01*
X116964285Y-95535714D01*
X116916666Y-95583333D01*
X116821428Y-95630952D01*
X116630952Y-95630952D01*
X116535714Y-95678571D01*
X116488095Y-95726190D01*
X116440476Y-95821428D01*
X116440476Y-96011904D01*
X116488095Y-96107142D01*
X116535714Y-96154761D01*
X116630952Y-96202380D01*
X116821428Y-96202380D01*
X116916666Y-96154761D01*
X116964285Y-96107142D01*
X117011904Y-96011904D01*
X117011904Y-95821428D01*
X116964285Y-95726190D01*
X116916666Y-95678571D01*
X116821428Y-95630952D01*
X123332142Y-94307142D02*
X123284523Y-94354761D01*
X123141666Y-94402380D01*
X123046428Y-94402380D01*
X122903571Y-94354761D01*
X122808333Y-94259523D01*
X122760714Y-94164285D01*
X122713095Y-93973809D01*
X122713095Y-93830952D01*
X122760714Y-93640476D01*
X122808333Y-93545238D01*
X122903571Y-93450000D01*
X123046428Y-93402380D01*
X123141666Y-93402380D01*
X123284523Y-93450000D01*
X123332142Y-93497619D01*
X124284523Y-94402380D02*
X123713095Y-94402380D01*
X123998809Y-94402380D02*
X123998809Y-93402380D01*
X123903571Y-93545238D01*
X123808333Y-93640476D01*
X123713095Y-93688095D01*
X124617857Y-93402380D02*
X125284523Y-93402380D01*
X124855952Y-94402380D01*
X114607142Y-93592857D02*
X114654761Y-93640476D01*
X114702380Y-93783333D01*
X114702380Y-93878571D01*
X114654761Y-94021428D01*
X114559523Y-94116666D01*
X114464285Y-94164285D01*
X114273809Y-94211904D01*
X114130952Y-94211904D01*
X113940476Y-94164285D01*
X113845238Y-94116666D01*
X113750000Y-94021428D01*
X113702380Y-93878571D01*
X113702380Y-93783333D01*
X113750000Y-93640476D01*
X113797619Y-93592857D01*
X114702380Y-92640476D02*
X114702380Y-93211904D01*
X114702380Y-92926190D02*
X113702380Y-92926190D01*
X113845238Y-93021428D01*
X113940476Y-93116666D01*
X113988095Y-93211904D01*
X114702380Y-91688095D02*
X114702380Y-92259523D01*
X114702380Y-91973809D02*
X113702380Y-91973809D01*
X113845238Y-92069047D01*
X113940476Y-92164285D01*
X113988095Y-92259523D01*
X114807142Y-87792857D02*
X114854761Y-87840476D01*
X114902380Y-87983333D01*
X114902380Y-88078571D01*
X114854761Y-88221428D01*
X114759523Y-88316666D01*
X114664285Y-88364285D01*
X114473809Y-88411904D01*
X114330952Y-88411904D01*
X114140476Y-88364285D01*
X114045238Y-88316666D01*
X113950000Y-88221428D01*
X113902380Y-88078571D01*
X113902380Y-87983333D01*
X113950000Y-87840476D01*
X113997619Y-87792857D01*
X114902380Y-86840476D02*
X114902380Y-87411904D01*
X114902380Y-87126190D02*
X113902380Y-87126190D01*
X114045238Y-87221428D01*
X114140476Y-87316666D01*
X114188095Y-87411904D01*
X113902380Y-86221428D02*
X113902380Y-86126190D01*
X113950000Y-86030952D01*
X113997619Y-85983333D01*
X114092857Y-85935714D01*
X114283333Y-85888095D01*
X114521428Y-85888095D01*
X114711904Y-85935714D01*
X114807142Y-85983333D01*
X114854761Y-86030952D01*
X114902380Y-86126190D01*
X114902380Y-86221428D01*
X114854761Y-86316666D01*
X114807142Y-86364285D01*
X114711904Y-86411904D01*
X114521428Y-86459523D01*
X114283333Y-86459523D01*
X114092857Y-86411904D01*
X113997619Y-86364285D01*
X113950000Y-86316666D01*
X113902380Y-86221428D01*
X113307142Y-93616666D02*
X113354761Y-93664285D01*
X113402380Y-93807142D01*
X113402380Y-93902380D01*
X113354761Y-94045238D01*
X113259523Y-94140476D01*
X113164285Y-94188095D01*
X112973809Y-94235714D01*
X112830952Y-94235714D01*
X112640476Y-94188095D01*
X112545238Y-94140476D01*
X112450000Y-94045238D01*
X112402380Y-93902380D01*
X112402380Y-93807142D01*
X112450000Y-93664285D01*
X112497619Y-93616666D01*
X113402380Y-93140476D02*
X113402380Y-92950000D01*
X113354761Y-92854761D01*
X113307142Y-92807142D01*
X113164285Y-92711904D01*
X112973809Y-92664285D01*
X112592857Y-92664285D01*
X112497619Y-92711904D01*
X112450000Y-92759523D01*
X112402380Y-92854761D01*
X112402380Y-93045238D01*
X112450000Y-93140476D01*
X112497619Y-93188095D01*
X112592857Y-93235714D01*
X112830952Y-93235714D01*
X112926190Y-93188095D01*
X112973809Y-93140476D01*
X113021428Y-93045238D01*
X113021428Y-92854761D01*
X112973809Y-92759523D01*
X112926190Y-92711904D01*
X112830952Y-92664285D01*
X113407142Y-86616666D02*
X113454761Y-86664285D01*
X113502380Y-86807142D01*
X113502380Y-86902380D01*
X113454761Y-87045238D01*
X113359523Y-87140476D01*
X113264285Y-87188095D01*
X113073809Y-87235714D01*
X112930952Y-87235714D01*
X112740476Y-87188095D01*
X112645238Y-87140476D01*
X112550000Y-87045238D01*
X112502380Y-86902380D01*
X112502380Y-86807142D01*
X112550000Y-86664285D01*
X112597619Y-86616666D01*
X112930952Y-86045238D02*
X112883333Y-86140476D01*
X112835714Y-86188095D01*
X112740476Y-86235714D01*
X112692857Y-86235714D01*
X112597619Y-86188095D01*
X112550000Y-86140476D01*
X112502380Y-86045238D01*
X112502380Y-85854761D01*
X112550000Y-85759523D01*
X112597619Y-85711904D01*
X112692857Y-85664285D01*
X112740476Y-85664285D01*
X112835714Y-85711904D01*
X112883333Y-85759523D01*
X112930952Y-85854761D01*
X112930952Y-86045238D01*
X112978571Y-86140476D01*
X113026190Y-86188095D01*
X113121428Y-86235714D01*
X113311904Y-86235714D01*
X113407142Y-86188095D01*
X113454761Y-86140476D01*
X113502380Y-86045238D01*
X113502380Y-85854761D01*
X113454761Y-85759523D01*
X113407142Y-85711904D01*
X113311904Y-85664285D01*
X113121428Y-85664285D01*
X113026190Y-85711904D01*
X112978571Y-85759523D01*
X112930952Y-85854761D01*
X105302380Y-95783333D02*
X106016666Y-95783333D01*
X106159523Y-95830952D01*
X106254761Y-95926190D01*
X106302380Y-96069047D01*
X106302380Y-96164285D01*
X106302380Y-94783333D02*
X106302380Y-95354761D01*
X106302380Y-95069047D02*
X105302380Y-95069047D01*
X105445238Y-95164285D01*
X105540476Y-95259523D01*
X105588095Y-95354761D01*
X123152380Y-91126190D02*
X122152380Y-91126190D01*
X123057142Y-90078571D02*
X123104761Y-90126190D01*
X123152380Y-90269047D01*
X123152380Y-90364285D01*
X123104761Y-90507142D01*
X123009523Y-90602380D01*
X122914285Y-90650000D01*
X122723809Y-90697619D01*
X122580952Y-90697619D01*
X122390476Y-90650000D01*
X122295238Y-90602380D01*
X122200000Y-90507142D01*
X122152380Y-90364285D01*
X122152380Y-90269047D01*
X122200000Y-90126190D01*
X122247619Y-90078571D01*
X122247619Y-89697619D02*
X122200000Y-89650000D01*
X122152380Y-89554761D01*
X122152380Y-89316666D01*
X122200000Y-89221428D01*
X122247619Y-89173809D01*
X122342857Y-89126190D01*
X122438095Y-89126190D01*
X122580952Y-89173809D01*
X123152380Y-89745238D01*
X123152380Y-89126190D01*
X124258333Y-97202380D02*
X123782142Y-97202380D01*
X123782142Y-96202380D01*
X124544047Y-96297619D02*
X124591666Y-96250000D01*
X124686904Y-96202380D01*
X124925000Y-96202380D01*
X125020238Y-96250000D01*
X125067857Y-96297619D01*
X125115476Y-96392857D01*
X125115476Y-96488095D01*
X125067857Y-96630952D01*
X124496428Y-97202380D01*
X125115476Y-97202380D01*
M02*
