G04 #@! TF.GenerationSoftware,KiCad,Pcbnew,(5.1.5-0)*
G04 #@! TF.CreationDate,2022-04-01T08:47:15-06:00*
G04 #@! TF.ProjectId,two-wire-single,74776f2d-7769-4726-952d-73696e676c65,rev?*
G04 #@! TF.SameCoordinates,Original*
G04 #@! TF.FileFunction,Copper,L1,Top*
G04 #@! TF.FilePolarity,Positive*
%FSLAX46Y46*%
G04 Gerber Fmt 4.6, Leading zero omitted, Abs format (unit mm)*
G04 Created by KiCad (PCBNEW (5.1.5-0)) date 2022-04-01 08:47:15*
%MOMM*%
%LPD*%
G04 APERTURE LIST*
%ADD10C,0.100000*%
%ADD11R,1.700000X1.700000*%
%ADD12C,0.700000*%
%ADD13C,4.400000*%
%ADD14R,0.450000X1.500000*%
%ADD15C,0.600000*%
%ADD16C,0.250000*%
%ADD17C,0.254000*%
G04 APERTURE END LIST*
G04 #@! TA.AperFunction,SMDPad,CuDef*
D10*
G36*
X129061958Y-92730710D02*
G01*
X129076276Y-92732834D01*
X129090317Y-92736351D01*
X129103946Y-92741228D01*
X129117031Y-92747417D01*
X129129447Y-92754858D01*
X129141073Y-92763481D01*
X129151798Y-92773202D01*
X129161519Y-92783927D01*
X129170142Y-92795553D01*
X129177583Y-92807969D01*
X129183772Y-92821054D01*
X129188649Y-92834683D01*
X129192166Y-92848724D01*
X129194290Y-92863042D01*
X129195000Y-92877500D01*
X129195000Y-93222500D01*
X129194290Y-93236958D01*
X129192166Y-93251276D01*
X129188649Y-93265317D01*
X129183772Y-93278946D01*
X129177583Y-93292031D01*
X129170142Y-93304447D01*
X129161519Y-93316073D01*
X129151798Y-93326798D01*
X129141073Y-93336519D01*
X129129447Y-93345142D01*
X129117031Y-93352583D01*
X129103946Y-93358772D01*
X129090317Y-93363649D01*
X129076276Y-93367166D01*
X129061958Y-93369290D01*
X129047500Y-93370000D01*
X128752500Y-93370000D01*
X128738042Y-93369290D01*
X128723724Y-93367166D01*
X128709683Y-93363649D01*
X128696054Y-93358772D01*
X128682969Y-93352583D01*
X128670553Y-93345142D01*
X128658927Y-93336519D01*
X128648202Y-93326798D01*
X128638481Y-93316073D01*
X128629858Y-93304447D01*
X128622417Y-93292031D01*
X128616228Y-93278946D01*
X128611351Y-93265317D01*
X128607834Y-93251276D01*
X128605710Y-93236958D01*
X128605000Y-93222500D01*
X128605000Y-92877500D01*
X128605710Y-92863042D01*
X128607834Y-92848724D01*
X128611351Y-92834683D01*
X128616228Y-92821054D01*
X128622417Y-92807969D01*
X128629858Y-92795553D01*
X128638481Y-92783927D01*
X128648202Y-92773202D01*
X128658927Y-92763481D01*
X128670553Y-92754858D01*
X128682969Y-92747417D01*
X128696054Y-92741228D01*
X128709683Y-92736351D01*
X128723724Y-92732834D01*
X128738042Y-92730710D01*
X128752500Y-92730000D01*
X129047500Y-92730000D01*
X129061958Y-92730710D01*
G37*
G04 #@! TD.AperFunction*
G04 #@! TA.AperFunction,SMDPad,CuDef*
G36*
X128091958Y-92730710D02*
G01*
X128106276Y-92732834D01*
X128120317Y-92736351D01*
X128133946Y-92741228D01*
X128147031Y-92747417D01*
X128159447Y-92754858D01*
X128171073Y-92763481D01*
X128181798Y-92773202D01*
X128191519Y-92783927D01*
X128200142Y-92795553D01*
X128207583Y-92807969D01*
X128213772Y-92821054D01*
X128218649Y-92834683D01*
X128222166Y-92848724D01*
X128224290Y-92863042D01*
X128225000Y-92877500D01*
X128225000Y-93222500D01*
X128224290Y-93236958D01*
X128222166Y-93251276D01*
X128218649Y-93265317D01*
X128213772Y-93278946D01*
X128207583Y-93292031D01*
X128200142Y-93304447D01*
X128191519Y-93316073D01*
X128181798Y-93326798D01*
X128171073Y-93336519D01*
X128159447Y-93345142D01*
X128147031Y-93352583D01*
X128133946Y-93358772D01*
X128120317Y-93363649D01*
X128106276Y-93367166D01*
X128091958Y-93369290D01*
X128077500Y-93370000D01*
X127782500Y-93370000D01*
X127768042Y-93369290D01*
X127753724Y-93367166D01*
X127739683Y-93363649D01*
X127726054Y-93358772D01*
X127712969Y-93352583D01*
X127700553Y-93345142D01*
X127688927Y-93336519D01*
X127678202Y-93326798D01*
X127668481Y-93316073D01*
X127659858Y-93304447D01*
X127652417Y-93292031D01*
X127646228Y-93278946D01*
X127641351Y-93265317D01*
X127637834Y-93251276D01*
X127635710Y-93236958D01*
X127635000Y-93222500D01*
X127635000Y-92877500D01*
X127635710Y-92863042D01*
X127637834Y-92848724D01*
X127641351Y-92834683D01*
X127646228Y-92821054D01*
X127652417Y-92807969D01*
X127659858Y-92795553D01*
X127668481Y-92783927D01*
X127678202Y-92773202D01*
X127688927Y-92763481D01*
X127700553Y-92754858D01*
X127712969Y-92747417D01*
X127726054Y-92741228D01*
X127739683Y-92736351D01*
X127753724Y-92732834D01*
X127768042Y-92730710D01*
X127782500Y-92730000D01*
X128077500Y-92730000D01*
X128091958Y-92730710D01*
G37*
G04 #@! TD.AperFunction*
G04 #@! TA.AperFunction,SMDPad,CuDef*
G36*
X127341958Y-94530710D02*
G01*
X127356276Y-94532834D01*
X127370317Y-94536351D01*
X127383946Y-94541228D01*
X127397031Y-94547417D01*
X127409447Y-94554858D01*
X127421073Y-94563481D01*
X127431798Y-94573202D01*
X127441519Y-94583927D01*
X127450142Y-94595553D01*
X127457583Y-94607969D01*
X127463772Y-94621054D01*
X127468649Y-94634683D01*
X127472166Y-94648724D01*
X127474290Y-94663042D01*
X127475000Y-94677500D01*
X127475000Y-95022500D01*
X127474290Y-95036958D01*
X127472166Y-95051276D01*
X127468649Y-95065317D01*
X127463772Y-95078946D01*
X127457583Y-95092031D01*
X127450142Y-95104447D01*
X127441519Y-95116073D01*
X127431798Y-95126798D01*
X127421073Y-95136519D01*
X127409447Y-95145142D01*
X127397031Y-95152583D01*
X127383946Y-95158772D01*
X127370317Y-95163649D01*
X127356276Y-95167166D01*
X127341958Y-95169290D01*
X127327500Y-95170000D01*
X127032500Y-95170000D01*
X127018042Y-95169290D01*
X127003724Y-95167166D01*
X126989683Y-95163649D01*
X126976054Y-95158772D01*
X126962969Y-95152583D01*
X126950553Y-95145142D01*
X126938927Y-95136519D01*
X126928202Y-95126798D01*
X126918481Y-95116073D01*
X126909858Y-95104447D01*
X126902417Y-95092031D01*
X126896228Y-95078946D01*
X126891351Y-95065317D01*
X126887834Y-95051276D01*
X126885710Y-95036958D01*
X126885000Y-95022500D01*
X126885000Y-94677500D01*
X126885710Y-94663042D01*
X126887834Y-94648724D01*
X126891351Y-94634683D01*
X126896228Y-94621054D01*
X126902417Y-94607969D01*
X126909858Y-94595553D01*
X126918481Y-94583927D01*
X126928202Y-94573202D01*
X126938927Y-94563481D01*
X126950553Y-94554858D01*
X126962969Y-94547417D01*
X126976054Y-94541228D01*
X126989683Y-94536351D01*
X127003724Y-94532834D01*
X127018042Y-94530710D01*
X127032500Y-94530000D01*
X127327500Y-94530000D01*
X127341958Y-94530710D01*
G37*
G04 #@! TD.AperFunction*
G04 #@! TA.AperFunction,SMDPad,CuDef*
G36*
X128311958Y-94530710D02*
G01*
X128326276Y-94532834D01*
X128340317Y-94536351D01*
X128353946Y-94541228D01*
X128367031Y-94547417D01*
X128379447Y-94554858D01*
X128391073Y-94563481D01*
X128401798Y-94573202D01*
X128411519Y-94583927D01*
X128420142Y-94595553D01*
X128427583Y-94607969D01*
X128433772Y-94621054D01*
X128438649Y-94634683D01*
X128442166Y-94648724D01*
X128444290Y-94663042D01*
X128445000Y-94677500D01*
X128445000Y-95022500D01*
X128444290Y-95036958D01*
X128442166Y-95051276D01*
X128438649Y-95065317D01*
X128433772Y-95078946D01*
X128427583Y-95092031D01*
X128420142Y-95104447D01*
X128411519Y-95116073D01*
X128401798Y-95126798D01*
X128391073Y-95136519D01*
X128379447Y-95145142D01*
X128367031Y-95152583D01*
X128353946Y-95158772D01*
X128340317Y-95163649D01*
X128326276Y-95167166D01*
X128311958Y-95169290D01*
X128297500Y-95170000D01*
X128002500Y-95170000D01*
X127988042Y-95169290D01*
X127973724Y-95167166D01*
X127959683Y-95163649D01*
X127946054Y-95158772D01*
X127932969Y-95152583D01*
X127920553Y-95145142D01*
X127908927Y-95136519D01*
X127898202Y-95126798D01*
X127888481Y-95116073D01*
X127879858Y-95104447D01*
X127872417Y-95092031D01*
X127866228Y-95078946D01*
X127861351Y-95065317D01*
X127857834Y-95051276D01*
X127855710Y-95036958D01*
X127855000Y-95022500D01*
X127855000Y-94677500D01*
X127855710Y-94663042D01*
X127857834Y-94648724D01*
X127861351Y-94634683D01*
X127866228Y-94621054D01*
X127872417Y-94607969D01*
X127879858Y-94595553D01*
X127888481Y-94583927D01*
X127898202Y-94573202D01*
X127908927Y-94563481D01*
X127920553Y-94554858D01*
X127932969Y-94547417D01*
X127946054Y-94541228D01*
X127959683Y-94536351D01*
X127973724Y-94532834D01*
X127988042Y-94530710D01*
X128002500Y-94530000D01*
X128297500Y-94530000D01*
X128311958Y-94530710D01*
G37*
G04 #@! TD.AperFunction*
D11*
X115650000Y-83550000D03*
G04 #@! TA.AperFunction,SMDPad,CuDef*
D10*
G36*
X138299505Y-87101204D02*
G01*
X138323773Y-87104804D01*
X138347572Y-87110765D01*
X138370671Y-87119030D01*
X138392850Y-87129520D01*
X138413893Y-87142132D01*
X138433599Y-87156747D01*
X138451777Y-87173223D01*
X138468253Y-87191401D01*
X138482868Y-87211107D01*
X138495480Y-87232150D01*
X138505970Y-87254329D01*
X138514235Y-87277428D01*
X138520196Y-87301227D01*
X138523796Y-87325495D01*
X138525000Y-87349999D01*
X138525000Y-88050001D01*
X138523796Y-88074505D01*
X138520196Y-88098773D01*
X138514235Y-88122572D01*
X138505970Y-88145671D01*
X138495480Y-88167850D01*
X138482868Y-88188893D01*
X138468253Y-88208599D01*
X138451777Y-88226777D01*
X138433599Y-88243253D01*
X138413893Y-88257868D01*
X138392850Y-88270480D01*
X138370671Y-88280970D01*
X138347572Y-88289235D01*
X138323773Y-88295196D01*
X138299505Y-88298796D01*
X138275001Y-88300000D01*
X136974999Y-88300000D01*
X136950495Y-88298796D01*
X136926227Y-88295196D01*
X136902428Y-88289235D01*
X136879329Y-88280970D01*
X136857150Y-88270480D01*
X136836107Y-88257868D01*
X136816401Y-88243253D01*
X136798223Y-88226777D01*
X136781747Y-88208599D01*
X136767132Y-88188893D01*
X136754520Y-88167850D01*
X136744030Y-88145671D01*
X136735765Y-88122572D01*
X136729804Y-88098773D01*
X136726204Y-88074505D01*
X136725000Y-88050001D01*
X136725000Y-87349999D01*
X136726204Y-87325495D01*
X136729804Y-87301227D01*
X136735765Y-87277428D01*
X136744030Y-87254329D01*
X136754520Y-87232150D01*
X136767132Y-87211107D01*
X136781747Y-87191401D01*
X136798223Y-87173223D01*
X136816401Y-87156747D01*
X136836107Y-87142132D01*
X136857150Y-87129520D01*
X136879329Y-87119030D01*
X136902428Y-87110765D01*
X136926227Y-87104804D01*
X136950495Y-87101204D01*
X136974999Y-87100000D01*
X138275001Y-87100000D01*
X138299505Y-87101204D01*
G37*
G04 #@! TD.AperFunction*
G04 #@! TA.AperFunction,SMDPad,CuDef*
G36*
X138299505Y-92701204D02*
G01*
X138323773Y-92704804D01*
X138347572Y-92710765D01*
X138370671Y-92719030D01*
X138392850Y-92729520D01*
X138413893Y-92742132D01*
X138433599Y-92756747D01*
X138451777Y-92773223D01*
X138468253Y-92791401D01*
X138482868Y-92811107D01*
X138495480Y-92832150D01*
X138505970Y-92854329D01*
X138514235Y-92877428D01*
X138520196Y-92901227D01*
X138523796Y-92925495D01*
X138525000Y-92949999D01*
X138525000Y-93650001D01*
X138523796Y-93674505D01*
X138520196Y-93698773D01*
X138514235Y-93722572D01*
X138505970Y-93745671D01*
X138495480Y-93767850D01*
X138482868Y-93788893D01*
X138468253Y-93808599D01*
X138451777Y-93826777D01*
X138433599Y-93843253D01*
X138413893Y-93857868D01*
X138392850Y-93870480D01*
X138370671Y-93880970D01*
X138347572Y-93889235D01*
X138323773Y-93895196D01*
X138299505Y-93898796D01*
X138275001Y-93900000D01*
X136974999Y-93900000D01*
X136950495Y-93898796D01*
X136926227Y-93895196D01*
X136902428Y-93889235D01*
X136879329Y-93880970D01*
X136857150Y-93870480D01*
X136836107Y-93857868D01*
X136816401Y-93843253D01*
X136798223Y-93826777D01*
X136781747Y-93808599D01*
X136767132Y-93788893D01*
X136754520Y-93767850D01*
X136744030Y-93745671D01*
X136735765Y-93722572D01*
X136729804Y-93698773D01*
X136726204Y-93674505D01*
X136725000Y-93650001D01*
X136725000Y-92949999D01*
X136726204Y-92925495D01*
X136729804Y-92901227D01*
X136735765Y-92877428D01*
X136744030Y-92854329D01*
X136754520Y-92832150D01*
X136767132Y-92811107D01*
X136781747Y-92791401D01*
X136798223Y-92773223D01*
X136816401Y-92756747D01*
X136836107Y-92742132D01*
X136857150Y-92729520D01*
X136879329Y-92719030D01*
X136902428Y-92710765D01*
X136926227Y-92704804D01*
X136950495Y-92701204D01*
X136974999Y-92700000D01*
X138275001Y-92700000D01*
X138299505Y-92701204D01*
G37*
G04 #@! TD.AperFunction*
G04 #@! TA.AperFunction,SMDPad,CuDef*
G36*
X134389703Y-88700722D02*
G01*
X134404264Y-88702882D01*
X134418543Y-88706459D01*
X134432403Y-88711418D01*
X134445710Y-88717712D01*
X134458336Y-88725280D01*
X134470159Y-88734048D01*
X134481066Y-88743934D01*
X134490952Y-88754841D01*
X134499720Y-88766664D01*
X134507288Y-88779290D01*
X134513582Y-88792597D01*
X134518541Y-88806457D01*
X134522118Y-88820736D01*
X134524278Y-88835297D01*
X134525000Y-88850000D01*
X134525000Y-89150000D01*
X134524278Y-89164703D01*
X134522118Y-89179264D01*
X134518541Y-89193543D01*
X134513582Y-89207403D01*
X134507288Y-89220710D01*
X134499720Y-89233336D01*
X134490952Y-89245159D01*
X134481066Y-89256066D01*
X134470159Y-89265952D01*
X134458336Y-89274720D01*
X134445710Y-89282288D01*
X134432403Y-89288582D01*
X134418543Y-89293541D01*
X134404264Y-89297118D01*
X134389703Y-89299278D01*
X134375000Y-89300000D01*
X133125000Y-89300000D01*
X133110297Y-89299278D01*
X133095736Y-89297118D01*
X133081457Y-89293541D01*
X133067597Y-89288582D01*
X133054290Y-89282288D01*
X133041664Y-89274720D01*
X133029841Y-89265952D01*
X133018934Y-89256066D01*
X133009048Y-89245159D01*
X133000280Y-89233336D01*
X132992712Y-89220710D01*
X132986418Y-89207403D01*
X132981459Y-89193543D01*
X132977882Y-89179264D01*
X132975722Y-89164703D01*
X132975000Y-89150000D01*
X132975000Y-88850000D01*
X132975722Y-88835297D01*
X132977882Y-88820736D01*
X132981459Y-88806457D01*
X132986418Y-88792597D01*
X132992712Y-88779290D01*
X133000280Y-88766664D01*
X133009048Y-88754841D01*
X133018934Y-88743934D01*
X133029841Y-88734048D01*
X133041664Y-88725280D01*
X133054290Y-88717712D01*
X133067597Y-88711418D01*
X133081457Y-88706459D01*
X133095736Y-88702882D01*
X133110297Y-88700722D01*
X133125000Y-88700000D01*
X134375000Y-88700000D01*
X134389703Y-88700722D01*
G37*
G04 #@! TD.AperFunction*
G04 #@! TA.AperFunction,SMDPad,CuDef*
G36*
X134389703Y-89700722D02*
G01*
X134404264Y-89702882D01*
X134418543Y-89706459D01*
X134432403Y-89711418D01*
X134445710Y-89717712D01*
X134458336Y-89725280D01*
X134470159Y-89734048D01*
X134481066Y-89743934D01*
X134490952Y-89754841D01*
X134499720Y-89766664D01*
X134507288Y-89779290D01*
X134513582Y-89792597D01*
X134518541Y-89806457D01*
X134522118Y-89820736D01*
X134524278Y-89835297D01*
X134525000Y-89850000D01*
X134525000Y-90150000D01*
X134524278Y-90164703D01*
X134522118Y-90179264D01*
X134518541Y-90193543D01*
X134513582Y-90207403D01*
X134507288Y-90220710D01*
X134499720Y-90233336D01*
X134490952Y-90245159D01*
X134481066Y-90256066D01*
X134470159Y-90265952D01*
X134458336Y-90274720D01*
X134445710Y-90282288D01*
X134432403Y-90288582D01*
X134418543Y-90293541D01*
X134404264Y-90297118D01*
X134389703Y-90299278D01*
X134375000Y-90300000D01*
X133125000Y-90300000D01*
X133110297Y-90299278D01*
X133095736Y-90297118D01*
X133081457Y-90293541D01*
X133067597Y-90288582D01*
X133054290Y-90282288D01*
X133041664Y-90274720D01*
X133029841Y-90265952D01*
X133018934Y-90256066D01*
X133009048Y-90245159D01*
X133000280Y-90233336D01*
X132992712Y-90220710D01*
X132986418Y-90207403D01*
X132981459Y-90193543D01*
X132977882Y-90179264D01*
X132975722Y-90164703D01*
X132975000Y-90150000D01*
X132975000Y-89850000D01*
X132975722Y-89835297D01*
X132977882Y-89820736D01*
X132981459Y-89806457D01*
X132986418Y-89792597D01*
X132992712Y-89779290D01*
X133000280Y-89766664D01*
X133009048Y-89754841D01*
X133018934Y-89743934D01*
X133029841Y-89734048D01*
X133041664Y-89725280D01*
X133054290Y-89717712D01*
X133067597Y-89711418D01*
X133081457Y-89706459D01*
X133095736Y-89702882D01*
X133110297Y-89700722D01*
X133125000Y-89700000D01*
X134375000Y-89700000D01*
X134389703Y-89700722D01*
G37*
G04 #@! TD.AperFunction*
G04 #@! TA.AperFunction,SMDPad,CuDef*
G36*
X134389703Y-90700722D02*
G01*
X134404264Y-90702882D01*
X134418543Y-90706459D01*
X134432403Y-90711418D01*
X134445710Y-90717712D01*
X134458336Y-90725280D01*
X134470159Y-90734048D01*
X134481066Y-90743934D01*
X134490952Y-90754841D01*
X134499720Y-90766664D01*
X134507288Y-90779290D01*
X134513582Y-90792597D01*
X134518541Y-90806457D01*
X134522118Y-90820736D01*
X134524278Y-90835297D01*
X134525000Y-90850000D01*
X134525000Y-91150000D01*
X134524278Y-91164703D01*
X134522118Y-91179264D01*
X134518541Y-91193543D01*
X134513582Y-91207403D01*
X134507288Y-91220710D01*
X134499720Y-91233336D01*
X134490952Y-91245159D01*
X134481066Y-91256066D01*
X134470159Y-91265952D01*
X134458336Y-91274720D01*
X134445710Y-91282288D01*
X134432403Y-91288582D01*
X134418543Y-91293541D01*
X134404264Y-91297118D01*
X134389703Y-91299278D01*
X134375000Y-91300000D01*
X133125000Y-91300000D01*
X133110297Y-91299278D01*
X133095736Y-91297118D01*
X133081457Y-91293541D01*
X133067597Y-91288582D01*
X133054290Y-91282288D01*
X133041664Y-91274720D01*
X133029841Y-91265952D01*
X133018934Y-91256066D01*
X133009048Y-91245159D01*
X133000280Y-91233336D01*
X132992712Y-91220710D01*
X132986418Y-91207403D01*
X132981459Y-91193543D01*
X132977882Y-91179264D01*
X132975722Y-91164703D01*
X132975000Y-91150000D01*
X132975000Y-90850000D01*
X132975722Y-90835297D01*
X132977882Y-90820736D01*
X132981459Y-90806457D01*
X132986418Y-90792597D01*
X132992712Y-90779290D01*
X133000280Y-90766664D01*
X133009048Y-90754841D01*
X133018934Y-90743934D01*
X133029841Y-90734048D01*
X133041664Y-90725280D01*
X133054290Y-90717712D01*
X133067597Y-90711418D01*
X133081457Y-90706459D01*
X133095736Y-90702882D01*
X133110297Y-90700722D01*
X133125000Y-90700000D01*
X134375000Y-90700000D01*
X134389703Y-90700722D01*
G37*
G04 #@! TD.AperFunction*
G04 #@! TA.AperFunction,SMDPad,CuDef*
G36*
X134389703Y-91700722D02*
G01*
X134404264Y-91702882D01*
X134418543Y-91706459D01*
X134432403Y-91711418D01*
X134445710Y-91717712D01*
X134458336Y-91725280D01*
X134470159Y-91734048D01*
X134481066Y-91743934D01*
X134490952Y-91754841D01*
X134499720Y-91766664D01*
X134507288Y-91779290D01*
X134513582Y-91792597D01*
X134518541Y-91806457D01*
X134522118Y-91820736D01*
X134524278Y-91835297D01*
X134525000Y-91850000D01*
X134525000Y-92150000D01*
X134524278Y-92164703D01*
X134522118Y-92179264D01*
X134518541Y-92193543D01*
X134513582Y-92207403D01*
X134507288Y-92220710D01*
X134499720Y-92233336D01*
X134490952Y-92245159D01*
X134481066Y-92256066D01*
X134470159Y-92265952D01*
X134458336Y-92274720D01*
X134445710Y-92282288D01*
X134432403Y-92288582D01*
X134418543Y-92293541D01*
X134404264Y-92297118D01*
X134389703Y-92299278D01*
X134375000Y-92300000D01*
X133125000Y-92300000D01*
X133110297Y-92299278D01*
X133095736Y-92297118D01*
X133081457Y-92293541D01*
X133067597Y-92288582D01*
X133054290Y-92282288D01*
X133041664Y-92274720D01*
X133029841Y-92265952D01*
X133018934Y-92256066D01*
X133009048Y-92245159D01*
X133000280Y-92233336D01*
X132992712Y-92220710D01*
X132986418Y-92207403D01*
X132981459Y-92193543D01*
X132977882Y-92179264D01*
X132975722Y-92164703D01*
X132975000Y-92150000D01*
X132975000Y-91850000D01*
X132975722Y-91835297D01*
X132977882Y-91820736D01*
X132981459Y-91806457D01*
X132986418Y-91792597D01*
X132992712Y-91779290D01*
X133000280Y-91766664D01*
X133009048Y-91754841D01*
X133018934Y-91743934D01*
X133029841Y-91734048D01*
X133041664Y-91725280D01*
X133054290Y-91717712D01*
X133067597Y-91711418D01*
X133081457Y-91706459D01*
X133095736Y-91702882D01*
X133110297Y-91700722D01*
X133125000Y-91700000D01*
X134375000Y-91700000D01*
X134389703Y-91700722D01*
G37*
G04 #@! TD.AperFunction*
G04 #@! TA.AperFunction,SMDPad,CuDef*
G36*
X130660779Y-95101144D02*
G01*
X130683834Y-95104563D01*
X130706443Y-95110227D01*
X130728387Y-95118079D01*
X130749457Y-95128044D01*
X130769448Y-95140026D01*
X130788168Y-95153910D01*
X130805438Y-95169562D01*
X130821090Y-95186832D01*
X130834974Y-95205552D01*
X130846956Y-95225543D01*
X130856921Y-95246613D01*
X130864773Y-95268557D01*
X130870437Y-95291166D01*
X130873856Y-95314221D01*
X130875000Y-95337500D01*
X130875000Y-95912500D01*
X130873856Y-95935779D01*
X130870437Y-95958834D01*
X130864773Y-95981443D01*
X130856921Y-96003387D01*
X130846956Y-96024457D01*
X130834974Y-96044448D01*
X130821090Y-96063168D01*
X130805438Y-96080438D01*
X130788168Y-96096090D01*
X130769448Y-96109974D01*
X130749457Y-96121956D01*
X130728387Y-96131921D01*
X130706443Y-96139773D01*
X130683834Y-96145437D01*
X130660779Y-96148856D01*
X130637500Y-96150000D01*
X130162500Y-96150000D01*
X130139221Y-96148856D01*
X130116166Y-96145437D01*
X130093557Y-96139773D01*
X130071613Y-96131921D01*
X130050543Y-96121956D01*
X130030552Y-96109974D01*
X130011832Y-96096090D01*
X129994562Y-96080438D01*
X129978910Y-96063168D01*
X129965026Y-96044448D01*
X129953044Y-96024457D01*
X129943079Y-96003387D01*
X129935227Y-95981443D01*
X129929563Y-95958834D01*
X129926144Y-95935779D01*
X129925000Y-95912500D01*
X129925000Y-95337500D01*
X129926144Y-95314221D01*
X129929563Y-95291166D01*
X129935227Y-95268557D01*
X129943079Y-95246613D01*
X129953044Y-95225543D01*
X129965026Y-95205552D01*
X129978910Y-95186832D01*
X129994562Y-95169562D01*
X130011832Y-95153910D01*
X130030552Y-95140026D01*
X130050543Y-95128044D01*
X130071613Y-95118079D01*
X130093557Y-95110227D01*
X130116166Y-95104563D01*
X130139221Y-95101144D01*
X130162500Y-95100000D01*
X130637500Y-95100000D01*
X130660779Y-95101144D01*
G37*
G04 #@! TD.AperFunction*
G04 #@! TA.AperFunction,SMDPad,CuDef*
G36*
X130660779Y-96851144D02*
G01*
X130683834Y-96854563D01*
X130706443Y-96860227D01*
X130728387Y-96868079D01*
X130749457Y-96878044D01*
X130769448Y-96890026D01*
X130788168Y-96903910D01*
X130805438Y-96919562D01*
X130821090Y-96936832D01*
X130834974Y-96955552D01*
X130846956Y-96975543D01*
X130856921Y-96996613D01*
X130864773Y-97018557D01*
X130870437Y-97041166D01*
X130873856Y-97064221D01*
X130875000Y-97087500D01*
X130875000Y-97662500D01*
X130873856Y-97685779D01*
X130870437Y-97708834D01*
X130864773Y-97731443D01*
X130856921Y-97753387D01*
X130846956Y-97774457D01*
X130834974Y-97794448D01*
X130821090Y-97813168D01*
X130805438Y-97830438D01*
X130788168Y-97846090D01*
X130769448Y-97859974D01*
X130749457Y-97871956D01*
X130728387Y-97881921D01*
X130706443Y-97889773D01*
X130683834Y-97895437D01*
X130660779Y-97898856D01*
X130637500Y-97900000D01*
X130162500Y-97900000D01*
X130139221Y-97898856D01*
X130116166Y-97895437D01*
X130093557Y-97889773D01*
X130071613Y-97881921D01*
X130050543Y-97871956D01*
X130030552Y-97859974D01*
X130011832Y-97846090D01*
X129994562Y-97830438D01*
X129978910Y-97813168D01*
X129965026Y-97794448D01*
X129953044Y-97774457D01*
X129943079Y-97753387D01*
X129935227Y-97731443D01*
X129929563Y-97708834D01*
X129926144Y-97685779D01*
X129925000Y-97662500D01*
X129925000Y-97087500D01*
X129926144Y-97064221D01*
X129929563Y-97041166D01*
X129935227Y-97018557D01*
X129943079Y-96996613D01*
X129953044Y-96975543D01*
X129965026Y-96955552D01*
X129978910Y-96936832D01*
X129994562Y-96919562D01*
X130011832Y-96903910D01*
X130030552Y-96890026D01*
X130050543Y-96878044D01*
X130071613Y-96868079D01*
X130093557Y-96860227D01*
X130116166Y-96854563D01*
X130139221Y-96851144D01*
X130162500Y-96850000D01*
X130637500Y-96850000D01*
X130660779Y-96851144D01*
G37*
G04 #@! TD.AperFunction*
G04 #@! TA.AperFunction,SMDPad,CuDef*
G36*
X132310779Y-95101144D02*
G01*
X132333834Y-95104563D01*
X132356443Y-95110227D01*
X132378387Y-95118079D01*
X132399457Y-95128044D01*
X132419448Y-95140026D01*
X132438168Y-95153910D01*
X132455438Y-95169562D01*
X132471090Y-95186832D01*
X132484974Y-95205552D01*
X132496956Y-95225543D01*
X132506921Y-95246613D01*
X132514773Y-95268557D01*
X132520437Y-95291166D01*
X132523856Y-95314221D01*
X132525000Y-95337500D01*
X132525000Y-95912500D01*
X132523856Y-95935779D01*
X132520437Y-95958834D01*
X132514773Y-95981443D01*
X132506921Y-96003387D01*
X132496956Y-96024457D01*
X132484974Y-96044448D01*
X132471090Y-96063168D01*
X132455438Y-96080438D01*
X132438168Y-96096090D01*
X132419448Y-96109974D01*
X132399457Y-96121956D01*
X132378387Y-96131921D01*
X132356443Y-96139773D01*
X132333834Y-96145437D01*
X132310779Y-96148856D01*
X132287500Y-96150000D01*
X131812500Y-96150000D01*
X131789221Y-96148856D01*
X131766166Y-96145437D01*
X131743557Y-96139773D01*
X131721613Y-96131921D01*
X131700543Y-96121956D01*
X131680552Y-96109974D01*
X131661832Y-96096090D01*
X131644562Y-96080438D01*
X131628910Y-96063168D01*
X131615026Y-96044448D01*
X131603044Y-96024457D01*
X131593079Y-96003387D01*
X131585227Y-95981443D01*
X131579563Y-95958834D01*
X131576144Y-95935779D01*
X131575000Y-95912500D01*
X131575000Y-95337500D01*
X131576144Y-95314221D01*
X131579563Y-95291166D01*
X131585227Y-95268557D01*
X131593079Y-95246613D01*
X131603044Y-95225543D01*
X131615026Y-95205552D01*
X131628910Y-95186832D01*
X131644562Y-95169562D01*
X131661832Y-95153910D01*
X131680552Y-95140026D01*
X131700543Y-95128044D01*
X131721613Y-95118079D01*
X131743557Y-95110227D01*
X131766166Y-95104563D01*
X131789221Y-95101144D01*
X131812500Y-95100000D01*
X132287500Y-95100000D01*
X132310779Y-95101144D01*
G37*
G04 #@! TD.AperFunction*
G04 #@! TA.AperFunction,SMDPad,CuDef*
G36*
X132310779Y-96851144D02*
G01*
X132333834Y-96854563D01*
X132356443Y-96860227D01*
X132378387Y-96868079D01*
X132399457Y-96878044D01*
X132419448Y-96890026D01*
X132438168Y-96903910D01*
X132455438Y-96919562D01*
X132471090Y-96936832D01*
X132484974Y-96955552D01*
X132496956Y-96975543D01*
X132506921Y-96996613D01*
X132514773Y-97018557D01*
X132520437Y-97041166D01*
X132523856Y-97064221D01*
X132525000Y-97087500D01*
X132525000Y-97662500D01*
X132523856Y-97685779D01*
X132520437Y-97708834D01*
X132514773Y-97731443D01*
X132506921Y-97753387D01*
X132496956Y-97774457D01*
X132484974Y-97794448D01*
X132471090Y-97813168D01*
X132455438Y-97830438D01*
X132438168Y-97846090D01*
X132419448Y-97859974D01*
X132399457Y-97871956D01*
X132378387Y-97881921D01*
X132356443Y-97889773D01*
X132333834Y-97895437D01*
X132310779Y-97898856D01*
X132287500Y-97900000D01*
X131812500Y-97900000D01*
X131789221Y-97898856D01*
X131766166Y-97895437D01*
X131743557Y-97889773D01*
X131721613Y-97881921D01*
X131700543Y-97871956D01*
X131680552Y-97859974D01*
X131661832Y-97846090D01*
X131644562Y-97830438D01*
X131628910Y-97813168D01*
X131615026Y-97794448D01*
X131603044Y-97774457D01*
X131593079Y-97753387D01*
X131585227Y-97731443D01*
X131579563Y-97708834D01*
X131576144Y-97685779D01*
X131575000Y-97662500D01*
X131575000Y-97087500D01*
X131576144Y-97064221D01*
X131579563Y-97041166D01*
X131585227Y-97018557D01*
X131593079Y-96996613D01*
X131603044Y-96975543D01*
X131615026Y-96955552D01*
X131628910Y-96936832D01*
X131644562Y-96919562D01*
X131661832Y-96903910D01*
X131680552Y-96890026D01*
X131700543Y-96878044D01*
X131721613Y-96868079D01*
X131743557Y-96860227D01*
X131766166Y-96854563D01*
X131789221Y-96851144D01*
X131812500Y-96850000D01*
X132287500Y-96850000D01*
X132310779Y-96851144D01*
G37*
G04 #@! TD.AperFunction*
D12*
X104166726Y-82833274D03*
X103000000Y-82350000D03*
X101833274Y-82833274D03*
X101350000Y-84000000D03*
X101833274Y-85166726D03*
X103000000Y-85650000D03*
X104166726Y-85166726D03*
X104650000Y-84000000D03*
D13*
X103000000Y-84000000D03*
D12*
X137166726Y-82833274D03*
X136000000Y-82350000D03*
X134833274Y-82833274D03*
X134350000Y-84000000D03*
X134833274Y-85166726D03*
X136000000Y-85650000D03*
X137166726Y-85166726D03*
X137650000Y-84000000D03*
D13*
X136000000Y-84000000D03*
D12*
X104166726Y-95833274D03*
X103000000Y-95350000D03*
X101833274Y-95833274D03*
X101350000Y-97000000D03*
X101833274Y-98166726D03*
X103000000Y-98650000D03*
X104166726Y-98166726D03*
X104650000Y-97000000D03*
D13*
X103000000Y-97000000D03*
D12*
X137166726Y-95833274D03*
X136000000Y-95350000D03*
X134833274Y-95833274D03*
X134350000Y-97000000D03*
X134833274Y-98166726D03*
X136000000Y-98650000D03*
X137166726Y-98166726D03*
X137650000Y-97000000D03*
D13*
X136000000Y-97000000D03*
G04 #@! TA.AperFunction,SMDPad,CuDef*
D10*
G36*
X108699398Y-92900000D02*
G01*
X108699398Y-92924534D01*
X108694588Y-92973365D01*
X108685016Y-93021490D01*
X108670772Y-93068445D01*
X108651995Y-93113778D01*
X108628864Y-93157051D01*
X108601604Y-93197850D01*
X108570476Y-93235779D01*
X108535779Y-93270476D01*
X108497850Y-93301604D01*
X108457051Y-93328864D01*
X108413778Y-93351995D01*
X108368445Y-93370772D01*
X108321490Y-93385016D01*
X108273365Y-93394588D01*
X108224534Y-93399398D01*
X108200000Y-93399398D01*
X108200000Y-93400000D01*
X107700000Y-93400000D01*
X107700000Y-93399398D01*
X107675466Y-93399398D01*
X107626635Y-93394588D01*
X107578510Y-93385016D01*
X107531555Y-93370772D01*
X107486222Y-93351995D01*
X107442949Y-93328864D01*
X107402150Y-93301604D01*
X107364221Y-93270476D01*
X107329524Y-93235779D01*
X107298396Y-93197850D01*
X107271136Y-93157051D01*
X107248005Y-93113778D01*
X107229228Y-93068445D01*
X107214984Y-93021490D01*
X107205412Y-92973365D01*
X107200602Y-92924534D01*
X107200602Y-92900000D01*
X107200000Y-92900000D01*
X107200000Y-92400000D01*
X108700000Y-92400000D01*
X108700000Y-92900000D01*
X108699398Y-92900000D01*
G37*
G04 #@! TD.AperFunction*
G04 #@! TA.AperFunction,SMDPad,CuDef*
G36*
X107200000Y-92100000D02*
G01*
X107200000Y-91600000D01*
X107200602Y-91600000D01*
X107200602Y-91575466D01*
X107205412Y-91526635D01*
X107214984Y-91478510D01*
X107229228Y-91431555D01*
X107248005Y-91386222D01*
X107271136Y-91342949D01*
X107298396Y-91302150D01*
X107329524Y-91264221D01*
X107364221Y-91229524D01*
X107402150Y-91198396D01*
X107442949Y-91171136D01*
X107486222Y-91148005D01*
X107531555Y-91129228D01*
X107578510Y-91114984D01*
X107626635Y-91105412D01*
X107675466Y-91100602D01*
X107700000Y-91100602D01*
X107700000Y-91100000D01*
X108200000Y-91100000D01*
X108200000Y-91100602D01*
X108224534Y-91100602D01*
X108273365Y-91105412D01*
X108321490Y-91114984D01*
X108368445Y-91129228D01*
X108413778Y-91148005D01*
X108457051Y-91171136D01*
X108497850Y-91198396D01*
X108535779Y-91229524D01*
X108570476Y-91264221D01*
X108601604Y-91302150D01*
X108628864Y-91342949D01*
X108651995Y-91386222D01*
X108670772Y-91431555D01*
X108685016Y-91478510D01*
X108694588Y-91526635D01*
X108699398Y-91575466D01*
X108699398Y-91600000D01*
X108700000Y-91600000D01*
X108700000Y-92100000D01*
X107200000Y-92100000D01*
G37*
G04 #@! TD.AperFunction*
G04 #@! TA.AperFunction,SMDPad,CuDef*
G36*
X108699398Y-89400000D02*
G01*
X108699398Y-89424534D01*
X108694588Y-89473365D01*
X108685016Y-89521490D01*
X108670772Y-89568445D01*
X108651995Y-89613778D01*
X108628864Y-89657051D01*
X108601604Y-89697850D01*
X108570476Y-89735779D01*
X108535779Y-89770476D01*
X108497850Y-89801604D01*
X108457051Y-89828864D01*
X108413778Y-89851995D01*
X108368445Y-89870772D01*
X108321490Y-89885016D01*
X108273365Y-89894588D01*
X108224534Y-89899398D01*
X108200000Y-89899398D01*
X108200000Y-89900000D01*
X107700000Y-89900000D01*
X107700000Y-89899398D01*
X107675466Y-89899398D01*
X107626635Y-89894588D01*
X107578510Y-89885016D01*
X107531555Y-89870772D01*
X107486222Y-89851995D01*
X107442949Y-89828864D01*
X107402150Y-89801604D01*
X107364221Y-89770476D01*
X107329524Y-89735779D01*
X107298396Y-89697850D01*
X107271136Y-89657051D01*
X107248005Y-89613778D01*
X107229228Y-89568445D01*
X107214984Y-89521490D01*
X107205412Y-89473365D01*
X107200602Y-89424534D01*
X107200602Y-89400000D01*
X107200000Y-89400000D01*
X107200000Y-88900000D01*
X108700000Y-88900000D01*
X108700000Y-89400000D01*
X108699398Y-89400000D01*
G37*
G04 #@! TD.AperFunction*
G04 #@! TA.AperFunction,SMDPad,CuDef*
G36*
X107200000Y-88600000D02*
G01*
X107200000Y-88100000D01*
X107200602Y-88100000D01*
X107200602Y-88075466D01*
X107205412Y-88026635D01*
X107214984Y-87978510D01*
X107229228Y-87931555D01*
X107248005Y-87886222D01*
X107271136Y-87842949D01*
X107298396Y-87802150D01*
X107329524Y-87764221D01*
X107364221Y-87729524D01*
X107402150Y-87698396D01*
X107442949Y-87671136D01*
X107486222Y-87648005D01*
X107531555Y-87629228D01*
X107578510Y-87614984D01*
X107626635Y-87605412D01*
X107675466Y-87600602D01*
X107700000Y-87600602D01*
X107700000Y-87600000D01*
X108200000Y-87600000D01*
X108200000Y-87600602D01*
X108224534Y-87600602D01*
X108273365Y-87605412D01*
X108321490Y-87614984D01*
X108368445Y-87629228D01*
X108413778Y-87648005D01*
X108457051Y-87671136D01*
X108497850Y-87698396D01*
X108535779Y-87729524D01*
X108570476Y-87764221D01*
X108601604Y-87802150D01*
X108628864Y-87842949D01*
X108651995Y-87886222D01*
X108670772Y-87931555D01*
X108685016Y-87978510D01*
X108694588Y-88026635D01*
X108699398Y-88075466D01*
X108699398Y-88100000D01*
X108700000Y-88100000D01*
X108700000Y-88600000D01*
X107200000Y-88600000D01*
G37*
G04 #@! TD.AperFunction*
G04 #@! TA.AperFunction,SMDPad,CuDef*
G36*
X121226958Y-84230710D02*
G01*
X121241276Y-84232834D01*
X121255317Y-84236351D01*
X121268946Y-84241228D01*
X121282031Y-84247417D01*
X121294447Y-84254858D01*
X121306073Y-84263481D01*
X121316798Y-84273202D01*
X121326519Y-84283927D01*
X121335142Y-84295553D01*
X121342583Y-84307969D01*
X121348772Y-84321054D01*
X121353649Y-84334683D01*
X121357166Y-84348724D01*
X121359290Y-84363042D01*
X121360000Y-84377500D01*
X121360000Y-84722500D01*
X121359290Y-84736958D01*
X121357166Y-84751276D01*
X121353649Y-84765317D01*
X121348772Y-84778946D01*
X121342583Y-84792031D01*
X121335142Y-84804447D01*
X121326519Y-84816073D01*
X121316798Y-84826798D01*
X121306073Y-84836519D01*
X121294447Y-84845142D01*
X121282031Y-84852583D01*
X121268946Y-84858772D01*
X121255317Y-84863649D01*
X121241276Y-84867166D01*
X121226958Y-84869290D01*
X121212500Y-84870000D01*
X120917500Y-84870000D01*
X120903042Y-84869290D01*
X120888724Y-84867166D01*
X120874683Y-84863649D01*
X120861054Y-84858772D01*
X120847969Y-84852583D01*
X120835553Y-84845142D01*
X120823927Y-84836519D01*
X120813202Y-84826798D01*
X120803481Y-84816073D01*
X120794858Y-84804447D01*
X120787417Y-84792031D01*
X120781228Y-84778946D01*
X120776351Y-84765317D01*
X120772834Y-84751276D01*
X120770710Y-84736958D01*
X120770000Y-84722500D01*
X120770000Y-84377500D01*
X120770710Y-84363042D01*
X120772834Y-84348724D01*
X120776351Y-84334683D01*
X120781228Y-84321054D01*
X120787417Y-84307969D01*
X120794858Y-84295553D01*
X120803481Y-84283927D01*
X120813202Y-84273202D01*
X120823927Y-84263481D01*
X120835553Y-84254858D01*
X120847969Y-84247417D01*
X120861054Y-84241228D01*
X120874683Y-84236351D01*
X120888724Y-84232834D01*
X120903042Y-84230710D01*
X120917500Y-84230000D01*
X121212500Y-84230000D01*
X121226958Y-84230710D01*
G37*
G04 #@! TD.AperFunction*
G04 #@! TA.AperFunction,SMDPad,CuDef*
G36*
X122196958Y-84230710D02*
G01*
X122211276Y-84232834D01*
X122225317Y-84236351D01*
X122238946Y-84241228D01*
X122252031Y-84247417D01*
X122264447Y-84254858D01*
X122276073Y-84263481D01*
X122286798Y-84273202D01*
X122296519Y-84283927D01*
X122305142Y-84295553D01*
X122312583Y-84307969D01*
X122318772Y-84321054D01*
X122323649Y-84334683D01*
X122327166Y-84348724D01*
X122329290Y-84363042D01*
X122330000Y-84377500D01*
X122330000Y-84722500D01*
X122329290Y-84736958D01*
X122327166Y-84751276D01*
X122323649Y-84765317D01*
X122318772Y-84778946D01*
X122312583Y-84792031D01*
X122305142Y-84804447D01*
X122296519Y-84816073D01*
X122286798Y-84826798D01*
X122276073Y-84836519D01*
X122264447Y-84845142D01*
X122252031Y-84852583D01*
X122238946Y-84858772D01*
X122225317Y-84863649D01*
X122211276Y-84867166D01*
X122196958Y-84869290D01*
X122182500Y-84870000D01*
X121887500Y-84870000D01*
X121873042Y-84869290D01*
X121858724Y-84867166D01*
X121844683Y-84863649D01*
X121831054Y-84858772D01*
X121817969Y-84852583D01*
X121805553Y-84845142D01*
X121793927Y-84836519D01*
X121783202Y-84826798D01*
X121773481Y-84816073D01*
X121764858Y-84804447D01*
X121757417Y-84792031D01*
X121751228Y-84778946D01*
X121746351Y-84765317D01*
X121742834Y-84751276D01*
X121740710Y-84736958D01*
X121740000Y-84722500D01*
X121740000Y-84377500D01*
X121740710Y-84363042D01*
X121742834Y-84348724D01*
X121746351Y-84334683D01*
X121751228Y-84321054D01*
X121757417Y-84307969D01*
X121764858Y-84295553D01*
X121773481Y-84283927D01*
X121783202Y-84273202D01*
X121793927Y-84263481D01*
X121805553Y-84254858D01*
X121817969Y-84247417D01*
X121831054Y-84241228D01*
X121844683Y-84236351D01*
X121858724Y-84232834D01*
X121873042Y-84230710D01*
X121887500Y-84230000D01*
X122182500Y-84230000D01*
X122196958Y-84230710D01*
G37*
G04 #@! TD.AperFunction*
G04 #@! TA.AperFunction,SMDPad,CuDef*
G36*
X110826958Y-89730710D02*
G01*
X110841276Y-89732834D01*
X110855317Y-89736351D01*
X110868946Y-89741228D01*
X110882031Y-89747417D01*
X110894447Y-89754858D01*
X110906073Y-89763481D01*
X110916798Y-89773202D01*
X110926519Y-89783927D01*
X110935142Y-89795553D01*
X110942583Y-89807969D01*
X110948772Y-89821054D01*
X110953649Y-89834683D01*
X110957166Y-89848724D01*
X110959290Y-89863042D01*
X110960000Y-89877500D01*
X110960000Y-90222500D01*
X110959290Y-90236958D01*
X110957166Y-90251276D01*
X110953649Y-90265317D01*
X110948772Y-90278946D01*
X110942583Y-90292031D01*
X110935142Y-90304447D01*
X110926519Y-90316073D01*
X110916798Y-90326798D01*
X110906073Y-90336519D01*
X110894447Y-90345142D01*
X110882031Y-90352583D01*
X110868946Y-90358772D01*
X110855317Y-90363649D01*
X110841276Y-90367166D01*
X110826958Y-90369290D01*
X110812500Y-90370000D01*
X110517500Y-90370000D01*
X110503042Y-90369290D01*
X110488724Y-90367166D01*
X110474683Y-90363649D01*
X110461054Y-90358772D01*
X110447969Y-90352583D01*
X110435553Y-90345142D01*
X110423927Y-90336519D01*
X110413202Y-90326798D01*
X110403481Y-90316073D01*
X110394858Y-90304447D01*
X110387417Y-90292031D01*
X110381228Y-90278946D01*
X110376351Y-90265317D01*
X110372834Y-90251276D01*
X110370710Y-90236958D01*
X110370000Y-90222500D01*
X110370000Y-89877500D01*
X110370710Y-89863042D01*
X110372834Y-89848724D01*
X110376351Y-89834683D01*
X110381228Y-89821054D01*
X110387417Y-89807969D01*
X110394858Y-89795553D01*
X110403481Y-89783927D01*
X110413202Y-89773202D01*
X110423927Y-89763481D01*
X110435553Y-89754858D01*
X110447969Y-89747417D01*
X110461054Y-89741228D01*
X110474683Y-89736351D01*
X110488724Y-89732834D01*
X110503042Y-89730710D01*
X110517500Y-89730000D01*
X110812500Y-89730000D01*
X110826958Y-89730710D01*
G37*
G04 #@! TD.AperFunction*
G04 #@! TA.AperFunction,SMDPad,CuDef*
G36*
X111796958Y-89730710D02*
G01*
X111811276Y-89732834D01*
X111825317Y-89736351D01*
X111838946Y-89741228D01*
X111852031Y-89747417D01*
X111864447Y-89754858D01*
X111876073Y-89763481D01*
X111886798Y-89773202D01*
X111896519Y-89783927D01*
X111905142Y-89795553D01*
X111912583Y-89807969D01*
X111918772Y-89821054D01*
X111923649Y-89834683D01*
X111927166Y-89848724D01*
X111929290Y-89863042D01*
X111930000Y-89877500D01*
X111930000Y-90222500D01*
X111929290Y-90236958D01*
X111927166Y-90251276D01*
X111923649Y-90265317D01*
X111918772Y-90278946D01*
X111912583Y-90292031D01*
X111905142Y-90304447D01*
X111896519Y-90316073D01*
X111886798Y-90326798D01*
X111876073Y-90336519D01*
X111864447Y-90345142D01*
X111852031Y-90352583D01*
X111838946Y-90358772D01*
X111825317Y-90363649D01*
X111811276Y-90367166D01*
X111796958Y-90369290D01*
X111782500Y-90370000D01*
X111487500Y-90370000D01*
X111473042Y-90369290D01*
X111458724Y-90367166D01*
X111444683Y-90363649D01*
X111431054Y-90358772D01*
X111417969Y-90352583D01*
X111405553Y-90345142D01*
X111393927Y-90336519D01*
X111383202Y-90326798D01*
X111373481Y-90316073D01*
X111364858Y-90304447D01*
X111357417Y-90292031D01*
X111351228Y-90278946D01*
X111346351Y-90265317D01*
X111342834Y-90251276D01*
X111340710Y-90236958D01*
X111340000Y-90222500D01*
X111340000Y-89877500D01*
X111340710Y-89863042D01*
X111342834Y-89848724D01*
X111346351Y-89834683D01*
X111351228Y-89821054D01*
X111357417Y-89807969D01*
X111364858Y-89795553D01*
X111373481Y-89783927D01*
X111383202Y-89773202D01*
X111393927Y-89763481D01*
X111405553Y-89754858D01*
X111417969Y-89747417D01*
X111431054Y-89741228D01*
X111444683Y-89736351D01*
X111458724Y-89732834D01*
X111473042Y-89730710D01*
X111487500Y-89730000D01*
X111782500Y-89730000D01*
X111796958Y-89730710D01*
G37*
G04 #@! TD.AperFunction*
G04 #@! TA.AperFunction,SMDPad,CuDef*
G36*
X110841958Y-88630710D02*
G01*
X110856276Y-88632834D01*
X110870317Y-88636351D01*
X110883946Y-88641228D01*
X110897031Y-88647417D01*
X110909447Y-88654858D01*
X110921073Y-88663481D01*
X110931798Y-88673202D01*
X110941519Y-88683927D01*
X110950142Y-88695553D01*
X110957583Y-88707969D01*
X110963772Y-88721054D01*
X110968649Y-88734683D01*
X110972166Y-88748724D01*
X110974290Y-88763042D01*
X110975000Y-88777500D01*
X110975000Y-89122500D01*
X110974290Y-89136958D01*
X110972166Y-89151276D01*
X110968649Y-89165317D01*
X110963772Y-89178946D01*
X110957583Y-89192031D01*
X110950142Y-89204447D01*
X110941519Y-89216073D01*
X110931798Y-89226798D01*
X110921073Y-89236519D01*
X110909447Y-89245142D01*
X110897031Y-89252583D01*
X110883946Y-89258772D01*
X110870317Y-89263649D01*
X110856276Y-89267166D01*
X110841958Y-89269290D01*
X110827500Y-89270000D01*
X110532500Y-89270000D01*
X110518042Y-89269290D01*
X110503724Y-89267166D01*
X110489683Y-89263649D01*
X110476054Y-89258772D01*
X110462969Y-89252583D01*
X110450553Y-89245142D01*
X110438927Y-89236519D01*
X110428202Y-89226798D01*
X110418481Y-89216073D01*
X110409858Y-89204447D01*
X110402417Y-89192031D01*
X110396228Y-89178946D01*
X110391351Y-89165317D01*
X110387834Y-89151276D01*
X110385710Y-89136958D01*
X110385000Y-89122500D01*
X110385000Y-88777500D01*
X110385710Y-88763042D01*
X110387834Y-88748724D01*
X110391351Y-88734683D01*
X110396228Y-88721054D01*
X110402417Y-88707969D01*
X110409858Y-88695553D01*
X110418481Y-88683927D01*
X110428202Y-88673202D01*
X110438927Y-88663481D01*
X110450553Y-88654858D01*
X110462969Y-88647417D01*
X110476054Y-88641228D01*
X110489683Y-88636351D01*
X110503724Y-88632834D01*
X110518042Y-88630710D01*
X110532500Y-88630000D01*
X110827500Y-88630000D01*
X110841958Y-88630710D01*
G37*
G04 #@! TD.AperFunction*
G04 #@! TA.AperFunction,SMDPad,CuDef*
G36*
X111811958Y-88630710D02*
G01*
X111826276Y-88632834D01*
X111840317Y-88636351D01*
X111853946Y-88641228D01*
X111867031Y-88647417D01*
X111879447Y-88654858D01*
X111891073Y-88663481D01*
X111901798Y-88673202D01*
X111911519Y-88683927D01*
X111920142Y-88695553D01*
X111927583Y-88707969D01*
X111933772Y-88721054D01*
X111938649Y-88734683D01*
X111942166Y-88748724D01*
X111944290Y-88763042D01*
X111945000Y-88777500D01*
X111945000Y-89122500D01*
X111944290Y-89136958D01*
X111942166Y-89151276D01*
X111938649Y-89165317D01*
X111933772Y-89178946D01*
X111927583Y-89192031D01*
X111920142Y-89204447D01*
X111911519Y-89216073D01*
X111901798Y-89226798D01*
X111891073Y-89236519D01*
X111879447Y-89245142D01*
X111867031Y-89252583D01*
X111853946Y-89258772D01*
X111840317Y-89263649D01*
X111826276Y-89267166D01*
X111811958Y-89269290D01*
X111797500Y-89270000D01*
X111502500Y-89270000D01*
X111488042Y-89269290D01*
X111473724Y-89267166D01*
X111459683Y-89263649D01*
X111446054Y-89258772D01*
X111432969Y-89252583D01*
X111420553Y-89245142D01*
X111408927Y-89236519D01*
X111398202Y-89226798D01*
X111388481Y-89216073D01*
X111379858Y-89204447D01*
X111372417Y-89192031D01*
X111366228Y-89178946D01*
X111361351Y-89165317D01*
X111357834Y-89151276D01*
X111355710Y-89136958D01*
X111355000Y-89122500D01*
X111355000Y-88777500D01*
X111355710Y-88763042D01*
X111357834Y-88748724D01*
X111361351Y-88734683D01*
X111366228Y-88721054D01*
X111372417Y-88707969D01*
X111379858Y-88695553D01*
X111388481Y-88683927D01*
X111398202Y-88673202D01*
X111408927Y-88663481D01*
X111420553Y-88654858D01*
X111432969Y-88647417D01*
X111446054Y-88641228D01*
X111459683Y-88636351D01*
X111473724Y-88632834D01*
X111488042Y-88630710D01*
X111502500Y-88630000D01*
X111797500Y-88630000D01*
X111811958Y-88630710D01*
G37*
G04 #@! TD.AperFunction*
G04 #@! TA.AperFunction,SMDPad,CuDef*
G36*
X111814958Y-91980710D02*
G01*
X111829276Y-91982834D01*
X111843317Y-91986351D01*
X111856946Y-91991228D01*
X111870031Y-91997417D01*
X111882447Y-92004858D01*
X111894073Y-92013481D01*
X111904798Y-92023202D01*
X111914519Y-92033927D01*
X111923142Y-92045553D01*
X111930583Y-92057969D01*
X111936772Y-92071054D01*
X111941649Y-92084683D01*
X111945166Y-92098724D01*
X111947290Y-92113042D01*
X111948000Y-92127500D01*
X111948000Y-92472500D01*
X111947290Y-92486958D01*
X111945166Y-92501276D01*
X111941649Y-92515317D01*
X111936772Y-92528946D01*
X111930583Y-92542031D01*
X111923142Y-92554447D01*
X111914519Y-92566073D01*
X111904798Y-92576798D01*
X111894073Y-92586519D01*
X111882447Y-92595142D01*
X111870031Y-92602583D01*
X111856946Y-92608772D01*
X111843317Y-92613649D01*
X111829276Y-92617166D01*
X111814958Y-92619290D01*
X111800500Y-92620000D01*
X111505500Y-92620000D01*
X111491042Y-92619290D01*
X111476724Y-92617166D01*
X111462683Y-92613649D01*
X111449054Y-92608772D01*
X111435969Y-92602583D01*
X111423553Y-92595142D01*
X111411927Y-92586519D01*
X111401202Y-92576798D01*
X111391481Y-92566073D01*
X111382858Y-92554447D01*
X111375417Y-92542031D01*
X111369228Y-92528946D01*
X111364351Y-92515317D01*
X111360834Y-92501276D01*
X111358710Y-92486958D01*
X111358000Y-92472500D01*
X111358000Y-92127500D01*
X111358710Y-92113042D01*
X111360834Y-92098724D01*
X111364351Y-92084683D01*
X111369228Y-92071054D01*
X111375417Y-92057969D01*
X111382858Y-92045553D01*
X111391481Y-92033927D01*
X111401202Y-92023202D01*
X111411927Y-92013481D01*
X111423553Y-92004858D01*
X111435969Y-91997417D01*
X111449054Y-91991228D01*
X111462683Y-91986351D01*
X111476724Y-91982834D01*
X111491042Y-91980710D01*
X111505500Y-91980000D01*
X111800500Y-91980000D01*
X111814958Y-91980710D01*
G37*
G04 #@! TD.AperFunction*
G04 #@! TA.AperFunction,SMDPad,CuDef*
G36*
X110844958Y-91980710D02*
G01*
X110859276Y-91982834D01*
X110873317Y-91986351D01*
X110886946Y-91991228D01*
X110900031Y-91997417D01*
X110912447Y-92004858D01*
X110924073Y-92013481D01*
X110934798Y-92023202D01*
X110944519Y-92033927D01*
X110953142Y-92045553D01*
X110960583Y-92057969D01*
X110966772Y-92071054D01*
X110971649Y-92084683D01*
X110975166Y-92098724D01*
X110977290Y-92113042D01*
X110978000Y-92127500D01*
X110978000Y-92472500D01*
X110977290Y-92486958D01*
X110975166Y-92501276D01*
X110971649Y-92515317D01*
X110966772Y-92528946D01*
X110960583Y-92542031D01*
X110953142Y-92554447D01*
X110944519Y-92566073D01*
X110934798Y-92576798D01*
X110924073Y-92586519D01*
X110912447Y-92595142D01*
X110900031Y-92602583D01*
X110886946Y-92608772D01*
X110873317Y-92613649D01*
X110859276Y-92617166D01*
X110844958Y-92619290D01*
X110830500Y-92620000D01*
X110535500Y-92620000D01*
X110521042Y-92619290D01*
X110506724Y-92617166D01*
X110492683Y-92613649D01*
X110479054Y-92608772D01*
X110465969Y-92602583D01*
X110453553Y-92595142D01*
X110441927Y-92586519D01*
X110431202Y-92576798D01*
X110421481Y-92566073D01*
X110412858Y-92554447D01*
X110405417Y-92542031D01*
X110399228Y-92528946D01*
X110394351Y-92515317D01*
X110390834Y-92501276D01*
X110388710Y-92486958D01*
X110388000Y-92472500D01*
X110388000Y-92127500D01*
X110388710Y-92113042D01*
X110390834Y-92098724D01*
X110394351Y-92084683D01*
X110399228Y-92071054D01*
X110405417Y-92057969D01*
X110412858Y-92045553D01*
X110421481Y-92033927D01*
X110431202Y-92023202D01*
X110441927Y-92013481D01*
X110453553Y-92004858D01*
X110465969Y-91997417D01*
X110479054Y-91991228D01*
X110492683Y-91986351D01*
X110506724Y-91982834D01*
X110521042Y-91980710D01*
X110535500Y-91980000D01*
X110830500Y-91980000D01*
X110844958Y-91980710D01*
G37*
G04 #@! TD.AperFunction*
G04 #@! TA.AperFunction,SMDPad,CuDef*
G36*
X119896958Y-84230710D02*
G01*
X119911276Y-84232834D01*
X119925317Y-84236351D01*
X119938946Y-84241228D01*
X119952031Y-84247417D01*
X119964447Y-84254858D01*
X119976073Y-84263481D01*
X119986798Y-84273202D01*
X119996519Y-84283927D01*
X120005142Y-84295553D01*
X120012583Y-84307969D01*
X120018772Y-84321054D01*
X120023649Y-84334683D01*
X120027166Y-84348724D01*
X120029290Y-84363042D01*
X120030000Y-84377500D01*
X120030000Y-84722500D01*
X120029290Y-84736958D01*
X120027166Y-84751276D01*
X120023649Y-84765317D01*
X120018772Y-84778946D01*
X120012583Y-84792031D01*
X120005142Y-84804447D01*
X119996519Y-84816073D01*
X119986798Y-84826798D01*
X119976073Y-84836519D01*
X119964447Y-84845142D01*
X119952031Y-84852583D01*
X119938946Y-84858772D01*
X119925317Y-84863649D01*
X119911276Y-84867166D01*
X119896958Y-84869290D01*
X119882500Y-84870000D01*
X119587500Y-84870000D01*
X119573042Y-84869290D01*
X119558724Y-84867166D01*
X119544683Y-84863649D01*
X119531054Y-84858772D01*
X119517969Y-84852583D01*
X119505553Y-84845142D01*
X119493927Y-84836519D01*
X119483202Y-84826798D01*
X119473481Y-84816073D01*
X119464858Y-84804447D01*
X119457417Y-84792031D01*
X119451228Y-84778946D01*
X119446351Y-84765317D01*
X119442834Y-84751276D01*
X119440710Y-84736958D01*
X119440000Y-84722500D01*
X119440000Y-84377500D01*
X119440710Y-84363042D01*
X119442834Y-84348724D01*
X119446351Y-84334683D01*
X119451228Y-84321054D01*
X119457417Y-84307969D01*
X119464858Y-84295553D01*
X119473481Y-84283927D01*
X119483202Y-84273202D01*
X119493927Y-84263481D01*
X119505553Y-84254858D01*
X119517969Y-84247417D01*
X119531054Y-84241228D01*
X119544683Y-84236351D01*
X119558724Y-84232834D01*
X119573042Y-84230710D01*
X119587500Y-84230000D01*
X119882500Y-84230000D01*
X119896958Y-84230710D01*
G37*
G04 #@! TD.AperFunction*
G04 #@! TA.AperFunction,SMDPad,CuDef*
G36*
X118926958Y-84230710D02*
G01*
X118941276Y-84232834D01*
X118955317Y-84236351D01*
X118968946Y-84241228D01*
X118982031Y-84247417D01*
X118994447Y-84254858D01*
X119006073Y-84263481D01*
X119016798Y-84273202D01*
X119026519Y-84283927D01*
X119035142Y-84295553D01*
X119042583Y-84307969D01*
X119048772Y-84321054D01*
X119053649Y-84334683D01*
X119057166Y-84348724D01*
X119059290Y-84363042D01*
X119060000Y-84377500D01*
X119060000Y-84722500D01*
X119059290Y-84736958D01*
X119057166Y-84751276D01*
X119053649Y-84765317D01*
X119048772Y-84778946D01*
X119042583Y-84792031D01*
X119035142Y-84804447D01*
X119026519Y-84816073D01*
X119016798Y-84826798D01*
X119006073Y-84836519D01*
X118994447Y-84845142D01*
X118982031Y-84852583D01*
X118968946Y-84858772D01*
X118955317Y-84863649D01*
X118941276Y-84867166D01*
X118926958Y-84869290D01*
X118912500Y-84870000D01*
X118617500Y-84870000D01*
X118603042Y-84869290D01*
X118588724Y-84867166D01*
X118574683Y-84863649D01*
X118561054Y-84858772D01*
X118547969Y-84852583D01*
X118535553Y-84845142D01*
X118523927Y-84836519D01*
X118513202Y-84826798D01*
X118503481Y-84816073D01*
X118494858Y-84804447D01*
X118487417Y-84792031D01*
X118481228Y-84778946D01*
X118476351Y-84765317D01*
X118472834Y-84751276D01*
X118470710Y-84736958D01*
X118470000Y-84722500D01*
X118470000Y-84377500D01*
X118470710Y-84363042D01*
X118472834Y-84348724D01*
X118476351Y-84334683D01*
X118481228Y-84321054D01*
X118487417Y-84307969D01*
X118494858Y-84295553D01*
X118503481Y-84283927D01*
X118513202Y-84273202D01*
X118523927Y-84263481D01*
X118535553Y-84254858D01*
X118547969Y-84247417D01*
X118561054Y-84241228D01*
X118574683Y-84236351D01*
X118588724Y-84232834D01*
X118603042Y-84230710D01*
X118617500Y-84230000D01*
X118912500Y-84230000D01*
X118926958Y-84230710D01*
G37*
G04 #@! TD.AperFunction*
G04 #@! TA.AperFunction,SMDPad,CuDef*
G36*
X118911958Y-95430710D02*
G01*
X118926276Y-95432834D01*
X118940317Y-95436351D01*
X118953946Y-95441228D01*
X118967031Y-95447417D01*
X118979447Y-95454858D01*
X118991073Y-95463481D01*
X119001798Y-95473202D01*
X119011519Y-95483927D01*
X119020142Y-95495553D01*
X119027583Y-95507969D01*
X119033772Y-95521054D01*
X119038649Y-95534683D01*
X119042166Y-95548724D01*
X119044290Y-95563042D01*
X119045000Y-95577500D01*
X119045000Y-95922500D01*
X119044290Y-95936958D01*
X119042166Y-95951276D01*
X119038649Y-95965317D01*
X119033772Y-95978946D01*
X119027583Y-95992031D01*
X119020142Y-96004447D01*
X119011519Y-96016073D01*
X119001798Y-96026798D01*
X118991073Y-96036519D01*
X118979447Y-96045142D01*
X118967031Y-96052583D01*
X118953946Y-96058772D01*
X118940317Y-96063649D01*
X118926276Y-96067166D01*
X118911958Y-96069290D01*
X118897500Y-96070000D01*
X118602500Y-96070000D01*
X118588042Y-96069290D01*
X118573724Y-96067166D01*
X118559683Y-96063649D01*
X118546054Y-96058772D01*
X118532969Y-96052583D01*
X118520553Y-96045142D01*
X118508927Y-96036519D01*
X118498202Y-96026798D01*
X118488481Y-96016073D01*
X118479858Y-96004447D01*
X118472417Y-95992031D01*
X118466228Y-95978946D01*
X118461351Y-95965317D01*
X118457834Y-95951276D01*
X118455710Y-95936958D01*
X118455000Y-95922500D01*
X118455000Y-95577500D01*
X118455710Y-95563042D01*
X118457834Y-95548724D01*
X118461351Y-95534683D01*
X118466228Y-95521054D01*
X118472417Y-95507969D01*
X118479858Y-95495553D01*
X118488481Y-95483927D01*
X118498202Y-95473202D01*
X118508927Y-95463481D01*
X118520553Y-95454858D01*
X118532969Y-95447417D01*
X118546054Y-95441228D01*
X118559683Y-95436351D01*
X118573724Y-95432834D01*
X118588042Y-95430710D01*
X118602500Y-95430000D01*
X118897500Y-95430000D01*
X118911958Y-95430710D01*
G37*
G04 #@! TD.AperFunction*
G04 #@! TA.AperFunction,SMDPad,CuDef*
G36*
X117941958Y-95430710D02*
G01*
X117956276Y-95432834D01*
X117970317Y-95436351D01*
X117983946Y-95441228D01*
X117997031Y-95447417D01*
X118009447Y-95454858D01*
X118021073Y-95463481D01*
X118031798Y-95473202D01*
X118041519Y-95483927D01*
X118050142Y-95495553D01*
X118057583Y-95507969D01*
X118063772Y-95521054D01*
X118068649Y-95534683D01*
X118072166Y-95548724D01*
X118074290Y-95563042D01*
X118075000Y-95577500D01*
X118075000Y-95922500D01*
X118074290Y-95936958D01*
X118072166Y-95951276D01*
X118068649Y-95965317D01*
X118063772Y-95978946D01*
X118057583Y-95992031D01*
X118050142Y-96004447D01*
X118041519Y-96016073D01*
X118031798Y-96026798D01*
X118021073Y-96036519D01*
X118009447Y-96045142D01*
X117997031Y-96052583D01*
X117983946Y-96058772D01*
X117970317Y-96063649D01*
X117956276Y-96067166D01*
X117941958Y-96069290D01*
X117927500Y-96070000D01*
X117632500Y-96070000D01*
X117618042Y-96069290D01*
X117603724Y-96067166D01*
X117589683Y-96063649D01*
X117576054Y-96058772D01*
X117562969Y-96052583D01*
X117550553Y-96045142D01*
X117538927Y-96036519D01*
X117528202Y-96026798D01*
X117518481Y-96016073D01*
X117509858Y-96004447D01*
X117502417Y-95992031D01*
X117496228Y-95978946D01*
X117491351Y-95965317D01*
X117487834Y-95951276D01*
X117485710Y-95936958D01*
X117485000Y-95922500D01*
X117485000Y-95577500D01*
X117485710Y-95563042D01*
X117487834Y-95548724D01*
X117491351Y-95534683D01*
X117496228Y-95521054D01*
X117502417Y-95507969D01*
X117509858Y-95495553D01*
X117518481Y-95483927D01*
X117528202Y-95473202D01*
X117538927Y-95463481D01*
X117550553Y-95454858D01*
X117562969Y-95447417D01*
X117576054Y-95441228D01*
X117589683Y-95436351D01*
X117603724Y-95432834D01*
X117618042Y-95430710D01*
X117632500Y-95430000D01*
X117927500Y-95430000D01*
X117941958Y-95430710D01*
G37*
G04 #@! TD.AperFunction*
G04 #@! TA.AperFunction,SMDPad,CuDef*
G36*
X121296958Y-94630710D02*
G01*
X121311276Y-94632834D01*
X121325317Y-94636351D01*
X121338946Y-94641228D01*
X121352031Y-94647417D01*
X121364447Y-94654858D01*
X121376073Y-94663481D01*
X121386798Y-94673202D01*
X121396519Y-94683927D01*
X121405142Y-94695553D01*
X121412583Y-94707969D01*
X121418772Y-94721054D01*
X121423649Y-94734683D01*
X121427166Y-94748724D01*
X121429290Y-94763042D01*
X121430000Y-94777500D01*
X121430000Y-95122500D01*
X121429290Y-95136958D01*
X121427166Y-95151276D01*
X121423649Y-95165317D01*
X121418772Y-95178946D01*
X121412583Y-95192031D01*
X121405142Y-95204447D01*
X121396519Y-95216073D01*
X121386798Y-95226798D01*
X121376073Y-95236519D01*
X121364447Y-95245142D01*
X121352031Y-95252583D01*
X121338946Y-95258772D01*
X121325317Y-95263649D01*
X121311276Y-95267166D01*
X121296958Y-95269290D01*
X121282500Y-95270000D01*
X120987500Y-95270000D01*
X120973042Y-95269290D01*
X120958724Y-95267166D01*
X120944683Y-95263649D01*
X120931054Y-95258772D01*
X120917969Y-95252583D01*
X120905553Y-95245142D01*
X120893927Y-95236519D01*
X120883202Y-95226798D01*
X120873481Y-95216073D01*
X120864858Y-95204447D01*
X120857417Y-95192031D01*
X120851228Y-95178946D01*
X120846351Y-95165317D01*
X120842834Y-95151276D01*
X120840710Y-95136958D01*
X120840000Y-95122500D01*
X120840000Y-94777500D01*
X120840710Y-94763042D01*
X120842834Y-94748724D01*
X120846351Y-94734683D01*
X120851228Y-94721054D01*
X120857417Y-94707969D01*
X120864858Y-94695553D01*
X120873481Y-94683927D01*
X120883202Y-94673202D01*
X120893927Y-94663481D01*
X120905553Y-94654858D01*
X120917969Y-94647417D01*
X120931054Y-94641228D01*
X120944683Y-94636351D01*
X120958724Y-94632834D01*
X120973042Y-94630710D01*
X120987500Y-94630000D01*
X121282500Y-94630000D01*
X121296958Y-94630710D01*
G37*
G04 #@! TD.AperFunction*
G04 #@! TA.AperFunction,SMDPad,CuDef*
G36*
X120326958Y-94630710D02*
G01*
X120341276Y-94632834D01*
X120355317Y-94636351D01*
X120368946Y-94641228D01*
X120382031Y-94647417D01*
X120394447Y-94654858D01*
X120406073Y-94663481D01*
X120416798Y-94673202D01*
X120426519Y-94683927D01*
X120435142Y-94695553D01*
X120442583Y-94707969D01*
X120448772Y-94721054D01*
X120453649Y-94734683D01*
X120457166Y-94748724D01*
X120459290Y-94763042D01*
X120460000Y-94777500D01*
X120460000Y-95122500D01*
X120459290Y-95136958D01*
X120457166Y-95151276D01*
X120453649Y-95165317D01*
X120448772Y-95178946D01*
X120442583Y-95192031D01*
X120435142Y-95204447D01*
X120426519Y-95216073D01*
X120416798Y-95226798D01*
X120406073Y-95236519D01*
X120394447Y-95245142D01*
X120382031Y-95252583D01*
X120368946Y-95258772D01*
X120355317Y-95263649D01*
X120341276Y-95267166D01*
X120326958Y-95269290D01*
X120312500Y-95270000D01*
X120017500Y-95270000D01*
X120003042Y-95269290D01*
X119988724Y-95267166D01*
X119974683Y-95263649D01*
X119961054Y-95258772D01*
X119947969Y-95252583D01*
X119935553Y-95245142D01*
X119923927Y-95236519D01*
X119913202Y-95226798D01*
X119903481Y-95216073D01*
X119894858Y-95204447D01*
X119887417Y-95192031D01*
X119881228Y-95178946D01*
X119876351Y-95165317D01*
X119872834Y-95151276D01*
X119870710Y-95136958D01*
X119870000Y-95122500D01*
X119870000Y-94777500D01*
X119870710Y-94763042D01*
X119872834Y-94748724D01*
X119876351Y-94734683D01*
X119881228Y-94721054D01*
X119887417Y-94707969D01*
X119894858Y-94695553D01*
X119903481Y-94683927D01*
X119913202Y-94673202D01*
X119923927Y-94663481D01*
X119935553Y-94654858D01*
X119947969Y-94647417D01*
X119961054Y-94641228D01*
X119974683Y-94636351D01*
X119988724Y-94632834D01*
X120003042Y-94630710D01*
X120017500Y-94630000D01*
X120312500Y-94630000D01*
X120326958Y-94630710D01*
G37*
G04 #@! TD.AperFunction*
G04 #@! TA.AperFunction,SMDPad,CuDef*
G36*
X115536958Y-92195710D02*
G01*
X115551276Y-92197834D01*
X115565317Y-92201351D01*
X115578946Y-92206228D01*
X115592031Y-92212417D01*
X115604447Y-92219858D01*
X115616073Y-92228481D01*
X115626798Y-92238202D01*
X115636519Y-92248927D01*
X115645142Y-92260553D01*
X115652583Y-92272969D01*
X115658772Y-92286054D01*
X115663649Y-92299683D01*
X115667166Y-92313724D01*
X115669290Y-92328042D01*
X115670000Y-92342500D01*
X115670000Y-92637500D01*
X115669290Y-92651958D01*
X115667166Y-92666276D01*
X115663649Y-92680317D01*
X115658772Y-92693946D01*
X115652583Y-92707031D01*
X115645142Y-92719447D01*
X115636519Y-92731073D01*
X115626798Y-92741798D01*
X115616073Y-92751519D01*
X115604447Y-92760142D01*
X115592031Y-92767583D01*
X115578946Y-92773772D01*
X115565317Y-92778649D01*
X115551276Y-92782166D01*
X115536958Y-92784290D01*
X115522500Y-92785000D01*
X115177500Y-92785000D01*
X115163042Y-92784290D01*
X115148724Y-92782166D01*
X115134683Y-92778649D01*
X115121054Y-92773772D01*
X115107969Y-92767583D01*
X115095553Y-92760142D01*
X115083927Y-92751519D01*
X115073202Y-92741798D01*
X115063481Y-92731073D01*
X115054858Y-92719447D01*
X115047417Y-92707031D01*
X115041228Y-92693946D01*
X115036351Y-92680317D01*
X115032834Y-92666276D01*
X115030710Y-92651958D01*
X115030000Y-92637500D01*
X115030000Y-92342500D01*
X115030710Y-92328042D01*
X115032834Y-92313724D01*
X115036351Y-92299683D01*
X115041228Y-92286054D01*
X115047417Y-92272969D01*
X115054858Y-92260553D01*
X115063481Y-92248927D01*
X115073202Y-92238202D01*
X115083927Y-92228481D01*
X115095553Y-92219858D01*
X115107969Y-92212417D01*
X115121054Y-92206228D01*
X115134683Y-92201351D01*
X115148724Y-92197834D01*
X115163042Y-92195710D01*
X115177500Y-92195000D01*
X115522500Y-92195000D01*
X115536958Y-92195710D01*
G37*
G04 #@! TD.AperFunction*
G04 #@! TA.AperFunction,SMDPad,CuDef*
G36*
X115536958Y-93165710D02*
G01*
X115551276Y-93167834D01*
X115565317Y-93171351D01*
X115578946Y-93176228D01*
X115592031Y-93182417D01*
X115604447Y-93189858D01*
X115616073Y-93198481D01*
X115626798Y-93208202D01*
X115636519Y-93218927D01*
X115645142Y-93230553D01*
X115652583Y-93242969D01*
X115658772Y-93256054D01*
X115663649Y-93269683D01*
X115667166Y-93283724D01*
X115669290Y-93298042D01*
X115670000Y-93312500D01*
X115670000Y-93607500D01*
X115669290Y-93621958D01*
X115667166Y-93636276D01*
X115663649Y-93650317D01*
X115658772Y-93663946D01*
X115652583Y-93677031D01*
X115645142Y-93689447D01*
X115636519Y-93701073D01*
X115626798Y-93711798D01*
X115616073Y-93721519D01*
X115604447Y-93730142D01*
X115592031Y-93737583D01*
X115578946Y-93743772D01*
X115565317Y-93748649D01*
X115551276Y-93752166D01*
X115536958Y-93754290D01*
X115522500Y-93755000D01*
X115177500Y-93755000D01*
X115163042Y-93754290D01*
X115148724Y-93752166D01*
X115134683Y-93748649D01*
X115121054Y-93743772D01*
X115107969Y-93737583D01*
X115095553Y-93730142D01*
X115083927Y-93721519D01*
X115073202Y-93711798D01*
X115063481Y-93701073D01*
X115054858Y-93689447D01*
X115047417Y-93677031D01*
X115041228Y-93663946D01*
X115036351Y-93650317D01*
X115032834Y-93636276D01*
X115030710Y-93621958D01*
X115030000Y-93607500D01*
X115030000Y-93312500D01*
X115030710Y-93298042D01*
X115032834Y-93283724D01*
X115036351Y-93269683D01*
X115041228Y-93256054D01*
X115047417Y-93242969D01*
X115054858Y-93230553D01*
X115063481Y-93218927D01*
X115073202Y-93208202D01*
X115083927Y-93198481D01*
X115095553Y-93189858D01*
X115107969Y-93182417D01*
X115121054Y-93176228D01*
X115134683Y-93171351D01*
X115148724Y-93167834D01*
X115163042Y-93165710D01*
X115177500Y-93165000D01*
X115522500Y-93165000D01*
X115536958Y-93165710D01*
G37*
G04 #@! TD.AperFunction*
G04 #@! TA.AperFunction,SMDPad,CuDef*
G36*
X114636958Y-89665710D02*
G01*
X114651276Y-89667834D01*
X114665317Y-89671351D01*
X114678946Y-89676228D01*
X114692031Y-89682417D01*
X114704447Y-89689858D01*
X114716073Y-89698481D01*
X114726798Y-89708202D01*
X114736519Y-89718927D01*
X114745142Y-89730553D01*
X114752583Y-89742969D01*
X114758772Y-89756054D01*
X114763649Y-89769683D01*
X114767166Y-89783724D01*
X114769290Y-89798042D01*
X114770000Y-89812500D01*
X114770000Y-90107500D01*
X114769290Y-90121958D01*
X114767166Y-90136276D01*
X114763649Y-90150317D01*
X114758772Y-90163946D01*
X114752583Y-90177031D01*
X114745142Y-90189447D01*
X114736519Y-90201073D01*
X114726798Y-90211798D01*
X114716073Y-90221519D01*
X114704447Y-90230142D01*
X114692031Y-90237583D01*
X114678946Y-90243772D01*
X114665317Y-90248649D01*
X114651276Y-90252166D01*
X114636958Y-90254290D01*
X114622500Y-90255000D01*
X114277500Y-90255000D01*
X114263042Y-90254290D01*
X114248724Y-90252166D01*
X114234683Y-90248649D01*
X114221054Y-90243772D01*
X114207969Y-90237583D01*
X114195553Y-90230142D01*
X114183927Y-90221519D01*
X114173202Y-90211798D01*
X114163481Y-90201073D01*
X114154858Y-90189447D01*
X114147417Y-90177031D01*
X114141228Y-90163946D01*
X114136351Y-90150317D01*
X114132834Y-90136276D01*
X114130710Y-90121958D01*
X114130000Y-90107500D01*
X114130000Y-89812500D01*
X114130710Y-89798042D01*
X114132834Y-89783724D01*
X114136351Y-89769683D01*
X114141228Y-89756054D01*
X114147417Y-89742969D01*
X114154858Y-89730553D01*
X114163481Y-89718927D01*
X114173202Y-89708202D01*
X114183927Y-89698481D01*
X114195553Y-89689858D01*
X114207969Y-89682417D01*
X114221054Y-89676228D01*
X114234683Y-89671351D01*
X114248724Y-89667834D01*
X114263042Y-89665710D01*
X114277500Y-89665000D01*
X114622500Y-89665000D01*
X114636958Y-89665710D01*
G37*
G04 #@! TD.AperFunction*
G04 #@! TA.AperFunction,SMDPad,CuDef*
G36*
X114636958Y-88695710D02*
G01*
X114651276Y-88697834D01*
X114665317Y-88701351D01*
X114678946Y-88706228D01*
X114692031Y-88712417D01*
X114704447Y-88719858D01*
X114716073Y-88728481D01*
X114726798Y-88738202D01*
X114736519Y-88748927D01*
X114745142Y-88760553D01*
X114752583Y-88772969D01*
X114758772Y-88786054D01*
X114763649Y-88799683D01*
X114767166Y-88813724D01*
X114769290Y-88828042D01*
X114770000Y-88842500D01*
X114770000Y-89137500D01*
X114769290Y-89151958D01*
X114767166Y-89166276D01*
X114763649Y-89180317D01*
X114758772Y-89193946D01*
X114752583Y-89207031D01*
X114745142Y-89219447D01*
X114736519Y-89231073D01*
X114726798Y-89241798D01*
X114716073Y-89251519D01*
X114704447Y-89260142D01*
X114692031Y-89267583D01*
X114678946Y-89273772D01*
X114665317Y-89278649D01*
X114651276Y-89282166D01*
X114636958Y-89284290D01*
X114622500Y-89285000D01*
X114277500Y-89285000D01*
X114263042Y-89284290D01*
X114248724Y-89282166D01*
X114234683Y-89278649D01*
X114221054Y-89273772D01*
X114207969Y-89267583D01*
X114195553Y-89260142D01*
X114183927Y-89251519D01*
X114173202Y-89241798D01*
X114163481Y-89231073D01*
X114154858Y-89219447D01*
X114147417Y-89207031D01*
X114141228Y-89193946D01*
X114136351Y-89180317D01*
X114132834Y-89166276D01*
X114130710Y-89151958D01*
X114130000Y-89137500D01*
X114130000Y-88842500D01*
X114130710Y-88828042D01*
X114132834Y-88813724D01*
X114136351Y-88799683D01*
X114141228Y-88786054D01*
X114147417Y-88772969D01*
X114154858Y-88760553D01*
X114163481Y-88748927D01*
X114173202Y-88738202D01*
X114183927Y-88728481D01*
X114195553Y-88719858D01*
X114207969Y-88712417D01*
X114221054Y-88706228D01*
X114234683Y-88701351D01*
X114248724Y-88697834D01*
X114263042Y-88695710D01*
X114277500Y-88695000D01*
X114622500Y-88695000D01*
X114636958Y-88695710D01*
G37*
G04 #@! TD.AperFunction*
G04 #@! TA.AperFunction,SMDPad,CuDef*
G36*
X113236958Y-90725710D02*
G01*
X113251276Y-90727834D01*
X113265317Y-90731351D01*
X113278946Y-90736228D01*
X113292031Y-90742417D01*
X113304447Y-90749858D01*
X113316073Y-90758481D01*
X113326798Y-90768202D01*
X113336519Y-90778927D01*
X113345142Y-90790553D01*
X113352583Y-90802969D01*
X113358772Y-90816054D01*
X113363649Y-90829683D01*
X113367166Y-90843724D01*
X113369290Y-90858042D01*
X113370000Y-90872500D01*
X113370000Y-91167500D01*
X113369290Y-91181958D01*
X113367166Y-91196276D01*
X113363649Y-91210317D01*
X113358772Y-91223946D01*
X113352583Y-91237031D01*
X113345142Y-91249447D01*
X113336519Y-91261073D01*
X113326798Y-91271798D01*
X113316073Y-91281519D01*
X113304447Y-91290142D01*
X113292031Y-91297583D01*
X113278946Y-91303772D01*
X113265317Y-91308649D01*
X113251276Y-91312166D01*
X113236958Y-91314290D01*
X113222500Y-91315000D01*
X112877500Y-91315000D01*
X112863042Y-91314290D01*
X112848724Y-91312166D01*
X112834683Y-91308649D01*
X112821054Y-91303772D01*
X112807969Y-91297583D01*
X112795553Y-91290142D01*
X112783927Y-91281519D01*
X112773202Y-91271798D01*
X112763481Y-91261073D01*
X112754858Y-91249447D01*
X112747417Y-91237031D01*
X112741228Y-91223946D01*
X112736351Y-91210317D01*
X112732834Y-91196276D01*
X112730710Y-91181958D01*
X112730000Y-91167500D01*
X112730000Y-90872500D01*
X112730710Y-90858042D01*
X112732834Y-90843724D01*
X112736351Y-90829683D01*
X112741228Y-90816054D01*
X112747417Y-90802969D01*
X112754858Y-90790553D01*
X112763481Y-90778927D01*
X112773202Y-90768202D01*
X112783927Y-90758481D01*
X112795553Y-90749858D01*
X112807969Y-90742417D01*
X112821054Y-90736228D01*
X112834683Y-90731351D01*
X112848724Y-90727834D01*
X112863042Y-90725710D01*
X112877500Y-90725000D01*
X113222500Y-90725000D01*
X113236958Y-90725710D01*
G37*
G04 #@! TD.AperFunction*
G04 #@! TA.AperFunction,SMDPad,CuDef*
G36*
X113236958Y-89755710D02*
G01*
X113251276Y-89757834D01*
X113265317Y-89761351D01*
X113278946Y-89766228D01*
X113292031Y-89772417D01*
X113304447Y-89779858D01*
X113316073Y-89788481D01*
X113326798Y-89798202D01*
X113336519Y-89808927D01*
X113345142Y-89820553D01*
X113352583Y-89832969D01*
X113358772Y-89846054D01*
X113363649Y-89859683D01*
X113367166Y-89873724D01*
X113369290Y-89888042D01*
X113370000Y-89902500D01*
X113370000Y-90197500D01*
X113369290Y-90211958D01*
X113367166Y-90226276D01*
X113363649Y-90240317D01*
X113358772Y-90253946D01*
X113352583Y-90267031D01*
X113345142Y-90279447D01*
X113336519Y-90291073D01*
X113326798Y-90301798D01*
X113316073Y-90311519D01*
X113304447Y-90320142D01*
X113292031Y-90327583D01*
X113278946Y-90333772D01*
X113265317Y-90338649D01*
X113251276Y-90342166D01*
X113236958Y-90344290D01*
X113222500Y-90345000D01*
X112877500Y-90345000D01*
X112863042Y-90344290D01*
X112848724Y-90342166D01*
X112834683Y-90338649D01*
X112821054Y-90333772D01*
X112807969Y-90327583D01*
X112795553Y-90320142D01*
X112783927Y-90311519D01*
X112773202Y-90301798D01*
X112763481Y-90291073D01*
X112754858Y-90279447D01*
X112747417Y-90267031D01*
X112741228Y-90253946D01*
X112736351Y-90240317D01*
X112732834Y-90226276D01*
X112730710Y-90211958D01*
X112730000Y-90197500D01*
X112730000Y-89902500D01*
X112730710Y-89888042D01*
X112732834Y-89873724D01*
X112736351Y-89859683D01*
X112741228Y-89846054D01*
X112747417Y-89832969D01*
X112754858Y-89820553D01*
X112763481Y-89808927D01*
X112773202Y-89798202D01*
X112783927Y-89788481D01*
X112795553Y-89779858D01*
X112807969Y-89772417D01*
X112821054Y-89766228D01*
X112834683Y-89761351D01*
X112848724Y-89757834D01*
X112863042Y-89755710D01*
X112877500Y-89755000D01*
X113222500Y-89755000D01*
X113236958Y-89755710D01*
G37*
G04 #@! TD.AperFunction*
G04 #@! TA.AperFunction,SMDPad,CuDef*
G36*
X113236958Y-88640710D02*
G01*
X113251276Y-88642834D01*
X113265317Y-88646351D01*
X113278946Y-88651228D01*
X113292031Y-88657417D01*
X113304447Y-88664858D01*
X113316073Y-88673481D01*
X113326798Y-88683202D01*
X113336519Y-88693927D01*
X113345142Y-88705553D01*
X113352583Y-88717969D01*
X113358772Y-88731054D01*
X113363649Y-88744683D01*
X113367166Y-88758724D01*
X113369290Y-88773042D01*
X113370000Y-88787500D01*
X113370000Y-89082500D01*
X113369290Y-89096958D01*
X113367166Y-89111276D01*
X113363649Y-89125317D01*
X113358772Y-89138946D01*
X113352583Y-89152031D01*
X113345142Y-89164447D01*
X113336519Y-89176073D01*
X113326798Y-89186798D01*
X113316073Y-89196519D01*
X113304447Y-89205142D01*
X113292031Y-89212583D01*
X113278946Y-89218772D01*
X113265317Y-89223649D01*
X113251276Y-89227166D01*
X113236958Y-89229290D01*
X113222500Y-89230000D01*
X112877500Y-89230000D01*
X112863042Y-89229290D01*
X112848724Y-89227166D01*
X112834683Y-89223649D01*
X112821054Y-89218772D01*
X112807969Y-89212583D01*
X112795553Y-89205142D01*
X112783927Y-89196519D01*
X112773202Y-89186798D01*
X112763481Y-89176073D01*
X112754858Y-89164447D01*
X112747417Y-89152031D01*
X112741228Y-89138946D01*
X112736351Y-89125317D01*
X112732834Y-89111276D01*
X112730710Y-89096958D01*
X112730000Y-89082500D01*
X112730000Y-88787500D01*
X112730710Y-88773042D01*
X112732834Y-88758724D01*
X112736351Y-88744683D01*
X112741228Y-88731054D01*
X112747417Y-88717969D01*
X112754858Y-88705553D01*
X112763481Y-88693927D01*
X112773202Y-88683202D01*
X112783927Y-88673481D01*
X112795553Y-88664858D01*
X112807969Y-88657417D01*
X112821054Y-88651228D01*
X112834683Y-88646351D01*
X112848724Y-88642834D01*
X112863042Y-88640710D01*
X112877500Y-88640000D01*
X113222500Y-88640000D01*
X113236958Y-88640710D01*
G37*
G04 #@! TD.AperFunction*
G04 #@! TA.AperFunction,SMDPad,CuDef*
G36*
X113236958Y-87670710D02*
G01*
X113251276Y-87672834D01*
X113265317Y-87676351D01*
X113278946Y-87681228D01*
X113292031Y-87687417D01*
X113304447Y-87694858D01*
X113316073Y-87703481D01*
X113326798Y-87713202D01*
X113336519Y-87723927D01*
X113345142Y-87735553D01*
X113352583Y-87747969D01*
X113358772Y-87761054D01*
X113363649Y-87774683D01*
X113367166Y-87788724D01*
X113369290Y-87803042D01*
X113370000Y-87817500D01*
X113370000Y-88112500D01*
X113369290Y-88126958D01*
X113367166Y-88141276D01*
X113363649Y-88155317D01*
X113358772Y-88168946D01*
X113352583Y-88182031D01*
X113345142Y-88194447D01*
X113336519Y-88206073D01*
X113326798Y-88216798D01*
X113316073Y-88226519D01*
X113304447Y-88235142D01*
X113292031Y-88242583D01*
X113278946Y-88248772D01*
X113265317Y-88253649D01*
X113251276Y-88257166D01*
X113236958Y-88259290D01*
X113222500Y-88260000D01*
X112877500Y-88260000D01*
X112863042Y-88259290D01*
X112848724Y-88257166D01*
X112834683Y-88253649D01*
X112821054Y-88248772D01*
X112807969Y-88242583D01*
X112795553Y-88235142D01*
X112783927Y-88226519D01*
X112773202Y-88216798D01*
X112763481Y-88206073D01*
X112754858Y-88194447D01*
X112747417Y-88182031D01*
X112741228Y-88168946D01*
X112736351Y-88155317D01*
X112732834Y-88141276D01*
X112730710Y-88126958D01*
X112730000Y-88112500D01*
X112730000Y-87817500D01*
X112730710Y-87803042D01*
X112732834Y-87788724D01*
X112736351Y-87774683D01*
X112741228Y-87761054D01*
X112747417Y-87747969D01*
X112754858Y-87735553D01*
X112763481Y-87723927D01*
X112773202Y-87713202D01*
X112783927Y-87703481D01*
X112795553Y-87694858D01*
X112807969Y-87687417D01*
X112821054Y-87681228D01*
X112834683Y-87676351D01*
X112848724Y-87672834D01*
X112863042Y-87670710D01*
X112877500Y-87670000D01*
X113222500Y-87670000D01*
X113236958Y-87670710D01*
G37*
G04 #@! TD.AperFunction*
G04 #@! TA.AperFunction,SMDPad,CuDef*
G36*
X102049505Y-92751204D02*
G01*
X102073773Y-92754804D01*
X102097572Y-92760765D01*
X102120671Y-92769030D01*
X102142850Y-92779520D01*
X102163893Y-92792132D01*
X102183599Y-92806747D01*
X102201777Y-92823223D01*
X102218253Y-92841401D01*
X102232868Y-92861107D01*
X102245480Y-92882150D01*
X102255970Y-92904329D01*
X102264235Y-92927428D01*
X102270196Y-92951227D01*
X102273796Y-92975495D01*
X102275000Y-92999999D01*
X102275000Y-93700001D01*
X102273796Y-93724505D01*
X102270196Y-93748773D01*
X102264235Y-93772572D01*
X102255970Y-93795671D01*
X102245480Y-93817850D01*
X102232868Y-93838893D01*
X102218253Y-93858599D01*
X102201777Y-93876777D01*
X102183599Y-93893253D01*
X102163893Y-93907868D01*
X102142850Y-93920480D01*
X102120671Y-93930970D01*
X102097572Y-93939235D01*
X102073773Y-93945196D01*
X102049505Y-93948796D01*
X102025001Y-93950000D01*
X100724999Y-93950000D01*
X100700495Y-93948796D01*
X100676227Y-93945196D01*
X100652428Y-93939235D01*
X100629329Y-93930970D01*
X100607150Y-93920480D01*
X100586107Y-93907868D01*
X100566401Y-93893253D01*
X100548223Y-93876777D01*
X100531747Y-93858599D01*
X100517132Y-93838893D01*
X100504520Y-93817850D01*
X100494030Y-93795671D01*
X100485765Y-93772572D01*
X100479804Y-93748773D01*
X100476204Y-93724505D01*
X100475000Y-93700001D01*
X100475000Y-92999999D01*
X100476204Y-92975495D01*
X100479804Y-92951227D01*
X100485765Y-92927428D01*
X100494030Y-92904329D01*
X100504520Y-92882150D01*
X100517132Y-92861107D01*
X100531747Y-92841401D01*
X100548223Y-92823223D01*
X100566401Y-92806747D01*
X100586107Y-92792132D01*
X100607150Y-92779520D01*
X100629329Y-92769030D01*
X100652428Y-92760765D01*
X100676227Y-92754804D01*
X100700495Y-92751204D01*
X100724999Y-92750000D01*
X102025001Y-92750000D01*
X102049505Y-92751204D01*
G37*
G04 #@! TD.AperFunction*
G04 #@! TA.AperFunction,SMDPad,CuDef*
G36*
X102049505Y-87151204D02*
G01*
X102073773Y-87154804D01*
X102097572Y-87160765D01*
X102120671Y-87169030D01*
X102142850Y-87179520D01*
X102163893Y-87192132D01*
X102183599Y-87206747D01*
X102201777Y-87223223D01*
X102218253Y-87241401D01*
X102232868Y-87261107D01*
X102245480Y-87282150D01*
X102255970Y-87304329D01*
X102264235Y-87327428D01*
X102270196Y-87351227D01*
X102273796Y-87375495D01*
X102275000Y-87399999D01*
X102275000Y-88100001D01*
X102273796Y-88124505D01*
X102270196Y-88148773D01*
X102264235Y-88172572D01*
X102255970Y-88195671D01*
X102245480Y-88217850D01*
X102232868Y-88238893D01*
X102218253Y-88258599D01*
X102201777Y-88276777D01*
X102183599Y-88293253D01*
X102163893Y-88307868D01*
X102142850Y-88320480D01*
X102120671Y-88330970D01*
X102097572Y-88339235D01*
X102073773Y-88345196D01*
X102049505Y-88348796D01*
X102025001Y-88350000D01*
X100724999Y-88350000D01*
X100700495Y-88348796D01*
X100676227Y-88345196D01*
X100652428Y-88339235D01*
X100629329Y-88330970D01*
X100607150Y-88320480D01*
X100586107Y-88307868D01*
X100566401Y-88293253D01*
X100548223Y-88276777D01*
X100531747Y-88258599D01*
X100517132Y-88238893D01*
X100504520Y-88217850D01*
X100494030Y-88195671D01*
X100485765Y-88172572D01*
X100479804Y-88148773D01*
X100476204Y-88124505D01*
X100475000Y-88100001D01*
X100475000Y-87399999D01*
X100476204Y-87375495D01*
X100479804Y-87351227D01*
X100485765Y-87327428D01*
X100494030Y-87304329D01*
X100504520Y-87282150D01*
X100517132Y-87261107D01*
X100531747Y-87241401D01*
X100548223Y-87223223D01*
X100566401Y-87206747D01*
X100586107Y-87192132D01*
X100607150Y-87179520D01*
X100629329Y-87169030D01*
X100652428Y-87160765D01*
X100676227Y-87154804D01*
X100700495Y-87151204D01*
X100724999Y-87150000D01*
X102025001Y-87150000D01*
X102049505Y-87151204D01*
G37*
G04 #@! TD.AperFunction*
G04 #@! TA.AperFunction,SMDPad,CuDef*
G36*
X105889703Y-91750722D02*
G01*
X105904264Y-91752882D01*
X105918543Y-91756459D01*
X105932403Y-91761418D01*
X105945710Y-91767712D01*
X105958336Y-91775280D01*
X105970159Y-91784048D01*
X105981066Y-91793934D01*
X105990952Y-91804841D01*
X105999720Y-91816664D01*
X106007288Y-91829290D01*
X106013582Y-91842597D01*
X106018541Y-91856457D01*
X106022118Y-91870736D01*
X106024278Y-91885297D01*
X106025000Y-91900000D01*
X106025000Y-92200000D01*
X106024278Y-92214703D01*
X106022118Y-92229264D01*
X106018541Y-92243543D01*
X106013582Y-92257403D01*
X106007288Y-92270710D01*
X105999720Y-92283336D01*
X105990952Y-92295159D01*
X105981066Y-92306066D01*
X105970159Y-92315952D01*
X105958336Y-92324720D01*
X105945710Y-92332288D01*
X105932403Y-92338582D01*
X105918543Y-92343541D01*
X105904264Y-92347118D01*
X105889703Y-92349278D01*
X105875000Y-92350000D01*
X104625000Y-92350000D01*
X104610297Y-92349278D01*
X104595736Y-92347118D01*
X104581457Y-92343541D01*
X104567597Y-92338582D01*
X104554290Y-92332288D01*
X104541664Y-92324720D01*
X104529841Y-92315952D01*
X104518934Y-92306066D01*
X104509048Y-92295159D01*
X104500280Y-92283336D01*
X104492712Y-92270710D01*
X104486418Y-92257403D01*
X104481459Y-92243543D01*
X104477882Y-92229264D01*
X104475722Y-92214703D01*
X104475000Y-92200000D01*
X104475000Y-91900000D01*
X104475722Y-91885297D01*
X104477882Y-91870736D01*
X104481459Y-91856457D01*
X104486418Y-91842597D01*
X104492712Y-91829290D01*
X104500280Y-91816664D01*
X104509048Y-91804841D01*
X104518934Y-91793934D01*
X104529841Y-91784048D01*
X104541664Y-91775280D01*
X104554290Y-91767712D01*
X104567597Y-91761418D01*
X104581457Y-91756459D01*
X104595736Y-91752882D01*
X104610297Y-91750722D01*
X104625000Y-91750000D01*
X105875000Y-91750000D01*
X105889703Y-91750722D01*
G37*
G04 #@! TD.AperFunction*
G04 #@! TA.AperFunction,SMDPad,CuDef*
G36*
X105889703Y-90750722D02*
G01*
X105904264Y-90752882D01*
X105918543Y-90756459D01*
X105932403Y-90761418D01*
X105945710Y-90767712D01*
X105958336Y-90775280D01*
X105970159Y-90784048D01*
X105981066Y-90793934D01*
X105990952Y-90804841D01*
X105999720Y-90816664D01*
X106007288Y-90829290D01*
X106013582Y-90842597D01*
X106018541Y-90856457D01*
X106022118Y-90870736D01*
X106024278Y-90885297D01*
X106025000Y-90900000D01*
X106025000Y-91200000D01*
X106024278Y-91214703D01*
X106022118Y-91229264D01*
X106018541Y-91243543D01*
X106013582Y-91257403D01*
X106007288Y-91270710D01*
X105999720Y-91283336D01*
X105990952Y-91295159D01*
X105981066Y-91306066D01*
X105970159Y-91315952D01*
X105958336Y-91324720D01*
X105945710Y-91332288D01*
X105932403Y-91338582D01*
X105918543Y-91343541D01*
X105904264Y-91347118D01*
X105889703Y-91349278D01*
X105875000Y-91350000D01*
X104625000Y-91350000D01*
X104610297Y-91349278D01*
X104595736Y-91347118D01*
X104581457Y-91343541D01*
X104567597Y-91338582D01*
X104554290Y-91332288D01*
X104541664Y-91324720D01*
X104529841Y-91315952D01*
X104518934Y-91306066D01*
X104509048Y-91295159D01*
X104500280Y-91283336D01*
X104492712Y-91270710D01*
X104486418Y-91257403D01*
X104481459Y-91243543D01*
X104477882Y-91229264D01*
X104475722Y-91214703D01*
X104475000Y-91200000D01*
X104475000Y-90900000D01*
X104475722Y-90885297D01*
X104477882Y-90870736D01*
X104481459Y-90856457D01*
X104486418Y-90842597D01*
X104492712Y-90829290D01*
X104500280Y-90816664D01*
X104509048Y-90804841D01*
X104518934Y-90793934D01*
X104529841Y-90784048D01*
X104541664Y-90775280D01*
X104554290Y-90767712D01*
X104567597Y-90761418D01*
X104581457Y-90756459D01*
X104595736Y-90752882D01*
X104610297Y-90750722D01*
X104625000Y-90750000D01*
X105875000Y-90750000D01*
X105889703Y-90750722D01*
G37*
G04 #@! TD.AperFunction*
G04 #@! TA.AperFunction,SMDPad,CuDef*
G36*
X105889703Y-89750722D02*
G01*
X105904264Y-89752882D01*
X105918543Y-89756459D01*
X105932403Y-89761418D01*
X105945710Y-89767712D01*
X105958336Y-89775280D01*
X105970159Y-89784048D01*
X105981066Y-89793934D01*
X105990952Y-89804841D01*
X105999720Y-89816664D01*
X106007288Y-89829290D01*
X106013582Y-89842597D01*
X106018541Y-89856457D01*
X106022118Y-89870736D01*
X106024278Y-89885297D01*
X106025000Y-89900000D01*
X106025000Y-90200000D01*
X106024278Y-90214703D01*
X106022118Y-90229264D01*
X106018541Y-90243543D01*
X106013582Y-90257403D01*
X106007288Y-90270710D01*
X105999720Y-90283336D01*
X105990952Y-90295159D01*
X105981066Y-90306066D01*
X105970159Y-90315952D01*
X105958336Y-90324720D01*
X105945710Y-90332288D01*
X105932403Y-90338582D01*
X105918543Y-90343541D01*
X105904264Y-90347118D01*
X105889703Y-90349278D01*
X105875000Y-90350000D01*
X104625000Y-90350000D01*
X104610297Y-90349278D01*
X104595736Y-90347118D01*
X104581457Y-90343541D01*
X104567597Y-90338582D01*
X104554290Y-90332288D01*
X104541664Y-90324720D01*
X104529841Y-90315952D01*
X104518934Y-90306066D01*
X104509048Y-90295159D01*
X104500280Y-90283336D01*
X104492712Y-90270710D01*
X104486418Y-90257403D01*
X104481459Y-90243543D01*
X104477882Y-90229264D01*
X104475722Y-90214703D01*
X104475000Y-90200000D01*
X104475000Y-89900000D01*
X104475722Y-89885297D01*
X104477882Y-89870736D01*
X104481459Y-89856457D01*
X104486418Y-89842597D01*
X104492712Y-89829290D01*
X104500280Y-89816664D01*
X104509048Y-89804841D01*
X104518934Y-89793934D01*
X104529841Y-89784048D01*
X104541664Y-89775280D01*
X104554290Y-89767712D01*
X104567597Y-89761418D01*
X104581457Y-89756459D01*
X104595736Y-89752882D01*
X104610297Y-89750722D01*
X104625000Y-89750000D01*
X105875000Y-89750000D01*
X105889703Y-89750722D01*
G37*
G04 #@! TD.AperFunction*
G04 #@! TA.AperFunction,SMDPad,CuDef*
G36*
X105889703Y-88750722D02*
G01*
X105904264Y-88752882D01*
X105918543Y-88756459D01*
X105932403Y-88761418D01*
X105945710Y-88767712D01*
X105958336Y-88775280D01*
X105970159Y-88784048D01*
X105981066Y-88793934D01*
X105990952Y-88804841D01*
X105999720Y-88816664D01*
X106007288Y-88829290D01*
X106013582Y-88842597D01*
X106018541Y-88856457D01*
X106022118Y-88870736D01*
X106024278Y-88885297D01*
X106025000Y-88900000D01*
X106025000Y-89200000D01*
X106024278Y-89214703D01*
X106022118Y-89229264D01*
X106018541Y-89243543D01*
X106013582Y-89257403D01*
X106007288Y-89270710D01*
X105999720Y-89283336D01*
X105990952Y-89295159D01*
X105981066Y-89306066D01*
X105970159Y-89315952D01*
X105958336Y-89324720D01*
X105945710Y-89332288D01*
X105932403Y-89338582D01*
X105918543Y-89343541D01*
X105904264Y-89347118D01*
X105889703Y-89349278D01*
X105875000Y-89350000D01*
X104625000Y-89350000D01*
X104610297Y-89349278D01*
X104595736Y-89347118D01*
X104581457Y-89343541D01*
X104567597Y-89338582D01*
X104554290Y-89332288D01*
X104541664Y-89324720D01*
X104529841Y-89315952D01*
X104518934Y-89306066D01*
X104509048Y-89295159D01*
X104500280Y-89283336D01*
X104492712Y-89270710D01*
X104486418Y-89257403D01*
X104481459Y-89243543D01*
X104477882Y-89229264D01*
X104475722Y-89214703D01*
X104475000Y-89200000D01*
X104475000Y-88900000D01*
X104475722Y-88885297D01*
X104477882Y-88870736D01*
X104481459Y-88856457D01*
X104486418Y-88842597D01*
X104492712Y-88829290D01*
X104500280Y-88816664D01*
X104509048Y-88804841D01*
X104518934Y-88793934D01*
X104529841Y-88784048D01*
X104541664Y-88775280D01*
X104554290Y-88767712D01*
X104567597Y-88761418D01*
X104581457Y-88756459D01*
X104595736Y-88752882D01*
X104610297Y-88750722D01*
X104625000Y-88750000D01*
X105875000Y-88750000D01*
X105889703Y-88750722D01*
G37*
G04 #@! TD.AperFunction*
D14*
X121425000Y-93100000D03*
X120775000Y-93100000D03*
X120125000Y-93100000D03*
X119475000Y-93100000D03*
X118825000Y-93100000D03*
X118175000Y-93100000D03*
X117525000Y-93100000D03*
X116875000Y-93100000D03*
X116875000Y-87200000D03*
X117525000Y-87200000D03*
X118175000Y-87200000D03*
X118825000Y-87200000D03*
X119475000Y-87200000D03*
X120125000Y-87200000D03*
X120775000Y-87200000D03*
X121425000Y-87200000D03*
G04 #@! TA.AperFunction,SMDPad,CuDef*
D10*
G36*
X120774505Y-96051204D02*
G01*
X120798773Y-96054804D01*
X120822572Y-96060765D01*
X120845671Y-96069030D01*
X120867850Y-96079520D01*
X120888893Y-96092132D01*
X120908599Y-96106747D01*
X120926777Y-96123223D01*
X120943253Y-96141401D01*
X120957868Y-96161107D01*
X120970480Y-96182150D01*
X120980970Y-96204329D01*
X120989235Y-96227428D01*
X120995196Y-96251227D01*
X120998796Y-96275495D01*
X121000000Y-96299999D01*
X121000000Y-97200001D01*
X120998796Y-97224505D01*
X120995196Y-97248773D01*
X120989235Y-97272572D01*
X120980970Y-97295671D01*
X120970480Y-97317850D01*
X120957868Y-97338893D01*
X120943253Y-97358599D01*
X120926777Y-97376777D01*
X120908599Y-97393253D01*
X120888893Y-97407868D01*
X120867850Y-97420480D01*
X120845671Y-97430970D01*
X120822572Y-97439235D01*
X120798773Y-97445196D01*
X120774505Y-97448796D01*
X120750001Y-97450000D01*
X120099999Y-97450000D01*
X120075495Y-97448796D01*
X120051227Y-97445196D01*
X120027428Y-97439235D01*
X120004329Y-97430970D01*
X119982150Y-97420480D01*
X119961107Y-97407868D01*
X119941401Y-97393253D01*
X119923223Y-97376777D01*
X119906747Y-97358599D01*
X119892132Y-97338893D01*
X119879520Y-97317850D01*
X119869030Y-97295671D01*
X119860765Y-97272572D01*
X119854804Y-97248773D01*
X119851204Y-97224505D01*
X119850000Y-97200001D01*
X119850000Y-96299999D01*
X119851204Y-96275495D01*
X119854804Y-96251227D01*
X119860765Y-96227428D01*
X119869030Y-96204329D01*
X119879520Y-96182150D01*
X119892132Y-96161107D01*
X119906747Y-96141401D01*
X119923223Y-96123223D01*
X119941401Y-96106747D01*
X119961107Y-96092132D01*
X119982150Y-96079520D01*
X120004329Y-96069030D01*
X120027428Y-96060765D01*
X120051227Y-96054804D01*
X120075495Y-96051204D01*
X120099999Y-96050000D01*
X120750001Y-96050000D01*
X120774505Y-96051204D01*
G37*
G04 #@! TD.AperFunction*
G04 #@! TA.AperFunction,SMDPad,CuDef*
G36*
X122824505Y-96051204D02*
G01*
X122848773Y-96054804D01*
X122872572Y-96060765D01*
X122895671Y-96069030D01*
X122917850Y-96079520D01*
X122938893Y-96092132D01*
X122958599Y-96106747D01*
X122976777Y-96123223D01*
X122993253Y-96141401D01*
X123007868Y-96161107D01*
X123020480Y-96182150D01*
X123030970Y-96204329D01*
X123039235Y-96227428D01*
X123045196Y-96251227D01*
X123048796Y-96275495D01*
X123050000Y-96299999D01*
X123050000Y-97200001D01*
X123048796Y-97224505D01*
X123045196Y-97248773D01*
X123039235Y-97272572D01*
X123030970Y-97295671D01*
X123020480Y-97317850D01*
X123007868Y-97338893D01*
X122993253Y-97358599D01*
X122976777Y-97376777D01*
X122958599Y-97393253D01*
X122938893Y-97407868D01*
X122917850Y-97420480D01*
X122895671Y-97430970D01*
X122872572Y-97439235D01*
X122848773Y-97445196D01*
X122824505Y-97448796D01*
X122800001Y-97450000D01*
X122149999Y-97450000D01*
X122125495Y-97448796D01*
X122101227Y-97445196D01*
X122077428Y-97439235D01*
X122054329Y-97430970D01*
X122032150Y-97420480D01*
X122011107Y-97407868D01*
X121991401Y-97393253D01*
X121973223Y-97376777D01*
X121956747Y-97358599D01*
X121942132Y-97338893D01*
X121929520Y-97317850D01*
X121919030Y-97295671D01*
X121910765Y-97272572D01*
X121904804Y-97248773D01*
X121901204Y-97224505D01*
X121900000Y-97200001D01*
X121900000Y-96299999D01*
X121901204Y-96275495D01*
X121904804Y-96251227D01*
X121910765Y-96227428D01*
X121919030Y-96204329D01*
X121929520Y-96182150D01*
X121942132Y-96161107D01*
X121956747Y-96141401D01*
X121973223Y-96123223D01*
X121991401Y-96106747D01*
X122011107Y-96092132D01*
X122032150Y-96079520D01*
X122054329Y-96069030D01*
X122077428Y-96060765D01*
X122101227Y-96054804D01*
X122125495Y-96051204D01*
X122149999Y-96050000D01*
X122800001Y-96050000D01*
X122824505Y-96051204D01*
G37*
G04 #@! TD.AperFunction*
D15*
X122250000Y-94950000D03*
X118750000Y-89250000D03*
X120750000Y-90250000D03*
X112050000Y-93550000D03*
X113050000Y-92050000D03*
X127250000Y-86150000D03*
X132050000Y-92200000D03*
X118150000Y-94550000D03*
X108350000Y-94050000D03*
X117201808Y-94501808D03*
X110650000Y-93350000D03*
X127250000Y-89850000D03*
X135450000Y-91250000D03*
X132000000Y-91200000D03*
X130200000Y-89850000D03*
X115625000Y-90975000D03*
X115925000Y-87650000D03*
X120968090Y-85773551D03*
X121950000Y-85850000D03*
X120100000Y-91750000D03*
X127150000Y-96050000D03*
X127150000Y-93050000D03*
X130850010Y-93050000D03*
X129600010Y-93050000D03*
D16*
X118825000Y-86200000D02*
X118800000Y-86175000D01*
X118825000Y-87200000D02*
X118825000Y-86200000D01*
X118800000Y-86175000D02*
X118800000Y-85925000D01*
X118800000Y-85925000D02*
X118900000Y-85825000D01*
X118900000Y-85825000D02*
X119350000Y-85825000D01*
X119475000Y-85950000D02*
X119475000Y-87200000D01*
X119350000Y-85825000D02*
X119475000Y-85950000D01*
X111750000Y-92593000D02*
X112043000Y-92300000D01*
X112043000Y-93543000D02*
X112050000Y-93550000D01*
X112043000Y-92300000D02*
X112043000Y-93543000D01*
X129950000Y-88850000D02*
X127250000Y-86150000D01*
X118765000Y-85690000D02*
X118765000Y-84550000D01*
X118900000Y-85825000D02*
X118765000Y-85690000D01*
X122250000Y-94950000D02*
X121135000Y-94950000D01*
X113050000Y-91020000D02*
X113050000Y-92050000D01*
X132100000Y-92250000D02*
X132050000Y-92200000D01*
X132250000Y-92000000D02*
X132050000Y-92200000D01*
X133750000Y-92000000D02*
X132250000Y-92000000D01*
X107300000Y-90050000D02*
X107950000Y-89400000D01*
X105250000Y-90050000D02*
X107300000Y-90050000D01*
X107950000Y-89400000D02*
X109100000Y-89400000D01*
X109550000Y-88950000D02*
X110680000Y-88950000D01*
X109100000Y-89400000D02*
X109550000Y-88950000D01*
X118175000Y-94525000D02*
X118150000Y-94550000D01*
X118175000Y-93100000D02*
X118175000Y-94525000D01*
X108350000Y-94050000D02*
X104750000Y-94050000D01*
X104750000Y-94050000D02*
X103450000Y-92750000D01*
X104475000Y-89050000D02*
X105250000Y-89050000D01*
X103450000Y-90075000D02*
X104475000Y-89050000D01*
X103450000Y-92750000D02*
X103450000Y-90075000D01*
X107202408Y-88100000D02*
X107950000Y-88100000D01*
X106025000Y-89050000D02*
X106975000Y-88100000D01*
X106975000Y-88100000D02*
X107202408Y-88100000D01*
X105250000Y-89050000D02*
X106025000Y-89050000D01*
X117525000Y-93100000D02*
X117525000Y-94178616D01*
X117525000Y-94178616D02*
X117201808Y-94501808D01*
X105250000Y-92050000D02*
X106100000Y-92900000D01*
X106100000Y-92900000D02*
X107950000Y-92900000D01*
X108400000Y-93350000D02*
X107950000Y-92900000D01*
X110650000Y-93350000D02*
X108400000Y-93350000D01*
X110683000Y-93317000D02*
X110650000Y-93350000D01*
X110683000Y-92300000D02*
X110683000Y-93317000D01*
X105300000Y-91000000D02*
X105250000Y-91050000D01*
X107400000Y-91050000D02*
X107950000Y-91600000D01*
X105250000Y-91050000D02*
X107400000Y-91050000D01*
X109500000Y-90050000D02*
X110665000Y-90050000D01*
X107950000Y-91600000D02*
X109500000Y-90050000D01*
X118825000Y-95675000D02*
X118750000Y-95750000D01*
X118825000Y-93100000D02*
X118825000Y-95675000D01*
X119750000Y-96750000D02*
X118750000Y-95750000D01*
X120425000Y-96750000D02*
X119750000Y-96750000D01*
X119475000Y-93100000D02*
X119375001Y-93199999D01*
X127250000Y-89850000D02*
X127250000Y-87340000D01*
X124460000Y-84550000D02*
X127250000Y-87340000D01*
X122035000Y-84550000D02*
X124460000Y-84550000D01*
X119475000Y-94260000D02*
X120165000Y-94950000D01*
X119475000Y-93100000D02*
X119475000Y-94260000D01*
X122475000Y-96050000D02*
X122475000Y-96750000D01*
X122149990Y-95724990D02*
X122475000Y-96050000D01*
X120619990Y-95724990D02*
X122149990Y-95724990D01*
X120165000Y-95270000D02*
X120619990Y-95724990D01*
X120165000Y-94950000D02*
X120165000Y-95270000D01*
X122475000Y-97450000D02*
X122475000Y-96750000D01*
X130400000Y-97375000D02*
X130400000Y-96750000D01*
X130400000Y-96750000D02*
X131950000Y-96750000D01*
X122475000Y-96750000D02*
X130400000Y-96750000D01*
X132050000Y-96850000D02*
X131950000Y-96750000D01*
X132050000Y-97375000D02*
X132050000Y-96850000D01*
X132050000Y-97375000D02*
X135400000Y-94025000D01*
X135400000Y-91300000D02*
X135450000Y-91250000D01*
X135400000Y-94025000D02*
X135400000Y-91300000D01*
X133700000Y-91200000D02*
X133750000Y-91250000D01*
X132000000Y-91200000D02*
X133700000Y-91200000D01*
X127250000Y-89850000D02*
X130200000Y-89850000D01*
X132200000Y-91000000D02*
X132000000Y-91200000D01*
X133750000Y-91000000D02*
X132200000Y-91000000D01*
X117525000Y-88200000D02*
X117525000Y-87200000D01*
X114410000Y-88950000D02*
X114450000Y-88990000D01*
X111650000Y-88950000D02*
X114410000Y-88950000D01*
X116735000Y-88990000D02*
X114450000Y-88990000D01*
X117525000Y-88200000D02*
X116735000Y-88990000D01*
X114360000Y-90050000D02*
X114450000Y-89960000D01*
X111635000Y-90050000D02*
X114360000Y-90050000D01*
X118175000Y-88200000D02*
X118175000Y-87200000D01*
X116415000Y-89960000D02*
X118175000Y-88200000D01*
X114450000Y-89960000D02*
X116415000Y-89960000D01*
X115350000Y-91250000D02*
X115625000Y-90975000D01*
X116425000Y-87650000D02*
X116875000Y-87200000D01*
X115925000Y-87650000D02*
X116425000Y-87650000D01*
X115350000Y-92490000D02*
X115350000Y-91950000D01*
X115350000Y-91950000D02*
X115350000Y-91250000D01*
X115350000Y-92100000D02*
X115350000Y-91950000D01*
X116125000Y-93850000D02*
X116875000Y-93100000D01*
X115350000Y-93850000D02*
X116125000Y-93850000D01*
X115350000Y-93850000D02*
X115350000Y-93460000D01*
X120030000Y-84550000D02*
X119735000Y-84550000D01*
X120125000Y-84645000D02*
X120030000Y-84550000D01*
X120125000Y-87200000D02*
X120125000Y-84645000D01*
X121065000Y-84550000D02*
X119735000Y-84550000D01*
X120780000Y-87205000D02*
X120775000Y-87200000D01*
X120775000Y-87200000D02*
X120775000Y-88200000D01*
X120775000Y-85966641D02*
X120968090Y-85773551D01*
X120775000Y-87200000D02*
X120775000Y-85966641D01*
X121950000Y-85850000D02*
X121650001Y-86149999D01*
X121425000Y-86200000D02*
X121425000Y-87200000D01*
X121475001Y-86149999D02*
X121425000Y-86200000D01*
X121650001Y-86149999D02*
X121475001Y-86149999D01*
X120125000Y-91775000D02*
X120100000Y-91750000D01*
X120125000Y-93100000D02*
X120125000Y-91775000D01*
X135650001Y-96563189D02*
X134563190Y-97650000D01*
X121900000Y-93100000D02*
X124850000Y-96050000D01*
X124850000Y-96050000D02*
X127150000Y-96050000D01*
X121425000Y-93100000D02*
X121900000Y-93100000D01*
X130400000Y-95625000D02*
X130400000Y-94500000D01*
X130225010Y-90774990D02*
X130225010Y-94224990D01*
X132000000Y-89000000D02*
X130225010Y-90774990D01*
X133750000Y-89000000D02*
X132000000Y-89000000D01*
X130400000Y-95100000D02*
X130400000Y-95625000D01*
X130150000Y-94850000D02*
X130400000Y-95100000D01*
X128150000Y-94850000D02*
X130150000Y-94850000D01*
X130400000Y-94399980D02*
X130400000Y-95625000D01*
X130225010Y-94224990D02*
X130400000Y-94399980D01*
X120775000Y-92189998D02*
X121114998Y-91850000D01*
X120775000Y-93100000D02*
X120775000Y-92189998D01*
X121114998Y-91850000D02*
X122050000Y-91850000D01*
X123250000Y-93050000D02*
X127150000Y-93050000D01*
X122050000Y-91850000D02*
X123250000Y-93050000D01*
X130850010Y-90875010D02*
X130850010Y-93050000D01*
X131475020Y-90250000D02*
X130850010Y-90875010D01*
X132050000Y-94249990D02*
X132050000Y-95625000D01*
X130850010Y-93050000D02*
X132050000Y-94249990D01*
X131725020Y-90000000D02*
X130850010Y-90875010D01*
X133750000Y-90000000D02*
X131725020Y-90000000D01*
X128900000Y-93050000D02*
X129600010Y-93050000D01*
X127150000Y-94880000D02*
X127180000Y-94850000D01*
X127150000Y-96050000D02*
X127150000Y-94880000D01*
X127930000Y-93050000D02*
X127150000Y-93050000D01*
D17*
G36*
X110081060Y-90875679D02*
G01*
X110216875Y-90948274D01*
X110364243Y-90992977D01*
X110517500Y-91008072D01*
X110812500Y-91008072D01*
X110965757Y-90992977D01*
X111113125Y-90948274D01*
X111150000Y-90928564D01*
X111186875Y-90948274D01*
X111334243Y-90992977D01*
X111487500Y-91008072D01*
X111782500Y-91008072D01*
X111935757Y-90992977D01*
X112083125Y-90948274D01*
X112218940Y-90875679D01*
X112228546Y-90867796D01*
X112253750Y-90893000D01*
X112520237Y-90893000D01*
X112576875Y-90923274D01*
X112724243Y-90967977D01*
X112877500Y-90983072D01*
X113222500Y-90983072D01*
X113375757Y-90967977D01*
X113523125Y-90923274D01*
X113579763Y-90893000D01*
X113846250Y-90893000D01*
X113929250Y-90810000D01*
X113933333Y-90810000D01*
X113976875Y-90833274D01*
X114124243Y-90877977D01*
X114277500Y-90893072D01*
X114622500Y-90893072D01*
X114682169Y-90887195D01*
X114644454Y-90957754D01*
X114635788Y-90986324D01*
X114600997Y-91101014D01*
X114590000Y-91212667D01*
X114590000Y-91212678D01*
X114586324Y-91250000D01*
X114590000Y-91287322D01*
X114590000Y-91826030D01*
X114524321Y-91906060D01*
X114451726Y-92041875D01*
X114407023Y-92189243D01*
X114391928Y-92342500D01*
X114391928Y-92637500D01*
X114407023Y-92790757D01*
X114451726Y-92938125D01*
X114471436Y-92975000D01*
X114451726Y-93011875D01*
X114407023Y-93159243D01*
X114391928Y-93312500D01*
X114391928Y-93607500D01*
X114407023Y-93760757D01*
X114451726Y-93908125D01*
X114524321Y-94043940D01*
X114622017Y-94162983D01*
X114681734Y-94211991D01*
X114715026Y-94274276D01*
X114778003Y-94351014D01*
X114809999Y-94390001D01*
X114925724Y-94484974D01*
X115057753Y-94555546D01*
X115201014Y-94599003D01*
X115350000Y-94613677D01*
X115387333Y-94610000D01*
X116087678Y-94610000D01*
X116125000Y-94613676D01*
X116162322Y-94610000D01*
X116162333Y-94610000D01*
X116267942Y-94599598D01*
X116302740Y-94774537D01*
X116373222Y-94944697D01*
X116475546Y-95097836D01*
X116605780Y-95228070D01*
X116758919Y-95330394D01*
X116852904Y-95369324D01*
X116846928Y-95430000D01*
X116850000Y-95464250D01*
X117008750Y-95623000D01*
X117653000Y-95623000D01*
X117653000Y-95603000D01*
X117816928Y-95603000D01*
X117816928Y-95922500D01*
X117832023Y-96075757D01*
X117876726Y-96223125D01*
X117907000Y-96279763D01*
X117907000Y-96546250D01*
X118065750Y-96705000D01*
X118075000Y-96708072D01*
X118199482Y-96695812D01*
X118319180Y-96659502D01*
X118326316Y-96655688D01*
X118449243Y-96692977D01*
X118602500Y-96708072D01*
X118633271Y-96708072D01*
X119186200Y-97261002D01*
X119209999Y-97290001D01*
X119221741Y-97299638D01*
X119228992Y-97373255D01*
X119279528Y-97539851D01*
X119361595Y-97693387D01*
X119472038Y-97827962D01*
X119606613Y-97938405D01*
X119760149Y-98020472D01*
X119926745Y-98071008D01*
X120099999Y-98088072D01*
X120750001Y-98088072D01*
X120923255Y-98071008D01*
X121089851Y-98020472D01*
X121243387Y-97938405D01*
X121377962Y-97827962D01*
X121450000Y-97740184D01*
X121522038Y-97827962D01*
X121656613Y-97938405D01*
X121810149Y-98020472D01*
X121976745Y-98071008D01*
X122041475Y-98077383D01*
X122050724Y-98084974D01*
X122182753Y-98155546D01*
X122326014Y-98199003D01*
X122475000Y-98213677D01*
X122623985Y-98199003D01*
X122767246Y-98155546D01*
X122899275Y-98084974D01*
X122908524Y-98077383D01*
X122973255Y-98071008D01*
X123139851Y-98020472D01*
X123293387Y-97938405D01*
X123427962Y-97827962D01*
X123538405Y-97693387D01*
X123620472Y-97539851D01*
X123629527Y-97510000D01*
X129286928Y-97510000D01*
X129286928Y-97662500D01*
X129303752Y-97833316D01*
X129353577Y-97997567D01*
X129434488Y-98148942D01*
X129543377Y-98281623D01*
X129676058Y-98390512D01*
X129827433Y-98471423D01*
X129991684Y-98521248D01*
X130162500Y-98538072D01*
X130637500Y-98538072D01*
X130808316Y-98521248D01*
X130972567Y-98471423D01*
X131123942Y-98390512D01*
X131225000Y-98307575D01*
X131326058Y-98390512D01*
X131477433Y-98471423D01*
X131641684Y-98521248D01*
X131812500Y-98538072D01*
X132287500Y-98538072D01*
X132458316Y-98521248D01*
X132622567Y-98471423D01*
X132773942Y-98390512D01*
X132906623Y-98281623D01*
X133015512Y-98148942D01*
X133096423Y-97997567D01*
X133146248Y-97833316D01*
X133163072Y-97662500D01*
X133163072Y-97336729D01*
X133174221Y-97325580D01*
X133273948Y-97826939D01*
X133487656Y-98342876D01*
X133797912Y-98807207D01*
X134192793Y-99202088D01*
X134324363Y-99290000D01*
X104675637Y-99290000D01*
X104807207Y-99202088D01*
X105202088Y-98807207D01*
X105512344Y-98342876D01*
X105726052Y-97826939D01*
X105835000Y-97279223D01*
X105835000Y-96720777D01*
X105726052Y-96173061D01*
X105683363Y-96070000D01*
X116846928Y-96070000D01*
X116859188Y-96194482D01*
X116895498Y-96314180D01*
X116954463Y-96424494D01*
X117033815Y-96521185D01*
X117130506Y-96600537D01*
X117240820Y-96659502D01*
X117360518Y-96695812D01*
X117485000Y-96708072D01*
X117494250Y-96705000D01*
X117653000Y-96546250D01*
X117653000Y-95877000D01*
X117008750Y-95877000D01*
X116850000Y-96035750D01*
X116846928Y-96070000D01*
X105683363Y-96070000D01*
X105512344Y-95657124D01*
X105202088Y-95192793D01*
X104819295Y-94810000D01*
X107804465Y-94810000D01*
X107907111Y-94878586D01*
X108077271Y-94949068D01*
X108257911Y-94985000D01*
X108442089Y-94985000D01*
X108622729Y-94949068D01*
X108792889Y-94878586D01*
X108946028Y-94776262D01*
X109076262Y-94646028D01*
X109178586Y-94492889D01*
X109249068Y-94322729D01*
X109285000Y-94142089D01*
X109285000Y-94110000D01*
X110104465Y-94110000D01*
X110207111Y-94178586D01*
X110377271Y-94249068D01*
X110557911Y-94285000D01*
X110742089Y-94285000D01*
X110922729Y-94249068D01*
X111092889Y-94178586D01*
X111246028Y-94076262D01*
X111376262Y-93946028D01*
X111478586Y-93792889D01*
X111549068Y-93622729D01*
X111585000Y-93442089D01*
X111585000Y-93257911D01*
X111549068Y-93077271D01*
X111526000Y-93021579D01*
X111526000Y-92829763D01*
X111556274Y-92773125D01*
X111600977Y-92625757D01*
X111616072Y-92472500D01*
X111616072Y-92427000D01*
X111780000Y-92427000D01*
X111780000Y-93096250D01*
X111938750Y-93255000D01*
X111948000Y-93258072D01*
X112072482Y-93245812D01*
X112192180Y-93209502D01*
X112302494Y-93150537D01*
X112399185Y-93071185D01*
X112478537Y-92974494D01*
X112537502Y-92864180D01*
X112573812Y-92744482D01*
X112586072Y-92620000D01*
X112583000Y-92585750D01*
X112424250Y-92427000D01*
X111780000Y-92427000D01*
X111616072Y-92427000D01*
X111616072Y-92127500D01*
X111600977Y-91974243D01*
X111556274Y-91826875D01*
X111526000Y-91770237D01*
X111526000Y-91503750D01*
X111780000Y-91503750D01*
X111780000Y-92173000D01*
X112424250Y-92173000D01*
X112583000Y-92014250D01*
X112586072Y-91980000D01*
X112581495Y-91933525D01*
X112605518Y-91940812D01*
X112730000Y-91953072D01*
X112764250Y-91950000D01*
X112923000Y-91791250D01*
X112923000Y-91147000D01*
X113177000Y-91147000D01*
X113177000Y-91791250D01*
X113335750Y-91950000D01*
X113370000Y-91953072D01*
X113494482Y-91940812D01*
X113614180Y-91904502D01*
X113724494Y-91845537D01*
X113821185Y-91766185D01*
X113900537Y-91669494D01*
X113959502Y-91559180D01*
X113995812Y-91439482D01*
X114008072Y-91315000D01*
X114005000Y-91305750D01*
X113846250Y-91147000D01*
X113177000Y-91147000D01*
X112923000Y-91147000D01*
X112253750Y-91147000D01*
X112095000Y-91305750D01*
X112091928Y-91315000D01*
X112096505Y-91361475D01*
X112072482Y-91354188D01*
X111948000Y-91341928D01*
X111938750Y-91345000D01*
X111780000Y-91503750D01*
X111526000Y-91503750D01*
X111367250Y-91345000D01*
X111358000Y-91341928D01*
X111233518Y-91354188D01*
X111113820Y-91390498D01*
X111106684Y-91394312D01*
X110983757Y-91357023D01*
X110830500Y-91341928D01*
X110535500Y-91341928D01*
X110382243Y-91357023D01*
X110234875Y-91401726D01*
X110099060Y-91474321D01*
X109980017Y-91572017D01*
X109882321Y-91691060D01*
X109809726Y-91826875D01*
X109765023Y-91974243D01*
X109749928Y-92127500D01*
X109749928Y-92472500D01*
X109761501Y-92590000D01*
X109338072Y-92590000D01*
X109338072Y-92400000D01*
X109325812Y-92275518D01*
X109318071Y-92250000D01*
X109325812Y-92224482D01*
X109338072Y-92100000D01*
X109338072Y-91600000D01*
X109335664Y-91575550D01*
X109335664Y-91550991D01*
X109323404Y-91426510D01*
X109304282Y-91330377D01*
X109301988Y-91322814D01*
X109814802Y-90810000D01*
X110001030Y-90810000D01*
X110081060Y-90875679D01*
G37*
X110081060Y-90875679D02*
X110216875Y-90948274D01*
X110364243Y-90992977D01*
X110517500Y-91008072D01*
X110812500Y-91008072D01*
X110965757Y-90992977D01*
X111113125Y-90948274D01*
X111150000Y-90928564D01*
X111186875Y-90948274D01*
X111334243Y-90992977D01*
X111487500Y-91008072D01*
X111782500Y-91008072D01*
X111935757Y-90992977D01*
X112083125Y-90948274D01*
X112218940Y-90875679D01*
X112228546Y-90867796D01*
X112253750Y-90893000D01*
X112520237Y-90893000D01*
X112576875Y-90923274D01*
X112724243Y-90967977D01*
X112877500Y-90983072D01*
X113222500Y-90983072D01*
X113375757Y-90967977D01*
X113523125Y-90923274D01*
X113579763Y-90893000D01*
X113846250Y-90893000D01*
X113929250Y-90810000D01*
X113933333Y-90810000D01*
X113976875Y-90833274D01*
X114124243Y-90877977D01*
X114277500Y-90893072D01*
X114622500Y-90893072D01*
X114682169Y-90887195D01*
X114644454Y-90957754D01*
X114635788Y-90986324D01*
X114600997Y-91101014D01*
X114590000Y-91212667D01*
X114590000Y-91212678D01*
X114586324Y-91250000D01*
X114590000Y-91287322D01*
X114590000Y-91826030D01*
X114524321Y-91906060D01*
X114451726Y-92041875D01*
X114407023Y-92189243D01*
X114391928Y-92342500D01*
X114391928Y-92637500D01*
X114407023Y-92790757D01*
X114451726Y-92938125D01*
X114471436Y-92975000D01*
X114451726Y-93011875D01*
X114407023Y-93159243D01*
X114391928Y-93312500D01*
X114391928Y-93607500D01*
X114407023Y-93760757D01*
X114451726Y-93908125D01*
X114524321Y-94043940D01*
X114622017Y-94162983D01*
X114681734Y-94211991D01*
X114715026Y-94274276D01*
X114778003Y-94351014D01*
X114809999Y-94390001D01*
X114925724Y-94484974D01*
X115057753Y-94555546D01*
X115201014Y-94599003D01*
X115350000Y-94613677D01*
X115387333Y-94610000D01*
X116087678Y-94610000D01*
X116125000Y-94613676D01*
X116162322Y-94610000D01*
X116162333Y-94610000D01*
X116267942Y-94599598D01*
X116302740Y-94774537D01*
X116373222Y-94944697D01*
X116475546Y-95097836D01*
X116605780Y-95228070D01*
X116758919Y-95330394D01*
X116852904Y-95369324D01*
X116846928Y-95430000D01*
X116850000Y-95464250D01*
X117008750Y-95623000D01*
X117653000Y-95623000D01*
X117653000Y-95603000D01*
X117816928Y-95603000D01*
X117816928Y-95922500D01*
X117832023Y-96075757D01*
X117876726Y-96223125D01*
X117907000Y-96279763D01*
X117907000Y-96546250D01*
X118065750Y-96705000D01*
X118075000Y-96708072D01*
X118199482Y-96695812D01*
X118319180Y-96659502D01*
X118326316Y-96655688D01*
X118449243Y-96692977D01*
X118602500Y-96708072D01*
X118633271Y-96708072D01*
X119186200Y-97261002D01*
X119209999Y-97290001D01*
X119221741Y-97299638D01*
X119228992Y-97373255D01*
X119279528Y-97539851D01*
X119361595Y-97693387D01*
X119472038Y-97827962D01*
X119606613Y-97938405D01*
X119760149Y-98020472D01*
X119926745Y-98071008D01*
X120099999Y-98088072D01*
X120750001Y-98088072D01*
X120923255Y-98071008D01*
X121089851Y-98020472D01*
X121243387Y-97938405D01*
X121377962Y-97827962D01*
X121450000Y-97740184D01*
X121522038Y-97827962D01*
X121656613Y-97938405D01*
X121810149Y-98020472D01*
X121976745Y-98071008D01*
X122041475Y-98077383D01*
X122050724Y-98084974D01*
X122182753Y-98155546D01*
X122326014Y-98199003D01*
X122475000Y-98213677D01*
X122623985Y-98199003D01*
X122767246Y-98155546D01*
X122899275Y-98084974D01*
X122908524Y-98077383D01*
X122973255Y-98071008D01*
X123139851Y-98020472D01*
X123293387Y-97938405D01*
X123427962Y-97827962D01*
X123538405Y-97693387D01*
X123620472Y-97539851D01*
X123629527Y-97510000D01*
X129286928Y-97510000D01*
X129286928Y-97662500D01*
X129303752Y-97833316D01*
X129353577Y-97997567D01*
X129434488Y-98148942D01*
X129543377Y-98281623D01*
X129676058Y-98390512D01*
X129827433Y-98471423D01*
X129991684Y-98521248D01*
X130162500Y-98538072D01*
X130637500Y-98538072D01*
X130808316Y-98521248D01*
X130972567Y-98471423D01*
X131123942Y-98390512D01*
X131225000Y-98307575D01*
X131326058Y-98390512D01*
X131477433Y-98471423D01*
X131641684Y-98521248D01*
X131812500Y-98538072D01*
X132287500Y-98538072D01*
X132458316Y-98521248D01*
X132622567Y-98471423D01*
X132773942Y-98390512D01*
X132906623Y-98281623D01*
X133015512Y-98148942D01*
X133096423Y-97997567D01*
X133146248Y-97833316D01*
X133163072Y-97662500D01*
X133163072Y-97336729D01*
X133174221Y-97325580D01*
X133273948Y-97826939D01*
X133487656Y-98342876D01*
X133797912Y-98807207D01*
X134192793Y-99202088D01*
X134324363Y-99290000D01*
X104675637Y-99290000D01*
X104807207Y-99202088D01*
X105202088Y-98807207D01*
X105512344Y-98342876D01*
X105726052Y-97826939D01*
X105835000Y-97279223D01*
X105835000Y-96720777D01*
X105726052Y-96173061D01*
X105683363Y-96070000D01*
X116846928Y-96070000D01*
X116859188Y-96194482D01*
X116895498Y-96314180D01*
X116954463Y-96424494D01*
X117033815Y-96521185D01*
X117130506Y-96600537D01*
X117240820Y-96659502D01*
X117360518Y-96695812D01*
X117485000Y-96708072D01*
X117494250Y-96705000D01*
X117653000Y-96546250D01*
X117653000Y-95877000D01*
X117008750Y-95877000D01*
X116850000Y-96035750D01*
X116846928Y-96070000D01*
X105683363Y-96070000D01*
X105512344Y-95657124D01*
X105202088Y-95192793D01*
X104819295Y-94810000D01*
X107804465Y-94810000D01*
X107907111Y-94878586D01*
X108077271Y-94949068D01*
X108257911Y-94985000D01*
X108442089Y-94985000D01*
X108622729Y-94949068D01*
X108792889Y-94878586D01*
X108946028Y-94776262D01*
X109076262Y-94646028D01*
X109178586Y-94492889D01*
X109249068Y-94322729D01*
X109285000Y-94142089D01*
X109285000Y-94110000D01*
X110104465Y-94110000D01*
X110207111Y-94178586D01*
X110377271Y-94249068D01*
X110557911Y-94285000D01*
X110742089Y-94285000D01*
X110922729Y-94249068D01*
X111092889Y-94178586D01*
X111246028Y-94076262D01*
X111376262Y-93946028D01*
X111478586Y-93792889D01*
X111549068Y-93622729D01*
X111585000Y-93442089D01*
X111585000Y-93257911D01*
X111549068Y-93077271D01*
X111526000Y-93021579D01*
X111526000Y-92829763D01*
X111556274Y-92773125D01*
X111600977Y-92625757D01*
X111616072Y-92472500D01*
X111616072Y-92427000D01*
X111780000Y-92427000D01*
X111780000Y-93096250D01*
X111938750Y-93255000D01*
X111948000Y-93258072D01*
X112072482Y-93245812D01*
X112192180Y-93209502D01*
X112302494Y-93150537D01*
X112399185Y-93071185D01*
X112478537Y-92974494D01*
X112537502Y-92864180D01*
X112573812Y-92744482D01*
X112586072Y-92620000D01*
X112583000Y-92585750D01*
X112424250Y-92427000D01*
X111780000Y-92427000D01*
X111616072Y-92427000D01*
X111616072Y-92127500D01*
X111600977Y-91974243D01*
X111556274Y-91826875D01*
X111526000Y-91770237D01*
X111526000Y-91503750D01*
X111780000Y-91503750D01*
X111780000Y-92173000D01*
X112424250Y-92173000D01*
X112583000Y-92014250D01*
X112586072Y-91980000D01*
X112581495Y-91933525D01*
X112605518Y-91940812D01*
X112730000Y-91953072D01*
X112764250Y-91950000D01*
X112923000Y-91791250D01*
X112923000Y-91147000D01*
X113177000Y-91147000D01*
X113177000Y-91791250D01*
X113335750Y-91950000D01*
X113370000Y-91953072D01*
X113494482Y-91940812D01*
X113614180Y-91904502D01*
X113724494Y-91845537D01*
X113821185Y-91766185D01*
X113900537Y-91669494D01*
X113959502Y-91559180D01*
X113995812Y-91439482D01*
X114008072Y-91315000D01*
X114005000Y-91305750D01*
X113846250Y-91147000D01*
X113177000Y-91147000D01*
X112923000Y-91147000D01*
X112253750Y-91147000D01*
X112095000Y-91305750D01*
X112091928Y-91315000D01*
X112096505Y-91361475D01*
X112072482Y-91354188D01*
X111948000Y-91341928D01*
X111938750Y-91345000D01*
X111780000Y-91503750D01*
X111526000Y-91503750D01*
X111367250Y-91345000D01*
X111358000Y-91341928D01*
X111233518Y-91354188D01*
X111113820Y-91390498D01*
X111106684Y-91394312D01*
X110983757Y-91357023D01*
X110830500Y-91341928D01*
X110535500Y-91341928D01*
X110382243Y-91357023D01*
X110234875Y-91401726D01*
X110099060Y-91474321D01*
X109980017Y-91572017D01*
X109882321Y-91691060D01*
X109809726Y-91826875D01*
X109765023Y-91974243D01*
X109749928Y-92127500D01*
X109749928Y-92472500D01*
X109761501Y-92590000D01*
X109338072Y-92590000D01*
X109338072Y-92400000D01*
X109325812Y-92275518D01*
X109318071Y-92250000D01*
X109325812Y-92224482D01*
X109338072Y-92100000D01*
X109338072Y-91600000D01*
X109335664Y-91575550D01*
X109335664Y-91550991D01*
X109323404Y-91426510D01*
X109304282Y-91330377D01*
X109301988Y-91322814D01*
X109814802Y-90810000D01*
X110001030Y-90810000D01*
X110081060Y-90875679D01*
G36*
X123279222Y-95554024D02*
G01*
X123139851Y-95479528D01*
X122973255Y-95428992D01*
X122923935Y-95424134D01*
X122713794Y-95213993D01*
X122689991Y-95184989D01*
X122574266Y-95090016D01*
X122442237Y-95019444D01*
X122298976Y-94975987D01*
X122187323Y-94964990D01*
X122187312Y-94964990D01*
X122149990Y-94961314D01*
X122112668Y-94964990D01*
X121098072Y-94964990D01*
X121098072Y-94803000D01*
X121262000Y-94803000D01*
X121262000Y-94823000D01*
X121906250Y-94823000D01*
X122065000Y-94664250D01*
X122068072Y-94630000D01*
X122055812Y-94505518D01*
X122019502Y-94385820D01*
X122012963Y-94373587D01*
X122060101Y-94334902D01*
X123279222Y-95554024D01*
G37*
X123279222Y-95554024D02*
X123139851Y-95479528D01*
X122973255Y-95428992D01*
X122923935Y-95424134D01*
X122713794Y-95213993D01*
X122689991Y-95184989D01*
X122574266Y-95090016D01*
X122442237Y-95019444D01*
X122298976Y-94975987D01*
X122187323Y-94964990D01*
X122187312Y-94964990D01*
X122149990Y-94961314D01*
X122112668Y-94964990D01*
X121098072Y-94964990D01*
X121098072Y-94803000D01*
X121262000Y-94803000D01*
X121262000Y-94823000D01*
X121906250Y-94823000D01*
X122065000Y-94664250D01*
X122068072Y-94630000D01*
X122055812Y-94505518D01*
X122019502Y-94385820D01*
X122012963Y-94373587D01*
X122060101Y-94334902D01*
X123279222Y-95554024D01*
G36*
X133750000Y-92013676D02*
G01*
X133897000Y-91999199D01*
X133897000Y-92127000D01*
X133877000Y-92127000D01*
X133877000Y-92776250D01*
X134035750Y-92935000D01*
X134525000Y-92938072D01*
X134640000Y-92926746D01*
X134640000Y-93710197D01*
X133149589Y-95200609D01*
X133146248Y-95166684D01*
X133096423Y-95002433D01*
X133015512Y-94851058D01*
X132906623Y-94718377D01*
X132810000Y-94639080D01*
X132810000Y-94287312D01*
X132813676Y-94249989D01*
X132810000Y-94212666D01*
X132810000Y-94212657D01*
X132799003Y-94101004D01*
X132755546Y-93957743D01*
X132727645Y-93905545D01*
X132684974Y-93825713D01*
X132613799Y-93738987D01*
X132590001Y-93709989D01*
X132561004Y-93686192D01*
X131773163Y-92898351D01*
X131749078Y-92777271D01*
X131678596Y-92607111D01*
X131610010Y-92504465D01*
X131610010Y-92050497D01*
X131727271Y-92099068D01*
X131907911Y-92135000D01*
X132092089Y-92135000D01*
X132272729Y-92099068D01*
X132340000Y-92071204D01*
X132340000Y-92127002D01*
X132498748Y-92127002D01*
X132340000Y-92285750D01*
X132336928Y-92300000D01*
X132349188Y-92424482D01*
X132385498Y-92544180D01*
X132444463Y-92654494D01*
X132523815Y-92751185D01*
X132620506Y-92830537D01*
X132730820Y-92889502D01*
X132850518Y-92925812D01*
X132975000Y-92938072D01*
X133464250Y-92935000D01*
X133623000Y-92776250D01*
X133623000Y-92127000D01*
X133603000Y-92127000D01*
X133603000Y-91999198D01*
X133750000Y-92013676D01*
G37*
X133750000Y-92013676D02*
X133897000Y-91999199D01*
X133897000Y-92127000D01*
X133877000Y-92127000D01*
X133877000Y-92776250D01*
X134035750Y-92935000D01*
X134525000Y-92938072D01*
X134640000Y-92926746D01*
X134640000Y-93710197D01*
X133149589Y-95200609D01*
X133146248Y-95166684D01*
X133096423Y-95002433D01*
X133015512Y-94851058D01*
X132906623Y-94718377D01*
X132810000Y-94639080D01*
X132810000Y-94287312D01*
X132813676Y-94249989D01*
X132810000Y-94212666D01*
X132810000Y-94212657D01*
X132799003Y-94101004D01*
X132755546Y-93957743D01*
X132727645Y-93905545D01*
X132684974Y-93825713D01*
X132613799Y-93738987D01*
X132590001Y-93709989D01*
X132561004Y-93686192D01*
X131773163Y-92898351D01*
X131749078Y-92777271D01*
X131678596Y-92607111D01*
X131610010Y-92504465D01*
X131610010Y-92050497D01*
X131727271Y-92099068D01*
X131907911Y-92135000D01*
X132092089Y-92135000D01*
X132272729Y-92099068D01*
X132340000Y-92071204D01*
X132340000Y-92127002D01*
X132498748Y-92127002D01*
X132340000Y-92285750D01*
X132336928Y-92300000D01*
X132349188Y-92424482D01*
X132385498Y-92544180D01*
X132444463Y-92654494D01*
X132523815Y-92751185D01*
X132620506Y-92830537D01*
X132730820Y-92889502D01*
X132850518Y-92925812D01*
X132975000Y-92938072D01*
X133464250Y-92935000D01*
X133623000Y-92776250D01*
X133623000Y-92127000D01*
X133603000Y-92127000D01*
X133603000Y-91999198D01*
X133750000Y-92013676D01*
G36*
X134192793Y-81797912D02*
G01*
X133797912Y-82192793D01*
X133487656Y-82657124D01*
X133273948Y-83173061D01*
X133165000Y-83720777D01*
X133165000Y-84279223D01*
X133273948Y-84826939D01*
X133487656Y-85342876D01*
X133797912Y-85807207D01*
X134192793Y-86202088D01*
X134657124Y-86512344D01*
X135173061Y-86726052D01*
X135720777Y-86835000D01*
X136254332Y-86835000D01*
X136236595Y-86856613D01*
X136154528Y-87010149D01*
X136103992Y-87176745D01*
X136086928Y-87349999D01*
X136086928Y-88050001D01*
X136103992Y-88223255D01*
X136154528Y-88389851D01*
X136236595Y-88543387D01*
X136347038Y-88677962D01*
X136481613Y-88788405D01*
X136635149Y-88870472D01*
X136801745Y-88921008D01*
X136974999Y-88938072D01*
X138275001Y-88938072D01*
X138290000Y-88936595D01*
X138290001Y-92063405D01*
X138275001Y-92061928D01*
X136974999Y-92061928D01*
X136801745Y-92078992D01*
X136635149Y-92129528D01*
X136481613Y-92211595D01*
X136347038Y-92322038D01*
X136236595Y-92456613D01*
X136160000Y-92599912D01*
X136160000Y-91862290D01*
X136176262Y-91846028D01*
X136278586Y-91692889D01*
X136349068Y-91522729D01*
X136385000Y-91342089D01*
X136385000Y-91157911D01*
X136349068Y-90977271D01*
X136278586Y-90807111D01*
X136176262Y-90653972D01*
X136046028Y-90523738D01*
X135892889Y-90421414D01*
X135722729Y-90350932D01*
X135542089Y-90315000D01*
X135357911Y-90315000D01*
X135177271Y-90350932D01*
X135127342Y-90371613D01*
X135147929Y-90303745D01*
X135163072Y-90150000D01*
X135163072Y-89850000D01*
X135147929Y-89696255D01*
X135103084Y-89548418D01*
X135077204Y-89500000D01*
X135103084Y-89451582D01*
X135147929Y-89303745D01*
X135163072Y-89150000D01*
X135163072Y-88850000D01*
X135147929Y-88696255D01*
X135103084Y-88548418D01*
X135030258Y-88412171D01*
X134932251Y-88292749D01*
X134812829Y-88194742D01*
X134676582Y-88121916D01*
X134528745Y-88077071D01*
X134375000Y-88061928D01*
X133125000Y-88061928D01*
X132971255Y-88077071D01*
X132823418Y-88121916D01*
X132687171Y-88194742D01*
X132632024Y-88240000D01*
X132037323Y-88240000D01*
X132000000Y-88236324D01*
X131962677Y-88240000D01*
X131962667Y-88240000D01*
X131851014Y-88250997D01*
X131732270Y-88287017D01*
X131707753Y-88294454D01*
X131575723Y-88365026D01*
X131514799Y-88415026D01*
X131459999Y-88459999D01*
X131436201Y-88488997D01*
X130798744Y-89126454D01*
X130796028Y-89123738D01*
X130642889Y-89021414D01*
X130472729Y-88950932D01*
X130292089Y-88915000D01*
X130107911Y-88915000D01*
X129927271Y-88950932D01*
X129757111Y-89021414D01*
X129654465Y-89090000D01*
X128010000Y-89090000D01*
X128010000Y-87377323D01*
X128013676Y-87340000D01*
X128010000Y-87302677D01*
X128010000Y-87302667D01*
X127999003Y-87191014D01*
X127955546Y-87047753D01*
X127884974Y-86915724D01*
X127790001Y-86799999D01*
X127761003Y-86776201D01*
X125023804Y-84039003D01*
X125000001Y-84009999D01*
X124884276Y-83915026D01*
X124752247Y-83844454D01*
X124608986Y-83800997D01*
X124497333Y-83790000D01*
X124497322Y-83790000D01*
X124460000Y-83786324D01*
X124422678Y-83790000D01*
X122698970Y-83790000D01*
X122618940Y-83724321D01*
X122483125Y-83651726D01*
X122335757Y-83607023D01*
X122182500Y-83591928D01*
X121887500Y-83591928D01*
X121734243Y-83607023D01*
X121586875Y-83651726D01*
X121550000Y-83671436D01*
X121513125Y-83651726D01*
X121365757Y-83607023D01*
X121212500Y-83591928D01*
X120917500Y-83591928D01*
X120764243Y-83607023D01*
X120616875Y-83651726D01*
X120481060Y-83724321D01*
X120401030Y-83790000D01*
X120398970Y-83790000D01*
X120318940Y-83724321D01*
X120183125Y-83651726D01*
X120035757Y-83607023D01*
X119882500Y-83591928D01*
X119587500Y-83591928D01*
X119434243Y-83607023D01*
X119311316Y-83644312D01*
X119304180Y-83640498D01*
X119184482Y-83604188D01*
X119060000Y-83591928D01*
X119050750Y-83595000D01*
X118892000Y-83753750D01*
X118892000Y-84020237D01*
X118861726Y-84076875D01*
X118817023Y-84224243D01*
X118801928Y-84377500D01*
X118801928Y-84722500D01*
X118817023Y-84875757D01*
X118861726Y-85023125D01*
X118892000Y-85079763D01*
X118892000Y-85346250D01*
X119050750Y-85505000D01*
X119060000Y-85508072D01*
X119184482Y-85495812D01*
X119304180Y-85459502D01*
X119311316Y-85455688D01*
X119365001Y-85471973D01*
X119365001Y-85815000D01*
X119347998Y-85815000D01*
X119347998Y-85889158D01*
X119302918Y-85864194D01*
X119250777Y-85847527D01*
X119218250Y-85815000D01*
X119150000Y-85822432D01*
X119081750Y-85815000D01*
X119049223Y-85847527D01*
X118997082Y-85864194D01*
X118887657Y-85924792D01*
X118825280Y-85977555D01*
X118754494Y-85919463D01*
X118644180Y-85860498D01*
X118600497Y-85847247D01*
X118568250Y-85815000D01*
X118503157Y-85822088D01*
X118400000Y-85811928D01*
X117950000Y-85811928D01*
X117850000Y-85821777D01*
X117750000Y-85811928D01*
X117300000Y-85811928D01*
X117200000Y-85821777D01*
X117100000Y-85811928D01*
X116650000Y-85811928D01*
X116525518Y-85824188D01*
X116405820Y-85860498D01*
X116295506Y-85919463D01*
X116198815Y-85998815D01*
X116119463Y-86095506D01*
X116060498Y-86205820D01*
X116024188Y-86325518D01*
X116011928Y-86450000D01*
X116011928Y-86715000D01*
X115832911Y-86715000D01*
X115652271Y-86750932D01*
X115482111Y-86821414D01*
X115328972Y-86923738D01*
X115198738Y-87053972D01*
X115096414Y-87207111D01*
X115025932Y-87377271D01*
X114990000Y-87557911D01*
X114990000Y-87742089D01*
X115025932Y-87922729D01*
X115096414Y-88092889D01*
X115188028Y-88230000D01*
X115108508Y-88230000D01*
X115058940Y-88189321D01*
X114923125Y-88116726D01*
X114775757Y-88072023D01*
X114622500Y-88056928D01*
X114277500Y-88056928D01*
X114124243Y-88072023D01*
X113976875Y-88116726D01*
X113907864Y-88153614D01*
X113846250Y-88092000D01*
X113579763Y-88092000D01*
X113523125Y-88061726D01*
X113375757Y-88017023D01*
X113222500Y-88001928D01*
X112877500Y-88001928D01*
X112724243Y-88017023D01*
X112576875Y-88061726D01*
X112520237Y-88092000D01*
X112253750Y-88092000D01*
X112225787Y-88119963D01*
X112098125Y-88051726D01*
X111950757Y-88007023D01*
X111797500Y-87991928D01*
X111502500Y-87991928D01*
X111349243Y-88007023D01*
X111201875Y-88051726D01*
X111165000Y-88071436D01*
X111128125Y-88051726D01*
X110980757Y-88007023D01*
X110827500Y-87991928D01*
X110532500Y-87991928D01*
X110379243Y-88007023D01*
X110231875Y-88051726D01*
X110096060Y-88124321D01*
X110016030Y-88190000D01*
X109587322Y-88190000D01*
X109549999Y-88186324D01*
X109512676Y-88190000D01*
X109512667Y-88190000D01*
X109401014Y-88200997D01*
X109338072Y-88220090D01*
X109338072Y-88100000D01*
X109335664Y-88075550D01*
X109335664Y-88050991D01*
X109323404Y-87926510D01*
X109304282Y-87830377D01*
X109267973Y-87710681D01*
X109251123Y-87670000D01*
X112091928Y-87670000D01*
X112095000Y-87679250D01*
X112253750Y-87838000D01*
X112923000Y-87838000D01*
X112923000Y-87193750D01*
X113177000Y-87193750D01*
X113177000Y-87838000D01*
X113846250Y-87838000D01*
X114005000Y-87679250D01*
X114008072Y-87670000D01*
X113995812Y-87545518D01*
X113959502Y-87425820D01*
X113900537Y-87315506D01*
X113821185Y-87218815D01*
X113724494Y-87139463D01*
X113614180Y-87080498D01*
X113494482Y-87044188D01*
X113370000Y-87031928D01*
X113335750Y-87035000D01*
X113177000Y-87193750D01*
X112923000Y-87193750D01*
X112764250Y-87035000D01*
X112730000Y-87031928D01*
X112605518Y-87044188D01*
X112485820Y-87080498D01*
X112375506Y-87139463D01*
X112278815Y-87218815D01*
X112199463Y-87315506D01*
X112140498Y-87425820D01*
X112104188Y-87545518D01*
X112091928Y-87670000D01*
X109251123Y-87670000D01*
X109230464Y-87620125D01*
X109171498Y-87509808D01*
X109117042Y-87428309D01*
X109037690Y-87331618D01*
X108968382Y-87262310D01*
X108871691Y-87182958D01*
X108790192Y-87128502D01*
X108679875Y-87069536D01*
X108589319Y-87032027D01*
X108469623Y-86995718D01*
X108373490Y-86976596D01*
X108249009Y-86964336D01*
X108224450Y-86964336D01*
X108200000Y-86961928D01*
X107700000Y-86961928D01*
X107675550Y-86964336D01*
X107650991Y-86964336D01*
X107526510Y-86976596D01*
X107430377Y-86995718D01*
X107310681Y-87032027D01*
X107220125Y-87069536D01*
X107109808Y-87128502D01*
X107028309Y-87182958D01*
X106931618Y-87262310D01*
X106862310Y-87331618D01*
X106848199Y-87348812D01*
X106826014Y-87350997D01*
X106682753Y-87394454D01*
X106550723Y-87465026D01*
X106506872Y-87501014D01*
X106434999Y-87559999D01*
X106411201Y-87588997D01*
X105887081Y-88113118D01*
X105875000Y-88111928D01*
X104625000Y-88111928D01*
X104471255Y-88127071D01*
X104323418Y-88171916D01*
X104187171Y-88244742D01*
X104067749Y-88342749D01*
X103969742Y-88462171D01*
X103951350Y-88496580D01*
X103934999Y-88509999D01*
X103911201Y-88538997D01*
X102938998Y-89511201D01*
X102910000Y-89534999D01*
X102886202Y-89563997D01*
X102886201Y-89563998D01*
X102815026Y-89650724D01*
X102744454Y-89782754D01*
X102723748Y-89851015D01*
X102700998Y-89926014D01*
X102696377Y-89972929D01*
X102686324Y-90075000D01*
X102690001Y-90112332D01*
X102690000Y-92417169D01*
X102652962Y-92372038D01*
X102518387Y-92261595D01*
X102364851Y-92179528D01*
X102198255Y-92128992D01*
X102025001Y-92111928D01*
X100724999Y-92111928D01*
X100710000Y-92113405D01*
X100710000Y-88986595D01*
X100724999Y-88988072D01*
X102025001Y-88988072D01*
X102198255Y-88971008D01*
X102364851Y-88920472D01*
X102518387Y-88838405D01*
X102652962Y-88727962D01*
X102763405Y-88593387D01*
X102845472Y-88439851D01*
X102896008Y-88273255D01*
X102913072Y-88100001D01*
X102913072Y-87399999D01*
X102896008Y-87226745D01*
X102845472Y-87060149D01*
X102763405Y-86906613D01*
X102701484Y-86831162D01*
X102720777Y-86835000D01*
X103279223Y-86835000D01*
X103826939Y-86726052D01*
X104342876Y-86512344D01*
X104807207Y-86202088D01*
X105202088Y-85807207D01*
X105512344Y-85342876D01*
X105726052Y-84826939D01*
X105835000Y-84279223D01*
X105835000Y-83720777D01*
X105726052Y-83173061D01*
X105530104Y-82700000D01*
X114161928Y-82700000D01*
X114161928Y-84400000D01*
X114174188Y-84524482D01*
X114210498Y-84644180D01*
X114269463Y-84754494D01*
X114348815Y-84851185D01*
X114445506Y-84930537D01*
X114555820Y-84989502D01*
X114675518Y-85025812D01*
X114800000Y-85038072D01*
X116500000Y-85038072D01*
X116624482Y-85025812D01*
X116744180Y-84989502D01*
X116854494Y-84930537D01*
X116928258Y-84870000D01*
X117831928Y-84870000D01*
X117844188Y-84994482D01*
X117880498Y-85114180D01*
X117939463Y-85224494D01*
X118018815Y-85321185D01*
X118115506Y-85400537D01*
X118225820Y-85459502D01*
X118345518Y-85495812D01*
X118470000Y-85508072D01*
X118479250Y-85505000D01*
X118638000Y-85346250D01*
X118638000Y-84677000D01*
X117993750Y-84677000D01*
X117835000Y-84835750D01*
X117831928Y-84870000D01*
X116928258Y-84870000D01*
X116951185Y-84851185D01*
X117030537Y-84754494D01*
X117089502Y-84644180D01*
X117125812Y-84524482D01*
X117138072Y-84400000D01*
X117138072Y-84230000D01*
X117831928Y-84230000D01*
X117835000Y-84264250D01*
X117993750Y-84423000D01*
X118638000Y-84423000D01*
X118638000Y-83753750D01*
X118479250Y-83595000D01*
X118470000Y-83591928D01*
X118345518Y-83604188D01*
X118225820Y-83640498D01*
X118115506Y-83699463D01*
X118018815Y-83778815D01*
X117939463Y-83875506D01*
X117880498Y-83985820D01*
X117844188Y-84105518D01*
X117831928Y-84230000D01*
X117138072Y-84230000D01*
X117138072Y-82700000D01*
X117125812Y-82575518D01*
X117089502Y-82455820D01*
X117030537Y-82345506D01*
X116951185Y-82248815D01*
X116854494Y-82169463D01*
X116744180Y-82110498D01*
X116624482Y-82074188D01*
X116500000Y-82061928D01*
X114800000Y-82061928D01*
X114675518Y-82074188D01*
X114555820Y-82110498D01*
X114445506Y-82169463D01*
X114348815Y-82248815D01*
X114269463Y-82345506D01*
X114210498Y-82455820D01*
X114174188Y-82575518D01*
X114161928Y-82700000D01*
X105530104Y-82700000D01*
X105512344Y-82657124D01*
X105202088Y-82192793D01*
X104807207Y-81797912D01*
X104675637Y-81710000D01*
X134324363Y-81710000D01*
X134192793Y-81797912D01*
G37*
X134192793Y-81797912D02*
X133797912Y-82192793D01*
X133487656Y-82657124D01*
X133273948Y-83173061D01*
X133165000Y-83720777D01*
X133165000Y-84279223D01*
X133273948Y-84826939D01*
X133487656Y-85342876D01*
X133797912Y-85807207D01*
X134192793Y-86202088D01*
X134657124Y-86512344D01*
X135173061Y-86726052D01*
X135720777Y-86835000D01*
X136254332Y-86835000D01*
X136236595Y-86856613D01*
X136154528Y-87010149D01*
X136103992Y-87176745D01*
X136086928Y-87349999D01*
X136086928Y-88050001D01*
X136103992Y-88223255D01*
X136154528Y-88389851D01*
X136236595Y-88543387D01*
X136347038Y-88677962D01*
X136481613Y-88788405D01*
X136635149Y-88870472D01*
X136801745Y-88921008D01*
X136974999Y-88938072D01*
X138275001Y-88938072D01*
X138290000Y-88936595D01*
X138290001Y-92063405D01*
X138275001Y-92061928D01*
X136974999Y-92061928D01*
X136801745Y-92078992D01*
X136635149Y-92129528D01*
X136481613Y-92211595D01*
X136347038Y-92322038D01*
X136236595Y-92456613D01*
X136160000Y-92599912D01*
X136160000Y-91862290D01*
X136176262Y-91846028D01*
X136278586Y-91692889D01*
X136349068Y-91522729D01*
X136385000Y-91342089D01*
X136385000Y-91157911D01*
X136349068Y-90977271D01*
X136278586Y-90807111D01*
X136176262Y-90653972D01*
X136046028Y-90523738D01*
X135892889Y-90421414D01*
X135722729Y-90350932D01*
X135542089Y-90315000D01*
X135357911Y-90315000D01*
X135177271Y-90350932D01*
X135127342Y-90371613D01*
X135147929Y-90303745D01*
X135163072Y-90150000D01*
X135163072Y-89850000D01*
X135147929Y-89696255D01*
X135103084Y-89548418D01*
X135077204Y-89500000D01*
X135103084Y-89451582D01*
X135147929Y-89303745D01*
X135163072Y-89150000D01*
X135163072Y-88850000D01*
X135147929Y-88696255D01*
X135103084Y-88548418D01*
X135030258Y-88412171D01*
X134932251Y-88292749D01*
X134812829Y-88194742D01*
X134676582Y-88121916D01*
X134528745Y-88077071D01*
X134375000Y-88061928D01*
X133125000Y-88061928D01*
X132971255Y-88077071D01*
X132823418Y-88121916D01*
X132687171Y-88194742D01*
X132632024Y-88240000D01*
X132037323Y-88240000D01*
X132000000Y-88236324D01*
X131962677Y-88240000D01*
X131962667Y-88240000D01*
X131851014Y-88250997D01*
X131732270Y-88287017D01*
X131707753Y-88294454D01*
X131575723Y-88365026D01*
X131514799Y-88415026D01*
X131459999Y-88459999D01*
X131436201Y-88488997D01*
X130798744Y-89126454D01*
X130796028Y-89123738D01*
X130642889Y-89021414D01*
X130472729Y-88950932D01*
X130292089Y-88915000D01*
X130107911Y-88915000D01*
X129927271Y-88950932D01*
X129757111Y-89021414D01*
X129654465Y-89090000D01*
X128010000Y-89090000D01*
X128010000Y-87377323D01*
X128013676Y-87340000D01*
X128010000Y-87302677D01*
X128010000Y-87302667D01*
X127999003Y-87191014D01*
X127955546Y-87047753D01*
X127884974Y-86915724D01*
X127790001Y-86799999D01*
X127761003Y-86776201D01*
X125023804Y-84039003D01*
X125000001Y-84009999D01*
X124884276Y-83915026D01*
X124752247Y-83844454D01*
X124608986Y-83800997D01*
X124497333Y-83790000D01*
X124497322Y-83790000D01*
X124460000Y-83786324D01*
X124422678Y-83790000D01*
X122698970Y-83790000D01*
X122618940Y-83724321D01*
X122483125Y-83651726D01*
X122335757Y-83607023D01*
X122182500Y-83591928D01*
X121887500Y-83591928D01*
X121734243Y-83607023D01*
X121586875Y-83651726D01*
X121550000Y-83671436D01*
X121513125Y-83651726D01*
X121365757Y-83607023D01*
X121212500Y-83591928D01*
X120917500Y-83591928D01*
X120764243Y-83607023D01*
X120616875Y-83651726D01*
X120481060Y-83724321D01*
X120401030Y-83790000D01*
X120398970Y-83790000D01*
X120318940Y-83724321D01*
X120183125Y-83651726D01*
X120035757Y-83607023D01*
X119882500Y-83591928D01*
X119587500Y-83591928D01*
X119434243Y-83607023D01*
X119311316Y-83644312D01*
X119304180Y-83640498D01*
X119184482Y-83604188D01*
X119060000Y-83591928D01*
X119050750Y-83595000D01*
X118892000Y-83753750D01*
X118892000Y-84020237D01*
X118861726Y-84076875D01*
X118817023Y-84224243D01*
X118801928Y-84377500D01*
X118801928Y-84722500D01*
X118817023Y-84875757D01*
X118861726Y-85023125D01*
X118892000Y-85079763D01*
X118892000Y-85346250D01*
X119050750Y-85505000D01*
X119060000Y-85508072D01*
X119184482Y-85495812D01*
X119304180Y-85459502D01*
X119311316Y-85455688D01*
X119365001Y-85471973D01*
X119365001Y-85815000D01*
X119347998Y-85815000D01*
X119347998Y-85889158D01*
X119302918Y-85864194D01*
X119250777Y-85847527D01*
X119218250Y-85815000D01*
X119150000Y-85822432D01*
X119081750Y-85815000D01*
X119049223Y-85847527D01*
X118997082Y-85864194D01*
X118887657Y-85924792D01*
X118825280Y-85977555D01*
X118754494Y-85919463D01*
X118644180Y-85860498D01*
X118600497Y-85847247D01*
X118568250Y-85815000D01*
X118503157Y-85822088D01*
X118400000Y-85811928D01*
X117950000Y-85811928D01*
X117850000Y-85821777D01*
X117750000Y-85811928D01*
X117300000Y-85811928D01*
X117200000Y-85821777D01*
X117100000Y-85811928D01*
X116650000Y-85811928D01*
X116525518Y-85824188D01*
X116405820Y-85860498D01*
X116295506Y-85919463D01*
X116198815Y-85998815D01*
X116119463Y-86095506D01*
X116060498Y-86205820D01*
X116024188Y-86325518D01*
X116011928Y-86450000D01*
X116011928Y-86715000D01*
X115832911Y-86715000D01*
X115652271Y-86750932D01*
X115482111Y-86821414D01*
X115328972Y-86923738D01*
X115198738Y-87053972D01*
X115096414Y-87207111D01*
X115025932Y-87377271D01*
X114990000Y-87557911D01*
X114990000Y-87742089D01*
X115025932Y-87922729D01*
X115096414Y-88092889D01*
X115188028Y-88230000D01*
X115108508Y-88230000D01*
X115058940Y-88189321D01*
X114923125Y-88116726D01*
X114775757Y-88072023D01*
X114622500Y-88056928D01*
X114277500Y-88056928D01*
X114124243Y-88072023D01*
X113976875Y-88116726D01*
X113907864Y-88153614D01*
X113846250Y-88092000D01*
X113579763Y-88092000D01*
X113523125Y-88061726D01*
X113375757Y-88017023D01*
X113222500Y-88001928D01*
X112877500Y-88001928D01*
X112724243Y-88017023D01*
X112576875Y-88061726D01*
X112520237Y-88092000D01*
X112253750Y-88092000D01*
X112225787Y-88119963D01*
X112098125Y-88051726D01*
X111950757Y-88007023D01*
X111797500Y-87991928D01*
X111502500Y-87991928D01*
X111349243Y-88007023D01*
X111201875Y-88051726D01*
X111165000Y-88071436D01*
X111128125Y-88051726D01*
X110980757Y-88007023D01*
X110827500Y-87991928D01*
X110532500Y-87991928D01*
X110379243Y-88007023D01*
X110231875Y-88051726D01*
X110096060Y-88124321D01*
X110016030Y-88190000D01*
X109587322Y-88190000D01*
X109549999Y-88186324D01*
X109512676Y-88190000D01*
X109512667Y-88190000D01*
X109401014Y-88200997D01*
X109338072Y-88220090D01*
X109338072Y-88100000D01*
X109335664Y-88075550D01*
X109335664Y-88050991D01*
X109323404Y-87926510D01*
X109304282Y-87830377D01*
X109267973Y-87710681D01*
X109251123Y-87670000D01*
X112091928Y-87670000D01*
X112095000Y-87679250D01*
X112253750Y-87838000D01*
X112923000Y-87838000D01*
X112923000Y-87193750D01*
X113177000Y-87193750D01*
X113177000Y-87838000D01*
X113846250Y-87838000D01*
X114005000Y-87679250D01*
X114008072Y-87670000D01*
X113995812Y-87545518D01*
X113959502Y-87425820D01*
X113900537Y-87315506D01*
X113821185Y-87218815D01*
X113724494Y-87139463D01*
X113614180Y-87080498D01*
X113494482Y-87044188D01*
X113370000Y-87031928D01*
X113335750Y-87035000D01*
X113177000Y-87193750D01*
X112923000Y-87193750D01*
X112764250Y-87035000D01*
X112730000Y-87031928D01*
X112605518Y-87044188D01*
X112485820Y-87080498D01*
X112375506Y-87139463D01*
X112278815Y-87218815D01*
X112199463Y-87315506D01*
X112140498Y-87425820D01*
X112104188Y-87545518D01*
X112091928Y-87670000D01*
X109251123Y-87670000D01*
X109230464Y-87620125D01*
X109171498Y-87509808D01*
X109117042Y-87428309D01*
X109037690Y-87331618D01*
X108968382Y-87262310D01*
X108871691Y-87182958D01*
X108790192Y-87128502D01*
X108679875Y-87069536D01*
X108589319Y-87032027D01*
X108469623Y-86995718D01*
X108373490Y-86976596D01*
X108249009Y-86964336D01*
X108224450Y-86964336D01*
X108200000Y-86961928D01*
X107700000Y-86961928D01*
X107675550Y-86964336D01*
X107650991Y-86964336D01*
X107526510Y-86976596D01*
X107430377Y-86995718D01*
X107310681Y-87032027D01*
X107220125Y-87069536D01*
X107109808Y-87128502D01*
X107028309Y-87182958D01*
X106931618Y-87262310D01*
X106862310Y-87331618D01*
X106848199Y-87348812D01*
X106826014Y-87350997D01*
X106682753Y-87394454D01*
X106550723Y-87465026D01*
X106506872Y-87501014D01*
X106434999Y-87559999D01*
X106411201Y-87588997D01*
X105887081Y-88113118D01*
X105875000Y-88111928D01*
X104625000Y-88111928D01*
X104471255Y-88127071D01*
X104323418Y-88171916D01*
X104187171Y-88244742D01*
X104067749Y-88342749D01*
X103969742Y-88462171D01*
X103951350Y-88496580D01*
X103934999Y-88509999D01*
X103911201Y-88538997D01*
X102938998Y-89511201D01*
X102910000Y-89534999D01*
X102886202Y-89563997D01*
X102886201Y-89563998D01*
X102815026Y-89650724D01*
X102744454Y-89782754D01*
X102723748Y-89851015D01*
X102700998Y-89926014D01*
X102696377Y-89972929D01*
X102686324Y-90075000D01*
X102690001Y-90112332D01*
X102690000Y-92417169D01*
X102652962Y-92372038D01*
X102518387Y-92261595D01*
X102364851Y-92179528D01*
X102198255Y-92128992D01*
X102025001Y-92111928D01*
X100724999Y-92111928D01*
X100710000Y-92113405D01*
X100710000Y-88986595D01*
X100724999Y-88988072D01*
X102025001Y-88988072D01*
X102198255Y-88971008D01*
X102364851Y-88920472D01*
X102518387Y-88838405D01*
X102652962Y-88727962D01*
X102763405Y-88593387D01*
X102845472Y-88439851D01*
X102896008Y-88273255D01*
X102913072Y-88100001D01*
X102913072Y-87399999D01*
X102896008Y-87226745D01*
X102845472Y-87060149D01*
X102763405Y-86906613D01*
X102701484Y-86831162D01*
X102720777Y-86835000D01*
X103279223Y-86835000D01*
X103826939Y-86726052D01*
X104342876Y-86512344D01*
X104807207Y-86202088D01*
X105202088Y-85807207D01*
X105512344Y-85342876D01*
X105726052Y-84826939D01*
X105835000Y-84279223D01*
X105835000Y-83720777D01*
X105726052Y-83173061D01*
X105530104Y-82700000D01*
X114161928Y-82700000D01*
X114161928Y-84400000D01*
X114174188Y-84524482D01*
X114210498Y-84644180D01*
X114269463Y-84754494D01*
X114348815Y-84851185D01*
X114445506Y-84930537D01*
X114555820Y-84989502D01*
X114675518Y-85025812D01*
X114800000Y-85038072D01*
X116500000Y-85038072D01*
X116624482Y-85025812D01*
X116744180Y-84989502D01*
X116854494Y-84930537D01*
X116928258Y-84870000D01*
X117831928Y-84870000D01*
X117844188Y-84994482D01*
X117880498Y-85114180D01*
X117939463Y-85224494D01*
X118018815Y-85321185D01*
X118115506Y-85400537D01*
X118225820Y-85459502D01*
X118345518Y-85495812D01*
X118470000Y-85508072D01*
X118479250Y-85505000D01*
X118638000Y-85346250D01*
X118638000Y-84677000D01*
X117993750Y-84677000D01*
X117835000Y-84835750D01*
X117831928Y-84870000D01*
X116928258Y-84870000D01*
X116951185Y-84851185D01*
X117030537Y-84754494D01*
X117089502Y-84644180D01*
X117125812Y-84524482D01*
X117138072Y-84400000D01*
X117138072Y-84230000D01*
X117831928Y-84230000D01*
X117835000Y-84264250D01*
X117993750Y-84423000D01*
X118638000Y-84423000D01*
X118638000Y-83753750D01*
X118479250Y-83595000D01*
X118470000Y-83591928D01*
X118345518Y-83604188D01*
X118225820Y-83640498D01*
X118115506Y-83699463D01*
X118018815Y-83778815D01*
X117939463Y-83875506D01*
X117880498Y-83985820D01*
X117844188Y-84105518D01*
X117831928Y-84230000D01*
X117138072Y-84230000D01*
X117138072Y-82700000D01*
X117125812Y-82575518D01*
X117089502Y-82455820D01*
X117030537Y-82345506D01*
X116951185Y-82248815D01*
X116854494Y-82169463D01*
X116744180Y-82110498D01*
X116624482Y-82074188D01*
X116500000Y-82061928D01*
X114800000Y-82061928D01*
X114675518Y-82074188D01*
X114555820Y-82110498D01*
X114445506Y-82169463D01*
X114348815Y-82248815D01*
X114269463Y-82345506D01*
X114210498Y-82455820D01*
X114174188Y-82575518D01*
X114161928Y-82700000D01*
X105530104Y-82700000D01*
X105512344Y-82657124D01*
X105202088Y-82192793D01*
X104807207Y-81797912D01*
X104675637Y-81710000D01*
X134324363Y-81710000D01*
X134192793Y-81797912D01*
G36*
X126490001Y-87654803D02*
G01*
X126490000Y-89304464D01*
X126421414Y-89407111D01*
X126350932Y-89577271D01*
X126315000Y-89757911D01*
X126315000Y-89942089D01*
X126350932Y-90122729D01*
X126421414Y-90292889D01*
X126523738Y-90446028D01*
X126653972Y-90576262D01*
X126807111Y-90678586D01*
X126977271Y-90749068D01*
X127157911Y-90785000D01*
X127342089Y-90785000D01*
X127522729Y-90749068D01*
X127692889Y-90678586D01*
X127795535Y-90610000D01*
X129480862Y-90610000D01*
X129476007Y-90626005D01*
X129465010Y-90737658D01*
X129465010Y-90737668D01*
X129461334Y-90774990D01*
X129465010Y-90812313D01*
X129465010Y-92123536D01*
X129338289Y-92148742D01*
X129200757Y-92107023D01*
X129047500Y-92091928D01*
X128752500Y-92091928D01*
X128599243Y-92107023D01*
X128451875Y-92151726D01*
X128415000Y-92171436D01*
X128378125Y-92151726D01*
X128230757Y-92107023D01*
X128077500Y-92091928D01*
X127782500Y-92091928D01*
X127629243Y-92107023D01*
X127481875Y-92151726D01*
X127456889Y-92165081D01*
X127422729Y-92150932D01*
X127242089Y-92115000D01*
X127057911Y-92115000D01*
X126877271Y-92150932D01*
X126707111Y-92221414D01*
X126604465Y-92290000D01*
X123564802Y-92290000D01*
X122613804Y-91339003D01*
X122590001Y-91309999D01*
X122474276Y-91215026D01*
X122342247Y-91144454D01*
X122198986Y-91100997D01*
X122087333Y-91090000D01*
X122087322Y-91090000D01*
X122050000Y-91086324D01*
X122012678Y-91090000D01*
X121152323Y-91090000D01*
X121114998Y-91086324D01*
X121077673Y-91090000D01*
X121077665Y-91090000D01*
X120966012Y-91100997D01*
X120822751Y-91144454D01*
X120818836Y-91146546D01*
X120696028Y-91023738D01*
X120542889Y-90921414D01*
X120372729Y-90850932D01*
X120192089Y-90815000D01*
X120007911Y-90815000D01*
X119827271Y-90850932D01*
X119657111Y-90921414D01*
X119503972Y-91023738D01*
X119373738Y-91153972D01*
X119271414Y-91307111D01*
X119200932Y-91477271D01*
X119165000Y-91657911D01*
X119165000Y-91720299D01*
X119150000Y-91721777D01*
X119050000Y-91711928D01*
X118600000Y-91711928D01*
X118500000Y-91721777D01*
X118400000Y-91711928D01*
X117950000Y-91711928D01*
X117850000Y-91721777D01*
X117750000Y-91711928D01*
X117300000Y-91711928D01*
X117200000Y-91721777D01*
X117100000Y-91711928D01*
X116650000Y-91711928D01*
X116525518Y-91724188D01*
X116405820Y-91760498D01*
X116295506Y-91819463D01*
X116198815Y-91898815D01*
X116182459Y-91918745D01*
X116175679Y-91906060D01*
X116110000Y-91826030D01*
X116110000Y-91775448D01*
X116221028Y-91701262D01*
X116351262Y-91571028D01*
X116453586Y-91417889D01*
X116524068Y-91247729D01*
X116560000Y-91067089D01*
X116560000Y-90882911D01*
X116526148Y-90712730D01*
X116563986Y-90709003D01*
X116707247Y-90665546D01*
X116839276Y-90594974D01*
X116955001Y-90500001D01*
X116978804Y-90470997D01*
X118686004Y-88763798D01*
X118715001Y-88740001D01*
X118809974Y-88624276D01*
X118830968Y-88585000D01*
X118952002Y-88585000D01*
X118952002Y-88510841D01*
X118997082Y-88535806D01*
X119049223Y-88552473D01*
X119081750Y-88585000D01*
X119150000Y-88577568D01*
X119218250Y-88585000D01*
X119250777Y-88552473D01*
X119302918Y-88535806D01*
X119412343Y-88475208D01*
X119474720Y-88422445D01*
X119545506Y-88480537D01*
X119655820Y-88539502D01*
X119699503Y-88552753D01*
X119731750Y-88585000D01*
X119796843Y-88577912D01*
X119900000Y-88588072D01*
X120120675Y-88588072D01*
X120140027Y-88624276D01*
X120235000Y-88740001D01*
X120350725Y-88834974D01*
X120482754Y-88905546D01*
X120626015Y-88949003D01*
X120775000Y-88963677D01*
X120923986Y-88949003D01*
X121067247Y-88905546D01*
X121199276Y-88834974D01*
X121315001Y-88740001D01*
X121409974Y-88624276D01*
X121429326Y-88588072D01*
X121650000Y-88588072D01*
X121774482Y-88575812D01*
X121894180Y-88539502D01*
X122004494Y-88480537D01*
X122101185Y-88401185D01*
X122180537Y-88304494D01*
X122239502Y-88194180D01*
X122275812Y-88074482D01*
X122288072Y-87950000D01*
X122288072Y-86722002D01*
X122392889Y-86678586D01*
X122546028Y-86576262D01*
X122676262Y-86446028D01*
X122778586Y-86292889D01*
X122849068Y-86122729D01*
X122885000Y-85942089D01*
X122885000Y-85757911D01*
X122849068Y-85577271D01*
X122778586Y-85407111D01*
X122713699Y-85310000D01*
X124145199Y-85310000D01*
X126490001Y-87654803D01*
G37*
X126490001Y-87654803D02*
X126490000Y-89304464D01*
X126421414Y-89407111D01*
X126350932Y-89577271D01*
X126315000Y-89757911D01*
X126315000Y-89942089D01*
X126350932Y-90122729D01*
X126421414Y-90292889D01*
X126523738Y-90446028D01*
X126653972Y-90576262D01*
X126807111Y-90678586D01*
X126977271Y-90749068D01*
X127157911Y-90785000D01*
X127342089Y-90785000D01*
X127522729Y-90749068D01*
X127692889Y-90678586D01*
X127795535Y-90610000D01*
X129480862Y-90610000D01*
X129476007Y-90626005D01*
X129465010Y-90737658D01*
X129465010Y-90737668D01*
X129461334Y-90774990D01*
X129465010Y-90812313D01*
X129465010Y-92123536D01*
X129338289Y-92148742D01*
X129200757Y-92107023D01*
X129047500Y-92091928D01*
X128752500Y-92091928D01*
X128599243Y-92107023D01*
X128451875Y-92151726D01*
X128415000Y-92171436D01*
X128378125Y-92151726D01*
X128230757Y-92107023D01*
X128077500Y-92091928D01*
X127782500Y-92091928D01*
X127629243Y-92107023D01*
X127481875Y-92151726D01*
X127456889Y-92165081D01*
X127422729Y-92150932D01*
X127242089Y-92115000D01*
X127057911Y-92115000D01*
X126877271Y-92150932D01*
X126707111Y-92221414D01*
X126604465Y-92290000D01*
X123564802Y-92290000D01*
X122613804Y-91339003D01*
X122590001Y-91309999D01*
X122474276Y-91215026D01*
X122342247Y-91144454D01*
X122198986Y-91100997D01*
X122087333Y-91090000D01*
X122087322Y-91090000D01*
X122050000Y-91086324D01*
X122012678Y-91090000D01*
X121152323Y-91090000D01*
X121114998Y-91086324D01*
X121077673Y-91090000D01*
X121077665Y-91090000D01*
X120966012Y-91100997D01*
X120822751Y-91144454D01*
X120818836Y-91146546D01*
X120696028Y-91023738D01*
X120542889Y-90921414D01*
X120372729Y-90850932D01*
X120192089Y-90815000D01*
X120007911Y-90815000D01*
X119827271Y-90850932D01*
X119657111Y-90921414D01*
X119503972Y-91023738D01*
X119373738Y-91153972D01*
X119271414Y-91307111D01*
X119200932Y-91477271D01*
X119165000Y-91657911D01*
X119165000Y-91720299D01*
X119150000Y-91721777D01*
X119050000Y-91711928D01*
X118600000Y-91711928D01*
X118500000Y-91721777D01*
X118400000Y-91711928D01*
X117950000Y-91711928D01*
X117850000Y-91721777D01*
X117750000Y-91711928D01*
X117300000Y-91711928D01*
X117200000Y-91721777D01*
X117100000Y-91711928D01*
X116650000Y-91711928D01*
X116525518Y-91724188D01*
X116405820Y-91760498D01*
X116295506Y-91819463D01*
X116198815Y-91898815D01*
X116182459Y-91918745D01*
X116175679Y-91906060D01*
X116110000Y-91826030D01*
X116110000Y-91775448D01*
X116221028Y-91701262D01*
X116351262Y-91571028D01*
X116453586Y-91417889D01*
X116524068Y-91247729D01*
X116560000Y-91067089D01*
X116560000Y-90882911D01*
X116526148Y-90712730D01*
X116563986Y-90709003D01*
X116707247Y-90665546D01*
X116839276Y-90594974D01*
X116955001Y-90500001D01*
X116978804Y-90470997D01*
X118686004Y-88763798D01*
X118715001Y-88740001D01*
X118809974Y-88624276D01*
X118830968Y-88585000D01*
X118952002Y-88585000D01*
X118952002Y-88510841D01*
X118997082Y-88535806D01*
X119049223Y-88552473D01*
X119081750Y-88585000D01*
X119150000Y-88577568D01*
X119218250Y-88585000D01*
X119250777Y-88552473D01*
X119302918Y-88535806D01*
X119412343Y-88475208D01*
X119474720Y-88422445D01*
X119545506Y-88480537D01*
X119655820Y-88539502D01*
X119699503Y-88552753D01*
X119731750Y-88585000D01*
X119796843Y-88577912D01*
X119900000Y-88588072D01*
X120120675Y-88588072D01*
X120140027Y-88624276D01*
X120235000Y-88740001D01*
X120350725Y-88834974D01*
X120482754Y-88905546D01*
X120626015Y-88949003D01*
X120775000Y-88963677D01*
X120923986Y-88949003D01*
X121067247Y-88905546D01*
X121199276Y-88834974D01*
X121315001Y-88740001D01*
X121409974Y-88624276D01*
X121429326Y-88588072D01*
X121650000Y-88588072D01*
X121774482Y-88575812D01*
X121894180Y-88539502D01*
X122004494Y-88480537D01*
X122101185Y-88401185D01*
X122180537Y-88304494D01*
X122239502Y-88194180D01*
X122275812Y-88074482D01*
X122288072Y-87950000D01*
X122288072Y-86722002D01*
X122392889Y-86678586D01*
X122546028Y-86576262D01*
X122676262Y-86446028D01*
X122778586Y-86292889D01*
X122849068Y-86122729D01*
X122885000Y-85942089D01*
X122885000Y-85757911D01*
X122849068Y-85577271D01*
X122778586Y-85407111D01*
X122713699Y-85310000D01*
X124145199Y-85310000D01*
X126490001Y-87654803D01*
G36*
X110081060Y-90875679D02*
G01*
X110216875Y-90948274D01*
X110364243Y-90992977D01*
X110517500Y-91008072D01*
X110812500Y-91008072D01*
X110965757Y-90992977D01*
X111113125Y-90948274D01*
X111150000Y-90928564D01*
X111186875Y-90948274D01*
X111334243Y-90992977D01*
X111487500Y-91008072D01*
X111782500Y-91008072D01*
X111935757Y-90992977D01*
X112083125Y-90948274D01*
X112218940Y-90875679D01*
X112228546Y-90867796D01*
X112253750Y-90893000D01*
X112520237Y-90893000D01*
X112576875Y-90923274D01*
X112724243Y-90967977D01*
X112877500Y-90983072D01*
X113222500Y-90983072D01*
X113375757Y-90967977D01*
X113523125Y-90923274D01*
X113579763Y-90893000D01*
X113846250Y-90893000D01*
X113929250Y-90810000D01*
X113933333Y-90810000D01*
X113976875Y-90833274D01*
X114124243Y-90877977D01*
X114277500Y-90893072D01*
X114622500Y-90893072D01*
X114682169Y-90887195D01*
X114644454Y-90957754D01*
X114635788Y-90986324D01*
X114600997Y-91101014D01*
X114590000Y-91212667D01*
X114590000Y-91212678D01*
X114586324Y-91250000D01*
X114590000Y-91287322D01*
X114590000Y-91826030D01*
X114524321Y-91906060D01*
X114451726Y-92041875D01*
X114407023Y-92189243D01*
X114391928Y-92342500D01*
X114391928Y-92637500D01*
X114407023Y-92790757D01*
X114451726Y-92938125D01*
X114471436Y-92975000D01*
X114451726Y-93011875D01*
X114407023Y-93159243D01*
X114391928Y-93312500D01*
X114391928Y-93607500D01*
X114407023Y-93760757D01*
X114451726Y-93908125D01*
X114524321Y-94043940D01*
X114622017Y-94162983D01*
X114681734Y-94211991D01*
X114715026Y-94274276D01*
X114778003Y-94351014D01*
X114809999Y-94390001D01*
X114925724Y-94484974D01*
X115057753Y-94555546D01*
X115201014Y-94599003D01*
X115350000Y-94613677D01*
X115387333Y-94610000D01*
X116087678Y-94610000D01*
X116125000Y-94613676D01*
X116162322Y-94610000D01*
X116162333Y-94610000D01*
X116267942Y-94599598D01*
X116302740Y-94774537D01*
X116373222Y-94944697D01*
X116475546Y-95097836D01*
X116605780Y-95228070D01*
X116758919Y-95330394D01*
X116852904Y-95369324D01*
X116846928Y-95430000D01*
X116850000Y-95464250D01*
X117008750Y-95623000D01*
X117653000Y-95623000D01*
X117653000Y-95603000D01*
X117816928Y-95603000D01*
X117816928Y-95922500D01*
X117832023Y-96075757D01*
X117876726Y-96223125D01*
X117907000Y-96279763D01*
X117907000Y-96546250D01*
X118065750Y-96705000D01*
X118075000Y-96708072D01*
X118199482Y-96695812D01*
X118319180Y-96659502D01*
X118326316Y-96655688D01*
X118449243Y-96692977D01*
X118602500Y-96708072D01*
X118633271Y-96708072D01*
X119186200Y-97261002D01*
X119209999Y-97290001D01*
X119221741Y-97299638D01*
X119228992Y-97373255D01*
X119279528Y-97539851D01*
X119361595Y-97693387D01*
X119472038Y-97827962D01*
X119606613Y-97938405D01*
X119760149Y-98020472D01*
X119926745Y-98071008D01*
X120099999Y-98088072D01*
X120750001Y-98088072D01*
X120923255Y-98071008D01*
X121089851Y-98020472D01*
X121243387Y-97938405D01*
X121377962Y-97827962D01*
X121450000Y-97740184D01*
X121522038Y-97827962D01*
X121656613Y-97938405D01*
X121810149Y-98020472D01*
X121976745Y-98071008D01*
X122041475Y-98077383D01*
X122050724Y-98084974D01*
X122182753Y-98155546D01*
X122326014Y-98199003D01*
X122475000Y-98213677D01*
X122623985Y-98199003D01*
X122767246Y-98155546D01*
X122899275Y-98084974D01*
X122908524Y-98077383D01*
X122973255Y-98071008D01*
X123139851Y-98020472D01*
X123293387Y-97938405D01*
X123427962Y-97827962D01*
X123538405Y-97693387D01*
X123620472Y-97539851D01*
X123629527Y-97510000D01*
X129286928Y-97510000D01*
X129286928Y-97662500D01*
X129303752Y-97833316D01*
X129353577Y-97997567D01*
X129434488Y-98148942D01*
X129543377Y-98281623D01*
X129676058Y-98390512D01*
X129827433Y-98471423D01*
X129991684Y-98521248D01*
X130162500Y-98538072D01*
X130637500Y-98538072D01*
X130808316Y-98521248D01*
X130972567Y-98471423D01*
X131123942Y-98390512D01*
X131225000Y-98307575D01*
X131326058Y-98390512D01*
X131477433Y-98471423D01*
X131641684Y-98521248D01*
X131812500Y-98538072D01*
X132287500Y-98538072D01*
X132458316Y-98521248D01*
X132622567Y-98471423D01*
X132773942Y-98390512D01*
X132906623Y-98281623D01*
X133015512Y-98148942D01*
X133096423Y-97997567D01*
X133146248Y-97833316D01*
X133163072Y-97662500D01*
X133163072Y-97336729D01*
X133174221Y-97325580D01*
X133273948Y-97826939D01*
X133487656Y-98342876D01*
X133797912Y-98807207D01*
X134192793Y-99202088D01*
X134324363Y-99290000D01*
X104675637Y-99290000D01*
X104807207Y-99202088D01*
X105202088Y-98807207D01*
X105512344Y-98342876D01*
X105726052Y-97826939D01*
X105835000Y-97279223D01*
X105835000Y-96720777D01*
X105726052Y-96173061D01*
X105683363Y-96070000D01*
X116846928Y-96070000D01*
X116859188Y-96194482D01*
X116895498Y-96314180D01*
X116954463Y-96424494D01*
X117033815Y-96521185D01*
X117130506Y-96600537D01*
X117240820Y-96659502D01*
X117360518Y-96695812D01*
X117485000Y-96708072D01*
X117494250Y-96705000D01*
X117653000Y-96546250D01*
X117653000Y-95877000D01*
X117008750Y-95877000D01*
X116850000Y-96035750D01*
X116846928Y-96070000D01*
X105683363Y-96070000D01*
X105512344Y-95657124D01*
X105202088Y-95192793D01*
X104819295Y-94810000D01*
X107804465Y-94810000D01*
X107907111Y-94878586D01*
X108077271Y-94949068D01*
X108257911Y-94985000D01*
X108442089Y-94985000D01*
X108622729Y-94949068D01*
X108792889Y-94878586D01*
X108946028Y-94776262D01*
X109076262Y-94646028D01*
X109178586Y-94492889D01*
X109249068Y-94322729D01*
X109285000Y-94142089D01*
X109285000Y-94110000D01*
X110104465Y-94110000D01*
X110207111Y-94178586D01*
X110377271Y-94249068D01*
X110557911Y-94285000D01*
X110742089Y-94285000D01*
X110922729Y-94249068D01*
X111092889Y-94178586D01*
X111246028Y-94076262D01*
X111376262Y-93946028D01*
X111478586Y-93792889D01*
X111549068Y-93622729D01*
X111585000Y-93442089D01*
X111585000Y-93257911D01*
X111549068Y-93077271D01*
X111526000Y-93021579D01*
X111526000Y-92829763D01*
X111556274Y-92773125D01*
X111600977Y-92625757D01*
X111616072Y-92472500D01*
X111616072Y-92427000D01*
X111780000Y-92427000D01*
X111780000Y-93096250D01*
X111938750Y-93255000D01*
X111948000Y-93258072D01*
X112072482Y-93245812D01*
X112192180Y-93209502D01*
X112302494Y-93150537D01*
X112399185Y-93071185D01*
X112478537Y-92974494D01*
X112537502Y-92864180D01*
X112573812Y-92744482D01*
X112586072Y-92620000D01*
X112583000Y-92585750D01*
X112424250Y-92427000D01*
X111780000Y-92427000D01*
X111616072Y-92427000D01*
X111616072Y-92127500D01*
X111600977Y-91974243D01*
X111556274Y-91826875D01*
X111526000Y-91770237D01*
X111526000Y-91503750D01*
X111780000Y-91503750D01*
X111780000Y-92173000D01*
X112424250Y-92173000D01*
X112583000Y-92014250D01*
X112586072Y-91980000D01*
X112581495Y-91933525D01*
X112605518Y-91940812D01*
X112730000Y-91953072D01*
X112764250Y-91950000D01*
X112923000Y-91791250D01*
X112923000Y-91147000D01*
X113177000Y-91147000D01*
X113177000Y-91791250D01*
X113335750Y-91950000D01*
X113370000Y-91953072D01*
X113494482Y-91940812D01*
X113614180Y-91904502D01*
X113724494Y-91845537D01*
X113821185Y-91766185D01*
X113900537Y-91669494D01*
X113959502Y-91559180D01*
X113995812Y-91439482D01*
X114008072Y-91315000D01*
X114005000Y-91305750D01*
X113846250Y-91147000D01*
X113177000Y-91147000D01*
X112923000Y-91147000D01*
X112253750Y-91147000D01*
X112095000Y-91305750D01*
X112091928Y-91315000D01*
X112096505Y-91361475D01*
X112072482Y-91354188D01*
X111948000Y-91341928D01*
X111938750Y-91345000D01*
X111780000Y-91503750D01*
X111526000Y-91503750D01*
X111367250Y-91345000D01*
X111358000Y-91341928D01*
X111233518Y-91354188D01*
X111113820Y-91390498D01*
X111106684Y-91394312D01*
X110983757Y-91357023D01*
X110830500Y-91341928D01*
X110535500Y-91341928D01*
X110382243Y-91357023D01*
X110234875Y-91401726D01*
X110099060Y-91474321D01*
X109980017Y-91572017D01*
X109882321Y-91691060D01*
X109809726Y-91826875D01*
X109765023Y-91974243D01*
X109749928Y-92127500D01*
X109749928Y-92472500D01*
X109761501Y-92590000D01*
X109338072Y-92590000D01*
X109338072Y-92400000D01*
X109325812Y-92275518D01*
X109318071Y-92250000D01*
X109325812Y-92224482D01*
X109338072Y-92100000D01*
X109338072Y-91600000D01*
X109335664Y-91575550D01*
X109335664Y-91550991D01*
X109323404Y-91426510D01*
X109304282Y-91330377D01*
X109301988Y-91322814D01*
X109814802Y-90810000D01*
X110001030Y-90810000D01*
X110081060Y-90875679D01*
G37*
X110081060Y-90875679D02*
X110216875Y-90948274D01*
X110364243Y-90992977D01*
X110517500Y-91008072D01*
X110812500Y-91008072D01*
X110965757Y-90992977D01*
X111113125Y-90948274D01*
X111150000Y-90928564D01*
X111186875Y-90948274D01*
X111334243Y-90992977D01*
X111487500Y-91008072D01*
X111782500Y-91008072D01*
X111935757Y-90992977D01*
X112083125Y-90948274D01*
X112218940Y-90875679D01*
X112228546Y-90867796D01*
X112253750Y-90893000D01*
X112520237Y-90893000D01*
X112576875Y-90923274D01*
X112724243Y-90967977D01*
X112877500Y-90983072D01*
X113222500Y-90983072D01*
X113375757Y-90967977D01*
X113523125Y-90923274D01*
X113579763Y-90893000D01*
X113846250Y-90893000D01*
X113929250Y-90810000D01*
X113933333Y-90810000D01*
X113976875Y-90833274D01*
X114124243Y-90877977D01*
X114277500Y-90893072D01*
X114622500Y-90893072D01*
X114682169Y-90887195D01*
X114644454Y-90957754D01*
X114635788Y-90986324D01*
X114600997Y-91101014D01*
X114590000Y-91212667D01*
X114590000Y-91212678D01*
X114586324Y-91250000D01*
X114590000Y-91287322D01*
X114590000Y-91826030D01*
X114524321Y-91906060D01*
X114451726Y-92041875D01*
X114407023Y-92189243D01*
X114391928Y-92342500D01*
X114391928Y-92637500D01*
X114407023Y-92790757D01*
X114451726Y-92938125D01*
X114471436Y-92975000D01*
X114451726Y-93011875D01*
X114407023Y-93159243D01*
X114391928Y-93312500D01*
X114391928Y-93607500D01*
X114407023Y-93760757D01*
X114451726Y-93908125D01*
X114524321Y-94043940D01*
X114622017Y-94162983D01*
X114681734Y-94211991D01*
X114715026Y-94274276D01*
X114778003Y-94351014D01*
X114809999Y-94390001D01*
X114925724Y-94484974D01*
X115057753Y-94555546D01*
X115201014Y-94599003D01*
X115350000Y-94613677D01*
X115387333Y-94610000D01*
X116087678Y-94610000D01*
X116125000Y-94613676D01*
X116162322Y-94610000D01*
X116162333Y-94610000D01*
X116267942Y-94599598D01*
X116302740Y-94774537D01*
X116373222Y-94944697D01*
X116475546Y-95097836D01*
X116605780Y-95228070D01*
X116758919Y-95330394D01*
X116852904Y-95369324D01*
X116846928Y-95430000D01*
X116850000Y-95464250D01*
X117008750Y-95623000D01*
X117653000Y-95623000D01*
X117653000Y-95603000D01*
X117816928Y-95603000D01*
X117816928Y-95922500D01*
X117832023Y-96075757D01*
X117876726Y-96223125D01*
X117907000Y-96279763D01*
X117907000Y-96546250D01*
X118065750Y-96705000D01*
X118075000Y-96708072D01*
X118199482Y-96695812D01*
X118319180Y-96659502D01*
X118326316Y-96655688D01*
X118449243Y-96692977D01*
X118602500Y-96708072D01*
X118633271Y-96708072D01*
X119186200Y-97261002D01*
X119209999Y-97290001D01*
X119221741Y-97299638D01*
X119228992Y-97373255D01*
X119279528Y-97539851D01*
X119361595Y-97693387D01*
X119472038Y-97827962D01*
X119606613Y-97938405D01*
X119760149Y-98020472D01*
X119926745Y-98071008D01*
X120099999Y-98088072D01*
X120750001Y-98088072D01*
X120923255Y-98071008D01*
X121089851Y-98020472D01*
X121243387Y-97938405D01*
X121377962Y-97827962D01*
X121450000Y-97740184D01*
X121522038Y-97827962D01*
X121656613Y-97938405D01*
X121810149Y-98020472D01*
X121976745Y-98071008D01*
X122041475Y-98077383D01*
X122050724Y-98084974D01*
X122182753Y-98155546D01*
X122326014Y-98199003D01*
X122475000Y-98213677D01*
X122623985Y-98199003D01*
X122767246Y-98155546D01*
X122899275Y-98084974D01*
X122908524Y-98077383D01*
X122973255Y-98071008D01*
X123139851Y-98020472D01*
X123293387Y-97938405D01*
X123427962Y-97827962D01*
X123538405Y-97693387D01*
X123620472Y-97539851D01*
X123629527Y-97510000D01*
X129286928Y-97510000D01*
X129286928Y-97662500D01*
X129303752Y-97833316D01*
X129353577Y-97997567D01*
X129434488Y-98148942D01*
X129543377Y-98281623D01*
X129676058Y-98390512D01*
X129827433Y-98471423D01*
X129991684Y-98521248D01*
X130162500Y-98538072D01*
X130637500Y-98538072D01*
X130808316Y-98521248D01*
X130972567Y-98471423D01*
X131123942Y-98390512D01*
X131225000Y-98307575D01*
X131326058Y-98390512D01*
X131477433Y-98471423D01*
X131641684Y-98521248D01*
X131812500Y-98538072D01*
X132287500Y-98538072D01*
X132458316Y-98521248D01*
X132622567Y-98471423D01*
X132773942Y-98390512D01*
X132906623Y-98281623D01*
X133015512Y-98148942D01*
X133096423Y-97997567D01*
X133146248Y-97833316D01*
X133163072Y-97662500D01*
X133163072Y-97336729D01*
X133174221Y-97325580D01*
X133273948Y-97826939D01*
X133487656Y-98342876D01*
X133797912Y-98807207D01*
X134192793Y-99202088D01*
X134324363Y-99290000D01*
X104675637Y-99290000D01*
X104807207Y-99202088D01*
X105202088Y-98807207D01*
X105512344Y-98342876D01*
X105726052Y-97826939D01*
X105835000Y-97279223D01*
X105835000Y-96720777D01*
X105726052Y-96173061D01*
X105683363Y-96070000D01*
X116846928Y-96070000D01*
X116859188Y-96194482D01*
X116895498Y-96314180D01*
X116954463Y-96424494D01*
X117033815Y-96521185D01*
X117130506Y-96600537D01*
X117240820Y-96659502D01*
X117360518Y-96695812D01*
X117485000Y-96708072D01*
X117494250Y-96705000D01*
X117653000Y-96546250D01*
X117653000Y-95877000D01*
X117008750Y-95877000D01*
X116850000Y-96035750D01*
X116846928Y-96070000D01*
X105683363Y-96070000D01*
X105512344Y-95657124D01*
X105202088Y-95192793D01*
X104819295Y-94810000D01*
X107804465Y-94810000D01*
X107907111Y-94878586D01*
X108077271Y-94949068D01*
X108257911Y-94985000D01*
X108442089Y-94985000D01*
X108622729Y-94949068D01*
X108792889Y-94878586D01*
X108946028Y-94776262D01*
X109076262Y-94646028D01*
X109178586Y-94492889D01*
X109249068Y-94322729D01*
X109285000Y-94142089D01*
X109285000Y-94110000D01*
X110104465Y-94110000D01*
X110207111Y-94178586D01*
X110377271Y-94249068D01*
X110557911Y-94285000D01*
X110742089Y-94285000D01*
X110922729Y-94249068D01*
X111092889Y-94178586D01*
X111246028Y-94076262D01*
X111376262Y-93946028D01*
X111478586Y-93792889D01*
X111549068Y-93622729D01*
X111585000Y-93442089D01*
X111585000Y-93257911D01*
X111549068Y-93077271D01*
X111526000Y-93021579D01*
X111526000Y-92829763D01*
X111556274Y-92773125D01*
X111600977Y-92625757D01*
X111616072Y-92472500D01*
X111616072Y-92427000D01*
X111780000Y-92427000D01*
X111780000Y-93096250D01*
X111938750Y-93255000D01*
X111948000Y-93258072D01*
X112072482Y-93245812D01*
X112192180Y-93209502D01*
X112302494Y-93150537D01*
X112399185Y-93071185D01*
X112478537Y-92974494D01*
X112537502Y-92864180D01*
X112573812Y-92744482D01*
X112586072Y-92620000D01*
X112583000Y-92585750D01*
X112424250Y-92427000D01*
X111780000Y-92427000D01*
X111616072Y-92427000D01*
X111616072Y-92127500D01*
X111600977Y-91974243D01*
X111556274Y-91826875D01*
X111526000Y-91770237D01*
X111526000Y-91503750D01*
X111780000Y-91503750D01*
X111780000Y-92173000D01*
X112424250Y-92173000D01*
X112583000Y-92014250D01*
X112586072Y-91980000D01*
X112581495Y-91933525D01*
X112605518Y-91940812D01*
X112730000Y-91953072D01*
X112764250Y-91950000D01*
X112923000Y-91791250D01*
X112923000Y-91147000D01*
X113177000Y-91147000D01*
X113177000Y-91791250D01*
X113335750Y-91950000D01*
X113370000Y-91953072D01*
X113494482Y-91940812D01*
X113614180Y-91904502D01*
X113724494Y-91845537D01*
X113821185Y-91766185D01*
X113900537Y-91669494D01*
X113959502Y-91559180D01*
X113995812Y-91439482D01*
X114008072Y-91315000D01*
X114005000Y-91305750D01*
X113846250Y-91147000D01*
X113177000Y-91147000D01*
X112923000Y-91147000D01*
X112253750Y-91147000D01*
X112095000Y-91305750D01*
X112091928Y-91315000D01*
X112096505Y-91361475D01*
X112072482Y-91354188D01*
X111948000Y-91341928D01*
X111938750Y-91345000D01*
X111780000Y-91503750D01*
X111526000Y-91503750D01*
X111367250Y-91345000D01*
X111358000Y-91341928D01*
X111233518Y-91354188D01*
X111113820Y-91390498D01*
X111106684Y-91394312D01*
X110983757Y-91357023D01*
X110830500Y-91341928D01*
X110535500Y-91341928D01*
X110382243Y-91357023D01*
X110234875Y-91401726D01*
X110099060Y-91474321D01*
X109980017Y-91572017D01*
X109882321Y-91691060D01*
X109809726Y-91826875D01*
X109765023Y-91974243D01*
X109749928Y-92127500D01*
X109749928Y-92472500D01*
X109761501Y-92590000D01*
X109338072Y-92590000D01*
X109338072Y-92400000D01*
X109325812Y-92275518D01*
X109318071Y-92250000D01*
X109325812Y-92224482D01*
X109338072Y-92100000D01*
X109338072Y-91600000D01*
X109335664Y-91575550D01*
X109335664Y-91550991D01*
X109323404Y-91426510D01*
X109304282Y-91330377D01*
X109301988Y-91322814D01*
X109814802Y-90810000D01*
X110001030Y-90810000D01*
X110081060Y-90875679D01*
G36*
X123279222Y-95554024D02*
G01*
X123139851Y-95479528D01*
X122973255Y-95428992D01*
X122923935Y-95424134D01*
X122713794Y-95213993D01*
X122689991Y-95184989D01*
X122574266Y-95090016D01*
X122442237Y-95019444D01*
X122298976Y-94975987D01*
X122187323Y-94964990D01*
X122187312Y-94964990D01*
X122149990Y-94961314D01*
X122112668Y-94964990D01*
X121098072Y-94964990D01*
X121098072Y-94803000D01*
X121262000Y-94803000D01*
X121262000Y-94823000D01*
X121906250Y-94823000D01*
X122065000Y-94664250D01*
X122068072Y-94630000D01*
X122055812Y-94505518D01*
X122019502Y-94385820D01*
X122012963Y-94373587D01*
X122060101Y-94334902D01*
X123279222Y-95554024D01*
G37*
X123279222Y-95554024D02*
X123139851Y-95479528D01*
X122973255Y-95428992D01*
X122923935Y-95424134D01*
X122713794Y-95213993D01*
X122689991Y-95184989D01*
X122574266Y-95090016D01*
X122442237Y-95019444D01*
X122298976Y-94975987D01*
X122187323Y-94964990D01*
X122187312Y-94964990D01*
X122149990Y-94961314D01*
X122112668Y-94964990D01*
X121098072Y-94964990D01*
X121098072Y-94803000D01*
X121262000Y-94803000D01*
X121262000Y-94823000D01*
X121906250Y-94823000D01*
X122065000Y-94664250D01*
X122068072Y-94630000D01*
X122055812Y-94505518D01*
X122019502Y-94385820D01*
X122012963Y-94373587D01*
X122060101Y-94334902D01*
X123279222Y-95554024D01*
G36*
X133750000Y-92013676D02*
G01*
X133897000Y-91999199D01*
X133897000Y-92127000D01*
X133877000Y-92127000D01*
X133877000Y-92776250D01*
X134035750Y-92935000D01*
X134525000Y-92938072D01*
X134640000Y-92926746D01*
X134640000Y-93710197D01*
X133149589Y-95200609D01*
X133146248Y-95166684D01*
X133096423Y-95002433D01*
X133015512Y-94851058D01*
X132906623Y-94718377D01*
X132810000Y-94639080D01*
X132810000Y-94287312D01*
X132813676Y-94249989D01*
X132810000Y-94212666D01*
X132810000Y-94212657D01*
X132799003Y-94101004D01*
X132755546Y-93957743D01*
X132727645Y-93905545D01*
X132684974Y-93825713D01*
X132613799Y-93738987D01*
X132590001Y-93709989D01*
X132561004Y-93686192D01*
X131773163Y-92898351D01*
X131749078Y-92777271D01*
X131678596Y-92607111D01*
X131610010Y-92504465D01*
X131610010Y-92050497D01*
X131727271Y-92099068D01*
X131907911Y-92135000D01*
X132092089Y-92135000D01*
X132272729Y-92099068D01*
X132340000Y-92071204D01*
X132340000Y-92127002D01*
X132498748Y-92127002D01*
X132340000Y-92285750D01*
X132336928Y-92300000D01*
X132349188Y-92424482D01*
X132385498Y-92544180D01*
X132444463Y-92654494D01*
X132523815Y-92751185D01*
X132620506Y-92830537D01*
X132730820Y-92889502D01*
X132850518Y-92925812D01*
X132975000Y-92938072D01*
X133464250Y-92935000D01*
X133623000Y-92776250D01*
X133623000Y-92127000D01*
X133603000Y-92127000D01*
X133603000Y-91999198D01*
X133750000Y-92013676D01*
G37*
X133750000Y-92013676D02*
X133897000Y-91999199D01*
X133897000Y-92127000D01*
X133877000Y-92127000D01*
X133877000Y-92776250D01*
X134035750Y-92935000D01*
X134525000Y-92938072D01*
X134640000Y-92926746D01*
X134640000Y-93710197D01*
X133149589Y-95200609D01*
X133146248Y-95166684D01*
X133096423Y-95002433D01*
X133015512Y-94851058D01*
X132906623Y-94718377D01*
X132810000Y-94639080D01*
X132810000Y-94287312D01*
X132813676Y-94249989D01*
X132810000Y-94212666D01*
X132810000Y-94212657D01*
X132799003Y-94101004D01*
X132755546Y-93957743D01*
X132727645Y-93905545D01*
X132684974Y-93825713D01*
X132613799Y-93738987D01*
X132590001Y-93709989D01*
X132561004Y-93686192D01*
X131773163Y-92898351D01*
X131749078Y-92777271D01*
X131678596Y-92607111D01*
X131610010Y-92504465D01*
X131610010Y-92050497D01*
X131727271Y-92099068D01*
X131907911Y-92135000D01*
X132092089Y-92135000D01*
X132272729Y-92099068D01*
X132340000Y-92071204D01*
X132340000Y-92127002D01*
X132498748Y-92127002D01*
X132340000Y-92285750D01*
X132336928Y-92300000D01*
X132349188Y-92424482D01*
X132385498Y-92544180D01*
X132444463Y-92654494D01*
X132523815Y-92751185D01*
X132620506Y-92830537D01*
X132730820Y-92889502D01*
X132850518Y-92925812D01*
X132975000Y-92938072D01*
X133464250Y-92935000D01*
X133623000Y-92776250D01*
X133623000Y-92127000D01*
X133603000Y-92127000D01*
X133603000Y-91999198D01*
X133750000Y-92013676D01*
G36*
X134192793Y-81797912D02*
G01*
X133797912Y-82192793D01*
X133487656Y-82657124D01*
X133273948Y-83173061D01*
X133165000Y-83720777D01*
X133165000Y-84279223D01*
X133273948Y-84826939D01*
X133487656Y-85342876D01*
X133797912Y-85807207D01*
X134192793Y-86202088D01*
X134657124Y-86512344D01*
X135173061Y-86726052D01*
X135720777Y-86835000D01*
X136254332Y-86835000D01*
X136236595Y-86856613D01*
X136154528Y-87010149D01*
X136103992Y-87176745D01*
X136086928Y-87349999D01*
X136086928Y-88050001D01*
X136103992Y-88223255D01*
X136154528Y-88389851D01*
X136236595Y-88543387D01*
X136347038Y-88677962D01*
X136481613Y-88788405D01*
X136635149Y-88870472D01*
X136801745Y-88921008D01*
X136974999Y-88938072D01*
X138275001Y-88938072D01*
X138290000Y-88936595D01*
X138290001Y-92063405D01*
X138275001Y-92061928D01*
X136974999Y-92061928D01*
X136801745Y-92078992D01*
X136635149Y-92129528D01*
X136481613Y-92211595D01*
X136347038Y-92322038D01*
X136236595Y-92456613D01*
X136160000Y-92599912D01*
X136160000Y-91862290D01*
X136176262Y-91846028D01*
X136278586Y-91692889D01*
X136349068Y-91522729D01*
X136385000Y-91342089D01*
X136385000Y-91157911D01*
X136349068Y-90977271D01*
X136278586Y-90807111D01*
X136176262Y-90653972D01*
X136046028Y-90523738D01*
X135892889Y-90421414D01*
X135722729Y-90350932D01*
X135542089Y-90315000D01*
X135357911Y-90315000D01*
X135177271Y-90350932D01*
X135127342Y-90371613D01*
X135147929Y-90303745D01*
X135163072Y-90150000D01*
X135163072Y-89850000D01*
X135147929Y-89696255D01*
X135103084Y-89548418D01*
X135077204Y-89500000D01*
X135103084Y-89451582D01*
X135147929Y-89303745D01*
X135163072Y-89150000D01*
X135163072Y-88850000D01*
X135147929Y-88696255D01*
X135103084Y-88548418D01*
X135030258Y-88412171D01*
X134932251Y-88292749D01*
X134812829Y-88194742D01*
X134676582Y-88121916D01*
X134528745Y-88077071D01*
X134375000Y-88061928D01*
X133125000Y-88061928D01*
X132971255Y-88077071D01*
X132823418Y-88121916D01*
X132687171Y-88194742D01*
X132632024Y-88240000D01*
X132037323Y-88240000D01*
X132000000Y-88236324D01*
X131962677Y-88240000D01*
X131962667Y-88240000D01*
X131851014Y-88250997D01*
X131732270Y-88287017D01*
X131707753Y-88294454D01*
X131575723Y-88365026D01*
X131514799Y-88415026D01*
X131459999Y-88459999D01*
X131436201Y-88488997D01*
X130798744Y-89126454D01*
X130796028Y-89123738D01*
X130642889Y-89021414D01*
X130472729Y-88950932D01*
X130292089Y-88915000D01*
X130107911Y-88915000D01*
X129927271Y-88950932D01*
X129757111Y-89021414D01*
X129654465Y-89090000D01*
X128010000Y-89090000D01*
X128010000Y-87377323D01*
X128013676Y-87340000D01*
X128010000Y-87302677D01*
X128010000Y-87302667D01*
X127999003Y-87191014D01*
X127955546Y-87047753D01*
X127884974Y-86915724D01*
X127790001Y-86799999D01*
X127761003Y-86776201D01*
X125023804Y-84039003D01*
X125000001Y-84009999D01*
X124884276Y-83915026D01*
X124752247Y-83844454D01*
X124608986Y-83800997D01*
X124497333Y-83790000D01*
X124497322Y-83790000D01*
X124460000Y-83786324D01*
X124422678Y-83790000D01*
X122698970Y-83790000D01*
X122618940Y-83724321D01*
X122483125Y-83651726D01*
X122335757Y-83607023D01*
X122182500Y-83591928D01*
X121887500Y-83591928D01*
X121734243Y-83607023D01*
X121586875Y-83651726D01*
X121550000Y-83671436D01*
X121513125Y-83651726D01*
X121365757Y-83607023D01*
X121212500Y-83591928D01*
X120917500Y-83591928D01*
X120764243Y-83607023D01*
X120616875Y-83651726D01*
X120481060Y-83724321D01*
X120401030Y-83790000D01*
X120398970Y-83790000D01*
X120318940Y-83724321D01*
X120183125Y-83651726D01*
X120035757Y-83607023D01*
X119882500Y-83591928D01*
X119587500Y-83591928D01*
X119434243Y-83607023D01*
X119311316Y-83644312D01*
X119304180Y-83640498D01*
X119184482Y-83604188D01*
X119060000Y-83591928D01*
X119050750Y-83595000D01*
X118892000Y-83753750D01*
X118892000Y-84020237D01*
X118861726Y-84076875D01*
X118817023Y-84224243D01*
X118801928Y-84377500D01*
X118801928Y-84722500D01*
X118817023Y-84875757D01*
X118861726Y-85023125D01*
X118892000Y-85079763D01*
X118892000Y-85346250D01*
X119050750Y-85505000D01*
X119060000Y-85508072D01*
X119184482Y-85495812D01*
X119304180Y-85459502D01*
X119311316Y-85455688D01*
X119365001Y-85471973D01*
X119365001Y-85815000D01*
X119347998Y-85815000D01*
X119347998Y-85889158D01*
X119302918Y-85864194D01*
X119250777Y-85847527D01*
X119218250Y-85815000D01*
X119150000Y-85822432D01*
X119081750Y-85815000D01*
X119049223Y-85847527D01*
X118997082Y-85864194D01*
X118887657Y-85924792D01*
X118825280Y-85977555D01*
X118754494Y-85919463D01*
X118644180Y-85860498D01*
X118600497Y-85847247D01*
X118568250Y-85815000D01*
X118503157Y-85822088D01*
X118400000Y-85811928D01*
X117950000Y-85811928D01*
X117850000Y-85821777D01*
X117750000Y-85811928D01*
X117300000Y-85811928D01*
X117200000Y-85821777D01*
X117100000Y-85811928D01*
X116650000Y-85811928D01*
X116525518Y-85824188D01*
X116405820Y-85860498D01*
X116295506Y-85919463D01*
X116198815Y-85998815D01*
X116119463Y-86095506D01*
X116060498Y-86205820D01*
X116024188Y-86325518D01*
X116011928Y-86450000D01*
X116011928Y-86715000D01*
X115832911Y-86715000D01*
X115652271Y-86750932D01*
X115482111Y-86821414D01*
X115328972Y-86923738D01*
X115198738Y-87053972D01*
X115096414Y-87207111D01*
X115025932Y-87377271D01*
X114990000Y-87557911D01*
X114990000Y-87742089D01*
X115025932Y-87922729D01*
X115096414Y-88092889D01*
X115188028Y-88230000D01*
X115108508Y-88230000D01*
X115058940Y-88189321D01*
X114923125Y-88116726D01*
X114775757Y-88072023D01*
X114622500Y-88056928D01*
X114277500Y-88056928D01*
X114124243Y-88072023D01*
X113976875Y-88116726D01*
X113907864Y-88153614D01*
X113846250Y-88092000D01*
X113579763Y-88092000D01*
X113523125Y-88061726D01*
X113375757Y-88017023D01*
X113222500Y-88001928D01*
X112877500Y-88001928D01*
X112724243Y-88017023D01*
X112576875Y-88061726D01*
X112520237Y-88092000D01*
X112253750Y-88092000D01*
X112225787Y-88119963D01*
X112098125Y-88051726D01*
X111950757Y-88007023D01*
X111797500Y-87991928D01*
X111502500Y-87991928D01*
X111349243Y-88007023D01*
X111201875Y-88051726D01*
X111165000Y-88071436D01*
X111128125Y-88051726D01*
X110980757Y-88007023D01*
X110827500Y-87991928D01*
X110532500Y-87991928D01*
X110379243Y-88007023D01*
X110231875Y-88051726D01*
X110096060Y-88124321D01*
X110016030Y-88190000D01*
X109587322Y-88190000D01*
X109549999Y-88186324D01*
X109512676Y-88190000D01*
X109512667Y-88190000D01*
X109401014Y-88200997D01*
X109338072Y-88220090D01*
X109338072Y-88100000D01*
X109335664Y-88075550D01*
X109335664Y-88050991D01*
X109323404Y-87926510D01*
X109304282Y-87830377D01*
X109267973Y-87710681D01*
X109251123Y-87670000D01*
X112091928Y-87670000D01*
X112095000Y-87679250D01*
X112253750Y-87838000D01*
X112923000Y-87838000D01*
X112923000Y-87193750D01*
X113177000Y-87193750D01*
X113177000Y-87838000D01*
X113846250Y-87838000D01*
X114005000Y-87679250D01*
X114008072Y-87670000D01*
X113995812Y-87545518D01*
X113959502Y-87425820D01*
X113900537Y-87315506D01*
X113821185Y-87218815D01*
X113724494Y-87139463D01*
X113614180Y-87080498D01*
X113494482Y-87044188D01*
X113370000Y-87031928D01*
X113335750Y-87035000D01*
X113177000Y-87193750D01*
X112923000Y-87193750D01*
X112764250Y-87035000D01*
X112730000Y-87031928D01*
X112605518Y-87044188D01*
X112485820Y-87080498D01*
X112375506Y-87139463D01*
X112278815Y-87218815D01*
X112199463Y-87315506D01*
X112140498Y-87425820D01*
X112104188Y-87545518D01*
X112091928Y-87670000D01*
X109251123Y-87670000D01*
X109230464Y-87620125D01*
X109171498Y-87509808D01*
X109117042Y-87428309D01*
X109037690Y-87331618D01*
X108968382Y-87262310D01*
X108871691Y-87182958D01*
X108790192Y-87128502D01*
X108679875Y-87069536D01*
X108589319Y-87032027D01*
X108469623Y-86995718D01*
X108373490Y-86976596D01*
X108249009Y-86964336D01*
X108224450Y-86964336D01*
X108200000Y-86961928D01*
X107700000Y-86961928D01*
X107675550Y-86964336D01*
X107650991Y-86964336D01*
X107526510Y-86976596D01*
X107430377Y-86995718D01*
X107310681Y-87032027D01*
X107220125Y-87069536D01*
X107109808Y-87128502D01*
X107028309Y-87182958D01*
X106931618Y-87262310D01*
X106862310Y-87331618D01*
X106848199Y-87348812D01*
X106826014Y-87350997D01*
X106682753Y-87394454D01*
X106550723Y-87465026D01*
X106506872Y-87501014D01*
X106434999Y-87559999D01*
X106411201Y-87588997D01*
X105887081Y-88113118D01*
X105875000Y-88111928D01*
X104625000Y-88111928D01*
X104471255Y-88127071D01*
X104323418Y-88171916D01*
X104187171Y-88244742D01*
X104067749Y-88342749D01*
X103969742Y-88462171D01*
X103951350Y-88496580D01*
X103934999Y-88509999D01*
X103911201Y-88538997D01*
X102938998Y-89511201D01*
X102910000Y-89534999D01*
X102886202Y-89563997D01*
X102886201Y-89563998D01*
X102815026Y-89650724D01*
X102744454Y-89782754D01*
X102723748Y-89851015D01*
X102700998Y-89926014D01*
X102696377Y-89972929D01*
X102686324Y-90075000D01*
X102690001Y-90112332D01*
X102690000Y-92417169D01*
X102652962Y-92372038D01*
X102518387Y-92261595D01*
X102364851Y-92179528D01*
X102198255Y-92128992D01*
X102025001Y-92111928D01*
X100724999Y-92111928D01*
X100710000Y-92113405D01*
X100710000Y-88986595D01*
X100724999Y-88988072D01*
X102025001Y-88988072D01*
X102198255Y-88971008D01*
X102364851Y-88920472D01*
X102518387Y-88838405D01*
X102652962Y-88727962D01*
X102763405Y-88593387D01*
X102845472Y-88439851D01*
X102896008Y-88273255D01*
X102913072Y-88100001D01*
X102913072Y-87399999D01*
X102896008Y-87226745D01*
X102845472Y-87060149D01*
X102763405Y-86906613D01*
X102701484Y-86831162D01*
X102720777Y-86835000D01*
X103279223Y-86835000D01*
X103826939Y-86726052D01*
X104342876Y-86512344D01*
X104807207Y-86202088D01*
X105202088Y-85807207D01*
X105512344Y-85342876D01*
X105726052Y-84826939D01*
X105835000Y-84279223D01*
X105835000Y-83720777D01*
X105726052Y-83173061D01*
X105530104Y-82700000D01*
X114161928Y-82700000D01*
X114161928Y-84400000D01*
X114174188Y-84524482D01*
X114210498Y-84644180D01*
X114269463Y-84754494D01*
X114348815Y-84851185D01*
X114445506Y-84930537D01*
X114555820Y-84989502D01*
X114675518Y-85025812D01*
X114800000Y-85038072D01*
X116500000Y-85038072D01*
X116624482Y-85025812D01*
X116744180Y-84989502D01*
X116854494Y-84930537D01*
X116928258Y-84870000D01*
X117831928Y-84870000D01*
X117844188Y-84994482D01*
X117880498Y-85114180D01*
X117939463Y-85224494D01*
X118018815Y-85321185D01*
X118115506Y-85400537D01*
X118225820Y-85459502D01*
X118345518Y-85495812D01*
X118470000Y-85508072D01*
X118479250Y-85505000D01*
X118638000Y-85346250D01*
X118638000Y-84677000D01*
X117993750Y-84677000D01*
X117835000Y-84835750D01*
X117831928Y-84870000D01*
X116928258Y-84870000D01*
X116951185Y-84851185D01*
X117030537Y-84754494D01*
X117089502Y-84644180D01*
X117125812Y-84524482D01*
X117138072Y-84400000D01*
X117138072Y-84230000D01*
X117831928Y-84230000D01*
X117835000Y-84264250D01*
X117993750Y-84423000D01*
X118638000Y-84423000D01*
X118638000Y-83753750D01*
X118479250Y-83595000D01*
X118470000Y-83591928D01*
X118345518Y-83604188D01*
X118225820Y-83640498D01*
X118115506Y-83699463D01*
X118018815Y-83778815D01*
X117939463Y-83875506D01*
X117880498Y-83985820D01*
X117844188Y-84105518D01*
X117831928Y-84230000D01*
X117138072Y-84230000D01*
X117138072Y-82700000D01*
X117125812Y-82575518D01*
X117089502Y-82455820D01*
X117030537Y-82345506D01*
X116951185Y-82248815D01*
X116854494Y-82169463D01*
X116744180Y-82110498D01*
X116624482Y-82074188D01*
X116500000Y-82061928D01*
X114800000Y-82061928D01*
X114675518Y-82074188D01*
X114555820Y-82110498D01*
X114445506Y-82169463D01*
X114348815Y-82248815D01*
X114269463Y-82345506D01*
X114210498Y-82455820D01*
X114174188Y-82575518D01*
X114161928Y-82700000D01*
X105530104Y-82700000D01*
X105512344Y-82657124D01*
X105202088Y-82192793D01*
X104807207Y-81797912D01*
X104675637Y-81710000D01*
X134324363Y-81710000D01*
X134192793Y-81797912D01*
G37*
X134192793Y-81797912D02*
X133797912Y-82192793D01*
X133487656Y-82657124D01*
X133273948Y-83173061D01*
X133165000Y-83720777D01*
X133165000Y-84279223D01*
X133273948Y-84826939D01*
X133487656Y-85342876D01*
X133797912Y-85807207D01*
X134192793Y-86202088D01*
X134657124Y-86512344D01*
X135173061Y-86726052D01*
X135720777Y-86835000D01*
X136254332Y-86835000D01*
X136236595Y-86856613D01*
X136154528Y-87010149D01*
X136103992Y-87176745D01*
X136086928Y-87349999D01*
X136086928Y-88050001D01*
X136103992Y-88223255D01*
X136154528Y-88389851D01*
X136236595Y-88543387D01*
X136347038Y-88677962D01*
X136481613Y-88788405D01*
X136635149Y-88870472D01*
X136801745Y-88921008D01*
X136974999Y-88938072D01*
X138275001Y-88938072D01*
X138290000Y-88936595D01*
X138290001Y-92063405D01*
X138275001Y-92061928D01*
X136974999Y-92061928D01*
X136801745Y-92078992D01*
X136635149Y-92129528D01*
X136481613Y-92211595D01*
X136347038Y-92322038D01*
X136236595Y-92456613D01*
X136160000Y-92599912D01*
X136160000Y-91862290D01*
X136176262Y-91846028D01*
X136278586Y-91692889D01*
X136349068Y-91522729D01*
X136385000Y-91342089D01*
X136385000Y-91157911D01*
X136349068Y-90977271D01*
X136278586Y-90807111D01*
X136176262Y-90653972D01*
X136046028Y-90523738D01*
X135892889Y-90421414D01*
X135722729Y-90350932D01*
X135542089Y-90315000D01*
X135357911Y-90315000D01*
X135177271Y-90350932D01*
X135127342Y-90371613D01*
X135147929Y-90303745D01*
X135163072Y-90150000D01*
X135163072Y-89850000D01*
X135147929Y-89696255D01*
X135103084Y-89548418D01*
X135077204Y-89500000D01*
X135103084Y-89451582D01*
X135147929Y-89303745D01*
X135163072Y-89150000D01*
X135163072Y-88850000D01*
X135147929Y-88696255D01*
X135103084Y-88548418D01*
X135030258Y-88412171D01*
X134932251Y-88292749D01*
X134812829Y-88194742D01*
X134676582Y-88121916D01*
X134528745Y-88077071D01*
X134375000Y-88061928D01*
X133125000Y-88061928D01*
X132971255Y-88077071D01*
X132823418Y-88121916D01*
X132687171Y-88194742D01*
X132632024Y-88240000D01*
X132037323Y-88240000D01*
X132000000Y-88236324D01*
X131962677Y-88240000D01*
X131962667Y-88240000D01*
X131851014Y-88250997D01*
X131732270Y-88287017D01*
X131707753Y-88294454D01*
X131575723Y-88365026D01*
X131514799Y-88415026D01*
X131459999Y-88459999D01*
X131436201Y-88488997D01*
X130798744Y-89126454D01*
X130796028Y-89123738D01*
X130642889Y-89021414D01*
X130472729Y-88950932D01*
X130292089Y-88915000D01*
X130107911Y-88915000D01*
X129927271Y-88950932D01*
X129757111Y-89021414D01*
X129654465Y-89090000D01*
X128010000Y-89090000D01*
X128010000Y-87377323D01*
X128013676Y-87340000D01*
X128010000Y-87302677D01*
X128010000Y-87302667D01*
X127999003Y-87191014D01*
X127955546Y-87047753D01*
X127884974Y-86915724D01*
X127790001Y-86799999D01*
X127761003Y-86776201D01*
X125023804Y-84039003D01*
X125000001Y-84009999D01*
X124884276Y-83915026D01*
X124752247Y-83844454D01*
X124608986Y-83800997D01*
X124497333Y-83790000D01*
X124497322Y-83790000D01*
X124460000Y-83786324D01*
X124422678Y-83790000D01*
X122698970Y-83790000D01*
X122618940Y-83724321D01*
X122483125Y-83651726D01*
X122335757Y-83607023D01*
X122182500Y-83591928D01*
X121887500Y-83591928D01*
X121734243Y-83607023D01*
X121586875Y-83651726D01*
X121550000Y-83671436D01*
X121513125Y-83651726D01*
X121365757Y-83607023D01*
X121212500Y-83591928D01*
X120917500Y-83591928D01*
X120764243Y-83607023D01*
X120616875Y-83651726D01*
X120481060Y-83724321D01*
X120401030Y-83790000D01*
X120398970Y-83790000D01*
X120318940Y-83724321D01*
X120183125Y-83651726D01*
X120035757Y-83607023D01*
X119882500Y-83591928D01*
X119587500Y-83591928D01*
X119434243Y-83607023D01*
X119311316Y-83644312D01*
X119304180Y-83640498D01*
X119184482Y-83604188D01*
X119060000Y-83591928D01*
X119050750Y-83595000D01*
X118892000Y-83753750D01*
X118892000Y-84020237D01*
X118861726Y-84076875D01*
X118817023Y-84224243D01*
X118801928Y-84377500D01*
X118801928Y-84722500D01*
X118817023Y-84875757D01*
X118861726Y-85023125D01*
X118892000Y-85079763D01*
X118892000Y-85346250D01*
X119050750Y-85505000D01*
X119060000Y-85508072D01*
X119184482Y-85495812D01*
X119304180Y-85459502D01*
X119311316Y-85455688D01*
X119365001Y-85471973D01*
X119365001Y-85815000D01*
X119347998Y-85815000D01*
X119347998Y-85889158D01*
X119302918Y-85864194D01*
X119250777Y-85847527D01*
X119218250Y-85815000D01*
X119150000Y-85822432D01*
X119081750Y-85815000D01*
X119049223Y-85847527D01*
X118997082Y-85864194D01*
X118887657Y-85924792D01*
X118825280Y-85977555D01*
X118754494Y-85919463D01*
X118644180Y-85860498D01*
X118600497Y-85847247D01*
X118568250Y-85815000D01*
X118503157Y-85822088D01*
X118400000Y-85811928D01*
X117950000Y-85811928D01*
X117850000Y-85821777D01*
X117750000Y-85811928D01*
X117300000Y-85811928D01*
X117200000Y-85821777D01*
X117100000Y-85811928D01*
X116650000Y-85811928D01*
X116525518Y-85824188D01*
X116405820Y-85860498D01*
X116295506Y-85919463D01*
X116198815Y-85998815D01*
X116119463Y-86095506D01*
X116060498Y-86205820D01*
X116024188Y-86325518D01*
X116011928Y-86450000D01*
X116011928Y-86715000D01*
X115832911Y-86715000D01*
X115652271Y-86750932D01*
X115482111Y-86821414D01*
X115328972Y-86923738D01*
X115198738Y-87053972D01*
X115096414Y-87207111D01*
X115025932Y-87377271D01*
X114990000Y-87557911D01*
X114990000Y-87742089D01*
X115025932Y-87922729D01*
X115096414Y-88092889D01*
X115188028Y-88230000D01*
X115108508Y-88230000D01*
X115058940Y-88189321D01*
X114923125Y-88116726D01*
X114775757Y-88072023D01*
X114622500Y-88056928D01*
X114277500Y-88056928D01*
X114124243Y-88072023D01*
X113976875Y-88116726D01*
X113907864Y-88153614D01*
X113846250Y-88092000D01*
X113579763Y-88092000D01*
X113523125Y-88061726D01*
X113375757Y-88017023D01*
X113222500Y-88001928D01*
X112877500Y-88001928D01*
X112724243Y-88017023D01*
X112576875Y-88061726D01*
X112520237Y-88092000D01*
X112253750Y-88092000D01*
X112225787Y-88119963D01*
X112098125Y-88051726D01*
X111950757Y-88007023D01*
X111797500Y-87991928D01*
X111502500Y-87991928D01*
X111349243Y-88007023D01*
X111201875Y-88051726D01*
X111165000Y-88071436D01*
X111128125Y-88051726D01*
X110980757Y-88007023D01*
X110827500Y-87991928D01*
X110532500Y-87991928D01*
X110379243Y-88007023D01*
X110231875Y-88051726D01*
X110096060Y-88124321D01*
X110016030Y-88190000D01*
X109587322Y-88190000D01*
X109549999Y-88186324D01*
X109512676Y-88190000D01*
X109512667Y-88190000D01*
X109401014Y-88200997D01*
X109338072Y-88220090D01*
X109338072Y-88100000D01*
X109335664Y-88075550D01*
X109335664Y-88050991D01*
X109323404Y-87926510D01*
X109304282Y-87830377D01*
X109267973Y-87710681D01*
X109251123Y-87670000D01*
X112091928Y-87670000D01*
X112095000Y-87679250D01*
X112253750Y-87838000D01*
X112923000Y-87838000D01*
X112923000Y-87193750D01*
X113177000Y-87193750D01*
X113177000Y-87838000D01*
X113846250Y-87838000D01*
X114005000Y-87679250D01*
X114008072Y-87670000D01*
X113995812Y-87545518D01*
X113959502Y-87425820D01*
X113900537Y-87315506D01*
X113821185Y-87218815D01*
X113724494Y-87139463D01*
X113614180Y-87080498D01*
X113494482Y-87044188D01*
X113370000Y-87031928D01*
X113335750Y-87035000D01*
X113177000Y-87193750D01*
X112923000Y-87193750D01*
X112764250Y-87035000D01*
X112730000Y-87031928D01*
X112605518Y-87044188D01*
X112485820Y-87080498D01*
X112375506Y-87139463D01*
X112278815Y-87218815D01*
X112199463Y-87315506D01*
X112140498Y-87425820D01*
X112104188Y-87545518D01*
X112091928Y-87670000D01*
X109251123Y-87670000D01*
X109230464Y-87620125D01*
X109171498Y-87509808D01*
X109117042Y-87428309D01*
X109037690Y-87331618D01*
X108968382Y-87262310D01*
X108871691Y-87182958D01*
X108790192Y-87128502D01*
X108679875Y-87069536D01*
X108589319Y-87032027D01*
X108469623Y-86995718D01*
X108373490Y-86976596D01*
X108249009Y-86964336D01*
X108224450Y-86964336D01*
X108200000Y-86961928D01*
X107700000Y-86961928D01*
X107675550Y-86964336D01*
X107650991Y-86964336D01*
X107526510Y-86976596D01*
X107430377Y-86995718D01*
X107310681Y-87032027D01*
X107220125Y-87069536D01*
X107109808Y-87128502D01*
X107028309Y-87182958D01*
X106931618Y-87262310D01*
X106862310Y-87331618D01*
X106848199Y-87348812D01*
X106826014Y-87350997D01*
X106682753Y-87394454D01*
X106550723Y-87465026D01*
X106506872Y-87501014D01*
X106434999Y-87559999D01*
X106411201Y-87588997D01*
X105887081Y-88113118D01*
X105875000Y-88111928D01*
X104625000Y-88111928D01*
X104471255Y-88127071D01*
X104323418Y-88171916D01*
X104187171Y-88244742D01*
X104067749Y-88342749D01*
X103969742Y-88462171D01*
X103951350Y-88496580D01*
X103934999Y-88509999D01*
X103911201Y-88538997D01*
X102938998Y-89511201D01*
X102910000Y-89534999D01*
X102886202Y-89563997D01*
X102886201Y-89563998D01*
X102815026Y-89650724D01*
X102744454Y-89782754D01*
X102723748Y-89851015D01*
X102700998Y-89926014D01*
X102696377Y-89972929D01*
X102686324Y-90075000D01*
X102690001Y-90112332D01*
X102690000Y-92417169D01*
X102652962Y-92372038D01*
X102518387Y-92261595D01*
X102364851Y-92179528D01*
X102198255Y-92128992D01*
X102025001Y-92111928D01*
X100724999Y-92111928D01*
X100710000Y-92113405D01*
X100710000Y-88986595D01*
X100724999Y-88988072D01*
X102025001Y-88988072D01*
X102198255Y-88971008D01*
X102364851Y-88920472D01*
X102518387Y-88838405D01*
X102652962Y-88727962D01*
X102763405Y-88593387D01*
X102845472Y-88439851D01*
X102896008Y-88273255D01*
X102913072Y-88100001D01*
X102913072Y-87399999D01*
X102896008Y-87226745D01*
X102845472Y-87060149D01*
X102763405Y-86906613D01*
X102701484Y-86831162D01*
X102720777Y-86835000D01*
X103279223Y-86835000D01*
X103826939Y-86726052D01*
X104342876Y-86512344D01*
X104807207Y-86202088D01*
X105202088Y-85807207D01*
X105512344Y-85342876D01*
X105726052Y-84826939D01*
X105835000Y-84279223D01*
X105835000Y-83720777D01*
X105726052Y-83173061D01*
X105530104Y-82700000D01*
X114161928Y-82700000D01*
X114161928Y-84400000D01*
X114174188Y-84524482D01*
X114210498Y-84644180D01*
X114269463Y-84754494D01*
X114348815Y-84851185D01*
X114445506Y-84930537D01*
X114555820Y-84989502D01*
X114675518Y-85025812D01*
X114800000Y-85038072D01*
X116500000Y-85038072D01*
X116624482Y-85025812D01*
X116744180Y-84989502D01*
X116854494Y-84930537D01*
X116928258Y-84870000D01*
X117831928Y-84870000D01*
X117844188Y-84994482D01*
X117880498Y-85114180D01*
X117939463Y-85224494D01*
X118018815Y-85321185D01*
X118115506Y-85400537D01*
X118225820Y-85459502D01*
X118345518Y-85495812D01*
X118470000Y-85508072D01*
X118479250Y-85505000D01*
X118638000Y-85346250D01*
X118638000Y-84677000D01*
X117993750Y-84677000D01*
X117835000Y-84835750D01*
X117831928Y-84870000D01*
X116928258Y-84870000D01*
X116951185Y-84851185D01*
X117030537Y-84754494D01*
X117089502Y-84644180D01*
X117125812Y-84524482D01*
X117138072Y-84400000D01*
X117138072Y-84230000D01*
X117831928Y-84230000D01*
X117835000Y-84264250D01*
X117993750Y-84423000D01*
X118638000Y-84423000D01*
X118638000Y-83753750D01*
X118479250Y-83595000D01*
X118470000Y-83591928D01*
X118345518Y-83604188D01*
X118225820Y-83640498D01*
X118115506Y-83699463D01*
X118018815Y-83778815D01*
X117939463Y-83875506D01*
X117880498Y-83985820D01*
X117844188Y-84105518D01*
X117831928Y-84230000D01*
X117138072Y-84230000D01*
X117138072Y-82700000D01*
X117125812Y-82575518D01*
X117089502Y-82455820D01*
X117030537Y-82345506D01*
X116951185Y-82248815D01*
X116854494Y-82169463D01*
X116744180Y-82110498D01*
X116624482Y-82074188D01*
X116500000Y-82061928D01*
X114800000Y-82061928D01*
X114675518Y-82074188D01*
X114555820Y-82110498D01*
X114445506Y-82169463D01*
X114348815Y-82248815D01*
X114269463Y-82345506D01*
X114210498Y-82455820D01*
X114174188Y-82575518D01*
X114161928Y-82700000D01*
X105530104Y-82700000D01*
X105512344Y-82657124D01*
X105202088Y-82192793D01*
X104807207Y-81797912D01*
X104675637Y-81710000D01*
X134324363Y-81710000D01*
X134192793Y-81797912D01*
G36*
X126490001Y-87654803D02*
G01*
X126490000Y-89304464D01*
X126421414Y-89407111D01*
X126350932Y-89577271D01*
X126315000Y-89757911D01*
X126315000Y-89942089D01*
X126350932Y-90122729D01*
X126421414Y-90292889D01*
X126523738Y-90446028D01*
X126653972Y-90576262D01*
X126807111Y-90678586D01*
X126977271Y-90749068D01*
X127157911Y-90785000D01*
X127342089Y-90785000D01*
X127522729Y-90749068D01*
X127692889Y-90678586D01*
X127795535Y-90610000D01*
X129480862Y-90610000D01*
X129476007Y-90626005D01*
X129465010Y-90737658D01*
X129465010Y-90737668D01*
X129461334Y-90774990D01*
X129465010Y-90812313D01*
X129465010Y-92123536D01*
X129338289Y-92148742D01*
X129200757Y-92107023D01*
X129047500Y-92091928D01*
X128752500Y-92091928D01*
X128599243Y-92107023D01*
X128451875Y-92151726D01*
X128415000Y-92171436D01*
X128378125Y-92151726D01*
X128230757Y-92107023D01*
X128077500Y-92091928D01*
X127782500Y-92091928D01*
X127629243Y-92107023D01*
X127481875Y-92151726D01*
X127456889Y-92165081D01*
X127422729Y-92150932D01*
X127242089Y-92115000D01*
X127057911Y-92115000D01*
X126877271Y-92150932D01*
X126707111Y-92221414D01*
X126604465Y-92290000D01*
X123564802Y-92290000D01*
X122613804Y-91339003D01*
X122590001Y-91309999D01*
X122474276Y-91215026D01*
X122342247Y-91144454D01*
X122198986Y-91100997D01*
X122087333Y-91090000D01*
X122087322Y-91090000D01*
X122050000Y-91086324D01*
X122012678Y-91090000D01*
X121152323Y-91090000D01*
X121114998Y-91086324D01*
X121077673Y-91090000D01*
X121077665Y-91090000D01*
X120966012Y-91100997D01*
X120822751Y-91144454D01*
X120818836Y-91146546D01*
X120696028Y-91023738D01*
X120542889Y-90921414D01*
X120372729Y-90850932D01*
X120192089Y-90815000D01*
X120007911Y-90815000D01*
X119827271Y-90850932D01*
X119657111Y-90921414D01*
X119503972Y-91023738D01*
X119373738Y-91153972D01*
X119271414Y-91307111D01*
X119200932Y-91477271D01*
X119165000Y-91657911D01*
X119165000Y-91720299D01*
X119150000Y-91721777D01*
X119050000Y-91711928D01*
X118600000Y-91711928D01*
X118500000Y-91721777D01*
X118400000Y-91711928D01*
X117950000Y-91711928D01*
X117850000Y-91721777D01*
X117750000Y-91711928D01*
X117300000Y-91711928D01*
X117200000Y-91721777D01*
X117100000Y-91711928D01*
X116650000Y-91711928D01*
X116525518Y-91724188D01*
X116405820Y-91760498D01*
X116295506Y-91819463D01*
X116198815Y-91898815D01*
X116182459Y-91918745D01*
X116175679Y-91906060D01*
X116110000Y-91826030D01*
X116110000Y-91775448D01*
X116221028Y-91701262D01*
X116351262Y-91571028D01*
X116453586Y-91417889D01*
X116524068Y-91247729D01*
X116560000Y-91067089D01*
X116560000Y-90882911D01*
X116526148Y-90712730D01*
X116563986Y-90709003D01*
X116707247Y-90665546D01*
X116839276Y-90594974D01*
X116955001Y-90500001D01*
X116978804Y-90470997D01*
X118686004Y-88763798D01*
X118715001Y-88740001D01*
X118809974Y-88624276D01*
X118830968Y-88585000D01*
X118952002Y-88585000D01*
X118952002Y-88510841D01*
X118997082Y-88535806D01*
X119049223Y-88552473D01*
X119081750Y-88585000D01*
X119150000Y-88577568D01*
X119218250Y-88585000D01*
X119250777Y-88552473D01*
X119302918Y-88535806D01*
X119412343Y-88475208D01*
X119474720Y-88422445D01*
X119545506Y-88480537D01*
X119655820Y-88539502D01*
X119699503Y-88552753D01*
X119731750Y-88585000D01*
X119796843Y-88577912D01*
X119900000Y-88588072D01*
X120120675Y-88588072D01*
X120140027Y-88624276D01*
X120235000Y-88740001D01*
X120350725Y-88834974D01*
X120482754Y-88905546D01*
X120626015Y-88949003D01*
X120775000Y-88963677D01*
X120923986Y-88949003D01*
X121067247Y-88905546D01*
X121199276Y-88834974D01*
X121315001Y-88740001D01*
X121409974Y-88624276D01*
X121429326Y-88588072D01*
X121650000Y-88588072D01*
X121774482Y-88575812D01*
X121894180Y-88539502D01*
X122004494Y-88480537D01*
X122101185Y-88401185D01*
X122180537Y-88304494D01*
X122239502Y-88194180D01*
X122275812Y-88074482D01*
X122288072Y-87950000D01*
X122288072Y-86722002D01*
X122392889Y-86678586D01*
X122546028Y-86576262D01*
X122676262Y-86446028D01*
X122778586Y-86292889D01*
X122849068Y-86122729D01*
X122885000Y-85942089D01*
X122885000Y-85757911D01*
X122849068Y-85577271D01*
X122778586Y-85407111D01*
X122713699Y-85310000D01*
X124145199Y-85310000D01*
X126490001Y-87654803D01*
G37*
X126490001Y-87654803D02*
X126490000Y-89304464D01*
X126421414Y-89407111D01*
X126350932Y-89577271D01*
X126315000Y-89757911D01*
X126315000Y-89942089D01*
X126350932Y-90122729D01*
X126421414Y-90292889D01*
X126523738Y-90446028D01*
X126653972Y-90576262D01*
X126807111Y-90678586D01*
X126977271Y-90749068D01*
X127157911Y-90785000D01*
X127342089Y-90785000D01*
X127522729Y-90749068D01*
X127692889Y-90678586D01*
X127795535Y-90610000D01*
X129480862Y-90610000D01*
X129476007Y-90626005D01*
X129465010Y-90737658D01*
X129465010Y-90737668D01*
X129461334Y-90774990D01*
X129465010Y-90812313D01*
X129465010Y-92123536D01*
X129338289Y-92148742D01*
X129200757Y-92107023D01*
X129047500Y-92091928D01*
X128752500Y-92091928D01*
X128599243Y-92107023D01*
X128451875Y-92151726D01*
X128415000Y-92171436D01*
X128378125Y-92151726D01*
X128230757Y-92107023D01*
X128077500Y-92091928D01*
X127782500Y-92091928D01*
X127629243Y-92107023D01*
X127481875Y-92151726D01*
X127456889Y-92165081D01*
X127422729Y-92150932D01*
X127242089Y-92115000D01*
X127057911Y-92115000D01*
X126877271Y-92150932D01*
X126707111Y-92221414D01*
X126604465Y-92290000D01*
X123564802Y-92290000D01*
X122613804Y-91339003D01*
X122590001Y-91309999D01*
X122474276Y-91215026D01*
X122342247Y-91144454D01*
X122198986Y-91100997D01*
X122087333Y-91090000D01*
X122087322Y-91090000D01*
X122050000Y-91086324D01*
X122012678Y-91090000D01*
X121152323Y-91090000D01*
X121114998Y-91086324D01*
X121077673Y-91090000D01*
X121077665Y-91090000D01*
X120966012Y-91100997D01*
X120822751Y-91144454D01*
X120818836Y-91146546D01*
X120696028Y-91023738D01*
X120542889Y-90921414D01*
X120372729Y-90850932D01*
X120192089Y-90815000D01*
X120007911Y-90815000D01*
X119827271Y-90850932D01*
X119657111Y-90921414D01*
X119503972Y-91023738D01*
X119373738Y-91153972D01*
X119271414Y-91307111D01*
X119200932Y-91477271D01*
X119165000Y-91657911D01*
X119165000Y-91720299D01*
X119150000Y-91721777D01*
X119050000Y-91711928D01*
X118600000Y-91711928D01*
X118500000Y-91721777D01*
X118400000Y-91711928D01*
X117950000Y-91711928D01*
X117850000Y-91721777D01*
X117750000Y-91711928D01*
X117300000Y-91711928D01*
X117200000Y-91721777D01*
X117100000Y-91711928D01*
X116650000Y-91711928D01*
X116525518Y-91724188D01*
X116405820Y-91760498D01*
X116295506Y-91819463D01*
X116198815Y-91898815D01*
X116182459Y-91918745D01*
X116175679Y-91906060D01*
X116110000Y-91826030D01*
X116110000Y-91775448D01*
X116221028Y-91701262D01*
X116351262Y-91571028D01*
X116453586Y-91417889D01*
X116524068Y-91247729D01*
X116560000Y-91067089D01*
X116560000Y-90882911D01*
X116526148Y-90712730D01*
X116563986Y-90709003D01*
X116707247Y-90665546D01*
X116839276Y-90594974D01*
X116955001Y-90500001D01*
X116978804Y-90470997D01*
X118686004Y-88763798D01*
X118715001Y-88740001D01*
X118809974Y-88624276D01*
X118830968Y-88585000D01*
X118952002Y-88585000D01*
X118952002Y-88510841D01*
X118997082Y-88535806D01*
X119049223Y-88552473D01*
X119081750Y-88585000D01*
X119150000Y-88577568D01*
X119218250Y-88585000D01*
X119250777Y-88552473D01*
X119302918Y-88535806D01*
X119412343Y-88475208D01*
X119474720Y-88422445D01*
X119545506Y-88480537D01*
X119655820Y-88539502D01*
X119699503Y-88552753D01*
X119731750Y-88585000D01*
X119796843Y-88577912D01*
X119900000Y-88588072D01*
X120120675Y-88588072D01*
X120140027Y-88624276D01*
X120235000Y-88740001D01*
X120350725Y-88834974D01*
X120482754Y-88905546D01*
X120626015Y-88949003D01*
X120775000Y-88963677D01*
X120923986Y-88949003D01*
X121067247Y-88905546D01*
X121199276Y-88834974D01*
X121315001Y-88740001D01*
X121409974Y-88624276D01*
X121429326Y-88588072D01*
X121650000Y-88588072D01*
X121774482Y-88575812D01*
X121894180Y-88539502D01*
X122004494Y-88480537D01*
X122101185Y-88401185D01*
X122180537Y-88304494D01*
X122239502Y-88194180D01*
X122275812Y-88074482D01*
X122288072Y-87950000D01*
X122288072Y-86722002D01*
X122392889Y-86678586D01*
X122546028Y-86576262D01*
X122676262Y-86446028D01*
X122778586Y-86292889D01*
X122849068Y-86122729D01*
X122885000Y-85942089D01*
X122885000Y-85757911D01*
X122849068Y-85577271D01*
X122778586Y-85407111D01*
X122713699Y-85310000D01*
X124145199Y-85310000D01*
X126490001Y-87654803D01*
M02*
