G04 #@! TF.GenerationSoftware,KiCad,Pcbnew,(5.1.5-0)*
G04 #@! TF.CreationDate,2022-03-31T12:05:24-06:00*
G04 #@! TF.ProjectId,two-wire-single,74776f2d-7769-4726-952d-73696e676c65,rev?*
G04 #@! TF.SameCoordinates,Original*
G04 #@! TF.FileFunction,Other,User*
%FSLAX46Y46*%
G04 Gerber Fmt 4.6, Leading zero omitted, Abs format (unit mm)*
G04 Created by KiCad (PCBNEW (5.1.5-0)) date 2022-03-31 12:05:24*
%MOMM*%
%LPD*%
G04 APERTURE LIST*
%ADD10C,0.050000*%
G04 APERTURE END LIST*
D10*
X113850000Y-85300000D02*
X113850000Y-81750000D01*
X117400000Y-85300000D02*
X113850000Y-85300000D01*
X117400000Y-81750000D02*
X117400000Y-85300000D01*
X113850000Y-81750000D02*
X117400000Y-81750000D01*
X132470000Y-86600000D02*
X132470000Y-94400000D01*
X139030000Y-86600000D02*
X132470000Y-86600000D01*
X139030000Y-94400000D02*
X139030000Y-86600000D01*
X132470000Y-94400000D02*
X139030000Y-94400000D01*
X131130000Y-94850000D02*
X131130000Y-98150000D01*
X129670000Y-94850000D02*
X131130000Y-94850000D01*
X129670000Y-98150000D02*
X129670000Y-94850000D01*
X131130000Y-98150000D02*
X129670000Y-98150000D01*
X132780000Y-94850000D02*
X132780000Y-98150000D01*
X131320000Y-94850000D02*
X132780000Y-94850000D01*
X131320000Y-98150000D02*
X131320000Y-94850000D01*
X132780000Y-98150000D02*
X131320000Y-98150000D01*
X105450000Y-84000000D02*
G75*
G03X105450000Y-84000000I-2450000J0D01*
G01*
X138450000Y-84000000D02*
G75*
G03X138450000Y-84000000I-2450000J0D01*
G01*
X105450000Y-97000000D02*
G75*
G03X105450000Y-97000000I-2450000J0D01*
G01*
X138450000Y-97000000D02*
G75*
G03X138450000Y-97000000I-2450000J0D01*
G01*
X106700000Y-93900000D02*
X106700000Y-90600000D01*
X106700000Y-93900000D02*
X109200000Y-93900000D01*
X109200000Y-90600000D02*
X106700000Y-90600000D01*
X109200000Y-90600000D02*
X109200000Y-93900000D01*
X106700000Y-90400000D02*
X106700000Y-87100000D01*
X106700000Y-90400000D02*
X109200000Y-90400000D01*
X109200000Y-87100000D02*
X106700000Y-87100000D01*
X109200000Y-87100000D02*
X109200000Y-90400000D01*
X120620000Y-84080000D02*
X122480000Y-84080000D01*
X120620000Y-85020000D02*
X120620000Y-84080000D01*
X122480000Y-85020000D02*
X120620000Y-85020000D01*
X122480000Y-84080000D02*
X122480000Y-85020000D01*
X110220000Y-89580000D02*
X112080000Y-89580000D01*
X110220000Y-90520000D02*
X110220000Y-89580000D01*
X112080000Y-90520000D02*
X110220000Y-90520000D01*
X112080000Y-89580000D02*
X112080000Y-90520000D01*
X110235000Y-88480000D02*
X112095000Y-88480000D01*
X110235000Y-89420000D02*
X110235000Y-88480000D01*
X112095000Y-89420000D02*
X110235000Y-89420000D01*
X112095000Y-88480000D02*
X112095000Y-89420000D01*
X112098000Y-92770000D02*
X110238000Y-92770000D01*
X112098000Y-91830000D02*
X112098000Y-92770000D01*
X110238000Y-91830000D02*
X112098000Y-91830000D01*
X110238000Y-92770000D02*
X110238000Y-91830000D01*
X120180000Y-85020000D02*
X118320000Y-85020000D01*
X120180000Y-84080000D02*
X120180000Y-85020000D01*
X118320000Y-84080000D02*
X120180000Y-84080000D01*
X118320000Y-85020000D02*
X118320000Y-84080000D01*
X119195000Y-96220000D02*
X117335000Y-96220000D01*
X119195000Y-95280000D02*
X119195000Y-96220000D01*
X117335000Y-95280000D02*
X119195000Y-95280000D01*
X117335000Y-96220000D02*
X117335000Y-95280000D01*
X121580000Y-95420000D02*
X119720000Y-95420000D01*
X121580000Y-94480000D02*
X121580000Y-95420000D01*
X119720000Y-94480000D02*
X121580000Y-94480000D01*
X119720000Y-95420000D02*
X119720000Y-94480000D01*
X115820000Y-92045000D02*
X115820000Y-93905000D01*
X114880000Y-92045000D02*
X115820000Y-92045000D01*
X114880000Y-93905000D02*
X114880000Y-92045000D01*
X115820000Y-93905000D02*
X114880000Y-93905000D01*
X113980000Y-90405000D02*
X113980000Y-88545000D01*
X114920000Y-90405000D02*
X113980000Y-90405000D01*
X114920000Y-88545000D02*
X114920000Y-90405000D01*
X113980000Y-88545000D02*
X114920000Y-88545000D01*
X112580000Y-91465000D02*
X112580000Y-89605000D01*
X113520000Y-91465000D02*
X112580000Y-91465000D01*
X113520000Y-89605000D02*
X113520000Y-91465000D01*
X112580000Y-89605000D02*
X113520000Y-89605000D01*
X112580000Y-89380000D02*
X112580000Y-87520000D01*
X113520000Y-89380000D02*
X112580000Y-89380000D01*
X113520000Y-87520000D02*
X113520000Y-89380000D01*
X112580000Y-87520000D02*
X113520000Y-87520000D01*
X106530000Y-94450000D02*
X106530000Y-86650000D01*
X99970000Y-94450000D02*
X106530000Y-94450000D01*
X99970000Y-86650000D02*
X99970000Y-94450000D01*
X106530000Y-86650000D02*
X99970000Y-86650000D01*
X116350000Y-86200000D02*
X116350000Y-94100000D01*
X122050000Y-86200000D02*
X122050000Y-94100000D01*
X122050000Y-94100000D02*
X116350000Y-94100000D01*
X122050000Y-86200000D02*
X116350000Y-86200000D01*
X119600000Y-95800000D02*
X123300000Y-95800000D01*
X119600000Y-97700000D02*
X119600000Y-95800000D01*
X123300000Y-97700000D02*
X119600000Y-97700000D01*
X123300000Y-95800000D02*
X123300000Y-97700000D01*
M02*
