G04 #@! TF.GenerationSoftware,KiCad,Pcbnew,(5.1.5-0)*
G04 #@! TF.CreationDate,2022-04-01T08:47:15-06:00*
G04 #@! TF.ProjectId,two-wire-single,74776f2d-7769-4726-952d-73696e676c65,rev?*
G04 #@! TF.SameCoordinates,Original*
G04 #@! TF.FileFunction,Copper,L4,Bot*
G04 #@! TF.FilePolarity,Positive*
%FSLAX46Y46*%
G04 Gerber Fmt 4.6, Leading zero omitted, Abs format (unit mm)*
G04 Created by KiCad (PCBNEW (5.1.5-0)) date 2022-04-01 08:47:15*
%MOMM*%
%LPD*%
G04 APERTURE LIST*
%ADD10R,1.700000X1.700000*%
%ADD11C,0.700000*%
%ADD12C,4.400000*%
%ADD13R,1.000000X1.500000*%
%ADD14C,0.100000*%
%ADD15C,0.600000*%
%ADD16C,0.250000*%
%ADD17C,0.254000*%
G04 APERTURE END LIST*
D10*
X115650000Y-83550000D03*
D11*
X104166726Y-82833274D03*
X103000000Y-82350000D03*
X101833274Y-82833274D03*
X101350000Y-84000000D03*
X101833274Y-85166726D03*
X103000000Y-85650000D03*
X104166726Y-85166726D03*
X104650000Y-84000000D03*
D12*
X103000000Y-84000000D03*
D11*
X137166726Y-82833274D03*
X136000000Y-82350000D03*
X134833274Y-82833274D03*
X134350000Y-84000000D03*
X134833274Y-85166726D03*
X136000000Y-85650000D03*
X137166726Y-85166726D03*
X137650000Y-84000000D03*
D12*
X136000000Y-84000000D03*
D11*
X104166726Y-95833274D03*
X103000000Y-95350000D03*
X101833274Y-95833274D03*
X101350000Y-97000000D03*
X101833274Y-98166726D03*
X103000000Y-98650000D03*
X104166726Y-98166726D03*
X104650000Y-97000000D03*
D12*
X103000000Y-97000000D03*
D11*
X137166726Y-95833274D03*
X136000000Y-95350000D03*
X134833274Y-95833274D03*
X134350000Y-97000000D03*
X134833274Y-98166726D03*
X136000000Y-98650000D03*
X137166726Y-98166726D03*
X137650000Y-97000000D03*
D12*
X136000000Y-97000000D03*
D13*
X127150000Y-96050000D03*
G04 #@! TA.AperFunction,SMDPad,CuDef*
D14*
G36*
X128450000Y-95300602D02*
G01*
X128474534Y-95300602D01*
X128523365Y-95305412D01*
X128571490Y-95314984D01*
X128618445Y-95329228D01*
X128663778Y-95348005D01*
X128707051Y-95371136D01*
X128747850Y-95398396D01*
X128785779Y-95429524D01*
X128820476Y-95464221D01*
X128851604Y-95502150D01*
X128878864Y-95542949D01*
X128901995Y-95586222D01*
X128920772Y-95631555D01*
X128935016Y-95678510D01*
X128944588Y-95726635D01*
X128949398Y-95775466D01*
X128949398Y-95800000D01*
X128950000Y-95800000D01*
X128950000Y-96300000D01*
X128949398Y-96300000D01*
X128949398Y-96324534D01*
X128944588Y-96373365D01*
X128935016Y-96421490D01*
X128920772Y-96468445D01*
X128901995Y-96513778D01*
X128878864Y-96557051D01*
X128851604Y-96597850D01*
X128820476Y-96635779D01*
X128785779Y-96670476D01*
X128747850Y-96701604D01*
X128707051Y-96728864D01*
X128663778Y-96751995D01*
X128618445Y-96770772D01*
X128571490Y-96785016D01*
X128523365Y-96794588D01*
X128474534Y-96799398D01*
X128450000Y-96799398D01*
X128450000Y-96800000D01*
X127900000Y-96800000D01*
X127900000Y-95300000D01*
X128450000Y-95300000D01*
X128450000Y-95300602D01*
G37*
G04 #@! TD.AperFunction*
G04 #@! TA.AperFunction,SMDPad,CuDef*
G36*
X126400000Y-96800000D02*
G01*
X125850000Y-96800000D01*
X125850000Y-96799398D01*
X125825466Y-96799398D01*
X125776635Y-96794588D01*
X125728510Y-96785016D01*
X125681555Y-96770772D01*
X125636222Y-96751995D01*
X125592949Y-96728864D01*
X125552150Y-96701604D01*
X125514221Y-96670476D01*
X125479524Y-96635779D01*
X125448396Y-96597850D01*
X125421136Y-96557051D01*
X125398005Y-96513778D01*
X125379228Y-96468445D01*
X125364984Y-96421490D01*
X125355412Y-96373365D01*
X125350602Y-96324534D01*
X125350602Y-96300000D01*
X125350000Y-96300000D01*
X125350000Y-95800000D01*
X125350602Y-95800000D01*
X125350602Y-95775466D01*
X125355412Y-95726635D01*
X125364984Y-95678510D01*
X125379228Y-95631555D01*
X125398005Y-95586222D01*
X125421136Y-95542949D01*
X125448396Y-95502150D01*
X125479524Y-95464221D01*
X125514221Y-95429524D01*
X125552150Y-95398396D01*
X125592949Y-95371136D01*
X125636222Y-95348005D01*
X125681555Y-95329228D01*
X125728510Y-95314984D01*
X125776635Y-95305412D01*
X125825466Y-95300602D01*
X125850000Y-95300602D01*
X125850000Y-95300000D01*
X126400000Y-95300000D01*
X126400000Y-96800000D01*
G37*
G04 #@! TD.AperFunction*
D13*
X127150000Y-93050000D03*
G04 #@! TA.AperFunction,SMDPad,CuDef*
D14*
G36*
X128450000Y-92300602D02*
G01*
X128474534Y-92300602D01*
X128523365Y-92305412D01*
X128571490Y-92314984D01*
X128618445Y-92329228D01*
X128663778Y-92348005D01*
X128707051Y-92371136D01*
X128747850Y-92398396D01*
X128785779Y-92429524D01*
X128820476Y-92464221D01*
X128851604Y-92502150D01*
X128878864Y-92542949D01*
X128901995Y-92586222D01*
X128920772Y-92631555D01*
X128935016Y-92678510D01*
X128944588Y-92726635D01*
X128949398Y-92775466D01*
X128949398Y-92800000D01*
X128950000Y-92800000D01*
X128950000Y-93300000D01*
X128949398Y-93300000D01*
X128949398Y-93324534D01*
X128944588Y-93373365D01*
X128935016Y-93421490D01*
X128920772Y-93468445D01*
X128901995Y-93513778D01*
X128878864Y-93557051D01*
X128851604Y-93597850D01*
X128820476Y-93635779D01*
X128785779Y-93670476D01*
X128747850Y-93701604D01*
X128707051Y-93728864D01*
X128663778Y-93751995D01*
X128618445Y-93770772D01*
X128571490Y-93785016D01*
X128523365Y-93794588D01*
X128474534Y-93799398D01*
X128450000Y-93799398D01*
X128450000Y-93800000D01*
X127900000Y-93800000D01*
X127900000Y-92300000D01*
X128450000Y-92300000D01*
X128450000Y-92300602D01*
G37*
G04 #@! TD.AperFunction*
G04 #@! TA.AperFunction,SMDPad,CuDef*
G36*
X126400000Y-93800000D02*
G01*
X125850000Y-93800000D01*
X125850000Y-93799398D01*
X125825466Y-93799398D01*
X125776635Y-93794588D01*
X125728510Y-93785016D01*
X125681555Y-93770772D01*
X125636222Y-93751995D01*
X125592949Y-93728864D01*
X125552150Y-93701604D01*
X125514221Y-93670476D01*
X125479524Y-93635779D01*
X125448396Y-93597850D01*
X125421136Y-93557051D01*
X125398005Y-93513778D01*
X125379228Y-93468445D01*
X125364984Y-93421490D01*
X125355412Y-93373365D01*
X125350602Y-93324534D01*
X125350602Y-93300000D01*
X125350000Y-93300000D01*
X125350000Y-92800000D01*
X125350602Y-92800000D01*
X125350602Y-92775466D01*
X125355412Y-92726635D01*
X125364984Y-92678510D01*
X125379228Y-92631555D01*
X125398005Y-92586222D01*
X125421136Y-92542949D01*
X125448396Y-92502150D01*
X125479524Y-92464221D01*
X125514221Y-92429524D01*
X125552150Y-92398396D01*
X125592949Y-92371136D01*
X125636222Y-92348005D01*
X125681555Y-92329228D01*
X125728510Y-92314984D01*
X125776635Y-92305412D01*
X125825466Y-92300602D01*
X125850000Y-92300602D01*
X125850000Y-92300000D01*
X126400000Y-92300000D01*
X126400000Y-93800000D01*
G37*
G04 #@! TD.AperFunction*
D13*
X127250000Y-89850000D03*
G04 #@! TA.AperFunction,SMDPad,CuDef*
D14*
G36*
X128550000Y-89100602D02*
G01*
X128574534Y-89100602D01*
X128623365Y-89105412D01*
X128671490Y-89114984D01*
X128718445Y-89129228D01*
X128763778Y-89148005D01*
X128807051Y-89171136D01*
X128847850Y-89198396D01*
X128885779Y-89229524D01*
X128920476Y-89264221D01*
X128951604Y-89302150D01*
X128978864Y-89342949D01*
X129001995Y-89386222D01*
X129020772Y-89431555D01*
X129035016Y-89478510D01*
X129044588Y-89526635D01*
X129049398Y-89575466D01*
X129049398Y-89600000D01*
X129050000Y-89600000D01*
X129050000Y-90100000D01*
X129049398Y-90100000D01*
X129049398Y-90124534D01*
X129044588Y-90173365D01*
X129035016Y-90221490D01*
X129020772Y-90268445D01*
X129001995Y-90313778D01*
X128978864Y-90357051D01*
X128951604Y-90397850D01*
X128920476Y-90435779D01*
X128885779Y-90470476D01*
X128847850Y-90501604D01*
X128807051Y-90528864D01*
X128763778Y-90551995D01*
X128718445Y-90570772D01*
X128671490Y-90585016D01*
X128623365Y-90594588D01*
X128574534Y-90599398D01*
X128550000Y-90599398D01*
X128550000Y-90600000D01*
X128000000Y-90600000D01*
X128000000Y-89100000D01*
X128550000Y-89100000D01*
X128550000Y-89100602D01*
G37*
G04 #@! TD.AperFunction*
G04 #@! TA.AperFunction,SMDPad,CuDef*
G36*
X126500000Y-90600000D02*
G01*
X125950000Y-90600000D01*
X125950000Y-90599398D01*
X125925466Y-90599398D01*
X125876635Y-90594588D01*
X125828510Y-90585016D01*
X125781555Y-90570772D01*
X125736222Y-90551995D01*
X125692949Y-90528864D01*
X125652150Y-90501604D01*
X125614221Y-90470476D01*
X125579524Y-90435779D01*
X125548396Y-90397850D01*
X125521136Y-90357051D01*
X125498005Y-90313778D01*
X125479228Y-90268445D01*
X125464984Y-90221490D01*
X125455412Y-90173365D01*
X125450602Y-90124534D01*
X125450602Y-90100000D01*
X125450000Y-90100000D01*
X125450000Y-89600000D01*
X125450602Y-89600000D01*
X125450602Y-89575466D01*
X125455412Y-89526635D01*
X125464984Y-89478510D01*
X125479228Y-89431555D01*
X125498005Y-89386222D01*
X125521136Y-89342949D01*
X125548396Y-89302150D01*
X125579524Y-89264221D01*
X125614221Y-89229524D01*
X125652150Y-89198396D01*
X125692949Y-89171136D01*
X125736222Y-89148005D01*
X125781555Y-89129228D01*
X125828510Y-89114984D01*
X125876635Y-89105412D01*
X125925466Y-89100602D01*
X125950000Y-89100602D01*
X125950000Y-89100000D01*
X126500000Y-89100000D01*
X126500000Y-90600000D01*
G37*
G04 #@! TD.AperFunction*
D13*
X127250000Y-86150000D03*
G04 #@! TA.AperFunction,SMDPad,CuDef*
D14*
G36*
X128550000Y-85400602D02*
G01*
X128574534Y-85400602D01*
X128623365Y-85405412D01*
X128671490Y-85414984D01*
X128718445Y-85429228D01*
X128763778Y-85448005D01*
X128807051Y-85471136D01*
X128847850Y-85498396D01*
X128885779Y-85529524D01*
X128920476Y-85564221D01*
X128951604Y-85602150D01*
X128978864Y-85642949D01*
X129001995Y-85686222D01*
X129020772Y-85731555D01*
X129035016Y-85778510D01*
X129044588Y-85826635D01*
X129049398Y-85875466D01*
X129049398Y-85900000D01*
X129050000Y-85900000D01*
X129050000Y-86400000D01*
X129049398Y-86400000D01*
X129049398Y-86424534D01*
X129044588Y-86473365D01*
X129035016Y-86521490D01*
X129020772Y-86568445D01*
X129001995Y-86613778D01*
X128978864Y-86657051D01*
X128951604Y-86697850D01*
X128920476Y-86735779D01*
X128885779Y-86770476D01*
X128847850Y-86801604D01*
X128807051Y-86828864D01*
X128763778Y-86851995D01*
X128718445Y-86870772D01*
X128671490Y-86885016D01*
X128623365Y-86894588D01*
X128574534Y-86899398D01*
X128550000Y-86899398D01*
X128550000Y-86900000D01*
X128000000Y-86900000D01*
X128000000Y-85400000D01*
X128550000Y-85400000D01*
X128550000Y-85400602D01*
G37*
G04 #@! TD.AperFunction*
G04 #@! TA.AperFunction,SMDPad,CuDef*
G36*
X126500000Y-86900000D02*
G01*
X125950000Y-86900000D01*
X125950000Y-86899398D01*
X125925466Y-86899398D01*
X125876635Y-86894588D01*
X125828510Y-86885016D01*
X125781555Y-86870772D01*
X125736222Y-86851995D01*
X125692949Y-86828864D01*
X125652150Y-86801604D01*
X125614221Y-86770476D01*
X125579524Y-86735779D01*
X125548396Y-86697850D01*
X125521136Y-86657051D01*
X125498005Y-86613778D01*
X125479228Y-86568445D01*
X125464984Y-86521490D01*
X125455412Y-86473365D01*
X125450602Y-86424534D01*
X125450602Y-86400000D01*
X125450000Y-86400000D01*
X125450000Y-85900000D01*
X125450602Y-85900000D01*
X125450602Y-85875466D01*
X125455412Y-85826635D01*
X125464984Y-85778510D01*
X125479228Y-85731555D01*
X125498005Y-85686222D01*
X125521136Y-85642949D01*
X125548396Y-85602150D01*
X125579524Y-85564221D01*
X125614221Y-85529524D01*
X125652150Y-85498396D01*
X125692949Y-85471136D01*
X125736222Y-85448005D01*
X125781555Y-85429228D01*
X125828510Y-85414984D01*
X125876635Y-85405412D01*
X125925466Y-85400602D01*
X125950000Y-85400602D01*
X125950000Y-85400000D01*
X126500000Y-85400000D01*
X126500000Y-86900000D01*
G37*
G04 #@! TD.AperFunction*
D15*
X122250000Y-94950000D03*
X118750000Y-89250000D03*
X120750000Y-90250000D03*
X112050000Y-93550000D03*
X113050000Y-92050000D03*
X127250000Y-86150000D03*
X132050000Y-92200000D03*
X118150000Y-94550000D03*
X108350000Y-94050000D03*
X117201808Y-94501808D03*
X110650000Y-93350000D03*
X127250000Y-89850000D03*
X135450000Y-91250000D03*
X132000000Y-91200000D03*
X130200000Y-89850000D03*
X115625000Y-90975000D03*
X115925000Y-87650000D03*
X120968090Y-85773551D03*
X121950000Y-85850000D03*
X120100000Y-91750000D03*
X127150000Y-96050000D03*
X127150000Y-93050000D03*
X130850010Y-93050000D03*
X129600010Y-93050000D03*
D16*
X108350000Y-94250000D02*
X108350000Y-94050000D01*
X132050000Y-91250000D02*
X132000000Y-91200000D01*
X135450000Y-91250000D02*
X132050000Y-91250000D01*
X130650000Y-89850000D02*
X132000000Y-91200000D01*
X130200000Y-89850000D02*
X130650000Y-89850000D01*
X115925000Y-87850000D02*
X115925000Y-87650000D01*
X120968090Y-85773551D02*
X122091641Y-84650000D01*
X128450000Y-95302408D02*
X128450000Y-96050000D01*
X128450000Y-85302408D02*
X128450000Y-95302408D01*
X127797592Y-84650000D02*
X128450000Y-85302408D01*
X122091641Y-84650000D02*
X127797592Y-84650000D01*
X125850000Y-86250000D02*
X125950000Y-86150000D01*
X125850000Y-96050000D02*
X125850000Y-86250000D01*
X125950000Y-86150000D02*
X122350000Y-86150000D01*
X122050000Y-85850000D02*
X121950000Y-85850000D01*
X122350000Y-86150000D02*
X122050000Y-85850000D01*
X130850010Y-93050000D02*
X129600010Y-93050000D01*
D17*
G36*
X101189830Y-82010225D02*
G01*
X103000000Y-83820395D01*
X104810170Y-82010225D01*
X104623988Y-81710000D01*
X134376012Y-81710000D01*
X134189830Y-82010225D01*
X136000000Y-83820395D01*
X137810170Y-82010225D01*
X137623988Y-81710000D01*
X138290000Y-81710000D01*
X138290000Y-82376012D01*
X137989775Y-82189830D01*
X136179605Y-84000000D01*
X137989775Y-85810170D01*
X138290000Y-85623987D01*
X138290001Y-95376013D01*
X137989775Y-95189830D01*
X136179605Y-97000000D01*
X137989775Y-98810170D01*
X138290001Y-98623987D01*
X138290001Y-99290000D01*
X137623988Y-99290000D01*
X137810170Y-98989775D01*
X136000000Y-97179605D01*
X134189830Y-98989775D01*
X134376012Y-99290000D01*
X104623988Y-99290000D01*
X104810170Y-98989775D01*
X103000000Y-97179605D01*
X101189830Y-98989775D01*
X101376012Y-99290000D01*
X100710000Y-99290000D01*
X100710000Y-98623988D01*
X101010225Y-98810170D01*
X102820395Y-97000000D01*
X103179605Y-97000000D01*
X104989775Y-98810170D01*
X105377018Y-98570024D01*
X105637641Y-98076123D01*
X105796901Y-97540867D01*
X105848678Y-96984826D01*
X105790981Y-96429368D01*
X105626028Y-95895839D01*
X105377018Y-95429976D01*
X104989775Y-95189830D01*
X103179605Y-97000000D01*
X102820395Y-97000000D01*
X101010225Y-95189830D01*
X100710000Y-95376012D01*
X100710000Y-95010225D01*
X101189830Y-95010225D01*
X103000000Y-96820395D01*
X104810170Y-95010225D01*
X104570024Y-94622982D01*
X104076123Y-94362359D01*
X103540867Y-94203099D01*
X102984826Y-94151322D01*
X102429368Y-94209019D01*
X101895839Y-94373972D01*
X101429976Y-94622982D01*
X101189830Y-95010225D01*
X100710000Y-95010225D01*
X100710000Y-93957911D01*
X107415000Y-93957911D01*
X107415000Y-94142089D01*
X107450932Y-94322729D01*
X107521414Y-94492889D01*
X107623738Y-94646028D01*
X107753972Y-94776262D01*
X107907111Y-94878586D01*
X107936710Y-94890846D01*
X108057753Y-94955546D01*
X108201014Y-94999003D01*
X108350000Y-95013677D01*
X108498985Y-94999003D01*
X108642246Y-94955546D01*
X108763286Y-94890848D01*
X108792889Y-94878586D01*
X108946028Y-94776262D01*
X109076262Y-94646028D01*
X109178586Y-94492889D01*
X109249068Y-94322729D01*
X109285000Y-94142089D01*
X109285000Y-93957911D01*
X109249068Y-93777271D01*
X109178586Y-93607111D01*
X109076262Y-93453972D01*
X108946028Y-93323738D01*
X108847511Y-93257911D01*
X109715000Y-93257911D01*
X109715000Y-93442089D01*
X109750932Y-93622729D01*
X109821414Y-93792889D01*
X109923738Y-93946028D01*
X110053972Y-94076262D01*
X110207111Y-94178586D01*
X110377271Y-94249068D01*
X110557911Y-94285000D01*
X110742089Y-94285000D01*
X110922729Y-94249068D01*
X111092889Y-94178586D01*
X111246028Y-94076262D01*
X111264667Y-94057623D01*
X111323738Y-94146028D01*
X111453972Y-94276262D01*
X111607111Y-94378586D01*
X111777271Y-94449068D01*
X111957911Y-94485000D01*
X112142089Y-94485000D01*
X112322729Y-94449068D01*
X112417726Y-94409719D01*
X116266808Y-94409719D01*
X116266808Y-94593897D01*
X116302740Y-94774537D01*
X116373222Y-94944697D01*
X116475546Y-95097836D01*
X116605780Y-95228070D01*
X116758919Y-95330394D01*
X116929079Y-95400876D01*
X117109719Y-95436808D01*
X117293897Y-95436808D01*
X117474537Y-95400876D01*
X117638702Y-95332877D01*
X117707111Y-95378586D01*
X117877271Y-95449068D01*
X118057911Y-95485000D01*
X118242089Y-95485000D01*
X118422729Y-95449068D01*
X118592889Y-95378586D01*
X118746028Y-95276262D01*
X118876262Y-95146028D01*
X118978586Y-94992889D01*
X119034495Y-94857911D01*
X121315000Y-94857911D01*
X121315000Y-95042089D01*
X121350932Y-95222729D01*
X121421414Y-95392889D01*
X121523738Y-95546028D01*
X121653972Y-95676262D01*
X121807111Y-95778586D01*
X121977271Y-95849068D01*
X122157911Y-95885000D01*
X122342089Y-95885000D01*
X122522729Y-95849068D01*
X122692889Y-95778586D01*
X122846028Y-95676262D01*
X122976262Y-95546028D01*
X123078586Y-95392889D01*
X123149068Y-95222729D01*
X123185000Y-95042089D01*
X123185000Y-94857911D01*
X123149068Y-94677271D01*
X123078586Y-94507111D01*
X122976262Y-94353972D01*
X122846028Y-94223738D01*
X122692889Y-94121414D01*
X122522729Y-94050932D01*
X122342089Y-94015000D01*
X122157911Y-94015000D01*
X121977271Y-94050932D01*
X121807111Y-94121414D01*
X121653972Y-94223738D01*
X121523738Y-94353972D01*
X121421414Y-94507111D01*
X121350932Y-94677271D01*
X121315000Y-94857911D01*
X119034495Y-94857911D01*
X119049068Y-94822729D01*
X119085000Y-94642089D01*
X119085000Y-94457911D01*
X119049068Y-94277271D01*
X118978586Y-94107111D01*
X118876262Y-93953972D01*
X118746028Y-93823738D01*
X118592889Y-93721414D01*
X118422729Y-93650932D01*
X118242089Y-93615000D01*
X118057911Y-93615000D01*
X117877271Y-93650932D01*
X117713106Y-93718931D01*
X117644697Y-93673222D01*
X117474537Y-93602740D01*
X117293897Y-93566808D01*
X117109719Y-93566808D01*
X116929079Y-93602740D01*
X116758919Y-93673222D01*
X116605780Y-93775546D01*
X116475546Y-93905780D01*
X116373222Y-94058919D01*
X116302740Y-94229079D01*
X116266808Y-94409719D01*
X112417726Y-94409719D01*
X112492889Y-94378586D01*
X112646028Y-94276262D01*
X112776262Y-94146028D01*
X112878586Y-93992889D01*
X112949068Y-93822729D01*
X112985000Y-93642089D01*
X112985000Y-93457911D01*
X112949068Y-93277271D01*
X112878586Y-93107111D01*
X112776262Y-92953972D01*
X112767177Y-92944887D01*
X112777271Y-92949068D01*
X112957911Y-92985000D01*
X113142089Y-92985000D01*
X113322729Y-92949068D01*
X113492889Y-92878586D01*
X113646028Y-92776262D01*
X113776262Y-92646028D01*
X113878586Y-92492889D01*
X113949068Y-92322729D01*
X113985000Y-92142089D01*
X113985000Y-91957911D01*
X113949068Y-91777271D01*
X113878586Y-91607111D01*
X113776262Y-91453972D01*
X113646028Y-91323738D01*
X113492889Y-91221414D01*
X113322729Y-91150932D01*
X113142089Y-91115000D01*
X112957911Y-91115000D01*
X112777271Y-91150932D01*
X112607111Y-91221414D01*
X112453972Y-91323738D01*
X112323738Y-91453972D01*
X112221414Y-91607111D01*
X112150932Y-91777271D01*
X112115000Y-91957911D01*
X112115000Y-92142089D01*
X112150932Y-92322729D01*
X112221414Y-92492889D01*
X112323738Y-92646028D01*
X112332823Y-92655113D01*
X112322729Y-92650932D01*
X112142089Y-92615000D01*
X111957911Y-92615000D01*
X111777271Y-92650932D01*
X111607111Y-92721414D01*
X111453972Y-92823738D01*
X111435333Y-92842377D01*
X111376262Y-92753972D01*
X111246028Y-92623738D01*
X111092889Y-92521414D01*
X110922729Y-92450932D01*
X110742089Y-92415000D01*
X110557911Y-92415000D01*
X110377271Y-92450932D01*
X110207111Y-92521414D01*
X110053972Y-92623738D01*
X109923738Y-92753972D01*
X109821414Y-92907111D01*
X109750932Y-93077271D01*
X109715000Y-93257911D01*
X108847511Y-93257911D01*
X108792889Y-93221414D01*
X108622729Y-93150932D01*
X108442089Y-93115000D01*
X108257911Y-93115000D01*
X108077271Y-93150932D01*
X107907111Y-93221414D01*
X107753972Y-93323738D01*
X107623738Y-93453972D01*
X107521414Y-93607111D01*
X107450932Y-93777271D01*
X107415000Y-93957911D01*
X100710000Y-93957911D01*
X100710000Y-90882911D01*
X114690000Y-90882911D01*
X114690000Y-91067089D01*
X114725932Y-91247729D01*
X114796414Y-91417889D01*
X114898738Y-91571028D01*
X115028972Y-91701262D01*
X115182111Y-91803586D01*
X115352271Y-91874068D01*
X115532911Y-91910000D01*
X115717089Y-91910000D01*
X115897729Y-91874068D01*
X116067889Y-91803586D01*
X116221028Y-91701262D01*
X116264379Y-91657911D01*
X119165000Y-91657911D01*
X119165000Y-91842089D01*
X119200932Y-92022729D01*
X119271414Y-92192889D01*
X119373738Y-92346028D01*
X119503972Y-92476262D01*
X119657111Y-92578586D01*
X119827271Y-92649068D01*
X120007911Y-92685000D01*
X120192089Y-92685000D01*
X120372729Y-92649068D01*
X120542889Y-92578586D01*
X120696028Y-92476262D01*
X120826262Y-92346028D01*
X120928586Y-92192889D01*
X120999068Y-92022729D01*
X121035000Y-91842089D01*
X121035000Y-91657911D01*
X120999068Y-91477271D01*
X120928586Y-91307111D01*
X120846419Y-91184139D01*
X121022729Y-91149068D01*
X121192889Y-91078586D01*
X121346028Y-90976262D01*
X121476262Y-90846028D01*
X121578586Y-90692889D01*
X121649068Y-90522729D01*
X121685000Y-90342089D01*
X121685000Y-90157911D01*
X121649068Y-89977271D01*
X121578586Y-89807111D01*
X121476262Y-89653972D01*
X121346028Y-89523738D01*
X121192889Y-89421414D01*
X121022729Y-89350932D01*
X120842089Y-89315000D01*
X120657911Y-89315000D01*
X120477271Y-89350932D01*
X120307111Y-89421414D01*
X120153972Y-89523738D01*
X120023738Y-89653972D01*
X119921414Y-89807111D01*
X119850932Y-89977271D01*
X119815000Y-90157911D01*
X119815000Y-90342089D01*
X119850932Y-90522729D01*
X119921414Y-90692889D01*
X120003581Y-90815861D01*
X119827271Y-90850932D01*
X119657111Y-90921414D01*
X119503972Y-91023738D01*
X119373738Y-91153972D01*
X119271414Y-91307111D01*
X119200932Y-91477271D01*
X119165000Y-91657911D01*
X116264379Y-91657911D01*
X116351262Y-91571028D01*
X116453586Y-91417889D01*
X116524068Y-91247729D01*
X116560000Y-91067089D01*
X116560000Y-90882911D01*
X116524068Y-90702271D01*
X116453586Y-90532111D01*
X116351262Y-90378972D01*
X116221028Y-90248738D01*
X116067889Y-90146414D01*
X115897729Y-90075932D01*
X115717089Y-90040000D01*
X115532911Y-90040000D01*
X115352271Y-90075932D01*
X115182111Y-90146414D01*
X115028972Y-90248738D01*
X114898738Y-90378972D01*
X114796414Y-90532111D01*
X114725932Y-90702271D01*
X114690000Y-90882911D01*
X100710000Y-90882911D01*
X100710000Y-89157911D01*
X117815000Y-89157911D01*
X117815000Y-89342089D01*
X117850932Y-89522729D01*
X117921414Y-89692889D01*
X118023738Y-89846028D01*
X118153972Y-89976262D01*
X118307111Y-90078586D01*
X118477271Y-90149068D01*
X118657911Y-90185000D01*
X118842089Y-90185000D01*
X119022729Y-90149068D01*
X119192889Y-90078586D01*
X119346028Y-89976262D01*
X119476262Y-89846028D01*
X119578586Y-89692889D01*
X119649068Y-89522729D01*
X119685000Y-89342089D01*
X119685000Y-89157911D01*
X119649068Y-88977271D01*
X119578586Y-88807111D01*
X119476262Y-88653972D01*
X119346028Y-88523738D01*
X119192889Y-88421414D01*
X119022729Y-88350932D01*
X118842089Y-88315000D01*
X118657911Y-88315000D01*
X118477271Y-88350932D01*
X118307111Y-88421414D01*
X118153972Y-88523738D01*
X118023738Y-88653972D01*
X117921414Y-88807111D01*
X117850932Y-88977271D01*
X117815000Y-89157911D01*
X100710000Y-89157911D01*
X100710000Y-87557911D01*
X114990000Y-87557911D01*
X114990000Y-87742089D01*
X115025932Y-87922729D01*
X115096414Y-88092889D01*
X115198738Y-88246028D01*
X115328972Y-88376262D01*
X115482111Y-88478586D01*
X115511710Y-88490846D01*
X115632753Y-88555546D01*
X115776014Y-88599003D01*
X115925000Y-88613677D01*
X116073985Y-88599003D01*
X116217246Y-88555546D01*
X116338286Y-88490848D01*
X116367889Y-88478586D01*
X116521028Y-88376262D01*
X116651262Y-88246028D01*
X116753586Y-88092889D01*
X116824068Y-87922729D01*
X116860000Y-87742089D01*
X116860000Y-87557911D01*
X116824068Y-87377271D01*
X116753586Y-87207111D01*
X116651262Y-87053972D01*
X116521028Y-86923738D01*
X116367889Y-86821414D01*
X116197729Y-86750932D01*
X116017089Y-86715000D01*
X115832911Y-86715000D01*
X115652271Y-86750932D01*
X115482111Y-86821414D01*
X115328972Y-86923738D01*
X115198738Y-87053972D01*
X115096414Y-87207111D01*
X115025932Y-87377271D01*
X114990000Y-87557911D01*
X100710000Y-87557911D01*
X100710000Y-85989775D01*
X101189830Y-85989775D01*
X101429976Y-86377018D01*
X101923877Y-86637641D01*
X102459133Y-86796901D01*
X103015174Y-86848678D01*
X103570632Y-86790981D01*
X104104161Y-86626028D01*
X104570024Y-86377018D01*
X104810170Y-85989775D01*
X103000000Y-84179605D01*
X101189830Y-85989775D01*
X100710000Y-85989775D01*
X100710000Y-85623988D01*
X101010225Y-85810170D01*
X102820395Y-84000000D01*
X103179605Y-84000000D01*
X104989775Y-85810170D01*
X105197320Y-85681462D01*
X120033090Y-85681462D01*
X120033090Y-85865640D01*
X120069022Y-86046280D01*
X120139504Y-86216440D01*
X120241828Y-86369579D01*
X120372062Y-86499813D01*
X120525201Y-86602137D01*
X120695361Y-86672619D01*
X120876001Y-86708551D01*
X121060179Y-86708551D01*
X121240819Y-86672619D01*
X121399693Y-86606812D01*
X121507111Y-86678586D01*
X121677271Y-86749068D01*
X121857911Y-86785000D01*
X121925773Y-86785000D01*
X122057753Y-86855546D01*
X122201014Y-86899003D01*
X122312667Y-86910000D01*
X122312676Y-86910000D01*
X122349999Y-86913676D01*
X122387322Y-86910000D01*
X124935638Y-86910000D01*
X124978502Y-86990192D01*
X125032958Y-87071691D01*
X125090001Y-87141198D01*
X125090001Y-88858802D01*
X125032958Y-88928309D01*
X124978502Y-89009808D01*
X124919536Y-89120125D01*
X124882027Y-89210681D01*
X124845718Y-89330377D01*
X124826596Y-89426510D01*
X124814336Y-89550991D01*
X124814336Y-89575550D01*
X124811928Y-89600000D01*
X124811928Y-90100000D01*
X124814336Y-90124450D01*
X124814336Y-90149009D01*
X124826596Y-90273490D01*
X124845718Y-90369623D01*
X124882027Y-90489319D01*
X124919536Y-90579875D01*
X124978502Y-90690192D01*
X125032958Y-90771691D01*
X125090001Y-90841198D01*
X125090000Y-91955431D01*
X125081618Y-91962310D01*
X125012310Y-92031618D01*
X124932958Y-92128309D01*
X124878502Y-92209808D01*
X124819536Y-92320125D01*
X124782027Y-92410681D01*
X124745718Y-92530377D01*
X124726596Y-92626510D01*
X124714336Y-92750991D01*
X124714336Y-92775550D01*
X124711928Y-92800000D01*
X124711928Y-93300000D01*
X124714336Y-93324450D01*
X124714336Y-93349009D01*
X124726596Y-93473490D01*
X124745718Y-93569623D01*
X124782027Y-93689319D01*
X124819536Y-93779875D01*
X124878502Y-93890192D01*
X124932958Y-93971691D01*
X125012310Y-94068382D01*
X125081618Y-94137690D01*
X125090000Y-94144569D01*
X125090000Y-94955431D01*
X125081618Y-94962310D01*
X125012310Y-95031618D01*
X124932958Y-95128309D01*
X124878502Y-95209808D01*
X124819536Y-95320125D01*
X124782027Y-95410681D01*
X124745718Y-95530377D01*
X124726596Y-95626510D01*
X124714336Y-95750991D01*
X124714336Y-95775550D01*
X124711928Y-95800000D01*
X124711928Y-96300000D01*
X124714336Y-96324450D01*
X124714336Y-96349009D01*
X124726596Y-96473490D01*
X124745718Y-96569623D01*
X124782027Y-96689319D01*
X124819536Y-96779875D01*
X124878502Y-96890192D01*
X124932958Y-96971691D01*
X125012310Y-97068382D01*
X125081618Y-97137690D01*
X125178309Y-97217042D01*
X125259808Y-97271498D01*
X125370125Y-97330464D01*
X125460681Y-97367973D01*
X125580377Y-97404282D01*
X125676510Y-97423404D01*
X125800991Y-97435664D01*
X125825550Y-97435664D01*
X125850000Y-97438072D01*
X126400000Y-97438072D01*
X126524482Y-97425812D01*
X126525000Y-97425655D01*
X126525518Y-97425812D01*
X126650000Y-97438072D01*
X127650000Y-97438072D01*
X127774482Y-97425812D01*
X127775000Y-97425655D01*
X127775518Y-97425812D01*
X127900000Y-97438072D01*
X128450000Y-97438072D01*
X128474450Y-97435664D01*
X128499009Y-97435664D01*
X128623490Y-97423404D01*
X128719623Y-97404282D01*
X128839319Y-97367973D01*
X128929875Y-97330464D01*
X129040192Y-97271498D01*
X129121691Y-97217042D01*
X129218382Y-97137690D01*
X129287690Y-97068382D01*
X129331356Y-97015174D01*
X133151322Y-97015174D01*
X133209019Y-97570632D01*
X133373972Y-98104161D01*
X133622982Y-98570024D01*
X134010225Y-98810170D01*
X135820395Y-97000000D01*
X134010225Y-95189830D01*
X133622982Y-95429976D01*
X133362359Y-95923877D01*
X133203099Y-96459133D01*
X133151322Y-97015174D01*
X129331356Y-97015174D01*
X129367042Y-96971691D01*
X129421498Y-96890192D01*
X129480464Y-96779875D01*
X129517973Y-96689319D01*
X129554282Y-96569623D01*
X129573404Y-96473490D01*
X129585664Y-96349009D01*
X129585664Y-96324450D01*
X129588072Y-96300000D01*
X129588072Y-95800000D01*
X129585664Y-95775550D01*
X129585664Y-95750991D01*
X129573404Y-95626510D01*
X129554282Y-95530377D01*
X129517973Y-95410681D01*
X129480464Y-95320125D01*
X129421498Y-95209808D01*
X129367042Y-95128309D01*
X129287690Y-95031618D01*
X129266297Y-95010225D01*
X134189830Y-95010225D01*
X136000000Y-96820395D01*
X137810170Y-95010225D01*
X137570024Y-94622982D01*
X137076123Y-94362359D01*
X136540867Y-94203099D01*
X135984826Y-94151322D01*
X135429368Y-94209019D01*
X134895839Y-94373972D01*
X134429976Y-94622982D01*
X134189830Y-95010225D01*
X129266297Y-95010225D01*
X129218382Y-94962310D01*
X129210000Y-94955431D01*
X129210000Y-94144569D01*
X129218382Y-94137690D01*
X129287690Y-94068382D01*
X129367042Y-93971691D01*
X129375720Y-93958703D01*
X129507921Y-93985000D01*
X129692099Y-93985000D01*
X129872739Y-93949068D01*
X130042899Y-93878586D01*
X130145545Y-93810000D01*
X130304475Y-93810000D01*
X130407121Y-93878586D01*
X130577281Y-93949068D01*
X130757921Y-93985000D01*
X130942099Y-93985000D01*
X131122739Y-93949068D01*
X131292899Y-93878586D01*
X131446038Y-93776262D01*
X131576272Y-93646028D01*
X131678596Y-93492889D01*
X131749078Y-93322729D01*
X131785010Y-93142089D01*
X131785010Y-93100607D01*
X131957911Y-93135000D01*
X132142089Y-93135000D01*
X132322729Y-93099068D01*
X132492889Y-93028586D01*
X132646028Y-92926262D01*
X132776262Y-92796028D01*
X132878586Y-92642889D01*
X132949068Y-92472729D01*
X132985000Y-92292089D01*
X132985000Y-92107911D01*
X132965524Y-92010000D01*
X134904465Y-92010000D01*
X135007111Y-92078586D01*
X135177271Y-92149068D01*
X135357911Y-92185000D01*
X135542089Y-92185000D01*
X135722729Y-92149068D01*
X135892889Y-92078586D01*
X136046028Y-91976262D01*
X136176262Y-91846028D01*
X136278586Y-91692889D01*
X136349068Y-91522729D01*
X136385000Y-91342089D01*
X136385000Y-91157911D01*
X136349068Y-90977271D01*
X136278586Y-90807111D01*
X136176262Y-90653972D01*
X136046028Y-90523738D01*
X135892889Y-90421414D01*
X135722729Y-90350932D01*
X135542089Y-90315000D01*
X135357911Y-90315000D01*
X135177271Y-90350932D01*
X135007111Y-90421414D01*
X134904465Y-90490000D01*
X132612290Y-90490000D01*
X132596028Y-90473738D01*
X132442889Y-90371414D01*
X132272729Y-90300932D01*
X132151649Y-90276847D01*
X131213804Y-89339003D01*
X131190001Y-89309999D01*
X131074276Y-89215026D01*
X130942247Y-89144454D01*
X130798986Y-89100997D01*
X130755598Y-89096724D01*
X130642889Y-89021414D01*
X130472729Y-88950932D01*
X130292089Y-88915000D01*
X130107911Y-88915000D01*
X129927271Y-88950932D01*
X129757111Y-89021414D01*
X129603972Y-89123738D01*
X129588407Y-89139303D01*
X129580464Y-89120125D01*
X129521498Y-89009808D01*
X129467042Y-88928309D01*
X129387690Y-88831618D01*
X129318382Y-88762310D01*
X129221691Y-88682958D01*
X129210000Y-88675146D01*
X129210000Y-87324854D01*
X129221691Y-87317042D01*
X129318382Y-87237690D01*
X129387690Y-87168382D01*
X129467042Y-87071691D01*
X129521498Y-86990192D01*
X129580464Y-86879875D01*
X129617973Y-86789319D01*
X129654282Y-86669623D01*
X129673404Y-86573490D01*
X129685664Y-86449009D01*
X129685664Y-86424450D01*
X129688072Y-86400000D01*
X129688072Y-85989775D01*
X134189830Y-85989775D01*
X134429976Y-86377018D01*
X134923877Y-86637641D01*
X135459133Y-86796901D01*
X136015174Y-86848678D01*
X136570632Y-86790981D01*
X137104161Y-86626028D01*
X137570024Y-86377018D01*
X137810170Y-85989775D01*
X136000000Y-84179605D01*
X134189830Y-85989775D01*
X129688072Y-85989775D01*
X129688072Y-85900000D01*
X129685664Y-85875550D01*
X129685664Y-85850991D01*
X129673404Y-85726510D01*
X129654282Y-85630377D01*
X129617973Y-85510681D01*
X129580464Y-85420125D01*
X129521498Y-85309808D01*
X129467042Y-85228309D01*
X129387690Y-85131618D01*
X129318382Y-85062310D01*
X129221691Y-84982958D01*
X129140192Y-84928502D01*
X129100580Y-84907329D01*
X129084974Y-84878132D01*
X128990001Y-84762407D01*
X128961004Y-84738610D01*
X128361395Y-84139002D01*
X128337593Y-84109999D01*
X128222049Y-84015174D01*
X133151322Y-84015174D01*
X133209019Y-84570632D01*
X133373972Y-85104161D01*
X133622982Y-85570024D01*
X134010225Y-85810170D01*
X135820395Y-84000000D01*
X134010225Y-82189830D01*
X133622982Y-82429976D01*
X133362359Y-82923877D01*
X133203099Y-83459133D01*
X133151322Y-84015174D01*
X128222049Y-84015174D01*
X128221868Y-84015026D01*
X128089839Y-83944454D01*
X127946578Y-83900997D01*
X127834925Y-83890000D01*
X127834914Y-83890000D01*
X127797592Y-83886324D01*
X127760270Y-83890000D01*
X122128963Y-83890000D01*
X122091640Y-83886324D01*
X122054317Y-83890000D01*
X122054308Y-83890000D01*
X121942655Y-83900997D01*
X121799394Y-83944454D01*
X121667364Y-84015026D01*
X121583724Y-84083668D01*
X121551640Y-84109999D01*
X121527842Y-84138997D01*
X120816441Y-84850398D01*
X120695361Y-84874483D01*
X120525201Y-84944965D01*
X120372062Y-85047289D01*
X120241828Y-85177523D01*
X120139504Y-85330662D01*
X120069022Y-85500822D01*
X120033090Y-85681462D01*
X105197320Y-85681462D01*
X105377018Y-85570024D01*
X105637641Y-85076123D01*
X105796901Y-84540867D01*
X105848678Y-83984826D01*
X105790981Y-83429368D01*
X105626028Y-82895839D01*
X105521350Y-82700000D01*
X114161928Y-82700000D01*
X114161928Y-84400000D01*
X114174188Y-84524482D01*
X114210498Y-84644180D01*
X114269463Y-84754494D01*
X114348815Y-84851185D01*
X114445506Y-84930537D01*
X114555820Y-84989502D01*
X114675518Y-85025812D01*
X114800000Y-85038072D01*
X116500000Y-85038072D01*
X116624482Y-85025812D01*
X116744180Y-84989502D01*
X116854494Y-84930537D01*
X116951185Y-84851185D01*
X117030537Y-84754494D01*
X117089502Y-84644180D01*
X117125812Y-84524482D01*
X117138072Y-84400000D01*
X117138072Y-82700000D01*
X117125812Y-82575518D01*
X117089502Y-82455820D01*
X117030537Y-82345506D01*
X116951185Y-82248815D01*
X116854494Y-82169463D01*
X116744180Y-82110498D01*
X116624482Y-82074188D01*
X116500000Y-82061928D01*
X114800000Y-82061928D01*
X114675518Y-82074188D01*
X114555820Y-82110498D01*
X114445506Y-82169463D01*
X114348815Y-82248815D01*
X114269463Y-82345506D01*
X114210498Y-82455820D01*
X114174188Y-82575518D01*
X114161928Y-82700000D01*
X105521350Y-82700000D01*
X105377018Y-82429976D01*
X104989775Y-82189830D01*
X103179605Y-84000000D01*
X102820395Y-84000000D01*
X101010225Y-82189830D01*
X100710000Y-82376012D01*
X100710000Y-81710000D01*
X101376012Y-81710000D01*
X101189830Y-82010225D01*
G37*
X101189830Y-82010225D02*
X103000000Y-83820395D01*
X104810170Y-82010225D01*
X104623988Y-81710000D01*
X134376012Y-81710000D01*
X134189830Y-82010225D01*
X136000000Y-83820395D01*
X137810170Y-82010225D01*
X137623988Y-81710000D01*
X138290000Y-81710000D01*
X138290000Y-82376012D01*
X137989775Y-82189830D01*
X136179605Y-84000000D01*
X137989775Y-85810170D01*
X138290000Y-85623987D01*
X138290001Y-95376013D01*
X137989775Y-95189830D01*
X136179605Y-97000000D01*
X137989775Y-98810170D01*
X138290001Y-98623987D01*
X138290001Y-99290000D01*
X137623988Y-99290000D01*
X137810170Y-98989775D01*
X136000000Y-97179605D01*
X134189830Y-98989775D01*
X134376012Y-99290000D01*
X104623988Y-99290000D01*
X104810170Y-98989775D01*
X103000000Y-97179605D01*
X101189830Y-98989775D01*
X101376012Y-99290000D01*
X100710000Y-99290000D01*
X100710000Y-98623988D01*
X101010225Y-98810170D01*
X102820395Y-97000000D01*
X103179605Y-97000000D01*
X104989775Y-98810170D01*
X105377018Y-98570024D01*
X105637641Y-98076123D01*
X105796901Y-97540867D01*
X105848678Y-96984826D01*
X105790981Y-96429368D01*
X105626028Y-95895839D01*
X105377018Y-95429976D01*
X104989775Y-95189830D01*
X103179605Y-97000000D01*
X102820395Y-97000000D01*
X101010225Y-95189830D01*
X100710000Y-95376012D01*
X100710000Y-95010225D01*
X101189830Y-95010225D01*
X103000000Y-96820395D01*
X104810170Y-95010225D01*
X104570024Y-94622982D01*
X104076123Y-94362359D01*
X103540867Y-94203099D01*
X102984826Y-94151322D01*
X102429368Y-94209019D01*
X101895839Y-94373972D01*
X101429976Y-94622982D01*
X101189830Y-95010225D01*
X100710000Y-95010225D01*
X100710000Y-93957911D01*
X107415000Y-93957911D01*
X107415000Y-94142089D01*
X107450932Y-94322729D01*
X107521414Y-94492889D01*
X107623738Y-94646028D01*
X107753972Y-94776262D01*
X107907111Y-94878586D01*
X107936710Y-94890846D01*
X108057753Y-94955546D01*
X108201014Y-94999003D01*
X108350000Y-95013677D01*
X108498985Y-94999003D01*
X108642246Y-94955546D01*
X108763286Y-94890848D01*
X108792889Y-94878586D01*
X108946028Y-94776262D01*
X109076262Y-94646028D01*
X109178586Y-94492889D01*
X109249068Y-94322729D01*
X109285000Y-94142089D01*
X109285000Y-93957911D01*
X109249068Y-93777271D01*
X109178586Y-93607111D01*
X109076262Y-93453972D01*
X108946028Y-93323738D01*
X108847511Y-93257911D01*
X109715000Y-93257911D01*
X109715000Y-93442089D01*
X109750932Y-93622729D01*
X109821414Y-93792889D01*
X109923738Y-93946028D01*
X110053972Y-94076262D01*
X110207111Y-94178586D01*
X110377271Y-94249068D01*
X110557911Y-94285000D01*
X110742089Y-94285000D01*
X110922729Y-94249068D01*
X111092889Y-94178586D01*
X111246028Y-94076262D01*
X111264667Y-94057623D01*
X111323738Y-94146028D01*
X111453972Y-94276262D01*
X111607111Y-94378586D01*
X111777271Y-94449068D01*
X111957911Y-94485000D01*
X112142089Y-94485000D01*
X112322729Y-94449068D01*
X112417726Y-94409719D01*
X116266808Y-94409719D01*
X116266808Y-94593897D01*
X116302740Y-94774537D01*
X116373222Y-94944697D01*
X116475546Y-95097836D01*
X116605780Y-95228070D01*
X116758919Y-95330394D01*
X116929079Y-95400876D01*
X117109719Y-95436808D01*
X117293897Y-95436808D01*
X117474537Y-95400876D01*
X117638702Y-95332877D01*
X117707111Y-95378586D01*
X117877271Y-95449068D01*
X118057911Y-95485000D01*
X118242089Y-95485000D01*
X118422729Y-95449068D01*
X118592889Y-95378586D01*
X118746028Y-95276262D01*
X118876262Y-95146028D01*
X118978586Y-94992889D01*
X119034495Y-94857911D01*
X121315000Y-94857911D01*
X121315000Y-95042089D01*
X121350932Y-95222729D01*
X121421414Y-95392889D01*
X121523738Y-95546028D01*
X121653972Y-95676262D01*
X121807111Y-95778586D01*
X121977271Y-95849068D01*
X122157911Y-95885000D01*
X122342089Y-95885000D01*
X122522729Y-95849068D01*
X122692889Y-95778586D01*
X122846028Y-95676262D01*
X122976262Y-95546028D01*
X123078586Y-95392889D01*
X123149068Y-95222729D01*
X123185000Y-95042089D01*
X123185000Y-94857911D01*
X123149068Y-94677271D01*
X123078586Y-94507111D01*
X122976262Y-94353972D01*
X122846028Y-94223738D01*
X122692889Y-94121414D01*
X122522729Y-94050932D01*
X122342089Y-94015000D01*
X122157911Y-94015000D01*
X121977271Y-94050932D01*
X121807111Y-94121414D01*
X121653972Y-94223738D01*
X121523738Y-94353972D01*
X121421414Y-94507111D01*
X121350932Y-94677271D01*
X121315000Y-94857911D01*
X119034495Y-94857911D01*
X119049068Y-94822729D01*
X119085000Y-94642089D01*
X119085000Y-94457911D01*
X119049068Y-94277271D01*
X118978586Y-94107111D01*
X118876262Y-93953972D01*
X118746028Y-93823738D01*
X118592889Y-93721414D01*
X118422729Y-93650932D01*
X118242089Y-93615000D01*
X118057911Y-93615000D01*
X117877271Y-93650932D01*
X117713106Y-93718931D01*
X117644697Y-93673222D01*
X117474537Y-93602740D01*
X117293897Y-93566808D01*
X117109719Y-93566808D01*
X116929079Y-93602740D01*
X116758919Y-93673222D01*
X116605780Y-93775546D01*
X116475546Y-93905780D01*
X116373222Y-94058919D01*
X116302740Y-94229079D01*
X116266808Y-94409719D01*
X112417726Y-94409719D01*
X112492889Y-94378586D01*
X112646028Y-94276262D01*
X112776262Y-94146028D01*
X112878586Y-93992889D01*
X112949068Y-93822729D01*
X112985000Y-93642089D01*
X112985000Y-93457911D01*
X112949068Y-93277271D01*
X112878586Y-93107111D01*
X112776262Y-92953972D01*
X112767177Y-92944887D01*
X112777271Y-92949068D01*
X112957911Y-92985000D01*
X113142089Y-92985000D01*
X113322729Y-92949068D01*
X113492889Y-92878586D01*
X113646028Y-92776262D01*
X113776262Y-92646028D01*
X113878586Y-92492889D01*
X113949068Y-92322729D01*
X113985000Y-92142089D01*
X113985000Y-91957911D01*
X113949068Y-91777271D01*
X113878586Y-91607111D01*
X113776262Y-91453972D01*
X113646028Y-91323738D01*
X113492889Y-91221414D01*
X113322729Y-91150932D01*
X113142089Y-91115000D01*
X112957911Y-91115000D01*
X112777271Y-91150932D01*
X112607111Y-91221414D01*
X112453972Y-91323738D01*
X112323738Y-91453972D01*
X112221414Y-91607111D01*
X112150932Y-91777271D01*
X112115000Y-91957911D01*
X112115000Y-92142089D01*
X112150932Y-92322729D01*
X112221414Y-92492889D01*
X112323738Y-92646028D01*
X112332823Y-92655113D01*
X112322729Y-92650932D01*
X112142089Y-92615000D01*
X111957911Y-92615000D01*
X111777271Y-92650932D01*
X111607111Y-92721414D01*
X111453972Y-92823738D01*
X111435333Y-92842377D01*
X111376262Y-92753972D01*
X111246028Y-92623738D01*
X111092889Y-92521414D01*
X110922729Y-92450932D01*
X110742089Y-92415000D01*
X110557911Y-92415000D01*
X110377271Y-92450932D01*
X110207111Y-92521414D01*
X110053972Y-92623738D01*
X109923738Y-92753972D01*
X109821414Y-92907111D01*
X109750932Y-93077271D01*
X109715000Y-93257911D01*
X108847511Y-93257911D01*
X108792889Y-93221414D01*
X108622729Y-93150932D01*
X108442089Y-93115000D01*
X108257911Y-93115000D01*
X108077271Y-93150932D01*
X107907111Y-93221414D01*
X107753972Y-93323738D01*
X107623738Y-93453972D01*
X107521414Y-93607111D01*
X107450932Y-93777271D01*
X107415000Y-93957911D01*
X100710000Y-93957911D01*
X100710000Y-90882911D01*
X114690000Y-90882911D01*
X114690000Y-91067089D01*
X114725932Y-91247729D01*
X114796414Y-91417889D01*
X114898738Y-91571028D01*
X115028972Y-91701262D01*
X115182111Y-91803586D01*
X115352271Y-91874068D01*
X115532911Y-91910000D01*
X115717089Y-91910000D01*
X115897729Y-91874068D01*
X116067889Y-91803586D01*
X116221028Y-91701262D01*
X116264379Y-91657911D01*
X119165000Y-91657911D01*
X119165000Y-91842089D01*
X119200932Y-92022729D01*
X119271414Y-92192889D01*
X119373738Y-92346028D01*
X119503972Y-92476262D01*
X119657111Y-92578586D01*
X119827271Y-92649068D01*
X120007911Y-92685000D01*
X120192089Y-92685000D01*
X120372729Y-92649068D01*
X120542889Y-92578586D01*
X120696028Y-92476262D01*
X120826262Y-92346028D01*
X120928586Y-92192889D01*
X120999068Y-92022729D01*
X121035000Y-91842089D01*
X121035000Y-91657911D01*
X120999068Y-91477271D01*
X120928586Y-91307111D01*
X120846419Y-91184139D01*
X121022729Y-91149068D01*
X121192889Y-91078586D01*
X121346028Y-90976262D01*
X121476262Y-90846028D01*
X121578586Y-90692889D01*
X121649068Y-90522729D01*
X121685000Y-90342089D01*
X121685000Y-90157911D01*
X121649068Y-89977271D01*
X121578586Y-89807111D01*
X121476262Y-89653972D01*
X121346028Y-89523738D01*
X121192889Y-89421414D01*
X121022729Y-89350932D01*
X120842089Y-89315000D01*
X120657911Y-89315000D01*
X120477271Y-89350932D01*
X120307111Y-89421414D01*
X120153972Y-89523738D01*
X120023738Y-89653972D01*
X119921414Y-89807111D01*
X119850932Y-89977271D01*
X119815000Y-90157911D01*
X119815000Y-90342089D01*
X119850932Y-90522729D01*
X119921414Y-90692889D01*
X120003581Y-90815861D01*
X119827271Y-90850932D01*
X119657111Y-90921414D01*
X119503972Y-91023738D01*
X119373738Y-91153972D01*
X119271414Y-91307111D01*
X119200932Y-91477271D01*
X119165000Y-91657911D01*
X116264379Y-91657911D01*
X116351262Y-91571028D01*
X116453586Y-91417889D01*
X116524068Y-91247729D01*
X116560000Y-91067089D01*
X116560000Y-90882911D01*
X116524068Y-90702271D01*
X116453586Y-90532111D01*
X116351262Y-90378972D01*
X116221028Y-90248738D01*
X116067889Y-90146414D01*
X115897729Y-90075932D01*
X115717089Y-90040000D01*
X115532911Y-90040000D01*
X115352271Y-90075932D01*
X115182111Y-90146414D01*
X115028972Y-90248738D01*
X114898738Y-90378972D01*
X114796414Y-90532111D01*
X114725932Y-90702271D01*
X114690000Y-90882911D01*
X100710000Y-90882911D01*
X100710000Y-89157911D01*
X117815000Y-89157911D01*
X117815000Y-89342089D01*
X117850932Y-89522729D01*
X117921414Y-89692889D01*
X118023738Y-89846028D01*
X118153972Y-89976262D01*
X118307111Y-90078586D01*
X118477271Y-90149068D01*
X118657911Y-90185000D01*
X118842089Y-90185000D01*
X119022729Y-90149068D01*
X119192889Y-90078586D01*
X119346028Y-89976262D01*
X119476262Y-89846028D01*
X119578586Y-89692889D01*
X119649068Y-89522729D01*
X119685000Y-89342089D01*
X119685000Y-89157911D01*
X119649068Y-88977271D01*
X119578586Y-88807111D01*
X119476262Y-88653972D01*
X119346028Y-88523738D01*
X119192889Y-88421414D01*
X119022729Y-88350932D01*
X118842089Y-88315000D01*
X118657911Y-88315000D01*
X118477271Y-88350932D01*
X118307111Y-88421414D01*
X118153972Y-88523738D01*
X118023738Y-88653972D01*
X117921414Y-88807111D01*
X117850932Y-88977271D01*
X117815000Y-89157911D01*
X100710000Y-89157911D01*
X100710000Y-87557911D01*
X114990000Y-87557911D01*
X114990000Y-87742089D01*
X115025932Y-87922729D01*
X115096414Y-88092889D01*
X115198738Y-88246028D01*
X115328972Y-88376262D01*
X115482111Y-88478586D01*
X115511710Y-88490846D01*
X115632753Y-88555546D01*
X115776014Y-88599003D01*
X115925000Y-88613677D01*
X116073985Y-88599003D01*
X116217246Y-88555546D01*
X116338286Y-88490848D01*
X116367889Y-88478586D01*
X116521028Y-88376262D01*
X116651262Y-88246028D01*
X116753586Y-88092889D01*
X116824068Y-87922729D01*
X116860000Y-87742089D01*
X116860000Y-87557911D01*
X116824068Y-87377271D01*
X116753586Y-87207111D01*
X116651262Y-87053972D01*
X116521028Y-86923738D01*
X116367889Y-86821414D01*
X116197729Y-86750932D01*
X116017089Y-86715000D01*
X115832911Y-86715000D01*
X115652271Y-86750932D01*
X115482111Y-86821414D01*
X115328972Y-86923738D01*
X115198738Y-87053972D01*
X115096414Y-87207111D01*
X115025932Y-87377271D01*
X114990000Y-87557911D01*
X100710000Y-87557911D01*
X100710000Y-85989775D01*
X101189830Y-85989775D01*
X101429976Y-86377018D01*
X101923877Y-86637641D01*
X102459133Y-86796901D01*
X103015174Y-86848678D01*
X103570632Y-86790981D01*
X104104161Y-86626028D01*
X104570024Y-86377018D01*
X104810170Y-85989775D01*
X103000000Y-84179605D01*
X101189830Y-85989775D01*
X100710000Y-85989775D01*
X100710000Y-85623988D01*
X101010225Y-85810170D01*
X102820395Y-84000000D01*
X103179605Y-84000000D01*
X104989775Y-85810170D01*
X105197320Y-85681462D01*
X120033090Y-85681462D01*
X120033090Y-85865640D01*
X120069022Y-86046280D01*
X120139504Y-86216440D01*
X120241828Y-86369579D01*
X120372062Y-86499813D01*
X120525201Y-86602137D01*
X120695361Y-86672619D01*
X120876001Y-86708551D01*
X121060179Y-86708551D01*
X121240819Y-86672619D01*
X121399693Y-86606812D01*
X121507111Y-86678586D01*
X121677271Y-86749068D01*
X121857911Y-86785000D01*
X121925773Y-86785000D01*
X122057753Y-86855546D01*
X122201014Y-86899003D01*
X122312667Y-86910000D01*
X122312676Y-86910000D01*
X122349999Y-86913676D01*
X122387322Y-86910000D01*
X124935638Y-86910000D01*
X124978502Y-86990192D01*
X125032958Y-87071691D01*
X125090001Y-87141198D01*
X125090001Y-88858802D01*
X125032958Y-88928309D01*
X124978502Y-89009808D01*
X124919536Y-89120125D01*
X124882027Y-89210681D01*
X124845718Y-89330377D01*
X124826596Y-89426510D01*
X124814336Y-89550991D01*
X124814336Y-89575550D01*
X124811928Y-89600000D01*
X124811928Y-90100000D01*
X124814336Y-90124450D01*
X124814336Y-90149009D01*
X124826596Y-90273490D01*
X124845718Y-90369623D01*
X124882027Y-90489319D01*
X124919536Y-90579875D01*
X124978502Y-90690192D01*
X125032958Y-90771691D01*
X125090001Y-90841198D01*
X125090000Y-91955431D01*
X125081618Y-91962310D01*
X125012310Y-92031618D01*
X124932958Y-92128309D01*
X124878502Y-92209808D01*
X124819536Y-92320125D01*
X124782027Y-92410681D01*
X124745718Y-92530377D01*
X124726596Y-92626510D01*
X124714336Y-92750991D01*
X124714336Y-92775550D01*
X124711928Y-92800000D01*
X124711928Y-93300000D01*
X124714336Y-93324450D01*
X124714336Y-93349009D01*
X124726596Y-93473490D01*
X124745718Y-93569623D01*
X124782027Y-93689319D01*
X124819536Y-93779875D01*
X124878502Y-93890192D01*
X124932958Y-93971691D01*
X125012310Y-94068382D01*
X125081618Y-94137690D01*
X125090000Y-94144569D01*
X125090000Y-94955431D01*
X125081618Y-94962310D01*
X125012310Y-95031618D01*
X124932958Y-95128309D01*
X124878502Y-95209808D01*
X124819536Y-95320125D01*
X124782027Y-95410681D01*
X124745718Y-95530377D01*
X124726596Y-95626510D01*
X124714336Y-95750991D01*
X124714336Y-95775550D01*
X124711928Y-95800000D01*
X124711928Y-96300000D01*
X124714336Y-96324450D01*
X124714336Y-96349009D01*
X124726596Y-96473490D01*
X124745718Y-96569623D01*
X124782027Y-96689319D01*
X124819536Y-96779875D01*
X124878502Y-96890192D01*
X124932958Y-96971691D01*
X125012310Y-97068382D01*
X125081618Y-97137690D01*
X125178309Y-97217042D01*
X125259808Y-97271498D01*
X125370125Y-97330464D01*
X125460681Y-97367973D01*
X125580377Y-97404282D01*
X125676510Y-97423404D01*
X125800991Y-97435664D01*
X125825550Y-97435664D01*
X125850000Y-97438072D01*
X126400000Y-97438072D01*
X126524482Y-97425812D01*
X126525000Y-97425655D01*
X126525518Y-97425812D01*
X126650000Y-97438072D01*
X127650000Y-97438072D01*
X127774482Y-97425812D01*
X127775000Y-97425655D01*
X127775518Y-97425812D01*
X127900000Y-97438072D01*
X128450000Y-97438072D01*
X128474450Y-97435664D01*
X128499009Y-97435664D01*
X128623490Y-97423404D01*
X128719623Y-97404282D01*
X128839319Y-97367973D01*
X128929875Y-97330464D01*
X129040192Y-97271498D01*
X129121691Y-97217042D01*
X129218382Y-97137690D01*
X129287690Y-97068382D01*
X129331356Y-97015174D01*
X133151322Y-97015174D01*
X133209019Y-97570632D01*
X133373972Y-98104161D01*
X133622982Y-98570024D01*
X134010225Y-98810170D01*
X135820395Y-97000000D01*
X134010225Y-95189830D01*
X133622982Y-95429976D01*
X133362359Y-95923877D01*
X133203099Y-96459133D01*
X133151322Y-97015174D01*
X129331356Y-97015174D01*
X129367042Y-96971691D01*
X129421498Y-96890192D01*
X129480464Y-96779875D01*
X129517973Y-96689319D01*
X129554282Y-96569623D01*
X129573404Y-96473490D01*
X129585664Y-96349009D01*
X129585664Y-96324450D01*
X129588072Y-96300000D01*
X129588072Y-95800000D01*
X129585664Y-95775550D01*
X129585664Y-95750991D01*
X129573404Y-95626510D01*
X129554282Y-95530377D01*
X129517973Y-95410681D01*
X129480464Y-95320125D01*
X129421498Y-95209808D01*
X129367042Y-95128309D01*
X129287690Y-95031618D01*
X129266297Y-95010225D01*
X134189830Y-95010225D01*
X136000000Y-96820395D01*
X137810170Y-95010225D01*
X137570024Y-94622982D01*
X137076123Y-94362359D01*
X136540867Y-94203099D01*
X135984826Y-94151322D01*
X135429368Y-94209019D01*
X134895839Y-94373972D01*
X134429976Y-94622982D01*
X134189830Y-95010225D01*
X129266297Y-95010225D01*
X129218382Y-94962310D01*
X129210000Y-94955431D01*
X129210000Y-94144569D01*
X129218382Y-94137690D01*
X129287690Y-94068382D01*
X129367042Y-93971691D01*
X129375720Y-93958703D01*
X129507921Y-93985000D01*
X129692099Y-93985000D01*
X129872739Y-93949068D01*
X130042899Y-93878586D01*
X130145545Y-93810000D01*
X130304475Y-93810000D01*
X130407121Y-93878586D01*
X130577281Y-93949068D01*
X130757921Y-93985000D01*
X130942099Y-93985000D01*
X131122739Y-93949068D01*
X131292899Y-93878586D01*
X131446038Y-93776262D01*
X131576272Y-93646028D01*
X131678596Y-93492889D01*
X131749078Y-93322729D01*
X131785010Y-93142089D01*
X131785010Y-93100607D01*
X131957911Y-93135000D01*
X132142089Y-93135000D01*
X132322729Y-93099068D01*
X132492889Y-93028586D01*
X132646028Y-92926262D01*
X132776262Y-92796028D01*
X132878586Y-92642889D01*
X132949068Y-92472729D01*
X132985000Y-92292089D01*
X132985000Y-92107911D01*
X132965524Y-92010000D01*
X134904465Y-92010000D01*
X135007111Y-92078586D01*
X135177271Y-92149068D01*
X135357911Y-92185000D01*
X135542089Y-92185000D01*
X135722729Y-92149068D01*
X135892889Y-92078586D01*
X136046028Y-91976262D01*
X136176262Y-91846028D01*
X136278586Y-91692889D01*
X136349068Y-91522729D01*
X136385000Y-91342089D01*
X136385000Y-91157911D01*
X136349068Y-90977271D01*
X136278586Y-90807111D01*
X136176262Y-90653972D01*
X136046028Y-90523738D01*
X135892889Y-90421414D01*
X135722729Y-90350932D01*
X135542089Y-90315000D01*
X135357911Y-90315000D01*
X135177271Y-90350932D01*
X135007111Y-90421414D01*
X134904465Y-90490000D01*
X132612290Y-90490000D01*
X132596028Y-90473738D01*
X132442889Y-90371414D01*
X132272729Y-90300932D01*
X132151649Y-90276847D01*
X131213804Y-89339003D01*
X131190001Y-89309999D01*
X131074276Y-89215026D01*
X130942247Y-89144454D01*
X130798986Y-89100997D01*
X130755598Y-89096724D01*
X130642889Y-89021414D01*
X130472729Y-88950932D01*
X130292089Y-88915000D01*
X130107911Y-88915000D01*
X129927271Y-88950932D01*
X129757111Y-89021414D01*
X129603972Y-89123738D01*
X129588407Y-89139303D01*
X129580464Y-89120125D01*
X129521498Y-89009808D01*
X129467042Y-88928309D01*
X129387690Y-88831618D01*
X129318382Y-88762310D01*
X129221691Y-88682958D01*
X129210000Y-88675146D01*
X129210000Y-87324854D01*
X129221691Y-87317042D01*
X129318382Y-87237690D01*
X129387690Y-87168382D01*
X129467042Y-87071691D01*
X129521498Y-86990192D01*
X129580464Y-86879875D01*
X129617973Y-86789319D01*
X129654282Y-86669623D01*
X129673404Y-86573490D01*
X129685664Y-86449009D01*
X129685664Y-86424450D01*
X129688072Y-86400000D01*
X129688072Y-85989775D01*
X134189830Y-85989775D01*
X134429976Y-86377018D01*
X134923877Y-86637641D01*
X135459133Y-86796901D01*
X136015174Y-86848678D01*
X136570632Y-86790981D01*
X137104161Y-86626028D01*
X137570024Y-86377018D01*
X137810170Y-85989775D01*
X136000000Y-84179605D01*
X134189830Y-85989775D01*
X129688072Y-85989775D01*
X129688072Y-85900000D01*
X129685664Y-85875550D01*
X129685664Y-85850991D01*
X129673404Y-85726510D01*
X129654282Y-85630377D01*
X129617973Y-85510681D01*
X129580464Y-85420125D01*
X129521498Y-85309808D01*
X129467042Y-85228309D01*
X129387690Y-85131618D01*
X129318382Y-85062310D01*
X129221691Y-84982958D01*
X129140192Y-84928502D01*
X129100580Y-84907329D01*
X129084974Y-84878132D01*
X128990001Y-84762407D01*
X128961004Y-84738610D01*
X128361395Y-84139002D01*
X128337593Y-84109999D01*
X128222049Y-84015174D01*
X133151322Y-84015174D01*
X133209019Y-84570632D01*
X133373972Y-85104161D01*
X133622982Y-85570024D01*
X134010225Y-85810170D01*
X135820395Y-84000000D01*
X134010225Y-82189830D01*
X133622982Y-82429976D01*
X133362359Y-82923877D01*
X133203099Y-83459133D01*
X133151322Y-84015174D01*
X128222049Y-84015174D01*
X128221868Y-84015026D01*
X128089839Y-83944454D01*
X127946578Y-83900997D01*
X127834925Y-83890000D01*
X127834914Y-83890000D01*
X127797592Y-83886324D01*
X127760270Y-83890000D01*
X122128963Y-83890000D01*
X122091640Y-83886324D01*
X122054317Y-83890000D01*
X122054308Y-83890000D01*
X121942655Y-83900997D01*
X121799394Y-83944454D01*
X121667364Y-84015026D01*
X121583724Y-84083668D01*
X121551640Y-84109999D01*
X121527842Y-84138997D01*
X120816441Y-84850398D01*
X120695361Y-84874483D01*
X120525201Y-84944965D01*
X120372062Y-85047289D01*
X120241828Y-85177523D01*
X120139504Y-85330662D01*
X120069022Y-85500822D01*
X120033090Y-85681462D01*
X105197320Y-85681462D01*
X105377018Y-85570024D01*
X105637641Y-85076123D01*
X105796901Y-84540867D01*
X105848678Y-83984826D01*
X105790981Y-83429368D01*
X105626028Y-82895839D01*
X105521350Y-82700000D01*
X114161928Y-82700000D01*
X114161928Y-84400000D01*
X114174188Y-84524482D01*
X114210498Y-84644180D01*
X114269463Y-84754494D01*
X114348815Y-84851185D01*
X114445506Y-84930537D01*
X114555820Y-84989502D01*
X114675518Y-85025812D01*
X114800000Y-85038072D01*
X116500000Y-85038072D01*
X116624482Y-85025812D01*
X116744180Y-84989502D01*
X116854494Y-84930537D01*
X116951185Y-84851185D01*
X117030537Y-84754494D01*
X117089502Y-84644180D01*
X117125812Y-84524482D01*
X117138072Y-84400000D01*
X117138072Y-82700000D01*
X117125812Y-82575518D01*
X117089502Y-82455820D01*
X117030537Y-82345506D01*
X116951185Y-82248815D01*
X116854494Y-82169463D01*
X116744180Y-82110498D01*
X116624482Y-82074188D01*
X116500000Y-82061928D01*
X114800000Y-82061928D01*
X114675518Y-82074188D01*
X114555820Y-82110498D01*
X114445506Y-82169463D01*
X114348815Y-82248815D01*
X114269463Y-82345506D01*
X114210498Y-82455820D01*
X114174188Y-82575518D01*
X114161928Y-82700000D01*
X105521350Y-82700000D01*
X105377018Y-82429976D01*
X104989775Y-82189830D01*
X103179605Y-84000000D01*
X102820395Y-84000000D01*
X101010225Y-82189830D01*
X100710000Y-82376012D01*
X100710000Y-81710000D01*
X101376012Y-81710000D01*
X101189830Y-82010225D01*
M02*
