G04 #@! TF.GenerationSoftware,KiCad,Pcbnew,(5.1.5-0)*
G04 #@! TF.CreationDate,2022-03-31T12:05:24-06:00*
G04 #@! TF.ProjectId,two-wire-single,74776f2d-7769-4726-952d-73696e676c65,rev?*
G04 #@! TF.SameCoordinates,Original*
G04 #@! TF.FileFunction,Copper,L3,Inr*
G04 #@! TF.FilePolarity,Positive*
%FSLAX46Y46*%
G04 Gerber Fmt 4.6, Leading zero omitted, Abs format (unit mm)*
G04 Created by KiCad (PCBNEW (5.1.5-0)) date 2022-03-31 12:05:24*
%MOMM*%
%LPD*%
G04 APERTURE LIST*
%ADD10R,1.700000X1.700000*%
%ADD11C,0.700000*%
%ADD12C,4.400000*%
%ADD13C,0.600000*%
%ADD14C,0.254000*%
G04 APERTURE END LIST*
D10*
X115650000Y-83550000D03*
D11*
X104166726Y-82833274D03*
X103000000Y-82350000D03*
X101833274Y-82833274D03*
X101350000Y-84000000D03*
X101833274Y-85166726D03*
X103000000Y-85650000D03*
X104166726Y-85166726D03*
X104650000Y-84000000D03*
D12*
X103000000Y-84000000D03*
D11*
X137166726Y-82833274D03*
X136000000Y-82350000D03*
X134833274Y-82833274D03*
X134350000Y-84000000D03*
X134833274Y-85166726D03*
X136000000Y-85650000D03*
X137166726Y-85166726D03*
X137650000Y-84000000D03*
D12*
X136000000Y-84000000D03*
D11*
X104166726Y-95833274D03*
X103000000Y-95350000D03*
X101833274Y-95833274D03*
X101350000Y-97000000D03*
X101833274Y-98166726D03*
X103000000Y-98650000D03*
X104166726Y-98166726D03*
X104650000Y-97000000D03*
D12*
X103000000Y-97000000D03*
D11*
X137166726Y-95833274D03*
X136000000Y-95350000D03*
X134833274Y-95833274D03*
X134350000Y-97000000D03*
X134833274Y-98166726D03*
X136000000Y-98650000D03*
X137166726Y-98166726D03*
X137650000Y-97000000D03*
D12*
X136000000Y-97000000D03*
D13*
X122250000Y-94950000D03*
X118750000Y-89250000D03*
X120750000Y-90250000D03*
X112050000Y-93550000D03*
X113050000Y-92050000D03*
X127250000Y-86150000D03*
X132050000Y-92200000D03*
X118150000Y-94550000D03*
X108350000Y-94050000D03*
X117201808Y-94501808D03*
X110650000Y-93350000D03*
X127250000Y-89850000D03*
X135450000Y-91250000D03*
X132000000Y-91200000D03*
X130200000Y-89850000D03*
X115625000Y-90975000D03*
X115925000Y-87650000D03*
X120968090Y-85773551D03*
X121950000Y-85850000D03*
X120100000Y-91750000D03*
X127150000Y-96050000D03*
X127150000Y-93050000D03*
X130850010Y-93050000D03*
X129600010Y-93050000D03*
D14*
G36*
X134192793Y-81797912D02*
G01*
X133797912Y-82192793D01*
X133487656Y-82657124D01*
X133273948Y-83173061D01*
X133165000Y-83720777D01*
X133165000Y-84279223D01*
X133273948Y-84826939D01*
X133487656Y-85342876D01*
X133797912Y-85807207D01*
X134192793Y-86202088D01*
X134657124Y-86512344D01*
X135173061Y-86726052D01*
X135720777Y-86835000D01*
X136279223Y-86835000D01*
X136826939Y-86726052D01*
X137342876Y-86512344D01*
X137807207Y-86202088D01*
X138202088Y-85807207D01*
X138290000Y-85675637D01*
X138290001Y-95324364D01*
X138202088Y-95192793D01*
X137807207Y-94797912D01*
X137342876Y-94487656D01*
X136826939Y-94273948D01*
X136279223Y-94165000D01*
X135720777Y-94165000D01*
X135173061Y-94273948D01*
X134657124Y-94487656D01*
X134192793Y-94797912D01*
X133797912Y-95192793D01*
X133487656Y-95657124D01*
X133273948Y-96173061D01*
X133165000Y-96720777D01*
X133165000Y-97279223D01*
X133273948Y-97826939D01*
X133487656Y-98342876D01*
X133797912Y-98807207D01*
X134192793Y-99202088D01*
X134324363Y-99290000D01*
X104675637Y-99290000D01*
X104807207Y-99202088D01*
X105202088Y-98807207D01*
X105512344Y-98342876D01*
X105726052Y-97826939D01*
X105835000Y-97279223D01*
X105835000Y-96720777D01*
X105726052Y-96173061D01*
X105636934Y-95957911D01*
X126215000Y-95957911D01*
X126215000Y-96142089D01*
X126250932Y-96322729D01*
X126321414Y-96492889D01*
X126423738Y-96646028D01*
X126553972Y-96776262D01*
X126707111Y-96878586D01*
X126877271Y-96949068D01*
X127057911Y-96985000D01*
X127242089Y-96985000D01*
X127422729Y-96949068D01*
X127592889Y-96878586D01*
X127746028Y-96776262D01*
X127876262Y-96646028D01*
X127978586Y-96492889D01*
X128049068Y-96322729D01*
X128085000Y-96142089D01*
X128085000Y-95957911D01*
X128049068Y-95777271D01*
X127978586Y-95607111D01*
X127876262Y-95453972D01*
X127746028Y-95323738D01*
X127592889Y-95221414D01*
X127422729Y-95150932D01*
X127242089Y-95115000D01*
X127057911Y-95115000D01*
X126877271Y-95150932D01*
X126707111Y-95221414D01*
X126553972Y-95323738D01*
X126423738Y-95453972D01*
X126321414Y-95607111D01*
X126250932Y-95777271D01*
X126215000Y-95957911D01*
X105636934Y-95957911D01*
X105512344Y-95657124D01*
X105202088Y-95192793D01*
X104807207Y-94797912D01*
X104342876Y-94487656D01*
X103826939Y-94273948D01*
X103279223Y-94165000D01*
X102720777Y-94165000D01*
X102173061Y-94273948D01*
X101657124Y-94487656D01*
X101192793Y-94797912D01*
X100797912Y-95192793D01*
X100710000Y-95324363D01*
X100710000Y-93957911D01*
X107415000Y-93957911D01*
X107415000Y-94142089D01*
X107450932Y-94322729D01*
X107521414Y-94492889D01*
X107623738Y-94646028D01*
X107753972Y-94776262D01*
X107907111Y-94878586D01*
X108077271Y-94949068D01*
X108257911Y-94985000D01*
X108442089Y-94985000D01*
X108622729Y-94949068D01*
X108792889Y-94878586D01*
X108946028Y-94776262D01*
X109076262Y-94646028D01*
X109178586Y-94492889D01*
X109213035Y-94409719D01*
X116266808Y-94409719D01*
X116266808Y-94593897D01*
X116302740Y-94774537D01*
X116373222Y-94944697D01*
X116475546Y-95097836D01*
X116605780Y-95228070D01*
X116758919Y-95330394D01*
X116929079Y-95400876D01*
X117109719Y-95436808D01*
X117293897Y-95436808D01*
X117474537Y-95400876D01*
X117638702Y-95332877D01*
X117707111Y-95378586D01*
X117877271Y-95449068D01*
X118057911Y-95485000D01*
X118242089Y-95485000D01*
X118422729Y-95449068D01*
X118592889Y-95378586D01*
X118746028Y-95276262D01*
X118876262Y-95146028D01*
X118978586Y-94992889D01*
X119049068Y-94822729D01*
X119085000Y-94642089D01*
X119085000Y-94457911D01*
X119049068Y-94277271D01*
X118978586Y-94107111D01*
X118876262Y-93953972D01*
X118746028Y-93823738D01*
X118592889Y-93721414D01*
X118422729Y-93650932D01*
X118242089Y-93615000D01*
X118057911Y-93615000D01*
X117877271Y-93650932D01*
X117713106Y-93718931D01*
X117644697Y-93673222D01*
X117474537Y-93602740D01*
X117293897Y-93566808D01*
X117109719Y-93566808D01*
X116929079Y-93602740D01*
X116758919Y-93673222D01*
X116605780Y-93775546D01*
X116475546Y-93905780D01*
X116373222Y-94058919D01*
X116302740Y-94229079D01*
X116266808Y-94409719D01*
X109213035Y-94409719D01*
X109249068Y-94322729D01*
X109285000Y-94142089D01*
X109285000Y-93957911D01*
X109249068Y-93777271D01*
X109178586Y-93607111D01*
X109076262Y-93453972D01*
X108946028Y-93323738D01*
X108847511Y-93257911D01*
X109715000Y-93257911D01*
X109715000Y-93442089D01*
X109750932Y-93622729D01*
X109821414Y-93792889D01*
X109923738Y-93946028D01*
X110053972Y-94076262D01*
X110207111Y-94178586D01*
X110377271Y-94249068D01*
X110557911Y-94285000D01*
X110742089Y-94285000D01*
X110922729Y-94249068D01*
X111092889Y-94178586D01*
X111246028Y-94076262D01*
X111376262Y-93946028D01*
X111478586Y-93792889D01*
X111549068Y-93622729D01*
X111585000Y-93442089D01*
X111585000Y-93257911D01*
X111549068Y-93077271D01*
X111499628Y-92957911D01*
X126215000Y-92957911D01*
X126215000Y-93142089D01*
X126250932Y-93322729D01*
X126321414Y-93492889D01*
X126423738Y-93646028D01*
X126553972Y-93776262D01*
X126707111Y-93878586D01*
X126877271Y-93949068D01*
X127057911Y-93985000D01*
X127242089Y-93985000D01*
X127422729Y-93949068D01*
X127592889Y-93878586D01*
X127746028Y-93776262D01*
X127876262Y-93646028D01*
X127978586Y-93492889D01*
X128049068Y-93322729D01*
X128085000Y-93142089D01*
X128085000Y-92957911D01*
X128665010Y-92957911D01*
X128665010Y-93142089D01*
X128700942Y-93322729D01*
X128771424Y-93492889D01*
X128873748Y-93646028D01*
X129003982Y-93776262D01*
X129157121Y-93878586D01*
X129327281Y-93949068D01*
X129507921Y-93985000D01*
X129692099Y-93985000D01*
X129872739Y-93949068D01*
X130042899Y-93878586D01*
X130196038Y-93776262D01*
X130225010Y-93747290D01*
X130253982Y-93776262D01*
X130407121Y-93878586D01*
X130577281Y-93949068D01*
X130757921Y-93985000D01*
X130942099Y-93985000D01*
X131122739Y-93949068D01*
X131292899Y-93878586D01*
X131446038Y-93776262D01*
X131576272Y-93646028D01*
X131678596Y-93492889D01*
X131749078Y-93322729D01*
X131785010Y-93142089D01*
X131785010Y-92957911D01*
X131749078Y-92777271D01*
X131678596Y-92607111D01*
X131576272Y-92453972D01*
X131446038Y-92323738D01*
X131292899Y-92221414D01*
X131122739Y-92150932D01*
X130942099Y-92115000D01*
X130757921Y-92115000D01*
X130577281Y-92150932D01*
X130407121Y-92221414D01*
X130253982Y-92323738D01*
X130225010Y-92352710D01*
X130196038Y-92323738D01*
X130042899Y-92221414D01*
X129872739Y-92150932D01*
X129692099Y-92115000D01*
X129507921Y-92115000D01*
X129327281Y-92150932D01*
X129157121Y-92221414D01*
X129003982Y-92323738D01*
X128873748Y-92453972D01*
X128771424Y-92607111D01*
X128700942Y-92777271D01*
X128665010Y-92957911D01*
X128085000Y-92957911D01*
X128049068Y-92777271D01*
X127978586Y-92607111D01*
X127876262Y-92453972D01*
X127746028Y-92323738D01*
X127592889Y-92221414D01*
X127422729Y-92150932D01*
X127242089Y-92115000D01*
X127057911Y-92115000D01*
X126877271Y-92150932D01*
X126707111Y-92221414D01*
X126553972Y-92323738D01*
X126423738Y-92453972D01*
X126321414Y-92607111D01*
X126250932Y-92777271D01*
X126215000Y-92957911D01*
X111499628Y-92957911D01*
X111478586Y-92907111D01*
X111376262Y-92753972D01*
X111246028Y-92623738D01*
X111092889Y-92521414D01*
X110922729Y-92450932D01*
X110742089Y-92415000D01*
X110557911Y-92415000D01*
X110377271Y-92450932D01*
X110207111Y-92521414D01*
X110053972Y-92623738D01*
X109923738Y-92753972D01*
X109821414Y-92907111D01*
X109750932Y-93077271D01*
X109715000Y-93257911D01*
X108847511Y-93257911D01*
X108792889Y-93221414D01*
X108622729Y-93150932D01*
X108442089Y-93115000D01*
X108257911Y-93115000D01*
X108077271Y-93150932D01*
X107907111Y-93221414D01*
X107753972Y-93323738D01*
X107623738Y-93453972D01*
X107521414Y-93607111D01*
X107450932Y-93777271D01*
X107415000Y-93957911D01*
X100710000Y-93957911D01*
X100710000Y-90882911D01*
X114690000Y-90882911D01*
X114690000Y-91067089D01*
X114725932Y-91247729D01*
X114796414Y-91417889D01*
X114898738Y-91571028D01*
X115028972Y-91701262D01*
X115182111Y-91803586D01*
X115352271Y-91874068D01*
X115532911Y-91910000D01*
X115717089Y-91910000D01*
X115897729Y-91874068D01*
X116067889Y-91803586D01*
X116221028Y-91701262D01*
X116264379Y-91657911D01*
X119165000Y-91657911D01*
X119165000Y-91842089D01*
X119200932Y-92022729D01*
X119271414Y-92192889D01*
X119373738Y-92346028D01*
X119503972Y-92476262D01*
X119657111Y-92578586D01*
X119827271Y-92649068D01*
X120007911Y-92685000D01*
X120192089Y-92685000D01*
X120372729Y-92649068D01*
X120542889Y-92578586D01*
X120696028Y-92476262D01*
X120826262Y-92346028D01*
X120928586Y-92192889D01*
X120999068Y-92022729D01*
X121035000Y-91842089D01*
X121035000Y-91657911D01*
X120999068Y-91477271D01*
X120928586Y-91307111D01*
X120826262Y-91153972D01*
X120780201Y-91107911D01*
X131065000Y-91107911D01*
X131065000Y-91292089D01*
X131100932Y-91472729D01*
X131171414Y-91642889D01*
X131273738Y-91796028D01*
X131403972Y-91926262D01*
X131557111Y-92028586D01*
X131727271Y-92099068D01*
X131907911Y-92135000D01*
X132092089Y-92135000D01*
X132272729Y-92099068D01*
X132442889Y-92028586D01*
X132596028Y-91926262D01*
X132726262Y-91796028D01*
X132828586Y-91642889D01*
X132899068Y-91472729D01*
X132935000Y-91292089D01*
X132935000Y-91157911D01*
X134515000Y-91157911D01*
X134515000Y-91342089D01*
X134550932Y-91522729D01*
X134621414Y-91692889D01*
X134723738Y-91846028D01*
X134853972Y-91976262D01*
X135007111Y-92078586D01*
X135177271Y-92149068D01*
X135357911Y-92185000D01*
X135542089Y-92185000D01*
X135722729Y-92149068D01*
X135892889Y-92078586D01*
X136046028Y-91976262D01*
X136176262Y-91846028D01*
X136278586Y-91692889D01*
X136349068Y-91522729D01*
X136385000Y-91342089D01*
X136385000Y-91157911D01*
X136349068Y-90977271D01*
X136278586Y-90807111D01*
X136176262Y-90653972D01*
X136046028Y-90523738D01*
X135892889Y-90421414D01*
X135722729Y-90350932D01*
X135542089Y-90315000D01*
X135357911Y-90315000D01*
X135177271Y-90350932D01*
X135007111Y-90421414D01*
X134853972Y-90523738D01*
X134723738Y-90653972D01*
X134621414Y-90807111D01*
X134550932Y-90977271D01*
X134515000Y-91157911D01*
X132935000Y-91157911D01*
X132935000Y-91107911D01*
X132899068Y-90927271D01*
X132828586Y-90757111D01*
X132726262Y-90603972D01*
X132596028Y-90473738D01*
X132442889Y-90371414D01*
X132272729Y-90300932D01*
X132092089Y-90265000D01*
X131907911Y-90265000D01*
X131727271Y-90300932D01*
X131557111Y-90371414D01*
X131403972Y-90473738D01*
X131273738Y-90603972D01*
X131171414Y-90757111D01*
X131100932Y-90927271D01*
X131065000Y-91107911D01*
X120780201Y-91107911D01*
X120696028Y-91023738D01*
X120542889Y-90921414D01*
X120372729Y-90850932D01*
X120192089Y-90815000D01*
X120007911Y-90815000D01*
X119827271Y-90850932D01*
X119657111Y-90921414D01*
X119503972Y-91023738D01*
X119373738Y-91153972D01*
X119271414Y-91307111D01*
X119200932Y-91477271D01*
X119165000Y-91657911D01*
X116264379Y-91657911D01*
X116351262Y-91571028D01*
X116453586Y-91417889D01*
X116524068Y-91247729D01*
X116560000Y-91067089D01*
X116560000Y-90882911D01*
X116524068Y-90702271D01*
X116453586Y-90532111D01*
X116351262Y-90378972D01*
X116221028Y-90248738D01*
X116067889Y-90146414D01*
X115897729Y-90075932D01*
X115717089Y-90040000D01*
X115532911Y-90040000D01*
X115352271Y-90075932D01*
X115182111Y-90146414D01*
X115028972Y-90248738D01*
X114898738Y-90378972D01*
X114796414Y-90532111D01*
X114725932Y-90702271D01*
X114690000Y-90882911D01*
X100710000Y-90882911D01*
X100710000Y-89757911D01*
X126315000Y-89757911D01*
X126315000Y-89942089D01*
X126350932Y-90122729D01*
X126421414Y-90292889D01*
X126523738Y-90446028D01*
X126653972Y-90576262D01*
X126807111Y-90678586D01*
X126977271Y-90749068D01*
X127157911Y-90785000D01*
X127342089Y-90785000D01*
X127522729Y-90749068D01*
X127692889Y-90678586D01*
X127846028Y-90576262D01*
X127976262Y-90446028D01*
X128078586Y-90292889D01*
X128149068Y-90122729D01*
X128185000Y-89942089D01*
X128185000Y-89757911D01*
X129265000Y-89757911D01*
X129265000Y-89942089D01*
X129300932Y-90122729D01*
X129371414Y-90292889D01*
X129473738Y-90446028D01*
X129603972Y-90576262D01*
X129757111Y-90678586D01*
X129927271Y-90749068D01*
X130107911Y-90785000D01*
X130292089Y-90785000D01*
X130472729Y-90749068D01*
X130642889Y-90678586D01*
X130796028Y-90576262D01*
X130926262Y-90446028D01*
X131028586Y-90292889D01*
X131099068Y-90122729D01*
X131135000Y-89942089D01*
X131135000Y-89757911D01*
X131099068Y-89577271D01*
X131028586Y-89407111D01*
X130926262Y-89253972D01*
X130796028Y-89123738D01*
X130642889Y-89021414D01*
X130472729Y-88950932D01*
X130292089Y-88915000D01*
X130107911Y-88915000D01*
X129927271Y-88950932D01*
X129757111Y-89021414D01*
X129603972Y-89123738D01*
X129473738Y-89253972D01*
X129371414Y-89407111D01*
X129300932Y-89577271D01*
X129265000Y-89757911D01*
X128185000Y-89757911D01*
X128149068Y-89577271D01*
X128078586Y-89407111D01*
X127976262Y-89253972D01*
X127846028Y-89123738D01*
X127692889Y-89021414D01*
X127522729Y-88950932D01*
X127342089Y-88915000D01*
X127157911Y-88915000D01*
X126977271Y-88950932D01*
X126807111Y-89021414D01*
X126653972Y-89123738D01*
X126523738Y-89253972D01*
X126421414Y-89407111D01*
X126350932Y-89577271D01*
X126315000Y-89757911D01*
X100710000Y-89757911D01*
X100710000Y-87557911D01*
X114990000Y-87557911D01*
X114990000Y-87742089D01*
X115025932Y-87922729D01*
X115096414Y-88092889D01*
X115198738Y-88246028D01*
X115328972Y-88376262D01*
X115482111Y-88478586D01*
X115652271Y-88549068D01*
X115832911Y-88585000D01*
X116017089Y-88585000D01*
X116197729Y-88549068D01*
X116367889Y-88478586D01*
X116521028Y-88376262D01*
X116651262Y-88246028D01*
X116753586Y-88092889D01*
X116824068Y-87922729D01*
X116860000Y-87742089D01*
X116860000Y-87557911D01*
X116824068Y-87377271D01*
X116753586Y-87207111D01*
X116651262Y-87053972D01*
X116521028Y-86923738D01*
X116367889Y-86821414D01*
X116197729Y-86750932D01*
X116017089Y-86715000D01*
X115832911Y-86715000D01*
X115652271Y-86750932D01*
X115482111Y-86821414D01*
X115328972Y-86923738D01*
X115198738Y-87053972D01*
X115096414Y-87207111D01*
X115025932Y-87377271D01*
X114990000Y-87557911D01*
X100710000Y-87557911D01*
X100710000Y-85675637D01*
X100797912Y-85807207D01*
X101192793Y-86202088D01*
X101657124Y-86512344D01*
X102173061Y-86726052D01*
X102720777Y-86835000D01*
X103279223Y-86835000D01*
X103826939Y-86726052D01*
X104342876Y-86512344D01*
X104807207Y-86202088D01*
X105202088Y-85807207D01*
X105286108Y-85681462D01*
X120033090Y-85681462D01*
X120033090Y-85865640D01*
X120069022Y-86046280D01*
X120139504Y-86216440D01*
X120241828Y-86369579D01*
X120372062Y-86499813D01*
X120525201Y-86602137D01*
X120695361Y-86672619D01*
X120876001Y-86708551D01*
X121060179Y-86708551D01*
X121240819Y-86672619D01*
X121399693Y-86606812D01*
X121507111Y-86678586D01*
X121677271Y-86749068D01*
X121857911Y-86785000D01*
X122042089Y-86785000D01*
X122222729Y-86749068D01*
X122392889Y-86678586D01*
X122546028Y-86576262D01*
X122676262Y-86446028D01*
X122778586Y-86292889D01*
X122849068Y-86122729D01*
X122885000Y-85942089D01*
X122885000Y-85757911D01*
X122849068Y-85577271D01*
X122778586Y-85407111D01*
X122676262Y-85253972D01*
X122546028Y-85123738D01*
X122392889Y-85021414D01*
X122222729Y-84950932D01*
X122042089Y-84915000D01*
X121857911Y-84915000D01*
X121677271Y-84950932D01*
X121518397Y-85016739D01*
X121410979Y-84944965D01*
X121240819Y-84874483D01*
X121060179Y-84838551D01*
X120876001Y-84838551D01*
X120695361Y-84874483D01*
X120525201Y-84944965D01*
X120372062Y-85047289D01*
X120241828Y-85177523D01*
X120139504Y-85330662D01*
X120069022Y-85500822D01*
X120033090Y-85681462D01*
X105286108Y-85681462D01*
X105512344Y-85342876D01*
X105726052Y-84826939D01*
X105835000Y-84279223D01*
X105835000Y-83720777D01*
X105726052Y-83173061D01*
X105530104Y-82700000D01*
X114161928Y-82700000D01*
X114161928Y-84400000D01*
X114174188Y-84524482D01*
X114210498Y-84644180D01*
X114269463Y-84754494D01*
X114348815Y-84851185D01*
X114445506Y-84930537D01*
X114555820Y-84989502D01*
X114675518Y-85025812D01*
X114800000Y-85038072D01*
X116500000Y-85038072D01*
X116624482Y-85025812D01*
X116744180Y-84989502D01*
X116854494Y-84930537D01*
X116951185Y-84851185D01*
X117030537Y-84754494D01*
X117089502Y-84644180D01*
X117125812Y-84524482D01*
X117138072Y-84400000D01*
X117138072Y-82700000D01*
X117125812Y-82575518D01*
X117089502Y-82455820D01*
X117030537Y-82345506D01*
X116951185Y-82248815D01*
X116854494Y-82169463D01*
X116744180Y-82110498D01*
X116624482Y-82074188D01*
X116500000Y-82061928D01*
X114800000Y-82061928D01*
X114675518Y-82074188D01*
X114555820Y-82110498D01*
X114445506Y-82169463D01*
X114348815Y-82248815D01*
X114269463Y-82345506D01*
X114210498Y-82455820D01*
X114174188Y-82575518D01*
X114161928Y-82700000D01*
X105530104Y-82700000D01*
X105512344Y-82657124D01*
X105202088Y-82192793D01*
X104807207Y-81797912D01*
X104675637Y-81710000D01*
X134324363Y-81710000D01*
X134192793Y-81797912D01*
G37*
X134192793Y-81797912D02*
X133797912Y-82192793D01*
X133487656Y-82657124D01*
X133273948Y-83173061D01*
X133165000Y-83720777D01*
X133165000Y-84279223D01*
X133273948Y-84826939D01*
X133487656Y-85342876D01*
X133797912Y-85807207D01*
X134192793Y-86202088D01*
X134657124Y-86512344D01*
X135173061Y-86726052D01*
X135720777Y-86835000D01*
X136279223Y-86835000D01*
X136826939Y-86726052D01*
X137342876Y-86512344D01*
X137807207Y-86202088D01*
X138202088Y-85807207D01*
X138290000Y-85675637D01*
X138290001Y-95324364D01*
X138202088Y-95192793D01*
X137807207Y-94797912D01*
X137342876Y-94487656D01*
X136826939Y-94273948D01*
X136279223Y-94165000D01*
X135720777Y-94165000D01*
X135173061Y-94273948D01*
X134657124Y-94487656D01*
X134192793Y-94797912D01*
X133797912Y-95192793D01*
X133487656Y-95657124D01*
X133273948Y-96173061D01*
X133165000Y-96720777D01*
X133165000Y-97279223D01*
X133273948Y-97826939D01*
X133487656Y-98342876D01*
X133797912Y-98807207D01*
X134192793Y-99202088D01*
X134324363Y-99290000D01*
X104675637Y-99290000D01*
X104807207Y-99202088D01*
X105202088Y-98807207D01*
X105512344Y-98342876D01*
X105726052Y-97826939D01*
X105835000Y-97279223D01*
X105835000Y-96720777D01*
X105726052Y-96173061D01*
X105636934Y-95957911D01*
X126215000Y-95957911D01*
X126215000Y-96142089D01*
X126250932Y-96322729D01*
X126321414Y-96492889D01*
X126423738Y-96646028D01*
X126553972Y-96776262D01*
X126707111Y-96878586D01*
X126877271Y-96949068D01*
X127057911Y-96985000D01*
X127242089Y-96985000D01*
X127422729Y-96949068D01*
X127592889Y-96878586D01*
X127746028Y-96776262D01*
X127876262Y-96646028D01*
X127978586Y-96492889D01*
X128049068Y-96322729D01*
X128085000Y-96142089D01*
X128085000Y-95957911D01*
X128049068Y-95777271D01*
X127978586Y-95607111D01*
X127876262Y-95453972D01*
X127746028Y-95323738D01*
X127592889Y-95221414D01*
X127422729Y-95150932D01*
X127242089Y-95115000D01*
X127057911Y-95115000D01*
X126877271Y-95150932D01*
X126707111Y-95221414D01*
X126553972Y-95323738D01*
X126423738Y-95453972D01*
X126321414Y-95607111D01*
X126250932Y-95777271D01*
X126215000Y-95957911D01*
X105636934Y-95957911D01*
X105512344Y-95657124D01*
X105202088Y-95192793D01*
X104807207Y-94797912D01*
X104342876Y-94487656D01*
X103826939Y-94273948D01*
X103279223Y-94165000D01*
X102720777Y-94165000D01*
X102173061Y-94273948D01*
X101657124Y-94487656D01*
X101192793Y-94797912D01*
X100797912Y-95192793D01*
X100710000Y-95324363D01*
X100710000Y-93957911D01*
X107415000Y-93957911D01*
X107415000Y-94142089D01*
X107450932Y-94322729D01*
X107521414Y-94492889D01*
X107623738Y-94646028D01*
X107753972Y-94776262D01*
X107907111Y-94878586D01*
X108077271Y-94949068D01*
X108257911Y-94985000D01*
X108442089Y-94985000D01*
X108622729Y-94949068D01*
X108792889Y-94878586D01*
X108946028Y-94776262D01*
X109076262Y-94646028D01*
X109178586Y-94492889D01*
X109213035Y-94409719D01*
X116266808Y-94409719D01*
X116266808Y-94593897D01*
X116302740Y-94774537D01*
X116373222Y-94944697D01*
X116475546Y-95097836D01*
X116605780Y-95228070D01*
X116758919Y-95330394D01*
X116929079Y-95400876D01*
X117109719Y-95436808D01*
X117293897Y-95436808D01*
X117474537Y-95400876D01*
X117638702Y-95332877D01*
X117707111Y-95378586D01*
X117877271Y-95449068D01*
X118057911Y-95485000D01*
X118242089Y-95485000D01*
X118422729Y-95449068D01*
X118592889Y-95378586D01*
X118746028Y-95276262D01*
X118876262Y-95146028D01*
X118978586Y-94992889D01*
X119049068Y-94822729D01*
X119085000Y-94642089D01*
X119085000Y-94457911D01*
X119049068Y-94277271D01*
X118978586Y-94107111D01*
X118876262Y-93953972D01*
X118746028Y-93823738D01*
X118592889Y-93721414D01*
X118422729Y-93650932D01*
X118242089Y-93615000D01*
X118057911Y-93615000D01*
X117877271Y-93650932D01*
X117713106Y-93718931D01*
X117644697Y-93673222D01*
X117474537Y-93602740D01*
X117293897Y-93566808D01*
X117109719Y-93566808D01*
X116929079Y-93602740D01*
X116758919Y-93673222D01*
X116605780Y-93775546D01*
X116475546Y-93905780D01*
X116373222Y-94058919D01*
X116302740Y-94229079D01*
X116266808Y-94409719D01*
X109213035Y-94409719D01*
X109249068Y-94322729D01*
X109285000Y-94142089D01*
X109285000Y-93957911D01*
X109249068Y-93777271D01*
X109178586Y-93607111D01*
X109076262Y-93453972D01*
X108946028Y-93323738D01*
X108847511Y-93257911D01*
X109715000Y-93257911D01*
X109715000Y-93442089D01*
X109750932Y-93622729D01*
X109821414Y-93792889D01*
X109923738Y-93946028D01*
X110053972Y-94076262D01*
X110207111Y-94178586D01*
X110377271Y-94249068D01*
X110557911Y-94285000D01*
X110742089Y-94285000D01*
X110922729Y-94249068D01*
X111092889Y-94178586D01*
X111246028Y-94076262D01*
X111376262Y-93946028D01*
X111478586Y-93792889D01*
X111549068Y-93622729D01*
X111585000Y-93442089D01*
X111585000Y-93257911D01*
X111549068Y-93077271D01*
X111499628Y-92957911D01*
X126215000Y-92957911D01*
X126215000Y-93142089D01*
X126250932Y-93322729D01*
X126321414Y-93492889D01*
X126423738Y-93646028D01*
X126553972Y-93776262D01*
X126707111Y-93878586D01*
X126877271Y-93949068D01*
X127057911Y-93985000D01*
X127242089Y-93985000D01*
X127422729Y-93949068D01*
X127592889Y-93878586D01*
X127746028Y-93776262D01*
X127876262Y-93646028D01*
X127978586Y-93492889D01*
X128049068Y-93322729D01*
X128085000Y-93142089D01*
X128085000Y-92957911D01*
X128665010Y-92957911D01*
X128665010Y-93142089D01*
X128700942Y-93322729D01*
X128771424Y-93492889D01*
X128873748Y-93646028D01*
X129003982Y-93776262D01*
X129157121Y-93878586D01*
X129327281Y-93949068D01*
X129507921Y-93985000D01*
X129692099Y-93985000D01*
X129872739Y-93949068D01*
X130042899Y-93878586D01*
X130196038Y-93776262D01*
X130225010Y-93747290D01*
X130253982Y-93776262D01*
X130407121Y-93878586D01*
X130577281Y-93949068D01*
X130757921Y-93985000D01*
X130942099Y-93985000D01*
X131122739Y-93949068D01*
X131292899Y-93878586D01*
X131446038Y-93776262D01*
X131576272Y-93646028D01*
X131678596Y-93492889D01*
X131749078Y-93322729D01*
X131785010Y-93142089D01*
X131785010Y-92957911D01*
X131749078Y-92777271D01*
X131678596Y-92607111D01*
X131576272Y-92453972D01*
X131446038Y-92323738D01*
X131292899Y-92221414D01*
X131122739Y-92150932D01*
X130942099Y-92115000D01*
X130757921Y-92115000D01*
X130577281Y-92150932D01*
X130407121Y-92221414D01*
X130253982Y-92323738D01*
X130225010Y-92352710D01*
X130196038Y-92323738D01*
X130042899Y-92221414D01*
X129872739Y-92150932D01*
X129692099Y-92115000D01*
X129507921Y-92115000D01*
X129327281Y-92150932D01*
X129157121Y-92221414D01*
X129003982Y-92323738D01*
X128873748Y-92453972D01*
X128771424Y-92607111D01*
X128700942Y-92777271D01*
X128665010Y-92957911D01*
X128085000Y-92957911D01*
X128049068Y-92777271D01*
X127978586Y-92607111D01*
X127876262Y-92453972D01*
X127746028Y-92323738D01*
X127592889Y-92221414D01*
X127422729Y-92150932D01*
X127242089Y-92115000D01*
X127057911Y-92115000D01*
X126877271Y-92150932D01*
X126707111Y-92221414D01*
X126553972Y-92323738D01*
X126423738Y-92453972D01*
X126321414Y-92607111D01*
X126250932Y-92777271D01*
X126215000Y-92957911D01*
X111499628Y-92957911D01*
X111478586Y-92907111D01*
X111376262Y-92753972D01*
X111246028Y-92623738D01*
X111092889Y-92521414D01*
X110922729Y-92450932D01*
X110742089Y-92415000D01*
X110557911Y-92415000D01*
X110377271Y-92450932D01*
X110207111Y-92521414D01*
X110053972Y-92623738D01*
X109923738Y-92753972D01*
X109821414Y-92907111D01*
X109750932Y-93077271D01*
X109715000Y-93257911D01*
X108847511Y-93257911D01*
X108792889Y-93221414D01*
X108622729Y-93150932D01*
X108442089Y-93115000D01*
X108257911Y-93115000D01*
X108077271Y-93150932D01*
X107907111Y-93221414D01*
X107753972Y-93323738D01*
X107623738Y-93453972D01*
X107521414Y-93607111D01*
X107450932Y-93777271D01*
X107415000Y-93957911D01*
X100710000Y-93957911D01*
X100710000Y-90882911D01*
X114690000Y-90882911D01*
X114690000Y-91067089D01*
X114725932Y-91247729D01*
X114796414Y-91417889D01*
X114898738Y-91571028D01*
X115028972Y-91701262D01*
X115182111Y-91803586D01*
X115352271Y-91874068D01*
X115532911Y-91910000D01*
X115717089Y-91910000D01*
X115897729Y-91874068D01*
X116067889Y-91803586D01*
X116221028Y-91701262D01*
X116264379Y-91657911D01*
X119165000Y-91657911D01*
X119165000Y-91842089D01*
X119200932Y-92022729D01*
X119271414Y-92192889D01*
X119373738Y-92346028D01*
X119503972Y-92476262D01*
X119657111Y-92578586D01*
X119827271Y-92649068D01*
X120007911Y-92685000D01*
X120192089Y-92685000D01*
X120372729Y-92649068D01*
X120542889Y-92578586D01*
X120696028Y-92476262D01*
X120826262Y-92346028D01*
X120928586Y-92192889D01*
X120999068Y-92022729D01*
X121035000Y-91842089D01*
X121035000Y-91657911D01*
X120999068Y-91477271D01*
X120928586Y-91307111D01*
X120826262Y-91153972D01*
X120780201Y-91107911D01*
X131065000Y-91107911D01*
X131065000Y-91292089D01*
X131100932Y-91472729D01*
X131171414Y-91642889D01*
X131273738Y-91796028D01*
X131403972Y-91926262D01*
X131557111Y-92028586D01*
X131727271Y-92099068D01*
X131907911Y-92135000D01*
X132092089Y-92135000D01*
X132272729Y-92099068D01*
X132442889Y-92028586D01*
X132596028Y-91926262D01*
X132726262Y-91796028D01*
X132828586Y-91642889D01*
X132899068Y-91472729D01*
X132935000Y-91292089D01*
X132935000Y-91157911D01*
X134515000Y-91157911D01*
X134515000Y-91342089D01*
X134550932Y-91522729D01*
X134621414Y-91692889D01*
X134723738Y-91846028D01*
X134853972Y-91976262D01*
X135007111Y-92078586D01*
X135177271Y-92149068D01*
X135357911Y-92185000D01*
X135542089Y-92185000D01*
X135722729Y-92149068D01*
X135892889Y-92078586D01*
X136046028Y-91976262D01*
X136176262Y-91846028D01*
X136278586Y-91692889D01*
X136349068Y-91522729D01*
X136385000Y-91342089D01*
X136385000Y-91157911D01*
X136349068Y-90977271D01*
X136278586Y-90807111D01*
X136176262Y-90653972D01*
X136046028Y-90523738D01*
X135892889Y-90421414D01*
X135722729Y-90350932D01*
X135542089Y-90315000D01*
X135357911Y-90315000D01*
X135177271Y-90350932D01*
X135007111Y-90421414D01*
X134853972Y-90523738D01*
X134723738Y-90653972D01*
X134621414Y-90807111D01*
X134550932Y-90977271D01*
X134515000Y-91157911D01*
X132935000Y-91157911D01*
X132935000Y-91107911D01*
X132899068Y-90927271D01*
X132828586Y-90757111D01*
X132726262Y-90603972D01*
X132596028Y-90473738D01*
X132442889Y-90371414D01*
X132272729Y-90300932D01*
X132092089Y-90265000D01*
X131907911Y-90265000D01*
X131727271Y-90300932D01*
X131557111Y-90371414D01*
X131403972Y-90473738D01*
X131273738Y-90603972D01*
X131171414Y-90757111D01*
X131100932Y-90927271D01*
X131065000Y-91107911D01*
X120780201Y-91107911D01*
X120696028Y-91023738D01*
X120542889Y-90921414D01*
X120372729Y-90850932D01*
X120192089Y-90815000D01*
X120007911Y-90815000D01*
X119827271Y-90850932D01*
X119657111Y-90921414D01*
X119503972Y-91023738D01*
X119373738Y-91153972D01*
X119271414Y-91307111D01*
X119200932Y-91477271D01*
X119165000Y-91657911D01*
X116264379Y-91657911D01*
X116351262Y-91571028D01*
X116453586Y-91417889D01*
X116524068Y-91247729D01*
X116560000Y-91067089D01*
X116560000Y-90882911D01*
X116524068Y-90702271D01*
X116453586Y-90532111D01*
X116351262Y-90378972D01*
X116221028Y-90248738D01*
X116067889Y-90146414D01*
X115897729Y-90075932D01*
X115717089Y-90040000D01*
X115532911Y-90040000D01*
X115352271Y-90075932D01*
X115182111Y-90146414D01*
X115028972Y-90248738D01*
X114898738Y-90378972D01*
X114796414Y-90532111D01*
X114725932Y-90702271D01*
X114690000Y-90882911D01*
X100710000Y-90882911D01*
X100710000Y-89757911D01*
X126315000Y-89757911D01*
X126315000Y-89942089D01*
X126350932Y-90122729D01*
X126421414Y-90292889D01*
X126523738Y-90446028D01*
X126653972Y-90576262D01*
X126807111Y-90678586D01*
X126977271Y-90749068D01*
X127157911Y-90785000D01*
X127342089Y-90785000D01*
X127522729Y-90749068D01*
X127692889Y-90678586D01*
X127846028Y-90576262D01*
X127976262Y-90446028D01*
X128078586Y-90292889D01*
X128149068Y-90122729D01*
X128185000Y-89942089D01*
X128185000Y-89757911D01*
X129265000Y-89757911D01*
X129265000Y-89942089D01*
X129300932Y-90122729D01*
X129371414Y-90292889D01*
X129473738Y-90446028D01*
X129603972Y-90576262D01*
X129757111Y-90678586D01*
X129927271Y-90749068D01*
X130107911Y-90785000D01*
X130292089Y-90785000D01*
X130472729Y-90749068D01*
X130642889Y-90678586D01*
X130796028Y-90576262D01*
X130926262Y-90446028D01*
X131028586Y-90292889D01*
X131099068Y-90122729D01*
X131135000Y-89942089D01*
X131135000Y-89757911D01*
X131099068Y-89577271D01*
X131028586Y-89407111D01*
X130926262Y-89253972D01*
X130796028Y-89123738D01*
X130642889Y-89021414D01*
X130472729Y-88950932D01*
X130292089Y-88915000D01*
X130107911Y-88915000D01*
X129927271Y-88950932D01*
X129757111Y-89021414D01*
X129603972Y-89123738D01*
X129473738Y-89253972D01*
X129371414Y-89407111D01*
X129300932Y-89577271D01*
X129265000Y-89757911D01*
X128185000Y-89757911D01*
X128149068Y-89577271D01*
X128078586Y-89407111D01*
X127976262Y-89253972D01*
X127846028Y-89123738D01*
X127692889Y-89021414D01*
X127522729Y-88950932D01*
X127342089Y-88915000D01*
X127157911Y-88915000D01*
X126977271Y-88950932D01*
X126807111Y-89021414D01*
X126653972Y-89123738D01*
X126523738Y-89253972D01*
X126421414Y-89407111D01*
X126350932Y-89577271D01*
X126315000Y-89757911D01*
X100710000Y-89757911D01*
X100710000Y-87557911D01*
X114990000Y-87557911D01*
X114990000Y-87742089D01*
X115025932Y-87922729D01*
X115096414Y-88092889D01*
X115198738Y-88246028D01*
X115328972Y-88376262D01*
X115482111Y-88478586D01*
X115652271Y-88549068D01*
X115832911Y-88585000D01*
X116017089Y-88585000D01*
X116197729Y-88549068D01*
X116367889Y-88478586D01*
X116521028Y-88376262D01*
X116651262Y-88246028D01*
X116753586Y-88092889D01*
X116824068Y-87922729D01*
X116860000Y-87742089D01*
X116860000Y-87557911D01*
X116824068Y-87377271D01*
X116753586Y-87207111D01*
X116651262Y-87053972D01*
X116521028Y-86923738D01*
X116367889Y-86821414D01*
X116197729Y-86750932D01*
X116017089Y-86715000D01*
X115832911Y-86715000D01*
X115652271Y-86750932D01*
X115482111Y-86821414D01*
X115328972Y-86923738D01*
X115198738Y-87053972D01*
X115096414Y-87207111D01*
X115025932Y-87377271D01*
X114990000Y-87557911D01*
X100710000Y-87557911D01*
X100710000Y-85675637D01*
X100797912Y-85807207D01*
X101192793Y-86202088D01*
X101657124Y-86512344D01*
X102173061Y-86726052D01*
X102720777Y-86835000D01*
X103279223Y-86835000D01*
X103826939Y-86726052D01*
X104342876Y-86512344D01*
X104807207Y-86202088D01*
X105202088Y-85807207D01*
X105286108Y-85681462D01*
X120033090Y-85681462D01*
X120033090Y-85865640D01*
X120069022Y-86046280D01*
X120139504Y-86216440D01*
X120241828Y-86369579D01*
X120372062Y-86499813D01*
X120525201Y-86602137D01*
X120695361Y-86672619D01*
X120876001Y-86708551D01*
X121060179Y-86708551D01*
X121240819Y-86672619D01*
X121399693Y-86606812D01*
X121507111Y-86678586D01*
X121677271Y-86749068D01*
X121857911Y-86785000D01*
X122042089Y-86785000D01*
X122222729Y-86749068D01*
X122392889Y-86678586D01*
X122546028Y-86576262D01*
X122676262Y-86446028D01*
X122778586Y-86292889D01*
X122849068Y-86122729D01*
X122885000Y-85942089D01*
X122885000Y-85757911D01*
X122849068Y-85577271D01*
X122778586Y-85407111D01*
X122676262Y-85253972D01*
X122546028Y-85123738D01*
X122392889Y-85021414D01*
X122222729Y-84950932D01*
X122042089Y-84915000D01*
X121857911Y-84915000D01*
X121677271Y-84950932D01*
X121518397Y-85016739D01*
X121410979Y-84944965D01*
X121240819Y-84874483D01*
X121060179Y-84838551D01*
X120876001Y-84838551D01*
X120695361Y-84874483D01*
X120525201Y-84944965D01*
X120372062Y-85047289D01*
X120241828Y-85177523D01*
X120139504Y-85330662D01*
X120069022Y-85500822D01*
X120033090Y-85681462D01*
X105286108Y-85681462D01*
X105512344Y-85342876D01*
X105726052Y-84826939D01*
X105835000Y-84279223D01*
X105835000Y-83720777D01*
X105726052Y-83173061D01*
X105530104Y-82700000D01*
X114161928Y-82700000D01*
X114161928Y-84400000D01*
X114174188Y-84524482D01*
X114210498Y-84644180D01*
X114269463Y-84754494D01*
X114348815Y-84851185D01*
X114445506Y-84930537D01*
X114555820Y-84989502D01*
X114675518Y-85025812D01*
X114800000Y-85038072D01*
X116500000Y-85038072D01*
X116624482Y-85025812D01*
X116744180Y-84989502D01*
X116854494Y-84930537D01*
X116951185Y-84851185D01*
X117030537Y-84754494D01*
X117089502Y-84644180D01*
X117125812Y-84524482D01*
X117138072Y-84400000D01*
X117138072Y-82700000D01*
X117125812Y-82575518D01*
X117089502Y-82455820D01*
X117030537Y-82345506D01*
X116951185Y-82248815D01*
X116854494Y-82169463D01*
X116744180Y-82110498D01*
X116624482Y-82074188D01*
X116500000Y-82061928D01*
X114800000Y-82061928D01*
X114675518Y-82074188D01*
X114555820Y-82110498D01*
X114445506Y-82169463D01*
X114348815Y-82248815D01*
X114269463Y-82345506D01*
X114210498Y-82455820D01*
X114174188Y-82575518D01*
X114161928Y-82700000D01*
X105530104Y-82700000D01*
X105512344Y-82657124D01*
X105202088Y-82192793D01*
X104807207Y-81797912D01*
X104675637Y-81710000D01*
X134324363Y-81710000D01*
X134192793Y-81797912D01*
M02*
