%FSLAX45Y45*%
G04 Gerber Fmt 4.5, Leading zero omitted, Abs format (unit mm)*
G04 Created by KiCad (PCBNEW (5.1.5-0)) date 2022-03-31 12:05:22*
%MOMM*%
%LPD*%
G04 APERTURE LIST*
%TA.AperFunction,Profile*%
%ADD10C,0.150000*%
%TD*%
%ADD11C,0.200000*%
%ADD12C,0.300000*%
G04 APERTURE END LIST*
D10*
X10000000Y-8100000D02*
X13900000Y-8100000D01*
X10000000Y-10000000D02*
X10000000Y-8100000D01*
X13900000Y-10000000D02*
X10000000Y-10000000D01*
X13900000Y-8100000D02*
X13900000Y-10000000D01*
D11*
D12*
X10278928Y-10473214D02*
X10278928Y-10173214D01*
X10350357Y-10173214D01*
X10393214Y-10187500D01*
X10421786Y-10216072D01*
X10436071Y-10244643D01*
X10450357Y-10301786D01*
X10450357Y-10344643D01*
X10436071Y-10401786D01*
X10421786Y-10430357D01*
X10393214Y-10458929D01*
X10350357Y-10473214D01*
X10278928Y-10473214D01*
X10578928Y-10473214D02*
X10578928Y-10273214D01*
X10578928Y-10330357D02*
X10593214Y-10301786D01*
X10607500Y-10287500D01*
X10636071Y-10273214D01*
X10664643Y-10273214D01*
X10764643Y-10473214D02*
X10764643Y-10273214D01*
X10764643Y-10173214D02*
X10750357Y-10187500D01*
X10764643Y-10201786D01*
X10778928Y-10187500D01*
X10764643Y-10173214D01*
X10764643Y-10201786D01*
X10950357Y-10473214D02*
X10921786Y-10458929D01*
X10907500Y-10430357D01*
X10907500Y-10173214D01*
X11107500Y-10473214D02*
X11078928Y-10458929D01*
X11064643Y-10430357D01*
X11064643Y-10173214D01*
X11450357Y-10473214D02*
X11450357Y-10173214D01*
X11550357Y-10387500D01*
X11650357Y-10173214D01*
X11650357Y-10473214D01*
X11921786Y-10473214D02*
X11921786Y-10316072D01*
X11907500Y-10287500D01*
X11878928Y-10273214D01*
X11821786Y-10273214D01*
X11793214Y-10287500D01*
X11921786Y-10458929D02*
X11893214Y-10473214D01*
X11821786Y-10473214D01*
X11793214Y-10458929D01*
X11778928Y-10430357D01*
X11778928Y-10401786D01*
X11793214Y-10373214D01*
X11821786Y-10358929D01*
X11893214Y-10358929D01*
X11921786Y-10344643D01*
X12064643Y-10273214D02*
X12064643Y-10573214D01*
X12064643Y-10287500D02*
X12093214Y-10273214D01*
X12150357Y-10273214D01*
X12178928Y-10287500D01*
X12193214Y-10301786D01*
X12207500Y-10330357D01*
X12207500Y-10416072D01*
X12193214Y-10444643D01*
X12178928Y-10458929D01*
X12150357Y-10473214D01*
X12093214Y-10473214D01*
X12064643Y-10458929D01*
X12336071Y-10444643D02*
X12350357Y-10458929D01*
X12336071Y-10473214D01*
X12321786Y-10458929D01*
X12336071Y-10444643D01*
X12336071Y-10473214D01*
X12336071Y-10287500D02*
X12350357Y-10301786D01*
X12336071Y-10316072D01*
X12321786Y-10301786D01*
X12336071Y-10287500D01*
X12336071Y-10316072D01*
M02*
