G04 #@! TF.GenerationSoftware,KiCad,Pcbnew,(5.1.5-0)*
G04 #@! TF.CreationDate,2021-08-18T08:54:09-06:00*
G04 #@! TF.ProjectId,imon,696d6f6e-2e6b-4696-9361-645f70636258,rev?*
G04 #@! TF.SameCoordinates,Original*
G04 #@! TF.FileFunction,Copper,L1,Top*
G04 #@! TF.FilePolarity,Positive*
%FSLAX46Y46*%
G04 Gerber Fmt 4.6, Leading zero omitted, Abs format (unit mm)*
G04 Created by KiCad (PCBNEW (5.1.5-0)) date 2021-08-18 08:54:09*
%MOMM*%
%LPD*%
G04 APERTURE LIST*
%ADD10C,0.100000*%
%ADD11C,1.240000*%
%ADD12C,2.600000*%
%ADD13R,2.600000X2.600000*%
%ADD14R,1.200000X1.900000*%
%ADD15O,1.200000X1.900000*%
%ADD16R,1.500000X1.900000*%
%ADD17C,1.450000*%
%ADD18R,0.400000X1.350000*%
%ADD19R,1.200000X2.000000*%
%ADD20C,0.250000*%
%ADD21C,1.000000*%
%ADD22C,0.254000*%
G04 APERTURE END LIST*
G04 #@! TA.AperFunction,SMDPad,CuDef*
D10*
G36*
X142714703Y-91295722D02*
G01*
X142729264Y-91297882D01*
X142743543Y-91301459D01*
X142757403Y-91306418D01*
X142770710Y-91312712D01*
X142783336Y-91320280D01*
X142795159Y-91329048D01*
X142806066Y-91338934D01*
X142815952Y-91349841D01*
X142824720Y-91361664D01*
X142832288Y-91374290D01*
X142838582Y-91387597D01*
X142843541Y-91401457D01*
X142847118Y-91415736D01*
X142849278Y-91430297D01*
X142850000Y-91445000D01*
X142850000Y-91745000D01*
X142849278Y-91759703D01*
X142847118Y-91774264D01*
X142843541Y-91788543D01*
X142838582Y-91802403D01*
X142832288Y-91815710D01*
X142824720Y-91828336D01*
X142815952Y-91840159D01*
X142806066Y-91851066D01*
X142795159Y-91860952D01*
X142783336Y-91869720D01*
X142770710Y-91877288D01*
X142757403Y-91883582D01*
X142743543Y-91888541D01*
X142729264Y-91892118D01*
X142714703Y-91894278D01*
X142700000Y-91895000D01*
X141050000Y-91895000D01*
X141035297Y-91894278D01*
X141020736Y-91892118D01*
X141006457Y-91888541D01*
X140992597Y-91883582D01*
X140979290Y-91877288D01*
X140966664Y-91869720D01*
X140954841Y-91860952D01*
X140943934Y-91851066D01*
X140934048Y-91840159D01*
X140925280Y-91828336D01*
X140917712Y-91815710D01*
X140911418Y-91802403D01*
X140906459Y-91788543D01*
X140902882Y-91774264D01*
X140900722Y-91759703D01*
X140900000Y-91745000D01*
X140900000Y-91445000D01*
X140900722Y-91430297D01*
X140902882Y-91415736D01*
X140906459Y-91401457D01*
X140911418Y-91387597D01*
X140917712Y-91374290D01*
X140925280Y-91361664D01*
X140934048Y-91349841D01*
X140943934Y-91338934D01*
X140954841Y-91329048D01*
X140966664Y-91320280D01*
X140979290Y-91312712D01*
X140992597Y-91306418D01*
X141006457Y-91301459D01*
X141020736Y-91297882D01*
X141035297Y-91295722D01*
X141050000Y-91295000D01*
X142700000Y-91295000D01*
X142714703Y-91295722D01*
G37*
G04 #@! TD.AperFunction*
G04 #@! TA.AperFunction,SMDPad,CuDef*
G36*
X142714703Y-92565722D02*
G01*
X142729264Y-92567882D01*
X142743543Y-92571459D01*
X142757403Y-92576418D01*
X142770710Y-92582712D01*
X142783336Y-92590280D01*
X142795159Y-92599048D01*
X142806066Y-92608934D01*
X142815952Y-92619841D01*
X142824720Y-92631664D01*
X142832288Y-92644290D01*
X142838582Y-92657597D01*
X142843541Y-92671457D01*
X142847118Y-92685736D01*
X142849278Y-92700297D01*
X142850000Y-92715000D01*
X142850000Y-93015000D01*
X142849278Y-93029703D01*
X142847118Y-93044264D01*
X142843541Y-93058543D01*
X142838582Y-93072403D01*
X142832288Y-93085710D01*
X142824720Y-93098336D01*
X142815952Y-93110159D01*
X142806066Y-93121066D01*
X142795159Y-93130952D01*
X142783336Y-93139720D01*
X142770710Y-93147288D01*
X142757403Y-93153582D01*
X142743543Y-93158541D01*
X142729264Y-93162118D01*
X142714703Y-93164278D01*
X142700000Y-93165000D01*
X141050000Y-93165000D01*
X141035297Y-93164278D01*
X141020736Y-93162118D01*
X141006457Y-93158541D01*
X140992597Y-93153582D01*
X140979290Y-93147288D01*
X140966664Y-93139720D01*
X140954841Y-93130952D01*
X140943934Y-93121066D01*
X140934048Y-93110159D01*
X140925280Y-93098336D01*
X140917712Y-93085710D01*
X140911418Y-93072403D01*
X140906459Y-93058543D01*
X140902882Y-93044264D01*
X140900722Y-93029703D01*
X140900000Y-93015000D01*
X140900000Y-92715000D01*
X140900722Y-92700297D01*
X140902882Y-92685736D01*
X140906459Y-92671457D01*
X140911418Y-92657597D01*
X140917712Y-92644290D01*
X140925280Y-92631664D01*
X140934048Y-92619841D01*
X140943934Y-92608934D01*
X140954841Y-92599048D01*
X140966664Y-92590280D01*
X140979290Y-92582712D01*
X140992597Y-92576418D01*
X141006457Y-92571459D01*
X141020736Y-92567882D01*
X141035297Y-92565722D01*
X141050000Y-92565000D01*
X142700000Y-92565000D01*
X142714703Y-92565722D01*
G37*
G04 #@! TD.AperFunction*
G04 #@! TA.AperFunction,SMDPad,CuDef*
G36*
X142714703Y-93835722D02*
G01*
X142729264Y-93837882D01*
X142743543Y-93841459D01*
X142757403Y-93846418D01*
X142770710Y-93852712D01*
X142783336Y-93860280D01*
X142795159Y-93869048D01*
X142806066Y-93878934D01*
X142815952Y-93889841D01*
X142824720Y-93901664D01*
X142832288Y-93914290D01*
X142838582Y-93927597D01*
X142843541Y-93941457D01*
X142847118Y-93955736D01*
X142849278Y-93970297D01*
X142850000Y-93985000D01*
X142850000Y-94285000D01*
X142849278Y-94299703D01*
X142847118Y-94314264D01*
X142843541Y-94328543D01*
X142838582Y-94342403D01*
X142832288Y-94355710D01*
X142824720Y-94368336D01*
X142815952Y-94380159D01*
X142806066Y-94391066D01*
X142795159Y-94400952D01*
X142783336Y-94409720D01*
X142770710Y-94417288D01*
X142757403Y-94423582D01*
X142743543Y-94428541D01*
X142729264Y-94432118D01*
X142714703Y-94434278D01*
X142700000Y-94435000D01*
X141050000Y-94435000D01*
X141035297Y-94434278D01*
X141020736Y-94432118D01*
X141006457Y-94428541D01*
X140992597Y-94423582D01*
X140979290Y-94417288D01*
X140966664Y-94409720D01*
X140954841Y-94400952D01*
X140943934Y-94391066D01*
X140934048Y-94380159D01*
X140925280Y-94368336D01*
X140917712Y-94355710D01*
X140911418Y-94342403D01*
X140906459Y-94328543D01*
X140902882Y-94314264D01*
X140900722Y-94299703D01*
X140900000Y-94285000D01*
X140900000Y-93985000D01*
X140900722Y-93970297D01*
X140902882Y-93955736D01*
X140906459Y-93941457D01*
X140911418Y-93927597D01*
X140917712Y-93914290D01*
X140925280Y-93901664D01*
X140934048Y-93889841D01*
X140943934Y-93878934D01*
X140954841Y-93869048D01*
X140966664Y-93860280D01*
X140979290Y-93852712D01*
X140992597Y-93846418D01*
X141006457Y-93841459D01*
X141020736Y-93837882D01*
X141035297Y-93835722D01*
X141050000Y-93835000D01*
X142700000Y-93835000D01*
X142714703Y-93835722D01*
G37*
G04 #@! TD.AperFunction*
G04 #@! TA.AperFunction,SMDPad,CuDef*
G36*
X142714703Y-95105722D02*
G01*
X142729264Y-95107882D01*
X142743543Y-95111459D01*
X142757403Y-95116418D01*
X142770710Y-95122712D01*
X142783336Y-95130280D01*
X142795159Y-95139048D01*
X142806066Y-95148934D01*
X142815952Y-95159841D01*
X142824720Y-95171664D01*
X142832288Y-95184290D01*
X142838582Y-95197597D01*
X142843541Y-95211457D01*
X142847118Y-95225736D01*
X142849278Y-95240297D01*
X142850000Y-95255000D01*
X142850000Y-95555000D01*
X142849278Y-95569703D01*
X142847118Y-95584264D01*
X142843541Y-95598543D01*
X142838582Y-95612403D01*
X142832288Y-95625710D01*
X142824720Y-95638336D01*
X142815952Y-95650159D01*
X142806066Y-95661066D01*
X142795159Y-95670952D01*
X142783336Y-95679720D01*
X142770710Y-95687288D01*
X142757403Y-95693582D01*
X142743543Y-95698541D01*
X142729264Y-95702118D01*
X142714703Y-95704278D01*
X142700000Y-95705000D01*
X141050000Y-95705000D01*
X141035297Y-95704278D01*
X141020736Y-95702118D01*
X141006457Y-95698541D01*
X140992597Y-95693582D01*
X140979290Y-95687288D01*
X140966664Y-95679720D01*
X140954841Y-95670952D01*
X140943934Y-95661066D01*
X140934048Y-95650159D01*
X140925280Y-95638336D01*
X140917712Y-95625710D01*
X140911418Y-95612403D01*
X140906459Y-95598543D01*
X140902882Y-95584264D01*
X140900722Y-95569703D01*
X140900000Y-95555000D01*
X140900000Y-95255000D01*
X140900722Y-95240297D01*
X140902882Y-95225736D01*
X140906459Y-95211457D01*
X140911418Y-95197597D01*
X140917712Y-95184290D01*
X140925280Y-95171664D01*
X140934048Y-95159841D01*
X140943934Y-95148934D01*
X140954841Y-95139048D01*
X140966664Y-95130280D01*
X140979290Y-95122712D01*
X140992597Y-95116418D01*
X141006457Y-95111459D01*
X141020736Y-95107882D01*
X141035297Y-95105722D01*
X141050000Y-95105000D01*
X142700000Y-95105000D01*
X142714703Y-95105722D01*
G37*
G04 #@! TD.AperFunction*
G04 #@! TA.AperFunction,SMDPad,CuDef*
G36*
X137764703Y-95105722D02*
G01*
X137779264Y-95107882D01*
X137793543Y-95111459D01*
X137807403Y-95116418D01*
X137820710Y-95122712D01*
X137833336Y-95130280D01*
X137845159Y-95139048D01*
X137856066Y-95148934D01*
X137865952Y-95159841D01*
X137874720Y-95171664D01*
X137882288Y-95184290D01*
X137888582Y-95197597D01*
X137893541Y-95211457D01*
X137897118Y-95225736D01*
X137899278Y-95240297D01*
X137900000Y-95255000D01*
X137900000Y-95555000D01*
X137899278Y-95569703D01*
X137897118Y-95584264D01*
X137893541Y-95598543D01*
X137888582Y-95612403D01*
X137882288Y-95625710D01*
X137874720Y-95638336D01*
X137865952Y-95650159D01*
X137856066Y-95661066D01*
X137845159Y-95670952D01*
X137833336Y-95679720D01*
X137820710Y-95687288D01*
X137807403Y-95693582D01*
X137793543Y-95698541D01*
X137779264Y-95702118D01*
X137764703Y-95704278D01*
X137750000Y-95705000D01*
X136100000Y-95705000D01*
X136085297Y-95704278D01*
X136070736Y-95702118D01*
X136056457Y-95698541D01*
X136042597Y-95693582D01*
X136029290Y-95687288D01*
X136016664Y-95679720D01*
X136004841Y-95670952D01*
X135993934Y-95661066D01*
X135984048Y-95650159D01*
X135975280Y-95638336D01*
X135967712Y-95625710D01*
X135961418Y-95612403D01*
X135956459Y-95598543D01*
X135952882Y-95584264D01*
X135950722Y-95569703D01*
X135950000Y-95555000D01*
X135950000Y-95255000D01*
X135950722Y-95240297D01*
X135952882Y-95225736D01*
X135956459Y-95211457D01*
X135961418Y-95197597D01*
X135967712Y-95184290D01*
X135975280Y-95171664D01*
X135984048Y-95159841D01*
X135993934Y-95148934D01*
X136004841Y-95139048D01*
X136016664Y-95130280D01*
X136029290Y-95122712D01*
X136042597Y-95116418D01*
X136056457Y-95111459D01*
X136070736Y-95107882D01*
X136085297Y-95105722D01*
X136100000Y-95105000D01*
X137750000Y-95105000D01*
X137764703Y-95105722D01*
G37*
G04 #@! TD.AperFunction*
G04 #@! TA.AperFunction,SMDPad,CuDef*
G36*
X137764703Y-93835722D02*
G01*
X137779264Y-93837882D01*
X137793543Y-93841459D01*
X137807403Y-93846418D01*
X137820710Y-93852712D01*
X137833336Y-93860280D01*
X137845159Y-93869048D01*
X137856066Y-93878934D01*
X137865952Y-93889841D01*
X137874720Y-93901664D01*
X137882288Y-93914290D01*
X137888582Y-93927597D01*
X137893541Y-93941457D01*
X137897118Y-93955736D01*
X137899278Y-93970297D01*
X137900000Y-93985000D01*
X137900000Y-94285000D01*
X137899278Y-94299703D01*
X137897118Y-94314264D01*
X137893541Y-94328543D01*
X137888582Y-94342403D01*
X137882288Y-94355710D01*
X137874720Y-94368336D01*
X137865952Y-94380159D01*
X137856066Y-94391066D01*
X137845159Y-94400952D01*
X137833336Y-94409720D01*
X137820710Y-94417288D01*
X137807403Y-94423582D01*
X137793543Y-94428541D01*
X137779264Y-94432118D01*
X137764703Y-94434278D01*
X137750000Y-94435000D01*
X136100000Y-94435000D01*
X136085297Y-94434278D01*
X136070736Y-94432118D01*
X136056457Y-94428541D01*
X136042597Y-94423582D01*
X136029290Y-94417288D01*
X136016664Y-94409720D01*
X136004841Y-94400952D01*
X135993934Y-94391066D01*
X135984048Y-94380159D01*
X135975280Y-94368336D01*
X135967712Y-94355710D01*
X135961418Y-94342403D01*
X135956459Y-94328543D01*
X135952882Y-94314264D01*
X135950722Y-94299703D01*
X135950000Y-94285000D01*
X135950000Y-93985000D01*
X135950722Y-93970297D01*
X135952882Y-93955736D01*
X135956459Y-93941457D01*
X135961418Y-93927597D01*
X135967712Y-93914290D01*
X135975280Y-93901664D01*
X135984048Y-93889841D01*
X135993934Y-93878934D01*
X136004841Y-93869048D01*
X136016664Y-93860280D01*
X136029290Y-93852712D01*
X136042597Y-93846418D01*
X136056457Y-93841459D01*
X136070736Y-93837882D01*
X136085297Y-93835722D01*
X136100000Y-93835000D01*
X137750000Y-93835000D01*
X137764703Y-93835722D01*
G37*
G04 #@! TD.AperFunction*
G04 #@! TA.AperFunction,SMDPad,CuDef*
G36*
X137764703Y-92565722D02*
G01*
X137779264Y-92567882D01*
X137793543Y-92571459D01*
X137807403Y-92576418D01*
X137820710Y-92582712D01*
X137833336Y-92590280D01*
X137845159Y-92599048D01*
X137856066Y-92608934D01*
X137865952Y-92619841D01*
X137874720Y-92631664D01*
X137882288Y-92644290D01*
X137888582Y-92657597D01*
X137893541Y-92671457D01*
X137897118Y-92685736D01*
X137899278Y-92700297D01*
X137900000Y-92715000D01*
X137900000Y-93015000D01*
X137899278Y-93029703D01*
X137897118Y-93044264D01*
X137893541Y-93058543D01*
X137888582Y-93072403D01*
X137882288Y-93085710D01*
X137874720Y-93098336D01*
X137865952Y-93110159D01*
X137856066Y-93121066D01*
X137845159Y-93130952D01*
X137833336Y-93139720D01*
X137820710Y-93147288D01*
X137807403Y-93153582D01*
X137793543Y-93158541D01*
X137779264Y-93162118D01*
X137764703Y-93164278D01*
X137750000Y-93165000D01*
X136100000Y-93165000D01*
X136085297Y-93164278D01*
X136070736Y-93162118D01*
X136056457Y-93158541D01*
X136042597Y-93153582D01*
X136029290Y-93147288D01*
X136016664Y-93139720D01*
X136004841Y-93130952D01*
X135993934Y-93121066D01*
X135984048Y-93110159D01*
X135975280Y-93098336D01*
X135967712Y-93085710D01*
X135961418Y-93072403D01*
X135956459Y-93058543D01*
X135952882Y-93044264D01*
X135950722Y-93029703D01*
X135950000Y-93015000D01*
X135950000Y-92715000D01*
X135950722Y-92700297D01*
X135952882Y-92685736D01*
X135956459Y-92671457D01*
X135961418Y-92657597D01*
X135967712Y-92644290D01*
X135975280Y-92631664D01*
X135984048Y-92619841D01*
X135993934Y-92608934D01*
X136004841Y-92599048D01*
X136016664Y-92590280D01*
X136029290Y-92582712D01*
X136042597Y-92576418D01*
X136056457Y-92571459D01*
X136070736Y-92567882D01*
X136085297Y-92565722D01*
X136100000Y-92565000D01*
X137750000Y-92565000D01*
X137764703Y-92565722D01*
G37*
G04 #@! TD.AperFunction*
G04 #@! TA.AperFunction,SMDPad,CuDef*
G36*
X137764703Y-91295722D02*
G01*
X137779264Y-91297882D01*
X137793543Y-91301459D01*
X137807403Y-91306418D01*
X137820710Y-91312712D01*
X137833336Y-91320280D01*
X137845159Y-91329048D01*
X137856066Y-91338934D01*
X137865952Y-91349841D01*
X137874720Y-91361664D01*
X137882288Y-91374290D01*
X137888582Y-91387597D01*
X137893541Y-91401457D01*
X137897118Y-91415736D01*
X137899278Y-91430297D01*
X137900000Y-91445000D01*
X137900000Y-91745000D01*
X137899278Y-91759703D01*
X137897118Y-91774264D01*
X137893541Y-91788543D01*
X137888582Y-91802403D01*
X137882288Y-91815710D01*
X137874720Y-91828336D01*
X137865952Y-91840159D01*
X137856066Y-91851066D01*
X137845159Y-91860952D01*
X137833336Y-91869720D01*
X137820710Y-91877288D01*
X137807403Y-91883582D01*
X137793543Y-91888541D01*
X137779264Y-91892118D01*
X137764703Y-91894278D01*
X137750000Y-91895000D01*
X136100000Y-91895000D01*
X136085297Y-91894278D01*
X136070736Y-91892118D01*
X136056457Y-91888541D01*
X136042597Y-91883582D01*
X136029290Y-91877288D01*
X136016664Y-91869720D01*
X136004841Y-91860952D01*
X135993934Y-91851066D01*
X135984048Y-91840159D01*
X135975280Y-91828336D01*
X135967712Y-91815710D01*
X135961418Y-91802403D01*
X135956459Y-91788543D01*
X135952882Y-91774264D01*
X135950722Y-91759703D01*
X135950000Y-91745000D01*
X135950000Y-91445000D01*
X135950722Y-91430297D01*
X135952882Y-91415736D01*
X135956459Y-91401457D01*
X135961418Y-91387597D01*
X135967712Y-91374290D01*
X135975280Y-91361664D01*
X135984048Y-91349841D01*
X135993934Y-91338934D01*
X136004841Y-91329048D01*
X136016664Y-91320280D01*
X136029290Y-91312712D01*
X136042597Y-91306418D01*
X136056457Y-91301459D01*
X136070736Y-91297882D01*
X136085297Y-91295722D01*
X136100000Y-91295000D01*
X137750000Y-91295000D01*
X137764703Y-91295722D01*
G37*
G04 #@! TD.AperFunction*
D11*
X145230000Y-91970000D03*
X147770000Y-89430000D03*
X147770000Y-91970000D03*
X145230000Y-89430000D03*
X146500000Y-90700000D03*
X145230000Y-86070000D03*
X147770000Y-83530000D03*
X147770000Y-86070000D03*
X145230000Y-83530000D03*
X146500000Y-84800000D03*
D12*
X125300000Y-96280000D03*
D13*
X125300000Y-91200000D03*
D14*
X142400000Y-71462500D03*
X136600000Y-71462500D03*
D15*
X136000000Y-71462500D03*
X143000000Y-71462500D03*
D16*
X140500000Y-71462500D03*
D17*
X137000000Y-74162500D03*
D18*
X139500000Y-74162500D03*
X138850000Y-74162500D03*
X138200000Y-74162500D03*
X140800000Y-74162500D03*
X140150000Y-74162500D03*
D17*
X142000000Y-74162500D03*
D16*
X138500000Y-71462500D03*
D19*
X140770000Y-84750000D03*
X138230000Y-84750000D03*
X138230000Y-77250000D03*
X140770000Y-77250000D03*
G04 #@! TA.AperFunction,SMDPad,CuDef*
D10*
G36*
X142710779Y-89126144D02*
G01*
X142733834Y-89129563D01*
X142756443Y-89135227D01*
X142778387Y-89143079D01*
X142799457Y-89153044D01*
X142819448Y-89165026D01*
X142838168Y-89178910D01*
X142855438Y-89194562D01*
X142871090Y-89211832D01*
X142884974Y-89230552D01*
X142896956Y-89250543D01*
X142906921Y-89271613D01*
X142914773Y-89293557D01*
X142920437Y-89316166D01*
X142923856Y-89339221D01*
X142925000Y-89362500D01*
X142925000Y-89837500D01*
X142923856Y-89860779D01*
X142920437Y-89883834D01*
X142914773Y-89906443D01*
X142906921Y-89928387D01*
X142896956Y-89949457D01*
X142884974Y-89969448D01*
X142871090Y-89988168D01*
X142855438Y-90005438D01*
X142838168Y-90021090D01*
X142819448Y-90034974D01*
X142799457Y-90046956D01*
X142778387Y-90056921D01*
X142756443Y-90064773D01*
X142733834Y-90070437D01*
X142710779Y-90073856D01*
X142687500Y-90075000D01*
X142112500Y-90075000D01*
X142089221Y-90073856D01*
X142066166Y-90070437D01*
X142043557Y-90064773D01*
X142021613Y-90056921D01*
X142000543Y-90046956D01*
X141980552Y-90034974D01*
X141961832Y-90021090D01*
X141944562Y-90005438D01*
X141928910Y-89988168D01*
X141915026Y-89969448D01*
X141903044Y-89949457D01*
X141893079Y-89928387D01*
X141885227Y-89906443D01*
X141879563Y-89883834D01*
X141876144Y-89860779D01*
X141875000Y-89837500D01*
X141875000Y-89362500D01*
X141876144Y-89339221D01*
X141879563Y-89316166D01*
X141885227Y-89293557D01*
X141893079Y-89271613D01*
X141903044Y-89250543D01*
X141915026Y-89230552D01*
X141928910Y-89211832D01*
X141944562Y-89194562D01*
X141961832Y-89178910D01*
X141980552Y-89165026D01*
X142000543Y-89153044D01*
X142021613Y-89143079D01*
X142043557Y-89135227D01*
X142066166Y-89129563D01*
X142089221Y-89126144D01*
X142112500Y-89125000D01*
X142687500Y-89125000D01*
X142710779Y-89126144D01*
G37*
G04 #@! TD.AperFunction*
G04 #@! TA.AperFunction,SMDPad,CuDef*
G36*
X140960779Y-89126144D02*
G01*
X140983834Y-89129563D01*
X141006443Y-89135227D01*
X141028387Y-89143079D01*
X141049457Y-89153044D01*
X141069448Y-89165026D01*
X141088168Y-89178910D01*
X141105438Y-89194562D01*
X141121090Y-89211832D01*
X141134974Y-89230552D01*
X141146956Y-89250543D01*
X141156921Y-89271613D01*
X141164773Y-89293557D01*
X141170437Y-89316166D01*
X141173856Y-89339221D01*
X141175000Y-89362500D01*
X141175000Y-89837500D01*
X141173856Y-89860779D01*
X141170437Y-89883834D01*
X141164773Y-89906443D01*
X141156921Y-89928387D01*
X141146956Y-89949457D01*
X141134974Y-89969448D01*
X141121090Y-89988168D01*
X141105438Y-90005438D01*
X141088168Y-90021090D01*
X141069448Y-90034974D01*
X141049457Y-90046956D01*
X141028387Y-90056921D01*
X141006443Y-90064773D01*
X140983834Y-90070437D01*
X140960779Y-90073856D01*
X140937500Y-90075000D01*
X140362500Y-90075000D01*
X140339221Y-90073856D01*
X140316166Y-90070437D01*
X140293557Y-90064773D01*
X140271613Y-90056921D01*
X140250543Y-90046956D01*
X140230552Y-90034974D01*
X140211832Y-90021090D01*
X140194562Y-90005438D01*
X140178910Y-89988168D01*
X140165026Y-89969448D01*
X140153044Y-89949457D01*
X140143079Y-89928387D01*
X140135227Y-89906443D01*
X140129563Y-89883834D01*
X140126144Y-89860779D01*
X140125000Y-89837500D01*
X140125000Y-89362500D01*
X140126144Y-89339221D01*
X140129563Y-89316166D01*
X140135227Y-89293557D01*
X140143079Y-89271613D01*
X140153044Y-89250543D01*
X140165026Y-89230552D01*
X140178910Y-89211832D01*
X140194562Y-89194562D01*
X140211832Y-89178910D01*
X140230552Y-89165026D01*
X140250543Y-89153044D01*
X140271613Y-89143079D01*
X140293557Y-89135227D01*
X140316166Y-89129563D01*
X140339221Y-89126144D01*
X140362500Y-89125000D01*
X140937500Y-89125000D01*
X140960779Y-89126144D01*
G37*
G04 #@! TD.AperFunction*
G04 #@! TA.AperFunction,SMDPad,CuDef*
G36*
X144560779Y-95676144D02*
G01*
X144583834Y-95679563D01*
X144606443Y-95685227D01*
X144628387Y-95693079D01*
X144649457Y-95703044D01*
X144669448Y-95715026D01*
X144688168Y-95728910D01*
X144705438Y-95744562D01*
X144721090Y-95761832D01*
X144734974Y-95780552D01*
X144746956Y-95800543D01*
X144756921Y-95821613D01*
X144764773Y-95843557D01*
X144770437Y-95866166D01*
X144773856Y-95889221D01*
X144775000Y-95912500D01*
X144775000Y-96487500D01*
X144773856Y-96510779D01*
X144770437Y-96533834D01*
X144764773Y-96556443D01*
X144756921Y-96578387D01*
X144746956Y-96599457D01*
X144734974Y-96619448D01*
X144721090Y-96638168D01*
X144705438Y-96655438D01*
X144688168Y-96671090D01*
X144669448Y-96684974D01*
X144649457Y-96696956D01*
X144628387Y-96706921D01*
X144606443Y-96714773D01*
X144583834Y-96720437D01*
X144560779Y-96723856D01*
X144537500Y-96725000D01*
X144062500Y-96725000D01*
X144039221Y-96723856D01*
X144016166Y-96720437D01*
X143993557Y-96714773D01*
X143971613Y-96706921D01*
X143950543Y-96696956D01*
X143930552Y-96684974D01*
X143911832Y-96671090D01*
X143894562Y-96655438D01*
X143878910Y-96638168D01*
X143865026Y-96619448D01*
X143853044Y-96599457D01*
X143843079Y-96578387D01*
X143835227Y-96556443D01*
X143829563Y-96533834D01*
X143826144Y-96510779D01*
X143825000Y-96487500D01*
X143825000Y-95912500D01*
X143826144Y-95889221D01*
X143829563Y-95866166D01*
X143835227Y-95843557D01*
X143843079Y-95821613D01*
X143853044Y-95800543D01*
X143865026Y-95780552D01*
X143878910Y-95761832D01*
X143894562Y-95744562D01*
X143911832Y-95728910D01*
X143930552Y-95715026D01*
X143950543Y-95703044D01*
X143971613Y-95693079D01*
X143993557Y-95685227D01*
X144016166Y-95679563D01*
X144039221Y-95676144D01*
X144062500Y-95675000D01*
X144537500Y-95675000D01*
X144560779Y-95676144D01*
G37*
G04 #@! TD.AperFunction*
G04 #@! TA.AperFunction,SMDPad,CuDef*
G36*
X144560779Y-93926144D02*
G01*
X144583834Y-93929563D01*
X144606443Y-93935227D01*
X144628387Y-93943079D01*
X144649457Y-93953044D01*
X144669448Y-93965026D01*
X144688168Y-93978910D01*
X144705438Y-93994562D01*
X144721090Y-94011832D01*
X144734974Y-94030552D01*
X144746956Y-94050543D01*
X144756921Y-94071613D01*
X144764773Y-94093557D01*
X144770437Y-94116166D01*
X144773856Y-94139221D01*
X144775000Y-94162500D01*
X144775000Y-94737500D01*
X144773856Y-94760779D01*
X144770437Y-94783834D01*
X144764773Y-94806443D01*
X144756921Y-94828387D01*
X144746956Y-94849457D01*
X144734974Y-94869448D01*
X144721090Y-94888168D01*
X144705438Y-94905438D01*
X144688168Y-94921090D01*
X144669448Y-94934974D01*
X144649457Y-94946956D01*
X144628387Y-94956921D01*
X144606443Y-94964773D01*
X144583834Y-94970437D01*
X144560779Y-94973856D01*
X144537500Y-94975000D01*
X144062500Y-94975000D01*
X144039221Y-94973856D01*
X144016166Y-94970437D01*
X143993557Y-94964773D01*
X143971613Y-94956921D01*
X143950543Y-94946956D01*
X143930552Y-94934974D01*
X143911832Y-94921090D01*
X143894562Y-94905438D01*
X143878910Y-94888168D01*
X143865026Y-94869448D01*
X143853044Y-94849457D01*
X143843079Y-94828387D01*
X143835227Y-94806443D01*
X143829563Y-94783834D01*
X143826144Y-94760779D01*
X143825000Y-94737500D01*
X143825000Y-94162500D01*
X143826144Y-94139221D01*
X143829563Y-94116166D01*
X143835227Y-94093557D01*
X143843079Y-94071613D01*
X143853044Y-94050543D01*
X143865026Y-94030552D01*
X143878910Y-94011832D01*
X143894562Y-93994562D01*
X143911832Y-93978910D01*
X143930552Y-93965026D01*
X143950543Y-93953044D01*
X143971613Y-93943079D01*
X143993557Y-93935227D01*
X144016166Y-93929563D01*
X144039221Y-93926144D01*
X144062500Y-93925000D01*
X144537500Y-93925000D01*
X144560779Y-93926144D01*
G37*
G04 #@! TD.AperFunction*
D20*
X143985000Y-94135000D02*
X144300000Y-94450000D01*
X141875000Y-94135000D02*
X143985000Y-94135000D01*
X140770000Y-89480000D02*
X140650000Y-89600000D01*
X140770000Y-84750000D02*
X140770000Y-89480000D01*
X140650000Y-90370000D02*
X141875000Y-91595000D01*
X140650000Y-89600000D02*
X140650000Y-90370000D01*
X146450000Y-84750000D02*
X146500000Y-84800000D01*
X140770000Y-84750000D02*
X146450000Y-84750000D01*
X140800000Y-77220000D02*
X140770000Y-77250000D01*
X140800000Y-74162500D02*
X140800000Y-77220000D01*
X136850000Y-71462500D02*
X136000000Y-71462500D01*
X137000000Y-71612500D02*
X136850000Y-71462500D01*
X137000000Y-74162500D02*
X137000000Y-71612500D01*
X142150000Y-71462500D02*
X143000000Y-71462500D01*
X142000000Y-71612500D02*
X142150000Y-71462500D01*
X142000000Y-74162500D02*
X142000000Y-71612500D01*
X136600000Y-71462500D02*
X142400000Y-71462500D01*
D21*
X136925000Y-94825000D02*
X131025000Y-94825000D01*
X136925000Y-94135000D02*
X136925000Y-94825000D01*
X136925000Y-94825000D02*
X136925000Y-95405000D01*
X126755000Y-94825000D02*
X131025000Y-94825000D01*
X125300000Y-96280000D02*
X126755000Y-94825000D01*
X136925000Y-92125000D02*
X130925000Y-92125000D01*
X136925000Y-92865000D02*
X136925000Y-92125000D01*
X136925000Y-92125000D02*
X136925000Y-91595000D01*
X130925000Y-92125000D02*
X130850000Y-92200000D01*
X127600000Y-91200000D02*
X128525000Y-92125000D01*
X128525000Y-92125000D02*
X130925000Y-92125000D01*
X125300000Y-91200000D02*
X127600000Y-91200000D01*
D20*
X145623188Y-90700000D02*
X146500000Y-90700000D01*
X145015000Y-90700000D02*
X145623188Y-90700000D01*
X142850000Y-92865000D02*
X145015000Y-90700000D01*
X141875000Y-92865000D02*
X142850000Y-92865000D01*
X138200000Y-77220000D02*
X138230000Y-77250000D01*
X138200000Y-74162500D02*
X138200000Y-77220000D01*
D22*
G36*
X134782870Y-70870398D02*
G01*
X134765000Y-71051835D01*
X134765000Y-71873164D01*
X134782870Y-72054601D01*
X134853489Y-72287400D01*
X134968167Y-72501948D01*
X135122498Y-72690002D01*
X135310551Y-72844333D01*
X135525099Y-72959011D01*
X135757898Y-73029630D01*
X136000000Y-73053475D01*
X136029474Y-73050572D01*
X136216183Y-73050572D01*
X136133051Y-73106119D01*
X135943619Y-73295551D01*
X135794784Y-73518299D01*
X135692264Y-73765803D01*
X135640000Y-74028552D01*
X135640000Y-74296448D01*
X135692264Y-74559197D01*
X135794784Y-74806701D01*
X135943619Y-75029449D01*
X136133051Y-75218881D01*
X136355799Y-75367716D01*
X136603303Y-75470236D01*
X136866052Y-75522500D01*
X137133948Y-75522500D01*
X137396697Y-75470236D01*
X137440000Y-75452299D01*
X137440000Y-75644063D01*
X137385820Y-75660498D01*
X137275506Y-75719463D01*
X137178815Y-75798815D01*
X137099463Y-75895506D01*
X137040498Y-76005820D01*
X137004188Y-76125518D01*
X136991928Y-76250000D01*
X136991928Y-78250000D01*
X137004188Y-78374482D01*
X137040498Y-78494180D01*
X137099463Y-78604494D01*
X137178815Y-78701185D01*
X137275506Y-78780537D01*
X137385820Y-78839502D01*
X137505518Y-78875812D01*
X137630000Y-78888072D01*
X138830000Y-78888072D01*
X138954482Y-78875812D01*
X139074180Y-78839502D01*
X139184494Y-78780537D01*
X139281185Y-78701185D01*
X139360537Y-78604494D01*
X139419502Y-78494180D01*
X139455812Y-78374482D01*
X139468072Y-78250000D01*
X139468072Y-76250000D01*
X139455812Y-76125518D01*
X139419502Y-76005820D01*
X139360537Y-75895506D01*
X139281185Y-75798815D01*
X139184494Y-75719463D01*
X139074180Y-75660498D01*
X138960000Y-75625862D01*
X138960000Y-75475572D01*
X139050000Y-75475572D01*
X139174482Y-75463312D01*
X139175000Y-75463155D01*
X139175518Y-75463312D01*
X139300000Y-75475572D01*
X139700000Y-75475572D01*
X139824482Y-75463312D01*
X139825000Y-75463155D01*
X139825518Y-75463312D01*
X139950000Y-75475572D01*
X140040000Y-75475572D01*
X140040000Y-75625862D01*
X139925820Y-75660498D01*
X139815506Y-75719463D01*
X139718815Y-75798815D01*
X139639463Y-75895506D01*
X139580498Y-76005820D01*
X139544188Y-76125518D01*
X139531928Y-76250000D01*
X139531928Y-78250000D01*
X139544188Y-78374482D01*
X139580498Y-78494180D01*
X139639463Y-78604494D01*
X139718815Y-78701185D01*
X139815506Y-78780537D01*
X139925820Y-78839502D01*
X140045518Y-78875812D01*
X140170000Y-78888072D01*
X141370000Y-78888072D01*
X141494482Y-78875812D01*
X141614180Y-78839502D01*
X141724494Y-78780537D01*
X141821185Y-78701185D01*
X141900537Y-78604494D01*
X141959502Y-78494180D01*
X141995812Y-78374482D01*
X142008072Y-78250000D01*
X142008072Y-76250000D01*
X141995812Y-76125518D01*
X141959502Y-76005820D01*
X141900537Y-75895506D01*
X141821185Y-75798815D01*
X141724494Y-75719463D01*
X141614180Y-75660498D01*
X141560000Y-75644063D01*
X141560000Y-75452299D01*
X141603303Y-75470236D01*
X141866052Y-75522500D01*
X142133948Y-75522500D01*
X142396697Y-75470236D01*
X142644201Y-75367716D01*
X142866949Y-75218881D01*
X143056381Y-75029449D01*
X143205216Y-74806701D01*
X143307736Y-74559197D01*
X143360000Y-74296448D01*
X143360000Y-74028552D01*
X143307736Y-73765803D01*
X143205216Y-73518299D01*
X143056381Y-73295551D01*
X142866949Y-73106119D01*
X142783817Y-73050572D01*
X142970526Y-73050572D01*
X143000000Y-73053475D01*
X143242102Y-73029630D01*
X143474901Y-72959011D01*
X143689449Y-72844333D01*
X143877502Y-72690002D01*
X144031833Y-72501949D01*
X144146511Y-72287401D01*
X144217130Y-72054601D01*
X144235000Y-71873164D01*
X144235000Y-71051835D01*
X144217130Y-70870398D01*
X144153306Y-70660000D01*
X149340000Y-70660000D01*
X149340001Y-99340000D01*
X120660000Y-99340000D01*
X120660000Y-89900000D01*
X123361928Y-89900000D01*
X123361928Y-92500000D01*
X123374188Y-92624482D01*
X123410498Y-92744180D01*
X123469463Y-92854494D01*
X123548815Y-92951185D01*
X123645506Y-93030537D01*
X123755820Y-93089502D01*
X123875518Y-93125812D01*
X124000000Y-93138072D01*
X126600000Y-93138072D01*
X126724482Y-93125812D01*
X126844180Y-93089502D01*
X126954494Y-93030537D01*
X127051185Y-92951185D01*
X127130537Y-92854494D01*
X127189502Y-92744180D01*
X127225812Y-92624482D01*
X127238072Y-92500000D01*
X127238072Y-92443204D01*
X127683013Y-92888145D01*
X127718551Y-92931449D01*
X127761854Y-92966987D01*
X127761856Y-92966989D01*
X127809937Y-93006448D01*
X127891377Y-93073284D01*
X128088553Y-93178676D01*
X128302501Y-93243577D01*
X128437936Y-93256916D01*
X128525000Y-93265491D01*
X128580752Y-93260000D01*
X130434401Y-93260000D01*
X130627502Y-93318577D01*
X130850000Y-93340491D01*
X131072498Y-93318577D01*
X131265599Y-93260000D01*
X135354752Y-93260000D01*
X135371916Y-93316582D01*
X135444742Y-93452829D01*
X135483454Y-93500000D01*
X135444742Y-93547171D01*
X135371916Y-93683418D01*
X135369919Y-93690000D01*
X126810752Y-93690000D01*
X126755000Y-93684509D01*
X126532501Y-93706423D01*
X126318553Y-93771324D01*
X126121377Y-93876716D01*
X125991856Y-93983011D01*
X125991854Y-93983013D01*
X125948551Y-94018551D01*
X125913013Y-94061854D01*
X125606758Y-94368109D01*
X125490581Y-94345000D01*
X125109419Y-94345000D01*
X124735581Y-94419361D01*
X124383434Y-94565225D01*
X124066509Y-94776987D01*
X123796987Y-95046509D01*
X123585225Y-95363434D01*
X123439361Y-95715581D01*
X123365000Y-96089419D01*
X123365000Y-96470581D01*
X123439361Y-96844419D01*
X123585225Y-97196566D01*
X123796987Y-97513491D01*
X124066509Y-97783013D01*
X124383434Y-97994775D01*
X124735581Y-98140639D01*
X125109419Y-98215000D01*
X125490581Y-98215000D01*
X125864419Y-98140639D01*
X126216566Y-97994775D01*
X126533491Y-97783013D01*
X126803013Y-97513491D01*
X127014775Y-97196566D01*
X127160639Y-96844419D01*
X127235000Y-96470581D01*
X127235000Y-96089419D01*
X127211891Y-95973242D01*
X127225133Y-95960000D01*
X135427194Y-95960000D01*
X135444742Y-95992829D01*
X135542749Y-96112251D01*
X135662171Y-96210258D01*
X135798418Y-96283084D01*
X135946255Y-96327929D01*
X136100000Y-96343072D01*
X136278935Y-96343072D01*
X136291378Y-96353284D01*
X136488554Y-96458676D01*
X136702502Y-96523577D01*
X136925000Y-96545491D01*
X137147499Y-96523577D01*
X137361447Y-96458676D01*
X137558623Y-96353284D01*
X137571066Y-96343072D01*
X137750000Y-96343072D01*
X137903745Y-96327929D01*
X138051582Y-96283084D01*
X138187829Y-96210258D01*
X138307251Y-96112251D01*
X138405258Y-95992829D01*
X138478084Y-95856582D01*
X138522929Y-95708745D01*
X138523297Y-95705000D01*
X140261928Y-95705000D01*
X140274188Y-95829482D01*
X140310498Y-95949180D01*
X140369463Y-96059494D01*
X140448815Y-96156185D01*
X140545506Y-96235537D01*
X140655820Y-96294502D01*
X140775518Y-96330812D01*
X140900000Y-96343072D01*
X141589250Y-96340000D01*
X141748000Y-96181250D01*
X141748000Y-95532000D01*
X140423750Y-95532000D01*
X140265000Y-95690750D01*
X140261928Y-95705000D01*
X138523297Y-95705000D01*
X138538072Y-95555000D01*
X138538072Y-95255000D01*
X138522929Y-95101255D01*
X138478084Y-94953418D01*
X138405258Y-94817171D01*
X138366546Y-94770000D01*
X138405258Y-94722829D01*
X138478084Y-94586582D01*
X138522929Y-94438745D01*
X138538072Y-94285000D01*
X138538072Y-93985000D01*
X138522929Y-93831255D01*
X138478084Y-93683418D01*
X138405258Y-93547171D01*
X138366546Y-93500000D01*
X138405258Y-93452829D01*
X138478084Y-93316582D01*
X138522929Y-93168745D01*
X138538072Y-93015000D01*
X138538072Y-92715000D01*
X138522929Y-92561255D01*
X138478084Y-92413418D01*
X138405258Y-92277171D01*
X138366546Y-92230000D01*
X138405258Y-92182829D01*
X138478084Y-92046582D01*
X138522929Y-91898745D01*
X138538072Y-91745000D01*
X138538072Y-91445000D01*
X138522929Y-91291255D01*
X138478084Y-91143418D01*
X138405258Y-91007171D01*
X138307251Y-90887749D01*
X138187829Y-90789742D01*
X138051582Y-90716916D01*
X137903745Y-90672071D01*
X137750000Y-90656928D01*
X137571066Y-90656928D01*
X137558623Y-90646716D01*
X137361447Y-90541324D01*
X137147499Y-90476423D01*
X136925000Y-90454509D01*
X136702502Y-90476423D01*
X136488554Y-90541324D01*
X136291378Y-90646716D01*
X136278935Y-90656928D01*
X136100000Y-90656928D01*
X135946255Y-90672071D01*
X135798418Y-90716916D01*
X135662171Y-90789742D01*
X135542749Y-90887749D01*
X135458834Y-90990000D01*
X130980751Y-90990000D01*
X130924999Y-90984509D01*
X130869248Y-90990000D01*
X128995132Y-90990000D01*
X128441995Y-90436864D01*
X128406449Y-90393551D01*
X128233623Y-90251716D01*
X128036447Y-90146324D01*
X127822499Y-90081423D01*
X127655752Y-90065000D01*
X127655751Y-90065000D01*
X127600000Y-90059509D01*
X127544249Y-90065000D01*
X127238072Y-90065000D01*
X127238072Y-89900000D01*
X127225812Y-89775518D01*
X127189502Y-89655820D01*
X127130537Y-89545506D01*
X127051185Y-89448815D01*
X126954494Y-89369463D01*
X126941468Y-89362500D01*
X139486928Y-89362500D01*
X139486928Y-89837500D01*
X139503752Y-90008316D01*
X139553577Y-90172567D01*
X139634488Y-90323942D01*
X139743377Y-90456623D01*
X139876058Y-90565512D01*
X139922668Y-90590425D01*
X139927252Y-90605537D01*
X139944454Y-90662246D01*
X140015026Y-90794276D01*
X140059926Y-90848986D01*
X140110000Y-90910001D01*
X140138998Y-90933799D01*
X140331217Y-91126018D01*
X140321916Y-91143418D01*
X140277071Y-91291255D01*
X140261928Y-91445000D01*
X140261928Y-91745000D01*
X140277071Y-91898745D01*
X140321916Y-92046582D01*
X140394742Y-92182829D01*
X140433454Y-92230000D01*
X140394742Y-92277171D01*
X140321916Y-92413418D01*
X140277071Y-92561255D01*
X140261928Y-92715000D01*
X140261928Y-93015000D01*
X140277071Y-93168745D01*
X140321916Y-93316582D01*
X140394742Y-93452829D01*
X140433454Y-93500000D01*
X140394742Y-93547171D01*
X140321916Y-93683418D01*
X140277071Y-93831255D01*
X140261928Y-93985000D01*
X140261928Y-94285000D01*
X140277071Y-94438745D01*
X140321916Y-94586582D01*
X140393730Y-94720936D01*
X140369463Y-94750506D01*
X140310498Y-94860820D01*
X140274188Y-94980518D01*
X140261928Y-95105000D01*
X140265000Y-95119250D01*
X140423750Y-95278000D01*
X141748000Y-95278000D01*
X141748000Y-95258000D01*
X142002000Y-95258000D01*
X142002000Y-95278000D01*
X142022000Y-95278000D01*
X142022000Y-95532000D01*
X142002000Y-95532000D01*
X142002000Y-96181250D01*
X142160750Y-96340000D01*
X142850000Y-96343072D01*
X142974482Y-96330812D01*
X143094180Y-96294502D01*
X143190000Y-96243284D01*
X143190000Y-96327002D01*
X143348748Y-96327002D01*
X143190000Y-96485750D01*
X143186928Y-96725000D01*
X143199188Y-96849482D01*
X143235498Y-96969180D01*
X143294463Y-97079494D01*
X143373815Y-97176185D01*
X143470506Y-97255537D01*
X143580820Y-97314502D01*
X143700518Y-97350812D01*
X143825000Y-97363072D01*
X144014250Y-97360000D01*
X144173000Y-97201250D01*
X144173000Y-96327000D01*
X144427000Y-96327000D01*
X144427000Y-97201250D01*
X144585750Y-97360000D01*
X144775000Y-97363072D01*
X144899482Y-97350812D01*
X145019180Y-97314502D01*
X145129494Y-97255537D01*
X145226185Y-97176185D01*
X145305537Y-97079494D01*
X145364502Y-96969180D01*
X145400812Y-96849482D01*
X145413072Y-96725000D01*
X145410000Y-96485750D01*
X145251250Y-96327000D01*
X144427000Y-96327000D01*
X144173000Y-96327000D01*
X144153000Y-96327000D01*
X144153000Y-96073000D01*
X144173000Y-96073000D01*
X144173000Y-96053000D01*
X144427000Y-96053000D01*
X144427000Y-96073000D01*
X145251250Y-96073000D01*
X145410000Y-95914250D01*
X145413072Y-95675000D01*
X145400812Y-95550518D01*
X145364502Y-95430820D01*
X145305537Y-95320506D01*
X145245901Y-95247839D01*
X145265512Y-95223942D01*
X145346423Y-95072567D01*
X145396248Y-94908316D01*
X145413072Y-94737500D01*
X145413072Y-94162500D01*
X145396248Y-93991684D01*
X145346423Y-93827433D01*
X145265512Y-93676058D01*
X145156623Y-93543377D01*
X145023942Y-93434488D01*
X144872567Y-93353577D01*
X144708316Y-93303752D01*
X144537500Y-93286928D01*
X144062500Y-93286928D01*
X143891684Y-93303752D01*
X143727433Y-93353577D01*
X143687353Y-93375000D01*
X143414801Y-93375000D01*
X143955729Y-92834072D01*
X144545533Y-92834072D01*
X144595274Y-93059691D01*
X144820058Y-93162582D01*
X145060596Y-93219642D01*
X145307645Y-93228680D01*
X145551709Y-93189347D01*
X145783410Y-93103156D01*
X145864726Y-93059691D01*
X145914467Y-92834072D01*
X147085533Y-92834072D01*
X147135274Y-93059691D01*
X147360058Y-93162582D01*
X147600596Y-93219642D01*
X147847645Y-93228680D01*
X148091709Y-93189347D01*
X148323410Y-93103156D01*
X148404726Y-93059691D01*
X148454467Y-92834072D01*
X147770000Y-92149605D01*
X147085533Y-92834072D01*
X145914467Y-92834072D01*
X145230000Y-92149605D01*
X144545533Y-92834072D01*
X143955729Y-92834072D01*
X144176989Y-92612813D01*
X144365928Y-92654467D01*
X145050395Y-91970000D01*
X145036253Y-91955858D01*
X145215858Y-91776253D01*
X145230000Y-91790395D01*
X145244143Y-91776253D01*
X145423748Y-91955858D01*
X145409605Y-91970000D01*
X146094072Y-92654467D01*
X146319691Y-92604726D01*
X146422582Y-92379942D01*
X146479642Y-92139404D01*
X146486388Y-91955000D01*
X146514709Y-91955000D01*
X146511320Y-92047645D01*
X146550653Y-92291709D01*
X146636844Y-92523410D01*
X146680309Y-92604726D01*
X146905928Y-92654467D01*
X147590395Y-91970000D01*
X147949605Y-91970000D01*
X148634072Y-92654467D01*
X148859691Y-92604726D01*
X148962582Y-92379942D01*
X149019642Y-92139404D01*
X149028680Y-91892355D01*
X148989347Y-91648291D01*
X148903156Y-91416590D01*
X148859691Y-91335274D01*
X148634072Y-91285533D01*
X147949605Y-91970000D01*
X147590395Y-91970000D01*
X147576253Y-91955858D01*
X147755858Y-91776253D01*
X147770000Y-91790395D01*
X148454467Y-91105928D01*
X148404726Y-90880309D01*
X148179942Y-90777418D01*
X147939404Y-90720358D01*
X147755000Y-90713612D01*
X147755000Y-90685291D01*
X147847645Y-90688680D01*
X148091709Y-90649347D01*
X148323410Y-90563156D01*
X148404726Y-90519691D01*
X148454467Y-90294072D01*
X147770000Y-89609605D01*
X147755858Y-89623748D01*
X147576253Y-89444143D01*
X147590395Y-89430000D01*
X147949605Y-89430000D01*
X148634072Y-90114467D01*
X148859691Y-90064726D01*
X148962582Y-89839942D01*
X149019642Y-89599404D01*
X149028680Y-89352355D01*
X148989347Y-89108291D01*
X148903156Y-88876590D01*
X148859691Y-88795274D01*
X148634072Y-88745533D01*
X147949605Y-89430000D01*
X147590395Y-89430000D01*
X146905928Y-88745533D01*
X146680309Y-88795274D01*
X146577418Y-89020058D01*
X146520358Y-89260596D01*
X146513612Y-89445000D01*
X146485291Y-89445000D01*
X146488680Y-89352355D01*
X146449347Y-89108291D01*
X146363156Y-88876590D01*
X146319691Y-88795274D01*
X146094072Y-88745533D01*
X145409605Y-89430000D01*
X145423748Y-89444143D01*
X145244143Y-89623748D01*
X145230000Y-89609605D01*
X145215858Y-89623748D01*
X145036253Y-89444143D01*
X145050395Y-89430000D01*
X144365928Y-88745533D01*
X144140309Y-88795274D01*
X144037418Y-89020058D01*
X143980358Y-89260596D01*
X143971320Y-89507645D01*
X144010653Y-89751709D01*
X144096844Y-89983410D01*
X144140309Y-90064726D01*
X144365926Y-90114466D01*
X144248918Y-90231474D01*
X144328821Y-90311377D01*
X143444072Y-91196126D01*
X143428084Y-91143418D01*
X143355258Y-91007171D01*
X143257251Y-90887749D01*
X143137829Y-90789742D01*
X143001582Y-90716916D01*
X142973246Y-90708320D01*
X143049482Y-90700812D01*
X143169180Y-90664502D01*
X143279494Y-90605537D01*
X143376185Y-90526185D01*
X143455537Y-90429494D01*
X143514502Y-90319180D01*
X143550812Y-90199482D01*
X143563072Y-90075000D01*
X143560000Y-89885750D01*
X143401250Y-89727000D01*
X142527000Y-89727000D01*
X142527000Y-89747000D01*
X142273000Y-89747000D01*
X142273000Y-89727000D01*
X142253000Y-89727000D01*
X142253000Y-89473000D01*
X142273000Y-89473000D01*
X142273000Y-88648750D01*
X142527000Y-88648750D01*
X142527000Y-89473000D01*
X143401250Y-89473000D01*
X143560000Y-89314250D01*
X143563072Y-89125000D01*
X143550812Y-89000518D01*
X143514502Y-88880820D01*
X143455537Y-88770506D01*
X143376185Y-88673815D01*
X143279494Y-88594463D01*
X143226110Y-88565928D01*
X144545533Y-88565928D01*
X145230000Y-89250395D01*
X145914467Y-88565928D01*
X147085533Y-88565928D01*
X147770000Y-89250395D01*
X148454467Y-88565928D01*
X148404726Y-88340309D01*
X148179942Y-88237418D01*
X147939404Y-88180358D01*
X147692355Y-88171320D01*
X147448291Y-88210653D01*
X147216590Y-88296844D01*
X147135274Y-88340309D01*
X147085533Y-88565928D01*
X145914467Y-88565928D01*
X145864726Y-88340309D01*
X145639942Y-88237418D01*
X145399404Y-88180358D01*
X145152355Y-88171320D01*
X144908291Y-88210653D01*
X144676590Y-88296844D01*
X144595274Y-88340309D01*
X144545533Y-88565928D01*
X143226110Y-88565928D01*
X143169180Y-88535498D01*
X143049482Y-88499188D01*
X142925000Y-88486928D01*
X142685750Y-88490000D01*
X142527000Y-88648750D01*
X142273000Y-88648750D01*
X142114250Y-88490000D01*
X141875000Y-88486928D01*
X141750518Y-88499188D01*
X141630820Y-88535498D01*
X141530000Y-88589388D01*
X141530000Y-86934072D01*
X144545533Y-86934072D01*
X144595274Y-87159691D01*
X144820058Y-87262582D01*
X145060596Y-87319642D01*
X145307645Y-87328680D01*
X145551709Y-87289347D01*
X145783410Y-87203156D01*
X145864726Y-87159691D01*
X145914467Y-86934072D01*
X147085533Y-86934072D01*
X147135274Y-87159691D01*
X147360058Y-87262582D01*
X147600596Y-87319642D01*
X147847645Y-87328680D01*
X148091709Y-87289347D01*
X148323410Y-87203156D01*
X148404726Y-87159691D01*
X148454467Y-86934072D01*
X147770000Y-86249605D01*
X147085533Y-86934072D01*
X145914467Y-86934072D01*
X145230000Y-86249605D01*
X144545533Y-86934072D01*
X141530000Y-86934072D01*
X141530000Y-86365038D01*
X141614180Y-86339502D01*
X141724494Y-86280537D01*
X141821185Y-86201185D01*
X141900537Y-86104494D01*
X141959502Y-85994180D01*
X141995812Y-85874482D01*
X142008072Y-85750000D01*
X142008072Y-85510000D01*
X144106104Y-85510000D01*
X144037418Y-85660058D01*
X143980358Y-85900596D01*
X143971320Y-86147645D01*
X144010653Y-86391709D01*
X144096844Y-86623410D01*
X144140309Y-86704726D01*
X144365928Y-86754467D01*
X145050395Y-86070000D01*
X145036253Y-86055858D01*
X145215858Y-85876253D01*
X145230000Y-85890395D01*
X145244143Y-85876253D01*
X145423748Y-86055858D01*
X145409605Y-86070000D01*
X146094072Y-86754467D01*
X146319691Y-86704726D01*
X146422582Y-86479942D01*
X146479642Y-86239404D01*
X146486388Y-86055000D01*
X146514709Y-86055000D01*
X146511320Y-86147645D01*
X146550653Y-86391709D01*
X146636844Y-86623410D01*
X146680309Y-86704726D01*
X146905928Y-86754467D01*
X147590395Y-86070000D01*
X147949605Y-86070000D01*
X148634072Y-86754467D01*
X148859691Y-86704726D01*
X148962582Y-86479942D01*
X149019642Y-86239404D01*
X149028680Y-85992355D01*
X148989347Y-85748291D01*
X148903156Y-85516590D01*
X148859691Y-85435274D01*
X148634072Y-85385533D01*
X147949605Y-86070000D01*
X147590395Y-86070000D01*
X147576253Y-86055858D01*
X147755858Y-85876253D01*
X147770000Y-85890395D01*
X148454467Y-85205928D01*
X148404726Y-84980309D01*
X148179942Y-84877418D01*
X147939404Y-84820358D01*
X147755000Y-84813612D01*
X147755000Y-84785291D01*
X147847645Y-84788680D01*
X148091709Y-84749347D01*
X148323410Y-84663156D01*
X148404726Y-84619691D01*
X148454467Y-84394072D01*
X147770000Y-83709605D01*
X147755858Y-83723748D01*
X147576253Y-83544143D01*
X147590395Y-83530000D01*
X147949605Y-83530000D01*
X148634072Y-84214467D01*
X148859691Y-84164726D01*
X148962582Y-83939942D01*
X149019642Y-83699404D01*
X149028680Y-83452355D01*
X148989347Y-83208291D01*
X148903156Y-82976590D01*
X148859691Y-82895274D01*
X148634072Y-82845533D01*
X147949605Y-83530000D01*
X147590395Y-83530000D01*
X146905928Y-82845533D01*
X146680309Y-82895274D01*
X146577418Y-83120058D01*
X146520358Y-83360596D01*
X146513612Y-83545000D01*
X146485291Y-83545000D01*
X146488680Y-83452355D01*
X146449347Y-83208291D01*
X146363156Y-82976590D01*
X146319691Y-82895274D01*
X146094072Y-82845533D01*
X145409605Y-83530000D01*
X145423748Y-83544143D01*
X145244143Y-83723748D01*
X145230000Y-83709605D01*
X145215858Y-83723748D01*
X145036253Y-83544143D01*
X145050395Y-83530000D01*
X144365928Y-82845533D01*
X144140309Y-82895274D01*
X144037418Y-83120058D01*
X143980358Y-83360596D01*
X143971320Y-83607645D01*
X144010653Y-83851709D01*
X144062096Y-83990000D01*
X142008072Y-83990000D01*
X142008072Y-83750000D01*
X141995812Y-83625518D01*
X141959502Y-83505820D01*
X141900537Y-83395506D01*
X141821185Y-83298815D01*
X141724494Y-83219463D01*
X141614180Y-83160498D01*
X141494482Y-83124188D01*
X141370000Y-83111928D01*
X140170000Y-83111928D01*
X140045518Y-83124188D01*
X139925820Y-83160498D01*
X139815506Y-83219463D01*
X139718815Y-83298815D01*
X139639463Y-83395506D01*
X139580498Y-83505820D01*
X139544188Y-83625518D01*
X139531928Y-83750000D01*
X139531928Y-85750000D01*
X139544188Y-85874482D01*
X139580498Y-85994180D01*
X139639463Y-86104494D01*
X139718815Y-86201185D01*
X139815506Y-86280537D01*
X139925820Y-86339502D01*
X140010000Y-86365038D01*
X140010001Y-88562895D01*
X139876058Y-88634488D01*
X139743377Y-88743377D01*
X139634488Y-88876058D01*
X139553577Y-89027433D01*
X139503752Y-89191684D01*
X139486928Y-89362500D01*
X126941468Y-89362500D01*
X126844180Y-89310498D01*
X126724482Y-89274188D01*
X126600000Y-89261928D01*
X124000000Y-89261928D01*
X123875518Y-89274188D01*
X123755820Y-89310498D01*
X123645506Y-89369463D01*
X123548815Y-89448815D01*
X123469463Y-89545506D01*
X123410498Y-89655820D01*
X123374188Y-89775518D01*
X123361928Y-89900000D01*
X120660000Y-89900000D01*
X120660000Y-85750000D01*
X136991928Y-85750000D01*
X137004188Y-85874482D01*
X137040498Y-85994180D01*
X137099463Y-86104494D01*
X137178815Y-86201185D01*
X137275506Y-86280537D01*
X137385820Y-86339502D01*
X137505518Y-86375812D01*
X137630000Y-86388072D01*
X137944250Y-86385000D01*
X138103000Y-86226250D01*
X138103000Y-84877000D01*
X138357000Y-84877000D01*
X138357000Y-86226250D01*
X138515750Y-86385000D01*
X138830000Y-86388072D01*
X138954482Y-86375812D01*
X139074180Y-86339502D01*
X139184494Y-86280537D01*
X139281185Y-86201185D01*
X139360537Y-86104494D01*
X139419502Y-85994180D01*
X139455812Y-85874482D01*
X139468072Y-85750000D01*
X139465000Y-85035750D01*
X139306250Y-84877000D01*
X138357000Y-84877000D01*
X138103000Y-84877000D01*
X137153750Y-84877000D01*
X136995000Y-85035750D01*
X136991928Y-85750000D01*
X120660000Y-85750000D01*
X120660000Y-83750000D01*
X136991928Y-83750000D01*
X136995000Y-84464250D01*
X137153750Y-84623000D01*
X138103000Y-84623000D01*
X138103000Y-83273750D01*
X138357000Y-83273750D01*
X138357000Y-84623000D01*
X139306250Y-84623000D01*
X139465000Y-84464250D01*
X139468072Y-83750000D01*
X139455812Y-83625518D01*
X139419502Y-83505820D01*
X139360537Y-83395506D01*
X139281185Y-83298815D01*
X139184494Y-83219463D01*
X139074180Y-83160498D01*
X138954482Y-83124188D01*
X138830000Y-83111928D01*
X138515750Y-83115000D01*
X138357000Y-83273750D01*
X138103000Y-83273750D01*
X137944250Y-83115000D01*
X137630000Y-83111928D01*
X137505518Y-83124188D01*
X137385820Y-83160498D01*
X137275506Y-83219463D01*
X137178815Y-83298815D01*
X137099463Y-83395506D01*
X137040498Y-83505820D01*
X137004188Y-83625518D01*
X136991928Y-83750000D01*
X120660000Y-83750000D01*
X120660000Y-82665928D01*
X144545533Y-82665928D01*
X145230000Y-83350395D01*
X145914467Y-82665928D01*
X147085533Y-82665928D01*
X147770000Y-83350395D01*
X148454467Y-82665928D01*
X148404726Y-82440309D01*
X148179942Y-82337418D01*
X147939404Y-82280358D01*
X147692355Y-82271320D01*
X147448291Y-82310653D01*
X147216590Y-82396844D01*
X147135274Y-82440309D01*
X147085533Y-82665928D01*
X145914467Y-82665928D01*
X145864726Y-82440309D01*
X145639942Y-82337418D01*
X145399404Y-82280358D01*
X145152355Y-82271320D01*
X144908291Y-82310653D01*
X144676590Y-82396844D01*
X144595274Y-82440309D01*
X144545533Y-82665928D01*
X120660000Y-82665928D01*
X120660000Y-70660000D01*
X134846694Y-70660000D01*
X134782870Y-70870398D01*
G37*
X134782870Y-70870398D02*
X134765000Y-71051835D01*
X134765000Y-71873164D01*
X134782870Y-72054601D01*
X134853489Y-72287400D01*
X134968167Y-72501948D01*
X135122498Y-72690002D01*
X135310551Y-72844333D01*
X135525099Y-72959011D01*
X135757898Y-73029630D01*
X136000000Y-73053475D01*
X136029474Y-73050572D01*
X136216183Y-73050572D01*
X136133051Y-73106119D01*
X135943619Y-73295551D01*
X135794784Y-73518299D01*
X135692264Y-73765803D01*
X135640000Y-74028552D01*
X135640000Y-74296448D01*
X135692264Y-74559197D01*
X135794784Y-74806701D01*
X135943619Y-75029449D01*
X136133051Y-75218881D01*
X136355799Y-75367716D01*
X136603303Y-75470236D01*
X136866052Y-75522500D01*
X137133948Y-75522500D01*
X137396697Y-75470236D01*
X137440000Y-75452299D01*
X137440000Y-75644063D01*
X137385820Y-75660498D01*
X137275506Y-75719463D01*
X137178815Y-75798815D01*
X137099463Y-75895506D01*
X137040498Y-76005820D01*
X137004188Y-76125518D01*
X136991928Y-76250000D01*
X136991928Y-78250000D01*
X137004188Y-78374482D01*
X137040498Y-78494180D01*
X137099463Y-78604494D01*
X137178815Y-78701185D01*
X137275506Y-78780537D01*
X137385820Y-78839502D01*
X137505518Y-78875812D01*
X137630000Y-78888072D01*
X138830000Y-78888072D01*
X138954482Y-78875812D01*
X139074180Y-78839502D01*
X139184494Y-78780537D01*
X139281185Y-78701185D01*
X139360537Y-78604494D01*
X139419502Y-78494180D01*
X139455812Y-78374482D01*
X139468072Y-78250000D01*
X139468072Y-76250000D01*
X139455812Y-76125518D01*
X139419502Y-76005820D01*
X139360537Y-75895506D01*
X139281185Y-75798815D01*
X139184494Y-75719463D01*
X139074180Y-75660498D01*
X138960000Y-75625862D01*
X138960000Y-75475572D01*
X139050000Y-75475572D01*
X139174482Y-75463312D01*
X139175000Y-75463155D01*
X139175518Y-75463312D01*
X139300000Y-75475572D01*
X139700000Y-75475572D01*
X139824482Y-75463312D01*
X139825000Y-75463155D01*
X139825518Y-75463312D01*
X139950000Y-75475572D01*
X140040000Y-75475572D01*
X140040000Y-75625862D01*
X139925820Y-75660498D01*
X139815506Y-75719463D01*
X139718815Y-75798815D01*
X139639463Y-75895506D01*
X139580498Y-76005820D01*
X139544188Y-76125518D01*
X139531928Y-76250000D01*
X139531928Y-78250000D01*
X139544188Y-78374482D01*
X139580498Y-78494180D01*
X139639463Y-78604494D01*
X139718815Y-78701185D01*
X139815506Y-78780537D01*
X139925820Y-78839502D01*
X140045518Y-78875812D01*
X140170000Y-78888072D01*
X141370000Y-78888072D01*
X141494482Y-78875812D01*
X141614180Y-78839502D01*
X141724494Y-78780537D01*
X141821185Y-78701185D01*
X141900537Y-78604494D01*
X141959502Y-78494180D01*
X141995812Y-78374482D01*
X142008072Y-78250000D01*
X142008072Y-76250000D01*
X141995812Y-76125518D01*
X141959502Y-76005820D01*
X141900537Y-75895506D01*
X141821185Y-75798815D01*
X141724494Y-75719463D01*
X141614180Y-75660498D01*
X141560000Y-75644063D01*
X141560000Y-75452299D01*
X141603303Y-75470236D01*
X141866052Y-75522500D01*
X142133948Y-75522500D01*
X142396697Y-75470236D01*
X142644201Y-75367716D01*
X142866949Y-75218881D01*
X143056381Y-75029449D01*
X143205216Y-74806701D01*
X143307736Y-74559197D01*
X143360000Y-74296448D01*
X143360000Y-74028552D01*
X143307736Y-73765803D01*
X143205216Y-73518299D01*
X143056381Y-73295551D01*
X142866949Y-73106119D01*
X142783817Y-73050572D01*
X142970526Y-73050572D01*
X143000000Y-73053475D01*
X143242102Y-73029630D01*
X143474901Y-72959011D01*
X143689449Y-72844333D01*
X143877502Y-72690002D01*
X144031833Y-72501949D01*
X144146511Y-72287401D01*
X144217130Y-72054601D01*
X144235000Y-71873164D01*
X144235000Y-71051835D01*
X144217130Y-70870398D01*
X144153306Y-70660000D01*
X149340000Y-70660000D01*
X149340001Y-99340000D01*
X120660000Y-99340000D01*
X120660000Y-89900000D01*
X123361928Y-89900000D01*
X123361928Y-92500000D01*
X123374188Y-92624482D01*
X123410498Y-92744180D01*
X123469463Y-92854494D01*
X123548815Y-92951185D01*
X123645506Y-93030537D01*
X123755820Y-93089502D01*
X123875518Y-93125812D01*
X124000000Y-93138072D01*
X126600000Y-93138072D01*
X126724482Y-93125812D01*
X126844180Y-93089502D01*
X126954494Y-93030537D01*
X127051185Y-92951185D01*
X127130537Y-92854494D01*
X127189502Y-92744180D01*
X127225812Y-92624482D01*
X127238072Y-92500000D01*
X127238072Y-92443204D01*
X127683013Y-92888145D01*
X127718551Y-92931449D01*
X127761854Y-92966987D01*
X127761856Y-92966989D01*
X127809937Y-93006448D01*
X127891377Y-93073284D01*
X128088553Y-93178676D01*
X128302501Y-93243577D01*
X128437936Y-93256916D01*
X128525000Y-93265491D01*
X128580752Y-93260000D01*
X130434401Y-93260000D01*
X130627502Y-93318577D01*
X130850000Y-93340491D01*
X131072498Y-93318577D01*
X131265599Y-93260000D01*
X135354752Y-93260000D01*
X135371916Y-93316582D01*
X135444742Y-93452829D01*
X135483454Y-93500000D01*
X135444742Y-93547171D01*
X135371916Y-93683418D01*
X135369919Y-93690000D01*
X126810752Y-93690000D01*
X126755000Y-93684509D01*
X126532501Y-93706423D01*
X126318553Y-93771324D01*
X126121377Y-93876716D01*
X125991856Y-93983011D01*
X125991854Y-93983013D01*
X125948551Y-94018551D01*
X125913013Y-94061854D01*
X125606758Y-94368109D01*
X125490581Y-94345000D01*
X125109419Y-94345000D01*
X124735581Y-94419361D01*
X124383434Y-94565225D01*
X124066509Y-94776987D01*
X123796987Y-95046509D01*
X123585225Y-95363434D01*
X123439361Y-95715581D01*
X123365000Y-96089419D01*
X123365000Y-96470581D01*
X123439361Y-96844419D01*
X123585225Y-97196566D01*
X123796987Y-97513491D01*
X124066509Y-97783013D01*
X124383434Y-97994775D01*
X124735581Y-98140639D01*
X125109419Y-98215000D01*
X125490581Y-98215000D01*
X125864419Y-98140639D01*
X126216566Y-97994775D01*
X126533491Y-97783013D01*
X126803013Y-97513491D01*
X127014775Y-97196566D01*
X127160639Y-96844419D01*
X127235000Y-96470581D01*
X127235000Y-96089419D01*
X127211891Y-95973242D01*
X127225133Y-95960000D01*
X135427194Y-95960000D01*
X135444742Y-95992829D01*
X135542749Y-96112251D01*
X135662171Y-96210258D01*
X135798418Y-96283084D01*
X135946255Y-96327929D01*
X136100000Y-96343072D01*
X136278935Y-96343072D01*
X136291378Y-96353284D01*
X136488554Y-96458676D01*
X136702502Y-96523577D01*
X136925000Y-96545491D01*
X137147499Y-96523577D01*
X137361447Y-96458676D01*
X137558623Y-96353284D01*
X137571066Y-96343072D01*
X137750000Y-96343072D01*
X137903745Y-96327929D01*
X138051582Y-96283084D01*
X138187829Y-96210258D01*
X138307251Y-96112251D01*
X138405258Y-95992829D01*
X138478084Y-95856582D01*
X138522929Y-95708745D01*
X138523297Y-95705000D01*
X140261928Y-95705000D01*
X140274188Y-95829482D01*
X140310498Y-95949180D01*
X140369463Y-96059494D01*
X140448815Y-96156185D01*
X140545506Y-96235537D01*
X140655820Y-96294502D01*
X140775518Y-96330812D01*
X140900000Y-96343072D01*
X141589250Y-96340000D01*
X141748000Y-96181250D01*
X141748000Y-95532000D01*
X140423750Y-95532000D01*
X140265000Y-95690750D01*
X140261928Y-95705000D01*
X138523297Y-95705000D01*
X138538072Y-95555000D01*
X138538072Y-95255000D01*
X138522929Y-95101255D01*
X138478084Y-94953418D01*
X138405258Y-94817171D01*
X138366546Y-94770000D01*
X138405258Y-94722829D01*
X138478084Y-94586582D01*
X138522929Y-94438745D01*
X138538072Y-94285000D01*
X138538072Y-93985000D01*
X138522929Y-93831255D01*
X138478084Y-93683418D01*
X138405258Y-93547171D01*
X138366546Y-93500000D01*
X138405258Y-93452829D01*
X138478084Y-93316582D01*
X138522929Y-93168745D01*
X138538072Y-93015000D01*
X138538072Y-92715000D01*
X138522929Y-92561255D01*
X138478084Y-92413418D01*
X138405258Y-92277171D01*
X138366546Y-92230000D01*
X138405258Y-92182829D01*
X138478084Y-92046582D01*
X138522929Y-91898745D01*
X138538072Y-91745000D01*
X138538072Y-91445000D01*
X138522929Y-91291255D01*
X138478084Y-91143418D01*
X138405258Y-91007171D01*
X138307251Y-90887749D01*
X138187829Y-90789742D01*
X138051582Y-90716916D01*
X137903745Y-90672071D01*
X137750000Y-90656928D01*
X137571066Y-90656928D01*
X137558623Y-90646716D01*
X137361447Y-90541324D01*
X137147499Y-90476423D01*
X136925000Y-90454509D01*
X136702502Y-90476423D01*
X136488554Y-90541324D01*
X136291378Y-90646716D01*
X136278935Y-90656928D01*
X136100000Y-90656928D01*
X135946255Y-90672071D01*
X135798418Y-90716916D01*
X135662171Y-90789742D01*
X135542749Y-90887749D01*
X135458834Y-90990000D01*
X130980751Y-90990000D01*
X130924999Y-90984509D01*
X130869248Y-90990000D01*
X128995132Y-90990000D01*
X128441995Y-90436864D01*
X128406449Y-90393551D01*
X128233623Y-90251716D01*
X128036447Y-90146324D01*
X127822499Y-90081423D01*
X127655752Y-90065000D01*
X127655751Y-90065000D01*
X127600000Y-90059509D01*
X127544249Y-90065000D01*
X127238072Y-90065000D01*
X127238072Y-89900000D01*
X127225812Y-89775518D01*
X127189502Y-89655820D01*
X127130537Y-89545506D01*
X127051185Y-89448815D01*
X126954494Y-89369463D01*
X126941468Y-89362500D01*
X139486928Y-89362500D01*
X139486928Y-89837500D01*
X139503752Y-90008316D01*
X139553577Y-90172567D01*
X139634488Y-90323942D01*
X139743377Y-90456623D01*
X139876058Y-90565512D01*
X139922668Y-90590425D01*
X139927252Y-90605537D01*
X139944454Y-90662246D01*
X140015026Y-90794276D01*
X140059926Y-90848986D01*
X140110000Y-90910001D01*
X140138998Y-90933799D01*
X140331217Y-91126018D01*
X140321916Y-91143418D01*
X140277071Y-91291255D01*
X140261928Y-91445000D01*
X140261928Y-91745000D01*
X140277071Y-91898745D01*
X140321916Y-92046582D01*
X140394742Y-92182829D01*
X140433454Y-92230000D01*
X140394742Y-92277171D01*
X140321916Y-92413418D01*
X140277071Y-92561255D01*
X140261928Y-92715000D01*
X140261928Y-93015000D01*
X140277071Y-93168745D01*
X140321916Y-93316582D01*
X140394742Y-93452829D01*
X140433454Y-93500000D01*
X140394742Y-93547171D01*
X140321916Y-93683418D01*
X140277071Y-93831255D01*
X140261928Y-93985000D01*
X140261928Y-94285000D01*
X140277071Y-94438745D01*
X140321916Y-94586582D01*
X140393730Y-94720936D01*
X140369463Y-94750506D01*
X140310498Y-94860820D01*
X140274188Y-94980518D01*
X140261928Y-95105000D01*
X140265000Y-95119250D01*
X140423750Y-95278000D01*
X141748000Y-95278000D01*
X141748000Y-95258000D01*
X142002000Y-95258000D01*
X142002000Y-95278000D01*
X142022000Y-95278000D01*
X142022000Y-95532000D01*
X142002000Y-95532000D01*
X142002000Y-96181250D01*
X142160750Y-96340000D01*
X142850000Y-96343072D01*
X142974482Y-96330812D01*
X143094180Y-96294502D01*
X143190000Y-96243284D01*
X143190000Y-96327002D01*
X143348748Y-96327002D01*
X143190000Y-96485750D01*
X143186928Y-96725000D01*
X143199188Y-96849482D01*
X143235498Y-96969180D01*
X143294463Y-97079494D01*
X143373815Y-97176185D01*
X143470506Y-97255537D01*
X143580820Y-97314502D01*
X143700518Y-97350812D01*
X143825000Y-97363072D01*
X144014250Y-97360000D01*
X144173000Y-97201250D01*
X144173000Y-96327000D01*
X144427000Y-96327000D01*
X144427000Y-97201250D01*
X144585750Y-97360000D01*
X144775000Y-97363072D01*
X144899482Y-97350812D01*
X145019180Y-97314502D01*
X145129494Y-97255537D01*
X145226185Y-97176185D01*
X145305537Y-97079494D01*
X145364502Y-96969180D01*
X145400812Y-96849482D01*
X145413072Y-96725000D01*
X145410000Y-96485750D01*
X145251250Y-96327000D01*
X144427000Y-96327000D01*
X144173000Y-96327000D01*
X144153000Y-96327000D01*
X144153000Y-96073000D01*
X144173000Y-96073000D01*
X144173000Y-96053000D01*
X144427000Y-96053000D01*
X144427000Y-96073000D01*
X145251250Y-96073000D01*
X145410000Y-95914250D01*
X145413072Y-95675000D01*
X145400812Y-95550518D01*
X145364502Y-95430820D01*
X145305537Y-95320506D01*
X145245901Y-95247839D01*
X145265512Y-95223942D01*
X145346423Y-95072567D01*
X145396248Y-94908316D01*
X145413072Y-94737500D01*
X145413072Y-94162500D01*
X145396248Y-93991684D01*
X145346423Y-93827433D01*
X145265512Y-93676058D01*
X145156623Y-93543377D01*
X145023942Y-93434488D01*
X144872567Y-93353577D01*
X144708316Y-93303752D01*
X144537500Y-93286928D01*
X144062500Y-93286928D01*
X143891684Y-93303752D01*
X143727433Y-93353577D01*
X143687353Y-93375000D01*
X143414801Y-93375000D01*
X143955729Y-92834072D01*
X144545533Y-92834072D01*
X144595274Y-93059691D01*
X144820058Y-93162582D01*
X145060596Y-93219642D01*
X145307645Y-93228680D01*
X145551709Y-93189347D01*
X145783410Y-93103156D01*
X145864726Y-93059691D01*
X145914467Y-92834072D01*
X147085533Y-92834072D01*
X147135274Y-93059691D01*
X147360058Y-93162582D01*
X147600596Y-93219642D01*
X147847645Y-93228680D01*
X148091709Y-93189347D01*
X148323410Y-93103156D01*
X148404726Y-93059691D01*
X148454467Y-92834072D01*
X147770000Y-92149605D01*
X147085533Y-92834072D01*
X145914467Y-92834072D01*
X145230000Y-92149605D01*
X144545533Y-92834072D01*
X143955729Y-92834072D01*
X144176989Y-92612813D01*
X144365928Y-92654467D01*
X145050395Y-91970000D01*
X145036253Y-91955858D01*
X145215858Y-91776253D01*
X145230000Y-91790395D01*
X145244143Y-91776253D01*
X145423748Y-91955858D01*
X145409605Y-91970000D01*
X146094072Y-92654467D01*
X146319691Y-92604726D01*
X146422582Y-92379942D01*
X146479642Y-92139404D01*
X146486388Y-91955000D01*
X146514709Y-91955000D01*
X146511320Y-92047645D01*
X146550653Y-92291709D01*
X146636844Y-92523410D01*
X146680309Y-92604726D01*
X146905928Y-92654467D01*
X147590395Y-91970000D01*
X147949605Y-91970000D01*
X148634072Y-92654467D01*
X148859691Y-92604726D01*
X148962582Y-92379942D01*
X149019642Y-92139404D01*
X149028680Y-91892355D01*
X148989347Y-91648291D01*
X148903156Y-91416590D01*
X148859691Y-91335274D01*
X148634072Y-91285533D01*
X147949605Y-91970000D01*
X147590395Y-91970000D01*
X147576253Y-91955858D01*
X147755858Y-91776253D01*
X147770000Y-91790395D01*
X148454467Y-91105928D01*
X148404726Y-90880309D01*
X148179942Y-90777418D01*
X147939404Y-90720358D01*
X147755000Y-90713612D01*
X147755000Y-90685291D01*
X147847645Y-90688680D01*
X148091709Y-90649347D01*
X148323410Y-90563156D01*
X148404726Y-90519691D01*
X148454467Y-90294072D01*
X147770000Y-89609605D01*
X147755858Y-89623748D01*
X147576253Y-89444143D01*
X147590395Y-89430000D01*
X147949605Y-89430000D01*
X148634072Y-90114467D01*
X148859691Y-90064726D01*
X148962582Y-89839942D01*
X149019642Y-89599404D01*
X149028680Y-89352355D01*
X148989347Y-89108291D01*
X148903156Y-88876590D01*
X148859691Y-88795274D01*
X148634072Y-88745533D01*
X147949605Y-89430000D01*
X147590395Y-89430000D01*
X146905928Y-88745533D01*
X146680309Y-88795274D01*
X146577418Y-89020058D01*
X146520358Y-89260596D01*
X146513612Y-89445000D01*
X146485291Y-89445000D01*
X146488680Y-89352355D01*
X146449347Y-89108291D01*
X146363156Y-88876590D01*
X146319691Y-88795274D01*
X146094072Y-88745533D01*
X145409605Y-89430000D01*
X145423748Y-89444143D01*
X145244143Y-89623748D01*
X145230000Y-89609605D01*
X145215858Y-89623748D01*
X145036253Y-89444143D01*
X145050395Y-89430000D01*
X144365928Y-88745533D01*
X144140309Y-88795274D01*
X144037418Y-89020058D01*
X143980358Y-89260596D01*
X143971320Y-89507645D01*
X144010653Y-89751709D01*
X144096844Y-89983410D01*
X144140309Y-90064726D01*
X144365926Y-90114466D01*
X144248918Y-90231474D01*
X144328821Y-90311377D01*
X143444072Y-91196126D01*
X143428084Y-91143418D01*
X143355258Y-91007171D01*
X143257251Y-90887749D01*
X143137829Y-90789742D01*
X143001582Y-90716916D01*
X142973246Y-90708320D01*
X143049482Y-90700812D01*
X143169180Y-90664502D01*
X143279494Y-90605537D01*
X143376185Y-90526185D01*
X143455537Y-90429494D01*
X143514502Y-90319180D01*
X143550812Y-90199482D01*
X143563072Y-90075000D01*
X143560000Y-89885750D01*
X143401250Y-89727000D01*
X142527000Y-89727000D01*
X142527000Y-89747000D01*
X142273000Y-89747000D01*
X142273000Y-89727000D01*
X142253000Y-89727000D01*
X142253000Y-89473000D01*
X142273000Y-89473000D01*
X142273000Y-88648750D01*
X142527000Y-88648750D01*
X142527000Y-89473000D01*
X143401250Y-89473000D01*
X143560000Y-89314250D01*
X143563072Y-89125000D01*
X143550812Y-89000518D01*
X143514502Y-88880820D01*
X143455537Y-88770506D01*
X143376185Y-88673815D01*
X143279494Y-88594463D01*
X143226110Y-88565928D01*
X144545533Y-88565928D01*
X145230000Y-89250395D01*
X145914467Y-88565928D01*
X147085533Y-88565928D01*
X147770000Y-89250395D01*
X148454467Y-88565928D01*
X148404726Y-88340309D01*
X148179942Y-88237418D01*
X147939404Y-88180358D01*
X147692355Y-88171320D01*
X147448291Y-88210653D01*
X147216590Y-88296844D01*
X147135274Y-88340309D01*
X147085533Y-88565928D01*
X145914467Y-88565928D01*
X145864726Y-88340309D01*
X145639942Y-88237418D01*
X145399404Y-88180358D01*
X145152355Y-88171320D01*
X144908291Y-88210653D01*
X144676590Y-88296844D01*
X144595274Y-88340309D01*
X144545533Y-88565928D01*
X143226110Y-88565928D01*
X143169180Y-88535498D01*
X143049482Y-88499188D01*
X142925000Y-88486928D01*
X142685750Y-88490000D01*
X142527000Y-88648750D01*
X142273000Y-88648750D01*
X142114250Y-88490000D01*
X141875000Y-88486928D01*
X141750518Y-88499188D01*
X141630820Y-88535498D01*
X141530000Y-88589388D01*
X141530000Y-86934072D01*
X144545533Y-86934072D01*
X144595274Y-87159691D01*
X144820058Y-87262582D01*
X145060596Y-87319642D01*
X145307645Y-87328680D01*
X145551709Y-87289347D01*
X145783410Y-87203156D01*
X145864726Y-87159691D01*
X145914467Y-86934072D01*
X147085533Y-86934072D01*
X147135274Y-87159691D01*
X147360058Y-87262582D01*
X147600596Y-87319642D01*
X147847645Y-87328680D01*
X148091709Y-87289347D01*
X148323410Y-87203156D01*
X148404726Y-87159691D01*
X148454467Y-86934072D01*
X147770000Y-86249605D01*
X147085533Y-86934072D01*
X145914467Y-86934072D01*
X145230000Y-86249605D01*
X144545533Y-86934072D01*
X141530000Y-86934072D01*
X141530000Y-86365038D01*
X141614180Y-86339502D01*
X141724494Y-86280537D01*
X141821185Y-86201185D01*
X141900537Y-86104494D01*
X141959502Y-85994180D01*
X141995812Y-85874482D01*
X142008072Y-85750000D01*
X142008072Y-85510000D01*
X144106104Y-85510000D01*
X144037418Y-85660058D01*
X143980358Y-85900596D01*
X143971320Y-86147645D01*
X144010653Y-86391709D01*
X144096844Y-86623410D01*
X144140309Y-86704726D01*
X144365928Y-86754467D01*
X145050395Y-86070000D01*
X145036253Y-86055858D01*
X145215858Y-85876253D01*
X145230000Y-85890395D01*
X145244143Y-85876253D01*
X145423748Y-86055858D01*
X145409605Y-86070000D01*
X146094072Y-86754467D01*
X146319691Y-86704726D01*
X146422582Y-86479942D01*
X146479642Y-86239404D01*
X146486388Y-86055000D01*
X146514709Y-86055000D01*
X146511320Y-86147645D01*
X146550653Y-86391709D01*
X146636844Y-86623410D01*
X146680309Y-86704726D01*
X146905928Y-86754467D01*
X147590395Y-86070000D01*
X147949605Y-86070000D01*
X148634072Y-86754467D01*
X148859691Y-86704726D01*
X148962582Y-86479942D01*
X149019642Y-86239404D01*
X149028680Y-85992355D01*
X148989347Y-85748291D01*
X148903156Y-85516590D01*
X148859691Y-85435274D01*
X148634072Y-85385533D01*
X147949605Y-86070000D01*
X147590395Y-86070000D01*
X147576253Y-86055858D01*
X147755858Y-85876253D01*
X147770000Y-85890395D01*
X148454467Y-85205928D01*
X148404726Y-84980309D01*
X148179942Y-84877418D01*
X147939404Y-84820358D01*
X147755000Y-84813612D01*
X147755000Y-84785291D01*
X147847645Y-84788680D01*
X148091709Y-84749347D01*
X148323410Y-84663156D01*
X148404726Y-84619691D01*
X148454467Y-84394072D01*
X147770000Y-83709605D01*
X147755858Y-83723748D01*
X147576253Y-83544143D01*
X147590395Y-83530000D01*
X147949605Y-83530000D01*
X148634072Y-84214467D01*
X148859691Y-84164726D01*
X148962582Y-83939942D01*
X149019642Y-83699404D01*
X149028680Y-83452355D01*
X148989347Y-83208291D01*
X148903156Y-82976590D01*
X148859691Y-82895274D01*
X148634072Y-82845533D01*
X147949605Y-83530000D01*
X147590395Y-83530000D01*
X146905928Y-82845533D01*
X146680309Y-82895274D01*
X146577418Y-83120058D01*
X146520358Y-83360596D01*
X146513612Y-83545000D01*
X146485291Y-83545000D01*
X146488680Y-83452355D01*
X146449347Y-83208291D01*
X146363156Y-82976590D01*
X146319691Y-82895274D01*
X146094072Y-82845533D01*
X145409605Y-83530000D01*
X145423748Y-83544143D01*
X145244143Y-83723748D01*
X145230000Y-83709605D01*
X145215858Y-83723748D01*
X145036253Y-83544143D01*
X145050395Y-83530000D01*
X144365928Y-82845533D01*
X144140309Y-82895274D01*
X144037418Y-83120058D01*
X143980358Y-83360596D01*
X143971320Y-83607645D01*
X144010653Y-83851709D01*
X144062096Y-83990000D01*
X142008072Y-83990000D01*
X142008072Y-83750000D01*
X141995812Y-83625518D01*
X141959502Y-83505820D01*
X141900537Y-83395506D01*
X141821185Y-83298815D01*
X141724494Y-83219463D01*
X141614180Y-83160498D01*
X141494482Y-83124188D01*
X141370000Y-83111928D01*
X140170000Y-83111928D01*
X140045518Y-83124188D01*
X139925820Y-83160498D01*
X139815506Y-83219463D01*
X139718815Y-83298815D01*
X139639463Y-83395506D01*
X139580498Y-83505820D01*
X139544188Y-83625518D01*
X139531928Y-83750000D01*
X139531928Y-85750000D01*
X139544188Y-85874482D01*
X139580498Y-85994180D01*
X139639463Y-86104494D01*
X139718815Y-86201185D01*
X139815506Y-86280537D01*
X139925820Y-86339502D01*
X140010000Y-86365038D01*
X140010001Y-88562895D01*
X139876058Y-88634488D01*
X139743377Y-88743377D01*
X139634488Y-88876058D01*
X139553577Y-89027433D01*
X139503752Y-89191684D01*
X139486928Y-89362500D01*
X126941468Y-89362500D01*
X126844180Y-89310498D01*
X126724482Y-89274188D01*
X126600000Y-89261928D01*
X124000000Y-89261928D01*
X123875518Y-89274188D01*
X123755820Y-89310498D01*
X123645506Y-89369463D01*
X123548815Y-89448815D01*
X123469463Y-89545506D01*
X123410498Y-89655820D01*
X123374188Y-89775518D01*
X123361928Y-89900000D01*
X120660000Y-89900000D01*
X120660000Y-85750000D01*
X136991928Y-85750000D01*
X137004188Y-85874482D01*
X137040498Y-85994180D01*
X137099463Y-86104494D01*
X137178815Y-86201185D01*
X137275506Y-86280537D01*
X137385820Y-86339502D01*
X137505518Y-86375812D01*
X137630000Y-86388072D01*
X137944250Y-86385000D01*
X138103000Y-86226250D01*
X138103000Y-84877000D01*
X138357000Y-84877000D01*
X138357000Y-86226250D01*
X138515750Y-86385000D01*
X138830000Y-86388072D01*
X138954482Y-86375812D01*
X139074180Y-86339502D01*
X139184494Y-86280537D01*
X139281185Y-86201185D01*
X139360537Y-86104494D01*
X139419502Y-85994180D01*
X139455812Y-85874482D01*
X139468072Y-85750000D01*
X139465000Y-85035750D01*
X139306250Y-84877000D01*
X138357000Y-84877000D01*
X138103000Y-84877000D01*
X137153750Y-84877000D01*
X136995000Y-85035750D01*
X136991928Y-85750000D01*
X120660000Y-85750000D01*
X120660000Y-83750000D01*
X136991928Y-83750000D01*
X136995000Y-84464250D01*
X137153750Y-84623000D01*
X138103000Y-84623000D01*
X138103000Y-83273750D01*
X138357000Y-83273750D01*
X138357000Y-84623000D01*
X139306250Y-84623000D01*
X139465000Y-84464250D01*
X139468072Y-83750000D01*
X139455812Y-83625518D01*
X139419502Y-83505820D01*
X139360537Y-83395506D01*
X139281185Y-83298815D01*
X139184494Y-83219463D01*
X139074180Y-83160498D01*
X138954482Y-83124188D01*
X138830000Y-83111928D01*
X138515750Y-83115000D01*
X138357000Y-83273750D01*
X138103000Y-83273750D01*
X137944250Y-83115000D01*
X137630000Y-83111928D01*
X137505518Y-83124188D01*
X137385820Y-83160498D01*
X137275506Y-83219463D01*
X137178815Y-83298815D01*
X137099463Y-83395506D01*
X137040498Y-83505820D01*
X137004188Y-83625518D01*
X136991928Y-83750000D01*
X120660000Y-83750000D01*
X120660000Y-82665928D01*
X144545533Y-82665928D01*
X145230000Y-83350395D01*
X145914467Y-82665928D01*
X147085533Y-82665928D01*
X147770000Y-83350395D01*
X148454467Y-82665928D01*
X148404726Y-82440309D01*
X148179942Y-82337418D01*
X147939404Y-82280358D01*
X147692355Y-82271320D01*
X147448291Y-82310653D01*
X147216590Y-82396844D01*
X147135274Y-82440309D01*
X147085533Y-82665928D01*
X145914467Y-82665928D01*
X145864726Y-82440309D01*
X145639942Y-82337418D01*
X145399404Y-82280358D01*
X145152355Y-82271320D01*
X144908291Y-82310653D01*
X144676590Y-82396844D01*
X144595274Y-82440309D01*
X144545533Y-82665928D01*
X120660000Y-82665928D01*
X120660000Y-70660000D01*
X134846694Y-70660000D01*
X134782870Y-70870398D01*
M02*
