G04 #@! TF.GenerationSoftware,KiCad,Pcbnew,(5.1.5-0)*
G04 #@! TF.CreationDate,2021-08-18T08:54:09-06:00*
G04 #@! TF.ProjectId,imon,696d6f6e-2e6b-4696-9361-645f70636258,rev?*
G04 #@! TF.SameCoordinates,Original*
G04 #@! TF.FileFunction,Copper,L2,Bot*
G04 #@! TF.FilePolarity,Positive*
%FSLAX46Y46*%
G04 Gerber Fmt 4.6, Leading zero omitted, Abs format (unit mm)*
G04 Created by KiCad (PCBNEW (5.1.5-0)) date 2021-08-18 08:54:09*
%MOMM*%
%LPD*%
G04 APERTURE LIST*
%ADD10C,1.240000*%
%ADD11C,2.600000*%
%ADD12R,2.600000X2.600000*%
%ADD13O,1.200000X1.900000*%
%ADD14C,1.450000*%
%ADD15C,0.254000*%
G04 APERTURE END LIST*
D10*
X145230000Y-91970000D03*
X147770000Y-89430000D03*
X147770000Y-91970000D03*
X145230000Y-89430000D03*
X146500000Y-90700000D03*
X145230000Y-86070000D03*
X147770000Y-83530000D03*
X147770000Y-86070000D03*
X145230000Y-83530000D03*
X146500000Y-84800000D03*
D11*
X125300000Y-96280000D03*
D12*
X125300000Y-91200000D03*
D13*
X136000000Y-71462500D03*
X143000000Y-71462500D03*
D14*
X137000000Y-74162500D03*
X142000000Y-74162500D03*
D15*
G36*
X134782870Y-70870398D02*
G01*
X134765000Y-71051835D01*
X134765000Y-71873164D01*
X134782870Y-72054601D01*
X134853489Y-72287400D01*
X134968167Y-72501948D01*
X135122498Y-72690002D01*
X135310551Y-72844333D01*
X135525099Y-72959011D01*
X135757898Y-73029630D01*
X136000000Y-73053475D01*
X136242101Y-73029630D01*
X136252035Y-73026616D01*
X136133051Y-73106119D01*
X135943619Y-73295551D01*
X135794784Y-73518299D01*
X135692264Y-73765803D01*
X135640000Y-74028552D01*
X135640000Y-74296448D01*
X135692264Y-74559197D01*
X135794784Y-74806701D01*
X135943619Y-75029449D01*
X136133051Y-75218881D01*
X136355799Y-75367716D01*
X136603303Y-75470236D01*
X136866052Y-75522500D01*
X137133948Y-75522500D01*
X137396697Y-75470236D01*
X137644201Y-75367716D01*
X137866949Y-75218881D01*
X138056381Y-75029449D01*
X138205216Y-74806701D01*
X138307736Y-74559197D01*
X138360000Y-74296448D01*
X138360000Y-74028552D01*
X138307736Y-73765803D01*
X138205216Y-73518299D01*
X138056381Y-73295551D01*
X137866949Y-73106119D01*
X137644201Y-72957284D01*
X137396697Y-72854764D01*
X137133948Y-72802500D01*
X136866052Y-72802500D01*
X136700231Y-72835484D01*
X136877502Y-72690002D01*
X137031833Y-72501949D01*
X137146511Y-72287401D01*
X137217130Y-72054602D01*
X137235000Y-71873165D01*
X137235000Y-71051836D01*
X137217130Y-70870399D01*
X137153306Y-70660000D01*
X141846694Y-70660000D01*
X141782870Y-70870399D01*
X141765000Y-71051836D01*
X141765000Y-71873165D01*
X141782870Y-72054602D01*
X141853489Y-72287401D01*
X141968168Y-72501949D01*
X142122499Y-72690002D01*
X142299769Y-72835484D01*
X142133948Y-72802500D01*
X141866052Y-72802500D01*
X141603303Y-72854764D01*
X141355799Y-72957284D01*
X141133051Y-73106119D01*
X140943619Y-73295551D01*
X140794784Y-73518299D01*
X140692264Y-73765803D01*
X140640000Y-74028552D01*
X140640000Y-74296448D01*
X140692264Y-74559197D01*
X140794784Y-74806701D01*
X140943619Y-75029449D01*
X141133051Y-75218881D01*
X141355799Y-75367716D01*
X141603303Y-75470236D01*
X141866052Y-75522500D01*
X142133948Y-75522500D01*
X142396697Y-75470236D01*
X142644201Y-75367716D01*
X142866949Y-75218881D01*
X143056381Y-75029449D01*
X143205216Y-74806701D01*
X143307736Y-74559197D01*
X143360000Y-74296448D01*
X143360000Y-74028552D01*
X143307736Y-73765803D01*
X143205216Y-73518299D01*
X143056381Y-73295551D01*
X142866949Y-73106119D01*
X142747965Y-73026616D01*
X142757899Y-73029630D01*
X143000000Y-73053475D01*
X143242102Y-73029630D01*
X143474901Y-72959011D01*
X143689449Y-72844333D01*
X143877502Y-72690002D01*
X144031833Y-72501949D01*
X144146511Y-72287401D01*
X144217130Y-72054601D01*
X144235000Y-71873164D01*
X144235000Y-71051835D01*
X144217130Y-70870398D01*
X144153306Y-70660000D01*
X149340000Y-70660000D01*
X149340001Y-99340000D01*
X120660000Y-99340000D01*
X120660000Y-96089419D01*
X123365000Y-96089419D01*
X123365000Y-96470581D01*
X123439361Y-96844419D01*
X123585225Y-97196566D01*
X123796987Y-97513491D01*
X124066509Y-97783013D01*
X124383434Y-97994775D01*
X124735581Y-98140639D01*
X125109419Y-98215000D01*
X125490581Y-98215000D01*
X125864419Y-98140639D01*
X126216566Y-97994775D01*
X126533491Y-97783013D01*
X126803013Y-97513491D01*
X127014775Y-97196566D01*
X127160639Y-96844419D01*
X127235000Y-96470581D01*
X127235000Y-96089419D01*
X127160639Y-95715581D01*
X127014775Y-95363434D01*
X126803013Y-95046509D01*
X126533491Y-94776987D01*
X126216566Y-94565225D01*
X125864419Y-94419361D01*
X125490581Y-94345000D01*
X125109419Y-94345000D01*
X124735581Y-94419361D01*
X124383434Y-94565225D01*
X124066509Y-94776987D01*
X123796987Y-95046509D01*
X123585225Y-95363434D01*
X123439361Y-95715581D01*
X123365000Y-96089419D01*
X120660000Y-96089419D01*
X120660000Y-89900000D01*
X123361928Y-89900000D01*
X123361928Y-92500000D01*
X123374188Y-92624482D01*
X123410498Y-92744180D01*
X123469463Y-92854494D01*
X123548815Y-92951185D01*
X123645506Y-93030537D01*
X123755820Y-93089502D01*
X123875518Y-93125812D01*
X124000000Y-93138072D01*
X126600000Y-93138072D01*
X126724482Y-93125812D01*
X126844180Y-93089502D01*
X126954494Y-93030537D01*
X127051185Y-92951185D01*
X127130537Y-92854494D01*
X127141452Y-92834072D01*
X144545533Y-92834072D01*
X144595274Y-93059691D01*
X144820058Y-93162582D01*
X145060596Y-93219642D01*
X145307645Y-93228680D01*
X145551709Y-93189347D01*
X145783410Y-93103156D01*
X145864726Y-93059691D01*
X145914467Y-92834072D01*
X147085533Y-92834072D01*
X147135274Y-93059691D01*
X147360058Y-93162582D01*
X147600596Y-93219642D01*
X147847645Y-93228680D01*
X148091709Y-93189347D01*
X148323410Y-93103156D01*
X148404726Y-93059691D01*
X148454467Y-92834072D01*
X147770000Y-92149605D01*
X147085533Y-92834072D01*
X145914467Y-92834072D01*
X145230000Y-92149605D01*
X144545533Y-92834072D01*
X127141452Y-92834072D01*
X127189502Y-92744180D01*
X127225812Y-92624482D01*
X127238072Y-92500000D01*
X127238072Y-92047645D01*
X143971320Y-92047645D01*
X144010653Y-92291709D01*
X144096844Y-92523410D01*
X144140309Y-92604726D01*
X144365928Y-92654467D01*
X145050395Y-91970000D01*
X144365928Y-91285533D01*
X144140309Y-91335274D01*
X144037418Y-91560058D01*
X143980358Y-91800596D01*
X143971320Y-92047645D01*
X127238072Y-92047645D01*
X127238072Y-90294072D01*
X144545533Y-90294072D01*
X144595274Y-90519691D01*
X144820058Y-90622582D01*
X145060596Y-90679642D01*
X145245000Y-90686388D01*
X145245000Y-90714709D01*
X145152355Y-90711320D01*
X144908291Y-90750653D01*
X144676590Y-90836844D01*
X144595274Y-90880309D01*
X144545533Y-91105928D01*
X145230000Y-91790395D01*
X145244143Y-91776253D01*
X145423748Y-91955858D01*
X145409605Y-91970000D01*
X146094072Y-92654467D01*
X146319691Y-92604726D01*
X146422582Y-92379942D01*
X146479642Y-92139404D01*
X146486388Y-91955000D01*
X146514709Y-91955000D01*
X146511320Y-92047645D01*
X146550653Y-92291709D01*
X146636844Y-92523410D01*
X146680309Y-92604726D01*
X146905928Y-92654467D01*
X147590395Y-91970000D01*
X147949605Y-91970000D01*
X148634072Y-92654467D01*
X148859691Y-92604726D01*
X148962582Y-92379942D01*
X149019642Y-92139404D01*
X149028680Y-91892355D01*
X148989347Y-91648291D01*
X148903156Y-91416590D01*
X148859691Y-91335274D01*
X148634072Y-91285533D01*
X147949605Y-91970000D01*
X147590395Y-91970000D01*
X147576253Y-91955858D01*
X147755858Y-91776253D01*
X147770000Y-91790395D01*
X148454467Y-91105928D01*
X148404726Y-90880309D01*
X148179942Y-90777418D01*
X147939404Y-90720358D01*
X147755000Y-90713612D01*
X147755000Y-90685291D01*
X147847645Y-90688680D01*
X148091709Y-90649347D01*
X148323410Y-90563156D01*
X148404726Y-90519691D01*
X148454467Y-90294072D01*
X147770000Y-89609605D01*
X147755858Y-89623748D01*
X147576253Y-89444143D01*
X147590395Y-89430000D01*
X147949605Y-89430000D01*
X148634072Y-90114467D01*
X148859691Y-90064726D01*
X148962582Y-89839942D01*
X149019642Y-89599404D01*
X149028680Y-89352355D01*
X148989347Y-89108291D01*
X148903156Y-88876590D01*
X148859691Y-88795274D01*
X148634072Y-88745533D01*
X147949605Y-89430000D01*
X147590395Y-89430000D01*
X146905928Y-88745533D01*
X146680309Y-88795274D01*
X146577418Y-89020058D01*
X146520358Y-89260596D01*
X146513612Y-89445000D01*
X146485291Y-89445000D01*
X146488680Y-89352355D01*
X146449347Y-89108291D01*
X146363156Y-88876590D01*
X146319691Y-88795274D01*
X146094072Y-88745533D01*
X145409605Y-89430000D01*
X145423748Y-89444143D01*
X145244143Y-89623748D01*
X145230000Y-89609605D01*
X144545533Y-90294072D01*
X127238072Y-90294072D01*
X127238072Y-89900000D01*
X127225812Y-89775518D01*
X127189502Y-89655820D01*
X127130537Y-89545506D01*
X127099466Y-89507645D01*
X143971320Y-89507645D01*
X144010653Y-89751709D01*
X144096844Y-89983410D01*
X144140309Y-90064726D01*
X144365928Y-90114467D01*
X145050395Y-89430000D01*
X144365928Y-88745533D01*
X144140309Y-88795274D01*
X144037418Y-89020058D01*
X143980358Y-89260596D01*
X143971320Y-89507645D01*
X127099466Y-89507645D01*
X127051185Y-89448815D01*
X126954494Y-89369463D01*
X126844180Y-89310498D01*
X126724482Y-89274188D01*
X126600000Y-89261928D01*
X124000000Y-89261928D01*
X123875518Y-89274188D01*
X123755820Y-89310498D01*
X123645506Y-89369463D01*
X123548815Y-89448815D01*
X123469463Y-89545506D01*
X123410498Y-89655820D01*
X123374188Y-89775518D01*
X123361928Y-89900000D01*
X120660000Y-89900000D01*
X120660000Y-88565928D01*
X144545533Y-88565928D01*
X145230000Y-89250395D01*
X145914467Y-88565928D01*
X147085533Y-88565928D01*
X147770000Y-89250395D01*
X148454467Y-88565928D01*
X148404726Y-88340309D01*
X148179942Y-88237418D01*
X147939404Y-88180358D01*
X147692355Y-88171320D01*
X147448291Y-88210653D01*
X147216590Y-88296844D01*
X147135274Y-88340309D01*
X147085533Y-88565928D01*
X145914467Y-88565928D01*
X145864726Y-88340309D01*
X145639942Y-88237418D01*
X145399404Y-88180358D01*
X145152355Y-88171320D01*
X144908291Y-88210653D01*
X144676590Y-88296844D01*
X144595274Y-88340309D01*
X144545533Y-88565928D01*
X120660000Y-88565928D01*
X120660000Y-86934072D01*
X144545533Y-86934072D01*
X144595274Y-87159691D01*
X144820058Y-87262582D01*
X145060596Y-87319642D01*
X145307645Y-87328680D01*
X145551709Y-87289347D01*
X145783410Y-87203156D01*
X145864726Y-87159691D01*
X145914467Y-86934072D01*
X147085533Y-86934072D01*
X147135274Y-87159691D01*
X147360058Y-87262582D01*
X147600596Y-87319642D01*
X147847645Y-87328680D01*
X148091709Y-87289347D01*
X148323410Y-87203156D01*
X148404726Y-87159691D01*
X148454467Y-86934072D01*
X147770000Y-86249605D01*
X147085533Y-86934072D01*
X145914467Y-86934072D01*
X145230000Y-86249605D01*
X144545533Y-86934072D01*
X120660000Y-86934072D01*
X120660000Y-86147645D01*
X143971320Y-86147645D01*
X144010653Y-86391709D01*
X144096844Y-86623410D01*
X144140309Y-86704726D01*
X144365928Y-86754467D01*
X145050395Y-86070000D01*
X144365928Y-85385533D01*
X144140309Y-85435274D01*
X144037418Y-85660058D01*
X143980358Y-85900596D01*
X143971320Y-86147645D01*
X120660000Y-86147645D01*
X120660000Y-84394072D01*
X144545533Y-84394072D01*
X144595274Y-84619691D01*
X144820058Y-84722582D01*
X145060596Y-84779642D01*
X145245000Y-84786388D01*
X145245000Y-84814709D01*
X145152355Y-84811320D01*
X144908291Y-84850653D01*
X144676590Y-84936844D01*
X144595274Y-84980309D01*
X144545533Y-85205928D01*
X145230000Y-85890395D01*
X145244143Y-85876253D01*
X145423748Y-86055858D01*
X145409605Y-86070000D01*
X146094072Y-86754467D01*
X146319691Y-86704726D01*
X146422582Y-86479942D01*
X146479642Y-86239404D01*
X146486388Y-86055000D01*
X146514709Y-86055000D01*
X146511320Y-86147645D01*
X146550653Y-86391709D01*
X146636844Y-86623410D01*
X146680309Y-86704726D01*
X146905928Y-86754467D01*
X147590395Y-86070000D01*
X147949605Y-86070000D01*
X148634072Y-86754467D01*
X148859691Y-86704726D01*
X148962582Y-86479942D01*
X149019642Y-86239404D01*
X149028680Y-85992355D01*
X148989347Y-85748291D01*
X148903156Y-85516590D01*
X148859691Y-85435274D01*
X148634072Y-85385533D01*
X147949605Y-86070000D01*
X147590395Y-86070000D01*
X147576253Y-86055858D01*
X147755858Y-85876253D01*
X147770000Y-85890395D01*
X148454467Y-85205928D01*
X148404726Y-84980309D01*
X148179942Y-84877418D01*
X147939404Y-84820358D01*
X147755000Y-84813612D01*
X147755000Y-84785291D01*
X147847645Y-84788680D01*
X148091709Y-84749347D01*
X148323410Y-84663156D01*
X148404726Y-84619691D01*
X148454467Y-84394072D01*
X147770000Y-83709605D01*
X147755858Y-83723748D01*
X147576253Y-83544143D01*
X147590395Y-83530000D01*
X147949605Y-83530000D01*
X148634072Y-84214467D01*
X148859691Y-84164726D01*
X148962582Y-83939942D01*
X149019642Y-83699404D01*
X149028680Y-83452355D01*
X148989347Y-83208291D01*
X148903156Y-82976590D01*
X148859691Y-82895274D01*
X148634072Y-82845533D01*
X147949605Y-83530000D01*
X147590395Y-83530000D01*
X146905928Y-82845533D01*
X146680309Y-82895274D01*
X146577418Y-83120058D01*
X146520358Y-83360596D01*
X146513612Y-83545000D01*
X146485291Y-83545000D01*
X146488680Y-83452355D01*
X146449347Y-83208291D01*
X146363156Y-82976590D01*
X146319691Y-82895274D01*
X146094072Y-82845533D01*
X145409605Y-83530000D01*
X145423748Y-83544143D01*
X145244143Y-83723748D01*
X145230000Y-83709605D01*
X144545533Y-84394072D01*
X120660000Y-84394072D01*
X120660000Y-83607645D01*
X143971320Y-83607645D01*
X144010653Y-83851709D01*
X144096844Y-84083410D01*
X144140309Y-84164726D01*
X144365928Y-84214467D01*
X145050395Y-83530000D01*
X144365928Y-82845533D01*
X144140309Y-82895274D01*
X144037418Y-83120058D01*
X143980358Y-83360596D01*
X143971320Y-83607645D01*
X120660000Y-83607645D01*
X120660000Y-82665928D01*
X144545533Y-82665928D01*
X145230000Y-83350395D01*
X145914467Y-82665928D01*
X147085533Y-82665928D01*
X147770000Y-83350395D01*
X148454467Y-82665928D01*
X148404726Y-82440309D01*
X148179942Y-82337418D01*
X147939404Y-82280358D01*
X147692355Y-82271320D01*
X147448291Y-82310653D01*
X147216590Y-82396844D01*
X147135274Y-82440309D01*
X147085533Y-82665928D01*
X145914467Y-82665928D01*
X145864726Y-82440309D01*
X145639942Y-82337418D01*
X145399404Y-82280358D01*
X145152355Y-82271320D01*
X144908291Y-82310653D01*
X144676590Y-82396844D01*
X144595274Y-82440309D01*
X144545533Y-82665928D01*
X120660000Y-82665928D01*
X120660000Y-70660000D01*
X134846694Y-70660000D01*
X134782870Y-70870398D01*
G37*
X134782870Y-70870398D02*
X134765000Y-71051835D01*
X134765000Y-71873164D01*
X134782870Y-72054601D01*
X134853489Y-72287400D01*
X134968167Y-72501948D01*
X135122498Y-72690002D01*
X135310551Y-72844333D01*
X135525099Y-72959011D01*
X135757898Y-73029630D01*
X136000000Y-73053475D01*
X136242101Y-73029630D01*
X136252035Y-73026616D01*
X136133051Y-73106119D01*
X135943619Y-73295551D01*
X135794784Y-73518299D01*
X135692264Y-73765803D01*
X135640000Y-74028552D01*
X135640000Y-74296448D01*
X135692264Y-74559197D01*
X135794784Y-74806701D01*
X135943619Y-75029449D01*
X136133051Y-75218881D01*
X136355799Y-75367716D01*
X136603303Y-75470236D01*
X136866052Y-75522500D01*
X137133948Y-75522500D01*
X137396697Y-75470236D01*
X137644201Y-75367716D01*
X137866949Y-75218881D01*
X138056381Y-75029449D01*
X138205216Y-74806701D01*
X138307736Y-74559197D01*
X138360000Y-74296448D01*
X138360000Y-74028552D01*
X138307736Y-73765803D01*
X138205216Y-73518299D01*
X138056381Y-73295551D01*
X137866949Y-73106119D01*
X137644201Y-72957284D01*
X137396697Y-72854764D01*
X137133948Y-72802500D01*
X136866052Y-72802500D01*
X136700231Y-72835484D01*
X136877502Y-72690002D01*
X137031833Y-72501949D01*
X137146511Y-72287401D01*
X137217130Y-72054602D01*
X137235000Y-71873165D01*
X137235000Y-71051836D01*
X137217130Y-70870399D01*
X137153306Y-70660000D01*
X141846694Y-70660000D01*
X141782870Y-70870399D01*
X141765000Y-71051836D01*
X141765000Y-71873165D01*
X141782870Y-72054602D01*
X141853489Y-72287401D01*
X141968168Y-72501949D01*
X142122499Y-72690002D01*
X142299769Y-72835484D01*
X142133948Y-72802500D01*
X141866052Y-72802500D01*
X141603303Y-72854764D01*
X141355799Y-72957284D01*
X141133051Y-73106119D01*
X140943619Y-73295551D01*
X140794784Y-73518299D01*
X140692264Y-73765803D01*
X140640000Y-74028552D01*
X140640000Y-74296448D01*
X140692264Y-74559197D01*
X140794784Y-74806701D01*
X140943619Y-75029449D01*
X141133051Y-75218881D01*
X141355799Y-75367716D01*
X141603303Y-75470236D01*
X141866052Y-75522500D01*
X142133948Y-75522500D01*
X142396697Y-75470236D01*
X142644201Y-75367716D01*
X142866949Y-75218881D01*
X143056381Y-75029449D01*
X143205216Y-74806701D01*
X143307736Y-74559197D01*
X143360000Y-74296448D01*
X143360000Y-74028552D01*
X143307736Y-73765803D01*
X143205216Y-73518299D01*
X143056381Y-73295551D01*
X142866949Y-73106119D01*
X142747965Y-73026616D01*
X142757899Y-73029630D01*
X143000000Y-73053475D01*
X143242102Y-73029630D01*
X143474901Y-72959011D01*
X143689449Y-72844333D01*
X143877502Y-72690002D01*
X144031833Y-72501949D01*
X144146511Y-72287401D01*
X144217130Y-72054601D01*
X144235000Y-71873164D01*
X144235000Y-71051835D01*
X144217130Y-70870398D01*
X144153306Y-70660000D01*
X149340000Y-70660000D01*
X149340001Y-99340000D01*
X120660000Y-99340000D01*
X120660000Y-96089419D01*
X123365000Y-96089419D01*
X123365000Y-96470581D01*
X123439361Y-96844419D01*
X123585225Y-97196566D01*
X123796987Y-97513491D01*
X124066509Y-97783013D01*
X124383434Y-97994775D01*
X124735581Y-98140639D01*
X125109419Y-98215000D01*
X125490581Y-98215000D01*
X125864419Y-98140639D01*
X126216566Y-97994775D01*
X126533491Y-97783013D01*
X126803013Y-97513491D01*
X127014775Y-97196566D01*
X127160639Y-96844419D01*
X127235000Y-96470581D01*
X127235000Y-96089419D01*
X127160639Y-95715581D01*
X127014775Y-95363434D01*
X126803013Y-95046509D01*
X126533491Y-94776987D01*
X126216566Y-94565225D01*
X125864419Y-94419361D01*
X125490581Y-94345000D01*
X125109419Y-94345000D01*
X124735581Y-94419361D01*
X124383434Y-94565225D01*
X124066509Y-94776987D01*
X123796987Y-95046509D01*
X123585225Y-95363434D01*
X123439361Y-95715581D01*
X123365000Y-96089419D01*
X120660000Y-96089419D01*
X120660000Y-89900000D01*
X123361928Y-89900000D01*
X123361928Y-92500000D01*
X123374188Y-92624482D01*
X123410498Y-92744180D01*
X123469463Y-92854494D01*
X123548815Y-92951185D01*
X123645506Y-93030537D01*
X123755820Y-93089502D01*
X123875518Y-93125812D01*
X124000000Y-93138072D01*
X126600000Y-93138072D01*
X126724482Y-93125812D01*
X126844180Y-93089502D01*
X126954494Y-93030537D01*
X127051185Y-92951185D01*
X127130537Y-92854494D01*
X127141452Y-92834072D01*
X144545533Y-92834072D01*
X144595274Y-93059691D01*
X144820058Y-93162582D01*
X145060596Y-93219642D01*
X145307645Y-93228680D01*
X145551709Y-93189347D01*
X145783410Y-93103156D01*
X145864726Y-93059691D01*
X145914467Y-92834072D01*
X147085533Y-92834072D01*
X147135274Y-93059691D01*
X147360058Y-93162582D01*
X147600596Y-93219642D01*
X147847645Y-93228680D01*
X148091709Y-93189347D01*
X148323410Y-93103156D01*
X148404726Y-93059691D01*
X148454467Y-92834072D01*
X147770000Y-92149605D01*
X147085533Y-92834072D01*
X145914467Y-92834072D01*
X145230000Y-92149605D01*
X144545533Y-92834072D01*
X127141452Y-92834072D01*
X127189502Y-92744180D01*
X127225812Y-92624482D01*
X127238072Y-92500000D01*
X127238072Y-92047645D01*
X143971320Y-92047645D01*
X144010653Y-92291709D01*
X144096844Y-92523410D01*
X144140309Y-92604726D01*
X144365928Y-92654467D01*
X145050395Y-91970000D01*
X144365928Y-91285533D01*
X144140309Y-91335274D01*
X144037418Y-91560058D01*
X143980358Y-91800596D01*
X143971320Y-92047645D01*
X127238072Y-92047645D01*
X127238072Y-90294072D01*
X144545533Y-90294072D01*
X144595274Y-90519691D01*
X144820058Y-90622582D01*
X145060596Y-90679642D01*
X145245000Y-90686388D01*
X145245000Y-90714709D01*
X145152355Y-90711320D01*
X144908291Y-90750653D01*
X144676590Y-90836844D01*
X144595274Y-90880309D01*
X144545533Y-91105928D01*
X145230000Y-91790395D01*
X145244143Y-91776253D01*
X145423748Y-91955858D01*
X145409605Y-91970000D01*
X146094072Y-92654467D01*
X146319691Y-92604726D01*
X146422582Y-92379942D01*
X146479642Y-92139404D01*
X146486388Y-91955000D01*
X146514709Y-91955000D01*
X146511320Y-92047645D01*
X146550653Y-92291709D01*
X146636844Y-92523410D01*
X146680309Y-92604726D01*
X146905928Y-92654467D01*
X147590395Y-91970000D01*
X147949605Y-91970000D01*
X148634072Y-92654467D01*
X148859691Y-92604726D01*
X148962582Y-92379942D01*
X149019642Y-92139404D01*
X149028680Y-91892355D01*
X148989347Y-91648291D01*
X148903156Y-91416590D01*
X148859691Y-91335274D01*
X148634072Y-91285533D01*
X147949605Y-91970000D01*
X147590395Y-91970000D01*
X147576253Y-91955858D01*
X147755858Y-91776253D01*
X147770000Y-91790395D01*
X148454467Y-91105928D01*
X148404726Y-90880309D01*
X148179942Y-90777418D01*
X147939404Y-90720358D01*
X147755000Y-90713612D01*
X147755000Y-90685291D01*
X147847645Y-90688680D01*
X148091709Y-90649347D01*
X148323410Y-90563156D01*
X148404726Y-90519691D01*
X148454467Y-90294072D01*
X147770000Y-89609605D01*
X147755858Y-89623748D01*
X147576253Y-89444143D01*
X147590395Y-89430000D01*
X147949605Y-89430000D01*
X148634072Y-90114467D01*
X148859691Y-90064726D01*
X148962582Y-89839942D01*
X149019642Y-89599404D01*
X149028680Y-89352355D01*
X148989347Y-89108291D01*
X148903156Y-88876590D01*
X148859691Y-88795274D01*
X148634072Y-88745533D01*
X147949605Y-89430000D01*
X147590395Y-89430000D01*
X146905928Y-88745533D01*
X146680309Y-88795274D01*
X146577418Y-89020058D01*
X146520358Y-89260596D01*
X146513612Y-89445000D01*
X146485291Y-89445000D01*
X146488680Y-89352355D01*
X146449347Y-89108291D01*
X146363156Y-88876590D01*
X146319691Y-88795274D01*
X146094072Y-88745533D01*
X145409605Y-89430000D01*
X145423748Y-89444143D01*
X145244143Y-89623748D01*
X145230000Y-89609605D01*
X144545533Y-90294072D01*
X127238072Y-90294072D01*
X127238072Y-89900000D01*
X127225812Y-89775518D01*
X127189502Y-89655820D01*
X127130537Y-89545506D01*
X127099466Y-89507645D01*
X143971320Y-89507645D01*
X144010653Y-89751709D01*
X144096844Y-89983410D01*
X144140309Y-90064726D01*
X144365928Y-90114467D01*
X145050395Y-89430000D01*
X144365928Y-88745533D01*
X144140309Y-88795274D01*
X144037418Y-89020058D01*
X143980358Y-89260596D01*
X143971320Y-89507645D01*
X127099466Y-89507645D01*
X127051185Y-89448815D01*
X126954494Y-89369463D01*
X126844180Y-89310498D01*
X126724482Y-89274188D01*
X126600000Y-89261928D01*
X124000000Y-89261928D01*
X123875518Y-89274188D01*
X123755820Y-89310498D01*
X123645506Y-89369463D01*
X123548815Y-89448815D01*
X123469463Y-89545506D01*
X123410498Y-89655820D01*
X123374188Y-89775518D01*
X123361928Y-89900000D01*
X120660000Y-89900000D01*
X120660000Y-88565928D01*
X144545533Y-88565928D01*
X145230000Y-89250395D01*
X145914467Y-88565928D01*
X147085533Y-88565928D01*
X147770000Y-89250395D01*
X148454467Y-88565928D01*
X148404726Y-88340309D01*
X148179942Y-88237418D01*
X147939404Y-88180358D01*
X147692355Y-88171320D01*
X147448291Y-88210653D01*
X147216590Y-88296844D01*
X147135274Y-88340309D01*
X147085533Y-88565928D01*
X145914467Y-88565928D01*
X145864726Y-88340309D01*
X145639942Y-88237418D01*
X145399404Y-88180358D01*
X145152355Y-88171320D01*
X144908291Y-88210653D01*
X144676590Y-88296844D01*
X144595274Y-88340309D01*
X144545533Y-88565928D01*
X120660000Y-88565928D01*
X120660000Y-86934072D01*
X144545533Y-86934072D01*
X144595274Y-87159691D01*
X144820058Y-87262582D01*
X145060596Y-87319642D01*
X145307645Y-87328680D01*
X145551709Y-87289347D01*
X145783410Y-87203156D01*
X145864726Y-87159691D01*
X145914467Y-86934072D01*
X147085533Y-86934072D01*
X147135274Y-87159691D01*
X147360058Y-87262582D01*
X147600596Y-87319642D01*
X147847645Y-87328680D01*
X148091709Y-87289347D01*
X148323410Y-87203156D01*
X148404726Y-87159691D01*
X148454467Y-86934072D01*
X147770000Y-86249605D01*
X147085533Y-86934072D01*
X145914467Y-86934072D01*
X145230000Y-86249605D01*
X144545533Y-86934072D01*
X120660000Y-86934072D01*
X120660000Y-86147645D01*
X143971320Y-86147645D01*
X144010653Y-86391709D01*
X144096844Y-86623410D01*
X144140309Y-86704726D01*
X144365928Y-86754467D01*
X145050395Y-86070000D01*
X144365928Y-85385533D01*
X144140309Y-85435274D01*
X144037418Y-85660058D01*
X143980358Y-85900596D01*
X143971320Y-86147645D01*
X120660000Y-86147645D01*
X120660000Y-84394072D01*
X144545533Y-84394072D01*
X144595274Y-84619691D01*
X144820058Y-84722582D01*
X145060596Y-84779642D01*
X145245000Y-84786388D01*
X145245000Y-84814709D01*
X145152355Y-84811320D01*
X144908291Y-84850653D01*
X144676590Y-84936844D01*
X144595274Y-84980309D01*
X144545533Y-85205928D01*
X145230000Y-85890395D01*
X145244143Y-85876253D01*
X145423748Y-86055858D01*
X145409605Y-86070000D01*
X146094072Y-86754467D01*
X146319691Y-86704726D01*
X146422582Y-86479942D01*
X146479642Y-86239404D01*
X146486388Y-86055000D01*
X146514709Y-86055000D01*
X146511320Y-86147645D01*
X146550653Y-86391709D01*
X146636844Y-86623410D01*
X146680309Y-86704726D01*
X146905928Y-86754467D01*
X147590395Y-86070000D01*
X147949605Y-86070000D01*
X148634072Y-86754467D01*
X148859691Y-86704726D01*
X148962582Y-86479942D01*
X149019642Y-86239404D01*
X149028680Y-85992355D01*
X148989347Y-85748291D01*
X148903156Y-85516590D01*
X148859691Y-85435274D01*
X148634072Y-85385533D01*
X147949605Y-86070000D01*
X147590395Y-86070000D01*
X147576253Y-86055858D01*
X147755858Y-85876253D01*
X147770000Y-85890395D01*
X148454467Y-85205928D01*
X148404726Y-84980309D01*
X148179942Y-84877418D01*
X147939404Y-84820358D01*
X147755000Y-84813612D01*
X147755000Y-84785291D01*
X147847645Y-84788680D01*
X148091709Y-84749347D01*
X148323410Y-84663156D01*
X148404726Y-84619691D01*
X148454467Y-84394072D01*
X147770000Y-83709605D01*
X147755858Y-83723748D01*
X147576253Y-83544143D01*
X147590395Y-83530000D01*
X147949605Y-83530000D01*
X148634072Y-84214467D01*
X148859691Y-84164726D01*
X148962582Y-83939942D01*
X149019642Y-83699404D01*
X149028680Y-83452355D01*
X148989347Y-83208291D01*
X148903156Y-82976590D01*
X148859691Y-82895274D01*
X148634072Y-82845533D01*
X147949605Y-83530000D01*
X147590395Y-83530000D01*
X146905928Y-82845533D01*
X146680309Y-82895274D01*
X146577418Y-83120058D01*
X146520358Y-83360596D01*
X146513612Y-83545000D01*
X146485291Y-83545000D01*
X146488680Y-83452355D01*
X146449347Y-83208291D01*
X146363156Y-82976590D01*
X146319691Y-82895274D01*
X146094072Y-82845533D01*
X145409605Y-83530000D01*
X145423748Y-83544143D01*
X145244143Y-83723748D01*
X145230000Y-83709605D01*
X144545533Y-84394072D01*
X120660000Y-84394072D01*
X120660000Y-83607645D01*
X143971320Y-83607645D01*
X144010653Y-83851709D01*
X144096844Y-84083410D01*
X144140309Y-84164726D01*
X144365928Y-84214467D01*
X145050395Y-83530000D01*
X144365928Y-82845533D01*
X144140309Y-82895274D01*
X144037418Y-83120058D01*
X143980358Y-83360596D01*
X143971320Y-83607645D01*
X120660000Y-83607645D01*
X120660000Y-82665928D01*
X144545533Y-82665928D01*
X145230000Y-83350395D01*
X145914467Y-82665928D01*
X147085533Y-82665928D01*
X147770000Y-83350395D01*
X148454467Y-82665928D01*
X148404726Y-82440309D01*
X148179942Y-82337418D01*
X147939404Y-82280358D01*
X147692355Y-82271320D01*
X147448291Y-82310653D01*
X147216590Y-82396844D01*
X147135274Y-82440309D01*
X147085533Y-82665928D01*
X145914467Y-82665928D01*
X145864726Y-82440309D01*
X145639942Y-82337418D01*
X145399404Y-82280358D01*
X145152355Y-82271320D01*
X144908291Y-82310653D01*
X144676590Y-82396844D01*
X144595274Y-82440309D01*
X144545533Y-82665928D01*
X120660000Y-82665928D01*
X120660000Y-70660000D01*
X134846694Y-70660000D01*
X134782870Y-70870398D01*
M02*
