M48
; DRILL file {KiCad (5.1.5-0)} date Thursday, October 28, 2021 at 03:17:14 PM
; FORMAT={-:-/ absolute / inch / decimal}
; #@! TF.CreationDate,2021-10-28T15:17:14-06:00
; #@! TF.GenerationSoftware,Kicad,Pcbnew,(5.1.5-0)
; #@! TF.FileFunction,Plated,1,2,PTH
FMAT,2
INCH
T1C0.0157
T2C0.0295
T3C0.0394
T4C0.1280
%
G90
G05
T1
X4.9685Y-2.6181
X5.1457Y-2.6181
X5.2244Y-2.8465
X5.3012Y-3.4862
X5.6496Y-2.9528
X5.7835Y-2.9528
X5.8031Y-2.5906
X5.8386Y-2.8976
X5.9567Y-2.6929
X6.1614Y-2.8976
X6.2283Y-2.6457
X6.2283Y-2.7244
X6.3622Y-3.2638
X6.3673Y-2.8719
X6.8346Y-2.9882
T2
X5.0492Y-2.4055
X5.128Y-2.4055
T3
X5.3661Y-2.4016
X5.4661Y-2.4016
X4.5398Y-3.1276
X4.5398Y-3.2362
X4.5398Y-3.3449
X4.5398Y-3.4535
X4.6516Y-3.0732
X4.6516Y-3.1819
X4.6516Y-3.2906
X4.6516Y-3.5079
X4.8701Y-3.0142
X4.8701Y-3.1142
X6.2598Y-3.5157
X6.2598Y-3.6157
X6.2598Y-3.7157
X6.2598Y-3.8157
X6.8898Y-2.4953
X6.8898Y-2.5953
X6.8898Y-2.6953
X6.8898Y-2.7953
X6.8878Y-3.0906
X6.8878Y-3.1906
X6.8878Y-3.2906
X6.8878Y-3.3906
X4.6516Y-3.3992
T4
X4.5957Y-2.7984
X4.5957Y-3.7827
T0
M30
