G04 #@! TF.GenerationSoftware,KiCad,Pcbnew,(5.1.5-0)*
G04 #@! TF.CreationDate,2021-10-28T15:17:10-06:00*
G04 #@! TF.ProjectId,square_lockin,73717561-7265-45f6-9c6f-636b696e2e6b,rev?*
G04 #@! TF.SameCoordinates,Original*
G04 #@! TF.FileFunction,Paste,Top*
G04 #@! TF.FilePolarity,Positive*
%FSLAX46Y46*%
G04 Gerber Fmt 4.6, Leading zero omitted, Abs format (unit mm)*
G04 Created by KiCad (PCBNEW (5.1.5-0)) date 2021-10-28 15:17:10*
%MOMM*%
%LPD*%
G04 APERTURE LIST*
%ADD10C,0.100000*%
%ADD11C,5.000000*%
%ADD12C,1.575000*%
%ADD13R,1.575000X1.575000*%
%ADD14R,0.800000X1.200000*%
%ADD15R,0.650000X1.060000*%
%ADD16R,0.800000X0.900000*%
%ADD17R,0.900000X0.800000*%
G04 APERTURE END LIST*
D10*
G36*
X134849505Y-82101204D02*
G01*
X134873773Y-82104804D01*
X134897572Y-82110765D01*
X134920671Y-82119030D01*
X134942850Y-82129520D01*
X134963893Y-82142132D01*
X134983599Y-82156747D01*
X135001777Y-82173223D01*
X135018253Y-82191401D01*
X135032868Y-82211107D01*
X135045480Y-82232150D01*
X135055970Y-82254329D01*
X135064235Y-82277428D01*
X135070196Y-82301227D01*
X135073796Y-82325495D01*
X135075000Y-82349999D01*
X135075000Y-83250001D01*
X135073796Y-83274505D01*
X135070196Y-83298773D01*
X135064235Y-83322572D01*
X135055970Y-83345671D01*
X135045480Y-83367850D01*
X135032868Y-83388893D01*
X135018253Y-83408599D01*
X135001777Y-83426777D01*
X134983599Y-83443253D01*
X134963893Y-83457868D01*
X134942850Y-83470480D01*
X134920671Y-83480970D01*
X134897572Y-83489235D01*
X134873773Y-83495196D01*
X134849505Y-83498796D01*
X134825001Y-83500000D01*
X134174999Y-83500000D01*
X134150495Y-83498796D01*
X134126227Y-83495196D01*
X134102428Y-83489235D01*
X134079329Y-83480970D01*
X134057150Y-83470480D01*
X134036107Y-83457868D01*
X134016401Y-83443253D01*
X133998223Y-83426777D01*
X133981747Y-83408599D01*
X133967132Y-83388893D01*
X133954520Y-83367850D01*
X133944030Y-83345671D01*
X133935765Y-83322572D01*
X133929804Y-83298773D01*
X133926204Y-83274505D01*
X133925000Y-83250001D01*
X133925000Y-82349999D01*
X133926204Y-82325495D01*
X133929804Y-82301227D01*
X133935765Y-82277428D01*
X133944030Y-82254329D01*
X133954520Y-82232150D01*
X133967132Y-82211107D01*
X133981747Y-82191401D01*
X133998223Y-82173223D01*
X134016401Y-82156747D01*
X134036107Y-82142132D01*
X134057150Y-82129520D01*
X134079329Y-82119030D01*
X134102428Y-82110765D01*
X134126227Y-82104804D01*
X134150495Y-82101204D01*
X134174999Y-82100000D01*
X134825001Y-82100000D01*
X134849505Y-82101204D01*
G37*
G36*
X136899505Y-82101204D02*
G01*
X136923773Y-82104804D01*
X136947572Y-82110765D01*
X136970671Y-82119030D01*
X136992850Y-82129520D01*
X137013893Y-82142132D01*
X137033599Y-82156747D01*
X137051777Y-82173223D01*
X137068253Y-82191401D01*
X137082868Y-82211107D01*
X137095480Y-82232150D01*
X137105970Y-82254329D01*
X137114235Y-82277428D01*
X137120196Y-82301227D01*
X137123796Y-82325495D01*
X137125000Y-82349999D01*
X137125000Y-83250001D01*
X137123796Y-83274505D01*
X137120196Y-83298773D01*
X137114235Y-83322572D01*
X137105970Y-83345671D01*
X137095480Y-83367850D01*
X137082868Y-83388893D01*
X137068253Y-83408599D01*
X137051777Y-83426777D01*
X137033599Y-83443253D01*
X137013893Y-83457868D01*
X136992850Y-83470480D01*
X136970671Y-83480970D01*
X136947572Y-83489235D01*
X136923773Y-83495196D01*
X136899505Y-83498796D01*
X136875001Y-83500000D01*
X136224999Y-83500000D01*
X136200495Y-83498796D01*
X136176227Y-83495196D01*
X136152428Y-83489235D01*
X136129329Y-83480970D01*
X136107150Y-83470480D01*
X136086107Y-83457868D01*
X136066401Y-83443253D01*
X136048223Y-83426777D01*
X136031747Y-83408599D01*
X136017132Y-83388893D01*
X136004520Y-83367850D01*
X135994030Y-83345671D01*
X135985765Y-83322572D01*
X135979804Y-83298773D01*
X135976204Y-83274505D01*
X135975000Y-83250001D01*
X135975000Y-82349999D01*
X135976204Y-82325495D01*
X135979804Y-82301227D01*
X135985765Y-82277428D01*
X135994030Y-82254329D01*
X136004520Y-82232150D01*
X136017132Y-82211107D01*
X136031747Y-82191401D01*
X136048223Y-82173223D01*
X136066401Y-82156747D01*
X136086107Y-82142132D01*
X136107150Y-82129520D01*
X136129329Y-82119030D01*
X136152428Y-82110765D01*
X136176227Y-82104804D01*
X136200495Y-82101204D01*
X136224999Y-82100000D01*
X136875001Y-82100000D01*
X136899505Y-82101204D01*
G37*
G36*
X129799505Y-82101204D02*
G01*
X129823773Y-82104804D01*
X129847572Y-82110765D01*
X129870671Y-82119030D01*
X129892850Y-82129520D01*
X129913893Y-82142132D01*
X129933599Y-82156747D01*
X129951777Y-82173223D01*
X129968253Y-82191401D01*
X129982868Y-82211107D01*
X129995480Y-82232150D01*
X130005970Y-82254329D01*
X130014235Y-82277428D01*
X130020196Y-82301227D01*
X130023796Y-82325495D01*
X130025000Y-82349999D01*
X130025000Y-83250001D01*
X130023796Y-83274505D01*
X130020196Y-83298773D01*
X130014235Y-83322572D01*
X130005970Y-83345671D01*
X129995480Y-83367850D01*
X129982868Y-83388893D01*
X129968253Y-83408599D01*
X129951777Y-83426777D01*
X129933599Y-83443253D01*
X129913893Y-83457868D01*
X129892850Y-83470480D01*
X129870671Y-83480970D01*
X129847572Y-83489235D01*
X129823773Y-83495196D01*
X129799505Y-83498796D01*
X129775001Y-83500000D01*
X129124999Y-83500000D01*
X129100495Y-83498796D01*
X129076227Y-83495196D01*
X129052428Y-83489235D01*
X129029329Y-83480970D01*
X129007150Y-83470480D01*
X128986107Y-83457868D01*
X128966401Y-83443253D01*
X128948223Y-83426777D01*
X128931747Y-83408599D01*
X128917132Y-83388893D01*
X128904520Y-83367850D01*
X128894030Y-83345671D01*
X128885765Y-83322572D01*
X128879804Y-83298773D01*
X128876204Y-83274505D01*
X128875000Y-83250001D01*
X128875000Y-82349999D01*
X128876204Y-82325495D01*
X128879804Y-82301227D01*
X128885765Y-82277428D01*
X128894030Y-82254329D01*
X128904520Y-82232150D01*
X128917132Y-82211107D01*
X128931747Y-82191401D01*
X128948223Y-82173223D01*
X128966401Y-82156747D01*
X128986107Y-82142132D01*
X129007150Y-82129520D01*
X129029329Y-82119030D01*
X129052428Y-82110765D01*
X129076227Y-82104804D01*
X129100495Y-82101204D01*
X129124999Y-82100000D01*
X129775001Y-82100000D01*
X129799505Y-82101204D01*
G37*
G36*
X131849505Y-82101204D02*
G01*
X131873773Y-82104804D01*
X131897572Y-82110765D01*
X131920671Y-82119030D01*
X131942850Y-82129520D01*
X131963893Y-82142132D01*
X131983599Y-82156747D01*
X132001777Y-82173223D01*
X132018253Y-82191401D01*
X132032868Y-82211107D01*
X132045480Y-82232150D01*
X132055970Y-82254329D01*
X132064235Y-82277428D01*
X132070196Y-82301227D01*
X132073796Y-82325495D01*
X132075000Y-82349999D01*
X132075000Y-83250001D01*
X132073796Y-83274505D01*
X132070196Y-83298773D01*
X132064235Y-83322572D01*
X132055970Y-83345671D01*
X132045480Y-83367850D01*
X132032868Y-83388893D01*
X132018253Y-83408599D01*
X132001777Y-83426777D01*
X131983599Y-83443253D01*
X131963893Y-83457868D01*
X131942850Y-83470480D01*
X131920671Y-83480970D01*
X131897572Y-83489235D01*
X131873773Y-83495196D01*
X131849505Y-83498796D01*
X131825001Y-83500000D01*
X131174999Y-83500000D01*
X131150495Y-83498796D01*
X131126227Y-83495196D01*
X131102428Y-83489235D01*
X131079329Y-83480970D01*
X131057150Y-83470480D01*
X131036107Y-83457868D01*
X131016401Y-83443253D01*
X130998223Y-83426777D01*
X130981747Y-83408599D01*
X130967132Y-83388893D01*
X130954520Y-83367850D01*
X130944030Y-83345671D01*
X130935765Y-83322572D01*
X130929804Y-83298773D01*
X130926204Y-83274505D01*
X130925000Y-83250001D01*
X130925000Y-82349999D01*
X130926204Y-82325495D01*
X130929804Y-82301227D01*
X130935765Y-82277428D01*
X130944030Y-82254329D01*
X130954520Y-82232150D01*
X130967132Y-82211107D01*
X130981747Y-82191401D01*
X130998223Y-82173223D01*
X131016401Y-82156747D01*
X131036107Y-82142132D01*
X131057150Y-82129520D01*
X131079329Y-82119030D01*
X131102428Y-82110765D01*
X131126227Y-82104804D01*
X131150495Y-82101204D01*
X131174999Y-82100000D01*
X131825001Y-82100000D01*
X131849505Y-82101204D01*
G37*
G36*
X131710779Y-84926144D02*
G01*
X131733834Y-84929563D01*
X131756443Y-84935227D01*
X131778387Y-84943079D01*
X131799457Y-84953044D01*
X131819448Y-84965026D01*
X131838168Y-84978910D01*
X131855438Y-84994562D01*
X131871090Y-85011832D01*
X131884974Y-85030552D01*
X131896956Y-85050543D01*
X131906921Y-85071613D01*
X131914773Y-85093557D01*
X131920437Y-85116166D01*
X131923856Y-85139221D01*
X131925000Y-85162500D01*
X131925000Y-85637500D01*
X131923856Y-85660779D01*
X131920437Y-85683834D01*
X131914773Y-85706443D01*
X131906921Y-85728387D01*
X131896956Y-85749457D01*
X131884974Y-85769448D01*
X131871090Y-85788168D01*
X131855438Y-85805438D01*
X131838168Y-85821090D01*
X131819448Y-85834974D01*
X131799457Y-85846956D01*
X131778387Y-85856921D01*
X131756443Y-85864773D01*
X131733834Y-85870437D01*
X131710779Y-85873856D01*
X131687500Y-85875000D01*
X131112500Y-85875000D01*
X131089221Y-85873856D01*
X131066166Y-85870437D01*
X131043557Y-85864773D01*
X131021613Y-85856921D01*
X131000543Y-85846956D01*
X130980552Y-85834974D01*
X130961832Y-85821090D01*
X130944562Y-85805438D01*
X130928910Y-85788168D01*
X130915026Y-85769448D01*
X130903044Y-85749457D01*
X130893079Y-85728387D01*
X130885227Y-85706443D01*
X130879563Y-85683834D01*
X130876144Y-85660779D01*
X130875000Y-85637500D01*
X130875000Y-85162500D01*
X130876144Y-85139221D01*
X130879563Y-85116166D01*
X130885227Y-85093557D01*
X130893079Y-85071613D01*
X130903044Y-85050543D01*
X130915026Y-85030552D01*
X130928910Y-85011832D01*
X130944562Y-84994562D01*
X130961832Y-84978910D01*
X130980552Y-84965026D01*
X131000543Y-84953044D01*
X131021613Y-84943079D01*
X131043557Y-84935227D01*
X131066166Y-84929563D01*
X131089221Y-84926144D01*
X131112500Y-84925000D01*
X131687500Y-84925000D01*
X131710779Y-84926144D01*
G37*
G36*
X129960779Y-84926144D02*
G01*
X129983834Y-84929563D01*
X130006443Y-84935227D01*
X130028387Y-84943079D01*
X130049457Y-84953044D01*
X130069448Y-84965026D01*
X130088168Y-84978910D01*
X130105438Y-84994562D01*
X130121090Y-85011832D01*
X130134974Y-85030552D01*
X130146956Y-85050543D01*
X130156921Y-85071613D01*
X130164773Y-85093557D01*
X130170437Y-85116166D01*
X130173856Y-85139221D01*
X130175000Y-85162500D01*
X130175000Y-85637500D01*
X130173856Y-85660779D01*
X130170437Y-85683834D01*
X130164773Y-85706443D01*
X130156921Y-85728387D01*
X130146956Y-85749457D01*
X130134974Y-85769448D01*
X130121090Y-85788168D01*
X130105438Y-85805438D01*
X130088168Y-85821090D01*
X130069448Y-85834974D01*
X130049457Y-85846956D01*
X130028387Y-85856921D01*
X130006443Y-85864773D01*
X129983834Y-85870437D01*
X129960779Y-85873856D01*
X129937500Y-85875000D01*
X129362500Y-85875000D01*
X129339221Y-85873856D01*
X129316166Y-85870437D01*
X129293557Y-85864773D01*
X129271613Y-85856921D01*
X129250543Y-85846956D01*
X129230552Y-85834974D01*
X129211832Y-85821090D01*
X129194562Y-85805438D01*
X129178910Y-85788168D01*
X129165026Y-85769448D01*
X129153044Y-85749457D01*
X129143079Y-85728387D01*
X129135227Y-85706443D01*
X129129563Y-85683834D01*
X129126144Y-85660779D01*
X129125000Y-85637500D01*
X129125000Y-85162500D01*
X129126144Y-85139221D01*
X129129563Y-85116166D01*
X129135227Y-85093557D01*
X129143079Y-85071613D01*
X129153044Y-85050543D01*
X129165026Y-85030552D01*
X129178910Y-85011832D01*
X129194562Y-84994562D01*
X129211832Y-84978910D01*
X129230552Y-84965026D01*
X129250543Y-84953044D01*
X129271613Y-84943079D01*
X129293557Y-84935227D01*
X129316166Y-84929563D01*
X129339221Y-84926144D01*
X129362500Y-84925000D01*
X129937500Y-84925000D01*
X129960779Y-84926144D01*
G37*
D11*
X116730000Y-96080000D03*
D12*
X115310000Y-79440000D03*
X115310000Y-82200000D03*
X115310000Y-84960000D03*
X115310000Y-87720000D03*
X118150000Y-78060000D03*
X118150000Y-80820000D03*
X118150000Y-86340000D03*
D13*
X118150000Y-89100000D03*
D11*
X116730000Y-71080000D03*
D12*
X118150000Y-83580000D03*
D14*
X140830000Y-73300000D03*
X140830000Y-67300000D03*
X143370000Y-67300000D03*
X143370000Y-73300000D03*
D10*
G36*
X145010779Y-91151144D02*
G01*
X145033834Y-91154563D01*
X145056443Y-91160227D01*
X145078387Y-91168079D01*
X145099457Y-91178044D01*
X145119448Y-91190026D01*
X145138168Y-91203910D01*
X145155438Y-91219562D01*
X145171090Y-91236832D01*
X145184974Y-91255552D01*
X145196956Y-91275543D01*
X145206921Y-91296613D01*
X145214773Y-91318557D01*
X145220437Y-91341166D01*
X145223856Y-91364221D01*
X145225000Y-91387500D01*
X145225000Y-91962500D01*
X145223856Y-91985779D01*
X145220437Y-92008834D01*
X145214773Y-92031443D01*
X145206921Y-92053387D01*
X145196956Y-92074457D01*
X145184974Y-92094448D01*
X145171090Y-92113168D01*
X145155438Y-92130438D01*
X145138168Y-92146090D01*
X145119448Y-92159974D01*
X145099457Y-92171956D01*
X145078387Y-92181921D01*
X145056443Y-92189773D01*
X145033834Y-92195437D01*
X145010779Y-92198856D01*
X144987500Y-92200000D01*
X144512500Y-92200000D01*
X144489221Y-92198856D01*
X144466166Y-92195437D01*
X144443557Y-92189773D01*
X144421613Y-92181921D01*
X144400543Y-92171956D01*
X144380552Y-92159974D01*
X144361832Y-92146090D01*
X144344562Y-92130438D01*
X144328910Y-92113168D01*
X144315026Y-92094448D01*
X144303044Y-92074457D01*
X144293079Y-92053387D01*
X144285227Y-92031443D01*
X144279563Y-92008834D01*
X144276144Y-91985779D01*
X144275000Y-91962500D01*
X144275000Y-91387500D01*
X144276144Y-91364221D01*
X144279563Y-91341166D01*
X144285227Y-91318557D01*
X144293079Y-91296613D01*
X144303044Y-91275543D01*
X144315026Y-91255552D01*
X144328910Y-91236832D01*
X144344562Y-91219562D01*
X144361832Y-91203910D01*
X144380552Y-91190026D01*
X144400543Y-91178044D01*
X144421613Y-91168079D01*
X144443557Y-91160227D01*
X144466166Y-91154563D01*
X144489221Y-91151144D01*
X144512500Y-91150000D01*
X144987500Y-91150000D01*
X145010779Y-91151144D01*
G37*
G36*
X145010779Y-89401144D02*
G01*
X145033834Y-89404563D01*
X145056443Y-89410227D01*
X145078387Y-89418079D01*
X145099457Y-89428044D01*
X145119448Y-89440026D01*
X145138168Y-89453910D01*
X145155438Y-89469562D01*
X145171090Y-89486832D01*
X145184974Y-89505552D01*
X145196956Y-89525543D01*
X145206921Y-89546613D01*
X145214773Y-89568557D01*
X145220437Y-89591166D01*
X145223856Y-89614221D01*
X145225000Y-89637500D01*
X145225000Y-90212500D01*
X145223856Y-90235779D01*
X145220437Y-90258834D01*
X145214773Y-90281443D01*
X145206921Y-90303387D01*
X145196956Y-90324457D01*
X145184974Y-90344448D01*
X145171090Y-90363168D01*
X145155438Y-90380438D01*
X145138168Y-90396090D01*
X145119448Y-90409974D01*
X145099457Y-90421956D01*
X145078387Y-90431921D01*
X145056443Y-90439773D01*
X145033834Y-90445437D01*
X145010779Y-90448856D01*
X144987500Y-90450000D01*
X144512500Y-90450000D01*
X144489221Y-90448856D01*
X144466166Y-90445437D01*
X144443557Y-90439773D01*
X144421613Y-90431921D01*
X144400543Y-90421956D01*
X144380552Y-90409974D01*
X144361832Y-90396090D01*
X144344562Y-90380438D01*
X144328910Y-90363168D01*
X144315026Y-90344448D01*
X144303044Y-90324457D01*
X144293079Y-90303387D01*
X144285227Y-90281443D01*
X144279563Y-90258834D01*
X144276144Y-90235779D01*
X144275000Y-90212500D01*
X144275000Y-89637500D01*
X144276144Y-89614221D01*
X144279563Y-89591166D01*
X144285227Y-89568557D01*
X144293079Y-89546613D01*
X144303044Y-89525543D01*
X144315026Y-89505552D01*
X144328910Y-89486832D01*
X144344562Y-89469562D01*
X144361832Y-89453910D01*
X144380552Y-89440026D01*
X144400543Y-89428044D01*
X144421613Y-89418079D01*
X144443557Y-89410227D01*
X144466166Y-89404563D01*
X144489221Y-89401144D01*
X144512500Y-89400000D01*
X144987500Y-89400000D01*
X145010779Y-89401144D01*
G37*
G36*
X139239703Y-90170722D02*
G01*
X139254264Y-90172882D01*
X139268543Y-90176459D01*
X139282403Y-90181418D01*
X139295710Y-90187712D01*
X139308336Y-90195280D01*
X139320159Y-90204048D01*
X139331066Y-90213934D01*
X139340952Y-90224841D01*
X139349720Y-90236664D01*
X139357288Y-90249290D01*
X139363582Y-90262597D01*
X139368541Y-90276457D01*
X139372118Y-90290736D01*
X139374278Y-90305297D01*
X139375000Y-90320000D01*
X139375000Y-90620000D01*
X139374278Y-90634703D01*
X139372118Y-90649264D01*
X139368541Y-90663543D01*
X139363582Y-90677403D01*
X139357288Y-90690710D01*
X139349720Y-90703336D01*
X139340952Y-90715159D01*
X139331066Y-90726066D01*
X139320159Y-90735952D01*
X139308336Y-90744720D01*
X139295710Y-90752288D01*
X139282403Y-90758582D01*
X139268543Y-90763541D01*
X139254264Y-90767118D01*
X139239703Y-90769278D01*
X139225000Y-90770000D01*
X137875000Y-90770000D01*
X137860297Y-90769278D01*
X137845736Y-90767118D01*
X137831457Y-90763541D01*
X137817597Y-90758582D01*
X137804290Y-90752288D01*
X137791664Y-90744720D01*
X137779841Y-90735952D01*
X137768934Y-90726066D01*
X137759048Y-90715159D01*
X137750280Y-90703336D01*
X137742712Y-90690710D01*
X137736418Y-90677403D01*
X137731459Y-90663543D01*
X137727882Y-90649264D01*
X137725722Y-90634703D01*
X137725000Y-90620000D01*
X137725000Y-90320000D01*
X137725722Y-90305297D01*
X137727882Y-90290736D01*
X137731459Y-90276457D01*
X137736418Y-90262597D01*
X137742712Y-90249290D01*
X137750280Y-90236664D01*
X137759048Y-90224841D01*
X137768934Y-90213934D01*
X137779841Y-90204048D01*
X137791664Y-90195280D01*
X137804290Y-90187712D01*
X137817597Y-90181418D01*
X137831457Y-90176459D01*
X137845736Y-90172882D01*
X137860297Y-90170722D01*
X137875000Y-90170000D01*
X139225000Y-90170000D01*
X139239703Y-90170722D01*
G37*
G36*
X139239703Y-91440722D02*
G01*
X139254264Y-91442882D01*
X139268543Y-91446459D01*
X139282403Y-91451418D01*
X139295710Y-91457712D01*
X139308336Y-91465280D01*
X139320159Y-91474048D01*
X139331066Y-91483934D01*
X139340952Y-91494841D01*
X139349720Y-91506664D01*
X139357288Y-91519290D01*
X139363582Y-91532597D01*
X139368541Y-91546457D01*
X139372118Y-91560736D01*
X139374278Y-91575297D01*
X139375000Y-91590000D01*
X139375000Y-91890000D01*
X139374278Y-91904703D01*
X139372118Y-91919264D01*
X139368541Y-91933543D01*
X139363582Y-91947403D01*
X139357288Y-91960710D01*
X139349720Y-91973336D01*
X139340952Y-91985159D01*
X139331066Y-91996066D01*
X139320159Y-92005952D01*
X139308336Y-92014720D01*
X139295710Y-92022288D01*
X139282403Y-92028582D01*
X139268543Y-92033541D01*
X139254264Y-92037118D01*
X139239703Y-92039278D01*
X139225000Y-92040000D01*
X137875000Y-92040000D01*
X137860297Y-92039278D01*
X137845736Y-92037118D01*
X137831457Y-92033541D01*
X137817597Y-92028582D01*
X137804290Y-92022288D01*
X137791664Y-92014720D01*
X137779841Y-92005952D01*
X137768934Y-91996066D01*
X137759048Y-91985159D01*
X137750280Y-91973336D01*
X137742712Y-91960710D01*
X137736418Y-91947403D01*
X137731459Y-91933543D01*
X137727882Y-91919264D01*
X137725722Y-91904703D01*
X137725000Y-91890000D01*
X137725000Y-91590000D01*
X137725722Y-91575297D01*
X137727882Y-91560736D01*
X137731459Y-91546457D01*
X137736418Y-91532597D01*
X137742712Y-91519290D01*
X137750280Y-91506664D01*
X137759048Y-91494841D01*
X137768934Y-91483934D01*
X137779841Y-91474048D01*
X137791664Y-91465280D01*
X137804290Y-91457712D01*
X137817597Y-91451418D01*
X137831457Y-91446459D01*
X137845736Y-91442882D01*
X137860297Y-91440722D01*
X137875000Y-91440000D01*
X139225000Y-91440000D01*
X139239703Y-91440722D01*
G37*
G36*
X139239703Y-92710722D02*
G01*
X139254264Y-92712882D01*
X139268543Y-92716459D01*
X139282403Y-92721418D01*
X139295710Y-92727712D01*
X139308336Y-92735280D01*
X139320159Y-92744048D01*
X139331066Y-92753934D01*
X139340952Y-92764841D01*
X139349720Y-92776664D01*
X139357288Y-92789290D01*
X139363582Y-92802597D01*
X139368541Y-92816457D01*
X139372118Y-92830736D01*
X139374278Y-92845297D01*
X139375000Y-92860000D01*
X139375000Y-93160000D01*
X139374278Y-93174703D01*
X139372118Y-93189264D01*
X139368541Y-93203543D01*
X139363582Y-93217403D01*
X139357288Y-93230710D01*
X139349720Y-93243336D01*
X139340952Y-93255159D01*
X139331066Y-93266066D01*
X139320159Y-93275952D01*
X139308336Y-93284720D01*
X139295710Y-93292288D01*
X139282403Y-93298582D01*
X139268543Y-93303541D01*
X139254264Y-93307118D01*
X139239703Y-93309278D01*
X139225000Y-93310000D01*
X137875000Y-93310000D01*
X137860297Y-93309278D01*
X137845736Y-93307118D01*
X137831457Y-93303541D01*
X137817597Y-93298582D01*
X137804290Y-93292288D01*
X137791664Y-93284720D01*
X137779841Y-93275952D01*
X137768934Y-93266066D01*
X137759048Y-93255159D01*
X137750280Y-93243336D01*
X137742712Y-93230710D01*
X137736418Y-93217403D01*
X137731459Y-93203543D01*
X137727882Y-93189264D01*
X137725722Y-93174703D01*
X137725000Y-93160000D01*
X137725000Y-92860000D01*
X137725722Y-92845297D01*
X137727882Y-92830736D01*
X137731459Y-92816457D01*
X137736418Y-92802597D01*
X137742712Y-92789290D01*
X137750280Y-92776664D01*
X137759048Y-92764841D01*
X137768934Y-92753934D01*
X137779841Y-92744048D01*
X137791664Y-92735280D01*
X137804290Y-92727712D01*
X137817597Y-92721418D01*
X137831457Y-92716459D01*
X137845736Y-92712882D01*
X137860297Y-92710722D01*
X137875000Y-92710000D01*
X139225000Y-92710000D01*
X139239703Y-92710722D01*
G37*
G36*
X139239703Y-93980722D02*
G01*
X139254264Y-93982882D01*
X139268543Y-93986459D01*
X139282403Y-93991418D01*
X139295710Y-93997712D01*
X139308336Y-94005280D01*
X139320159Y-94014048D01*
X139331066Y-94023934D01*
X139340952Y-94034841D01*
X139349720Y-94046664D01*
X139357288Y-94059290D01*
X139363582Y-94072597D01*
X139368541Y-94086457D01*
X139372118Y-94100736D01*
X139374278Y-94115297D01*
X139375000Y-94130000D01*
X139375000Y-94430000D01*
X139374278Y-94444703D01*
X139372118Y-94459264D01*
X139368541Y-94473543D01*
X139363582Y-94487403D01*
X139357288Y-94500710D01*
X139349720Y-94513336D01*
X139340952Y-94525159D01*
X139331066Y-94536066D01*
X139320159Y-94545952D01*
X139308336Y-94554720D01*
X139295710Y-94562288D01*
X139282403Y-94568582D01*
X139268543Y-94573541D01*
X139254264Y-94577118D01*
X139239703Y-94579278D01*
X139225000Y-94580000D01*
X137875000Y-94580000D01*
X137860297Y-94579278D01*
X137845736Y-94577118D01*
X137831457Y-94573541D01*
X137817597Y-94568582D01*
X137804290Y-94562288D01*
X137791664Y-94554720D01*
X137779841Y-94545952D01*
X137768934Y-94536066D01*
X137759048Y-94525159D01*
X137750280Y-94513336D01*
X137742712Y-94500710D01*
X137736418Y-94487403D01*
X137731459Y-94473543D01*
X137727882Y-94459264D01*
X137725722Y-94444703D01*
X137725000Y-94430000D01*
X137725000Y-94130000D01*
X137725722Y-94115297D01*
X137727882Y-94100736D01*
X137731459Y-94086457D01*
X137736418Y-94072597D01*
X137742712Y-94059290D01*
X137750280Y-94046664D01*
X137759048Y-94034841D01*
X137768934Y-94023934D01*
X137779841Y-94014048D01*
X137791664Y-94005280D01*
X137804290Y-93997712D01*
X137817597Y-93991418D01*
X137831457Y-93986459D01*
X137845736Y-93982882D01*
X137860297Y-93980722D01*
X137875000Y-93980000D01*
X139225000Y-93980000D01*
X139239703Y-93980722D01*
G37*
G36*
X133989703Y-93980722D02*
G01*
X134004264Y-93982882D01*
X134018543Y-93986459D01*
X134032403Y-93991418D01*
X134045710Y-93997712D01*
X134058336Y-94005280D01*
X134070159Y-94014048D01*
X134081066Y-94023934D01*
X134090952Y-94034841D01*
X134099720Y-94046664D01*
X134107288Y-94059290D01*
X134113582Y-94072597D01*
X134118541Y-94086457D01*
X134122118Y-94100736D01*
X134124278Y-94115297D01*
X134125000Y-94130000D01*
X134125000Y-94430000D01*
X134124278Y-94444703D01*
X134122118Y-94459264D01*
X134118541Y-94473543D01*
X134113582Y-94487403D01*
X134107288Y-94500710D01*
X134099720Y-94513336D01*
X134090952Y-94525159D01*
X134081066Y-94536066D01*
X134070159Y-94545952D01*
X134058336Y-94554720D01*
X134045710Y-94562288D01*
X134032403Y-94568582D01*
X134018543Y-94573541D01*
X134004264Y-94577118D01*
X133989703Y-94579278D01*
X133975000Y-94580000D01*
X132625000Y-94580000D01*
X132610297Y-94579278D01*
X132595736Y-94577118D01*
X132581457Y-94573541D01*
X132567597Y-94568582D01*
X132554290Y-94562288D01*
X132541664Y-94554720D01*
X132529841Y-94545952D01*
X132518934Y-94536066D01*
X132509048Y-94525159D01*
X132500280Y-94513336D01*
X132492712Y-94500710D01*
X132486418Y-94487403D01*
X132481459Y-94473543D01*
X132477882Y-94459264D01*
X132475722Y-94444703D01*
X132475000Y-94430000D01*
X132475000Y-94130000D01*
X132475722Y-94115297D01*
X132477882Y-94100736D01*
X132481459Y-94086457D01*
X132486418Y-94072597D01*
X132492712Y-94059290D01*
X132500280Y-94046664D01*
X132509048Y-94034841D01*
X132518934Y-94023934D01*
X132529841Y-94014048D01*
X132541664Y-94005280D01*
X132554290Y-93997712D01*
X132567597Y-93991418D01*
X132581457Y-93986459D01*
X132595736Y-93982882D01*
X132610297Y-93980722D01*
X132625000Y-93980000D01*
X133975000Y-93980000D01*
X133989703Y-93980722D01*
G37*
G36*
X133989703Y-92710722D02*
G01*
X134004264Y-92712882D01*
X134018543Y-92716459D01*
X134032403Y-92721418D01*
X134045710Y-92727712D01*
X134058336Y-92735280D01*
X134070159Y-92744048D01*
X134081066Y-92753934D01*
X134090952Y-92764841D01*
X134099720Y-92776664D01*
X134107288Y-92789290D01*
X134113582Y-92802597D01*
X134118541Y-92816457D01*
X134122118Y-92830736D01*
X134124278Y-92845297D01*
X134125000Y-92860000D01*
X134125000Y-93160000D01*
X134124278Y-93174703D01*
X134122118Y-93189264D01*
X134118541Y-93203543D01*
X134113582Y-93217403D01*
X134107288Y-93230710D01*
X134099720Y-93243336D01*
X134090952Y-93255159D01*
X134081066Y-93266066D01*
X134070159Y-93275952D01*
X134058336Y-93284720D01*
X134045710Y-93292288D01*
X134032403Y-93298582D01*
X134018543Y-93303541D01*
X134004264Y-93307118D01*
X133989703Y-93309278D01*
X133975000Y-93310000D01*
X132625000Y-93310000D01*
X132610297Y-93309278D01*
X132595736Y-93307118D01*
X132581457Y-93303541D01*
X132567597Y-93298582D01*
X132554290Y-93292288D01*
X132541664Y-93284720D01*
X132529841Y-93275952D01*
X132518934Y-93266066D01*
X132509048Y-93255159D01*
X132500280Y-93243336D01*
X132492712Y-93230710D01*
X132486418Y-93217403D01*
X132481459Y-93203543D01*
X132477882Y-93189264D01*
X132475722Y-93174703D01*
X132475000Y-93160000D01*
X132475000Y-92860000D01*
X132475722Y-92845297D01*
X132477882Y-92830736D01*
X132481459Y-92816457D01*
X132486418Y-92802597D01*
X132492712Y-92789290D01*
X132500280Y-92776664D01*
X132509048Y-92764841D01*
X132518934Y-92753934D01*
X132529841Y-92744048D01*
X132541664Y-92735280D01*
X132554290Y-92727712D01*
X132567597Y-92721418D01*
X132581457Y-92716459D01*
X132595736Y-92712882D01*
X132610297Y-92710722D01*
X132625000Y-92710000D01*
X133975000Y-92710000D01*
X133989703Y-92710722D01*
G37*
G36*
X133989703Y-91440722D02*
G01*
X134004264Y-91442882D01*
X134018543Y-91446459D01*
X134032403Y-91451418D01*
X134045710Y-91457712D01*
X134058336Y-91465280D01*
X134070159Y-91474048D01*
X134081066Y-91483934D01*
X134090952Y-91494841D01*
X134099720Y-91506664D01*
X134107288Y-91519290D01*
X134113582Y-91532597D01*
X134118541Y-91546457D01*
X134122118Y-91560736D01*
X134124278Y-91575297D01*
X134125000Y-91590000D01*
X134125000Y-91890000D01*
X134124278Y-91904703D01*
X134122118Y-91919264D01*
X134118541Y-91933543D01*
X134113582Y-91947403D01*
X134107288Y-91960710D01*
X134099720Y-91973336D01*
X134090952Y-91985159D01*
X134081066Y-91996066D01*
X134070159Y-92005952D01*
X134058336Y-92014720D01*
X134045710Y-92022288D01*
X134032403Y-92028582D01*
X134018543Y-92033541D01*
X134004264Y-92037118D01*
X133989703Y-92039278D01*
X133975000Y-92040000D01*
X132625000Y-92040000D01*
X132610297Y-92039278D01*
X132595736Y-92037118D01*
X132581457Y-92033541D01*
X132567597Y-92028582D01*
X132554290Y-92022288D01*
X132541664Y-92014720D01*
X132529841Y-92005952D01*
X132518934Y-91996066D01*
X132509048Y-91985159D01*
X132500280Y-91973336D01*
X132492712Y-91960710D01*
X132486418Y-91947403D01*
X132481459Y-91933543D01*
X132477882Y-91919264D01*
X132475722Y-91904703D01*
X132475000Y-91890000D01*
X132475000Y-91590000D01*
X132475722Y-91575297D01*
X132477882Y-91560736D01*
X132481459Y-91546457D01*
X132486418Y-91532597D01*
X132492712Y-91519290D01*
X132500280Y-91506664D01*
X132509048Y-91494841D01*
X132518934Y-91483934D01*
X132529841Y-91474048D01*
X132541664Y-91465280D01*
X132554290Y-91457712D01*
X132567597Y-91451418D01*
X132581457Y-91446459D01*
X132595736Y-91442882D01*
X132610297Y-91440722D01*
X132625000Y-91440000D01*
X133975000Y-91440000D01*
X133989703Y-91440722D01*
G37*
G36*
X133989703Y-90170722D02*
G01*
X134004264Y-90172882D01*
X134018543Y-90176459D01*
X134032403Y-90181418D01*
X134045710Y-90187712D01*
X134058336Y-90195280D01*
X134070159Y-90204048D01*
X134081066Y-90213934D01*
X134090952Y-90224841D01*
X134099720Y-90236664D01*
X134107288Y-90249290D01*
X134113582Y-90262597D01*
X134118541Y-90276457D01*
X134122118Y-90290736D01*
X134124278Y-90305297D01*
X134125000Y-90320000D01*
X134125000Y-90620000D01*
X134124278Y-90634703D01*
X134122118Y-90649264D01*
X134118541Y-90663543D01*
X134113582Y-90677403D01*
X134107288Y-90690710D01*
X134099720Y-90703336D01*
X134090952Y-90715159D01*
X134081066Y-90726066D01*
X134070159Y-90735952D01*
X134058336Y-90744720D01*
X134045710Y-90752288D01*
X134032403Y-90758582D01*
X134018543Y-90763541D01*
X134004264Y-90767118D01*
X133989703Y-90769278D01*
X133975000Y-90770000D01*
X132625000Y-90770000D01*
X132610297Y-90769278D01*
X132595736Y-90767118D01*
X132581457Y-90763541D01*
X132567597Y-90758582D01*
X132554290Y-90752288D01*
X132541664Y-90744720D01*
X132529841Y-90735952D01*
X132518934Y-90726066D01*
X132509048Y-90715159D01*
X132500280Y-90703336D01*
X132492712Y-90690710D01*
X132486418Y-90677403D01*
X132481459Y-90663543D01*
X132477882Y-90649264D01*
X132475722Y-90634703D01*
X132475000Y-90620000D01*
X132475000Y-90320000D01*
X132475722Y-90305297D01*
X132477882Y-90290736D01*
X132481459Y-90276457D01*
X132486418Y-90262597D01*
X132492712Y-90249290D01*
X132500280Y-90236664D01*
X132509048Y-90224841D01*
X132518934Y-90213934D01*
X132529841Y-90204048D01*
X132541664Y-90195280D01*
X132554290Y-90187712D01*
X132567597Y-90181418D01*
X132581457Y-90176459D01*
X132595736Y-90172882D01*
X132610297Y-90170722D01*
X132625000Y-90170000D01*
X133975000Y-90170000D01*
X133989703Y-90170722D01*
G37*
G36*
X160960779Y-77951144D02*
G01*
X160983834Y-77954563D01*
X161006443Y-77960227D01*
X161028387Y-77968079D01*
X161049457Y-77978044D01*
X161069448Y-77990026D01*
X161088168Y-78003910D01*
X161105438Y-78019562D01*
X161121090Y-78036832D01*
X161134974Y-78055552D01*
X161146956Y-78075543D01*
X161156921Y-78096613D01*
X161164773Y-78118557D01*
X161170437Y-78141166D01*
X161173856Y-78164221D01*
X161175000Y-78187500D01*
X161175000Y-78762500D01*
X161173856Y-78785779D01*
X161170437Y-78808834D01*
X161164773Y-78831443D01*
X161156921Y-78853387D01*
X161146956Y-78874457D01*
X161134974Y-78894448D01*
X161121090Y-78913168D01*
X161105438Y-78930438D01*
X161088168Y-78946090D01*
X161069448Y-78959974D01*
X161049457Y-78971956D01*
X161028387Y-78981921D01*
X161006443Y-78989773D01*
X160983834Y-78995437D01*
X160960779Y-78998856D01*
X160937500Y-79000000D01*
X160462500Y-79000000D01*
X160439221Y-78998856D01*
X160416166Y-78995437D01*
X160393557Y-78989773D01*
X160371613Y-78981921D01*
X160350543Y-78971956D01*
X160330552Y-78959974D01*
X160311832Y-78946090D01*
X160294562Y-78930438D01*
X160278910Y-78913168D01*
X160265026Y-78894448D01*
X160253044Y-78874457D01*
X160243079Y-78853387D01*
X160235227Y-78831443D01*
X160229563Y-78808834D01*
X160226144Y-78785779D01*
X160225000Y-78762500D01*
X160225000Y-78187500D01*
X160226144Y-78164221D01*
X160229563Y-78141166D01*
X160235227Y-78118557D01*
X160243079Y-78096613D01*
X160253044Y-78075543D01*
X160265026Y-78055552D01*
X160278910Y-78036832D01*
X160294562Y-78019562D01*
X160311832Y-78003910D01*
X160330552Y-77990026D01*
X160350543Y-77978044D01*
X160371613Y-77968079D01*
X160393557Y-77960227D01*
X160416166Y-77954563D01*
X160439221Y-77951144D01*
X160462500Y-77950000D01*
X160937500Y-77950000D01*
X160960779Y-77951144D01*
G37*
G36*
X160960779Y-76201144D02*
G01*
X160983834Y-76204563D01*
X161006443Y-76210227D01*
X161028387Y-76218079D01*
X161049457Y-76228044D01*
X161069448Y-76240026D01*
X161088168Y-76253910D01*
X161105438Y-76269562D01*
X161121090Y-76286832D01*
X161134974Y-76305552D01*
X161146956Y-76325543D01*
X161156921Y-76346613D01*
X161164773Y-76368557D01*
X161170437Y-76391166D01*
X161173856Y-76414221D01*
X161175000Y-76437500D01*
X161175000Y-77012500D01*
X161173856Y-77035779D01*
X161170437Y-77058834D01*
X161164773Y-77081443D01*
X161156921Y-77103387D01*
X161146956Y-77124457D01*
X161134974Y-77144448D01*
X161121090Y-77163168D01*
X161105438Y-77180438D01*
X161088168Y-77196090D01*
X161069448Y-77209974D01*
X161049457Y-77221956D01*
X161028387Y-77231921D01*
X161006443Y-77239773D01*
X160983834Y-77245437D01*
X160960779Y-77248856D01*
X160937500Y-77250000D01*
X160462500Y-77250000D01*
X160439221Y-77248856D01*
X160416166Y-77245437D01*
X160393557Y-77239773D01*
X160371613Y-77231921D01*
X160350543Y-77221956D01*
X160330552Y-77209974D01*
X160311832Y-77196090D01*
X160294562Y-77180438D01*
X160278910Y-77163168D01*
X160265026Y-77144448D01*
X160253044Y-77124457D01*
X160243079Y-77103387D01*
X160235227Y-77081443D01*
X160229563Y-77058834D01*
X160226144Y-77035779D01*
X160225000Y-77012500D01*
X160225000Y-76437500D01*
X160226144Y-76414221D01*
X160229563Y-76391166D01*
X160235227Y-76368557D01*
X160243079Y-76346613D01*
X160253044Y-76325543D01*
X160265026Y-76305552D01*
X160278910Y-76286832D01*
X160294562Y-76269562D01*
X160311832Y-76253910D01*
X160330552Y-76240026D01*
X160350543Y-76228044D01*
X160371613Y-76218079D01*
X160393557Y-76210227D01*
X160416166Y-76204563D01*
X160439221Y-76201144D01*
X160462500Y-76200000D01*
X160937500Y-76200000D01*
X160960779Y-76201144D01*
G37*
G36*
X152839703Y-91370722D02*
G01*
X152854264Y-91372882D01*
X152868543Y-91376459D01*
X152882403Y-91381418D01*
X152895710Y-91387712D01*
X152908336Y-91395280D01*
X152920159Y-91404048D01*
X152931066Y-91413934D01*
X152940952Y-91424841D01*
X152949720Y-91436664D01*
X152957288Y-91449290D01*
X152963582Y-91462597D01*
X152968541Y-91476457D01*
X152972118Y-91490736D01*
X152974278Y-91505297D01*
X152975000Y-91520000D01*
X152975000Y-91820000D01*
X152974278Y-91834703D01*
X152972118Y-91849264D01*
X152968541Y-91863543D01*
X152963582Y-91877403D01*
X152957288Y-91890710D01*
X152949720Y-91903336D01*
X152940952Y-91915159D01*
X152931066Y-91926066D01*
X152920159Y-91935952D01*
X152908336Y-91944720D01*
X152895710Y-91952288D01*
X152882403Y-91958582D01*
X152868543Y-91963541D01*
X152854264Y-91967118D01*
X152839703Y-91969278D01*
X152825000Y-91970000D01*
X151175000Y-91970000D01*
X151160297Y-91969278D01*
X151145736Y-91967118D01*
X151131457Y-91963541D01*
X151117597Y-91958582D01*
X151104290Y-91952288D01*
X151091664Y-91944720D01*
X151079841Y-91935952D01*
X151068934Y-91926066D01*
X151059048Y-91915159D01*
X151050280Y-91903336D01*
X151042712Y-91890710D01*
X151036418Y-91877403D01*
X151031459Y-91863543D01*
X151027882Y-91849264D01*
X151025722Y-91834703D01*
X151025000Y-91820000D01*
X151025000Y-91520000D01*
X151025722Y-91505297D01*
X151027882Y-91490736D01*
X151031459Y-91476457D01*
X151036418Y-91462597D01*
X151042712Y-91449290D01*
X151050280Y-91436664D01*
X151059048Y-91424841D01*
X151068934Y-91413934D01*
X151079841Y-91404048D01*
X151091664Y-91395280D01*
X151104290Y-91387712D01*
X151117597Y-91381418D01*
X151131457Y-91376459D01*
X151145736Y-91372882D01*
X151160297Y-91370722D01*
X151175000Y-91370000D01*
X152825000Y-91370000D01*
X152839703Y-91370722D01*
G37*
G36*
X152839703Y-92640722D02*
G01*
X152854264Y-92642882D01*
X152868543Y-92646459D01*
X152882403Y-92651418D01*
X152895710Y-92657712D01*
X152908336Y-92665280D01*
X152920159Y-92674048D01*
X152931066Y-92683934D01*
X152940952Y-92694841D01*
X152949720Y-92706664D01*
X152957288Y-92719290D01*
X152963582Y-92732597D01*
X152968541Y-92746457D01*
X152972118Y-92760736D01*
X152974278Y-92775297D01*
X152975000Y-92790000D01*
X152975000Y-93090000D01*
X152974278Y-93104703D01*
X152972118Y-93119264D01*
X152968541Y-93133543D01*
X152963582Y-93147403D01*
X152957288Y-93160710D01*
X152949720Y-93173336D01*
X152940952Y-93185159D01*
X152931066Y-93196066D01*
X152920159Y-93205952D01*
X152908336Y-93214720D01*
X152895710Y-93222288D01*
X152882403Y-93228582D01*
X152868543Y-93233541D01*
X152854264Y-93237118D01*
X152839703Y-93239278D01*
X152825000Y-93240000D01*
X151175000Y-93240000D01*
X151160297Y-93239278D01*
X151145736Y-93237118D01*
X151131457Y-93233541D01*
X151117597Y-93228582D01*
X151104290Y-93222288D01*
X151091664Y-93214720D01*
X151079841Y-93205952D01*
X151068934Y-93196066D01*
X151059048Y-93185159D01*
X151050280Y-93173336D01*
X151042712Y-93160710D01*
X151036418Y-93147403D01*
X151031459Y-93133543D01*
X151027882Y-93119264D01*
X151025722Y-93104703D01*
X151025000Y-93090000D01*
X151025000Y-92790000D01*
X151025722Y-92775297D01*
X151027882Y-92760736D01*
X151031459Y-92746457D01*
X151036418Y-92732597D01*
X151042712Y-92719290D01*
X151050280Y-92706664D01*
X151059048Y-92694841D01*
X151068934Y-92683934D01*
X151079841Y-92674048D01*
X151091664Y-92665280D01*
X151104290Y-92657712D01*
X151117597Y-92651418D01*
X151131457Y-92646459D01*
X151145736Y-92642882D01*
X151160297Y-92640722D01*
X151175000Y-92640000D01*
X152825000Y-92640000D01*
X152839703Y-92640722D01*
G37*
G36*
X152839703Y-93910722D02*
G01*
X152854264Y-93912882D01*
X152868543Y-93916459D01*
X152882403Y-93921418D01*
X152895710Y-93927712D01*
X152908336Y-93935280D01*
X152920159Y-93944048D01*
X152931066Y-93953934D01*
X152940952Y-93964841D01*
X152949720Y-93976664D01*
X152957288Y-93989290D01*
X152963582Y-94002597D01*
X152968541Y-94016457D01*
X152972118Y-94030736D01*
X152974278Y-94045297D01*
X152975000Y-94060000D01*
X152975000Y-94360000D01*
X152974278Y-94374703D01*
X152972118Y-94389264D01*
X152968541Y-94403543D01*
X152963582Y-94417403D01*
X152957288Y-94430710D01*
X152949720Y-94443336D01*
X152940952Y-94455159D01*
X152931066Y-94466066D01*
X152920159Y-94475952D01*
X152908336Y-94484720D01*
X152895710Y-94492288D01*
X152882403Y-94498582D01*
X152868543Y-94503541D01*
X152854264Y-94507118D01*
X152839703Y-94509278D01*
X152825000Y-94510000D01*
X151175000Y-94510000D01*
X151160297Y-94509278D01*
X151145736Y-94507118D01*
X151131457Y-94503541D01*
X151117597Y-94498582D01*
X151104290Y-94492288D01*
X151091664Y-94484720D01*
X151079841Y-94475952D01*
X151068934Y-94466066D01*
X151059048Y-94455159D01*
X151050280Y-94443336D01*
X151042712Y-94430710D01*
X151036418Y-94417403D01*
X151031459Y-94403543D01*
X151027882Y-94389264D01*
X151025722Y-94374703D01*
X151025000Y-94360000D01*
X151025000Y-94060000D01*
X151025722Y-94045297D01*
X151027882Y-94030736D01*
X151031459Y-94016457D01*
X151036418Y-94002597D01*
X151042712Y-93989290D01*
X151050280Y-93976664D01*
X151059048Y-93964841D01*
X151068934Y-93953934D01*
X151079841Y-93944048D01*
X151091664Y-93935280D01*
X151104290Y-93927712D01*
X151117597Y-93921418D01*
X151131457Y-93916459D01*
X151145736Y-93912882D01*
X151160297Y-93910722D01*
X151175000Y-93910000D01*
X152825000Y-93910000D01*
X152839703Y-93910722D01*
G37*
G36*
X152839703Y-95180722D02*
G01*
X152854264Y-95182882D01*
X152868543Y-95186459D01*
X152882403Y-95191418D01*
X152895710Y-95197712D01*
X152908336Y-95205280D01*
X152920159Y-95214048D01*
X152931066Y-95223934D01*
X152940952Y-95234841D01*
X152949720Y-95246664D01*
X152957288Y-95259290D01*
X152963582Y-95272597D01*
X152968541Y-95286457D01*
X152972118Y-95300736D01*
X152974278Y-95315297D01*
X152975000Y-95330000D01*
X152975000Y-95630000D01*
X152974278Y-95644703D01*
X152972118Y-95659264D01*
X152968541Y-95673543D01*
X152963582Y-95687403D01*
X152957288Y-95700710D01*
X152949720Y-95713336D01*
X152940952Y-95725159D01*
X152931066Y-95736066D01*
X152920159Y-95745952D01*
X152908336Y-95754720D01*
X152895710Y-95762288D01*
X152882403Y-95768582D01*
X152868543Y-95773541D01*
X152854264Y-95777118D01*
X152839703Y-95779278D01*
X152825000Y-95780000D01*
X151175000Y-95780000D01*
X151160297Y-95779278D01*
X151145736Y-95777118D01*
X151131457Y-95773541D01*
X151117597Y-95768582D01*
X151104290Y-95762288D01*
X151091664Y-95754720D01*
X151079841Y-95745952D01*
X151068934Y-95736066D01*
X151059048Y-95725159D01*
X151050280Y-95713336D01*
X151042712Y-95700710D01*
X151036418Y-95687403D01*
X151031459Y-95673543D01*
X151027882Y-95659264D01*
X151025722Y-95644703D01*
X151025000Y-95630000D01*
X151025000Y-95330000D01*
X151025722Y-95315297D01*
X151027882Y-95300736D01*
X151031459Y-95286457D01*
X151036418Y-95272597D01*
X151042712Y-95259290D01*
X151050280Y-95246664D01*
X151059048Y-95234841D01*
X151068934Y-95223934D01*
X151079841Y-95214048D01*
X151091664Y-95205280D01*
X151104290Y-95197712D01*
X151117597Y-95191418D01*
X151131457Y-95186459D01*
X151145736Y-95182882D01*
X151160297Y-95180722D01*
X151175000Y-95180000D01*
X152825000Y-95180000D01*
X152839703Y-95180722D01*
G37*
G36*
X147889703Y-95180722D02*
G01*
X147904264Y-95182882D01*
X147918543Y-95186459D01*
X147932403Y-95191418D01*
X147945710Y-95197712D01*
X147958336Y-95205280D01*
X147970159Y-95214048D01*
X147981066Y-95223934D01*
X147990952Y-95234841D01*
X147999720Y-95246664D01*
X148007288Y-95259290D01*
X148013582Y-95272597D01*
X148018541Y-95286457D01*
X148022118Y-95300736D01*
X148024278Y-95315297D01*
X148025000Y-95330000D01*
X148025000Y-95630000D01*
X148024278Y-95644703D01*
X148022118Y-95659264D01*
X148018541Y-95673543D01*
X148013582Y-95687403D01*
X148007288Y-95700710D01*
X147999720Y-95713336D01*
X147990952Y-95725159D01*
X147981066Y-95736066D01*
X147970159Y-95745952D01*
X147958336Y-95754720D01*
X147945710Y-95762288D01*
X147932403Y-95768582D01*
X147918543Y-95773541D01*
X147904264Y-95777118D01*
X147889703Y-95779278D01*
X147875000Y-95780000D01*
X146225000Y-95780000D01*
X146210297Y-95779278D01*
X146195736Y-95777118D01*
X146181457Y-95773541D01*
X146167597Y-95768582D01*
X146154290Y-95762288D01*
X146141664Y-95754720D01*
X146129841Y-95745952D01*
X146118934Y-95736066D01*
X146109048Y-95725159D01*
X146100280Y-95713336D01*
X146092712Y-95700710D01*
X146086418Y-95687403D01*
X146081459Y-95673543D01*
X146077882Y-95659264D01*
X146075722Y-95644703D01*
X146075000Y-95630000D01*
X146075000Y-95330000D01*
X146075722Y-95315297D01*
X146077882Y-95300736D01*
X146081459Y-95286457D01*
X146086418Y-95272597D01*
X146092712Y-95259290D01*
X146100280Y-95246664D01*
X146109048Y-95234841D01*
X146118934Y-95223934D01*
X146129841Y-95214048D01*
X146141664Y-95205280D01*
X146154290Y-95197712D01*
X146167597Y-95191418D01*
X146181457Y-95186459D01*
X146195736Y-95182882D01*
X146210297Y-95180722D01*
X146225000Y-95180000D01*
X147875000Y-95180000D01*
X147889703Y-95180722D01*
G37*
G36*
X147889703Y-93910722D02*
G01*
X147904264Y-93912882D01*
X147918543Y-93916459D01*
X147932403Y-93921418D01*
X147945710Y-93927712D01*
X147958336Y-93935280D01*
X147970159Y-93944048D01*
X147981066Y-93953934D01*
X147990952Y-93964841D01*
X147999720Y-93976664D01*
X148007288Y-93989290D01*
X148013582Y-94002597D01*
X148018541Y-94016457D01*
X148022118Y-94030736D01*
X148024278Y-94045297D01*
X148025000Y-94060000D01*
X148025000Y-94360000D01*
X148024278Y-94374703D01*
X148022118Y-94389264D01*
X148018541Y-94403543D01*
X148013582Y-94417403D01*
X148007288Y-94430710D01*
X147999720Y-94443336D01*
X147990952Y-94455159D01*
X147981066Y-94466066D01*
X147970159Y-94475952D01*
X147958336Y-94484720D01*
X147945710Y-94492288D01*
X147932403Y-94498582D01*
X147918543Y-94503541D01*
X147904264Y-94507118D01*
X147889703Y-94509278D01*
X147875000Y-94510000D01*
X146225000Y-94510000D01*
X146210297Y-94509278D01*
X146195736Y-94507118D01*
X146181457Y-94503541D01*
X146167597Y-94498582D01*
X146154290Y-94492288D01*
X146141664Y-94484720D01*
X146129841Y-94475952D01*
X146118934Y-94466066D01*
X146109048Y-94455159D01*
X146100280Y-94443336D01*
X146092712Y-94430710D01*
X146086418Y-94417403D01*
X146081459Y-94403543D01*
X146077882Y-94389264D01*
X146075722Y-94374703D01*
X146075000Y-94360000D01*
X146075000Y-94060000D01*
X146075722Y-94045297D01*
X146077882Y-94030736D01*
X146081459Y-94016457D01*
X146086418Y-94002597D01*
X146092712Y-93989290D01*
X146100280Y-93976664D01*
X146109048Y-93964841D01*
X146118934Y-93953934D01*
X146129841Y-93944048D01*
X146141664Y-93935280D01*
X146154290Y-93927712D01*
X146167597Y-93921418D01*
X146181457Y-93916459D01*
X146195736Y-93912882D01*
X146210297Y-93910722D01*
X146225000Y-93910000D01*
X147875000Y-93910000D01*
X147889703Y-93910722D01*
G37*
G36*
X147889703Y-92640722D02*
G01*
X147904264Y-92642882D01*
X147918543Y-92646459D01*
X147932403Y-92651418D01*
X147945710Y-92657712D01*
X147958336Y-92665280D01*
X147970159Y-92674048D01*
X147981066Y-92683934D01*
X147990952Y-92694841D01*
X147999720Y-92706664D01*
X148007288Y-92719290D01*
X148013582Y-92732597D01*
X148018541Y-92746457D01*
X148022118Y-92760736D01*
X148024278Y-92775297D01*
X148025000Y-92790000D01*
X148025000Y-93090000D01*
X148024278Y-93104703D01*
X148022118Y-93119264D01*
X148018541Y-93133543D01*
X148013582Y-93147403D01*
X148007288Y-93160710D01*
X147999720Y-93173336D01*
X147990952Y-93185159D01*
X147981066Y-93196066D01*
X147970159Y-93205952D01*
X147958336Y-93214720D01*
X147945710Y-93222288D01*
X147932403Y-93228582D01*
X147918543Y-93233541D01*
X147904264Y-93237118D01*
X147889703Y-93239278D01*
X147875000Y-93240000D01*
X146225000Y-93240000D01*
X146210297Y-93239278D01*
X146195736Y-93237118D01*
X146181457Y-93233541D01*
X146167597Y-93228582D01*
X146154290Y-93222288D01*
X146141664Y-93214720D01*
X146129841Y-93205952D01*
X146118934Y-93196066D01*
X146109048Y-93185159D01*
X146100280Y-93173336D01*
X146092712Y-93160710D01*
X146086418Y-93147403D01*
X146081459Y-93133543D01*
X146077882Y-93119264D01*
X146075722Y-93104703D01*
X146075000Y-93090000D01*
X146075000Y-92790000D01*
X146075722Y-92775297D01*
X146077882Y-92760736D01*
X146081459Y-92746457D01*
X146086418Y-92732597D01*
X146092712Y-92719290D01*
X146100280Y-92706664D01*
X146109048Y-92694841D01*
X146118934Y-92683934D01*
X146129841Y-92674048D01*
X146141664Y-92665280D01*
X146154290Y-92657712D01*
X146167597Y-92651418D01*
X146181457Y-92646459D01*
X146195736Y-92642882D01*
X146210297Y-92640722D01*
X146225000Y-92640000D01*
X147875000Y-92640000D01*
X147889703Y-92640722D01*
G37*
G36*
X147889703Y-91370722D02*
G01*
X147904264Y-91372882D01*
X147918543Y-91376459D01*
X147932403Y-91381418D01*
X147945710Y-91387712D01*
X147958336Y-91395280D01*
X147970159Y-91404048D01*
X147981066Y-91413934D01*
X147990952Y-91424841D01*
X147999720Y-91436664D01*
X148007288Y-91449290D01*
X148013582Y-91462597D01*
X148018541Y-91476457D01*
X148022118Y-91490736D01*
X148024278Y-91505297D01*
X148025000Y-91520000D01*
X148025000Y-91820000D01*
X148024278Y-91834703D01*
X148022118Y-91849264D01*
X148018541Y-91863543D01*
X148013582Y-91877403D01*
X148007288Y-91890710D01*
X147999720Y-91903336D01*
X147990952Y-91915159D01*
X147981066Y-91926066D01*
X147970159Y-91935952D01*
X147958336Y-91944720D01*
X147945710Y-91952288D01*
X147932403Y-91958582D01*
X147918543Y-91963541D01*
X147904264Y-91967118D01*
X147889703Y-91969278D01*
X147875000Y-91970000D01*
X146225000Y-91970000D01*
X146210297Y-91969278D01*
X146195736Y-91967118D01*
X146181457Y-91963541D01*
X146167597Y-91958582D01*
X146154290Y-91952288D01*
X146141664Y-91944720D01*
X146129841Y-91935952D01*
X146118934Y-91926066D01*
X146109048Y-91915159D01*
X146100280Y-91903336D01*
X146092712Y-91890710D01*
X146086418Y-91877403D01*
X146081459Y-91863543D01*
X146077882Y-91849264D01*
X146075722Y-91834703D01*
X146075000Y-91820000D01*
X146075000Y-91520000D01*
X146075722Y-91505297D01*
X146077882Y-91490736D01*
X146081459Y-91476457D01*
X146086418Y-91462597D01*
X146092712Y-91449290D01*
X146100280Y-91436664D01*
X146109048Y-91424841D01*
X146118934Y-91413934D01*
X146129841Y-91404048D01*
X146141664Y-91395280D01*
X146154290Y-91387712D01*
X146167597Y-91381418D01*
X146181457Y-91376459D01*
X146195736Y-91372882D01*
X146210297Y-91370722D01*
X146225000Y-91370000D01*
X147875000Y-91370000D01*
X147889703Y-91370722D01*
G37*
G36*
X171139703Y-78170722D02*
G01*
X171154264Y-78172882D01*
X171168543Y-78176459D01*
X171182403Y-78181418D01*
X171195710Y-78187712D01*
X171208336Y-78195280D01*
X171220159Y-78204048D01*
X171231066Y-78213934D01*
X171240952Y-78224841D01*
X171249720Y-78236664D01*
X171257288Y-78249290D01*
X171263582Y-78262597D01*
X171268541Y-78276457D01*
X171272118Y-78290736D01*
X171274278Y-78305297D01*
X171275000Y-78320000D01*
X171275000Y-78620000D01*
X171274278Y-78634703D01*
X171272118Y-78649264D01*
X171268541Y-78663543D01*
X171263582Y-78677403D01*
X171257288Y-78690710D01*
X171249720Y-78703336D01*
X171240952Y-78715159D01*
X171231066Y-78726066D01*
X171220159Y-78735952D01*
X171208336Y-78744720D01*
X171195710Y-78752288D01*
X171182403Y-78758582D01*
X171168543Y-78763541D01*
X171154264Y-78767118D01*
X171139703Y-78769278D01*
X171125000Y-78770000D01*
X169475000Y-78770000D01*
X169460297Y-78769278D01*
X169445736Y-78767118D01*
X169431457Y-78763541D01*
X169417597Y-78758582D01*
X169404290Y-78752288D01*
X169391664Y-78744720D01*
X169379841Y-78735952D01*
X169368934Y-78726066D01*
X169359048Y-78715159D01*
X169350280Y-78703336D01*
X169342712Y-78690710D01*
X169336418Y-78677403D01*
X169331459Y-78663543D01*
X169327882Y-78649264D01*
X169325722Y-78634703D01*
X169325000Y-78620000D01*
X169325000Y-78320000D01*
X169325722Y-78305297D01*
X169327882Y-78290736D01*
X169331459Y-78276457D01*
X169336418Y-78262597D01*
X169342712Y-78249290D01*
X169350280Y-78236664D01*
X169359048Y-78224841D01*
X169368934Y-78213934D01*
X169379841Y-78204048D01*
X169391664Y-78195280D01*
X169404290Y-78187712D01*
X169417597Y-78181418D01*
X169431457Y-78176459D01*
X169445736Y-78172882D01*
X169460297Y-78170722D01*
X169475000Y-78170000D01*
X171125000Y-78170000D01*
X171139703Y-78170722D01*
G37*
G36*
X171139703Y-79440722D02*
G01*
X171154264Y-79442882D01*
X171168543Y-79446459D01*
X171182403Y-79451418D01*
X171195710Y-79457712D01*
X171208336Y-79465280D01*
X171220159Y-79474048D01*
X171231066Y-79483934D01*
X171240952Y-79494841D01*
X171249720Y-79506664D01*
X171257288Y-79519290D01*
X171263582Y-79532597D01*
X171268541Y-79546457D01*
X171272118Y-79560736D01*
X171274278Y-79575297D01*
X171275000Y-79590000D01*
X171275000Y-79890000D01*
X171274278Y-79904703D01*
X171272118Y-79919264D01*
X171268541Y-79933543D01*
X171263582Y-79947403D01*
X171257288Y-79960710D01*
X171249720Y-79973336D01*
X171240952Y-79985159D01*
X171231066Y-79996066D01*
X171220159Y-80005952D01*
X171208336Y-80014720D01*
X171195710Y-80022288D01*
X171182403Y-80028582D01*
X171168543Y-80033541D01*
X171154264Y-80037118D01*
X171139703Y-80039278D01*
X171125000Y-80040000D01*
X169475000Y-80040000D01*
X169460297Y-80039278D01*
X169445736Y-80037118D01*
X169431457Y-80033541D01*
X169417597Y-80028582D01*
X169404290Y-80022288D01*
X169391664Y-80014720D01*
X169379841Y-80005952D01*
X169368934Y-79996066D01*
X169359048Y-79985159D01*
X169350280Y-79973336D01*
X169342712Y-79960710D01*
X169336418Y-79947403D01*
X169331459Y-79933543D01*
X169327882Y-79919264D01*
X169325722Y-79904703D01*
X169325000Y-79890000D01*
X169325000Y-79590000D01*
X169325722Y-79575297D01*
X169327882Y-79560736D01*
X169331459Y-79546457D01*
X169336418Y-79532597D01*
X169342712Y-79519290D01*
X169350280Y-79506664D01*
X169359048Y-79494841D01*
X169368934Y-79483934D01*
X169379841Y-79474048D01*
X169391664Y-79465280D01*
X169404290Y-79457712D01*
X169417597Y-79451418D01*
X169431457Y-79446459D01*
X169445736Y-79442882D01*
X169460297Y-79440722D01*
X169475000Y-79440000D01*
X171125000Y-79440000D01*
X171139703Y-79440722D01*
G37*
G36*
X171139703Y-80710722D02*
G01*
X171154264Y-80712882D01*
X171168543Y-80716459D01*
X171182403Y-80721418D01*
X171195710Y-80727712D01*
X171208336Y-80735280D01*
X171220159Y-80744048D01*
X171231066Y-80753934D01*
X171240952Y-80764841D01*
X171249720Y-80776664D01*
X171257288Y-80789290D01*
X171263582Y-80802597D01*
X171268541Y-80816457D01*
X171272118Y-80830736D01*
X171274278Y-80845297D01*
X171275000Y-80860000D01*
X171275000Y-81160000D01*
X171274278Y-81174703D01*
X171272118Y-81189264D01*
X171268541Y-81203543D01*
X171263582Y-81217403D01*
X171257288Y-81230710D01*
X171249720Y-81243336D01*
X171240952Y-81255159D01*
X171231066Y-81266066D01*
X171220159Y-81275952D01*
X171208336Y-81284720D01*
X171195710Y-81292288D01*
X171182403Y-81298582D01*
X171168543Y-81303541D01*
X171154264Y-81307118D01*
X171139703Y-81309278D01*
X171125000Y-81310000D01*
X169475000Y-81310000D01*
X169460297Y-81309278D01*
X169445736Y-81307118D01*
X169431457Y-81303541D01*
X169417597Y-81298582D01*
X169404290Y-81292288D01*
X169391664Y-81284720D01*
X169379841Y-81275952D01*
X169368934Y-81266066D01*
X169359048Y-81255159D01*
X169350280Y-81243336D01*
X169342712Y-81230710D01*
X169336418Y-81217403D01*
X169331459Y-81203543D01*
X169327882Y-81189264D01*
X169325722Y-81174703D01*
X169325000Y-81160000D01*
X169325000Y-80860000D01*
X169325722Y-80845297D01*
X169327882Y-80830736D01*
X169331459Y-80816457D01*
X169336418Y-80802597D01*
X169342712Y-80789290D01*
X169350280Y-80776664D01*
X169359048Y-80764841D01*
X169368934Y-80753934D01*
X169379841Y-80744048D01*
X169391664Y-80735280D01*
X169404290Y-80727712D01*
X169417597Y-80721418D01*
X169431457Y-80716459D01*
X169445736Y-80712882D01*
X169460297Y-80710722D01*
X169475000Y-80710000D01*
X171125000Y-80710000D01*
X171139703Y-80710722D01*
G37*
G36*
X171139703Y-81980722D02*
G01*
X171154264Y-81982882D01*
X171168543Y-81986459D01*
X171182403Y-81991418D01*
X171195710Y-81997712D01*
X171208336Y-82005280D01*
X171220159Y-82014048D01*
X171231066Y-82023934D01*
X171240952Y-82034841D01*
X171249720Y-82046664D01*
X171257288Y-82059290D01*
X171263582Y-82072597D01*
X171268541Y-82086457D01*
X171272118Y-82100736D01*
X171274278Y-82115297D01*
X171275000Y-82130000D01*
X171275000Y-82430000D01*
X171274278Y-82444703D01*
X171272118Y-82459264D01*
X171268541Y-82473543D01*
X171263582Y-82487403D01*
X171257288Y-82500710D01*
X171249720Y-82513336D01*
X171240952Y-82525159D01*
X171231066Y-82536066D01*
X171220159Y-82545952D01*
X171208336Y-82554720D01*
X171195710Y-82562288D01*
X171182403Y-82568582D01*
X171168543Y-82573541D01*
X171154264Y-82577118D01*
X171139703Y-82579278D01*
X171125000Y-82580000D01*
X169475000Y-82580000D01*
X169460297Y-82579278D01*
X169445736Y-82577118D01*
X169431457Y-82573541D01*
X169417597Y-82568582D01*
X169404290Y-82562288D01*
X169391664Y-82554720D01*
X169379841Y-82545952D01*
X169368934Y-82536066D01*
X169359048Y-82525159D01*
X169350280Y-82513336D01*
X169342712Y-82500710D01*
X169336418Y-82487403D01*
X169331459Y-82473543D01*
X169327882Y-82459264D01*
X169325722Y-82444703D01*
X169325000Y-82430000D01*
X169325000Y-82130000D01*
X169325722Y-82115297D01*
X169327882Y-82100736D01*
X169331459Y-82086457D01*
X169336418Y-82072597D01*
X169342712Y-82059290D01*
X169350280Y-82046664D01*
X169359048Y-82034841D01*
X169368934Y-82023934D01*
X169379841Y-82014048D01*
X169391664Y-82005280D01*
X169404290Y-81997712D01*
X169417597Y-81991418D01*
X169431457Y-81986459D01*
X169445736Y-81982882D01*
X169460297Y-81980722D01*
X169475000Y-81980000D01*
X171125000Y-81980000D01*
X171139703Y-81980722D01*
G37*
G36*
X166189703Y-81980722D02*
G01*
X166204264Y-81982882D01*
X166218543Y-81986459D01*
X166232403Y-81991418D01*
X166245710Y-81997712D01*
X166258336Y-82005280D01*
X166270159Y-82014048D01*
X166281066Y-82023934D01*
X166290952Y-82034841D01*
X166299720Y-82046664D01*
X166307288Y-82059290D01*
X166313582Y-82072597D01*
X166318541Y-82086457D01*
X166322118Y-82100736D01*
X166324278Y-82115297D01*
X166325000Y-82130000D01*
X166325000Y-82430000D01*
X166324278Y-82444703D01*
X166322118Y-82459264D01*
X166318541Y-82473543D01*
X166313582Y-82487403D01*
X166307288Y-82500710D01*
X166299720Y-82513336D01*
X166290952Y-82525159D01*
X166281066Y-82536066D01*
X166270159Y-82545952D01*
X166258336Y-82554720D01*
X166245710Y-82562288D01*
X166232403Y-82568582D01*
X166218543Y-82573541D01*
X166204264Y-82577118D01*
X166189703Y-82579278D01*
X166175000Y-82580000D01*
X164525000Y-82580000D01*
X164510297Y-82579278D01*
X164495736Y-82577118D01*
X164481457Y-82573541D01*
X164467597Y-82568582D01*
X164454290Y-82562288D01*
X164441664Y-82554720D01*
X164429841Y-82545952D01*
X164418934Y-82536066D01*
X164409048Y-82525159D01*
X164400280Y-82513336D01*
X164392712Y-82500710D01*
X164386418Y-82487403D01*
X164381459Y-82473543D01*
X164377882Y-82459264D01*
X164375722Y-82444703D01*
X164375000Y-82430000D01*
X164375000Y-82130000D01*
X164375722Y-82115297D01*
X164377882Y-82100736D01*
X164381459Y-82086457D01*
X164386418Y-82072597D01*
X164392712Y-82059290D01*
X164400280Y-82046664D01*
X164409048Y-82034841D01*
X164418934Y-82023934D01*
X164429841Y-82014048D01*
X164441664Y-82005280D01*
X164454290Y-81997712D01*
X164467597Y-81991418D01*
X164481457Y-81986459D01*
X164495736Y-81982882D01*
X164510297Y-81980722D01*
X164525000Y-81980000D01*
X166175000Y-81980000D01*
X166189703Y-81980722D01*
G37*
G36*
X166189703Y-80710722D02*
G01*
X166204264Y-80712882D01*
X166218543Y-80716459D01*
X166232403Y-80721418D01*
X166245710Y-80727712D01*
X166258336Y-80735280D01*
X166270159Y-80744048D01*
X166281066Y-80753934D01*
X166290952Y-80764841D01*
X166299720Y-80776664D01*
X166307288Y-80789290D01*
X166313582Y-80802597D01*
X166318541Y-80816457D01*
X166322118Y-80830736D01*
X166324278Y-80845297D01*
X166325000Y-80860000D01*
X166325000Y-81160000D01*
X166324278Y-81174703D01*
X166322118Y-81189264D01*
X166318541Y-81203543D01*
X166313582Y-81217403D01*
X166307288Y-81230710D01*
X166299720Y-81243336D01*
X166290952Y-81255159D01*
X166281066Y-81266066D01*
X166270159Y-81275952D01*
X166258336Y-81284720D01*
X166245710Y-81292288D01*
X166232403Y-81298582D01*
X166218543Y-81303541D01*
X166204264Y-81307118D01*
X166189703Y-81309278D01*
X166175000Y-81310000D01*
X164525000Y-81310000D01*
X164510297Y-81309278D01*
X164495736Y-81307118D01*
X164481457Y-81303541D01*
X164467597Y-81298582D01*
X164454290Y-81292288D01*
X164441664Y-81284720D01*
X164429841Y-81275952D01*
X164418934Y-81266066D01*
X164409048Y-81255159D01*
X164400280Y-81243336D01*
X164392712Y-81230710D01*
X164386418Y-81217403D01*
X164381459Y-81203543D01*
X164377882Y-81189264D01*
X164375722Y-81174703D01*
X164375000Y-81160000D01*
X164375000Y-80860000D01*
X164375722Y-80845297D01*
X164377882Y-80830736D01*
X164381459Y-80816457D01*
X164386418Y-80802597D01*
X164392712Y-80789290D01*
X164400280Y-80776664D01*
X164409048Y-80764841D01*
X164418934Y-80753934D01*
X164429841Y-80744048D01*
X164441664Y-80735280D01*
X164454290Y-80727712D01*
X164467597Y-80721418D01*
X164481457Y-80716459D01*
X164495736Y-80712882D01*
X164510297Y-80710722D01*
X164525000Y-80710000D01*
X166175000Y-80710000D01*
X166189703Y-80710722D01*
G37*
G36*
X166189703Y-79440722D02*
G01*
X166204264Y-79442882D01*
X166218543Y-79446459D01*
X166232403Y-79451418D01*
X166245710Y-79457712D01*
X166258336Y-79465280D01*
X166270159Y-79474048D01*
X166281066Y-79483934D01*
X166290952Y-79494841D01*
X166299720Y-79506664D01*
X166307288Y-79519290D01*
X166313582Y-79532597D01*
X166318541Y-79546457D01*
X166322118Y-79560736D01*
X166324278Y-79575297D01*
X166325000Y-79590000D01*
X166325000Y-79890000D01*
X166324278Y-79904703D01*
X166322118Y-79919264D01*
X166318541Y-79933543D01*
X166313582Y-79947403D01*
X166307288Y-79960710D01*
X166299720Y-79973336D01*
X166290952Y-79985159D01*
X166281066Y-79996066D01*
X166270159Y-80005952D01*
X166258336Y-80014720D01*
X166245710Y-80022288D01*
X166232403Y-80028582D01*
X166218543Y-80033541D01*
X166204264Y-80037118D01*
X166189703Y-80039278D01*
X166175000Y-80040000D01*
X164525000Y-80040000D01*
X164510297Y-80039278D01*
X164495736Y-80037118D01*
X164481457Y-80033541D01*
X164467597Y-80028582D01*
X164454290Y-80022288D01*
X164441664Y-80014720D01*
X164429841Y-80005952D01*
X164418934Y-79996066D01*
X164409048Y-79985159D01*
X164400280Y-79973336D01*
X164392712Y-79960710D01*
X164386418Y-79947403D01*
X164381459Y-79933543D01*
X164377882Y-79919264D01*
X164375722Y-79904703D01*
X164375000Y-79890000D01*
X164375000Y-79590000D01*
X164375722Y-79575297D01*
X164377882Y-79560736D01*
X164381459Y-79546457D01*
X164386418Y-79532597D01*
X164392712Y-79519290D01*
X164400280Y-79506664D01*
X164409048Y-79494841D01*
X164418934Y-79483934D01*
X164429841Y-79474048D01*
X164441664Y-79465280D01*
X164454290Y-79457712D01*
X164467597Y-79451418D01*
X164481457Y-79446459D01*
X164495736Y-79442882D01*
X164510297Y-79440722D01*
X164525000Y-79440000D01*
X166175000Y-79440000D01*
X166189703Y-79440722D01*
G37*
G36*
X166189703Y-78170722D02*
G01*
X166204264Y-78172882D01*
X166218543Y-78176459D01*
X166232403Y-78181418D01*
X166245710Y-78187712D01*
X166258336Y-78195280D01*
X166270159Y-78204048D01*
X166281066Y-78213934D01*
X166290952Y-78224841D01*
X166299720Y-78236664D01*
X166307288Y-78249290D01*
X166313582Y-78262597D01*
X166318541Y-78276457D01*
X166322118Y-78290736D01*
X166324278Y-78305297D01*
X166325000Y-78320000D01*
X166325000Y-78620000D01*
X166324278Y-78634703D01*
X166322118Y-78649264D01*
X166318541Y-78663543D01*
X166313582Y-78677403D01*
X166307288Y-78690710D01*
X166299720Y-78703336D01*
X166290952Y-78715159D01*
X166281066Y-78726066D01*
X166270159Y-78735952D01*
X166258336Y-78744720D01*
X166245710Y-78752288D01*
X166232403Y-78758582D01*
X166218543Y-78763541D01*
X166204264Y-78767118D01*
X166189703Y-78769278D01*
X166175000Y-78770000D01*
X164525000Y-78770000D01*
X164510297Y-78769278D01*
X164495736Y-78767118D01*
X164481457Y-78763541D01*
X164467597Y-78758582D01*
X164454290Y-78752288D01*
X164441664Y-78744720D01*
X164429841Y-78735952D01*
X164418934Y-78726066D01*
X164409048Y-78715159D01*
X164400280Y-78703336D01*
X164392712Y-78690710D01*
X164386418Y-78677403D01*
X164381459Y-78663543D01*
X164377882Y-78649264D01*
X164375722Y-78634703D01*
X164375000Y-78620000D01*
X164375000Y-78320000D01*
X164375722Y-78305297D01*
X164377882Y-78290736D01*
X164381459Y-78276457D01*
X164386418Y-78262597D01*
X164392712Y-78249290D01*
X164400280Y-78236664D01*
X164409048Y-78224841D01*
X164418934Y-78213934D01*
X164429841Y-78204048D01*
X164441664Y-78195280D01*
X164454290Y-78187712D01*
X164467597Y-78181418D01*
X164481457Y-78176459D01*
X164495736Y-78172882D01*
X164510297Y-78170722D01*
X164525000Y-78170000D01*
X166175000Y-78170000D01*
X166189703Y-78170722D01*
G37*
G36*
X166364703Y-67605722D02*
G01*
X166379264Y-67607882D01*
X166393543Y-67611459D01*
X166407403Y-67616418D01*
X166420710Y-67622712D01*
X166433336Y-67630280D01*
X166445159Y-67639048D01*
X166456066Y-67648934D01*
X166465952Y-67659841D01*
X166474720Y-67671664D01*
X166482288Y-67684290D01*
X166488582Y-67697597D01*
X166493541Y-67711457D01*
X166497118Y-67725736D01*
X166499278Y-67740297D01*
X166500000Y-67755000D01*
X166500000Y-68055000D01*
X166499278Y-68069703D01*
X166497118Y-68084264D01*
X166493541Y-68098543D01*
X166488582Y-68112403D01*
X166482288Y-68125710D01*
X166474720Y-68138336D01*
X166465952Y-68150159D01*
X166456066Y-68161066D01*
X166445159Y-68170952D01*
X166433336Y-68179720D01*
X166420710Y-68187288D01*
X166407403Y-68193582D01*
X166393543Y-68198541D01*
X166379264Y-68202118D01*
X166364703Y-68204278D01*
X166350000Y-68205000D01*
X164700000Y-68205000D01*
X164685297Y-68204278D01*
X164670736Y-68202118D01*
X164656457Y-68198541D01*
X164642597Y-68193582D01*
X164629290Y-68187288D01*
X164616664Y-68179720D01*
X164604841Y-68170952D01*
X164593934Y-68161066D01*
X164584048Y-68150159D01*
X164575280Y-68138336D01*
X164567712Y-68125710D01*
X164561418Y-68112403D01*
X164556459Y-68098543D01*
X164552882Y-68084264D01*
X164550722Y-68069703D01*
X164550000Y-68055000D01*
X164550000Y-67755000D01*
X164550722Y-67740297D01*
X164552882Y-67725736D01*
X164556459Y-67711457D01*
X164561418Y-67697597D01*
X164567712Y-67684290D01*
X164575280Y-67671664D01*
X164584048Y-67659841D01*
X164593934Y-67648934D01*
X164604841Y-67639048D01*
X164616664Y-67630280D01*
X164629290Y-67622712D01*
X164642597Y-67616418D01*
X164656457Y-67611459D01*
X164670736Y-67607882D01*
X164685297Y-67605722D01*
X164700000Y-67605000D01*
X166350000Y-67605000D01*
X166364703Y-67605722D01*
G37*
G36*
X166364703Y-66335722D02*
G01*
X166379264Y-66337882D01*
X166393543Y-66341459D01*
X166407403Y-66346418D01*
X166420710Y-66352712D01*
X166433336Y-66360280D01*
X166445159Y-66369048D01*
X166456066Y-66378934D01*
X166465952Y-66389841D01*
X166474720Y-66401664D01*
X166482288Y-66414290D01*
X166488582Y-66427597D01*
X166493541Y-66441457D01*
X166497118Y-66455736D01*
X166499278Y-66470297D01*
X166500000Y-66485000D01*
X166500000Y-66785000D01*
X166499278Y-66799703D01*
X166497118Y-66814264D01*
X166493541Y-66828543D01*
X166488582Y-66842403D01*
X166482288Y-66855710D01*
X166474720Y-66868336D01*
X166465952Y-66880159D01*
X166456066Y-66891066D01*
X166445159Y-66900952D01*
X166433336Y-66909720D01*
X166420710Y-66917288D01*
X166407403Y-66923582D01*
X166393543Y-66928541D01*
X166379264Y-66932118D01*
X166364703Y-66934278D01*
X166350000Y-66935000D01*
X164700000Y-66935000D01*
X164685297Y-66934278D01*
X164670736Y-66932118D01*
X164656457Y-66928541D01*
X164642597Y-66923582D01*
X164629290Y-66917288D01*
X164616664Y-66909720D01*
X164604841Y-66900952D01*
X164593934Y-66891066D01*
X164584048Y-66880159D01*
X164575280Y-66868336D01*
X164567712Y-66855710D01*
X164561418Y-66842403D01*
X164556459Y-66828543D01*
X164552882Y-66814264D01*
X164550722Y-66799703D01*
X164550000Y-66785000D01*
X164550000Y-66485000D01*
X164550722Y-66470297D01*
X164552882Y-66455736D01*
X164556459Y-66441457D01*
X164561418Y-66427597D01*
X164567712Y-66414290D01*
X164575280Y-66401664D01*
X164584048Y-66389841D01*
X164593934Y-66378934D01*
X164604841Y-66369048D01*
X164616664Y-66360280D01*
X164629290Y-66352712D01*
X164642597Y-66346418D01*
X164656457Y-66341459D01*
X164670736Y-66337882D01*
X164685297Y-66335722D01*
X164700000Y-66335000D01*
X166350000Y-66335000D01*
X166364703Y-66335722D01*
G37*
G36*
X166364703Y-65065722D02*
G01*
X166379264Y-65067882D01*
X166393543Y-65071459D01*
X166407403Y-65076418D01*
X166420710Y-65082712D01*
X166433336Y-65090280D01*
X166445159Y-65099048D01*
X166456066Y-65108934D01*
X166465952Y-65119841D01*
X166474720Y-65131664D01*
X166482288Y-65144290D01*
X166488582Y-65157597D01*
X166493541Y-65171457D01*
X166497118Y-65185736D01*
X166499278Y-65200297D01*
X166500000Y-65215000D01*
X166500000Y-65515000D01*
X166499278Y-65529703D01*
X166497118Y-65544264D01*
X166493541Y-65558543D01*
X166488582Y-65572403D01*
X166482288Y-65585710D01*
X166474720Y-65598336D01*
X166465952Y-65610159D01*
X166456066Y-65621066D01*
X166445159Y-65630952D01*
X166433336Y-65639720D01*
X166420710Y-65647288D01*
X166407403Y-65653582D01*
X166393543Y-65658541D01*
X166379264Y-65662118D01*
X166364703Y-65664278D01*
X166350000Y-65665000D01*
X164700000Y-65665000D01*
X164685297Y-65664278D01*
X164670736Y-65662118D01*
X164656457Y-65658541D01*
X164642597Y-65653582D01*
X164629290Y-65647288D01*
X164616664Y-65639720D01*
X164604841Y-65630952D01*
X164593934Y-65621066D01*
X164584048Y-65610159D01*
X164575280Y-65598336D01*
X164567712Y-65585710D01*
X164561418Y-65572403D01*
X164556459Y-65558543D01*
X164552882Y-65544264D01*
X164550722Y-65529703D01*
X164550000Y-65515000D01*
X164550000Y-65215000D01*
X164550722Y-65200297D01*
X164552882Y-65185736D01*
X164556459Y-65171457D01*
X164561418Y-65157597D01*
X164567712Y-65144290D01*
X164575280Y-65131664D01*
X164584048Y-65119841D01*
X164593934Y-65108934D01*
X164604841Y-65099048D01*
X164616664Y-65090280D01*
X164629290Y-65082712D01*
X164642597Y-65076418D01*
X164656457Y-65071459D01*
X164670736Y-65067882D01*
X164685297Y-65065722D01*
X164700000Y-65065000D01*
X166350000Y-65065000D01*
X166364703Y-65065722D01*
G37*
G36*
X166364703Y-63795722D02*
G01*
X166379264Y-63797882D01*
X166393543Y-63801459D01*
X166407403Y-63806418D01*
X166420710Y-63812712D01*
X166433336Y-63820280D01*
X166445159Y-63829048D01*
X166456066Y-63838934D01*
X166465952Y-63849841D01*
X166474720Y-63861664D01*
X166482288Y-63874290D01*
X166488582Y-63887597D01*
X166493541Y-63901457D01*
X166497118Y-63915736D01*
X166499278Y-63930297D01*
X166500000Y-63945000D01*
X166500000Y-64245000D01*
X166499278Y-64259703D01*
X166497118Y-64274264D01*
X166493541Y-64288543D01*
X166488582Y-64302403D01*
X166482288Y-64315710D01*
X166474720Y-64328336D01*
X166465952Y-64340159D01*
X166456066Y-64351066D01*
X166445159Y-64360952D01*
X166433336Y-64369720D01*
X166420710Y-64377288D01*
X166407403Y-64383582D01*
X166393543Y-64388541D01*
X166379264Y-64392118D01*
X166364703Y-64394278D01*
X166350000Y-64395000D01*
X164700000Y-64395000D01*
X164685297Y-64394278D01*
X164670736Y-64392118D01*
X164656457Y-64388541D01*
X164642597Y-64383582D01*
X164629290Y-64377288D01*
X164616664Y-64369720D01*
X164604841Y-64360952D01*
X164593934Y-64351066D01*
X164584048Y-64340159D01*
X164575280Y-64328336D01*
X164567712Y-64315710D01*
X164561418Y-64302403D01*
X164556459Y-64288543D01*
X164552882Y-64274264D01*
X164550722Y-64259703D01*
X164550000Y-64245000D01*
X164550000Y-63945000D01*
X164550722Y-63930297D01*
X164552882Y-63915736D01*
X164556459Y-63901457D01*
X164561418Y-63887597D01*
X164567712Y-63874290D01*
X164575280Y-63861664D01*
X164584048Y-63849841D01*
X164593934Y-63838934D01*
X164604841Y-63829048D01*
X164616664Y-63820280D01*
X164629290Y-63812712D01*
X164642597Y-63806418D01*
X164656457Y-63801459D01*
X164670736Y-63797882D01*
X164685297Y-63795722D01*
X164700000Y-63795000D01*
X166350000Y-63795000D01*
X166364703Y-63795722D01*
G37*
G36*
X171314703Y-63795722D02*
G01*
X171329264Y-63797882D01*
X171343543Y-63801459D01*
X171357403Y-63806418D01*
X171370710Y-63812712D01*
X171383336Y-63820280D01*
X171395159Y-63829048D01*
X171406066Y-63838934D01*
X171415952Y-63849841D01*
X171424720Y-63861664D01*
X171432288Y-63874290D01*
X171438582Y-63887597D01*
X171443541Y-63901457D01*
X171447118Y-63915736D01*
X171449278Y-63930297D01*
X171450000Y-63945000D01*
X171450000Y-64245000D01*
X171449278Y-64259703D01*
X171447118Y-64274264D01*
X171443541Y-64288543D01*
X171438582Y-64302403D01*
X171432288Y-64315710D01*
X171424720Y-64328336D01*
X171415952Y-64340159D01*
X171406066Y-64351066D01*
X171395159Y-64360952D01*
X171383336Y-64369720D01*
X171370710Y-64377288D01*
X171357403Y-64383582D01*
X171343543Y-64388541D01*
X171329264Y-64392118D01*
X171314703Y-64394278D01*
X171300000Y-64395000D01*
X169650000Y-64395000D01*
X169635297Y-64394278D01*
X169620736Y-64392118D01*
X169606457Y-64388541D01*
X169592597Y-64383582D01*
X169579290Y-64377288D01*
X169566664Y-64369720D01*
X169554841Y-64360952D01*
X169543934Y-64351066D01*
X169534048Y-64340159D01*
X169525280Y-64328336D01*
X169517712Y-64315710D01*
X169511418Y-64302403D01*
X169506459Y-64288543D01*
X169502882Y-64274264D01*
X169500722Y-64259703D01*
X169500000Y-64245000D01*
X169500000Y-63945000D01*
X169500722Y-63930297D01*
X169502882Y-63915736D01*
X169506459Y-63901457D01*
X169511418Y-63887597D01*
X169517712Y-63874290D01*
X169525280Y-63861664D01*
X169534048Y-63849841D01*
X169543934Y-63838934D01*
X169554841Y-63829048D01*
X169566664Y-63820280D01*
X169579290Y-63812712D01*
X169592597Y-63806418D01*
X169606457Y-63801459D01*
X169620736Y-63797882D01*
X169635297Y-63795722D01*
X169650000Y-63795000D01*
X171300000Y-63795000D01*
X171314703Y-63795722D01*
G37*
G36*
X171314703Y-65065722D02*
G01*
X171329264Y-65067882D01*
X171343543Y-65071459D01*
X171357403Y-65076418D01*
X171370710Y-65082712D01*
X171383336Y-65090280D01*
X171395159Y-65099048D01*
X171406066Y-65108934D01*
X171415952Y-65119841D01*
X171424720Y-65131664D01*
X171432288Y-65144290D01*
X171438582Y-65157597D01*
X171443541Y-65171457D01*
X171447118Y-65185736D01*
X171449278Y-65200297D01*
X171450000Y-65215000D01*
X171450000Y-65515000D01*
X171449278Y-65529703D01*
X171447118Y-65544264D01*
X171443541Y-65558543D01*
X171438582Y-65572403D01*
X171432288Y-65585710D01*
X171424720Y-65598336D01*
X171415952Y-65610159D01*
X171406066Y-65621066D01*
X171395159Y-65630952D01*
X171383336Y-65639720D01*
X171370710Y-65647288D01*
X171357403Y-65653582D01*
X171343543Y-65658541D01*
X171329264Y-65662118D01*
X171314703Y-65664278D01*
X171300000Y-65665000D01*
X169650000Y-65665000D01*
X169635297Y-65664278D01*
X169620736Y-65662118D01*
X169606457Y-65658541D01*
X169592597Y-65653582D01*
X169579290Y-65647288D01*
X169566664Y-65639720D01*
X169554841Y-65630952D01*
X169543934Y-65621066D01*
X169534048Y-65610159D01*
X169525280Y-65598336D01*
X169517712Y-65585710D01*
X169511418Y-65572403D01*
X169506459Y-65558543D01*
X169502882Y-65544264D01*
X169500722Y-65529703D01*
X169500000Y-65515000D01*
X169500000Y-65215000D01*
X169500722Y-65200297D01*
X169502882Y-65185736D01*
X169506459Y-65171457D01*
X169511418Y-65157597D01*
X169517712Y-65144290D01*
X169525280Y-65131664D01*
X169534048Y-65119841D01*
X169543934Y-65108934D01*
X169554841Y-65099048D01*
X169566664Y-65090280D01*
X169579290Y-65082712D01*
X169592597Y-65076418D01*
X169606457Y-65071459D01*
X169620736Y-65067882D01*
X169635297Y-65065722D01*
X169650000Y-65065000D01*
X171300000Y-65065000D01*
X171314703Y-65065722D01*
G37*
G36*
X171314703Y-66335722D02*
G01*
X171329264Y-66337882D01*
X171343543Y-66341459D01*
X171357403Y-66346418D01*
X171370710Y-66352712D01*
X171383336Y-66360280D01*
X171395159Y-66369048D01*
X171406066Y-66378934D01*
X171415952Y-66389841D01*
X171424720Y-66401664D01*
X171432288Y-66414290D01*
X171438582Y-66427597D01*
X171443541Y-66441457D01*
X171447118Y-66455736D01*
X171449278Y-66470297D01*
X171450000Y-66485000D01*
X171450000Y-66785000D01*
X171449278Y-66799703D01*
X171447118Y-66814264D01*
X171443541Y-66828543D01*
X171438582Y-66842403D01*
X171432288Y-66855710D01*
X171424720Y-66868336D01*
X171415952Y-66880159D01*
X171406066Y-66891066D01*
X171395159Y-66900952D01*
X171383336Y-66909720D01*
X171370710Y-66917288D01*
X171357403Y-66923582D01*
X171343543Y-66928541D01*
X171329264Y-66932118D01*
X171314703Y-66934278D01*
X171300000Y-66935000D01*
X169650000Y-66935000D01*
X169635297Y-66934278D01*
X169620736Y-66932118D01*
X169606457Y-66928541D01*
X169592597Y-66923582D01*
X169579290Y-66917288D01*
X169566664Y-66909720D01*
X169554841Y-66900952D01*
X169543934Y-66891066D01*
X169534048Y-66880159D01*
X169525280Y-66868336D01*
X169517712Y-66855710D01*
X169511418Y-66842403D01*
X169506459Y-66828543D01*
X169502882Y-66814264D01*
X169500722Y-66799703D01*
X169500000Y-66785000D01*
X169500000Y-66485000D01*
X169500722Y-66470297D01*
X169502882Y-66455736D01*
X169506459Y-66441457D01*
X169511418Y-66427597D01*
X169517712Y-66414290D01*
X169525280Y-66401664D01*
X169534048Y-66389841D01*
X169543934Y-66378934D01*
X169554841Y-66369048D01*
X169566664Y-66360280D01*
X169579290Y-66352712D01*
X169592597Y-66346418D01*
X169606457Y-66341459D01*
X169620736Y-66337882D01*
X169635297Y-66335722D01*
X169650000Y-66335000D01*
X171300000Y-66335000D01*
X171314703Y-66335722D01*
G37*
G36*
X171314703Y-67605722D02*
G01*
X171329264Y-67607882D01*
X171343543Y-67611459D01*
X171357403Y-67616418D01*
X171370710Y-67622712D01*
X171383336Y-67630280D01*
X171395159Y-67639048D01*
X171406066Y-67648934D01*
X171415952Y-67659841D01*
X171424720Y-67671664D01*
X171432288Y-67684290D01*
X171438582Y-67697597D01*
X171443541Y-67711457D01*
X171447118Y-67725736D01*
X171449278Y-67740297D01*
X171450000Y-67755000D01*
X171450000Y-68055000D01*
X171449278Y-68069703D01*
X171447118Y-68084264D01*
X171443541Y-68098543D01*
X171438582Y-68112403D01*
X171432288Y-68125710D01*
X171424720Y-68138336D01*
X171415952Y-68150159D01*
X171406066Y-68161066D01*
X171395159Y-68170952D01*
X171383336Y-68179720D01*
X171370710Y-68187288D01*
X171357403Y-68193582D01*
X171343543Y-68198541D01*
X171329264Y-68202118D01*
X171314703Y-68204278D01*
X171300000Y-68205000D01*
X169650000Y-68205000D01*
X169635297Y-68204278D01*
X169620736Y-68202118D01*
X169606457Y-68198541D01*
X169592597Y-68193582D01*
X169579290Y-68187288D01*
X169566664Y-68179720D01*
X169554841Y-68170952D01*
X169543934Y-68161066D01*
X169534048Y-68150159D01*
X169525280Y-68138336D01*
X169517712Y-68125710D01*
X169511418Y-68112403D01*
X169506459Y-68098543D01*
X169502882Y-68084264D01*
X169500722Y-68069703D01*
X169500000Y-68055000D01*
X169500000Y-67755000D01*
X169500722Y-67740297D01*
X169502882Y-67725736D01*
X169506459Y-67711457D01*
X169511418Y-67697597D01*
X169517712Y-67684290D01*
X169525280Y-67671664D01*
X169534048Y-67659841D01*
X169543934Y-67648934D01*
X169554841Y-67639048D01*
X169566664Y-67630280D01*
X169579290Y-67622712D01*
X169592597Y-67616418D01*
X169606457Y-67611459D01*
X169620736Y-67607882D01*
X169635297Y-67605722D01*
X169650000Y-67605000D01*
X171300000Y-67605000D01*
X171314703Y-67605722D01*
G37*
G36*
X158739703Y-76970722D02*
G01*
X158754264Y-76972882D01*
X158768543Y-76976459D01*
X158782403Y-76981418D01*
X158795710Y-76987712D01*
X158808336Y-76995280D01*
X158820159Y-77004048D01*
X158831066Y-77013934D01*
X158840952Y-77024841D01*
X158849720Y-77036664D01*
X158857288Y-77049290D01*
X158863582Y-77062597D01*
X158868541Y-77076457D01*
X158872118Y-77090736D01*
X158874278Y-77105297D01*
X158875000Y-77120000D01*
X158875000Y-77420000D01*
X158874278Y-77434703D01*
X158872118Y-77449264D01*
X158868541Y-77463543D01*
X158863582Y-77477403D01*
X158857288Y-77490710D01*
X158849720Y-77503336D01*
X158840952Y-77515159D01*
X158831066Y-77526066D01*
X158820159Y-77535952D01*
X158808336Y-77544720D01*
X158795710Y-77552288D01*
X158782403Y-77558582D01*
X158768543Y-77563541D01*
X158754264Y-77567118D01*
X158739703Y-77569278D01*
X158725000Y-77570000D01*
X157375000Y-77570000D01*
X157360297Y-77569278D01*
X157345736Y-77567118D01*
X157331457Y-77563541D01*
X157317597Y-77558582D01*
X157304290Y-77552288D01*
X157291664Y-77544720D01*
X157279841Y-77535952D01*
X157268934Y-77526066D01*
X157259048Y-77515159D01*
X157250280Y-77503336D01*
X157242712Y-77490710D01*
X157236418Y-77477403D01*
X157231459Y-77463543D01*
X157227882Y-77449264D01*
X157225722Y-77434703D01*
X157225000Y-77420000D01*
X157225000Y-77120000D01*
X157225722Y-77105297D01*
X157227882Y-77090736D01*
X157231459Y-77076457D01*
X157236418Y-77062597D01*
X157242712Y-77049290D01*
X157250280Y-77036664D01*
X157259048Y-77024841D01*
X157268934Y-77013934D01*
X157279841Y-77004048D01*
X157291664Y-76995280D01*
X157304290Y-76987712D01*
X157317597Y-76981418D01*
X157331457Y-76976459D01*
X157345736Y-76972882D01*
X157360297Y-76970722D01*
X157375000Y-76970000D01*
X158725000Y-76970000D01*
X158739703Y-76970722D01*
G37*
G36*
X158739703Y-78240722D02*
G01*
X158754264Y-78242882D01*
X158768543Y-78246459D01*
X158782403Y-78251418D01*
X158795710Y-78257712D01*
X158808336Y-78265280D01*
X158820159Y-78274048D01*
X158831066Y-78283934D01*
X158840952Y-78294841D01*
X158849720Y-78306664D01*
X158857288Y-78319290D01*
X158863582Y-78332597D01*
X158868541Y-78346457D01*
X158872118Y-78360736D01*
X158874278Y-78375297D01*
X158875000Y-78390000D01*
X158875000Y-78690000D01*
X158874278Y-78704703D01*
X158872118Y-78719264D01*
X158868541Y-78733543D01*
X158863582Y-78747403D01*
X158857288Y-78760710D01*
X158849720Y-78773336D01*
X158840952Y-78785159D01*
X158831066Y-78796066D01*
X158820159Y-78805952D01*
X158808336Y-78814720D01*
X158795710Y-78822288D01*
X158782403Y-78828582D01*
X158768543Y-78833541D01*
X158754264Y-78837118D01*
X158739703Y-78839278D01*
X158725000Y-78840000D01*
X157375000Y-78840000D01*
X157360297Y-78839278D01*
X157345736Y-78837118D01*
X157331457Y-78833541D01*
X157317597Y-78828582D01*
X157304290Y-78822288D01*
X157291664Y-78814720D01*
X157279841Y-78805952D01*
X157268934Y-78796066D01*
X157259048Y-78785159D01*
X157250280Y-78773336D01*
X157242712Y-78760710D01*
X157236418Y-78747403D01*
X157231459Y-78733543D01*
X157227882Y-78719264D01*
X157225722Y-78704703D01*
X157225000Y-78690000D01*
X157225000Y-78390000D01*
X157225722Y-78375297D01*
X157227882Y-78360736D01*
X157231459Y-78346457D01*
X157236418Y-78332597D01*
X157242712Y-78319290D01*
X157250280Y-78306664D01*
X157259048Y-78294841D01*
X157268934Y-78283934D01*
X157279841Y-78274048D01*
X157291664Y-78265280D01*
X157304290Y-78257712D01*
X157317597Y-78251418D01*
X157331457Y-78246459D01*
X157345736Y-78242882D01*
X157360297Y-78240722D01*
X157375000Y-78240000D01*
X158725000Y-78240000D01*
X158739703Y-78240722D01*
G37*
G36*
X158739703Y-79510722D02*
G01*
X158754264Y-79512882D01*
X158768543Y-79516459D01*
X158782403Y-79521418D01*
X158795710Y-79527712D01*
X158808336Y-79535280D01*
X158820159Y-79544048D01*
X158831066Y-79553934D01*
X158840952Y-79564841D01*
X158849720Y-79576664D01*
X158857288Y-79589290D01*
X158863582Y-79602597D01*
X158868541Y-79616457D01*
X158872118Y-79630736D01*
X158874278Y-79645297D01*
X158875000Y-79660000D01*
X158875000Y-79960000D01*
X158874278Y-79974703D01*
X158872118Y-79989264D01*
X158868541Y-80003543D01*
X158863582Y-80017403D01*
X158857288Y-80030710D01*
X158849720Y-80043336D01*
X158840952Y-80055159D01*
X158831066Y-80066066D01*
X158820159Y-80075952D01*
X158808336Y-80084720D01*
X158795710Y-80092288D01*
X158782403Y-80098582D01*
X158768543Y-80103541D01*
X158754264Y-80107118D01*
X158739703Y-80109278D01*
X158725000Y-80110000D01*
X157375000Y-80110000D01*
X157360297Y-80109278D01*
X157345736Y-80107118D01*
X157331457Y-80103541D01*
X157317597Y-80098582D01*
X157304290Y-80092288D01*
X157291664Y-80084720D01*
X157279841Y-80075952D01*
X157268934Y-80066066D01*
X157259048Y-80055159D01*
X157250280Y-80043336D01*
X157242712Y-80030710D01*
X157236418Y-80017403D01*
X157231459Y-80003543D01*
X157227882Y-79989264D01*
X157225722Y-79974703D01*
X157225000Y-79960000D01*
X157225000Y-79660000D01*
X157225722Y-79645297D01*
X157227882Y-79630736D01*
X157231459Y-79616457D01*
X157236418Y-79602597D01*
X157242712Y-79589290D01*
X157250280Y-79576664D01*
X157259048Y-79564841D01*
X157268934Y-79553934D01*
X157279841Y-79544048D01*
X157291664Y-79535280D01*
X157304290Y-79527712D01*
X157317597Y-79521418D01*
X157331457Y-79516459D01*
X157345736Y-79512882D01*
X157360297Y-79510722D01*
X157375000Y-79510000D01*
X158725000Y-79510000D01*
X158739703Y-79510722D01*
G37*
G36*
X158739703Y-80780722D02*
G01*
X158754264Y-80782882D01*
X158768543Y-80786459D01*
X158782403Y-80791418D01*
X158795710Y-80797712D01*
X158808336Y-80805280D01*
X158820159Y-80814048D01*
X158831066Y-80823934D01*
X158840952Y-80834841D01*
X158849720Y-80846664D01*
X158857288Y-80859290D01*
X158863582Y-80872597D01*
X158868541Y-80886457D01*
X158872118Y-80900736D01*
X158874278Y-80915297D01*
X158875000Y-80930000D01*
X158875000Y-81230000D01*
X158874278Y-81244703D01*
X158872118Y-81259264D01*
X158868541Y-81273543D01*
X158863582Y-81287403D01*
X158857288Y-81300710D01*
X158849720Y-81313336D01*
X158840952Y-81325159D01*
X158831066Y-81336066D01*
X158820159Y-81345952D01*
X158808336Y-81354720D01*
X158795710Y-81362288D01*
X158782403Y-81368582D01*
X158768543Y-81373541D01*
X158754264Y-81377118D01*
X158739703Y-81379278D01*
X158725000Y-81380000D01*
X157375000Y-81380000D01*
X157360297Y-81379278D01*
X157345736Y-81377118D01*
X157331457Y-81373541D01*
X157317597Y-81368582D01*
X157304290Y-81362288D01*
X157291664Y-81354720D01*
X157279841Y-81345952D01*
X157268934Y-81336066D01*
X157259048Y-81325159D01*
X157250280Y-81313336D01*
X157242712Y-81300710D01*
X157236418Y-81287403D01*
X157231459Y-81273543D01*
X157227882Y-81259264D01*
X157225722Y-81244703D01*
X157225000Y-81230000D01*
X157225000Y-80930000D01*
X157225722Y-80915297D01*
X157227882Y-80900736D01*
X157231459Y-80886457D01*
X157236418Y-80872597D01*
X157242712Y-80859290D01*
X157250280Y-80846664D01*
X157259048Y-80834841D01*
X157268934Y-80823934D01*
X157279841Y-80814048D01*
X157291664Y-80805280D01*
X157304290Y-80797712D01*
X157317597Y-80791418D01*
X157331457Y-80786459D01*
X157345736Y-80782882D01*
X157360297Y-80780722D01*
X157375000Y-80780000D01*
X158725000Y-80780000D01*
X158739703Y-80780722D01*
G37*
G36*
X153489703Y-80780722D02*
G01*
X153504264Y-80782882D01*
X153518543Y-80786459D01*
X153532403Y-80791418D01*
X153545710Y-80797712D01*
X153558336Y-80805280D01*
X153570159Y-80814048D01*
X153581066Y-80823934D01*
X153590952Y-80834841D01*
X153599720Y-80846664D01*
X153607288Y-80859290D01*
X153613582Y-80872597D01*
X153618541Y-80886457D01*
X153622118Y-80900736D01*
X153624278Y-80915297D01*
X153625000Y-80930000D01*
X153625000Y-81230000D01*
X153624278Y-81244703D01*
X153622118Y-81259264D01*
X153618541Y-81273543D01*
X153613582Y-81287403D01*
X153607288Y-81300710D01*
X153599720Y-81313336D01*
X153590952Y-81325159D01*
X153581066Y-81336066D01*
X153570159Y-81345952D01*
X153558336Y-81354720D01*
X153545710Y-81362288D01*
X153532403Y-81368582D01*
X153518543Y-81373541D01*
X153504264Y-81377118D01*
X153489703Y-81379278D01*
X153475000Y-81380000D01*
X152125000Y-81380000D01*
X152110297Y-81379278D01*
X152095736Y-81377118D01*
X152081457Y-81373541D01*
X152067597Y-81368582D01*
X152054290Y-81362288D01*
X152041664Y-81354720D01*
X152029841Y-81345952D01*
X152018934Y-81336066D01*
X152009048Y-81325159D01*
X152000280Y-81313336D01*
X151992712Y-81300710D01*
X151986418Y-81287403D01*
X151981459Y-81273543D01*
X151977882Y-81259264D01*
X151975722Y-81244703D01*
X151975000Y-81230000D01*
X151975000Y-80930000D01*
X151975722Y-80915297D01*
X151977882Y-80900736D01*
X151981459Y-80886457D01*
X151986418Y-80872597D01*
X151992712Y-80859290D01*
X152000280Y-80846664D01*
X152009048Y-80834841D01*
X152018934Y-80823934D01*
X152029841Y-80814048D01*
X152041664Y-80805280D01*
X152054290Y-80797712D01*
X152067597Y-80791418D01*
X152081457Y-80786459D01*
X152095736Y-80782882D01*
X152110297Y-80780722D01*
X152125000Y-80780000D01*
X153475000Y-80780000D01*
X153489703Y-80780722D01*
G37*
G36*
X153489703Y-79510722D02*
G01*
X153504264Y-79512882D01*
X153518543Y-79516459D01*
X153532403Y-79521418D01*
X153545710Y-79527712D01*
X153558336Y-79535280D01*
X153570159Y-79544048D01*
X153581066Y-79553934D01*
X153590952Y-79564841D01*
X153599720Y-79576664D01*
X153607288Y-79589290D01*
X153613582Y-79602597D01*
X153618541Y-79616457D01*
X153622118Y-79630736D01*
X153624278Y-79645297D01*
X153625000Y-79660000D01*
X153625000Y-79960000D01*
X153624278Y-79974703D01*
X153622118Y-79989264D01*
X153618541Y-80003543D01*
X153613582Y-80017403D01*
X153607288Y-80030710D01*
X153599720Y-80043336D01*
X153590952Y-80055159D01*
X153581066Y-80066066D01*
X153570159Y-80075952D01*
X153558336Y-80084720D01*
X153545710Y-80092288D01*
X153532403Y-80098582D01*
X153518543Y-80103541D01*
X153504264Y-80107118D01*
X153489703Y-80109278D01*
X153475000Y-80110000D01*
X152125000Y-80110000D01*
X152110297Y-80109278D01*
X152095736Y-80107118D01*
X152081457Y-80103541D01*
X152067597Y-80098582D01*
X152054290Y-80092288D01*
X152041664Y-80084720D01*
X152029841Y-80075952D01*
X152018934Y-80066066D01*
X152009048Y-80055159D01*
X152000280Y-80043336D01*
X151992712Y-80030710D01*
X151986418Y-80017403D01*
X151981459Y-80003543D01*
X151977882Y-79989264D01*
X151975722Y-79974703D01*
X151975000Y-79960000D01*
X151975000Y-79660000D01*
X151975722Y-79645297D01*
X151977882Y-79630736D01*
X151981459Y-79616457D01*
X151986418Y-79602597D01*
X151992712Y-79589290D01*
X152000280Y-79576664D01*
X152009048Y-79564841D01*
X152018934Y-79553934D01*
X152029841Y-79544048D01*
X152041664Y-79535280D01*
X152054290Y-79527712D01*
X152067597Y-79521418D01*
X152081457Y-79516459D01*
X152095736Y-79512882D01*
X152110297Y-79510722D01*
X152125000Y-79510000D01*
X153475000Y-79510000D01*
X153489703Y-79510722D01*
G37*
G36*
X153489703Y-78240722D02*
G01*
X153504264Y-78242882D01*
X153518543Y-78246459D01*
X153532403Y-78251418D01*
X153545710Y-78257712D01*
X153558336Y-78265280D01*
X153570159Y-78274048D01*
X153581066Y-78283934D01*
X153590952Y-78294841D01*
X153599720Y-78306664D01*
X153607288Y-78319290D01*
X153613582Y-78332597D01*
X153618541Y-78346457D01*
X153622118Y-78360736D01*
X153624278Y-78375297D01*
X153625000Y-78390000D01*
X153625000Y-78690000D01*
X153624278Y-78704703D01*
X153622118Y-78719264D01*
X153618541Y-78733543D01*
X153613582Y-78747403D01*
X153607288Y-78760710D01*
X153599720Y-78773336D01*
X153590952Y-78785159D01*
X153581066Y-78796066D01*
X153570159Y-78805952D01*
X153558336Y-78814720D01*
X153545710Y-78822288D01*
X153532403Y-78828582D01*
X153518543Y-78833541D01*
X153504264Y-78837118D01*
X153489703Y-78839278D01*
X153475000Y-78840000D01*
X152125000Y-78840000D01*
X152110297Y-78839278D01*
X152095736Y-78837118D01*
X152081457Y-78833541D01*
X152067597Y-78828582D01*
X152054290Y-78822288D01*
X152041664Y-78814720D01*
X152029841Y-78805952D01*
X152018934Y-78796066D01*
X152009048Y-78785159D01*
X152000280Y-78773336D01*
X151992712Y-78760710D01*
X151986418Y-78747403D01*
X151981459Y-78733543D01*
X151977882Y-78719264D01*
X151975722Y-78704703D01*
X151975000Y-78690000D01*
X151975000Y-78390000D01*
X151975722Y-78375297D01*
X151977882Y-78360736D01*
X151981459Y-78346457D01*
X151986418Y-78332597D01*
X151992712Y-78319290D01*
X152000280Y-78306664D01*
X152009048Y-78294841D01*
X152018934Y-78283934D01*
X152029841Y-78274048D01*
X152041664Y-78265280D01*
X152054290Y-78257712D01*
X152067597Y-78251418D01*
X152081457Y-78246459D01*
X152095736Y-78242882D01*
X152110297Y-78240722D01*
X152125000Y-78240000D01*
X153475000Y-78240000D01*
X153489703Y-78240722D01*
G37*
G36*
X153489703Y-76970722D02*
G01*
X153504264Y-76972882D01*
X153518543Y-76976459D01*
X153532403Y-76981418D01*
X153545710Y-76987712D01*
X153558336Y-76995280D01*
X153570159Y-77004048D01*
X153581066Y-77013934D01*
X153590952Y-77024841D01*
X153599720Y-77036664D01*
X153607288Y-77049290D01*
X153613582Y-77062597D01*
X153618541Y-77076457D01*
X153622118Y-77090736D01*
X153624278Y-77105297D01*
X153625000Y-77120000D01*
X153625000Y-77420000D01*
X153624278Y-77434703D01*
X153622118Y-77449264D01*
X153618541Y-77463543D01*
X153613582Y-77477403D01*
X153607288Y-77490710D01*
X153599720Y-77503336D01*
X153590952Y-77515159D01*
X153581066Y-77526066D01*
X153570159Y-77535952D01*
X153558336Y-77544720D01*
X153545710Y-77552288D01*
X153532403Y-77558582D01*
X153518543Y-77563541D01*
X153504264Y-77567118D01*
X153489703Y-77569278D01*
X153475000Y-77570000D01*
X152125000Y-77570000D01*
X152110297Y-77569278D01*
X152095736Y-77567118D01*
X152081457Y-77563541D01*
X152067597Y-77558582D01*
X152054290Y-77552288D01*
X152041664Y-77544720D01*
X152029841Y-77535952D01*
X152018934Y-77526066D01*
X152009048Y-77515159D01*
X152000280Y-77503336D01*
X151992712Y-77490710D01*
X151986418Y-77477403D01*
X151981459Y-77463543D01*
X151977882Y-77449264D01*
X151975722Y-77434703D01*
X151975000Y-77420000D01*
X151975000Y-77120000D01*
X151975722Y-77105297D01*
X151977882Y-77090736D01*
X151981459Y-77076457D01*
X151986418Y-77062597D01*
X151992712Y-77049290D01*
X152000280Y-77036664D01*
X152009048Y-77024841D01*
X152018934Y-77013934D01*
X152029841Y-77004048D01*
X152041664Y-76995280D01*
X152054290Y-76987712D01*
X152067597Y-76981418D01*
X152081457Y-76976459D01*
X152095736Y-76972882D01*
X152110297Y-76970722D01*
X152125000Y-76970000D01*
X153475000Y-76970000D01*
X153489703Y-76970722D01*
G37*
D14*
X134130000Y-80750000D03*
X134130000Y-74750000D03*
X136670000Y-74750000D03*
X136670000Y-80750000D03*
D15*
X129350000Y-68700000D03*
X127450000Y-68700000D03*
X127450000Y-66500000D03*
X128400000Y-66500000D03*
X129350000Y-66500000D03*
D10*
G36*
X147085779Y-80901144D02*
G01*
X147108834Y-80904563D01*
X147131443Y-80910227D01*
X147153387Y-80918079D01*
X147174457Y-80928044D01*
X147194448Y-80940026D01*
X147213168Y-80953910D01*
X147230438Y-80969562D01*
X147246090Y-80986832D01*
X147259974Y-81005552D01*
X147271956Y-81025543D01*
X147281921Y-81046613D01*
X147289773Y-81068557D01*
X147295437Y-81091166D01*
X147298856Y-81114221D01*
X147300000Y-81137500D01*
X147300000Y-81612500D01*
X147298856Y-81635779D01*
X147295437Y-81658834D01*
X147289773Y-81681443D01*
X147281921Y-81703387D01*
X147271956Y-81724457D01*
X147259974Y-81744448D01*
X147246090Y-81763168D01*
X147230438Y-81780438D01*
X147213168Y-81796090D01*
X147194448Y-81809974D01*
X147174457Y-81821956D01*
X147153387Y-81831921D01*
X147131443Y-81839773D01*
X147108834Y-81845437D01*
X147085779Y-81848856D01*
X147062500Y-81850000D01*
X146487500Y-81850000D01*
X146464221Y-81848856D01*
X146441166Y-81845437D01*
X146418557Y-81839773D01*
X146396613Y-81831921D01*
X146375543Y-81821956D01*
X146355552Y-81809974D01*
X146336832Y-81796090D01*
X146319562Y-81780438D01*
X146303910Y-81763168D01*
X146290026Y-81744448D01*
X146278044Y-81724457D01*
X146268079Y-81703387D01*
X146260227Y-81681443D01*
X146254563Y-81658834D01*
X146251144Y-81635779D01*
X146250000Y-81612500D01*
X146250000Y-81137500D01*
X146251144Y-81114221D01*
X146254563Y-81091166D01*
X146260227Y-81068557D01*
X146268079Y-81046613D01*
X146278044Y-81025543D01*
X146290026Y-81005552D01*
X146303910Y-80986832D01*
X146319562Y-80969562D01*
X146336832Y-80953910D01*
X146355552Y-80940026D01*
X146375543Y-80928044D01*
X146396613Y-80918079D01*
X146418557Y-80910227D01*
X146441166Y-80904563D01*
X146464221Y-80901144D01*
X146487500Y-80900000D01*
X147062500Y-80900000D01*
X147085779Y-80901144D01*
G37*
G36*
X148835779Y-80901144D02*
G01*
X148858834Y-80904563D01*
X148881443Y-80910227D01*
X148903387Y-80918079D01*
X148924457Y-80928044D01*
X148944448Y-80940026D01*
X148963168Y-80953910D01*
X148980438Y-80969562D01*
X148996090Y-80986832D01*
X149009974Y-81005552D01*
X149021956Y-81025543D01*
X149031921Y-81046613D01*
X149039773Y-81068557D01*
X149045437Y-81091166D01*
X149048856Y-81114221D01*
X149050000Y-81137500D01*
X149050000Y-81612500D01*
X149048856Y-81635779D01*
X149045437Y-81658834D01*
X149039773Y-81681443D01*
X149031921Y-81703387D01*
X149021956Y-81724457D01*
X149009974Y-81744448D01*
X148996090Y-81763168D01*
X148980438Y-81780438D01*
X148963168Y-81796090D01*
X148944448Y-81809974D01*
X148924457Y-81821956D01*
X148903387Y-81831921D01*
X148881443Y-81839773D01*
X148858834Y-81845437D01*
X148835779Y-81848856D01*
X148812500Y-81850000D01*
X148237500Y-81850000D01*
X148214221Y-81848856D01*
X148191166Y-81845437D01*
X148168557Y-81839773D01*
X148146613Y-81831921D01*
X148125543Y-81821956D01*
X148105552Y-81809974D01*
X148086832Y-81796090D01*
X148069562Y-81780438D01*
X148053910Y-81763168D01*
X148040026Y-81744448D01*
X148028044Y-81724457D01*
X148018079Y-81703387D01*
X148010227Y-81681443D01*
X148004563Y-81658834D01*
X148001144Y-81635779D01*
X148000000Y-81612500D01*
X148000000Y-81137500D01*
X148001144Y-81114221D01*
X148004563Y-81091166D01*
X148010227Y-81068557D01*
X148018079Y-81046613D01*
X148028044Y-81025543D01*
X148040026Y-81005552D01*
X148053910Y-80986832D01*
X148069562Y-80969562D01*
X148086832Y-80953910D01*
X148105552Y-80940026D01*
X148125543Y-80928044D01*
X148146613Y-80918079D01*
X148168557Y-80910227D01*
X148191166Y-80904563D01*
X148214221Y-80901144D01*
X148237500Y-80900000D01*
X148812500Y-80900000D01*
X148835779Y-80901144D01*
G37*
G36*
X147085779Y-79101144D02*
G01*
X147108834Y-79104563D01*
X147131443Y-79110227D01*
X147153387Y-79118079D01*
X147174457Y-79128044D01*
X147194448Y-79140026D01*
X147213168Y-79153910D01*
X147230438Y-79169562D01*
X147246090Y-79186832D01*
X147259974Y-79205552D01*
X147271956Y-79225543D01*
X147281921Y-79246613D01*
X147289773Y-79268557D01*
X147295437Y-79291166D01*
X147298856Y-79314221D01*
X147300000Y-79337500D01*
X147300000Y-79812500D01*
X147298856Y-79835779D01*
X147295437Y-79858834D01*
X147289773Y-79881443D01*
X147281921Y-79903387D01*
X147271956Y-79924457D01*
X147259974Y-79944448D01*
X147246090Y-79963168D01*
X147230438Y-79980438D01*
X147213168Y-79996090D01*
X147194448Y-80009974D01*
X147174457Y-80021956D01*
X147153387Y-80031921D01*
X147131443Y-80039773D01*
X147108834Y-80045437D01*
X147085779Y-80048856D01*
X147062500Y-80050000D01*
X146487500Y-80050000D01*
X146464221Y-80048856D01*
X146441166Y-80045437D01*
X146418557Y-80039773D01*
X146396613Y-80031921D01*
X146375543Y-80021956D01*
X146355552Y-80009974D01*
X146336832Y-79996090D01*
X146319562Y-79980438D01*
X146303910Y-79963168D01*
X146290026Y-79944448D01*
X146278044Y-79924457D01*
X146268079Y-79903387D01*
X146260227Y-79881443D01*
X146254563Y-79858834D01*
X146251144Y-79835779D01*
X146250000Y-79812500D01*
X146250000Y-79337500D01*
X146251144Y-79314221D01*
X146254563Y-79291166D01*
X146260227Y-79268557D01*
X146268079Y-79246613D01*
X146278044Y-79225543D01*
X146290026Y-79205552D01*
X146303910Y-79186832D01*
X146319562Y-79169562D01*
X146336832Y-79153910D01*
X146355552Y-79140026D01*
X146375543Y-79128044D01*
X146396613Y-79118079D01*
X146418557Y-79110227D01*
X146441166Y-79104563D01*
X146464221Y-79101144D01*
X146487500Y-79100000D01*
X147062500Y-79100000D01*
X147085779Y-79101144D01*
G37*
G36*
X148835779Y-79101144D02*
G01*
X148858834Y-79104563D01*
X148881443Y-79110227D01*
X148903387Y-79118079D01*
X148924457Y-79128044D01*
X148944448Y-79140026D01*
X148963168Y-79153910D01*
X148980438Y-79169562D01*
X148996090Y-79186832D01*
X149009974Y-79205552D01*
X149021956Y-79225543D01*
X149031921Y-79246613D01*
X149039773Y-79268557D01*
X149045437Y-79291166D01*
X149048856Y-79314221D01*
X149050000Y-79337500D01*
X149050000Y-79812500D01*
X149048856Y-79835779D01*
X149045437Y-79858834D01*
X149039773Y-79881443D01*
X149031921Y-79903387D01*
X149021956Y-79924457D01*
X149009974Y-79944448D01*
X148996090Y-79963168D01*
X148980438Y-79980438D01*
X148963168Y-79996090D01*
X148944448Y-80009974D01*
X148924457Y-80021956D01*
X148903387Y-80031921D01*
X148881443Y-80039773D01*
X148858834Y-80045437D01*
X148835779Y-80048856D01*
X148812500Y-80050000D01*
X148237500Y-80050000D01*
X148214221Y-80048856D01*
X148191166Y-80045437D01*
X148168557Y-80039773D01*
X148146613Y-80031921D01*
X148125543Y-80021956D01*
X148105552Y-80009974D01*
X148086832Y-79996090D01*
X148069562Y-79980438D01*
X148053910Y-79963168D01*
X148040026Y-79944448D01*
X148028044Y-79924457D01*
X148018079Y-79903387D01*
X148010227Y-79881443D01*
X148004563Y-79858834D01*
X148001144Y-79835779D01*
X148000000Y-79812500D01*
X148000000Y-79337500D01*
X148001144Y-79314221D01*
X148004563Y-79291166D01*
X148010227Y-79268557D01*
X148018079Y-79246613D01*
X148028044Y-79225543D01*
X148040026Y-79205552D01*
X148053910Y-79186832D01*
X148069562Y-79169562D01*
X148086832Y-79153910D01*
X148105552Y-79140026D01*
X148125543Y-79128044D01*
X148146613Y-79118079D01*
X148168557Y-79110227D01*
X148191166Y-79104563D01*
X148214221Y-79101144D01*
X148237500Y-79100000D01*
X148812500Y-79100000D01*
X148835779Y-79101144D01*
G37*
G36*
X139687004Y-82326204D02*
G01*
X139711273Y-82329804D01*
X139735071Y-82335765D01*
X139758171Y-82344030D01*
X139780349Y-82354520D01*
X139801393Y-82367133D01*
X139821098Y-82381747D01*
X139839277Y-82398223D01*
X139855753Y-82416402D01*
X139870367Y-82436107D01*
X139882980Y-82457151D01*
X139893470Y-82479329D01*
X139901735Y-82502429D01*
X139907696Y-82526227D01*
X139911296Y-82550496D01*
X139912500Y-82575000D01*
X139912500Y-83825000D01*
X139911296Y-83849504D01*
X139907696Y-83873773D01*
X139901735Y-83897571D01*
X139893470Y-83920671D01*
X139882980Y-83942849D01*
X139870367Y-83963893D01*
X139855753Y-83983598D01*
X139839277Y-84001777D01*
X139821098Y-84018253D01*
X139801393Y-84032867D01*
X139780349Y-84045480D01*
X139758171Y-84055970D01*
X139735071Y-84064235D01*
X139711273Y-84070196D01*
X139687004Y-84073796D01*
X139662500Y-84075000D01*
X138737500Y-84075000D01*
X138712996Y-84073796D01*
X138688727Y-84070196D01*
X138664929Y-84064235D01*
X138641829Y-84055970D01*
X138619651Y-84045480D01*
X138598607Y-84032867D01*
X138578902Y-84018253D01*
X138560723Y-84001777D01*
X138544247Y-83983598D01*
X138529633Y-83963893D01*
X138517020Y-83942849D01*
X138506530Y-83920671D01*
X138498265Y-83897571D01*
X138492304Y-83873773D01*
X138488704Y-83849504D01*
X138487500Y-83825000D01*
X138487500Y-82575000D01*
X138488704Y-82550496D01*
X138492304Y-82526227D01*
X138498265Y-82502429D01*
X138506530Y-82479329D01*
X138517020Y-82457151D01*
X138529633Y-82436107D01*
X138544247Y-82416402D01*
X138560723Y-82398223D01*
X138578902Y-82381747D01*
X138598607Y-82367133D01*
X138619651Y-82354520D01*
X138641829Y-82344030D01*
X138664929Y-82335765D01*
X138688727Y-82329804D01*
X138712996Y-82326204D01*
X138737500Y-82325000D01*
X139662500Y-82325000D01*
X139687004Y-82326204D01*
G37*
G36*
X142662004Y-82326204D02*
G01*
X142686273Y-82329804D01*
X142710071Y-82335765D01*
X142733171Y-82344030D01*
X142755349Y-82354520D01*
X142776393Y-82367133D01*
X142796098Y-82381747D01*
X142814277Y-82398223D01*
X142830753Y-82416402D01*
X142845367Y-82436107D01*
X142857980Y-82457151D01*
X142868470Y-82479329D01*
X142876735Y-82502429D01*
X142882696Y-82526227D01*
X142886296Y-82550496D01*
X142887500Y-82575000D01*
X142887500Y-83825000D01*
X142886296Y-83849504D01*
X142882696Y-83873773D01*
X142876735Y-83897571D01*
X142868470Y-83920671D01*
X142857980Y-83942849D01*
X142845367Y-83963893D01*
X142830753Y-83983598D01*
X142814277Y-84001777D01*
X142796098Y-84018253D01*
X142776393Y-84032867D01*
X142755349Y-84045480D01*
X142733171Y-84055970D01*
X142710071Y-84064235D01*
X142686273Y-84070196D01*
X142662004Y-84073796D01*
X142637500Y-84075000D01*
X141712500Y-84075000D01*
X141687996Y-84073796D01*
X141663727Y-84070196D01*
X141639929Y-84064235D01*
X141616829Y-84055970D01*
X141594651Y-84045480D01*
X141573607Y-84032867D01*
X141553902Y-84018253D01*
X141535723Y-84001777D01*
X141519247Y-83983598D01*
X141504633Y-83963893D01*
X141492020Y-83942849D01*
X141481530Y-83920671D01*
X141473265Y-83897571D01*
X141467304Y-83873773D01*
X141463704Y-83849504D01*
X141462500Y-83825000D01*
X141462500Y-82575000D01*
X141463704Y-82550496D01*
X141467304Y-82526227D01*
X141473265Y-82502429D01*
X141481530Y-82479329D01*
X141492020Y-82457151D01*
X141504633Y-82436107D01*
X141519247Y-82416402D01*
X141535723Y-82398223D01*
X141553902Y-82381747D01*
X141573607Y-82367133D01*
X141594651Y-82354520D01*
X141616829Y-82344030D01*
X141639929Y-82335765D01*
X141663727Y-82329804D01*
X141687996Y-82326204D01*
X141712500Y-82325000D01*
X142637500Y-82325000D01*
X142662004Y-82326204D01*
G37*
G36*
X128912004Y-79426204D02*
G01*
X128936273Y-79429804D01*
X128960071Y-79435765D01*
X128983171Y-79444030D01*
X129005349Y-79454520D01*
X129026393Y-79467133D01*
X129046098Y-79481747D01*
X129064277Y-79498223D01*
X129080753Y-79516402D01*
X129095367Y-79536107D01*
X129107980Y-79557151D01*
X129118470Y-79579329D01*
X129126735Y-79602429D01*
X129132696Y-79626227D01*
X129136296Y-79650496D01*
X129137500Y-79675000D01*
X129137500Y-80925000D01*
X129136296Y-80949504D01*
X129132696Y-80973773D01*
X129126735Y-80997571D01*
X129118470Y-81020671D01*
X129107980Y-81042849D01*
X129095367Y-81063893D01*
X129080753Y-81083598D01*
X129064277Y-81101777D01*
X129046098Y-81118253D01*
X129026393Y-81132867D01*
X129005349Y-81145480D01*
X128983171Y-81155970D01*
X128960071Y-81164235D01*
X128936273Y-81170196D01*
X128912004Y-81173796D01*
X128887500Y-81175000D01*
X127962500Y-81175000D01*
X127937996Y-81173796D01*
X127913727Y-81170196D01*
X127889929Y-81164235D01*
X127866829Y-81155970D01*
X127844651Y-81145480D01*
X127823607Y-81132867D01*
X127803902Y-81118253D01*
X127785723Y-81101777D01*
X127769247Y-81083598D01*
X127754633Y-81063893D01*
X127742020Y-81042849D01*
X127731530Y-81020671D01*
X127723265Y-80997571D01*
X127717304Y-80973773D01*
X127713704Y-80949504D01*
X127712500Y-80925000D01*
X127712500Y-79675000D01*
X127713704Y-79650496D01*
X127717304Y-79626227D01*
X127723265Y-79602429D01*
X127731530Y-79579329D01*
X127742020Y-79557151D01*
X127754633Y-79536107D01*
X127769247Y-79516402D01*
X127785723Y-79498223D01*
X127803902Y-79481747D01*
X127823607Y-79467133D01*
X127844651Y-79454520D01*
X127866829Y-79444030D01*
X127889929Y-79435765D01*
X127913727Y-79429804D01*
X127937996Y-79426204D01*
X127962500Y-79425000D01*
X128887500Y-79425000D01*
X128912004Y-79426204D01*
G37*
G36*
X131887004Y-79426204D02*
G01*
X131911273Y-79429804D01*
X131935071Y-79435765D01*
X131958171Y-79444030D01*
X131980349Y-79454520D01*
X132001393Y-79467133D01*
X132021098Y-79481747D01*
X132039277Y-79498223D01*
X132055753Y-79516402D01*
X132070367Y-79536107D01*
X132082980Y-79557151D01*
X132093470Y-79579329D01*
X132101735Y-79602429D01*
X132107696Y-79626227D01*
X132111296Y-79650496D01*
X132112500Y-79675000D01*
X132112500Y-80925000D01*
X132111296Y-80949504D01*
X132107696Y-80973773D01*
X132101735Y-80997571D01*
X132093470Y-81020671D01*
X132082980Y-81042849D01*
X132070367Y-81063893D01*
X132055753Y-81083598D01*
X132039277Y-81101777D01*
X132021098Y-81118253D01*
X132001393Y-81132867D01*
X131980349Y-81145480D01*
X131958171Y-81155970D01*
X131935071Y-81164235D01*
X131911273Y-81170196D01*
X131887004Y-81173796D01*
X131862500Y-81175000D01*
X130937500Y-81175000D01*
X130912996Y-81173796D01*
X130888727Y-81170196D01*
X130864929Y-81164235D01*
X130841829Y-81155970D01*
X130819651Y-81145480D01*
X130798607Y-81132867D01*
X130778902Y-81118253D01*
X130760723Y-81101777D01*
X130744247Y-81083598D01*
X130729633Y-81063893D01*
X130717020Y-81042849D01*
X130706530Y-81020671D01*
X130698265Y-80997571D01*
X130692304Y-80973773D01*
X130688704Y-80949504D01*
X130687500Y-80925000D01*
X130687500Y-79675000D01*
X130688704Y-79650496D01*
X130692304Y-79626227D01*
X130698265Y-79602429D01*
X130706530Y-79579329D01*
X130717020Y-79557151D01*
X130729633Y-79536107D01*
X130744247Y-79516402D01*
X130760723Y-79498223D01*
X130778902Y-79481747D01*
X130798607Y-79467133D01*
X130819651Y-79454520D01*
X130841829Y-79444030D01*
X130864929Y-79435765D01*
X130888727Y-79429804D01*
X130912996Y-79426204D01*
X130937500Y-79425000D01*
X131862500Y-79425000D01*
X131887004Y-79426204D01*
G37*
G36*
X139949504Y-77038704D02*
G01*
X139973773Y-77042304D01*
X139997571Y-77048265D01*
X140020671Y-77056530D01*
X140042849Y-77067020D01*
X140063893Y-77079633D01*
X140083598Y-77094247D01*
X140101777Y-77110723D01*
X140118253Y-77128902D01*
X140132867Y-77148607D01*
X140145480Y-77169651D01*
X140155970Y-77191829D01*
X140164235Y-77214929D01*
X140170196Y-77238727D01*
X140173796Y-77262996D01*
X140175000Y-77287500D01*
X140175000Y-78212500D01*
X140173796Y-78237004D01*
X140170196Y-78261273D01*
X140164235Y-78285071D01*
X140155970Y-78308171D01*
X140145480Y-78330349D01*
X140132867Y-78351393D01*
X140118253Y-78371098D01*
X140101777Y-78389277D01*
X140083598Y-78405753D01*
X140063893Y-78420367D01*
X140042849Y-78432980D01*
X140020671Y-78443470D01*
X139997571Y-78451735D01*
X139973773Y-78457696D01*
X139949504Y-78461296D01*
X139925000Y-78462500D01*
X138675000Y-78462500D01*
X138650496Y-78461296D01*
X138626227Y-78457696D01*
X138602429Y-78451735D01*
X138579329Y-78443470D01*
X138557151Y-78432980D01*
X138536107Y-78420367D01*
X138516402Y-78405753D01*
X138498223Y-78389277D01*
X138481747Y-78371098D01*
X138467133Y-78351393D01*
X138454520Y-78330349D01*
X138444030Y-78308171D01*
X138435765Y-78285071D01*
X138429804Y-78261273D01*
X138426204Y-78237004D01*
X138425000Y-78212500D01*
X138425000Y-77287500D01*
X138426204Y-77262996D01*
X138429804Y-77238727D01*
X138435765Y-77214929D01*
X138444030Y-77191829D01*
X138454520Y-77169651D01*
X138467133Y-77148607D01*
X138481747Y-77128902D01*
X138498223Y-77110723D01*
X138516402Y-77094247D01*
X138536107Y-77079633D01*
X138557151Y-77067020D01*
X138579329Y-77056530D01*
X138602429Y-77048265D01*
X138626227Y-77042304D01*
X138650496Y-77038704D01*
X138675000Y-77037500D01*
X139925000Y-77037500D01*
X139949504Y-77038704D01*
G37*
G36*
X139949504Y-80013704D02*
G01*
X139973773Y-80017304D01*
X139997571Y-80023265D01*
X140020671Y-80031530D01*
X140042849Y-80042020D01*
X140063893Y-80054633D01*
X140083598Y-80069247D01*
X140101777Y-80085723D01*
X140118253Y-80103902D01*
X140132867Y-80123607D01*
X140145480Y-80144651D01*
X140155970Y-80166829D01*
X140164235Y-80189929D01*
X140170196Y-80213727D01*
X140173796Y-80237996D01*
X140175000Y-80262500D01*
X140175000Y-81187500D01*
X140173796Y-81212004D01*
X140170196Y-81236273D01*
X140164235Y-81260071D01*
X140155970Y-81283171D01*
X140145480Y-81305349D01*
X140132867Y-81326393D01*
X140118253Y-81346098D01*
X140101777Y-81364277D01*
X140083598Y-81380753D01*
X140063893Y-81395367D01*
X140042849Y-81407980D01*
X140020671Y-81418470D01*
X139997571Y-81426735D01*
X139973773Y-81432696D01*
X139949504Y-81436296D01*
X139925000Y-81437500D01*
X138675000Y-81437500D01*
X138650496Y-81436296D01*
X138626227Y-81432696D01*
X138602429Y-81426735D01*
X138579329Y-81418470D01*
X138557151Y-81407980D01*
X138536107Y-81395367D01*
X138516402Y-81380753D01*
X138498223Y-81364277D01*
X138481747Y-81346098D01*
X138467133Y-81326393D01*
X138454520Y-81305349D01*
X138444030Y-81283171D01*
X138435765Y-81260071D01*
X138429804Y-81236273D01*
X138426204Y-81212004D01*
X138425000Y-81187500D01*
X138425000Y-80262500D01*
X138426204Y-80237996D01*
X138429804Y-80213727D01*
X138435765Y-80189929D01*
X138444030Y-80166829D01*
X138454520Y-80144651D01*
X138467133Y-80123607D01*
X138481747Y-80103902D01*
X138498223Y-80085723D01*
X138516402Y-80069247D01*
X138536107Y-80054633D01*
X138557151Y-80042020D01*
X138579329Y-80031530D01*
X138602429Y-80023265D01*
X138626227Y-80017304D01*
X138650496Y-80013704D01*
X138675000Y-80012500D01*
X139925000Y-80012500D01*
X139949504Y-80013704D01*
G37*
G36*
X134360779Y-70051144D02*
G01*
X134383834Y-70054563D01*
X134406443Y-70060227D01*
X134428387Y-70068079D01*
X134449457Y-70078044D01*
X134469448Y-70090026D01*
X134488168Y-70103910D01*
X134505438Y-70119562D01*
X134521090Y-70136832D01*
X134534974Y-70155552D01*
X134546956Y-70175543D01*
X134556921Y-70196613D01*
X134564773Y-70218557D01*
X134570437Y-70241166D01*
X134573856Y-70264221D01*
X134575000Y-70287500D01*
X134575000Y-70862500D01*
X134573856Y-70885779D01*
X134570437Y-70908834D01*
X134564773Y-70931443D01*
X134556921Y-70953387D01*
X134546956Y-70974457D01*
X134534974Y-70994448D01*
X134521090Y-71013168D01*
X134505438Y-71030438D01*
X134488168Y-71046090D01*
X134469448Y-71059974D01*
X134449457Y-71071956D01*
X134428387Y-71081921D01*
X134406443Y-71089773D01*
X134383834Y-71095437D01*
X134360779Y-71098856D01*
X134337500Y-71100000D01*
X133862500Y-71100000D01*
X133839221Y-71098856D01*
X133816166Y-71095437D01*
X133793557Y-71089773D01*
X133771613Y-71081921D01*
X133750543Y-71071956D01*
X133730552Y-71059974D01*
X133711832Y-71046090D01*
X133694562Y-71030438D01*
X133678910Y-71013168D01*
X133665026Y-70994448D01*
X133653044Y-70974457D01*
X133643079Y-70953387D01*
X133635227Y-70931443D01*
X133629563Y-70908834D01*
X133626144Y-70885779D01*
X133625000Y-70862500D01*
X133625000Y-70287500D01*
X133626144Y-70264221D01*
X133629563Y-70241166D01*
X133635227Y-70218557D01*
X133643079Y-70196613D01*
X133653044Y-70175543D01*
X133665026Y-70155552D01*
X133678910Y-70136832D01*
X133694562Y-70119562D01*
X133711832Y-70103910D01*
X133730552Y-70090026D01*
X133750543Y-70078044D01*
X133771613Y-70068079D01*
X133793557Y-70060227D01*
X133816166Y-70054563D01*
X133839221Y-70051144D01*
X133862500Y-70050000D01*
X134337500Y-70050000D01*
X134360779Y-70051144D01*
G37*
G36*
X134360779Y-71801144D02*
G01*
X134383834Y-71804563D01*
X134406443Y-71810227D01*
X134428387Y-71818079D01*
X134449457Y-71828044D01*
X134469448Y-71840026D01*
X134488168Y-71853910D01*
X134505438Y-71869562D01*
X134521090Y-71886832D01*
X134534974Y-71905552D01*
X134546956Y-71925543D01*
X134556921Y-71946613D01*
X134564773Y-71968557D01*
X134570437Y-71991166D01*
X134573856Y-72014221D01*
X134575000Y-72037500D01*
X134575000Y-72612500D01*
X134573856Y-72635779D01*
X134570437Y-72658834D01*
X134564773Y-72681443D01*
X134556921Y-72703387D01*
X134546956Y-72724457D01*
X134534974Y-72744448D01*
X134521090Y-72763168D01*
X134505438Y-72780438D01*
X134488168Y-72796090D01*
X134469448Y-72809974D01*
X134449457Y-72821956D01*
X134428387Y-72831921D01*
X134406443Y-72839773D01*
X134383834Y-72845437D01*
X134360779Y-72848856D01*
X134337500Y-72850000D01*
X133862500Y-72850000D01*
X133839221Y-72848856D01*
X133816166Y-72845437D01*
X133793557Y-72839773D01*
X133771613Y-72831921D01*
X133750543Y-72821956D01*
X133730552Y-72809974D01*
X133711832Y-72796090D01*
X133694562Y-72780438D01*
X133678910Y-72763168D01*
X133665026Y-72744448D01*
X133653044Y-72724457D01*
X133643079Y-72703387D01*
X133635227Y-72681443D01*
X133629563Y-72658834D01*
X133626144Y-72635779D01*
X133625000Y-72612500D01*
X133625000Y-72037500D01*
X133626144Y-72014221D01*
X133629563Y-71991166D01*
X133635227Y-71968557D01*
X133643079Y-71946613D01*
X133653044Y-71925543D01*
X133665026Y-71905552D01*
X133678910Y-71886832D01*
X133694562Y-71869562D01*
X133711832Y-71853910D01*
X133730552Y-71840026D01*
X133750543Y-71828044D01*
X133771613Y-71818079D01*
X133793557Y-71810227D01*
X133816166Y-71804563D01*
X133839221Y-71801144D01*
X133862500Y-71800000D01*
X134337500Y-71800000D01*
X134360779Y-71801144D01*
G37*
G36*
X136960779Y-70051144D02*
G01*
X136983834Y-70054563D01*
X137006443Y-70060227D01*
X137028387Y-70068079D01*
X137049457Y-70078044D01*
X137069448Y-70090026D01*
X137088168Y-70103910D01*
X137105438Y-70119562D01*
X137121090Y-70136832D01*
X137134974Y-70155552D01*
X137146956Y-70175543D01*
X137156921Y-70196613D01*
X137164773Y-70218557D01*
X137170437Y-70241166D01*
X137173856Y-70264221D01*
X137175000Y-70287500D01*
X137175000Y-70862500D01*
X137173856Y-70885779D01*
X137170437Y-70908834D01*
X137164773Y-70931443D01*
X137156921Y-70953387D01*
X137146956Y-70974457D01*
X137134974Y-70994448D01*
X137121090Y-71013168D01*
X137105438Y-71030438D01*
X137088168Y-71046090D01*
X137069448Y-71059974D01*
X137049457Y-71071956D01*
X137028387Y-71081921D01*
X137006443Y-71089773D01*
X136983834Y-71095437D01*
X136960779Y-71098856D01*
X136937500Y-71100000D01*
X136462500Y-71100000D01*
X136439221Y-71098856D01*
X136416166Y-71095437D01*
X136393557Y-71089773D01*
X136371613Y-71081921D01*
X136350543Y-71071956D01*
X136330552Y-71059974D01*
X136311832Y-71046090D01*
X136294562Y-71030438D01*
X136278910Y-71013168D01*
X136265026Y-70994448D01*
X136253044Y-70974457D01*
X136243079Y-70953387D01*
X136235227Y-70931443D01*
X136229563Y-70908834D01*
X136226144Y-70885779D01*
X136225000Y-70862500D01*
X136225000Y-70287500D01*
X136226144Y-70264221D01*
X136229563Y-70241166D01*
X136235227Y-70218557D01*
X136243079Y-70196613D01*
X136253044Y-70175543D01*
X136265026Y-70155552D01*
X136278910Y-70136832D01*
X136294562Y-70119562D01*
X136311832Y-70103910D01*
X136330552Y-70090026D01*
X136350543Y-70078044D01*
X136371613Y-70068079D01*
X136393557Y-70060227D01*
X136416166Y-70054563D01*
X136439221Y-70051144D01*
X136462500Y-70050000D01*
X136937500Y-70050000D01*
X136960779Y-70051144D01*
G37*
G36*
X136960779Y-71801144D02*
G01*
X136983834Y-71804563D01*
X137006443Y-71810227D01*
X137028387Y-71818079D01*
X137049457Y-71828044D01*
X137069448Y-71840026D01*
X137088168Y-71853910D01*
X137105438Y-71869562D01*
X137121090Y-71886832D01*
X137134974Y-71905552D01*
X137146956Y-71925543D01*
X137156921Y-71946613D01*
X137164773Y-71968557D01*
X137170437Y-71991166D01*
X137173856Y-72014221D01*
X137175000Y-72037500D01*
X137175000Y-72612500D01*
X137173856Y-72635779D01*
X137170437Y-72658834D01*
X137164773Y-72681443D01*
X137156921Y-72703387D01*
X137146956Y-72724457D01*
X137134974Y-72744448D01*
X137121090Y-72763168D01*
X137105438Y-72780438D01*
X137088168Y-72796090D01*
X137069448Y-72809974D01*
X137049457Y-72821956D01*
X137028387Y-72831921D01*
X137006443Y-72839773D01*
X136983834Y-72845437D01*
X136960779Y-72848856D01*
X136937500Y-72850000D01*
X136462500Y-72850000D01*
X136439221Y-72848856D01*
X136416166Y-72845437D01*
X136393557Y-72839773D01*
X136371613Y-72831921D01*
X136350543Y-72821956D01*
X136330552Y-72809974D01*
X136311832Y-72796090D01*
X136294562Y-72780438D01*
X136278910Y-72763168D01*
X136265026Y-72744448D01*
X136253044Y-72724457D01*
X136243079Y-72703387D01*
X136235227Y-72681443D01*
X136229563Y-72658834D01*
X136226144Y-72635779D01*
X136225000Y-72612500D01*
X136225000Y-72037500D01*
X136226144Y-72014221D01*
X136229563Y-71991166D01*
X136235227Y-71968557D01*
X136243079Y-71946613D01*
X136253044Y-71925543D01*
X136265026Y-71905552D01*
X136278910Y-71886832D01*
X136294562Y-71869562D01*
X136311832Y-71853910D01*
X136330552Y-71840026D01*
X136350543Y-71828044D01*
X136371613Y-71818079D01*
X136393557Y-71810227D01*
X136416166Y-71804563D01*
X136439221Y-71801144D01*
X136462500Y-71800000D01*
X136937500Y-71800000D01*
X136960779Y-71801144D01*
G37*
G36*
X155410779Y-91126144D02*
G01*
X155433834Y-91129563D01*
X155456443Y-91135227D01*
X155478387Y-91143079D01*
X155499457Y-91153044D01*
X155519448Y-91165026D01*
X155538168Y-91178910D01*
X155555438Y-91194562D01*
X155571090Y-91211832D01*
X155584974Y-91230552D01*
X155596956Y-91250543D01*
X155606921Y-91271613D01*
X155614773Y-91293557D01*
X155620437Y-91316166D01*
X155623856Y-91339221D01*
X155625000Y-91362500D01*
X155625000Y-91937500D01*
X155623856Y-91960779D01*
X155620437Y-91983834D01*
X155614773Y-92006443D01*
X155606921Y-92028387D01*
X155596956Y-92049457D01*
X155584974Y-92069448D01*
X155571090Y-92088168D01*
X155555438Y-92105438D01*
X155538168Y-92121090D01*
X155519448Y-92134974D01*
X155499457Y-92146956D01*
X155478387Y-92156921D01*
X155456443Y-92164773D01*
X155433834Y-92170437D01*
X155410779Y-92173856D01*
X155387500Y-92175000D01*
X154912500Y-92175000D01*
X154889221Y-92173856D01*
X154866166Y-92170437D01*
X154843557Y-92164773D01*
X154821613Y-92156921D01*
X154800543Y-92146956D01*
X154780552Y-92134974D01*
X154761832Y-92121090D01*
X154744562Y-92105438D01*
X154728910Y-92088168D01*
X154715026Y-92069448D01*
X154703044Y-92049457D01*
X154693079Y-92028387D01*
X154685227Y-92006443D01*
X154679563Y-91983834D01*
X154676144Y-91960779D01*
X154675000Y-91937500D01*
X154675000Y-91362500D01*
X154676144Y-91339221D01*
X154679563Y-91316166D01*
X154685227Y-91293557D01*
X154693079Y-91271613D01*
X154703044Y-91250543D01*
X154715026Y-91230552D01*
X154728910Y-91211832D01*
X154744562Y-91194562D01*
X154761832Y-91178910D01*
X154780552Y-91165026D01*
X154800543Y-91153044D01*
X154821613Y-91143079D01*
X154843557Y-91135227D01*
X154866166Y-91129563D01*
X154889221Y-91126144D01*
X154912500Y-91125000D01*
X155387500Y-91125000D01*
X155410779Y-91126144D01*
G37*
G36*
X155410779Y-89376144D02*
G01*
X155433834Y-89379563D01*
X155456443Y-89385227D01*
X155478387Y-89393079D01*
X155499457Y-89403044D01*
X155519448Y-89415026D01*
X155538168Y-89428910D01*
X155555438Y-89444562D01*
X155571090Y-89461832D01*
X155584974Y-89480552D01*
X155596956Y-89500543D01*
X155606921Y-89521613D01*
X155614773Y-89543557D01*
X155620437Y-89566166D01*
X155623856Y-89589221D01*
X155625000Y-89612500D01*
X155625000Y-90187500D01*
X155623856Y-90210779D01*
X155620437Y-90233834D01*
X155614773Y-90256443D01*
X155606921Y-90278387D01*
X155596956Y-90299457D01*
X155584974Y-90319448D01*
X155571090Y-90338168D01*
X155555438Y-90355438D01*
X155538168Y-90371090D01*
X155519448Y-90384974D01*
X155499457Y-90396956D01*
X155478387Y-90406921D01*
X155456443Y-90414773D01*
X155433834Y-90420437D01*
X155410779Y-90423856D01*
X155387500Y-90425000D01*
X154912500Y-90425000D01*
X154889221Y-90423856D01*
X154866166Y-90420437D01*
X154843557Y-90414773D01*
X154821613Y-90406921D01*
X154800543Y-90396956D01*
X154780552Y-90384974D01*
X154761832Y-90371090D01*
X154744562Y-90355438D01*
X154728910Y-90338168D01*
X154715026Y-90319448D01*
X154703044Y-90299457D01*
X154693079Y-90278387D01*
X154685227Y-90256443D01*
X154679563Y-90233834D01*
X154676144Y-90210779D01*
X154675000Y-90187500D01*
X154675000Y-89612500D01*
X154676144Y-89589221D01*
X154679563Y-89566166D01*
X154685227Y-89543557D01*
X154693079Y-89521613D01*
X154703044Y-89500543D01*
X154715026Y-89480552D01*
X154728910Y-89461832D01*
X154744562Y-89444562D01*
X154761832Y-89428910D01*
X154780552Y-89415026D01*
X154800543Y-89403044D01*
X154821613Y-89393079D01*
X154843557Y-89385227D01*
X154866166Y-89379563D01*
X154889221Y-89376144D01*
X154912500Y-89375000D01*
X155387500Y-89375000D01*
X155410779Y-89376144D01*
G37*
G36*
X170810779Y-75426144D02*
G01*
X170833834Y-75429563D01*
X170856443Y-75435227D01*
X170878387Y-75443079D01*
X170899457Y-75453044D01*
X170919448Y-75465026D01*
X170938168Y-75478910D01*
X170955438Y-75494562D01*
X170971090Y-75511832D01*
X170984974Y-75530552D01*
X170996956Y-75550543D01*
X171006921Y-75571613D01*
X171014773Y-75593557D01*
X171020437Y-75616166D01*
X171023856Y-75639221D01*
X171025000Y-75662500D01*
X171025000Y-76137500D01*
X171023856Y-76160779D01*
X171020437Y-76183834D01*
X171014773Y-76206443D01*
X171006921Y-76228387D01*
X170996956Y-76249457D01*
X170984974Y-76269448D01*
X170971090Y-76288168D01*
X170955438Y-76305438D01*
X170938168Y-76321090D01*
X170919448Y-76334974D01*
X170899457Y-76346956D01*
X170878387Y-76356921D01*
X170856443Y-76364773D01*
X170833834Y-76370437D01*
X170810779Y-76373856D01*
X170787500Y-76375000D01*
X170212500Y-76375000D01*
X170189221Y-76373856D01*
X170166166Y-76370437D01*
X170143557Y-76364773D01*
X170121613Y-76356921D01*
X170100543Y-76346956D01*
X170080552Y-76334974D01*
X170061832Y-76321090D01*
X170044562Y-76305438D01*
X170028910Y-76288168D01*
X170015026Y-76269448D01*
X170003044Y-76249457D01*
X169993079Y-76228387D01*
X169985227Y-76206443D01*
X169979563Y-76183834D01*
X169976144Y-76160779D01*
X169975000Y-76137500D01*
X169975000Y-75662500D01*
X169976144Y-75639221D01*
X169979563Y-75616166D01*
X169985227Y-75593557D01*
X169993079Y-75571613D01*
X170003044Y-75550543D01*
X170015026Y-75530552D01*
X170028910Y-75511832D01*
X170044562Y-75494562D01*
X170061832Y-75478910D01*
X170080552Y-75465026D01*
X170100543Y-75453044D01*
X170121613Y-75443079D01*
X170143557Y-75435227D01*
X170166166Y-75429563D01*
X170189221Y-75426144D01*
X170212500Y-75425000D01*
X170787500Y-75425000D01*
X170810779Y-75426144D01*
G37*
G36*
X172560779Y-75426144D02*
G01*
X172583834Y-75429563D01*
X172606443Y-75435227D01*
X172628387Y-75443079D01*
X172649457Y-75453044D01*
X172669448Y-75465026D01*
X172688168Y-75478910D01*
X172705438Y-75494562D01*
X172721090Y-75511832D01*
X172734974Y-75530552D01*
X172746956Y-75550543D01*
X172756921Y-75571613D01*
X172764773Y-75593557D01*
X172770437Y-75616166D01*
X172773856Y-75639221D01*
X172775000Y-75662500D01*
X172775000Y-76137500D01*
X172773856Y-76160779D01*
X172770437Y-76183834D01*
X172764773Y-76206443D01*
X172756921Y-76228387D01*
X172746956Y-76249457D01*
X172734974Y-76269448D01*
X172721090Y-76288168D01*
X172705438Y-76305438D01*
X172688168Y-76321090D01*
X172669448Y-76334974D01*
X172649457Y-76346956D01*
X172628387Y-76356921D01*
X172606443Y-76364773D01*
X172583834Y-76370437D01*
X172560779Y-76373856D01*
X172537500Y-76375000D01*
X171962500Y-76375000D01*
X171939221Y-76373856D01*
X171916166Y-76370437D01*
X171893557Y-76364773D01*
X171871613Y-76356921D01*
X171850543Y-76346956D01*
X171830552Y-76334974D01*
X171811832Y-76321090D01*
X171794562Y-76305438D01*
X171778910Y-76288168D01*
X171765026Y-76269448D01*
X171753044Y-76249457D01*
X171743079Y-76228387D01*
X171735227Y-76206443D01*
X171729563Y-76183834D01*
X171726144Y-76160779D01*
X171725000Y-76137500D01*
X171725000Y-75662500D01*
X171726144Y-75639221D01*
X171729563Y-75616166D01*
X171735227Y-75593557D01*
X171743079Y-75571613D01*
X171753044Y-75550543D01*
X171765026Y-75530552D01*
X171778910Y-75511832D01*
X171794562Y-75494562D01*
X171811832Y-75478910D01*
X171830552Y-75465026D01*
X171850543Y-75453044D01*
X171871613Y-75443079D01*
X171893557Y-75435227D01*
X171916166Y-75429563D01*
X171939221Y-75426144D01*
X171962500Y-75425000D01*
X172537500Y-75425000D01*
X172560779Y-75426144D01*
G37*
G36*
X165660779Y-69226144D02*
G01*
X165683834Y-69229563D01*
X165706443Y-69235227D01*
X165728387Y-69243079D01*
X165749457Y-69253044D01*
X165769448Y-69265026D01*
X165788168Y-69278910D01*
X165805438Y-69294562D01*
X165821090Y-69311832D01*
X165834974Y-69330552D01*
X165846956Y-69350543D01*
X165856921Y-69371613D01*
X165864773Y-69393557D01*
X165870437Y-69416166D01*
X165873856Y-69439221D01*
X165875000Y-69462500D01*
X165875000Y-70037500D01*
X165873856Y-70060779D01*
X165870437Y-70083834D01*
X165864773Y-70106443D01*
X165856921Y-70128387D01*
X165846956Y-70149457D01*
X165834974Y-70169448D01*
X165821090Y-70188168D01*
X165805438Y-70205438D01*
X165788168Y-70221090D01*
X165769448Y-70234974D01*
X165749457Y-70246956D01*
X165728387Y-70256921D01*
X165706443Y-70264773D01*
X165683834Y-70270437D01*
X165660779Y-70273856D01*
X165637500Y-70275000D01*
X165162500Y-70275000D01*
X165139221Y-70273856D01*
X165116166Y-70270437D01*
X165093557Y-70264773D01*
X165071613Y-70256921D01*
X165050543Y-70246956D01*
X165030552Y-70234974D01*
X165011832Y-70221090D01*
X164994562Y-70205438D01*
X164978910Y-70188168D01*
X164965026Y-70169448D01*
X164953044Y-70149457D01*
X164943079Y-70128387D01*
X164935227Y-70106443D01*
X164929563Y-70083834D01*
X164926144Y-70060779D01*
X164925000Y-70037500D01*
X164925000Y-69462500D01*
X164926144Y-69439221D01*
X164929563Y-69416166D01*
X164935227Y-69393557D01*
X164943079Y-69371613D01*
X164953044Y-69350543D01*
X164965026Y-69330552D01*
X164978910Y-69311832D01*
X164994562Y-69294562D01*
X165011832Y-69278910D01*
X165030552Y-69265026D01*
X165050543Y-69253044D01*
X165071613Y-69243079D01*
X165093557Y-69235227D01*
X165116166Y-69229563D01*
X165139221Y-69226144D01*
X165162500Y-69225000D01*
X165637500Y-69225000D01*
X165660779Y-69226144D01*
G37*
G36*
X165660779Y-70976144D02*
G01*
X165683834Y-70979563D01*
X165706443Y-70985227D01*
X165728387Y-70993079D01*
X165749457Y-71003044D01*
X165769448Y-71015026D01*
X165788168Y-71028910D01*
X165805438Y-71044562D01*
X165821090Y-71061832D01*
X165834974Y-71080552D01*
X165846956Y-71100543D01*
X165856921Y-71121613D01*
X165864773Y-71143557D01*
X165870437Y-71166166D01*
X165873856Y-71189221D01*
X165875000Y-71212500D01*
X165875000Y-71787500D01*
X165873856Y-71810779D01*
X165870437Y-71833834D01*
X165864773Y-71856443D01*
X165856921Y-71878387D01*
X165846956Y-71899457D01*
X165834974Y-71919448D01*
X165821090Y-71938168D01*
X165805438Y-71955438D01*
X165788168Y-71971090D01*
X165769448Y-71984974D01*
X165749457Y-71996956D01*
X165728387Y-72006921D01*
X165706443Y-72014773D01*
X165683834Y-72020437D01*
X165660779Y-72023856D01*
X165637500Y-72025000D01*
X165162500Y-72025000D01*
X165139221Y-72023856D01*
X165116166Y-72020437D01*
X165093557Y-72014773D01*
X165071613Y-72006921D01*
X165050543Y-71996956D01*
X165030552Y-71984974D01*
X165011832Y-71971090D01*
X164994562Y-71955438D01*
X164978910Y-71938168D01*
X164965026Y-71919448D01*
X164953044Y-71899457D01*
X164943079Y-71878387D01*
X164935227Y-71856443D01*
X164929563Y-71833834D01*
X164926144Y-71810779D01*
X164925000Y-71787500D01*
X164925000Y-71212500D01*
X164926144Y-71189221D01*
X164929563Y-71166166D01*
X164935227Y-71143557D01*
X164943079Y-71121613D01*
X164953044Y-71100543D01*
X164965026Y-71080552D01*
X164978910Y-71061832D01*
X164994562Y-71044562D01*
X165011832Y-71028910D01*
X165030552Y-71015026D01*
X165050543Y-71003044D01*
X165071613Y-70993079D01*
X165093557Y-70985227D01*
X165116166Y-70979563D01*
X165139221Y-70976144D01*
X165162500Y-70975000D01*
X165637500Y-70975000D01*
X165660779Y-70976144D01*
G37*
G36*
X163085779Y-77951144D02*
G01*
X163108834Y-77954563D01*
X163131443Y-77960227D01*
X163153387Y-77968079D01*
X163174457Y-77978044D01*
X163194448Y-77990026D01*
X163213168Y-78003910D01*
X163230438Y-78019562D01*
X163246090Y-78036832D01*
X163259974Y-78055552D01*
X163271956Y-78075543D01*
X163281921Y-78096613D01*
X163289773Y-78118557D01*
X163295437Y-78141166D01*
X163298856Y-78164221D01*
X163300000Y-78187500D01*
X163300000Y-78762500D01*
X163298856Y-78785779D01*
X163295437Y-78808834D01*
X163289773Y-78831443D01*
X163281921Y-78853387D01*
X163271956Y-78874457D01*
X163259974Y-78894448D01*
X163246090Y-78913168D01*
X163230438Y-78930438D01*
X163213168Y-78946090D01*
X163194448Y-78959974D01*
X163174457Y-78971956D01*
X163153387Y-78981921D01*
X163131443Y-78989773D01*
X163108834Y-78995437D01*
X163085779Y-78998856D01*
X163062500Y-79000000D01*
X162587500Y-79000000D01*
X162564221Y-78998856D01*
X162541166Y-78995437D01*
X162518557Y-78989773D01*
X162496613Y-78981921D01*
X162475543Y-78971956D01*
X162455552Y-78959974D01*
X162436832Y-78946090D01*
X162419562Y-78930438D01*
X162403910Y-78913168D01*
X162390026Y-78894448D01*
X162378044Y-78874457D01*
X162368079Y-78853387D01*
X162360227Y-78831443D01*
X162354563Y-78808834D01*
X162351144Y-78785779D01*
X162350000Y-78762500D01*
X162350000Y-78187500D01*
X162351144Y-78164221D01*
X162354563Y-78141166D01*
X162360227Y-78118557D01*
X162368079Y-78096613D01*
X162378044Y-78075543D01*
X162390026Y-78055552D01*
X162403910Y-78036832D01*
X162419562Y-78019562D01*
X162436832Y-78003910D01*
X162455552Y-77990026D01*
X162475543Y-77978044D01*
X162496613Y-77968079D01*
X162518557Y-77960227D01*
X162541166Y-77954563D01*
X162564221Y-77951144D01*
X162587500Y-77950000D01*
X163062500Y-77950000D01*
X163085779Y-77951144D01*
G37*
G36*
X163085779Y-76201144D02*
G01*
X163108834Y-76204563D01*
X163131443Y-76210227D01*
X163153387Y-76218079D01*
X163174457Y-76228044D01*
X163194448Y-76240026D01*
X163213168Y-76253910D01*
X163230438Y-76269562D01*
X163246090Y-76286832D01*
X163259974Y-76305552D01*
X163271956Y-76325543D01*
X163281921Y-76346613D01*
X163289773Y-76368557D01*
X163295437Y-76391166D01*
X163298856Y-76414221D01*
X163300000Y-76437500D01*
X163300000Y-77012500D01*
X163298856Y-77035779D01*
X163295437Y-77058834D01*
X163289773Y-77081443D01*
X163281921Y-77103387D01*
X163271956Y-77124457D01*
X163259974Y-77144448D01*
X163246090Y-77163168D01*
X163230438Y-77180438D01*
X163213168Y-77196090D01*
X163194448Y-77209974D01*
X163174457Y-77221956D01*
X163153387Y-77231921D01*
X163131443Y-77239773D01*
X163108834Y-77245437D01*
X163085779Y-77248856D01*
X163062500Y-77250000D01*
X162587500Y-77250000D01*
X162564221Y-77248856D01*
X162541166Y-77245437D01*
X162518557Y-77239773D01*
X162496613Y-77231921D01*
X162475543Y-77221956D01*
X162455552Y-77209974D01*
X162436832Y-77196090D01*
X162419562Y-77180438D01*
X162403910Y-77163168D01*
X162390026Y-77144448D01*
X162378044Y-77124457D01*
X162368079Y-77103387D01*
X162360227Y-77081443D01*
X162354563Y-77058834D01*
X162351144Y-77035779D01*
X162350000Y-77012500D01*
X162350000Y-76437500D01*
X162351144Y-76414221D01*
X162354563Y-76391166D01*
X162360227Y-76368557D01*
X162368079Y-76346613D01*
X162378044Y-76325543D01*
X162390026Y-76305552D01*
X162403910Y-76286832D01*
X162419562Y-76269562D01*
X162436832Y-76253910D01*
X162455552Y-76240026D01*
X162475543Y-76228044D01*
X162496613Y-76218079D01*
X162518557Y-76210227D01*
X162541166Y-76204563D01*
X162564221Y-76201144D01*
X162587500Y-76200000D01*
X163062500Y-76200000D01*
X163085779Y-76201144D01*
G37*
G36*
X170960779Y-69826144D02*
G01*
X170983834Y-69829563D01*
X171006443Y-69835227D01*
X171028387Y-69843079D01*
X171049457Y-69853044D01*
X171069448Y-69865026D01*
X171088168Y-69878910D01*
X171105438Y-69894562D01*
X171121090Y-69911832D01*
X171134974Y-69930552D01*
X171146956Y-69950543D01*
X171156921Y-69971613D01*
X171164773Y-69993557D01*
X171170437Y-70016166D01*
X171173856Y-70039221D01*
X171175000Y-70062500D01*
X171175000Y-70637500D01*
X171173856Y-70660779D01*
X171170437Y-70683834D01*
X171164773Y-70706443D01*
X171156921Y-70728387D01*
X171146956Y-70749457D01*
X171134974Y-70769448D01*
X171121090Y-70788168D01*
X171105438Y-70805438D01*
X171088168Y-70821090D01*
X171069448Y-70834974D01*
X171049457Y-70846956D01*
X171028387Y-70856921D01*
X171006443Y-70864773D01*
X170983834Y-70870437D01*
X170960779Y-70873856D01*
X170937500Y-70875000D01*
X170462500Y-70875000D01*
X170439221Y-70873856D01*
X170416166Y-70870437D01*
X170393557Y-70864773D01*
X170371613Y-70856921D01*
X170350543Y-70846956D01*
X170330552Y-70834974D01*
X170311832Y-70821090D01*
X170294562Y-70805438D01*
X170278910Y-70788168D01*
X170265026Y-70769448D01*
X170253044Y-70749457D01*
X170243079Y-70728387D01*
X170235227Y-70706443D01*
X170229563Y-70683834D01*
X170226144Y-70660779D01*
X170225000Y-70637500D01*
X170225000Y-70062500D01*
X170226144Y-70039221D01*
X170229563Y-70016166D01*
X170235227Y-69993557D01*
X170243079Y-69971613D01*
X170253044Y-69950543D01*
X170265026Y-69930552D01*
X170278910Y-69911832D01*
X170294562Y-69894562D01*
X170311832Y-69878910D01*
X170330552Y-69865026D01*
X170350543Y-69853044D01*
X170371613Y-69843079D01*
X170393557Y-69835227D01*
X170416166Y-69829563D01*
X170439221Y-69826144D01*
X170462500Y-69825000D01*
X170937500Y-69825000D01*
X170960779Y-69826144D01*
G37*
G36*
X170960779Y-71576144D02*
G01*
X170983834Y-71579563D01*
X171006443Y-71585227D01*
X171028387Y-71593079D01*
X171049457Y-71603044D01*
X171069448Y-71615026D01*
X171088168Y-71628910D01*
X171105438Y-71644562D01*
X171121090Y-71661832D01*
X171134974Y-71680552D01*
X171146956Y-71700543D01*
X171156921Y-71721613D01*
X171164773Y-71743557D01*
X171170437Y-71766166D01*
X171173856Y-71789221D01*
X171175000Y-71812500D01*
X171175000Y-72387500D01*
X171173856Y-72410779D01*
X171170437Y-72433834D01*
X171164773Y-72456443D01*
X171156921Y-72478387D01*
X171146956Y-72499457D01*
X171134974Y-72519448D01*
X171121090Y-72538168D01*
X171105438Y-72555438D01*
X171088168Y-72571090D01*
X171069448Y-72584974D01*
X171049457Y-72596956D01*
X171028387Y-72606921D01*
X171006443Y-72614773D01*
X170983834Y-72620437D01*
X170960779Y-72623856D01*
X170937500Y-72625000D01*
X170462500Y-72625000D01*
X170439221Y-72623856D01*
X170416166Y-72620437D01*
X170393557Y-72614773D01*
X170371613Y-72606921D01*
X170350543Y-72596956D01*
X170330552Y-72584974D01*
X170311832Y-72571090D01*
X170294562Y-72555438D01*
X170278910Y-72538168D01*
X170265026Y-72519448D01*
X170253044Y-72499457D01*
X170243079Y-72478387D01*
X170235227Y-72456443D01*
X170229563Y-72433834D01*
X170226144Y-72410779D01*
X170225000Y-72387500D01*
X170225000Y-71812500D01*
X170226144Y-71789221D01*
X170229563Y-71766166D01*
X170235227Y-71743557D01*
X170243079Y-71721613D01*
X170253044Y-71700543D01*
X170265026Y-71680552D01*
X170278910Y-71661832D01*
X170294562Y-71644562D01*
X170311832Y-71628910D01*
X170330552Y-71615026D01*
X170350543Y-71603044D01*
X170371613Y-71593079D01*
X170393557Y-71585227D01*
X170416166Y-71579563D01*
X170439221Y-71576144D01*
X170462500Y-71575000D01*
X170937500Y-71575000D01*
X170960779Y-71576144D01*
G37*
G36*
X131785779Y-88101144D02*
G01*
X131808834Y-88104563D01*
X131831443Y-88110227D01*
X131853387Y-88118079D01*
X131874457Y-88128044D01*
X131894448Y-88140026D01*
X131913168Y-88153910D01*
X131930438Y-88169562D01*
X131946090Y-88186832D01*
X131959974Y-88205552D01*
X131971956Y-88225543D01*
X131981921Y-88246613D01*
X131989773Y-88268557D01*
X131995437Y-88291166D01*
X131998856Y-88314221D01*
X132000000Y-88337500D01*
X132000000Y-88812500D01*
X131998856Y-88835779D01*
X131995437Y-88858834D01*
X131989773Y-88881443D01*
X131981921Y-88903387D01*
X131971956Y-88924457D01*
X131959974Y-88944448D01*
X131946090Y-88963168D01*
X131930438Y-88980438D01*
X131913168Y-88996090D01*
X131894448Y-89009974D01*
X131874457Y-89021956D01*
X131853387Y-89031921D01*
X131831443Y-89039773D01*
X131808834Y-89045437D01*
X131785779Y-89048856D01*
X131762500Y-89050000D01*
X131187500Y-89050000D01*
X131164221Y-89048856D01*
X131141166Y-89045437D01*
X131118557Y-89039773D01*
X131096613Y-89031921D01*
X131075543Y-89021956D01*
X131055552Y-89009974D01*
X131036832Y-88996090D01*
X131019562Y-88980438D01*
X131003910Y-88963168D01*
X130990026Y-88944448D01*
X130978044Y-88924457D01*
X130968079Y-88903387D01*
X130960227Y-88881443D01*
X130954563Y-88858834D01*
X130951144Y-88835779D01*
X130950000Y-88812500D01*
X130950000Y-88337500D01*
X130951144Y-88314221D01*
X130954563Y-88291166D01*
X130960227Y-88268557D01*
X130968079Y-88246613D01*
X130978044Y-88225543D01*
X130990026Y-88205552D01*
X131003910Y-88186832D01*
X131019562Y-88169562D01*
X131036832Y-88153910D01*
X131055552Y-88140026D01*
X131075543Y-88128044D01*
X131096613Y-88118079D01*
X131118557Y-88110227D01*
X131141166Y-88104563D01*
X131164221Y-88101144D01*
X131187500Y-88100000D01*
X131762500Y-88100000D01*
X131785779Y-88101144D01*
G37*
G36*
X133535779Y-88101144D02*
G01*
X133558834Y-88104563D01*
X133581443Y-88110227D01*
X133603387Y-88118079D01*
X133624457Y-88128044D01*
X133644448Y-88140026D01*
X133663168Y-88153910D01*
X133680438Y-88169562D01*
X133696090Y-88186832D01*
X133709974Y-88205552D01*
X133721956Y-88225543D01*
X133731921Y-88246613D01*
X133739773Y-88268557D01*
X133745437Y-88291166D01*
X133748856Y-88314221D01*
X133750000Y-88337500D01*
X133750000Y-88812500D01*
X133748856Y-88835779D01*
X133745437Y-88858834D01*
X133739773Y-88881443D01*
X133731921Y-88903387D01*
X133721956Y-88924457D01*
X133709974Y-88944448D01*
X133696090Y-88963168D01*
X133680438Y-88980438D01*
X133663168Y-88996090D01*
X133644448Y-89009974D01*
X133624457Y-89021956D01*
X133603387Y-89031921D01*
X133581443Y-89039773D01*
X133558834Y-89045437D01*
X133535779Y-89048856D01*
X133512500Y-89050000D01*
X132937500Y-89050000D01*
X132914221Y-89048856D01*
X132891166Y-89045437D01*
X132868557Y-89039773D01*
X132846613Y-89031921D01*
X132825543Y-89021956D01*
X132805552Y-89009974D01*
X132786832Y-88996090D01*
X132769562Y-88980438D01*
X132753910Y-88963168D01*
X132740026Y-88944448D01*
X132728044Y-88924457D01*
X132718079Y-88903387D01*
X132710227Y-88881443D01*
X132704563Y-88858834D01*
X132701144Y-88835779D01*
X132700000Y-88812500D01*
X132700000Y-88337500D01*
X132701144Y-88314221D01*
X132704563Y-88291166D01*
X132710227Y-88268557D01*
X132718079Y-88246613D01*
X132728044Y-88225543D01*
X132740026Y-88205552D01*
X132753910Y-88186832D01*
X132769562Y-88169562D01*
X132786832Y-88153910D01*
X132805552Y-88140026D01*
X132825543Y-88128044D01*
X132846613Y-88118079D01*
X132868557Y-88110227D01*
X132891166Y-88104563D01*
X132914221Y-88101144D01*
X132937500Y-88100000D01*
X133512500Y-88100000D01*
X133535779Y-88101144D01*
G37*
G36*
X148985779Y-76501144D02*
G01*
X149008834Y-76504563D01*
X149031443Y-76510227D01*
X149053387Y-76518079D01*
X149074457Y-76528044D01*
X149094448Y-76540026D01*
X149113168Y-76553910D01*
X149130438Y-76569562D01*
X149146090Y-76586832D01*
X149159974Y-76605552D01*
X149171956Y-76625543D01*
X149181921Y-76646613D01*
X149189773Y-76668557D01*
X149195437Y-76691166D01*
X149198856Y-76714221D01*
X149200000Y-76737500D01*
X149200000Y-77212500D01*
X149198856Y-77235779D01*
X149195437Y-77258834D01*
X149189773Y-77281443D01*
X149181921Y-77303387D01*
X149171956Y-77324457D01*
X149159974Y-77344448D01*
X149146090Y-77363168D01*
X149130438Y-77380438D01*
X149113168Y-77396090D01*
X149094448Y-77409974D01*
X149074457Y-77421956D01*
X149053387Y-77431921D01*
X149031443Y-77439773D01*
X149008834Y-77445437D01*
X148985779Y-77448856D01*
X148962500Y-77450000D01*
X148387500Y-77450000D01*
X148364221Y-77448856D01*
X148341166Y-77445437D01*
X148318557Y-77439773D01*
X148296613Y-77431921D01*
X148275543Y-77421956D01*
X148255552Y-77409974D01*
X148236832Y-77396090D01*
X148219562Y-77380438D01*
X148203910Y-77363168D01*
X148190026Y-77344448D01*
X148178044Y-77324457D01*
X148168079Y-77303387D01*
X148160227Y-77281443D01*
X148154563Y-77258834D01*
X148151144Y-77235779D01*
X148150000Y-77212500D01*
X148150000Y-76737500D01*
X148151144Y-76714221D01*
X148154563Y-76691166D01*
X148160227Y-76668557D01*
X148168079Y-76646613D01*
X148178044Y-76625543D01*
X148190026Y-76605552D01*
X148203910Y-76586832D01*
X148219562Y-76569562D01*
X148236832Y-76553910D01*
X148255552Y-76540026D01*
X148275543Y-76528044D01*
X148296613Y-76518079D01*
X148318557Y-76510227D01*
X148341166Y-76504563D01*
X148364221Y-76501144D01*
X148387500Y-76500000D01*
X148962500Y-76500000D01*
X148985779Y-76501144D01*
G37*
G36*
X150735779Y-76501144D02*
G01*
X150758834Y-76504563D01*
X150781443Y-76510227D01*
X150803387Y-76518079D01*
X150824457Y-76528044D01*
X150844448Y-76540026D01*
X150863168Y-76553910D01*
X150880438Y-76569562D01*
X150896090Y-76586832D01*
X150909974Y-76605552D01*
X150921956Y-76625543D01*
X150931921Y-76646613D01*
X150939773Y-76668557D01*
X150945437Y-76691166D01*
X150948856Y-76714221D01*
X150950000Y-76737500D01*
X150950000Y-77212500D01*
X150948856Y-77235779D01*
X150945437Y-77258834D01*
X150939773Y-77281443D01*
X150931921Y-77303387D01*
X150921956Y-77324457D01*
X150909974Y-77344448D01*
X150896090Y-77363168D01*
X150880438Y-77380438D01*
X150863168Y-77396090D01*
X150844448Y-77409974D01*
X150824457Y-77421956D01*
X150803387Y-77431921D01*
X150781443Y-77439773D01*
X150758834Y-77445437D01*
X150735779Y-77448856D01*
X150712500Y-77450000D01*
X150137500Y-77450000D01*
X150114221Y-77448856D01*
X150091166Y-77445437D01*
X150068557Y-77439773D01*
X150046613Y-77431921D01*
X150025543Y-77421956D01*
X150005552Y-77409974D01*
X149986832Y-77396090D01*
X149969562Y-77380438D01*
X149953910Y-77363168D01*
X149940026Y-77344448D01*
X149928044Y-77324457D01*
X149918079Y-77303387D01*
X149910227Y-77281443D01*
X149904563Y-77258834D01*
X149901144Y-77235779D01*
X149900000Y-77212500D01*
X149900000Y-76737500D01*
X149901144Y-76714221D01*
X149904563Y-76691166D01*
X149910227Y-76668557D01*
X149918079Y-76646613D01*
X149928044Y-76625543D01*
X149940026Y-76605552D01*
X149953910Y-76586832D01*
X149969562Y-76569562D01*
X149986832Y-76553910D01*
X150005552Y-76540026D01*
X150025543Y-76528044D01*
X150046613Y-76518079D01*
X150068557Y-76510227D01*
X150091166Y-76504563D01*
X150114221Y-76501144D01*
X150137500Y-76500000D01*
X150712500Y-76500000D01*
X150735779Y-76501144D01*
G37*
G36*
X150785779Y-78951144D02*
G01*
X150808834Y-78954563D01*
X150831443Y-78960227D01*
X150853387Y-78968079D01*
X150874457Y-78978044D01*
X150894448Y-78990026D01*
X150913168Y-79003910D01*
X150930438Y-79019562D01*
X150946090Y-79036832D01*
X150959974Y-79055552D01*
X150971956Y-79075543D01*
X150981921Y-79096613D01*
X150989773Y-79118557D01*
X150995437Y-79141166D01*
X150998856Y-79164221D01*
X151000000Y-79187500D01*
X151000000Y-79762500D01*
X150998856Y-79785779D01*
X150995437Y-79808834D01*
X150989773Y-79831443D01*
X150981921Y-79853387D01*
X150971956Y-79874457D01*
X150959974Y-79894448D01*
X150946090Y-79913168D01*
X150930438Y-79930438D01*
X150913168Y-79946090D01*
X150894448Y-79959974D01*
X150874457Y-79971956D01*
X150853387Y-79981921D01*
X150831443Y-79989773D01*
X150808834Y-79995437D01*
X150785779Y-79998856D01*
X150762500Y-80000000D01*
X150287500Y-80000000D01*
X150264221Y-79998856D01*
X150241166Y-79995437D01*
X150218557Y-79989773D01*
X150196613Y-79981921D01*
X150175543Y-79971956D01*
X150155552Y-79959974D01*
X150136832Y-79946090D01*
X150119562Y-79930438D01*
X150103910Y-79913168D01*
X150090026Y-79894448D01*
X150078044Y-79874457D01*
X150068079Y-79853387D01*
X150060227Y-79831443D01*
X150054563Y-79808834D01*
X150051144Y-79785779D01*
X150050000Y-79762500D01*
X150050000Y-79187500D01*
X150051144Y-79164221D01*
X150054563Y-79141166D01*
X150060227Y-79118557D01*
X150068079Y-79096613D01*
X150078044Y-79075543D01*
X150090026Y-79055552D01*
X150103910Y-79036832D01*
X150119562Y-79019562D01*
X150136832Y-79003910D01*
X150155552Y-78990026D01*
X150175543Y-78978044D01*
X150196613Y-78968079D01*
X150218557Y-78960227D01*
X150241166Y-78954563D01*
X150264221Y-78951144D01*
X150287500Y-78950000D01*
X150762500Y-78950000D01*
X150785779Y-78951144D01*
G37*
G36*
X150785779Y-80701144D02*
G01*
X150808834Y-80704563D01*
X150831443Y-80710227D01*
X150853387Y-80718079D01*
X150874457Y-80728044D01*
X150894448Y-80740026D01*
X150913168Y-80753910D01*
X150930438Y-80769562D01*
X150946090Y-80786832D01*
X150959974Y-80805552D01*
X150971956Y-80825543D01*
X150981921Y-80846613D01*
X150989773Y-80868557D01*
X150995437Y-80891166D01*
X150998856Y-80914221D01*
X151000000Y-80937500D01*
X151000000Y-81512500D01*
X150998856Y-81535779D01*
X150995437Y-81558834D01*
X150989773Y-81581443D01*
X150981921Y-81603387D01*
X150971956Y-81624457D01*
X150959974Y-81644448D01*
X150946090Y-81663168D01*
X150930438Y-81680438D01*
X150913168Y-81696090D01*
X150894448Y-81709974D01*
X150874457Y-81721956D01*
X150853387Y-81731921D01*
X150831443Y-81739773D01*
X150808834Y-81745437D01*
X150785779Y-81748856D01*
X150762500Y-81750000D01*
X150287500Y-81750000D01*
X150264221Y-81748856D01*
X150241166Y-81745437D01*
X150218557Y-81739773D01*
X150196613Y-81731921D01*
X150175543Y-81721956D01*
X150155552Y-81709974D01*
X150136832Y-81696090D01*
X150119562Y-81680438D01*
X150103910Y-81663168D01*
X150090026Y-81644448D01*
X150078044Y-81624457D01*
X150068079Y-81603387D01*
X150060227Y-81581443D01*
X150054563Y-81558834D01*
X150051144Y-81535779D01*
X150050000Y-81512500D01*
X150050000Y-80937500D01*
X150051144Y-80914221D01*
X150054563Y-80891166D01*
X150060227Y-80868557D01*
X150068079Y-80846613D01*
X150078044Y-80825543D01*
X150090026Y-80805552D01*
X150103910Y-80786832D01*
X150119562Y-80769562D01*
X150136832Y-80753910D01*
X150155552Y-80740026D01*
X150175543Y-80728044D01*
X150196613Y-80718079D01*
X150218557Y-80710227D01*
X150241166Y-80704563D01*
X150264221Y-80701144D01*
X150287500Y-80700000D01*
X150762500Y-80700000D01*
X150785779Y-80701144D01*
G37*
G36*
X128860779Y-70126144D02*
G01*
X128883834Y-70129563D01*
X128906443Y-70135227D01*
X128928387Y-70143079D01*
X128949457Y-70153044D01*
X128969448Y-70165026D01*
X128988168Y-70178910D01*
X129005438Y-70194562D01*
X129021090Y-70211832D01*
X129034974Y-70230552D01*
X129046956Y-70250543D01*
X129056921Y-70271613D01*
X129064773Y-70293557D01*
X129070437Y-70316166D01*
X129073856Y-70339221D01*
X129075000Y-70362500D01*
X129075000Y-70837500D01*
X129073856Y-70860779D01*
X129070437Y-70883834D01*
X129064773Y-70906443D01*
X129056921Y-70928387D01*
X129046956Y-70949457D01*
X129034974Y-70969448D01*
X129021090Y-70988168D01*
X129005438Y-71005438D01*
X128988168Y-71021090D01*
X128969448Y-71034974D01*
X128949457Y-71046956D01*
X128928387Y-71056921D01*
X128906443Y-71064773D01*
X128883834Y-71070437D01*
X128860779Y-71073856D01*
X128837500Y-71075000D01*
X128262500Y-71075000D01*
X128239221Y-71073856D01*
X128216166Y-71070437D01*
X128193557Y-71064773D01*
X128171613Y-71056921D01*
X128150543Y-71046956D01*
X128130552Y-71034974D01*
X128111832Y-71021090D01*
X128094562Y-71005438D01*
X128078910Y-70988168D01*
X128065026Y-70969448D01*
X128053044Y-70949457D01*
X128043079Y-70928387D01*
X128035227Y-70906443D01*
X128029563Y-70883834D01*
X128026144Y-70860779D01*
X128025000Y-70837500D01*
X128025000Y-70362500D01*
X128026144Y-70339221D01*
X128029563Y-70316166D01*
X128035227Y-70293557D01*
X128043079Y-70271613D01*
X128053044Y-70250543D01*
X128065026Y-70230552D01*
X128078910Y-70211832D01*
X128094562Y-70194562D01*
X128111832Y-70178910D01*
X128130552Y-70165026D01*
X128150543Y-70153044D01*
X128171613Y-70143079D01*
X128193557Y-70135227D01*
X128216166Y-70129563D01*
X128239221Y-70126144D01*
X128262500Y-70125000D01*
X128837500Y-70125000D01*
X128860779Y-70126144D01*
G37*
G36*
X130610779Y-70126144D02*
G01*
X130633834Y-70129563D01*
X130656443Y-70135227D01*
X130678387Y-70143079D01*
X130699457Y-70153044D01*
X130719448Y-70165026D01*
X130738168Y-70178910D01*
X130755438Y-70194562D01*
X130771090Y-70211832D01*
X130784974Y-70230552D01*
X130796956Y-70250543D01*
X130806921Y-70271613D01*
X130814773Y-70293557D01*
X130820437Y-70316166D01*
X130823856Y-70339221D01*
X130825000Y-70362500D01*
X130825000Y-70837500D01*
X130823856Y-70860779D01*
X130820437Y-70883834D01*
X130814773Y-70906443D01*
X130806921Y-70928387D01*
X130796956Y-70949457D01*
X130784974Y-70969448D01*
X130771090Y-70988168D01*
X130755438Y-71005438D01*
X130738168Y-71021090D01*
X130719448Y-71034974D01*
X130699457Y-71046956D01*
X130678387Y-71056921D01*
X130656443Y-71064773D01*
X130633834Y-71070437D01*
X130610779Y-71073856D01*
X130587500Y-71075000D01*
X130012500Y-71075000D01*
X129989221Y-71073856D01*
X129966166Y-71070437D01*
X129943557Y-71064773D01*
X129921613Y-71056921D01*
X129900543Y-71046956D01*
X129880552Y-71034974D01*
X129861832Y-71021090D01*
X129844562Y-71005438D01*
X129828910Y-70988168D01*
X129815026Y-70969448D01*
X129803044Y-70949457D01*
X129793079Y-70928387D01*
X129785227Y-70906443D01*
X129779563Y-70883834D01*
X129776144Y-70860779D01*
X129775000Y-70837500D01*
X129775000Y-70362500D01*
X129776144Y-70339221D01*
X129779563Y-70316166D01*
X129785227Y-70293557D01*
X129793079Y-70271613D01*
X129803044Y-70250543D01*
X129815026Y-70230552D01*
X129828910Y-70211832D01*
X129844562Y-70194562D01*
X129861832Y-70178910D01*
X129880552Y-70165026D01*
X129900543Y-70153044D01*
X129921613Y-70143079D01*
X129943557Y-70135227D01*
X129966166Y-70129563D01*
X129989221Y-70126144D01*
X130012500Y-70125000D01*
X130587500Y-70125000D01*
X130610779Y-70126144D01*
G37*
G36*
X128760779Y-64326144D02*
G01*
X128783834Y-64329563D01*
X128806443Y-64335227D01*
X128828387Y-64343079D01*
X128849457Y-64353044D01*
X128869448Y-64365026D01*
X128888168Y-64378910D01*
X128905438Y-64394562D01*
X128921090Y-64411832D01*
X128934974Y-64430552D01*
X128946956Y-64450543D01*
X128956921Y-64471613D01*
X128964773Y-64493557D01*
X128970437Y-64516166D01*
X128973856Y-64539221D01*
X128975000Y-64562500D01*
X128975000Y-65037500D01*
X128973856Y-65060779D01*
X128970437Y-65083834D01*
X128964773Y-65106443D01*
X128956921Y-65128387D01*
X128946956Y-65149457D01*
X128934974Y-65169448D01*
X128921090Y-65188168D01*
X128905438Y-65205438D01*
X128888168Y-65221090D01*
X128869448Y-65234974D01*
X128849457Y-65246956D01*
X128828387Y-65256921D01*
X128806443Y-65264773D01*
X128783834Y-65270437D01*
X128760779Y-65273856D01*
X128737500Y-65275000D01*
X128162500Y-65275000D01*
X128139221Y-65273856D01*
X128116166Y-65270437D01*
X128093557Y-65264773D01*
X128071613Y-65256921D01*
X128050543Y-65246956D01*
X128030552Y-65234974D01*
X128011832Y-65221090D01*
X127994562Y-65205438D01*
X127978910Y-65188168D01*
X127965026Y-65169448D01*
X127953044Y-65149457D01*
X127943079Y-65128387D01*
X127935227Y-65106443D01*
X127929563Y-65083834D01*
X127926144Y-65060779D01*
X127925000Y-65037500D01*
X127925000Y-64562500D01*
X127926144Y-64539221D01*
X127929563Y-64516166D01*
X127935227Y-64493557D01*
X127943079Y-64471613D01*
X127953044Y-64450543D01*
X127965026Y-64430552D01*
X127978910Y-64411832D01*
X127994562Y-64394562D01*
X128011832Y-64378910D01*
X128030552Y-64365026D01*
X128050543Y-64353044D01*
X128071613Y-64343079D01*
X128093557Y-64335227D01*
X128116166Y-64329563D01*
X128139221Y-64326144D01*
X128162500Y-64325000D01*
X128737500Y-64325000D01*
X128760779Y-64326144D01*
G37*
G36*
X130510779Y-64326144D02*
G01*
X130533834Y-64329563D01*
X130556443Y-64335227D01*
X130578387Y-64343079D01*
X130599457Y-64353044D01*
X130619448Y-64365026D01*
X130638168Y-64378910D01*
X130655438Y-64394562D01*
X130671090Y-64411832D01*
X130684974Y-64430552D01*
X130696956Y-64450543D01*
X130706921Y-64471613D01*
X130714773Y-64493557D01*
X130720437Y-64516166D01*
X130723856Y-64539221D01*
X130725000Y-64562500D01*
X130725000Y-65037500D01*
X130723856Y-65060779D01*
X130720437Y-65083834D01*
X130714773Y-65106443D01*
X130706921Y-65128387D01*
X130696956Y-65149457D01*
X130684974Y-65169448D01*
X130671090Y-65188168D01*
X130655438Y-65205438D01*
X130638168Y-65221090D01*
X130619448Y-65234974D01*
X130599457Y-65246956D01*
X130578387Y-65256921D01*
X130556443Y-65264773D01*
X130533834Y-65270437D01*
X130510779Y-65273856D01*
X130487500Y-65275000D01*
X129912500Y-65275000D01*
X129889221Y-65273856D01*
X129866166Y-65270437D01*
X129843557Y-65264773D01*
X129821613Y-65256921D01*
X129800543Y-65246956D01*
X129780552Y-65234974D01*
X129761832Y-65221090D01*
X129744562Y-65205438D01*
X129728910Y-65188168D01*
X129715026Y-65169448D01*
X129703044Y-65149457D01*
X129693079Y-65128387D01*
X129685227Y-65106443D01*
X129679563Y-65083834D01*
X129676144Y-65060779D01*
X129675000Y-65037500D01*
X129675000Y-64562500D01*
X129676144Y-64539221D01*
X129679563Y-64516166D01*
X129685227Y-64493557D01*
X129693079Y-64471613D01*
X129703044Y-64450543D01*
X129715026Y-64430552D01*
X129728910Y-64411832D01*
X129744562Y-64394562D01*
X129761832Y-64378910D01*
X129780552Y-64365026D01*
X129800543Y-64353044D01*
X129821613Y-64343079D01*
X129843557Y-64335227D01*
X129866166Y-64329563D01*
X129889221Y-64326144D01*
X129912500Y-64325000D01*
X130487500Y-64325000D01*
X130510779Y-64326144D01*
G37*
D16*
X149250000Y-68300000D03*
X150200000Y-70300000D03*
X148300000Y-70300000D03*
D17*
X156950000Y-69200000D03*
X154950000Y-70150000D03*
X154950000Y-68250000D03*
D10*
G36*
X127485779Y-94501144D02*
G01*
X127508834Y-94504563D01*
X127531443Y-94510227D01*
X127553387Y-94518079D01*
X127574457Y-94528044D01*
X127594448Y-94540026D01*
X127613168Y-94553910D01*
X127630438Y-94569562D01*
X127646090Y-94586832D01*
X127659974Y-94605552D01*
X127671956Y-94625543D01*
X127681921Y-94646613D01*
X127689773Y-94668557D01*
X127695437Y-94691166D01*
X127698856Y-94714221D01*
X127700000Y-94737500D01*
X127700000Y-95212500D01*
X127698856Y-95235779D01*
X127695437Y-95258834D01*
X127689773Y-95281443D01*
X127681921Y-95303387D01*
X127671956Y-95324457D01*
X127659974Y-95344448D01*
X127646090Y-95363168D01*
X127630438Y-95380438D01*
X127613168Y-95396090D01*
X127594448Y-95409974D01*
X127574457Y-95421956D01*
X127553387Y-95431921D01*
X127531443Y-95439773D01*
X127508834Y-95445437D01*
X127485779Y-95448856D01*
X127462500Y-95450000D01*
X126887500Y-95450000D01*
X126864221Y-95448856D01*
X126841166Y-95445437D01*
X126818557Y-95439773D01*
X126796613Y-95431921D01*
X126775543Y-95421956D01*
X126755552Y-95409974D01*
X126736832Y-95396090D01*
X126719562Y-95380438D01*
X126703910Y-95363168D01*
X126690026Y-95344448D01*
X126678044Y-95324457D01*
X126668079Y-95303387D01*
X126660227Y-95281443D01*
X126654563Y-95258834D01*
X126651144Y-95235779D01*
X126650000Y-95212500D01*
X126650000Y-94737500D01*
X126651144Y-94714221D01*
X126654563Y-94691166D01*
X126660227Y-94668557D01*
X126668079Y-94646613D01*
X126678044Y-94625543D01*
X126690026Y-94605552D01*
X126703910Y-94586832D01*
X126719562Y-94569562D01*
X126736832Y-94553910D01*
X126755552Y-94540026D01*
X126775543Y-94528044D01*
X126796613Y-94518079D01*
X126818557Y-94510227D01*
X126841166Y-94504563D01*
X126864221Y-94501144D01*
X126887500Y-94500000D01*
X127462500Y-94500000D01*
X127485779Y-94501144D01*
G37*
G36*
X129235779Y-94501144D02*
G01*
X129258834Y-94504563D01*
X129281443Y-94510227D01*
X129303387Y-94518079D01*
X129324457Y-94528044D01*
X129344448Y-94540026D01*
X129363168Y-94553910D01*
X129380438Y-94569562D01*
X129396090Y-94586832D01*
X129409974Y-94605552D01*
X129421956Y-94625543D01*
X129431921Y-94646613D01*
X129439773Y-94668557D01*
X129445437Y-94691166D01*
X129448856Y-94714221D01*
X129450000Y-94737500D01*
X129450000Y-95212500D01*
X129448856Y-95235779D01*
X129445437Y-95258834D01*
X129439773Y-95281443D01*
X129431921Y-95303387D01*
X129421956Y-95324457D01*
X129409974Y-95344448D01*
X129396090Y-95363168D01*
X129380438Y-95380438D01*
X129363168Y-95396090D01*
X129344448Y-95409974D01*
X129324457Y-95421956D01*
X129303387Y-95431921D01*
X129281443Y-95439773D01*
X129258834Y-95445437D01*
X129235779Y-95448856D01*
X129212500Y-95450000D01*
X128637500Y-95450000D01*
X128614221Y-95448856D01*
X128591166Y-95445437D01*
X128568557Y-95439773D01*
X128546613Y-95431921D01*
X128525543Y-95421956D01*
X128505552Y-95409974D01*
X128486832Y-95396090D01*
X128469562Y-95380438D01*
X128453910Y-95363168D01*
X128440026Y-95344448D01*
X128428044Y-95324457D01*
X128418079Y-95303387D01*
X128410227Y-95281443D01*
X128404563Y-95258834D01*
X128401144Y-95235779D01*
X128400000Y-95212500D01*
X128400000Y-94737500D01*
X128401144Y-94714221D01*
X128404563Y-94691166D01*
X128410227Y-94668557D01*
X128418079Y-94646613D01*
X128428044Y-94625543D01*
X128440026Y-94605552D01*
X128453910Y-94586832D01*
X128469562Y-94569562D01*
X128486832Y-94553910D01*
X128505552Y-94540026D01*
X128525543Y-94528044D01*
X128546613Y-94518079D01*
X128568557Y-94510227D01*
X128591166Y-94504563D01*
X128614221Y-94501144D01*
X128637500Y-94500000D01*
X129212500Y-94500000D01*
X129235779Y-94501144D01*
G37*
G36*
X127460779Y-92701144D02*
G01*
X127483834Y-92704563D01*
X127506443Y-92710227D01*
X127528387Y-92718079D01*
X127549457Y-92728044D01*
X127569448Y-92740026D01*
X127588168Y-92753910D01*
X127605438Y-92769562D01*
X127621090Y-92786832D01*
X127634974Y-92805552D01*
X127646956Y-92825543D01*
X127656921Y-92846613D01*
X127664773Y-92868557D01*
X127670437Y-92891166D01*
X127673856Y-92914221D01*
X127675000Y-92937500D01*
X127675000Y-93412500D01*
X127673856Y-93435779D01*
X127670437Y-93458834D01*
X127664773Y-93481443D01*
X127656921Y-93503387D01*
X127646956Y-93524457D01*
X127634974Y-93544448D01*
X127621090Y-93563168D01*
X127605438Y-93580438D01*
X127588168Y-93596090D01*
X127569448Y-93609974D01*
X127549457Y-93621956D01*
X127528387Y-93631921D01*
X127506443Y-93639773D01*
X127483834Y-93645437D01*
X127460779Y-93648856D01*
X127437500Y-93650000D01*
X126862500Y-93650000D01*
X126839221Y-93648856D01*
X126816166Y-93645437D01*
X126793557Y-93639773D01*
X126771613Y-93631921D01*
X126750543Y-93621956D01*
X126730552Y-93609974D01*
X126711832Y-93596090D01*
X126694562Y-93580438D01*
X126678910Y-93563168D01*
X126665026Y-93544448D01*
X126653044Y-93524457D01*
X126643079Y-93503387D01*
X126635227Y-93481443D01*
X126629563Y-93458834D01*
X126626144Y-93435779D01*
X126625000Y-93412500D01*
X126625000Y-92937500D01*
X126626144Y-92914221D01*
X126629563Y-92891166D01*
X126635227Y-92868557D01*
X126643079Y-92846613D01*
X126653044Y-92825543D01*
X126665026Y-92805552D01*
X126678910Y-92786832D01*
X126694562Y-92769562D01*
X126711832Y-92753910D01*
X126730552Y-92740026D01*
X126750543Y-92728044D01*
X126771613Y-92718079D01*
X126793557Y-92710227D01*
X126816166Y-92704563D01*
X126839221Y-92701144D01*
X126862500Y-92700000D01*
X127437500Y-92700000D01*
X127460779Y-92701144D01*
G37*
G36*
X129210779Y-92701144D02*
G01*
X129233834Y-92704563D01*
X129256443Y-92710227D01*
X129278387Y-92718079D01*
X129299457Y-92728044D01*
X129319448Y-92740026D01*
X129338168Y-92753910D01*
X129355438Y-92769562D01*
X129371090Y-92786832D01*
X129384974Y-92805552D01*
X129396956Y-92825543D01*
X129406921Y-92846613D01*
X129414773Y-92868557D01*
X129420437Y-92891166D01*
X129423856Y-92914221D01*
X129425000Y-92937500D01*
X129425000Y-93412500D01*
X129423856Y-93435779D01*
X129420437Y-93458834D01*
X129414773Y-93481443D01*
X129406921Y-93503387D01*
X129396956Y-93524457D01*
X129384974Y-93544448D01*
X129371090Y-93563168D01*
X129355438Y-93580438D01*
X129338168Y-93596090D01*
X129319448Y-93609974D01*
X129299457Y-93621956D01*
X129278387Y-93631921D01*
X129256443Y-93639773D01*
X129233834Y-93645437D01*
X129210779Y-93648856D01*
X129187500Y-93650000D01*
X128612500Y-93650000D01*
X128589221Y-93648856D01*
X128566166Y-93645437D01*
X128543557Y-93639773D01*
X128521613Y-93631921D01*
X128500543Y-93621956D01*
X128480552Y-93609974D01*
X128461832Y-93596090D01*
X128444562Y-93580438D01*
X128428910Y-93563168D01*
X128415026Y-93544448D01*
X128403044Y-93524457D01*
X128393079Y-93503387D01*
X128385227Y-93481443D01*
X128379563Y-93458834D01*
X128376144Y-93435779D01*
X128375000Y-93412500D01*
X128375000Y-92937500D01*
X128376144Y-92914221D01*
X128379563Y-92891166D01*
X128385227Y-92868557D01*
X128393079Y-92846613D01*
X128403044Y-92825543D01*
X128415026Y-92805552D01*
X128428910Y-92786832D01*
X128444562Y-92769562D01*
X128461832Y-92753910D01*
X128480552Y-92740026D01*
X128500543Y-92728044D01*
X128521613Y-92718079D01*
X128543557Y-92710227D01*
X128566166Y-92704563D01*
X128589221Y-92701144D01*
X128612500Y-92700000D01*
X129187500Y-92700000D01*
X129210779Y-92701144D01*
G37*
G36*
X143835779Y-64826144D02*
G01*
X143858834Y-64829563D01*
X143881443Y-64835227D01*
X143903387Y-64843079D01*
X143924457Y-64853044D01*
X143944448Y-64865026D01*
X143963168Y-64878910D01*
X143980438Y-64894562D01*
X143996090Y-64911832D01*
X144009974Y-64930552D01*
X144021956Y-64950543D01*
X144031921Y-64971613D01*
X144039773Y-64993557D01*
X144045437Y-65016166D01*
X144048856Y-65039221D01*
X144050000Y-65062500D01*
X144050000Y-65537500D01*
X144048856Y-65560779D01*
X144045437Y-65583834D01*
X144039773Y-65606443D01*
X144031921Y-65628387D01*
X144021956Y-65649457D01*
X144009974Y-65669448D01*
X143996090Y-65688168D01*
X143980438Y-65705438D01*
X143963168Y-65721090D01*
X143944448Y-65734974D01*
X143924457Y-65746956D01*
X143903387Y-65756921D01*
X143881443Y-65764773D01*
X143858834Y-65770437D01*
X143835779Y-65773856D01*
X143812500Y-65775000D01*
X143237500Y-65775000D01*
X143214221Y-65773856D01*
X143191166Y-65770437D01*
X143168557Y-65764773D01*
X143146613Y-65756921D01*
X143125543Y-65746956D01*
X143105552Y-65734974D01*
X143086832Y-65721090D01*
X143069562Y-65705438D01*
X143053910Y-65688168D01*
X143040026Y-65669448D01*
X143028044Y-65649457D01*
X143018079Y-65628387D01*
X143010227Y-65606443D01*
X143004563Y-65583834D01*
X143001144Y-65560779D01*
X143000000Y-65537500D01*
X143000000Y-65062500D01*
X143001144Y-65039221D01*
X143004563Y-65016166D01*
X143010227Y-64993557D01*
X143018079Y-64971613D01*
X143028044Y-64950543D01*
X143040026Y-64930552D01*
X143053910Y-64911832D01*
X143069562Y-64894562D01*
X143086832Y-64878910D01*
X143105552Y-64865026D01*
X143125543Y-64853044D01*
X143146613Y-64843079D01*
X143168557Y-64835227D01*
X143191166Y-64829563D01*
X143214221Y-64826144D01*
X143237500Y-64825000D01*
X143812500Y-64825000D01*
X143835779Y-64826144D01*
G37*
G36*
X145585779Y-64826144D02*
G01*
X145608834Y-64829563D01*
X145631443Y-64835227D01*
X145653387Y-64843079D01*
X145674457Y-64853044D01*
X145694448Y-64865026D01*
X145713168Y-64878910D01*
X145730438Y-64894562D01*
X145746090Y-64911832D01*
X145759974Y-64930552D01*
X145771956Y-64950543D01*
X145781921Y-64971613D01*
X145789773Y-64993557D01*
X145795437Y-65016166D01*
X145798856Y-65039221D01*
X145800000Y-65062500D01*
X145800000Y-65537500D01*
X145798856Y-65560779D01*
X145795437Y-65583834D01*
X145789773Y-65606443D01*
X145781921Y-65628387D01*
X145771956Y-65649457D01*
X145759974Y-65669448D01*
X145746090Y-65688168D01*
X145730438Y-65705438D01*
X145713168Y-65721090D01*
X145694448Y-65734974D01*
X145674457Y-65746956D01*
X145653387Y-65756921D01*
X145631443Y-65764773D01*
X145608834Y-65770437D01*
X145585779Y-65773856D01*
X145562500Y-65775000D01*
X144987500Y-65775000D01*
X144964221Y-65773856D01*
X144941166Y-65770437D01*
X144918557Y-65764773D01*
X144896613Y-65756921D01*
X144875543Y-65746956D01*
X144855552Y-65734974D01*
X144836832Y-65721090D01*
X144819562Y-65705438D01*
X144803910Y-65688168D01*
X144790026Y-65669448D01*
X144778044Y-65649457D01*
X144768079Y-65628387D01*
X144760227Y-65606443D01*
X144754563Y-65583834D01*
X144751144Y-65560779D01*
X144750000Y-65537500D01*
X144750000Y-65062500D01*
X144751144Y-65039221D01*
X144754563Y-65016166D01*
X144760227Y-64993557D01*
X144768079Y-64971613D01*
X144778044Y-64950543D01*
X144790026Y-64930552D01*
X144803910Y-64911832D01*
X144819562Y-64894562D01*
X144836832Y-64878910D01*
X144855552Y-64865026D01*
X144875543Y-64853044D01*
X144896613Y-64843079D01*
X144918557Y-64835227D01*
X144941166Y-64829563D01*
X144964221Y-64826144D01*
X144987500Y-64825000D01*
X145562500Y-64825000D01*
X145585779Y-64826144D01*
G37*
G36*
X146710779Y-67926144D02*
G01*
X146733834Y-67929563D01*
X146756443Y-67935227D01*
X146778387Y-67943079D01*
X146799457Y-67953044D01*
X146819448Y-67965026D01*
X146838168Y-67978910D01*
X146855438Y-67994562D01*
X146871090Y-68011832D01*
X146884974Y-68030552D01*
X146896956Y-68050543D01*
X146906921Y-68071613D01*
X146914773Y-68093557D01*
X146920437Y-68116166D01*
X146923856Y-68139221D01*
X146925000Y-68162500D01*
X146925000Y-68737500D01*
X146923856Y-68760779D01*
X146920437Y-68783834D01*
X146914773Y-68806443D01*
X146906921Y-68828387D01*
X146896956Y-68849457D01*
X146884974Y-68869448D01*
X146871090Y-68888168D01*
X146855438Y-68905438D01*
X146838168Y-68921090D01*
X146819448Y-68934974D01*
X146799457Y-68946956D01*
X146778387Y-68956921D01*
X146756443Y-68964773D01*
X146733834Y-68970437D01*
X146710779Y-68973856D01*
X146687500Y-68975000D01*
X146212500Y-68975000D01*
X146189221Y-68973856D01*
X146166166Y-68970437D01*
X146143557Y-68964773D01*
X146121613Y-68956921D01*
X146100543Y-68946956D01*
X146080552Y-68934974D01*
X146061832Y-68921090D01*
X146044562Y-68905438D01*
X146028910Y-68888168D01*
X146015026Y-68869448D01*
X146003044Y-68849457D01*
X145993079Y-68828387D01*
X145985227Y-68806443D01*
X145979563Y-68783834D01*
X145976144Y-68760779D01*
X145975000Y-68737500D01*
X145975000Y-68162500D01*
X145976144Y-68139221D01*
X145979563Y-68116166D01*
X145985227Y-68093557D01*
X145993079Y-68071613D01*
X146003044Y-68050543D01*
X146015026Y-68030552D01*
X146028910Y-68011832D01*
X146044562Y-67994562D01*
X146061832Y-67978910D01*
X146080552Y-67965026D01*
X146100543Y-67953044D01*
X146121613Y-67943079D01*
X146143557Y-67935227D01*
X146166166Y-67929563D01*
X146189221Y-67926144D01*
X146212500Y-67925000D01*
X146687500Y-67925000D01*
X146710779Y-67926144D01*
G37*
G36*
X146710779Y-69676144D02*
G01*
X146733834Y-69679563D01*
X146756443Y-69685227D01*
X146778387Y-69693079D01*
X146799457Y-69703044D01*
X146819448Y-69715026D01*
X146838168Y-69728910D01*
X146855438Y-69744562D01*
X146871090Y-69761832D01*
X146884974Y-69780552D01*
X146896956Y-69800543D01*
X146906921Y-69821613D01*
X146914773Y-69843557D01*
X146920437Y-69866166D01*
X146923856Y-69889221D01*
X146925000Y-69912500D01*
X146925000Y-70487500D01*
X146923856Y-70510779D01*
X146920437Y-70533834D01*
X146914773Y-70556443D01*
X146906921Y-70578387D01*
X146896956Y-70599457D01*
X146884974Y-70619448D01*
X146871090Y-70638168D01*
X146855438Y-70655438D01*
X146838168Y-70671090D01*
X146819448Y-70684974D01*
X146799457Y-70696956D01*
X146778387Y-70706921D01*
X146756443Y-70714773D01*
X146733834Y-70720437D01*
X146710779Y-70723856D01*
X146687500Y-70725000D01*
X146212500Y-70725000D01*
X146189221Y-70723856D01*
X146166166Y-70720437D01*
X146143557Y-70714773D01*
X146121613Y-70706921D01*
X146100543Y-70696956D01*
X146080552Y-70684974D01*
X146061832Y-70671090D01*
X146044562Y-70655438D01*
X146028910Y-70638168D01*
X146015026Y-70619448D01*
X146003044Y-70599457D01*
X145993079Y-70578387D01*
X145985227Y-70556443D01*
X145979563Y-70533834D01*
X145976144Y-70510779D01*
X145975000Y-70487500D01*
X145975000Y-69912500D01*
X145976144Y-69889221D01*
X145979563Y-69866166D01*
X145985227Y-69843557D01*
X145993079Y-69821613D01*
X146003044Y-69800543D01*
X146015026Y-69780552D01*
X146028910Y-69761832D01*
X146044562Y-69744562D01*
X146061832Y-69728910D01*
X146080552Y-69715026D01*
X146100543Y-69703044D01*
X146121613Y-69693079D01*
X146143557Y-69685227D01*
X146166166Y-69679563D01*
X146189221Y-69676144D01*
X146212500Y-69675000D01*
X146687500Y-69675000D01*
X146710779Y-69676144D01*
G37*
G36*
X141010779Y-91151144D02*
G01*
X141033834Y-91154563D01*
X141056443Y-91160227D01*
X141078387Y-91168079D01*
X141099457Y-91178044D01*
X141119448Y-91190026D01*
X141138168Y-91203910D01*
X141155438Y-91219562D01*
X141171090Y-91236832D01*
X141184974Y-91255552D01*
X141196956Y-91275543D01*
X141206921Y-91296613D01*
X141214773Y-91318557D01*
X141220437Y-91341166D01*
X141223856Y-91364221D01*
X141225000Y-91387500D01*
X141225000Y-91962500D01*
X141223856Y-91985779D01*
X141220437Y-92008834D01*
X141214773Y-92031443D01*
X141206921Y-92053387D01*
X141196956Y-92074457D01*
X141184974Y-92094448D01*
X141171090Y-92113168D01*
X141155438Y-92130438D01*
X141138168Y-92146090D01*
X141119448Y-92159974D01*
X141099457Y-92171956D01*
X141078387Y-92181921D01*
X141056443Y-92189773D01*
X141033834Y-92195437D01*
X141010779Y-92198856D01*
X140987500Y-92200000D01*
X140512500Y-92200000D01*
X140489221Y-92198856D01*
X140466166Y-92195437D01*
X140443557Y-92189773D01*
X140421613Y-92181921D01*
X140400543Y-92171956D01*
X140380552Y-92159974D01*
X140361832Y-92146090D01*
X140344562Y-92130438D01*
X140328910Y-92113168D01*
X140315026Y-92094448D01*
X140303044Y-92074457D01*
X140293079Y-92053387D01*
X140285227Y-92031443D01*
X140279563Y-92008834D01*
X140276144Y-91985779D01*
X140275000Y-91962500D01*
X140275000Y-91387500D01*
X140276144Y-91364221D01*
X140279563Y-91341166D01*
X140285227Y-91318557D01*
X140293079Y-91296613D01*
X140303044Y-91275543D01*
X140315026Y-91255552D01*
X140328910Y-91236832D01*
X140344562Y-91219562D01*
X140361832Y-91203910D01*
X140380552Y-91190026D01*
X140400543Y-91178044D01*
X140421613Y-91168079D01*
X140443557Y-91160227D01*
X140466166Y-91154563D01*
X140489221Y-91151144D01*
X140512500Y-91150000D01*
X140987500Y-91150000D01*
X141010779Y-91151144D01*
G37*
G36*
X141010779Y-89401144D02*
G01*
X141033834Y-89404563D01*
X141056443Y-89410227D01*
X141078387Y-89418079D01*
X141099457Y-89428044D01*
X141119448Y-89440026D01*
X141138168Y-89453910D01*
X141155438Y-89469562D01*
X141171090Y-89486832D01*
X141184974Y-89505552D01*
X141196956Y-89525543D01*
X141206921Y-89546613D01*
X141214773Y-89568557D01*
X141220437Y-89591166D01*
X141223856Y-89614221D01*
X141225000Y-89637500D01*
X141225000Y-90212500D01*
X141223856Y-90235779D01*
X141220437Y-90258834D01*
X141214773Y-90281443D01*
X141206921Y-90303387D01*
X141196956Y-90324457D01*
X141184974Y-90344448D01*
X141171090Y-90363168D01*
X141155438Y-90380438D01*
X141138168Y-90396090D01*
X141119448Y-90409974D01*
X141099457Y-90421956D01*
X141078387Y-90431921D01*
X141056443Y-90439773D01*
X141033834Y-90445437D01*
X141010779Y-90448856D01*
X140987500Y-90450000D01*
X140512500Y-90450000D01*
X140489221Y-90448856D01*
X140466166Y-90445437D01*
X140443557Y-90439773D01*
X140421613Y-90431921D01*
X140400543Y-90421956D01*
X140380552Y-90409974D01*
X140361832Y-90396090D01*
X140344562Y-90380438D01*
X140328910Y-90363168D01*
X140315026Y-90344448D01*
X140303044Y-90324457D01*
X140293079Y-90303387D01*
X140285227Y-90281443D01*
X140279563Y-90258834D01*
X140276144Y-90235779D01*
X140275000Y-90212500D01*
X140275000Y-89637500D01*
X140276144Y-89614221D01*
X140279563Y-89591166D01*
X140285227Y-89568557D01*
X140293079Y-89546613D01*
X140303044Y-89525543D01*
X140315026Y-89505552D01*
X140328910Y-89486832D01*
X140344562Y-89469562D01*
X140361832Y-89453910D01*
X140380552Y-89440026D01*
X140400543Y-89428044D01*
X140421613Y-89418079D01*
X140443557Y-89410227D01*
X140466166Y-89404563D01*
X140489221Y-89401144D01*
X140512500Y-89400000D01*
X140987500Y-89400000D01*
X141010779Y-89401144D01*
G37*
G36*
X130985779Y-92776144D02*
G01*
X131008834Y-92779563D01*
X131031443Y-92785227D01*
X131053387Y-92793079D01*
X131074457Y-92803044D01*
X131094448Y-92815026D01*
X131113168Y-92828910D01*
X131130438Y-92844562D01*
X131146090Y-92861832D01*
X131159974Y-92880552D01*
X131171956Y-92900543D01*
X131181921Y-92921613D01*
X131189773Y-92943557D01*
X131195437Y-92966166D01*
X131198856Y-92989221D01*
X131200000Y-93012500D01*
X131200000Y-93587500D01*
X131198856Y-93610779D01*
X131195437Y-93633834D01*
X131189773Y-93656443D01*
X131181921Y-93678387D01*
X131171956Y-93699457D01*
X131159974Y-93719448D01*
X131146090Y-93738168D01*
X131130438Y-93755438D01*
X131113168Y-93771090D01*
X131094448Y-93784974D01*
X131074457Y-93796956D01*
X131053387Y-93806921D01*
X131031443Y-93814773D01*
X131008834Y-93820437D01*
X130985779Y-93823856D01*
X130962500Y-93825000D01*
X130487500Y-93825000D01*
X130464221Y-93823856D01*
X130441166Y-93820437D01*
X130418557Y-93814773D01*
X130396613Y-93806921D01*
X130375543Y-93796956D01*
X130355552Y-93784974D01*
X130336832Y-93771090D01*
X130319562Y-93755438D01*
X130303910Y-93738168D01*
X130290026Y-93719448D01*
X130278044Y-93699457D01*
X130268079Y-93678387D01*
X130260227Y-93656443D01*
X130254563Y-93633834D01*
X130251144Y-93610779D01*
X130250000Y-93587500D01*
X130250000Y-93012500D01*
X130251144Y-92989221D01*
X130254563Y-92966166D01*
X130260227Y-92943557D01*
X130268079Y-92921613D01*
X130278044Y-92900543D01*
X130290026Y-92880552D01*
X130303910Y-92861832D01*
X130319562Y-92844562D01*
X130336832Y-92828910D01*
X130355552Y-92815026D01*
X130375543Y-92803044D01*
X130396613Y-92793079D01*
X130418557Y-92785227D01*
X130441166Y-92779563D01*
X130464221Y-92776144D01*
X130487500Y-92775000D01*
X130962500Y-92775000D01*
X130985779Y-92776144D01*
G37*
G36*
X130985779Y-94526144D02*
G01*
X131008834Y-94529563D01*
X131031443Y-94535227D01*
X131053387Y-94543079D01*
X131074457Y-94553044D01*
X131094448Y-94565026D01*
X131113168Y-94578910D01*
X131130438Y-94594562D01*
X131146090Y-94611832D01*
X131159974Y-94630552D01*
X131171956Y-94650543D01*
X131181921Y-94671613D01*
X131189773Y-94693557D01*
X131195437Y-94716166D01*
X131198856Y-94739221D01*
X131200000Y-94762500D01*
X131200000Y-95337500D01*
X131198856Y-95360779D01*
X131195437Y-95383834D01*
X131189773Y-95406443D01*
X131181921Y-95428387D01*
X131171956Y-95449457D01*
X131159974Y-95469448D01*
X131146090Y-95488168D01*
X131130438Y-95505438D01*
X131113168Y-95521090D01*
X131094448Y-95534974D01*
X131074457Y-95546956D01*
X131053387Y-95556921D01*
X131031443Y-95564773D01*
X131008834Y-95570437D01*
X130985779Y-95573856D01*
X130962500Y-95575000D01*
X130487500Y-95575000D01*
X130464221Y-95573856D01*
X130441166Y-95570437D01*
X130418557Y-95564773D01*
X130396613Y-95556921D01*
X130375543Y-95546956D01*
X130355552Y-95534974D01*
X130336832Y-95521090D01*
X130319562Y-95505438D01*
X130303910Y-95488168D01*
X130290026Y-95469448D01*
X130278044Y-95449457D01*
X130268079Y-95428387D01*
X130260227Y-95406443D01*
X130254563Y-95383834D01*
X130251144Y-95360779D01*
X130250000Y-95337500D01*
X130250000Y-94762500D01*
X130251144Y-94739221D01*
X130254563Y-94716166D01*
X130260227Y-94693557D01*
X130268079Y-94671613D01*
X130278044Y-94650543D01*
X130290026Y-94630552D01*
X130303910Y-94611832D01*
X130319562Y-94594562D01*
X130336832Y-94578910D01*
X130355552Y-94565026D01*
X130375543Y-94553044D01*
X130396613Y-94543079D01*
X130418557Y-94535227D01*
X130441166Y-94529563D01*
X130464221Y-94526144D01*
X130487500Y-94525000D01*
X130962500Y-94525000D01*
X130985779Y-94526144D01*
G37*
G36*
X157060779Y-65926144D02*
G01*
X157083834Y-65929563D01*
X157106443Y-65935227D01*
X157128387Y-65943079D01*
X157149457Y-65953044D01*
X157169448Y-65965026D01*
X157188168Y-65978910D01*
X157205438Y-65994562D01*
X157221090Y-66011832D01*
X157234974Y-66030552D01*
X157246956Y-66050543D01*
X157256921Y-66071613D01*
X157264773Y-66093557D01*
X157270437Y-66116166D01*
X157273856Y-66139221D01*
X157275000Y-66162500D01*
X157275000Y-66637500D01*
X157273856Y-66660779D01*
X157270437Y-66683834D01*
X157264773Y-66706443D01*
X157256921Y-66728387D01*
X157246956Y-66749457D01*
X157234974Y-66769448D01*
X157221090Y-66788168D01*
X157205438Y-66805438D01*
X157188168Y-66821090D01*
X157169448Y-66834974D01*
X157149457Y-66846956D01*
X157128387Y-66856921D01*
X157106443Y-66864773D01*
X157083834Y-66870437D01*
X157060779Y-66873856D01*
X157037500Y-66875000D01*
X156462500Y-66875000D01*
X156439221Y-66873856D01*
X156416166Y-66870437D01*
X156393557Y-66864773D01*
X156371613Y-66856921D01*
X156350543Y-66846956D01*
X156330552Y-66834974D01*
X156311832Y-66821090D01*
X156294562Y-66805438D01*
X156278910Y-66788168D01*
X156265026Y-66769448D01*
X156253044Y-66749457D01*
X156243079Y-66728387D01*
X156235227Y-66706443D01*
X156229563Y-66683834D01*
X156226144Y-66660779D01*
X156225000Y-66637500D01*
X156225000Y-66162500D01*
X156226144Y-66139221D01*
X156229563Y-66116166D01*
X156235227Y-66093557D01*
X156243079Y-66071613D01*
X156253044Y-66050543D01*
X156265026Y-66030552D01*
X156278910Y-66011832D01*
X156294562Y-65994562D01*
X156311832Y-65978910D01*
X156330552Y-65965026D01*
X156350543Y-65953044D01*
X156371613Y-65943079D01*
X156393557Y-65935227D01*
X156416166Y-65929563D01*
X156439221Y-65926144D01*
X156462500Y-65925000D01*
X157037500Y-65925000D01*
X157060779Y-65926144D01*
G37*
G36*
X155310779Y-65926144D02*
G01*
X155333834Y-65929563D01*
X155356443Y-65935227D01*
X155378387Y-65943079D01*
X155399457Y-65953044D01*
X155419448Y-65965026D01*
X155438168Y-65978910D01*
X155455438Y-65994562D01*
X155471090Y-66011832D01*
X155484974Y-66030552D01*
X155496956Y-66050543D01*
X155506921Y-66071613D01*
X155514773Y-66093557D01*
X155520437Y-66116166D01*
X155523856Y-66139221D01*
X155525000Y-66162500D01*
X155525000Y-66637500D01*
X155523856Y-66660779D01*
X155520437Y-66683834D01*
X155514773Y-66706443D01*
X155506921Y-66728387D01*
X155496956Y-66749457D01*
X155484974Y-66769448D01*
X155471090Y-66788168D01*
X155455438Y-66805438D01*
X155438168Y-66821090D01*
X155419448Y-66834974D01*
X155399457Y-66846956D01*
X155378387Y-66856921D01*
X155356443Y-66864773D01*
X155333834Y-66870437D01*
X155310779Y-66873856D01*
X155287500Y-66875000D01*
X154712500Y-66875000D01*
X154689221Y-66873856D01*
X154666166Y-66870437D01*
X154643557Y-66864773D01*
X154621613Y-66856921D01*
X154600543Y-66846956D01*
X154580552Y-66834974D01*
X154561832Y-66821090D01*
X154544562Y-66805438D01*
X154528910Y-66788168D01*
X154515026Y-66769448D01*
X154503044Y-66749457D01*
X154493079Y-66728387D01*
X154485227Y-66706443D01*
X154479563Y-66683834D01*
X154476144Y-66660779D01*
X154475000Y-66637500D01*
X154475000Y-66162500D01*
X154476144Y-66139221D01*
X154479563Y-66116166D01*
X154485227Y-66093557D01*
X154493079Y-66071613D01*
X154503044Y-66050543D01*
X154515026Y-66030552D01*
X154528910Y-66011832D01*
X154544562Y-65994562D01*
X154561832Y-65978910D01*
X154580552Y-65965026D01*
X154600543Y-65953044D01*
X154621613Y-65943079D01*
X154643557Y-65935227D01*
X154666166Y-65929563D01*
X154689221Y-65926144D01*
X154712500Y-65925000D01*
X155287500Y-65925000D01*
X155310779Y-65926144D01*
G37*
M02*
