G04 #@! TF.GenerationSoftware,KiCad,Pcbnew,(5.1.5-0)*
G04 #@! TF.CreationDate,2022-02-10T11:07:37-07:00*
G04 #@! TF.ProjectId,TPS61165-heater-v4,54505336-3131-4363-952d-686561746572,rev?*
G04 #@! TF.SameCoordinates,Original*
G04 #@! TF.FileFunction,Copper,L2,Bot*
G04 #@! TF.FilePolarity,Positive*
%FSLAX46Y46*%
G04 Gerber Fmt 4.6, Leading zero omitted, Abs format (unit mm)*
G04 Created by KiCad (PCBNEW (5.1.5-0)) date 2022-02-10 11:07:37*
%MOMM*%
%LPD*%
G04 APERTURE LIST*
%ADD10O,1.700000X1.700000*%
%ADD11R,1.700000X1.700000*%
%ADD12O,1.750000X1.200000*%
%ADD13C,0.100000*%
%ADD14O,1.800000X1.100000*%
%ADD15C,0.800000*%
%ADD16C,0.250000*%
%ADD17C,0.254000*%
G04 APERTURE END LIST*
D10*
X127100000Y-53920000D03*
X127100000Y-51380000D03*
X127100000Y-48840000D03*
D11*
X127100000Y-46300000D03*
D12*
X148800000Y-58000000D03*
G04 #@! TA.AperFunction,ComponentPad*
D13*
G36*
X149449505Y-59401204D02*
G01*
X149473773Y-59404804D01*
X149497572Y-59410765D01*
X149520671Y-59419030D01*
X149542850Y-59429520D01*
X149563893Y-59442132D01*
X149583599Y-59456747D01*
X149601777Y-59473223D01*
X149618253Y-59491401D01*
X149632868Y-59511107D01*
X149645480Y-59532150D01*
X149655970Y-59554329D01*
X149664235Y-59577428D01*
X149670196Y-59601227D01*
X149673796Y-59625495D01*
X149675000Y-59649999D01*
X149675000Y-60350001D01*
X149673796Y-60374505D01*
X149670196Y-60398773D01*
X149664235Y-60422572D01*
X149655970Y-60445671D01*
X149645480Y-60467850D01*
X149632868Y-60488893D01*
X149618253Y-60508599D01*
X149601777Y-60526777D01*
X149583599Y-60543253D01*
X149563893Y-60557868D01*
X149542850Y-60570480D01*
X149520671Y-60580970D01*
X149497572Y-60589235D01*
X149473773Y-60595196D01*
X149449505Y-60598796D01*
X149425001Y-60600000D01*
X148174999Y-60600000D01*
X148150495Y-60598796D01*
X148126227Y-60595196D01*
X148102428Y-60589235D01*
X148079329Y-60580970D01*
X148057150Y-60570480D01*
X148036107Y-60557868D01*
X148016401Y-60543253D01*
X147998223Y-60526777D01*
X147981747Y-60508599D01*
X147967132Y-60488893D01*
X147954520Y-60467850D01*
X147944030Y-60445671D01*
X147935765Y-60422572D01*
X147929804Y-60398773D01*
X147926204Y-60374505D01*
X147925000Y-60350001D01*
X147925000Y-59649999D01*
X147926204Y-59625495D01*
X147929804Y-59601227D01*
X147935765Y-59577428D01*
X147944030Y-59554329D01*
X147954520Y-59532150D01*
X147967132Y-59511107D01*
X147981747Y-59491401D01*
X147998223Y-59473223D01*
X148016401Y-59456747D01*
X148036107Y-59442132D01*
X148057150Y-59429520D01*
X148079329Y-59419030D01*
X148102428Y-59410765D01*
X148126227Y-59404804D01*
X148150495Y-59401204D01*
X148174999Y-59400000D01*
X149425001Y-59400000D01*
X149449505Y-59401204D01*
G37*
G04 #@! TD.AperFunction*
D10*
X144700000Y-57460000D03*
D11*
X144700000Y-60000000D03*
D12*
X123000000Y-72700000D03*
G04 #@! TA.AperFunction,ComponentPad*
D13*
G36*
X123649505Y-70101204D02*
G01*
X123673773Y-70104804D01*
X123697572Y-70110765D01*
X123720671Y-70119030D01*
X123742850Y-70129520D01*
X123763893Y-70142132D01*
X123783599Y-70156747D01*
X123801777Y-70173223D01*
X123818253Y-70191401D01*
X123832868Y-70211107D01*
X123845480Y-70232150D01*
X123855970Y-70254329D01*
X123864235Y-70277428D01*
X123870196Y-70301227D01*
X123873796Y-70325495D01*
X123875000Y-70349999D01*
X123875000Y-71050001D01*
X123873796Y-71074505D01*
X123870196Y-71098773D01*
X123864235Y-71122572D01*
X123855970Y-71145671D01*
X123845480Y-71167850D01*
X123832868Y-71188893D01*
X123818253Y-71208599D01*
X123801777Y-71226777D01*
X123783599Y-71243253D01*
X123763893Y-71257868D01*
X123742850Y-71270480D01*
X123720671Y-71280970D01*
X123697572Y-71289235D01*
X123673773Y-71295196D01*
X123649505Y-71298796D01*
X123625001Y-71300000D01*
X122374999Y-71300000D01*
X122350495Y-71298796D01*
X122326227Y-71295196D01*
X122302428Y-71289235D01*
X122279329Y-71280970D01*
X122257150Y-71270480D01*
X122236107Y-71257868D01*
X122216401Y-71243253D01*
X122198223Y-71226777D01*
X122181747Y-71208599D01*
X122167132Y-71188893D01*
X122154520Y-71167850D01*
X122144030Y-71145671D01*
X122135765Y-71122572D01*
X122129804Y-71098773D01*
X122126204Y-71074505D01*
X122125000Y-71050001D01*
X122125000Y-70349999D01*
X122126204Y-70325495D01*
X122129804Y-70301227D01*
X122135765Y-70277428D01*
X122144030Y-70254329D01*
X122154520Y-70232150D01*
X122167132Y-70211107D01*
X122181747Y-70191401D01*
X122198223Y-70173223D01*
X122216401Y-70156747D01*
X122236107Y-70142132D01*
X122257150Y-70129520D01*
X122279329Y-70119030D01*
X122302428Y-70110765D01*
X122326227Y-70104804D01*
X122350495Y-70101204D01*
X122374999Y-70100000D01*
X123625001Y-70100000D01*
X123649505Y-70101204D01*
G37*
G04 #@! TD.AperFunction*
D14*
X118525000Y-79480000D03*
X118525000Y-88120000D03*
X122325000Y-79480000D03*
X122325000Y-88120000D03*
D15*
X147900000Y-83800000D03*
X147900000Y-83000000D03*
X147900000Y-84600000D03*
X147900000Y-82200000D03*
X147900000Y-87300000D03*
X152700000Y-83600000D03*
X152500000Y-86800000D03*
X138400000Y-79300000D03*
X141700000Y-79300000D03*
X138350000Y-80650000D03*
X141000000Y-78000000D03*
X151100000Y-71400000D03*
X143700000Y-63900000D03*
X140500000Y-63900000D03*
X138300000Y-67025000D03*
X150200000Y-50200000D03*
X133500000Y-55700000D03*
X147300000Y-53400000D03*
X134400000Y-46000000D03*
X160000000Y-71000000D03*
X141400000Y-48400000D03*
X142900000Y-46500000D03*
X130275000Y-60702158D03*
X132000000Y-58300000D03*
X134799990Y-66300000D03*
X136070155Y-68917229D03*
X141700000Y-69700003D03*
X146400000Y-69600000D03*
X141700000Y-68700000D03*
X144600000Y-69600000D03*
X135600000Y-48200000D03*
X148000000Y-50500000D03*
X134500000Y-52800000D03*
X156000000Y-73000000D03*
X141000000Y-77000000D03*
D16*
X140500000Y-64825000D02*
X138300000Y-67025000D01*
X140500000Y-63900000D02*
X140500000Y-64825000D01*
X140500000Y-63900000D02*
X143700000Y-63900000D01*
X143700000Y-64000000D02*
X143700000Y-63900000D01*
X151100000Y-71400000D02*
X143700000Y-64000000D01*
X127100000Y-53920000D02*
X131620000Y-53920000D01*
X131620000Y-53920000D02*
X133400000Y-55700000D01*
X142900000Y-46900000D02*
X142900000Y-46500000D01*
X141400000Y-48400000D02*
X142900000Y-46900000D01*
X130275000Y-60025000D02*
X132000000Y-58300000D01*
X130275000Y-60702158D02*
X130275000Y-60025000D01*
X122325000Y-79480000D02*
X118525000Y-79480000D01*
X122325000Y-88120000D02*
X118525000Y-88120000D01*
X118525000Y-88120000D02*
X118525000Y-79480000D01*
X134799990Y-67647064D02*
X136070155Y-68917229D01*
X134799990Y-66300000D02*
X134799990Y-67647064D01*
X146000001Y-69999999D02*
X146400000Y-69600000D01*
X145674999Y-70325001D02*
X146000001Y-69999999D01*
X142324998Y-70325001D02*
X145674999Y-70325001D01*
X141700000Y-69700003D02*
X142324998Y-70325001D01*
X143700000Y-68700000D02*
X144600000Y-69600000D01*
X141700000Y-68700000D02*
X143700000Y-68700000D01*
X135600000Y-48200000D02*
X130900000Y-48200000D01*
X128900000Y-46300000D02*
X129100000Y-46500000D01*
X127100000Y-46300000D02*
X128900000Y-46300000D01*
X129100000Y-46500000D02*
X129000000Y-46300000D01*
X130900000Y-48200000D02*
X129100000Y-46500000D01*
X128760000Y-50500000D02*
X148000000Y-50500000D01*
X127100000Y-48840000D02*
X128760000Y-50500000D01*
X128520000Y-52800000D02*
X127100000Y-51380000D01*
X134500000Y-52800000D02*
X128520000Y-52800000D01*
X156000000Y-73000000D02*
X152000000Y-77000000D01*
X152000000Y-77000000D02*
X141000000Y-77000000D01*
D17*
G36*
X169340001Y-89340000D02*
G01*
X129927000Y-89340000D01*
X129927000Y-76898061D01*
X139965000Y-76898061D01*
X139965000Y-77101939D01*
X140004774Y-77301898D01*
X140082795Y-77490256D01*
X140196063Y-77659774D01*
X140340226Y-77803937D01*
X140509744Y-77917205D01*
X140698102Y-77995226D01*
X140898061Y-78035000D01*
X141101939Y-78035000D01*
X141301898Y-77995226D01*
X141490256Y-77917205D01*
X141659774Y-77803937D01*
X141703711Y-77760000D01*
X151962678Y-77760000D01*
X152000000Y-77763676D01*
X152037322Y-77760000D01*
X152037333Y-77760000D01*
X152148986Y-77749003D01*
X152292247Y-77705546D01*
X152424276Y-77634974D01*
X152540001Y-77540001D01*
X152563804Y-77510997D01*
X156039802Y-74035000D01*
X156101939Y-74035000D01*
X156301898Y-73995226D01*
X156490256Y-73917205D01*
X156659774Y-73803937D01*
X156803937Y-73659774D01*
X156917205Y-73490256D01*
X156995226Y-73301898D01*
X157035000Y-73101939D01*
X157035000Y-72898061D01*
X156995226Y-72698102D01*
X156917205Y-72509744D01*
X156803937Y-72340226D01*
X156659774Y-72196063D01*
X156490256Y-72082795D01*
X156301898Y-72004774D01*
X156101939Y-71965000D01*
X155898061Y-71965000D01*
X155698102Y-72004774D01*
X155509744Y-72082795D01*
X155340226Y-72196063D01*
X155196063Y-72340226D01*
X155082795Y-72509744D01*
X155004774Y-72698102D01*
X154965000Y-72898061D01*
X154965000Y-72960198D01*
X151685199Y-76240000D01*
X141703711Y-76240000D01*
X141659774Y-76196063D01*
X141490256Y-76082795D01*
X141301898Y-76004774D01*
X141101939Y-75965000D01*
X140898061Y-75965000D01*
X140698102Y-76004774D01*
X140509744Y-76082795D01*
X140340226Y-76196063D01*
X140196063Y-76340226D01*
X140082795Y-76509744D01*
X140004774Y-76698102D01*
X139965000Y-76898061D01*
X129927000Y-76898061D01*
X129927000Y-66198061D01*
X133764990Y-66198061D01*
X133764990Y-66401939D01*
X133804764Y-66601898D01*
X133882785Y-66790256D01*
X133996053Y-66959774D01*
X134039991Y-67003712D01*
X134039991Y-67609732D01*
X134036314Y-67647064D01*
X134039991Y-67684397D01*
X134049683Y-67782795D01*
X134050988Y-67796049D01*
X134094444Y-67939310D01*
X134165016Y-68071340D01*
X134199446Y-68113292D01*
X134259990Y-68187065D01*
X134288988Y-68210863D01*
X135035155Y-68957031D01*
X135035155Y-69019168D01*
X135074929Y-69219127D01*
X135152950Y-69407485D01*
X135266218Y-69577003D01*
X135410381Y-69721166D01*
X135579899Y-69834434D01*
X135768257Y-69912455D01*
X135968216Y-69952229D01*
X136172094Y-69952229D01*
X136372053Y-69912455D01*
X136560411Y-69834434D01*
X136729929Y-69721166D01*
X136874092Y-69577003D01*
X136987360Y-69407485D01*
X137065381Y-69219127D01*
X137105155Y-69019168D01*
X137105155Y-68815290D01*
X137065381Y-68615331D01*
X137058228Y-68598061D01*
X140665000Y-68598061D01*
X140665000Y-68801939D01*
X140704774Y-69001898D01*
X140782795Y-69190256D01*
X140789307Y-69200002D01*
X140782795Y-69209747D01*
X140704774Y-69398105D01*
X140665000Y-69598064D01*
X140665000Y-69801942D01*
X140704774Y-70001901D01*
X140782795Y-70190259D01*
X140896063Y-70359777D01*
X141040226Y-70503940D01*
X141209744Y-70617208D01*
X141398102Y-70695229D01*
X141598061Y-70735003D01*
X141660198Y-70735003D01*
X141761198Y-70836003D01*
X141784997Y-70865002D01*
X141900722Y-70959975D01*
X142032751Y-71030547D01*
X142176012Y-71074004D01*
X142287665Y-71085001D01*
X142287673Y-71085001D01*
X142324998Y-71088677D01*
X142362323Y-71085001D01*
X145637677Y-71085001D01*
X145674999Y-71088677D01*
X145712321Y-71085001D01*
X145712332Y-71085001D01*
X145823985Y-71074004D01*
X145967246Y-71030547D01*
X146099275Y-70959975D01*
X146215000Y-70865002D01*
X146238803Y-70835998D01*
X146439801Y-70635000D01*
X146501939Y-70635000D01*
X146701898Y-70595226D01*
X146890256Y-70517205D01*
X147059774Y-70403937D01*
X147203937Y-70259774D01*
X147317205Y-70090256D01*
X147395226Y-69901898D01*
X147435000Y-69701939D01*
X147435000Y-69498061D01*
X147395226Y-69298102D01*
X147317205Y-69109744D01*
X147203937Y-68940226D01*
X147059774Y-68796063D01*
X146890256Y-68682795D01*
X146701898Y-68604774D01*
X146501939Y-68565000D01*
X146298061Y-68565000D01*
X146098102Y-68604774D01*
X145909744Y-68682795D01*
X145740226Y-68796063D01*
X145596063Y-68940226D01*
X145500000Y-69083995D01*
X145403937Y-68940226D01*
X145259774Y-68796063D01*
X145090256Y-68682795D01*
X144901898Y-68604774D01*
X144701939Y-68565000D01*
X144639801Y-68565000D01*
X144263803Y-68189002D01*
X144240001Y-68159999D01*
X144124276Y-68065026D01*
X143992247Y-67994454D01*
X143848986Y-67950997D01*
X143737333Y-67940000D01*
X143737322Y-67940000D01*
X143700000Y-67936324D01*
X143662678Y-67940000D01*
X142403711Y-67940000D01*
X142359774Y-67896063D01*
X142190256Y-67782795D01*
X142001898Y-67704774D01*
X141801939Y-67665000D01*
X141598061Y-67665000D01*
X141398102Y-67704774D01*
X141209744Y-67782795D01*
X141040226Y-67896063D01*
X140896063Y-68040226D01*
X140782795Y-68209744D01*
X140704774Y-68398102D01*
X140665000Y-68598061D01*
X137058228Y-68598061D01*
X136987360Y-68426973D01*
X136874092Y-68257455D01*
X136729929Y-68113292D01*
X136560411Y-68000024D01*
X136372053Y-67922003D01*
X136172094Y-67882229D01*
X136109957Y-67882229D01*
X135559990Y-67332263D01*
X135559990Y-67003711D01*
X135603927Y-66959774D01*
X135717195Y-66790256D01*
X135795216Y-66601898D01*
X135834990Y-66401939D01*
X135834990Y-66198061D01*
X135795216Y-65998102D01*
X135717195Y-65809744D01*
X135603927Y-65640226D01*
X135459764Y-65496063D01*
X135290246Y-65382795D01*
X135101888Y-65304774D01*
X134901929Y-65265000D01*
X134698051Y-65265000D01*
X134498092Y-65304774D01*
X134309734Y-65382795D01*
X134140216Y-65496063D01*
X133996053Y-65640226D01*
X133882785Y-65809744D01*
X133804764Y-65998102D01*
X133764990Y-66198061D01*
X129927000Y-66198061D01*
X129927000Y-61678288D01*
X129973102Y-61697384D01*
X130173061Y-61737158D01*
X130376939Y-61737158D01*
X130576898Y-61697384D01*
X130765256Y-61619363D01*
X130934774Y-61506095D01*
X131078937Y-61361932D01*
X131192205Y-61192414D01*
X131270226Y-61004056D01*
X131310000Y-60804097D01*
X131310000Y-60600219D01*
X131270226Y-60400260D01*
X131192205Y-60211902D01*
X131180467Y-60194335D01*
X132039802Y-59335000D01*
X132101939Y-59335000D01*
X132301898Y-59295226D01*
X132490256Y-59217205D01*
X132590835Y-59150000D01*
X143211928Y-59150000D01*
X143211928Y-60850000D01*
X143224188Y-60974482D01*
X143260498Y-61094180D01*
X143319463Y-61204494D01*
X143398815Y-61301185D01*
X143495506Y-61380537D01*
X143605820Y-61439502D01*
X143725518Y-61475812D01*
X143850000Y-61488072D01*
X145550000Y-61488072D01*
X145674482Y-61475812D01*
X145794180Y-61439502D01*
X145904494Y-61380537D01*
X146001185Y-61301185D01*
X146080537Y-61204494D01*
X146139502Y-61094180D01*
X146175812Y-60974482D01*
X146188072Y-60850000D01*
X146188072Y-59150000D01*
X146175812Y-59025518D01*
X146139502Y-58905820D01*
X146080537Y-58795506D01*
X146001185Y-58698815D01*
X145904494Y-58619463D01*
X145794180Y-58560498D01*
X145721620Y-58538487D01*
X145853475Y-58406632D01*
X146015990Y-58163411D01*
X146083676Y-58000000D01*
X147284025Y-58000000D01*
X147307870Y-58242102D01*
X147378489Y-58474901D01*
X147493167Y-58689449D01*
X147647498Y-58877502D01*
X147686111Y-58909191D01*
X147681613Y-58911595D01*
X147547038Y-59022038D01*
X147436595Y-59156613D01*
X147354528Y-59310149D01*
X147303992Y-59476745D01*
X147286928Y-59649999D01*
X147286928Y-60350001D01*
X147303992Y-60523255D01*
X147354528Y-60689851D01*
X147436595Y-60843387D01*
X147547038Y-60977962D01*
X147681613Y-61088405D01*
X147835149Y-61170472D01*
X148001745Y-61221008D01*
X148174999Y-61238072D01*
X149425001Y-61238072D01*
X149598255Y-61221008D01*
X149764851Y-61170472D01*
X149918387Y-61088405D01*
X150052962Y-60977962D01*
X150163405Y-60843387D01*
X150245472Y-60689851D01*
X150296008Y-60523255D01*
X150313072Y-60350001D01*
X150313072Y-59649999D01*
X150296008Y-59476745D01*
X150245472Y-59310149D01*
X150163405Y-59156613D01*
X150052962Y-59022038D01*
X149918387Y-58911595D01*
X149913889Y-58909191D01*
X149952502Y-58877502D01*
X150106833Y-58689449D01*
X150221511Y-58474901D01*
X150292130Y-58242102D01*
X150315975Y-58000000D01*
X150292130Y-57757898D01*
X150221511Y-57525099D01*
X150106833Y-57310551D01*
X149952502Y-57122498D01*
X149764449Y-56968167D01*
X149549901Y-56853489D01*
X149317102Y-56782870D01*
X149135665Y-56765000D01*
X148464335Y-56765000D01*
X148282898Y-56782870D01*
X148050099Y-56853489D01*
X147835551Y-56968167D01*
X147647498Y-57122498D01*
X147493167Y-57310551D01*
X147378489Y-57525099D01*
X147307870Y-57757898D01*
X147284025Y-58000000D01*
X146083676Y-58000000D01*
X146127932Y-57893158D01*
X146185000Y-57606260D01*
X146185000Y-57313740D01*
X146127932Y-57026842D01*
X146015990Y-56756589D01*
X145853475Y-56513368D01*
X145646632Y-56306525D01*
X145403411Y-56144010D01*
X145133158Y-56032068D01*
X144846260Y-55975000D01*
X144553740Y-55975000D01*
X144266842Y-56032068D01*
X143996589Y-56144010D01*
X143753368Y-56306525D01*
X143546525Y-56513368D01*
X143384010Y-56756589D01*
X143272068Y-57026842D01*
X143215000Y-57313740D01*
X143215000Y-57606260D01*
X143272068Y-57893158D01*
X143384010Y-58163411D01*
X143546525Y-58406632D01*
X143678380Y-58538487D01*
X143605820Y-58560498D01*
X143495506Y-58619463D01*
X143398815Y-58698815D01*
X143319463Y-58795506D01*
X143260498Y-58905820D01*
X143224188Y-59025518D01*
X143211928Y-59150000D01*
X132590835Y-59150000D01*
X132659774Y-59103937D01*
X132803937Y-58959774D01*
X132917205Y-58790256D01*
X132995226Y-58601898D01*
X133035000Y-58401939D01*
X133035000Y-58198061D01*
X132995226Y-57998102D01*
X132917205Y-57809744D01*
X132803937Y-57640226D01*
X132659774Y-57496063D01*
X132490256Y-57382795D01*
X132301898Y-57304774D01*
X132101939Y-57265000D01*
X131898061Y-57265000D01*
X131698102Y-57304774D01*
X131509744Y-57382795D01*
X131340226Y-57496063D01*
X131196063Y-57640226D01*
X131082795Y-57809744D01*
X131004774Y-57998102D01*
X130965000Y-58198061D01*
X130965000Y-58260198D01*
X129927000Y-59298199D01*
X129927000Y-53560000D01*
X133796289Y-53560000D01*
X133840226Y-53603937D01*
X134009744Y-53717205D01*
X134198102Y-53795226D01*
X134398061Y-53835000D01*
X134601939Y-53835000D01*
X134801898Y-53795226D01*
X134990256Y-53717205D01*
X135159774Y-53603937D01*
X135303937Y-53459774D01*
X135417205Y-53290256D01*
X135495226Y-53101898D01*
X135535000Y-52901939D01*
X135535000Y-52698061D01*
X135495226Y-52498102D01*
X135417205Y-52309744D01*
X135303937Y-52140226D01*
X135159774Y-51996063D01*
X134990256Y-51882795D01*
X134801898Y-51804774D01*
X134601939Y-51765000D01*
X134398061Y-51765000D01*
X134198102Y-51804774D01*
X134009744Y-51882795D01*
X133840226Y-51996063D01*
X133796289Y-52040000D01*
X129927000Y-52040000D01*
X129927000Y-51260000D01*
X147296289Y-51260000D01*
X147340226Y-51303937D01*
X147509744Y-51417205D01*
X147698102Y-51495226D01*
X147898061Y-51535000D01*
X148101939Y-51535000D01*
X148301898Y-51495226D01*
X148490256Y-51417205D01*
X148659774Y-51303937D01*
X148803937Y-51159774D01*
X148917205Y-50990256D01*
X148995226Y-50801898D01*
X149035000Y-50601939D01*
X149035000Y-50398061D01*
X148995226Y-50198102D01*
X148917205Y-50009744D01*
X148803937Y-49840226D01*
X148659774Y-49696063D01*
X148490256Y-49582795D01*
X148301898Y-49504774D01*
X148101939Y-49465000D01*
X147898061Y-49465000D01*
X147698102Y-49504774D01*
X147509744Y-49582795D01*
X147340226Y-49696063D01*
X147296289Y-49740000D01*
X129927000Y-49740000D01*
X129927000Y-48326428D01*
X130343109Y-48719420D01*
X130359999Y-48740001D01*
X130397399Y-48770695D01*
X130405307Y-48778163D01*
X130426257Y-48794377D01*
X130475724Y-48834974D01*
X130485375Y-48840133D01*
X130494031Y-48846832D01*
X130551311Y-48875377D01*
X130607753Y-48905546D01*
X130618226Y-48908723D01*
X130628023Y-48913605D01*
X130689771Y-48930426D01*
X130751014Y-48949003D01*
X130761908Y-48950076D01*
X130772466Y-48952952D01*
X130836292Y-48957402D01*
X130862667Y-48960000D01*
X130873549Y-48960000D01*
X130921810Y-48963365D01*
X130948218Y-48960000D01*
X134896289Y-48960000D01*
X134940226Y-49003937D01*
X135109744Y-49117205D01*
X135298102Y-49195226D01*
X135498061Y-49235000D01*
X135701939Y-49235000D01*
X135901898Y-49195226D01*
X136090256Y-49117205D01*
X136259774Y-49003937D01*
X136403937Y-48859774D01*
X136517205Y-48690256D01*
X136595226Y-48501898D01*
X136635000Y-48301939D01*
X136635000Y-48298061D01*
X140365000Y-48298061D01*
X140365000Y-48501939D01*
X140404774Y-48701898D01*
X140482795Y-48890256D01*
X140596063Y-49059774D01*
X140740226Y-49203937D01*
X140909744Y-49317205D01*
X141098102Y-49395226D01*
X141298061Y-49435000D01*
X141501939Y-49435000D01*
X141701898Y-49395226D01*
X141890256Y-49317205D01*
X142059774Y-49203937D01*
X142203937Y-49059774D01*
X142317205Y-48890256D01*
X142395226Y-48701898D01*
X142435000Y-48501939D01*
X142435000Y-48439801D01*
X143411004Y-47463798D01*
X143440001Y-47440001D01*
X143534974Y-47324276D01*
X143538107Y-47318414D01*
X143559774Y-47303937D01*
X143703937Y-47159774D01*
X143817205Y-46990256D01*
X143895226Y-46801898D01*
X143935000Y-46601939D01*
X143935000Y-46398061D01*
X143895226Y-46198102D01*
X143817205Y-46009744D01*
X143703937Y-45840226D01*
X143559774Y-45696063D01*
X143390256Y-45582795D01*
X143201898Y-45504774D01*
X143001939Y-45465000D01*
X142798061Y-45465000D01*
X142598102Y-45504774D01*
X142409744Y-45582795D01*
X142240226Y-45696063D01*
X142096063Y-45840226D01*
X141982795Y-46009744D01*
X141904774Y-46198102D01*
X141865000Y-46398061D01*
X141865000Y-46601939D01*
X141904774Y-46801898D01*
X141910200Y-46814998D01*
X141360199Y-47365000D01*
X141298061Y-47365000D01*
X141098102Y-47404774D01*
X140909744Y-47482795D01*
X140740226Y-47596063D01*
X140596063Y-47740226D01*
X140482795Y-47909744D01*
X140404774Y-48098102D01*
X140365000Y-48298061D01*
X136635000Y-48298061D01*
X136635000Y-48098061D01*
X136595226Y-47898102D01*
X136517205Y-47709744D01*
X136403937Y-47540226D01*
X136259774Y-47396063D01*
X136090256Y-47282795D01*
X135901898Y-47204774D01*
X135701939Y-47165000D01*
X135498061Y-47165000D01*
X135298102Y-47204774D01*
X135109744Y-47282795D01*
X134940226Y-47396063D01*
X134896289Y-47440000D01*
X131202160Y-47440000D01*
X129927000Y-46235683D01*
X129927000Y-40660000D01*
X169340000Y-40660000D01*
X169340001Y-89340000D01*
G37*
X169340001Y-89340000D02*
X129927000Y-89340000D01*
X129927000Y-76898061D01*
X139965000Y-76898061D01*
X139965000Y-77101939D01*
X140004774Y-77301898D01*
X140082795Y-77490256D01*
X140196063Y-77659774D01*
X140340226Y-77803937D01*
X140509744Y-77917205D01*
X140698102Y-77995226D01*
X140898061Y-78035000D01*
X141101939Y-78035000D01*
X141301898Y-77995226D01*
X141490256Y-77917205D01*
X141659774Y-77803937D01*
X141703711Y-77760000D01*
X151962678Y-77760000D01*
X152000000Y-77763676D01*
X152037322Y-77760000D01*
X152037333Y-77760000D01*
X152148986Y-77749003D01*
X152292247Y-77705546D01*
X152424276Y-77634974D01*
X152540001Y-77540001D01*
X152563804Y-77510997D01*
X156039802Y-74035000D01*
X156101939Y-74035000D01*
X156301898Y-73995226D01*
X156490256Y-73917205D01*
X156659774Y-73803937D01*
X156803937Y-73659774D01*
X156917205Y-73490256D01*
X156995226Y-73301898D01*
X157035000Y-73101939D01*
X157035000Y-72898061D01*
X156995226Y-72698102D01*
X156917205Y-72509744D01*
X156803937Y-72340226D01*
X156659774Y-72196063D01*
X156490256Y-72082795D01*
X156301898Y-72004774D01*
X156101939Y-71965000D01*
X155898061Y-71965000D01*
X155698102Y-72004774D01*
X155509744Y-72082795D01*
X155340226Y-72196063D01*
X155196063Y-72340226D01*
X155082795Y-72509744D01*
X155004774Y-72698102D01*
X154965000Y-72898061D01*
X154965000Y-72960198D01*
X151685199Y-76240000D01*
X141703711Y-76240000D01*
X141659774Y-76196063D01*
X141490256Y-76082795D01*
X141301898Y-76004774D01*
X141101939Y-75965000D01*
X140898061Y-75965000D01*
X140698102Y-76004774D01*
X140509744Y-76082795D01*
X140340226Y-76196063D01*
X140196063Y-76340226D01*
X140082795Y-76509744D01*
X140004774Y-76698102D01*
X139965000Y-76898061D01*
X129927000Y-76898061D01*
X129927000Y-66198061D01*
X133764990Y-66198061D01*
X133764990Y-66401939D01*
X133804764Y-66601898D01*
X133882785Y-66790256D01*
X133996053Y-66959774D01*
X134039991Y-67003712D01*
X134039991Y-67609732D01*
X134036314Y-67647064D01*
X134039991Y-67684397D01*
X134049683Y-67782795D01*
X134050988Y-67796049D01*
X134094444Y-67939310D01*
X134165016Y-68071340D01*
X134199446Y-68113292D01*
X134259990Y-68187065D01*
X134288988Y-68210863D01*
X135035155Y-68957031D01*
X135035155Y-69019168D01*
X135074929Y-69219127D01*
X135152950Y-69407485D01*
X135266218Y-69577003D01*
X135410381Y-69721166D01*
X135579899Y-69834434D01*
X135768257Y-69912455D01*
X135968216Y-69952229D01*
X136172094Y-69952229D01*
X136372053Y-69912455D01*
X136560411Y-69834434D01*
X136729929Y-69721166D01*
X136874092Y-69577003D01*
X136987360Y-69407485D01*
X137065381Y-69219127D01*
X137105155Y-69019168D01*
X137105155Y-68815290D01*
X137065381Y-68615331D01*
X137058228Y-68598061D01*
X140665000Y-68598061D01*
X140665000Y-68801939D01*
X140704774Y-69001898D01*
X140782795Y-69190256D01*
X140789307Y-69200002D01*
X140782795Y-69209747D01*
X140704774Y-69398105D01*
X140665000Y-69598064D01*
X140665000Y-69801942D01*
X140704774Y-70001901D01*
X140782795Y-70190259D01*
X140896063Y-70359777D01*
X141040226Y-70503940D01*
X141209744Y-70617208D01*
X141398102Y-70695229D01*
X141598061Y-70735003D01*
X141660198Y-70735003D01*
X141761198Y-70836003D01*
X141784997Y-70865002D01*
X141900722Y-70959975D01*
X142032751Y-71030547D01*
X142176012Y-71074004D01*
X142287665Y-71085001D01*
X142287673Y-71085001D01*
X142324998Y-71088677D01*
X142362323Y-71085001D01*
X145637677Y-71085001D01*
X145674999Y-71088677D01*
X145712321Y-71085001D01*
X145712332Y-71085001D01*
X145823985Y-71074004D01*
X145967246Y-71030547D01*
X146099275Y-70959975D01*
X146215000Y-70865002D01*
X146238803Y-70835998D01*
X146439801Y-70635000D01*
X146501939Y-70635000D01*
X146701898Y-70595226D01*
X146890256Y-70517205D01*
X147059774Y-70403937D01*
X147203937Y-70259774D01*
X147317205Y-70090256D01*
X147395226Y-69901898D01*
X147435000Y-69701939D01*
X147435000Y-69498061D01*
X147395226Y-69298102D01*
X147317205Y-69109744D01*
X147203937Y-68940226D01*
X147059774Y-68796063D01*
X146890256Y-68682795D01*
X146701898Y-68604774D01*
X146501939Y-68565000D01*
X146298061Y-68565000D01*
X146098102Y-68604774D01*
X145909744Y-68682795D01*
X145740226Y-68796063D01*
X145596063Y-68940226D01*
X145500000Y-69083995D01*
X145403937Y-68940226D01*
X145259774Y-68796063D01*
X145090256Y-68682795D01*
X144901898Y-68604774D01*
X144701939Y-68565000D01*
X144639801Y-68565000D01*
X144263803Y-68189002D01*
X144240001Y-68159999D01*
X144124276Y-68065026D01*
X143992247Y-67994454D01*
X143848986Y-67950997D01*
X143737333Y-67940000D01*
X143737322Y-67940000D01*
X143700000Y-67936324D01*
X143662678Y-67940000D01*
X142403711Y-67940000D01*
X142359774Y-67896063D01*
X142190256Y-67782795D01*
X142001898Y-67704774D01*
X141801939Y-67665000D01*
X141598061Y-67665000D01*
X141398102Y-67704774D01*
X141209744Y-67782795D01*
X141040226Y-67896063D01*
X140896063Y-68040226D01*
X140782795Y-68209744D01*
X140704774Y-68398102D01*
X140665000Y-68598061D01*
X137058228Y-68598061D01*
X136987360Y-68426973D01*
X136874092Y-68257455D01*
X136729929Y-68113292D01*
X136560411Y-68000024D01*
X136372053Y-67922003D01*
X136172094Y-67882229D01*
X136109957Y-67882229D01*
X135559990Y-67332263D01*
X135559990Y-67003711D01*
X135603927Y-66959774D01*
X135717195Y-66790256D01*
X135795216Y-66601898D01*
X135834990Y-66401939D01*
X135834990Y-66198061D01*
X135795216Y-65998102D01*
X135717195Y-65809744D01*
X135603927Y-65640226D01*
X135459764Y-65496063D01*
X135290246Y-65382795D01*
X135101888Y-65304774D01*
X134901929Y-65265000D01*
X134698051Y-65265000D01*
X134498092Y-65304774D01*
X134309734Y-65382795D01*
X134140216Y-65496063D01*
X133996053Y-65640226D01*
X133882785Y-65809744D01*
X133804764Y-65998102D01*
X133764990Y-66198061D01*
X129927000Y-66198061D01*
X129927000Y-61678288D01*
X129973102Y-61697384D01*
X130173061Y-61737158D01*
X130376939Y-61737158D01*
X130576898Y-61697384D01*
X130765256Y-61619363D01*
X130934774Y-61506095D01*
X131078937Y-61361932D01*
X131192205Y-61192414D01*
X131270226Y-61004056D01*
X131310000Y-60804097D01*
X131310000Y-60600219D01*
X131270226Y-60400260D01*
X131192205Y-60211902D01*
X131180467Y-60194335D01*
X132039802Y-59335000D01*
X132101939Y-59335000D01*
X132301898Y-59295226D01*
X132490256Y-59217205D01*
X132590835Y-59150000D01*
X143211928Y-59150000D01*
X143211928Y-60850000D01*
X143224188Y-60974482D01*
X143260498Y-61094180D01*
X143319463Y-61204494D01*
X143398815Y-61301185D01*
X143495506Y-61380537D01*
X143605820Y-61439502D01*
X143725518Y-61475812D01*
X143850000Y-61488072D01*
X145550000Y-61488072D01*
X145674482Y-61475812D01*
X145794180Y-61439502D01*
X145904494Y-61380537D01*
X146001185Y-61301185D01*
X146080537Y-61204494D01*
X146139502Y-61094180D01*
X146175812Y-60974482D01*
X146188072Y-60850000D01*
X146188072Y-59150000D01*
X146175812Y-59025518D01*
X146139502Y-58905820D01*
X146080537Y-58795506D01*
X146001185Y-58698815D01*
X145904494Y-58619463D01*
X145794180Y-58560498D01*
X145721620Y-58538487D01*
X145853475Y-58406632D01*
X146015990Y-58163411D01*
X146083676Y-58000000D01*
X147284025Y-58000000D01*
X147307870Y-58242102D01*
X147378489Y-58474901D01*
X147493167Y-58689449D01*
X147647498Y-58877502D01*
X147686111Y-58909191D01*
X147681613Y-58911595D01*
X147547038Y-59022038D01*
X147436595Y-59156613D01*
X147354528Y-59310149D01*
X147303992Y-59476745D01*
X147286928Y-59649999D01*
X147286928Y-60350001D01*
X147303992Y-60523255D01*
X147354528Y-60689851D01*
X147436595Y-60843387D01*
X147547038Y-60977962D01*
X147681613Y-61088405D01*
X147835149Y-61170472D01*
X148001745Y-61221008D01*
X148174999Y-61238072D01*
X149425001Y-61238072D01*
X149598255Y-61221008D01*
X149764851Y-61170472D01*
X149918387Y-61088405D01*
X150052962Y-60977962D01*
X150163405Y-60843387D01*
X150245472Y-60689851D01*
X150296008Y-60523255D01*
X150313072Y-60350001D01*
X150313072Y-59649999D01*
X150296008Y-59476745D01*
X150245472Y-59310149D01*
X150163405Y-59156613D01*
X150052962Y-59022038D01*
X149918387Y-58911595D01*
X149913889Y-58909191D01*
X149952502Y-58877502D01*
X150106833Y-58689449D01*
X150221511Y-58474901D01*
X150292130Y-58242102D01*
X150315975Y-58000000D01*
X150292130Y-57757898D01*
X150221511Y-57525099D01*
X150106833Y-57310551D01*
X149952502Y-57122498D01*
X149764449Y-56968167D01*
X149549901Y-56853489D01*
X149317102Y-56782870D01*
X149135665Y-56765000D01*
X148464335Y-56765000D01*
X148282898Y-56782870D01*
X148050099Y-56853489D01*
X147835551Y-56968167D01*
X147647498Y-57122498D01*
X147493167Y-57310551D01*
X147378489Y-57525099D01*
X147307870Y-57757898D01*
X147284025Y-58000000D01*
X146083676Y-58000000D01*
X146127932Y-57893158D01*
X146185000Y-57606260D01*
X146185000Y-57313740D01*
X146127932Y-57026842D01*
X146015990Y-56756589D01*
X145853475Y-56513368D01*
X145646632Y-56306525D01*
X145403411Y-56144010D01*
X145133158Y-56032068D01*
X144846260Y-55975000D01*
X144553740Y-55975000D01*
X144266842Y-56032068D01*
X143996589Y-56144010D01*
X143753368Y-56306525D01*
X143546525Y-56513368D01*
X143384010Y-56756589D01*
X143272068Y-57026842D01*
X143215000Y-57313740D01*
X143215000Y-57606260D01*
X143272068Y-57893158D01*
X143384010Y-58163411D01*
X143546525Y-58406632D01*
X143678380Y-58538487D01*
X143605820Y-58560498D01*
X143495506Y-58619463D01*
X143398815Y-58698815D01*
X143319463Y-58795506D01*
X143260498Y-58905820D01*
X143224188Y-59025518D01*
X143211928Y-59150000D01*
X132590835Y-59150000D01*
X132659774Y-59103937D01*
X132803937Y-58959774D01*
X132917205Y-58790256D01*
X132995226Y-58601898D01*
X133035000Y-58401939D01*
X133035000Y-58198061D01*
X132995226Y-57998102D01*
X132917205Y-57809744D01*
X132803937Y-57640226D01*
X132659774Y-57496063D01*
X132490256Y-57382795D01*
X132301898Y-57304774D01*
X132101939Y-57265000D01*
X131898061Y-57265000D01*
X131698102Y-57304774D01*
X131509744Y-57382795D01*
X131340226Y-57496063D01*
X131196063Y-57640226D01*
X131082795Y-57809744D01*
X131004774Y-57998102D01*
X130965000Y-58198061D01*
X130965000Y-58260198D01*
X129927000Y-59298199D01*
X129927000Y-53560000D01*
X133796289Y-53560000D01*
X133840226Y-53603937D01*
X134009744Y-53717205D01*
X134198102Y-53795226D01*
X134398061Y-53835000D01*
X134601939Y-53835000D01*
X134801898Y-53795226D01*
X134990256Y-53717205D01*
X135159774Y-53603937D01*
X135303937Y-53459774D01*
X135417205Y-53290256D01*
X135495226Y-53101898D01*
X135535000Y-52901939D01*
X135535000Y-52698061D01*
X135495226Y-52498102D01*
X135417205Y-52309744D01*
X135303937Y-52140226D01*
X135159774Y-51996063D01*
X134990256Y-51882795D01*
X134801898Y-51804774D01*
X134601939Y-51765000D01*
X134398061Y-51765000D01*
X134198102Y-51804774D01*
X134009744Y-51882795D01*
X133840226Y-51996063D01*
X133796289Y-52040000D01*
X129927000Y-52040000D01*
X129927000Y-51260000D01*
X147296289Y-51260000D01*
X147340226Y-51303937D01*
X147509744Y-51417205D01*
X147698102Y-51495226D01*
X147898061Y-51535000D01*
X148101939Y-51535000D01*
X148301898Y-51495226D01*
X148490256Y-51417205D01*
X148659774Y-51303937D01*
X148803937Y-51159774D01*
X148917205Y-50990256D01*
X148995226Y-50801898D01*
X149035000Y-50601939D01*
X149035000Y-50398061D01*
X148995226Y-50198102D01*
X148917205Y-50009744D01*
X148803937Y-49840226D01*
X148659774Y-49696063D01*
X148490256Y-49582795D01*
X148301898Y-49504774D01*
X148101939Y-49465000D01*
X147898061Y-49465000D01*
X147698102Y-49504774D01*
X147509744Y-49582795D01*
X147340226Y-49696063D01*
X147296289Y-49740000D01*
X129927000Y-49740000D01*
X129927000Y-48326428D01*
X130343109Y-48719420D01*
X130359999Y-48740001D01*
X130397399Y-48770695D01*
X130405307Y-48778163D01*
X130426257Y-48794377D01*
X130475724Y-48834974D01*
X130485375Y-48840133D01*
X130494031Y-48846832D01*
X130551311Y-48875377D01*
X130607753Y-48905546D01*
X130618226Y-48908723D01*
X130628023Y-48913605D01*
X130689771Y-48930426D01*
X130751014Y-48949003D01*
X130761908Y-48950076D01*
X130772466Y-48952952D01*
X130836292Y-48957402D01*
X130862667Y-48960000D01*
X130873549Y-48960000D01*
X130921810Y-48963365D01*
X130948218Y-48960000D01*
X134896289Y-48960000D01*
X134940226Y-49003937D01*
X135109744Y-49117205D01*
X135298102Y-49195226D01*
X135498061Y-49235000D01*
X135701939Y-49235000D01*
X135901898Y-49195226D01*
X136090256Y-49117205D01*
X136259774Y-49003937D01*
X136403937Y-48859774D01*
X136517205Y-48690256D01*
X136595226Y-48501898D01*
X136635000Y-48301939D01*
X136635000Y-48298061D01*
X140365000Y-48298061D01*
X140365000Y-48501939D01*
X140404774Y-48701898D01*
X140482795Y-48890256D01*
X140596063Y-49059774D01*
X140740226Y-49203937D01*
X140909744Y-49317205D01*
X141098102Y-49395226D01*
X141298061Y-49435000D01*
X141501939Y-49435000D01*
X141701898Y-49395226D01*
X141890256Y-49317205D01*
X142059774Y-49203937D01*
X142203937Y-49059774D01*
X142317205Y-48890256D01*
X142395226Y-48701898D01*
X142435000Y-48501939D01*
X142435000Y-48439801D01*
X143411004Y-47463798D01*
X143440001Y-47440001D01*
X143534974Y-47324276D01*
X143538107Y-47318414D01*
X143559774Y-47303937D01*
X143703937Y-47159774D01*
X143817205Y-46990256D01*
X143895226Y-46801898D01*
X143935000Y-46601939D01*
X143935000Y-46398061D01*
X143895226Y-46198102D01*
X143817205Y-46009744D01*
X143703937Y-45840226D01*
X143559774Y-45696063D01*
X143390256Y-45582795D01*
X143201898Y-45504774D01*
X143001939Y-45465000D01*
X142798061Y-45465000D01*
X142598102Y-45504774D01*
X142409744Y-45582795D01*
X142240226Y-45696063D01*
X142096063Y-45840226D01*
X141982795Y-46009744D01*
X141904774Y-46198102D01*
X141865000Y-46398061D01*
X141865000Y-46601939D01*
X141904774Y-46801898D01*
X141910200Y-46814998D01*
X141360199Y-47365000D01*
X141298061Y-47365000D01*
X141098102Y-47404774D01*
X140909744Y-47482795D01*
X140740226Y-47596063D01*
X140596063Y-47740226D01*
X140482795Y-47909744D01*
X140404774Y-48098102D01*
X140365000Y-48298061D01*
X136635000Y-48298061D01*
X136635000Y-48098061D01*
X136595226Y-47898102D01*
X136517205Y-47709744D01*
X136403937Y-47540226D01*
X136259774Y-47396063D01*
X136090256Y-47282795D01*
X135901898Y-47204774D01*
X135701939Y-47165000D01*
X135498061Y-47165000D01*
X135298102Y-47204774D01*
X135109744Y-47282795D01*
X134940226Y-47396063D01*
X134896289Y-47440000D01*
X131202160Y-47440000D01*
X129927000Y-46235683D01*
X129927000Y-40660000D01*
X169340000Y-40660000D01*
X169340001Y-89340000D01*
M02*
