G04 #@! TF.GenerationSoftware,KiCad,Pcbnew,(5.1.5-0)*
G04 #@! TF.CreationDate,2022-02-10T11:07:37-07:00*
G04 #@! TF.ProjectId,TPS61165-heater-v4,54505336-3131-4363-952d-686561746572,rev?*
G04 #@! TF.SameCoordinates,Original*
G04 #@! TF.FileFunction,Soldermask,Bot*
G04 #@! TF.FilePolarity,Negative*
%FSLAX46Y46*%
G04 Gerber Fmt 4.6, Leading zero omitted, Abs format (unit mm)*
G04 Created by KiCad (PCBNEW (5.1.5-0)) date 2022-02-10 11:07:37*
%MOMM*%
%LPD*%
G04 APERTURE LIST*
%ADD10C,0.100000*%
G04 APERTURE END LIST*
D10*
G36*
X122792818Y-87527696D02*
G01*
X122906105Y-87562062D01*
X123010512Y-87617869D01*
X123102027Y-87692973D01*
X123177131Y-87784488D01*
X123232938Y-87888895D01*
X123267304Y-88002182D01*
X123278907Y-88120000D01*
X123267304Y-88237818D01*
X123232938Y-88351105D01*
X123177131Y-88455512D01*
X123102027Y-88547027D01*
X123010512Y-88622131D01*
X122906105Y-88677938D01*
X122792818Y-88712304D01*
X122704519Y-88721000D01*
X121945481Y-88721000D01*
X121857182Y-88712304D01*
X121743895Y-88677938D01*
X121639488Y-88622131D01*
X121547973Y-88547027D01*
X121472869Y-88455512D01*
X121417062Y-88351105D01*
X121382696Y-88237818D01*
X121371093Y-88120000D01*
X121382696Y-88002182D01*
X121417062Y-87888895D01*
X121472869Y-87784488D01*
X121547973Y-87692973D01*
X121639488Y-87617869D01*
X121743895Y-87562062D01*
X121857182Y-87527696D01*
X121945481Y-87519000D01*
X122704519Y-87519000D01*
X122792818Y-87527696D01*
G37*
G36*
X118992818Y-87527696D02*
G01*
X119106105Y-87562062D01*
X119210512Y-87617869D01*
X119302027Y-87692973D01*
X119377131Y-87784488D01*
X119432938Y-87888895D01*
X119467304Y-88002182D01*
X119478907Y-88120000D01*
X119467304Y-88237818D01*
X119432938Y-88351105D01*
X119377131Y-88455512D01*
X119302027Y-88547027D01*
X119210512Y-88622131D01*
X119106105Y-88677938D01*
X118992818Y-88712304D01*
X118904519Y-88721000D01*
X118145481Y-88721000D01*
X118057182Y-88712304D01*
X117943895Y-88677938D01*
X117839488Y-88622131D01*
X117747973Y-88547027D01*
X117672869Y-88455512D01*
X117617062Y-88351105D01*
X117582696Y-88237818D01*
X117571093Y-88120000D01*
X117582696Y-88002182D01*
X117617062Y-87888895D01*
X117672869Y-87784488D01*
X117747973Y-87692973D01*
X117839488Y-87617869D01*
X117943895Y-87562062D01*
X118057182Y-87527696D01*
X118145481Y-87519000D01*
X118904519Y-87519000D01*
X118992818Y-87527696D01*
G37*
G36*
X122792818Y-78887696D02*
G01*
X122906105Y-78922062D01*
X123010512Y-78977869D01*
X123102027Y-79052973D01*
X123177131Y-79144488D01*
X123232938Y-79248895D01*
X123267304Y-79362182D01*
X123278907Y-79480000D01*
X123267304Y-79597818D01*
X123232938Y-79711105D01*
X123177131Y-79815512D01*
X123102027Y-79907027D01*
X123010512Y-79982131D01*
X122906105Y-80037938D01*
X122792818Y-80072304D01*
X122704519Y-80081000D01*
X121945481Y-80081000D01*
X121857182Y-80072304D01*
X121743895Y-80037938D01*
X121639488Y-79982131D01*
X121547973Y-79907027D01*
X121472869Y-79815512D01*
X121417062Y-79711105D01*
X121382696Y-79597818D01*
X121371093Y-79480000D01*
X121382696Y-79362182D01*
X121417062Y-79248895D01*
X121472869Y-79144488D01*
X121547973Y-79052973D01*
X121639488Y-78977869D01*
X121743895Y-78922062D01*
X121857182Y-78887696D01*
X121945481Y-78879000D01*
X122704519Y-78879000D01*
X122792818Y-78887696D01*
G37*
G36*
X118992818Y-78887696D02*
G01*
X119106105Y-78922062D01*
X119210512Y-78977869D01*
X119302027Y-79052973D01*
X119377131Y-79144488D01*
X119432938Y-79248895D01*
X119467304Y-79362182D01*
X119478907Y-79480000D01*
X119467304Y-79597818D01*
X119432938Y-79711105D01*
X119377131Y-79815512D01*
X119302027Y-79907027D01*
X119210512Y-79982131D01*
X119106105Y-80037938D01*
X118992818Y-80072304D01*
X118904519Y-80081000D01*
X118145481Y-80081000D01*
X118057182Y-80072304D01*
X117943895Y-80037938D01*
X117839488Y-79982131D01*
X117747973Y-79907027D01*
X117672869Y-79815512D01*
X117617062Y-79711105D01*
X117582696Y-79597818D01*
X117571093Y-79480000D01*
X117582696Y-79362182D01*
X117617062Y-79248895D01*
X117672869Y-79144488D01*
X117747973Y-79052973D01*
X117839488Y-78977869D01*
X117943895Y-78922062D01*
X118057182Y-78887696D01*
X118145481Y-78879000D01*
X118904519Y-78879000D01*
X118992818Y-78887696D01*
G37*
G36*
X123338855Y-72052140D02*
G01*
X123402618Y-72058420D01*
X123493404Y-72085960D01*
X123525336Y-72095646D01*
X123638425Y-72156094D01*
X123737554Y-72237446D01*
X123818906Y-72336575D01*
X123879354Y-72449664D01*
X123879355Y-72449668D01*
X123916580Y-72572382D01*
X123929149Y-72700000D01*
X123916580Y-72827618D01*
X123889040Y-72918404D01*
X123879354Y-72950336D01*
X123818906Y-73063425D01*
X123737554Y-73162554D01*
X123638425Y-73243906D01*
X123525336Y-73304354D01*
X123493404Y-73314040D01*
X123402618Y-73341580D01*
X123338855Y-73347860D01*
X123306974Y-73351000D01*
X122693026Y-73351000D01*
X122661145Y-73347860D01*
X122597382Y-73341580D01*
X122506596Y-73314040D01*
X122474664Y-73304354D01*
X122361575Y-73243906D01*
X122262446Y-73162554D01*
X122181094Y-73063425D01*
X122120646Y-72950336D01*
X122110960Y-72918404D01*
X122083420Y-72827618D01*
X122070851Y-72700000D01*
X122083420Y-72572382D01*
X122120645Y-72449668D01*
X122120646Y-72449664D01*
X122181094Y-72336575D01*
X122262446Y-72237446D01*
X122361575Y-72156094D01*
X122474664Y-72095646D01*
X122506596Y-72085960D01*
X122597382Y-72058420D01*
X122661145Y-72052140D01*
X122693026Y-72049000D01*
X123306974Y-72049000D01*
X123338855Y-72052140D01*
G37*
G36*
X123766242Y-70053404D02*
G01*
X123803337Y-70064657D01*
X123837515Y-70082925D01*
X123867481Y-70107519D01*
X123892075Y-70137485D01*
X123910343Y-70171663D01*
X123921596Y-70208758D01*
X123926000Y-70253474D01*
X123926000Y-71146526D01*
X123921596Y-71191242D01*
X123910343Y-71228337D01*
X123892075Y-71262515D01*
X123867481Y-71292481D01*
X123837515Y-71317075D01*
X123803337Y-71335343D01*
X123766242Y-71346596D01*
X123721526Y-71351000D01*
X122278474Y-71351000D01*
X122233758Y-71346596D01*
X122196663Y-71335343D01*
X122162485Y-71317075D01*
X122132519Y-71292481D01*
X122107925Y-71262515D01*
X122089657Y-71228337D01*
X122078404Y-71191242D01*
X122074000Y-71146526D01*
X122074000Y-70253474D01*
X122078404Y-70208758D01*
X122089657Y-70171663D01*
X122107925Y-70137485D01*
X122132519Y-70107519D01*
X122162485Y-70082925D01*
X122196663Y-70064657D01*
X122233758Y-70053404D01*
X122278474Y-70049000D01*
X123721526Y-70049000D01*
X123766242Y-70053404D01*
G37*
G36*
X145601000Y-60901000D02*
G01*
X143799000Y-60901000D01*
X143799000Y-59099000D01*
X145601000Y-59099000D01*
X145601000Y-60901000D01*
G37*
G36*
X149566242Y-59353404D02*
G01*
X149603337Y-59364657D01*
X149637515Y-59382925D01*
X149667481Y-59407519D01*
X149692075Y-59437485D01*
X149710343Y-59471663D01*
X149721596Y-59508758D01*
X149726000Y-59553474D01*
X149726000Y-60446526D01*
X149721596Y-60491242D01*
X149710343Y-60528337D01*
X149692075Y-60562515D01*
X149667481Y-60592481D01*
X149637515Y-60617075D01*
X149603337Y-60635343D01*
X149566242Y-60646596D01*
X149521526Y-60651000D01*
X148078474Y-60651000D01*
X148033758Y-60646596D01*
X147996663Y-60635343D01*
X147962485Y-60617075D01*
X147932519Y-60592481D01*
X147907925Y-60562515D01*
X147889657Y-60528337D01*
X147878404Y-60491242D01*
X147874000Y-60446526D01*
X147874000Y-59553474D01*
X147878404Y-59508758D01*
X147889657Y-59471663D01*
X147907925Y-59437485D01*
X147932519Y-59407519D01*
X147962485Y-59382925D01*
X147996663Y-59364657D01*
X148033758Y-59353404D01*
X148078474Y-59349000D01*
X149521526Y-59349000D01*
X149566242Y-59353404D01*
G37*
G36*
X149138855Y-57352140D02*
G01*
X149202618Y-57358420D01*
X149293404Y-57385960D01*
X149325336Y-57395646D01*
X149438425Y-57456094D01*
X149537554Y-57537446D01*
X149618906Y-57636575D01*
X149679354Y-57749664D01*
X149679355Y-57749668D01*
X149716580Y-57872382D01*
X149729149Y-58000000D01*
X149716580Y-58127618D01*
X149689040Y-58218404D01*
X149679354Y-58250336D01*
X149618906Y-58363425D01*
X149537554Y-58462554D01*
X149438425Y-58543906D01*
X149325336Y-58604354D01*
X149293404Y-58614040D01*
X149202618Y-58641580D01*
X149138855Y-58647860D01*
X149106974Y-58651000D01*
X148493026Y-58651000D01*
X148461145Y-58647860D01*
X148397382Y-58641580D01*
X148306596Y-58614040D01*
X148274664Y-58604354D01*
X148161575Y-58543906D01*
X148062446Y-58462554D01*
X147981094Y-58363425D01*
X147920646Y-58250336D01*
X147910960Y-58218404D01*
X147883420Y-58127618D01*
X147870851Y-58000000D01*
X147883420Y-57872382D01*
X147920645Y-57749668D01*
X147920646Y-57749664D01*
X147981094Y-57636575D01*
X148062446Y-57537446D01*
X148161575Y-57456094D01*
X148274664Y-57395646D01*
X148306596Y-57385960D01*
X148397382Y-57358420D01*
X148461145Y-57352140D01*
X148493026Y-57349000D01*
X149106974Y-57349000D01*
X149138855Y-57352140D01*
G37*
G36*
X144813512Y-56563927D02*
G01*
X144962812Y-56593624D01*
X145126784Y-56661544D01*
X145274354Y-56760147D01*
X145399853Y-56885646D01*
X145498456Y-57033216D01*
X145566376Y-57197188D01*
X145601000Y-57371259D01*
X145601000Y-57548741D01*
X145566376Y-57722812D01*
X145498456Y-57886784D01*
X145399853Y-58034354D01*
X145274354Y-58159853D01*
X145126784Y-58258456D01*
X144962812Y-58326376D01*
X144813512Y-58356073D01*
X144788742Y-58361000D01*
X144611258Y-58361000D01*
X144586488Y-58356073D01*
X144437188Y-58326376D01*
X144273216Y-58258456D01*
X144125646Y-58159853D01*
X144000147Y-58034354D01*
X143901544Y-57886784D01*
X143833624Y-57722812D01*
X143799000Y-57548741D01*
X143799000Y-57371259D01*
X143833624Y-57197188D01*
X143901544Y-57033216D01*
X144000147Y-56885646D01*
X144125646Y-56760147D01*
X144273216Y-56661544D01*
X144437188Y-56593624D01*
X144586488Y-56563927D01*
X144611258Y-56559000D01*
X144788742Y-56559000D01*
X144813512Y-56563927D01*
G37*
G36*
X127213512Y-53023927D02*
G01*
X127362812Y-53053624D01*
X127526784Y-53121544D01*
X127674354Y-53220147D01*
X127799853Y-53345646D01*
X127898456Y-53493216D01*
X127966376Y-53657188D01*
X128001000Y-53831259D01*
X128001000Y-54008741D01*
X127966376Y-54182812D01*
X127898456Y-54346784D01*
X127799853Y-54494354D01*
X127674354Y-54619853D01*
X127526784Y-54718456D01*
X127362812Y-54786376D01*
X127213512Y-54816073D01*
X127188742Y-54821000D01*
X127011258Y-54821000D01*
X126986488Y-54816073D01*
X126837188Y-54786376D01*
X126673216Y-54718456D01*
X126525646Y-54619853D01*
X126400147Y-54494354D01*
X126301544Y-54346784D01*
X126233624Y-54182812D01*
X126199000Y-54008741D01*
X126199000Y-53831259D01*
X126233624Y-53657188D01*
X126301544Y-53493216D01*
X126400147Y-53345646D01*
X126525646Y-53220147D01*
X126673216Y-53121544D01*
X126837188Y-53053624D01*
X126986488Y-53023927D01*
X127011258Y-53019000D01*
X127188742Y-53019000D01*
X127213512Y-53023927D01*
G37*
G36*
X127213512Y-50483927D02*
G01*
X127362812Y-50513624D01*
X127526784Y-50581544D01*
X127674354Y-50680147D01*
X127799853Y-50805646D01*
X127898456Y-50953216D01*
X127966376Y-51117188D01*
X128001000Y-51291259D01*
X128001000Y-51468741D01*
X127966376Y-51642812D01*
X127898456Y-51806784D01*
X127799853Y-51954354D01*
X127674354Y-52079853D01*
X127526784Y-52178456D01*
X127362812Y-52246376D01*
X127213512Y-52276073D01*
X127188742Y-52281000D01*
X127011258Y-52281000D01*
X126986488Y-52276073D01*
X126837188Y-52246376D01*
X126673216Y-52178456D01*
X126525646Y-52079853D01*
X126400147Y-51954354D01*
X126301544Y-51806784D01*
X126233624Y-51642812D01*
X126199000Y-51468741D01*
X126199000Y-51291259D01*
X126233624Y-51117188D01*
X126301544Y-50953216D01*
X126400147Y-50805646D01*
X126525646Y-50680147D01*
X126673216Y-50581544D01*
X126837188Y-50513624D01*
X126986488Y-50483927D01*
X127011258Y-50479000D01*
X127188742Y-50479000D01*
X127213512Y-50483927D01*
G37*
G36*
X127213512Y-47943927D02*
G01*
X127362812Y-47973624D01*
X127526784Y-48041544D01*
X127674354Y-48140147D01*
X127799853Y-48265646D01*
X127898456Y-48413216D01*
X127966376Y-48577188D01*
X128001000Y-48751259D01*
X128001000Y-48928741D01*
X127966376Y-49102812D01*
X127898456Y-49266784D01*
X127799853Y-49414354D01*
X127674354Y-49539853D01*
X127526784Y-49638456D01*
X127362812Y-49706376D01*
X127213512Y-49736073D01*
X127188742Y-49741000D01*
X127011258Y-49741000D01*
X126986488Y-49736073D01*
X126837188Y-49706376D01*
X126673216Y-49638456D01*
X126525646Y-49539853D01*
X126400147Y-49414354D01*
X126301544Y-49266784D01*
X126233624Y-49102812D01*
X126199000Y-48928741D01*
X126199000Y-48751259D01*
X126233624Y-48577188D01*
X126301544Y-48413216D01*
X126400147Y-48265646D01*
X126525646Y-48140147D01*
X126673216Y-48041544D01*
X126837188Y-47973624D01*
X126986488Y-47943927D01*
X127011258Y-47939000D01*
X127188742Y-47939000D01*
X127213512Y-47943927D01*
G37*
G36*
X128001000Y-47201000D02*
G01*
X126199000Y-47201000D01*
X126199000Y-45399000D01*
X128001000Y-45399000D01*
X128001000Y-47201000D01*
G37*
M02*
