G04 #@! TF.GenerationSoftware,KiCad,Pcbnew,(5.1.5-0)*
G04 #@! TF.CreationDate,2022-02-10T11:07:37-07:00*
G04 #@! TF.ProjectId,TPS61165-heater-v4,54505336-3131-4363-952d-686561746572,rev?*
G04 #@! TF.SameCoordinates,Original*
G04 #@! TF.FileFunction,Soldermask,Top*
G04 #@! TF.FilePolarity,Negative*
%FSLAX46Y46*%
G04 Gerber Fmt 4.6, Leading zero omitted, Abs format (unit mm)*
G04 Created by KiCad (PCBNEW (5.1.5-0)) date 2022-02-10 11:07:37*
%MOMM*%
%LPD*%
G04 APERTURE LIST*
%ADD10C,0.100000*%
G04 APERTURE END LIST*
D10*
G36*
X122792818Y-87527696D02*
G01*
X122906105Y-87562062D01*
X123010512Y-87617869D01*
X123102027Y-87692973D01*
X123177131Y-87784488D01*
X123232938Y-87888895D01*
X123267304Y-88002182D01*
X123278907Y-88120000D01*
X123267304Y-88237818D01*
X123232938Y-88351105D01*
X123177131Y-88455512D01*
X123102027Y-88547027D01*
X123010512Y-88622131D01*
X122906105Y-88677938D01*
X122792818Y-88712304D01*
X122704519Y-88721000D01*
X121945481Y-88721000D01*
X121857182Y-88712304D01*
X121743895Y-88677938D01*
X121639488Y-88622131D01*
X121547973Y-88547027D01*
X121472869Y-88455512D01*
X121417062Y-88351105D01*
X121382696Y-88237818D01*
X121371093Y-88120000D01*
X121382696Y-88002182D01*
X121417062Y-87888895D01*
X121472869Y-87784488D01*
X121547973Y-87692973D01*
X121639488Y-87617869D01*
X121743895Y-87562062D01*
X121857182Y-87527696D01*
X121945481Y-87519000D01*
X122704519Y-87519000D01*
X122792818Y-87527696D01*
G37*
G36*
X118992818Y-87527696D02*
G01*
X119106105Y-87562062D01*
X119210512Y-87617869D01*
X119302027Y-87692973D01*
X119377131Y-87784488D01*
X119432938Y-87888895D01*
X119467304Y-88002182D01*
X119478907Y-88120000D01*
X119467304Y-88237818D01*
X119432938Y-88351105D01*
X119377131Y-88455512D01*
X119302027Y-88547027D01*
X119210512Y-88622131D01*
X119106105Y-88677938D01*
X118992818Y-88712304D01*
X118904519Y-88721000D01*
X118145481Y-88721000D01*
X118057182Y-88712304D01*
X117943895Y-88677938D01*
X117839488Y-88622131D01*
X117747973Y-88547027D01*
X117672869Y-88455512D01*
X117617062Y-88351105D01*
X117582696Y-88237818D01*
X117571093Y-88120000D01*
X117582696Y-88002182D01*
X117617062Y-87888895D01*
X117672869Y-87784488D01*
X117747973Y-87692973D01*
X117839488Y-87617869D01*
X117943895Y-87562062D01*
X118057182Y-87527696D01*
X118145481Y-87519000D01*
X118904519Y-87519000D01*
X118992818Y-87527696D01*
G37*
G36*
X149864499Y-86703445D02*
G01*
X149901995Y-86714820D01*
X149936554Y-86733292D01*
X149966847Y-86758153D01*
X149991708Y-86788446D01*
X150010180Y-86823005D01*
X150021555Y-86860501D01*
X150026000Y-86905638D01*
X150026000Y-87644362D01*
X150021555Y-87689499D01*
X150010180Y-87726995D01*
X149991708Y-87761554D01*
X149966847Y-87791847D01*
X149936554Y-87816708D01*
X149901995Y-87835180D01*
X149864499Y-87846555D01*
X149819362Y-87851000D01*
X149180638Y-87851000D01*
X149135501Y-87846555D01*
X149098005Y-87835180D01*
X149063446Y-87816708D01*
X149033153Y-87791847D01*
X149008292Y-87761554D01*
X148989820Y-87726995D01*
X148978445Y-87689499D01*
X148974000Y-87644362D01*
X148974000Y-86905638D01*
X148978445Y-86860501D01*
X148989820Y-86823005D01*
X149008292Y-86788446D01*
X149033153Y-86758153D01*
X149063446Y-86733292D01*
X149098005Y-86714820D01*
X149135501Y-86703445D01*
X149180638Y-86699000D01*
X149819362Y-86699000D01*
X149864499Y-86703445D01*
G37*
G36*
X123276000Y-87001000D02*
G01*
X121674000Y-87001000D01*
X121674000Y-86099000D01*
X123276000Y-86099000D01*
X123276000Y-87001000D01*
G37*
G36*
X149864499Y-84953445D02*
G01*
X149901995Y-84964820D01*
X149936554Y-84983292D01*
X149966847Y-85008153D01*
X149991708Y-85038446D01*
X150010180Y-85073005D01*
X150021555Y-85110501D01*
X150026000Y-85155638D01*
X150026000Y-85894362D01*
X150021555Y-85939499D01*
X150010180Y-85976995D01*
X149991708Y-86011554D01*
X149966847Y-86041847D01*
X149936554Y-86066708D01*
X149901995Y-86085180D01*
X149864499Y-86096555D01*
X149819362Y-86101000D01*
X149180638Y-86101000D01*
X149135501Y-86096555D01*
X149098005Y-86085180D01*
X149063446Y-86066708D01*
X149033153Y-86041847D01*
X149008292Y-86011554D01*
X148989820Y-85976995D01*
X148978445Y-85939499D01*
X148974000Y-85894362D01*
X148974000Y-85155638D01*
X148978445Y-85110501D01*
X148989820Y-85073005D01*
X149008292Y-85038446D01*
X149033153Y-85008153D01*
X149063446Y-84983292D01*
X149098005Y-84964820D01*
X149135501Y-84953445D01*
X149180638Y-84949000D01*
X149819362Y-84949000D01*
X149864499Y-84953445D01*
G37*
G36*
X146101000Y-86051000D02*
G01*
X140699000Y-86051000D01*
X140699000Y-83949000D01*
X146101000Y-83949000D01*
X146101000Y-86051000D01*
G37*
G36*
X155751000Y-85851000D02*
G01*
X154449000Y-85851000D01*
X154449000Y-84849000D01*
X155751000Y-84849000D01*
X155751000Y-85851000D01*
G37*
G36*
X123276000Y-85751000D02*
G01*
X121674000Y-85751000D01*
X121674000Y-81849000D01*
X123276000Y-81849000D01*
X123276000Y-85751000D01*
G37*
G36*
X139188674Y-84103465D02*
G01*
X139226367Y-84114899D01*
X139261103Y-84133466D01*
X139291548Y-84158452D01*
X139316534Y-84188897D01*
X139335101Y-84223633D01*
X139346535Y-84261326D01*
X139351000Y-84306661D01*
X139351000Y-85143339D01*
X139346535Y-85188674D01*
X139335101Y-85226367D01*
X139316534Y-85261103D01*
X139291548Y-85291548D01*
X139261103Y-85316534D01*
X139226367Y-85335101D01*
X139188674Y-85346535D01*
X139143339Y-85351000D01*
X138056661Y-85351000D01*
X138011326Y-85346535D01*
X137973633Y-85335101D01*
X137938897Y-85316534D01*
X137908452Y-85291548D01*
X137883466Y-85261103D01*
X137864899Y-85226367D01*
X137853465Y-85188674D01*
X137849000Y-85143339D01*
X137849000Y-84306661D01*
X137853465Y-84261326D01*
X137864899Y-84223633D01*
X137883466Y-84188897D01*
X137908452Y-84158452D01*
X137938897Y-84133466D01*
X137973633Y-84114899D01*
X138011326Y-84103465D01*
X138056661Y-84099000D01*
X139143339Y-84099000D01*
X139188674Y-84103465D01*
G37*
G36*
X131851000Y-84601000D02*
G01*
X130749000Y-84601000D01*
X130749000Y-83799000D01*
X131851000Y-83799000D01*
X131851000Y-84601000D01*
G37*
G36*
X127251000Y-84601000D02*
G01*
X126149000Y-84601000D01*
X126149000Y-83799000D01*
X127251000Y-83799000D01*
X127251000Y-84601000D01*
G37*
G36*
X150964499Y-83303445D02*
G01*
X151001995Y-83314820D01*
X151036554Y-83333292D01*
X151066847Y-83358153D01*
X151091708Y-83388446D01*
X151110180Y-83423005D01*
X151121555Y-83460501D01*
X151126000Y-83505638D01*
X151126000Y-84244362D01*
X151121555Y-84289499D01*
X151110180Y-84326995D01*
X151091708Y-84361554D01*
X151066847Y-84391847D01*
X151036554Y-84416708D01*
X151001995Y-84435180D01*
X150964499Y-84446555D01*
X150919362Y-84451000D01*
X150280638Y-84451000D01*
X150235501Y-84446555D01*
X150198005Y-84435180D01*
X150163446Y-84416708D01*
X150133153Y-84391847D01*
X150108292Y-84361554D01*
X150089820Y-84326995D01*
X150078445Y-84289499D01*
X150074000Y-84244362D01*
X150074000Y-83505638D01*
X150078445Y-83460501D01*
X150089820Y-83423005D01*
X150108292Y-83388446D01*
X150133153Y-83358153D01*
X150163446Y-83333292D01*
X150198005Y-83314820D01*
X150235501Y-83303445D01*
X150280638Y-83299000D01*
X150919362Y-83299000D01*
X150964499Y-83303445D01*
G37*
G36*
X147235202Y-82530683D02*
G01*
X147245735Y-82533878D01*
X147255443Y-82539067D01*
X147269530Y-82550628D01*
X147289904Y-82564241D01*
X147312543Y-82573618D01*
X147348827Y-82579000D01*
X148511173Y-82579000D01*
X148535559Y-82576598D01*
X148559008Y-82569485D01*
X148590470Y-82550628D01*
X148604557Y-82539067D01*
X148614265Y-82533878D01*
X148624798Y-82530683D01*
X148641888Y-82529000D01*
X148993112Y-82529000D01*
X149010202Y-82530683D01*
X149020735Y-82533878D01*
X149030443Y-82539068D01*
X149038951Y-82546049D01*
X149045932Y-82554557D01*
X149051122Y-82564265D01*
X149054317Y-82574798D01*
X149056000Y-82591888D01*
X149056000Y-82968112D01*
X149054317Y-82985202D01*
X149051122Y-82995735D01*
X149045932Y-83005443D01*
X149033371Y-83020749D01*
X149028417Y-83025704D01*
X149014803Y-83046079D01*
X149005427Y-83068718D01*
X149000647Y-83092751D01*
X149000647Y-83117255D01*
X149005428Y-83141288D01*
X149014806Y-83163927D01*
X149028420Y-83184301D01*
X149033378Y-83189259D01*
X149045932Y-83204557D01*
X149051122Y-83214265D01*
X149054317Y-83224798D01*
X149056000Y-83241888D01*
X149056000Y-83618112D01*
X149054317Y-83635202D01*
X149051122Y-83645735D01*
X149045932Y-83655443D01*
X149033371Y-83670749D01*
X149028417Y-83675704D01*
X149014803Y-83696079D01*
X149005427Y-83718718D01*
X149000647Y-83742751D01*
X149000647Y-83767255D01*
X149005428Y-83791288D01*
X149014806Y-83813927D01*
X149028420Y-83834301D01*
X149033378Y-83839259D01*
X149045932Y-83854557D01*
X149051122Y-83864265D01*
X149054317Y-83874798D01*
X149056000Y-83891888D01*
X149056000Y-84268112D01*
X149054317Y-84285202D01*
X149051122Y-84295735D01*
X149045932Y-84305443D01*
X149038951Y-84313951D01*
X149030443Y-84320932D01*
X149020735Y-84326122D01*
X149010202Y-84329317D01*
X148993112Y-84331000D01*
X148641888Y-84331000D01*
X148624798Y-84329317D01*
X148614265Y-84326122D01*
X148604557Y-84320933D01*
X148590470Y-84309372D01*
X148570096Y-84295759D01*
X148547457Y-84286382D01*
X148511173Y-84281000D01*
X147348827Y-84281000D01*
X147324441Y-84283402D01*
X147300992Y-84290515D01*
X147269530Y-84309372D01*
X147255443Y-84320933D01*
X147245735Y-84326122D01*
X147235202Y-84329317D01*
X147218112Y-84331000D01*
X146866888Y-84331000D01*
X146849798Y-84329317D01*
X146839265Y-84326122D01*
X146829557Y-84320932D01*
X146821049Y-84313951D01*
X146814068Y-84305443D01*
X146808878Y-84295735D01*
X146805683Y-84285202D01*
X146804000Y-84268112D01*
X146804000Y-83891888D01*
X146805683Y-83874798D01*
X146808878Y-83864265D01*
X146814068Y-83854557D01*
X146826629Y-83839251D01*
X146831583Y-83834296D01*
X146845197Y-83813921D01*
X146854573Y-83791282D01*
X146859353Y-83767249D01*
X146859353Y-83742745D01*
X146854572Y-83718712D01*
X146845194Y-83696073D01*
X146831580Y-83675699D01*
X146826622Y-83670741D01*
X146814068Y-83655443D01*
X146808878Y-83645735D01*
X146805683Y-83635202D01*
X146804000Y-83618112D01*
X146804000Y-83241888D01*
X146805683Y-83224798D01*
X146808878Y-83214265D01*
X146814068Y-83204557D01*
X146826629Y-83189251D01*
X146831583Y-83184296D01*
X146845197Y-83163921D01*
X146854573Y-83141282D01*
X146859353Y-83117249D01*
X146859353Y-83092745D01*
X146854572Y-83068712D01*
X146845194Y-83046073D01*
X146831580Y-83025699D01*
X146826622Y-83020741D01*
X146814068Y-83005443D01*
X146808878Y-82995735D01*
X146805683Y-82985202D01*
X146804000Y-82968112D01*
X146804000Y-82591888D01*
X146805683Y-82574798D01*
X146808878Y-82564265D01*
X146814068Y-82554557D01*
X146821049Y-82546049D01*
X146829557Y-82539068D01*
X146839265Y-82533878D01*
X146849798Y-82530683D01*
X146866888Y-82529000D01*
X147218112Y-82529000D01*
X147235202Y-82530683D01*
G37*
G36*
X139188674Y-82053465D02*
G01*
X139226367Y-82064899D01*
X139261103Y-82083466D01*
X139291548Y-82108452D01*
X139316534Y-82138897D01*
X139335101Y-82173633D01*
X139346535Y-82211326D01*
X139351000Y-82256661D01*
X139351000Y-83093339D01*
X139346535Y-83138674D01*
X139335101Y-83176367D01*
X139316534Y-83211103D01*
X139291548Y-83241548D01*
X139261103Y-83266534D01*
X139226367Y-83285101D01*
X139188674Y-83296535D01*
X139143339Y-83301000D01*
X138056661Y-83301000D01*
X138011326Y-83296535D01*
X137973633Y-83285101D01*
X137938897Y-83266534D01*
X137908452Y-83241548D01*
X137883466Y-83211103D01*
X137864899Y-83176367D01*
X137853465Y-83138674D01*
X137849000Y-83093339D01*
X137849000Y-82256661D01*
X137853465Y-82211326D01*
X137864899Y-82173633D01*
X137883466Y-82138897D01*
X137908452Y-82108452D01*
X137938897Y-82083466D01*
X137973633Y-82064899D01*
X138011326Y-82053465D01*
X138056661Y-82049000D01*
X139143339Y-82049000D01*
X139188674Y-82053465D01*
G37*
G36*
X127251000Y-83201000D02*
G01*
X126149000Y-83201000D01*
X126149000Y-82399000D01*
X127251000Y-82399000D01*
X127251000Y-83201000D01*
G37*
G36*
X131851000Y-83201000D02*
G01*
X130749000Y-83201000D01*
X130749000Y-82399000D01*
X131851000Y-82399000D01*
X131851000Y-83201000D01*
G37*
G36*
X153288674Y-81478465D02*
G01*
X153326367Y-81489899D01*
X153361103Y-81508466D01*
X153391548Y-81533452D01*
X153416534Y-81563897D01*
X153435101Y-81598633D01*
X153446535Y-81636326D01*
X153451000Y-81681661D01*
X153451000Y-82518339D01*
X153446535Y-82563674D01*
X153435101Y-82601367D01*
X153416534Y-82636103D01*
X153391548Y-82666548D01*
X153361103Y-82691534D01*
X153326367Y-82710101D01*
X153288674Y-82721535D01*
X153243339Y-82726000D01*
X152156661Y-82726000D01*
X152111326Y-82721535D01*
X152073633Y-82710101D01*
X152038897Y-82691534D01*
X152008452Y-82666548D01*
X151983466Y-82636103D01*
X151964899Y-82601367D01*
X151953465Y-82563674D01*
X151949000Y-82518339D01*
X151949000Y-81681661D01*
X151953465Y-81636326D01*
X151964899Y-81598633D01*
X151983466Y-81563897D01*
X152008452Y-81533452D01*
X152038897Y-81508466D01*
X152073633Y-81489899D01*
X152111326Y-81478465D01*
X152156661Y-81474000D01*
X153243339Y-81474000D01*
X153288674Y-81478465D01*
G37*
G36*
X150964499Y-81553445D02*
G01*
X151001995Y-81564820D01*
X151036554Y-81583292D01*
X151066847Y-81608153D01*
X151091708Y-81638446D01*
X151110180Y-81673005D01*
X151121555Y-81710501D01*
X151126000Y-81755638D01*
X151126000Y-82494362D01*
X151121555Y-82539499D01*
X151110180Y-82576995D01*
X151091708Y-82611554D01*
X151066847Y-82641847D01*
X151036554Y-82666708D01*
X151001995Y-82685180D01*
X150964499Y-82696555D01*
X150919362Y-82701000D01*
X150280638Y-82701000D01*
X150235501Y-82696555D01*
X150198005Y-82685180D01*
X150163446Y-82666708D01*
X150133153Y-82641847D01*
X150108292Y-82611554D01*
X150089820Y-82576995D01*
X150078445Y-82539499D01*
X150074000Y-82494362D01*
X150074000Y-81755638D01*
X150078445Y-81710501D01*
X150089820Y-81673005D01*
X150108292Y-81638446D01*
X150133153Y-81608153D01*
X150163446Y-81583292D01*
X150198005Y-81564820D01*
X150235501Y-81553445D01*
X150280638Y-81549000D01*
X150919362Y-81549000D01*
X150964499Y-81553445D01*
G37*
G36*
X146101000Y-82651000D02*
G01*
X140699000Y-82651000D01*
X140699000Y-80549000D01*
X146101000Y-80549000D01*
X146101000Y-82651000D01*
G37*
G36*
X155751000Y-82551000D02*
G01*
X154449000Y-82551000D01*
X154449000Y-81549000D01*
X155751000Y-81549000D01*
X155751000Y-82551000D01*
G37*
G36*
X123276000Y-81501000D02*
G01*
X121674000Y-81501000D01*
X121674000Y-80599000D01*
X123276000Y-80599000D01*
X123276000Y-81501000D01*
G37*
G36*
X153288674Y-79428465D02*
G01*
X153326367Y-79439899D01*
X153361103Y-79458466D01*
X153391548Y-79483452D01*
X153416534Y-79513897D01*
X153435101Y-79548633D01*
X153446535Y-79586326D01*
X153451000Y-79631661D01*
X153451000Y-80468339D01*
X153446535Y-80513674D01*
X153435101Y-80551367D01*
X153416534Y-80586103D01*
X153391548Y-80616548D01*
X153361103Y-80641534D01*
X153326367Y-80660101D01*
X153288674Y-80671535D01*
X153243339Y-80676000D01*
X152156661Y-80676000D01*
X152111326Y-80671535D01*
X152073633Y-80660101D01*
X152038897Y-80641534D01*
X152008452Y-80616548D01*
X151983466Y-80586103D01*
X151964899Y-80551367D01*
X151953465Y-80513674D01*
X151949000Y-80468339D01*
X151949000Y-79631661D01*
X151953465Y-79586326D01*
X151964899Y-79548633D01*
X151983466Y-79513897D01*
X152008452Y-79483452D01*
X152038897Y-79458466D01*
X152073633Y-79439899D01*
X152111326Y-79428465D01*
X152156661Y-79424000D01*
X153243339Y-79424000D01*
X153288674Y-79428465D01*
G37*
G36*
X151051000Y-80651000D02*
G01*
X150049000Y-80651000D01*
X150049000Y-79349000D01*
X151051000Y-79349000D01*
X151051000Y-80651000D01*
G37*
G36*
X147751000Y-80651000D02*
G01*
X146749000Y-80651000D01*
X146749000Y-79349000D01*
X147751000Y-79349000D01*
X147751000Y-80651000D01*
G37*
G36*
X122792818Y-78887696D02*
G01*
X122906105Y-78922062D01*
X123010512Y-78977869D01*
X123102027Y-79052973D01*
X123177131Y-79144488D01*
X123232938Y-79248895D01*
X123267304Y-79362182D01*
X123278907Y-79480000D01*
X123267304Y-79597818D01*
X123232938Y-79711105D01*
X123177131Y-79815512D01*
X123102027Y-79907027D01*
X123010512Y-79982131D01*
X122906105Y-80037938D01*
X122792818Y-80072304D01*
X122704519Y-80081000D01*
X121945481Y-80081000D01*
X121857182Y-80072304D01*
X121743895Y-80037938D01*
X121639488Y-79982131D01*
X121547973Y-79907027D01*
X121472869Y-79815512D01*
X121417062Y-79711105D01*
X121382696Y-79597818D01*
X121371093Y-79480000D01*
X121382696Y-79362182D01*
X121417062Y-79248895D01*
X121472869Y-79144488D01*
X121547973Y-79052973D01*
X121639488Y-78977869D01*
X121743895Y-78922062D01*
X121857182Y-78887696D01*
X121945481Y-78879000D01*
X122704519Y-78879000D01*
X122792818Y-78887696D01*
G37*
G36*
X118992818Y-78887696D02*
G01*
X119106105Y-78922062D01*
X119210512Y-78977869D01*
X119302027Y-79052973D01*
X119377131Y-79144488D01*
X119432938Y-79248895D01*
X119467304Y-79362182D01*
X119478907Y-79480000D01*
X119467304Y-79597818D01*
X119432938Y-79711105D01*
X119377131Y-79815512D01*
X119302027Y-79907027D01*
X119210512Y-79982131D01*
X119106105Y-80037938D01*
X118992818Y-80072304D01*
X118904519Y-80081000D01*
X118145481Y-80081000D01*
X118057182Y-80072304D01*
X117943895Y-80037938D01*
X117839488Y-79982131D01*
X117747973Y-79907027D01*
X117672869Y-79815512D01*
X117617062Y-79711105D01*
X117582696Y-79597818D01*
X117571093Y-79480000D01*
X117582696Y-79362182D01*
X117617062Y-79248895D01*
X117672869Y-79144488D01*
X117747973Y-79052973D01*
X117839488Y-78977869D01*
X117943895Y-78922062D01*
X118057182Y-78887696D01*
X118145481Y-78879000D01*
X118904519Y-78879000D01*
X118992818Y-78887696D01*
G37*
G36*
X155762199Y-75249954D02*
G01*
X155774450Y-75250556D01*
X155792869Y-75250556D01*
X155815149Y-75252750D01*
X155899233Y-75269476D01*
X155920660Y-75275976D01*
X155999858Y-75308780D01*
X156005303Y-75311691D01*
X156005309Y-75311693D01*
X156014169Y-75316429D01*
X156014173Y-75316432D01*
X156019614Y-75319340D01*
X156090899Y-75366971D01*
X156108204Y-75381172D01*
X156168828Y-75441796D01*
X156183029Y-75459101D01*
X156230660Y-75530386D01*
X156233568Y-75535827D01*
X156233571Y-75535831D01*
X156238307Y-75544691D01*
X156238309Y-75544697D01*
X156241220Y-75550142D01*
X156274024Y-75629340D01*
X156280524Y-75650767D01*
X156297250Y-75734851D01*
X156299444Y-75757131D01*
X156299444Y-75775550D01*
X156300046Y-75787801D01*
X156301852Y-75806139D01*
X156301852Y-76293860D01*
X156300263Y-76309999D01*
X156297348Y-76319608D01*
X156292610Y-76328472D01*
X156286237Y-76336237D01*
X156273794Y-76346448D01*
X156263425Y-76353378D01*
X156246098Y-76370705D01*
X156232485Y-76391080D01*
X156223109Y-76413720D01*
X156218329Y-76437753D01*
X156218330Y-76462257D01*
X156223112Y-76486290D01*
X156232490Y-76508929D01*
X156246105Y-76529302D01*
X156263432Y-76546629D01*
X156273802Y-76553558D01*
X156286237Y-76563763D01*
X156292610Y-76571528D01*
X156297348Y-76580392D01*
X156300263Y-76590001D01*
X156301852Y-76606140D01*
X156301852Y-77093862D01*
X156300046Y-77112199D01*
X156299444Y-77124450D01*
X156299444Y-77142869D01*
X156297250Y-77165149D01*
X156280524Y-77249233D01*
X156274024Y-77270660D01*
X156241220Y-77349858D01*
X156238309Y-77355303D01*
X156238307Y-77355309D01*
X156233571Y-77364169D01*
X156233568Y-77364173D01*
X156230660Y-77369614D01*
X156183029Y-77440899D01*
X156168828Y-77458204D01*
X156108204Y-77518828D01*
X156090899Y-77533029D01*
X156019614Y-77580660D01*
X156014173Y-77583568D01*
X156014169Y-77583571D01*
X156005309Y-77588307D01*
X156005303Y-77588309D01*
X155999858Y-77591220D01*
X155920660Y-77624024D01*
X155899233Y-77630524D01*
X155815149Y-77647250D01*
X155792869Y-77649444D01*
X155774450Y-77649444D01*
X155762199Y-77650046D01*
X155743862Y-77651852D01*
X155256138Y-77651852D01*
X155237801Y-77650046D01*
X155225550Y-77649444D01*
X155207131Y-77649444D01*
X155184851Y-77647250D01*
X155100767Y-77630524D01*
X155079340Y-77624024D01*
X155000142Y-77591220D01*
X154994697Y-77588309D01*
X154994691Y-77588307D01*
X154985831Y-77583571D01*
X154985827Y-77583568D01*
X154980386Y-77580660D01*
X154909101Y-77533029D01*
X154891796Y-77518828D01*
X154831172Y-77458204D01*
X154816971Y-77440899D01*
X154769340Y-77369614D01*
X154766432Y-77364173D01*
X154766429Y-77364169D01*
X154761693Y-77355309D01*
X154761691Y-77355303D01*
X154758780Y-77349858D01*
X154725976Y-77270660D01*
X154719476Y-77249233D01*
X154702750Y-77165149D01*
X154700556Y-77142869D01*
X154700556Y-77124450D01*
X154699954Y-77112199D01*
X154698148Y-77093862D01*
X154698148Y-76606140D01*
X154699737Y-76590001D01*
X154702652Y-76580392D01*
X154707390Y-76571528D01*
X154713763Y-76563763D01*
X154726206Y-76553552D01*
X154736575Y-76546622D01*
X154753902Y-76529295D01*
X154767515Y-76508920D01*
X154776891Y-76486280D01*
X154781671Y-76462247D01*
X154781670Y-76437743D01*
X154776888Y-76413710D01*
X154767510Y-76391071D01*
X154753895Y-76370698D01*
X154736568Y-76353371D01*
X154726198Y-76346442D01*
X154713763Y-76336237D01*
X154707390Y-76328472D01*
X154702652Y-76319608D01*
X154699737Y-76309999D01*
X154698148Y-76293860D01*
X154698148Y-75806139D01*
X154699954Y-75787801D01*
X154700556Y-75775550D01*
X154700556Y-75757131D01*
X154702750Y-75734851D01*
X154719476Y-75650767D01*
X154725976Y-75629340D01*
X154758780Y-75550142D01*
X154761691Y-75544697D01*
X154761693Y-75544691D01*
X154766429Y-75535831D01*
X154766432Y-75535827D01*
X154769340Y-75530386D01*
X154816971Y-75459101D01*
X154831172Y-75441796D01*
X154891796Y-75381172D01*
X154909101Y-75366971D01*
X154980386Y-75319340D01*
X154985827Y-75316432D01*
X154985831Y-75316429D01*
X154994691Y-75311693D01*
X154994697Y-75311691D01*
X155000142Y-75308780D01*
X155079340Y-75275976D01*
X155100767Y-75269476D01*
X155184851Y-75252750D01*
X155207131Y-75250556D01*
X155225550Y-75250556D01*
X155237801Y-75249954D01*
X155256139Y-75248148D01*
X155743861Y-75248148D01*
X155762199Y-75249954D01*
G37*
G36*
X158662199Y-75199954D02*
G01*
X158674450Y-75200556D01*
X158692869Y-75200556D01*
X158715149Y-75202750D01*
X158799233Y-75219476D01*
X158820660Y-75225976D01*
X158899858Y-75258780D01*
X158905303Y-75261691D01*
X158905309Y-75261693D01*
X158914169Y-75266429D01*
X158914173Y-75266432D01*
X158919614Y-75269340D01*
X158990899Y-75316971D01*
X159008204Y-75331172D01*
X159068828Y-75391796D01*
X159083029Y-75409101D01*
X159130660Y-75480386D01*
X159133568Y-75485827D01*
X159133571Y-75485831D01*
X159138307Y-75494691D01*
X159138309Y-75494697D01*
X159141220Y-75500142D01*
X159174024Y-75579340D01*
X159180524Y-75600767D01*
X159197250Y-75684851D01*
X159199444Y-75707131D01*
X159199444Y-75725550D01*
X159200046Y-75737801D01*
X159201852Y-75756139D01*
X159201852Y-76243860D01*
X159200263Y-76259999D01*
X159197348Y-76269608D01*
X159192610Y-76278472D01*
X159186237Y-76286237D01*
X159173794Y-76296448D01*
X159163425Y-76303378D01*
X159146098Y-76320705D01*
X159132485Y-76341080D01*
X159123109Y-76363720D01*
X159118329Y-76387753D01*
X159118330Y-76412257D01*
X159123112Y-76436290D01*
X159132490Y-76458929D01*
X159146105Y-76479302D01*
X159163432Y-76496629D01*
X159173802Y-76503558D01*
X159186237Y-76513763D01*
X159192610Y-76521528D01*
X159197348Y-76530392D01*
X159200263Y-76540001D01*
X159201852Y-76556140D01*
X159201852Y-77043862D01*
X159200046Y-77062199D01*
X159199444Y-77074450D01*
X159199444Y-77092869D01*
X159197250Y-77115149D01*
X159180524Y-77199233D01*
X159174024Y-77220660D01*
X159141220Y-77299858D01*
X159138309Y-77305303D01*
X159138307Y-77305309D01*
X159133571Y-77314169D01*
X159133568Y-77314173D01*
X159130660Y-77319614D01*
X159083029Y-77390899D01*
X159068828Y-77408204D01*
X159008204Y-77468828D01*
X158990899Y-77483029D01*
X158919614Y-77530660D01*
X158914173Y-77533568D01*
X158914169Y-77533571D01*
X158905309Y-77538307D01*
X158905303Y-77538309D01*
X158899858Y-77541220D01*
X158820660Y-77574024D01*
X158799233Y-77580524D01*
X158715149Y-77597250D01*
X158692869Y-77599444D01*
X158674450Y-77599444D01*
X158662199Y-77600046D01*
X158643862Y-77601852D01*
X158156138Y-77601852D01*
X158137801Y-77600046D01*
X158125550Y-77599444D01*
X158107131Y-77599444D01*
X158084851Y-77597250D01*
X158000767Y-77580524D01*
X157979340Y-77574024D01*
X157900142Y-77541220D01*
X157894697Y-77538309D01*
X157894691Y-77538307D01*
X157885831Y-77533571D01*
X157885827Y-77533568D01*
X157880386Y-77530660D01*
X157809101Y-77483029D01*
X157791796Y-77468828D01*
X157731172Y-77408204D01*
X157716971Y-77390899D01*
X157669340Y-77319614D01*
X157666432Y-77314173D01*
X157666429Y-77314169D01*
X157661693Y-77305309D01*
X157661691Y-77305303D01*
X157658780Y-77299858D01*
X157625976Y-77220660D01*
X157619476Y-77199233D01*
X157602750Y-77115149D01*
X157600556Y-77092869D01*
X157600556Y-77074450D01*
X157599954Y-77062199D01*
X157598148Y-77043862D01*
X157598148Y-76556140D01*
X157599737Y-76540001D01*
X157602652Y-76530392D01*
X157607390Y-76521528D01*
X157613763Y-76513763D01*
X157626206Y-76503552D01*
X157636575Y-76496622D01*
X157653902Y-76479295D01*
X157667515Y-76458920D01*
X157676891Y-76436280D01*
X157681671Y-76412247D01*
X157681670Y-76387743D01*
X157676888Y-76363710D01*
X157667510Y-76341071D01*
X157653895Y-76320698D01*
X157636568Y-76303371D01*
X157626198Y-76296442D01*
X157613763Y-76286237D01*
X157607390Y-76278472D01*
X157602652Y-76269608D01*
X157599737Y-76259999D01*
X157598148Y-76243860D01*
X157598148Y-75756139D01*
X157599954Y-75737801D01*
X157600556Y-75725550D01*
X157600556Y-75707131D01*
X157602750Y-75684851D01*
X157619476Y-75600767D01*
X157625976Y-75579340D01*
X157658780Y-75500142D01*
X157661691Y-75494697D01*
X157661693Y-75494691D01*
X157666429Y-75485831D01*
X157666432Y-75485827D01*
X157669340Y-75480386D01*
X157716971Y-75409101D01*
X157731172Y-75391796D01*
X157791796Y-75331172D01*
X157809101Y-75316971D01*
X157880386Y-75269340D01*
X157885827Y-75266432D01*
X157885831Y-75266429D01*
X157894691Y-75261693D01*
X157894697Y-75261691D01*
X157900142Y-75258780D01*
X157979340Y-75225976D01*
X158000767Y-75219476D01*
X158084851Y-75202750D01*
X158107131Y-75200556D01*
X158125550Y-75200556D01*
X158137801Y-75199954D01*
X158156139Y-75198148D01*
X158643861Y-75198148D01*
X158662199Y-75199954D01*
G37*
G36*
X143775000Y-77521000D02*
G01*
X141873000Y-77521000D01*
X141873000Y-75819000D01*
X143775000Y-75819000D01*
X143775000Y-77521000D01*
G37*
G36*
X153527000Y-77521000D02*
G01*
X151625000Y-77521000D01*
X151625000Y-75819000D01*
X153527000Y-75819000D01*
X153527000Y-77521000D01*
G37*
G36*
X143775000Y-74981000D02*
G01*
X141873000Y-74981000D01*
X141873000Y-73279000D01*
X143775000Y-73279000D01*
X143775000Y-74981000D01*
G37*
G36*
X153527000Y-74981000D02*
G01*
X151625000Y-74981000D01*
X151625000Y-73279000D01*
X153527000Y-73279000D01*
X153527000Y-74981000D01*
G37*
G36*
X139014499Y-73578445D02*
G01*
X139051995Y-73589820D01*
X139086554Y-73608292D01*
X139116847Y-73633153D01*
X139141708Y-73663446D01*
X139160180Y-73698005D01*
X139171555Y-73735501D01*
X139176000Y-73780638D01*
X139176000Y-74419362D01*
X139171555Y-74464499D01*
X139160180Y-74501995D01*
X139141708Y-74536554D01*
X139116847Y-74566847D01*
X139086554Y-74591708D01*
X139051995Y-74610180D01*
X139014499Y-74621555D01*
X138969362Y-74626000D01*
X138230638Y-74626000D01*
X138185501Y-74621555D01*
X138148005Y-74610180D01*
X138113446Y-74591708D01*
X138083153Y-74566847D01*
X138058292Y-74536554D01*
X138039820Y-74501995D01*
X138028445Y-74464499D01*
X138024000Y-74419362D01*
X138024000Y-73780638D01*
X138028445Y-73735501D01*
X138039820Y-73698005D01*
X138058292Y-73663446D01*
X138083153Y-73633153D01*
X138113446Y-73608292D01*
X138148005Y-73589820D01*
X138185501Y-73578445D01*
X138230638Y-73574000D01*
X138969362Y-73574000D01*
X139014499Y-73578445D01*
G37*
G36*
X140764499Y-73578445D02*
G01*
X140801995Y-73589820D01*
X140836554Y-73608292D01*
X140866847Y-73633153D01*
X140891708Y-73663446D01*
X140910180Y-73698005D01*
X140921555Y-73735501D01*
X140926000Y-73780638D01*
X140926000Y-74419362D01*
X140921555Y-74464499D01*
X140910180Y-74501995D01*
X140891708Y-74536554D01*
X140866847Y-74566847D01*
X140836554Y-74591708D01*
X140801995Y-74610180D01*
X140764499Y-74621555D01*
X140719362Y-74626000D01*
X139980638Y-74626000D01*
X139935501Y-74621555D01*
X139898005Y-74610180D01*
X139863446Y-74591708D01*
X139833153Y-74566847D01*
X139808292Y-74536554D01*
X139789820Y-74501995D01*
X139778445Y-74464499D01*
X139774000Y-74419362D01*
X139774000Y-73780638D01*
X139778445Y-73735501D01*
X139789820Y-73698005D01*
X139808292Y-73663446D01*
X139833153Y-73633153D01*
X139863446Y-73608292D01*
X139898005Y-73589820D01*
X139935501Y-73578445D01*
X139980638Y-73574000D01*
X140719362Y-73574000D01*
X140764499Y-73578445D01*
G37*
G36*
X161121000Y-73827000D02*
G01*
X159419000Y-73827000D01*
X159419000Y-71925000D01*
X161121000Y-71925000D01*
X161121000Y-73827000D01*
G37*
G36*
X158581000Y-73827000D02*
G01*
X156879000Y-73827000D01*
X156879000Y-71925000D01*
X158581000Y-71925000D01*
X158581000Y-73827000D01*
G37*
G36*
X123338855Y-72052140D02*
G01*
X123402618Y-72058420D01*
X123493404Y-72085960D01*
X123525336Y-72095646D01*
X123638425Y-72156094D01*
X123737554Y-72237446D01*
X123818906Y-72336575D01*
X123879354Y-72449664D01*
X123879355Y-72449668D01*
X123916580Y-72572382D01*
X123929149Y-72700000D01*
X123916580Y-72827618D01*
X123889040Y-72918404D01*
X123879354Y-72950336D01*
X123818906Y-73063425D01*
X123737554Y-73162554D01*
X123638425Y-73243906D01*
X123525336Y-73304354D01*
X123493404Y-73314040D01*
X123402618Y-73341580D01*
X123338855Y-73347860D01*
X123306974Y-73351000D01*
X122693026Y-73351000D01*
X122661145Y-73347860D01*
X122597382Y-73341580D01*
X122506596Y-73314040D01*
X122474664Y-73304354D01*
X122361575Y-73243906D01*
X122262446Y-73162554D01*
X122181094Y-73063425D01*
X122120646Y-72950336D01*
X122110960Y-72918404D01*
X122083420Y-72827618D01*
X122070851Y-72700000D01*
X122083420Y-72572382D01*
X122120645Y-72449668D01*
X122120646Y-72449664D01*
X122181094Y-72336575D01*
X122262446Y-72237446D01*
X122361575Y-72156094D01*
X122474664Y-72095646D01*
X122506596Y-72085960D01*
X122597382Y-72058420D01*
X122661145Y-72052140D01*
X122693026Y-72049000D01*
X123306974Y-72049000D01*
X123338855Y-72052140D01*
G37*
G36*
X146764499Y-70803445D02*
G01*
X146801995Y-70814820D01*
X146836554Y-70833292D01*
X146866847Y-70858153D01*
X146891708Y-70888446D01*
X146910180Y-70923005D01*
X146921555Y-70960501D01*
X146926000Y-71005638D01*
X146926000Y-71744362D01*
X146921555Y-71789499D01*
X146910180Y-71826995D01*
X146891708Y-71861554D01*
X146866847Y-71891847D01*
X146836554Y-71916708D01*
X146801995Y-71935180D01*
X146764499Y-71946555D01*
X146719362Y-71951000D01*
X146080638Y-71951000D01*
X146035501Y-71946555D01*
X145998005Y-71935180D01*
X145963446Y-71916708D01*
X145933153Y-71891847D01*
X145908292Y-71861554D01*
X145889820Y-71826995D01*
X145878445Y-71789499D01*
X145874000Y-71744362D01*
X145874000Y-71005638D01*
X145878445Y-70960501D01*
X145889820Y-70923005D01*
X145908292Y-70888446D01*
X145933153Y-70858153D01*
X145963446Y-70833292D01*
X145998005Y-70814820D01*
X146035501Y-70803445D01*
X146080638Y-70799000D01*
X146719362Y-70799000D01*
X146764499Y-70803445D01*
G37*
G36*
X144964499Y-70803445D02*
G01*
X145001995Y-70814820D01*
X145036554Y-70833292D01*
X145066847Y-70858153D01*
X145091708Y-70888446D01*
X145110180Y-70923005D01*
X145121555Y-70960501D01*
X145126000Y-71005638D01*
X145126000Y-71744362D01*
X145121555Y-71789499D01*
X145110180Y-71826995D01*
X145091708Y-71861554D01*
X145066847Y-71891847D01*
X145036554Y-71916708D01*
X145001995Y-71935180D01*
X144964499Y-71946555D01*
X144919362Y-71951000D01*
X144280638Y-71951000D01*
X144235501Y-71946555D01*
X144198005Y-71935180D01*
X144163446Y-71916708D01*
X144133153Y-71891847D01*
X144108292Y-71861554D01*
X144089820Y-71826995D01*
X144078445Y-71789499D01*
X144074000Y-71744362D01*
X144074000Y-71005638D01*
X144078445Y-70960501D01*
X144089820Y-70923005D01*
X144108292Y-70888446D01*
X144133153Y-70858153D01*
X144163446Y-70833292D01*
X144198005Y-70814820D01*
X144235501Y-70803445D01*
X144280638Y-70799000D01*
X144919362Y-70799000D01*
X144964499Y-70803445D01*
G37*
G36*
X123766242Y-70053404D02*
G01*
X123803337Y-70064657D01*
X123837515Y-70082925D01*
X123867481Y-70107519D01*
X123892075Y-70137485D01*
X123910343Y-70171663D01*
X123921596Y-70208758D01*
X123926000Y-70253474D01*
X123926000Y-71146526D01*
X123921596Y-71191242D01*
X123910343Y-71228337D01*
X123892075Y-71262515D01*
X123867481Y-71292481D01*
X123837515Y-71317075D01*
X123803337Y-71335343D01*
X123766242Y-71346596D01*
X123721526Y-71351000D01*
X122278474Y-71351000D01*
X122233758Y-71346596D01*
X122196663Y-71335343D01*
X122162485Y-71317075D01*
X122132519Y-71292481D01*
X122107925Y-71262515D01*
X122089657Y-71228337D01*
X122078404Y-71191242D01*
X122074000Y-71146526D01*
X122074000Y-70253474D01*
X122078404Y-70208758D01*
X122089657Y-70171663D01*
X122107925Y-70137485D01*
X122132519Y-70107519D01*
X122162485Y-70082925D01*
X122196663Y-70064657D01*
X122233758Y-70053404D01*
X122278474Y-70049000D01*
X123721526Y-70049000D01*
X123766242Y-70053404D01*
G37*
G36*
X151489499Y-69478445D02*
G01*
X151526995Y-69489820D01*
X151561554Y-69508292D01*
X151591847Y-69533153D01*
X151616708Y-69563446D01*
X151635180Y-69598005D01*
X151646555Y-69635501D01*
X151651000Y-69680638D01*
X151651000Y-70319362D01*
X151646555Y-70364499D01*
X151635180Y-70401995D01*
X151616708Y-70436554D01*
X151591847Y-70466847D01*
X151561554Y-70491708D01*
X151526995Y-70510180D01*
X151489499Y-70521555D01*
X151444362Y-70526000D01*
X150705638Y-70526000D01*
X150660501Y-70521555D01*
X150623005Y-70510180D01*
X150588446Y-70491708D01*
X150558153Y-70466847D01*
X150533292Y-70436554D01*
X150514820Y-70401995D01*
X150503445Y-70364499D01*
X150499000Y-70319362D01*
X150499000Y-69680638D01*
X150503445Y-69635501D01*
X150514820Y-69598005D01*
X150533292Y-69563446D01*
X150558153Y-69533153D01*
X150588446Y-69508292D01*
X150623005Y-69489820D01*
X150660501Y-69478445D01*
X150705638Y-69474000D01*
X151444362Y-69474000D01*
X151489499Y-69478445D01*
G37*
G36*
X149739499Y-69478445D02*
G01*
X149776995Y-69489820D01*
X149811554Y-69508292D01*
X149841847Y-69533153D01*
X149866708Y-69563446D01*
X149885180Y-69598005D01*
X149896555Y-69635501D01*
X149901000Y-69680638D01*
X149901000Y-70319362D01*
X149896555Y-70364499D01*
X149885180Y-70401995D01*
X149866708Y-70436554D01*
X149841847Y-70466847D01*
X149811554Y-70491708D01*
X149776995Y-70510180D01*
X149739499Y-70521555D01*
X149694362Y-70526000D01*
X148955638Y-70526000D01*
X148910501Y-70521555D01*
X148873005Y-70510180D01*
X148838446Y-70491708D01*
X148808153Y-70466847D01*
X148783292Y-70436554D01*
X148764820Y-70401995D01*
X148753445Y-70364499D01*
X148749000Y-70319362D01*
X148749000Y-69680638D01*
X148753445Y-69635501D01*
X148764820Y-69598005D01*
X148783292Y-69563446D01*
X148808153Y-69533153D01*
X148838446Y-69508292D01*
X148873005Y-69489820D01*
X148910501Y-69478445D01*
X148955638Y-69474000D01*
X149694362Y-69474000D01*
X149739499Y-69478445D01*
G37*
G36*
X144964499Y-69053445D02*
G01*
X145001995Y-69064820D01*
X145036554Y-69083292D01*
X145066847Y-69108153D01*
X145091708Y-69138446D01*
X145110180Y-69173005D01*
X145121555Y-69210501D01*
X145126000Y-69255638D01*
X145126000Y-69994362D01*
X145121555Y-70039499D01*
X145110180Y-70076995D01*
X145091708Y-70111554D01*
X145066847Y-70141847D01*
X145036554Y-70166708D01*
X145001995Y-70185180D01*
X144964499Y-70196555D01*
X144919362Y-70201000D01*
X144280638Y-70201000D01*
X144235501Y-70196555D01*
X144198005Y-70185180D01*
X144163446Y-70166708D01*
X144133153Y-70141847D01*
X144108292Y-70111554D01*
X144089820Y-70076995D01*
X144078445Y-70039499D01*
X144074000Y-69994362D01*
X144074000Y-69255638D01*
X144078445Y-69210501D01*
X144089820Y-69173005D01*
X144108292Y-69138446D01*
X144133153Y-69108153D01*
X144163446Y-69083292D01*
X144198005Y-69064820D01*
X144235501Y-69053445D01*
X144280638Y-69049000D01*
X144919362Y-69049000D01*
X144964499Y-69053445D01*
G37*
G36*
X146764499Y-69053445D02*
G01*
X146801995Y-69064820D01*
X146836554Y-69083292D01*
X146866847Y-69108153D01*
X146891708Y-69138446D01*
X146910180Y-69173005D01*
X146921555Y-69210501D01*
X146926000Y-69255638D01*
X146926000Y-69994362D01*
X146921555Y-70039499D01*
X146910180Y-70076995D01*
X146891708Y-70111554D01*
X146866847Y-70141847D01*
X146836554Y-70166708D01*
X146801995Y-70185180D01*
X146764499Y-70196555D01*
X146719362Y-70201000D01*
X146080638Y-70201000D01*
X146035501Y-70196555D01*
X145998005Y-70185180D01*
X145963446Y-70166708D01*
X145933153Y-70141847D01*
X145908292Y-70111554D01*
X145889820Y-70076995D01*
X145878445Y-70039499D01*
X145874000Y-69994362D01*
X145874000Y-69255638D01*
X145878445Y-69210501D01*
X145889820Y-69173005D01*
X145908292Y-69138446D01*
X145933153Y-69108153D01*
X145963446Y-69083292D01*
X145998005Y-69064820D01*
X146035501Y-69053445D01*
X146080638Y-69049000D01*
X146719362Y-69049000D01*
X146764499Y-69053445D01*
G37*
G36*
X134891242Y-67653404D02*
G01*
X134928337Y-67664657D01*
X134962515Y-67682925D01*
X134992481Y-67707519D01*
X135017075Y-67737485D01*
X135035343Y-67771663D01*
X135046596Y-67808758D01*
X135051000Y-67853474D01*
X135051000Y-68746526D01*
X135046596Y-68791242D01*
X135035343Y-68828337D01*
X135017075Y-68862515D01*
X134992481Y-68892481D01*
X134962515Y-68917075D01*
X134928337Y-68935343D01*
X134891242Y-68946596D01*
X134846526Y-68951000D01*
X133353474Y-68951000D01*
X133308758Y-68946596D01*
X133271663Y-68935343D01*
X133237485Y-68917075D01*
X133207519Y-68892481D01*
X133182925Y-68862515D01*
X133164657Y-68828337D01*
X133153404Y-68791242D01*
X133149000Y-68746526D01*
X133149000Y-67853474D01*
X133153404Y-67808758D01*
X133164657Y-67771663D01*
X133182925Y-67737485D01*
X133207519Y-67707519D01*
X133237485Y-67682925D01*
X133271663Y-67664657D01*
X133308758Y-67653404D01*
X133353474Y-67649000D01*
X134846526Y-67649000D01*
X134891242Y-67653404D01*
G37*
G36*
X147659928Y-67156764D02*
G01*
X147681009Y-67163160D01*
X147700445Y-67173548D01*
X147717476Y-67187524D01*
X147731452Y-67204555D01*
X147741840Y-67223991D01*
X147748236Y-67245072D01*
X147751000Y-67273140D01*
X147751000Y-67736860D01*
X147748236Y-67764928D01*
X147741840Y-67786009D01*
X147731452Y-67805445D01*
X147717476Y-67822476D01*
X147700445Y-67836452D01*
X147681009Y-67846840D01*
X147659928Y-67853236D01*
X147631860Y-67856000D01*
X145818140Y-67856000D01*
X145790072Y-67853236D01*
X145768991Y-67846840D01*
X145749555Y-67836452D01*
X145732524Y-67822476D01*
X145718548Y-67805445D01*
X145708160Y-67786009D01*
X145701764Y-67764928D01*
X145699000Y-67736860D01*
X145699000Y-67273140D01*
X145701764Y-67245072D01*
X145708160Y-67223991D01*
X145718548Y-67204555D01*
X145732524Y-67187524D01*
X145749555Y-67173548D01*
X145768991Y-67163160D01*
X145790072Y-67156764D01*
X145818140Y-67154000D01*
X147631860Y-67154000D01*
X147659928Y-67156764D01*
G37*
G36*
X152609928Y-67156764D02*
G01*
X152631009Y-67163160D01*
X152650445Y-67173548D01*
X152667476Y-67187524D01*
X152681452Y-67204555D01*
X152691840Y-67223991D01*
X152698236Y-67245072D01*
X152701000Y-67273140D01*
X152701000Y-67736860D01*
X152698236Y-67764928D01*
X152691840Y-67786009D01*
X152681452Y-67805445D01*
X152667476Y-67822476D01*
X152650445Y-67836452D01*
X152631009Y-67846840D01*
X152609928Y-67853236D01*
X152581860Y-67856000D01*
X150768140Y-67856000D01*
X150740072Y-67853236D01*
X150718991Y-67846840D01*
X150699555Y-67836452D01*
X150682524Y-67822476D01*
X150668548Y-67805445D01*
X150658160Y-67786009D01*
X150651764Y-67764928D01*
X150649000Y-67736860D01*
X150649000Y-67273140D01*
X150651764Y-67245072D01*
X150658160Y-67223991D01*
X150668548Y-67204555D01*
X150682524Y-67187524D01*
X150699555Y-67173548D01*
X150718991Y-67163160D01*
X150740072Y-67156764D01*
X150768140Y-67154000D01*
X152581860Y-67154000D01*
X152609928Y-67156764D01*
G37*
G36*
X137359928Y-66651764D02*
G01*
X137381009Y-66658160D01*
X137400445Y-66668548D01*
X137417476Y-66682524D01*
X137431452Y-66699555D01*
X137441840Y-66718991D01*
X137448236Y-66740072D01*
X137451000Y-66768140D01*
X137451000Y-67231860D01*
X137448236Y-67259928D01*
X137441840Y-67281009D01*
X137431452Y-67300445D01*
X137417476Y-67317476D01*
X137400445Y-67331452D01*
X137381009Y-67341840D01*
X137359928Y-67348236D01*
X137331860Y-67351000D01*
X135918140Y-67351000D01*
X135890072Y-67348236D01*
X135868991Y-67341840D01*
X135849555Y-67331452D01*
X135832524Y-67317476D01*
X135818548Y-67300445D01*
X135808160Y-67281009D01*
X135801764Y-67259928D01*
X135799000Y-67231860D01*
X135799000Y-66768140D01*
X135801764Y-66740072D01*
X135808160Y-66718991D01*
X135818548Y-66699555D01*
X135832524Y-66682524D01*
X135849555Y-66668548D01*
X135868991Y-66658160D01*
X135890072Y-66651764D01*
X135918140Y-66649000D01*
X137331860Y-66649000D01*
X137359928Y-66651764D01*
G37*
G36*
X141301000Y-67051000D02*
G01*
X139699000Y-67051000D01*
X139699000Y-63349000D01*
X141301000Y-63349000D01*
X141301000Y-67051000D01*
G37*
G36*
X144501000Y-67051000D02*
G01*
X142899000Y-67051000D01*
X142899000Y-63349000D01*
X144501000Y-63349000D01*
X144501000Y-67051000D01*
G37*
G36*
X147659928Y-65886764D02*
G01*
X147681009Y-65893160D01*
X147700445Y-65903548D01*
X147717476Y-65917524D01*
X147731452Y-65934555D01*
X147741840Y-65953991D01*
X147748236Y-65975072D01*
X147751000Y-66003140D01*
X147751000Y-66466860D01*
X147748236Y-66494928D01*
X147741840Y-66516009D01*
X147731452Y-66535445D01*
X147717476Y-66552476D01*
X147700445Y-66566452D01*
X147681009Y-66576840D01*
X147659928Y-66583236D01*
X147631860Y-66586000D01*
X145818140Y-66586000D01*
X145790072Y-66583236D01*
X145768991Y-66576840D01*
X145749555Y-66566452D01*
X145732524Y-66552476D01*
X145718548Y-66535445D01*
X145708160Y-66516009D01*
X145701764Y-66494928D01*
X145699000Y-66466860D01*
X145699000Y-66003140D01*
X145701764Y-65975072D01*
X145708160Y-65953991D01*
X145718548Y-65934555D01*
X145732524Y-65917524D01*
X145749555Y-65903548D01*
X145768991Y-65893160D01*
X145790072Y-65886764D01*
X145818140Y-65884000D01*
X147631860Y-65884000D01*
X147659928Y-65886764D01*
G37*
G36*
X152609928Y-65886764D02*
G01*
X152631009Y-65893160D01*
X152650445Y-65903548D01*
X152667476Y-65917524D01*
X152681452Y-65934555D01*
X152691840Y-65953991D01*
X152698236Y-65975072D01*
X152701000Y-66003140D01*
X152701000Y-66466860D01*
X152698236Y-66494928D01*
X152691840Y-66516009D01*
X152681452Y-66535445D01*
X152667476Y-66552476D01*
X152650445Y-66566452D01*
X152631009Y-66576840D01*
X152609928Y-66583236D01*
X152581860Y-66586000D01*
X150768140Y-66586000D01*
X150740072Y-66583236D01*
X150718991Y-66576840D01*
X150699555Y-66566452D01*
X150682524Y-66552476D01*
X150668548Y-66535445D01*
X150658160Y-66516009D01*
X150651764Y-66494928D01*
X150649000Y-66466860D01*
X150649000Y-66003140D01*
X150651764Y-65975072D01*
X150658160Y-65953991D01*
X150668548Y-65934555D01*
X150682524Y-65917524D01*
X150699555Y-65903548D01*
X150718991Y-65893160D01*
X150740072Y-65886764D01*
X150768140Y-65884000D01*
X152581860Y-65884000D01*
X152609928Y-65886764D01*
G37*
G36*
X137359928Y-65651764D02*
G01*
X137381009Y-65658160D01*
X137400445Y-65668548D01*
X137417476Y-65682524D01*
X137431452Y-65699555D01*
X137441840Y-65718991D01*
X137448236Y-65740072D01*
X137451000Y-65768140D01*
X137451000Y-66231860D01*
X137448236Y-66259928D01*
X137441840Y-66281009D01*
X137431452Y-66300445D01*
X137417476Y-66317476D01*
X137400445Y-66331452D01*
X137381009Y-66341840D01*
X137359928Y-66348236D01*
X137331860Y-66351000D01*
X135918140Y-66351000D01*
X135890072Y-66348236D01*
X135868991Y-66341840D01*
X135849555Y-66331452D01*
X135832524Y-66317476D01*
X135818548Y-66300445D01*
X135808160Y-66281009D01*
X135801764Y-66259928D01*
X135799000Y-66231860D01*
X135799000Y-65768140D01*
X135801764Y-65740072D01*
X135808160Y-65718991D01*
X135818548Y-65699555D01*
X135832524Y-65682524D01*
X135849555Y-65668548D01*
X135868991Y-65658160D01*
X135890072Y-65651764D01*
X135918140Y-65649000D01*
X137331860Y-65649000D01*
X137359928Y-65651764D01*
G37*
G36*
X154464499Y-64428445D02*
G01*
X154501995Y-64439820D01*
X154536554Y-64458292D01*
X154566847Y-64483153D01*
X154591708Y-64513446D01*
X154610180Y-64548005D01*
X154621555Y-64585501D01*
X154626000Y-64630638D01*
X154626000Y-65369362D01*
X154621555Y-65414499D01*
X154610180Y-65451995D01*
X154591708Y-65486554D01*
X154566847Y-65516847D01*
X154536554Y-65541708D01*
X154501995Y-65560180D01*
X154464499Y-65571555D01*
X154419362Y-65576000D01*
X153780638Y-65576000D01*
X153735501Y-65571555D01*
X153698005Y-65560180D01*
X153663446Y-65541708D01*
X153633153Y-65516847D01*
X153608292Y-65486554D01*
X153589820Y-65451995D01*
X153578445Y-65414499D01*
X153574000Y-65369362D01*
X153574000Y-64630638D01*
X153578445Y-64585501D01*
X153589820Y-64548005D01*
X153608292Y-64513446D01*
X153633153Y-64483153D01*
X153663446Y-64458292D01*
X153698005Y-64439820D01*
X153735501Y-64428445D01*
X153780638Y-64424000D01*
X154419362Y-64424000D01*
X154464499Y-64428445D01*
G37*
G36*
X137359928Y-64651764D02*
G01*
X137381009Y-64658160D01*
X137400445Y-64668548D01*
X137417476Y-64682524D01*
X137431452Y-64699555D01*
X137441840Y-64718991D01*
X137448236Y-64740072D01*
X137451000Y-64768140D01*
X137451000Y-65231860D01*
X137448236Y-65259928D01*
X137441840Y-65281009D01*
X137431452Y-65300445D01*
X137417476Y-65317476D01*
X137400445Y-65331452D01*
X137381009Y-65341840D01*
X137359928Y-65348236D01*
X137331860Y-65351000D01*
X135918140Y-65351000D01*
X135890072Y-65348236D01*
X135868991Y-65341840D01*
X135849555Y-65331452D01*
X135832524Y-65317476D01*
X135818548Y-65300445D01*
X135808160Y-65281009D01*
X135801764Y-65259928D01*
X135799000Y-65231860D01*
X135799000Y-64768140D01*
X135801764Y-64740072D01*
X135808160Y-64718991D01*
X135818548Y-64699555D01*
X135832524Y-64682524D01*
X135849555Y-64668548D01*
X135868991Y-64658160D01*
X135890072Y-64651764D01*
X135918140Y-64649000D01*
X137331860Y-64649000D01*
X137359928Y-64651764D01*
G37*
G36*
X152609928Y-64616764D02*
G01*
X152631009Y-64623160D01*
X152650445Y-64633548D01*
X152667476Y-64647524D01*
X152681452Y-64664555D01*
X152691840Y-64683991D01*
X152698236Y-64705072D01*
X152701000Y-64733140D01*
X152701000Y-65196860D01*
X152698236Y-65224928D01*
X152691840Y-65246009D01*
X152681452Y-65265445D01*
X152667476Y-65282476D01*
X152650445Y-65296452D01*
X152631009Y-65306840D01*
X152609928Y-65313236D01*
X152581860Y-65316000D01*
X150768140Y-65316000D01*
X150740072Y-65313236D01*
X150718991Y-65306840D01*
X150699555Y-65296452D01*
X150682524Y-65282476D01*
X150668548Y-65265445D01*
X150658160Y-65246009D01*
X150651764Y-65224928D01*
X150649000Y-65196860D01*
X150649000Y-64733140D01*
X150651764Y-64705072D01*
X150658160Y-64683991D01*
X150668548Y-64664555D01*
X150682524Y-64647524D01*
X150699555Y-64633548D01*
X150718991Y-64623160D01*
X150740072Y-64616764D01*
X150768140Y-64614000D01*
X152581860Y-64614000D01*
X152609928Y-64616764D01*
G37*
G36*
X147659928Y-64616764D02*
G01*
X147681009Y-64623160D01*
X147700445Y-64633548D01*
X147717476Y-64647524D01*
X147731452Y-64664555D01*
X147741840Y-64683991D01*
X147748236Y-64705072D01*
X147751000Y-64733140D01*
X147751000Y-65196860D01*
X147748236Y-65224928D01*
X147741840Y-65246009D01*
X147731452Y-65265445D01*
X147717476Y-65282476D01*
X147700445Y-65296452D01*
X147681009Y-65306840D01*
X147659928Y-65313236D01*
X147631860Y-65316000D01*
X145818140Y-65316000D01*
X145790072Y-65313236D01*
X145768991Y-65306840D01*
X145749555Y-65296452D01*
X145732524Y-65282476D01*
X145718548Y-65265445D01*
X145708160Y-65246009D01*
X145701764Y-65224928D01*
X145699000Y-65196860D01*
X145699000Y-64733140D01*
X145701764Y-64705072D01*
X145708160Y-64683991D01*
X145718548Y-64664555D01*
X145732524Y-64647524D01*
X145749555Y-64633548D01*
X145768991Y-64623160D01*
X145790072Y-64616764D01*
X145818140Y-64614000D01*
X147631860Y-64614000D01*
X147659928Y-64616764D01*
G37*
G36*
X137359928Y-63651764D02*
G01*
X137381009Y-63658160D01*
X137400445Y-63668548D01*
X137417476Y-63682524D01*
X137431452Y-63699555D01*
X137441840Y-63718991D01*
X137448236Y-63740072D01*
X137451000Y-63768140D01*
X137451000Y-64231860D01*
X137448236Y-64259928D01*
X137441840Y-64281009D01*
X137431452Y-64300445D01*
X137417476Y-64317476D01*
X137400445Y-64331452D01*
X137381009Y-64341840D01*
X137359928Y-64348236D01*
X137331860Y-64351000D01*
X135918140Y-64351000D01*
X135890072Y-64348236D01*
X135868991Y-64341840D01*
X135849555Y-64331452D01*
X135832524Y-64317476D01*
X135818548Y-64300445D01*
X135808160Y-64281009D01*
X135801764Y-64259928D01*
X135799000Y-64231860D01*
X135799000Y-63768140D01*
X135801764Y-63740072D01*
X135808160Y-63718991D01*
X135818548Y-63699555D01*
X135832524Y-63682524D01*
X135849555Y-63668548D01*
X135868991Y-63658160D01*
X135890072Y-63651764D01*
X135918140Y-63649000D01*
X137331860Y-63649000D01*
X137359928Y-63651764D01*
G37*
G36*
X161121000Y-64075000D02*
G01*
X159419000Y-64075000D01*
X159419000Y-62173000D01*
X161121000Y-62173000D01*
X161121000Y-64075000D01*
G37*
G36*
X158581000Y-64075000D02*
G01*
X156879000Y-64075000D01*
X156879000Y-62173000D01*
X158581000Y-62173000D01*
X158581000Y-64075000D01*
G37*
G36*
X147659928Y-63346764D02*
G01*
X147681009Y-63353160D01*
X147700445Y-63363548D01*
X147717476Y-63377524D01*
X147731452Y-63394555D01*
X147741840Y-63413991D01*
X147748236Y-63435072D01*
X147751000Y-63463140D01*
X147751000Y-63926860D01*
X147748236Y-63954928D01*
X147741840Y-63976009D01*
X147731452Y-63995445D01*
X147717476Y-64012476D01*
X147700445Y-64026452D01*
X147681009Y-64036840D01*
X147659928Y-64043236D01*
X147631860Y-64046000D01*
X145818140Y-64046000D01*
X145790072Y-64043236D01*
X145768991Y-64036840D01*
X145749555Y-64026452D01*
X145732524Y-64012476D01*
X145718548Y-63995445D01*
X145708160Y-63976009D01*
X145701764Y-63954928D01*
X145699000Y-63926860D01*
X145699000Y-63463140D01*
X145701764Y-63435072D01*
X145708160Y-63413991D01*
X145718548Y-63394555D01*
X145732524Y-63377524D01*
X145749555Y-63363548D01*
X145768991Y-63353160D01*
X145790072Y-63346764D01*
X145818140Y-63344000D01*
X147631860Y-63344000D01*
X147659928Y-63346764D01*
G37*
G36*
X152609928Y-63346764D02*
G01*
X152631009Y-63353160D01*
X152650445Y-63363548D01*
X152667476Y-63377524D01*
X152681452Y-63394555D01*
X152691840Y-63413991D01*
X152698236Y-63435072D01*
X152701000Y-63463140D01*
X152701000Y-63926860D01*
X152698236Y-63954928D01*
X152691840Y-63976009D01*
X152681452Y-63995445D01*
X152667476Y-64012476D01*
X152650445Y-64026452D01*
X152631009Y-64036840D01*
X152609928Y-64043236D01*
X152581860Y-64046000D01*
X150768140Y-64046000D01*
X150740072Y-64043236D01*
X150718991Y-64036840D01*
X150699555Y-64026452D01*
X150682524Y-64012476D01*
X150668548Y-63995445D01*
X150658160Y-63976009D01*
X150651764Y-63954928D01*
X150649000Y-63926860D01*
X150649000Y-63463140D01*
X150651764Y-63435072D01*
X150658160Y-63413991D01*
X150668548Y-63394555D01*
X150682524Y-63377524D01*
X150699555Y-63363548D01*
X150718991Y-63353160D01*
X150740072Y-63346764D01*
X150768140Y-63344000D01*
X152581860Y-63344000D01*
X152609928Y-63346764D01*
G37*
G36*
X154464499Y-62678445D02*
G01*
X154501995Y-62689820D01*
X154536554Y-62708292D01*
X154566847Y-62733153D01*
X154591708Y-62763446D01*
X154610180Y-62798005D01*
X154621555Y-62835501D01*
X154626000Y-62880638D01*
X154626000Y-63619362D01*
X154621555Y-63664499D01*
X154610180Y-63701995D01*
X154591708Y-63736554D01*
X154566847Y-63766847D01*
X154536554Y-63791708D01*
X154501995Y-63810180D01*
X154464499Y-63821555D01*
X154419362Y-63826000D01*
X153780638Y-63826000D01*
X153735501Y-63821555D01*
X153698005Y-63810180D01*
X153663446Y-63791708D01*
X153633153Y-63766847D01*
X153608292Y-63736554D01*
X153589820Y-63701995D01*
X153578445Y-63664499D01*
X153574000Y-63619362D01*
X153574000Y-62880638D01*
X153578445Y-62835501D01*
X153589820Y-62798005D01*
X153608292Y-62763446D01*
X153633153Y-62733153D01*
X153663446Y-62708292D01*
X153698005Y-62689820D01*
X153735501Y-62678445D01*
X153780638Y-62674000D01*
X154419362Y-62674000D01*
X154464499Y-62678445D01*
G37*
G36*
X134891242Y-62053404D02*
G01*
X134928337Y-62064657D01*
X134962515Y-62082925D01*
X134992481Y-62107519D01*
X135017075Y-62137485D01*
X135035343Y-62171663D01*
X135046596Y-62208758D01*
X135051000Y-62253474D01*
X135051000Y-63146526D01*
X135046596Y-63191242D01*
X135035343Y-63228337D01*
X135017075Y-63262515D01*
X134992481Y-63292481D01*
X134962515Y-63317075D01*
X134928337Y-63335343D01*
X134891242Y-63346596D01*
X134846526Y-63351000D01*
X133353474Y-63351000D01*
X133308758Y-63346596D01*
X133271663Y-63335343D01*
X133237485Y-63317075D01*
X133207519Y-63292481D01*
X133182925Y-63262515D01*
X133164657Y-63228337D01*
X133153404Y-63191242D01*
X133149000Y-63146526D01*
X133149000Y-62253474D01*
X133153404Y-62208758D01*
X133164657Y-62171663D01*
X133182925Y-62137485D01*
X133207519Y-62107519D01*
X133237485Y-62082925D01*
X133271663Y-62064657D01*
X133308758Y-62053404D01*
X133353474Y-62049000D01*
X134846526Y-62049000D01*
X134891242Y-62053404D01*
G37*
G36*
X161614402Y-59602851D02*
G01*
X161646101Y-59612467D01*
X161675310Y-59628080D01*
X161700911Y-59649089D01*
X161721920Y-59674690D01*
X161737533Y-59703899D01*
X161747149Y-59735598D01*
X161751000Y-59774697D01*
X161751000Y-61500303D01*
X161747149Y-61539402D01*
X161737533Y-61571101D01*
X161721920Y-61600310D01*
X161700911Y-61625911D01*
X161675310Y-61646920D01*
X161646101Y-61662533D01*
X161614402Y-61672149D01*
X161575303Y-61676000D01*
X156424697Y-61676000D01*
X156385598Y-61672149D01*
X156353899Y-61662533D01*
X156324690Y-61646920D01*
X156299089Y-61625911D01*
X156278080Y-61600310D01*
X156262467Y-61571101D01*
X156252851Y-61539402D01*
X156249000Y-61500303D01*
X156249000Y-59774697D01*
X156252851Y-59735598D01*
X156262467Y-59703899D01*
X156278080Y-59674690D01*
X156299089Y-59649089D01*
X156324690Y-59628080D01*
X156353899Y-59612467D01*
X156385598Y-59602851D01*
X156424697Y-59599000D01*
X161575303Y-59599000D01*
X161614402Y-59602851D01*
G37*
G36*
X145601000Y-60901000D02*
G01*
X143799000Y-60901000D01*
X143799000Y-59099000D01*
X145601000Y-59099000D01*
X145601000Y-60901000D01*
G37*
G36*
X149566242Y-59353404D02*
G01*
X149603337Y-59364657D01*
X149637515Y-59382925D01*
X149667481Y-59407519D01*
X149692075Y-59437485D01*
X149710343Y-59471663D01*
X149721596Y-59508758D01*
X149726000Y-59553474D01*
X149726000Y-60446526D01*
X149721596Y-60491242D01*
X149710343Y-60528337D01*
X149692075Y-60562515D01*
X149667481Y-60592481D01*
X149637515Y-60617075D01*
X149603337Y-60635343D01*
X149566242Y-60646596D01*
X149521526Y-60651000D01*
X148078474Y-60651000D01*
X148033758Y-60646596D01*
X147996663Y-60635343D01*
X147962485Y-60617075D01*
X147932519Y-60592481D01*
X147907925Y-60562515D01*
X147889657Y-60528337D01*
X147878404Y-60491242D01*
X147874000Y-60446526D01*
X147874000Y-59553474D01*
X147878404Y-59508758D01*
X147889657Y-59471663D01*
X147907925Y-59437485D01*
X147932519Y-59407519D01*
X147962485Y-59382925D01*
X147996663Y-59364657D01*
X148033758Y-59353404D01*
X148078474Y-59349000D01*
X149521526Y-59349000D01*
X149566242Y-59353404D01*
G37*
G36*
X149138855Y-57352140D02*
G01*
X149202618Y-57358420D01*
X149293404Y-57385960D01*
X149325336Y-57395646D01*
X149438425Y-57456094D01*
X149537554Y-57537446D01*
X149618906Y-57636575D01*
X149679354Y-57749664D01*
X149679355Y-57749668D01*
X149716580Y-57872382D01*
X149729149Y-58000000D01*
X149716580Y-58127618D01*
X149689040Y-58218404D01*
X149679354Y-58250336D01*
X149618906Y-58363425D01*
X149537554Y-58462554D01*
X149438425Y-58543906D01*
X149325336Y-58604354D01*
X149293404Y-58614040D01*
X149202618Y-58641580D01*
X149138855Y-58647860D01*
X149106974Y-58651000D01*
X148493026Y-58651000D01*
X148461145Y-58647860D01*
X148397382Y-58641580D01*
X148306596Y-58614040D01*
X148274664Y-58604354D01*
X148161575Y-58543906D01*
X148062446Y-58462554D01*
X147981094Y-58363425D01*
X147920646Y-58250336D01*
X147910960Y-58218404D01*
X147883420Y-58127618D01*
X147870851Y-58000000D01*
X147883420Y-57872382D01*
X147920645Y-57749668D01*
X147920646Y-57749664D01*
X147981094Y-57636575D01*
X148062446Y-57537446D01*
X148161575Y-57456094D01*
X148274664Y-57395646D01*
X148306596Y-57385960D01*
X148397382Y-57358420D01*
X148461145Y-57352140D01*
X148493026Y-57349000D01*
X149106974Y-57349000D01*
X149138855Y-57352140D01*
G37*
G36*
X144813512Y-56563927D02*
G01*
X144962812Y-56593624D01*
X145126784Y-56661544D01*
X145274354Y-56760147D01*
X145399853Y-56885646D01*
X145498456Y-57033216D01*
X145566376Y-57197188D01*
X145601000Y-57371259D01*
X145601000Y-57548741D01*
X145566376Y-57722812D01*
X145498456Y-57886784D01*
X145399853Y-58034354D01*
X145274354Y-58159853D01*
X145126784Y-58258456D01*
X144962812Y-58326376D01*
X144813512Y-58356073D01*
X144788742Y-58361000D01*
X144611258Y-58361000D01*
X144586488Y-58356073D01*
X144437188Y-58326376D01*
X144273216Y-58258456D01*
X144125646Y-58159853D01*
X144000147Y-58034354D01*
X143901544Y-57886784D01*
X143833624Y-57722812D01*
X143799000Y-57548741D01*
X143799000Y-57371259D01*
X143833624Y-57197188D01*
X143901544Y-57033216D01*
X144000147Y-56885646D01*
X144125646Y-56760147D01*
X144273216Y-56661544D01*
X144437188Y-56593624D01*
X144586488Y-56563927D01*
X144611258Y-56559000D01*
X144788742Y-56559000D01*
X144813512Y-56563927D01*
G37*
G36*
X161614402Y-54327851D02*
G01*
X161646101Y-54337467D01*
X161675310Y-54353080D01*
X161700911Y-54374089D01*
X161721920Y-54399690D01*
X161737533Y-54428899D01*
X161747149Y-54460598D01*
X161751000Y-54499697D01*
X161751000Y-56225303D01*
X161747149Y-56264402D01*
X161737533Y-56296101D01*
X161721920Y-56325310D01*
X161700911Y-56350911D01*
X161675310Y-56371920D01*
X161646101Y-56387533D01*
X161614402Y-56397149D01*
X161575303Y-56401000D01*
X156424697Y-56401000D01*
X156385598Y-56397149D01*
X156353899Y-56387533D01*
X156324690Y-56371920D01*
X156299089Y-56350911D01*
X156278080Y-56325310D01*
X156262467Y-56296101D01*
X156252851Y-56264402D01*
X156249000Y-56225303D01*
X156249000Y-54499697D01*
X156252851Y-54460598D01*
X156262467Y-54428899D01*
X156278080Y-54399690D01*
X156299089Y-54374089D01*
X156324690Y-54353080D01*
X156353899Y-54337467D01*
X156385598Y-54327851D01*
X156424697Y-54324000D01*
X161575303Y-54324000D01*
X161614402Y-54327851D01*
G37*
G36*
X137264499Y-53903445D02*
G01*
X137301995Y-53914820D01*
X137336554Y-53933292D01*
X137366847Y-53958153D01*
X137391708Y-53988446D01*
X137410180Y-54023005D01*
X137421555Y-54060501D01*
X137426000Y-54105638D01*
X137426000Y-54844362D01*
X137421555Y-54889499D01*
X137410180Y-54926995D01*
X137391708Y-54961554D01*
X137366847Y-54991847D01*
X137336554Y-55016708D01*
X137301995Y-55035180D01*
X137264499Y-55046555D01*
X137219362Y-55051000D01*
X136580638Y-55051000D01*
X136535501Y-55046555D01*
X136498005Y-55035180D01*
X136463446Y-55016708D01*
X136433153Y-54991847D01*
X136408292Y-54961554D01*
X136389820Y-54926995D01*
X136378445Y-54889499D01*
X136374000Y-54844362D01*
X136374000Y-54105638D01*
X136378445Y-54060501D01*
X136389820Y-54023005D01*
X136408292Y-53988446D01*
X136433153Y-53958153D01*
X136463446Y-53933292D01*
X136498005Y-53914820D01*
X136535501Y-53903445D01*
X136580638Y-53899000D01*
X137219362Y-53899000D01*
X137264499Y-53903445D01*
G37*
G36*
X127213512Y-53023927D02*
G01*
X127362812Y-53053624D01*
X127526784Y-53121544D01*
X127674354Y-53220147D01*
X127799853Y-53345646D01*
X127898456Y-53493216D01*
X127966376Y-53657188D01*
X128001000Y-53831259D01*
X128001000Y-54008741D01*
X127966376Y-54182812D01*
X127898456Y-54346784D01*
X127799853Y-54494354D01*
X127674354Y-54619853D01*
X127526784Y-54718456D01*
X127362812Y-54786376D01*
X127213512Y-54816073D01*
X127188742Y-54821000D01*
X127011258Y-54821000D01*
X126986488Y-54816073D01*
X126837188Y-54786376D01*
X126673216Y-54718456D01*
X126525646Y-54619853D01*
X126400147Y-54494354D01*
X126301544Y-54346784D01*
X126233624Y-54182812D01*
X126199000Y-54008741D01*
X126199000Y-53831259D01*
X126233624Y-53657188D01*
X126301544Y-53493216D01*
X126400147Y-53345646D01*
X126525646Y-53220147D01*
X126673216Y-53121544D01*
X126837188Y-53053624D01*
X126986488Y-53023927D01*
X127011258Y-53019000D01*
X127188742Y-53019000D01*
X127213512Y-53023927D01*
G37*
G36*
X133989499Y-53478445D02*
G01*
X134026995Y-53489820D01*
X134061554Y-53508292D01*
X134091847Y-53533153D01*
X134116708Y-53563446D01*
X134135180Y-53598005D01*
X134146555Y-53635501D01*
X134151000Y-53680638D01*
X134151000Y-54319362D01*
X134146555Y-54364499D01*
X134135180Y-54401995D01*
X134116708Y-54436554D01*
X134091847Y-54466847D01*
X134061554Y-54491708D01*
X134026995Y-54510180D01*
X133989499Y-54521555D01*
X133944362Y-54526000D01*
X133205638Y-54526000D01*
X133160501Y-54521555D01*
X133123005Y-54510180D01*
X133088446Y-54491708D01*
X133058153Y-54466847D01*
X133033292Y-54436554D01*
X133014820Y-54401995D01*
X133003445Y-54364499D01*
X132999000Y-54319362D01*
X132999000Y-53680638D01*
X133003445Y-53635501D01*
X133014820Y-53598005D01*
X133033292Y-53563446D01*
X133058153Y-53533153D01*
X133088446Y-53508292D01*
X133123005Y-53489820D01*
X133160501Y-53478445D01*
X133205638Y-53474000D01*
X133944362Y-53474000D01*
X133989499Y-53478445D01*
G37*
G36*
X132239499Y-53478445D02*
G01*
X132276995Y-53489820D01*
X132311554Y-53508292D01*
X132341847Y-53533153D01*
X132366708Y-53563446D01*
X132385180Y-53598005D01*
X132396555Y-53635501D01*
X132401000Y-53680638D01*
X132401000Y-54319362D01*
X132396555Y-54364499D01*
X132385180Y-54401995D01*
X132366708Y-54436554D01*
X132341847Y-54466847D01*
X132311554Y-54491708D01*
X132276995Y-54510180D01*
X132239499Y-54521555D01*
X132194362Y-54526000D01*
X131455638Y-54526000D01*
X131410501Y-54521555D01*
X131373005Y-54510180D01*
X131338446Y-54491708D01*
X131308153Y-54466847D01*
X131283292Y-54436554D01*
X131264820Y-54401995D01*
X131253445Y-54364499D01*
X131249000Y-54319362D01*
X131249000Y-53680638D01*
X131253445Y-53635501D01*
X131264820Y-53598005D01*
X131283292Y-53563446D01*
X131308153Y-53533153D01*
X131338446Y-53508292D01*
X131373005Y-53489820D01*
X131410501Y-53478445D01*
X131455638Y-53474000D01*
X132194362Y-53474000D01*
X132239499Y-53478445D01*
G37*
G36*
X152681000Y-53776000D02*
G01*
X151019000Y-53776000D01*
X151019000Y-53024000D01*
X152681000Y-53024000D01*
X152681000Y-53776000D01*
G37*
G36*
X149981000Y-53776000D02*
G01*
X148319000Y-53776000D01*
X148319000Y-51124000D01*
X149981000Y-51124000D01*
X149981000Y-53776000D01*
G37*
G36*
X137264499Y-52153445D02*
G01*
X137301995Y-52164820D01*
X137336554Y-52183292D01*
X137366847Y-52208153D01*
X137391708Y-52238446D01*
X137410180Y-52273005D01*
X137421555Y-52310501D01*
X137426000Y-52355638D01*
X137426000Y-53094362D01*
X137421555Y-53139499D01*
X137410180Y-53176995D01*
X137391708Y-53211554D01*
X137366847Y-53241847D01*
X137336554Y-53266708D01*
X137301995Y-53285180D01*
X137264499Y-53296555D01*
X137219362Y-53301000D01*
X136580638Y-53301000D01*
X136535501Y-53296555D01*
X136498005Y-53285180D01*
X136463446Y-53266708D01*
X136433153Y-53241847D01*
X136408292Y-53211554D01*
X136389820Y-53176995D01*
X136378445Y-53139499D01*
X136374000Y-53094362D01*
X136374000Y-52355638D01*
X136378445Y-52310501D01*
X136389820Y-52273005D01*
X136408292Y-52238446D01*
X136433153Y-52208153D01*
X136463446Y-52183292D01*
X136498005Y-52164820D01*
X136535501Y-52153445D01*
X136580638Y-52149000D01*
X137219362Y-52149000D01*
X137264499Y-52153445D01*
G37*
G36*
X145234928Y-51831764D02*
G01*
X145256009Y-51838160D01*
X145275445Y-51848548D01*
X145292476Y-51862524D01*
X145306452Y-51879555D01*
X145316840Y-51898991D01*
X145323236Y-51920072D01*
X145326000Y-51948140D01*
X145326000Y-52411860D01*
X145323236Y-52439928D01*
X145316840Y-52461009D01*
X145306452Y-52480445D01*
X145292476Y-52497476D01*
X145275445Y-52511452D01*
X145256009Y-52521840D01*
X145234928Y-52528236D01*
X145206860Y-52531000D01*
X143393140Y-52531000D01*
X143365072Y-52528236D01*
X143343991Y-52521840D01*
X143324555Y-52511452D01*
X143307524Y-52497476D01*
X143293548Y-52480445D01*
X143283160Y-52461009D01*
X143276764Y-52439928D01*
X143274000Y-52411860D01*
X143274000Y-51948140D01*
X143276764Y-51920072D01*
X143283160Y-51898991D01*
X143293548Y-51879555D01*
X143307524Y-51862524D01*
X143324555Y-51848548D01*
X143343991Y-51838160D01*
X143365072Y-51831764D01*
X143393140Y-51829000D01*
X145206860Y-51829000D01*
X145234928Y-51831764D01*
G37*
G36*
X140284928Y-51831764D02*
G01*
X140306009Y-51838160D01*
X140325445Y-51848548D01*
X140342476Y-51862524D01*
X140356452Y-51879555D01*
X140366840Y-51898991D01*
X140373236Y-51920072D01*
X140376000Y-51948140D01*
X140376000Y-52411860D01*
X140373236Y-52439928D01*
X140366840Y-52461009D01*
X140356452Y-52480445D01*
X140342476Y-52497476D01*
X140325445Y-52511452D01*
X140306009Y-52521840D01*
X140284928Y-52528236D01*
X140256860Y-52531000D01*
X138443140Y-52531000D01*
X138415072Y-52528236D01*
X138393991Y-52521840D01*
X138374555Y-52511452D01*
X138357524Y-52497476D01*
X138343548Y-52480445D01*
X138333160Y-52461009D01*
X138326764Y-52439928D01*
X138324000Y-52411860D01*
X138324000Y-51948140D01*
X138326764Y-51920072D01*
X138333160Y-51898991D01*
X138343548Y-51879555D01*
X138357524Y-51862524D01*
X138374555Y-51848548D01*
X138393991Y-51838160D01*
X138415072Y-51831764D01*
X138443140Y-51829000D01*
X140256860Y-51829000D01*
X140284928Y-51831764D01*
G37*
G36*
X127213512Y-50483927D02*
G01*
X127362812Y-50513624D01*
X127526784Y-50581544D01*
X127674354Y-50680147D01*
X127799853Y-50805646D01*
X127898456Y-50953216D01*
X127966376Y-51117188D01*
X128001000Y-51291259D01*
X128001000Y-51468741D01*
X127966376Y-51642812D01*
X127898456Y-51806784D01*
X127799853Y-51954354D01*
X127674354Y-52079853D01*
X127526784Y-52178456D01*
X127362812Y-52246376D01*
X127213512Y-52276073D01*
X127188742Y-52281000D01*
X127011258Y-52281000D01*
X126986488Y-52276073D01*
X126837188Y-52246376D01*
X126673216Y-52178456D01*
X126525646Y-52079853D01*
X126400147Y-51954354D01*
X126301544Y-51806784D01*
X126233624Y-51642812D01*
X126199000Y-51468741D01*
X126199000Y-51291259D01*
X126233624Y-51117188D01*
X126301544Y-50953216D01*
X126400147Y-50805646D01*
X126525646Y-50680147D01*
X126673216Y-50581544D01*
X126837188Y-50513624D01*
X126986488Y-50483927D01*
X127011258Y-50479000D01*
X127188742Y-50479000D01*
X127213512Y-50483927D01*
G37*
G36*
X132631000Y-52176000D02*
G01*
X130969000Y-52176000D01*
X130969000Y-51424000D01*
X132631000Y-51424000D01*
X132631000Y-52176000D01*
G37*
G36*
X135331000Y-52176000D02*
G01*
X133669000Y-52176000D01*
X133669000Y-49524000D01*
X135331000Y-49524000D01*
X135331000Y-52176000D01*
G37*
G36*
X152681000Y-51876000D02*
G01*
X151019000Y-51876000D01*
X151019000Y-51124000D01*
X152681000Y-51124000D01*
X152681000Y-51876000D01*
G37*
G36*
X137264499Y-50328445D02*
G01*
X137301995Y-50339820D01*
X137336554Y-50358292D01*
X137366847Y-50383153D01*
X137391708Y-50413446D01*
X137410180Y-50448005D01*
X137421555Y-50485501D01*
X137426000Y-50530638D01*
X137426000Y-51269362D01*
X137421555Y-51314499D01*
X137410180Y-51351995D01*
X137391708Y-51386554D01*
X137366847Y-51416847D01*
X137336554Y-51441708D01*
X137301995Y-51460180D01*
X137264499Y-51471555D01*
X137219362Y-51476000D01*
X136580638Y-51476000D01*
X136535501Y-51471555D01*
X136498005Y-51460180D01*
X136463446Y-51441708D01*
X136433153Y-51416847D01*
X136408292Y-51386554D01*
X136389820Y-51351995D01*
X136378445Y-51314499D01*
X136374000Y-51269362D01*
X136374000Y-50530638D01*
X136378445Y-50485501D01*
X136389820Y-50448005D01*
X136408292Y-50413446D01*
X136433153Y-50383153D01*
X136463446Y-50358292D01*
X136498005Y-50339820D01*
X136535501Y-50328445D01*
X136580638Y-50324000D01*
X137219362Y-50324000D01*
X137264499Y-50328445D01*
G37*
G36*
X146964499Y-50278445D02*
G01*
X147001995Y-50289820D01*
X147036554Y-50308292D01*
X147066847Y-50333153D01*
X147091708Y-50363446D01*
X147110180Y-50398005D01*
X147121555Y-50435501D01*
X147126000Y-50480638D01*
X147126000Y-51219362D01*
X147121555Y-51264499D01*
X147110180Y-51301995D01*
X147091708Y-51336554D01*
X147066847Y-51366847D01*
X147036554Y-51391708D01*
X147001995Y-51410180D01*
X146964499Y-51421555D01*
X146919362Y-51426000D01*
X146280638Y-51426000D01*
X146235501Y-51421555D01*
X146198005Y-51410180D01*
X146163446Y-51391708D01*
X146133153Y-51366847D01*
X146108292Y-51336554D01*
X146089820Y-51301995D01*
X146078445Y-51264499D01*
X146074000Y-51219362D01*
X146074000Y-50480638D01*
X146078445Y-50435501D01*
X146089820Y-50398005D01*
X146108292Y-50363446D01*
X146133153Y-50333153D01*
X146163446Y-50308292D01*
X146198005Y-50289820D01*
X146235501Y-50278445D01*
X146280638Y-50274000D01*
X146919362Y-50274000D01*
X146964499Y-50278445D01*
G37*
G36*
X140284928Y-50561764D02*
G01*
X140306009Y-50568160D01*
X140325445Y-50578548D01*
X140342476Y-50592524D01*
X140356452Y-50609555D01*
X140366840Y-50628991D01*
X140373236Y-50650072D01*
X140376000Y-50678140D01*
X140376000Y-51141860D01*
X140373236Y-51169928D01*
X140366840Y-51191009D01*
X140356452Y-51210445D01*
X140342476Y-51227476D01*
X140325445Y-51241452D01*
X140306009Y-51251840D01*
X140284928Y-51258236D01*
X140256860Y-51261000D01*
X138443140Y-51261000D01*
X138415072Y-51258236D01*
X138393991Y-51251840D01*
X138374555Y-51241452D01*
X138357524Y-51227476D01*
X138343548Y-51210445D01*
X138333160Y-51191009D01*
X138326764Y-51169928D01*
X138324000Y-51141860D01*
X138324000Y-50678140D01*
X138326764Y-50650072D01*
X138333160Y-50628991D01*
X138343548Y-50609555D01*
X138357524Y-50592524D01*
X138374555Y-50578548D01*
X138393991Y-50568160D01*
X138415072Y-50561764D01*
X138443140Y-50559000D01*
X140256860Y-50559000D01*
X140284928Y-50561764D01*
G37*
G36*
X145234928Y-50561764D02*
G01*
X145256009Y-50568160D01*
X145275445Y-50578548D01*
X145292476Y-50592524D01*
X145306452Y-50609555D01*
X145316840Y-50628991D01*
X145323236Y-50650072D01*
X145326000Y-50678140D01*
X145326000Y-51141860D01*
X145323236Y-51169928D01*
X145316840Y-51191009D01*
X145306452Y-51210445D01*
X145292476Y-51227476D01*
X145275445Y-51241452D01*
X145256009Y-51251840D01*
X145234928Y-51258236D01*
X145206860Y-51261000D01*
X143393140Y-51261000D01*
X143365072Y-51258236D01*
X143343991Y-51251840D01*
X143324555Y-51241452D01*
X143307524Y-51227476D01*
X143293548Y-51210445D01*
X143283160Y-51191009D01*
X143276764Y-51169928D01*
X143274000Y-51141860D01*
X143274000Y-50678140D01*
X143276764Y-50650072D01*
X143283160Y-50628991D01*
X143293548Y-50609555D01*
X143307524Y-50592524D01*
X143324555Y-50578548D01*
X143343991Y-50568160D01*
X143365072Y-50561764D01*
X143393140Y-50559000D01*
X145206860Y-50559000D01*
X145234928Y-50561764D01*
G37*
G36*
X132631000Y-50276000D02*
G01*
X130969000Y-50276000D01*
X130969000Y-49524000D01*
X132631000Y-49524000D01*
X132631000Y-50276000D01*
G37*
G36*
X145234928Y-49291764D02*
G01*
X145256009Y-49298160D01*
X145275445Y-49308548D01*
X145292476Y-49322524D01*
X145306452Y-49339555D01*
X145316840Y-49358991D01*
X145323236Y-49380072D01*
X145326000Y-49408140D01*
X145326000Y-49871860D01*
X145323236Y-49899928D01*
X145316840Y-49921009D01*
X145306452Y-49940445D01*
X145292476Y-49957476D01*
X145275445Y-49971452D01*
X145256009Y-49981840D01*
X145234928Y-49988236D01*
X145206860Y-49991000D01*
X143393140Y-49991000D01*
X143365072Y-49988236D01*
X143343991Y-49981840D01*
X143324555Y-49971452D01*
X143307524Y-49957476D01*
X143293548Y-49940445D01*
X143283160Y-49921009D01*
X143276764Y-49899928D01*
X143274000Y-49871860D01*
X143274000Y-49408140D01*
X143276764Y-49380072D01*
X143283160Y-49358991D01*
X143293548Y-49339555D01*
X143307524Y-49322524D01*
X143324555Y-49308548D01*
X143343991Y-49298160D01*
X143365072Y-49291764D01*
X143393140Y-49289000D01*
X145206860Y-49289000D01*
X145234928Y-49291764D01*
G37*
G36*
X140284928Y-49291764D02*
G01*
X140306009Y-49298160D01*
X140325445Y-49308548D01*
X140342476Y-49322524D01*
X140356452Y-49339555D01*
X140366840Y-49358991D01*
X140373236Y-49380072D01*
X140376000Y-49408140D01*
X140376000Y-49871860D01*
X140373236Y-49899928D01*
X140366840Y-49921009D01*
X140356452Y-49940445D01*
X140342476Y-49957476D01*
X140325445Y-49971452D01*
X140306009Y-49981840D01*
X140284928Y-49988236D01*
X140256860Y-49991000D01*
X138443140Y-49991000D01*
X138415072Y-49988236D01*
X138393991Y-49981840D01*
X138374555Y-49971452D01*
X138357524Y-49957476D01*
X138343548Y-49940445D01*
X138333160Y-49921009D01*
X138326764Y-49899928D01*
X138324000Y-49871860D01*
X138324000Y-49408140D01*
X138326764Y-49380072D01*
X138333160Y-49358991D01*
X138343548Y-49339555D01*
X138357524Y-49322524D01*
X138374555Y-49308548D01*
X138393991Y-49298160D01*
X138415072Y-49291764D01*
X138443140Y-49289000D01*
X140256860Y-49289000D01*
X140284928Y-49291764D01*
G37*
G36*
X152739499Y-48778445D02*
G01*
X152776995Y-48789820D01*
X152811554Y-48808292D01*
X152841847Y-48833153D01*
X152866708Y-48863446D01*
X152885180Y-48898005D01*
X152896555Y-48935501D01*
X152901000Y-48980638D01*
X152901000Y-49619362D01*
X152896555Y-49664499D01*
X152885180Y-49701995D01*
X152866708Y-49736554D01*
X152841847Y-49766847D01*
X152811554Y-49791708D01*
X152776995Y-49810180D01*
X152739499Y-49821555D01*
X152694362Y-49826000D01*
X151955638Y-49826000D01*
X151910501Y-49821555D01*
X151873005Y-49810180D01*
X151838446Y-49791708D01*
X151808153Y-49766847D01*
X151783292Y-49736554D01*
X151764820Y-49701995D01*
X151753445Y-49664499D01*
X151749000Y-49619362D01*
X151749000Y-48980638D01*
X151753445Y-48935501D01*
X151764820Y-48898005D01*
X151783292Y-48863446D01*
X151808153Y-48833153D01*
X151838446Y-48808292D01*
X151873005Y-48789820D01*
X151910501Y-48778445D01*
X151955638Y-48774000D01*
X152694362Y-48774000D01*
X152739499Y-48778445D01*
G37*
G36*
X154489499Y-48778445D02*
G01*
X154526995Y-48789820D01*
X154561554Y-48808292D01*
X154591847Y-48833153D01*
X154616708Y-48863446D01*
X154635180Y-48898005D01*
X154646555Y-48935501D01*
X154651000Y-48980638D01*
X154651000Y-49619362D01*
X154646555Y-49664499D01*
X154635180Y-49701995D01*
X154616708Y-49736554D01*
X154591847Y-49766847D01*
X154561554Y-49791708D01*
X154526995Y-49810180D01*
X154489499Y-49821555D01*
X154444362Y-49826000D01*
X153705638Y-49826000D01*
X153660501Y-49821555D01*
X153623005Y-49810180D01*
X153588446Y-49791708D01*
X153558153Y-49766847D01*
X153533292Y-49736554D01*
X153514820Y-49701995D01*
X153503445Y-49664499D01*
X153499000Y-49619362D01*
X153499000Y-48980638D01*
X153503445Y-48935501D01*
X153514820Y-48898005D01*
X153533292Y-48863446D01*
X153558153Y-48833153D01*
X153588446Y-48808292D01*
X153623005Y-48789820D01*
X153660501Y-48778445D01*
X153705638Y-48774000D01*
X154444362Y-48774000D01*
X154489499Y-48778445D01*
G37*
G36*
X127213512Y-47943927D02*
G01*
X127362812Y-47973624D01*
X127526784Y-48041544D01*
X127674354Y-48140147D01*
X127799853Y-48265646D01*
X127898456Y-48413216D01*
X127966376Y-48577188D01*
X127994431Y-48718236D01*
X128001000Y-48751258D01*
X128001000Y-48928742D01*
X127999486Y-48936354D01*
X127966376Y-49102812D01*
X127898456Y-49266784D01*
X127799853Y-49414354D01*
X127674354Y-49539853D01*
X127526784Y-49638456D01*
X127362812Y-49706376D01*
X127213512Y-49736073D01*
X127188742Y-49741000D01*
X127011258Y-49741000D01*
X126986488Y-49736073D01*
X126837188Y-49706376D01*
X126673216Y-49638456D01*
X126525646Y-49539853D01*
X126400147Y-49414354D01*
X126301544Y-49266784D01*
X126233624Y-49102812D01*
X126200514Y-48936354D01*
X126199000Y-48928742D01*
X126199000Y-48751258D01*
X126205569Y-48718236D01*
X126233624Y-48577188D01*
X126301544Y-48413216D01*
X126400147Y-48265646D01*
X126525646Y-48140147D01*
X126673216Y-48041544D01*
X126837188Y-47973624D01*
X126986488Y-47943927D01*
X127011258Y-47939000D01*
X127188742Y-47939000D01*
X127213512Y-47943927D01*
G37*
G36*
X137264499Y-48578445D02*
G01*
X137301995Y-48589820D01*
X137336554Y-48608292D01*
X137366847Y-48633153D01*
X137391708Y-48663446D01*
X137410180Y-48698005D01*
X137421555Y-48735501D01*
X137426000Y-48780638D01*
X137426000Y-49519362D01*
X137421555Y-49564499D01*
X137410180Y-49601995D01*
X137391708Y-49636554D01*
X137366847Y-49666847D01*
X137336554Y-49691708D01*
X137301995Y-49710180D01*
X137264499Y-49721555D01*
X137219362Y-49726000D01*
X136580638Y-49726000D01*
X136535501Y-49721555D01*
X136498005Y-49710180D01*
X136463446Y-49691708D01*
X136433153Y-49666847D01*
X136408292Y-49636554D01*
X136389820Y-49601995D01*
X136378445Y-49564499D01*
X136374000Y-49519362D01*
X136374000Y-48780638D01*
X136378445Y-48735501D01*
X136389820Y-48698005D01*
X136408292Y-48663446D01*
X136433153Y-48633153D01*
X136463446Y-48608292D01*
X136498005Y-48589820D01*
X136535501Y-48578445D01*
X136580638Y-48574000D01*
X137219362Y-48574000D01*
X137264499Y-48578445D01*
G37*
G36*
X146964499Y-48528445D02*
G01*
X147001995Y-48539820D01*
X147036554Y-48558292D01*
X147066847Y-48583153D01*
X147091708Y-48613446D01*
X147110180Y-48648005D01*
X147121555Y-48685501D01*
X147126000Y-48730638D01*
X147126000Y-49469362D01*
X147121555Y-49514499D01*
X147110180Y-49551995D01*
X147091708Y-49586554D01*
X147066847Y-49616847D01*
X147036554Y-49641708D01*
X147001995Y-49660180D01*
X146964499Y-49671555D01*
X146919362Y-49676000D01*
X146280638Y-49676000D01*
X146235501Y-49671555D01*
X146198005Y-49660180D01*
X146163446Y-49641708D01*
X146133153Y-49616847D01*
X146108292Y-49586554D01*
X146089820Y-49551995D01*
X146078445Y-49514499D01*
X146074000Y-49469362D01*
X146074000Y-48730638D01*
X146078445Y-48685501D01*
X146089820Y-48648005D01*
X146108292Y-48613446D01*
X146133153Y-48583153D01*
X146163446Y-48558292D01*
X146198005Y-48539820D01*
X146235501Y-48528445D01*
X146280638Y-48524000D01*
X146919362Y-48524000D01*
X146964499Y-48528445D01*
G37*
G36*
X148914499Y-48578445D02*
G01*
X148951995Y-48589820D01*
X148986554Y-48608292D01*
X149016847Y-48633153D01*
X149041708Y-48663446D01*
X149060180Y-48698005D01*
X149071555Y-48735501D01*
X149076000Y-48780638D01*
X149076000Y-49419362D01*
X149071555Y-49464499D01*
X149060180Y-49501995D01*
X149041708Y-49536554D01*
X149016847Y-49566847D01*
X148986554Y-49591708D01*
X148951995Y-49610180D01*
X148914499Y-49621555D01*
X148869362Y-49626000D01*
X148130638Y-49626000D01*
X148085501Y-49621555D01*
X148048005Y-49610180D01*
X148013446Y-49591708D01*
X147983153Y-49566847D01*
X147958292Y-49536554D01*
X147939820Y-49501995D01*
X147928445Y-49464499D01*
X147924000Y-49419362D01*
X147924000Y-48780638D01*
X147928445Y-48735501D01*
X147939820Y-48698005D01*
X147958292Y-48663446D01*
X147983153Y-48633153D01*
X148013446Y-48608292D01*
X148048005Y-48589820D01*
X148085501Y-48578445D01*
X148130638Y-48574000D01*
X148869362Y-48574000D01*
X148914499Y-48578445D01*
G37*
G36*
X150664499Y-48578445D02*
G01*
X150701995Y-48589820D01*
X150736554Y-48608292D01*
X150766847Y-48633153D01*
X150791708Y-48663446D01*
X150810180Y-48698005D01*
X150821555Y-48735501D01*
X150826000Y-48780638D01*
X150826000Y-49419362D01*
X150821555Y-49464499D01*
X150810180Y-49501995D01*
X150791708Y-49536554D01*
X150766847Y-49566847D01*
X150736554Y-49591708D01*
X150701995Y-49610180D01*
X150664499Y-49621555D01*
X150619362Y-49626000D01*
X149880638Y-49626000D01*
X149835501Y-49621555D01*
X149798005Y-49610180D01*
X149763446Y-49591708D01*
X149733153Y-49566847D01*
X149708292Y-49536554D01*
X149689820Y-49501995D01*
X149678445Y-49464499D01*
X149674000Y-49419362D01*
X149674000Y-48780638D01*
X149678445Y-48735501D01*
X149689820Y-48698005D01*
X149708292Y-48663446D01*
X149733153Y-48633153D01*
X149763446Y-48608292D01*
X149798005Y-48589820D01*
X149835501Y-48578445D01*
X149880638Y-48574000D01*
X150619362Y-48574000D01*
X150664499Y-48578445D01*
G37*
G36*
X145234928Y-48021764D02*
G01*
X145256009Y-48028160D01*
X145275445Y-48038548D01*
X145292476Y-48052524D01*
X145306452Y-48069555D01*
X145316840Y-48088991D01*
X145323236Y-48110072D01*
X145326000Y-48138140D01*
X145326000Y-48601860D01*
X145323236Y-48629928D01*
X145316840Y-48651009D01*
X145306452Y-48670445D01*
X145292476Y-48687476D01*
X145275445Y-48701452D01*
X145256009Y-48711840D01*
X145234928Y-48718236D01*
X145206860Y-48721000D01*
X143393140Y-48721000D01*
X143365072Y-48718236D01*
X143343991Y-48711840D01*
X143324555Y-48701452D01*
X143307524Y-48687476D01*
X143293548Y-48670445D01*
X143283160Y-48651009D01*
X143276764Y-48629928D01*
X143274000Y-48601860D01*
X143274000Y-48138140D01*
X143276764Y-48110072D01*
X143283160Y-48088991D01*
X143293548Y-48069555D01*
X143307524Y-48052524D01*
X143324555Y-48038548D01*
X143343991Y-48028160D01*
X143365072Y-48021764D01*
X143393140Y-48019000D01*
X145206860Y-48019000D01*
X145234928Y-48021764D01*
G37*
G36*
X140284928Y-48021764D02*
G01*
X140306009Y-48028160D01*
X140325445Y-48038548D01*
X140342476Y-48052524D01*
X140356452Y-48069555D01*
X140366840Y-48088991D01*
X140373236Y-48110072D01*
X140376000Y-48138140D01*
X140376000Y-48601860D01*
X140373236Y-48629928D01*
X140366840Y-48651009D01*
X140356452Y-48670445D01*
X140342476Y-48687476D01*
X140325445Y-48701452D01*
X140306009Y-48711840D01*
X140284928Y-48718236D01*
X140256860Y-48721000D01*
X138443140Y-48721000D01*
X138415072Y-48718236D01*
X138393991Y-48711840D01*
X138374555Y-48701452D01*
X138357524Y-48687476D01*
X138343548Y-48670445D01*
X138333160Y-48651009D01*
X138326764Y-48629928D01*
X138324000Y-48601860D01*
X138324000Y-48138140D01*
X138326764Y-48110072D01*
X138333160Y-48088991D01*
X138343548Y-48069555D01*
X138357524Y-48052524D01*
X138374555Y-48038548D01*
X138393991Y-48028160D01*
X138415072Y-48021764D01*
X138443140Y-48019000D01*
X140256860Y-48019000D01*
X140284928Y-48021764D01*
G37*
G36*
X149114499Y-46578445D02*
G01*
X149151995Y-46589820D01*
X149186554Y-46608292D01*
X149216847Y-46633153D01*
X149241708Y-46663446D01*
X149260180Y-46698005D01*
X149271555Y-46735501D01*
X149276000Y-46780638D01*
X149276000Y-47419362D01*
X149271555Y-47464499D01*
X149260180Y-47501995D01*
X149241708Y-47536554D01*
X149216847Y-47566847D01*
X149186554Y-47591708D01*
X149151995Y-47610180D01*
X149114499Y-47621555D01*
X149069362Y-47626000D01*
X148330638Y-47626000D01*
X148285501Y-47621555D01*
X148248005Y-47610180D01*
X148213446Y-47591708D01*
X148183153Y-47566847D01*
X148158292Y-47536554D01*
X148139820Y-47501995D01*
X148128445Y-47464499D01*
X148124000Y-47419362D01*
X148124000Y-46780638D01*
X148128445Y-46735501D01*
X148139820Y-46698005D01*
X148158292Y-46663446D01*
X148183153Y-46633153D01*
X148213446Y-46608292D01*
X148248005Y-46589820D01*
X148285501Y-46578445D01*
X148330638Y-46574000D01*
X149069362Y-46574000D01*
X149114499Y-46578445D01*
G37*
G36*
X147364499Y-46578445D02*
G01*
X147401995Y-46589820D01*
X147436554Y-46608292D01*
X147466847Y-46633153D01*
X147491708Y-46663446D01*
X147510180Y-46698005D01*
X147521555Y-46735501D01*
X147526000Y-46780638D01*
X147526000Y-47419362D01*
X147521555Y-47464499D01*
X147510180Y-47501995D01*
X147491708Y-47536554D01*
X147466847Y-47566847D01*
X147436554Y-47591708D01*
X147401995Y-47610180D01*
X147364499Y-47621555D01*
X147319362Y-47626000D01*
X146580638Y-47626000D01*
X146535501Y-47621555D01*
X146498005Y-47610180D01*
X146463446Y-47591708D01*
X146433153Y-47566847D01*
X146408292Y-47536554D01*
X146389820Y-47501995D01*
X146378445Y-47464499D01*
X146374000Y-47419362D01*
X146374000Y-46780638D01*
X146378445Y-46735501D01*
X146389820Y-46698005D01*
X146408292Y-46663446D01*
X146433153Y-46633153D01*
X146463446Y-46608292D01*
X146498005Y-46589820D01*
X146535501Y-46578445D01*
X146580638Y-46574000D01*
X147319362Y-46574000D01*
X147364499Y-46578445D01*
G37*
G36*
X136914499Y-46578445D02*
G01*
X136951995Y-46589820D01*
X136986554Y-46608292D01*
X137016847Y-46633153D01*
X137041708Y-46663446D01*
X137060180Y-46698005D01*
X137071555Y-46735501D01*
X137076000Y-46780638D01*
X137076000Y-47419362D01*
X137071555Y-47464499D01*
X137060180Y-47501995D01*
X137041708Y-47536554D01*
X137016847Y-47566847D01*
X136986554Y-47591708D01*
X136951995Y-47610180D01*
X136914499Y-47621555D01*
X136869362Y-47626000D01*
X136130638Y-47626000D01*
X136085501Y-47621555D01*
X136048005Y-47610180D01*
X136013446Y-47591708D01*
X135983153Y-47566847D01*
X135958292Y-47536554D01*
X135939820Y-47501995D01*
X135928445Y-47464499D01*
X135924000Y-47419362D01*
X135924000Y-46780638D01*
X135928445Y-46735501D01*
X135939820Y-46698005D01*
X135958292Y-46663446D01*
X135983153Y-46633153D01*
X136013446Y-46608292D01*
X136048005Y-46589820D01*
X136085501Y-46578445D01*
X136130638Y-46574000D01*
X136869362Y-46574000D01*
X136914499Y-46578445D01*
G37*
G36*
X135164499Y-46578445D02*
G01*
X135201995Y-46589820D01*
X135236554Y-46608292D01*
X135266847Y-46633153D01*
X135291708Y-46663446D01*
X135310180Y-46698005D01*
X135321555Y-46735501D01*
X135326000Y-46780638D01*
X135326000Y-47419362D01*
X135321555Y-47464499D01*
X135310180Y-47501995D01*
X135291708Y-47536554D01*
X135266847Y-47566847D01*
X135236554Y-47591708D01*
X135201995Y-47610180D01*
X135164499Y-47621555D01*
X135119362Y-47626000D01*
X134380638Y-47626000D01*
X134335501Y-47621555D01*
X134298005Y-47610180D01*
X134263446Y-47591708D01*
X134233153Y-47566847D01*
X134208292Y-47536554D01*
X134189820Y-47501995D01*
X134178445Y-47464499D01*
X134174000Y-47419362D01*
X134174000Y-46780638D01*
X134178445Y-46735501D01*
X134189820Y-46698005D01*
X134208292Y-46663446D01*
X134233153Y-46633153D01*
X134263446Y-46608292D01*
X134298005Y-46589820D01*
X134335501Y-46578445D01*
X134380638Y-46574000D01*
X135119362Y-46574000D01*
X135164499Y-46578445D01*
G37*
G36*
X145234928Y-46751764D02*
G01*
X145256009Y-46758160D01*
X145275445Y-46768548D01*
X145292476Y-46782524D01*
X145306452Y-46799555D01*
X145316840Y-46818991D01*
X145323236Y-46840072D01*
X145326000Y-46868140D01*
X145326000Y-47331860D01*
X145323236Y-47359928D01*
X145316840Y-47381009D01*
X145306452Y-47400445D01*
X145292476Y-47417476D01*
X145275445Y-47431452D01*
X145256009Y-47441840D01*
X145234928Y-47448236D01*
X145206860Y-47451000D01*
X143393140Y-47451000D01*
X143365072Y-47448236D01*
X143343991Y-47441840D01*
X143324555Y-47431452D01*
X143307524Y-47417476D01*
X143293548Y-47400445D01*
X143283160Y-47381009D01*
X143276764Y-47359928D01*
X143274000Y-47331860D01*
X143274000Y-46868140D01*
X143276764Y-46840072D01*
X143283160Y-46818991D01*
X143293548Y-46799555D01*
X143307524Y-46782524D01*
X143324555Y-46768548D01*
X143343991Y-46758160D01*
X143365072Y-46751764D01*
X143393140Y-46749000D01*
X145206860Y-46749000D01*
X145234928Y-46751764D01*
G37*
G36*
X140284928Y-46751764D02*
G01*
X140306009Y-46758160D01*
X140325445Y-46768548D01*
X140342476Y-46782524D01*
X140356452Y-46799555D01*
X140366840Y-46818991D01*
X140373236Y-46840072D01*
X140376000Y-46868140D01*
X140376000Y-47331860D01*
X140373236Y-47359928D01*
X140366840Y-47381009D01*
X140356452Y-47400445D01*
X140342476Y-47417476D01*
X140325445Y-47431452D01*
X140306009Y-47441840D01*
X140284928Y-47448236D01*
X140256860Y-47451000D01*
X138443140Y-47451000D01*
X138415072Y-47448236D01*
X138393991Y-47441840D01*
X138374555Y-47431452D01*
X138357524Y-47417476D01*
X138343548Y-47400445D01*
X138333160Y-47381009D01*
X138326764Y-47359928D01*
X138324000Y-47331860D01*
X138324000Y-46868140D01*
X138326764Y-46840072D01*
X138333160Y-46818991D01*
X138343548Y-46799555D01*
X138357524Y-46782524D01*
X138374555Y-46768548D01*
X138393991Y-46758160D01*
X138415072Y-46751764D01*
X138443140Y-46749000D01*
X140256860Y-46749000D01*
X140284928Y-46751764D01*
G37*
G36*
X128001000Y-47201000D02*
G01*
X126199000Y-47201000D01*
X126199000Y-45399000D01*
X128001000Y-45399000D01*
X128001000Y-47201000D01*
G37*
G36*
X145234928Y-45481764D02*
G01*
X145256009Y-45488160D01*
X145275445Y-45498548D01*
X145292476Y-45512524D01*
X145306452Y-45529555D01*
X145316840Y-45548991D01*
X145323236Y-45570072D01*
X145326000Y-45598140D01*
X145326000Y-46061860D01*
X145323236Y-46089928D01*
X145316840Y-46111009D01*
X145306452Y-46130445D01*
X145292476Y-46147476D01*
X145275445Y-46161452D01*
X145256009Y-46171840D01*
X145234928Y-46178236D01*
X145206860Y-46181000D01*
X143393140Y-46181000D01*
X143365072Y-46178236D01*
X143343991Y-46171840D01*
X143324555Y-46161452D01*
X143307524Y-46147476D01*
X143293548Y-46130445D01*
X143283160Y-46111009D01*
X143276764Y-46089928D01*
X143274000Y-46061860D01*
X143274000Y-45598140D01*
X143276764Y-45570072D01*
X143283160Y-45548991D01*
X143293548Y-45529555D01*
X143307524Y-45512524D01*
X143324555Y-45498548D01*
X143343991Y-45488160D01*
X143365072Y-45481764D01*
X143393140Y-45479000D01*
X145206860Y-45479000D01*
X145234928Y-45481764D01*
G37*
G36*
X140284928Y-45481764D02*
G01*
X140306009Y-45488160D01*
X140325445Y-45498548D01*
X140342476Y-45512524D01*
X140356452Y-45529555D01*
X140366840Y-45548991D01*
X140373236Y-45570072D01*
X140376000Y-45598140D01*
X140376000Y-46061860D01*
X140373236Y-46089928D01*
X140366840Y-46111009D01*
X140356452Y-46130445D01*
X140342476Y-46147476D01*
X140325445Y-46161452D01*
X140306009Y-46171840D01*
X140284928Y-46178236D01*
X140256860Y-46181000D01*
X138443140Y-46181000D01*
X138415072Y-46178236D01*
X138393991Y-46171840D01*
X138374555Y-46161452D01*
X138357524Y-46147476D01*
X138343548Y-46130445D01*
X138333160Y-46111009D01*
X138326764Y-46089928D01*
X138324000Y-46061860D01*
X138324000Y-45598140D01*
X138326764Y-45570072D01*
X138333160Y-45548991D01*
X138343548Y-45529555D01*
X138357524Y-45512524D01*
X138374555Y-45498548D01*
X138393991Y-45488160D01*
X138415072Y-45481764D01*
X138443140Y-45479000D01*
X140256860Y-45479000D01*
X140284928Y-45481764D01*
G37*
G36*
X149114499Y-44678445D02*
G01*
X149151995Y-44689820D01*
X149186554Y-44708292D01*
X149216847Y-44733153D01*
X149241708Y-44763446D01*
X149260180Y-44798005D01*
X149271555Y-44835501D01*
X149276000Y-44880638D01*
X149276000Y-45519362D01*
X149271555Y-45564499D01*
X149260180Y-45601995D01*
X149241708Y-45636554D01*
X149216847Y-45666847D01*
X149186554Y-45691708D01*
X149151995Y-45710180D01*
X149114499Y-45721555D01*
X149069362Y-45726000D01*
X148330638Y-45726000D01*
X148285501Y-45721555D01*
X148248005Y-45710180D01*
X148213446Y-45691708D01*
X148183153Y-45666847D01*
X148158292Y-45636554D01*
X148139820Y-45601995D01*
X148128445Y-45564499D01*
X148124000Y-45519362D01*
X148124000Y-44880638D01*
X148128445Y-44835501D01*
X148139820Y-44798005D01*
X148158292Y-44763446D01*
X148183153Y-44733153D01*
X148213446Y-44708292D01*
X148248005Y-44689820D01*
X148285501Y-44678445D01*
X148330638Y-44674000D01*
X149069362Y-44674000D01*
X149114499Y-44678445D01*
G37*
G36*
X147364499Y-44678445D02*
G01*
X147401995Y-44689820D01*
X147436554Y-44708292D01*
X147466847Y-44733153D01*
X147491708Y-44763446D01*
X147510180Y-44798005D01*
X147521555Y-44835501D01*
X147526000Y-44880638D01*
X147526000Y-45519362D01*
X147521555Y-45564499D01*
X147510180Y-45601995D01*
X147491708Y-45636554D01*
X147466847Y-45666847D01*
X147436554Y-45691708D01*
X147401995Y-45710180D01*
X147364499Y-45721555D01*
X147319362Y-45726000D01*
X146580638Y-45726000D01*
X146535501Y-45721555D01*
X146498005Y-45710180D01*
X146463446Y-45691708D01*
X146433153Y-45666847D01*
X146408292Y-45636554D01*
X146389820Y-45601995D01*
X146378445Y-45564499D01*
X146374000Y-45519362D01*
X146374000Y-44880638D01*
X146378445Y-44835501D01*
X146389820Y-44798005D01*
X146408292Y-44763446D01*
X146433153Y-44733153D01*
X146463446Y-44708292D01*
X146498005Y-44689820D01*
X146535501Y-44678445D01*
X146580638Y-44674000D01*
X147319362Y-44674000D01*
X147364499Y-44678445D01*
G37*
G36*
X137089499Y-44078445D02*
G01*
X137126995Y-44089820D01*
X137161554Y-44108292D01*
X137191847Y-44133153D01*
X137216708Y-44163446D01*
X137235180Y-44198005D01*
X137246555Y-44235501D01*
X137251000Y-44280638D01*
X137251000Y-44919362D01*
X137246555Y-44964499D01*
X137235180Y-45001995D01*
X137216708Y-45036554D01*
X137191847Y-45066847D01*
X137161554Y-45091708D01*
X137126995Y-45110180D01*
X137089499Y-45121555D01*
X137044362Y-45126000D01*
X136305638Y-45126000D01*
X136260501Y-45121555D01*
X136223005Y-45110180D01*
X136188446Y-45091708D01*
X136158153Y-45066847D01*
X136133292Y-45036554D01*
X136114820Y-45001995D01*
X136103445Y-44964499D01*
X136099000Y-44919362D01*
X136099000Y-44280638D01*
X136103445Y-44235501D01*
X136114820Y-44198005D01*
X136133292Y-44163446D01*
X136158153Y-44133153D01*
X136188446Y-44108292D01*
X136223005Y-44089820D01*
X136260501Y-44078445D01*
X136305638Y-44074000D01*
X137044362Y-44074000D01*
X137089499Y-44078445D01*
G37*
G36*
X135339499Y-44078445D02*
G01*
X135376995Y-44089820D01*
X135411554Y-44108292D01*
X135441847Y-44133153D01*
X135466708Y-44163446D01*
X135485180Y-44198005D01*
X135496555Y-44235501D01*
X135501000Y-44280638D01*
X135501000Y-44919362D01*
X135496555Y-44964499D01*
X135485180Y-45001995D01*
X135466708Y-45036554D01*
X135441847Y-45066847D01*
X135411554Y-45091708D01*
X135376995Y-45110180D01*
X135339499Y-45121555D01*
X135294362Y-45126000D01*
X134555638Y-45126000D01*
X134510501Y-45121555D01*
X134473005Y-45110180D01*
X134438446Y-45091708D01*
X134408153Y-45066847D01*
X134383292Y-45036554D01*
X134364820Y-45001995D01*
X134353445Y-44964499D01*
X134349000Y-44919362D01*
X134349000Y-44280638D01*
X134353445Y-44235501D01*
X134364820Y-44198005D01*
X134383292Y-44163446D01*
X134408153Y-44133153D01*
X134438446Y-44108292D01*
X134473005Y-44089820D01*
X134510501Y-44078445D01*
X134555638Y-44074000D01*
X135294362Y-44074000D01*
X135339499Y-44078445D01*
G37*
G36*
X145234928Y-44211764D02*
G01*
X145256009Y-44218160D01*
X145275445Y-44228548D01*
X145292476Y-44242524D01*
X145306452Y-44259555D01*
X145316840Y-44278991D01*
X145323236Y-44300072D01*
X145326000Y-44328140D01*
X145326000Y-44791860D01*
X145323236Y-44819928D01*
X145316840Y-44841009D01*
X145306452Y-44860445D01*
X145292476Y-44877476D01*
X145275445Y-44891452D01*
X145256009Y-44901840D01*
X145234928Y-44908236D01*
X145206860Y-44911000D01*
X143393140Y-44911000D01*
X143365072Y-44908236D01*
X143343991Y-44901840D01*
X143324555Y-44891452D01*
X143307524Y-44877476D01*
X143293548Y-44860445D01*
X143283160Y-44841009D01*
X143276764Y-44819928D01*
X143274000Y-44791860D01*
X143274000Y-44328140D01*
X143276764Y-44300072D01*
X143283160Y-44278991D01*
X143293548Y-44259555D01*
X143307524Y-44242524D01*
X143324555Y-44228548D01*
X143343991Y-44218160D01*
X143365072Y-44211764D01*
X143393140Y-44209000D01*
X145206860Y-44209000D01*
X145234928Y-44211764D01*
G37*
G36*
X140284928Y-44211764D02*
G01*
X140306009Y-44218160D01*
X140325445Y-44228548D01*
X140342476Y-44242524D01*
X140356452Y-44259555D01*
X140366840Y-44278991D01*
X140373236Y-44300072D01*
X140376000Y-44328140D01*
X140376000Y-44791860D01*
X140373236Y-44819928D01*
X140366840Y-44841009D01*
X140356452Y-44860445D01*
X140342476Y-44877476D01*
X140325445Y-44891452D01*
X140306009Y-44901840D01*
X140284928Y-44908236D01*
X140256860Y-44911000D01*
X138443140Y-44911000D01*
X138415072Y-44908236D01*
X138393991Y-44901840D01*
X138374555Y-44891452D01*
X138357524Y-44877476D01*
X138343548Y-44860445D01*
X138333160Y-44841009D01*
X138326764Y-44819928D01*
X138324000Y-44791860D01*
X138324000Y-44328140D01*
X138326764Y-44300072D01*
X138333160Y-44278991D01*
X138343548Y-44259555D01*
X138357524Y-44242524D01*
X138374555Y-44228548D01*
X138393991Y-44218160D01*
X138415072Y-44211764D01*
X138443140Y-44209000D01*
X140256860Y-44209000D01*
X140284928Y-44211764D01*
G37*
G36*
X137064499Y-42278445D02*
G01*
X137101995Y-42289820D01*
X137136554Y-42308292D01*
X137166847Y-42333153D01*
X137191708Y-42363446D01*
X137210180Y-42398005D01*
X137221555Y-42435501D01*
X137226000Y-42480638D01*
X137226000Y-43119362D01*
X137221555Y-43164499D01*
X137210180Y-43201995D01*
X137191708Y-43236554D01*
X137166847Y-43266847D01*
X137136554Y-43291708D01*
X137101995Y-43310180D01*
X137064499Y-43321555D01*
X137019362Y-43326000D01*
X136280638Y-43326000D01*
X136235501Y-43321555D01*
X136198005Y-43310180D01*
X136163446Y-43291708D01*
X136133153Y-43266847D01*
X136108292Y-43236554D01*
X136089820Y-43201995D01*
X136078445Y-43164499D01*
X136074000Y-43119362D01*
X136074000Y-42480638D01*
X136078445Y-42435501D01*
X136089820Y-42398005D01*
X136108292Y-42363446D01*
X136133153Y-42333153D01*
X136163446Y-42308292D01*
X136198005Y-42289820D01*
X136235501Y-42278445D01*
X136280638Y-42274000D01*
X137019362Y-42274000D01*
X137064499Y-42278445D01*
G37*
G36*
X135314499Y-42278445D02*
G01*
X135351995Y-42289820D01*
X135386554Y-42308292D01*
X135416847Y-42333153D01*
X135441708Y-42363446D01*
X135460180Y-42398005D01*
X135471555Y-42435501D01*
X135476000Y-42480638D01*
X135476000Y-43119362D01*
X135471555Y-43164499D01*
X135460180Y-43201995D01*
X135441708Y-43236554D01*
X135416847Y-43266847D01*
X135386554Y-43291708D01*
X135351995Y-43310180D01*
X135314499Y-43321555D01*
X135269362Y-43326000D01*
X134530638Y-43326000D01*
X134485501Y-43321555D01*
X134448005Y-43310180D01*
X134413446Y-43291708D01*
X134383153Y-43266847D01*
X134358292Y-43236554D01*
X134339820Y-43201995D01*
X134328445Y-43164499D01*
X134324000Y-43119362D01*
X134324000Y-42480638D01*
X134328445Y-42435501D01*
X134339820Y-42398005D01*
X134358292Y-42363446D01*
X134383153Y-42333153D01*
X134413446Y-42308292D01*
X134448005Y-42289820D01*
X134485501Y-42278445D01*
X134530638Y-42274000D01*
X135269362Y-42274000D01*
X135314499Y-42278445D01*
G37*
G36*
X146814499Y-42078445D02*
G01*
X146851995Y-42089820D01*
X146886554Y-42108292D01*
X146916847Y-42133153D01*
X146941708Y-42163446D01*
X146960180Y-42198005D01*
X146971555Y-42235501D01*
X146976000Y-42280638D01*
X146976000Y-42919362D01*
X146971555Y-42964499D01*
X146960180Y-43001995D01*
X146941708Y-43036554D01*
X146916847Y-43066847D01*
X146886554Y-43091708D01*
X146851995Y-43110180D01*
X146814499Y-43121555D01*
X146769362Y-43126000D01*
X146030638Y-43126000D01*
X145985501Y-43121555D01*
X145948005Y-43110180D01*
X145913446Y-43091708D01*
X145883153Y-43066847D01*
X145858292Y-43036554D01*
X145839820Y-43001995D01*
X145828445Y-42964499D01*
X145824000Y-42919362D01*
X145824000Y-42280638D01*
X145828445Y-42235501D01*
X145839820Y-42198005D01*
X145858292Y-42163446D01*
X145883153Y-42133153D01*
X145913446Y-42108292D01*
X145948005Y-42089820D01*
X145985501Y-42078445D01*
X146030638Y-42074000D01*
X146769362Y-42074000D01*
X146814499Y-42078445D01*
G37*
G36*
X145064499Y-42078445D02*
G01*
X145101995Y-42089820D01*
X145136554Y-42108292D01*
X145166847Y-42133153D01*
X145191708Y-42163446D01*
X145210180Y-42198005D01*
X145221555Y-42235501D01*
X145226000Y-42280638D01*
X145226000Y-42919362D01*
X145221555Y-42964499D01*
X145210180Y-43001995D01*
X145191708Y-43036554D01*
X145166847Y-43066847D01*
X145136554Y-43091708D01*
X145101995Y-43110180D01*
X145064499Y-43121555D01*
X145019362Y-43126000D01*
X144280638Y-43126000D01*
X144235501Y-43121555D01*
X144198005Y-43110180D01*
X144163446Y-43091708D01*
X144133153Y-43066847D01*
X144108292Y-43036554D01*
X144089820Y-43001995D01*
X144078445Y-42964499D01*
X144074000Y-42919362D01*
X144074000Y-42280638D01*
X144078445Y-42235501D01*
X144089820Y-42198005D01*
X144108292Y-42163446D01*
X144133153Y-42133153D01*
X144163446Y-42108292D01*
X144198005Y-42089820D01*
X144235501Y-42078445D01*
X144280638Y-42074000D01*
X145019362Y-42074000D01*
X145064499Y-42078445D01*
G37*
M02*
