G04 #@! TF.GenerationSoftware,KiCad,Pcbnew,(5.1.5-0)*
G04 #@! TF.CreationDate,2022-02-10T11:07:37-07:00*
G04 #@! TF.ProjectId,TPS61165-heater-v4,54505336-3131-4363-952d-686561746572,rev?*
G04 #@! TF.SameCoordinates,Original*
G04 #@! TF.FileFunction,Legend,Top*
G04 #@! TF.FilePolarity,Positive*
%FSLAX46Y46*%
G04 Gerber Fmt 4.6, Leading zero omitted, Abs format (unit mm)*
G04 Created by KiCad (PCBNEW (5.1.5-0)) date 2022-02-10 11:07:37*
%MOMM*%
%LPD*%
G04 APERTURE LIST*
%ADD10C,0.120000*%
%ADD11C,0.150000*%
%ADD12C,0.254000*%
%ADD13C,0.152000*%
%ADD14R,1.102000X0.802000*%
%ADD15R,1.702000X1.902000*%
%ADD16C,0.100000*%
%ADD17O,1.802000X1.802000*%
%ADD18R,1.802000X1.802000*%
%ADD19R,1.662000X0.752000*%
%ADD20R,1.302000X1.002000*%
%ADD21R,1.902000X1.702000*%
%ADD22R,5.402000X2.102000*%
%ADD23R,1.602000X1.102000*%
%ADD24R,1.102000X1.702000*%
%ADD25O,1.852000X1.302000*%
%ADD26O,1.902000X1.202000*%
%ADD27R,1.602000X0.902000*%
%ADD28R,1.602000X0.862000*%
%ADD29R,1.602000X0.802000*%
%ADD30R,1.002000X1.302000*%
G04 APERTURE END LIST*
D10*
X149641421Y-84100000D02*
G75*
G03X149641421Y-84100000I-141421J0D01*
G01*
D11*
X121042857Y-46604761D02*
X120947619Y-46652380D01*
X120757142Y-46652380D01*
X120661904Y-46604761D01*
X120614285Y-46509523D01*
X120614285Y-46128571D01*
X120661904Y-46033333D01*
X120757142Y-45985714D01*
X120947619Y-45985714D01*
X121042857Y-46033333D01*
X121090476Y-46128571D01*
X121090476Y-46223809D01*
X120614285Y-46319047D01*
X121519047Y-45985714D02*
X121519047Y-46652380D01*
X121519047Y-46080952D02*
X121566666Y-46033333D01*
X121661904Y-45985714D01*
X121804761Y-45985714D01*
X121900000Y-46033333D01*
X121947619Y-46128571D01*
X121947619Y-46652380D01*
X122852380Y-46652380D02*
X122852380Y-46128571D01*
X122804761Y-46033333D01*
X122709523Y-45985714D01*
X122519047Y-45985714D01*
X122423809Y-46033333D01*
X122852380Y-46604761D02*
X122757142Y-46652380D01*
X122519047Y-46652380D01*
X122423809Y-46604761D01*
X122376190Y-46509523D01*
X122376190Y-46414285D01*
X122423809Y-46319047D01*
X122519047Y-46271428D01*
X122757142Y-46271428D01*
X122852380Y-46223809D01*
X123328571Y-46652380D02*
X123328571Y-45652380D01*
X123328571Y-46033333D02*
X123423809Y-45985714D01*
X123614285Y-45985714D01*
X123709523Y-46033333D01*
X123757142Y-46080952D01*
X123804761Y-46176190D01*
X123804761Y-46461904D01*
X123757142Y-46557142D01*
X123709523Y-46604761D01*
X123614285Y-46652380D01*
X123423809Y-46652380D01*
X123328571Y-46604761D01*
X124376190Y-46652380D02*
X124280952Y-46604761D01*
X124233333Y-46509523D01*
X124233333Y-45652380D01*
X125138095Y-46604761D02*
X125042857Y-46652380D01*
X124852380Y-46652380D01*
X124757142Y-46604761D01*
X124709523Y-46509523D01*
X124709523Y-46128571D01*
X124757142Y-46033333D01*
X124852380Y-45985714D01*
X125042857Y-45985714D01*
X125138095Y-46033333D01*
X125185714Y-46128571D01*
X125185714Y-46223809D01*
X124709523Y-46319047D01*
X122709523Y-53685714D02*
X122709523Y-54495238D01*
X122661904Y-54590476D01*
X122614285Y-54638095D01*
X122519047Y-54685714D01*
X122376190Y-54685714D01*
X122280952Y-54638095D01*
X122709523Y-54304761D02*
X122614285Y-54352380D01*
X122423809Y-54352380D01*
X122328571Y-54304761D01*
X122280952Y-54257142D01*
X122233333Y-54161904D01*
X122233333Y-53876190D01*
X122280952Y-53780952D01*
X122328571Y-53733333D01*
X122423809Y-53685714D01*
X122614285Y-53685714D01*
X122709523Y-53733333D01*
X123185714Y-53685714D02*
X123185714Y-54352380D01*
X123185714Y-53780952D02*
X123233333Y-53733333D01*
X123328571Y-53685714D01*
X123471428Y-53685714D01*
X123566666Y-53733333D01*
X123614285Y-53828571D01*
X123614285Y-54352380D01*
X124519047Y-54352380D02*
X124519047Y-53352380D01*
X124519047Y-54304761D02*
X124423809Y-54352380D01*
X124233333Y-54352380D01*
X124138095Y-54304761D01*
X124090476Y-54257142D01*
X124042857Y-54161904D01*
X124042857Y-53876190D01*
X124090476Y-53780952D01*
X124138095Y-53733333D01*
X124233333Y-53685714D01*
X124423809Y-53685714D01*
X124519047Y-53733333D01*
X121980952Y-49204761D02*
X121885714Y-49252380D01*
X121695238Y-49252380D01*
X121600000Y-49204761D01*
X121552380Y-49157142D01*
X121504761Y-49061904D01*
X121504761Y-48776190D01*
X121552380Y-48680952D01*
X121600000Y-48633333D01*
X121695238Y-48585714D01*
X121885714Y-48585714D01*
X121980952Y-48633333D01*
X122552380Y-49252380D02*
X122457142Y-49204761D01*
X122409523Y-49157142D01*
X122361904Y-49061904D01*
X122361904Y-48776190D01*
X122409523Y-48680952D01*
X122457142Y-48633333D01*
X122552380Y-48585714D01*
X122695238Y-48585714D01*
X122790476Y-48633333D01*
X122838095Y-48680952D01*
X122885714Y-48776190D01*
X122885714Y-49061904D01*
X122838095Y-49157142D01*
X122790476Y-49204761D01*
X122695238Y-49252380D01*
X122552380Y-49252380D01*
X123314285Y-48585714D02*
X123314285Y-49252380D01*
X123314285Y-48680952D02*
X123361904Y-48633333D01*
X123457142Y-48585714D01*
X123600000Y-48585714D01*
X123695238Y-48633333D01*
X123742857Y-48728571D01*
X123742857Y-49252380D01*
X124219047Y-48585714D02*
X124219047Y-49252380D01*
X124219047Y-48680952D02*
X124266666Y-48633333D01*
X124361904Y-48585714D01*
X124504761Y-48585714D01*
X124600000Y-48633333D01*
X124647619Y-48728571D01*
X124647619Y-49252380D01*
X122880952Y-51804761D02*
X122785714Y-51852380D01*
X122595238Y-51852380D01*
X122500000Y-51804761D01*
X122452380Y-51757142D01*
X122404761Y-51661904D01*
X122404761Y-51376190D01*
X122452380Y-51280952D01*
X122500000Y-51233333D01*
X122595238Y-51185714D01*
X122785714Y-51185714D01*
X122880952Y-51233333D01*
X123166666Y-51185714D02*
X123547619Y-51185714D01*
X123309523Y-50852380D02*
X123309523Y-51709523D01*
X123357142Y-51804761D01*
X123452380Y-51852380D01*
X123547619Y-51852380D01*
X123880952Y-51852380D02*
X123880952Y-51185714D01*
X123880952Y-51376190D02*
X123928571Y-51280952D01*
X123976190Y-51233333D01*
X124071428Y-51185714D01*
X124166666Y-51185714D01*
X124642857Y-51852380D02*
X124547619Y-51804761D01*
X124500000Y-51709523D01*
X124500000Y-50852380D01*
X117533333Y-60935714D02*
X117533333Y-61935714D01*
X117533333Y-60983333D02*
X117628571Y-60935714D01*
X117819047Y-60935714D01*
X117914285Y-60983333D01*
X117961904Y-61030952D01*
X118009523Y-61126190D01*
X118009523Y-61411904D01*
X117961904Y-61507142D01*
X117914285Y-61554761D01*
X117819047Y-61602380D01*
X117628571Y-61602380D01*
X117533333Y-61554761D01*
X118580952Y-61602380D02*
X118485714Y-61554761D01*
X118438095Y-61507142D01*
X118390476Y-61411904D01*
X118390476Y-61126190D01*
X118438095Y-61030952D01*
X118485714Y-60983333D01*
X118580952Y-60935714D01*
X118723809Y-60935714D01*
X118819047Y-60983333D01*
X118866666Y-61030952D01*
X118914285Y-61126190D01*
X118914285Y-61411904D01*
X118866666Y-61507142D01*
X118819047Y-61554761D01*
X118723809Y-61602380D01*
X118580952Y-61602380D01*
X119247619Y-60935714D02*
X119438095Y-61602380D01*
X119628571Y-61126190D01*
X119819047Y-61602380D01*
X120009523Y-60935714D01*
X120771428Y-61554761D02*
X120676190Y-61602380D01*
X120485714Y-61602380D01*
X120390476Y-61554761D01*
X120342857Y-61459523D01*
X120342857Y-61078571D01*
X120390476Y-60983333D01*
X120485714Y-60935714D01*
X120676190Y-60935714D01*
X120771428Y-60983333D01*
X120819047Y-61078571D01*
X120819047Y-61173809D01*
X120342857Y-61269047D01*
X121247619Y-61602380D02*
X121247619Y-60935714D01*
X121247619Y-61126190D02*
X121295238Y-61030952D01*
X121342857Y-60983333D01*
X121438095Y-60935714D01*
X121533333Y-60935714D01*
X122628571Y-61602380D02*
X122628571Y-60602380D01*
X123057142Y-61602380D02*
X123057142Y-61078571D01*
X123009523Y-60983333D01*
X122914285Y-60935714D01*
X122771428Y-60935714D01*
X122676190Y-60983333D01*
X122628571Y-61030952D01*
X123914285Y-61554761D02*
X123819047Y-61602380D01*
X123628571Y-61602380D01*
X123533333Y-61554761D01*
X123485714Y-61459523D01*
X123485714Y-61078571D01*
X123533333Y-60983333D01*
X123628571Y-60935714D01*
X123819047Y-60935714D01*
X123914285Y-60983333D01*
X123961904Y-61078571D01*
X123961904Y-61173809D01*
X123485714Y-61269047D01*
X124819047Y-61602380D02*
X124819047Y-61078571D01*
X124771428Y-60983333D01*
X124676190Y-60935714D01*
X124485714Y-60935714D01*
X124390476Y-60983333D01*
X124819047Y-61554761D02*
X124723809Y-61602380D01*
X124485714Y-61602380D01*
X124390476Y-61554761D01*
X124342857Y-61459523D01*
X124342857Y-61364285D01*
X124390476Y-61269047D01*
X124485714Y-61221428D01*
X124723809Y-61221428D01*
X124819047Y-61173809D01*
X125152380Y-60935714D02*
X125533333Y-60935714D01*
X125295238Y-60602380D02*
X125295238Y-61459523D01*
X125342857Y-61554761D01*
X125438095Y-61602380D01*
X125533333Y-61602380D01*
X126247619Y-61554761D02*
X126152380Y-61602380D01*
X125961904Y-61602380D01*
X125866666Y-61554761D01*
X125819047Y-61459523D01*
X125819047Y-61078571D01*
X125866666Y-60983333D01*
X125961904Y-60935714D01*
X126152380Y-60935714D01*
X126247619Y-60983333D01*
X126295238Y-61078571D01*
X126295238Y-61173809D01*
X125819047Y-61269047D01*
X126723809Y-61602380D02*
X126723809Y-60935714D01*
X126723809Y-61126190D02*
X126771428Y-61030952D01*
X126819047Y-60983333D01*
X126914285Y-60935714D01*
X127009523Y-60935714D01*
X118557142Y-62252380D02*
X119128571Y-62252380D01*
X118842857Y-63252380D02*
X118842857Y-62252380D01*
X119461904Y-63252380D02*
X119461904Y-62252380D01*
X119842857Y-62252380D01*
X119938095Y-62300000D01*
X119985714Y-62347619D01*
X120033333Y-62442857D01*
X120033333Y-62585714D01*
X119985714Y-62680952D01*
X119938095Y-62728571D01*
X119842857Y-62776190D01*
X119461904Y-62776190D01*
X120414285Y-63204761D02*
X120557142Y-63252380D01*
X120795238Y-63252380D01*
X120890476Y-63204761D01*
X120938095Y-63157142D01*
X120985714Y-63061904D01*
X120985714Y-62966666D01*
X120938095Y-62871428D01*
X120890476Y-62823809D01*
X120795238Y-62776190D01*
X120604761Y-62728571D01*
X120509523Y-62680952D01*
X120461904Y-62633333D01*
X120414285Y-62538095D01*
X120414285Y-62442857D01*
X120461904Y-62347619D01*
X120509523Y-62300000D01*
X120604761Y-62252380D01*
X120842857Y-62252380D01*
X120985714Y-62300000D01*
X121842857Y-62252380D02*
X121652380Y-62252380D01*
X121557142Y-62300000D01*
X121509523Y-62347619D01*
X121414285Y-62490476D01*
X121366666Y-62680952D01*
X121366666Y-63061904D01*
X121414285Y-63157142D01*
X121461904Y-63204761D01*
X121557142Y-63252380D01*
X121747619Y-63252380D01*
X121842857Y-63204761D01*
X121890476Y-63157142D01*
X121938095Y-63061904D01*
X121938095Y-62823809D01*
X121890476Y-62728571D01*
X121842857Y-62680952D01*
X121747619Y-62633333D01*
X121557142Y-62633333D01*
X121461904Y-62680952D01*
X121414285Y-62728571D01*
X121366666Y-62823809D01*
X122890476Y-63252380D02*
X122319047Y-63252380D01*
X122604761Y-63252380D02*
X122604761Y-62252380D01*
X122509523Y-62395238D01*
X122414285Y-62490476D01*
X122319047Y-62538095D01*
X123842857Y-63252380D02*
X123271428Y-63252380D01*
X123557142Y-63252380D02*
X123557142Y-62252380D01*
X123461904Y-62395238D01*
X123366666Y-62490476D01*
X123271428Y-62538095D01*
X124700000Y-62252380D02*
X124509523Y-62252380D01*
X124414285Y-62300000D01*
X124366666Y-62347619D01*
X124271428Y-62490476D01*
X124223809Y-62680952D01*
X124223809Y-63061904D01*
X124271428Y-63157142D01*
X124319047Y-63204761D01*
X124414285Y-63252380D01*
X124604761Y-63252380D01*
X124700000Y-63204761D01*
X124747619Y-63157142D01*
X124795238Y-63061904D01*
X124795238Y-62823809D01*
X124747619Y-62728571D01*
X124700000Y-62680952D01*
X124604761Y-62633333D01*
X124414285Y-62633333D01*
X124319047Y-62680952D01*
X124271428Y-62728571D01*
X124223809Y-62823809D01*
X125700000Y-62252380D02*
X125223809Y-62252380D01*
X125176190Y-62728571D01*
X125223809Y-62680952D01*
X125319047Y-62633333D01*
X125557142Y-62633333D01*
X125652380Y-62680952D01*
X125700000Y-62728571D01*
X125747619Y-62823809D01*
X125747619Y-63061904D01*
X125700000Y-63157142D01*
X125652380Y-63204761D01*
X125557142Y-63252380D01*
X125319047Y-63252380D01*
X125223809Y-63204761D01*
X125176190Y-63157142D01*
X119485714Y-63997619D02*
X119533333Y-63950000D01*
X119628571Y-63902380D01*
X119866666Y-63902380D01*
X119961904Y-63950000D01*
X120009523Y-63997619D01*
X120057142Y-64092857D01*
X120057142Y-64188095D01*
X120009523Y-64330952D01*
X119438095Y-64902380D01*
X120057142Y-64902380D01*
X121200000Y-63854761D02*
X120342857Y-65140476D01*
X121485714Y-63997619D02*
X121533333Y-63950000D01*
X121628571Y-63902380D01*
X121866666Y-63902380D01*
X121961904Y-63950000D01*
X122009523Y-63997619D01*
X122057142Y-64092857D01*
X122057142Y-64188095D01*
X122009523Y-64330952D01*
X121438095Y-64902380D01*
X122057142Y-64902380D01*
X122676190Y-63902380D02*
X122771428Y-63902380D01*
X122866666Y-63950000D01*
X122914285Y-63997619D01*
X122961904Y-64092857D01*
X123009523Y-64283333D01*
X123009523Y-64521428D01*
X122961904Y-64711904D01*
X122914285Y-64807142D01*
X122866666Y-64854761D01*
X122771428Y-64902380D01*
X122676190Y-64902380D01*
X122580952Y-64854761D01*
X122533333Y-64807142D01*
X122485714Y-64711904D01*
X122438095Y-64521428D01*
X122438095Y-64283333D01*
X122485714Y-64092857D01*
X122533333Y-63997619D01*
X122580952Y-63950000D01*
X122676190Y-63902380D01*
X123390476Y-63997619D02*
X123438095Y-63950000D01*
X123533333Y-63902380D01*
X123771428Y-63902380D01*
X123866666Y-63950000D01*
X123914285Y-63997619D01*
X123961904Y-64092857D01*
X123961904Y-64188095D01*
X123914285Y-64330952D01*
X123342857Y-64902380D01*
X123961904Y-64902380D01*
X124342857Y-63997619D02*
X124390476Y-63950000D01*
X124485714Y-63902380D01*
X124723809Y-63902380D01*
X124819047Y-63950000D01*
X124866666Y-63997619D01*
X124914285Y-64092857D01*
X124914285Y-64188095D01*
X124866666Y-64330952D01*
X124295238Y-64902380D01*
X124914285Y-64902380D01*
D12*
X131286000Y-85024000D02*
X131286000Y-84781000D01*
X131286000Y-83619000D02*
X131286000Y-83381000D01*
X126714000Y-81722000D02*
X126714000Y-82219000D01*
X131286000Y-81722000D02*
X126714000Y-81722000D01*
X131286000Y-82219000D02*
X131286000Y-81722000D01*
X126714000Y-83381000D02*
X126714000Y-83619000D01*
X131286000Y-85278000D02*
X131286000Y-85024000D01*
X126714000Y-85278000D02*
X131286000Y-85278000D01*
X126714000Y-84781000D02*
X126714000Y-85278000D01*
X156714000Y-72953000D02*
G75*
G03X156714000Y-72953000I-127000J0D01*
G01*
X156698000Y-68762000D02*
G75*
G03X156700000Y-67238000I1000J762000D01*
G01*
X161300000Y-64700000D02*
X161300000Y-71300000D01*
X156700000Y-64700000D02*
X161300000Y-64700000D01*
X161300000Y-71300000D02*
X156700000Y-71300000D01*
X156700000Y-64700000D02*
X156700000Y-67238000D01*
X156700000Y-71300000D02*
X156700000Y-68762000D01*
D10*
X139646267Y-73590000D02*
X139303733Y-73590000D01*
X139646267Y-74610000D02*
X139303733Y-74610000D01*
X161610000Y-59415748D02*
X161610000Y-56584252D01*
X156390000Y-59415748D02*
X156390000Y-56584252D01*
X147110000Y-50146267D02*
X147110000Y-49803733D01*
X146090000Y-50146267D02*
X146090000Y-49803733D01*
X136390000Y-49853733D02*
X136390000Y-50196267D01*
X137410000Y-49853733D02*
X137410000Y-50196267D01*
X151035000Y-48365000D02*
X148575000Y-48365000D01*
X151035000Y-49835000D02*
X151035000Y-48365000D01*
X148575000Y-49835000D02*
X151035000Y-49835000D01*
X137635000Y-55260000D02*
X137635000Y-52800000D01*
X136165000Y-55260000D02*
X137635000Y-55260000D01*
X136165000Y-52800000D02*
X136165000Y-55260000D01*
X127100000Y-44970000D02*
X128430000Y-44970000D01*
X128430000Y-44970000D02*
X128430000Y-46300000D01*
X128430000Y-47570000D02*
X128430000Y-55250000D01*
X125770000Y-55250000D02*
X128430000Y-55250000D01*
X125770000Y-47570000D02*
X125770000Y-55250000D01*
X125770000Y-47570000D02*
X128430000Y-47570000D01*
X151400000Y-50840000D02*
X148950000Y-50840000D01*
X149600000Y-54060000D02*
X151400000Y-54060000D01*
X132250000Y-52460000D02*
X134700000Y-52460000D01*
X134050000Y-49240000D02*
X132250000Y-49240000D01*
X147653733Y-47610000D02*
X147996267Y-47610000D01*
X147653733Y-46590000D02*
X147996267Y-46590000D01*
X135971267Y-44090000D02*
X135628733Y-44090000D01*
X135971267Y-45110000D02*
X135628733Y-45110000D01*
X135453733Y-47610000D02*
X135796267Y-47610000D01*
X135453733Y-46590000D02*
X135796267Y-46590000D01*
X153028733Y-49810000D02*
X153371267Y-49810000D01*
X153028733Y-48790000D02*
X153371267Y-48790000D01*
X132528733Y-54510000D02*
X132871267Y-54510000D01*
X132528733Y-53490000D02*
X132871267Y-53490000D01*
X147653733Y-45710000D02*
X147996267Y-45710000D01*
X147653733Y-44690000D02*
X147996267Y-44690000D01*
X135946267Y-42290000D02*
X135603733Y-42290000D01*
X135946267Y-43310000D02*
X135603733Y-43310000D01*
X145353733Y-43110000D02*
X145696267Y-43110000D01*
X145353733Y-42090000D02*
X145696267Y-42090000D01*
X141825000Y-43935000D02*
X138375000Y-43935000D01*
X141825000Y-43935000D02*
X143775000Y-43935000D01*
X141825000Y-52805000D02*
X139875000Y-52805000D01*
X141825000Y-52805000D02*
X143775000Y-52805000D01*
X149200000Y-63040000D02*
X145750000Y-63040000D01*
X149200000Y-63040000D02*
X151150000Y-63040000D01*
X149200000Y-68160000D02*
X147250000Y-68160000D01*
X149200000Y-68160000D02*
X151150000Y-68160000D01*
X154500000Y-77150000D02*
X154500000Y-75750000D01*
X155200000Y-75050000D02*
X155800000Y-75050000D01*
X156500000Y-75750000D02*
X156500000Y-77150000D01*
X155800000Y-77850000D02*
X155200000Y-77850000D01*
X155200000Y-77850000D02*
G75*
G02X154500000Y-77150000I0J700000D01*
G01*
X156500000Y-77150000D02*
G75*
G02X155800000Y-77850000I-700000J0D01*
G01*
X155800000Y-75050000D02*
G75*
G02X156500000Y-75750000I0J-700000D01*
G01*
X154500000Y-75750000D02*
G75*
G02X155200000Y-75050000I700000J0D01*
G01*
X157400000Y-77100000D02*
X157400000Y-75700000D01*
X158100000Y-75000000D02*
X158700000Y-75000000D01*
X159400000Y-75700000D02*
X159400000Y-77100000D01*
X158700000Y-77800000D02*
X158100000Y-77800000D01*
X158100000Y-77800000D02*
G75*
G02X157400000Y-77100000I0J700000D01*
G01*
X159400000Y-77100000D02*
G75*
G02X158700000Y-77800000I-700000J0D01*
G01*
X158700000Y-75000000D02*
G75*
G02X159400000Y-75700000I0J-700000D01*
G01*
X157400000Y-75700000D02*
G75*
G02X158100000Y-75000000I700000J0D01*
G01*
X156100000Y-81450000D02*
X156100000Y-85350000D01*
X154100000Y-81450000D02*
X154100000Y-85350000D01*
X156100000Y-81450000D02*
X154100000Y-81450000D01*
D12*
X142874000Y-72987000D02*
G75*
G03X142874000Y-72987000I-127000J0D01*
G01*
X146938000Y-73098000D02*
G75*
G03X148462000Y-73100000I762000J-1000D01*
G01*
X151000000Y-77700000D02*
X144400000Y-77700000D01*
X151000000Y-73100000D02*
X151000000Y-77700000D01*
X144400000Y-77700000D02*
X144400000Y-73100000D01*
X151000000Y-73100000D02*
X148462000Y-73100000D01*
X144400000Y-73100000D02*
X146938000Y-73100000D01*
X140500000Y-86150000D02*
X140500000Y-80450000D01*
X146300000Y-86150000D02*
X146300000Y-80450000D01*
D10*
X142700000Y-67250000D02*
X142700000Y-63150000D01*
X142700000Y-63150000D02*
X144700000Y-63150000D01*
X144700000Y-63150000D02*
X144700000Y-67250000D01*
X144700000Y-67250000D02*
X142700000Y-67250000D01*
X144900000Y-66500000D02*
X145200000Y-66800000D01*
X145200000Y-66800000D02*
X145200000Y-66200000D01*
X144900000Y-66500000D02*
X145200000Y-66200000D01*
X139500000Y-67250000D02*
X139500000Y-63150000D01*
X139500000Y-63150000D02*
X141500000Y-63150000D01*
X141500000Y-63150000D02*
X141500000Y-67250000D01*
X141500000Y-67250000D02*
X139500000Y-67250000D01*
X141700000Y-66500000D02*
X142000000Y-66800000D01*
X142000000Y-66800000D02*
X142000000Y-66200000D01*
X141700000Y-66500000D02*
X142000000Y-66200000D01*
X145890000Y-70328733D02*
X145890000Y-70671267D01*
X146910000Y-70328733D02*
X146910000Y-70671267D01*
X144090000Y-70328733D02*
X144090000Y-70671267D01*
X145110000Y-70328733D02*
X145110000Y-70671267D01*
X153590000Y-63953733D02*
X153590000Y-64296267D01*
X154610000Y-63953733D02*
X154610000Y-64296267D01*
X133290000Y-67440000D02*
X133290000Y-63560000D01*
X136410000Y-62390000D02*
X136410000Y-63440000D01*
X135260000Y-62390000D02*
X136410000Y-62390000D01*
X136410000Y-67560000D02*
X137400000Y-67560000D01*
X136410000Y-68610000D02*
X136410000Y-67560000D01*
X135260000Y-68610000D02*
X136410000Y-68610000D01*
X150028733Y-70510000D02*
X150371267Y-70510000D01*
X150028733Y-69490000D02*
X150371267Y-69490000D01*
X148930000Y-82320000D02*
X146930000Y-82320000D01*
X147930000Y-84540000D02*
X146930000Y-84540000D01*
X148990000Y-86228733D02*
X148990000Y-86571267D01*
X150010000Y-86228733D02*
X150010000Y-86571267D01*
X146690000Y-62360000D02*
X147940000Y-62360000D01*
X146690000Y-61110000D02*
X146690000Y-62360000D01*
X151100000Y-59000000D02*
X150600000Y-59000000D01*
X150600000Y-58900000D02*
X151100000Y-58900000D01*
X150600000Y-59100000D02*
X150600000Y-58900000D01*
X151100000Y-59100000D02*
X150600000Y-59100000D01*
X149600000Y-55940000D02*
X149600000Y-56550000D01*
X148300000Y-55940000D02*
X148300000Y-56550000D01*
X149600000Y-62060000D02*
X149600000Y-61450000D01*
X148300000Y-62060000D02*
X148300000Y-61450000D01*
X147600000Y-58500000D02*
X146990000Y-58500000D01*
X147600000Y-56550000D02*
X147600000Y-58500000D01*
X151100000Y-56550000D02*
X147600000Y-56550000D01*
X151100000Y-61450000D02*
X151100000Y-56550000D01*
X147600000Y-61450000D02*
X151100000Y-61450000D01*
X147600000Y-59500000D02*
X147600000Y-61450000D01*
X146990000Y-59500000D02*
X147600000Y-59500000D01*
X146890000Y-60300000D02*
X146890000Y-60600000D01*
X146790000Y-60600000D02*
X146990000Y-60600000D01*
X146790000Y-60300000D02*
X146790000Y-60600000D01*
X146990000Y-60300000D02*
X146790000Y-60300000D01*
X146990000Y-55940000D02*
X146990000Y-62060000D01*
X151710000Y-55940000D02*
X146990000Y-55940000D01*
X151710000Y-62060000D02*
X151710000Y-55940000D01*
X146990000Y-62060000D02*
X151710000Y-62060000D01*
X144700000Y-61330000D02*
X143370000Y-61330000D01*
X143370000Y-61330000D02*
X143370000Y-60000000D01*
X143370000Y-58730000D02*
X143370000Y-56130000D01*
X146030000Y-56130000D02*
X143370000Y-56130000D01*
X146030000Y-58730000D02*
X146030000Y-56130000D01*
X146030000Y-58730000D02*
X143370000Y-58730000D01*
X125110000Y-68340000D02*
X123860000Y-68340000D01*
X125110000Y-69590000D02*
X125110000Y-68340000D01*
X120700000Y-71700000D02*
X121200000Y-71700000D01*
X121200000Y-71800000D02*
X120700000Y-71800000D01*
X121200000Y-71600000D02*
X121200000Y-71800000D01*
X120700000Y-71600000D02*
X121200000Y-71600000D01*
X122200000Y-74760000D02*
X122200000Y-74150000D01*
X123500000Y-74760000D02*
X123500000Y-74150000D01*
X122200000Y-68640000D02*
X122200000Y-69250000D01*
X123500000Y-68640000D02*
X123500000Y-69250000D01*
X124200000Y-72200000D02*
X124810000Y-72200000D01*
X124200000Y-74150000D02*
X124200000Y-72200000D01*
X120700000Y-74150000D02*
X124200000Y-74150000D01*
X120700000Y-69250000D02*
X120700000Y-74150000D01*
X124200000Y-69250000D02*
X120700000Y-69250000D01*
X124200000Y-71200000D02*
X124200000Y-69250000D01*
X124810000Y-71200000D02*
X124200000Y-71200000D01*
X124910000Y-70400000D02*
X124910000Y-70100000D01*
X125010000Y-70100000D02*
X124810000Y-70100000D01*
X125010000Y-70400000D02*
X125010000Y-70100000D01*
X124810000Y-70400000D02*
X125010000Y-70400000D01*
X124810000Y-74760000D02*
X124810000Y-68640000D01*
X120090000Y-74760000D02*
X124810000Y-74760000D01*
X120090000Y-68640000D02*
X120090000Y-74760000D01*
X124810000Y-68640000D02*
X120090000Y-68640000D01*
D12*
X121063000Y-88200000D02*
X119823000Y-88200000D01*
X121015000Y-79400000D02*
X119775000Y-79400000D01*
X115924000Y-88209000D02*
X117275000Y-88209000D01*
X115925000Y-79400000D02*
X117305000Y-79400000D01*
X115925000Y-79390000D02*
X115925000Y-88210000D01*
D10*
X151150000Y-81000000D02*
X147250000Y-81000000D01*
X151150000Y-79000000D02*
X147250000Y-79000000D01*
X151150000Y-81000000D02*
X151150000Y-79000000D01*
X139310000Y-83961252D02*
X139310000Y-83438748D01*
X137890000Y-83961252D02*
X137890000Y-83438748D01*
X151990000Y-80813748D02*
X151990000Y-81336252D01*
X153410000Y-80813748D02*
X153410000Y-81336252D01*
X151110000Y-83171267D02*
X151110000Y-82828733D01*
X150090000Y-83171267D02*
X150090000Y-82828733D01*
D13*
X127560771Y-86418357D02*
X127179771Y-86418357D01*
X127179771Y-87017071D02*
X127179771Y-85874071D01*
X127724057Y-85874071D01*
X128703771Y-87017071D02*
X128159485Y-87017071D01*
X128159485Y-85874071D01*
X129683485Y-87017071D02*
X129030342Y-87017071D01*
X129356914Y-87017071D02*
X129356914Y-85874071D01*
X129248057Y-86037357D01*
X129139200Y-86146214D01*
X129030342Y-86200642D01*
X161048071Y-69978657D02*
X161973357Y-69978657D01*
X162082214Y-69924228D01*
X162136642Y-69869800D01*
X162191071Y-69760942D01*
X162191071Y-69543228D01*
X162136642Y-69434371D01*
X162082214Y-69379942D01*
X161973357Y-69325514D01*
X161048071Y-69325514D01*
X161048071Y-68890085D02*
X161048071Y-68128085D01*
X162191071Y-68617942D01*
D11*
X139308333Y-75982380D02*
X138975000Y-75506190D01*
X138736904Y-75982380D02*
X138736904Y-74982380D01*
X139117857Y-74982380D01*
X139213095Y-75030000D01*
X139260714Y-75077619D01*
X139308333Y-75172857D01*
X139308333Y-75315714D01*
X139260714Y-75410952D01*
X139213095Y-75458571D01*
X139117857Y-75506190D01*
X138736904Y-75506190D01*
X139689285Y-75077619D02*
X139736904Y-75030000D01*
X139832142Y-74982380D01*
X140070238Y-74982380D01*
X140165476Y-75030000D01*
X140213095Y-75077619D01*
X140260714Y-75172857D01*
X140260714Y-75268095D01*
X140213095Y-75410952D01*
X139641666Y-75982380D01*
X140260714Y-75982380D01*
X155707142Y-58642857D02*
X155754761Y-58690476D01*
X155802380Y-58833333D01*
X155802380Y-58928571D01*
X155754761Y-59071428D01*
X155659523Y-59166666D01*
X155564285Y-59214285D01*
X155373809Y-59261904D01*
X155230952Y-59261904D01*
X155040476Y-59214285D01*
X154945238Y-59166666D01*
X154850000Y-59071428D01*
X154802380Y-58928571D01*
X154802380Y-58833333D01*
X154850000Y-58690476D01*
X154897619Y-58642857D01*
X155802380Y-57690476D02*
X155802380Y-58261904D01*
X155802380Y-57976190D02*
X154802380Y-57976190D01*
X154945238Y-58071428D01*
X155040476Y-58166666D01*
X155088095Y-58261904D01*
X154802380Y-57071428D02*
X154802380Y-56976190D01*
X154850000Y-56880952D01*
X154897619Y-56833333D01*
X154992857Y-56785714D01*
X155183333Y-56738095D01*
X155421428Y-56738095D01*
X155611904Y-56785714D01*
X155707142Y-56833333D01*
X155754761Y-56880952D01*
X155802380Y-56976190D01*
X155802380Y-57071428D01*
X155754761Y-57166666D01*
X155707142Y-57214285D01*
X155611904Y-57261904D01*
X155421428Y-57309523D01*
X155183333Y-57309523D01*
X154992857Y-57261904D01*
X154897619Y-57214285D01*
X154850000Y-57166666D01*
X154802380Y-57071428D01*
X146952380Y-53942857D02*
X146476190Y-54276190D01*
X146952380Y-54514285D02*
X145952380Y-54514285D01*
X145952380Y-54133333D01*
X146000000Y-54038095D01*
X146047619Y-53990476D01*
X146142857Y-53942857D01*
X146285714Y-53942857D01*
X146380952Y-53990476D01*
X146428571Y-54038095D01*
X146476190Y-54133333D01*
X146476190Y-54514285D01*
X146952380Y-52990476D02*
X146952380Y-53561904D01*
X146952380Y-53276190D02*
X145952380Y-53276190D01*
X146095238Y-53371428D01*
X146190476Y-53466666D01*
X146238095Y-53561904D01*
X145952380Y-52371428D02*
X145952380Y-52276190D01*
X146000000Y-52180952D01*
X146047619Y-52133333D01*
X146142857Y-52085714D01*
X146333333Y-52038095D01*
X146571428Y-52038095D01*
X146761904Y-52085714D01*
X146857142Y-52133333D01*
X146904761Y-52180952D01*
X146952380Y-52276190D01*
X146952380Y-52371428D01*
X146904761Y-52466666D01*
X146857142Y-52514285D01*
X146761904Y-52561904D01*
X146571428Y-52609523D01*
X146333333Y-52609523D01*
X146142857Y-52561904D01*
X146047619Y-52514285D01*
X146000000Y-52466666D01*
X145952380Y-52371428D01*
X138952380Y-54166666D02*
X138476190Y-54500000D01*
X138952380Y-54738095D02*
X137952380Y-54738095D01*
X137952380Y-54357142D01*
X138000000Y-54261904D01*
X138047619Y-54214285D01*
X138142857Y-54166666D01*
X138285714Y-54166666D01*
X138380952Y-54214285D01*
X138428571Y-54261904D01*
X138476190Y-54357142D01*
X138476190Y-54738095D01*
X138952380Y-53690476D02*
X138952380Y-53500000D01*
X138904761Y-53404761D01*
X138857142Y-53357142D01*
X138714285Y-53261904D01*
X138523809Y-53214285D01*
X138142857Y-53214285D01*
X138047619Y-53261904D01*
X138000000Y-53309523D01*
X137952380Y-53404761D01*
X137952380Y-53595238D01*
X138000000Y-53690476D01*
X138047619Y-53738095D01*
X138142857Y-53785714D01*
X138380952Y-53785714D01*
X138476190Y-53738095D01*
X138523809Y-53690476D01*
X138571428Y-53595238D01*
X138571428Y-53404761D01*
X138523809Y-53309523D01*
X138476190Y-53261904D01*
X138380952Y-53214285D01*
X150461904Y-48352380D02*
X150461904Y-47352380D01*
X150700000Y-47352380D01*
X150842857Y-47400000D01*
X150938095Y-47495238D01*
X150985714Y-47590476D01*
X151033333Y-47780952D01*
X151033333Y-47923809D01*
X150985714Y-48114285D01*
X150938095Y-48209523D01*
X150842857Y-48304761D01*
X150700000Y-48352380D01*
X150461904Y-48352380D01*
X151890476Y-47685714D02*
X151890476Y-48352380D01*
X151652380Y-47304761D02*
X151414285Y-48019047D01*
X152033333Y-48019047D01*
X137352380Y-57038095D02*
X136352380Y-57038095D01*
X136352380Y-56800000D01*
X136400000Y-56657142D01*
X136495238Y-56561904D01*
X136590476Y-56514285D01*
X136780952Y-56466666D01*
X136923809Y-56466666D01*
X137114285Y-56514285D01*
X137209523Y-56561904D01*
X137304761Y-56657142D01*
X137352380Y-56800000D01*
X137352380Y-57038095D01*
X136352380Y-56133333D02*
X136352380Y-55514285D01*
X136733333Y-55847619D01*
X136733333Y-55704761D01*
X136780952Y-55609523D01*
X136828571Y-55561904D01*
X136923809Y-55514285D01*
X137161904Y-55514285D01*
X137257142Y-55561904D01*
X137304761Y-55609523D01*
X137352380Y-55704761D01*
X137352380Y-55990476D01*
X137304761Y-56085714D01*
X137257142Y-56133333D01*
X126766666Y-42982380D02*
X126766666Y-43696666D01*
X126719047Y-43839523D01*
X126623809Y-43934761D01*
X126480952Y-43982380D01*
X126385714Y-43982380D01*
X127671428Y-42982380D02*
X127480952Y-42982380D01*
X127385714Y-43030000D01*
X127338095Y-43077619D01*
X127242857Y-43220476D01*
X127195238Y-43410952D01*
X127195238Y-43791904D01*
X127242857Y-43887142D01*
X127290476Y-43934761D01*
X127385714Y-43982380D01*
X127576190Y-43982380D01*
X127671428Y-43934761D01*
X127719047Y-43887142D01*
X127766666Y-43791904D01*
X127766666Y-43553809D01*
X127719047Y-43458571D01*
X127671428Y-43410952D01*
X127576190Y-43363333D01*
X127385714Y-43363333D01*
X127290476Y-43410952D01*
X127242857Y-43458571D01*
X127195238Y-43553809D01*
X153038095Y-50452380D02*
X153038095Y-51261904D01*
X153085714Y-51357142D01*
X153133333Y-51404761D01*
X153228571Y-51452380D01*
X153419047Y-51452380D01*
X153514285Y-51404761D01*
X153561904Y-51357142D01*
X153609523Y-51261904D01*
X153609523Y-50452380D01*
X154514285Y-50452380D02*
X154323809Y-50452380D01*
X154228571Y-50500000D01*
X154180952Y-50547619D01*
X154085714Y-50690476D01*
X154038095Y-50880952D01*
X154038095Y-51261904D01*
X154085714Y-51357142D01*
X154133333Y-51404761D01*
X154228571Y-51452380D01*
X154419047Y-51452380D01*
X154514285Y-51404761D01*
X154561904Y-51357142D01*
X154609523Y-51261904D01*
X154609523Y-51023809D01*
X154561904Y-50928571D01*
X154514285Y-50880952D01*
X154419047Y-50833333D01*
X154228571Y-50833333D01*
X154133333Y-50880952D01*
X154085714Y-50928571D01*
X154038095Y-51023809D01*
X134138095Y-52752380D02*
X134138095Y-53561904D01*
X134185714Y-53657142D01*
X134233333Y-53704761D01*
X134328571Y-53752380D01*
X134519047Y-53752380D01*
X134614285Y-53704761D01*
X134661904Y-53657142D01*
X134709523Y-53561904D01*
X134709523Y-52752380D01*
X135661904Y-52752380D02*
X135185714Y-52752380D01*
X135138095Y-53228571D01*
X135185714Y-53180952D01*
X135280952Y-53133333D01*
X135519047Y-53133333D01*
X135614285Y-53180952D01*
X135661904Y-53228571D01*
X135709523Y-53323809D01*
X135709523Y-53561904D01*
X135661904Y-53657142D01*
X135614285Y-53704761D01*
X135519047Y-53752380D01*
X135280952Y-53752380D01*
X135185714Y-53704761D01*
X135138095Y-53657142D01*
X150533333Y-47152380D02*
X150200000Y-46676190D01*
X149961904Y-47152380D02*
X149961904Y-46152380D01*
X150342857Y-46152380D01*
X150438095Y-46200000D01*
X150485714Y-46247619D01*
X150533333Y-46342857D01*
X150533333Y-46485714D01*
X150485714Y-46580952D01*
X150438095Y-46628571D01*
X150342857Y-46676190D01*
X149961904Y-46676190D01*
X151104761Y-46580952D02*
X151009523Y-46533333D01*
X150961904Y-46485714D01*
X150914285Y-46390476D01*
X150914285Y-46342857D01*
X150961904Y-46247619D01*
X151009523Y-46200000D01*
X151104761Y-46152380D01*
X151295238Y-46152380D01*
X151390476Y-46200000D01*
X151438095Y-46247619D01*
X151485714Y-46342857D01*
X151485714Y-46390476D01*
X151438095Y-46485714D01*
X151390476Y-46533333D01*
X151295238Y-46580952D01*
X151104761Y-46580952D01*
X151009523Y-46628571D01*
X150961904Y-46676190D01*
X150914285Y-46771428D01*
X150914285Y-46961904D01*
X150961904Y-47057142D01*
X151009523Y-47104761D01*
X151104761Y-47152380D01*
X151295238Y-47152380D01*
X151390476Y-47104761D01*
X151438095Y-47057142D01*
X151485714Y-46961904D01*
X151485714Y-46771428D01*
X151438095Y-46676190D01*
X151390476Y-46628571D01*
X151295238Y-46580952D01*
X132658333Y-45252380D02*
X132325000Y-44776190D01*
X132086904Y-45252380D02*
X132086904Y-44252380D01*
X132467857Y-44252380D01*
X132563095Y-44300000D01*
X132610714Y-44347619D01*
X132658333Y-44442857D01*
X132658333Y-44585714D01*
X132610714Y-44680952D01*
X132563095Y-44728571D01*
X132467857Y-44776190D01*
X132086904Y-44776190D01*
X132991666Y-44252380D02*
X133658333Y-44252380D01*
X133229761Y-45252380D01*
X132633333Y-47552380D02*
X132300000Y-47076190D01*
X132061904Y-47552380D02*
X132061904Y-46552380D01*
X132442857Y-46552380D01*
X132538095Y-46600000D01*
X132585714Y-46647619D01*
X132633333Y-46742857D01*
X132633333Y-46885714D01*
X132585714Y-46980952D01*
X132538095Y-47028571D01*
X132442857Y-47076190D01*
X132061904Y-47076190D01*
X133490476Y-46552380D02*
X133300000Y-46552380D01*
X133204761Y-46600000D01*
X133157142Y-46647619D01*
X133061904Y-46790476D01*
X133014285Y-46980952D01*
X133014285Y-47361904D01*
X133061904Y-47457142D01*
X133109523Y-47504761D01*
X133204761Y-47552380D01*
X133395238Y-47552380D01*
X133490476Y-47504761D01*
X133538095Y-47457142D01*
X133585714Y-47361904D01*
X133585714Y-47123809D01*
X133538095Y-47028571D01*
X133490476Y-46980952D01*
X133395238Y-46933333D01*
X133204761Y-46933333D01*
X133109523Y-46980952D01*
X133061904Y-47028571D01*
X133014285Y-47123809D01*
X153033333Y-48227142D02*
X152985714Y-48274761D01*
X152842857Y-48322380D01*
X152747619Y-48322380D01*
X152604761Y-48274761D01*
X152509523Y-48179523D01*
X152461904Y-48084285D01*
X152414285Y-47893809D01*
X152414285Y-47750952D01*
X152461904Y-47560476D01*
X152509523Y-47465238D01*
X152604761Y-47370000D01*
X152747619Y-47322380D01*
X152842857Y-47322380D01*
X152985714Y-47370000D01*
X153033333Y-47417619D01*
X153509523Y-48322380D02*
X153700000Y-48322380D01*
X153795238Y-48274761D01*
X153842857Y-48227142D01*
X153938095Y-48084285D01*
X153985714Y-47893809D01*
X153985714Y-47512857D01*
X153938095Y-47417619D01*
X153890476Y-47370000D01*
X153795238Y-47322380D01*
X153604761Y-47322380D01*
X153509523Y-47370000D01*
X153461904Y-47417619D01*
X153414285Y-47512857D01*
X153414285Y-47750952D01*
X153461904Y-47846190D01*
X153509523Y-47893809D01*
X153604761Y-47941428D01*
X153795238Y-47941428D01*
X153890476Y-47893809D01*
X153938095Y-47846190D01*
X153985714Y-47750952D01*
X132608333Y-55857142D02*
X132560714Y-55904761D01*
X132417857Y-55952380D01*
X132322619Y-55952380D01*
X132179761Y-55904761D01*
X132084523Y-55809523D01*
X132036904Y-55714285D01*
X131989285Y-55523809D01*
X131989285Y-55380952D01*
X132036904Y-55190476D01*
X132084523Y-55095238D01*
X132179761Y-55000000D01*
X132322619Y-54952380D01*
X132417857Y-54952380D01*
X132560714Y-55000000D01*
X132608333Y-55047619D01*
X133179761Y-55380952D02*
X133084523Y-55333333D01*
X133036904Y-55285714D01*
X132989285Y-55190476D01*
X132989285Y-55142857D01*
X133036904Y-55047619D01*
X133084523Y-55000000D01*
X133179761Y-54952380D01*
X133370238Y-54952380D01*
X133465476Y-55000000D01*
X133513095Y-55047619D01*
X133560714Y-55142857D01*
X133560714Y-55190476D01*
X133513095Y-55285714D01*
X133465476Y-55333333D01*
X133370238Y-55380952D01*
X133179761Y-55380952D01*
X133084523Y-55428571D01*
X133036904Y-55476190D01*
X132989285Y-55571428D01*
X132989285Y-55761904D01*
X133036904Y-55857142D01*
X133084523Y-55904761D01*
X133179761Y-55952380D01*
X133370238Y-55952380D01*
X133465476Y-55904761D01*
X133513095Y-55857142D01*
X133560714Y-55761904D01*
X133560714Y-55571428D01*
X133513095Y-55476190D01*
X133465476Y-55428571D01*
X133370238Y-55380952D01*
X150533333Y-45557142D02*
X150485714Y-45604761D01*
X150342857Y-45652380D01*
X150247619Y-45652380D01*
X150104761Y-45604761D01*
X150009523Y-45509523D01*
X149961904Y-45414285D01*
X149914285Y-45223809D01*
X149914285Y-45080952D01*
X149961904Y-44890476D01*
X150009523Y-44795238D01*
X150104761Y-44700000D01*
X150247619Y-44652380D01*
X150342857Y-44652380D01*
X150485714Y-44700000D01*
X150533333Y-44747619D01*
X150866666Y-44652380D02*
X151533333Y-44652380D01*
X151104761Y-45652380D01*
X132733333Y-43257142D02*
X132685714Y-43304761D01*
X132542857Y-43352380D01*
X132447619Y-43352380D01*
X132304761Y-43304761D01*
X132209523Y-43209523D01*
X132161904Y-43114285D01*
X132114285Y-42923809D01*
X132114285Y-42780952D01*
X132161904Y-42590476D01*
X132209523Y-42495238D01*
X132304761Y-42400000D01*
X132447619Y-42352380D01*
X132542857Y-42352380D01*
X132685714Y-42400000D01*
X132733333Y-42447619D01*
X133590476Y-42352380D02*
X133400000Y-42352380D01*
X133304761Y-42400000D01*
X133257142Y-42447619D01*
X133161904Y-42590476D01*
X133114285Y-42780952D01*
X133114285Y-43161904D01*
X133161904Y-43257142D01*
X133209523Y-43304761D01*
X133304761Y-43352380D01*
X133495238Y-43352380D01*
X133590476Y-43304761D01*
X133638095Y-43257142D01*
X133685714Y-43161904D01*
X133685714Y-42923809D01*
X133638095Y-42828571D01*
X133590476Y-42780952D01*
X133495238Y-42733333D01*
X133304761Y-42733333D01*
X133209523Y-42780952D01*
X133161904Y-42828571D01*
X133114285Y-42923809D01*
X145358333Y-41527142D02*
X145310714Y-41574761D01*
X145167857Y-41622380D01*
X145072619Y-41622380D01*
X144929761Y-41574761D01*
X144834523Y-41479523D01*
X144786904Y-41384285D01*
X144739285Y-41193809D01*
X144739285Y-41050952D01*
X144786904Y-40860476D01*
X144834523Y-40765238D01*
X144929761Y-40670000D01*
X145072619Y-40622380D01*
X145167857Y-40622380D01*
X145310714Y-40670000D01*
X145358333Y-40717619D01*
X146263095Y-40622380D02*
X145786904Y-40622380D01*
X145739285Y-41098571D01*
X145786904Y-41050952D01*
X145882142Y-41003333D01*
X146120238Y-41003333D01*
X146215476Y-41050952D01*
X146263095Y-41098571D01*
X146310714Y-41193809D01*
X146310714Y-41431904D01*
X146263095Y-41527142D01*
X146215476Y-41574761D01*
X146120238Y-41622380D01*
X145882142Y-41622380D01*
X145786904Y-41574761D01*
X145739285Y-41527142D01*
X141063095Y-42542380D02*
X141063095Y-43351904D01*
X141110714Y-43447142D01*
X141158333Y-43494761D01*
X141253571Y-43542380D01*
X141444047Y-43542380D01*
X141539285Y-43494761D01*
X141586904Y-43447142D01*
X141634523Y-43351904D01*
X141634523Y-42542380D01*
X142539285Y-42875714D02*
X142539285Y-43542380D01*
X142301190Y-42494761D02*
X142063095Y-43209047D01*
X142682142Y-43209047D01*
X144738095Y-61652380D02*
X144738095Y-62461904D01*
X144785714Y-62557142D01*
X144833333Y-62604761D01*
X144928571Y-62652380D01*
X145119047Y-62652380D01*
X145214285Y-62604761D01*
X145261904Y-62557142D01*
X145309523Y-62461904D01*
X145309523Y-61652380D01*
X145690476Y-61652380D02*
X146309523Y-61652380D01*
X145976190Y-62033333D01*
X146119047Y-62033333D01*
X146214285Y-62080952D01*
X146261904Y-62128571D01*
X146309523Y-62223809D01*
X146309523Y-62461904D01*
X146261904Y-62557142D01*
X146214285Y-62604761D01*
X146119047Y-62652380D01*
X145833333Y-62652380D01*
X145738095Y-62604761D01*
X145690476Y-62557142D01*
X155152380Y-74283333D02*
X155866666Y-74283333D01*
X156009523Y-74330952D01*
X156104761Y-74426190D01*
X156152380Y-74569047D01*
X156152380Y-74664285D01*
X156152380Y-73807142D02*
X155152380Y-73807142D01*
X155152380Y-73426190D01*
X155200000Y-73330952D01*
X155247619Y-73283333D01*
X155342857Y-73235714D01*
X155485714Y-73235714D01*
X155580952Y-73283333D01*
X155628571Y-73330952D01*
X155676190Y-73426190D01*
X155676190Y-73807142D01*
X155485714Y-72378571D02*
X156152380Y-72378571D01*
X155104761Y-72616666D02*
X155819047Y-72854761D01*
X155819047Y-72235714D01*
X158152380Y-80433333D02*
X158866666Y-80433333D01*
X159009523Y-80480952D01*
X159104761Y-80576190D01*
X159152380Y-80719047D01*
X159152380Y-80814285D01*
X159152380Y-79957142D02*
X158152380Y-79957142D01*
X158152380Y-79576190D01*
X158200000Y-79480952D01*
X158247619Y-79433333D01*
X158342857Y-79385714D01*
X158485714Y-79385714D01*
X158580952Y-79433333D01*
X158628571Y-79480952D01*
X158676190Y-79576190D01*
X158676190Y-79957142D01*
X158152380Y-79052380D02*
X158152380Y-78433333D01*
X158533333Y-78766666D01*
X158533333Y-78623809D01*
X158580952Y-78528571D01*
X158628571Y-78480952D01*
X158723809Y-78433333D01*
X158961904Y-78433333D01*
X159057142Y-78480952D01*
X159104761Y-78528571D01*
X159152380Y-78623809D01*
X159152380Y-78909523D01*
X159104761Y-79004761D01*
X159057142Y-79052380D01*
X155552380Y-87938095D02*
X154552380Y-87938095D01*
X154552380Y-87700000D01*
X154600000Y-87557142D01*
X154695238Y-87461904D01*
X154790476Y-87414285D01*
X154980952Y-87366666D01*
X155123809Y-87366666D01*
X155314285Y-87414285D01*
X155409523Y-87461904D01*
X155504761Y-87557142D01*
X155552380Y-87700000D01*
X155552380Y-87938095D01*
X154647619Y-86985714D02*
X154600000Y-86938095D01*
X154552380Y-86842857D01*
X154552380Y-86604761D01*
X154600000Y-86509523D01*
X154647619Y-86461904D01*
X154742857Y-86414285D01*
X154838095Y-86414285D01*
X154980952Y-86461904D01*
X155552380Y-87033333D01*
X155552380Y-86414285D01*
D13*
X143387342Y-78074071D02*
X143387342Y-78999357D01*
X143441771Y-79108214D01*
X143496200Y-79162642D01*
X143605057Y-79217071D01*
X143822771Y-79217071D01*
X143931628Y-79162642D01*
X143986057Y-79108214D01*
X144040485Y-78999357D01*
X144040485Y-78074071D01*
X144530342Y-78182928D02*
X144584771Y-78128500D01*
X144693628Y-78074071D01*
X144965771Y-78074071D01*
X145074628Y-78128500D01*
X145129057Y-78182928D01*
X145183485Y-78291785D01*
X145183485Y-78400642D01*
X145129057Y-78563928D01*
X144475914Y-79217071D01*
X145183485Y-79217071D01*
X141417071Y-78784771D02*
X141417071Y-79329057D01*
X140274071Y-79329057D01*
X141417071Y-77805057D02*
X141417071Y-78458200D01*
X141417071Y-78131628D02*
X140274071Y-78131628D01*
X140437357Y-78240485D01*
X140546214Y-78349342D01*
X140600642Y-78458200D01*
D11*
X141952380Y-69333333D02*
X142666666Y-69333333D01*
X142809523Y-69380952D01*
X142904761Y-69476190D01*
X142952380Y-69619047D01*
X142952380Y-69714285D01*
X142952380Y-68857142D02*
X141952380Y-68857142D01*
X141952380Y-68476190D01*
X142000000Y-68380952D01*
X142047619Y-68333333D01*
X142142857Y-68285714D01*
X142285714Y-68285714D01*
X142380952Y-68333333D01*
X142428571Y-68380952D01*
X142476190Y-68476190D01*
X142476190Y-68857142D01*
X142047619Y-67904761D02*
X142000000Y-67857142D01*
X141952380Y-67761904D01*
X141952380Y-67523809D01*
X142000000Y-67428571D01*
X142047619Y-67380952D01*
X142142857Y-67333333D01*
X142238095Y-67333333D01*
X142380952Y-67380952D01*
X142952380Y-67952380D01*
X142952380Y-67333333D01*
X139152380Y-69333333D02*
X139866666Y-69333333D01*
X140009523Y-69380952D01*
X140104761Y-69476190D01*
X140152380Y-69619047D01*
X140152380Y-69714285D01*
X140152380Y-68857142D02*
X139152380Y-68857142D01*
X139152380Y-68476190D01*
X139200000Y-68380952D01*
X139247619Y-68333333D01*
X139342857Y-68285714D01*
X139485714Y-68285714D01*
X139580952Y-68333333D01*
X139628571Y-68380952D01*
X139676190Y-68476190D01*
X139676190Y-68857142D01*
X140152380Y-67333333D02*
X140152380Y-67904761D01*
X140152380Y-67619047D02*
X139152380Y-67619047D01*
X139295238Y-67714285D01*
X139390476Y-67809523D01*
X139438095Y-67904761D01*
X148752380Y-71466666D02*
X148276190Y-71800000D01*
X148752380Y-72038095D02*
X147752380Y-72038095D01*
X147752380Y-71657142D01*
X147800000Y-71561904D01*
X147847619Y-71514285D01*
X147942857Y-71466666D01*
X148085714Y-71466666D01*
X148180952Y-71514285D01*
X148228571Y-71561904D01*
X148276190Y-71657142D01*
X148276190Y-72038095D01*
X147752380Y-70561904D02*
X147752380Y-71038095D01*
X148228571Y-71085714D01*
X148180952Y-71038095D01*
X148133333Y-70942857D01*
X148133333Y-70704761D01*
X148180952Y-70609523D01*
X148228571Y-70561904D01*
X148323809Y-70514285D01*
X148561904Y-70514285D01*
X148657142Y-70561904D01*
X148704761Y-70609523D01*
X148752380Y-70704761D01*
X148752380Y-70942857D01*
X148704761Y-71038095D01*
X148657142Y-71085714D01*
X143652380Y-71841666D02*
X143176190Y-72175000D01*
X143652380Y-72413095D02*
X142652380Y-72413095D01*
X142652380Y-72032142D01*
X142700000Y-71936904D01*
X142747619Y-71889285D01*
X142842857Y-71841666D01*
X142985714Y-71841666D01*
X143080952Y-71889285D01*
X143128571Y-71936904D01*
X143176190Y-72032142D01*
X143176190Y-72413095D01*
X142985714Y-70984523D02*
X143652380Y-70984523D01*
X142604761Y-71222619D02*
X143319047Y-71460714D01*
X143319047Y-70841666D01*
X154352380Y-61391666D02*
X153876190Y-61725000D01*
X154352380Y-61963095D02*
X153352380Y-61963095D01*
X153352380Y-61582142D01*
X153400000Y-61486904D01*
X153447619Y-61439285D01*
X153542857Y-61391666D01*
X153685714Y-61391666D01*
X153780952Y-61439285D01*
X153828571Y-61486904D01*
X153876190Y-61582142D01*
X153876190Y-61963095D01*
X153352380Y-61058333D02*
X153352380Y-60439285D01*
X153733333Y-60772619D01*
X153733333Y-60629761D01*
X153780952Y-60534523D01*
X153828571Y-60486904D01*
X153923809Y-60439285D01*
X154161904Y-60439285D01*
X154257142Y-60486904D01*
X154304761Y-60534523D01*
X154352380Y-60629761D01*
X154352380Y-60915476D01*
X154304761Y-61010714D01*
X154257142Y-61058333D01*
X131452380Y-65833333D02*
X132166666Y-65833333D01*
X132309523Y-65880952D01*
X132404761Y-65976190D01*
X132452380Y-66119047D01*
X132452380Y-66214285D01*
X131452380Y-65452380D02*
X131452380Y-64785714D01*
X132452380Y-65214285D01*
X149833333Y-71757142D02*
X149785714Y-71804761D01*
X149642857Y-71852380D01*
X149547619Y-71852380D01*
X149404761Y-71804761D01*
X149309523Y-71709523D01*
X149261904Y-71614285D01*
X149214285Y-71423809D01*
X149214285Y-71280952D01*
X149261904Y-71090476D01*
X149309523Y-70995238D01*
X149404761Y-70900000D01*
X149547619Y-70852380D01*
X149642857Y-70852380D01*
X149785714Y-70900000D01*
X149833333Y-70947619D01*
X150690476Y-71185714D02*
X150690476Y-71852380D01*
X150452380Y-70804761D02*
X150214285Y-71519047D01*
X150833333Y-71519047D01*
X146838095Y-84952380D02*
X146838095Y-85761904D01*
X146885714Y-85857142D01*
X146933333Y-85904761D01*
X147028571Y-85952380D01*
X147219047Y-85952380D01*
X147314285Y-85904761D01*
X147361904Y-85857142D01*
X147409523Y-85761904D01*
X147409523Y-84952380D01*
X148409523Y-85952380D02*
X147838095Y-85952380D01*
X148123809Y-85952380D02*
X148123809Y-84952380D01*
X148028571Y-85095238D01*
X147933333Y-85190476D01*
X147838095Y-85238095D01*
X151382380Y-86566666D02*
X150906190Y-86900000D01*
X151382380Y-87138095D02*
X150382380Y-87138095D01*
X150382380Y-86757142D01*
X150430000Y-86661904D01*
X150477619Y-86614285D01*
X150572857Y-86566666D01*
X150715714Y-86566666D01*
X150810952Y-86614285D01*
X150858571Y-86661904D01*
X150906190Y-86757142D01*
X150906190Y-87138095D01*
X151382380Y-85614285D02*
X151382380Y-86185714D01*
X151382380Y-85900000D02*
X150382380Y-85900000D01*
X150525238Y-85995238D01*
X150620476Y-86090476D01*
X150668095Y-86185714D01*
X152552380Y-58233333D02*
X153266666Y-58233333D01*
X153409523Y-58280952D01*
X153504761Y-58376190D01*
X153552380Y-58519047D01*
X153552380Y-58614285D01*
X152885714Y-57328571D02*
X153552380Y-57328571D01*
X152504761Y-57566666D02*
X153219047Y-57804761D01*
X153219047Y-57185714D01*
X141766666Y-60752380D02*
X141766666Y-61466666D01*
X141719047Y-61609523D01*
X141623809Y-61704761D01*
X141480952Y-61752380D01*
X141385714Y-61752380D01*
X142147619Y-60752380D02*
X142766666Y-60752380D01*
X142433333Y-61133333D01*
X142576190Y-61133333D01*
X142671428Y-61180952D01*
X142719047Y-61228571D01*
X142766666Y-61323809D01*
X142766666Y-61561904D01*
X142719047Y-61657142D01*
X142671428Y-61704761D01*
X142576190Y-61752380D01*
X142290476Y-61752380D01*
X142195238Y-61704761D01*
X142147619Y-61657142D01*
X125352380Y-72033333D02*
X126066666Y-72033333D01*
X126209523Y-72080952D01*
X126304761Y-72176190D01*
X126352380Y-72319047D01*
X126352380Y-72414285D01*
X125447619Y-71604761D02*
X125400000Y-71557142D01*
X125352380Y-71461904D01*
X125352380Y-71223809D01*
X125400000Y-71128571D01*
X125447619Y-71080952D01*
X125542857Y-71033333D01*
X125638095Y-71033333D01*
X125780952Y-71080952D01*
X126352380Y-71652380D01*
X126352380Y-71033333D01*
D13*
X123674071Y-83959514D02*
X124490500Y-83959514D01*
X124653785Y-84013942D01*
X124762642Y-84122800D01*
X124817071Y-84286085D01*
X124817071Y-84394942D01*
X124817071Y-82816514D02*
X124817071Y-83469657D01*
X124817071Y-83143085D02*
X123674071Y-83143085D01*
X123837357Y-83251942D01*
X123946214Y-83360800D01*
X124000642Y-83469657D01*
D11*
X144961904Y-80152380D02*
X144961904Y-79152380D01*
X145200000Y-79152380D01*
X145342857Y-79200000D01*
X145438095Y-79295238D01*
X145485714Y-79390476D01*
X145533333Y-79580952D01*
X145533333Y-79723809D01*
X145485714Y-79914285D01*
X145438095Y-80009523D01*
X145342857Y-80104761D01*
X145200000Y-80152380D01*
X144961904Y-80152380D01*
X146485714Y-80152380D02*
X145914285Y-80152380D01*
X146200000Y-80152380D02*
X146200000Y-79152380D01*
X146104761Y-79295238D01*
X146009523Y-79390476D01*
X145914285Y-79438095D01*
X138857142Y-80891666D02*
X138904761Y-80939285D01*
X138952380Y-81082142D01*
X138952380Y-81177380D01*
X138904761Y-81320238D01*
X138809523Y-81415476D01*
X138714285Y-81463095D01*
X138523809Y-81510714D01*
X138380952Y-81510714D01*
X138190476Y-81463095D01*
X138095238Y-81415476D01*
X138000000Y-81320238D01*
X137952380Y-81177380D01*
X137952380Y-81082142D01*
X138000000Y-80939285D01*
X138047619Y-80891666D01*
X137952380Y-80558333D02*
X137952380Y-79939285D01*
X138333333Y-80272619D01*
X138333333Y-80129761D01*
X138380952Y-80034523D01*
X138428571Y-79986904D01*
X138523809Y-79939285D01*
X138761904Y-79939285D01*
X138857142Y-79986904D01*
X138904761Y-80034523D01*
X138952380Y-80129761D01*
X138952380Y-80415476D01*
X138904761Y-80510714D01*
X138857142Y-80558333D01*
X154657142Y-79566666D02*
X154704761Y-79614285D01*
X154752380Y-79757142D01*
X154752380Y-79852380D01*
X154704761Y-79995238D01*
X154609523Y-80090476D01*
X154514285Y-80138095D01*
X154323809Y-80185714D01*
X154180952Y-80185714D01*
X153990476Y-80138095D01*
X153895238Y-80090476D01*
X153800000Y-79995238D01*
X153752380Y-79852380D01*
X153752380Y-79757142D01*
X153800000Y-79614285D01*
X153847619Y-79566666D01*
X153847619Y-79185714D02*
X153800000Y-79138095D01*
X153752380Y-79042857D01*
X153752380Y-78804761D01*
X153800000Y-78709523D01*
X153847619Y-78661904D01*
X153942857Y-78614285D01*
X154038095Y-78614285D01*
X154180952Y-78661904D01*
X154752380Y-79233333D01*
X154752380Y-78614285D01*
X152157142Y-84266666D02*
X152204761Y-84314285D01*
X152252380Y-84457142D01*
X152252380Y-84552380D01*
X152204761Y-84695238D01*
X152109523Y-84790476D01*
X152014285Y-84838095D01*
X151823809Y-84885714D01*
X151680952Y-84885714D01*
X151490476Y-84838095D01*
X151395238Y-84790476D01*
X151300000Y-84695238D01*
X151252380Y-84552380D01*
X151252380Y-84457142D01*
X151300000Y-84314285D01*
X151347619Y-84266666D01*
X152252380Y-83314285D02*
X152252380Y-83885714D01*
X152252380Y-83600000D02*
X151252380Y-83600000D01*
X151395238Y-83695238D01*
X151490476Y-83790476D01*
X151538095Y-83885714D01*
%LPC*%
D14*
X126700000Y-84200000D03*
X131300000Y-84200000D03*
X131300000Y-82800000D03*
X126700000Y-82800000D03*
D15*
X157730000Y-63124000D03*
X160270000Y-63124000D03*
X160270000Y-72876000D03*
X157730000Y-72876000D03*
D16*
G36*
X138938779Y-73575266D02*
G01*
X138964309Y-73579053D01*
X138989345Y-73585325D01*
X139013646Y-73594020D01*
X139036977Y-73605055D01*
X139059115Y-73618323D01*
X139079845Y-73633698D01*
X139098969Y-73651031D01*
X139116302Y-73670155D01*
X139131677Y-73690885D01*
X139144945Y-73713023D01*
X139155980Y-73736354D01*
X139164675Y-73760655D01*
X139170947Y-73785691D01*
X139174734Y-73811221D01*
X139176000Y-73837000D01*
X139176000Y-74363000D01*
X139174734Y-74388779D01*
X139170947Y-74414309D01*
X139164675Y-74439345D01*
X139155980Y-74463646D01*
X139144945Y-74486977D01*
X139131677Y-74509115D01*
X139116302Y-74529845D01*
X139098969Y-74548969D01*
X139079845Y-74566302D01*
X139059115Y-74581677D01*
X139036977Y-74594945D01*
X139013646Y-74605980D01*
X138989345Y-74614675D01*
X138964309Y-74620947D01*
X138938779Y-74624734D01*
X138913000Y-74626000D01*
X138287000Y-74626000D01*
X138261221Y-74624734D01*
X138235691Y-74620947D01*
X138210655Y-74614675D01*
X138186354Y-74605980D01*
X138163023Y-74594945D01*
X138140885Y-74581677D01*
X138120155Y-74566302D01*
X138101031Y-74548969D01*
X138083698Y-74529845D01*
X138068323Y-74509115D01*
X138055055Y-74486977D01*
X138044020Y-74463646D01*
X138035325Y-74439345D01*
X138029053Y-74414309D01*
X138025266Y-74388779D01*
X138024000Y-74363000D01*
X138024000Y-73837000D01*
X138025266Y-73811221D01*
X138029053Y-73785691D01*
X138035325Y-73760655D01*
X138044020Y-73736354D01*
X138055055Y-73713023D01*
X138068323Y-73690885D01*
X138083698Y-73670155D01*
X138101031Y-73651031D01*
X138120155Y-73633698D01*
X138140885Y-73618323D01*
X138163023Y-73605055D01*
X138186354Y-73594020D01*
X138210655Y-73585325D01*
X138235691Y-73579053D01*
X138261221Y-73575266D01*
X138287000Y-73574000D01*
X138913000Y-73574000D01*
X138938779Y-73575266D01*
G37*
G36*
X140688779Y-73575266D02*
G01*
X140714309Y-73579053D01*
X140739345Y-73585325D01*
X140763646Y-73594020D01*
X140786977Y-73605055D01*
X140809115Y-73618323D01*
X140829845Y-73633698D01*
X140848969Y-73651031D01*
X140866302Y-73670155D01*
X140881677Y-73690885D01*
X140894945Y-73713023D01*
X140905980Y-73736354D01*
X140914675Y-73760655D01*
X140920947Y-73785691D01*
X140924734Y-73811221D01*
X140926000Y-73837000D01*
X140926000Y-74363000D01*
X140924734Y-74388779D01*
X140920947Y-74414309D01*
X140914675Y-74439345D01*
X140905980Y-74463646D01*
X140894945Y-74486977D01*
X140881677Y-74509115D01*
X140866302Y-74529845D01*
X140848969Y-74548969D01*
X140829845Y-74566302D01*
X140809115Y-74581677D01*
X140786977Y-74594945D01*
X140763646Y-74605980D01*
X140739345Y-74614675D01*
X140714309Y-74620947D01*
X140688779Y-74624734D01*
X140663000Y-74626000D01*
X140037000Y-74626000D01*
X140011221Y-74624734D01*
X139985691Y-74620947D01*
X139960655Y-74614675D01*
X139936354Y-74605980D01*
X139913023Y-74594945D01*
X139890885Y-74581677D01*
X139870155Y-74566302D01*
X139851031Y-74548969D01*
X139833698Y-74529845D01*
X139818323Y-74509115D01*
X139805055Y-74486977D01*
X139794020Y-74463646D01*
X139785325Y-74439345D01*
X139779053Y-74414309D01*
X139775266Y-74388779D01*
X139774000Y-74363000D01*
X139774000Y-73837000D01*
X139775266Y-73811221D01*
X139779053Y-73785691D01*
X139785325Y-73760655D01*
X139794020Y-73736354D01*
X139805055Y-73713023D01*
X139818323Y-73690885D01*
X139833698Y-73670155D01*
X139851031Y-73651031D01*
X139870155Y-73633698D01*
X139890885Y-73618323D01*
X139913023Y-73605055D01*
X139936354Y-73594020D01*
X139960655Y-73585325D01*
X139985691Y-73579053D01*
X140011221Y-73575266D01*
X140037000Y-73574000D01*
X140663000Y-73574000D01*
X140688779Y-73575266D01*
G37*
G36*
X161513860Y-54325266D02*
G01*
X161539381Y-54329052D01*
X161564409Y-54335321D01*
X161588701Y-54344013D01*
X161612025Y-54355044D01*
X161634155Y-54368308D01*
X161654878Y-54383678D01*
X161673995Y-54401005D01*
X161691322Y-54420122D01*
X161706692Y-54440845D01*
X161719956Y-54462975D01*
X161730987Y-54486299D01*
X161739679Y-54510591D01*
X161745948Y-54535619D01*
X161749734Y-54561140D01*
X161751000Y-54586910D01*
X161751000Y-56138090D01*
X161749734Y-56163860D01*
X161745948Y-56189381D01*
X161739679Y-56214409D01*
X161730987Y-56238701D01*
X161719956Y-56262025D01*
X161706692Y-56284155D01*
X161691322Y-56304878D01*
X161673995Y-56323995D01*
X161654878Y-56341322D01*
X161634155Y-56356692D01*
X161612025Y-56369956D01*
X161588701Y-56380987D01*
X161564409Y-56389679D01*
X161539381Y-56395948D01*
X161513860Y-56399734D01*
X161488090Y-56401000D01*
X156511910Y-56401000D01*
X156486140Y-56399734D01*
X156460619Y-56395948D01*
X156435591Y-56389679D01*
X156411299Y-56380987D01*
X156387975Y-56369956D01*
X156365845Y-56356692D01*
X156345122Y-56341322D01*
X156326005Y-56323995D01*
X156308678Y-56304878D01*
X156293308Y-56284155D01*
X156280044Y-56262025D01*
X156269013Y-56238701D01*
X156260321Y-56214409D01*
X156254052Y-56189381D01*
X156250266Y-56163860D01*
X156249000Y-56138090D01*
X156249000Y-54586910D01*
X156250266Y-54561140D01*
X156254052Y-54535619D01*
X156260321Y-54510591D01*
X156269013Y-54486299D01*
X156280044Y-54462975D01*
X156293308Y-54440845D01*
X156308678Y-54420122D01*
X156326005Y-54401005D01*
X156345122Y-54383678D01*
X156365845Y-54368308D01*
X156387975Y-54355044D01*
X156411299Y-54344013D01*
X156435591Y-54335321D01*
X156460619Y-54329052D01*
X156486140Y-54325266D01*
X156511910Y-54324000D01*
X161488090Y-54324000D01*
X161513860Y-54325266D01*
G37*
G36*
X161513860Y-59600266D02*
G01*
X161539381Y-59604052D01*
X161564409Y-59610321D01*
X161588701Y-59619013D01*
X161612025Y-59630044D01*
X161634155Y-59643308D01*
X161654878Y-59658678D01*
X161673995Y-59676005D01*
X161691322Y-59695122D01*
X161706692Y-59715845D01*
X161719956Y-59737975D01*
X161730987Y-59761299D01*
X161739679Y-59785591D01*
X161745948Y-59810619D01*
X161749734Y-59836140D01*
X161751000Y-59861910D01*
X161751000Y-61413090D01*
X161749734Y-61438860D01*
X161745948Y-61464381D01*
X161739679Y-61489409D01*
X161730987Y-61513701D01*
X161719956Y-61537025D01*
X161706692Y-61559155D01*
X161691322Y-61579878D01*
X161673995Y-61598995D01*
X161654878Y-61616322D01*
X161634155Y-61631692D01*
X161612025Y-61644956D01*
X161588701Y-61655987D01*
X161564409Y-61664679D01*
X161539381Y-61670948D01*
X161513860Y-61674734D01*
X161488090Y-61676000D01*
X156511910Y-61676000D01*
X156486140Y-61674734D01*
X156460619Y-61670948D01*
X156435591Y-61664679D01*
X156411299Y-61655987D01*
X156387975Y-61644956D01*
X156365845Y-61631692D01*
X156345122Y-61616322D01*
X156326005Y-61598995D01*
X156308678Y-61579878D01*
X156293308Y-61559155D01*
X156280044Y-61537025D01*
X156269013Y-61513701D01*
X156260321Y-61489409D01*
X156254052Y-61464381D01*
X156250266Y-61438860D01*
X156249000Y-61413090D01*
X156249000Y-59861910D01*
X156250266Y-59836140D01*
X156254052Y-59810619D01*
X156260321Y-59785591D01*
X156269013Y-59761299D01*
X156280044Y-59737975D01*
X156293308Y-59715845D01*
X156308678Y-59695122D01*
X156326005Y-59676005D01*
X156345122Y-59658678D01*
X156365845Y-59643308D01*
X156387975Y-59630044D01*
X156411299Y-59619013D01*
X156435591Y-59610321D01*
X156460619Y-59604052D01*
X156486140Y-59600266D01*
X156511910Y-59599000D01*
X161488090Y-59599000D01*
X161513860Y-59600266D01*
G37*
G36*
X146888779Y-48525266D02*
G01*
X146914309Y-48529053D01*
X146939345Y-48535325D01*
X146963646Y-48544020D01*
X146986977Y-48555055D01*
X147009115Y-48568323D01*
X147029845Y-48583698D01*
X147048969Y-48601031D01*
X147066302Y-48620155D01*
X147081677Y-48640885D01*
X147094945Y-48663023D01*
X147105980Y-48686354D01*
X147114675Y-48710655D01*
X147120947Y-48735691D01*
X147124734Y-48761221D01*
X147126000Y-48787000D01*
X147126000Y-49413000D01*
X147124734Y-49438779D01*
X147120947Y-49464309D01*
X147114675Y-49489345D01*
X147105980Y-49513646D01*
X147094945Y-49536977D01*
X147081677Y-49559115D01*
X147066302Y-49579845D01*
X147048969Y-49598969D01*
X147029845Y-49616302D01*
X147009115Y-49631677D01*
X146986977Y-49644945D01*
X146963646Y-49655980D01*
X146939345Y-49664675D01*
X146914309Y-49670947D01*
X146888779Y-49674734D01*
X146863000Y-49676000D01*
X146337000Y-49676000D01*
X146311221Y-49674734D01*
X146285691Y-49670947D01*
X146260655Y-49664675D01*
X146236354Y-49655980D01*
X146213023Y-49644945D01*
X146190885Y-49631677D01*
X146170155Y-49616302D01*
X146151031Y-49598969D01*
X146133698Y-49579845D01*
X146118323Y-49559115D01*
X146105055Y-49536977D01*
X146094020Y-49513646D01*
X146085325Y-49489345D01*
X146079053Y-49464309D01*
X146075266Y-49438779D01*
X146074000Y-49413000D01*
X146074000Y-48787000D01*
X146075266Y-48761221D01*
X146079053Y-48735691D01*
X146085325Y-48710655D01*
X146094020Y-48686354D01*
X146105055Y-48663023D01*
X146118323Y-48640885D01*
X146133698Y-48620155D01*
X146151031Y-48601031D01*
X146170155Y-48583698D01*
X146190885Y-48568323D01*
X146213023Y-48555055D01*
X146236354Y-48544020D01*
X146260655Y-48535325D01*
X146285691Y-48529053D01*
X146311221Y-48525266D01*
X146337000Y-48524000D01*
X146863000Y-48524000D01*
X146888779Y-48525266D01*
G37*
G36*
X146888779Y-50275266D02*
G01*
X146914309Y-50279053D01*
X146939345Y-50285325D01*
X146963646Y-50294020D01*
X146986977Y-50305055D01*
X147009115Y-50318323D01*
X147029845Y-50333698D01*
X147048969Y-50351031D01*
X147066302Y-50370155D01*
X147081677Y-50390885D01*
X147094945Y-50413023D01*
X147105980Y-50436354D01*
X147114675Y-50460655D01*
X147120947Y-50485691D01*
X147124734Y-50511221D01*
X147126000Y-50537000D01*
X147126000Y-51163000D01*
X147124734Y-51188779D01*
X147120947Y-51214309D01*
X147114675Y-51239345D01*
X147105980Y-51263646D01*
X147094945Y-51286977D01*
X147081677Y-51309115D01*
X147066302Y-51329845D01*
X147048969Y-51348969D01*
X147029845Y-51366302D01*
X147009115Y-51381677D01*
X146986977Y-51394945D01*
X146963646Y-51405980D01*
X146939345Y-51414675D01*
X146914309Y-51420947D01*
X146888779Y-51424734D01*
X146863000Y-51426000D01*
X146337000Y-51426000D01*
X146311221Y-51424734D01*
X146285691Y-51420947D01*
X146260655Y-51414675D01*
X146236354Y-51405980D01*
X146213023Y-51394945D01*
X146190885Y-51381677D01*
X146170155Y-51366302D01*
X146151031Y-51348969D01*
X146133698Y-51329845D01*
X146118323Y-51309115D01*
X146105055Y-51286977D01*
X146094020Y-51263646D01*
X146085325Y-51239345D01*
X146079053Y-51214309D01*
X146075266Y-51188779D01*
X146074000Y-51163000D01*
X146074000Y-50537000D01*
X146075266Y-50511221D01*
X146079053Y-50485691D01*
X146085325Y-50460655D01*
X146094020Y-50436354D01*
X146105055Y-50413023D01*
X146118323Y-50390885D01*
X146133698Y-50370155D01*
X146151031Y-50351031D01*
X146170155Y-50333698D01*
X146190885Y-50318323D01*
X146213023Y-50305055D01*
X146236354Y-50294020D01*
X146260655Y-50285325D01*
X146285691Y-50279053D01*
X146311221Y-50275266D01*
X146337000Y-50274000D01*
X146863000Y-50274000D01*
X146888779Y-50275266D01*
G37*
G36*
X137188779Y-50325266D02*
G01*
X137214309Y-50329053D01*
X137239345Y-50335325D01*
X137263646Y-50344020D01*
X137286977Y-50355055D01*
X137309115Y-50368323D01*
X137329845Y-50383698D01*
X137348969Y-50401031D01*
X137366302Y-50420155D01*
X137381677Y-50440885D01*
X137394945Y-50463023D01*
X137405980Y-50486354D01*
X137414675Y-50510655D01*
X137420947Y-50535691D01*
X137424734Y-50561221D01*
X137426000Y-50587000D01*
X137426000Y-51213000D01*
X137424734Y-51238779D01*
X137420947Y-51264309D01*
X137414675Y-51289345D01*
X137405980Y-51313646D01*
X137394945Y-51336977D01*
X137381677Y-51359115D01*
X137366302Y-51379845D01*
X137348969Y-51398969D01*
X137329845Y-51416302D01*
X137309115Y-51431677D01*
X137286977Y-51444945D01*
X137263646Y-51455980D01*
X137239345Y-51464675D01*
X137214309Y-51470947D01*
X137188779Y-51474734D01*
X137163000Y-51476000D01*
X136637000Y-51476000D01*
X136611221Y-51474734D01*
X136585691Y-51470947D01*
X136560655Y-51464675D01*
X136536354Y-51455980D01*
X136513023Y-51444945D01*
X136490885Y-51431677D01*
X136470155Y-51416302D01*
X136451031Y-51398969D01*
X136433698Y-51379845D01*
X136418323Y-51359115D01*
X136405055Y-51336977D01*
X136394020Y-51313646D01*
X136385325Y-51289345D01*
X136379053Y-51264309D01*
X136375266Y-51238779D01*
X136374000Y-51213000D01*
X136374000Y-50587000D01*
X136375266Y-50561221D01*
X136379053Y-50535691D01*
X136385325Y-50510655D01*
X136394020Y-50486354D01*
X136405055Y-50463023D01*
X136418323Y-50440885D01*
X136433698Y-50420155D01*
X136451031Y-50401031D01*
X136470155Y-50383698D01*
X136490885Y-50368323D01*
X136513023Y-50355055D01*
X136536354Y-50344020D01*
X136560655Y-50335325D01*
X136585691Y-50329053D01*
X136611221Y-50325266D01*
X136637000Y-50324000D01*
X137163000Y-50324000D01*
X137188779Y-50325266D01*
G37*
G36*
X137188779Y-48575266D02*
G01*
X137214309Y-48579053D01*
X137239345Y-48585325D01*
X137263646Y-48594020D01*
X137286977Y-48605055D01*
X137309115Y-48618323D01*
X137329845Y-48633698D01*
X137348969Y-48651031D01*
X137366302Y-48670155D01*
X137381677Y-48690885D01*
X137394945Y-48713023D01*
X137405980Y-48736354D01*
X137414675Y-48760655D01*
X137420947Y-48785691D01*
X137424734Y-48811221D01*
X137426000Y-48837000D01*
X137426000Y-49463000D01*
X137424734Y-49488779D01*
X137420947Y-49514309D01*
X137414675Y-49539345D01*
X137405980Y-49563646D01*
X137394945Y-49586977D01*
X137381677Y-49609115D01*
X137366302Y-49629845D01*
X137348969Y-49648969D01*
X137329845Y-49666302D01*
X137309115Y-49681677D01*
X137286977Y-49694945D01*
X137263646Y-49705980D01*
X137239345Y-49714675D01*
X137214309Y-49720947D01*
X137188779Y-49724734D01*
X137163000Y-49726000D01*
X136637000Y-49726000D01*
X136611221Y-49724734D01*
X136585691Y-49720947D01*
X136560655Y-49714675D01*
X136536354Y-49705980D01*
X136513023Y-49694945D01*
X136490885Y-49681677D01*
X136470155Y-49666302D01*
X136451031Y-49648969D01*
X136433698Y-49629845D01*
X136418323Y-49609115D01*
X136405055Y-49586977D01*
X136394020Y-49563646D01*
X136385325Y-49539345D01*
X136379053Y-49514309D01*
X136375266Y-49488779D01*
X136374000Y-49463000D01*
X136374000Y-48837000D01*
X136375266Y-48811221D01*
X136379053Y-48785691D01*
X136385325Y-48760655D01*
X136394020Y-48736354D01*
X136405055Y-48713023D01*
X136418323Y-48690885D01*
X136433698Y-48670155D01*
X136451031Y-48651031D01*
X136470155Y-48633698D01*
X136490885Y-48618323D01*
X136513023Y-48605055D01*
X136536354Y-48594020D01*
X136560655Y-48585325D01*
X136585691Y-48579053D01*
X136611221Y-48575266D01*
X136637000Y-48574000D01*
X137163000Y-48574000D01*
X137188779Y-48575266D01*
G37*
G36*
X148838779Y-48575266D02*
G01*
X148864309Y-48579053D01*
X148889345Y-48585325D01*
X148913646Y-48594020D01*
X148936977Y-48605055D01*
X148959115Y-48618323D01*
X148979845Y-48633698D01*
X148998969Y-48651031D01*
X149016302Y-48670155D01*
X149031677Y-48690885D01*
X149044945Y-48713023D01*
X149055980Y-48736354D01*
X149064675Y-48760655D01*
X149070947Y-48785691D01*
X149074734Y-48811221D01*
X149076000Y-48837000D01*
X149076000Y-49363000D01*
X149074734Y-49388779D01*
X149070947Y-49414309D01*
X149064675Y-49439345D01*
X149055980Y-49463646D01*
X149044945Y-49486977D01*
X149031677Y-49509115D01*
X149016302Y-49529845D01*
X148998969Y-49548969D01*
X148979845Y-49566302D01*
X148959115Y-49581677D01*
X148936977Y-49594945D01*
X148913646Y-49605980D01*
X148889345Y-49614675D01*
X148864309Y-49620947D01*
X148838779Y-49624734D01*
X148813000Y-49626000D01*
X148187000Y-49626000D01*
X148161221Y-49624734D01*
X148135691Y-49620947D01*
X148110655Y-49614675D01*
X148086354Y-49605980D01*
X148063023Y-49594945D01*
X148040885Y-49581677D01*
X148020155Y-49566302D01*
X148001031Y-49548969D01*
X147983698Y-49529845D01*
X147968323Y-49509115D01*
X147955055Y-49486977D01*
X147944020Y-49463646D01*
X147935325Y-49439345D01*
X147929053Y-49414309D01*
X147925266Y-49388779D01*
X147924000Y-49363000D01*
X147924000Y-48837000D01*
X147925266Y-48811221D01*
X147929053Y-48785691D01*
X147935325Y-48760655D01*
X147944020Y-48736354D01*
X147955055Y-48713023D01*
X147968323Y-48690885D01*
X147983698Y-48670155D01*
X148001031Y-48651031D01*
X148020155Y-48633698D01*
X148040885Y-48618323D01*
X148063023Y-48605055D01*
X148086354Y-48594020D01*
X148110655Y-48585325D01*
X148135691Y-48579053D01*
X148161221Y-48575266D01*
X148187000Y-48574000D01*
X148813000Y-48574000D01*
X148838779Y-48575266D01*
G37*
G36*
X150588779Y-48575266D02*
G01*
X150614309Y-48579053D01*
X150639345Y-48585325D01*
X150663646Y-48594020D01*
X150686977Y-48605055D01*
X150709115Y-48618323D01*
X150729845Y-48633698D01*
X150748969Y-48651031D01*
X150766302Y-48670155D01*
X150781677Y-48690885D01*
X150794945Y-48713023D01*
X150805980Y-48736354D01*
X150814675Y-48760655D01*
X150820947Y-48785691D01*
X150824734Y-48811221D01*
X150826000Y-48837000D01*
X150826000Y-49363000D01*
X150824734Y-49388779D01*
X150820947Y-49414309D01*
X150814675Y-49439345D01*
X150805980Y-49463646D01*
X150794945Y-49486977D01*
X150781677Y-49509115D01*
X150766302Y-49529845D01*
X150748969Y-49548969D01*
X150729845Y-49566302D01*
X150709115Y-49581677D01*
X150686977Y-49594945D01*
X150663646Y-49605980D01*
X150639345Y-49614675D01*
X150614309Y-49620947D01*
X150588779Y-49624734D01*
X150563000Y-49626000D01*
X149937000Y-49626000D01*
X149911221Y-49624734D01*
X149885691Y-49620947D01*
X149860655Y-49614675D01*
X149836354Y-49605980D01*
X149813023Y-49594945D01*
X149790885Y-49581677D01*
X149770155Y-49566302D01*
X149751031Y-49548969D01*
X149733698Y-49529845D01*
X149718323Y-49509115D01*
X149705055Y-49486977D01*
X149694020Y-49463646D01*
X149685325Y-49439345D01*
X149679053Y-49414309D01*
X149675266Y-49388779D01*
X149674000Y-49363000D01*
X149674000Y-48837000D01*
X149675266Y-48811221D01*
X149679053Y-48785691D01*
X149685325Y-48760655D01*
X149694020Y-48736354D01*
X149705055Y-48713023D01*
X149718323Y-48690885D01*
X149733698Y-48670155D01*
X149751031Y-48651031D01*
X149770155Y-48633698D01*
X149790885Y-48618323D01*
X149813023Y-48605055D01*
X149836354Y-48594020D01*
X149860655Y-48585325D01*
X149885691Y-48579053D01*
X149911221Y-48575266D01*
X149937000Y-48574000D01*
X150563000Y-48574000D01*
X150588779Y-48575266D01*
G37*
G36*
X137188779Y-52150266D02*
G01*
X137214309Y-52154053D01*
X137239345Y-52160325D01*
X137263646Y-52169020D01*
X137286977Y-52180055D01*
X137309115Y-52193323D01*
X137329845Y-52208698D01*
X137348969Y-52226031D01*
X137366302Y-52245155D01*
X137381677Y-52265885D01*
X137394945Y-52288023D01*
X137405980Y-52311354D01*
X137414675Y-52335655D01*
X137420947Y-52360691D01*
X137424734Y-52386221D01*
X137426000Y-52412000D01*
X137426000Y-53038000D01*
X137424734Y-53063779D01*
X137420947Y-53089309D01*
X137414675Y-53114345D01*
X137405980Y-53138646D01*
X137394945Y-53161977D01*
X137381677Y-53184115D01*
X137366302Y-53204845D01*
X137348969Y-53223969D01*
X137329845Y-53241302D01*
X137309115Y-53256677D01*
X137286977Y-53269945D01*
X137263646Y-53280980D01*
X137239345Y-53289675D01*
X137214309Y-53295947D01*
X137188779Y-53299734D01*
X137163000Y-53301000D01*
X136637000Y-53301000D01*
X136611221Y-53299734D01*
X136585691Y-53295947D01*
X136560655Y-53289675D01*
X136536354Y-53280980D01*
X136513023Y-53269945D01*
X136490885Y-53256677D01*
X136470155Y-53241302D01*
X136451031Y-53223969D01*
X136433698Y-53204845D01*
X136418323Y-53184115D01*
X136405055Y-53161977D01*
X136394020Y-53138646D01*
X136385325Y-53114345D01*
X136379053Y-53089309D01*
X136375266Y-53063779D01*
X136374000Y-53038000D01*
X136374000Y-52412000D01*
X136375266Y-52386221D01*
X136379053Y-52360691D01*
X136385325Y-52335655D01*
X136394020Y-52311354D01*
X136405055Y-52288023D01*
X136418323Y-52265885D01*
X136433698Y-52245155D01*
X136451031Y-52226031D01*
X136470155Y-52208698D01*
X136490885Y-52193323D01*
X136513023Y-52180055D01*
X136536354Y-52169020D01*
X136560655Y-52160325D01*
X136585691Y-52154053D01*
X136611221Y-52150266D01*
X136637000Y-52149000D01*
X137163000Y-52149000D01*
X137188779Y-52150266D01*
G37*
G36*
X137188779Y-53900266D02*
G01*
X137214309Y-53904053D01*
X137239345Y-53910325D01*
X137263646Y-53919020D01*
X137286977Y-53930055D01*
X137309115Y-53943323D01*
X137329845Y-53958698D01*
X137348969Y-53976031D01*
X137366302Y-53995155D01*
X137381677Y-54015885D01*
X137394945Y-54038023D01*
X137405980Y-54061354D01*
X137414675Y-54085655D01*
X137420947Y-54110691D01*
X137424734Y-54136221D01*
X137426000Y-54162000D01*
X137426000Y-54788000D01*
X137424734Y-54813779D01*
X137420947Y-54839309D01*
X137414675Y-54864345D01*
X137405980Y-54888646D01*
X137394945Y-54911977D01*
X137381677Y-54934115D01*
X137366302Y-54954845D01*
X137348969Y-54973969D01*
X137329845Y-54991302D01*
X137309115Y-55006677D01*
X137286977Y-55019945D01*
X137263646Y-55030980D01*
X137239345Y-55039675D01*
X137214309Y-55045947D01*
X137188779Y-55049734D01*
X137163000Y-55051000D01*
X136637000Y-55051000D01*
X136611221Y-55049734D01*
X136585691Y-55045947D01*
X136560655Y-55039675D01*
X136536354Y-55030980D01*
X136513023Y-55019945D01*
X136490885Y-55006677D01*
X136470155Y-54991302D01*
X136451031Y-54973969D01*
X136433698Y-54954845D01*
X136418323Y-54934115D01*
X136405055Y-54911977D01*
X136394020Y-54888646D01*
X136385325Y-54864345D01*
X136379053Y-54839309D01*
X136375266Y-54813779D01*
X136374000Y-54788000D01*
X136374000Y-54162000D01*
X136375266Y-54136221D01*
X136379053Y-54110691D01*
X136385325Y-54085655D01*
X136394020Y-54061354D01*
X136405055Y-54038023D01*
X136418323Y-54015885D01*
X136433698Y-53995155D01*
X136451031Y-53976031D01*
X136470155Y-53958698D01*
X136490885Y-53943323D01*
X136513023Y-53930055D01*
X136536354Y-53919020D01*
X136560655Y-53910325D01*
X136585691Y-53904053D01*
X136611221Y-53900266D01*
X136637000Y-53899000D01*
X137163000Y-53899000D01*
X137188779Y-53900266D01*
G37*
D17*
X127100000Y-53920000D03*
X127100000Y-51380000D03*
X127100000Y-48840000D03*
D18*
X127100000Y-46300000D03*
D19*
X151850000Y-51500000D03*
X151850000Y-53400000D03*
X149150000Y-53400000D03*
X149150000Y-52450000D03*
X149150000Y-51500000D03*
X131800000Y-51800000D03*
X131800000Y-49900000D03*
X134500000Y-49900000D03*
X134500000Y-50850000D03*
X134500000Y-51800000D03*
D16*
G36*
X149038779Y-46575266D02*
G01*
X149064309Y-46579053D01*
X149089345Y-46585325D01*
X149113646Y-46594020D01*
X149136977Y-46605055D01*
X149159115Y-46618323D01*
X149179845Y-46633698D01*
X149198969Y-46651031D01*
X149216302Y-46670155D01*
X149231677Y-46690885D01*
X149244945Y-46713023D01*
X149255980Y-46736354D01*
X149264675Y-46760655D01*
X149270947Y-46785691D01*
X149274734Y-46811221D01*
X149276000Y-46837000D01*
X149276000Y-47363000D01*
X149274734Y-47388779D01*
X149270947Y-47414309D01*
X149264675Y-47439345D01*
X149255980Y-47463646D01*
X149244945Y-47486977D01*
X149231677Y-47509115D01*
X149216302Y-47529845D01*
X149198969Y-47548969D01*
X149179845Y-47566302D01*
X149159115Y-47581677D01*
X149136977Y-47594945D01*
X149113646Y-47605980D01*
X149089345Y-47614675D01*
X149064309Y-47620947D01*
X149038779Y-47624734D01*
X149013000Y-47626000D01*
X148387000Y-47626000D01*
X148361221Y-47624734D01*
X148335691Y-47620947D01*
X148310655Y-47614675D01*
X148286354Y-47605980D01*
X148263023Y-47594945D01*
X148240885Y-47581677D01*
X148220155Y-47566302D01*
X148201031Y-47548969D01*
X148183698Y-47529845D01*
X148168323Y-47509115D01*
X148155055Y-47486977D01*
X148144020Y-47463646D01*
X148135325Y-47439345D01*
X148129053Y-47414309D01*
X148125266Y-47388779D01*
X148124000Y-47363000D01*
X148124000Y-46837000D01*
X148125266Y-46811221D01*
X148129053Y-46785691D01*
X148135325Y-46760655D01*
X148144020Y-46736354D01*
X148155055Y-46713023D01*
X148168323Y-46690885D01*
X148183698Y-46670155D01*
X148201031Y-46651031D01*
X148220155Y-46633698D01*
X148240885Y-46618323D01*
X148263023Y-46605055D01*
X148286354Y-46594020D01*
X148310655Y-46585325D01*
X148335691Y-46579053D01*
X148361221Y-46575266D01*
X148387000Y-46574000D01*
X149013000Y-46574000D01*
X149038779Y-46575266D01*
G37*
G36*
X147288779Y-46575266D02*
G01*
X147314309Y-46579053D01*
X147339345Y-46585325D01*
X147363646Y-46594020D01*
X147386977Y-46605055D01*
X147409115Y-46618323D01*
X147429845Y-46633698D01*
X147448969Y-46651031D01*
X147466302Y-46670155D01*
X147481677Y-46690885D01*
X147494945Y-46713023D01*
X147505980Y-46736354D01*
X147514675Y-46760655D01*
X147520947Y-46785691D01*
X147524734Y-46811221D01*
X147526000Y-46837000D01*
X147526000Y-47363000D01*
X147524734Y-47388779D01*
X147520947Y-47414309D01*
X147514675Y-47439345D01*
X147505980Y-47463646D01*
X147494945Y-47486977D01*
X147481677Y-47509115D01*
X147466302Y-47529845D01*
X147448969Y-47548969D01*
X147429845Y-47566302D01*
X147409115Y-47581677D01*
X147386977Y-47594945D01*
X147363646Y-47605980D01*
X147339345Y-47614675D01*
X147314309Y-47620947D01*
X147288779Y-47624734D01*
X147263000Y-47626000D01*
X146637000Y-47626000D01*
X146611221Y-47624734D01*
X146585691Y-47620947D01*
X146560655Y-47614675D01*
X146536354Y-47605980D01*
X146513023Y-47594945D01*
X146490885Y-47581677D01*
X146470155Y-47566302D01*
X146451031Y-47548969D01*
X146433698Y-47529845D01*
X146418323Y-47509115D01*
X146405055Y-47486977D01*
X146394020Y-47463646D01*
X146385325Y-47439345D01*
X146379053Y-47414309D01*
X146375266Y-47388779D01*
X146374000Y-47363000D01*
X146374000Y-46837000D01*
X146375266Y-46811221D01*
X146379053Y-46785691D01*
X146385325Y-46760655D01*
X146394020Y-46736354D01*
X146405055Y-46713023D01*
X146418323Y-46690885D01*
X146433698Y-46670155D01*
X146451031Y-46651031D01*
X146470155Y-46633698D01*
X146490885Y-46618323D01*
X146513023Y-46605055D01*
X146536354Y-46594020D01*
X146560655Y-46585325D01*
X146585691Y-46579053D01*
X146611221Y-46575266D01*
X146637000Y-46574000D01*
X147263000Y-46574000D01*
X147288779Y-46575266D01*
G37*
G36*
X135263779Y-44075266D02*
G01*
X135289309Y-44079053D01*
X135314345Y-44085325D01*
X135338646Y-44094020D01*
X135361977Y-44105055D01*
X135384115Y-44118323D01*
X135404845Y-44133698D01*
X135423969Y-44151031D01*
X135441302Y-44170155D01*
X135456677Y-44190885D01*
X135469945Y-44213023D01*
X135480980Y-44236354D01*
X135489675Y-44260655D01*
X135495947Y-44285691D01*
X135499734Y-44311221D01*
X135501000Y-44337000D01*
X135501000Y-44863000D01*
X135499734Y-44888779D01*
X135495947Y-44914309D01*
X135489675Y-44939345D01*
X135480980Y-44963646D01*
X135469945Y-44986977D01*
X135456677Y-45009115D01*
X135441302Y-45029845D01*
X135423969Y-45048969D01*
X135404845Y-45066302D01*
X135384115Y-45081677D01*
X135361977Y-45094945D01*
X135338646Y-45105980D01*
X135314345Y-45114675D01*
X135289309Y-45120947D01*
X135263779Y-45124734D01*
X135238000Y-45126000D01*
X134612000Y-45126000D01*
X134586221Y-45124734D01*
X134560691Y-45120947D01*
X134535655Y-45114675D01*
X134511354Y-45105980D01*
X134488023Y-45094945D01*
X134465885Y-45081677D01*
X134445155Y-45066302D01*
X134426031Y-45048969D01*
X134408698Y-45029845D01*
X134393323Y-45009115D01*
X134380055Y-44986977D01*
X134369020Y-44963646D01*
X134360325Y-44939345D01*
X134354053Y-44914309D01*
X134350266Y-44888779D01*
X134349000Y-44863000D01*
X134349000Y-44337000D01*
X134350266Y-44311221D01*
X134354053Y-44285691D01*
X134360325Y-44260655D01*
X134369020Y-44236354D01*
X134380055Y-44213023D01*
X134393323Y-44190885D01*
X134408698Y-44170155D01*
X134426031Y-44151031D01*
X134445155Y-44133698D01*
X134465885Y-44118323D01*
X134488023Y-44105055D01*
X134511354Y-44094020D01*
X134535655Y-44085325D01*
X134560691Y-44079053D01*
X134586221Y-44075266D01*
X134612000Y-44074000D01*
X135238000Y-44074000D01*
X135263779Y-44075266D01*
G37*
G36*
X137013779Y-44075266D02*
G01*
X137039309Y-44079053D01*
X137064345Y-44085325D01*
X137088646Y-44094020D01*
X137111977Y-44105055D01*
X137134115Y-44118323D01*
X137154845Y-44133698D01*
X137173969Y-44151031D01*
X137191302Y-44170155D01*
X137206677Y-44190885D01*
X137219945Y-44213023D01*
X137230980Y-44236354D01*
X137239675Y-44260655D01*
X137245947Y-44285691D01*
X137249734Y-44311221D01*
X137251000Y-44337000D01*
X137251000Y-44863000D01*
X137249734Y-44888779D01*
X137245947Y-44914309D01*
X137239675Y-44939345D01*
X137230980Y-44963646D01*
X137219945Y-44986977D01*
X137206677Y-45009115D01*
X137191302Y-45029845D01*
X137173969Y-45048969D01*
X137154845Y-45066302D01*
X137134115Y-45081677D01*
X137111977Y-45094945D01*
X137088646Y-45105980D01*
X137064345Y-45114675D01*
X137039309Y-45120947D01*
X137013779Y-45124734D01*
X136988000Y-45126000D01*
X136362000Y-45126000D01*
X136336221Y-45124734D01*
X136310691Y-45120947D01*
X136285655Y-45114675D01*
X136261354Y-45105980D01*
X136238023Y-45094945D01*
X136215885Y-45081677D01*
X136195155Y-45066302D01*
X136176031Y-45048969D01*
X136158698Y-45029845D01*
X136143323Y-45009115D01*
X136130055Y-44986977D01*
X136119020Y-44963646D01*
X136110325Y-44939345D01*
X136104053Y-44914309D01*
X136100266Y-44888779D01*
X136099000Y-44863000D01*
X136099000Y-44337000D01*
X136100266Y-44311221D01*
X136104053Y-44285691D01*
X136110325Y-44260655D01*
X136119020Y-44236354D01*
X136130055Y-44213023D01*
X136143323Y-44190885D01*
X136158698Y-44170155D01*
X136176031Y-44151031D01*
X136195155Y-44133698D01*
X136215885Y-44118323D01*
X136238023Y-44105055D01*
X136261354Y-44094020D01*
X136285655Y-44085325D01*
X136310691Y-44079053D01*
X136336221Y-44075266D01*
X136362000Y-44074000D01*
X136988000Y-44074000D01*
X137013779Y-44075266D01*
G37*
G36*
X136838779Y-46575266D02*
G01*
X136864309Y-46579053D01*
X136889345Y-46585325D01*
X136913646Y-46594020D01*
X136936977Y-46605055D01*
X136959115Y-46618323D01*
X136979845Y-46633698D01*
X136998969Y-46651031D01*
X137016302Y-46670155D01*
X137031677Y-46690885D01*
X137044945Y-46713023D01*
X137055980Y-46736354D01*
X137064675Y-46760655D01*
X137070947Y-46785691D01*
X137074734Y-46811221D01*
X137076000Y-46837000D01*
X137076000Y-47363000D01*
X137074734Y-47388779D01*
X137070947Y-47414309D01*
X137064675Y-47439345D01*
X137055980Y-47463646D01*
X137044945Y-47486977D01*
X137031677Y-47509115D01*
X137016302Y-47529845D01*
X136998969Y-47548969D01*
X136979845Y-47566302D01*
X136959115Y-47581677D01*
X136936977Y-47594945D01*
X136913646Y-47605980D01*
X136889345Y-47614675D01*
X136864309Y-47620947D01*
X136838779Y-47624734D01*
X136813000Y-47626000D01*
X136187000Y-47626000D01*
X136161221Y-47624734D01*
X136135691Y-47620947D01*
X136110655Y-47614675D01*
X136086354Y-47605980D01*
X136063023Y-47594945D01*
X136040885Y-47581677D01*
X136020155Y-47566302D01*
X136001031Y-47548969D01*
X135983698Y-47529845D01*
X135968323Y-47509115D01*
X135955055Y-47486977D01*
X135944020Y-47463646D01*
X135935325Y-47439345D01*
X135929053Y-47414309D01*
X135925266Y-47388779D01*
X135924000Y-47363000D01*
X135924000Y-46837000D01*
X135925266Y-46811221D01*
X135929053Y-46785691D01*
X135935325Y-46760655D01*
X135944020Y-46736354D01*
X135955055Y-46713023D01*
X135968323Y-46690885D01*
X135983698Y-46670155D01*
X136001031Y-46651031D01*
X136020155Y-46633698D01*
X136040885Y-46618323D01*
X136063023Y-46605055D01*
X136086354Y-46594020D01*
X136110655Y-46585325D01*
X136135691Y-46579053D01*
X136161221Y-46575266D01*
X136187000Y-46574000D01*
X136813000Y-46574000D01*
X136838779Y-46575266D01*
G37*
G36*
X135088779Y-46575266D02*
G01*
X135114309Y-46579053D01*
X135139345Y-46585325D01*
X135163646Y-46594020D01*
X135186977Y-46605055D01*
X135209115Y-46618323D01*
X135229845Y-46633698D01*
X135248969Y-46651031D01*
X135266302Y-46670155D01*
X135281677Y-46690885D01*
X135294945Y-46713023D01*
X135305980Y-46736354D01*
X135314675Y-46760655D01*
X135320947Y-46785691D01*
X135324734Y-46811221D01*
X135326000Y-46837000D01*
X135326000Y-47363000D01*
X135324734Y-47388779D01*
X135320947Y-47414309D01*
X135314675Y-47439345D01*
X135305980Y-47463646D01*
X135294945Y-47486977D01*
X135281677Y-47509115D01*
X135266302Y-47529845D01*
X135248969Y-47548969D01*
X135229845Y-47566302D01*
X135209115Y-47581677D01*
X135186977Y-47594945D01*
X135163646Y-47605980D01*
X135139345Y-47614675D01*
X135114309Y-47620947D01*
X135088779Y-47624734D01*
X135063000Y-47626000D01*
X134437000Y-47626000D01*
X134411221Y-47624734D01*
X134385691Y-47620947D01*
X134360655Y-47614675D01*
X134336354Y-47605980D01*
X134313023Y-47594945D01*
X134290885Y-47581677D01*
X134270155Y-47566302D01*
X134251031Y-47548969D01*
X134233698Y-47529845D01*
X134218323Y-47509115D01*
X134205055Y-47486977D01*
X134194020Y-47463646D01*
X134185325Y-47439345D01*
X134179053Y-47414309D01*
X134175266Y-47388779D01*
X134174000Y-47363000D01*
X134174000Y-46837000D01*
X134175266Y-46811221D01*
X134179053Y-46785691D01*
X134185325Y-46760655D01*
X134194020Y-46736354D01*
X134205055Y-46713023D01*
X134218323Y-46690885D01*
X134233698Y-46670155D01*
X134251031Y-46651031D01*
X134270155Y-46633698D01*
X134290885Y-46618323D01*
X134313023Y-46605055D01*
X134336354Y-46594020D01*
X134360655Y-46585325D01*
X134385691Y-46579053D01*
X134411221Y-46575266D01*
X134437000Y-46574000D01*
X135063000Y-46574000D01*
X135088779Y-46575266D01*
G37*
G36*
X154413779Y-48775266D02*
G01*
X154439309Y-48779053D01*
X154464345Y-48785325D01*
X154488646Y-48794020D01*
X154511977Y-48805055D01*
X154534115Y-48818323D01*
X154554845Y-48833698D01*
X154573969Y-48851031D01*
X154591302Y-48870155D01*
X154606677Y-48890885D01*
X154619945Y-48913023D01*
X154630980Y-48936354D01*
X154639675Y-48960655D01*
X154645947Y-48985691D01*
X154649734Y-49011221D01*
X154651000Y-49037000D01*
X154651000Y-49563000D01*
X154649734Y-49588779D01*
X154645947Y-49614309D01*
X154639675Y-49639345D01*
X154630980Y-49663646D01*
X154619945Y-49686977D01*
X154606677Y-49709115D01*
X154591302Y-49729845D01*
X154573969Y-49748969D01*
X154554845Y-49766302D01*
X154534115Y-49781677D01*
X154511977Y-49794945D01*
X154488646Y-49805980D01*
X154464345Y-49814675D01*
X154439309Y-49820947D01*
X154413779Y-49824734D01*
X154388000Y-49826000D01*
X153762000Y-49826000D01*
X153736221Y-49824734D01*
X153710691Y-49820947D01*
X153685655Y-49814675D01*
X153661354Y-49805980D01*
X153638023Y-49794945D01*
X153615885Y-49781677D01*
X153595155Y-49766302D01*
X153576031Y-49748969D01*
X153558698Y-49729845D01*
X153543323Y-49709115D01*
X153530055Y-49686977D01*
X153519020Y-49663646D01*
X153510325Y-49639345D01*
X153504053Y-49614309D01*
X153500266Y-49588779D01*
X153499000Y-49563000D01*
X153499000Y-49037000D01*
X153500266Y-49011221D01*
X153504053Y-48985691D01*
X153510325Y-48960655D01*
X153519020Y-48936354D01*
X153530055Y-48913023D01*
X153543323Y-48890885D01*
X153558698Y-48870155D01*
X153576031Y-48851031D01*
X153595155Y-48833698D01*
X153615885Y-48818323D01*
X153638023Y-48805055D01*
X153661354Y-48794020D01*
X153685655Y-48785325D01*
X153710691Y-48779053D01*
X153736221Y-48775266D01*
X153762000Y-48774000D01*
X154388000Y-48774000D01*
X154413779Y-48775266D01*
G37*
G36*
X152663779Y-48775266D02*
G01*
X152689309Y-48779053D01*
X152714345Y-48785325D01*
X152738646Y-48794020D01*
X152761977Y-48805055D01*
X152784115Y-48818323D01*
X152804845Y-48833698D01*
X152823969Y-48851031D01*
X152841302Y-48870155D01*
X152856677Y-48890885D01*
X152869945Y-48913023D01*
X152880980Y-48936354D01*
X152889675Y-48960655D01*
X152895947Y-48985691D01*
X152899734Y-49011221D01*
X152901000Y-49037000D01*
X152901000Y-49563000D01*
X152899734Y-49588779D01*
X152895947Y-49614309D01*
X152889675Y-49639345D01*
X152880980Y-49663646D01*
X152869945Y-49686977D01*
X152856677Y-49709115D01*
X152841302Y-49729845D01*
X152823969Y-49748969D01*
X152804845Y-49766302D01*
X152784115Y-49781677D01*
X152761977Y-49794945D01*
X152738646Y-49805980D01*
X152714345Y-49814675D01*
X152689309Y-49820947D01*
X152663779Y-49824734D01*
X152638000Y-49826000D01*
X152012000Y-49826000D01*
X151986221Y-49824734D01*
X151960691Y-49820947D01*
X151935655Y-49814675D01*
X151911354Y-49805980D01*
X151888023Y-49794945D01*
X151865885Y-49781677D01*
X151845155Y-49766302D01*
X151826031Y-49748969D01*
X151808698Y-49729845D01*
X151793323Y-49709115D01*
X151780055Y-49686977D01*
X151769020Y-49663646D01*
X151760325Y-49639345D01*
X151754053Y-49614309D01*
X151750266Y-49588779D01*
X151749000Y-49563000D01*
X151749000Y-49037000D01*
X151750266Y-49011221D01*
X151754053Y-48985691D01*
X151760325Y-48960655D01*
X151769020Y-48936354D01*
X151780055Y-48913023D01*
X151793323Y-48890885D01*
X151808698Y-48870155D01*
X151826031Y-48851031D01*
X151845155Y-48833698D01*
X151865885Y-48818323D01*
X151888023Y-48805055D01*
X151911354Y-48794020D01*
X151935655Y-48785325D01*
X151960691Y-48779053D01*
X151986221Y-48775266D01*
X152012000Y-48774000D01*
X152638000Y-48774000D01*
X152663779Y-48775266D01*
G37*
G36*
X133913779Y-53475266D02*
G01*
X133939309Y-53479053D01*
X133964345Y-53485325D01*
X133988646Y-53494020D01*
X134011977Y-53505055D01*
X134034115Y-53518323D01*
X134054845Y-53533698D01*
X134073969Y-53551031D01*
X134091302Y-53570155D01*
X134106677Y-53590885D01*
X134119945Y-53613023D01*
X134130980Y-53636354D01*
X134139675Y-53660655D01*
X134145947Y-53685691D01*
X134149734Y-53711221D01*
X134151000Y-53737000D01*
X134151000Y-54263000D01*
X134149734Y-54288779D01*
X134145947Y-54314309D01*
X134139675Y-54339345D01*
X134130980Y-54363646D01*
X134119945Y-54386977D01*
X134106677Y-54409115D01*
X134091302Y-54429845D01*
X134073969Y-54448969D01*
X134054845Y-54466302D01*
X134034115Y-54481677D01*
X134011977Y-54494945D01*
X133988646Y-54505980D01*
X133964345Y-54514675D01*
X133939309Y-54520947D01*
X133913779Y-54524734D01*
X133888000Y-54526000D01*
X133262000Y-54526000D01*
X133236221Y-54524734D01*
X133210691Y-54520947D01*
X133185655Y-54514675D01*
X133161354Y-54505980D01*
X133138023Y-54494945D01*
X133115885Y-54481677D01*
X133095155Y-54466302D01*
X133076031Y-54448969D01*
X133058698Y-54429845D01*
X133043323Y-54409115D01*
X133030055Y-54386977D01*
X133019020Y-54363646D01*
X133010325Y-54339345D01*
X133004053Y-54314309D01*
X133000266Y-54288779D01*
X132999000Y-54263000D01*
X132999000Y-53737000D01*
X133000266Y-53711221D01*
X133004053Y-53685691D01*
X133010325Y-53660655D01*
X133019020Y-53636354D01*
X133030055Y-53613023D01*
X133043323Y-53590885D01*
X133058698Y-53570155D01*
X133076031Y-53551031D01*
X133095155Y-53533698D01*
X133115885Y-53518323D01*
X133138023Y-53505055D01*
X133161354Y-53494020D01*
X133185655Y-53485325D01*
X133210691Y-53479053D01*
X133236221Y-53475266D01*
X133262000Y-53474000D01*
X133888000Y-53474000D01*
X133913779Y-53475266D01*
G37*
G36*
X132163779Y-53475266D02*
G01*
X132189309Y-53479053D01*
X132214345Y-53485325D01*
X132238646Y-53494020D01*
X132261977Y-53505055D01*
X132284115Y-53518323D01*
X132304845Y-53533698D01*
X132323969Y-53551031D01*
X132341302Y-53570155D01*
X132356677Y-53590885D01*
X132369945Y-53613023D01*
X132380980Y-53636354D01*
X132389675Y-53660655D01*
X132395947Y-53685691D01*
X132399734Y-53711221D01*
X132401000Y-53737000D01*
X132401000Y-54263000D01*
X132399734Y-54288779D01*
X132395947Y-54314309D01*
X132389675Y-54339345D01*
X132380980Y-54363646D01*
X132369945Y-54386977D01*
X132356677Y-54409115D01*
X132341302Y-54429845D01*
X132323969Y-54448969D01*
X132304845Y-54466302D01*
X132284115Y-54481677D01*
X132261977Y-54494945D01*
X132238646Y-54505980D01*
X132214345Y-54514675D01*
X132189309Y-54520947D01*
X132163779Y-54524734D01*
X132138000Y-54526000D01*
X131512000Y-54526000D01*
X131486221Y-54524734D01*
X131460691Y-54520947D01*
X131435655Y-54514675D01*
X131411354Y-54505980D01*
X131388023Y-54494945D01*
X131365885Y-54481677D01*
X131345155Y-54466302D01*
X131326031Y-54448969D01*
X131308698Y-54429845D01*
X131293323Y-54409115D01*
X131280055Y-54386977D01*
X131269020Y-54363646D01*
X131260325Y-54339345D01*
X131254053Y-54314309D01*
X131250266Y-54288779D01*
X131249000Y-54263000D01*
X131249000Y-53737000D01*
X131250266Y-53711221D01*
X131254053Y-53685691D01*
X131260325Y-53660655D01*
X131269020Y-53636354D01*
X131280055Y-53613023D01*
X131293323Y-53590885D01*
X131308698Y-53570155D01*
X131326031Y-53551031D01*
X131345155Y-53533698D01*
X131365885Y-53518323D01*
X131388023Y-53505055D01*
X131411354Y-53494020D01*
X131435655Y-53485325D01*
X131460691Y-53479053D01*
X131486221Y-53475266D01*
X131512000Y-53474000D01*
X132138000Y-53474000D01*
X132163779Y-53475266D01*
G37*
G36*
X149038779Y-44675266D02*
G01*
X149064309Y-44679053D01*
X149089345Y-44685325D01*
X149113646Y-44694020D01*
X149136977Y-44705055D01*
X149159115Y-44718323D01*
X149179845Y-44733698D01*
X149198969Y-44751031D01*
X149216302Y-44770155D01*
X149231677Y-44790885D01*
X149244945Y-44813023D01*
X149255980Y-44836354D01*
X149264675Y-44860655D01*
X149270947Y-44885691D01*
X149274734Y-44911221D01*
X149276000Y-44937000D01*
X149276000Y-45463000D01*
X149274734Y-45488779D01*
X149270947Y-45514309D01*
X149264675Y-45539345D01*
X149255980Y-45563646D01*
X149244945Y-45586977D01*
X149231677Y-45609115D01*
X149216302Y-45629845D01*
X149198969Y-45648969D01*
X149179845Y-45666302D01*
X149159115Y-45681677D01*
X149136977Y-45694945D01*
X149113646Y-45705980D01*
X149089345Y-45714675D01*
X149064309Y-45720947D01*
X149038779Y-45724734D01*
X149013000Y-45726000D01*
X148387000Y-45726000D01*
X148361221Y-45724734D01*
X148335691Y-45720947D01*
X148310655Y-45714675D01*
X148286354Y-45705980D01*
X148263023Y-45694945D01*
X148240885Y-45681677D01*
X148220155Y-45666302D01*
X148201031Y-45648969D01*
X148183698Y-45629845D01*
X148168323Y-45609115D01*
X148155055Y-45586977D01*
X148144020Y-45563646D01*
X148135325Y-45539345D01*
X148129053Y-45514309D01*
X148125266Y-45488779D01*
X148124000Y-45463000D01*
X148124000Y-44937000D01*
X148125266Y-44911221D01*
X148129053Y-44885691D01*
X148135325Y-44860655D01*
X148144020Y-44836354D01*
X148155055Y-44813023D01*
X148168323Y-44790885D01*
X148183698Y-44770155D01*
X148201031Y-44751031D01*
X148220155Y-44733698D01*
X148240885Y-44718323D01*
X148263023Y-44705055D01*
X148286354Y-44694020D01*
X148310655Y-44685325D01*
X148335691Y-44679053D01*
X148361221Y-44675266D01*
X148387000Y-44674000D01*
X149013000Y-44674000D01*
X149038779Y-44675266D01*
G37*
G36*
X147288779Y-44675266D02*
G01*
X147314309Y-44679053D01*
X147339345Y-44685325D01*
X147363646Y-44694020D01*
X147386977Y-44705055D01*
X147409115Y-44718323D01*
X147429845Y-44733698D01*
X147448969Y-44751031D01*
X147466302Y-44770155D01*
X147481677Y-44790885D01*
X147494945Y-44813023D01*
X147505980Y-44836354D01*
X147514675Y-44860655D01*
X147520947Y-44885691D01*
X147524734Y-44911221D01*
X147526000Y-44937000D01*
X147526000Y-45463000D01*
X147524734Y-45488779D01*
X147520947Y-45514309D01*
X147514675Y-45539345D01*
X147505980Y-45563646D01*
X147494945Y-45586977D01*
X147481677Y-45609115D01*
X147466302Y-45629845D01*
X147448969Y-45648969D01*
X147429845Y-45666302D01*
X147409115Y-45681677D01*
X147386977Y-45694945D01*
X147363646Y-45705980D01*
X147339345Y-45714675D01*
X147314309Y-45720947D01*
X147288779Y-45724734D01*
X147263000Y-45726000D01*
X146637000Y-45726000D01*
X146611221Y-45724734D01*
X146585691Y-45720947D01*
X146560655Y-45714675D01*
X146536354Y-45705980D01*
X146513023Y-45694945D01*
X146490885Y-45681677D01*
X146470155Y-45666302D01*
X146451031Y-45648969D01*
X146433698Y-45629845D01*
X146418323Y-45609115D01*
X146405055Y-45586977D01*
X146394020Y-45563646D01*
X146385325Y-45539345D01*
X146379053Y-45514309D01*
X146375266Y-45488779D01*
X146374000Y-45463000D01*
X146374000Y-44937000D01*
X146375266Y-44911221D01*
X146379053Y-44885691D01*
X146385325Y-44860655D01*
X146394020Y-44836354D01*
X146405055Y-44813023D01*
X146418323Y-44790885D01*
X146433698Y-44770155D01*
X146451031Y-44751031D01*
X146470155Y-44733698D01*
X146490885Y-44718323D01*
X146513023Y-44705055D01*
X146536354Y-44694020D01*
X146560655Y-44685325D01*
X146585691Y-44679053D01*
X146611221Y-44675266D01*
X146637000Y-44674000D01*
X147263000Y-44674000D01*
X147288779Y-44675266D01*
G37*
G36*
X135238779Y-42275266D02*
G01*
X135264309Y-42279053D01*
X135289345Y-42285325D01*
X135313646Y-42294020D01*
X135336977Y-42305055D01*
X135359115Y-42318323D01*
X135379845Y-42333698D01*
X135398969Y-42351031D01*
X135416302Y-42370155D01*
X135431677Y-42390885D01*
X135444945Y-42413023D01*
X135455980Y-42436354D01*
X135464675Y-42460655D01*
X135470947Y-42485691D01*
X135474734Y-42511221D01*
X135476000Y-42537000D01*
X135476000Y-43063000D01*
X135474734Y-43088779D01*
X135470947Y-43114309D01*
X135464675Y-43139345D01*
X135455980Y-43163646D01*
X135444945Y-43186977D01*
X135431677Y-43209115D01*
X135416302Y-43229845D01*
X135398969Y-43248969D01*
X135379845Y-43266302D01*
X135359115Y-43281677D01*
X135336977Y-43294945D01*
X135313646Y-43305980D01*
X135289345Y-43314675D01*
X135264309Y-43320947D01*
X135238779Y-43324734D01*
X135213000Y-43326000D01*
X134587000Y-43326000D01*
X134561221Y-43324734D01*
X134535691Y-43320947D01*
X134510655Y-43314675D01*
X134486354Y-43305980D01*
X134463023Y-43294945D01*
X134440885Y-43281677D01*
X134420155Y-43266302D01*
X134401031Y-43248969D01*
X134383698Y-43229845D01*
X134368323Y-43209115D01*
X134355055Y-43186977D01*
X134344020Y-43163646D01*
X134335325Y-43139345D01*
X134329053Y-43114309D01*
X134325266Y-43088779D01*
X134324000Y-43063000D01*
X134324000Y-42537000D01*
X134325266Y-42511221D01*
X134329053Y-42485691D01*
X134335325Y-42460655D01*
X134344020Y-42436354D01*
X134355055Y-42413023D01*
X134368323Y-42390885D01*
X134383698Y-42370155D01*
X134401031Y-42351031D01*
X134420155Y-42333698D01*
X134440885Y-42318323D01*
X134463023Y-42305055D01*
X134486354Y-42294020D01*
X134510655Y-42285325D01*
X134535691Y-42279053D01*
X134561221Y-42275266D01*
X134587000Y-42274000D01*
X135213000Y-42274000D01*
X135238779Y-42275266D01*
G37*
G36*
X136988779Y-42275266D02*
G01*
X137014309Y-42279053D01*
X137039345Y-42285325D01*
X137063646Y-42294020D01*
X137086977Y-42305055D01*
X137109115Y-42318323D01*
X137129845Y-42333698D01*
X137148969Y-42351031D01*
X137166302Y-42370155D01*
X137181677Y-42390885D01*
X137194945Y-42413023D01*
X137205980Y-42436354D01*
X137214675Y-42460655D01*
X137220947Y-42485691D01*
X137224734Y-42511221D01*
X137226000Y-42537000D01*
X137226000Y-43063000D01*
X137224734Y-43088779D01*
X137220947Y-43114309D01*
X137214675Y-43139345D01*
X137205980Y-43163646D01*
X137194945Y-43186977D01*
X137181677Y-43209115D01*
X137166302Y-43229845D01*
X137148969Y-43248969D01*
X137129845Y-43266302D01*
X137109115Y-43281677D01*
X137086977Y-43294945D01*
X137063646Y-43305980D01*
X137039345Y-43314675D01*
X137014309Y-43320947D01*
X136988779Y-43324734D01*
X136963000Y-43326000D01*
X136337000Y-43326000D01*
X136311221Y-43324734D01*
X136285691Y-43320947D01*
X136260655Y-43314675D01*
X136236354Y-43305980D01*
X136213023Y-43294945D01*
X136190885Y-43281677D01*
X136170155Y-43266302D01*
X136151031Y-43248969D01*
X136133698Y-43229845D01*
X136118323Y-43209115D01*
X136105055Y-43186977D01*
X136094020Y-43163646D01*
X136085325Y-43139345D01*
X136079053Y-43114309D01*
X136075266Y-43088779D01*
X136074000Y-43063000D01*
X136074000Y-42537000D01*
X136075266Y-42511221D01*
X136079053Y-42485691D01*
X136085325Y-42460655D01*
X136094020Y-42436354D01*
X136105055Y-42413023D01*
X136118323Y-42390885D01*
X136133698Y-42370155D01*
X136151031Y-42351031D01*
X136170155Y-42333698D01*
X136190885Y-42318323D01*
X136213023Y-42305055D01*
X136236354Y-42294020D01*
X136260655Y-42285325D01*
X136285691Y-42279053D01*
X136311221Y-42275266D01*
X136337000Y-42274000D01*
X136963000Y-42274000D01*
X136988779Y-42275266D01*
G37*
G36*
X146738779Y-42075266D02*
G01*
X146764309Y-42079053D01*
X146789345Y-42085325D01*
X146813646Y-42094020D01*
X146836977Y-42105055D01*
X146859115Y-42118323D01*
X146879845Y-42133698D01*
X146898969Y-42151031D01*
X146916302Y-42170155D01*
X146931677Y-42190885D01*
X146944945Y-42213023D01*
X146955980Y-42236354D01*
X146964675Y-42260655D01*
X146970947Y-42285691D01*
X146974734Y-42311221D01*
X146976000Y-42337000D01*
X146976000Y-42863000D01*
X146974734Y-42888779D01*
X146970947Y-42914309D01*
X146964675Y-42939345D01*
X146955980Y-42963646D01*
X146944945Y-42986977D01*
X146931677Y-43009115D01*
X146916302Y-43029845D01*
X146898969Y-43048969D01*
X146879845Y-43066302D01*
X146859115Y-43081677D01*
X146836977Y-43094945D01*
X146813646Y-43105980D01*
X146789345Y-43114675D01*
X146764309Y-43120947D01*
X146738779Y-43124734D01*
X146713000Y-43126000D01*
X146087000Y-43126000D01*
X146061221Y-43124734D01*
X146035691Y-43120947D01*
X146010655Y-43114675D01*
X145986354Y-43105980D01*
X145963023Y-43094945D01*
X145940885Y-43081677D01*
X145920155Y-43066302D01*
X145901031Y-43048969D01*
X145883698Y-43029845D01*
X145868323Y-43009115D01*
X145855055Y-42986977D01*
X145844020Y-42963646D01*
X145835325Y-42939345D01*
X145829053Y-42914309D01*
X145825266Y-42888779D01*
X145824000Y-42863000D01*
X145824000Y-42337000D01*
X145825266Y-42311221D01*
X145829053Y-42285691D01*
X145835325Y-42260655D01*
X145844020Y-42236354D01*
X145855055Y-42213023D01*
X145868323Y-42190885D01*
X145883698Y-42170155D01*
X145901031Y-42151031D01*
X145920155Y-42133698D01*
X145940885Y-42118323D01*
X145963023Y-42105055D01*
X145986354Y-42094020D01*
X146010655Y-42085325D01*
X146035691Y-42079053D01*
X146061221Y-42075266D01*
X146087000Y-42074000D01*
X146713000Y-42074000D01*
X146738779Y-42075266D01*
G37*
G36*
X144988779Y-42075266D02*
G01*
X145014309Y-42079053D01*
X145039345Y-42085325D01*
X145063646Y-42094020D01*
X145086977Y-42105055D01*
X145109115Y-42118323D01*
X145129845Y-42133698D01*
X145148969Y-42151031D01*
X145166302Y-42170155D01*
X145181677Y-42190885D01*
X145194945Y-42213023D01*
X145205980Y-42236354D01*
X145214675Y-42260655D01*
X145220947Y-42285691D01*
X145224734Y-42311221D01*
X145226000Y-42337000D01*
X145226000Y-42863000D01*
X145224734Y-42888779D01*
X145220947Y-42914309D01*
X145214675Y-42939345D01*
X145205980Y-42963646D01*
X145194945Y-42986977D01*
X145181677Y-43009115D01*
X145166302Y-43029845D01*
X145148969Y-43048969D01*
X145129845Y-43066302D01*
X145109115Y-43081677D01*
X145086977Y-43094945D01*
X145063646Y-43105980D01*
X145039345Y-43114675D01*
X145014309Y-43120947D01*
X144988779Y-43124734D01*
X144963000Y-43126000D01*
X144337000Y-43126000D01*
X144311221Y-43124734D01*
X144285691Y-43120947D01*
X144260655Y-43114675D01*
X144236354Y-43105980D01*
X144213023Y-43094945D01*
X144190885Y-43081677D01*
X144170155Y-43066302D01*
X144151031Y-43048969D01*
X144133698Y-43029845D01*
X144118323Y-43009115D01*
X144105055Y-42986977D01*
X144094020Y-42963646D01*
X144085325Y-42939345D01*
X144079053Y-42914309D01*
X144075266Y-42888779D01*
X144074000Y-42863000D01*
X144074000Y-42337000D01*
X144075266Y-42311221D01*
X144079053Y-42285691D01*
X144085325Y-42260655D01*
X144094020Y-42236354D01*
X144105055Y-42213023D01*
X144118323Y-42190885D01*
X144133698Y-42170155D01*
X144151031Y-42151031D01*
X144170155Y-42133698D01*
X144190885Y-42118323D01*
X144213023Y-42105055D01*
X144236354Y-42094020D01*
X144260655Y-42085325D01*
X144285691Y-42079053D01*
X144311221Y-42075266D01*
X144337000Y-42074000D01*
X144963000Y-42074000D01*
X144988779Y-42075266D01*
G37*
G36*
X145167702Y-44209845D02*
G01*
X145184738Y-44212372D01*
X145201445Y-44216557D01*
X145217661Y-44222359D01*
X145233230Y-44229723D01*
X145248003Y-44238577D01*
X145261836Y-44248837D01*
X145274597Y-44260403D01*
X145286163Y-44273164D01*
X145296423Y-44286997D01*
X145305277Y-44301770D01*
X145312641Y-44317339D01*
X145318443Y-44333555D01*
X145322628Y-44350262D01*
X145325155Y-44367298D01*
X145326000Y-44384500D01*
X145326000Y-44735500D01*
X145325155Y-44752702D01*
X145322628Y-44769738D01*
X145318443Y-44786445D01*
X145312641Y-44802661D01*
X145305277Y-44818230D01*
X145296423Y-44833003D01*
X145286163Y-44846836D01*
X145274597Y-44859597D01*
X145261836Y-44871163D01*
X145248003Y-44881423D01*
X145233230Y-44890277D01*
X145217661Y-44897641D01*
X145201445Y-44903443D01*
X145184738Y-44907628D01*
X145167702Y-44910155D01*
X145150500Y-44911000D01*
X143449500Y-44911000D01*
X143432298Y-44910155D01*
X143415262Y-44907628D01*
X143398555Y-44903443D01*
X143382339Y-44897641D01*
X143366770Y-44890277D01*
X143351997Y-44881423D01*
X143338164Y-44871163D01*
X143325403Y-44859597D01*
X143313837Y-44846836D01*
X143303577Y-44833003D01*
X143294723Y-44818230D01*
X143287359Y-44802661D01*
X143281557Y-44786445D01*
X143277372Y-44769738D01*
X143274845Y-44752702D01*
X143274000Y-44735500D01*
X143274000Y-44384500D01*
X143274845Y-44367298D01*
X143277372Y-44350262D01*
X143281557Y-44333555D01*
X143287359Y-44317339D01*
X143294723Y-44301770D01*
X143303577Y-44286997D01*
X143313837Y-44273164D01*
X143325403Y-44260403D01*
X143338164Y-44248837D01*
X143351997Y-44238577D01*
X143366770Y-44229723D01*
X143382339Y-44222359D01*
X143398555Y-44216557D01*
X143415262Y-44212372D01*
X143432298Y-44209845D01*
X143449500Y-44209000D01*
X145150500Y-44209000D01*
X145167702Y-44209845D01*
G37*
G36*
X145167702Y-45479845D02*
G01*
X145184738Y-45482372D01*
X145201445Y-45486557D01*
X145217661Y-45492359D01*
X145233230Y-45499723D01*
X145248003Y-45508577D01*
X145261836Y-45518837D01*
X145274597Y-45530403D01*
X145286163Y-45543164D01*
X145296423Y-45556997D01*
X145305277Y-45571770D01*
X145312641Y-45587339D01*
X145318443Y-45603555D01*
X145322628Y-45620262D01*
X145325155Y-45637298D01*
X145326000Y-45654500D01*
X145326000Y-46005500D01*
X145325155Y-46022702D01*
X145322628Y-46039738D01*
X145318443Y-46056445D01*
X145312641Y-46072661D01*
X145305277Y-46088230D01*
X145296423Y-46103003D01*
X145286163Y-46116836D01*
X145274597Y-46129597D01*
X145261836Y-46141163D01*
X145248003Y-46151423D01*
X145233230Y-46160277D01*
X145217661Y-46167641D01*
X145201445Y-46173443D01*
X145184738Y-46177628D01*
X145167702Y-46180155D01*
X145150500Y-46181000D01*
X143449500Y-46181000D01*
X143432298Y-46180155D01*
X143415262Y-46177628D01*
X143398555Y-46173443D01*
X143382339Y-46167641D01*
X143366770Y-46160277D01*
X143351997Y-46151423D01*
X143338164Y-46141163D01*
X143325403Y-46129597D01*
X143313837Y-46116836D01*
X143303577Y-46103003D01*
X143294723Y-46088230D01*
X143287359Y-46072661D01*
X143281557Y-46056445D01*
X143277372Y-46039738D01*
X143274845Y-46022702D01*
X143274000Y-46005500D01*
X143274000Y-45654500D01*
X143274845Y-45637298D01*
X143277372Y-45620262D01*
X143281557Y-45603555D01*
X143287359Y-45587339D01*
X143294723Y-45571770D01*
X143303577Y-45556997D01*
X143313837Y-45543164D01*
X143325403Y-45530403D01*
X143338164Y-45518837D01*
X143351997Y-45508577D01*
X143366770Y-45499723D01*
X143382339Y-45492359D01*
X143398555Y-45486557D01*
X143415262Y-45482372D01*
X143432298Y-45479845D01*
X143449500Y-45479000D01*
X145150500Y-45479000D01*
X145167702Y-45479845D01*
G37*
G36*
X145167702Y-46749845D02*
G01*
X145184738Y-46752372D01*
X145201445Y-46756557D01*
X145217661Y-46762359D01*
X145233230Y-46769723D01*
X145248003Y-46778577D01*
X145261836Y-46788837D01*
X145274597Y-46800403D01*
X145286163Y-46813164D01*
X145296423Y-46826997D01*
X145305277Y-46841770D01*
X145312641Y-46857339D01*
X145318443Y-46873555D01*
X145322628Y-46890262D01*
X145325155Y-46907298D01*
X145326000Y-46924500D01*
X145326000Y-47275500D01*
X145325155Y-47292702D01*
X145322628Y-47309738D01*
X145318443Y-47326445D01*
X145312641Y-47342661D01*
X145305277Y-47358230D01*
X145296423Y-47373003D01*
X145286163Y-47386836D01*
X145274597Y-47399597D01*
X145261836Y-47411163D01*
X145248003Y-47421423D01*
X145233230Y-47430277D01*
X145217661Y-47437641D01*
X145201445Y-47443443D01*
X145184738Y-47447628D01*
X145167702Y-47450155D01*
X145150500Y-47451000D01*
X143449500Y-47451000D01*
X143432298Y-47450155D01*
X143415262Y-47447628D01*
X143398555Y-47443443D01*
X143382339Y-47437641D01*
X143366770Y-47430277D01*
X143351997Y-47421423D01*
X143338164Y-47411163D01*
X143325403Y-47399597D01*
X143313837Y-47386836D01*
X143303577Y-47373003D01*
X143294723Y-47358230D01*
X143287359Y-47342661D01*
X143281557Y-47326445D01*
X143277372Y-47309738D01*
X143274845Y-47292702D01*
X143274000Y-47275500D01*
X143274000Y-46924500D01*
X143274845Y-46907298D01*
X143277372Y-46890262D01*
X143281557Y-46873555D01*
X143287359Y-46857339D01*
X143294723Y-46841770D01*
X143303577Y-46826997D01*
X143313837Y-46813164D01*
X143325403Y-46800403D01*
X143338164Y-46788837D01*
X143351997Y-46778577D01*
X143366770Y-46769723D01*
X143382339Y-46762359D01*
X143398555Y-46756557D01*
X143415262Y-46752372D01*
X143432298Y-46749845D01*
X143449500Y-46749000D01*
X145150500Y-46749000D01*
X145167702Y-46749845D01*
G37*
G36*
X145167702Y-48019845D02*
G01*
X145184738Y-48022372D01*
X145201445Y-48026557D01*
X145217661Y-48032359D01*
X145233230Y-48039723D01*
X145248003Y-48048577D01*
X145261836Y-48058837D01*
X145274597Y-48070403D01*
X145286163Y-48083164D01*
X145296423Y-48096997D01*
X145305277Y-48111770D01*
X145312641Y-48127339D01*
X145318443Y-48143555D01*
X145322628Y-48160262D01*
X145325155Y-48177298D01*
X145326000Y-48194500D01*
X145326000Y-48545500D01*
X145325155Y-48562702D01*
X145322628Y-48579738D01*
X145318443Y-48596445D01*
X145312641Y-48612661D01*
X145305277Y-48628230D01*
X145296423Y-48643003D01*
X145286163Y-48656836D01*
X145274597Y-48669597D01*
X145261836Y-48681163D01*
X145248003Y-48691423D01*
X145233230Y-48700277D01*
X145217661Y-48707641D01*
X145201445Y-48713443D01*
X145184738Y-48717628D01*
X145167702Y-48720155D01*
X145150500Y-48721000D01*
X143449500Y-48721000D01*
X143432298Y-48720155D01*
X143415262Y-48717628D01*
X143398555Y-48713443D01*
X143382339Y-48707641D01*
X143366770Y-48700277D01*
X143351997Y-48691423D01*
X143338164Y-48681163D01*
X143325403Y-48669597D01*
X143313837Y-48656836D01*
X143303577Y-48643003D01*
X143294723Y-48628230D01*
X143287359Y-48612661D01*
X143281557Y-48596445D01*
X143277372Y-48579738D01*
X143274845Y-48562702D01*
X143274000Y-48545500D01*
X143274000Y-48194500D01*
X143274845Y-48177298D01*
X143277372Y-48160262D01*
X143281557Y-48143555D01*
X143287359Y-48127339D01*
X143294723Y-48111770D01*
X143303577Y-48096997D01*
X143313837Y-48083164D01*
X143325403Y-48070403D01*
X143338164Y-48058837D01*
X143351997Y-48048577D01*
X143366770Y-48039723D01*
X143382339Y-48032359D01*
X143398555Y-48026557D01*
X143415262Y-48022372D01*
X143432298Y-48019845D01*
X143449500Y-48019000D01*
X145150500Y-48019000D01*
X145167702Y-48019845D01*
G37*
G36*
X145167702Y-49289845D02*
G01*
X145184738Y-49292372D01*
X145201445Y-49296557D01*
X145217661Y-49302359D01*
X145233230Y-49309723D01*
X145248003Y-49318577D01*
X145261836Y-49328837D01*
X145274597Y-49340403D01*
X145286163Y-49353164D01*
X145296423Y-49366997D01*
X145305277Y-49381770D01*
X145312641Y-49397339D01*
X145318443Y-49413555D01*
X145322628Y-49430262D01*
X145325155Y-49447298D01*
X145326000Y-49464500D01*
X145326000Y-49815500D01*
X145325155Y-49832702D01*
X145322628Y-49849738D01*
X145318443Y-49866445D01*
X145312641Y-49882661D01*
X145305277Y-49898230D01*
X145296423Y-49913003D01*
X145286163Y-49926836D01*
X145274597Y-49939597D01*
X145261836Y-49951163D01*
X145248003Y-49961423D01*
X145233230Y-49970277D01*
X145217661Y-49977641D01*
X145201445Y-49983443D01*
X145184738Y-49987628D01*
X145167702Y-49990155D01*
X145150500Y-49991000D01*
X143449500Y-49991000D01*
X143432298Y-49990155D01*
X143415262Y-49987628D01*
X143398555Y-49983443D01*
X143382339Y-49977641D01*
X143366770Y-49970277D01*
X143351997Y-49961423D01*
X143338164Y-49951163D01*
X143325403Y-49939597D01*
X143313837Y-49926836D01*
X143303577Y-49913003D01*
X143294723Y-49898230D01*
X143287359Y-49882661D01*
X143281557Y-49866445D01*
X143277372Y-49849738D01*
X143274845Y-49832702D01*
X143274000Y-49815500D01*
X143274000Y-49464500D01*
X143274845Y-49447298D01*
X143277372Y-49430262D01*
X143281557Y-49413555D01*
X143287359Y-49397339D01*
X143294723Y-49381770D01*
X143303577Y-49366997D01*
X143313837Y-49353164D01*
X143325403Y-49340403D01*
X143338164Y-49328837D01*
X143351997Y-49318577D01*
X143366770Y-49309723D01*
X143382339Y-49302359D01*
X143398555Y-49296557D01*
X143415262Y-49292372D01*
X143432298Y-49289845D01*
X143449500Y-49289000D01*
X145150500Y-49289000D01*
X145167702Y-49289845D01*
G37*
G36*
X145167702Y-50559845D02*
G01*
X145184738Y-50562372D01*
X145201445Y-50566557D01*
X145217661Y-50572359D01*
X145233230Y-50579723D01*
X145248003Y-50588577D01*
X145261836Y-50598837D01*
X145274597Y-50610403D01*
X145286163Y-50623164D01*
X145296423Y-50636997D01*
X145305277Y-50651770D01*
X145312641Y-50667339D01*
X145318443Y-50683555D01*
X145322628Y-50700262D01*
X145325155Y-50717298D01*
X145326000Y-50734500D01*
X145326000Y-51085500D01*
X145325155Y-51102702D01*
X145322628Y-51119738D01*
X145318443Y-51136445D01*
X145312641Y-51152661D01*
X145305277Y-51168230D01*
X145296423Y-51183003D01*
X145286163Y-51196836D01*
X145274597Y-51209597D01*
X145261836Y-51221163D01*
X145248003Y-51231423D01*
X145233230Y-51240277D01*
X145217661Y-51247641D01*
X145201445Y-51253443D01*
X145184738Y-51257628D01*
X145167702Y-51260155D01*
X145150500Y-51261000D01*
X143449500Y-51261000D01*
X143432298Y-51260155D01*
X143415262Y-51257628D01*
X143398555Y-51253443D01*
X143382339Y-51247641D01*
X143366770Y-51240277D01*
X143351997Y-51231423D01*
X143338164Y-51221163D01*
X143325403Y-51209597D01*
X143313837Y-51196836D01*
X143303577Y-51183003D01*
X143294723Y-51168230D01*
X143287359Y-51152661D01*
X143281557Y-51136445D01*
X143277372Y-51119738D01*
X143274845Y-51102702D01*
X143274000Y-51085500D01*
X143274000Y-50734500D01*
X143274845Y-50717298D01*
X143277372Y-50700262D01*
X143281557Y-50683555D01*
X143287359Y-50667339D01*
X143294723Y-50651770D01*
X143303577Y-50636997D01*
X143313837Y-50623164D01*
X143325403Y-50610403D01*
X143338164Y-50598837D01*
X143351997Y-50588577D01*
X143366770Y-50579723D01*
X143382339Y-50572359D01*
X143398555Y-50566557D01*
X143415262Y-50562372D01*
X143432298Y-50559845D01*
X143449500Y-50559000D01*
X145150500Y-50559000D01*
X145167702Y-50559845D01*
G37*
G36*
X145167702Y-51829845D02*
G01*
X145184738Y-51832372D01*
X145201445Y-51836557D01*
X145217661Y-51842359D01*
X145233230Y-51849723D01*
X145248003Y-51858577D01*
X145261836Y-51868837D01*
X145274597Y-51880403D01*
X145286163Y-51893164D01*
X145296423Y-51906997D01*
X145305277Y-51921770D01*
X145312641Y-51937339D01*
X145318443Y-51953555D01*
X145322628Y-51970262D01*
X145325155Y-51987298D01*
X145326000Y-52004500D01*
X145326000Y-52355500D01*
X145325155Y-52372702D01*
X145322628Y-52389738D01*
X145318443Y-52406445D01*
X145312641Y-52422661D01*
X145305277Y-52438230D01*
X145296423Y-52453003D01*
X145286163Y-52466836D01*
X145274597Y-52479597D01*
X145261836Y-52491163D01*
X145248003Y-52501423D01*
X145233230Y-52510277D01*
X145217661Y-52517641D01*
X145201445Y-52523443D01*
X145184738Y-52527628D01*
X145167702Y-52530155D01*
X145150500Y-52531000D01*
X143449500Y-52531000D01*
X143432298Y-52530155D01*
X143415262Y-52527628D01*
X143398555Y-52523443D01*
X143382339Y-52517641D01*
X143366770Y-52510277D01*
X143351997Y-52501423D01*
X143338164Y-52491163D01*
X143325403Y-52479597D01*
X143313837Y-52466836D01*
X143303577Y-52453003D01*
X143294723Y-52438230D01*
X143287359Y-52422661D01*
X143281557Y-52406445D01*
X143277372Y-52389738D01*
X143274845Y-52372702D01*
X143274000Y-52355500D01*
X143274000Y-52004500D01*
X143274845Y-51987298D01*
X143277372Y-51970262D01*
X143281557Y-51953555D01*
X143287359Y-51937339D01*
X143294723Y-51921770D01*
X143303577Y-51906997D01*
X143313837Y-51893164D01*
X143325403Y-51880403D01*
X143338164Y-51868837D01*
X143351997Y-51858577D01*
X143366770Y-51849723D01*
X143382339Y-51842359D01*
X143398555Y-51836557D01*
X143415262Y-51832372D01*
X143432298Y-51829845D01*
X143449500Y-51829000D01*
X145150500Y-51829000D01*
X145167702Y-51829845D01*
G37*
G36*
X140217702Y-51829845D02*
G01*
X140234738Y-51832372D01*
X140251445Y-51836557D01*
X140267661Y-51842359D01*
X140283230Y-51849723D01*
X140298003Y-51858577D01*
X140311836Y-51868837D01*
X140324597Y-51880403D01*
X140336163Y-51893164D01*
X140346423Y-51906997D01*
X140355277Y-51921770D01*
X140362641Y-51937339D01*
X140368443Y-51953555D01*
X140372628Y-51970262D01*
X140375155Y-51987298D01*
X140376000Y-52004500D01*
X140376000Y-52355500D01*
X140375155Y-52372702D01*
X140372628Y-52389738D01*
X140368443Y-52406445D01*
X140362641Y-52422661D01*
X140355277Y-52438230D01*
X140346423Y-52453003D01*
X140336163Y-52466836D01*
X140324597Y-52479597D01*
X140311836Y-52491163D01*
X140298003Y-52501423D01*
X140283230Y-52510277D01*
X140267661Y-52517641D01*
X140251445Y-52523443D01*
X140234738Y-52527628D01*
X140217702Y-52530155D01*
X140200500Y-52531000D01*
X138499500Y-52531000D01*
X138482298Y-52530155D01*
X138465262Y-52527628D01*
X138448555Y-52523443D01*
X138432339Y-52517641D01*
X138416770Y-52510277D01*
X138401997Y-52501423D01*
X138388164Y-52491163D01*
X138375403Y-52479597D01*
X138363837Y-52466836D01*
X138353577Y-52453003D01*
X138344723Y-52438230D01*
X138337359Y-52422661D01*
X138331557Y-52406445D01*
X138327372Y-52389738D01*
X138324845Y-52372702D01*
X138324000Y-52355500D01*
X138324000Y-52004500D01*
X138324845Y-51987298D01*
X138327372Y-51970262D01*
X138331557Y-51953555D01*
X138337359Y-51937339D01*
X138344723Y-51921770D01*
X138353577Y-51906997D01*
X138363837Y-51893164D01*
X138375403Y-51880403D01*
X138388164Y-51868837D01*
X138401997Y-51858577D01*
X138416770Y-51849723D01*
X138432339Y-51842359D01*
X138448555Y-51836557D01*
X138465262Y-51832372D01*
X138482298Y-51829845D01*
X138499500Y-51829000D01*
X140200500Y-51829000D01*
X140217702Y-51829845D01*
G37*
G36*
X140217702Y-50559845D02*
G01*
X140234738Y-50562372D01*
X140251445Y-50566557D01*
X140267661Y-50572359D01*
X140283230Y-50579723D01*
X140298003Y-50588577D01*
X140311836Y-50598837D01*
X140324597Y-50610403D01*
X140336163Y-50623164D01*
X140346423Y-50636997D01*
X140355277Y-50651770D01*
X140362641Y-50667339D01*
X140368443Y-50683555D01*
X140372628Y-50700262D01*
X140375155Y-50717298D01*
X140376000Y-50734500D01*
X140376000Y-51085500D01*
X140375155Y-51102702D01*
X140372628Y-51119738D01*
X140368443Y-51136445D01*
X140362641Y-51152661D01*
X140355277Y-51168230D01*
X140346423Y-51183003D01*
X140336163Y-51196836D01*
X140324597Y-51209597D01*
X140311836Y-51221163D01*
X140298003Y-51231423D01*
X140283230Y-51240277D01*
X140267661Y-51247641D01*
X140251445Y-51253443D01*
X140234738Y-51257628D01*
X140217702Y-51260155D01*
X140200500Y-51261000D01*
X138499500Y-51261000D01*
X138482298Y-51260155D01*
X138465262Y-51257628D01*
X138448555Y-51253443D01*
X138432339Y-51247641D01*
X138416770Y-51240277D01*
X138401997Y-51231423D01*
X138388164Y-51221163D01*
X138375403Y-51209597D01*
X138363837Y-51196836D01*
X138353577Y-51183003D01*
X138344723Y-51168230D01*
X138337359Y-51152661D01*
X138331557Y-51136445D01*
X138327372Y-51119738D01*
X138324845Y-51102702D01*
X138324000Y-51085500D01*
X138324000Y-50734500D01*
X138324845Y-50717298D01*
X138327372Y-50700262D01*
X138331557Y-50683555D01*
X138337359Y-50667339D01*
X138344723Y-50651770D01*
X138353577Y-50636997D01*
X138363837Y-50623164D01*
X138375403Y-50610403D01*
X138388164Y-50598837D01*
X138401997Y-50588577D01*
X138416770Y-50579723D01*
X138432339Y-50572359D01*
X138448555Y-50566557D01*
X138465262Y-50562372D01*
X138482298Y-50559845D01*
X138499500Y-50559000D01*
X140200500Y-50559000D01*
X140217702Y-50559845D01*
G37*
G36*
X140217702Y-49289845D02*
G01*
X140234738Y-49292372D01*
X140251445Y-49296557D01*
X140267661Y-49302359D01*
X140283230Y-49309723D01*
X140298003Y-49318577D01*
X140311836Y-49328837D01*
X140324597Y-49340403D01*
X140336163Y-49353164D01*
X140346423Y-49366997D01*
X140355277Y-49381770D01*
X140362641Y-49397339D01*
X140368443Y-49413555D01*
X140372628Y-49430262D01*
X140375155Y-49447298D01*
X140376000Y-49464500D01*
X140376000Y-49815500D01*
X140375155Y-49832702D01*
X140372628Y-49849738D01*
X140368443Y-49866445D01*
X140362641Y-49882661D01*
X140355277Y-49898230D01*
X140346423Y-49913003D01*
X140336163Y-49926836D01*
X140324597Y-49939597D01*
X140311836Y-49951163D01*
X140298003Y-49961423D01*
X140283230Y-49970277D01*
X140267661Y-49977641D01*
X140251445Y-49983443D01*
X140234738Y-49987628D01*
X140217702Y-49990155D01*
X140200500Y-49991000D01*
X138499500Y-49991000D01*
X138482298Y-49990155D01*
X138465262Y-49987628D01*
X138448555Y-49983443D01*
X138432339Y-49977641D01*
X138416770Y-49970277D01*
X138401997Y-49961423D01*
X138388164Y-49951163D01*
X138375403Y-49939597D01*
X138363837Y-49926836D01*
X138353577Y-49913003D01*
X138344723Y-49898230D01*
X138337359Y-49882661D01*
X138331557Y-49866445D01*
X138327372Y-49849738D01*
X138324845Y-49832702D01*
X138324000Y-49815500D01*
X138324000Y-49464500D01*
X138324845Y-49447298D01*
X138327372Y-49430262D01*
X138331557Y-49413555D01*
X138337359Y-49397339D01*
X138344723Y-49381770D01*
X138353577Y-49366997D01*
X138363837Y-49353164D01*
X138375403Y-49340403D01*
X138388164Y-49328837D01*
X138401997Y-49318577D01*
X138416770Y-49309723D01*
X138432339Y-49302359D01*
X138448555Y-49296557D01*
X138465262Y-49292372D01*
X138482298Y-49289845D01*
X138499500Y-49289000D01*
X140200500Y-49289000D01*
X140217702Y-49289845D01*
G37*
G36*
X140217702Y-48019845D02*
G01*
X140234738Y-48022372D01*
X140251445Y-48026557D01*
X140267661Y-48032359D01*
X140283230Y-48039723D01*
X140298003Y-48048577D01*
X140311836Y-48058837D01*
X140324597Y-48070403D01*
X140336163Y-48083164D01*
X140346423Y-48096997D01*
X140355277Y-48111770D01*
X140362641Y-48127339D01*
X140368443Y-48143555D01*
X140372628Y-48160262D01*
X140375155Y-48177298D01*
X140376000Y-48194500D01*
X140376000Y-48545500D01*
X140375155Y-48562702D01*
X140372628Y-48579738D01*
X140368443Y-48596445D01*
X140362641Y-48612661D01*
X140355277Y-48628230D01*
X140346423Y-48643003D01*
X140336163Y-48656836D01*
X140324597Y-48669597D01*
X140311836Y-48681163D01*
X140298003Y-48691423D01*
X140283230Y-48700277D01*
X140267661Y-48707641D01*
X140251445Y-48713443D01*
X140234738Y-48717628D01*
X140217702Y-48720155D01*
X140200500Y-48721000D01*
X138499500Y-48721000D01*
X138482298Y-48720155D01*
X138465262Y-48717628D01*
X138448555Y-48713443D01*
X138432339Y-48707641D01*
X138416770Y-48700277D01*
X138401997Y-48691423D01*
X138388164Y-48681163D01*
X138375403Y-48669597D01*
X138363837Y-48656836D01*
X138353577Y-48643003D01*
X138344723Y-48628230D01*
X138337359Y-48612661D01*
X138331557Y-48596445D01*
X138327372Y-48579738D01*
X138324845Y-48562702D01*
X138324000Y-48545500D01*
X138324000Y-48194500D01*
X138324845Y-48177298D01*
X138327372Y-48160262D01*
X138331557Y-48143555D01*
X138337359Y-48127339D01*
X138344723Y-48111770D01*
X138353577Y-48096997D01*
X138363837Y-48083164D01*
X138375403Y-48070403D01*
X138388164Y-48058837D01*
X138401997Y-48048577D01*
X138416770Y-48039723D01*
X138432339Y-48032359D01*
X138448555Y-48026557D01*
X138465262Y-48022372D01*
X138482298Y-48019845D01*
X138499500Y-48019000D01*
X140200500Y-48019000D01*
X140217702Y-48019845D01*
G37*
G36*
X140217702Y-46749845D02*
G01*
X140234738Y-46752372D01*
X140251445Y-46756557D01*
X140267661Y-46762359D01*
X140283230Y-46769723D01*
X140298003Y-46778577D01*
X140311836Y-46788837D01*
X140324597Y-46800403D01*
X140336163Y-46813164D01*
X140346423Y-46826997D01*
X140355277Y-46841770D01*
X140362641Y-46857339D01*
X140368443Y-46873555D01*
X140372628Y-46890262D01*
X140375155Y-46907298D01*
X140376000Y-46924500D01*
X140376000Y-47275500D01*
X140375155Y-47292702D01*
X140372628Y-47309738D01*
X140368443Y-47326445D01*
X140362641Y-47342661D01*
X140355277Y-47358230D01*
X140346423Y-47373003D01*
X140336163Y-47386836D01*
X140324597Y-47399597D01*
X140311836Y-47411163D01*
X140298003Y-47421423D01*
X140283230Y-47430277D01*
X140267661Y-47437641D01*
X140251445Y-47443443D01*
X140234738Y-47447628D01*
X140217702Y-47450155D01*
X140200500Y-47451000D01*
X138499500Y-47451000D01*
X138482298Y-47450155D01*
X138465262Y-47447628D01*
X138448555Y-47443443D01*
X138432339Y-47437641D01*
X138416770Y-47430277D01*
X138401997Y-47421423D01*
X138388164Y-47411163D01*
X138375403Y-47399597D01*
X138363837Y-47386836D01*
X138353577Y-47373003D01*
X138344723Y-47358230D01*
X138337359Y-47342661D01*
X138331557Y-47326445D01*
X138327372Y-47309738D01*
X138324845Y-47292702D01*
X138324000Y-47275500D01*
X138324000Y-46924500D01*
X138324845Y-46907298D01*
X138327372Y-46890262D01*
X138331557Y-46873555D01*
X138337359Y-46857339D01*
X138344723Y-46841770D01*
X138353577Y-46826997D01*
X138363837Y-46813164D01*
X138375403Y-46800403D01*
X138388164Y-46788837D01*
X138401997Y-46778577D01*
X138416770Y-46769723D01*
X138432339Y-46762359D01*
X138448555Y-46756557D01*
X138465262Y-46752372D01*
X138482298Y-46749845D01*
X138499500Y-46749000D01*
X140200500Y-46749000D01*
X140217702Y-46749845D01*
G37*
G36*
X140217702Y-45479845D02*
G01*
X140234738Y-45482372D01*
X140251445Y-45486557D01*
X140267661Y-45492359D01*
X140283230Y-45499723D01*
X140298003Y-45508577D01*
X140311836Y-45518837D01*
X140324597Y-45530403D01*
X140336163Y-45543164D01*
X140346423Y-45556997D01*
X140355277Y-45571770D01*
X140362641Y-45587339D01*
X140368443Y-45603555D01*
X140372628Y-45620262D01*
X140375155Y-45637298D01*
X140376000Y-45654500D01*
X140376000Y-46005500D01*
X140375155Y-46022702D01*
X140372628Y-46039738D01*
X140368443Y-46056445D01*
X140362641Y-46072661D01*
X140355277Y-46088230D01*
X140346423Y-46103003D01*
X140336163Y-46116836D01*
X140324597Y-46129597D01*
X140311836Y-46141163D01*
X140298003Y-46151423D01*
X140283230Y-46160277D01*
X140267661Y-46167641D01*
X140251445Y-46173443D01*
X140234738Y-46177628D01*
X140217702Y-46180155D01*
X140200500Y-46181000D01*
X138499500Y-46181000D01*
X138482298Y-46180155D01*
X138465262Y-46177628D01*
X138448555Y-46173443D01*
X138432339Y-46167641D01*
X138416770Y-46160277D01*
X138401997Y-46151423D01*
X138388164Y-46141163D01*
X138375403Y-46129597D01*
X138363837Y-46116836D01*
X138353577Y-46103003D01*
X138344723Y-46088230D01*
X138337359Y-46072661D01*
X138331557Y-46056445D01*
X138327372Y-46039738D01*
X138324845Y-46022702D01*
X138324000Y-46005500D01*
X138324000Y-45654500D01*
X138324845Y-45637298D01*
X138327372Y-45620262D01*
X138331557Y-45603555D01*
X138337359Y-45587339D01*
X138344723Y-45571770D01*
X138353577Y-45556997D01*
X138363837Y-45543164D01*
X138375403Y-45530403D01*
X138388164Y-45518837D01*
X138401997Y-45508577D01*
X138416770Y-45499723D01*
X138432339Y-45492359D01*
X138448555Y-45486557D01*
X138465262Y-45482372D01*
X138482298Y-45479845D01*
X138499500Y-45479000D01*
X140200500Y-45479000D01*
X140217702Y-45479845D01*
G37*
G36*
X140217702Y-44209845D02*
G01*
X140234738Y-44212372D01*
X140251445Y-44216557D01*
X140267661Y-44222359D01*
X140283230Y-44229723D01*
X140298003Y-44238577D01*
X140311836Y-44248837D01*
X140324597Y-44260403D01*
X140336163Y-44273164D01*
X140346423Y-44286997D01*
X140355277Y-44301770D01*
X140362641Y-44317339D01*
X140368443Y-44333555D01*
X140372628Y-44350262D01*
X140375155Y-44367298D01*
X140376000Y-44384500D01*
X140376000Y-44735500D01*
X140375155Y-44752702D01*
X140372628Y-44769738D01*
X140368443Y-44786445D01*
X140362641Y-44802661D01*
X140355277Y-44818230D01*
X140346423Y-44833003D01*
X140336163Y-44846836D01*
X140324597Y-44859597D01*
X140311836Y-44871163D01*
X140298003Y-44881423D01*
X140283230Y-44890277D01*
X140267661Y-44897641D01*
X140251445Y-44903443D01*
X140234738Y-44907628D01*
X140217702Y-44910155D01*
X140200500Y-44911000D01*
X138499500Y-44911000D01*
X138482298Y-44910155D01*
X138465262Y-44907628D01*
X138448555Y-44903443D01*
X138432339Y-44897641D01*
X138416770Y-44890277D01*
X138401997Y-44881423D01*
X138388164Y-44871163D01*
X138375403Y-44859597D01*
X138363837Y-44846836D01*
X138353577Y-44833003D01*
X138344723Y-44818230D01*
X138337359Y-44802661D01*
X138331557Y-44786445D01*
X138327372Y-44769738D01*
X138324845Y-44752702D01*
X138324000Y-44735500D01*
X138324000Y-44384500D01*
X138324845Y-44367298D01*
X138327372Y-44350262D01*
X138331557Y-44333555D01*
X138337359Y-44317339D01*
X138344723Y-44301770D01*
X138353577Y-44286997D01*
X138363837Y-44273164D01*
X138375403Y-44260403D01*
X138388164Y-44248837D01*
X138401997Y-44238577D01*
X138416770Y-44229723D01*
X138432339Y-44222359D01*
X138448555Y-44216557D01*
X138465262Y-44212372D01*
X138482298Y-44209845D01*
X138499500Y-44209000D01*
X140200500Y-44209000D01*
X140217702Y-44209845D01*
G37*
G36*
X152542702Y-63344845D02*
G01*
X152559738Y-63347372D01*
X152576445Y-63351557D01*
X152592661Y-63357359D01*
X152608230Y-63364723D01*
X152623003Y-63373577D01*
X152636836Y-63383837D01*
X152649597Y-63395403D01*
X152661163Y-63408164D01*
X152671423Y-63421997D01*
X152680277Y-63436770D01*
X152687641Y-63452339D01*
X152693443Y-63468555D01*
X152697628Y-63485262D01*
X152700155Y-63502298D01*
X152701000Y-63519500D01*
X152701000Y-63870500D01*
X152700155Y-63887702D01*
X152697628Y-63904738D01*
X152693443Y-63921445D01*
X152687641Y-63937661D01*
X152680277Y-63953230D01*
X152671423Y-63968003D01*
X152661163Y-63981836D01*
X152649597Y-63994597D01*
X152636836Y-64006163D01*
X152623003Y-64016423D01*
X152608230Y-64025277D01*
X152592661Y-64032641D01*
X152576445Y-64038443D01*
X152559738Y-64042628D01*
X152542702Y-64045155D01*
X152525500Y-64046000D01*
X150824500Y-64046000D01*
X150807298Y-64045155D01*
X150790262Y-64042628D01*
X150773555Y-64038443D01*
X150757339Y-64032641D01*
X150741770Y-64025277D01*
X150726997Y-64016423D01*
X150713164Y-64006163D01*
X150700403Y-63994597D01*
X150688837Y-63981836D01*
X150678577Y-63968003D01*
X150669723Y-63953230D01*
X150662359Y-63937661D01*
X150656557Y-63921445D01*
X150652372Y-63904738D01*
X150649845Y-63887702D01*
X150649000Y-63870500D01*
X150649000Y-63519500D01*
X150649845Y-63502298D01*
X150652372Y-63485262D01*
X150656557Y-63468555D01*
X150662359Y-63452339D01*
X150669723Y-63436770D01*
X150678577Y-63421997D01*
X150688837Y-63408164D01*
X150700403Y-63395403D01*
X150713164Y-63383837D01*
X150726997Y-63373577D01*
X150741770Y-63364723D01*
X150757339Y-63357359D01*
X150773555Y-63351557D01*
X150790262Y-63347372D01*
X150807298Y-63344845D01*
X150824500Y-63344000D01*
X152525500Y-63344000D01*
X152542702Y-63344845D01*
G37*
G36*
X152542702Y-64614845D02*
G01*
X152559738Y-64617372D01*
X152576445Y-64621557D01*
X152592661Y-64627359D01*
X152608230Y-64634723D01*
X152623003Y-64643577D01*
X152636836Y-64653837D01*
X152649597Y-64665403D01*
X152661163Y-64678164D01*
X152671423Y-64691997D01*
X152680277Y-64706770D01*
X152687641Y-64722339D01*
X152693443Y-64738555D01*
X152697628Y-64755262D01*
X152700155Y-64772298D01*
X152701000Y-64789500D01*
X152701000Y-65140500D01*
X152700155Y-65157702D01*
X152697628Y-65174738D01*
X152693443Y-65191445D01*
X152687641Y-65207661D01*
X152680277Y-65223230D01*
X152671423Y-65238003D01*
X152661163Y-65251836D01*
X152649597Y-65264597D01*
X152636836Y-65276163D01*
X152623003Y-65286423D01*
X152608230Y-65295277D01*
X152592661Y-65302641D01*
X152576445Y-65308443D01*
X152559738Y-65312628D01*
X152542702Y-65315155D01*
X152525500Y-65316000D01*
X150824500Y-65316000D01*
X150807298Y-65315155D01*
X150790262Y-65312628D01*
X150773555Y-65308443D01*
X150757339Y-65302641D01*
X150741770Y-65295277D01*
X150726997Y-65286423D01*
X150713164Y-65276163D01*
X150700403Y-65264597D01*
X150688837Y-65251836D01*
X150678577Y-65238003D01*
X150669723Y-65223230D01*
X150662359Y-65207661D01*
X150656557Y-65191445D01*
X150652372Y-65174738D01*
X150649845Y-65157702D01*
X150649000Y-65140500D01*
X150649000Y-64789500D01*
X150649845Y-64772298D01*
X150652372Y-64755262D01*
X150656557Y-64738555D01*
X150662359Y-64722339D01*
X150669723Y-64706770D01*
X150678577Y-64691997D01*
X150688837Y-64678164D01*
X150700403Y-64665403D01*
X150713164Y-64653837D01*
X150726997Y-64643577D01*
X150741770Y-64634723D01*
X150757339Y-64627359D01*
X150773555Y-64621557D01*
X150790262Y-64617372D01*
X150807298Y-64614845D01*
X150824500Y-64614000D01*
X152525500Y-64614000D01*
X152542702Y-64614845D01*
G37*
G36*
X152542702Y-65884845D02*
G01*
X152559738Y-65887372D01*
X152576445Y-65891557D01*
X152592661Y-65897359D01*
X152608230Y-65904723D01*
X152623003Y-65913577D01*
X152636836Y-65923837D01*
X152649597Y-65935403D01*
X152661163Y-65948164D01*
X152671423Y-65961997D01*
X152680277Y-65976770D01*
X152687641Y-65992339D01*
X152693443Y-66008555D01*
X152697628Y-66025262D01*
X152700155Y-66042298D01*
X152701000Y-66059500D01*
X152701000Y-66410500D01*
X152700155Y-66427702D01*
X152697628Y-66444738D01*
X152693443Y-66461445D01*
X152687641Y-66477661D01*
X152680277Y-66493230D01*
X152671423Y-66508003D01*
X152661163Y-66521836D01*
X152649597Y-66534597D01*
X152636836Y-66546163D01*
X152623003Y-66556423D01*
X152608230Y-66565277D01*
X152592661Y-66572641D01*
X152576445Y-66578443D01*
X152559738Y-66582628D01*
X152542702Y-66585155D01*
X152525500Y-66586000D01*
X150824500Y-66586000D01*
X150807298Y-66585155D01*
X150790262Y-66582628D01*
X150773555Y-66578443D01*
X150757339Y-66572641D01*
X150741770Y-66565277D01*
X150726997Y-66556423D01*
X150713164Y-66546163D01*
X150700403Y-66534597D01*
X150688837Y-66521836D01*
X150678577Y-66508003D01*
X150669723Y-66493230D01*
X150662359Y-66477661D01*
X150656557Y-66461445D01*
X150652372Y-66444738D01*
X150649845Y-66427702D01*
X150649000Y-66410500D01*
X150649000Y-66059500D01*
X150649845Y-66042298D01*
X150652372Y-66025262D01*
X150656557Y-66008555D01*
X150662359Y-65992339D01*
X150669723Y-65976770D01*
X150678577Y-65961997D01*
X150688837Y-65948164D01*
X150700403Y-65935403D01*
X150713164Y-65923837D01*
X150726997Y-65913577D01*
X150741770Y-65904723D01*
X150757339Y-65897359D01*
X150773555Y-65891557D01*
X150790262Y-65887372D01*
X150807298Y-65884845D01*
X150824500Y-65884000D01*
X152525500Y-65884000D01*
X152542702Y-65884845D01*
G37*
G36*
X152542702Y-67154845D02*
G01*
X152559738Y-67157372D01*
X152576445Y-67161557D01*
X152592661Y-67167359D01*
X152608230Y-67174723D01*
X152623003Y-67183577D01*
X152636836Y-67193837D01*
X152649597Y-67205403D01*
X152661163Y-67218164D01*
X152671423Y-67231997D01*
X152680277Y-67246770D01*
X152687641Y-67262339D01*
X152693443Y-67278555D01*
X152697628Y-67295262D01*
X152700155Y-67312298D01*
X152701000Y-67329500D01*
X152701000Y-67680500D01*
X152700155Y-67697702D01*
X152697628Y-67714738D01*
X152693443Y-67731445D01*
X152687641Y-67747661D01*
X152680277Y-67763230D01*
X152671423Y-67778003D01*
X152661163Y-67791836D01*
X152649597Y-67804597D01*
X152636836Y-67816163D01*
X152623003Y-67826423D01*
X152608230Y-67835277D01*
X152592661Y-67842641D01*
X152576445Y-67848443D01*
X152559738Y-67852628D01*
X152542702Y-67855155D01*
X152525500Y-67856000D01*
X150824500Y-67856000D01*
X150807298Y-67855155D01*
X150790262Y-67852628D01*
X150773555Y-67848443D01*
X150757339Y-67842641D01*
X150741770Y-67835277D01*
X150726997Y-67826423D01*
X150713164Y-67816163D01*
X150700403Y-67804597D01*
X150688837Y-67791836D01*
X150678577Y-67778003D01*
X150669723Y-67763230D01*
X150662359Y-67747661D01*
X150656557Y-67731445D01*
X150652372Y-67714738D01*
X150649845Y-67697702D01*
X150649000Y-67680500D01*
X150649000Y-67329500D01*
X150649845Y-67312298D01*
X150652372Y-67295262D01*
X150656557Y-67278555D01*
X150662359Y-67262339D01*
X150669723Y-67246770D01*
X150678577Y-67231997D01*
X150688837Y-67218164D01*
X150700403Y-67205403D01*
X150713164Y-67193837D01*
X150726997Y-67183577D01*
X150741770Y-67174723D01*
X150757339Y-67167359D01*
X150773555Y-67161557D01*
X150790262Y-67157372D01*
X150807298Y-67154845D01*
X150824500Y-67154000D01*
X152525500Y-67154000D01*
X152542702Y-67154845D01*
G37*
G36*
X147592702Y-67154845D02*
G01*
X147609738Y-67157372D01*
X147626445Y-67161557D01*
X147642661Y-67167359D01*
X147658230Y-67174723D01*
X147673003Y-67183577D01*
X147686836Y-67193837D01*
X147699597Y-67205403D01*
X147711163Y-67218164D01*
X147721423Y-67231997D01*
X147730277Y-67246770D01*
X147737641Y-67262339D01*
X147743443Y-67278555D01*
X147747628Y-67295262D01*
X147750155Y-67312298D01*
X147751000Y-67329500D01*
X147751000Y-67680500D01*
X147750155Y-67697702D01*
X147747628Y-67714738D01*
X147743443Y-67731445D01*
X147737641Y-67747661D01*
X147730277Y-67763230D01*
X147721423Y-67778003D01*
X147711163Y-67791836D01*
X147699597Y-67804597D01*
X147686836Y-67816163D01*
X147673003Y-67826423D01*
X147658230Y-67835277D01*
X147642661Y-67842641D01*
X147626445Y-67848443D01*
X147609738Y-67852628D01*
X147592702Y-67855155D01*
X147575500Y-67856000D01*
X145874500Y-67856000D01*
X145857298Y-67855155D01*
X145840262Y-67852628D01*
X145823555Y-67848443D01*
X145807339Y-67842641D01*
X145791770Y-67835277D01*
X145776997Y-67826423D01*
X145763164Y-67816163D01*
X145750403Y-67804597D01*
X145738837Y-67791836D01*
X145728577Y-67778003D01*
X145719723Y-67763230D01*
X145712359Y-67747661D01*
X145706557Y-67731445D01*
X145702372Y-67714738D01*
X145699845Y-67697702D01*
X145699000Y-67680500D01*
X145699000Y-67329500D01*
X145699845Y-67312298D01*
X145702372Y-67295262D01*
X145706557Y-67278555D01*
X145712359Y-67262339D01*
X145719723Y-67246770D01*
X145728577Y-67231997D01*
X145738837Y-67218164D01*
X145750403Y-67205403D01*
X145763164Y-67193837D01*
X145776997Y-67183577D01*
X145791770Y-67174723D01*
X145807339Y-67167359D01*
X145823555Y-67161557D01*
X145840262Y-67157372D01*
X145857298Y-67154845D01*
X145874500Y-67154000D01*
X147575500Y-67154000D01*
X147592702Y-67154845D01*
G37*
G36*
X147592702Y-65884845D02*
G01*
X147609738Y-65887372D01*
X147626445Y-65891557D01*
X147642661Y-65897359D01*
X147658230Y-65904723D01*
X147673003Y-65913577D01*
X147686836Y-65923837D01*
X147699597Y-65935403D01*
X147711163Y-65948164D01*
X147721423Y-65961997D01*
X147730277Y-65976770D01*
X147737641Y-65992339D01*
X147743443Y-66008555D01*
X147747628Y-66025262D01*
X147750155Y-66042298D01*
X147751000Y-66059500D01*
X147751000Y-66410500D01*
X147750155Y-66427702D01*
X147747628Y-66444738D01*
X147743443Y-66461445D01*
X147737641Y-66477661D01*
X147730277Y-66493230D01*
X147721423Y-66508003D01*
X147711163Y-66521836D01*
X147699597Y-66534597D01*
X147686836Y-66546163D01*
X147673003Y-66556423D01*
X147658230Y-66565277D01*
X147642661Y-66572641D01*
X147626445Y-66578443D01*
X147609738Y-66582628D01*
X147592702Y-66585155D01*
X147575500Y-66586000D01*
X145874500Y-66586000D01*
X145857298Y-66585155D01*
X145840262Y-66582628D01*
X145823555Y-66578443D01*
X145807339Y-66572641D01*
X145791770Y-66565277D01*
X145776997Y-66556423D01*
X145763164Y-66546163D01*
X145750403Y-66534597D01*
X145738837Y-66521836D01*
X145728577Y-66508003D01*
X145719723Y-66493230D01*
X145712359Y-66477661D01*
X145706557Y-66461445D01*
X145702372Y-66444738D01*
X145699845Y-66427702D01*
X145699000Y-66410500D01*
X145699000Y-66059500D01*
X145699845Y-66042298D01*
X145702372Y-66025262D01*
X145706557Y-66008555D01*
X145712359Y-65992339D01*
X145719723Y-65976770D01*
X145728577Y-65961997D01*
X145738837Y-65948164D01*
X145750403Y-65935403D01*
X145763164Y-65923837D01*
X145776997Y-65913577D01*
X145791770Y-65904723D01*
X145807339Y-65897359D01*
X145823555Y-65891557D01*
X145840262Y-65887372D01*
X145857298Y-65884845D01*
X145874500Y-65884000D01*
X147575500Y-65884000D01*
X147592702Y-65884845D01*
G37*
G36*
X147592702Y-64614845D02*
G01*
X147609738Y-64617372D01*
X147626445Y-64621557D01*
X147642661Y-64627359D01*
X147658230Y-64634723D01*
X147673003Y-64643577D01*
X147686836Y-64653837D01*
X147699597Y-64665403D01*
X147711163Y-64678164D01*
X147721423Y-64691997D01*
X147730277Y-64706770D01*
X147737641Y-64722339D01*
X147743443Y-64738555D01*
X147747628Y-64755262D01*
X147750155Y-64772298D01*
X147751000Y-64789500D01*
X147751000Y-65140500D01*
X147750155Y-65157702D01*
X147747628Y-65174738D01*
X147743443Y-65191445D01*
X147737641Y-65207661D01*
X147730277Y-65223230D01*
X147721423Y-65238003D01*
X147711163Y-65251836D01*
X147699597Y-65264597D01*
X147686836Y-65276163D01*
X147673003Y-65286423D01*
X147658230Y-65295277D01*
X147642661Y-65302641D01*
X147626445Y-65308443D01*
X147609738Y-65312628D01*
X147592702Y-65315155D01*
X147575500Y-65316000D01*
X145874500Y-65316000D01*
X145857298Y-65315155D01*
X145840262Y-65312628D01*
X145823555Y-65308443D01*
X145807339Y-65302641D01*
X145791770Y-65295277D01*
X145776997Y-65286423D01*
X145763164Y-65276163D01*
X145750403Y-65264597D01*
X145738837Y-65251836D01*
X145728577Y-65238003D01*
X145719723Y-65223230D01*
X145712359Y-65207661D01*
X145706557Y-65191445D01*
X145702372Y-65174738D01*
X145699845Y-65157702D01*
X145699000Y-65140500D01*
X145699000Y-64789500D01*
X145699845Y-64772298D01*
X145702372Y-64755262D01*
X145706557Y-64738555D01*
X145712359Y-64722339D01*
X145719723Y-64706770D01*
X145728577Y-64691997D01*
X145738837Y-64678164D01*
X145750403Y-64665403D01*
X145763164Y-64653837D01*
X145776997Y-64643577D01*
X145791770Y-64634723D01*
X145807339Y-64627359D01*
X145823555Y-64621557D01*
X145840262Y-64617372D01*
X145857298Y-64614845D01*
X145874500Y-64614000D01*
X147575500Y-64614000D01*
X147592702Y-64614845D01*
G37*
G36*
X147592702Y-63344845D02*
G01*
X147609738Y-63347372D01*
X147626445Y-63351557D01*
X147642661Y-63357359D01*
X147658230Y-63364723D01*
X147673003Y-63373577D01*
X147686836Y-63383837D01*
X147699597Y-63395403D01*
X147711163Y-63408164D01*
X147721423Y-63421997D01*
X147730277Y-63436770D01*
X147737641Y-63452339D01*
X147743443Y-63468555D01*
X147747628Y-63485262D01*
X147750155Y-63502298D01*
X147751000Y-63519500D01*
X147751000Y-63870500D01*
X147750155Y-63887702D01*
X147747628Y-63904738D01*
X147743443Y-63921445D01*
X147737641Y-63937661D01*
X147730277Y-63953230D01*
X147721423Y-63968003D01*
X147711163Y-63981836D01*
X147699597Y-63994597D01*
X147686836Y-64006163D01*
X147673003Y-64016423D01*
X147658230Y-64025277D01*
X147642661Y-64032641D01*
X147626445Y-64038443D01*
X147609738Y-64042628D01*
X147592702Y-64045155D01*
X147575500Y-64046000D01*
X145874500Y-64046000D01*
X145857298Y-64045155D01*
X145840262Y-64042628D01*
X145823555Y-64038443D01*
X145807339Y-64032641D01*
X145791770Y-64025277D01*
X145776997Y-64016423D01*
X145763164Y-64006163D01*
X145750403Y-63994597D01*
X145738837Y-63981836D01*
X145728577Y-63968003D01*
X145719723Y-63953230D01*
X145712359Y-63937661D01*
X145706557Y-63921445D01*
X145702372Y-63904738D01*
X145699845Y-63887702D01*
X145699000Y-63870500D01*
X145699000Y-63519500D01*
X145699845Y-63502298D01*
X145702372Y-63485262D01*
X145706557Y-63468555D01*
X145712359Y-63452339D01*
X145719723Y-63436770D01*
X145728577Y-63421997D01*
X145738837Y-63408164D01*
X145750403Y-63395403D01*
X145763164Y-63383837D01*
X145776997Y-63373577D01*
X145791770Y-63364723D01*
X145807339Y-63357359D01*
X145823555Y-63351557D01*
X145840262Y-63347372D01*
X145857298Y-63344845D01*
X145874500Y-63344000D01*
X147575500Y-63344000D01*
X147592702Y-63344845D01*
G37*
G36*
X154699602Y-75793888D02*
G01*
X154699602Y-75775466D01*
X154699848Y-75770467D01*
X154704658Y-75721636D01*
X154705392Y-75716686D01*
X154714964Y-75668561D01*
X154716180Y-75663705D01*
X154730424Y-75616750D01*
X154732110Y-75612039D01*
X154750887Y-75566706D01*
X154753027Y-75562180D01*
X154776158Y-75518907D01*
X154778731Y-75514616D01*
X154805991Y-75473817D01*
X154808973Y-75469796D01*
X154840101Y-75431867D01*
X154843462Y-75428159D01*
X154878159Y-75393462D01*
X154881867Y-75390101D01*
X154919796Y-75358973D01*
X154923817Y-75355991D01*
X154964616Y-75328731D01*
X154968907Y-75326158D01*
X155012180Y-75303027D01*
X155016706Y-75300887D01*
X155062039Y-75282110D01*
X155066750Y-75280424D01*
X155113705Y-75266180D01*
X155118561Y-75264964D01*
X155166686Y-75255392D01*
X155171636Y-75254658D01*
X155220467Y-75249848D01*
X155225466Y-75249602D01*
X155243888Y-75249602D01*
X155250000Y-75249000D01*
X155750000Y-75249000D01*
X155756112Y-75249602D01*
X155774534Y-75249602D01*
X155779533Y-75249848D01*
X155828364Y-75254658D01*
X155833314Y-75255392D01*
X155881439Y-75264964D01*
X155886295Y-75266180D01*
X155933250Y-75280424D01*
X155937961Y-75282110D01*
X155983294Y-75300887D01*
X155987820Y-75303027D01*
X156031093Y-75326158D01*
X156035384Y-75328731D01*
X156076183Y-75355991D01*
X156080204Y-75358973D01*
X156118133Y-75390101D01*
X156121841Y-75393462D01*
X156156538Y-75428159D01*
X156159899Y-75431867D01*
X156191027Y-75469796D01*
X156194009Y-75473817D01*
X156221269Y-75514616D01*
X156223842Y-75518907D01*
X156246973Y-75562180D01*
X156249113Y-75566706D01*
X156267890Y-75612039D01*
X156269576Y-75616750D01*
X156283820Y-75663705D01*
X156285036Y-75668561D01*
X156294608Y-75716686D01*
X156295342Y-75721636D01*
X156300152Y-75770467D01*
X156300398Y-75775466D01*
X156300398Y-75793888D01*
X156301000Y-75800000D01*
X156301000Y-76300000D01*
X156300020Y-76309950D01*
X156297118Y-76319517D01*
X156292405Y-76328334D01*
X156286062Y-76336062D01*
X156278334Y-76342405D01*
X156269517Y-76347118D01*
X156259950Y-76350020D01*
X156250000Y-76351000D01*
X154750000Y-76351000D01*
X154740050Y-76350020D01*
X154730483Y-76347118D01*
X154721666Y-76342405D01*
X154713938Y-76336062D01*
X154707595Y-76328334D01*
X154702882Y-76319517D01*
X154699980Y-76309950D01*
X154699000Y-76300000D01*
X154699000Y-75800000D01*
X154699602Y-75793888D01*
G37*
G36*
X154699980Y-76590050D02*
G01*
X154702882Y-76580483D01*
X154707595Y-76571666D01*
X154713938Y-76563938D01*
X154721666Y-76557595D01*
X154730483Y-76552882D01*
X154740050Y-76549980D01*
X154750000Y-76549000D01*
X156250000Y-76549000D01*
X156259950Y-76549980D01*
X156269517Y-76552882D01*
X156278334Y-76557595D01*
X156286062Y-76563938D01*
X156292405Y-76571666D01*
X156297118Y-76580483D01*
X156300020Y-76590050D01*
X156301000Y-76600000D01*
X156301000Y-77100000D01*
X156300398Y-77106112D01*
X156300398Y-77124534D01*
X156300152Y-77129533D01*
X156295342Y-77178364D01*
X156294608Y-77183314D01*
X156285036Y-77231439D01*
X156283820Y-77236295D01*
X156269576Y-77283250D01*
X156267890Y-77287961D01*
X156249113Y-77333294D01*
X156246973Y-77337820D01*
X156223842Y-77381093D01*
X156221269Y-77385384D01*
X156194009Y-77426183D01*
X156191027Y-77430204D01*
X156159899Y-77468133D01*
X156156538Y-77471841D01*
X156121841Y-77506538D01*
X156118133Y-77509899D01*
X156080204Y-77541027D01*
X156076183Y-77544009D01*
X156035384Y-77571269D01*
X156031093Y-77573842D01*
X155987820Y-77596973D01*
X155983294Y-77599113D01*
X155937961Y-77617890D01*
X155933250Y-77619576D01*
X155886295Y-77633820D01*
X155881439Y-77635036D01*
X155833314Y-77644608D01*
X155828364Y-77645342D01*
X155779533Y-77650152D01*
X155774534Y-77650398D01*
X155756112Y-77650398D01*
X155750000Y-77651000D01*
X155250000Y-77651000D01*
X155243888Y-77650398D01*
X155225466Y-77650398D01*
X155220467Y-77650152D01*
X155171636Y-77645342D01*
X155166686Y-77644608D01*
X155118561Y-77635036D01*
X155113705Y-77633820D01*
X155066750Y-77619576D01*
X155062039Y-77617890D01*
X155016706Y-77599113D01*
X155012180Y-77596973D01*
X154968907Y-77573842D01*
X154964616Y-77571269D01*
X154923817Y-77544009D01*
X154919796Y-77541027D01*
X154881867Y-77509899D01*
X154878159Y-77506538D01*
X154843462Y-77471841D01*
X154840101Y-77468133D01*
X154808973Y-77430204D01*
X154805991Y-77426183D01*
X154778731Y-77385384D01*
X154776158Y-77381093D01*
X154753027Y-77337820D01*
X154750887Y-77333294D01*
X154732110Y-77287961D01*
X154730424Y-77283250D01*
X154716180Y-77236295D01*
X154714964Y-77231439D01*
X154705392Y-77183314D01*
X154704658Y-77178364D01*
X154699848Y-77129533D01*
X154699602Y-77124534D01*
X154699602Y-77106112D01*
X154699000Y-77100000D01*
X154699000Y-76600000D01*
X154699980Y-76590050D01*
G37*
G36*
X157599602Y-75743888D02*
G01*
X157599602Y-75725466D01*
X157599848Y-75720467D01*
X157604658Y-75671636D01*
X157605392Y-75666686D01*
X157614964Y-75618561D01*
X157616180Y-75613705D01*
X157630424Y-75566750D01*
X157632110Y-75562039D01*
X157650887Y-75516706D01*
X157653027Y-75512180D01*
X157676158Y-75468907D01*
X157678731Y-75464616D01*
X157705991Y-75423817D01*
X157708973Y-75419796D01*
X157740101Y-75381867D01*
X157743462Y-75378159D01*
X157778159Y-75343462D01*
X157781867Y-75340101D01*
X157819796Y-75308973D01*
X157823817Y-75305991D01*
X157864616Y-75278731D01*
X157868907Y-75276158D01*
X157912180Y-75253027D01*
X157916706Y-75250887D01*
X157962039Y-75232110D01*
X157966750Y-75230424D01*
X158013705Y-75216180D01*
X158018561Y-75214964D01*
X158066686Y-75205392D01*
X158071636Y-75204658D01*
X158120467Y-75199848D01*
X158125466Y-75199602D01*
X158143888Y-75199602D01*
X158150000Y-75199000D01*
X158650000Y-75199000D01*
X158656112Y-75199602D01*
X158674534Y-75199602D01*
X158679533Y-75199848D01*
X158728364Y-75204658D01*
X158733314Y-75205392D01*
X158781439Y-75214964D01*
X158786295Y-75216180D01*
X158833250Y-75230424D01*
X158837961Y-75232110D01*
X158883294Y-75250887D01*
X158887820Y-75253027D01*
X158931093Y-75276158D01*
X158935384Y-75278731D01*
X158976183Y-75305991D01*
X158980204Y-75308973D01*
X159018133Y-75340101D01*
X159021841Y-75343462D01*
X159056538Y-75378159D01*
X159059899Y-75381867D01*
X159091027Y-75419796D01*
X159094009Y-75423817D01*
X159121269Y-75464616D01*
X159123842Y-75468907D01*
X159146973Y-75512180D01*
X159149113Y-75516706D01*
X159167890Y-75562039D01*
X159169576Y-75566750D01*
X159183820Y-75613705D01*
X159185036Y-75618561D01*
X159194608Y-75666686D01*
X159195342Y-75671636D01*
X159200152Y-75720467D01*
X159200398Y-75725466D01*
X159200398Y-75743888D01*
X159201000Y-75750000D01*
X159201000Y-76250000D01*
X159200020Y-76259950D01*
X159197118Y-76269517D01*
X159192405Y-76278334D01*
X159186062Y-76286062D01*
X159178334Y-76292405D01*
X159169517Y-76297118D01*
X159159950Y-76300020D01*
X159150000Y-76301000D01*
X157650000Y-76301000D01*
X157640050Y-76300020D01*
X157630483Y-76297118D01*
X157621666Y-76292405D01*
X157613938Y-76286062D01*
X157607595Y-76278334D01*
X157602882Y-76269517D01*
X157599980Y-76259950D01*
X157599000Y-76250000D01*
X157599000Y-75750000D01*
X157599602Y-75743888D01*
G37*
G36*
X157599980Y-76540050D02*
G01*
X157602882Y-76530483D01*
X157607595Y-76521666D01*
X157613938Y-76513938D01*
X157621666Y-76507595D01*
X157630483Y-76502882D01*
X157640050Y-76499980D01*
X157650000Y-76499000D01*
X159150000Y-76499000D01*
X159159950Y-76499980D01*
X159169517Y-76502882D01*
X159178334Y-76507595D01*
X159186062Y-76513938D01*
X159192405Y-76521666D01*
X159197118Y-76530483D01*
X159200020Y-76540050D01*
X159201000Y-76550000D01*
X159201000Y-77050000D01*
X159200398Y-77056112D01*
X159200398Y-77074534D01*
X159200152Y-77079533D01*
X159195342Y-77128364D01*
X159194608Y-77133314D01*
X159185036Y-77181439D01*
X159183820Y-77186295D01*
X159169576Y-77233250D01*
X159167890Y-77237961D01*
X159149113Y-77283294D01*
X159146973Y-77287820D01*
X159123842Y-77331093D01*
X159121269Y-77335384D01*
X159094009Y-77376183D01*
X159091027Y-77380204D01*
X159059899Y-77418133D01*
X159056538Y-77421841D01*
X159021841Y-77456538D01*
X159018133Y-77459899D01*
X158980204Y-77491027D01*
X158976183Y-77494009D01*
X158935384Y-77521269D01*
X158931093Y-77523842D01*
X158887820Y-77546973D01*
X158883294Y-77549113D01*
X158837961Y-77567890D01*
X158833250Y-77569576D01*
X158786295Y-77583820D01*
X158781439Y-77585036D01*
X158733314Y-77594608D01*
X158728364Y-77595342D01*
X158679533Y-77600152D01*
X158674534Y-77600398D01*
X158656112Y-77600398D01*
X158650000Y-77601000D01*
X158150000Y-77601000D01*
X158143888Y-77600398D01*
X158125466Y-77600398D01*
X158120467Y-77600152D01*
X158071636Y-77595342D01*
X158066686Y-77594608D01*
X158018561Y-77585036D01*
X158013705Y-77583820D01*
X157966750Y-77569576D01*
X157962039Y-77567890D01*
X157916706Y-77549113D01*
X157912180Y-77546973D01*
X157868907Y-77523842D01*
X157864616Y-77521269D01*
X157823817Y-77494009D01*
X157819796Y-77491027D01*
X157781867Y-77459899D01*
X157778159Y-77456538D01*
X157743462Y-77421841D01*
X157740101Y-77418133D01*
X157708973Y-77380204D01*
X157705991Y-77376183D01*
X157678731Y-77335384D01*
X157676158Y-77331093D01*
X157653027Y-77287820D01*
X157650887Y-77283294D01*
X157632110Y-77237961D01*
X157630424Y-77233250D01*
X157616180Y-77186295D01*
X157614964Y-77181439D01*
X157605392Y-77133314D01*
X157604658Y-77128364D01*
X157599848Y-77079533D01*
X157599602Y-77074534D01*
X157599602Y-77056112D01*
X157599000Y-77050000D01*
X157599000Y-76550000D01*
X157599980Y-76540050D01*
G37*
D20*
X155100000Y-85350000D03*
X155100000Y-82050000D03*
D21*
X152576000Y-74130000D03*
X152576000Y-76670000D03*
X142824000Y-76670000D03*
X142824000Y-74130000D03*
D22*
X143400000Y-81600000D03*
X143400000Y-85000000D03*
D23*
X143700000Y-66500000D03*
X143700000Y-65200000D03*
X143700000Y-63900000D03*
X140500000Y-66500000D03*
X140500000Y-65200000D03*
X140500000Y-63900000D03*
D16*
G36*
X146688779Y-70800266D02*
G01*
X146714309Y-70804053D01*
X146739345Y-70810325D01*
X146763646Y-70819020D01*
X146786977Y-70830055D01*
X146809115Y-70843323D01*
X146829845Y-70858698D01*
X146848969Y-70876031D01*
X146866302Y-70895155D01*
X146881677Y-70915885D01*
X146894945Y-70938023D01*
X146905980Y-70961354D01*
X146914675Y-70985655D01*
X146920947Y-71010691D01*
X146924734Y-71036221D01*
X146926000Y-71062000D01*
X146926000Y-71688000D01*
X146924734Y-71713779D01*
X146920947Y-71739309D01*
X146914675Y-71764345D01*
X146905980Y-71788646D01*
X146894945Y-71811977D01*
X146881677Y-71834115D01*
X146866302Y-71854845D01*
X146848969Y-71873969D01*
X146829845Y-71891302D01*
X146809115Y-71906677D01*
X146786977Y-71919945D01*
X146763646Y-71930980D01*
X146739345Y-71939675D01*
X146714309Y-71945947D01*
X146688779Y-71949734D01*
X146663000Y-71951000D01*
X146137000Y-71951000D01*
X146111221Y-71949734D01*
X146085691Y-71945947D01*
X146060655Y-71939675D01*
X146036354Y-71930980D01*
X146013023Y-71919945D01*
X145990885Y-71906677D01*
X145970155Y-71891302D01*
X145951031Y-71873969D01*
X145933698Y-71854845D01*
X145918323Y-71834115D01*
X145905055Y-71811977D01*
X145894020Y-71788646D01*
X145885325Y-71764345D01*
X145879053Y-71739309D01*
X145875266Y-71713779D01*
X145874000Y-71688000D01*
X145874000Y-71062000D01*
X145875266Y-71036221D01*
X145879053Y-71010691D01*
X145885325Y-70985655D01*
X145894020Y-70961354D01*
X145905055Y-70938023D01*
X145918323Y-70915885D01*
X145933698Y-70895155D01*
X145951031Y-70876031D01*
X145970155Y-70858698D01*
X145990885Y-70843323D01*
X146013023Y-70830055D01*
X146036354Y-70819020D01*
X146060655Y-70810325D01*
X146085691Y-70804053D01*
X146111221Y-70800266D01*
X146137000Y-70799000D01*
X146663000Y-70799000D01*
X146688779Y-70800266D01*
G37*
G36*
X146688779Y-69050266D02*
G01*
X146714309Y-69054053D01*
X146739345Y-69060325D01*
X146763646Y-69069020D01*
X146786977Y-69080055D01*
X146809115Y-69093323D01*
X146829845Y-69108698D01*
X146848969Y-69126031D01*
X146866302Y-69145155D01*
X146881677Y-69165885D01*
X146894945Y-69188023D01*
X146905980Y-69211354D01*
X146914675Y-69235655D01*
X146920947Y-69260691D01*
X146924734Y-69286221D01*
X146926000Y-69312000D01*
X146926000Y-69938000D01*
X146924734Y-69963779D01*
X146920947Y-69989309D01*
X146914675Y-70014345D01*
X146905980Y-70038646D01*
X146894945Y-70061977D01*
X146881677Y-70084115D01*
X146866302Y-70104845D01*
X146848969Y-70123969D01*
X146829845Y-70141302D01*
X146809115Y-70156677D01*
X146786977Y-70169945D01*
X146763646Y-70180980D01*
X146739345Y-70189675D01*
X146714309Y-70195947D01*
X146688779Y-70199734D01*
X146663000Y-70201000D01*
X146137000Y-70201000D01*
X146111221Y-70199734D01*
X146085691Y-70195947D01*
X146060655Y-70189675D01*
X146036354Y-70180980D01*
X146013023Y-70169945D01*
X145990885Y-70156677D01*
X145970155Y-70141302D01*
X145951031Y-70123969D01*
X145933698Y-70104845D01*
X145918323Y-70084115D01*
X145905055Y-70061977D01*
X145894020Y-70038646D01*
X145885325Y-70014345D01*
X145879053Y-69989309D01*
X145875266Y-69963779D01*
X145874000Y-69938000D01*
X145874000Y-69312000D01*
X145875266Y-69286221D01*
X145879053Y-69260691D01*
X145885325Y-69235655D01*
X145894020Y-69211354D01*
X145905055Y-69188023D01*
X145918323Y-69165885D01*
X145933698Y-69145155D01*
X145951031Y-69126031D01*
X145970155Y-69108698D01*
X145990885Y-69093323D01*
X146013023Y-69080055D01*
X146036354Y-69069020D01*
X146060655Y-69060325D01*
X146085691Y-69054053D01*
X146111221Y-69050266D01*
X146137000Y-69049000D01*
X146663000Y-69049000D01*
X146688779Y-69050266D01*
G37*
G36*
X144888779Y-70800266D02*
G01*
X144914309Y-70804053D01*
X144939345Y-70810325D01*
X144963646Y-70819020D01*
X144986977Y-70830055D01*
X145009115Y-70843323D01*
X145029845Y-70858698D01*
X145048969Y-70876031D01*
X145066302Y-70895155D01*
X145081677Y-70915885D01*
X145094945Y-70938023D01*
X145105980Y-70961354D01*
X145114675Y-70985655D01*
X145120947Y-71010691D01*
X145124734Y-71036221D01*
X145126000Y-71062000D01*
X145126000Y-71688000D01*
X145124734Y-71713779D01*
X145120947Y-71739309D01*
X145114675Y-71764345D01*
X145105980Y-71788646D01*
X145094945Y-71811977D01*
X145081677Y-71834115D01*
X145066302Y-71854845D01*
X145048969Y-71873969D01*
X145029845Y-71891302D01*
X145009115Y-71906677D01*
X144986977Y-71919945D01*
X144963646Y-71930980D01*
X144939345Y-71939675D01*
X144914309Y-71945947D01*
X144888779Y-71949734D01*
X144863000Y-71951000D01*
X144337000Y-71951000D01*
X144311221Y-71949734D01*
X144285691Y-71945947D01*
X144260655Y-71939675D01*
X144236354Y-71930980D01*
X144213023Y-71919945D01*
X144190885Y-71906677D01*
X144170155Y-71891302D01*
X144151031Y-71873969D01*
X144133698Y-71854845D01*
X144118323Y-71834115D01*
X144105055Y-71811977D01*
X144094020Y-71788646D01*
X144085325Y-71764345D01*
X144079053Y-71739309D01*
X144075266Y-71713779D01*
X144074000Y-71688000D01*
X144074000Y-71062000D01*
X144075266Y-71036221D01*
X144079053Y-71010691D01*
X144085325Y-70985655D01*
X144094020Y-70961354D01*
X144105055Y-70938023D01*
X144118323Y-70915885D01*
X144133698Y-70895155D01*
X144151031Y-70876031D01*
X144170155Y-70858698D01*
X144190885Y-70843323D01*
X144213023Y-70830055D01*
X144236354Y-70819020D01*
X144260655Y-70810325D01*
X144285691Y-70804053D01*
X144311221Y-70800266D01*
X144337000Y-70799000D01*
X144863000Y-70799000D01*
X144888779Y-70800266D01*
G37*
G36*
X144888779Y-69050266D02*
G01*
X144914309Y-69054053D01*
X144939345Y-69060325D01*
X144963646Y-69069020D01*
X144986977Y-69080055D01*
X145009115Y-69093323D01*
X145029845Y-69108698D01*
X145048969Y-69126031D01*
X145066302Y-69145155D01*
X145081677Y-69165885D01*
X145094945Y-69188023D01*
X145105980Y-69211354D01*
X145114675Y-69235655D01*
X145120947Y-69260691D01*
X145124734Y-69286221D01*
X145126000Y-69312000D01*
X145126000Y-69938000D01*
X145124734Y-69963779D01*
X145120947Y-69989309D01*
X145114675Y-70014345D01*
X145105980Y-70038646D01*
X145094945Y-70061977D01*
X145081677Y-70084115D01*
X145066302Y-70104845D01*
X145048969Y-70123969D01*
X145029845Y-70141302D01*
X145009115Y-70156677D01*
X144986977Y-70169945D01*
X144963646Y-70180980D01*
X144939345Y-70189675D01*
X144914309Y-70195947D01*
X144888779Y-70199734D01*
X144863000Y-70201000D01*
X144337000Y-70201000D01*
X144311221Y-70199734D01*
X144285691Y-70195947D01*
X144260655Y-70189675D01*
X144236354Y-70180980D01*
X144213023Y-70169945D01*
X144190885Y-70156677D01*
X144170155Y-70141302D01*
X144151031Y-70123969D01*
X144133698Y-70104845D01*
X144118323Y-70084115D01*
X144105055Y-70061977D01*
X144094020Y-70038646D01*
X144085325Y-70014345D01*
X144079053Y-69989309D01*
X144075266Y-69963779D01*
X144074000Y-69938000D01*
X144074000Y-69312000D01*
X144075266Y-69286221D01*
X144079053Y-69260691D01*
X144085325Y-69235655D01*
X144094020Y-69211354D01*
X144105055Y-69188023D01*
X144118323Y-69165885D01*
X144133698Y-69145155D01*
X144151031Y-69126031D01*
X144170155Y-69108698D01*
X144190885Y-69093323D01*
X144213023Y-69080055D01*
X144236354Y-69069020D01*
X144260655Y-69060325D01*
X144285691Y-69054053D01*
X144311221Y-69050266D01*
X144337000Y-69049000D01*
X144863000Y-69049000D01*
X144888779Y-69050266D01*
G37*
G36*
X154388779Y-64425266D02*
G01*
X154414309Y-64429053D01*
X154439345Y-64435325D01*
X154463646Y-64444020D01*
X154486977Y-64455055D01*
X154509115Y-64468323D01*
X154529845Y-64483698D01*
X154548969Y-64501031D01*
X154566302Y-64520155D01*
X154581677Y-64540885D01*
X154594945Y-64563023D01*
X154605980Y-64586354D01*
X154614675Y-64610655D01*
X154620947Y-64635691D01*
X154624734Y-64661221D01*
X154626000Y-64687000D01*
X154626000Y-65313000D01*
X154624734Y-65338779D01*
X154620947Y-65364309D01*
X154614675Y-65389345D01*
X154605980Y-65413646D01*
X154594945Y-65436977D01*
X154581677Y-65459115D01*
X154566302Y-65479845D01*
X154548969Y-65498969D01*
X154529845Y-65516302D01*
X154509115Y-65531677D01*
X154486977Y-65544945D01*
X154463646Y-65555980D01*
X154439345Y-65564675D01*
X154414309Y-65570947D01*
X154388779Y-65574734D01*
X154363000Y-65576000D01*
X153837000Y-65576000D01*
X153811221Y-65574734D01*
X153785691Y-65570947D01*
X153760655Y-65564675D01*
X153736354Y-65555980D01*
X153713023Y-65544945D01*
X153690885Y-65531677D01*
X153670155Y-65516302D01*
X153651031Y-65498969D01*
X153633698Y-65479845D01*
X153618323Y-65459115D01*
X153605055Y-65436977D01*
X153594020Y-65413646D01*
X153585325Y-65389345D01*
X153579053Y-65364309D01*
X153575266Y-65338779D01*
X153574000Y-65313000D01*
X153574000Y-64687000D01*
X153575266Y-64661221D01*
X153579053Y-64635691D01*
X153585325Y-64610655D01*
X153594020Y-64586354D01*
X153605055Y-64563023D01*
X153618323Y-64540885D01*
X153633698Y-64520155D01*
X153651031Y-64501031D01*
X153670155Y-64483698D01*
X153690885Y-64468323D01*
X153713023Y-64455055D01*
X153736354Y-64444020D01*
X153760655Y-64435325D01*
X153785691Y-64429053D01*
X153811221Y-64425266D01*
X153837000Y-64424000D01*
X154363000Y-64424000D01*
X154388779Y-64425266D01*
G37*
G36*
X154388779Y-62675266D02*
G01*
X154414309Y-62679053D01*
X154439345Y-62685325D01*
X154463646Y-62694020D01*
X154486977Y-62705055D01*
X154509115Y-62718323D01*
X154529845Y-62733698D01*
X154548969Y-62751031D01*
X154566302Y-62770155D01*
X154581677Y-62790885D01*
X154594945Y-62813023D01*
X154605980Y-62836354D01*
X154614675Y-62860655D01*
X154620947Y-62885691D01*
X154624734Y-62911221D01*
X154626000Y-62937000D01*
X154626000Y-63563000D01*
X154624734Y-63588779D01*
X154620947Y-63614309D01*
X154614675Y-63639345D01*
X154605980Y-63663646D01*
X154594945Y-63686977D01*
X154581677Y-63709115D01*
X154566302Y-63729845D01*
X154548969Y-63748969D01*
X154529845Y-63766302D01*
X154509115Y-63781677D01*
X154486977Y-63794945D01*
X154463646Y-63805980D01*
X154439345Y-63814675D01*
X154414309Y-63820947D01*
X154388779Y-63824734D01*
X154363000Y-63826000D01*
X153837000Y-63826000D01*
X153811221Y-63824734D01*
X153785691Y-63820947D01*
X153760655Y-63814675D01*
X153736354Y-63805980D01*
X153713023Y-63794945D01*
X153690885Y-63781677D01*
X153670155Y-63766302D01*
X153651031Y-63748969D01*
X153633698Y-63729845D01*
X153618323Y-63709115D01*
X153605055Y-63686977D01*
X153594020Y-63663646D01*
X153585325Y-63639345D01*
X153579053Y-63614309D01*
X153575266Y-63588779D01*
X153574000Y-63563000D01*
X153574000Y-62937000D01*
X153575266Y-62911221D01*
X153579053Y-62885691D01*
X153585325Y-62860655D01*
X153594020Y-62836354D01*
X153605055Y-62813023D01*
X153618323Y-62790885D01*
X153633698Y-62770155D01*
X153651031Y-62751031D01*
X153670155Y-62733698D01*
X153690885Y-62718323D01*
X153713023Y-62705055D01*
X153736354Y-62694020D01*
X153760655Y-62685325D01*
X153785691Y-62679053D01*
X153811221Y-62675266D01*
X153837000Y-62674000D01*
X154363000Y-62674000D01*
X154388779Y-62675266D01*
G37*
G36*
X134806338Y-62050306D02*
G01*
X134832669Y-62054212D01*
X134858490Y-62060680D01*
X134883553Y-62069648D01*
X134907617Y-62081029D01*
X134930449Y-62094714D01*
X134951830Y-62110571D01*
X134971553Y-62128447D01*
X134989429Y-62148170D01*
X135005286Y-62169551D01*
X135018971Y-62192383D01*
X135030352Y-62216447D01*
X135039320Y-62241510D01*
X135045788Y-62267331D01*
X135049694Y-62293662D01*
X135051000Y-62320249D01*
X135051000Y-63079751D01*
X135049694Y-63106338D01*
X135045788Y-63132669D01*
X135039320Y-63158490D01*
X135030352Y-63183553D01*
X135018971Y-63207617D01*
X135005286Y-63230449D01*
X134989429Y-63251830D01*
X134971553Y-63271553D01*
X134951830Y-63289429D01*
X134930449Y-63305286D01*
X134907617Y-63318971D01*
X134883553Y-63330352D01*
X134858490Y-63339320D01*
X134832669Y-63345788D01*
X134806338Y-63349694D01*
X134779751Y-63351000D01*
X133420249Y-63351000D01*
X133393662Y-63349694D01*
X133367331Y-63345788D01*
X133341510Y-63339320D01*
X133316447Y-63330352D01*
X133292383Y-63318971D01*
X133269551Y-63305286D01*
X133248170Y-63289429D01*
X133228447Y-63271553D01*
X133210571Y-63251830D01*
X133194714Y-63230449D01*
X133181029Y-63207617D01*
X133169648Y-63183553D01*
X133160680Y-63158490D01*
X133154212Y-63132669D01*
X133150306Y-63106338D01*
X133149000Y-63079751D01*
X133149000Y-62320249D01*
X133150306Y-62293662D01*
X133154212Y-62267331D01*
X133160680Y-62241510D01*
X133169648Y-62216447D01*
X133181029Y-62192383D01*
X133194714Y-62169551D01*
X133210571Y-62148170D01*
X133228447Y-62128447D01*
X133248170Y-62110571D01*
X133269551Y-62094714D01*
X133292383Y-62081029D01*
X133316447Y-62069648D01*
X133341510Y-62060680D01*
X133367331Y-62054212D01*
X133393662Y-62050306D01*
X133420249Y-62049000D01*
X134779751Y-62049000D01*
X134806338Y-62050306D01*
G37*
G36*
X134806338Y-67650306D02*
G01*
X134832669Y-67654212D01*
X134858490Y-67660680D01*
X134883553Y-67669648D01*
X134907617Y-67681029D01*
X134930449Y-67694714D01*
X134951830Y-67710571D01*
X134971553Y-67728447D01*
X134989429Y-67748170D01*
X135005286Y-67769551D01*
X135018971Y-67792383D01*
X135030352Y-67816447D01*
X135039320Y-67841510D01*
X135045788Y-67867331D01*
X135049694Y-67893662D01*
X135051000Y-67920249D01*
X135051000Y-68679751D01*
X135049694Y-68706338D01*
X135045788Y-68732669D01*
X135039320Y-68758490D01*
X135030352Y-68783553D01*
X135018971Y-68807617D01*
X135005286Y-68830449D01*
X134989429Y-68851830D01*
X134971553Y-68871553D01*
X134951830Y-68889429D01*
X134930449Y-68905286D01*
X134907617Y-68918971D01*
X134883553Y-68930352D01*
X134858490Y-68939320D01*
X134832669Y-68945788D01*
X134806338Y-68949694D01*
X134779751Y-68951000D01*
X133420249Y-68951000D01*
X133393662Y-68949694D01*
X133367331Y-68945788D01*
X133341510Y-68939320D01*
X133316447Y-68930352D01*
X133292383Y-68918971D01*
X133269551Y-68905286D01*
X133248170Y-68889429D01*
X133228447Y-68871553D01*
X133210571Y-68851830D01*
X133194714Y-68830449D01*
X133181029Y-68807617D01*
X133169648Y-68783553D01*
X133160680Y-68758490D01*
X133154212Y-68732669D01*
X133150306Y-68706338D01*
X133149000Y-68679751D01*
X133149000Y-67920249D01*
X133150306Y-67893662D01*
X133154212Y-67867331D01*
X133160680Y-67841510D01*
X133169648Y-67816447D01*
X133181029Y-67792383D01*
X133194714Y-67769551D01*
X133210571Y-67748170D01*
X133228447Y-67728447D01*
X133248170Y-67710571D01*
X133269551Y-67694714D01*
X133292383Y-67681029D01*
X133316447Y-67669648D01*
X133341510Y-67660680D01*
X133367331Y-67654212D01*
X133393662Y-67650306D01*
X133420249Y-67649000D01*
X134779751Y-67649000D01*
X134806338Y-67650306D01*
G37*
G36*
X137292702Y-63649845D02*
G01*
X137309738Y-63652372D01*
X137326445Y-63656557D01*
X137342661Y-63662359D01*
X137358230Y-63669723D01*
X137373003Y-63678577D01*
X137386836Y-63688837D01*
X137399597Y-63700403D01*
X137411163Y-63713164D01*
X137421423Y-63726997D01*
X137430277Y-63741770D01*
X137437641Y-63757339D01*
X137443443Y-63773555D01*
X137447628Y-63790262D01*
X137450155Y-63807298D01*
X137451000Y-63824500D01*
X137451000Y-64175500D01*
X137450155Y-64192702D01*
X137447628Y-64209738D01*
X137443443Y-64226445D01*
X137437641Y-64242661D01*
X137430277Y-64258230D01*
X137421423Y-64273003D01*
X137411163Y-64286836D01*
X137399597Y-64299597D01*
X137386836Y-64311163D01*
X137373003Y-64321423D01*
X137358230Y-64330277D01*
X137342661Y-64337641D01*
X137326445Y-64343443D01*
X137309738Y-64347628D01*
X137292702Y-64350155D01*
X137275500Y-64351000D01*
X135974500Y-64351000D01*
X135957298Y-64350155D01*
X135940262Y-64347628D01*
X135923555Y-64343443D01*
X135907339Y-64337641D01*
X135891770Y-64330277D01*
X135876997Y-64321423D01*
X135863164Y-64311163D01*
X135850403Y-64299597D01*
X135838837Y-64286836D01*
X135828577Y-64273003D01*
X135819723Y-64258230D01*
X135812359Y-64242661D01*
X135806557Y-64226445D01*
X135802372Y-64209738D01*
X135799845Y-64192702D01*
X135799000Y-64175500D01*
X135799000Y-63824500D01*
X135799845Y-63807298D01*
X135802372Y-63790262D01*
X135806557Y-63773555D01*
X135812359Y-63757339D01*
X135819723Y-63741770D01*
X135828577Y-63726997D01*
X135838837Y-63713164D01*
X135850403Y-63700403D01*
X135863164Y-63688837D01*
X135876997Y-63678577D01*
X135891770Y-63669723D01*
X135907339Y-63662359D01*
X135923555Y-63656557D01*
X135940262Y-63652372D01*
X135957298Y-63649845D01*
X135974500Y-63649000D01*
X137275500Y-63649000D01*
X137292702Y-63649845D01*
G37*
G36*
X137292702Y-64649845D02*
G01*
X137309738Y-64652372D01*
X137326445Y-64656557D01*
X137342661Y-64662359D01*
X137358230Y-64669723D01*
X137373003Y-64678577D01*
X137386836Y-64688837D01*
X137399597Y-64700403D01*
X137411163Y-64713164D01*
X137421423Y-64726997D01*
X137430277Y-64741770D01*
X137437641Y-64757339D01*
X137443443Y-64773555D01*
X137447628Y-64790262D01*
X137450155Y-64807298D01*
X137451000Y-64824500D01*
X137451000Y-65175500D01*
X137450155Y-65192702D01*
X137447628Y-65209738D01*
X137443443Y-65226445D01*
X137437641Y-65242661D01*
X137430277Y-65258230D01*
X137421423Y-65273003D01*
X137411163Y-65286836D01*
X137399597Y-65299597D01*
X137386836Y-65311163D01*
X137373003Y-65321423D01*
X137358230Y-65330277D01*
X137342661Y-65337641D01*
X137326445Y-65343443D01*
X137309738Y-65347628D01*
X137292702Y-65350155D01*
X137275500Y-65351000D01*
X135974500Y-65351000D01*
X135957298Y-65350155D01*
X135940262Y-65347628D01*
X135923555Y-65343443D01*
X135907339Y-65337641D01*
X135891770Y-65330277D01*
X135876997Y-65321423D01*
X135863164Y-65311163D01*
X135850403Y-65299597D01*
X135838837Y-65286836D01*
X135828577Y-65273003D01*
X135819723Y-65258230D01*
X135812359Y-65242661D01*
X135806557Y-65226445D01*
X135802372Y-65209738D01*
X135799845Y-65192702D01*
X135799000Y-65175500D01*
X135799000Y-64824500D01*
X135799845Y-64807298D01*
X135802372Y-64790262D01*
X135806557Y-64773555D01*
X135812359Y-64757339D01*
X135819723Y-64741770D01*
X135828577Y-64726997D01*
X135838837Y-64713164D01*
X135850403Y-64700403D01*
X135863164Y-64688837D01*
X135876997Y-64678577D01*
X135891770Y-64669723D01*
X135907339Y-64662359D01*
X135923555Y-64656557D01*
X135940262Y-64652372D01*
X135957298Y-64649845D01*
X135974500Y-64649000D01*
X137275500Y-64649000D01*
X137292702Y-64649845D01*
G37*
G36*
X137292702Y-65649845D02*
G01*
X137309738Y-65652372D01*
X137326445Y-65656557D01*
X137342661Y-65662359D01*
X137358230Y-65669723D01*
X137373003Y-65678577D01*
X137386836Y-65688837D01*
X137399597Y-65700403D01*
X137411163Y-65713164D01*
X137421423Y-65726997D01*
X137430277Y-65741770D01*
X137437641Y-65757339D01*
X137443443Y-65773555D01*
X137447628Y-65790262D01*
X137450155Y-65807298D01*
X137451000Y-65824500D01*
X137451000Y-66175500D01*
X137450155Y-66192702D01*
X137447628Y-66209738D01*
X137443443Y-66226445D01*
X137437641Y-66242661D01*
X137430277Y-66258230D01*
X137421423Y-66273003D01*
X137411163Y-66286836D01*
X137399597Y-66299597D01*
X137386836Y-66311163D01*
X137373003Y-66321423D01*
X137358230Y-66330277D01*
X137342661Y-66337641D01*
X137326445Y-66343443D01*
X137309738Y-66347628D01*
X137292702Y-66350155D01*
X137275500Y-66351000D01*
X135974500Y-66351000D01*
X135957298Y-66350155D01*
X135940262Y-66347628D01*
X135923555Y-66343443D01*
X135907339Y-66337641D01*
X135891770Y-66330277D01*
X135876997Y-66321423D01*
X135863164Y-66311163D01*
X135850403Y-66299597D01*
X135838837Y-66286836D01*
X135828577Y-66273003D01*
X135819723Y-66258230D01*
X135812359Y-66242661D01*
X135806557Y-66226445D01*
X135802372Y-66209738D01*
X135799845Y-66192702D01*
X135799000Y-66175500D01*
X135799000Y-65824500D01*
X135799845Y-65807298D01*
X135802372Y-65790262D01*
X135806557Y-65773555D01*
X135812359Y-65757339D01*
X135819723Y-65741770D01*
X135828577Y-65726997D01*
X135838837Y-65713164D01*
X135850403Y-65700403D01*
X135863164Y-65688837D01*
X135876997Y-65678577D01*
X135891770Y-65669723D01*
X135907339Y-65662359D01*
X135923555Y-65656557D01*
X135940262Y-65652372D01*
X135957298Y-65649845D01*
X135974500Y-65649000D01*
X137275500Y-65649000D01*
X137292702Y-65649845D01*
G37*
G36*
X137292702Y-66649845D02*
G01*
X137309738Y-66652372D01*
X137326445Y-66656557D01*
X137342661Y-66662359D01*
X137358230Y-66669723D01*
X137373003Y-66678577D01*
X137386836Y-66688837D01*
X137399597Y-66700403D01*
X137411163Y-66713164D01*
X137421423Y-66726997D01*
X137430277Y-66741770D01*
X137437641Y-66757339D01*
X137443443Y-66773555D01*
X137447628Y-66790262D01*
X137450155Y-66807298D01*
X137451000Y-66824500D01*
X137451000Y-67175500D01*
X137450155Y-67192702D01*
X137447628Y-67209738D01*
X137443443Y-67226445D01*
X137437641Y-67242661D01*
X137430277Y-67258230D01*
X137421423Y-67273003D01*
X137411163Y-67286836D01*
X137399597Y-67299597D01*
X137386836Y-67311163D01*
X137373003Y-67321423D01*
X137358230Y-67330277D01*
X137342661Y-67337641D01*
X137326445Y-67343443D01*
X137309738Y-67347628D01*
X137292702Y-67350155D01*
X137275500Y-67351000D01*
X135974500Y-67351000D01*
X135957298Y-67350155D01*
X135940262Y-67347628D01*
X135923555Y-67343443D01*
X135907339Y-67337641D01*
X135891770Y-67330277D01*
X135876997Y-67321423D01*
X135863164Y-67311163D01*
X135850403Y-67299597D01*
X135838837Y-67286836D01*
X135828577Y-67273003D01*
X135819723Y-67258230D01*
X135812359Y-67242661D01*
X135806557Y-67226445D01*
X135802372Y-67209738D01*
X135799845Y-67192702D01*
X135799000Y-67175500D01*
X135799000Y-66824500D01*
X135799845Y-66807298D01*
X135802372Y-66790262D01*
X135806557Y-66773555D01*
X135812359Y-66757339D01*
X135819723Y-66741770D01*
X135828577Y-66726997D01*
X135838837Y-66713164D01*
X135850403Y-66700403D01*
X135863164Y-66688837D01*
X135876997Y-66678577D01*
X135891770Y-66669723D01*
X135907339Y-66662359D01*
X135923555Y-66656557D01*
X135940262Y-66652372D01*
X135957298Y-66649845D01*
X135974500Y-66649000D01*
X137275500Y-66649000D01*
X137292702Y-66649845D01*
G37*
G36*
X151413779Y-69475266D02*
G01*
X151439309Y-69479053D01*
X151464345Y-69485325D01*
X151488646Y-69494020D01*
X151511977Y-69505055D01*
X151534115Y-69518323D01*
X151554845Y-69533698D01*
X151573969Y-69551031D01*
X151591302Y-69570155D01*
X151606677Y-69590885D01*
X151619945Y-69613023D01*
X151630980Y-69636354D01*
X151639675Y-69660655D01*
X151645947Y-69685691D01*
X151649734Y-69711221D01*
X151651000Y-69737000D01*
X151651000Y-70263000D01*
X151649734Y-70288779D01*
X151645947Y-70314309D01*
X151639675Y-70339345D01*
X151630980Y-70363646D01*
X151619945Y-70386977D01*
X151606677Y-70409115D01*
X151591302Y-70429845D01*
X151573969Y-70448969D01*
X151554845Y-70466302D01*
X151534115Y-70481677D01*
X151511977Y-70494945D01*
X151488646Y-70505980D01*
X151464345Y-70514675D01*
X151439309Y-70520947D01*
X151413779Y-70524734D01*
X151388000Y-70526000D01*
X150762000Y-70526000D01*
X150736221Y-70524734D01*
X150710691Y-70520947D01*
X150685655Y-70514675D01*
X150661354Y-70505980D01*
X150638023Y-70494945D01*
X150615885Y-70481677D01*
X150595155Y-70466302D01*
X150576031Y-70448969D01*
X150558698Y-70429845D01*
X150543323Y-70409115D01*
X150530055Y-70386977D01*
X150519020Y-70363646D01*
X150510325Y-70339345D01*
X150504053Y-70314309D01*
X150500266Y-70288779D01*
X150499000Y-70263000D01*
X150499000Y-69737000D01*
X150500266Y-69711221D01*
X150504053Y-69685691D01*
X150510325Y-69660655D01*
X150519020Y-69636354D01*
X150530055Y-69613023D01*
X150543323Y-69590885D01*
X150558698Y-69570155D01*
X150576031Y-69551031D01*
X150595155Y-69533698D01*
X150615885Y-69518323D01*
X150638023Y-69505055D01*
X150661354Y-69494020D01*
X150685655Y-69485325D01*
X150710691Y-69479053D01*
X150736221Y-69475266D01*
X150762000Y-69474000D01*
X151388000Y-69474000D01*
X151413779Y-69475266D01*
G37*
G36*
X149663779Y-69475266D02*
G01*
X149689309Y-69479053D01*
X149714345Y-69485325D01*
X149738646Y-69494020D01*
X149761977Y-69505055D01*
X149784115Y-69518323D01*
X149804845Y-69533698D01*
X149823969Y-69551031D01*
X149841302Y-69570155D01*
X149856677Y-69590885D01*
X149869945Y-69613023D01*
X149880980Y-69636354D01*
X149889675Y-69660655D01*
X149895947Y-69685691D01*
X149899734Y-69711221D01*
X149901000Y-69737000D01*
X149901000Y-70263000D01*
X149899734Y-70288779D01*
X149895947Y-70314309D01*
X149889675Y-70339345D01*
X149880980Y-70363646D01*
X149869945Y-70386977D01*
X149856677Y-70409115D01*
X149841302Y-70429845D01*
X149823969Y-70448969D01*
X149804845Y-70466302D01*
X149784115Y-70481677D01*
X149761977Y-70494945D01*
X149738646Y-70505980D01*
X149714345Y-70514675D01*
X149689309Y-70520947D01*
X149663779Y-70524734D01*
X149638000Y-70526000D01*
X149012000Y-70526000D01*
X148986221Y-70524734D01*
X148960691Y-70520947D01*
X148935655Y-70514675D01*
X148911354Y-70505980D01*
X148888023Y-70494945D01*
X148865885Y-70481677D01*
X148845155Y-70466302D01*
X148826031Y-70448969D01*
X148808698Y-70429845D01*
X148793323Y-70409115D01*
X148780055Y-70386977D01*
X148769020Y-70363646D01*
X148760325Y-70339345D01*
X148754053Y-70314309D01*
X148750266Y-70288779D01*
X148749000Y-70263000D01*
X148749000Y-69737000D01*
X148750266Y-69711221D01*
X148754053Y-69685691D01*
X148760325Y-69660655D01*
X148769020Y-69636354D01*
X148780055Y-69613023D01*
X148793323Y-69590885D01*
X148808698Y-69570155D01*
X148826031Y-69551031D01*
X148845155Y-69533698D01*
X148865885Y-69518323D01*
X148888023Y-69505055D01*
X148911354Y-69494020D01*
X148935655Y-69485325D01*
X148960691Y-69479053D01*
X148986221Y-69475266D01*
X149012000Y-69474000D01*
X149638000Y-69474000D01*
X149663779Y-69475266D01*
G37*
D24*
X147930000Y-83430000D03*
D16*
G36*
X147173439Y-83829574D02*
G01*
X147185015Y-83831291D01*
X147196366Y-83834135D01*
X147207385Y-83838077D01*
X147217964Y-83843081D01*
X147228002Y-83849097D01*
X147237401Y-83856069D01*
X147246072Y-83863928D01*
X147253931Y-83872599D01*
X147260903Y-83881998D01*
X147266919Y-83892036D01*
X147271923Y-83902615D01*
X147275865Y-83913634D01*
X147278709Y-83924985D01*
X147280426Y-83936561D01*
X147281000Y-83948250D01*
X147281000Y-84211750D01*
X147280426Y-84223439D01*
X147278709Y-84235015D01*
X147275865Y-84246366D01*
X147271923Y-84257385D01*
X147266919Y-84267964D01*
X147260903Y-84278002D01*
X147253931Y-84287401D01*
X147246072Y-84296072D01*
X147237401Y-84303931D01*
X147228002Y-84310903D01*
X147217964Y-84316919D01*
X147207385Y-84321923D01*
X147196366Y-84325865D01*
X147185015Y-84328709D01*
X147173439Y-84330426D01*
X147161750Y-84331000D01*
X146923250Y-84331000D01*
X146911561Y-84330426D01*
X146899985Y-84328709D01*
X146888634Y-84325865D01*
X146877615Y-84321923D01*
X146867036Y-84316919D01*
X146856998Y-84310903D01*
X146847599Y-84303931D01*
X146838928Y-84296072D01*
X146831069Y-84287401D01*
X146824097Y-84278002D01*
X146818081Y-84267964D01*
X146813077Y-84257385D01*
X146809135Y-84246366D01*
X146806291Y-84235015D01*
X146804574Y-84223439D01*
X146804000Y-84211750D01*
X146804000Y-83948250D01*
X146804574Y-83936561D01*
X146806291Y-83924985D01*
X146809135Y-83913634D01*
X146813077Y-83902615D01*
X146818081Y-83892036D01*
X146824097Y-83881998D01*
X146831069Y-83872599D01*
X146838928Y-83863928D01*
X146847599Y-83856069D01*
X146856998Y-83849097D01*
X146867036Y-83843081D01*
X146877615Y-83838077D01*
X146888634Y-83834135D01*
X146899985Y-83831291D01*
X146911561Y-83829574D01*
X146923250Y-83829000D01*
X147161750Y-83829000D01*
X147173439Y-83829574D01*
G37*
G36*
X147173439Y-83179574D02*
G01*
X147185015Y-83181291D01*
X147196366Y-83184135D01*
X147207385Y-83188077D01*
X147217964Y-83193081D01*
X147228002Y-83199097D01*
X147237401Y-83206069D01*
X147246072Y-83213928D01*
X147253931Y-83222599D01*
X147260903Y-83231998D01*
X147266919Y-83242036D01*
X147271923Y-83252615D01*
X147275865Y-83263634D01*
X147278709Y-83274985D01*
X147280426Y-83286561D01*
X147281000Y-83298250D01*
X147281000Y-83561750D01*
X147280426Y-83573439D01*
X147278709Y-83585015D01*
X147275865Y-83596366D01*
X147271923Y-83607385D01*
X147266919Y-83617964D01*
X147260903Y-83628002D01*
X147253931Y-83637401D01*
X147246072Y-83646072D01*
X147237401Y-83653931D01*
X147228002Y-83660903D01*
X147217964Y-83666919D01*
X147207385Y-83671923D01*
X147196366Y-83675865D01*
X147185015Y-83678709D01*
X147173439Y-83680426D01*
X147161750Y-83681000D01*
X146923250Y-83681000D01*
X146911561Y-83680426D01*
X146899985Y-83678709D01*
X146888634Y-83675865D01*
X146877615Y-83671923D01*
X146867036Y-83666919D01*
X146856998Y-83660903D01*
X146847599Y-83653931D01*
X146838928Y-83646072D01*
X146831069Y-83637401D01*
X146824097Y-83628002D01*
X146818081Y-83617964D01*
X146813077Y-83607385D01*
X146809135Y-83596366D01*
X146806291Y-83585015D01*
X146804574Y-83573439D01*
X146804000Y-83561750D01*
X146804000Y-83298250D01*
X146804574Y-83286561D01*
X146806291Y-83274985D01*
X146809135Y-83263634D01*
X146813077Y-83252615D01*
X146818081Y-83242036D01*
X146824097Y-83231998D01*
X146831069Y-83222599D01*
X146838928Y-83213928D01*
X146847599Y-83206069D01*
X146856998Y-83199097D01*
X146867036Y-83193081D01*
X146877615Y-83188077D01*
X146888634Y-83184135D01*
X146899985Y-83181291D01*
X146911561Y-83179574D01*
X146923250Y-83179000D01*
X147161750Y-83179000D01*
X147173439Y-83179574D01*
G37*
G36*
X147173439Y-82529574D02*
G01*
X147185015Y-82531291D01*
X147196366Y-82534135D01*
X147207385Y-82538077D01*
X147217964Y-82543081D01*
X147228002Y-82549097D01*
X147237401Y-82556069D01*
X147246072Y-82563928D01*
X147253931Y-82572599D01*
X147260903Y-82581998D01*
X147266919Y-82592036D01*
X147271923Y-82602615D01*
X147275865Y-82613634D01*
X147278709Y-82624985D01*
X147280426Y-82636561D01*
X147281000Y-82648250D01*
X147281000Y-82911750D01*
X147280426Y-82923439D01*
X147278709Y-82935015D01*
X147275865Y-82946366D01*
X147271923Y-82957385D01*
X147266919Y-82967964D01*
X147260903Y-82978002D01*
X147253931Y-82987401D01*
X147246072Y-82996072D01*
X147237401Y-83003931D01*
X147228002Y-83010903D01*
X147217964Y-83016919D01*
X147207385Y-83021923D01*
X147196366Y-83025865D01*
X147185015Y-83028709D01*
X147173439Y-83030426D01*
X147161750Y-83031000D01*
X146923250Y-83031000D01*
X146911561Y-83030426D01*
X146899985Y-83028709D01*
X146888634Y-83025865D01*
X146877615Y-83021923D01*
X146867036Y-83016919D01*
X146856998Y-83010903D01*
X146847599Y-83003931D01*
X146838928Y-82996072D01*
X146831069Y-82987401D01*
X146824097Y-82978002D01*
X146818081Y-82967964D01*
X146813077Y-82957385D01*
X146809135Y-82946366D01*
X146806291Y-82935015D01*
X146804574Y-82923439D01*
X146804000Y-82911750D01*
X146804000Y-82648250D01*
X146804574Y-82636561D01*
X146806291Y-82624985D01*
X146809135Y-82613634D01*
X146813077Y-82602615D01*
X146818081Y-82592036D01*
X146824097Y-82581998D01*
X146831069Y-82572599D01*
X146838928Y-82563928D01*
X146847599Y-82556069D01*
X146856998Y-82549097D01*
X146867036Y-82543081D01*
X146877615Y-82538077D01*
X146888634Y-82534135D01*
X146899985Y-82531291D01*
X146911561Y-82529574D01*
X146923250Y-82529000D01*
X147161750Y-82529000D01*
X147173439Y-82529574D01*
G37*
G36*
X148948439Y-82529574D02*
G01*
X148960015Y-82531291D01*
X148971366Y-82534135D01*
X148982385Y-82538077D01*
X148992964Y-82543081D01*
X149003002Y-82549097D01*
X149012401Y-82556069D01*
X149021072Y-82563928D01*
X149028931Y-82572599D01*
X149035903Y-82581998D01*
X149041919Y-82592036D01*
X149046923Y-82602615D01*
X149050865Y-82613634D01*
X149053709Y-82624985D01*
X149055426Y-82636561D01*
X149056000Y-82648250D01*
X149056000Y-82911750D01*
X149055426Y-82923439D01*
X149053709Y-82935015D01*
X149050865Y-82946366D01*
X149046923Y-82957385D01*
X149041919Y-82967964D01*
X149035903Y-82978002D01*
X149028931Y-82987401D01*
X149021072Y-82996072D01*
X149012401Y-83003931D01*
X149003002Y-83010903D01*
X148992964Y-83016919D01*
X148982385Y-83021923D01*
X148971366Y-83025865D01*
X148960015Y-83028709D01*
X148948439Y-83030426D01*
X148936750Y-83031000D01*
X148698250Y-83031000D01*
X148686561Y-83030426D01*
X148674985Y-83028709D01*
X148663634Y-83025865D01*
X148652615Y-83021923D01*
X148642036Y-83016919D01*
X148631998Y-83010903D01*
X148622599Y-83003931D01*
X148613928Y-82996072D01*
X148606069Y-82987401D01*
X148599097Y-82978002D01*
X148593081Y-82967964D01*
X148588077Y-82957385D01*
X148584135Y-82946366D01*
X148581291Y-82935015D01*
X148579574Y-82923439D01*
X148579000Y-82911750D01*
X148579000Y-82648250D01*
X148579574Y-82636561D01*
X148581291Y-82624985D01*
X148584135Y-82613634D01*
X148588077Y-82602615D01*
X148593081Y-82592036D01*
X148599097Y-82581998D01*
X148606069Y-82572599D01*
X148613928Y-82563928D01*
X148622599Y-82556069D01*
X148631998Y-82549097D01*
X148642036Y-82543081D01*
X148652615Y-82538077D01*
X148663634Y-82534135D01*
X148674985Y-82531291D01*
X148686561Y-82529574D01*
X148698250Y-82529000D01*
X148936750Y-82529000D01*
X148948439Y-82529574D01*
G37*
G36*
X148948439Y-83179574D02*
G01*
X148960015Y-83181291D01*
X148971366Y-83184135D01*
X148982385Y-83188077D01*
X148992964Y-83193081D01*
X149003002Y-83199097D01*
X149012401Y-83206069D01*
X149021072Y-83213928D01*
X149028931Y-83222599D01*
X149035903Y-83231998D01*
X149041919Y-83242036D01*
X149046923Y-83252615D01*
X149050865Y-83263634D01*
X149053709Y-83274985D01*
X149055426Y-83286561D01*
X149056000Y-83298250D01*
X149056000Y-83561750D01*
X149055426Y-83573439D01*
X149053709Y-83585015D01*
X149050865Y-83596366D01*
X149046923Y-83607385D01*
X149041919Y-83617964D01*
X149035903Y-83628002D01*
X149028931Y-83637401D01*
X149021072Y-83646072D01*
X149012401Y-83653931D01*
X149003002Y-83660903D01*
X148992964Y-83666919D01*
X148982385Y-83671923D01*
X148971366Y-83675865D01*
X148960015Y-83678709D01*
X148948439Y-83680426D01*
X148936750Y-83681000D01*
X148698250Y-83681000D01*
X148686561Y-83680426D01*
X148674985Y-83678709D01*
X148663634Y-83675865D01*
X148652615Y-83671923D01*
X148642036Y-83666919D01*
X148631998Y-83660903D01*
X148622599Y-83653931D01*
X148613928Y-83646072D01*
X148606069Y-83637401D01*
X148599097Y-83628002D01*
X148593081Y-83617964D01*
X148588077Y-83607385D01*
X148584135Y-83596366D01*
X148581291Y-83585015D01*
X148579574Y-83573439D01*
X148579000Y-83561750D01*
X148579000Y-83298250D01*
X148579574Y-83286561D01*
X148581291Y-83274985D01*
X148584135Y-83263634D01*
X148588077Y-83252615D01*
X148593081Y-83242036D01*
X148599097Y-83231998D01*
X148606069Y-83222599D01*
X148613928Y-83213928D01*
X148622599Y-83206069D01*
X148631998Y-83199097D01*
X148642036Y-83193081D01*
X148652615Y-83188077D01*
X148663634Y-83184135D01*
X148674985Y-83181291D01*
X148686561Y-83179574D01*
X148698250Y-83179000D01*
X148936750Y-83179000D01*
X148948439Y-83179574D01*
G37*
G36*
X148948439Y-83829574D02*
G01*
X148960015Y-83831291D01*
X148971366Y-83834135D01*
X148982385Y-83838077D01*
X148992964Y-83843081D01*
X149003002Y-83849097D01*
X149012401Y-83856069D01*
X149021072Y-83863928D01*
X149028931Y-83872599D01*
X149035903Y-83881998D01*
X149041919Y-83892036D01*
X149046923Y-83902615D01*
X149050865Y-83913634D01*
X149053709Y-83924985D01*
X149055426Y-83936561D01*
X149056000Y-83948250D01*
X149056000Y-84211750D01*
X149055426Y-84223439D01*
X149053709Y-84235015D01*
X149050865Y-84246366D01*
X149046923Y-84257385D01*
X149041919Y-84267964D01*
X149035903Y-84278002D01*
X149028931Y-84287401D01*
X149021072Y-84296072D01*
X149012401Y-84303931D01*
X149003002Y-84310903D01*
X148992964Y-84316919D01*
X148982385Y-84321923D01*
X148971366Y-84325865D01*
X148960015Y-84328709D01*
X148948439Y-84330426D01*
X148936750Y-84331000D01*
X148698250Y-84331000D01*
X148686561Y-84330426D01*
X148674985Y-84328709D01*
X148663634Y-84325865D01*
X148652615Y-84321923D01*
X148642036Y-84316919D01*
X148631998Y-84310903D01*
X148622599Y-84303931D01*
X148613928Y-84296072D01*
X148606069Y-84287401D01*
X148599097Y-84278002D01*
X148593081Y-84267964D01*
X148588077Y-84257385D01*
X148584135Y-84246366D01*
X148581291Y-84235015D01*
X148579574Y-84223439D01*
X148579000Y-84211750D01*
X148579000Y-83948250D01*
X148579574Y-83936561D01*
X148581291Y-83924985D01*
X148584135Y-83913634D01*
X148588077Y-83902615D01*
X148593081Y-83892036D01*
X148599097Y-83881998D01*
X148606069Y-83872599D01*
X148613928Y-83863928D01*
X148622599Y-83856069D01*
X148631998Y-83849097D01*
X148642036Y-83843081D01*
X148652615Y-83838077D01*
X148663634Y-83834135D01*
X148674985Y-83831291D01*
X148686561Y-83829574D01*
X148698250Y-83829000D01*
X148936750Y-83829000D01*
X148948439Y-83829574D01*
G37*
G36*
X149788779Y-86700266D02*
G01*
X149814309Y-86704053D01*
X149839345Y-86710325D01*
X149863646Y-86719020D01*
X149886977Y-86730055D01*
X149909115Y-86743323D01*
X149929845Y-86758698D01*
X149948969Y-86776031D01*
X149966302Y-86795155D01*
X149981677Y-86815885D01*
X149994945Y-86838023D01*
X150005980Y-86861354D01*
X150014675Y-86885655D01*
X150020947Y-86910691D01*
X150024734Y-86936221D01*
X150026000Y-86962000D01*
X150026000Y-87588000D01*
X150024734Y-87613779D01*
X150020947Y-87639309D01*
X150014675Y-87664345D01*
X150005980Y-87688646D01*
X149994945Y-87711977D01*
X149981677Y-87734115D01*
X149966302Y-87754845D01*
X149948969Y-87773969D01*
X149929845Y-87791302D01*
X149909115Y-87806677D01*
X149886977Y-87819945D01*
X149863646Y-87830980D01*
X149839345Y-87839675D01*
X149814309Y-87845947D01*
X149788779Y-87849734D01*
X149763000Y-87851000D01*
X149237000Y-87851000D01*
X149211221Y-87849734D01*
X149185691Y-87845947D01*
X149160655Y-87839675D01*
X149136354Y-87830980D01*
X149113023Y-87819945D01*
X149090885Y-87806677D01*
X149070155Y-87791302D01*
X149051031Y-87773969D01*
X149033698Y-87754845D01*
X149018323Y-87734115D01*
X149005055Y-87711977D01*
X148994020Y-87688646D01*
X148985325Y-87664345D01*
X148979053Y-87639309D01*
X148975266Y-87613779D01*
X148974000Y-87588000D01*
X148974000Y-86962000D01*
X148975266Y-86936221D01*
X148979053Y-86910691D01*
X148985325Y-86885655D01*
X148994020Y-86861354D01*
X149005055Y-86838023D01*
X149018323Y-86815885D01*
X149033698Y-86795155D01*
X149051031Y-86776031D01*
X149070155Y-86758698D01*
X149090885Y-86743323D01*
X149113023Y-86730055D01*
X149136354Y-86719020D01*
X149160655Y-86710325D01*
X149185691Y-86704053D01*
X149211221Y-86700266D01*
X149237000Y-86699000D01*
X149763000Y-86699000D01*
X149788779Y-86700266D01*
G37*
G36*
X149788779Y-84950266D02*
G01*
X149814309Y-84954053D01*
X149839345Y-84960325D01*
X149863646Y-84969020D01*
X149886977Y-84980055D01*
X149909115Y-84993323D01*
X149929845Y-85008698D01*
X149948969Y-85026031D01*
X149966302Y-85045155D01*
X149981677Y-85065885D01*
X149994945Y-85088023D01*
X150005980Y-85111354D01*
X150014675Y-85135655D01*
X150020947Y-85160691D01*
X150024734Y-85186221D01*
X150026000Y-85212000D01*
X150026000Y-85838000D01*
X150024734Y-85863779D01*
X150020947Y-85889309D01*
X150014675Y-85914345D01*
X150005980Y-85938646D01*
X149994945Y-85961977D01*
X149981677Y-85984115D01*
X149966302Y-86004845D01*
X149948969Y-86023969D01*
X149929845Y-86041302D01*
X149909115Y-86056677D01*
X149886977Y-86069945D01*
X149863646Y-86080980D01*
X149839345Y-86089675D01*
X149814309Y-86095947D01*
X149788779Y-86099734D01*
X149763000Y-86101000D01*
X149237000Y-86101000D01*
X149211221Y-86099734D01*
X149185691Y-86095947D01*
X149160655Y-86089675D01*
X149136354Y-86080980D01*
X149113023Y-86069945D01*
X149090885Y-86056677D01*
X149070155Y-86041302D01*
X149051031Y-86023969D01*
X149033698Y-86004845D01*
X149018323Y-85984115D01*
X149005055Y-85961977D01*
X148994020Y-85938646D01*
X148985325Y-85914345D01*
X148979053Y-85889309D01*
X148975266Y-85863779D01*
X148974000Y-85838000D01*
X148974000Y-85212000D01*
X148975266Y-85186221D01*
X148979053Y-85160691D01*
X148985325Y-85135655D01*
X148994020Y-85111354D01*
X149005055Y-85088023D01*
X149018323Y-85065885D01*
X149033698Y-85045155D01*
X149051031Y-85026031D01*
X149070155Y-85008698D01*
X149090885Y-84993323D01*
X149113023Y-84980055D01*
X149136354Y-84969020D01*
X149160655Y-84960325D01*
X149185691Y-84954053D01*
X149211221Y-84950266D01*
X149237000Y-84949000D01*
X149763000Y-84949000D01*
X149788779Y-84950266D01*
G37*
D25*
X148800000Y-58000000D03*
D16*
G36*
X149481338Y-59350306D02*
G01*
X149507669Y-59354212D01*
X149533490Y-59360680D01*
X149558553Y-59369648D01*
X149582617Y-59381029D01*
X149605449Y-59394714D01*
X149626830Y-59410571D01*
X149646553Y-59428447D01*
X149664429Y-59448170D01*
X149680286Y-59469551D01*
X149693971Y-59492383D01*
X149705352Y-59516447D01*
X149714320Y-59541510D01*
X149720788Y-59567331D01*
X149724694Y-59593662D01*
X149726000Y-59620249D01*
X149726000Y-60379751D01*
X149724694Y-60406338D01*
X149720788Y-60432669D01*
X149714320Y-60458490D01*
X149705352Y-60483553D01*
X149693971Y-60507617D01*
X149680286Y-60530449D01*
X149664429Y-60551830D01*
X149646553Y-60571553D01*
X149626830Y-60589429D01*
X149605449Y-60605286D01*
X149582617Y-60618971D01*
X149558553Y-60630352D01*
X149533490Y-60639320D01*
X149507669Y-60645788D01*
X149481338Y-60649694D01*
X149454751Y-60651000D01*
X148145249Y-60651000D01*
X148118662Y-60649694D01*
X148092331Y-60645788D01*
X148066510Y-60639320D01*
X148041447Y-60630352D01*
X148017383Y-60618971D01*
X147994551Y-60605286D01*
X147973170Y-60589429D01*
X147953447Y-60571553D01*
X147935571Y-60551830D01*
X147919714Y-60530449D01*
X147906029Y-60507617D01*
X147894648Y-60483553D01*
X147885680Y-60458490D01*
X147879212Y-60432669D01*
X147875306Y-60406338D01*
X147874000Y-60379751D01*
X147874000Y-59620249D01*
X147875306Y-59593662D01*
X147879212Y-59567331D01*
X147885680Y-59541510D01*
X147894648Y-59516447D01*
X147906029Y-59492383D01*
X147919714Y-59469551D01*
X147935571Y-59448170D01*
X147953447Y-59428447D01*
X147973170Y-59410571D01*
X147994551Y-59394714D01*
X148017383Y-59381029D01*
X148041447Y-59369648D01*
X148066510Y-59360680D01*
X148092331Y-59354212D01*
X148118662Y-59350306D01*
X148145249Y-59349000D01*
X149454751Y-59349000D01*
X149481338Y-59350306D01*
G37*
D17*
X144700000Y-57460000D03*
D18*
X144700000Y-60000000D03*
D25*
X123000000Y-72700000D03*
D16*
G36*
X123681338Y-70050306D02*
G01*
X123707669Y-70054212D01*
X123733490Y-70060680D01*
X123758553Y-70069648D01*
X123782617Y-70081029D01*
X123805449Y-70094714D01*
X123826830Y-70110571D01*
X123846553Y-70128447D01*
X123864429Y-70148170D01*
X123880286Y-70169551D01*
X123893971Y-70192383D01*
X123905352Y-70216447D01*
X123914320Y-70241510D01*
X123920788Y-70267331D01*
X123924694Y-70293662D01*
X123926000Y-70320249D01*
X123926000Y-71079751D01*
X123924694Y-71106338D01*
X123920788Y-71132669D01*
X123914320Y-71158490D01*
X123905352Y-71183553D01*
X123893971Y-71207617D01*
X123880286Y-71230449D01*
X123864429Y-71251830D01*
X123846553Y-71271553D01*
X123826830Y-71289429D01*
X123805449Y-71305286D01*
X123782617Y-71318971D01*
X123758553Y-71330352D01*
X123733490Y-71339320D01*
X123707669Y-71345788D01*
X123681338Y-71349694D01*
X123654751Y-71351000D01*
X122345249Y-71351000D01*
X122318662Y-71349694D01*
X122292331Y-71345788D01*
X122266510Y-71339320D01*
X122241447Y-71330352D01*
X122217383Y-71318971D01*
X122194551Y-71305286D01*
X122173170Y-71289429D01*
X122153447Y-71271553D01*
X122135571Y-71251830D01*
X122119714Y-71230449D01*
X122106029Y-71207617D01*
X122094648Y-71183553D01*
X122085680Y-71158490D01*
X122079212Y-71132669D01*
X122075306Y-71106338D01*
X122074000Y-71079751D01*
X122074000Y-70320249D01*
X122075306Y-70293662D01*
X122079212Y-70267331D01*
X122085680Y-70241510D01*
X122094648Y-70216447D01*
X122106029Y-70192383D01*
X122119714Y-70169551D01*
X122135571Y-70148170D01*
X122153447Y-70128447D01*
X122173170Y-70110571D01*
X122194551Y-70094714D01*
X122217383Y-70081029D01*
X122241447Y-70069648D01*
X122266510Y-70060680D01*
X122292331Y-70054212D01*
X122318662Y-70050306D01*
X122345249Y-70049000D01*
X123654751Y-70049000D01*
X123681338Y-70050306D01*
G37*
D26*
X118525000Y-79480000D03*
X118525000Y-88120000D03*
X122325000Y-79480000D03*
X122325000Y-88120000D03*
D27*
X122475000Y-81050000D03*
D28*
X122475000Y-82280000D03*
D29*
X122475000Y-83300000D03*
X122475000Y-84300000D03*
D28*
X122475000Y-85320000D03*
D27*
X122475000Y-86550000D03*
D30*
X147250000Y-80000000D03*
X150550000Y-80000000D03*
D16*
G36*
X139105505Y-82050311D02*
G01*
X139131925Y-82054230D01*
X139157835Y-82060720D01*
X139182983Y-82069718D01*
X139207128Y-82081138D01*
X139230038Y-82094869D01*
X139251492Y-82110780D01*
X139271282Y-82128718D01*
X139289220Y-82148508D01*
X139305131Y-82169962D01*
X139318862Y-82192872D01*
X139330282Y-82217017D01*
X139339280Y-82242165D01*
X139345770Y-82268075D01*
X139349689Y-82294495D01*
X139351000Y-82321173D01*
X139351000Y-83028827D01*
X139349689Y-83055505D01*
X139345770Y-83081925D01*
X139339280Y-83107835D01*
X139330282Y-83132983D01*
X139318862Y-83157128D01*
X139305131Y-83180038D01*
X139289220Y-83201492D01*
X139271282Y-83221282D01*
X139251492Y-83239220D01*
X139230038Y-83255131D01*
X139207128Y-83268862D01*
X139182983Y-83280282D01*
X139157835Y-83289280D01*
X139131925Y-83295770D01*
X139105505Y-83299689D01*
X139078827Y-83301000D01*
X138121173Y-83301000D01*
X138094495Y-83299689D01*
X138068075Y-83295770D01*
X138042165Y-83289280D01*
X138017017Y-83280282D01*
X137992872Y-83268862D01*
X137969962Y-83255131D01*
X137948508Y-83239220D01*
X137928718Y-83221282D01*
X137910780Y-83201492D01*
X137894869Y-83180038D01*
X137881138Y-83157128D01*
X137869718Y-83132983D01*
X137860720Y-83107835D01*
X137854230Y-83081925D01*
X137850311Y-83055505D01*
X137849000Y-83028827D01*
X137849000Y-82321173D01*
X137850311Y-82294495D01*
X137854230Y-82268075D01*
X137860720Y-82242165D01*
X137869718Y-82217017D01*
X137881138Y-82192872D01*
X137894869Y-82169962D01*
X137910780Y-82148508D01*
X137928718Y-82128718D01*
X137948508Y-82110780D01*
X137969962Y-82094869D01*
X137992872Y-82081138D01*
X138017017Y-82069718D01*
X138042165Y-82060720D01*
X138068075Y-82054230D01*
X138094495Y-82050311D01*
X138121173Y-82049000D01*
X139078827Y-82049000D01*
X139105505Y-82050311D01*
G37*
G36*
X139105505Y-84100311D02*
G01*
X139131925Y-84104230D01*
X139157835Y-84110720D01*
X139182983Y-84119718D01*
X139207128Y-84131138D01*
X139230038Y-84144869D01*
X139251492Y-84160780D01*
X139271282Y-84178718D01*
X139289220Y-84198508D01*
X139305131Y-84219962D01*
X139318862Y-84242872D01*
X139330282Y-84267017D01*
X139339280Y-84292165D01*
X139345770Y-84318075D01*
X139349689Y-84344495D01*
X139351000Y-84371173D01*
X139351000Y-85078827D01*
X139349689Y-85105505D01*
X139345770Y-85131925D01*
X139339280Y-85157835D01*
X139330282Y-85182983D01*
X139318862Y-85207128D01*
X139305131Y-85230038D01*
X139289220Y-85251492D01*
X139271282Y-85271282D01*
X139251492Y-85289220D01*
X139230038Y-85305131D01*
X139207128Y-85318862D01*
X139182983Y-85330282D01*
X139157835Y-85339280D01*
X139131925Y-85345770D01*
X139105505Y-85349689D01*
X139078827Y-85351000D01*
X138121173Y-85351000D01*
X138094495Y-85349689D01*
X138068075Y-85345770D01*
X138042165Y-85339280D01*
X138017017Y-85330282D01*
X137992872Y-85318862D01*
X137969962Y-85305131D01*
X137948508Y-85289220D01*
X137928718Y-85271282D01*
X137910780Y-85251492D01*
X137894869Y-85230038D01*
X137881138Y-85207128D01*
X137869718Y-85182983D01*
X137860720Y-85157835D01*
X137854230Y-85131925D01*
X137850311Y-85105505D01*
X137849000Y-85078827D01*
X137849000Y-84371173D01*
X137850311Y-84344495D01*
X137854230Y-84318075D01*
X137860720Y-84292165D01*
X137869718Y-84267017D01*
X137881138Y-84242872D01*
X137894869Y-84219962D01*
X137910780Y-84198508D01*
X137928718Y-84178718D01*
X137948508Y-84160780D01*
X137969962Y-84144869D01*
X137992872Y-84131138D01*
X138017017Y-84119718D01*
X138042165Y-84110720D01*
X138068075Y-84104230D01*
X138094495Y-84100311D01*
X138121173Y-84099000D01*
X139078827Y-84099000D01*
X139105505Y-84100311D01*
G37*
G36*
X153205505Y-81475311D02*
G01*
X153231925Y-81479230D01*
X153257835Y-81485720D01*
X153282983Y-81494718D01*
X153307128Y-81506138D01*
X153330038Y-81519869D01*
X153351492Y-81535780D01*
X153371282Y-81553718D01*
X153389220Y-81573508D01*
X153405131Y-81594962D01*
X153418862Y-81617872D01*
X153430282Y-81642017D01*
X153439280Y-81667165D01*
X153445770Y-81693075D01*
X153449689Y-81719495D01*
X153451000Y-81746173D01*
X153451000Y-82453827D01*
X153449689Y-82480505D01*
X153445770Y-82506925D01*
X153439280Y-82532835D01*
X153430282Y-82557983D01*
X153418862Y-82582128D01*
X153405131Y-82605038D01*
X153389220Y-82626492D01*
X153371282Y-82646282D01*
X153351492Y-82664220D01*
X153330038Y-82680131D01*
X153307128Y-82693862D01*
X153282983Y-82705282D01*
X153257835Y-82714280D01*
X153231925Y-82720770D01*
X153205505Y-82724689D01*
X153178827Y-82726000D01*
X152221173Y-82726000D01*
X152194495Y-82724689D01*
X152168075Y-82720770D01*
X152142165Y-82714280D01*
X152117017Y-82705282D01*
X152092872Y-82693862D01*
X152069962Y-82680131D01*
X152048508Y-82664220D01*
X152028718Y-82646282D01*
X152010780Y-82626492D01*
X151994869Y-82605038D01*
X151981138Y-82582128D01*
X151969718Y-82557983D01*
X151960720Y-82532835D01*
X151954230Y-82506925D01*
X151950311Y-82480505D01*
X151949000Y-82453827D01*
X151949000Y-81746173D01*
X151950311Y-81719495D01*
X151954230Y-81693075D01*
X151960720Y-81667165D01*
X151969718Y-81642017D01*
X151981138Y-81617872D01*
X151994869Y-81594962D01*
X152010780Y-81573508D01*
X152028718Y-81553718D01*
X152048508Y-81535780D01*
X152069962Y-81519869D01*
X152092872Y-81506138D01*
X152117017Y-81494718D01*
X152142165Y-81485720D01*
X152168075Y-81479230D01*
X152194495Y-81475311D01*
X152221173Y-81474000D01*
X153178827Y-81474000D01*
X153205505Y-81475311D01*
G37*
G36*
X153205505Y-79425311D02*
G01*
X153231925Y-79429230D01*
X153257835Y-79435720D01*
X153282983Y-79444718D01*
X153307128Y-79456138D01*
X153330038Y-79469869D01*
X153351492Y-79485780D01*
X153371282Y-79503718D01*
X153389220Y-79523508D01*
X153405131Y-79544962D01*
X153418862Y-79567872D01*
X153430282Y-79592017D01*
X153439280Y-79617165D01*
X153445770Y-79643075D01*
X153449689Y-79669495D01*
X153451000Y-79696173D01*
X153451000Y-80403827D01*
X153449689Y-80430505D01*
X153445770Y-80456925D01*
X153439280Y-80482835D01*
X153430282Y-80507983D01*
X153418862Y-80532128D01*
X153405131Y-80555038D01*
X153389220Y-80576492D01*
X153371282Y-80596282D01*
X153351492Y-80614220D01*
X153330038Y-80630131D01*
X153307128Y-80643862D01*
X153282983Y-80655282D01*
X153257835Y-80664280D01*
X153231925Y-80670770D01*
X153205505Y-80674689D01*
X153178827Y-80676000D01*
X152221173Y-80676000D01*
X152194495Y-80674689D01*
X152168075Y-80670770D01*
X152142165Y-80664280D01*
X152117017Y-80655282D01*
X152092872Y-80643862D01*
X152069962Y-80630131D01*
X152048508Y-80614220D01*
X152028718Y-80596282D01*
X152010780Y-80576492D01*
X151994869Y-80555038D01*
X151981138Y-80532128D01*
X151969718Y-80507983D01*
X151960720Y-80482835D01*
X151954230Y-80456925D01*
X151950311Y-80430505D01*
X151949000Y-80403827D01*
X151949000Y-79696173D01*
X151950311Y-79669495D01*
X151954230Y-79643075D01*
X151960720Y-79617165D01*
X151969718Y-79592017D01*
X151981138Y-79567872D01*
X151994869Y-79544962D01*
X152010780Y-79523508D01*
X152028718Y-79503718D01*
X152048508Y-79485780D01*
X152069962Y-79469869D01*
X152092872Y-79456138D01*
X152117017Y-79444718D01*
X152142165Y-79435720D01*
X152168075Y-79429230D01*
X152194495Y-79425311D01*
X152221173Y-79424000D01*
X153178827Y-79424000D01*
X153205505Y-79425311D01*
G37*
G36*
X150888779Y-81550266D02*
G01*
X150914309Y-81554053D01*
X150939345Y-81560325D01*
X150963646Y-81569020D01*
X150986977Y-81580055D01*
X151009115Y-81593323D01*
X151029845Y-81608698D01*
X151048969Y-81626031D01*
X151066302Y-81645155D01*
X151081677Y-81665885D01*
X151094945Y-81688023D01*
X151105980Y-81711354D01*
X151114675Y-81735655D01*
X151120947Y-81760691D01*
X151124734Y-81786221D01*
X151126000Y-81812000D01*
X151126000Y-82438000D01*
X151124734Y-82463779D01*
X151120947Y-82489309D01*
X151114675Y-82514345D01*
X151105980Y-82538646D01*
X151094945Y-82561977D01*
X151081677Y-82584115D01*
X151066302Y-82604845D01*
X151048969Y-82623969D01*
X151029845Y-82641302D01*
X151009115Y-82656677D01*
X150986977Y-82669945D01*
X150963646Y-82680980D01*
X150939345Y-82689675D01*
X150914309Y-82695947D01*
X150888779Y-82699734D01*
X150863000Y-82701000D01*
X150337000Y-82701000D01*
X150311221Y-82699734D01*
X150285691Y-82695947D01*
X150260655Y-82689675D01*
X150236354Y-82680980D01*
X150213023Y-82669945D01*
X150190885Y-82656677D01*
X150170155Y-82641302D01*
X150151031Y-82623969D01*
X150133698Y-82604845D01*
X150118323Y-82584115D01*
X150105055Y-82561977D01*
X150094020Y-82538646D01*
X150085325Y-82514345D01*
X150079053Y-82489309D01*
X150075266Y-82463779D01*
X150074000Y-82438000D01*
X150074000Y-81812000D01*
X150075266Y-81786221D01*
X150079053Y-81760691D01*
X150085325Y-81735655D01*
X150094020Y-81711354D01*
X150105055Y-81688023D01*
X150118323Y-81665885D01*
X150133698Y-81645155D01*
X150151031Y-81626031D01*
X150170155Y-81608698D01*
X150190885Y-81593323D01*
X150213023Y-81580055D01*
X150236354Y-81569020D01*
X150260655Y-81560325D01*
X150285691Y-81554053D01*
X150311221Y-81550266D01*
X150337000Y-81549000D01*
X150863000Y-81549000D01*
X150888779Y-81550266D01*
G37*
G36*
X150888779Y-83300266D02*
G01*
X150914309Y-83304053D01*
X150939345Y-83310325D01*
X150963646Y-83319020D01*
X150986977Y-83330055D01*
X151009115Y-83343323D01*
X151029845Y-83358698D01*
X151048969Y-83376031D01*
X151066302Y-83395155D01*
X151081677Y-83415885D01*
X151094945Y-83438023D01*
X151105980Y-83461354D01*
X151114675Y-83485655D01*
X151120947Y-83510691D01*
X151124734Y-83536221D01*
X151126000Y-83562000D01*
X151126000Y-84188000D01*
X151124734Y-84213779D01*
X151120947Y-84239309D01*
X151114675Y-84264345D01*
X151105980Y-84288646D01*
X151094945Y-84311977D01*
X151081677Y-84334115D01*
X151066302Y-84354845D01*
X151048969Y-84373969D01*
X151029845Y-84391302D01*
X151009115Y-84406677D01*
X150986977Y-84419945D01*
X150963646Y-84430980D01*
X150939345Y-84439675D01*
X150914309Y-84445947D01*
X150888779Y-84449734D01*
X150863000Y-84451000D01*
X150337000Y-84451000D01*
X150311221Y-84449734D01*
X150285691Y-84445947D01*
X150260655Y-84439675D01*
X150236354Y-84430980D01*
X150213023Y-84419945D01*
X150190885Y-84406677D01*
X150170155Y-84391302D01*
X150151031Y-84373969D01*
X150133698Y-84354845D01*
X150118323Y-84334115D01*
X150105055Y-84311977D01*
X150094020Y-84288646D01*
X150085325Y-84264345D01*
X150079053Y-84239309D01*
X150075266Y-84213779D01*
X150074000Y-84188000D01*
X150074000Y-83562000D01*
X150075266Y-83536221D01*
X150079053Y-83510691D01*
X150085325Y-83485655D01*
X150094020Y-83461354D01*
X150105055Y-83438023D01*
X150118323Y-83415885D01*
X150133698Y-83395155D01*
X150151031Y-83376031D01*
X150170155Y-83358698D01*
X150190885Y-83343323D01*
X150213023Y-83330055D01*
X150236354Y-83319020D01*
X150260655Y-83310325D01*
X150285691Y-83304053D01*
X150311221Y-83300266D01*
X150337000Y-83299000D01*
X150863000Y-83299000D01*
X150888779Y-83300266D01*
G37*
M02*
