G04 #@! TF.GenerationSoftware,KiCad,Pcbnew,(5.1.5-0)*
G04 #@! TF.CreationDate,2021-08-17T13:30:23-06:00*
G04 #@! TF.ProjectId,HX711_710_711_720,48583731-315f-4373-9130-5f3731315f37,rev?*
G04 #@! TF.SameCoordinates,Original*
G04 #@! TF.FileFunction,Legend,Top*
G04 #@! TF.FilePolarity,Positive*
%FSLAX46Y46*%
G04 Gerber Fmt 4.6, Leading zero omitted, Abs format (unit mm)*
G04 Created by KiCad (PCBNEW (5.1.5-0)) date 2021-08-17 13:30:23*
%MOMM*%
%LPD*%
G04 APERTURE LIST*
%ADD10C,0.120000*%
%ADD11C,0.150000*%
G04 APERTURE END LIST*
D10*
X153371267Y-51890000D02*
X153028733Y-51890000D01*
X153371267Y-52910000D02*
X153028733Y-52910000D01*
X160300000Y-83840000D02*
X156850000Y-83840000D01*
X160300000Y-83840000D02*
X162250000Y-83840000D01*
X160300000Y-88960000D02*
X158350000Y-88960000D01*
X160300000Y-88960000D02*
X162250000Y-88960000D01*
X161475000Y-70805000D02*
X158025000Y-70805000D01*
X161475000Y-70805000D02*
X163425000Y-70805000D01*
X161475000Y-75925000D02*
X159525000Y-75925000D01*
X161475000Y-75925000D02*
X163425000Y-75925000D01*
X135350000Y-63050000D02*
X135350000Y-61810000D01*
X130650000Y-63050000D02*
X130650000Y-61810000D01*
X130650000Y-60480000D02*
X130650000Y-60130000D01*
X130650000Y-60130000D02*
X135350000Y-60130000D01*
X135350000Y-60130000D02*
X135350000Y-60480000D01*
X130650000Y-60480000D02*
X129400000Y-60480000D01*
X130650000Y-64380000D02*
X130650000Y-64730000D01*
X130650000Y-64730000D02*
X135350000Y-64730000D01*
X135350000Y-64730000D02*
X135350000Y-64380000D01*
X130440000Y-89420000D02*
X131900000Y-89420000D01*
X130440000Y-92580000D02*
X132600000Y-92580000D01*
X130440000Y-92580000D02*
X130440000Y-91650000D01*
X130440000Y-89420000D02*
X130440000Y-90350000D01*
X132680000Y-83540000D02*
X132680000Y-85000000D01*
X129520000Y-83540000D02*
X129520000Y-85700000D01*
X129520000Y-83540000D02*
X130450000Y-83540000D01*
X132680000Y-83540000D02*
X131750000Y-83540000D01*
X173753733Y-64510000D02*
X174096267Y-64510000D01*
X173753733Y-63490000D02*
X174096267Y-63490000D01*
X173728733Y-62510000D02*
X174071267Y-62510000D01*
X173728733Y-61490000D02*
X174071267Y-61490000D01*
X170490000Y-62753733D02*
X170490000Y-63096267D01*
X171510000Y-62753733D02*
X171510000Y-63096267D01*
X167853733Y-64410000D02*
X168196267Y-64410000D01*
X167853733Y-63390000D02*
X168196267Y-63390000D01*
X167753733Y-62410000D02*
X168096267Y-62410000D01*
X167753733Y-61390000D02*
X168096267Y-61390000D01*
X152596267Y-88490000D02*
X152253733Y-88490000D01*
X152596267Y-89510000D02*
X152253733Y-89510000D01*
X152571267Y-86690000D02*
X152228733Y-86690000D01*
X152571267Y-87710000D02*
X152228733Y-87710000D01*
X152346267Y-75690000D02*
X152003733Y-75690000D01*
X152346267Y-76710000D02*
X152003733Y-76710000D01*
X152346267Y-73690000D02*
X152003733Y-73690000D01*
X152346267Y-74710000D02*
X152003733Y-74710000D01*
X148646267Y-63090000D02*
X148303733Y-63090000D01*
X148646267Y-64110000D02*
X148303733Y-64110000D01*
X148646267Y-61090000D02*
X148303733Y-61090000D01*
X148646267Y-62110000D02*
X148303733Y-62110000D01*
X149090000Y-87928733D02*
X149090000Y-88271267D01*
X150110000Y-87928733D02*
X150110000Y-88271267D01*
X148640000Y-75003733D02*
X148640000Y-75346267D01*
X149660000Y-75003733D02*
X149660000Y-75346267D01*
X146896267Y-88590000D02*
X146553733Y-88590000D01*
X146896267Y-89610000D02*
X146553733Y-89610000D01*
X146896267Y-86590000D02*
X146553733Y-86590000D01*
X146896267Y-87610000D02*
X146553733Y-87610000D01*
X146546267Y-75590000D02*
X146203733Y-75590000D01*
X146546267Y-76610000D02*
X146203733Y-76610000D01*
X146546267Y-73790000D02*
X146203733Y-73790000D01*
X146546267Y-74810000D02*
X146203733Y-74810000D01*
X145090000Y-62528733D02*
X145090000Y-62871267D01*
X146110000Y-62528733D02*
X146110000Y-62871267D01*
X142771267Y-63090000D02*
X142428733Y-63090000D01*
X142771267Y-64110000D02*
X142428733Y-64110000D01*
X142746267Y-61190000D02*
X142403733Y-61190000D01*
X142746267Y-62210000D02*
X142403733Y-62210000D01*
X128703734Y-59275001D02*
X129046268Y-59275001D01*
X128703734Y-58255001D02*
X129046268Y-58255001D01*
X127590000Y-78403733D02*
X127590000Y-78746267D01*
X128610000Y-78403733D02*
X128610000Y-78746267D01*
X131196267Y-74890000D02*
X130853733Y-74890000D01*
X131196267Y-75910000D02*
X130853733Y-75910000D01*
X131371267Y-69090000D02*
X131028733Y-69090000D01*
X131371267Y-70110000D02*
X131028733Y-70110000D01*
X131396267Y-93290000D02*
X131053733Y-93290000D01*
X131396267Y-94310000D02*
X131053733Y-94310000D01*
X125590000Y-78453733D02*
X125590000Y-78796267D01*
X126610000Y-78453733D02*
X126610000Y-78796267D01*
X131860000Y-80080000D02*
X130400000Y-80080000D01*
X131860000Y-76920000D02*
X129700000Y-76920000D01*
X131860000Y-76920000D02*
X131860000Y-77850000D01*
X131860000Y-80080000D02*
X131860000Y-79150000D01*
X132680000Y-71940000D02*
X132680000Y-73400000D01*
X129520000Y-71940000D02*
X129520000Y-74100000D01*
X129520000Y-71940000D02*
X130450000Y-71940000D01*
X132680000Y-71940000D02*
X131750000Y-71940000D01*
X135450000Y-79500000D02*
X134050000Y-79500000D01*
X133350000Y-78800000D02*
X133350000Y-78200000D01*
X134050000Y-77500000D02*
X135450000Y-77500000D01*
X136150000Y-78200000D02*
X136150000Y-78800000D01*
X136150000Y-78800000D02*
G75*
G02X135450000Y-79500000I-700000J0D01*
G01*
X135450000Y-77500000D02*
G75*
G02X136150000Y-78200000I0J-700000D01*
G01*
X133350000Y-78200000D02*
G75*
G02X134050000Y-77500000I700000J0D01*
G01*
X134050000Y-79500000D02*
G75*
G02X133350000Y-78800000I0J700000D01*
G01*
X135550000Y-91500000D02*
X134150000Y-91500000D01*
X133450000Y-90800000D02*
X133450000Y-90200000D01*
X134150000Y-89500000D02*
X135550000Y-89500000D01*
X136250000Y-90200000D02*
X136250000Y-90800000D01*
X136250000Y-90800000D02*
G75*
G02X135550000Y-91500000I-700000J0D01*
G01*
X135550000Y-89500000D02*
G75*
G02X136250000Y-90200000I0J-700000D01*
G01*
X133450000Y-90200000D02*
G75*
G02X134150000Y-89500000I700000J0D01*
G01*
X134150000Y-91500000D02*
G75*
G02X133450000Y-90800000I0J700000D01*
G01*
X135550000Y-86300000D02*
X134150000Y-86300000D01*
X133450000Y-85600000D02*
X133450000Y-85000000D01*
X134150000Y-84300000D02*
X135550000Y-84300000D01*
X136250000Y-85000000D02*
X136250000Y-85600000D01*
X136250000Y-85600000D02*
G75*
G02X135550000Y-86300000I-700000J0D01*
G01*
X135550000Y-84300000D02*
G75*
G02X136250000Y-85000000I0J-700000D01*
G01*
X133450000Y-85000000D02*
G75*
G02X134150000Y-84300000I700000J0D01*
G01*
X134150000Y-86300000D02*
G75*
G02X133450000Y-85600000I0J700000D01*
G01*
X124500000Y-76150000D02*
X124500000Y-77550000D01*
X123800000Y-78250000D02*
X123200000Y-78250000D01*
X122500000Y-77550000D02*
X122500000Y-76150000D01*
X123200000Y-75450000D02*
X123800000Y-75450000D01*
X123800000Y-75450000D02*
G75*
G02X124500000Y-76150000I0J-700000D01*
G01*
X122500000Y-76150000D02*
G75*
G02X123200000Y-75450000I700000J0D01*
G01*
X123200000Y-78250000D02*
G75*
G02X122500000Y-77550000I0J700000D01*
G01*
X124500000Y-77550000D02*
G75*
G02X123800000Y-78250000I-700000J0D01*
G01*
X121400000Y-76150000D02*
X121400000Y-77550000D01*
X120700000Y-78250000D02*
X120100000Y-78250000D01*
X119400000Y-77550000D02*
X119400000Y-76150000D01*
X120100000Y-75450000D02*
X120700000Y-75450000D01*
X120700000Y-75450000D02*
G75*
G02X121400000Y-76150000I0J-700000D01*
G01*
X119400000Y-76150000D02*
G75*
G02X120100000Y-75450000I700000J0D01*
G01*
X120100000Y-78250000D02*
G75*
G02X119400000Y-77550000I0J700000D01*
G01*
X121400000Y-77550000D02*
G75*
G02X120700000Y-78250000I-700000J0D01*
G01*
X118200000Y-76250000D02*
X118200000Y-77650000D01*
X117500000Y-78350000D02*
X116900000Y-78350000D01*
X116200000Y-77650000D02*
X116200000Y-76250000D01*
X116900000Y-75550000D02*
X117500000Y-75550000D01*
X117500000Y-75550000D02*
G75*
G02X118200000Y-76250000I0J-700000D01*
G01*
X116200000Y-76250000D02*
G75*
G02X116900000Y-75550000I700000J0D01*
G01*
X116900000Y-78350000D02*
G75*
G02X116200000Y-77650000I0J700000D01*
G01*
X118200000Y-77650000D02*
G75*
G02X117500000Y-78350000I-700000J0D01*
G01*
X164670000Y-57000000D02*
X164670000Y-55670000D01*
X164670000Y-55670000D02*
X166000000Y-55670000D01*
X167270000Y-55670000D02*
X172410000Y-55670000D01*
X172410000Y-58330000D02*
X172410000Y-55670000D01*
X167270000Y-58330000D02*
X172410000Y-58330000D01*
X167270000Y-58330000D02*
X167270000Y-55670000D01*
X170000000Y-72670000D02*
X171330000Y-72670000D01*
X171330000Y-72670000D02*
X171330000Y-74000000D01*
X171330000Y-75270000D02*
X171330000Y-80410000D01*
X168670000Y-80410000D02*
X171330000Y-80410000D01*
X168670000Y-75270000D02*
X168670000Y-80410000D01*
X168670000Y-75270000D02*
X171330000Y-75270000D01*
X168475001Y-87995001D02*
X169805001Y-87995001D01*
X169805001Y-87995001D02*
X169805001Y-89325001D01*
X169805001Y-90595001D02*
X169805001Y-95735001D01*
X167145001Y-95735001D02*
X169805001Y-95735001D01*
X167145001Y-90595001D02*
X167145001Y-95735001D01*
X167145001Y-90595001D02*
X169805001Y-90595001D01*
X125000000Y-54940000D02*
X126330000Y-54940000D01*
X126330000Y-54940000D02*
X126330000Y-56270000D01*
X126330000Y-57540000D02*
X126330000Y-62680000D01*
X123670000Y-62680000D02*
X126330000Y-62680000D01*
X123670000Y-57540000D02*
X123670000Y-62680000D01*
X123670000Y-57540000D02*
X126330000Y-57540000D01*
X157800000Y-53740000D02*
X154350000Y-53740000D01*
X157800000Y-53740000D02*
X159750000Y-53740000D01*
X157800000Y-63860000D02*
X155850000Y-63860000D01*
X157800000Y-63860000D02*
X159750000Y-63860000D01*
X124235000Y-74872500D02*
X124235000Y-72587500D01*
X122765000Y-74872500D02*
X124235000Y-74872500D01*
X122765000Y-72587500D02*
X122765000Y-74872500D01*
X121310000Y-74747500D02*
X121310000Y-71862500D01*
X119490000Y-74747500D02*
X121310000Y-74747500D01*
X119490000Y-71862500D02*
X119490000Y-74747500D01*
X117694732Y-72216371D02*
G75*
G03X115380000Y-72274596I-1194732J1456371D01*
G01*
X166040000Y-84653733D02*
X166040000Y-84996267D01*
X167060000Y-84653733D02*
X167060000Y-84996267D01*
X166440000Y-71303733D02*
X166440000Y-71646267D01*
X167460000Y-71303733D02*
X167460000Y-71646267D01*
X165610000Y-63071267D02*
X165610000Y-62728733D01*
X164590000Y-63071267D02*
X164590000Y-62728733D01*
X155610000Y-88371267D02*
X155610000Y-88028733D01*
X154590000Y-88371267D02*
X154590000Y-88028733D01*
X155710000Y-75196267D02*
X155710000Y-74853733D01*
X154690000Y-75196267D02*
X154690000Y-74853733D01*
X152110000Y-62771267D02*
X152110000Y-62428733D01*
X151090000Y-62771267D02*
X151090000Y-62428733D01*
X128810000Y-84546267D02*
X128810000Y-84203733D01*
X127790000Y-84546267D02*
X127790000Y-84203733D01*
D11*
X150333333Y-53157142D02*
X150285714Y-53204761D01*
X150142857Y-53252380D01*
X150047619Y-53252380D01*
X149904761Y-53204761D01*
X149809523Y-53109523D01*
X149761904Y-53014285D01*
X149714285Y-52823809D01*
X149714285Y-52680952D01*
X149761904Y-52490476D01*
X149809523Y-52395238D01*
X149904761Y-52300000D01*
X150047619Y-52252380D01*
X150142857Y-52252380D01*
X150285714Y-52300000D01*
X150333333Y-52347619D01*
X150904761Y-52680952D02*
X150809523Y-52633333D01*
X150761904Y-52585714D01*
X150714285Y-52490476D01*
X150714285Y-52442857D01*
X150761904Y-52347619D01*
X150809523Y-52300000D01*
X150904761Y-52252380D01*
X151095238Y-52252380D01*
X151190476Y-52300000D01*
X151238095Y-52347619D01*
X151285714Y-52442857D01*
X151285714Y-52490476D01*
X151238095Y-52585714D01*
X151190476Y-52633333D01*
X151095238Y-52680952D01*
X150904761Y-52680952D01*
X150809523Y-52728571D01*
X150761904Y-52776190D01*
X150714285Y-52871428D01*
X150714285Y-53061904D01*
X150761904Y-53157142D01*
X150809523Y-53204761D01*
X150904761Y-53252380D01*
X151095238Y-53252380D01*
X151190476Y-53204761D01*
X151238095Y-53157142D01*
X151285714Y-53061904D01*
X151285714Y-52871428D01*
X151238095Y-52776190D01*
X151190476Y-52728571D01*
X151095238Y-52680952D01*
X159538095Y-82452380D02*
X159538095Y-83261904D01*
X159585714Y-83357142D01*
X159633333Y-83404761D01*
X159728571Y-83452380D01*
X159919047Y-83452380D01*
X160014285Y-83404761D01*
X160061904Y-83357142D01*
X160109523Y-83261904D01*
X160109523Y-82452380D01*
X161061904Y-82452380D02*
X160585714Y-82452380D01*
X160538095Y-82928571D01*
X160585714Y-82880952D01*
X160680952Y-82833333D01*
X160919047Y-82833333D01*
X161014285Y-82880952D01*
X161061904Y-82928571D01*
X161109523Y-83023809D01*
X161109523Y-83261904D01*
X161061904Y-83357142D01*
X161014285Y-83404761D01*
X160919047Y-83452380D01*
X160680952Y-83452380D01*
X160585714Y-83404761D01*
X160538095Y-83357142D01*
X160713095Y-69417380D02*
X160713095Y-70226904D01*
X160760714Y-70322142D01*
X160808333Y-70369761D01*
X160903571Y-70417380D01*
X161094047Y-70417380D01*
X161189285Y-70369761D01*
X161236904Y-70322142D01*
X161284523Y-70226904D01*
X161284523Y-69417380D01*
X162189285Y-69750714D02*
X162189285Y-70417380D01*
X161951190Y-69369761D02*
X161713095Y-70084047D01*
X162332142Y-70084047D01*
X132238095Y-58382380D02*
X132238095Y-59191904D01*
X132285714Y-59287142D01*
X132333333Y-59334761D01*
X132428571Y-59382380D01*
X132619047Y-59382380D01*
X132714285Y-59334761D01*
X132761904Y-59287142D01*
X132809523Y-59191904D01*
X132809523Y-58382380D01*
X133190476Y-58382380D02*
X133809523Y-58382380D01*
X133476190Y-58763333D01*
X133619047Y-58763333D01*
X133714285Y-58810952D01*
X133761904Y-58858571D01*
X133809523Y-58953809D01*
X133809523Y-59191904D01*
X133761904Y-59287142D01*
X133714285Y-59334761D01*
X133619047Y-59382380D01*
X133333333Y-59382380D01*
X133238095Y-59334761D01*
X133190476Y-59287142D01*
X133038095Y-92852380D02*
X133038095Y-93661904D01*
X133085714Y-93757142D01*
X133133333Y-93804761D01*
X133228571Y-93852380D01*
X133419047Y-93852380D01*
X133514285Y-93804761D01*
X133561904Y-93757142D01*
X133609523Y-93661904D01*
X133609523Y-92852380D01*
X134038095Y-92947619D02*
X134085714Y-92900000D01*
X134180952Y-92852380D01*
X134419047Y-92852380D01*
X134514285Y-92900000D01*
X134561904Y-92947619D01*
X134609523Y-93042857D01*
X134609523Y-93138095D01*
X134561904Y-93280952D01*
X133990476Y-93852380D01*
X134609523Y-93852380D01*
X128852380Y-87761904D02*
X129661904Y-87761904D01*
X129757142Y-87714285D01*
X129804761Y-87666666D01*
X129852380Y-87571428D01*
X129852380Y-87380952D01*
X129804761Y-87285714D01*
X129757142Y-87238095D01*
X129661904Y-87190476D01*
X128852380Y-87190476D01*
X129852380Y-86190476D02*
X129852380Y-86761904D01*
X129852380Y-86476190D02*
X128852380Y-86476190D01*
X128995238Y-86571428D01*
X129090476Y-86666666D01*
X129138095Y-86761904D01*
X177057142Y-64752380D02*
X176723809Y-64276190D01*
X176485714Y-64752380D02*
X176485714Y-63752380D01*
X176866666Y-63752380D01*
X176961904Y-63800000D01*
X177009523Y-63847619D01*
X177057142Y-63942857D01*
X177057142Y-64085714D01*
X177009523Y-64180952D01*
X176961904Y-64228571D01*
X176866666Y-64276190D01*
X176485714Y-64276190D01*
X177438095Y-63847619D02*
X177485714Y-63800000D01*
X177580952Y-63752380D01*
X177819047Y-63752380D01*
X177914285Y-63800000D01*
X177961904Y-63847619D01*
X178009523Y-63942857D01*
X178009523Y-64038095D01*
X177961904Y-64180952D01*
X177390476Y-64752380D01*
X178009523Y-64752380D01*
X178866666Y-63752380D02*
X178676190Y-63752380D01*
X178580952Y-63800000D01*
X178533333Y-63847619D01*
X178438095Y-63990476D01*
X178390476Y-64180952D01*
X178390476Y-64561904D01*
X178438095Y-64657142D01*
X178485714Y-64704761D01*
X178580952Y-64752380D01*
X178771428Y-64752380D01*
X178866666Y-64704761D01*
X178914285Y-64657142D01*
X178961904Y-64561904D01*
X178961904Y-64323809D01*
X178914285Y-64228571D01*
X178866666Y-64180952D01*
X178771428Y-64133333D01*
X178580952Y-64133333D01*
X178485714Y-64180952D01*
X178438095Y-64228571D01*
X178390476Y-64323809D01*
X176857142Y-62552380D02*
X176523809Y-62076190D01*
X176285714Y-62552380D02*
X176285714Y-61552380D01*
X176666666Y-61552380D01*
X176761904Y-61600000D01*
X176809523Y-61647619D01*
X176857142Y-61742857D01*
X176857142Y-61885714D01*
X176809523Y-61980952D01*
X176761904Y-62028571D01*
X176666666Y-62076190D01*
X176285714Y-62076190D01*
X177238095Y-61647619D02*
X177285714Y-61600000D01*
X177380952Y-61552380D01*
X177619047Y-61552380D01*
X177714285Y-61600000D01*
X177761904Y-61647619D01*
X177809523Y-61742857D01*
X177809523Y-61838095D01*
X177761904Y-61980952D01*
X177190476Y-62552380D01*
X177809523Y-62552380D01*
X178714285Y-61552380D02*
X178238095Y-61552380D01*
X178190476Y-62028571D01*
X178238095Y-61980952D01*
X178333333Y-61933333D01*
X178571428Y-61933333D01*
X178666666Y-61980952D01*
X178714285Y-62028571D01*
X178761904Y-62123809D01*
X178761904Y-62361904D01*
X178714285Y-62457142D01*
X178666666Y-62504761D01*
X178571428Y-62552380D01*
X178333333Y-62552380D01*
X178238095Y-62504761D01*
X178190476Y-62457142D01*
X171452380Y-67142857D02*
X170976190Y-67476190D01*
X171452380Y-67714285D02*
X170452380Y-67714285D01*
X170452380Y-67333333D01*
X170500000Y-67238095D01*
X170547619Y-67190476D01*
X170642857Y-67142857D01*
X170785714Y-67142857D01*
X170880952Y-67190476D01*
X170928571Y-67238095D01*
X170976190Y-67333333D01*
X170976190Y-67714285D01*
X170547619Y-66761904D02*
X170500000Y-66714285D01*
X170452380Y-66619047D01*
X170452380Y-66380952D01*
X170500000Y-66285714D01*
X170547619Y-66238095D01*
X170642857Y-66190476D01*
X170738095Y-66190476D01*
X170880952Y-66238095D01*
X171452380Y-66809523D01*
X171452380Y-66190476D01*
X170785714Y-65333333D02*
X171452380Y-65333333D01*
X170404761Y-65571428D02*
X171119047Y-65809523D01*
X171119047Y-65190476D01*
X167257142Y-66052380D02*
X166923809Y-65576190D01*
X166685714Y-66052380D02*
X166685714Y-65052380D01*
X167066666Y-65052380D01*
X167161904Y-65100000D01*
X167209523Y-65147619D01*
X167257142Y-65242857D01*
X167257142Y-65385714D01*
X167209523Y-65480952D01*
X167161904Y-65528571D01*
X167066666Y-65576190D01*
X166685714Y-65576190D01*
X167638095Y-65147619D02*
X167685714Y-65100000D01*
X167780952Y-65052380D01*
X168019047Y-65052380D01*
X168114285Y-65100000D01*
X168161904Y-65147619D01*
X168209523Y-65242857D01*
X168209523Y-65338095D01*
X168161904Y-65480952D01*
X167590476Y-66052380D01*
X168209523Y-66052380D01*
X168542857Y-65052380D02*
X169161904Y-65052380D01*
X168828571Y-65433333D01*
X168971428Y-65433333D01*
X169066666Y-65480952D01*
X169114285Y-65528571D01*
X169161904Y-65623809D01*
X169161904Y-65861904D01*
X169114285Y-65957142D01*
X169066666Y-66004761D01*
X168971428Y-66052380D01*
X168685714Y-66052380D01*
X168590476Y-66004761D01*
X168542857Y-65957142D01*
X167282142Y-60922380D02*
X166948809Y-60446190D01*
X166710714Y-60922380D02*
X166710714Y-59922380D01*
X167091666Y-59922380D01*
X167186904Y-59970000D01*
X167234523Y-60017619D01*
X167282142Y-60112857D01*
X167282142Y-60255714D01*
X167234523Y-60350952D01*
X167186904Y-60398571D01*
X167091666Y-60446190D01*
X166710714Y-60446190D01*
X167663095Y-60017619D02*
X167710714Y-59970000D01*
X167805952Y-59922380D01*
X168044047Y-59922380D01*
X168139285Y-59970000D01*
X168186904Y-60017619D01*
X168234523Y-60112857D01*
X168234523Y-60208095D01*
X168186904Y-60350952D01*
X167615476Y-60922380D01*
X168234523Y-60922380D01*
X168615476Y-60017619D02*
X168663095Y-59970000D01*
X168758333Y-59922380D01*
X168996428Y-59922380D01*
X169091666Y-59970000D01*
X169139285Y-60017619D01*
X169186904Y-60112857D01*
X169186904Y-60208095D01*
X169139285Y-60350952D01*
X168567857Y-60922380D01*
X169186904Y-60922380D01*
X151782142Y-90882380D02*
X151448809Y-90406190D01*
X151210714Y-90882380D02*
X151210714Y-89882380D01*
X151591666Y-89882380D01*
X151686904Y-89930000D01*
X151734523Y-89977619D01*
X151782142Y-90072857D01*
X151782142Y-90215714D01*
X151734523Y-90310952D01*
X151686904Y-90358571D01*
X151591666Y-90406190D01*
X151210714Y-90406190D01*
X152163095Y-89977619D02*
X152210714Y-89930000D01*
X152305952Y-89882380D01*
X152544047Y-89882380D01*
X152639285Y-89930000D01*
X152686904Y-89977619D01*
X152734523Y-90072857D01*
X152734523Y-90168095D01*
X152686904Y-90310952D01*
X152115476Y-90882380D01*
X152734523Y-90882380D01*
X153686904Y-90882380D02*
X153115476Y-90882380D01*
X153401190Y-90882380D02*
X153401190Y-89882380D01*
X153305952Y-90025238D01*
X153210714Y-90120476D01*
X153115476Y-90168095D01*
X151857142Y-86152380D02*
X151523809Y-85676190D01*
X151285714Y-86152380D02*
X151285714Y-85152380D01*
X151666666Y-85152380D01*
X151761904Y-85200000D01*
X151809523Y-85247619D01*
X151857142Y-85342857D01*
X151857142Y-85485714D01*
X151809523Y-85580952D01*
X151761904Y-85628571D01*
X151666666Y-85676190D01*
X151285714Y-85676190D01*
X152238095Y-85247619D02*
X152285714Y-85200000D01*
X152380952Y-85152380D01*
X152619047Y-85152380D01*
X152714285Y-85200000D01*
X152761904Y-85247619D01*
X152809523Y-85342857D01*
X152809523Y-85438095D01*
X152761904Y-85580952D01*
X152190476Y-86152380D01*
X152809523Y-86152380D01*
X153428571Y-85152380D02*
X153523809Y-85152380D01*
X153619047Y-85200000D01*
X153666666Y-85247619D01*
X153714285Y-85342857D01*
X153761904Y-85533333D01*
X153761904Y-85771428D01*
X153714285Y-85961904D01*
X153666666Y-86057142D01*
X153619047Y-86104761D01*
X153523809Y-86152380D01*
X153428571Y-86152380D01*
X153333333Y-86104761D01*
X153285714Y-86057142D01*
X153238095Y-85961904D01*
X153190476Y-85771428D01*
X153190476Y-85533333D01*
X153238095Y-85342857D01*
X153285714Y-85247619D01*
X153333333Y-85200000D01*
X153428571Y-85152380D01*
X151557142Y-77952380D02*
X151223809Y-77476190D01*
X150985714Y-77952380D02*
X150985714Y-76952380D01*
X151366666Y-76952380D01*
X151461904Y-77000000D01*
X151509523Y-77047619D01*
X151557142Y-77142857D01*
X151557142Y-77285714D01*
X151509523Y-77380952D01*
X151461904Y-77428571D01*
X151366666Y-77476190D01*
X150985714Y-77476190D01*
X152509523Y-77952380D02*
X151938095Y-77952380D01*
X152223809Y-77952380D02*
X152223809Y-76952380D01*
X152128571Y-77095238D01*
X152033333Y-77190476D01*
X151938095Y-77238095D01*
X152985714Y-77952380D02*
X153176190Y-77952380D01*
X153271428Y-77904761D01*
X153319047Y-77857142D01*
X153414285Y-77714285D01*
X153461904Y-77523809D01*
X153461904Y-77142857D01*
X153414285Y-77047619D01*
X153366666Y-77000000D01*
X153271428Y-76952380D01*
X153080952Y-76952380D01*
X152985714Y-77000000D01*
X152938095Y-77047619D01*
X152890476Y-77142857D01*
X152890476Y-77380952D01*
X152938095Y-77476190D01*
X152985714Y-77523809D01*
X153080952Y-77571428D01*
X153271428Y-77571428D01*
X153366666Y-77523809D01*
X153414285Y-77476190D01*
X153461904Y-77380952D01*
X151657142Y-73152380D02*
X151323809Y-72676190D01*
X151085714Y-73152380D02*
X151085714Y-72152380D01*
X151466666Y-72152380D01*
X151561904Y-72200000D01*
X151609523Y-72247619D01*
X151657142Y-72342857D01*
X151657142Y-72485714D01*
X151609523Y-72580952D01*
X151561904Y-72628571D01*
X151466666Y-72676190D01*
X151085714Y-72676190D01*
X152609523Y-73152380D02*
X152038095Y-73152380D01*
X152323809Y-73152380D02*
X152323809Y-72152380D01*
X152228571Y-72295238D01*
X152133333Y-72390476D01*
X152038095Y-72438095D01*
X153180952Y-72580952D02*
X153085714Y-72533333D01*
X153038095Y-72485714D01*
X152990476Y-72390476D01*
X152990476Y-72342857D01*
X153038095Y-72247619D01*
X153085714Y-72200000D01*
X153180952Y-72152380D01*
X153371428Y-72152380D01*
X153466666Y-72200000D01*
X153514285Y-72247619D01*
X153561904Y-72342857D01*
X153561904Y-72390476D01*
X153514285Y-72485714D01*
X153466666Y-72533333D01*
X153371428Y-72580952D01*
X153180952Y-72580952D01*
X153085714Y-72628571D01*
X153038095Y-72676190D01*
X152990476Y-72771428D01*
X152990476Y-72961904D01*
X153038095Y-73057142D01*
X153085714Y-73104761D01*
X153180952Y-73152380D01*
X153371428Y-73152380D01*
X153466666Y-73104761D01*
X153514285Y-73057142D01*
X153561904Y-72961904D01*
X153561904Y-72771428D01*
X153514285Y-72676190D01*
X153466666Y-72628571D01*
X153371428Y-72580952D01*
X147832142Y-65482380D02*
X147498809Y-65006190D01*
X147260714Y-65482380D02*
X147260714Y-64482380D01*
X147641666Y-64482380D01*
X147736904Y-64530000D01*
X147784523Y-64577619D01*
X147832142Y-64672857D01*
X147832142Y-64815714D01*
X147784523Y-64910952D01*
X147736904Y-64958571D01*
X147641666Y-65006190D01*
X147260714Y-65006190D01*
X148784523Y-65482380D02*
X148213095Y-65482380D01*
X148498809Y-65482380D02*
X148498809Y-64482380D01*
X148403571Y-64625238D01*
X148308333Y-64720476D01*
X148213095Y-64768095D01*
X149117857Y-64482380D02*
X149784523Y-64482380D01*
X149355952Y-65482380D01*
X147857142Y-60552380D02*
X147523809Y-60076190D01*
X147285714Y-60552380D02*
X147285714Y-59552380D01*
X147666666Y-59552380D01*
X147761904Y-59600000D01*
X147809523Y-59647619D01*
X147857142Y-59742857D01*
X147857142Y-59885714D01*
X147809523Y-59980952D01*
X147761904Y-60028571D01*
X147666666Y-60076190D01*
X147285714Y-60076190D01*
X148809523Y-60552380D02*
X148238095Y-60552380D01*
X148523809Y-60552380D02*
X148523809Y-59552380D01*
X148428571Y-59695238D01*
X148333333Y-59790476D01*
X148238095Y-59838095D01*
X149666666Y-59552380D02*
X149476190Y-59552380D01*
X149380952Y-59600000D01*
X149333333Y-59647619D01*
X149238095Y-59790476D01*
X149190476Y-59980952D01*
X149190476Y-60361904D01*
X149238095Y-60457142D01*
X149285714Y-60504761D01*
X149380952Y-60552380D01*
X149571428Y-60552380D01*
X149666666Y-60504761D01*
X149714285Y-60457142D01*
X149761904Y-60361904D01*
X149761904Y-60123809D01*
X149714285Y-60028571D01*
X149666666Y-59980952D01*
X149571428Y-59933333D01*
X149380952Y-59933333D01*
X149285714Y-59980952D01*
X149238095Y-60028571D01*
X149190476Y-60123809D01*
X150052380Y-85517857D02*
X149576190Y-85851190D01*
X150052380Y-86089285D02*
X149052380Y-86089285D01*
X149052380Y-85708333D01*
X149100000Y-85613095D01*
X149147619Y-85565476D01*
X149242857Y-85517857D01*
X149385714Y-85517857D01*
X149480952Y-85565476D01*
X149528571Y-85613095D01*
X149576190Y-85708333D01*
X149576190Y-86089285D01*
X150052380Y-84565476D02*
X150052380Y-85136904D01*
X150052380Y-84851190D02*
X149052380Y-84851190D01*
X149195238Y-84946428D01*
X149290476Y-85041666D01*
X149338095Y-85136904D01*
X149052380Y-83660714D02*
X149052380Y-84136904D01*
X149528571Y-84184523D01*
X149480952Y-84136904D01*
X149433333Y-84041666D01*
X149433333Y-83803571D01*
X149480952Y-83708333D01*
X149528571Y-83660714D01*
X149623809Y-83613095D01*
X149861904Y-83613095D01*
X149957142Y-83660714D01*
X150004761Y-83708333D01*
X150052380Y-83803571D01*
X150052380Y-84041666D01*
X150004761Y-84136904D01*
X149957142Y-84184523D01*
X149752380Y-72642857D02*
X149276190Y-72976190D01*
X149752380Y-73214285D02*
X148752380Y-73214285D01*
X148752380Y-72833333D01*
X148800000Y-72738095D01*
X148847619Y-72690476D01*
X148942857Y-72642857D01*
X149085714Y-72642857D01*
X149180952Y-72690476D01*
X149228571Y-72738095D01*
X149276190Y-72833333D01*
X149276190Y-73214285D01*
X149752380Y-71690476D02*
X149752380Y-72261904D01*
X149752380Y-71976190D02*
X148752380Y-71976190D01*
X148895238Y-72071428D01*
X148990476Y-72166666D01*
X149038095Y-72261904D01*
X149085714Y-70833333D02*
X149752380Y-70833333D01*
X148704761Y-71071428D02*
X149419047Y-71309523D01*
X149419047Y-70690476D01*
X146207142Y-91252380D02*
X145873809Y-90776190D01*
X145635714Y-91252380D02*
X145635714Y-90252380D01*
X146016666Y-90252380D01*
X146111904Y-90300000D01*
X146159523Y-90347619D01*
X146207142Y-90442857D01*
X146207142Y-90585714D01*
X146159523Y-90680952D01*
X146111904Y-90728571D01*
X146016666Y-90776190D01*
X145635714Y-90776190D01*
X147159523Y-91252380D02*
X146588095Y-91252380D01*
X146873809Y-91252380D02*
X146873809Y-90252380D01*
X146778571Y-90395238D01*
X146683333Y-90490476D01*
X146588095Y-90538095D01*
X147492857Y-90252380D02*
X148111904Y-90252380D01*
X147778571Y-90633333D01*
X147921428Y-90633333D01*
X148016666Y-90680952D01*
X148064285Y-90728571D01*
X148111904Y-90823809D01*
X148111904Y-91061904D01*
X148064285Y-91157142D01*
X148016666Y-91204761D01*
X147921428Y-91252380D01*
X147635714Y-91252380D01*
X147540476Y-91204761D01*
X147492857Y-91157142D01*
X146257142Y-86152380D02*
X145923809Y-85676190D01*
X145685714Y-86152380D02*
X145685714Y-85152380D01*
X146066666Y-85152380D01*
X146161904Y-85200000D01*
X146209523Y-85247619D01*
X146257142Y-85342857D01*
X146257142Y-85485714D01*
X146209523Y-85580952D01*
X146161904Y-85628571D01*
X146066666Y-85676190D01*
X145685714Y-85676190D01*
X147209523Y-86152380D02*
X146638095Y-86152380D01*
X146923809Y-86152380D02*
X146923809Y-85152380D01*
X146828571Y-85295238D01*
X146733333Y-85390476D01*
X146638095Y-85438095D01*
X147590476Y-85247619D02*
X147638095Y-85200000D01*
X147733333Y-85152380D01*
X147971428Y-85152380D01*
X148066666Y-85200000D01*
X148114285Y-85247619D01*
X148161904Y-85342857D01*
X148161904Y-85438095D01*
X148114285Y-85580952D01*
X147542857Y-86152380D01*
X148161904Y-86152380D01*
X145657142Y-78152380D02*
X145323809Y-77676190D01*
X145085714Y-78152380D02*
X145085714Y-77152380D01*
X145466666Y-77152380D01*
X145561904Y-77200000D01*
X145609523Y-77247619D01*
X145657142Y-77342857D01*
X145657142Y-77485714D01*
X145609523Y-77580952D01*
X145561904Y-77628571D01*
X145466666Y-77676190D01*
X145085714Y-77676190D01*
X146609523Y-78152380D02*
X146038095Y-78152380D01*
X146323809Y-78152380D02*
X146323809Y-77152380D01*
X146228571Y-77295238D01*
X146133333Y-77390476D01*
X146038095Y-77438095D01*
X147561904Y-78152380D02*
X146990476Y-78152380D01*
X147276190Y-78152380D02*
X147276190Y-77152380D01*
X147180952Y-77295238D01*
X147085714Y-77390476D01*
X146990476Y-77438095D01*
X145857142Y-73352380D02*
X145523809Y-72876190D01*
X145285714Y-73352380D02*
X145285714Y-72352380D01*
X145666666Y-72352380D01*
X145761904Y-72400000D01*
X145809523Y-72447619D01*
X145857142Y-72542857D01*
X145857142Y-72685714D01*
X145809523Y-72780952D01*
X145761904Y-72828571D01*
X145666666Y-72876190D01*
X145285714Y-72876190D01*
X146809523Y-73352380D02*
X146238095Y-73352380D01*
X146523809Y-73352380D02*
X146523809Y-72352380D01*
X146428571Y-72495238D01*
X146333333Y-72590476D01*
X146238095Y-72638095D01*
X147428571Y-72352380D02*
X147523809Y-72352380D01*
X147619047Y-72400000D01*
X147666666Y-72447619D01*
X147714285Y-72542857D01*
X147761904Y-72733333D01*
X147761904Y-72971428D01*
X147714285Y-73161904D01*
X147666666Y-73257142D01*
X147619047Y-73304761D01*
X147523809Y-73352380D01*
X147428571Y-73352380D01*
X147333333Y-73304761D01*
X147285714Y-73257142D01*
X147238095Y-73161904D01*
X147190476Y-72971428D01*
X147190476Y-72733333D01*
X147238095Y-72542857D01*
X147285714Y-72447619D01*
X147333333Y-72400000D01*
X147428571Y-72352380D01*
X145952380Y-65566666D02*
X145476190Y-65900000D01*
X145952380Y-66138095D02*
X144952380Y-66138095D01*
X144952380Y-65757142D01*
X145000000Y-65661904D01*
X145047619Y-65614285D01*
X145142857Y-65566666D01*
X145285714Y-65566666D01*
X145380952Y-65614285D01*
X145428571Y-65661904D01*
X145476190Y-65757142D01*
X145476190Y-66138095D01*
X145952380Y-65090476D02*
X145952380Y-64900000D01*
X145904761Y-64804761D01*
X145857142Y-64757142D01*
X145714285Y-64661904D01*
X145523809Y-64614285D01*
X145142857Y-64614285D01*
X145047619Y-64661904D01*
X145000000Y-64709523D01*
X144952380Y-64804761D01*
X144952380Y-64995238D01*
X145000000Y-65090476D01*
X145047619Y-65138095D01*
X145142857Y-65185714D01*
X145380952Y-65185714D01*
X145476190Y-65138095D01*
X145523809Y-65090476D01*
X145571428Y-64995238D01*
X145571428Y-64804761D01*
X145523809Y-64709523D01*
X145476190Y-64661904D01*
X145380952Y-64614285D01*
X142433333Y-65482380D02*
X142100000Y-65006190D01*
X141861904Y-65482380D02*
X141861904Y-64482380D01*
X142242857Y-64482380D01*
X142338095Y-64530000D01*
X142385714Y-64577619D01*
X142433333Y-64672857D01*
X142433333Y-64815714D01*
X142385714Y-64910952D01*
X142338095Y-64958571D01*
X142242857Y-65006190D01*
X141861904Y-65006190D01*
X143004761Y-64910952D02*
X142909523Y-64863333D01*
X142861904Y-64815714D01*
X142814285Y-64720476D01*
X142814285Y-64672857D01*
X142861904Y-64577619D01*
X142909523Y-64530000D01*
X143004761Y-64482380D01*
X143195238Y-64482380D01*
X143290476Y-64530000D01*
X143338095Y-64577619D01*
X143385714Y-64672857D01*
X143385714Y-64720476D01*
X143338095Y-64815714D01*
X143290476Y-64863333D01*
X143195238Y-64910952D01*
X143004761Y-64910952D01*
X142909523Y-64958571D01*
X142861904Y-65006190D01*
X142814285Y-65101428D01*
X142814285Y-65291904D01*
X142861904Y-65387142D01*
X142909523Y-65434761D01*
X143004761Y-65482380D01*
X143195238Y-65482380D01*
X143290476Y-65434761D01*
X143338095Y-65387142D01*
X143385714Y-65291904D01*
X143385714Y-65101428D01*
X143338095Y-65006190D01*
X143290476Y-64958571D01*
X143195238Y-64910952D01*
X142733333Y-60652380D02*
X142400000Y-60176190D01*
X142161904Y-60652380D02*
X142161904Y-59652380D01*
X142542857Y-59652380D01*
X142638095Y-59700000D01*
X142685714Y-59747619D01*
X142733333Y-59842857D01*
X142733333Y-59985714D01*
X142685714Y-60080952D01*
X142638095Y-60128571D01*
X142542857Y-60176190D01*
X142161904Y-60176190D01*
X143066666Y-59652380D02*
X143733333Y-59652380D01*
X143304761Y-60652380D01*
X128708334Y-57787381D02*
X128375001Y-57311191D01*
X128136905Y-57787381D02*
X128136905Y-56787381D01*
X128517858Y-56787381D01*
X128613096Y-56835001D01*
X128660715Y-56882620D01*
X128708334Y-56977858D01*
X128708334Y-57120715D01*
X128660715Y-57215953D01*
X128613096Y-57263572D01*
X128517858Y-57311191D01*
X128136905Y-57311191D01*
X129565477Y-56787381D02*
X129375001Y-56787381D01*
X129279762Y-56835001D01*
X129232143Y-56882620D01*
X129136905Y-57025477D01*
X129089286Y-57215953D01*
X129089286Y-57596905D01*
X129136905Y-57692143D01*
X129184524Y-57739762D01*
X129279762Y-57787381D01*
X129470239Y-57787381D01*
X129565477Y-57739762D01*
X129613096Y-57692143D01*
X129660715Y-57596905D01*
X129660715Y-57358810D01*
X129613096Y-57263572D01*
X129565477Y-57215953D01*
X129470239Y-57168334D01*
X129279762Y-57168334D01*
X129184524Y-57215953D01*
X129136905Y-57263572D01*
X129089286Y-57358810D01*
X129982380Y-78741666D02*
X129506190Y-79075000D01*
X129982380Y-79313095D02*
X128982380Y-79313095D01*
X128982380Y-78932142D01*
X129030000Y-78836904D01*
X129077619Y-78789285D01*
X129172857Y-78741666D01*
X129315714Y-78741666D01*
X129410952Y-78789285D01*
X129458571Y-78836904D01*
X129506190Y-78932142D01*
X129506190Y-79313095D01*
X128982380Y-77836904D02*
X128982380Y-78313095D01*
X129458571Y-78360714D01*
X129410952Y-78313095D01*
X129363333Y-78217857D01*
X129363333Y-77979761D01*
X129410952Y-77884523D01*
X129458571Y-77836904D01*
X129553809Y-77789285D01*
X129791904Y-77789285D01*
X129887142Y-77836904D01*
X129934761Y-77884523D01*
X129982380Y-77979761D01*
X129982380Y-78217857D01*
X129934761Y-78313095D01*
X129887142Y-78360714D01*
X133658333Y-75752380D02*
X133325000Y-75276190D01*
X133086904Y-75752380D02*
X133086904Y-74752380D01*
X133467857Y-74752380D01*
X133563095Y-74800000D01*
X133610714Y-74847619D01*
X133658333Y-74942857D01*
X133658333Y-75085714D01*
X133610714Y-75180952D01*
X133563095Y-75228571D01*
X133467857Y-75276190D01*
X133086904Y-75276190D01*
X134515476Y-75085714D02*
X134515476Y-75752380D01*
X134277380Y-74704761D02*
X134039285Y-75419047D01*
X134658333Y-75419047D01*
X128333333Y-70152380D02*
X128000000Y-69676190D01*
X127761904Y-70152380D02*
X127761904Y-69152380D01*
X128142857Y-69152380D01*
X128238095Y-69200000D01*
X128285714Y-69247619D01*
X128333333Y-69342857D01*
X128333333Y-69485714D01*
X128285714Y-69580952D01*
X128238095Y-69628571D01*
X128142857Y-69676190D01*
X127761904Y-69676190D01*
X128666666Y-69152380D02*
X129285714Y-69152380D01*
X128952380Y-69533333D01*
X129095238Y-69533333D01*
X129190476Y-69580952D01*
X129238095Y-69628571D01*
X129285714Y-69723809D01*
X129285714Y-69961904D01*
X129238095Y-70057142D01*
X129190476Y-70104761D01*
X129095238Y-70152380D01*
X128809523Y-70152380D01*
X128714285Y-70104761D01*
X128666666Y-70057142D01*
X131058333Y-95682380D02*
X130725000Y-95206190D01*
X130486904Y-95682380D02*
X130486904Y-94682380D01*
X130867857Y-94682380D01*
X130963095Y-94730000D01*
X131010714Y-94777619D01*
X131058333Y-94872857D01*
X131058333Y-95015714D01*
X131010714Y-95110952D01*
X130963095Y-95158571D01*
X130867857Y-95206190D01*
X130486904Y-95206190D01*
X131439285Y-94777619D02*
X131486904Y-94730000D01*
X131582142Y-94682380D01*
X131820238Y-94682380D01*
X131915476Y-94730000D01*
X131963095Y-94777619D01*
X132010714Y-94872857D01*
X132010714Y-94968095D01*
X131963095Y-95110952D01*
X131391666Y-95682380D01*
X132010714Y-95682380D01*
X127982380Y-78791666D02*
X127506190Y-79125000D01*
X127982380Y-79363095D02*
X126982380Y-79363095D01*
X126982380Y-78982142D01*
X127030000Y-78886904D01*
X127077619Y-78839285D01*
X127172857Y-78791666D01*
X127315714Y-78791666D01*
X127410952Y-78839285D01*
X127458571Y-78886904D01*
X127506190Y-78982142D01*
X127506190Y-79363095D01*
X127982380Y-77839285D02*
X127982380Y-78410714D01*
X127982380Y-78125000D02*
X126982380Y-78125000D01*
X127125238Y-78220238D01*
X127220476Y-78315476D01*
X127268095Y-78410714D01*
X128204761Y-76747619D02*
X128109523Y-76700000D01*
X128014285Y-76604761D01*
X127871428Y-76461904D01*
X127776190Y-76414285D01*
X127680952Y-76414285D01*
X127728571Y-76652380D02*
X127633333Y-76604761D01*
X127538095Y-76509523D01*
X127490476Y-76319047D01*
X127490476Y-75985714D01*
X127538095Y-75795238D01*
X127633333Y-75700000D01*
X127728571Y-75652380D01*
X127919047Y-75652380D01*
X128014285Y-75700000D01*
X128109523Y-75795238D01*
X128157142Y-75985714D01*
X128157142Y-76319047D01*
X128109523Y-76509523D01*
X128014285Y-76604761D01*
X127919047Y-76652380D01*
X127728571Y-76652380D01*
X128538095Y-75747619D02*
X128585714Y-75700000D01*
X128680952Y-75652380D01*
X128919047Y-75652380D01*
X129014285Y-75700000D01*
X129061904Y-75747619D01*
X129109523Y-75842857D01*
X129109523Y-75938095D01*
X129061904Y-76080952D01*
X128490476Y-76652380D01*
X129109523Y-76652380D01*
X129147619Y-73695238D02*
X129100000Y-73790476D01*
X129004761Y-73885714D01*
X128861904Y-74028571D01*
X128814285Y-74123809D01*
X128814285Y-74219047D01*
X129052380Y-74171428D02*
X129004761Y-74266666D01*
X128909523Y-74361904D01*
X128719047Y-74409523D01*
X128385714Y-74409523D01*
X128195238Y-74361904D01*
X128100000Y-74266666D01*
X128052380Y-74171428D01*
X128052380Y-73980952D01*
X128100000Y-73885714D01*
X128195238Y-73790476D01*
X128385714Y-73742857D01*
X128719047Y-73742857D01*
X128909523Y-73790476D01*
X129004761Y-73885714D01*
X129052380Y-73980952D01*
X129052380Y-74171428D01*
X129052380Y-72790476D02*
X129052380Y-73361904D01*
X129052380Y-73076190D02*
X128052380Y-73076190D01*
X128195238Y-73171428D01*
X128290476Y-73266666D01*
X128338095Y-73361904D01*
X133916666Y-79752380D02*
X133916666Y-80466666D01*
X133869047Y-80609523D01*
X133773809Y-80704761D01*
X133630952Y-80752380D01*
X133535714Y-80752380D01*
X134392857Y-80752380D02*
X134392857Y-79752380D01*
X134773809Y-79752380D01*
X134869047Y-79800000D01*
X134916666Y-79847619D01*
X134964285Y-79942857D01*
X134964285Y-80085714D01*
X134916666Y-80180952D01*
X134869047Y-80228571D01*
X134773809Y-80276190D01*
X134392857Y-80276190D01*
X135821428Y-79752380D02*
X135630952Y-79752380D01*
X135535714Y-79800000D01*
X135488095Y-79847619D01*
X135392857Y-79990476D01*
X135345238Y-80180952D01*
X135345238Y-80561904D01*
X135392857Y-80657142D01*
X135440476Y-80704761D01*
X135535714Y-80752380D01*
X135726190Y-80752380D01*
X135821428Y-80704761D01*
X135869047Y-80657142D01*
X135916666Y-80561904D01*
X135916666Y-80323809D01*
X135869047Y-80228571D01*
X135821428Y-80180952D01*
X135726190Y-80133333D01*
X135535714Y-80133333D01*
X135440476Y-80180952D01*
X135392857Y-80228571D01*
X135345238Y-80323809D01*
X134016666Y-91752380D02*
X134016666Y-92466666D01*
X133969047Y-92609523D01*
X133873809Y-92704761D01*
X133730952Y-92752380D01*
X133635714Y-92752380D01*
X134492857Y-92752380D02*
X134492857Y-91752380D01*
X134873809Y-91752380D01*
X134969047Y-91800000D01*
X135016666Y-91847619D01*
X135064285Y-91942857D01*
X135064285Y-92085714D01*
X135016666Y-92180952D01*
X134969047Y-92228571D01*
X134873809Y-92276190D01*
X134492857Y-92276190D01*
X135969047Y-91752380D02*
X135492857Y-91752380D01*
X135445238Y-92228571D01*
X135492857Y-92180952D01*
X135588095Y-92133333D01*
X135826190Y-92133333D01*
X135921428Y-92180952D01*
X135969047Y-92228571D01*
X136016666Y-92323809D01*
X136016666Y-92561904D01*
X135969047Y-92657142D01*
X135921428Y-92704761D01*
X135826190Y-92752380D01*
X135588095Y-92752380D01*
X135492857Y-92704761D01*
X135445238Y-92657142D01*
X134016666Y-86552380D02*
X134016666Y-87266666D01*
X133969047Y-87409523D01*
X133873809Y-87504761D01*
X133730952Y-87552380D01*
X133635714Y-87552380D01*
X134492857Y-87552380D02*
X134492857Y-86552380D01*
X134873809Y-86552380D01*
X134969047Y-86600000D01*
X135016666Y-86647619D01*
X135064285Y-86742857D01*
X135064285Y-86885714D01*
X135016666Y-86980952D01*
X134969047Y-87028571D01*
X134873809Y-87076190D01*
X134492857Y-87076190D01*
X135921428Y-86885714D02*
X135921428Y-87552380D01*
X135683333Y-86504761D02*
X135445238Y-87219047D01*
X136064285Y-87219047D01*
X123052380Y-81033333D02*
X123766666Y-81033333D01*
X123909523Y-81080952D01*
X124004761Y-81176190D01*
X124052380Y-81319047D01*
X124052380Y-81414285D01*
X124052380Y-80557142D02*
X123052380Y-80557142D01*
X123052380Y-80176190D01*
X123100000Y-80080952D01*
X123147619Y-80033333D01*
X123242857Y-79985714D01*
X123385714Y-79985714D01*
X123480952Y-80033333D01*
X123528571Y-80080952D01*
X123576190Y-80176190D01*
X123576190Y-80557142D01*
X123052380Y-79652380D02*
X123052380Y-79033333D01*
X123433333Y-79366666D01*
X123433333Y-79223809D01*
X123480952Y-79128571D01*
X123528571Y-79080952D01*
X123623809Y-79033333D01*
X123861904Y-79033333D01*
X123957142Y-79080952D01*
X124004761Y-79128571D01*
X124052380Y-79223809D01*
X124052380Y-79509523D01*
X124004761Y-79604761D01*
X123957142Y-79652380D01*
X119952380Y-80833333D02*
X120666666Y-80833333D01*
X120809523Y-80880952D01*
X120904761Y-80976190D01*
X120952380Y-81119047D01*
X120952380Y-81214285D01*
X120952380Y-80357142D02*
X119952380Y-80357142D01*
X119952380Y-79976190D01*
X120000000Y-79880952D01*
X120047619Y-79833333D01*
X120142857Y-79785714D01*
X120285714Y-79785714D01*
X120380952Y-79833333D01*
X120428571Y-79880952D01*
X120476190Y-79976190D01*
X120476190Y-80357142D01*
X120047619Y-79404761D02*
X120000000Y-79357142D01*
X119952380Y-79261904D01*
X119952380Y-79023809D01*
X120000000Y-78928571D01*
X120047619Y-78880952D01*
X120142857Y-78833333D01*
X120238095Y-78833333D01*
X120380952Y-78880952D01*
X120952380Y-79452380D01*
X120952380Y-78833333D01*
X116852380Y-80733333D02*
X117566666Y-80733333D01*
X117709523Y-80780952D01*
X117804761Y-80876190D01*
X117852380Y-81019047D01*
X117852380Y-81114285D01*
X117852380Y-80257142D02*
X116852380Y-80257142D01*
X116852380Y-79876190D01*
X116900000Y-79780952D01*
X116947619Y-79733333D01*
X117042857Y-79685714D01*
X117185714Y-79685714D01*
X117280952Y-79733333D01*
X117328571Y-79780952D01*
X117376190Y-79876190D01*
X117376190Y-80257142D01*
X117852380Y-78733333D02*
X117852380Y-79304761D01*
X117852380Y-79019047D02*
X116852380Y-79019047D01*
X116995238Y-79114285D01*
X117090476Y-79209523D01*
X117138095Y-79304761D01*
X162682380Y-57333333D02*
X163396666Y-57333333D01*
X163539523Y-57380952D01*
X163634761Y-57476190D01*
X163682380Y-57619047D01*
X163682380Y-57714285D01*
X163015714Y-56428571D02*
X163682380Y-56428571D01*
X162634761Y-56666666D02*
X163349047Y-56904761D01*
X163349047Y-56285714D01*
X169666666Y-70682380D02*
X169666666Y-71396666D01*
X169619047Y-71539523D01*
X169523809Y-71634761D01*
X169380952Y-71682380D01*
X169285714Y-71682380D01*
X170047619Y-70682380D02*
X170666666Y-70682380D01*
X170333333Y-71063333D01*
X170476190Y-71063333D01*
X170571428Y-71110952D01*
X170619047Y-71158571D01*
X170666666Y-71253809D01*
X170666666Y-71491904D01*
X170619047Y-71587142D01*
X170571428Y-71634761D01*
X170476190Y-71682380D01*
X170190476Y-71682380D01*
X170095238Y-71634761D01*
X170047619Y-71587142D01*
X168141667Y-86007381D02*
X168141667Y-86721667D01*
X168094048Y-86864524D01*
X167998810Y-86959762D01*
X167855953Y-87007381D01*
X167760715Y-87007381D01*
X168570239Y-86102620D02*
X168617858Y-86055001D01*
X168713096Y-86007381D01*
X168951191Y-86007381D01*
X169046429Y-86055001D01*
X169094048Y-86102620D01*
X169141667Y-86197858D01*
X169141667Y-86293096D01*
X169094048Y-86435953D01*
X168522620Y-87007381D01*
X169141667Y-87007381D01*
X124666666Y-52952380D02*
X124666666Y-53666666D01*
X124619047Y-53809523D01*
X124523809Y-53904761D01*
X124380952Y-53952380D01*
X124285714Y-53952380D01*
X125666666Y-53952380D02*
X125095238Y-53952380D01*
X125380952Y-53952380D02*
X125380952Y-52952380D01*
X125285714Y-53095238D01*
X125190476Y-53190476D01*
X125095238Y-53238095D01*
X156823809Y-53352380D02*
X156823809Y-52352380D01*
X157871428Y-53257142D02*
X157823809Y-53304761D01*
X157680952Y-53352380D01*
X157585714Y-53352380D01*
X157442857Y-53304761D01*
X157347619Y-53209523D01*
X157300000Y-53114285D01*
X157252380Y-52923809D01*
X157252380Y-52780952D01*
X157300000Y-52590476D01*
X157347619Y-52495238D01*
X157442857Y-52400000D01*
X157585714Y-52352380D01*
X157680952Y-52352380D01*
X157823809Y-52400000D01*
X157871428Y-52447619D01*
X158823809Y-53352380D02*
X158252380Y-53352380D01*
X158538095Y-53352380D02*
X158538095Y-52352380D01*
X158442857Y-52495238D01*
X158347619Y-52590476D01*
X158252380Y-52638095D01*
X123952380Y-71538095D02*
X122952380Y-71538095D01*
X122952380Y-71300000D01*
X123000000Y-71157142D01*
X123095238Y-71061904D01*
X123190476Y-71014285D01*
X123380952Y-70966666D01*
X123523809Y-70966666D01*
X123714285Y-71014285D01*
X123809523Y-71061904D01*
X123904761Y-71157142D01*
X123952380Y-71300000D01*
X123952380Y-71538095D01*
X122952380Y-70633333D02*
X122952380Y-70014285D01*
X123333333Y-70347619D01*
X123333333Y-70204761D01*
X123380952Y-70109523D01*
X123428571Y-70061904D01*
X123523809Y-70014285D01*
X123761904Y-70014285D01*
X123857142Y-70061904D01*
X123904761Y-70109523D01*
X123952380Y-70204761D01*
X123952380Y-70490476D01*
X123904761Y-70585714D01*
X123857142Y-70633333D01*
X121052380Y-70738095D02*
X120052380Y-70738095D01*
X120052380Y-70500000D01*
X120100000Y-70357142D01*
X120195238Y-70261904D01*
X120290476Y-70214285D01*
X120480952Y-70166666D01*
X120623809Y-70166666D01*
X120814285Y-70214285D01*
X120909523Y-70261904D01*
X121004761Y-70357142D01*
X121052380Y-70500000D01*
X121052380Y-70738095D01*
X120147619Y-69785714D02*
X120100000Y-69738095D01*
X120052380Y-69642857D01*
X120052380Y-69404761D01*
X120100000Y-69309523D01*
X120147619Y-69261904D01*
X120242857Y-69214285D01*
X120338095Y-69214285D01*
X120480952Y-69261904D01*
X121052380Y-69833333D01*
X121052380Y-69214285D01*
X114032380Y-72768095D02*
X113032380Y-72768095D01*
X113032380Y-72530000D01*
X113080000Y-72387142D01*
X113175238Y-72291904D01*
X113270476Y-72244285D01*
X113460952Y-72196666D01*
X113603809Y-72196666D01*
X113794285Y-72244285D01*
X113889523Y-72291904D01*
X113984761Y-72387142D01*
X114032380Y-72530000D01*
X114032380Y-72768095D01*
X114032380Y-71244285D02*
X114032380Y-71815714D01*
X114032380Y-71530000D02*
X113032380Y-71530000D01*
X113175238Y-71625238D01*
X113270476Y-71720476D01*
X113318095Y-71815714D01*
X116952380Y-75681904D02*
X115952380Y-75681904D01*
X116952380Y-75110476D02*
X116380952Y-75539047D01*
X115952380Y-75110476D02*
X116523809Y-75681904D01*
X168337142Y-84991666D02*
X168384761Y-85039285D01*
X168432380Y-85182142D01*
X168432380Y-85277380D01*
X168384761Y-85420238D01*
X168289523Y-85515476D01*
X168194285Y-85563095D01*
X168003809Y-85610714D01*
X167860952Y-85610714D01*
X167670476Y-85563095D01*
X167575238Y-85515476D01*
X167480000Y-85420238D01*
X167432380Y-85277380D01*
X167432380Y-85182142D01*
X167480000Y-85039285D01*
X167527619Y-84991666D01*
X167432380Y-84658333D02*
X167432380Y-83991666D01*
X168432380Y-84420238D01*
X168737142Y-71641666D02*
X168784761Y-71689285D01*
X168832380Y-71832142D01*
X168832380Y-71927380D01*
X168784761Y-72070238D01*
X168689523Y-72165476D01*
X168594285Y-72213095D01*
X168403809Y-72260714D01*
X168260952Y-72260714D01*
X168070476Y-72213095D01*
X167975238Y-72165476D01*
X167880000Y-72070238D01*
X167832380Y-71927380D01*
X167832380Y-71832142D01*
X167880000Y-71689285D01*
X167927619Y-71641666D01*
X167832380Y-70784523D02*
X167832380Y-70975000D01*
X167880000Y-71070238D01*
X167927619Y-71117857D01*
X168070476Y-71213095D01*
X168260952Y-71260714D01*
X168641904Y-71260714D01*
X168737142Y-71213095D01*
X168784761Y-71165476D01*
X168832380Y-71070238D01*
X168832380Y-70879761D01*
X168784761Y-70784523D01*
X168737142Y-70736904D01*
X168641904Y-70689285D01*
X168403809Y-70689285D01*
X168308571Y-70736904D01*
X168260952Y-70784523D01*
X168213333Y-70879761D01*
X168213333Y-71070238D01*
X168260952Y-71165476D01*
X168308571Y-71213095D01*
X168403809Y-71260714D01*
X164027142Y-63066666D02*
X164074761Y-63114285D01*
X164122380Y-63257142D01*
X164122380Y-63352380D01*
X164074761Y-63495238D01*
X163979523Y-63590476D01*
X163884285Y-63638095D01*
X163693809Y-63685714D01*
X163550952Y-63685714D01*
X163360476Y-63638095D01*
X163265238Y-63590476D01*
X163170000Y-63495238D01*
X163122380Y-63352380D01*
X163122380Y-63257142D01*
X163170000Y-63114285D01*
X163217619Y-63066666D01*
X163122380Y-62161904D02*
X163122380Y-62638095D01*
X163598571Y-62685714D01*
X163550952Y-62638095D01*
X163503333Y-62542857D01*
X163503333Y-62304761D01*
X163550952Y-62209523D01*
X163598571Y-62161904D01*
X163693809Y-62114285D01*
X163931904Y-62114285D01*
X164027142Y-62161904D01*
X164074761Y-62209523D01*
X164122380Y-62304761D01*
X164122380Y-62542857D01*
X164074761Y-62638095D01*
X164027142Y-62685714D01*
X155457142Y-85566666D02*
X155504761Y-85614285D01*
X155552380Y-85757142D01*
X155552380Y-85852380D01*
X155504761Y-85995238D01*
X155409523Y-86090476D01*
X155314285Y-86138095D01*
X155123809Y-86185714D01*
X154980952Y-86185714D01*
X154790476Y-86138095D01*
X154695238Y-86090476D01*
X154600000Y-85995238D01*
X154552380Y-85852380D01*
X154552380Y-85757142D01*
X154600000Y-85614285D01*
X154647619Y-85566666D01*
X154885714Y-84709523D02*
X155552380Y-84709523D01*
X154504761Y-84947619D02*
X155219047Y-85185714D01*
X155219047Y-84566666D01*
X155657142Y-72366666D02*
X155704761Y-72414285D01*
X155752380Y-72557142D01*
X155752380Y-72652380D01*
X155704761Y-72795238D01*
X155609523Y-72890476D01*
X155514285Y-72938095D01*
X155323809Y-72985714D01*
X155180952Y-72985714D01*
X154990476Y-72938095D01*
X154895238Y-72890476D01*
X154800000Y-72795238D01*
X154752380Y-72652380D01*
X154752380Y-72557142D01*
X154800000Y-72414285D01*
X154847619Y-72366666D01*
X154752380Y-72033333D02*
X154752380Y-71414285D01*
X155133333Y-71747619D01*
X155133333Y-71604761D01*
X155180952Y-71509523D01*
X155228571Y-71461904D01*
X155323809Y-71414285D01*
X155561904Y-71414285D01*
X155657142Y-71461904D01*
X155704761Y-71509523D01*
X155752380Y-71604761D01*
X155752380Y-71890476D01*
X155704761Y-71985714D01*
X155657142Y-72033333D01*
X153257142Y-62766666D02*
X153304761Y-62814285D01*
X153352380Y-62957142D01*
X153352380Y-63052380D01*
X153304761Y-63195238D01*
X153209523Y-63290476D01*
X153114285Y-63338095D01*
X152923809Y-63385714D01*
X152780952Y-63385714D01*
X152590476Y-63338095D01*
X152495238Y-63290476D01*
X152400000Y-63195238D01*
X152352380Y-63052380D01*
X152352380Y-62957142D01*
X152400000Y-62814285D01*
X152447619Y-62766666D01*
X152447619Y-62385714D02*
X152400000Y-62338095D01*
X152352380Y-62242857D01*
X152352380Y-62004761D01*
X152400000Y-61909523D01*
X152447619Y-61861904D01*
X152542857Y-61814285D01*
X152638095Y-61814285D01*
X152780952Y-61861904D01*
X153352380Y-62433333D01*
X153352380Y-61814285D01*
X127227142Y-84541666D02*
X127274761Y-84589285D01*
X127322380Y-84732142D01*
X127322380Y-84827380D01*
X127274761Y-84970238D01*
X127179523Y-85065476D01*
X127084285Y-85113095D01*
X126893809Y-85160714D01*
X126750952Y-85160714D01*
X126560476Y-85113095D01*
X126465238Y-85065476D01*
X126370000Y-84970238D01*
X126322380Y-84827380D01*
X126322380Y-84732142D01*
X126370000Y-84589285D01*
X126417619Y-84541666D01*
X127322380Y-83589285D02*
X127322380Y-84160714D01*
X127322380Y-83875000D02*
X126322380Y-83875000D01*
X126465238Y-83970238D01*
X126560476Y-84065476D01*
X126608095Y-84160714D01*
M02*
