G04 #@! TF.GenerationSoftware,KiCad,Pcbnew,(5.1.5-0)*
G04 #@! TF.CreationDate,2022-06-02T10:47:19-06:00*
G04 #@! TF.ProjectId,sq_lockin_v4,73715f6c-6f63-46b6-996e-5f76342e6b69,rev?*
G04 #@! TF.SameCoordinates,Original*
G04 #@! TF.FileFunction,Copper,L2,Bot*
G04 #@! TF.FilePolarity,Positive*
%FSLAX46Y46*%
G04 Gerber Fmt 4.6, Leading zero omitted, Abs format (unit mm)*
G04 Created by KiCad (PCBNEW (5.1.5-0)) date 2022-06-02 10:47:19*
%MOMM*%
%LPD*%
G04 APERTURE LIST*
%ADD10O,1.700000X1.700000*%
%ADD11R,1.700000X1.700000*%
%ADD12C,5.000000*%
%ADD13C,1.575000*%
%ADD14R,1.575000X1.575000*%
%ADD15O,1.750000X1.200000*%
%ADD16C,0.100000*%
%ADD17O,1.800000X1.100000*%
%ADD18C,0.800000*%
%ADD19C,0.250000*%
%ADD20C,0.254000*%
G04 APERTURE END LIST*
D10*
X135080000Y-67000000D03*
X132540000Y-67000000D03*
D11*
X130000000Y-67000000D03*
D10*
X172440000Y-114100000D03*
D11*
X169900000Y-114100000D03*
D10*
X172940000Y-92000000D03*
D11*
X170400000Y-92000000D03*
D10*
X150640000Y-61600000D03*
D11*
X148100000Y-61600000D03*
D12*
X116400000Y-99900000D03*
D13*
X114980000Y-83260000D03*
X114980000Y-86020000D03*
X114980000Y-88780000D03*
X114980000Y-91540000D03*
X117820000Y-81880000D03*
X117820000Y-84640000D03*
X117820000Y-90160000D03*
D14*
X117820000Y-92920000D03*
D12*
X116400000Y-74900000D03*
D13*
X117820000Y-87400000D03*
D10*
X193440000Y-97000000D03*
D11*
X190900000Y-97000000D03*
D10*
X124000000Y-93460000D03*
D11*
X124000000Y-96000000D03*
D10*
X124000000Y-84540000D03*
D11*
X124000000Y-82000000D03*
D10*
X207400000Y-114680000D03*
X207400000Y-112140000D03*
D11*
X207400000Y-109600000D03*
D10*
X206700000Y-91480000D03*
X206700000Y-88940000D03*
D11*
X206700000Y-86400000D03*
D10*
X133540000Y-98000000D03*
D11*
X131000000Y-98000000D03*
D10*
X168100000Y-66660000D03*
D11*
X168100000Y-69200000D03*
D15*
X176600000Y-67200000D03*
G04 #@! TA.AperFunction,ComponentPad*
D16*
G36*
X177249505Y-68601204D02*
G01*
X177273773Y-68604804D01*
X177297572Y-68610765D01*
X177320671Y-68619030D01*
X177342850Y-68629520D01*
X177363893Y-68642132D01*
X177383599Y-68656747D01*
X177401777Y-68673223D01*
X177418253Y-68691401D01*
X177432868Y-68711107D01*
X177445480Y-68732150D01*
X177455970Y-68754329D01*
X177464235Y-68777428D01*
X177470196Y-68801227D01*
X177473796Y-68825495D01*
X177475000Y-68849999D01*
X177475000Y-69550001D01*
X177473796Y-69574505D01*
X177470196Y-69598773D01*
X177464235Y-69622572D01*
X177455970Y-69645671D01*
X177445480Y-69667850D01*
X177432868Y-69688893D01*
X177418253Y-69708599D01*
X177401777Y-69726777D01*
X177383599Y-69743253D01*
X177363893Y-69757868D01*
X177342850Y-69770480D01*
X177320671Y-69780970D01*
X177297572Y-69789235D01*
X177273773Y-69795196D01*
X177249505Y-69798796D01*
X177225001Y-69800000D01*
X175974999Y-69800000D01*
X175950495Y-69798796D01*
X175926227Y-69795196D01*
X175902428Y-69789235D01*
X175879329Y-69780970D01*
X175857150Y-69770480D01*
X175836107Y-69757868D01*
X175816401Y-69743253D01*
X175798223Y-69726777D01*
X175781747Y-69708599D01*
X175767132Y-69688893D01*
X175754520Y-69667850D01*
X175744030Y-69645671D01*
X175735765Y-69622572D01*
X175729804Y-69598773D01*
X175726204Y-69574505D01*
X175725000Y-69550001D01*
X175725000Y-68849999D01*
X175726204Y-68825495D01*
X175729804Y-68801227D01*
X175735765Y-68777428D01*
X175744030Y-68754329D01*
X175754520Y-68732150D01*
X175767132Y-68711107D01*
X175781747Y-68691401D01*
X175798223Y-68673223D01*
X175816401Y-68656747D01*
X175836107Y-68642132D01*
X175857150Y-68629520D01*
X175879329Y-68619030D01*
X175902428Y-68610765D01*
X175926227Y-68604804D01*
X175950495Y-68601204D01*
X175974999Y-68600000D01*
X177225001Y-68600000D01*
X177249505Y-68601204D01*
G37*
G04 #@! TD.AperFunction*
D10*
X158500000Y-62080000D03*
X158500000Y-59540000D03*
D11*
X158500000Y-57000000D03*
D10*
X203760000Y-64600000D03*
D11*
X206300000Y-64600000D03*
D17*
X207275000Y-61320000D03*
X207275000Y-52680000D03*
X203475000Y-61320000D03*
X203475000Y-52680000D03*
D10*
X143000000Y-83940000D03*
D11*
X143000000Y-81400000D03*
D10*
X133540000Y-93600000D03*
D11*
X131000000Y-93600000D03*
D18*
X198000000Y-64600000D03*
X166100000Y-92700000D03*
X146200000Y-89000000D03*
X188009990Y-101909990D03*
X186700000Y-83600000D03*
X162500000Y-69700000D03*
X163800000Y-66200000D03*
X191100000Y-82000000D03*
X195975000Y-102330000D03*
X140800000Y-76800000D03*
X140800000Y-96800000D03*
X138800000Y-69800000D03*
X175300000Y-73900000D03*
X164200000Y-73900000D03*
X152000000Y-85300000D03*
X202500000Y-84500000D03*
X207375000Y-104830000D03*
X194900000Y-101500000D03*
X186600000Y-106400000D03*
X158200000Y-93900000D03*
X155500000Y-116400000D03*
X193900000Y-91300000D03*
X197000000Y-91300000D03*
X132700000Y-63300000D03*
X132700000Y-58200000D03*
X123600000Y-63300000D03*
X186600000Y-85400000D03*
X181100000Y-105800000D03*
X163900000Y-87300000D03*
X170400000Y-88700000D03*
X158000000Y-88900000D03*
X156400000Y-73300000D03*
X167800000Y-72900000D03*
X151800000Y-82700000D03*
X163400000Y-109325000D03*
X169900000Y-110725000D03*
X157300000Y-110900000D03*
X149200000Y-99200000D03*
X149200000Y-103100000D03*
X163500000Y-96200000D03*
X174800000Y-96200000D03*
X152100000Y-104800000D03*
D19*
X205200000Y-66040000D02*
X203760000Y-64600000D01*
X205200000Y-69800000D02*
X205200000Y-66040000D01*
X203760000Y-64600000D02*
X198000000Y-64600000D01*
X162500000Y-69800000D02*
X162500000Y-69700000D01*
X163800000Y-68400000D02*
X162500000Y-69700000D01*
X163800000Y-66200000D02*
X163800000Y-68400000D01*
X140800000Y-76800000D02*
X140800000Y-96800000D01*
X191100000Y-82000000D02*
X193600000Y-82000000D01*
X195975000Y-84375000D02*
X195975000Y-102330000D01*
X193600000Y-82000000D02*
X195975000Y-84375000D01*
X138800000Y-74800000D02*
X138800000Y-73500000D01*
X140800000Y-76800000D02*
X138800000Y-74800000D01*
X138800000Y-66000000D02*
X151000000Y-53800000D01*
X151000000Y-53800000D02*
X173200000Y-53800000D01*
X191100000Y-71700000D02*
X191100000Y-82000000D01*
X173200000Y-53800000D02*
X191100000Y-71700000D01*
X138800000Y-69800000D02*
X138800000Y-66000000D01*
X138800000Y-73500000D02*
X138800000Y-69800000D01*
X124480000Y-84540000D02*
X124000000Y-84540000D01*
X133540000Y-93600000D02*
X124480000Y-84540000D01*
X175300000Y-73900000D02*
X164200000Y-73900000D01*
X163400000Y-73900000D02*
X164200000Y-73900000D01*
X152000000Y-85300000D02*
X163400000Y-73900000D01*
X190000000Y-106400000D02*
X186600000Y-106400000D01*
X194900000Y-101500000D02*
X190000000Y-106400000D01*
X179200000Y-96600000D02*
X179200001Y-101700001D01*
X184100000Y-91700000D02*
X184100000Y-91400000D01*
X179200000Y-96600000D02*
X184100000Y-91700000D01*
X176500000Y-93900000D02*
X179200000Y-96600000D01*
X158200000Y-93900000D02*
X176500000Y-93900000D01*
X176600000Y-116400000D02*
X186600000Y-106400000D01*
X155500000Y-116400000D02*
X176600000Y-116400000D01*
X202500000Y-85065685D02*
X202400000Y-85165685D01*
X202500000Y-84500000D02*
X202500000Y-85065685D01*
X202400000Y-99855000D02*
X207375000Y-104830000D01*
X194900000Y-100934315D02*
X194900000Y-101500000D01*
X194900000Y-93300000D02*
X194900000Y-100934315D01*
X193000000Y-91400000D02*
X194900000Y-93300000D01*
X184100000Y-91400000D02*
X193000000Y-91400000D01*
X193800000Y-91400000D02*
X193900000Y-91300000D01*
X193000000Y-91400000D02*
X193800000Y-91400000D01*
X202400000Y-91300000D02*
X197000000Y-91300000D01*
X202400000Y-85165685D02*
X202400000Y-91300000D01*
X202400000Y-91300000D02*
X202400000Y-99855000D01*
X158500000Y-59540000D02*
X169523161Y-59540000D01*
X132700000Y-63300000D02*
X132700000Y-58200000D01*
X123600000Y-63300000D02*
X132700000Y-63300000D01*
X184100000Y-85400000D02*
X184100000Y-84400000D01*
X184100000Y-91400000D02*
X184100000Y-85400000D01*
X184200000Y-77600000D02*
X184200000Y-85400000D01*
X170523161Y-59540000D02*
X184200000Y-73216839D01*
X184200000Y-73216839D02*
X184200000Y-77600000D01*
X158500000Y-59540000D02*
X170523161Y-59540000D01*
X184200000Y-85400000D02*
X184100000Y-85400000D01*
X186600000Y-85400000D02*
X184200000Y-85400000D01*
X186000000Y-105800000D02*
X186600000Y-106400000D01*
X181100000Y-105800000D02*
X186000000Y-105800000D01*
X162300000Y-88900000D02*
X163900000Y-87300000D01*
X158000000Y-88900000D02*
X162300000Y-88900000D01*
X162500000Y-88700000D02*
X170400000Y-88700000D01*
X162300000Y-88900000D02*
X162500000Y-88700000D01*
X170400000Y-88700000D02*
X170400000Y-92000000D01*
X156800000Y-72900000D02*
X167800000Y-72900000D01*
X156400000Y-73300000D02*
X156800000Y-72900000D01*
X156400000Y-73865685D02*
X156400000Y-73300000D01*
X156400000Y-78665685D02*
X156400000Y-73865685D01*
X152365685Y-82700000D02*
X156400000Y-78665685D01*
X151800000Y-82700000D02*
X152365685Y-82700000D01*
X164800000Y-110725000D02*
X169900000Y-110725000D01*
X163400000Y-109325000D02*
X164800000Y-110725000D01*
X161825000Y-110900000D02*
X163400000Y-109325000D01*
X157300000Y-110900000D02*
X161825000Y-110900000D01*
X169900000Y-110725000D02*
X169900000Y-114100000D01*
X149200000Y-99200000D02*
X149200000Y-103100000D01*
X163500000Y-96200000D02*
X174800000Y-96200000D01*
X163100001Y-96599999D02*
X163500000Y-96200000D01*
X155874999Y-103825001D02*
X163100001Y-96599999D01*
X134539999Y-103825001D02*
X155874999Y-103825001D01*
X129824999Y-99110001D02*
X134539999Y-103825001D01*
X129824999Y-95878589D02*
X129824999Y-99110001D01*
X122824999Y-88878589D02*
X129824999Y-95878589D01*
X122824999Y-82075001D02*
X122824999Y-88878589D01*
X122900000Y-82000000D02*
X122824999Y-82075001D01*
X124000000Y-82000000D02*
X122900000Y-82000000D01*
X124000000Y-90690000D02*
X124000000Y-93460000D01*
X118000000Y-84690000D02*
X124000000Y-90690000D01*
X134175001Y-104800000D02*
X126700000Y-97324999D01*
X152100000Y-104800000D02*
X134175001Y-104800000D01*
X126700000Y-96160000D02*
X124000000Y-93460000D01*
X126700000Y-97324999D02*
X126700000Y-96160000D01*
D20*
G36*
X209340001Y-119340000D02*
G01*
X110660000Y-119340000D01*
X110660000Y-110798061D01*
X156265000Y-110798061D01*
X156265000Y-111001939D01*
X156304774Y-111201898D01*
X156382795Y-111390256D01*
X156496063Y-111559774D01*
X156640226Y-111703937D01*
X156809744Y-111817205D01*
X156998102Y-111895226D01*
X157198061Y-111935000D01*
X157401939Y-111935000D01*
X157601898Y-111895226D01*
X157790256Y-111817205D01*
X157959774Y-111703937D01*
X158003711Y-111660000D01*
X161787678Y-111660000D01*
X161825000Y-111663676D01*
X161862322Y-111660000D01*
X161862333Y-111660000D01*
X161973986Y-111649003D01*
X162117247Y-111605546D01*
X162249276Y-111534974D01*
X162365001Y-111440001D01*
X162388804Y-111410997D01*
X163400000Y-110399802D01*
X164236201Y-111236003D01*
X164259999Y-111265001D01*
X164288997Y-111288799D01*
X164375723Y-111359974D01*
X164507753Y-111430546D01*
X164651014Y-111474003D01*
X164762667Y-111485000D01*
X164762677Y-111485000D01*
X164800000Y-111488676D01*
X164837322Y-111485000D01*
X169140000Y-111485000D01*
X169140001Y-112611928D01*
X169050000Y-112611928D01*
X168925518Y-112624188D01*
X168805820Y-112660498D01*
X168695506Y-112719463D01*
X168598815Y-112798815D01*
X168519463Y-112895506D01*
X168460498Y-113005820D01*
X168424188Y-113125518D01*
X168411928Y-113250000D01*
X168411928Y-114950000D01*
X168424188Y-115074482D01*
X168460498Y-115194180D01*
X168519463Y-115304494D01*
X168598815Y-115401185D01*
X168695506Y-115480537D01*
X168805820Y-115539502D01*
X168925518Y-115575812D01*
X169050000Y-115588072D01*
X170750000Y-115588072D01*
X170874482Y-115575812D01*
X170994180Y-115539502D01*
X171104494Y-115480537D01*
X171201185Y-115401185D01*
X171280537Y-115304494D01*
X171339502Y-115194180D01*
X171363966Y-115113534D01*
X171439731Y-115197588D01*
X171673080Y-115371641D01*
X171935901Y-115496825D01*
X172083110Y-115541476D01*
X172313000Y-115420155D01*
X172313000Y-114227000D01*
X172567000Y-114227000D01*
X172567000Y-115420155D01*
X172796890Y-115541476D01*
X172944099Y-115496825D01*
X173206920Y-115371641D01*
X173440269Y-115197588D01*
X173635178Y-114981355D01*
X173784157Y-114731252D01*
X173881481Y-114456891D01*
X173760814Y-114227000D01*
X172567000Y-114227000D01*
X172313000Y-114227000D01*
X172293000Y-114227000D01*
X172293000Y-113973000D01*
X172313000Y-113973000D01*
X172313000Y-112779845D01*
X172567000Y-112779845D01*
X172567000Y-113973000D01*
X173760814Y-113973000D01*
X173881481Y-113743109D01*
X173784157Y-113468748D01*
X173635178Y-113218645D01*
X173440269Y-113002412D01*
X173206920Y-112828359D01*
X172944099Y-112703175D01*
X172796890Y-112658524D01*
X172567000Y-112779845D01*
X172313000Y-112779845D01*
X172083110Y-112658524D01*
X171935901Y-112703175D01*
X171673080Y-112828359D01*
X171439731Y-113002412D01*
X171363966Y-113086466D01*
X171339502Y-113005820D01*
X171280537Y-112895506D01*
X171201185Y-112798815D01*
X171104494Y-112719463D01*
X170994180Y-112660498D01*
X170874482Y-112624188D01*
X170750000Y-112611928D01*
X170660000Y-112611928D01*
X170660000Y-111428711D01*
X170703937Y-111384774D01*
X170817205Y-111215256D01*
X170895226Y-111026898D01*
X170935000Y-110826939D01*
X170935000Y-110623061D01*
X170895226Y-110423102D01*
X170817205Y-110234744D01*
X170703937Y-110065226D01*
X170559774Y-109921063D01*
X170390256Y-109807795D01*
X170201898Y-109729774D01*
X170001939Y-109690000D01*
X169798061Y-109690000D01*
X169598102Y-109729774D01*
X169409744Y-109807795D01*
X169240226Y-109921063D01*
X169196289Y-109965000D01*
X165114802Y-109965000D01*
X164435000Y-109285199D01*
X164435000Y-109223061D01*
X164395226Y-109023102D01*
X164317205Y-108834744D01*
X164203937Y-108665226D01*
X164059774Y-108521063D01*
X163890256Y-108407795D01*
X163701898Y-108329774D01*
X163501939Y-108290000D01*
X163298061Y-108290000D01*
X163098102Y-108329774D01*
X162909744Y-108407795D01*
X162740226Y-108521063D01*
X162596063Y-108665226D01*
X162482795Y-108834744D01*
X162404774Y-109023102D01*
X162365000Y-109223061D01*
X162365000Y-109285198D01*
X161510199Y-110140000D01*
X158003711Y-110140000D01*
X157959774Y-110096063D01*
X157790256Y-109982795D01*
X157601898Y-109904774D01*
X157401939Y-109865000D01*
X157198061Y-109865000D01*
X156998102Y-109904774D01*
X156809744Y-109982795D01*
X156640226Y-110096063D01*
X156496063Y-110240226D01*
X156382795Y-110409744D01*
X156304774Y-110598102D01*
X156265000Y-110798061D01*
X110660000Y-110798061D01*
X110660000Y-99591229D01*
X113265000Y-99591229D01*
X113265000Y-100208771D01*
X113385476Y-100814446D01*
X113621799Y-101384979D01*
X113964886Y-101898446D01*
X114401554Y-102335114D01*
X114915021Y-102678201D01*
X115485554Y-102914524D01*
X116091229Y-103035000D01*
X116708771Y-103035000D01*
X117314446Y-102914524D01*
X117884979Y-102678201D01*
X118398446Y-102335114D01*
X118835114Y-101898446D01*
X119178201Y-101384979D01*
X119414524Y-100814446D01*
X119535000Y-100208771D01*
X119535000Y-99591229D01*
X119414524Y-98985554D01*
X119178201Y-98415021D01*
X118835114Y-97901554D01*
X118398446Y-97464886D01*
X117884979Y-97121799D01*
X117314446Y-96885476D01*
X116708771Y-96765000D01*
X116091229Y-96765000D01*
X115485554Y-96885476D01*
X114915021Y-97121799D01*
X114401554Y-97464886D01*
X113964886Y-97901554D01*
X113621799Y-98415021D01*
X113385476Y-98985554D01*
X113265000Y-99591229D01*
X110660000Y-99591229D01*
X110660000Y-83119896D01*
X113557500Y-83119896D01*
X113557500Y-83400104D01*
X113612166Y-83674928D01*
X113719397Y-83933806D01*
X113875072Y-84166791D01*
X114073209Y-84364928D01*
X114306194Y-84520603D01*
X114565072Y-84627834D01*
X114626234Y-84640000D01*
X114565072Y-84652166D01*
X114306194Y-84759397D01*
X114073209Y-84915072D01*
X113875072Y-85113209D01*
X113719397Y-85346194D01*
X113612166Y-85605072D01*
X113557500Y-85879896D01*
X113557500Y-86160104D01*
X113612166Y-86434928D01*
X113719397Y-86693806D01*
X113875072Y-86926791D01*
X114073209Y-87124928D01*
X114306194Y-87280603D01*
X114565072Y-87387834D01*
X114626234Y-87400000D01*
X114565072Y-87412166D01*
X114306194Y-87519397D01*
X114073209Y-87675072D01*
X113875072Y-87873209D01*
X113719397Y-88106194D01*
X113612166Y-88365072D01*
X113557500Y-88639896D01*
X113557500Y-88920104D01*
X113612166Y-89194928D01*
X113719397Y-89453806D01*
X113875072Y-89686791D01*
X114073209Y-89884928D01*
X114306194Y-90040603D01*
X114565072Y-90147834D01*
X114626234Y-90160000D01*
X114565072Y-90172166D01*
X114306194Y-90279397D01*
X114073209Y-90435072D01*
X113875072Y-90633209D01*
X113719397Y-90866194D01*
X113612166Y-91125072D01*
X113557500Y-91399896D01*
X113557500Y-91680104D01*
X113612166Y-91954928D01*
X113719397Y-92213806D01*
X113875072Y-92446791D01*
X114073209Y-92644928D01*
X114306194Y-92800603D01*
X114565072Y-92907834D01*
X114839896Y-92962500D01*
X115120104Y-92962500D01*
X115394928Y-92907834D01*
X115653806Y-92800603D01*
X115886791Y-92644928D01*
X116084928Y-92446791D01*
X116240603Y-92213806D01*
X116274281Y-92132500D01*
X116394428Y-92132500D01*
X116394428Y-93707500D01*
X116406688Y-93831982D01*
X116442998Y-93951680D01*
X116501963Y-94061994D01*
X116581315Y-94158685D01*
X116678006Y-94238037D01*
X116788320Y-94297002D01*
X116908018Y-94333312D01*
X117032500Y-94345572D01*
X118607500Y-94345572D01*
X118731982Y-94333312D01*
X118851680Y-94297002D01*
X118961994Y-94238037D01*
X119058685Y-94158685D01*
X119138037Y-94061994D01*
X119197002Y-93951680D01*
X119233312Y-93831982D01*
X119245572Y-93707500D01*
X119245572Y-92132500D01*
X119233312Y-92008018D01*
X119197002Y-91888320D01*
X119138037Y-91778006D01*
X119058685Y-91681315D01*
X118961994Y-91601963D01*
X118851680Y-91542998D01*
X118731982Y-91506688D01*
X118607500Y-91494428D01*
X118315577Y-91494428D01*
X118493806Y-91420603D01*
X118726791Y-91264928D01*
X118924928Y-91066791D01*
X119080603Y-90833806D01*
X119187834Y-90574928D01*
X119242500Y-90300104D01*
X119242500Y-90019896D01*
X119187834Y-89745072D01*
X119080603Y-89486194D01*
X118924928Y-89253209D01*
X118726791Y-89055072D01*
X118493806Y-88899397D01*
X118234928Y-88792166D01*
X118173766Y-88780000D01*
X118234928Y-88767834D01*
X118493806Y-88660603D01*
X118726791Y-88504928D01*
X118924928Y-88306791D01*
X119080603Y-88073806D01*
X119187834Y-87814928D01*
X119242500Y-87540104D01*
X119242500Y-87259896D01*
X119187834Y-86985072D01*
X119164898Y-86929699D01*
X123240000Y-91004803D01*
X123240001Y-92181821D01*
X123053368Y-92306525D01*
X122846525Y-92513368D01*
X122684010Y-92756589D01*
X122572068Y-93026842D01*
X122515000Y-93313740D01*
X122515000Y-93606260D01*
X122572068Y-93893158D01*
X122684010Y-94163411D01*
X122846525Y-94406632D01*
X122978380Y-94538487D01*
X122905820Y-94560498D01*
X122795506Y-94619463D01*
X122698815Y-94698815D01*
X122619463Y-94795506D01*
X122560498Y-94905820D01*
X122524188Y-95025518D01*
X122511928Y-95150000D01*
X122511928Y-96850000D01*
X122524188Y-96974482D01*
X122560498Y-97094180D01*
X122619463Y-97204494D01*
X122698815Y-97301185D01*
X122795506Y-97380537D01*
X122905820Y-97439502D01*
X123025518Y-97475812D01*
X123150000Y-97488072D01*
X124850000Y-97488072D01*
X124974482Y-97475812D01*
X125094180Y-97439502D01*
X125204494Y-97380537D01*
X125301185Y-97301185D01*
X125380537Y-97204494D01*
X125439502Y-97094180D01*
X125475812Y-96974482D01*
X125488072Y-96850000D01*
X125488072Y-96022874D01*
X125940001Y-96474803D01*
X125940000Y-97287676D01*
X125936324Y-97324999D01*
X125940000Y-97362321D01*
X125940000Y-97362331D01*
X125950997Y-97473984D01*
X125978205Y-97563677D01*
X125994454Y-97617245D01*
X126065026Y-97749275D01*
X126102737Y-97795226D01*
X126159999Y-97865000D01*
X126189003Y-97888803D01*
X133611202Y-105311003D01*
X133635000Y-105340001D01*
X133750725Y-105434974D01*
X133882754Y-105505546D01*
X134026015Y-105549003D01*
X134137668Y-105560000D01*
X134137676Y-105560000D01*
X134175001Y-105563676D01*
X134212326Y-105560000D01*
X151396289Y-105560000D01*
X151440226Y-105603937D01*
X151609744Y-105717205D01*
X151798102Y-105795226D01*
X151998061Y-105835000D01*
X152201939Y-105835000D01*
X152401898Y-105795226D01*
X152590256Y-105717205D01*
X152759774Y-105603937D01*
X152903937Y-105459774D01*
X153017205Y-105290256D01*
X153095226Y-105101898D01*
X153135000Y-104901939D01*
X153135000Y-104698061D01*
X153112511Y-104585001D01*
X155837677Y-104585001D01*
X155874999Y-104588677D01*
X155912321Y-104585001D01*
X155912332Y-104585001D01*
X156023985Y-104574004D01*
X156167246Y-104530547D01*
X156299275Y-104459975D01*
X156415000Y-104365002D01*
X156438803Y-104335998D01*
X163539802Y-97235000D01*
X163601939Y-97235000D01*
X163801898Y-97195226D01*
X163990256Y-97117205D01*
X164159774Y-97003937D01*
X164203711Y-96960000D01*
X174096289Y-96960000D01*
X174140226Y-97003937D01*
X174309744Y-97117205D01*
X174498102Y-97195226D01*
X174698061Y-97235000D01*
X174901939Y-97235000D01*
X175101898Y-97195226D01*
X175290256Y-97117205D01*
X175459774Y-97003937D01*
X175603937Y-96859774D01*
X175717205Y-96690256D01*
X175795226Y-96501898D01*
X175835000Y-96301939D01*
X175835000Y-96098061D01*
X175795226Y-95898102D01*
X175717205Y-95709744D01*
X175603937Y-95540226D01*
X175459774Y-95396063D01*
X175290256Y-95282795D01*
X175101898Y-95204774D01*
X174901939Y-95165000D01*
X174698061Y-95165000D01*
X174498102Y-95204774D01*
X174309744Y-95282795D01*
X174140226Y-95396063D01*
X174096289Y-95440000D01*
X164203711Y-95440000D01*
X164159774Y-95396063D01*
X163990256Y-95282795D01*
X163801898Y-95204774D01*
X163601939Y-95165000D01*
X163398061Y-95165000D01*
X163198102Y-95204774D01*
X163009744Y-95282795D01*
X162840226Y-95396063D01*
X162696063Y-95540226D01*
X162582795Y-95709744D01*
X162504774Y-95898102D01*
X162465000Y-96098061D01*
X162465000Y-96160198D01*
X155560198Y-103065001D01*
X150235000Y-103065001D01*
X150235000Y-102998061D01*
X150195226Y-102798102D01*
X150117205Y-102609744D01*
X150003937Y-102440226D01*
X149960000Y-102396289D01*
X149960000Y-99903711D01*
X150003937Y-99859774D01*
X150117205Y-99690256D01*
X150195226Y-99501898D01*
X150235000Y-99301939D01*
X150235000Y-99098061D01*
X150195226Y-98898102D01*
X150117205Y-98709744D01*
X150003937Y-98540226D01*
X149859774Y-98396063D01*
X149690256Y-98282795D01*
X149501898Y-98204774D01*
X149301939Y-98165000D01*
X149098061Y-98165000D01*
X148898102Y-98204774D01*
X148709744Y-98282795D01*
X148540226Y-98396063D01*
X148396063Y-98540226D01*
X148282795Y-98709744D01*
X148204774Y-98898102D01*
X148165000Y-99098061D01*
X148165000Y-99301939D01*
X148204774Y-99501898D01*
X148282795Y-99690256D01*
X148396063Y-99859774D01*
X148440000Y-99903711D01*
X148440001Y-102396288D01*
X148396063Y-102440226D01*
X148282795Y-102609744D01*
X148204774Y-102798102D01*
X148165000Y-102998061D01*
X148165000Y-103065001D01*
X134854801Y-103065001D01*
X131277871Y-99488072D01*
X131850000Y-99488072D01*
X131974482Y-99475812D01*
X132094180Y-99439502D01*
X132204494Y-99380537D01*
X132301185Y-99301185D01*
X132380537Y-99204494D01*
X132439502Y-99094180D01*
X132461513Y-99021620D01*
X132593368Y-99153475D01*
X132836589Y-99315990D01*
X133106842Y-99427932D01*
X133393740Y-99485000D01*
X133686260Y-99485000D01*
X133973158Y-99427932D01*
X134243411Y-99315990D01*
X134486632Y-99153475D01*
X134693475Y-98946632D01*
X134855990Y-98703411D01*
X134967932Y-98433158D01*
X135025000Y-98146260D01*
X135025000Y-97853740D01*
X134967932Y-97566842D01*
X134855990Y-97296589D01*
X134693475Y-97053368D01*
X134486632Y-96846525D01*
X134243411Y-96684010D01*
X133973158Y-96572068D01*
X133686260Y-96515000D01*
X133393740Y-96515000D01*
X133106842Y-96572068D01*
X132836589Y-96684010D01*
X132593368Y-96846525D01*
X132461513Y-96978380D01*
X132439502Y-96905820D01*
X132380537Y-96795506D01*
X132301185Y-96698815D01*
X132204494Y-96619463D01*
X132094180Y-96560498D01*
X131974482Y-96524188D01*
X131850000Y-96511928D01*
X130584999Y-96511928D01*
X130584999Y-95915912D01*
X130588675Y-95878589D01*
X130584999Y-95841266D01*
X130584999Y-95841256D01*
X130574002Y-95729603D01*
X130530545Y-95586342D01*
X130505895Y-95540226D01*
X130459973Y-95454312D01*
X130388798Y-95367586D01*
X130365000Y-95338588D01*
X130336003Y-95314791D01*
X130104836Y-95083624D01*
X130150000Y-95088072D01*
X131850000Y-95088072D01*
X131974482Y-95075812D01*
X132094180Y-95039502D01*
X132204494Y-94980537D01*
X132301185Y-94901185D01*
X132380537Y-94804494D01*
X132439502Y-94694180D01*
X132461513Y-94621620D01*
X132593368Y-94753475D01*
X132836589Y-94915990D01*
X133106842Y-95027932D01*
X133393740Y-95085000D01*
X133686260Y-95085000D01*
X133973158Y-95027932D01*
X134243411Y-94915990D01*
X134486632Y-94753475D01*
X134693475Y-94546632D01*
X134855990Y-94303411D01*
X134967932Y-94033158D01*
X135025000Y-93746260D01*
X135025000Y-93453740D01*
X134967932Y-93166842D01*
X134855990Y-92896589D01*
X134693475Y-92653368D01*
X134486632Y-92446525D01*
X134243411Y-92284010D01*
X133973158Y-92172068D01*
X133686260Y-92115000D01*
X133393740Y-92115000D01*
X133173592Y-92158790D01*
X125485000Y-84470199D01*
X125485000Y-84393740D01*
X125427932Y-84106842D01*
X125315990Y-83836589D01*
X125153475Y-83593368D01*
X125021620Y-83461513D01*
X125094180Y-83439502D01*
X125204494Y-83380537D01*
X125301185Y-83301185D01*
X125380537Y-83204494D01*
X125439502Y-83094180D01*
X125475812Y-82974482D01*
X125488072Y-82850000D01*
X125488072Y-81150000D01*
X125475812Y-81025518D01*
X125439502Y-80905820D01*
X125380537Y-80795506D01*
X125301185Y-80698815D01*
X125204494Y-80619463D01*
X125094180Y-80560498D01*
X124974482Y-80524188D01*
X124850000Y-80511928D01*
X123150000Y-80511928D01*
X123025518Y-80524188D01*
X122905820Y-80560498D01*
X122795506Y-80619463D01*
X122698815Y-80698815D01*
X122619463Y-80795506D01*
X122560498Y-80905820D01*
X122524188Y-81025518D01*
X122511928Y-81150000D01*
X122511928Y-81345674D01*
X122475724Y-81365026D01*
X122359999Y-81459999D01*
X122336199Y-81488999D01*
X122313999Y-81511199D01*
X122284998Y-81535000D01*
X122229870Y-81602175D01*
X122190025Y-81650725D01*
X122161135Y-81704774D01*
X122119453Y-81782755D01*
X122075996Y-81926016D01*
X122064999Y-82037669D01*
X122064999Y-82037679D01*
X122061323Y-82075001D01*
X122064999Y-82112324D01*
X122065000Y-87680198D01*
X119229626Y-84844825D01*
X119242500Y-84780104D01*
X119242500Y-84499896D01*
X119187834Y-84225072D01*
X119080603Y-83966194D01*
X118924928Y-83733209D01*
X118726791Y-83535072D01*
X118493806Y-83379397D01*
X118234928Y-83272166D01*
X118173766Y-83260000D01*
X118234928Y-83247834D01*
X118493806Y-83140603D01*
X118726791Y-82984928D01*
X118924928Y-82786791D01*
X119080603Y-82553806D01*
X119187834Y-82294928D01*
X119242500Y-82020104D01*
X119242500Y-81739896D01*
X119187834Y-81465072D01*
X119080603Y-81206194D01*
X118924928Y-80973209D01*
X118726791Y-80775072D01*
X118493806Y-80619397D01*
X118234928Y-80512166D01*
X117960104Y-80457500D01*
X117679896Y-80457500D01*
X117405072Y-80512166D01*
X117146194Y-80619397D01*
X116913209Y-80775072D01*
X116715072Y-80973209D01*
X116559397Y-81206194D01*
X116452166Y-81465072D01*
X116397500Y-81739896D01*
X116397500Y-82020104D01*
X116452166Y-82294928D01*
X116559397Y-82553806D01*
X116715072Y-82786791D01*
X116913209Y-82984928D01*
X117146194Y-83140603D01*
X117405072Y-83247834D01*
X117466234Y-83260000D01*
X117405072Y-83272166D01*
X117146194Y-83379397D01*
X116913209Y-83535072D01*
X116715072Y-83733209D01*
X116559397Y-83966194D01*
X116452166Y-84225072D01*
X116397500Y-84499896D01*
X116397500Y-84780104D01*
X116452166Y-85054928D01*
X116559397Y-85313806D01*
X116715072Y-85546791D01*
X116913209Y-85744928D01*
X117146194Y-85900603D01*
X117405072Y-86007834D01*
X117466234Y-86020000D01*
X117405072Y-86032166D01*
X117146194Y-86139397D01*
X116913209Y-86295072D01*
X116715072Y-86493209D01*
X116559397Y-86726194D01*
X116452166Y-86985072D01*
X116397500Y-87259896D01*
X116397500Y-87540104D01*
X116452166Y-87814928D01*
X116559397Y-88073806D01*
X116715072Y-88306791D01*
X116913209Y-88504928D01*
X117146194Y-88660603D01*
X117405072Y-88767834D01*
X117466234Y-88780000D01*
X117405072Y-88792166D01*
X117146194Y-88899397D01*
X116913209Y-89055072D01*
X116715072Y-89253209D01*
X116559397Y-89486194D01*
X116452166Y-89745072D01*
X116397500Y-90019896D01*
X116397500Y-90300104D01*
X116452166Y-90574928D01*
X116559397Y-90833806D01*
X116715072Y-91066791D01*
X116913209Y-91264928D01*
X117146194Y-91420603D01*
X117324423Y-91494428D01*
X117032500Y-91494428D01*
X116908018Y-91506688D01*
X116788320Y-91542998D01*
X116678006Y-91601963D01*
X116581315Y-91681315D01*
X116501963Y-91778006D01*
X116442998Y-91888320D01*
X116406688Y-92008018D01*
X116394428Y-92132500D01*
X116274281Y-92132500D01*
X116347834Y-91954928D01*
X116402500Y-91680104D01*
X116402500Y-91399896D01*
X116347834Y-91125072D01*
X116240603Y-90866194D01*
X116084928Y-90633209D01*
X115886791Y-90435072D01*
X115653806Y-90279397D01*
X115394928Y-90172166D01*
X115333766Y-90160000D01*
X115394928Y-90147834D01*
X115653806Y-90040603D01*
X115886791Y-89884928D01*
X116084928Y-89686791D01*
X116240603Y-89453806D01*
X116347834Y-89194928D01*
X116402500Y-88920104D01*
X116402500Y-88639896D01*
X116347834Y-88365072D01*
X116240603Y-88106194D01*
X116084928Y-87873209D01*
X115886791Y-87675072D01*
X115653806Y-87519397D01*
X115394928Y-87412166D01*
X115333766Y-87400000D01*
X115394928Y-87387834D01*
X115653806Y-87280603D01*
X115886791Y-87124928D01*
X116084928Y-86926791D01*
X116240603Y-86693806D01*
X116347834Y-86434928D01*
X116402500Y-86160104D01*
X116402500Y-85879896D01*
X116347834Y-85605072D01*
X116240603Y-85346194D01*
X116084928Y-85113209D01*
X115886791Y-84915072D01*
X115653806Y-84759397D01*
X115394928Y-84652166D01*
X115333766Y-84640000D01*
X115394928Y-84627834D01*
X115653806Y-84520603D01*
X115886791Y-84364928D01*
X116084928Y-84166791D01*
X116240603Y-83933806D01*
X116347834Y-83674928D01*
X116402500Y-83400104D01*
X116402500Y-83119896D01*
X116347834Y-82845072D01*
X116240603Y-82586194D01*
X116084928Y-82353209D01*
X115886791Y-82155072D01*
X115653806Y-81999397D01*
X115394928Y-81892166D01*
X115120104Y-81837500D01*
X114839896Y-81837500D01*
X114565072Y-81892166D01*
X114306194Y-81999397D01*
X114073209Y-82155072D01*
X113875072Y-82353209D01*
X113719397Y-82586194D01*
X113612166Y-82845072D01*
X113557500Y-83119896D01*
X110660000Y-83119896D01*
X110660000Y-74591229D01*
X113265000Y-74591229D01*
X113265000Y-75208771D01*
X113385476Y-75814446D01*
X113621799Y-76384979D01*
X113964886Y-76898446D01*
X114401554Y-77335114D01*
X114915021Y-77678201D01*
X115485554Y-77914524D01*
X116091229Y-78035000D01*
X116708771Y-78035000D01*
X117314446Y-77914524D01*
X117884979Y-77678201D01*
X118398446Y-77335114D01*
X118835114Y-76898446D01*
X119178201Y-76384979D01*
X119414524Y-75814446D01*
X119535000Y-75208771D01*
X119535000Y-74591229D01*
X119414524Y-73985554D01*
X119178201Y-73415021D01*
X118835114Y-72901554D01*
X118398446Y-72464886D01*
X117884979Y-72121799D01*
X117314446Y-71885476D01*
X116708771Y-71765000D01*
X116091229Y-71765000D01*
X115485554Y-71885476D01*
X114915021Y-72121799D01*
X114401554Y-72464886D01*
X113964886Y-72901554D01*
X113621799Y-73415021D01*
X113385476Y-73985554D01*
X113265000Y-74591229D01*
X110660000Y-74591229D01*
X110660000Y-69698061D01*
X137765000Y-69698061D01*
X137765000Y-69901939D01*
X137804774Y-70101898D01*
X137882795Y-70290256D01*
X137996063Y-70459774D01*
X138040001Y-70503712D01*
X138040000Y-73537332D01*
X138040001Y-73537342D01*
X138040000Y-74762677D01*
X138036324Y-74800000D01*
X138040000Y-74837322D01*
X138040000Y-74837332D01*
X138050997Y-74948985D01*
X138094454Y-75092246D01*
X138165026Y-75224276D01*
X138204871Y-75272826D01*
X138259999Y-75340001D01*
X138289003Y-75363804D01*
X139765000Y-76839802D01*
X139765000Y-76901939D01*
X139804774Y-77101898D01*
X139882795Y-77290256D01*
X139996063Y-77459774D01*
X140040000Y-77503711D01*
X140040001Y-96096288D01*
X139996063Y-96140226D01*
X139882795Y-96309744D01*
X139804774Y-96498102D01*
X139765000Y-96698061D01*
X139765000Y-96901939D01*
X139804774Y-97101898D01*
X139882795Y-97290256D01*
X139996063Y-97459774D01*
X140140226Y-97603937D01*
X140309744Y-97717205D01*
X140498102Y-97795226D01*
X140698061Y-97835000D01*
X140901939Y-97835000D01*
X141101898Y-97795226D01*
X141290256Y-97717205D01*
X141459774Y-97603937D01*
X141603937Y-97459774D01*
X141717205Y-97290256D01*
X141795226Y-97101898D01*
X141835000Y-96901939D01*
X141835000Y-96698061D01*
X141795226Y-96498102D01*
X141717205Y-96309744D01*
X141603937Y-96140226D01*
X141560000Y-96096289D01*
X141560000Y-84312489D01*
X141572068Y-84373158D01*
X141684010Y-84643411D01*
X141846525Y-84886632D01*
X142053368Y-85093475D01*
X142296589Y-85255990D01*
X142566842Y-85367932D01*
X142853740Y-85425000D01*
X143146260Y-85425000D01*
X143433158Y-85367932D01*
X143703411Y-85255990D01*
X143946632Y-85093475D01*
X144153475Y-84886632D01*
X144315990Y-84643411D01*
X144427932Y-84373158D01*
X144485000Y-84086260D01*
X144485000Y-83793740D01*
X144427932Y-83506842D01*
X144315990Y-83236589D01*
X144153475Y-82993368D01*
X144021620Y-82861513D01*
X144094180Y-82839502D01*
X144204494Y-82780537D01*
X144301185Y-82701185D01*
X144380537Y-82604494D01*
X144383975Y-82598061D01*
X150765000Y-82598061D01*
X150765000Y-82801939D01*
X150804774Y-83001898D01*
X150882795Y-83190256D01*
X150996063Y-83359774D01*
X151140226Y-83503937D01*
X151309744Y-83617205D01*
X151498102Y-83695226D01*
X151698061Y-83735000D01*
X151901939Y-83735000D01*
X152101898Y-83695226D01*
X152290256Y-83617205D01*
X152459774Y-83503937D01*
X152514724Y-83448987D01*
X152657932Y-83405546D01*
X152789961Y-83334974D01*
X152905686Y-83240001D01*
X152929489Y-83210997D01*
X156911004Y-79229483D01*
X156940001Y-79205686D01*
X156966332Y-79173602D01*
X157034974Y-79089962D01*
X157105546Y-78957932D01*
X157105546Y-78957931D01*
X157149003Y-78814671D01*
X157160000Y-78703018D01*
X157160000Y-78703008D01*
X157163676Y-78665685D01*
X157160000Y-78628363D01*
X157160000Y-74003711D01*
X157203937Y-73959774D01*
X157317205Y-73790256D01*
X157371159Y-73660000D01*
X162565198Y-73660000D01*
X151960199Y-84265000D01*
X151898061Y-84265000D01*
X151698102Y-84304774D01*
X151509744Y-84382795D01*
X151340226Y-84496063D01*
X151196063Y-84640226D01*
X151082795Y-84809744D01*
X151004774Y-84998102D01*
X150965000Y-85198061D01*
X150965000Y-85401939D01*
X151004774Y-85601898D01*
X151082795Y-85790256D01*
X151196063Y-85959774D01*
X151340226Y-86103937D01*
X151509744Y-86217205D01*
X151698102Y-86295226D01*
X151898061Y-86335000D01*
X152101939Y-86335000D01*
X152301898Y-86295226D01*
X152490256Y-86217205D01*
X152659774Y-86103937D01*
X152803937Y-85959774D01*
X152917205Y-85790256D01*
X152995226Y-85601898D01*
X153035000Y-85401939D01*
X153035000Y-85339801D01*
X163618538Y-74756264D01*
X163709744Y-74817205D01*
X163898102Y-74895226D01*
X164098061Y-74935000D01*
X164301939Y-74935000D01*
X164501898Y-74895226D01*
X164690256Y-74817205D01*
X164859774Y-74703937D01*
X164903711Y-74660000D01*
X174596289Y-74660000D01*
X174640226Y-74703937D01*
X174809744Y-74817205D01*
X174998102Y-74895226D01*
X175198061Y-74935000D01*
X175401939Y-74935000D01*
X175601898Y-74895226D01*
X175790256Y-74817205D01*
X175959774Y-74703937D01*
X176103937Y-74559774D01*
X176217205Y-74390256D01*
X176295226Y-74201898D01*
X176335000Y-74001939D01*
X176335000Y-73798061D01*
X176295226Y-73598102D01*
X176217205Y-73409744D01*
X176103937Y-73240226D01*
X175959774Y-73096063D01*
X175790256Y-72982795D01*
X175601898Y-72904774D01*
X175401939Y-72865000D01*
X175198061Y-72865000D01*
X174998102Y-72904774D01*
X174809744Y-72982795D01*
X174640226Y-73096063D01*
X174596289Y-73140000D01*
X168807538Y-73140000D01*
X168835000Y-73001939D01*
X168835000Y-72798061D01*
X168795226Y-72598102D01*
X168717205Y-72409744D01*
X168603937Y-72240226D01*
X168459774Y-72096063D01*
X168290256Y-71982795D01*
X168101898Y-71904774D01*
X167901939Y-71865000D01*
X167698061Y-71865000D01*
X167498102Y-71904774D01*
X167309744Y-71982795D01*
X167140226Y-72096063D01*
X167096289Y-72140000D01*
X156837322Y-72140000D01*
X156799999Y-72136324D01*
X156762676Y-72140000D01*
X156762667Y-72140000D01*
X156651014Y-72150997D01*
X156507753Y-72194454D01*
X156375773Y-72265000D01*
X156298061Y-72265000D01*
X156098102Y-72304774D01*
X155909744Y-72382795D01*
X155740226Y-72496063D01*
X155596063Y-72640226D01*
X155482795Y-72809744D01*
X155404774Y-72998102D01*
X155365000Y-73198061D01*
X155365000Y-73401939D01*
X155404774Y-73601898D01*
X155482795Y-73790256D01*
X155596063Y-73959774D01*
X155640001Y-74003712D01*
X155640000Y-78350883D01*
X152232155Y-81758729D01*
X152101898Y-81704774D01*
X151901939Y-81665000D01*
X151698061Y-81665000D01*
X151498102Y-81704774D01*
X151309744Y-81782795D01*
X151140226Y-81896063D01*
X150996063Y-82040226D01*
X150882795Y-82209744D01*
X150804774Y-82398102D01*
X150765000Y-82598061D01*
X144383975Y-82598061D01*
X144439502Y-82494180D01*
X144475812Y-82374482D01*
X144488072Y-82250000D01*
X144488072Y-80550000D01*
X144475812Y-80425518D01*
X144439502Y-80305820D01*
X144380537Y-80195506D01*
X144301185Y-80098815D01*
X144204494Y-80019463D01*
X144094180Y-79960498D01*
X143974482Y-79924188D01*
X143850000Y-79911928D01*
X142150000Y-79911928D01*
X142025518Y-79924188D01*
X141905820Y-79960498D01*
X141795506Y-80019463D01*
X141698815Y-80098815D01*
X141619463Y-80195506D01*
X141560498Y-80305820D01*
X141560000Y-80307462D01*
X141560000Y-77503711D01*
X141603937Y-77459774D01*
X141717205Y-77290256D01*
X141795226Y-77101898D01*
X141835000Y-76901939D01*
X141835000Y-76698061D01*
X141795226Y-76498102D01*
X141717205Y-76309744D01*
X141603937Y-76140226D01*
X141459774Y-75996063D01*
X141290256Y-75882795D01*
X141101898Y-75804774D01*
X140901939Y-75765000D01*
X140839802Y-75765000D01*
X139560000Y-74485199D01*
X139560000Y-70503711D01*
X139603937Y-70459774D01*
X139717205Y-70290256D01*
X139795226Y-70101898D01*
X139835000Y-69901939D01*
X139835000Y-69698061D01*
X139815109Y-69598061D01*
X161465000Y-69598061D01*
X161465000Y-69801939D01*
X161504774Y-70001898D01*
X161582795Y-70190256D01*
X161696063Y-70359774D01*
X161840226Y-70503937D01*
X162009744Y-70617205D01*
X162198102Y-70695226D01*
X162398061Y-70735000D01*
X162601939Y-70735000D01*
X162801898Y-70695226D01*
X162990256Y-70617205D01*
X163159774Y-70503937D01*
X163303937Y-70359774D01*
X163417205Y-70190256D01*
X163495226Y-70001898D01*
X163535000Y-69801939D01*
X163535000Y-69739801D01*
X164311003Y-68963799D01*
X164340001Y-68940001D01*
X164434974Y-68824276D01*
X164505546Y-68692247D01*
X164549003Y-68548986D01*
X164560000Y-68437333D01*
X164560000Y-68437325D01*
X164563676Y-68400000D01*
X164560000Y-68362675D01*
X164560000Y-68350000D01*
X166611928Y-68350000D01*
X166611928Y-70050000D01*
X166624188Y-70174482D01*
X166660498Y-70294180D01*
X166719463Y-70404494D01*
X166798815Y-70501185D01*
X166895506Y-70580537D01*
X167005820Y-70639502D01*
X167125518Y-70675812D01*
X167250000Y-70688072D01*
X168950000Y-70688072D01*
X169074482Y-70675812D01*
X169194180Y-70639502D01*
X169304494Y-70580537D01*
X169401185Y-70501185D01*
X169480537Y-70404494D01*
X169539502Y-70294180D01*
X169575812Y-70174482D01*
X169588072Y-70050000D01*
X169588072Y-68350000D01*
X169575812Y-68225518D01*
X169539502Y-68105820D01*
X169480537Y-67995506D01*
X169401185Y-67898815D01*
X169304494Y-67819463D01*
X169194180Y-67760498D01*
X169113534Y-67736034D01*
X169197588Y-67660269D01*
X169371641Y-67426920D01*
X169496825Y-67164099D01*
X169541476Y-67016890D01*
X169420155Y-66787000D01*
X168227000Y-66787000D01*
X168227000Y-66807000D01*
X167973000Y-66807000D01*
X167973000Y-66787000D01*
X166779845Y-66787000D01*
X166658524Y-67016890D01*
X166703175Y-67164099D01*
X166828359Y-67426920D01*
X167002412Y-67660269D01*
X167086466Y-67736034D01*
X167005820Y-67760498D01*
X166895506Y-67819463D01*
X166798815Y-67898815D01*
X166719463Y-67995506D01*
X166660498Y-68105820D01*
X166624188Y-68225518D01*
X166611928Y-68350000D01*
X164560000Y-68350000D01*
X164560000Y-66903711D01*
X164603937Y-66859774D01*
X164717205Y-66690256D01*
X164795226Y-66501898D01*
X164834767Y-66303110D01*
X166658524Y-66303110D01*
X166779845Y-66533000D01*
X167973000Y-66533000D01*
X167973000Y-65339186D01*
X168227000Y-65339186D01*
X168227000Y-66533000D01*
X169420155Y-66533000D01*
X169541476Y-66303110D01*
X169496825Y-66155901D01*
X169371641Y-65893080D01*
X169197588Y-65659731D01*
X168981355Y-65464822D01*
X168731252Y-65315843D01*
X168456891Y-65218519D01*
X168227000Y-65339186D01*
X167973000Y-65339186D01*
X167743109Y-65218519D01*
X167468748Y-65315843D01*
X167218645Y-65464822D01*
X167002412Y-65659731D01*
X166828359Y-65893080D01*
X166703175Y-66155901D01*
X166658524Y-66303110D01*
X164834767Y-66303110D01*
X164835000Y-66301939D01*
X164835000Y-66098061D01*
X164795226Y-65898102D01*
X164717205Y-65709744D01*
X164603937Y-65540226D01*
X164459774Y-65396063D01*
X164290256Y-65282795D01*
X164101898Y-65204774D01*
X163901939Y-65165000D01*
X163698061Y-65165000D01*
X163498102Y-65204774D01*
X163309744Y-65282795D01*
X163140226Y-65396063D01*
X162996063Y-65540226D01*
X162882795Y-65709744D01*
X162804774Y-65898102D01*
X162765000Y-66098061D01*
X162765000Y-66301939D01*
X162804774Y-66501898D01*
X162882795Y-66690256D01*
X162996063Y-66859774D01*
X163040000Y-66903711D01*
X163040001Y-68085197D01*
X162460199Y-68665000D01*
X162398061Y-68665000D01*
X162198102Y-68704774D01*
X162009744Y-68782795D01*
X161840226Y-68896063D01*
X161696063Y-69040226D01*
X161582795Y-69209744D01*
X161504774Y-69398102D01*
X161465000Y-69598061D01*
X139815109Y-69598061D01*
X139795226Y-69498102D01*
X139717205Y-69309744D01*
X139603937Y-69140226D01*
X139560000Y-69096289D01*
X139560000Y-66314801D01*
X145124801Y-60750000D01*
X146611928Y-60750000D01*
X146611928Y-62450000D01*
X146624188Y-62574482D01*
X146660498Y-62694180D01*
X146719463Y-62804494D01*
X146798815Y-62901185D01*
X146895506Y-62980537D01*
X147005820Y-63039502D01*
X147125518Y-63075812D01*
X147250000Y-63088072D01*
X148950000Y-63088072D01*
X149074482Y-63075812D01*
X149194180Y-63039502D01*
X149304494Y-62980537D01*
X149401185Y-62901185D01*
X149480537Y-62804494D01*
X149539502Y-62694180D01*
X149563966Y-62613534D01*
X149639731Y-62697588D01*
X149873080Y-62871641D01*
X150135901Y-62996825D01*
X150283110Y-63041476D01*
X150513000Y-62920155D01*
X150513000Y-61727000D01*
X150767000Y-61727000D01*
X150767000Y-62920155D01*
X150996890Y-63041476D01*
X151144099Y-62996825D01*
X151406920Y-62871641D01*
X151640269Y-62697588D01*
X151835178Y-62481355D01*
X151984157Y-62231252D01*
X152081481Y-61956891D01*
X151960814Y-61727000D01*
X150767000Y-61727000D01*
X150513000Y-61727000D01*
X150493000Y-61727000D01*
X150493000Y-61473000D01*
X150513000Y-61473000D01*
X150513000Y-60279845D01*
X150767000Y-60279845D01*
X150767000Y-61473000D01*
X151960814Y-61473000D01*
X152081481Y-61243109D01*
X151984157Y-60968748D01*
X151835178Y-60718645D01*
X151640269Y-60502412D01*
X151406920Y-60328359D01*
X151144099Y-60203175D01*
X150996890Y-60158524D01*
X150767000Y-60279845D01*
X150513000Y-60279845D01*
X150283110Y-60158524D01*
X150135901Y-60203175D01*
X149873080Y-60328359D01*
X149639731Y-60502412D01*
X149563966Y-60586466D01*
X149539502Y-60505820D01*
X149480537Y-60395506D01*
X149401185Y-60298815D01*
X149304494Y-60219463D01*
X149194180Y-60160498D01*
X149074482Y-60124188D01*
X148950000Y-60111928D01*
X147250000Y-60111928D01*
X147125518Y-60124188D01*
X147005820Y-60160498D01*
X146895506Y-60219463D01*
X146798815Y-60298815D01*
X146719463Y-60395506D01*
X146660498Y-60505820D01*
X146624188Y-60625518D01*
X146611928Y-60750000D01*
X145124801Y-60750000D01*
X151314803Y-54560000D01*
X172885199Y-54560000D01*
X190340000Y-72014802D01*
X190340001Y-81296288D01*
X190296063Y-81340226D01*
X190182795Y-81509744D01*
X190104774Y-81698102D01*
X190065000Y-81898061D01*
X190065000Y-82101939D01*
X190104774Y-82301898D01*
X190182795Y-82490256D01*
X190296063Y-82659774D01*
X190440226Y-82803937D01*
X190609744Y-82917205D01*
X190798102Y-82995226D01*
X190998061Y-83035000D01*
X191201939Y-83035000D01*
X191401898Y-82995226D01*
X191590256Y-82917205D01*
X191759774Y-82803937D01*
X191803711Y-82760000D01*
X193285199Y-82760000D01*
X195215000Y-84689802D01*
X195215000Y-92540199D01*
X194669256Y-91994455D01*
X194703937Y-91959774D01*
X194817205Y-91790256D01*
X194895226Y-91601898D01*
X194935000Y-91401939D01*
X194935000Y-91198061D01*
X194895226Y-90998102D01*
X194817205Y-90809744D01*
X194703937Y-90640226D01*
X194559774Y-90496063D01*
X194390256Y-90382795D01*
X194201898Y-90304774D01*
X194001939Y-90265000D01*
X193798061Y-90265000D01*
X193598102Y-90304774D01*
X193409744Y-90382795D01*
X193240226Y-90496063D01*
X193096289Y-90640000D01*
X193037322Y-90640000D01*
X193000000Y-90636324D01*
X192962678Y-90640000D01*
X184860000Y-90640000D01*
X184860000Y-86160000D01*
X185896289Y-86160000D01*
X185940226Y-86203937D01*
X186109744Y-86317205D01*
X186298102Y-86395226D01*
X186498061Y-86435000D01*
X186701939Y-86435000D01*
X186901898Y-86395226D01*
X187090256Y-86317205D01*
X187259774Y-86203937D01*
X187403937Y-86059774D01*
X187517205Y-85890256D01*
X187595226Y-85701898D01*
X187635000Y-85501939D01*
X187635000Y-85298061D01*
X187595226Y-85098102D01*
X187517205Y-84909744D01*
X187403937Y-84740226D01*
X187259774Y-84596063D01*
X187090256Y-84482795D01*
X186901898Y-84404774D01*
X186701939Y-84365000D01*
X186498061Y-84365000D01*
X186298102Y-84404774D01*
X186109744Y-84482795D01*
X185940226Y-84596063D01*
X185896289Y-84640000D01*
X184960000Y-84640000D01*
X184960000Y-73254161D01*
X184963676Y-73216838D01*
X184960000Y-73179515D01*
X184960000Y-73179506D01*
X184949003Y-73067853D01*
X184905546Y-72924592D01*
X184834974Y-72792563D01*
X184740001Y-72676838D01*
X184711004Y-72653041D01*
X171086965Y-59029003D01*
X171063162Y-58999999D01*
X170947437Y-58905026D01*
X170815408Y-58834454D01*
X170672147Y-58790997D01*
X170560494Y-58780000D01*
X170560483Y-58780000D01*
X170523161Y-58776324D01*
X170485839Y-58780000D01*
X159778178Y-58780000D01*
X159653475Y-58593368D01*
X159521620Y-58461513D01*
X159594180Y-58439502D01*
X159704494Y-58380537D01*
X159801185Y-58301185D01*
X159880537Y-58204494D01*
X159939502Y-58094180D01*
X159975812Y-57974482D01*
X159988072Y-57850000D01*
X159988072Y-56150000D01*
X159975812Y-56025518D01*
X159939502Y-55905820D01*
X159880537Y-55795506D01*
X159801185Y-55698815D01*
X159704494Y-55619463D01*
X159594180Y-55560498D01*
X159474482Y-55524188D01*
X159350000Y-55511928D01*
X157650000Y-55511928D01*
X157525518Y-55524188D01*
X157405820Y-55560498D01*
X157295506Y-55619463D01*
X157198815Y-55698815D01*
X157119463Y-55795506D01*
X157060498Y-55905820D01*
X157024188Y-56025518D01*
X157011928Y-56150000D01*
X157011928Y-57850000D01*
X157024188Y-57974482D01*
X157060498Y-58094180D01*
X157119463Y-58204494D01*
X157198815Y-58301185D01*
X157295506Y-58380537D01*
X157405820Y-58439502D01*
X157478380Y-58461513D01*
X157346525Y-58593368D01*
X157184010Y-58836589D01*
X157072068Y-59106842D01*
X157015000Y-59393740D01*
X157015000Y-59686260D01*
X157072068Y-59973158D01*
X157184010Y-60243411D01*
X157346525Y-60486632D01*
X157553368Y-60693475D01*
X157727760Y-60810000D01*
X157553368Y-60926525D01*
X157346525Y-61133368D01*
X157184010Y-61376589D01*
X157072068Y-61646842D01*
X157015000Y-61933740D01*
X157015000Y-62226260D01*
X157072068Y-62513158D01*
X157184010Y-62783411D01*
X157346525Y-63026632D01*
X157553368Y-63233475D01*
X157796589Y-63395990D01*
X158066842Y-63507932D01*
X158353740Y-63565000D01*
X158646260Y-63565000D01*
X158933158Y-63507932D01*
X159203411Y-63395990D01*
X159446632Y-63233475D01*
X159653475Y-63026632D01*
X159815990Y-62783411D01*
X159927932Y-62513158D01*
X159985000Y-62226260D01*
X159985000Y-61933740D01*
X159927932Y-61646842D01*
X159815990Y-61376589D01*
X159653475Y-61133368D01*
X159446632Y-60926525D01*
X159272240Y-60810000D01*
X159446632Y-60693475D01*
X159653475Y-60486632D01*
X159778178Y-60300000D01*
X170208360Y-60300000D01*
X175932985Y-66024625D01*
X175735054Y-66107610D01*
X175533275Y-66243693D01*
X175361922Y-66416526D01*
X175227579Y-66619467D01*
X175135409Y-66844718D01*
X175131538Y-66882391D01*
X175256269Y-67073000D01*
X176473000Y-67073000D01*
X176473000Y-67053000D01*
X176727000Y-67053000D01*
X176727000Y-67073000D01*
X176747000Y-67073000D01*
X176747000Y-67327000D01*
X176727000Y-67327000D01*
X176727000Y-67347000D01*
X176473000Y-67347000D01*
X176473000Y-67327000D01*
X175256269Y-67327000D01*
X175131538Y-67517609D01*
X175135409Y-67555282D01*
X175227579Y-67780533D01*
X175361922Y-67983474D01*
X175486406Y-68109033D01*
X175481613Y-68111595D01*
X175347038Y-68222038D01*
X175236595Y-68356613D01*
X175154528Y-68510149D01*
X175103992Y-68676745D01*
X175086928Y-68849999D01*
X175086928Y-69550001D01*
X175103992Y-69723255D01*
X175154528Y-69889851D01*
X175236595Y-70043387D01*
X175347038Y-70177962D01*
X175481613Y-70288405D01*
X175635149Y-70370472D01*
X175801745Y-70421008D01*
X175974999Y-70438072D01*
X177225001Y-70438072D01*
X177398255Y-70421008D01*
X177564851Y-70370472D01*
X177718387Y-70288405D01*
X177852962Y-70177962D01*
X177963405Y-70043387D01*
X178045472Y-69889851D01*
X178096008Y-69723255D01*
X178113072Y-69550001D01*
X178113072Y-68849999D01*
X178096008Y-68676745D01*
X178045472Y-68510149D01*
X177963405Y-68356613D01*
X177852962Y-68222038D01*
X177718387Y-68111595D01*
X177713594Y-68109033D01*
X177838078Y-67983474D01*
X177859489Y-67951130D01*
X183440000Y-73531641D01*
X183440001Y-77562658D01*
X183440000Y-77562668D01*
X183440001Y-84022544D01*
X183394455Y-84107753D01*
X183350998Y-84251014D01*
X183340001Y-84362667D01*
X183340000Y-85362666D01*
X183336323Y-85400000D01*
X183340001Y-85437343D01*
X183340000Y-91362667D01*
X183337539Y-91387659D01*
X179200000Y-95525198D01*
X177063804Y-93389003D01*
X177040001Y-93359999D01*
X176924276Y-93265026D01*
X176792247Y-93194454D01*
X176648986Y-93150997D01*
X176537333Y-93140000D01*
X176537322Y-93140000D01*
X176500000Y-93136324D01*
X176462678Y-93140000D01*
X173883408Y-93140000D01*
X173940269Y-93097588D01*
X174135178Y-92881355D01*
X174284157Y-92631252D01*
X174381481Y-92356891D01*
X174260814Y-92127000D01*
X173067000Y-92127000D01*
X173067000Y-92147000D01*
X172813000Y-92147000D01*
X172813000Y-92127000D01*
X172793000Y-92127000D01*
X172793000Y-91873000D01*
X172813000Y-91873000D01*
X172813000Y-90679845D01*
X173067000Y-90679845D01*
X173067000Y-91873000D01*
X174260814Y-91873000D01*
X174381481Y-91643109D01*
X174284157Y-91368748D01*
X174135178Y-91118645D01*
X173940269Y-90902412D01*
X173706920Y-90728359D01*
X173444099Y-90603175D01*
X173296890Y-90558524D01*
X173067000Y-90679845D01*
X172813000Y-90679845D01*
X172583110Y-90558524D01*
X172435901Y-90603175D01*
X172173080Y-90728359D01*
X171939731Y-90902412D01*
X171863966Y-90986466D01*
X171839502Y-90905820D01*
X171780537Y-90795506D01*
X171701185Y-90698815D01*
X171604494Y-90619463D01*
X171494180Y-90560498D01*
X171374482Y-90524188D01*
X171250000Y-90511928D01*
X171160000Y-90511928D01*
X171160000Y-89403711D01*
X171203937Y-89359774D01*
X171317205Y-89190256D01*
X171395226Y-89001898D01*
X171435000Y-88801939D01*
X171435000Y-88598061D01*
X171395226Y-88398102D01*
X171317205Y-88209744D01*
X171203937Y-88040226D01*
X171059774Y-87896063D01*
X170890256Y-87782795D01*
X170701898Y-87704774D01*
X170501939Y-87665000D01*
X170298061Y-87665000D01*
X170098102Y-87704774D01*
X169909744Y-87782795D01*
X169740226Y-87896063D01*
X169696289Y-87940000D01*
X164717150Y-87940000D01*
X164817205Y-87790256D01*
X164895226Y-87601898D01*
X164935000Y-87401939D01*
X164935000Y-87198061D01*
X164895226Y-86998102D01*
X164817205Y-86809744D01*
X164703937Y-86640226D01*
X164559774Y-86496063D01*
X164390256Y-86382795D01*
X164201898Y-86304774D01*
X164001939Y-86265000D01*
X163798061Y-86265000D01*
X163598102Y-86304774D01*
X163409744Y-86382795D01*
X163240226Y-86496063D01*
X163096063Y-86640226D01*
X162982795Y-86809744D01*
X162904774Y-86998102D01*
X162865000Y-87198061D01*
X162865000Y-87260198D01*
X161989002Y-88136197D01*
X161984368Y-88140000D01*
X158703711Y-88140000D01*
X158659774Y-88096063D01*
X158490256Y-87982795D01*
X158301898Y-87904774D01*
X158101939Y-87865000D01*
X157898061Y-87865000D01*
X157698102Y-87904774D01*
X157509744Y-87982795D01*
X157340226Y-88096063D01*
X157196063Y-88240226D01*
X157082795Y-88409744D01*
X157004774Y-88598102D01*
X156965000Y-88798061D01*
X156965000Y-89001939D01*
X157004774Y-89201898D01*
X157082795Y-89390256D01*
X157196063Y-89559774D01*
X157340226Y-89703937D01*
X157509744Y-89817205D01*
X157698102Y-89895226D01*
X157898061Y-89935000D01*
X158101939Y-89935000D01*
X158301898Y-89895226D01*
X158490256Y-89817205D01*
X158659774Y-89703937D01*
X158703711Y-89660000D01*
X162262678Y-89660000D01*
X162300000Y-89663676D01*
X162337322Y-89660000D01*
X162337333Y-89660000D01*
X162448986Y-89649003D01*
X162592247Y-89605546D01*
X162724276Y-89534974D01*
X162815632Y-89460000D01*
X169640000Y-89460000D01*
X169640001Y-90511928D01*
X169550000Y-90511928D01*
X169425518Y-90524188D01*
X169305820Y-90560498D01*
X169195506Y-90619463D01*
X169098815Y-90698815D01*
X169019463Y-90795506D01*
X168960498Y-90905820D01*
X168924188Y-91025518D01*
X168911928Y-91150000D01*
X168911928Y-92850000D01*
X168924188Y-92974482D01*
X168960498Y-93094180D01*
X168984990Y-93140000D01*
X158903711Y-93140000D01*
X158859774Y-93096063D01*
X158690256Y-92982795D01*
X158501898Y-92904774D01*
X158301939Y-92865000D01*
X158098061Y-92865000D01*
X157898102Y-92904774D01*
X157709744Y-92982795D01*
X157540226Y-93096063D01*
X157396063Y-93240226D01*
X157282795Y-93409744D01*
X157204774Y-93598102D01*
X157165000Y-93798061D01*
X157165000Y-94001939D01*
X157204774Y-94201898D01*
X157282795Y-94390256D01*
X157396063Y-94559774D01*
X157540226Y-94703937D01*
X157709744Y-94817205D01*
X157898102Y-94895226D01*
X158098061Y-94935000D01*
X158301939Y-94935000D01*
X158501898Y-94895226D01*
X158690256Y-94817205D01*
X158859774Y-94703937D01*
X158903711Y-94660000D01*
X176185199Y-94660000D01*
X178440000Y-96914802D01*
X178440002Y-101737334D01*
X178450999Y-101848987D01*
X178494456Y-101992248D01*
X178565028Y-102124277D01*
X178660001Y-102240002D01*
X178775726Y-102334975D01*
X178907755Y-102405547D01*
X179051016Y-102449004D01*
X179200001Y-102463677D01*
X179348987Y-102449003D01*
X179492248Y-102405546D01*
X179624277Y-102334974D01*
X179740002Y-102240001D01*
X179834975Y-102124276D01*
X179905547Y-101992247D01*
X179949004Y-101848986D01*
X179960001Y-101737333D01*
X179959999Y-96914802D01*
X184611009Y-92263794D01*
X184640001Y-92240001D01*
X184663795Y-92211008D01*
X184663799Y-92211004D01*
X184705656Y-92160000D01*
X192685199Y-92160000D01*
X194140000Y-93614802D01*
X194140000Y-95682597D01*
X193873158Y-95572068D01*
X193586260Y-95515000D01*
X193293740Y-95515000D01*
X193006842Y-95572068D01*
X192736589Y-95684010D01*
X192493368Y-95846525D01*
X192361513Y-95978380D01*
X192339502Y-95905820D01*
X192280537Y-95795506D01*
X192201185Y-95698815D01*
X192104494Y-95619463D01*
X191994180Y-95560498D01*
X191874482Y-95524188D01*
X191750000Y-95511928D01*
X190050000Y-95511928D01*
X189925518Y-95524188D01*
X189805820Y-95560498D01*
X189695506Y-95619463D01*
X189598815Y-95698815D01*
X189519463Y-95795506D01*
X189460498Y-95905820D01*
X189424188Y-96025518D01*
X189411928Y-96150000D01*
X189411928Y-97850000D01*
X189424188Y-97974482D01*
X189460498Y-98094180D01*
X189519463Y-98204494D01*
X189598815Y-98301185D01*
X189695506Y-98380537D01*
X189805820Y-98439502D01*
X189925518Y-98475812D01*
X190050000Y-98488072D01*
X191750000Y-98488072D01*
X191874482Y-98475812D01*
X191994180Y-98439502D01*
X192104494Y-98380537D01*
X192201185Y-98301185D01*
X192280537Y-98204494D01*
X192339502Y-98094180D01*
X192361513Y-98021620D01*
X192493368Y-98153475D01*
X192736589Y-98315990D01*
X193006842Y-98427932D01*
X193293740Y-98485000D01*
X193586260Y-98485000D01*
X193873158Y-98427932D01*
X194140001Y-98317403D01*
X194140001Y-100796288D01*
X194096063Y-100840226D01*
X193982795Y-101009744D01*
X193904774Y-101198102D01*
X193865000Y-101398061D01*
X193865000Y-101460197D01*
X189685199Y-105640000D01*
X187303711Y-105640000D01*
X187259774Y-105596063D01*
X187090256Y-105482795D01*
X186901898Y-105404774D01*
X186701939Y-105365000D01*
X186639801Y-105365000D01*
X186563803Y-105289002D01*
X186540001Y-105259999D01*
X186424276Y-105165026D01*
X186292247Y-105094454D01*
X186148986Y-105050997D01*
X186037333Y-105040000D01*
X186037322Y-105040000D01*
X186000000Y-105036324D01*
X185962678Y-105040000D01*
X181803711Y-105040000D01*
X181759774Y-104996063D01*
X181590256Y-104882795D01*
X181401898Y-104804774D01*
X181201939Y-104765000D01*
X180998061Y-104765000D01*
X180798102Y-104804774D01*
X180609744Y-104882795D01*
X180440226Y-104996063D01*
X180296063Y-105140226D01*
X180182795Y-105309744D01*
X180104774Y-105498102D01*
X180065000Y-105698061D01*
X180065000Y-105901939D01*
X180104774Y-106101898D01*
X180182795Y-106290256D01*
X180296063Y-106459774D01*
X180440226Y-106603937D01*
X180609744Y-106717205D01*
X180798102Y-106795226D01*
X180998061Y-106835000D01*
X181201939Y-106835000D01*
X181401898Y-106795226D01*
X181590256Y-106717205D01*
X181759774Y-106603937D01*
X181803711Y-106560000D01*
X185365198Y-106560000D01*
X176285199Y-115640000D01*
X156203711Y-115640000D01*
X156159774Y-115596063D01*
X155990256Y-115482795D01*
X155801898Y-115404774D01*
X155601939Y-115365000D01*
X155398061Y-115365000D01*
X155198102Y-115404774D01*
X155009744Y-115482795D01*
X154840226Y-115596063D01*
X154696063Y-115740226D01*
X154582795Y-115909744D01*
X154504774Y-116098102D01*
X154465000Y-116298061D01*
X154465000Y-116501939D01*
X154504774Y-116701898D01*
X154582795Y-116890256D01*
X154696063Y-117059774D01*
X154840226Y-117203937D01*
X155009744Y-117317205D01*
X155198102Y-117395226D01*
X155398061Y-117435000D01*
X155601939Y-117435000D01*
X155801898Y-117395226D01*
X155990256Y-117317205D01*
X156159774Y-117203937D01*
X156203711Y-117160000D01*
X176562678Y-117160000D01*
X176600000Y-117163676D01*
X176637322Y-117160000D01*
X176637333Y-117160000D01*
X176748986Y-117149003D01*
X176892247Y-117105546D01*
X177024276Y-117034974D01*
X177140001Y-116940001D01*
X177163804Y-116910997D01*
X179037911Y-115036890D01*
X205958524Y-115036890D01*
X206003175Y-115184099D01*
X206128359Y-115446920D01*
X206302412Y-115680269D01*
X206518645Y-115875178D01*
X206768748Y-116024157D01*
X207043109Y-116121481D01*
X207273000Y-116000814D01*
X207273000Y-114807000D01*
X207527000Y-114807000D01*
X207527000Y-116000814D01*
X207756891Y-116121481D01*
X208031252Y-116024157D01*
X208281355Y-115875178D01*
X208497588Y-115680269D01*
X208671641Y-115446920D01*
X208796825Y-115184099D01*
X208841476Y-115036890D01*
X208720155Y-114807000D01*
X207527000Y-114807000D01*
X207273000Y-114807000D01*
X206079845Y-114807000D01*
X205958524Y-115036890D01*
X179037911Y-115036890D01*
X185324801Y-108750000D01*
X205911928Y-108750000D01*
X205911928Y-110450000D01*
X205924188Y-110574482D01*
X205960498Y-110694180D01*
X206019463Y-110804494D01*
X206098815Y-110901185D01*
X206195506Y-110980537D01*
X206305820Y-111039502D01*
X206378380Y-111061513D01*
X206246525Y-111193368D01*
X206084010Y-111436589D01*
X205972068Y-111706842D01*
X205915000Y-111993740D01*
X205915000Y-112286260D01*
X205972068Y-112573158D01*
X206084010Y-112843411D01*
X206246525Y-113086632D01*
X206453368Y-113293475D01*
X206635534Y-113415195D01*
X206518645Y-113484822D01*
X206302412Y-113679731D01*
X206128359Y-113913080D01*
X206003175Y-114175901D01*
X205958524Y-114323110D01*
X206079845Y-114553000D01*
X207273000Y-114553000D01*
X207273000Y-114533000D01*
X207527000Y-114533000D01*
X207527000Y-114553000D01*
X208720155Y-114553000D01*
X208841476Y-114323110D01*
X208796825Y-114175901D01*
X208671641Y-113913080D01*
X208497588Y-113679731D01*
X208281355Y-113484822D01*
X208164466Y-113415195D01*
X208346632Y-113293475D01*
X208553475Y-113086632D01*
X208715990Y-112843411D01*
X208827932Y-112573158D01*
X208885000Y-112286260D01*
X208885000Y-111993740D01*
X208827932Y-111706842D01*
X208715990Y-111436589D01*
X208553475Y-111193368D01*
X208421620Y-111061513D01*
X208494180Y-111039502D01*
X208604494Y-110980537D01*
X208701185Y-110901185D01*
X208780537Y-110804494D01*
X208839502Y-110694180D01*
X208875812Y-110574482D01*
X208888072Y-110450000D01*
X208888072Y-108750000D01*
X208875812Y-108625518D01*
X208839502Y-108505820D01*
X208780537Y-108395506D01*
X208701185Y-108298815D01*
X208604494Y-108219463D01*
X208494180Y-108160498D01*
X208374482Y-108124188D01*
X208250000Y-108111928D01*
X206550000Y-108111928D01*
X206425518Y-108124188D01*
X206305820Y-108160498D01*
X206195506Y-108219463D01*
X206098815Y-108298815D01*
X206019463Y-108395506D01*
X205960498Y-108505820D01*
X205924188Y-108625518D01*
X205911928Y-108750000D01*
X185324801Y-108750000D01*
X186639802Y-107435000D01*
X186701939Y-107435000D01*
X186901898Y-107395226D01*
X187090256Y-107317205D01*
X187259774Y-107203937D01*
X187303711Y-107160000D01*
X189962678Y-107160000D01*
X190000000Y-107163676D01*
X190037322Y-107160000D01*
X190037333Y-107160000D01*
X190148986Y-107149003D01*
X190292247Y-107105546D01*
X190424276Y-107034974D01*
X190540001Y-106940001D01*
X190563804Y-106910997D01*
X194939803Y-102535000D01*
X194960500Y-102535000D01*
X194979774Y-102631898D01*
X195057795Y-102820256D01*
X195171063Y-102989774D01*
X195315226Y-103133937D01*
X195484744Y-103247205D01*
X195673102Y-103325226D01*
X195873061Y-103365000D01*
X196076939Y-103365000D01*
X196276898Y-103325226D01*
X196465256Y-103247205D01*
X196634774Y-103133937D01*
X196778937Y-102989774D01*
X196892205Y-102820256D01*
X196970226Y-102631898D01*
X197010000Y-102431939D01*
X197010000Y-102228061D01*
X196970226Y-102028102D01*
X196892205Y-101839744D01*
X196778937Y-101670226D01*
X196735000Y-101626289D01*
X196735000Y-92302565D01*
X196898061Y-92335000D01*
X197101939Y-92335000D01*
X197301898Y-92295226D01*
X197490256Y-92217205D01*
X197659774Y-92103937D01*
X197703711Y-92060000D01*
X201640000Y-92060000D01*
X201640001Y-99817668D01*
X201636324Y-99855000D01*
X201650998Y-100003985D01*
X201694454Y-100147246D01*
X201765026Y-100279276D01*
X201836201Y-100366002D01*
X201860000Y-100395001D01*
X201888998Y-100418799D01*
X206340000Y-104869803D01*
X206340000Y-104931939D01*
X206379774Y-105131898D01*
X206457795Y-105320256D01*
X206571063Y-105489774D01*
X206715226Y-105633937D01*
X206884744Y-105747205D01*
X207073102Y-105825226D01*
X207273061Y-105865000D01*
X207476939Y-105865000D01*
X207676898Y-105825226D01*
X207865256Y-105747205D01*
X208034774Y-105633937D01*
X208178937Y-105489774D01*
X208292205Y-105320256D01*
X208370226Y-105131898D01*
X208410000Y-104931939D01*
X208410000Y-104728061D01*
X208370226Y-104528102D01*
X208292205Y-104339744D01*
X208178937Y-104170226D01*
X208034774Y-104026063D01*
X207865256Y-103912795D01*
X207676898Y-103834774D01*
X207476939Y-103795000D01*
X207414803Y-103795000D01*
X203160000Y-99540199D01*
X203160000Y-91836890D01*
X205258524Y-91836890D01*
X205303175Y-91984099D01*
X205428359Y-92246920D01*
X205602412Y-92480269D01*
X205818645Y-92675178D01*
X206068748Y-92824157D01*
X206343109Y-92921481D01*
X206573000Y-92800814D01*
X206573000Y-91607000D01*
X206827000Y-91607000D01*
X206827000Y-92800814D01*
X207056891Y-92921481D01*
X207331252Y-92824157D01*
X207581355Y-92675178D01*
X207797588Y-92480269D01*
X207971641Y-92246920D01*
X208096825Y-91984099D01*
X208141476Y-91836890D01*
X208020155Y-91607000D01*
X206827000Y-91607000D01*
X206573000Y-91607000D01*
X205379845Y-91607000D01*
X205258524Y-91836890D01*
X203160000Y-91836890D01*
X203160000Y-91337333D01*
X203163677Y-91300000D01*
X203160000Y-91262667D01*
X203160000Y-85550000D01*
X205211928Y-85550000D01*
X205211928Y-87250000D01*
X205224188Y-87374482D01*
X205260498Y-87494180D01*
X205319463Y-87604494D01*
X205398815Y-87701185D01*
X205495506Y-87780537D01*
X205605820Y-87839502D01*
X205678380Y-87861513D01*
X205546525Y-87993368D01*
X205384010Y-88236589D01*
X205272068Y-88506842D01*
X205215000Y-88793740D01*
X205215000Y-89086260D01*
X205272068Y-89373158D01*
X205384010Y-89643411D01*
X205546525Y-89886632D01*
X205753368Y-90093475D01*
X205935534Y-90215195D01*
X205818645Y-90284822D01*
X205602412Y-90479731D01*
X205428359Y-90713080D01*
X205303175Y-90975901D01*
X205258524Y-91123110D01*
X205379845Y-91353000D01*
X206573000Y-91353000D01*
X206573000Y-91333000D01*
X206827000Y-91333000D01*
X206827000Y-91353000D01*
X208020155Y-91353000D01*
X208141476Y-91123110D01*
X208096825Y-90975901D01*
X207971641Y-90713080D01*
X207797588Y-90479731D01*
X207581355Y-90284822D01*
X207464466Y-90215195D01*
X207646632Y-90093475D01*
X207853475Y-89886632D01*
X208015990Y-89643411D01*
X208127932Y-89373158D01*
X208185000Y-89086260D01*
X208185000Y-88793740D01*
X208127932Y-88506842D01*
X208015990Y-88236589D01*
X207853475Y-87993368D01*
X207721620Y-87861513D01*
X207794180Y-87839502D01*
X207904494Y-87780537D01*
X208001185Y-87701185D01*
X208080537Y-87604494D01*
X208139502Y-87494180D01*
X208175812Y-87374482D01*
X208188072Y-87250000D01*
X208188072Y-85550000D01*
X208175812Y-85425518D01*
X208139502Y-85305820D01*
X208080537Y-85195506D01*
X208001185Y-85098815D01*
X207904494Y-85019463D01*
X207794180Y-84960498D01*
X207674482Y-84924188D01*
X207550000Y-84911928D01*
X205850000Y-84911928D01*
X205725518Y-84924188D01*
X205605820Y-84960498D01*
X205495506Y-85019463D01*
X205398815Y-85098815D01*
X205319463Y-85195506D01*
X205260498Y-85305820D01*
X205224188Y-85425518D01*
X205211928Y-85550000D01*
X203160000Y-85550000D01*
X203160000Y-85443141D01*
X203205546Y-85357932D01*
X203248987Y-85214724D01*
X203303937Y-85159774D01*
X203417205Y-84990256D01*
X203495226Y-84801898D01*
X203535000Y-84601939D01*
X203535000Y-84398061D01*
X203495226Y-84198102D01*
X203417205Y-84009744D01*
X203303937Y-83840226D01*
X203159774Y-83696063D01*
X202990256Y-83582795D01*
X202801898Y-83504774D01*
X202601939Y-83465000D01*
X202398061Y-83465000D01*
X202198102Y-83504774D01*
X202009744Y-83582795D01*
X201840226Y-83696063D01*
X201696063Y-83840226D01*
X201582795Y-84009744D01*
X201504774Y-84198102D01*
X201465000Y-84398061D01*
X201465000Y-84601939D01*
X201504774Y-84801898D01*
X201582795Y-84990256D01*
X201644505Y-85082612D01*
X201640000Y-85128353D01*
X201640000Y-85128363D01*
X201636324Y-85165685D01*
X201640000Y-85203008D01*
X201640001Y-90540000D01*
X197703711Y-90540000D01*
X197659774Y-90496063D01*
X197490256Y-90382795D01*
X197301898Y-90304774D01*
X197101939Y-90265000D01*
X196898061Y-90265000D01*
X196735000Y-90297435D01*
X196735000Y-84412322D01*
X196738676Y-84374999D01*
X196735000Y-84337676D01*
X196735000Y-84337667D01*
X196724003Y-84226014D01*
X196680546Y-84082753D01*
X196609974Y-83950724D01*
X196515001Y-83834999D01*
X196486004Y-83811202D01*
X194163804Y-81489003D01*
X194140001Y-81459999D01*
X194024276Y-81365026D01*
X193892247Y-81294454D01*
X193748986Y-81250997D01*
X193637333Y-81240000D01*
X193637322Y-81240000D01*
X193600000Y-81236324D01*
X193562678Y-81240000D01*
X191860000Y-81240000D01*
X191860000Y-71737325D01*
X191863676Y-71700000D01*
X191860000Y-71662675D01*
X191860000Y-71662667D01*
X191849003Y-71551014D01*
X191805546Y-71407753D01*
X191734974Y-71275724D01*
X191640001Y-71159999D01*
X191611004Y-71136202D01*
X185431693Y-64956891D01*
X202318519Y-64956891D01*
X202415843Y-65231252D01*
X202564822Y-65481355D01*
X202759731Y-65697588D01*
X202993080Y-65871641D01*
X203255901Y-65996825D01*
X203403110Y-66041476D01*
X203633000Y-65920155D01*
X203633000Y-64727000D01*
X202439186Y-64727000D01*
X202318519Y-64956891D01*
X185431693Y-64956891D01*
X184717911Y-64243109D01*
X202318519Y-64243109D01*
X202439186Y-64473000D01*
X203633000Y-64473000D01*
X203633000Y-63279845D01*
X203887000Y-63279845D01*
X203887000Y-64473000D01*
X203907000Y-64473000D01*
X203907000Y-64727000D01*
X203887000Y-64727000D01*
X203887000Y-65920155D01*
X204116890Y-66041476D01*
X204264099Y-65996825D01*
X204526920Y-65871641D01*
X204760269Y-65697588D01*
X204836034Y-65613534D01*
X204860498Y-65694180D01*
X204919463Y-65804494D01*
X204998815Y-65901185D01*
X205095506Y-65980537D01*
X205205820Y-66039502D01*
X205325518Y-66075812D01*
X205450000Y-66088072D01*
X207150000Y-66088072D01*
X207274482Y-66075812D01*
X207394180Y-66039502D01*
X207504494Y-65980537D01*
X207601185Y-65901185D01*
X207680537Y-65804494D01*
X207739502Y-65694180D01*
X207775812Y-65574482D01*
X207788072Y-65450000D01*
X207788072Y-63750000D01*
X207775812Y-63625518D01*
X207739502Y-63505820D01*
X207680537Y-63395506D01*
X207601185Y-63298815D01*
X207504494Y-63219463D01*
X207394180Y-63160498D01*
X207274482Y-63124188D01*
X207150000Y-63111928D01*
X205450000Y-63111928D01*
X205325518Y-63124188D01*
X205205820Y-63160498D01*
X205095506Y-63219463D01*
X204998815Y-63298815D01*
X204919463Y-63395506D01*
X204860498Y-63505820D01*
X204836034Y-63586466D01*
X204760269Y-63502412D01*
X204526920Y-63328359D01*
X204264099Y-63203175D01*
X204116890Y-63158524D01*
X203887000Y-63279845D01*
X203633000Y-63279845D01*
X203403110Y-63158524D01*
X203255901Y-63203175D01*
X202993080Y-63328359D01*
X202759731Y-63502412D01*
X202564822Y-63718645D01*
X202415843Y-63968748D01*
X202318519Y-64243109D01*
X184717911Y-64243109D01*
X181794802Y-61320000D01*
X201934267Y-61320000D01*
X201957147Y-61552300D01*
X202024906Y-61775674D01*
X202134942Y-61981536D01*
X202283025Y-62161975D01*
X202463464Y-62310058D01*
X202669326Y-62420094D01*
X202892700Y-62487853D01*
X203066793Y-62505000D01*
X203883207Y-62505000D01*
X204057300Y-62487853D01*
X204280674Y-62420094D01*
X204486536Y-62310058D01*
X204666975Y-62161975D01*
X204815058Y-61981536D01*
X204925094Y-61775674D01*
X204992853Y-61552300D01*
X205015733Y-61320000D01*
X205734267Y-61320000D01*
X205757147Y-61552300D01*
X205824906Y-61775674D01*
X205934942Y-61981536D01*
X206083025Y-62161975D01*
X206263464Y-62310058D01*
X206469326Y-62420094D01*
X206692700Y-62487853D01*
X206866793Y-62505000D01*
X207683207Y-62505000D01*
X207857300Y-62487853D01*
X208080674Y-62420094D01*
X208286536Y-62310058D01*
X208466975Y-62161975D01*
X208615058Y-61981536D01*
X208725094Y-61775674D01*
X208792853Y-61552300D01*
X208815733Y-61320000D01*
X208792853Y-61087700D01*
X208725094Y-60864326D01*
X208615058Y-60658464D01*
X208466975Y-60478025D01*
X208286536Y-60329942D01*
X208080674Y-60219906D01*
X207857300Y-60152147D01*
X207683207Y-60135000D01*
X206866793Y-60135000D01*
X206692700Y-60152147D01*
X206469326Y-60219906D01*
X206263464Y-60329942D01*
X206083025Y-60478025D01*
X205934942Y-60658464D01*
X205824906Y-60864326D01*
X205757147Y-61087700D01*
X205734267Y-61320000D01*
X205015733Y-61320000D01*
X204992853Y-61087700D01*
X204925094Y-60864326D01*
X204815058Y-60658464D01*
X204666975Y-60478025D01*
X204486536Y-60329942D01*
X204280674Y-60219906D01*
X204057300Y-60152147D01*
X203883207Y-60135000D01*
X203066793Y-60135000D01*
X202892700Y-60152147D01*
X202669326Y-60219906D01*
X202463464Y-60329942D01*
X202283025Y-60478025D01*
X202134942Y-60658464D01*
X202024906Y-60864326D01*
X201957147Y-61087700D01*
X201934267Y-61320000D01*
X181794802Y-61320000D01*
X173763804Y-53289003D01*
X173740001Y-53259999D01*
X173624276Y-53165026D01*
X173492247Y-53094454D01*
X173348986Y-53050997D01*
X173237333Y-53040000D01*
X173237322Y-53040000D01*
X173200000Y-53036324D01*
X173162678Y-53040000D01*
X151037322Y-53040000D01*
X150999999Y-53036324D01*
X150962676Y-53040000D01*
X150962667Y-53040000D01*
X150851014Y-53050997D01*
X150707753Y-53094454D01*
X150575724Y-53165026D01*
X150575722Y-53165027D01*
X150575723Y-53165027D01*
X150488996Y-53236201D01*
X150488992Y-53236205D01*
X150459999Y-53259999D01*
X150436205Y-53288992D01*
X138288998Y-65436201D01*
X138260000Y-65459999D01*
X138236202Y-65488997D01*
X138236201Y-65488998D01*
X138165026Y-65575724D01*
X138094454Y-65707754D01*
X138050998Y-65851015D01*
X138036324Y-66000000D01*
X138040001Y-66037332D01*
X138040000Y-69096289D01*
X137996063Y-69140226D01*
X137882795Y-69309744D01*
X137804774Y-69498102D01*
X137765000Y-69698061D01*
X110660000Y-69698061D01*
X110660000Y-66150000D01*
X128511928Y-66150000D01*
X128511928Y-67850000D01*
X128524188Y-67974482D01*
X128560498Y-68094180D01*
X128619463Y-68204494D01*
X128698815Y-68301185D01*
X128795506Y-68380537D01*
X128905820Y-68439502D01*
X129025518Y-68475812D01*
X129150000Y-68488072D01*
X130850000Y-68488072D01*
X130974482Y-68475812D01*
X131094180Y-68439502D01*
X131204494Y-68380537D01*
X131301185Y-68301185D01*
X131380537Y-68204494D01*
X131439502Y-68094180D01*
X131461513Y-68021620D01*
X131593368Y-68153475D01*
X131836589Y-68315990D01*
X132106842Y-68427932D01*
X132393740Y-68485000D01*
X132686260Y-68485000D01*
X132973158Y-68427932D01*
X133243411Y-68315990D01*
X133486632Y-68153475D01*
X133693475Y-67946632D01*
X133810000Y-67772240D01*
X133926525Y-67946632D01*
X134133368Y-68153475D01*
X134376589Y-68315990D01*
X134646842Y-68427932D01*
X134933740Y-68485000D01*
X135226260Y-68485000D01*
X135513158Y-68427932D01*
X135783411Y-68315990D01*
X136026632Y-68153475D01*
X136233475Y-67946632D01*
X136395990Y-67703411D01*
X136507932Y-67433158D01*
X136565000Y-67146260D01*
X136565000Y-66853740D01*
X136507932Y-66566842D01*
X136395990Y-66296589D01*
X136233475Y-66053368D01*
X136026632Y-65846525D01*
X135783411Y-65684010D01*
X135513158Y-65572068D01*
X135226260Y-65515000D01*
X134933740Y-65515000D01*
X134646842Y-65572068D01*
X134376589Y-65684010D01*
X134133368Y-65846525D01*
X133926525Y-66053368D01*
X133810000Y-66227760D01*
X133693475Y-66053368D01*
X133486632Y-65846525D01*
X133243411Y-65684010D01*
X132973158Y-65572068D01*
X132686260Y-65515000D01*
X132393740Y-65515000D01*
X132106842Y-65572068D01*
X131836589Y-65684010D01*
X131593368Y-65846525D01*
X131461513Y-65978380D01*
X131439502Y-65905820D01*
X131380537Y-65795506D01*
X131301185Y-65698815D01*
X131204494Y-65619463D01*
X131094180Y-65560498D01*
X130974482Y-65524188D01*
X130850000Y-65511928D01*
X129150000Y-65511928D01*
X129025518Y-65524188D01*
X128905820Y-65560498D01*
X128795506Y-65619463D01*
X128698815Y-65698815D01*
X128619463Y-65795506D01*
X128560498Y-65905820D01*
X128524188Y-66025518D01*
X128511928Y-66150000D01*
X110660000Y-66150000D01*
X110660000Y-63198061D01*
X122565000Y-63198061D01*
X122565000Y-63401939D01*
X122604774Y-63601898D01*
X122682795Y-63790256D01*
X122796063Y-63959774D01*
X122940226Y-64103937D01*
X123109744Y-64217205D01*
X123298102Y-64295226D01*
X123498061Y-64335000D01*
X123701939Y-64335000D01*
X123901898Y-64295226D01*
X124090256Y-64217205D01*
X124259774Y-64103937D01*
X124303711Y-64060000D01*
X131996289Y-64060000D01*
X132040226Y-64103937D01*
X132209744Y-64217205D01*
X132398102Y-64295226D01*
X132598061Y-64335000D01*
X132801939Y-64335000D01*
X133001898Y-64295226D01*
X133190256Y-64217205D01*
X133359774Y-64103937D01*
X133503937Y-63959774D01*
X133617205Y-63790256D01*
X133695226Y-63601898D01*
X133735000Y-63401939D01*
X133735000Y-63198061D01*
X133695226Y-62998102D01*
X133617205Y-62809744D01*
X133503937Y-62640226D01*
X133460000Y-62596289D01*
X133460000Y-58903711D01*
X133503937Y-58859774D01*
X133617205Y-58690256D01*
X133695226Y-58501898D01*
X133735000Y-58301939D01*
X133735000Y-58098061D01*
X133695226Y-57898102D01*
X133617205Y-57709744D01*
X133503937Y-57540226D01*
X133359774Y-57396063D01*
X133190256Y-57282795D01*
X133001898Y-57204774D01*
X132801939Y-57165000D01*
X132598061Y-57165000D01*
X132398102Y-57204774D01*
X132209744Y-57282795D01*
X132040226Y-57396063D01*
X131896063Y-57540226D01*
X131782795Y-57709744D01*
X131704774Y-57898102D01*
X131665000Y-58098061D01*
X131665000Y-58301939D01*
X131704774Y-58501898D01*
X131782795Y-58690256D01*
X131896063Y-58859774D01*
X131940001Y-58903712D01*
X131940000Y-62540000D01*
X124303711Y-62540000D01*
X124259774Y-62496063D01*
X124090256Y-62382795D01*
X123901898Y-62304774D01*
X123701939Y-62265000D01*
X123498061Y-62265000D01*
X123298102Y-62304774D01*
X123109744Y-62382795D01*
X122940226Y-62496063D01*
X122796063Y-62640226D01*
X122682795Y-62809744D01*
X122604774Y-62998102D01*
X122565000Y-63198061D01*
X110660000Y-63198061D01*
X110660000Y-52680000D01*
X201934267Y-52680000D01*
X201957147Y-52912300D01*
X202024906Y-53135674D01*
X202134942Y-53341536D01*
X202283025Y-53521975D01*
X202463464Y-53670058D01*
X202669326Y-53780094D01*
X202892700Y-53847853D01*
X203066793Y-53865000D01*
X203883207Y-53865000D01*
X204057300Y-53847853D01*
X204280674Y-53780094D01*
X204486536Y-53670058D01*
X204666975Y-53521975D01*
X204815058Y-53341536D01*
X204925094Y-53135674D01*
X204992853Y-52912300D01*
X205015733Y-52680000D01*
X205734267Y-52680000D01*
X205757147Y-52912300D01*
X205824906Y-53135674D01*
X205934942Y-53341536D01*
X206083025Y-53521975D01*
X206263464Y-53670058D01*
X206469326Y-53780094D01*
X206692700Y-53847853D01*
X206866793Y-53865000D01*
X207683207Y-53865000D01*
X207857300Y-53847853D01*
X208080674Y-53780094D01*
X208286536Y-53670058D01*
X208466975Y-53521975D01*
X208615058Y-53341536D01*
X208725094Y-53135674D01*
X208792853Y-52912300D01*
X208815733Y-52680000D01*
X208792853Y-52447700D01*
X208725094Y-52224326D01*
X208615058Y-52018464D01*
X208466975Y-51838025D01*
X208286536Y-51689942D01*
X208080674Y-51579906D01*
X207857300Y-51512147D01*
X207683207Y-51495000D01*
X206866793Y-51495000D01*
X206692700Y-51512147D01*
X206469326Y-51579906D01*
X206263464Y-51689942D01*
X206083025Y-51838025D01*
X205934942Y-52018464D01*
X205824906Y-52224326D01*
X205757147Y-52447700D01*
X205734267Y-52680000D01*
X205015733Y-52680000D01*
X204992853Y-52447700D01*
X204925094Y-52224326D01*
X204815058Y-52018464D01*
X204666975Y-51838025D01*
X204486536Y-51689942D01*
X204280674Y-51579906D01*
X204057300Y-51512147D01*
X203883207Y-51495000D01*
X203066793Y-51495000D01*
X202892700Y-51512147D01*
X202669326Y-51579906D01*
X202463464Y-51689942D01*
X202283025Y-51838025D01*
X202134942Y-52018464D01*
X202024906Y-52224326D01*
X201957147Y-52447700D01*
X201934267Y-52680000D01*
X110660000Y-52680000D01*
X110660000Y-50660000D01*
X209340000Y-50660000D01*
X209340001Y-119340000D01*
G37*
X209340001Y-119340000D02*
X110660000Y-119340000D01*
X110660000Y-110798061D01*
X156265000Y-110798061D01*
X156265000Y-111001939D01*
X156304774Y-111201898D01*
X156382795Y-111390256D01*
X156496063Y-111559774D01*
X156640226Y-111703937D01*
X156809744Y-111817205D01*
X156998102Y-111895226D01*
X157198061Y-111935000D01*
X157401939Y-111935000D01*
X157601898Y-111895226D01*
X157790256Y-111817205D01*
X157959774Y-111703937D01*
X158003711Y-111660000D01*
X161787678Y-111660000D01*
X161825000Y-111663676D01*
X161862322Y-111660000D01*
X161862333Y-111660000D01*
X161973986Y-111649003D01*
X162117247Y-111605546D01*
X162249276Y-111534974D01*
X162365001Y-111440001D01*
X162388804Y-111410997D01*
X163400000Y-110399802D01*
X164236201Y-111236003D01*
X164259999Y-111265001D01*
X164288997Y-111288799D01*
X164375723Y-111359974D01*
X164507753Y-111430546D01*
X164651014Y-111474003D01*
X164762667Y-111485000D01*
X164762677Y-111485000D01*
X164800000Y-111488676D01*
X164837322Y-111485000D01*
X169140000Y-111485000D01*
X169140001Y-112611928D01*
X169050000Y-112611928D01*
X168925518Y-112624188D01*
X168805820Y-112660498D01*
X168695506Y-112719463D01*
X168598815Y-112798815D01*
X168519463Y-112895506D01*
X168460498Y-113005820D01*
X168424188Y-113125518D01*
X168411928Y-113250000D01*
X168411928Y-114950000D01*
X168424188Y-115074482D01*
X168460498Y-115194180D01*
X168519463Y-115304494D01*
X168598815Y-115401185D01*
X168695506Y-115480537D01*
X168805820Y-115539502D01*
X168925518Y-115575812D01*
X169050000Y-115588072D01*
X170750000Y-115588072D01*
X170874482Y-115575812D01*
X170994180Y-115539502D01*
X171104494Y-115480537D01*
X171201185Y-115401185D01*
X171280537Y-115304494D01*
X171339502Y-115194180D01*
X171363966Y-115113534D01*
X171439731Y-115197588D01*
X171673080Y-115371641D01*
X171935901Y-115496825D01*
X172083110Y-115541476D01*
X172313000Y-115420155D01*
X172313000Y-114227000D01*
X172567000Y-114227000D01*
X172567000Y-115420155D01*
X172796890Y-115541476D01*
X172944099Y-115496825D01*
X173206920Y-115371641D01*
X173440269Y-115197588D01*
X173635178Y-114981355D01*
X173784157Y-114731252D01*
X173881481Y-114456891D01*
X173760814Y-114227000D01*
X172567000Y-114227000D01*
X172313000Y-114227000D01*
X172293000Y-114227000D01*
X172293000Y-113973000D01*
X172313000Y-113973000D01*
X172313000Y-112779845D01*
X172567000Y-112779845D01*
X172567000Y-113973000D01*
X173760814Y-113973000D01*
X173881481Y-113743109D01*
X173784157Y-113468748D01*
X173635178Y-113218645D01*
X173440269Y-113002412D01*
X173206920Y-112828359D01*
X172944099Y-112703175D01*
X172796890Y-112658524D01*
X172567000Y-112779845D01*
X172313000Y-112779845D01*
X172083110Y-112658524D01*
X171935901Y-112703175D01*
X171673080Y-112828359D01*
X171439731Y-113002412D01*
X171363966Y-113086466D01*
X171339502Y-113005820D01*
X171280537Y-112895506D01*
X171201185Y-112798815D01*
X171104494Y-112719463D01*
X170994180Y-112660498D01*
X170874482Y-112624188D01*
X170750000Y-112611928D01*
X170660000Y-112611928D01*
X170660000Y-111428711D01*
X170703937Y-111384774D01*
X170817205Y-111215256D01*
X170895226Y-111026898D01*
X170935000Y-110826939D01*
X170935000Y-110623061D01*
X170895226Y-110423102D01*
X170817205Y-110234744D01*
X170703937Y-110065226D01*
X170559774Y-109921063D01*
X170390256Y-109807795D01*
X170201898Y-109729774D01*
X170001939Y-109690000D01*
X169798061Y-109690000D01*
X169598102Y-109729774D01*
X169409744Y-109807795D01*
X169240226Y-109921063D01*
X169196289Y-109965000D01*
X165114802Y-109965000D01*
X164435000Y-109285199D01*
X164435000Y-109223061D01*
X164395226Y-109023102D01*
X164317205Y-108834744D01*
X164203937Y-108665226D01*
X164059774Y-108521063D01*
X163890256Y-108407795D01*
X163701898Y-108329774D01*
X163501939Y-108290000D01*
X163298061Y-108290000D01*
X163098102Y-108329774D01*
X162909744Y-108407795D01*
X162740226Y-108521063D01*
X162596063Y-108665226D01*
X162482795Y-108834744D01*
X162404774Y-109023102D01*
X162365000Y-109223061D01*
X162365000Y-109285198D01*
X161510199Y-110140000D01*
X158003711Y-110140000D01*
X157959774Y-110096063D01*
X157790256Y-109982795D01*
X157601898Y-109904774D01*
X157401939Y-109865000D01*
X157198061Y-109865000D01*
X156998102Y-109904774D01*
X156809744Y-109982795D01*
X156640226Y-110096063D01*
X156496063Y-110240226D01*
X156382795Y-110409744D01*
X156304774Y-110598102D01*
X156265000Y-110798061D01*
X110660000Y-110798061D01*
X110660000Y-99591229D01*
X113265000Y-99591229D01*
X113265000Y-100208771D01*
X113385476Y-100814446D01*
X113621799Y-101384979D01*
X113964886Y-101898446D01*
X114401554Y-102335114D01*
X114915021Y-102678201D01*
X115485554Y-102914524D01*
X116091229Y-103035000D01*
X116708771Y-103035000D01*
X117314446Y-102914524D01*
X117884979Y-102678201D01*
X118398446Y-102335114D01*
X118835114Y-101898446D01*
X119178201Y-101384979D01*
X119414524Y-100814446D01*
X119535000Y-100208771D01*
X119535000Y-99591229D01*
X119414524Y-98985554D01*
X119178201Y-98415021D01*
X118835114Y-97901554D01*
X118398446Y-97464886D01*
X117884979Y-97121799D01*
X117314446Y-96885476D01*
X116708771Y-96765000D01*
X116091229Y-96765000D01*
X115485554Y-96885476D01*
X114915021Y-97121799D01*
X114401554Y-97464886D01*
X113964886Y-97901554D01*
X113621799Y-98415021D01*
X113385476Y-98985554D01*
X113265000Y-99591229D01*
X110660000Y-99591229D01*
X110660000Y-83119896D01*
X113557500Y-83119896D01*
X113557500Y-83400104D01*
X113612166Y-83674928D01*
X113719397Y-83933806D01*
X113875072Y-84166791D01*
X114073209Y-84364928D01*
X114306194Y-84520603D01*
X114565072Y-84627834D01*
X114626234Y-84640000D01*
X114565072Y-84652166D01*
X114306194Y-84759397D01*
X114073209Y-84915072D01*
X113875072Y-85113209D01*
X113719397Y-85346194D01*
X113612166Y-85605072D01*
X113557500Y-85879896D01*
X113557500Y-86160104D01*
X113612166Y-86434928D01*
X113719397Y-86693806D01*
X113875072Y-86926791D01*
X114073209Y-87124928D01*
X114306194Y-87280603D01*
X114565072Y-87387834D01*
X114626234Y-87400000D01*
X114565072Y-87412166D01*
X114306194Y-87519397D01*
X114073209Y-87675072D01*
X113875072Y-87873209D01*
X113719397Y-88106194D01*
X113612166Y-88365072D01*
X113557500Y-88639896D01*
X113557500Y-88920104D01*
X113612166Y-89194928D01*
X113719397Y-89453806D01*
X113875072Y-89686791D01*
X114073209Y-89884928D01*
X114306194Y-90040603D01*
X114565072Y-90147834D01*
X114626234Y-90160000D01*
X114565072Y-90172166D01*
X114306194Y-90279397D01*
X114073209Y-90435072D01*
X113875072Y-90633209D01*
X113719397Y-90866194D01*
X113612166Y-91125072D01*
X113557500Y-91399896D01*
X113557500Y-91680104D01*
X113612166Y-91954928D01*
X113719397Y-92213806D01*
X113875072Y-92446791D01*
X114073209Y-92644928D01*
X114306194Y-92800603D01*
X114565072Y-92907834D01*
X114839896Y-92962500D01*
X115120104Y-92962500D01*
X115394928Y-92907834D01*
X115653806Y-92800603D01*
X115886791Y-92644928D01*
X116084928Y-92446791D01*
X116240603Y-92213806D01*
X116274281Y-92132500D01*
X116394428Y-92132500D01*
X116394428Y-93707500D01*
X116406688Y-93831982D01*
X116442998Y-93951680D01*
X116501963Y-94061994D01*
X116581315Y-94158685D01*
X116678006Y-94238037D01*
X116788320Y-94297002D01*
X116908018Y-94333312D01*
X117032500Y-94345572D01*
X118607500Y-94345572D01*
X118731982Y-94333312D01*
X118851680Y-94297002D01*
X118961994Y-94238037D01*
X119058685Y-94158685D01*
X119138037Y-94061994D01*
X119197002Y-93951680D01*
X119233312Y-93831982D01*
X119245572Y-93707500D01*
X119245572Y-92132500D01*
X119233312Y-92008018D01*
X119197002Y-91888320D01*
X119138037Y-91778006D01*
X119058685Y-91681315D01*
X118961994Y-91601963D01*
X118851680Y-91542998D01*
X118731982Y-91506688D01*
X118607500Y-91494428D01*
X118315577Y-91494428D01*
X118493806Y-91420603D01*
X118726791Y-91264928D01*
X118924928Y-91066791D01*
X119080603Y-90833806D01*
X119187834Y-90574928D01*
X119242500Y-90300104D01*
X119242500Y-90019896D01*
X119187834Y-89745072D01*
X119080603Y-89486194D01*
X118924928Y-89253209D01*
X118726791Y-89055072D01*
X118493806Y-88899397D01*
X118234928Y-88792166D01*
X118173766Y-88780000D01*
X118234928Y-88767834D01*
X118493806Y-88660603D01*
X118726791Y-88504928D01*
X118924928Y-88306791D01*
X119080603Y-88073806D01*
X119187834Y-87814928D01*
X119242500Y-87540104D01*
X119242500Y-87259896D01*
X119187834Y-86985072D01*
X119164898Y-86929699D01*
X123240000Y-91004803D01*
X123240001Y-92181821D01*
X123053368Y-92306525D01*
X122846525Y-92513368D01*
X122684010Y-92756589D01*
X122572068Y-93026842D01*
X122515000Y-93313740D01*
X122515000Y-93606260D01*
X122572068Y-93893158D01*
X122684010Y-94163411D01*
X122846525Y-94406632D01*
X122978380Y-94538487D01*
X122905820Y-94560498D01*
X122795506Y-94619463D01*
X122698815Y-94698815D01*
X122619463Y-94795506D01*
X122560498Y-94905820D01*
X122524188Y-95025518D01*
X122511928Y-95150000D01*
X122511928Y-96850000D01*
X122524188Y-96974482D01*
X122560498Y-97094180D01*
X122619463Y-97204494D01*
X122698815Y-97301185D01*
X122795506Y-97380537D01*
X122905820Y-97439502D01*
X123025518Y-97475812D01*
X123150000Y-97488072D01*
X124850000Y-97488072D01*
X124974482Y-97475812D01*
X125094180Y-97439502D01*
X125204494Y-97380537D01*
X125301185Y-97301185D01*
X125380537Y-97204494D01*
X125439502Y-97094180D01*
X125475812Y-96974482D01*
X125488072Y-96850000D01*
X125488072Y-96022874D01*
X125940001Y-96474803D01*
X125940000Y-97287676D01*
X125936324Y-97324999D01*
X125940000Y-97362321D01*
X125940000Y-97362331D01*
X125950997Y-97473984D01*
X125978205Y-97563677D01*
X125994454Y-97617245D01*
X126065026Y-97749275D01*
X126102737Y-97795226D01*
X126159999Y-97865000D01*
X126189003Y-97888803D01*
X133611202Y-105311003D01*
X133635000Y-105340001D01*
X133750725Y-105434974D01*
X133882754Y-105505546D01*
X134026015Y-105549003D01*
X134137668Y-105560000D01*
X134137676Y-105560000D01*
X134175001Y-105563676D01*
X134212326Y-105560000D01*
X151396289Y-105560000D01*
X151440226Y-105603937D01*
X151609744Y-105717205D01*
X151798102Y-105795226D01*
X151998061Y-105835000D01*
X152201939Y-105835000D01*
X152401898Y-105795226D01*
X152590256Y-105717205D01*
X152759774Y-105603937D01*
X152903937Y-105459774D01*
X153017205Y-105290256D01*
X153095226Y-105101898D01*
X153135000Y-104901939D01*
X153135000Y-104698061D01*
X153112511Y-104585001D01*
X155837677Y-104585001D01*
X155874999Y-104588677D01*
X155912321Y-104585001D01*
X155912332Y-104585001D01*
X156023985Y-104574004D01*
X156167246Y-104530547D01*
X156299275Y-104459975D01*
X156415000Y-104365002D01*
X156438803Y-104335998D01*
X163539802Y-97235000D01*
X163601939Y-97235000D01*
X163801898Y-97195226D01*
X163990256Y-97117205D01*
X164159774Y-97003937D01*
X164203711Y-96960000D01*
X174096289Y-96960000D01*
X174140226Y-97003937D01*
X174309744Y-97117205D01*
X174498102Y-97195226D01*
X174698061Y-97235000D01*
X174901939Y-97235000D01*
X175101898Y-97195226D01*
X175290256Y-97117205D01*
X175459774Y-97003937D01*
X175603937Y-96859774D01*
X175717205Y-96690256D01*
X175795226Y-96501898D01*
X175835000Y-96301939D01*
X175835000Y-96098061D01*
X175795226Y-95898102D01*
X175717205Y-95709744D01*
X175603937Y-95540226D01*
X175459774Y-95396063D01*
X175290256Y-95282795D01*
X175101898Y-95204774D01*
X174901939Y-95165000D01*
X174698061Y-95165000D01*
X174498102Y-95204774D01*
X174309744Y-95282795D01*
X174140226Y-95396063D01*
X174096289Y-95440000D01*
X164203711Y-95440000D01*
X164159774Y-95396063D01*
X163990256Y-95282795D01*
X163801898Y-95204774D01*
X163601939Y-95165000D01*
X163398061Y-95165000D01*
X163198102Y-95204774D01*
X163009744Y-95282795D01*
X162840226Y-95396063D01*
X162696063Y-95540226D01*
X162582795Y-95709744D01*
X162504774Y-95898102D01*
X162465000Y-96098061D01*
X162465000Y-96160198D01*
X155560198Y-103065001D01*
X150235000Y-103065001D01*
X150235000Y-102998061D01*
X150195226Y-102798102D01*
X150117205Y-102609744D01*
X150003937Y-102440226D01*
X149960000Y-102396289D01*
X149960000Y-99903711D01*
X150003937Y-99859774D01*
X150117205Y-99690256D01*
X150195226Y-99501898D01*
X150235000Y-99301939D01*
X150235000Y-99098061D01*
X150195226Y-98898102D01*
X150117205Y-98709744D01*
X150003937Y-98540226D01*
X149859774Y-98396063D01*
X149690256Y-98282795D01*
X149501898Y-98204774D01*
X149301939Y-98165000D01*
X149098061Y-98165000D01*
X148898102Y-98204774D01*
X148709744Y-98282795D01*
X148540226Y-98396063D01*
X148396063Y-98540226D01*
X148282795Y-98709744D01*
X148204774Y-98898102D01*
X148165000Y-99098061D01*
X148165000Y-99301939D01*
X148204774Y-99501898D01*
X148282795Y-99690256D01*
X148396063Y-99859774D01*
X148440000Y-99903711D01*
X148440001Y-102396288D01*
X148396063Y-102440226D01*
X148282795Y-102609744D01*
X148204774Y-102798102D01*
X148165000Y-102998061D01*
X148165000Y-103065001D01*
X134854801Y-103065001D01*
X131277871Y-99488072D01*
X131850000Y-99488072D01*
X131974482Y-99475812D01*
X132094180Y-99439502D01*
X132204494Y-99380537D01*
X132301185Y-99301185D01*
X132380537Y-99204494D01*
X132439502Y-99094180D01*
X132461513Y-99021620D01*
X132593368Y-99153475D01*
X132836589Y-99315990D01*
X133106842Y-99427932D01*
X133393740Y-99485000D01*
X133686260Y-99485000D01*
X133973158Y-99427932D01*
X134243411Y-99315990D01*
X134486632Y-99153475D01*
X134693475Y-98946632D01*
X134855990Y-98703411D01*
X134967932Y-98433158D01*
X135025000Y-98146260D01*
X135025000Y-97853740D01*
X134967932Y-97566842D01*
X134855990Y-97296589D01*
X134693475Y-97053368D01*
X134486632Y-96846525D01*
X134243411Y-96684010D01*
X133973158Y-96572068D01*
X133686260Y-96515000D01*
X133393740Y-96515000D01*
X133106842Y-96572068D01*
X132836589Y-96684010D01*
X132593368Y-96846525D01*
X132461513Y-96978380D01*
X132439502Y-96905820D01*
X132380537Y-96795506D01*
X132301185Y-96698815D01*
X132204494Y-96619463D01*
X132094180Y-96560498D01*
X131974482Y-96524188D01*
X131850000Y-96511928D01*
X130584999Y-96511928D01*
X130584999Y-95915912D01*
X130588675Y-95878589D01*
X130584999Y-95841266D01*
X130584999Y-95841256D01*
X130574002Y-95729603D01*
X130530545Y-95586342D01*
X130505895Y-95540226D01*
X130459973Y-95454312D01*
X130388798Y-95367586D01*
X130365000Y-95338588D01*
X130336003Y-95314791D01*
X130104836Y-95083624D01*
X130150000Y-95088072D01*
X131850000Y-95088072D01*
X131974482Y-95075812D01*
X132094180Y-95039502D01*
X132204494Y-94980537D01*
X132301185Y-94901185D01*
X132380537Y-94804494D01*
X132439502Y-94694180D01*
X132461513Y-94621620D01*
X132593368Y-94753475D01*
X132836589Y-94915990D01*
X133106842Y-95027932D01*
X133393740Y-95085000D01*
X133686260Y-95085000D01*
X133973158Y-95027932D01*
X134243411Y-94915990D01*
X134486632Y-94753475D01*
X134693475Y-94546632D01*
X134855990Y-94303411D01*
X134967932Y-94033158D01*
X135025000Y-93746260D01*
X135025000Y-93453740D01*
X134967932Y-93166842D01*
X134855990Y-92896589D01*
X134693475Y-92653368D01*
X134486632Y-92446525D01*
X134243411Y-92284010D01*
X133973158Y-92172068D01*
X133686260Y-92115000D01*
X133393740Y-92115000D01*
X133173592Y-92158790D01*
X125485000Y-84470199D01*
X125485000Y-84393740D01*
X125427932Y-84106842D01*
X125315990Y-83836589D01*
X125153475Y-83593368D01*
X125021620Y-83461513D01*
X125094180Y-83439502D01*
X125204494Y-83380537D01*
X125301185Y-83301185D01*
X125380537Y-83204494D01*
X125439502Y-83094180D01*
X125475812Y-82974482D01*
X125488072Y-82850000D01*
X125488072Y-81150000D01*
X125475812Y-81025518D01*
X125439502Y-80905820D01*
X125380537Y-80795506D01*
X125301185Y-80698815D01*
X125204494Y-80619463D01*
X125094180Y-80560498D01*
X124974482Y-80524188D01*
X124850000Y-80511928D01*
X123150000Y-80511928D01*
X123025518Y-80524188D01*
X122905820Y-80560498D01*
X122795506Y-80619463D01*
X122698815Y-80698815D01*
X122619463Y-80795506D01*
X122560498Y-80905820D01*
X122524188Y-81025518D01*
X122511928Y-81150000D01*
X122511928Y-81345674D01*
X122475724Y-81365026D01*
X122359999Y-81459999D01*
X122336199Y-81488999D01*
X122313999Y-81511199D01*
X122284998Y-81535000D01*
X122229870Y-81602175D01*
X122190025Y-81650725D01*
X122161135Y-81704774D01*
X122119453Y-81782755D01*
X122075996Y-81926016D01*
X122064999Y-82037669D01*
X122064999Y-82037679D01*
X122061323Y-82075001D01*
X122064999Y-82112324D01*
X122065000Y-87680198D01*
X119229626Y-84844825D01*
X119242500Y-84780104D01*
X119242500Y-84499896D01*
X119187834Y-84225072D01*
X119080603Y-83966194D01*
X118924928Y-83733209D01*
X118726791Y-83535072D01*
X118493806Y-83379397D01*
X118234928Y-83272166D01*
X118173766Y-83260000D01*
X118234928Y-83247834D01*
X118493806Y-83140603D01*
X118726791Y-82984928D01*
X118924928Y-82786791D01*
X119080603Y-82553806D01*
X119187834Y-82294928D01*
X119242500Y-82020104D01*
X119242500Y-81739896D01*
X119187834Y-81465072D01*
X119080603Y-81206194D01*
X118924928Y-80973209D01*
X118726791Y-80775072D01*
X118493806Y-80619397D01*
X118234928Y-80512166D01*
X117960104Y-80457500D01*
X117679896Y-80457500D01*
X117405072Y-80512166D01*
X117146194Y-80619397D01*
X116913209Y-80775072D01*
X116715072Y-80973209D01*
X116559397Y-81206194D01*
X116452166Y-81465072D01*
X116397500Y-81739896D01*
X116397500Y-82020104D01*
X116452166Y-82294928D01*
X116559397Y-82553806D01*
X116715072Y-82786791D01*
X116913209Y-82984928D01*
X117146194Y-83140603D01*
X117405072Y-83247834D01*
X117466234Y-83260000D01*
X117405072Y-83272166D01*
X117146194Y-83379397D01*
X116913209Y-83535072D01*
X116715072Y-83733209D01*
X116559397Y-83966194D01*
X116452166Y-84225072D01*
X116397500Y-84499896D01*
X116397500Y-84780104D01*
X116452166Y-85054928D01*
X116559397Y-85313806D01*
X116715072Y-85546791D01*
X116913209Y-85744928D01*
X117146194Y-85900603D01*
X117405072Y-86007834D01*
X117466234Y-86020000D01*
X117405072Y-86032166D01*
X117146194Y-86139397D01*
X116913209Y-86295072D01*
X116715072Y-86493209D01*
X116559397Y-86726194D01*
X116452166Y-86985072D01*
X116397500Y-87259896D01*
X116397500Y-87540104D01*
X116452166Y-87814928D01*
X116559397Y-88073806D01*
X116715072Y-88306791D01*
X116913209Y-88504928D01*
X117146194Y-88660603D01*
X117405072Y-88767834D01*
X117466234Y-88780000D01*
X117405072Y-88792166D01*
X117146194Y-88899397D01*
X116913209Y-89055072D01*
X116715072Y-89253209D01*
X116559397Y-89486194D01*
X116452166Y-89745072D01*
X116397500Y-90019896D01*
X116397500Y-90300104D01*
X116452166Y-90574928D01*
X116559397Y-90833806D01*
X116715072Y-91066791D01*
X116913209Y-91264928D01*
X117146194Y-91420603D01*
X117324423Y-91494428D01*
X117032500Y-91494428D01*
X116908018Y-91506688D01*
X116788320Y-91542998D01*
X116678006Y-91601963D01*
X116581315Y-91681315D01*
X116501963Y-91778006D01*
X116442998Y-91888320D01*
X116406688Y-92008018D01*
X116394428Y-92132500D01*
X116274281Y-92132500D01*
X116347834Y-91954928D01*
X116402500Y-91680104D01*
X116402500Y-91399896D01*
X116347834Y-91125072D01*
X116240603Y-90866194D01*
X116084928Y-90633209D01*
X115886791Y-90435072D01*
X115653806Y-90279397D01*
X115394928Y-90172166D01*
X115333766Y-90160000D01*
X115394928Y-90147834D01*
X115653806Y-90040603D01*
X115886791Y-89884928D01*
X116084928Y-89686791D01*
X116240603Y-89453806D01*
X116347834Y-89194928D01*
X116402500Y-88920104D01*
X116402500Y-88639896D01*
X116347834Y-88365072D01*
X116240603Y-88106194D01*
X116084928Y-87873209D01*
X115886791Y-87675072D01*
X115653806Y-87519397D01*
X115394928Y-87412166D01*
X115333766Y-87400000D01*
X115394928Y-87387834D01*
X115653806Y-87280603D01*
X115886791Y-87124928D01*
X116084928Y-86926791D01*
X116240603Y-86693806D01*
X116347834Y-86434928D01*
X116402500Y-86160104D01*
X116402500Y-85879896D01*
X116347834Y-85605072D01*
X116240603Y-85346194D01*
X116084928Y-85113209D01*
X115886791Y-84915072D01*
X115653806Y-84759397D01*
X115394928Y-84652166D01*
X115333766Y-84640000D01*
X115394928Y-84627834D01*
X115653806Y-84520603D01*
X115886791Y-84364928D01*
X116084928Y-84166791D01*
X116240603Y-83933806D01*
X116347834Y-83674928D01*
X116402500Y-83400104D01*
X116402500Y-83119896D01*
X116347834Y-82845072D01*
X116240603Y-82586194D01*
X116084928Y-82353209D01*
X115886791Y-82155072D01*
X115653806Y-81999397D01*
X115394928Y-81892166D01*
X115120104Y-81837500D01*
X114839896Y-81837500D01*
X114565072Y-81892166D01*
X114306194Y-81999397D01*
X114073209Y-82155072D01*
X113875072Y-82353209D01*
X113719397Y-82586194D01*
X113612166Y-82845072D01*
X113557500Y-83119896D01*
X110660000Y-83119896D01*
X110660000Y-74591229D01*
X113265000Y-74591229D01*
X113265000Y-75208771D01*
X113385476Y-75814446D01*
X113621799Y-76384979D01*
X113964886Y-76898446D01*
X114401554Y-77335114D01*
X114915021Y-77678201D01*
X115485554Y-77914524D01*
X116091229Y-78035000D01*
X116708771Y-78035000D01*
X117314446Y-77914524D01*
X117884979Y-77678201D01*
X118398446Y-77335114D01*
X118835114Y-76898446D01*
X119178201Y-76384979D01*
X119414524Y-75814446D01*
X119535000Y-75208771D01*
X119535000Y-74591229D01*
X119414524Y-73985554D01*
X119178201Y-73415021D01*
X118835114Y-72901554D01*
X118398446Y-72464886D01*
X117884979Y-72121799D01*
X117314446Y-71885476D01*
X116708771Y-71765000D01*
X116091229Y-71765000D01*
X115485554Y-71885476D01*
X114915021Y-72121799D01*
X114401554Y-72464886D01*
X113964886Y-72901554D01*
X113621799Y-73415021D01*
X113385476Y-73985554D01*
X113265000Y-74591229D01*
X110660000Y-74591229D01*
X110660000Y-69698061D01*
X137765000Y-69698061D01*
X137765000Y-69901939D01*
X137804774Y-70101898D01*
X137882795Y-70290256D01*
X137996063Y-70459774D01*
X138040001Y-70503712D01*
X138040000Y-73537332D01*
X138040001Y-73537342D01*
X138040000Y-74762677D01*
X138036324Y-74800000D01*
X138040000Y-74837322D01*
X138040000Y-74837332D01*
X138050997Y-74948985D01*
X138094454Y-75092246D01*
X138165026Y-75224276D01*
X138204871Y-75272826D01*
X138259999Y-75340001D01*
X138289003Y-75363804D01*
X139765000Y-76839802D01*
X139765000Y-76901939D01*
X139804774Y-77101898D01*
X139882795Y-77290256D01*
X139996063Y-77459774D01*
X140040000Y-77503711D01*
X140040001Y-96096288D01*
X139996063Y-96140226D01*
X139882795Y-96309744D01*
X139804774Y-96498102D01*
X139765000Y-96698061D01*
X139765000Y-96901939D01*
X139804774Y-97101898D01*
X139882795Y-97290256D01*
X139996063Y-97459774D01*
X140140226Y-97603937D01*
X140309744Y-97717205D01*
X140498102Y-97795226D01*
X140698061Y-97835000D01*
X140901939Y-97835000D01*
X141101898Y-97795226D01*
X141290256Y-97717205D01*
X141459774Y-97603937D01*
X141603937Y-97459774D01*
X141717205Y-97290256D01*
X141795226Y-97101898D01*
X141835000Y-96901939D01*
X141835000Y-96698061D01*
X141795226Y-96498102D01*
X141717205Y-96309744D01*
X141603937Y-96140226D01*
X141560000Y-96096289D01*
X141560000Y-84312489D01*
X141572068Y-84373158D01*
X141684010Y-84643411D01*
X141846525Y-84886632D01*
X142053368Y-85093475D01*
X142296589Y-85255990D01*
X142566842Y-85367932D01*
X142853740Y-85425000D01*
X143146260Y-85425000D01*
X143433158Y-85367932D01*
X143703411Y-85255990D01*
X143946632Y-85093475D01*
X144153475Y-84886632D01*
X144315990Y-84643411D01*
X144427932Y-84373158D01*
X144485000Y-84086260D01*
X144485000Y-83793740D01*
X144427932Y-83506842D01*
X144315990Y-83236589D01*
X144153475Y-82993368D01*
X144021620Y-82861513D01*
X144094180Y-82839502D01*
X144204494Y-82780537D01*
X144301185Y-82701185D01*
X144380537Y-82604494D01*
X144383975Y-82598061D01*
X150765000Y-82598061D01*
X150765000Y-82801939D01*
X150804774Y-83001898D01*
X150882795Y-83190256D01*
X150996063Y-83359774D01*
X151140226Y-83503937D01*
X151309744Y-83617205D01*
X151498102Y-83695226D01*
X151698061Y-83735000D01*
X151901939Y-83735000D01*
X152101898Y-83695226D01*
X152290256Y-83617205D01*
X152459774Y-83503937D01*
X152514724Y-83448987D01*
X152657932Y-83405546D01*
X152789961Y-83334974D01*
X152905686Y-83240001D01*
X152929489Y-83210997D01*
X156911004Y-79229483D01*
X156940001Y-79205686D01*
X156966332Y-79173602D01*
X157034974Y-79089962D01*
X157105546Y-78957932D01*
X157105546Y-78957931D01*
X157149003Y-78814671D01*
X157160000Y-78703018D01*
X157160000Y-78703008D01*
X157163676Y-78665685D01*
X157160000Y-78628363D01*
X157160000Y-74003711D01*
X157203937Y-73959774D01*
X157317205Y-73790256D01*
X157371159Y-73660000D01*
X162565198Y-73660000D01*
X151960199Y-84265000D01*
X151898061Y-84265000D01*
X151698102Y-84304774D01*
X151509744Y-84382795D01*
X151340226Y-84496063D01*
X151196063Y-84640226D01*
X151082795Y-84809744D01*
X151004774Y-84998102D01*
X150965000Y-85198061D01*
X150965000Y-85401939D01*
X151004774Y-85601898D01*
X151082795Y-85790256D01*
X151196063Y-85959774D01*
X151340226Y-86103937D01*
X151509744Y-86217205D01*
X151698102Y-86295226D01*
X151898061Y-86335000D01*
X152101939Y-86335000D01*
X152301898Y-86295226D01*
X152490256Y-86217205D01*
X152659774Y-86103937D01*
X152803937Y-85959774D01*
X152917205Y-85790256D01*
X152995226Y-85601898D01*
X153035000Y-85401939D01*
X153035000Y-85339801D01*
X163618538Y-74756264D01*
X163709744Y-74817205D01*
X163898102Y-74895226D01*
X164098061Y-74935000D01*
X164301939Y-74935000D01*
X164501898Y-74895226D01*
X164690256Y-74817205D01*
X164859774Y-74703937D01*
X164903711Y-74660000D01*
X174596289Y-74660000D01*
X174640226Y-74703937D01*
X174809744Y-74817205D01*
X174998102Y-74895226D01*
X175198061Y-74935000D01*
X175401939Y-74935000D01*
X175601898Y-74895226D01*
X175790256Y-74817205D01*
X175959774Y-74703937D01*
X176103937Y-74559774D01*
X176217205Y-74390256D01*
X176295226Y-74201898D01*
X176335000Y-74001939D01*
X176335000Y-73798061D01*
X176295226Y-73598102D01*
X176217205Y-73409744D01*
X176103937Y-73240226D01*
X175959774Y-73096063D01*
X175790256Y-72982795D01*
X175601898Y-72904774D01*
X175401939Y-72865000D01*
X175198061Y-72865000D01*
X174998102Y-72904774D01*
X174809744Y-72982795D01*
X174640226Y-73096063D01*
X174596289Y-73140000D01*
X168807538Y-73140000D01*
X168835000Y-73001939D01*
X168835000Y-72798061D01*
X168795226Y-72598102D01*
X168717205Y-72409744D01*
X168603937Y-72240226D01*
X168459774Y-72096063D01*
X168290256Y-71982795D01*
X168101898Y-71904774D01*
X167901939Y-71865000D01*
X167698061Y-71865000D01*
X167498102Y-71904774D01*
X167309744Y-71982795D01*
X167140226Y-72096063D01*
X167096289Y-72140000D01*
X156837322Y-72140000D01*
X156799999Y-72136324D01*
X156762676Y-72140000D01*
X156762667Y-72140000D01*
X156651014Y-72150997D01*
X156507753Y-72194454D01*
X156375773Y-72265000D01*
X156298061Y-72265000D01*
X156098102Y-72304774D01*
X155909744Y-72382795D01*
X155740226Y-72496063D01*
X155596063Y-72640226D01*
X155482795Y-72809744D01*
X155404774Y-72998102D01*
X155365000Y-73198061D01*
X155365000Y-73401939D01*
X155404774Y-73601898D01*
X155482795Y-73790256D01*
X155596063Y-73959774D01*
X155640001Y-74003712D01*
X155640000Y-78350883D01*
X152232155Y-81758729D01*
X152101898Y-81704774D01*
X151901939Y-81665000D01*
X151698061Y-81665000D01*
X151498102Y-81704774D01*
X151309744Y-81782795D01*
X151140226Y-81896063D01*
X150996063Y-82040226D01*
X150882795Y-82209744D01*
X150804774Y-82398102D01*
X150765000Y-82598061D01*
X144383975Y-82598061D01*
X144439502Y-82494180D01*
X144475812Y-82374482D01*
X144488072Y-82250000D01*
X144488072Y-80550000D01*
X144475812Y-80425518D01*
X144439502Y-80305820D01*
X144380537Y-80195506D01*
X144301185Y-80098815D01*
X144204494Y-80019463D01*
X144094180Y-79960498D01*
X143974482Y-79924188D01*
X143850000Y-79911928D01*
X142150000Y-79911928D01*
X142025518Y-79924188D01*
X141905820Y-79960498D01*
X141795506Y-80019463D01*
X141698815Y-80098815D01*
X141619463Y-80195506D01*
X141560498Y-80305820D01*
X141560000Y-80307462D01*
X141560000Y-77503711D01*
X141603937Y-77459774D01*
X141717205Y-77290256D01*
X141795226Y-77101898D01*
X141835000Y-76901939D01*
X141835000Y-76698061D01*
X141795226Y-76498102D01*
X141717205Y-76309744D01*
X141603937Y-76140226D01*
X141459774Y-75996063D01*
X141290256Y-75882795D01*
X141101898Y-75804774D01*
X140901939Y-75765000D01*
X140839802Y-75765000D01*
X139560000Y-74485199D01*
X139560000Y-70503711D01*
X139603937Y-70459774D01*
X139717205Y-70290256D01*
X139795226Y-70101898D01*
X139835000Y-69901939D01*
X139835000Y-69698061D01*
X139815109Y-69598061D01*
X161465000Y-69598061D01*
X161465000Y-69801939D01*
X161504774Y-70001898D01*
X161582795Y-70190256D01*
X161696063Y-70359774D01*
X161840226Y-70503937D01*
X162009744Y-70617205D01*
X162198102Y-70695226D01*
X162398061Y-70735000D01*
X162601939Y-70735000D01*
X162801898Y-70695226D01*
X162990256Y-70617205D01*
X163159774Y-70503937D01*
X163303937Y-70359774D01*
X163417205Y-70190256D01*
X163495226Y-70001898D01*
X163535000Y-69801939D01*
X163535000Y-69739801D01*
X164311003Y-68963799D01*
X164340001Y-68940001D01*
X164434974Y-68824276D01*
X164505546Y-68692247D01*
X164549003Y-68548986D01*
X164560000Y-68437333D01*
X164560000Y-68437325D01*
X164563676Y-68400000D01*
X164560000Y-68362675D01*
X164560000Y-68350000D01*
X166611928Y-68350000D01*
X166611928Y-70050000D01*
X166624188Y-70174482D01*
X166660498Y-70294180D01*
X166719463Y-70404494D01*
X166798815Y-70501185D01*
X166895506Y-70580537D01*
X167005820Y-70639502D01*
X167125518Y-70675812D01*
X167250000Y-70688072D01*
X168950000Y-70688072D01*
X169074482Y-70675812D01*
X169194180Y-70639502D01*
X169304494Y-70580537D01*
X169401185Y-70501185D01*
X169480537Y-70404494D01*
X169539502Y-70294180D01*
X169575812Y-70174482D01*
X169588072Y-70050000D01*
X169588072Y-68350000D01*
X169575812Y-68225518D01*
X169539502Y-68105820D01*
X169480537Y-67995506D01*
X169401185Y-67898815D01*
X169304494Y-67819463D01*
X169194180Y-67760498D01*
X169113534Y-67736034D01*
X169197588Y-67660269D01*
X169371641Y-67426920D01*
X169496825Y-67164099D01*
X169541476Y-67016890D01*
X169420155Y-66787000D01*
X168227000Y-66787000D01*
X168227000Y-66807000D01*
X167973000Y-66807000D01*
X167973000Y-66787000D01*
X166779845Y-66787000D01*
X166658524Y-67016890D01*
X166703175Y-67164099D01*
X166828359Y-67426920D01*
X167002412Y-67660269D01*
X167086466Y-67736034D01*
X167005820Y-67760498D01*
X166895506Y-67819463D01*
X166798815Y-67898815D01*
X166719463Y-67995506D01*
X166660498Y-68105820D01*
X166624188Y-68225518D01*
X166611928Y-68350000D01*
X164560000Y-68350000D01*
X164560000Y-66903711D01*
X164603937Y-66859774D01*
X164717205Y-66690256D01*
X164795226Y-66501898D01*
X164834767Y-66303110D01*
X166658524Y-66303110D01*
X166779845Y-66533000D01*
X167973000Y-66533000D01*
X167973000Y-65339186D01*
X168227000Y-65339186D01*
X168227000Y-66533000D01*
X169420155Y-66533000D01*
X169541476Y-66303110D01*
X169496825Y-66155901D01*
X169371641Y-65893080D01*
X169197588Y-65659731D01*
X168981355Y-65464822D01*
X168731252Y-65315843D01*
X168456891Y-65218519D01*
X168227000Y-65339186D01*
X167973000Y-65339186D01*
X167743109Y-65218519D01*
X167468748Y-65315843D01*
X167218645Y-65464822D01*
X167002412Y-65659731D01*
X166828359Y-65893080D01*
X166703175Y-66155901D01*
X166658524Y-66303110D01*
X164834767Y-66303110D01*
X164835000Y-66301939D01*
X164835000Y-66098061D01*
X164795226Y-65898102D01*
X164717205Y-65709744D01*
X164603937Y-65540226D01*
X164459774Y-65396063D01*
X164290256Y-65282795D01*
X164101898Y-65204774D01*
X163901939Y-65165000D01*
X163698061Y-65165000D01*
X163498102Y-65204774D01*
X163309744Y-65282795D01*
X163140226Y-65396063D01*
X162996063Y-65540226D01*
X162882795Y-65709744D01*
X162804774Y-65898102D01*
X162765000Y-66098061D01*
X162765000Y-66301939D01*
X162804774Y-66501898D01*
X162882795Y-66690256D01*
X162996063Y-66859774D01*
X163040000Y-66903711D01*
X163040001Y-68085197D01*
X162460199Y-68665000D01*
X162398061Y-68665000D01*
X162198102Y-68704774D01*
X162009744Y-68782795D01*
X161840226Y-68896063D01*
X161696063Y-69040226D01*
X161582795Y-69209744D01*
X161504774Y-69398102D01*
X161465000Y-69598061D01*
X139815109Y-69598061D01*
X139795226Y-69498102D01*
X139717205Y-69309744D01*
X139603937Y-69140226D01*
X139560000Y-69096289D01*
X139560000Y-66314801D01*
X145124801Y-60750000D01*
X146611928Y-60750000D01*
X146611928Y-62450000D01*
X146624188Y-62574482D01*
X146660498Y-62694180D01*
X146719463Y-62804494D01*
X146798815Y-62901185D01*
X146895506Y-62980537D01*
X147005820Y-63039502D01*
X147125518Y-63075812D01*
X147250000Y-63088072D01*
X148950000Y-63088072D01*
X149074482Y-63075812D01*
X149194180Y-63039502D01*
X149304494Y-62980537D01*
X149401185Y-62901185D01*
X149480537Y-62804494D01*
X149539502Y-62694180D01*
X149563966Y-62613534D01*
X149639731Y-62697588D01*
X149873080Y-62871641D01*
X150135901Y-62996825D01*
X150283110Y-63041476D01*
X150513000Y-62920155D01*
X150513000Y-61727000D01*
X150767000Y-61727000D01*
X150767000Y-62920155D01*
X150996890Y-63041476D01*
X151144099Y-62996825D01*
X151406920Y-62871641D01*
X151640269Y-62697588D01*
X151835178Y-62481355D01*
X151984157Y-62231252D01*
X152081481Y-61956891D01*
X151960814Y-61727000D01*
X150767000Y-61727000D01*
X150513000Y-61727000D01*
X150493000Y-61727000D01*
X150493000Y-61473000D01*
X150513000Y-61473000D01*
X150513000Y-60279845D01*
X150767000Y-60279845D01*
X150767000Y-61473000D01*
X151960814Y-61473000D01*
X152081481Y-61243109D01*
X151984157Y-60968748D01*
X151835178Y-60718645D01*
X151640269Y-60502412D01*
X151406920Y-60328359D01*
X151144099Y-60203175D01*
X150996890Y-60158524D01*
X150767000Y-60279845D01*
X150513000Y-60279845D01*
X150283110Y-60158524D01*
X150135901Y-60203175D01*
X149873080Y-60328359D01*
X149639731Y-60502412D01*
X149563966Y-60586466D01*
X149539502Y-60505820D01*
X149480537Y-60395506D01*
X149401185Y-60298815D01*
X149304494Y-60219463D01*
X149194180Y-60160498D01*
X149074482Y-60124188D01*
X148950000Y-60111928D01*
X147250000Y-60111928D01*
X147125518Y-60124188D01*
X147005820Y-60160498D01*
X146895506Y-60219463D01*
X146798815Y-60298815D01*
X146719463Y-60395506D01*
X146660498Y-60505820D01*
X146624188Y-60625518D01*
X146611928Y-60750000D01*
X145124801Y-60750000D01*
X151314803Y-54560000D01*
X172885199Y-54560000D01*
X190340000Y-72014802D01*
X190340001Y-81296288D01*
X190296063Y-81340226D01*
X190182795Y-81509744D01*
X190104774Y-81698102D01*
X190065000Y-81898061D01*
X190065000Y-82101939D01*
X190104774Y-82301898D01*
X190182795Y-82490256D01*
X190296063Y-82659774D01*
X190440226Y-82803937D01*
X190609744Y-82917205D01*
X190798102Y-82995226D01*
X190998061Y-83035000D01*
X191201939Y-83035000D01*
X191401898Y-82995226D01*
X191590256Y-82917205D01*
X191759774Y-82803937D01*
X191803711Y-82760000D01*
X193285199Y-82760000D01*
X195215000Y-84689802D01*
X195215000Y-92540199D01*
X194669256Y-91994455D01*
X194703937Y-91959774D01*
X194817205Y-91790256D01*
X194895226Y-91601898D01*
X194935000Y-91401939D01*
X194935000Y-91198061D01*
X194895226Y-90998102D01*
X194817205Y-90809744D01*
X194703937Y-90640226D01*
X194559774Y-90496063D01*
X194390256Y-90382795D01*
X194201898Y-90304774D01*
X194001939Y-90265000D01*
X193798061Y-90265000D01*
X193598102Y-90304774D01*
X193409744Y-90382795D01*
X193240226Y-90496063D01*
X193096289Y-90640000D01*
X193037322Y-90640000D01*
X193000000Y-90636324D01*
X192962678Y-90640000D01*
X184860000Y-90640000D01*
X184860000Y-86160000D01*
X185896289Y-86160000D01*
X185940226Y-86203937D01*
X186109744Y-86317205D01*
X186298102Y-86395226D01*
X186498061Y-86435000D01*
X186701939Y-86435000D01*
X186901898Y-86395226D01*
X187090256Y-86317205D01*
X187259774Y-86203937D01*
X187403937Y-86059774D01*
X187517205Y-85890256D01*
X187595226Y-85701898D01*
X187635000Y-85501939D01*
X187635000Y-85298061D01*
X187595226Y-85098102D01*
X187517205Y-84909744D01*
X187403937Y-84740226D01*
X187259774Y-84596063D01*
X187090256Y-84482795D01*
X186901898Y-84404774D01*
X186701939Y-84365000D01*
X186498061Y-84365000D01*
X186298102Y-84404774D01*
X186109744Y-84482795D01*
X185940226Y-84596063D01*
X185896289Y-84640000D01*
X184960000Y-84640000D01*
X184960000Y-73254161D01*
X184963676Y-73216838D01*
X184960000Y-73179515D01*
X184960000Y-73179506D01*
X184949003Y-73067853D01*
X184905546Y-72924592D01*
X184834974Y-72792563D01*
X184740001Y-72676838D01*
X184711004Y-72653041D01*
X171086965Y-59029003D01*
X171063162Y-58999999D01*
X170947437Y-58905026D01*
X170815408Y-58834454D01*
X170672147Y-58790997D01*
X170560494Y-58780000D01*
X170560483Y-58780000D01*
X170523161Y-58776324D01*
X170485839Y-58780000D01*
X159778178Y-58780000D01*
X159653475Y-58593368D01*
X159521620Y-58461513D01*
X159594180Y-58439502D01*
X159704494Y-58380537D01*
X159801185Y-58301185D01*
X159880537Y-58204494D01*
X159939502Y-58094180D01*
X159975812Y-57974482D01*
X159988072Y-57850000D01*
X159988072Y-56150000D01*
X159975812Y-56025518D01*
X159939502Y-55905820D01*
X159880537Y-55795506D01*
X159801185Y-55698815D01*
X159704494Y-55619463D01*
X159594180Y-55560498D01*
X159474482Y-55524188D01*
X159350000Y-55511928D01*
X157650000Y-55511928D01*
X157525518Y-55524188D01*
X157405820Y-55560498D01*
X157295506Y-55619463D01*
X157198815Y-55698815D01*
X157119463Y-55795506D01*
X157060498Y-55905820D01*
X157024188Y-56025518D01*
X157011928Y-56150000D01*
X157011928Y-57850000D01*
X157024188Y-57974482D01*
X157060498Y-58094180D01*
X157119463Y-58204494D01*
X157198815Y-58301185D01*
X157295506Y-58380537D01*
X157405820Y-58439502D01*
X157478380Y-58461513D01*
X157346525Y-58593368D01*
X157184010Y-58836589D01*
X157072068Y-59106842D01*
X157015000Y-59393740D01*
X157015000Y-59686260D01*
X157072068Y-59973158D01*
X157184010Y-60243411D01*
X157346525Y-60486632D01*
X157553368Y-60693475D01*
X157727760Y-60810000D01*
X157553368Y-60926525D01*
X157346525Y-61133368D01*
X157184010Y-61376589D01*
X157072068Y-61646842D01*
X157015000Y-61933740D01*
X157015000Y-62226260D01*
X157072068Y-62513158D01*
X157184010Y-62783411D01*
X157346525Y-63026632D01*
X157553368Y-63233475D01*
X157796589Y-63395990D01*
X158066842Y-63507932D01*
X158353740Y-63565000D01*
X158646260Y-63565000D01*
X158933158Y-63507932D01*
X159203411Y-63395990D01*
X159446632Y-63233475D01*
X159653475Y-63026632D01*
X159815990Y-62783411D01*
X159927932Y-62513158D01*
X159985000Y-62226260D01*
X159985000Y-61933740D01*
X159927932Y-61646842D01*
X159815990Y-61376589D01*
X159653475Y-61133368D01*
X159446632Y-60926525D01*
X159272240Y-60810000D01*
X159446632Y-60693475D01*
X159653475Y-60486632D01*
X159778178Y-60300000D01*
X170208360Y-60300000D01*
X175932985Y-66024625D01*
X175735054Y-66107610D01*
X175533275Y-66243693D01*
X175361922Y-66416526D01*
X175227579Y-66619467D01*
X175135409Y-66844718D01*
X175131538Y-66882391D01*
X175256269Y-67073000D01*
X176473000Y-67073000D01*
X176473000Y-67053000D01*
X176727000Y-67053000D01*
X176727000Y-67073000D01*
X176747000Y-67073000D01*
X176747000Y-67327000D01*
X176727000Y-67327000D01*
X176727000Y-67347000D01*
X176473000Y-67347000D01*
X176473000Y-67327000D01*
X175256269Y-67327000D01*
X175131538Y-67517609D01*
X175135409Y-67555282D01*
X175227579Y-67780533D01*
X175361922Y-67983474D01*
X175486406Y-68109033D01*
X175481613Y-68111595D01*
X175347038Y-68222038D01*
X175236595Y-68356613D01*
X175154528Y-68510149D01*
X175103992Y-68676745D01*
X175086928Y-68849999D01*
X175086928Y-69550001D01*
X175103992Y-69723255D01*
X175154528Y-69889851D01*
X175236595Y-70043387D01*
X175347038Y-70177962D01*
X175481613Y-70288405D01*
X175635149Y-70370472D01*
X175801745Y-70421008D01*
X175974999Y-70438072D01*
X177225001Y-70438072D01*
X177398255Y-70421008D01*
X177564851Y-70370472D01*
X177718387Y-70288405D01*
X177852962Y-70177962D01*
X177963405Y-70043387D01*
X178045472Y-69889851D01*
X178096008Y-69723255D01*
X178113072Y-69550001D01*
X178113072Y-68849999D01*
X178096008Y-68676745D01*
X178045472Y-68510149D01*
X177963405Y-68356613D01*
X177852962Y-68222038D01*
X177718387Y-68111595D01*
X177713594Y-68109033D01*
X177838078Y-67983474D01*
X177859489Y-67951130D01*
X183440000Y-73531641D01*
X183440001Y-77562658D01*
X183440000Y-77562668D01*
X183440001Y-84022544D01*
X183394455Y-84107753D01*
X183350998Y-84251014D01*
X183340001Y-84362667D01*
X183340000Y-85362666D01*
X183336323Y-85400000D01*
X183340001Y-85437343D01*
X183340000Y-91362667D01*
X183337539Y-91387659D01*
X179200000Y-95525198D01*
X177063804Y-93389003D01*
X177040001Y-93359999D01*
X176924276Y-93265026D01*
X176792247Y-93194454D01*
X176648986Y-93150997D01*
X176537333Y-93140000D01*
X176537322Y-93140000D01*
X176500000Y-93136324D01*
X176462678Y-93140000D01*
X173883408Y-93140000D01*
X173940269Y-93097588D01*
X174135178Y-92881355D01*
X174284157Y-92631252D01*
X174381481Y-92356891D01*
X174260814Y-92127000D01*
X173067000Y-92127000D01*
X173067000Y-92147000D01*
X172813000Y-92147000D01*
X172813000Y-92127000D01*
X172793000Y-92127000D01*
X172793000Y-91873000D01*
X172813000Y-91873000D01*
X172813000Y-90679845D01*
X173067000Y-90679845D01*
X173067000Y-91873000D01*
X174260814Y-91873000D01*
X174381481Y-91643109D01*
X174284157Y-91368748D01*
X174135178Y-91118645D01*
X173940269Y-90902412D01*
X173706920Y-90728359D01*
X173444099Y-90603175D01*
X173296890Y-90558524D01*
X173067000Y-90679845D01*
X172813000Y-90679845D01*
X172583110Y-90558524D01*
X172435901Y-90603175D01*
X172173080Y-90728359D01*
X171939731Y-90902412D01*
X171863966Y-90986466D01*
X171839502Y-90905820D01*
X171780537Y-90795506D01*
X171701185Y-90698815D01*
X171604494Y-90619463D01*
X171494180Y-90560498D01*
X171374482Y-90524188D01*
X171250000Y-90511928D01*
X171160000Y-90511928D01*
X171160000Y-89403711D01*
X171203937Y-89359774D01*
X171317205Y-89190256D01*
X171395226Y-89001898D01*
X171435000Y-88801939D01*
X171435000Y-88598061D01*
X171395226Y-88398102D01*
X171317205Y-88209744D01*
X171203937Y-88040226D01*
X171059774Y-87896063D01*
X170890256Y-87782795D01*
X170701898Y-87704774D01*
X170501939Y-87665000D01*
X170298061Y-87665000D01*
X170098102Y-87704774D01*
X169909744Y-87782795D01*
X169740226Y-87896063D01*
X169696289Y-87940000D01*
X164717150Y-87940000D01*
X164817205Y-87790256D01*
X164895226Y-87601898D01*
X164935000Y-87401939D01*
X164935000Y-87198061D01*
X164895226Y-86998102D01*
X164817205Y-86809744D01*
X164703937Y-86640226D01*
X164559774Y-86496063D01*
X164390256Y-86382795D01*
X164201898Y-86304774D01*
X164001939Y-86265000D01*
X163798061Y-86265000D01*
X163598102Y-86304774D01*
X163409744Y-86382795D01*
X163240226Y-86496063D01*
X163096063Y-86640226D01*
X162982795Y-86809744D01*
X162904774Y-86998102D01*
X162865000Y-87198061D01*
X162865000Y-87260198D01*
X161989002Y-88136197D01*
X161984368Y-88140000D01*
X158703711Y-88140000D01*
X158659774Y-88096063D01*
X158490256Y-87982795D01*
X158301898Y-87904774D01*
X158101939Y-87865000D01*
X157898061Y-87865000D01*
X157698102Y-87904774D01*
X157509744Y-87982795D01*
X157340226Y-88096063D01*
X157196063Y-88240226D01*
X157082795Y-88409744D01*
X157004774Y-88598102D01*
X156965000Y-88798061D01*
X156965000Y-89001939D01*
X157004774Y-89201898D01*
X157082795Y-89390256D01*
X157196063Y-89559774D01*
X157340226Y-89703937D01*
X157509744Y-89817205D01*
X157698102Y-89895226D01*
X157898061Y-89935000D01*
X158101939Y-89935000D01*
X158301898Y-89895226D01*
X158490256Y-89817205D01*
X158659774Y-89703937D01*
X158703711Y-89660000D01*
X162262678Y-89660000D01*
X162300000Y-89663676D01*
X162337322Y-89660000D01*
X162337333Y-89660000D01*
X162448986Y-89649003D01*
X162592247Y-89605546D01*
X162724276Y-89534974D01*
X162815632Y-89460000D01*
X169640000Y-89460000D01*
X169640001Y-90511928D01*
X169550000Y-90511928D01*
X169425518Y-90524188D01*
X169305820Y-90560498D01*
X169195506Y-90619463D01*
X169098815Y-90698815D01*
X169019463Y-90795506D01*
X168960498Y-90905820D01*
X168924188Y-91025518D01*
X168911928Y-91150000D01*
X168911928Y-92850000D01*
X168924188Y-92974482D01*
X168960498Y-93094180D01*
X168984990Y-93140000D01*
X158903711Y-93140000D01*
X158859774Y-93096063D01*
X158690256Y-92982795D01*
X158501898Y-92904774D01*
X158301939Y-92865000D01*
X158098061Y-92865000D01*
X157898102Y-92904774D01*
X157709744Y-92982795D01*
X157540226Y-93096063D01*
X157396063Y-93240226D01*
X157282795Y-93409744D01*
X157204774Y-93598102D01*
X157165000Y-93798061D01*
X157165000Y-94001939D01*
X157204774Y-94201898D01*
X157282795Y-94390256D01*
X157396063Y-94559774D01*
X157540226Y-94703937D01*
X157709744Y-94817205D01*
X157898102Y-94895226D01*
X158098061Y-94935000D01*
X158301939Y-94935000D01*
X158501898Y-94895226D01*
X158690256Y-94817205D01*
X158859774Y-94703937D01*
X158903711Y-94660000D01*
X176185199Y-94660000D01*
X178440000Y-96914802D01*
X178440002Y-101737334D01*
X178450999Y-101848987D01*
X178494456Y-101992248D01*
X178565028Y-102124277D01*
X178660001Y-102240002D01*
X178775726Y-102334975D01*
X178907755Y-102405547D01*
X179051016Y-102449004D01*
X179200001Y-102463677D01*
X179348987Y-102449003D01*
X179492248Y-102405546D01*
X179624277Y-102334974D01*
X179740002Y-102240001D01*
X179834975Y-102124276D01*
X179905547Y-101992247D01*
X179949004Y-101848986D01*
X179960001Y-101737333D01*
X179959999Y-96914802D01*
X184611009Y-92263794D01*
X184640001Y-92240001D01*
X184663795Y-92211008D01*
X184663799Y-92211004D01*
X184705656Y-92160000D01*
X192685199Y-92160000D01*
X194140000Y-93614802D01*
X194140000Y-95682597D01*
X193873158Y-95572068D01*
X193586260Y-95515000D01*
X193293740Y-95515000D01*
X193006842Y-95572068D01*
X192736589Y-95684010D01*
X192493368Y-95846525D01*
X192361513Y-95978380D01*
X192339502Y-95905820D01*
X192280537Y-95795506D01*
X192201185Y-95698815D01*
X192104494Y-95619463D01*
X191994180Y-95560498D01*
X191874482Y-95524188D01*
X191750000Y-95511928D01*
X190050000Y-95511928D01*
X189925518Y-95524188D01*
X189805820Y-95560498D01*
X189695506Y-95619463D01*
X189598815Y-95698815D01*
X189519463Y-95795506D01*
X189460498Y-95905820D01*
X189424188Y-96025518D01*
X189411928Y-96150000D01*
X189411928Y-97850000D01*
X189424188Y-97974482D01*
X189460498Y-98094180D01*
X189519463Y-98204494D01*
X189598815Y-98301185D01*
X189695506Y-98380537D01*
X189805820Y-98439502D01*
X189925518Y-98475812D01*
X190050000Y-98488072D01*
X191750000Y-98488072D01*
X191874482Y-98475812D01*
X191994180Y-98439502D01*
X192104494Y-98380537D01*
X192201185Y-98301185D01*
X192280537Y-98204494D01*
X192339502Y-98094180D01*
X192361513Y-98021620D01*
X192493368Y-98153475D01*
X192736589Y-98315990D01*
X193006842Y-98427932D01*
X193293740Y-98485000D01*
X193586260Y-98485000D01*
X193873158Y-98427932D01*
X194140001Y-98317403D01*
X194140001Y-100796288D01*
X194096063Y-100840226D01*
X193982795Y-101009744D01*
X193904774Y-101198102D01*
X193865000Y-101398061D01*
X193865000Y-101460197D01*
X189685199Y-105640000D01*
X187303711Y-105640000D01*
X187259774Y-105596063D01*
X187090256Y-105482795D01*
X186901898Y-105404774D01*
X186701939Y-105365000D01*
X186639801Y-105365000D01*
X186563803Y-105289002D01*
X186540001Y-105259999D01*
X186424276Y-105165026D01*
X186292247Y-105094454D01*
X186148986Y-105050997D01*
X186037333Y-105040000D01*
X186037322Y-105040000D01*
X186000000Y-105036324D01*
X185962678Y-105040000D01*
X181803711Y-105040000D01*
X181759774Y-104996063D01*
X181590256Y-104882795D01*
X181401898Y-104804774D01*
X181201939Y-104765000D01*
X180998061Y-104765000D01*
X180798102Y-104804774D01*
X180609744Y-104882795D01*
X180440226Y-104996063D01*
X180296063Y-105140226D01*
X180182795Y-105309744D01*
X180104774Y-105498102D01*
X180065000Y-105698061D01*
X180065000Y-105901939D01*
X180104774Y-106101898D01*
X180182795Y-106290256D01*
X180296063Y-106459774D01*
X180440226Y-106603937D01*
X180609744Y-106717205D01*
X180798102Y-106795226D01*
X180998061Y-106835000D01*
X181201939Y-106835000D01*
X181401898Y-106795226D01*
X181590256Y-106717205D01*
X181759774Y-106603937D01*
X181803711Y-106560000D01*
X185365198Y-106560000D01*
X176285199Y-115640000D01*
X156203711Y-115640000D01*
X156159774Y-115596063D01*
X155990256Y-115482795D01*
X155801898Y-115404774D01*
X155601939Y-115365000D01*
X155398061Y-115365000D01*
X155198102Y-115404774D01*
X155009744Y-115482795D01*
X154840226Y-115596063D01*
X154696063Y-115740226D01*
X154582795Y-115909744D01*
X154504774Y-116098102D01*
X154465000Y-116298061D01*
X154465000Y-116501939D01*
X154504774Y-116701898D01*
X154582795Y-116890256D01*
X154696063Y-117059774D01*
X154840226Y-117203937D01*
X155009744Y-117317205D01*
X155198102Y-117395226D01*
X155398061Y-117435000D01*
X155601939Y-117435000D01*
X155801898Y-117395226D01*
X155990256Y-117317205D01*
X156159774Y-117203937D01*
X156203711Y-117160000D01*
X176562678Y-117160000D01*
X176600000Y-117163676D01*
X176637322Y-117160000D01*
X176637333Y-117160000D01*
X176748986Y-117149003D01*
X176892247Y-117105546D01*
X177024276Y-117034974D01*
X177140001Y-116940001D01*
X177163804Y-116910997D01*
X179037911Y-115036890D01*
X205958524Y-115036890D01*
X206003175Y-115184099D01*
X206128359Y-115446920D01*
X206302412Y-115680269D01*
X206518645Y-115875178D01*
X206768748Y-116024157D01*
X207043109Y-116121481D01*
X207273000Y-116000814D01*
X207273000Y-114807000D01*
X207527000Y-114807000D01*
X207527000Y-116000814D01*
X207756891Y-116121481D01*
X208031252Y-116024157D01*
X208281355Y-115875178D01*
X208497588Y-115680269D01*
X208671641Y-115446920D01*
X208796825Y-115184099D01*
X208841476Y-115036890D01*
X208720155Y-114807000D01*
X207527000Y-114807000D01*
X207273000Y-114807000D01*
X206079845Y-114807000D01*
X205958524Y-115036890D01*
X179037911Y-115036890D01*
X185324801Y-108750000D01*
X205911928Y-108750000D01*
X205911928Y-110450000D01*
X205924188Y-110574482D01*
X205960498Y-110694180D01*
X206019463Y-110804494D01*
X206098815Y-110901185D01*
X206195506Y-110980537D01*
X206305820Y-111039502D01*
X206378380Y-111061513D01*
X206246525Y-111193368D01*
X206084010Y-111436589D01*
X205972068Y-111706842D01*
X205915000Y-111993740D01*
X205915000Y-112286260D01*
X205972068Y-112573158D01*
X206084010Y-112843411D01*
X206246525Y-113086632D01*
X206453368Y-113293475D01*
X206635534Y-113415195D01*
X206518645Y-113484822D01*
X206302412Y-113679731D01*
X206128359Y-113913080D01*
X206003175Y-114175901D01*
X205958524Y-114323110D01*
X206079845Y-114553000D01*
X207273000Y-114553000D01*
X207273000Y-114533000D01*
X207527000Y-114533000D01*
X207527000Y-114553000D01*
X208720155Y-114553000D01*
X208841476Y-114323110D01*
X208796825Y-114175901D01*
X208671641Y-113913080D01*
X208497588Y-113679731D01*
X208281355Y-113484822D01*
X208164466Y-113415195D01*
X208346632Y-113293475D01*
X208553475Y-113086632D01*
X208715990Y-112843411D01*
X208827932Y-112573158D01*
X208885000Y-112286260D01*
X208885000Y-111993740D01*
X208827932Y-111706842D01*
X208715990Y-111436589D01*
X208553475Y-111193368D01*
X208421620Y-111061513D01*
X208494180Y-111039502D01*
X208604494Y-110980537D01*
X208701185Y-110901185D01*
X208780537Y-110804494D01*
X208839502Y-110694180D01*
X208875812Y-110574482D01*
X208888072Y-110450000D01*
X208888072Y-108750000D01*
X208875812Y-108625518D01*
X208839502Y-108505820D01*
X208780537Y-108395506D01*
X208701185Y-108298815D01*
X208604494Y-108219463D01*
X208494180Y-108160498D01*
X208374482Y-108124188D01*
X208250000Y-108111928D01*
X206550000Y-108111928D01*
X206425518Y-108124188D01*
X206305820Y-108160498D01*
X206195506Y-108219463D01*
X206098815Y-108298815D01*
X206019463Y-108395506D01*
X205960498Y-108505820D01*
X205924188Y-108625518D01*
X205911928Y-108750000D01*
X185324801Y-108750000D01*
X186639802Y-107435000D01*
X186701939Y-107435000D01*
X186901898Y-107395226D01*
X187090256Y-107317205D01*
X187259774Y-107203937D01*
X187303711Y-107160000D01*
X189962678Y-107160000D01*
X190000000Y-107163676D01*
X190037322Y-107160000D01*
X190037333Y-107160000D01*
X190148986Y-107149003D01*
X190292247Y-107105546D01*
X190424276Y-107034974D01*
X190540001Y-106940001D01*
X190563804Y-106910997D01*
X194939803Y-102535000D01*
X194960500Y-102535000D01*
X194979774Y-102631898D01*
X195057795Y-102820256D01*
X195171063Y-102989774D01*
X195315226Y-103133937D01*
X195484744Y-103247205D01*
X195673102Y-103325226D01*
X195873061Y-103365000D01*
X196076939Y-103365000D01*
X196276898Y-103325226D01*
X196465256Y-103247205D01*
X196634774Y-103133937D01*
X196778937Y-102989774D01*
X196892205Y-102820256D01*
X196970226Y-102631898D01*
X197010000Y-102431939D01*
X197010000Y-102228061D01*
X196970226Y-102028102D01*
X196892205Y-101839744D01*
X196778937Y-101670226D01*
X196735000Y-101626289D01*
X196735000Y-92302565D01*
X196898061Y-92335000D01*
X197101939Y-92335000D01*
X197301898Y-92295226D01*
X197490256Y-92217205D01*
X197659774Y-92103937D01*
X197703711Y-92060000D01*
X201640000Y-92060000D01*
X201640001Y-99817668D01*
X201636324Y-99855000D01*
X201650998Y-100003985D01*
X201694454Y-100147246D01*
X201765026Y-100279276D01*
X201836201Y-100366002D01*
X201860000Y-100395001D01*
X201888998Y-100418799D01*
X206340000Y-104869803D01*
X206340000Y-104931939D01*
X206379774Y-105131898D01*
X206457795Y-105320256D01*
X206571063Y-105489774D01*
X206715226Y-105633937D01*
X206884744Y-105747205D01*
X207073102Y-105825226D01*
X207273061Y-105865000D01*
X207476939Y-105865000D01*
X207676898Y-105825226D01*
X207865256Y-105747205D01*
X208034774Y-105633937D01*
X208178937Y-105489774D01*
X208292205Y-105320256D01*
X208370226Y-105131898D01*
X208410000Y-104931939D01*
X208410000Y-104728061D01*
X208370226Y-104528102D01*
X208292205Y-104339744D01*
X208178937Y-104170226D01*
X208034774Y-104026063D01*
X207865256Y-103912795D01*
X207676898Y-103834774D01*
X207476939Y-103795000D01*
X207414803Y-103795000D01*
X203160000Y-99540199D01*
X203160000Y-91836890D01*
X205258524Y-91836890D01*
X205303175Y-91984099D01*
X205428359Y-92246920D01*
X205602412Y-92480269D01*
X205818645Y-92675178D01*
X206068748Y-92824157D01*
X206343109Y-92921481D01*
X206573000Y-92800814D01*
X206573000Y-91607000D01*
X206827000Y-91607000D01*
X206827000Y-92800814D01*
X207056891Y-92921481D01*
X207331252Y-92824157D01*
X207581355Y-92675178D01*
X207797588Y-92480269D01*
X207971641Y-92246920D01*
X208096825Y-91984099D01*
X208141476Y-91836890D01*
X208020155Y-91607000D01*
X206827000Y-91607000D01*
X206573000Y-91607000D01*
X205379845Y-91607000D01*
X205258524Y-91836890D01*
X203160000Y-91836890D01*
X203160000Y-91337333D01*
X203163677Y-91300000D01*
X203160000Y-91262667D01*
X203160000Y-85550000D01*
X205211928Y-85550000D01*
X205211928Y-87250000D01*
X205224188Y-87374482D01*
X205260498Y-87494180D01*
X205319463Y-87604494D01*
X205398815Y-87701185D01*
X205495506Y-87780537D01*
X205605820Y-87839502D01*
X205678380Y-87861513D01*
X205546525Y-87993368D01*
X205384010Y-88236589D01*
X205272068Y-88506842D01*
X205215000Y-88793740D01*
X205215000Y-89086260D01*
X205272068Y-89373158D01*
X205384010Y-89643411D01*
X205546525Y-89886632D01*
X205753368Y-90093475D01*
X205935534Y-90215195D01*
X205818645Y-90284822D01*
X205602412Y-90479731D01*
X205428359Y-90713080D01*
X205303175Y-90975901D01*
X205258524Y-91123110D01*
X205379845Y-91353000D01*
X206573000Y-91353000D01*
X206573000Y-91333000D01*
X206827000Y-91333000D01*
X206827000Y-91353000D01*
X208020155Y-91353000D01*
X208141476Y-91123110D01*
X208096825Y-90975901D01*
X207971641Y-90713080D01*
X207797588Y-90479731D01*
X207581355Y-90284822D01*
X207464466Y-90215195D01*
X207646632Y-90093475D01*
X207853475Y-89886632D01*
X208015990Y-89643411D01*
X208127932Y-89373158D01*
X208185000Y-89086260D01*
X208185000Y-88793740D01*
X208127932Y-88506842D01*
X208015990Y-88236589D01*
X207853475Y-87993368D01*
X207721620Y-87861513D01*
X207794180Y-87839502D01*
X207904494Y-87780537D01*
X208001185Y-87701185D01*
X208080537Y-87604494D01*
X208139502Y-87494180D01*
X208175812Y-87374482D01*
X208188072Y-87250000D01*
X208188072Y-85550000D01*
X208175812Y-85425518D01*
X208139502Y-85305820D01*
X208080537Y-85195506D01*
X208001185Y-85098815D01*
X207904494Y-85019463D01*
X207794180Y-84960498D01*
X207674482Y-84924188D01*
X207550000Y-84911928D01*
X205850000Y-84911928D01*
X205725518Y-84924188D01*
X205605820Y-84960498D01*
X205495506Y-85019463D01*
X205398815Y-85098815D01*
X205319463Y-85195506D01*
X205260498Y-85305820D01*
X205224188Y-85425518D01*
X205211928Y-85550000D01*
X203160000Y-85550000D01*
X203160000Y-85443141D01*
X203205546Y-85357932D01*
X203248987Y-85214724D01*
X203303937Y-85159774D01*
X203417205Y-84990256D01*
X203495226Y-84801898D01*
X203535000Y-84601939D01*
X203535000Y-84398061D01*
X203495226Y-84198102D01*
X203417205Y-84009744D01*
X203303937Y-83840226D01*
X203159774Y-83696063D01*
X202990256Y-83582795D01*
X202801898Y-83504774D01*
X202601939Y-83465000D01*
X202398061Y-83465000D01*
X202198102Y-83504774D01*
X202009744Y-83582795D01*
X201840226Y-83696063D01*
X201696063Y-83840226D01*
X201582795Y-84009744D01*
X201504774Y-84198102D01*
X201465000Y-84398061D01*
X201465000Y-84601939D01*
X201504774Y-84801898D01*
X201582795Y-84990256D01*
X201644505Y-85082612D01*
X201640000Y-85128353D01*
X201640000Y-85128363D01*
X201636324Y-85165685D01*
X201640000Y-85203008D01*
X201640001Y-90540000D01*
X197703711Y-90540000D01*
X197659774Y-90496063D01*
X197490256Y-90382795D01*
X197301898Y-90304774D01*
X197101939Y-90265000D01*
X196898061Y-90265000D01*
X196735000Y-90297435D01*
X196735000Y-84412322D01*
X196738676Y-84374999D01*
X196735000Y-84337676D01*
X196735000Y-84337667D01*
X196724003Y-84226014D01*
X196680546Y-84082753D01*
X196609974Y-83950724D01*
X196515001Y-83834999D01*
X196486004Y-83811202D01*
X194163804Y-81489003D01*
X194140001Y-81459999D01*
X194024276Y-81365026D01*
X193892247Y-81294454D01*
X193748986Y-81250997D01*
X193637333Y-81240000D01*
X193637322Y-81240000D01*
X193600000Y-81236324D01*
X193562678Y-81240000D01*
X191860000Y-81240000D01*
X191860000Y-71737325D01*
X191863676Y-71700000D01*
X191860000Y-71662675D01*
X191860000Y-71662667D01*
X191849003Y-71551014D01*
X191805546Y-71407753D01*
X191734974Y-71275724D01*
X191640001Y-71159999D01*
X191611004Y-71136202D01*
X185431693Y-64956891D01*
X202318519Y-64956891D01*
X202415843Y-65231252D01*
X202564822Y-65481355D01*
X202759731Y-65697588D01*
X202993080Y-65871641D01*
X203255901Y-65996825D01*
X203403110Y-66041476D01*
X203633000Y-65920155D01*
X203633000Y-64727000D01*
X202439186Y-64727000D01*
X202318519Y-64956891D01*
X185431693Y-64956891D01*
X184717911Y-64243109D01*
X202318519Y-64243109D01*
X202439186Y-64473000D01*
X203633000Y-64473000D01*
X203633000Y-63279845D01*
X203887000Y-63279845D01*
X203887000Y-64473000D01*
X203907000Y-64473000D01*
X203907000Y-64727000D01*
X203887000Y-64727000D01*
X203887000Y-65920155D01*
X204116890Y-66041476D01*
X204264099Y-65996825D01*
X204526920Y-65871641D01*
X204760269Y-65697588D01*
X204836034Y-65613534D01*
X204860498Y-65694180D01*
X204919463Y-65804494D01*
X204998815Y-65901185D01*
X205095506Y-65980537D01*
X205205820Y-66039502D01*
X205325518Y-66075812D01*
X205450000Y-66088072D01*
X207150000Y-66088072D01*
X207274482Y-66075812D01*
X207394180Y-66039502D01*
X207504494Y-65980537D01*
X207601185Y-65901185D01*
X207680537Y-65804494D01*
X207739502Y-65694180D01*
X207775812Y-65574482D01*
X207788072Y-65450000D01*
X207788072Y-63750000D01*
X207775812Y-63625518D01*
X207739502Y-63505820D01*
X207680537Y-63395506D01*
X207601185Y-63298815D01*
X207504494Y-63219463D01*
X207394180Y-63160498D01*
X207274482Y-63124188D01*
X207150000Y-63111928D01*
X205450000Y-63111928D01*
X205325518Y-63124188D01*
X205205820Y-63160498D01*
X205095506Y-63219463D01*
X204998815Y-63298815D01*
X204919463Y-63395506D01*
X204860498Y-63505820D01*
X204836034Y-63586466D01*
X204760269Y-63502412D01*
X204526920Y-63328359D01*
X204264099Y-63203175D01*
X204116890Y-63158524D01*
X203887000Y-63279845D01*
X203633000Y-63279845D01*
X203403110Y-63158524D01*
X203255901Y-63203175D01*
X202993080Y-63328359D01*
X202759731Y-63502412D01*
X202564822Y-63718645D01*
X202415843Y-63968748D01*
X202318519Y-64243109D01*
X184717911Y-64243109D01*
X181794802Y-61320000D01*
X201934267Y-61320000D01*
X201957147Y-61552300D01*
X202024906Y-61775674D01*
X202134942Y-61981536D01*
X202283025Y-62161975D01*
X202463464Y-62310058D01*
X202669326Y-62420094D01*
X202892700Y-62487853D01*
X203066793Y-62505000D01*
X203883207Y-62505000D01*
X204057300Y-62487853D01*
X204280674Y-62420094D01*
X204486536Y-62310058D01*
X204666975Y-62161975D01*
X204815058Y-61981536D01*
X204925094Y-61775674D01*
X204992853Y-61552300D01*
X205015733Y-61320000D01*
X205734267Y-61320000D01*
X205757147Y-61552300D01*
X205824906Y-61775674D01*
X205934942Y-61981536D01*
X206083025Y-62161975D01*
X206263464Y-62310058D01*
X206469326Y-62420094D01*
X206692700Y-62487853D01*
X206866793Y-62505000D01*
X207683207Y-62505000D01*
X207857300Y-62487853D01*
X208080674Y-62420094D01*
X208286536Y-62310058D01*
X208466975Y-62161975D01*
X208615058Y-61981536D01*
X208725094Y-61775674D01*
X208792853Y-61552300D01*
X208815733Y-61320000D01*
X208792853Y-61087700D01*
X208725094Y-60864326D01*
X208615058Y-60658464D01*
X208466975Y-60478025D01*
X208286536Y-60329942D01*
X208080674Y-60219906D01*
X207857300Y-60152147D01*
X207683207Y-60135000D01*
X206866793Y-60135000D01*
X206692700Y-60152147D01*
X206469326Y-60219906D01*
X206263464Y-60329942D01*
X206083025Y-60478025D01*
X205934942Y-60658464D01*
X205824906Y-60864326D01*
X205757147Y-61087700D01*
X205734267Y-61320000D01*
X205015733Y-61320000D01*
X204992853Y-61087700D01*
X204925094Y-60864326D01*
X204815058Y-60658464D01*
X204666975Y-60478025D01*
X204486536Y-60329942D01*
X204280674Y-60219906D01*
X204057300Y-60152147D01*
X203883207Y-60135000D01*
X203066793Y-60135000D01*
X202892700Y-60152147D01*
X202669326Y-60219906D01*
X202463464Y-60329942D01*
X202283025Y-60478025D01*
X202134942Y-60658464D01*
X202024906Y-60864326D01*
X201957147Y-61087700D01*
X201934267Y-61320000D01*
X181794802Y-61320000D01*
X173763804Y-53289003D01*
X173740001Y-53259999D01*
X173624276Y-53165026D01*
X173492247Y-53094454D01*
X173348986Y-53050997D01*
X173237333Y-53040000D01*
X173237322Y-53040000D01*
X173200000Y-53036324D01*
X173162678Y-53040000D01*
X151037322Y-53040000D01*
X150999999Y-53036324D01*
X150962676Y-53040000D01*
X150962667Y-53040000D01*
X150851014Y-53050997D01*
X150707753Y-53094454D01*
X150575724Y-53165026D01*
X150575722Y-53165027D01*
X150575723Y-53165027D01*
X150488996Y-53236201D01*
X150488992Y-53236205D01*
X150459999Y-53259999D01*
X150436205Y-53288992D01*
X138288998Y-65436201D01*
X138260000Y-65459999D01*
X138236202Y-65488997D01*
X138236201Y-65488998D01*
X138165026Y-65575724D01*
X138094454Y-65707754D01*
X138050998Y-65851015D01*
X138036324Y-66000000D01*
X138040001Y-66037332D01*
X138040000Y-69096289D01*
X137996063Y-69140226D01*
X137882795Y-69309744D01*
X137804774Y-69498102D01*
X137765000Y-69698061D01*
X110660000Y-69698061D01*
X110660000Y-66150000D01*
X128511928Y-66150000D01*
X128511928Y-67850000D01*
X128524188Y-67974482D01*
X128560498Y-68094180D01*
X128619463Y-68204494D01*
X128698815Y-68301185D01*
X128795506Y-68380537D01*
X128905820Y-68439502D01*
X129025518Y-68475812D01*
X129150000Y-68488072D01*
X130850000Y-68488072D01*
X130974482Y-68475812D01*
X131094180Y-68439502D01*
X131204494Y-68380537D01*
X131301185Y-68301185D01*
X131380537Y-68204494D01*
X131439502Y-68094180D01*
X131461513Y-68021620D01*
X131593368Y-68153475D01*
X131836589Y-68315990D01*
X132106842Y-68427932D01*
X132393740Y-68485000D01*
X132686260Y-68485000D01*
X132973158Y-68427932D01*
X133243411Y-68315990D01*
X133486632Y-68153475D01*
X133693475Y-67946632D01*
X133810000Y-67772240D01*
X133926525Y-67946632D01*
X134133368Y-68153475D01*
X134376589Y-68315990D01*
X134646842Y-68427932D01*
X134933740Y-68485000D01*
X135226260Y-68485000D01*
X135513158Y-68427932D01*
X135783411Y-68315990D01*
X136026632Y-68153475D01*
X136233475Y-67946632D01*
X136395990Y-67703411D01*
X136507932Y-67433158D01*
X136565000Y-67146260D01*
X136565000Y-66853740D01*
X136507932Y-66566842D01*
X136395990Y-66296589D01*
X136233475Y-66053368D01*
X136026632Y-65846525D01*
X135783411Y-65684010D01*
X135513158Y-65572068D01*
X135226260Y-65515000D01*
X134933740Y-65515000D01*
X134646842Y-65572068D01*
X134376589Y-65684010D01*
X134133368Y-65846525D01*
X133926525Y-66053368D01*
X133810000Y-66227760D01*
X133693475Y-66053368D01*
X133486632Y-65846525D01*
X133243411Y-65684010D01*
X132973158Y-65572068D01*
X132686260Y-65515000D01*
X132393740Y-65515000D01*
X132106842Y-65572068D01*
X131836589Y-65684010D01*
X131593368Y-65846525D01*
X131461513Y-65978380D01*
X131439502Y-65905820D01*
X131380537Y-65795506D01*
X131301185Y-65698815D01*
X131204494Y-65619463D01*
X131094180Y-65560498D01*
X130974482Y-65524188D01*
X130850000Y-65511928D01*
X129150000Y-65511928D01*
X129025518Y-65524188D01*
X128905820Y-65560498D01*
X128795506Y-65619463D01*
X128698815Y-65698815D01*
X128619463Y-65795506D01*
X128560498Y-65905820D01*
X128524188Y-66025518D01*
X128511928Y-66150000D01*
X110660000Y-66150000D01*
X110660000Y-63198061D01*
X122565000Y-63198061D01*
X122565000Y-63401939D01*
X122604774Y-63601898D01*
X122682795Y-63790256D01*
X122796063Y-63959774D01*
X122940226Y-64103937D01*
X123109744Y-64217205D01*
X123298102Y-64295226D01*
X123498061Y-64335000D01*
X123701939Y-64335000D01*
X123901898Y-64295226D01*
X124090256Y-64217205D01*
X124259774Y-64103937D01*
X124303711Y-64060000D01*
X131996289Y-64060000D01*
X132040226Y-64103937D01*
X132209744Y-64217205D01*
X132398102Y-64295226D01*
X132598061Y-64335000D01*
X132801939Y-64335000D01*
X133001898Y-64295226D01*
X133190256Y-64217205D01*
X133359774Y-64103937D01*
X133503937Y-63959774D01*
X133617205Y-63790256D01*
X133695226Y-63601898D01*
X133735000Y-63401939D01*
X133735000Y-63198061D01*
X133695226Y-62998102D01*
X133617205Y-62809744D01*
X133503937Y-62640226D01*
X133460000Y-62596289D01*
X133460000Y-58903711D01*
X133503937Y-58859774D01*
X133617205Y-58690256D01*
X133695226Y-58501898D01*
X133735000Y-58301939D01*
X133735000Y-58098061D01*
X133695226Y-57898102D01*
X133617205Y-57709744D01*
X133503937Y-57540226D01*
X133359774Y-57396063D01*
X133190256Y-57282795D01*
X133001898Y-57204774D01*
X132801939Y-57165000D01*
X132598061Y-57165000D01*
X132398102Y-57204774D01*
X132209744Y-57282795D01*
X132040226Y-57396063D01*
X131896063Y-57540226D01*
X131782795Y-57709744D01*
X131704774Y-57898102D01*
X131665000Y-58098061D01*
X131665000Y-58301939D01*
X131704774Y-58501898D01*
X131782795Y-58690256D01*
X131896063Y-58859774D01*
X131940001Y-58903712D01*
X131940000Y-62540000D01*
X124303711Y-62540000D01*
X124259774Y-62496063D01*
X124090256Y-62382795D01*
X123901898Y-62304774D01*
X123701939Y-62265000D01*
X123498061Y-62265000D01*
X123298102Y-62304774D01*
X123109744Y-62382795D01*
X122940226Y-62496063D01*
X122796063Y-62640226D01*
X122682795Y-62809744D01*
X122604774Y-62998102D01*
X122565000Y-63198061D01*
X110660000Y-63198061D01*
X110660000Y-52680000D01*
X201934267Y-52680000D01*
X201957147Y-52912300D01*
X202024906Y-53135674D01*
X202134942Y-53341536D01*
X202283025Y-53521975D01*
X202463464Y-53670058D01*
X202669326Y-53780094D01*
X202892700Y-53847853D01*
X203066793Y-53865000D01*
X203883207Y-53865000D01*
X204057300Y-53847853D01*
X204280674Y-53780094D01*
X204486536Y-53670058D01*
X204666975Y-53521975D01*
X204815058Y-53341536D01*
X204925094Y-53135674D01*
X204992853Y-52912300D01*
X205015733Y-52680000D01*
X205734267Y-52680000D01*
X205757147Y-52912300D01*
X205824906Y-53135674D01*
X205934942Y-53341536D01*
X206083025Y-53521975D01*
X206263464Y-53670058D01*
X206469326Y-53780094D01*
X206692700Y-53847853D01*
X206866793Y-53865000D01*
X207683207Y-53865000D01*
X207857300Y-53847853D01*
X208080674Y-53780094D01*
X208286536Y-53670058D01*
X208466975Y-53521975D01*
X208615058Y-53341536D01*
X208725094Y-53135674D01*
X208792853Y-52912300D01*
X208815733Y-52680000D01*
X208792853Y-52447700D01*
X208725094Y-52224326D01*
X208615058Y-52018464D01*
X208466975Y-51838025D01*
X208286536Y-51689942D01*
X208080674Y-51579906D01*
X207857300Y-51512147D01*
X207683207Y-51495000D01*
X206866793Y-51495000D01*
X206692700Y-51512147D01*
X206469326Y-51579906D01*
X206263464Y-51689942D01*
X206083025Y-51838025D01*
X205934942Y-52018464D01*
X205824906Y-52224326D01*
X205757147Y-52447700D01*
X205734267Y-52680000D01*
X205015733Y-52680000D01*
X204992853Y-52447700D01*
X204925094Y-52224326D01*
X204815058Y-52018464D01*
X204666975Y-51838025D01*
X204486536Y-51689942D01*
X204280674Y-51579906D01*
X204057300Y-51512147D01*
X203883207Y-51495000D01*
X203066793Y-51495000D01*
X202892700Y-51512147D01*
X202669326Y-51579906D01*
X202463464Y-51689942D01*
X202283025Y-51838025D01*
X202134942Y-52018464D01*
X202024906Y-52224326D01*
X201957147Y-52447700D01*
X201934267Y-52680000D01*
X110660000Y-52680000D01*
X110660000Y-50660000D01*
X209340000Y-50660000D01*
X209340001Y-119340000D01*
M02*
