G04 #@! TF.GenerationSoftware,KiCad,Pcbnew,(5.1.5-0)*
G04 #@! TF.CreationDate,2022-06-02T10:47:19-06:00*
G04 #@! TF.ProjectId,sq_lockin_v4,73715f6c-6f63-46b6-996e-5f76342e6b69,rev?*
G04 #@! TF.SameCoordinates,Original*
G04 #@! TF.FileFunction,Soldermask,Top*
G04 #@! TF.FilePolarity,Negative*
%FSLAX46Y46*%
G04 Gerber Fmt 4.6, Leading zero omitted, Abs format (unit mm)*
G04 Created by KiCad (PCBNEW (5.1.5-0)) date 2022-06-02 10:47:19*
%MOMM*%
%LPD*%
G04 APERTURE LIST*
%ADD10C,0.100000*%
G04 APERTURE END LIST*
D10*
G36*
X161901000Y-116271000D02*
G01*
X160899000Y-116271000D01*
X160899000Y-115369000D01*
X161901000Y-115369000D01*
X161901000Y-116271000D01*
G37*
G36*
X157451000Y-116271000D02*
G01*
X156449000Y-116271000D01*
X156449000Y-115369000D01*
X157451000Y-115369000D01*
X157451000Y-116271000D01*
G37*
G36*
X207513512Y-113783927D02*
G01*
X207662812Y-113813624D01*
X207826784Y-113881544D01*
X207974354Y-113980147D01*
X208099853Y-114105646D01*
X208198456Y-114253216D01*
X208266376Y-114417188D01*
X208301000Y-114591259D01*
X208301000Y-114768741D01*
X208266376Y-114942812D01*
X208198456Y-115106784D01*
X208099853Y-115254354D01*
X207974354Y-115379853D01*
X207826784Y-115478456D01*
X207662812Y-115546376D01*
X207513512Y-115576073D01*
X207488742Y-115581000D01*
X207311258Y-115581000D01*
X207286488Y-115576073D01*
X207137188Y-115546376D01*
X206973216Y-115478456D01*
X206825646Y-115379853D01*
X206700147Y-115254354D01*
X206601544Y-115106784D01*
X206533624Y-114942812D01*
X206499000Y-114768741D01*
X206499000Y-114591259D01*
X206533624Y-114417188D01*
X206601544Y-114253216D01*
X206700147Y-114105646D01*
X206825646Y-113980147D01*
X206973216Y-113881544D01*
X207137188Y-113813624D01*
X207286488Y-113783927D01*
X207311258Y-113779000D01*
X207488742Y-113779000D01*
X207513512Y-113783927D01*
G37*
G36*
X163901000Y-115321000D02*
G01*
X162899000Y-115321000D01*
X162899000Y-114419000D01*
X163901000Y-114419000D01*
X163901000Y-115321000D01*
G37*
G36*
X159451000Y-115321000D02*
G01*
X158449000Y-115321000D01*
X158449000Y-114419000D01*
X159451000Y-114419000D01*
X159451000Y-115321000D01*
G37*
G36*
X172553512Y-113203927D02*
G01*
X172702812Y-113233624D01*
X172866784Y-113301544D01*
X173014354Y-113400147D01*
X173139853Y-113525646D01*
X173238456Y-113673216D01*
X173306376Y-113837188D01*
X173341000Y-114011259D01*
X173341000Y-114188741D01*
X173306376Y-114362812D01*
X173238456Y-114526784D01*
X173139853Y-114674354D01*
X173014354Y-114799853D01*
X172866784Y-114898456D01*
X172702812Y-114966376D01*
X172553512Y-114996073D01*
X172528742Y-115001000D01*
X172351258Y-115001000D01*
X172326488Y-114996073D01*
X172177188Y-114966376D01*
X172013216Y-114898456D01*
X171865646Y-114799853D01*
X171740147Y-114674354D01*
X171641544Y-114526784D01*
X171573624Y-114362812D01*
X171539000Y-114188741D01*
X171539000Y-114011259D01*
X171573624Y-113837188D01*
X171641544Y-113673216D01*
X171740147Y-113525646D01*
X171865646Y-113400147D01*
X172013216Y-113301544D01*
X172177188Y-113233624D01*
X172326488Y-113203927D01*
X172351258Y-113199000D01*
X172528742Y-113199000D01*
X172553512Y-113203927D01*
G37*
G36*
X170801000Y-115001000D02*
G01*
X168999000Y-115001000D01*
X168999000Y-113199000D01*
X170801000Y-113199000D01*
X170801000Y-115001000D01*
G37*
G36*
X161901000Y-114371000D02*
G01*
X160899000Y-114371000D01*
X160899000Y-113469000D01*
X161901000Y-113469000D01*
X161901000Y-114371000D01*
G37*
G36*
X157451000Y-114371000D02*
G01*
X156449000Y-114371000D01*
X156449000Y-113469000D01*
X157451000Y-113469000D01*
X157451000Y-114371000D01*
G37*
G36*
X207513512Y-111243927D02*
G01*
X207662812Y-111273624D01*
X207826784Y-111341544D01*
X207974354Y-111440147D01*
X208099853Y-111565646D01*
X208198456Y-111713216D01*
X208266376Y-111877188D01*
X208301000Y-112051259D01*
X208301000Y-112228741D01*
X208266376Y-112402812D01*
X208198456Y-112566784D01*
X208099853Y-112714354D01*
X207974354Y-112839853D01*
X207826784Y-112938456D01*
X207662812Y-113006376D01*
X207513512Y-113036073D01*
X207488742Y-113041000D01*
X207311258Y-113041000D01*
X207286488Y-113036073D01*
X207137188Y-113006376D01*
X206973216Y-112938456D01*
X206825646Y-112839853D01*
X206700147Y-112714354D01*
X206601544Y-112566784D01*
X206533624Y-112402812D01*
X206499000Y-112228741D01*
X206499000Y-112051259D01*
X206533624Y-111877188D01*
X206601544Y-111713216D01*
X206700147Y-111565646D01*
X206825646Y-111440147D01*
X206973216Y-111341544D01*
X207137188Y-111273624D01*
X207286488Y-111243927D01*
X207311258Y-111239000D01*
X207488742Y-111239000D01*
X207513512Y-111243927D01*
G37*
G36*
X181764499Y-111003445D02*
G01*
X181801995Y-111014820D01*
X181836554Y-111033292D01*
X181866847Y-111058153D01*
X181891708Y-111088446D01*
X181910180Y-111123005D01*
X181921555Y-111160501D01*
X181926000Y-111205638D01*
X181926000Y-111944362D01*
X181921555Y-111989499D01*
X181910180Y-112026995D01*
X181891708Y-112061554D01*
X181866847Y-112091847D01*
X181836554Y-112116708D01*
X181801995Y-112135180D01*
X181764499Y-112146555D01*
X181719362Y-112151000D01*
X181080638Y-112151000D01*
X181035501Y-112146555D01*
X180998005Y-112135180D01*
X180963446Y-112116708D01*
X180933153Y-112091847D01*
X180908292Y-112061554D01*
X180889820Y-112026995D01*
X180878445Y-111989499D01*
X180874000Y-111944362D01*
X180874000Y-111205638D01*
X180878445Y-111160501D01*
X180889820Y-111123005D01*
X180908292Y-111088446D01*
X180933153Y-111058153D01*
X180963446Y-111033292D01*
X180998005Y-111014820D01*
X181035501Y-111003445D01*
X181080638Y-110999000D01*
X181719362Y-110999000D01*
X181764499Y-111003445D01*
G37*
G36*
X186781000Y-111826000D02*
G01*
X185619000Y-111826000D01*
X185619000Y-111074000D01*
X186781000Y-111074000D01*
X186781000Y-111826000D01*
G37*
G36*
X184581000Y-111826000D02*
G01*
X183419000Y-111826000D01*
X183419000Y-109174000D01*
X184581000Y-109174000D01*
X184581000Y-111826000D01*
G37*
G36*
X167564499Y-110628445D02*
G01*
X167601995Y-110639820D01*
X167636554Y-110658292D01*
X167666847Y-110683153D01*
X167691708Y-110713446D01*
X167710180Y-110748005D01*
X167721555Y-110785501D01*
X167726000Y-110830638D01*
X167726000Y-111569362D01*
X167721555Y-111614499D01*
X167710180Y-111651995D01*
X167691708Y-111686554D01*
X167666847Y-111716847D01*
X167636554Y-111741708D01*
X167601995Y-111760180D01*
X167564499Y-111771555D01*
X167519362Y-111776000D01*
X166880638Y-111776000D01*
X166835501Y-111771555D01*
X166798005Y-111760180D01*
X166763446Y-111741708D01*
X166733153Y-111716847D01*
X166708292Y-111686554D01*
X166689820Y-111651995D01*
X166678445Y-111614499D01*
X166674000Y-111569362D01*
X166674000Y-110830638D01*
X166678445Y-110785501D01*
X166689820Y-110748005D01*
X166708292Y-110713446D01*
X166733153Y-110683153D01*
X166763446Y-110658292D01*
X166798005Y-110639820D01*
X166835501Y-110628445D01*
X166880638Y-110624000D01*
X167519362Y-110624000D01*
X167564499Y-110628445D01*
G37*
G36*
X156264499Y-110328445D02*
G01*
X156301995Y-110339820D01*
X156336554Y-110358292D01*
X156366847Y-110383153D01*
X156391708Y-110413446D01*
X156410180Y-110448005D01*
X156421555Y-110485501D01*
X156426000Y-110530638D01*
X156426000Y-111269362D01*
X156421555Y-111314499D01*
X156410180Y-111351995D01*
X156391708Y-111386554D01*
X156366847Y-111416847D01*
X156336554Y-111441708D01*
X156301995Y-111460180D01*
X156264499Y-111471555D01*
X156219362Y-111476000D01*
X155580638Y-111476000D01*
X155535501Y-111471555D01*
X155498005Y-111460180D01*
X155463446Y-111441708D01*
X155433153Y-111416847D01*
X155408292Y-111386554D01*
X155389820Y-111351995D01*
X155378445Y-111314499D01*
X155374000Y-111269362D01*
X155374000Y-110530638D01*
X155378445Y-110485501D01*
X155389820Y-110448005D01*
X155408292Y-110413446D01*
X155433153Y-110383153D01*
X155463446Y-110358292D01*
X155498005Y-110339820D01*
X155535501Y-110328445D01*
X155580638Y-110324000D01*
X156219362Y-110324000D01*
X156264499Y-110328445D01*
G37*
G36*
X208301000Y-110501000D02*
G01*
X206499000Y-110501000D01*
X206499000Y-108699000D01*
X208301000Y-108699000D01*
X208301000Y-110501000D01*
G37*
G36*
X181764499Y-109253445D02*
G01*
X181801995Y-109264820D01*
X181836554Y-109283292D01*
X181866847Y-109308153D01*
X181891708Y-109338446D01*
X181910180Y-109373005D01*
X181921555Y-109410501D01*
X181926000Y-109455638D01*
X181926000Y-110194362D01*
X181921555Y-110239499D01*
X181910180Y-110276995D01*
X181891708Y-110311554D01*
X181866847Y-110341847D01*
X181836554Y-110366708D01*
X181801995Y-110385180D01*
X181764499Y-110396555D01*
X181719362Y-110401000D01*
X181080638Y-110401000D01*
X181035501Y-110396555D01*
X180998005Y-110385180D01*
X180963446Y-110366708D01*
X180933153Y-110341847D01*
X180908292Y-110311554D01*
X180889820Y-110276995D01*
X180878445Y-110239499D01*
X180874000Y-110194362D01*
X180874000Y-109455638D01*
X180878445Y-109410501D01*
X180889820Y-109373005D01*
X180908292Y-109338446D01*
X180933153Y-109308153D01*
X180963446Y-109283292D01*
X180998005Y-109264820D01*
X181035501Y-109253445D01*
X181080638Y-109249000D01*
X181719362Y-109249000D01*
X181764499Y-109253445D01*
G37*
G36*
X160889499Y-109103445D02*
G01*
X160926995Y-109114820D01*
X160961554Y-109133292D01*
X160991847Y-109158153D01*
X161016708Y-109188446D01*
X161035180Y-109223005D01*
X161046555Y-109260501D01*
X161051000Y-109305638D01*
X161051000Y-109944362D01*
X161046555Y-109989499D01*
X161035180Y-110026995D01*
X161016708Y-110061554D01*
X160991847Y-110091847D01*
X160961554Y-110116708D01*
X160926995Y-110135180D01*
X160889499Y-110146555D01*
X160844362Y-110151000D01*
X160105638Y-110151000D01*
X160060501Y-110146555D01*
X160023005Y-110135180D01*
X159988446Y-110116708D01*
X159958153Y-110091847D01*
X159933292Y-110061554D01*
X159914820Y-110026995D01*
X159903445Y-109989499D01*
X159899000Y-109944362D01*
X159899000Y-109305638D01*
X159903445Y-109260501D01*
X159914820Y-109223005D01*
X159933292Y-109188446D01*
X159958153Y-109158153D01*
X159988446Y-109133292D01*
X160023005Y-109114820D01*
X160060501Y-109103445D01*
X160105638Y-109099000D01*
X160844362Y-109099000D01*
X160889499Y-109103445D01*
G37*
G36*
X159139499Y-109103445D02*
G01*
X159176995Y-109114820D01*
X159211554Y-109133292D01*
X159241847Y-109158153D01*
X159266708Y-109188446D01*
X159285180Y-109223005D01*
X159296555Y-109260501D01*
X159301000Y-109305638D01*
X159301000Y-109944362D01*
X159296555Y-109989499D01*
X159285180Y-110026995D01*
X159266708Y-110061554D01*
X159241847Y-110091847D01*
X159211554Y-110116708D01*
X159176995Y-110135180D01*
X159139499Y-110146555D01*
X159094362Y-110151000D01*
X158355638Y-110151000D01*
X158310501Y-110146555D01*
X158273005Y-110135180D01*
X158238446Y-110116708D01*
X158208153Y-110091847D01*
X158183292Y-110061554D01*
X158164820Y-110026995D01*
X158153445Y-109989499D01*
X158149000Y-109944362D01*
X158149000Y-109305638D01*
X158153445Y-109260501D01*
X158164820Y-109223005D01*
X158183292Y-109188446D01*
X158208153Y-109158153D01*
X158238446Y-109133292D01*
X158273005Y-109114820D01*
X158310501Y-109103445D01*
X158355638Y-109099000D01*
X159094362Y-109099000D01*
X159139499Y-109103445D01*
G37*
G36*
X167564499Y-108878445D02*
G01*
X167601995Y-108889820D01*
X167636554Y-108908292D01*
X167666847Y-108933153D01*
X167691708Y-108963446D01*
X167710180Y-108998005D01*
X167721555Y-109035501D01*
X167726000Y-109080638D01*
X167726000Y-109819362D01*
X167721555Y-109864499D01*
X167710180Y-109901995D01*
X167691708Y-109936554D01*
X167666847Y-109966847D01*
X167636554Y-109991708D01*
X167601995Y-110010180D01*
X167564499Y-110021555D01*
X167519362Y-110026000D01*
X166880638Y-110026000D01*
X166835501Y-110021555D01*
X166798005Y-110010180D01*
X166763446Y-109991708D01*
X166733153Y-109966847D01*
X166708292Y-109936554D01*
X166689820Y-109901995D01*
X166678445Y-109864499D01*
X166674000Y-109819362D01*
X166674000Y-109080638D01*
X166678445Y-109035501D01*
X166689820Y-108998005D01*
X166708292Y-108963446D01*
X166733153Y-108933153D01*
X166763446Y-108908292D01*
X166798005Y-108889820D01*
X166835501Y-108878445D01*
X166880638Y-108874000D01*
X167519362Y-108874000D01*
X167564499Y-108878445D01*
G37*
G36*
X186781000Y-109926000D02*
G01*
X185619000Y-109926000D01*
X185619000Y-109174000D01*
X186781000Y-109174000D01*
X186781000Y-109926000D01*
G37*
G36*
X170364499Y-108803445D02*
G01*
X170401995Y-108814820D01*
X170436554Y-108833292D01*
X170466847Y-108858153D01*
X170491708Y-108888446D01*
X170510180Y-108923005D01*
X170521555Y-108960501D01*
X170526000Y-109005638D01*
X170526000Y-109644362D01*
X170521555Y-109689499D01*
X170510180Y-109726995D01*
X170491708Y-109761554D01*
X170466847Y-109791847D01*
X170436554Y-109816708D01*
X170401995Y-109835180D01*
X170364499Y-109846555D01*
X170319362Y-109851000D01*
X169580638Y-109851000D01*
X169535501Y-109846555D01*
X169498005Y-109835180D01*
X169463446Y-109816708D01*
X169433153Y-109791847D01*
X169408292Y-109761554D01*
X169389820Y-109726995D01*
X169378445Y-109689499D01*
X169374000Y-109644362D01*
X169374000Y-109005638D01*
X169378445Y-108960501D01*
X169389820Y-108923005D01*
X169408292Y-108888446D01*
X169433153Y-108858153D01*
X169463446Y-108833292D01*
X169498005Y-108814820D01*
X169535501Y-108803445D01*
X169580638Y-108799000D01*
X170319362Y-108799000D01*
X170364499Y-108803445D01*
G37*
G36*
X172114499Y-108803445D02*
G01*
X172151995Y-108814820D01*
X172186554Y-108833292D01*
X172216847Y-108858153D01*
X172241708Y-108888446D01*
X172260180Y-108923005D01*
X172271555Y-108960501D01*
X172276000Y-109005638D01*
X172276000Y-109644362D01*
X172271555Y-109689499D01*
X172260180Y-109726995D01*
X172241708Y-109761554D01*
X172216847Y-109791847D01*
X172186554Y-109816708D01*
X172151995Y-109835180D01*
X172114499Y-109846555D01*
X172069362Y-109851000D01*
X171330638Y-109851000D01*
X171285501Y-109846555D01*
X171248005Y-109835180D01*
X171213446Y-109816708D01*
X171183153Y-109791847D01*
X171158292Y-109761554D01*
X171139820Y-109726995D01*
X171128445Y-109689499D01*
X171124000Y-109644362D01*
X171124000Y-109005638D01*
X171128445Y-108960501D01*
X171139820Y-108923005D01*
X171158292Y-108888446D01*
X171183153Y-108858153D01*
X171213446Y-108833292D01*
X171248005Y-108814820D01*
X171285501Y-108803445D01*
X171330638Y-108799000D01*
X172069362Y-108799000D01*
X172114499Y-108803445D01*
G37*
G36*
X156264499Y-108578445D02*
G01*
X156301995Y-108589820D01*
X156336554Y-108608292D01*
X156366847Y-108633153D01*
X156391708Y-108663446D01*
X156410180Y-108698005D01*
X156421555Y-108735501D01*
X156426000Y-108780638D01*
X156426000Y-109519362D01*
X156421555Y-109564499D01*
X156410180Y-109601995D01*
X156391708Y-109636554D01*
X156366847Y-109666847D01*
X156336554Y-109691708D01*
X156301995Y-109710180D01*
X156264499Y-109721555D01*
X156219362Y-109726000D01*
X155580638Y-109726000D01*
X155535501Y-109721555D01*
X155498005Y-109710180D01*
X155463446Y-109691708D01*
X155433153Y-109666847D01*
X155408292Y-109636554D01*
X155389820Y-109601995D01*
X155378445Y-109564499D01*
X155374000Y-109519362D01*
X155374000Y-108780638D01*
X155378445Y-108735501D01*
X155389820Y-108698005D01*
X155408292Y-108663446D01*
X155433153Y-108633153D01*
X155463446Y-108608292D01*
X155498005Y-108589820D01*
X155535501Y-108578445D01*
X155580638Y-108574000D01*
X156219362Y-108574000D01*
X156264499Y-108578445D01*
G37*
G36*
X147351000Y-109501000D02*
G01*
X146449000Y-109501000D01*
X146449000Y-108499000D01*
X147351000Y-108499000D01*
X147351000Y-109501000D01*
G37*
G36*
X187064499Y-107278445D02*
G01*
X187101995Y-107289820D01*
X187136554Y-107308292D01*
X187166847Y-107333153D01*
X187191708Y-107363446D01*
X187210180Y-107398005D01*
X187221555Y-107435501D01*
X187226000Y-107480638D01*
X187226000Y-108119362D01*
X187221555Y-108164499D01*
X187210180Y-108201995D01*
X187191708Y-108236554D01*
X187166847Y-108266847D01*
X187136554Y-108291708D01*
X187101995Y-108310180D01*
X187064499Y-108321555D01*
X187019362Y-108326000D01*
X186280638Y-108326000D01*
X186235501Y-108321555D01*
X186198005Y-108310180D01*
X186163446Y-108291708D01*
X186133153Y-108266847D01*
X186108292Y-108236554D01*
X186089820Y-108201995D01*
X186078445Y-108164499D01*
X186074000Y-108119362D01*
X186074000Y-107480638D01*
X186078445Y-107435501D01*
X186089820Y-107398005D01*
X186108292Y-107363446D01*
X186133153Y-107333153D01*
X186163446Y-107308292D01*
X186198005Y-107289820D01*
X186235501Y-107278445D01*
X186280638Y-107274000D01*
X187019362Y-107274000D01*
X187064499Y-107278445D01*
G37*
G36*
X188814499Y-107278445D02*
G01*
X188851995Y-107289820D01*
X188886554Y-107308292D01*
X188916847Y-107333153D01*
X188941708Y-107363446D01*
X188960180Y-107398005D01*
X188971555Y-107435501D01*
X188976000Y-107480638D01*
X188976000Y-108119362D01*
X188971555Y-108164499D01*
X188960180Y-108201995D01*
X188941708Y-108236554D01*
X188916847Y-108266847D01*
X188886554Y-108291708D01*
X188851995Y-108310180D01*
X188814499Y-108321555D01*
X188769362Y-108326000D01*
X188030638Y-108326000D01*
X187985501Y-108321555D01*
X187948005Y-108310180D01*
X187913446Y-108291708D01*
X187883153Y-108266847D01*
X187858292Y-108236554D01*
X187839820Y-108201995D01*
X187828445Y-108164499D01*
X187824000Y-108119362D01*
X187824000Y-107480638D01*
X187828445Y-107435501D01*
X187839820Y-107398005D01*
X187858292Y-107363446D01*
X187883153Y-107333153D01*
X187913446Y-107308292D01*
X187948005Y-107289820D01*
X187985501Y-107278445D01*
X188030638Y-107274000D01*
X188769362Y-107274000D01*
X188814499Y-107278445D01*
G37*
G36*
X183139499Y-107278445D02*
G01*
X183176995Y-107289820D01*
X183211554Y-107308292D01*
X183241847Y-107333153D01*
X183266708Y-107363446D01*
X183285180Y-107398005D01*
X183296555Y-107435501D01*
X183301000Y-107480638D01*
X183301000Y-108119362D01*
X183296555Y-108164499D01*
X183285180Y-108201995D01*
X183266708Y-108236554D01*
X183241847Y-108266847D01*
X183211554Y-108291708D01*
X183176995Y-108310180D01*
X183139499Y-108321555D01*
X183094362Y-108326000D01*
X182355638Y-108326000D01*
X182310501Y-108321555D01*
X182273005Y-108310180D01*
X182238446Y-108291708D01*
X182208153Y-108266847D01*
X182183292Y-108236554D01*
X182164820Y-108201995D01*
X182153445Y-108164499D01*
X182149000Y-108119362D01*
X182149000Y-107480638D01*
X182153445Y-107435501D01*
X182164820Y-107398005D01*
X182183292Y-107363446D01*
X182208153Y-107333153D01*
X182238446Y-107308292D01*
X182273005Y-107289820D01*
X182310501Y-107278445D01*
X182355638Y-107274000D01*
X183094362Y-107274000D01*
X183139499Y-107278445D01*
G37*
G36*
X184889499Y-107278445D02*
G01*
X184926995Y-107289820D01*
X184961554Y-107308292D01*
X184991847Y-107333153D01*
X185016708Y-107363446D01*
X185035180Y-107398005D01*
X185046555Y-107435501D01*
X185051000Y-107480638D01*
X185051000Y-108119362D01*
X185046555Y-108164499D01*
X185035180Y-108201995D01*
X185016708Y-108236554D01*
X184991847Y-108266847D01*
X184961554Y-108291708D01*
X184926995Y-108310180D01*
X184889499Y-108321555D01*
X184844362Y-108326000D01*
X184105638Y-108326000D01*
X184060501Y-108321555D01*
X184023005Y-108310180D01*
X183988446Y-108291708D01*
X183958153Y-108266847D01*
X183933292Y-108236554D01*
X183914820Y-108201995D01*
X183903445Y-108164499D01*
X183899000Y-108119362D01*
X183899000Y-107480638D01*
X183903445Y-107435501D01*
X183914820Y-107398005D01*
X183933292Y-107363446D01*
X183958153Y-107333153D01*
X183988446Y-107308292D01*
X184023005Y-107289820D01*
X184060501Y-107278445D01*
X184105638Y-107274000D01*
X184844362Y-107274000D01*
X184889499Y-107278445D01*
G37*
G36*
X191264499Y-106903445D02*
G01*
X191301995Y-106914820D01*
X191336554Y-106933292D01*
X191366847Y-106958153D01*
X191391708Y-106988446D01*
X191410180Y-107023005D01*
X191421555Y-107060501D01*
X191426000Y-107105638D01*
X191426000Y-107844362D01*
X191421555Y-107889499D01*
X191410180Y-107926995D01*
X191391708Y-107961554D01*
X191366847Y-107991847D01*
X191336554Y-108016708D01*
X191301995Y-108035180D01*
X191264499Y-108046555D01*
X191219362Y-108051000D01*
X190580638Y-108051000D01*
X190535501Y-108046555D01*
X190498005Y-108035180D01*
X190463446Y-108016708D01*
X190433153Y-107991847D01*
X190408292Y-107961554D01*
X190389820Y-107926995D01*
X190378445Y-107889499D01*
X190374000Y-107844362D01*
X190374000Y-107105638D01*
X190378445Y-107060501D01*
X190389820Y-107023005D01*
X190408292Y-106988446D01*
X190433153Y-106958153D01*
X190463446Y-106933292D01*
X190498005Y-106914820D01*
X190535501Y-106903445D01*
X190580638Y-106899000D01*
X191219362Y-106899000D01*
X191264499Y-106903445D01*
G37*
G36*
X168041000Y-107826000D02*
G01*
X166339000Y-107826000D01*
X166339000Y-105524000D01*
X168041000Y-105524000D01*
X168041000Y-107826000D01*
G37*
G36*
X175661000Y-107826000D02*
G01*
X173959000Y-107826000D01*
X173959000Y-105524000D01*
X175661000Y-105524000D01*
X175661000Y-107826000D01*
G37*
G36*
X173121000Y-107826000D02*
G01*
X171419000Y-107826000D01*
X171419000Y-105524000D01*
X173121000Y-105524000D01*
X173121000Y-107826000D01*
G37*
G36*
X170581000Y-107826000D02*
G01*
X168879000Y-107826000D01*
X168879000Y-105524000D01*
X170581000Y-105524000D01*
X170581000Y-107826000D01*
G37*
G36*
X156741000Y-107726000D02*
G01*
X155039000Y-107726000D01*
X155039000Y-105424000D01*
X156741000Y-105424000D01*
X156741000Y-107726000D01*
G37*
G36*
X159281000Y-107726000D02*
G01*
X157579000Y-107726000D01*
X157579000Y-105424000D01*
X159281000Y-105424000D01*
X159281000Y-107726000D01*
G37*
G36*
X164361000Y-107726000D02*
G01*
X162659000Y-107726000D01*
X162659000Y-105424000D01*
X164361000Y-105424000D01*
X164361000Y-107726000D01*
G37*
G36*
X161821000Y-107726000D02*
G01*
X160119000Y-107726000D01*
X160119000Y-105424000D01*
X161821000Y-105424000D01*
X161821000Y-107726000D01*
G37*
G36*
X148301000Y-107501000D02*
G01*
X147399000Y-107501000D01*
X147399000Y-106499000D01*
X148301000Y-106499000D01*
X148301000Y-107501000D01*
G37*
G36*
X146401000Y-107501000D02*
G01*
X145499000Y-107501000D01*
X145499000Y-106499000D01*
X146401000Y-106499000D01*
X146401000Y-107501000D01*
G37*
G36*
X194239499Y-106008445D02*
G01*
X194276995Y-106019820D01*
X194311554Y-106038292D01*
X194341847Y-106063153D01*
X194366708Y-106093446D01*
X194385180Y-106128005D01*
X194396555Y-106165501D01*
X194401000Y-106210638D01*
X194401000Y-106849362D01*
X194396555Y-106894499D01*
X194385180Y-106931995D01*
X194366708Y-106966554D01*
X194341847Y-106996847D01*
X194311554Y-107021708D01*
X194276995Y-107040180D01*
X194239499Y-107051555D01*
X194194362Y-107056000D01*
X193455638Y-107056000D01*
X193410501Y-107051555D01*
X193373005Y-107040180D01*
X193338446Y-107021708D01*
X193308153Y-106996847D01*
X193283292Y-106966554D01*
X193264820Y-106931995D01*
X193253445Y-106894499D01*
X193249000Y-106849362D01*
X193249000Y-106210638D01*
X193253445Y-106165501D01*
X193264820Y-106128005D01*
X193283292Y-106093446D01*
X193308153Y-106063153D01*
X193338446Y-106038292D01*
X193373005Y-106019820D01*
X193410501Y-106008445D01*
X193455638Y-106004000D01*
X194194362Y-106004000D01*
X194239499Y-106008445D01*
G37*
G36*
X195989499Y-106008445D02*
G01*
X196026995Y-106019820D01*
X196061554Y-106038292D01*
X196091847Y-106063153D01*
X196116708Y-106093446D01*
X196135180Y-106128005D01*
X196146555Y-106165501D01*
X196151000Y-106210638D01*
X196151000Y-106849362D01*
X196146555Y-106894499D01*
X196135180Y-106931995D01*
X196116708Y-106966554D01*
X196091847Y-106996847D01*
X196061554Y-107021708D01*
X196026995Y-107040180D01*
X195989499Y-107051555D01*
X195944362Y-107056000D01*
X195205638Y-107056000D01*
X195160501Y-107051555D01*
X195123005Y-107040180D01*
X195088446Y-107021708D01*
X195058153Y-106996847D01*
X195033292Y-106966554D01*
X195014820Y-106931995D01*
X195003445Y-106894499D01*
X194999000Y-106849362D01*
X194999000Y-106210638D01*
X195003445Y-106165501D01*
X195014820Y-106128005D01*
X195033292Y-106093446D01*
X195058153Y-106063153D01*
X195088446Y-106038292D01*
X195123005Y-106019820D01*
X195160501Y-106008445D01*
X195205638Y-106004000D01*
X195944362Y-106004000D01*
X195989499Y-106008445D01*
G37*
G36*
X197839499Y-105908445D02*
G01*
X197876995Y-105919820D01*
X197911554Y-105938292D01*
X197941847Y-105963153D01*
X197966708Y-105993446D01*
X197985180Y-106028005D01*
X197996555Y-106065501D01*
X198001000Y-106110638D01*
X198001000Y-106849362D01*
X197996555Y-106894499D01*
X197985180Y-106931995D01*
X197966708Y-106966554D01*
X197941847Y-106996847D01*
X197911554Y-107021708D01*
X197876995Y-107040180D01*
X197839499Y-107051555D01*
X197794362Y-107056000D01*
X197155638Y-107056000D01*
X197110501Y-107051555D01*
X197073005Y-107040180D01*
X197038446Y-107021708D01*
X197008153Y-106996847D01*
X196983292Y-106966554D01*
X196964820Y-106931995D01*
X196953445Y-106894499D01*
X196949000Y-106849362D01*
X196949000Y-106110638D01*
X196953445Y-106065501D01*
X196964820Y-106028005D01*
X196983292Y-105993446D01*
X197008153Y-105963153D01*
X197038446Y-105938292D01*
X197073005Y-105919820D01*
X197110501Y-105908445D01*
X197155638Y-105904000D01*
X197794362Y-105904000D01*
X197839499Y-105908445D01*
G37*
G36*
X205634928Y-105906764D02*
G01*
X205656009Y-105913160D01*
X205675445Y-105923548D01*
X205692476Y-105937524D01*
X205706452Y-105954555D01*
X205716840Y-105973991D01*
X205723236Y-105995072D01*
X205726000Y-106023140D01*
X205726000Y-106486860D01*
X205723236Y-106514928D01*
X205716840Y-106536009D01*
X205706452Y-106555445D01*
X205692476Y-106572476D01*
X205675445Y-106586452D01*
X205656009Y-106596840D01*
X205634928Y-106603236D01*
X205606860Y-106606000D01*
X204093140Y-106606000D01*
X204065072Y-106603236D01*
X204043991Y-106596840D01*
X204024555Y-106586452D01*
X204007524Y-106572476D01*
X203993548Y-106555445D01*
X203983160Y-106536009D01*
X203976764Y-106514928D01*
X203974000Y-106486860D01*
X203974000Y-106023140D01*
X203976764Y-105995072D01*
X203983160Y-105973991D01*
X203993548Y-105954555D01*
X204007524Y-105937524D01*
X204024555Y-105923548D01*
X204043991Y-105913160D01*
X204065072Y-105906764D01*
X204093140Y-105904000D01*
X205606860Y-105904000D01*
X205634928Y-105906764D01*
G37*
G36*
X200384928Y-105906764D02*
G01*
X200406009Y-105913160D01*
X200425445Y-105923548D01*
X200442476Y-105937524D01*
X200456452Y-105954555D01*
X200466840Y-105973991D01*
X200473236Y-105995072D01*
X200476000Y-106023140D01*
X200476000Y-106486860D01*
X200473236Y-106514928D01*
X200466840Y-106536009D01*
X200456452Y-106555445D01*
X200442476Y-106572476D01*
X200425445Y-106586452D01*
X200406009Y-106596840D01*
X200384928Y-106603236D01*
X200356860Y-106606000D01*
X198843140Y-106606000D01*
X198815072Y-106603236D01*
X198793991Y-106596840D01*
X198774555Y-106586452D01*
X198757524Y-106572476D01*
X198743548Y-106555445D01*
X198733160Y-106536009D01*
X198726764Y-106514928D01*
X198724000Y-106486860D01*
X198724000Y-106023140D01*
X198726764Y-105995072D01*
X198733160Y-105973991D01*
X198743548Y-105954555D01*
X198757524Y-105937524D01*
X198774555Y-105923548D01*
X198793991Y-105913160D01*
X198815072Y-105906764D01*
X198843140Y-105904000D01*
X200356860Y-105904000D01*
X200384928Y-105906764D01*
G37*
G36*
X191264499Y-105153445D02*
G01*
X191301995Y-105164820D01*
X191336554Y-105183292D01*
X191366847Y-105208153D01*
X191391708Y-105238446D01*
X191410180Y-105273005D01*
X191421555Y-105310501D01*
X191426000Y-105355638D01*
X191426000Y-106094362D01*
X191421555Y-106139499D01*
X191410180Y-106176995D01*
X191391708Y-106211554D01*
X191366847Y-106241847D01*
X191336554Y-106266708D01*
X191301995Y-106285180D01*
X191264499Y-106296555D01*
X191219362Y-106301000D01*
X190580638Y-106301000D01*
X190535501Y-106296555D01*
X190498005Y-106285180D01*
X190463446Y-106266708D01*
X190433153Y-106241847D01*
X190408292Y-106211554D01*
X190389820Y-106176995D01*
X190378445Y-106139499D01*
X190374000Y-106094362D01*
X190374000Y-105355638D01*
X190378445Y-105310501D01*
X190389820Y-105273005D01*
X190408292Y-105238446D01*
X190433153Y-105208153D01*
X190463446Y-105183292D01*
X190498005Y-105164820D01*
X190535501Y-105153445D01*
X190580638Y-105149000D01*
X191219362Y-105149000D01*
X191264499Y-105153445D01*
G37*
G36*
X184489499Y-104978445D02*
G01*
X184526995Y-104989820D01*
X184561554Y-105008292D01*
X184591847Y-105033153D01*
X184616708Y-105063446D01*
X184635180Y-105098005D01*
X184646555Y-105135501D01*
X184651000Y-105180638D01*
X184651000Y-105819362D01*
X184646555Y-105864499D01*
X184635180Y-105901995D01*
X184616708Y-105936554D01*
X184591847Y-105966847D01*
X184561554Y-105991708D01*
X184526995Y-106010180D01*
X184489499Y-106021555D01*
X184444362Y-106026000D01*
X183705638Y-106026000D01*
X183660501Y-106021555D01*
X183623005Y-106010180D01*
X183588446Y-105991708D01*
X183558153Y-105966847D01*
X183533292Y-105936554D01*
X183514820Y-105901995D01*
X183503445Y-105864499D01*
X183499000Y-105819362D01*
X183499000Y-105180638D01*
X183503445Y-105135501D01*
X183514820Y-105098005D01*
X183533292Y-105063446D01*
X183558153Y-105033153D01*
X183588446Y-105008292D01*
X183623005Y-104989820D01*
X183660501Y-104978445D01*
X183705638Y-104974000D01*
X184444362Y-104974000D01*
X184489499Y-104978445D01*
G37*
G36*
X182739499Y-104978445D02*
G01*
X182776995Y-104989820D01*
X182811554Y-105008292D01*
X182841847Y-105033153D01*
X182866708Y-105063446D01*
X182885180Y-105098005D01*
X182896555Y-105135501D01*
X182901000Y-105180638D01*
X182901000Y-105819362D01*
X182896555Y-105864499D01*
X182885180Y-105901995D01*
X182866708Y-105936554D01*
X182841847Y-105966847D01*
X182811554Y-105991708D01*
X182776995Y-106010180D01*
X182739499Y-106021555D01*
X182694362Y-106026000D01*
X181955638Y-106026000D01*
X181910501Y-106021555D01*
X181873005Y-106010180D01*
X181838446Y-105991708D01*
X181808153Y-105966847D01*
X181783292Y-105936554D01*
X181764820Y-105901995D01*
X181753445Y-105864499D01*
X181749000Y-105819362D01*
X181749000Y-105180638D01*
X181753445Y-105135501D01*
X181764820Y-105098005D01*
X181783292Y-105063446D01*
X181808153Y-105033153D01*
X181838446Y-105008292D01*
X181873005Y-104989820D01*
X181910501Y-104978445D01*
X181955638Y-104974000D01*
X182694362Y-104974000D01*
X182739499Y-104978445D01*
G37*
G36*
X147351000Y-105601000D02*
G01*
X146449000Y-105601000D01*
X146449000Y-104599000D01*
X147351000Y-104599000D01*
X147351000Y-105601000D01*
G37*
G36*
X200384928Y-104636764D02*
G01*
X200406009Y-104643160D01*
X200425445Y-104653548D01*
X200442476Y-104667524D01*
X200456452Y-104684555D01*
X200466840Y-104703991D01*
X200473236Y-104725072D01*
X200476000Y-104753140D01*
X200476000Y-105216860D01*
X200473236Y-105244928D01*
X200466840Y-105266009D01*
X200456452Y-105285445D01*
X200442476Y-105302476D01*
X200425445Y-105316452D01*
X200406009Y-105326840D01*
X200384928Y-105333236D01*
X200356860Y-105336000D01*
X198843140Y-105336000D01*
X198815072Y-105333236D01*
X198793991Y-105326840D01*
X198774555Y-105316452D01*
X198757524Y-105302476D01*
X198743548Y-105285445D01*
X198733160Y-105266009D01*
X198726764Y-105244928D01*
X198724000Y-105216860D01*
X198724000Y-104753140D01*
X198726764Y-104725072D01*
X198733160Y-104703991D01*
X198743548Y-104684555D01*
X198757524Y-104667524D01*
X198774555Y-104653548D01*
X198793991Y-104643160D01*
X198815072Y-104636764D01*
X198843140Y-104634000D01*
X200356860Y-104634000D01*
X200384928Y-104636764D01*
G37*
G36*
X205634928Y-104636764D02*
G01*
X205656009Y-104643160D01*
X205675445Y-104653548D01*
X205692476Y-104667524D01*
X205706452Y-104684555D01*
X205716840Y-104703991D01*
X205723236Y-104725072D01*
X205726000Y-104753140D01*
X205726000Y-105216860D01*
X205723236Y-105244928D01*
X205716840Y-105266009D01*
X205706452Y-105285445D01*
X205692476Y-105302476D01*
X205675445Y-105316452D01*
X205656009Y-105326840D01*
X205634928Y-105333236D01*
X205606860Y-105336000D01*
X204093140Y-105336000D01*
X204065072Y-105333236D01*
X204043991Y-105326840D01*
X204024555Y-105316452D01*
X204007524Y-105302476D01*
X203993548Y-105285445D01*
X203983160Y-105266009D01*
X203976764Y-105244928D01*
X203974000Y-105216860D01*
X203974000Y-104753140D01*
X203976764Y-104725072D01*
X203983160Y-104703991D01*
X203993548Y-104684555D01*
X204007524Y-104667524D01*
X204024555Y-104653548D01*
X204043991Y-104643160D01*
X204065072Y-104636764D01*
X204093140Y-104634000D01*
X205606860Y-104634000D01*
X205634928Y-104636764D01*
G37*
G36*
X197839499Y-104158445D02*
G01*
X197876995Y-104169820D01*
X197911554Y-104188292D01*
X197941847Y-104213153D01*
X197966708Y-104243446D01*
X197985180Y-104278005D01*
X197996555Y-104315501D01*
X198001000Y-104360638D01*
X198001000Y-105099362D01*
X197996555Y-105144499D01*
X197985180Y-105181995D01*
X197966708Y-105216554D01*
X197941847Y-105246847D01*
X197911554Y-105271708D01*
X197876995Y-105290180D01*
X197839499Y-105301555D01*
X197794362Y-105306000D01*
X197155638Y-105306000D01*
X197110501Y-105301555D01*
X197073005Y-105290180D01*
X197038446Y-105271708D01*
X197008153Y-105246847D01*
X196983292Y-105216554D01*
X196964820Y-105181995D01*
X196953445Y-105144499D01*
X196949000Y-105099362D01*
X196949000Y-104360638D01*
X196953445Y-104315501D01*
X196964820Y-104278005D01*
X196983292Y-104243446D01*
X197008153Y-104213153D01*
X197038446Y-104188292D01*
X197073005Y-104169820D01*
X197110501Y-104158445D01*
X197155638Y-104154000D01*
X197794362Y-104154000D01*
X197839499Y-104158445D01*
G37*
G36*
X194239499Y-104108445D02*
G01*
X194276995Y-104119820D01*
X194311554Y-104138292D01*
X194341847Y-104163153D01*
X194366708Y-104193446D01*
X194385180Y-104228005D01*
X194396555Y-104265501D01*
X194401000Y-104310638D01*
X194401000Y-104949362D01*
X194396555Y-104994499D01*
X194385180Y-105031995D01*
X194366708Y-105066554D01*
X194341847Y-105096847D01*
X194311554Y-105121708D01*
X194276995Y-105140180D01*
X194239499Y-105151555D01*
X194194362Y-105156000D01*
X193455638Y-105156000D01*
X193410501Y-105151555D01*
X193373005Y-105140180D01*
X193338446Y-105121708D01*
X193308153Y-105096847D01*
X193283292Y-105066554D01*
X193264820Y-105031995D01*
X193253445Y-104994499D01*
X193249000Y-104949362D01*
X193249000Y-104310638D01*
X193253445Y-104265501D01*
X193264820Y-104228005D01*
X193283292Y-104193446D01*
X193308153Y-104163153D01*
X193338446Y-104138292D01*
X193373005Y-104119820D01*
X193410501Y-104108445D01*
X193455638Y-104104000D01*
X194194362Y-104104000D01*
X194239499Y-104108445D01*
G37*
G36*
X195989499Y-104108445D02*
G01*
X196026995Y-104119820D01*
X196061554Y-104138292D01*
X196091847Y-104163153D01*
X196116708Y-104193446D01*
X196135180Y-104228005D01*
X196146555Y-104265501D01*
X196151000Y-104310638D01*
X196151000Y-104949362D01*
X196146555Y-104994499D01*
X196135180Y-105031995D01*
X196116708Y-105066554D01*
X196091847Y-105096847D01*
X196061554Y-105121708D01*
X196026995Y-105140180D01*
X195989499Y-105151555D01*
X195944362Y-105156000D01*
X195205638Y-105156000D01*
X195160501Y-105151555D01*
X195123005Y-105140180D01*
X195088446Y-105121708D01*
X195058153Y-105096847D01*
X195033292Y-105066554D01*
X195014820Y-105031995D01*
X195003445Y-104994499D01*
X194999000Y-104949362D01*
X194999000Y-104310638D01*
X195003445Y-104265501D01*
X195014820Y-104228005D01*
X195033292Y-104193446D01*
X195058153Y-104163153D01*
X195088446Y-104138292D01*
X195123005Y-104119820D01*
X195160501Y-104108445D01*
X195205638Y-104104000D01*
X195944362Y-104104000D01*
X195989499Y-104108445D01*
G37*
G36*
X181094928Y-102351764D02*
G01*
X181116009Y-102358160D01*
X181135445Y-102368548D01*
X181152476Y-102382524D01*
X181166452Y-102399555D01*
X181176840Y-102418991D01*
X181183236Y-102440072D01*
X181186000Y-102468140D01*
X181186000Y-104281860D01*
X181183236Y-104309928D01*
X181176840Y-104331009D01*
X181166452Y-104350445D01*
X181152476Y-104367476D01*
X181135445Y-104381452D01*
X181116009Y-104391840D01*
X181094928Y-104398236D01*
X181066860Y-104401000D01*
X180603140Y-104401000D01*
X180575072Y-104398236D01*
X180553991Y-104391840D01*
X180534555Y-104381452D01*
X180517524Y-104367476D01*
X180503548Y-104350445D01*
X180493160Y-104331009D01*
X180486764Y-104309928D01*
X180484000Y-104281860D01*
X180484000Y-102468140D01*
X180486764Y-102440072D01*
X180493160Y-102418991D01*
X180503548Y-102399555D01*
X180517524Y-102382524D01*
X180534555Y-102368548D01*
X180553991Y-102358160D01*
X180575072Y-102351764D01*
X180603140Y-102349000D01*
X181066860Y-102349000D01*
X181094928Y-102351764D01*
G37*
G36*
X178554928Y-102351764D02*
G01*
X178576009Y-102358160D01*
X178595445Y-102368548D01*
X178612476Y-102382524D01*
X178626452Y-102399555D01*
X178636840Y-102418991D01*
X178643236Y-102440072D01*
X178646000Y-102468140D01*
X178646000Y-104281860D01*
X178643236Y-104309928D01*
X178636840Y-104331009D01*
X178626452Y-104350445D01*
X178612476Y-104367476D01*
X178595445Y-104381452D01*
X178576009Y-104391840D01*
X178554928Y-104398236D01*
X178526860Y-104401000D01*
X178063140Y-104401000D01*
X178035072Y-104398236D01*
X178013991Y-104391840D01*
X177994555Y-104381452D01*
X177977524Y-104367476D01*
X177963548Y-104350445D01*
X177953160Y-104331009D01*
X177946764Y-104309928D01*
X177944000Y-104281860D01*
X177944000Y-102468140D01*
X177946764Y-102440072D01*
X177953160Y-102418991D01*
X177963548Y-102399555D01*
X177977524Y-102382524D01*
X177994555Y-102368548D01*
X178013991Y-102358160D01*
X178035072Y-102351764D01*
X178063140Y-102349000D01*
X178526860Y-102349000D01*
X178554928Y-102351764D01*
G37*
G36*
X179824928Y-102351764D02*
G01*
X179846009Y-102358160D01*
X179865445Y-102368548D01*
X179882476Y-102382524D01*
X179896452Y-102399555D01*
X179906840Y-102418991D01*
X179913236Y-102440072D01*
X179916000Y-102468140D01*
X179916000Y-104281860D01*
X179913236Y-104309928D01*
X179906840Y-104331009D01*
X179896452Y-104350445D01*
X179882476Y-104367476D01*
X179865445Y-104381452D01*
X179846009Y-104391840D01*
X179824928Y-104398236D01*
X179796860Y-104401000D01*
X179333140Y-104401000D01*
X179305072Y-104398236D01*
X179283991Y-104391840D01*
X179264555Y-104381452D01*
X179247524Y-104367476D01*
X179233548Y-104350445D01*
X179223160Y-104331009D01*
X179216764Y-104309928D01*
X179214000Y-104281860D01*
X179214000Y-102468140D01*
X179216764Y-102440072D01*
X179223160Y-102418991D01*
X179233548Y-102399555D01*
X179247524Y-102382524D01*
X179264555Y-102368548D01*
X179283991Y-102358160D01*
X179305072Y-102351764D01*
X179333140Y-102349000D01*
X179796860Y-102349000D01*
X179824928Y-102351764D01*
G37*
G36*
X182364928Y-102351764D02*
G01*
X182386009Y-102358160D01*
X182405445Y-102368548D01*
X182422476Y-102382524D01*
X182436452Y-102399555D01*
X182446840Y-102418991D01*
X182453236Y-102440072D01*
X182456000Y-102468140D01*
X182456000Y-104281860D01*
X182453236Y-104309928D01*
X182446840Y-104331009D01*
X182436452Y-104350445D01*
X182422476Y-104367476D01*
X182405445Y-104381452D01*
X182386009Y-104391840D01*
X182364928Y-104398236D01*
X182336860Y-104401000D01*
X181873140Y-104401000D01*
X181845072Y-104398236D01*
X181823991Y-104391840D01*
X181804555Y-104381452D01*
X181787524Y-104367476D01*
X181773548Y-104350445D01*
X181763160Y-104331009D01*
X181756764Y-104309928D01*
X181754000Y-104281860D01*
X181754000Y-102468140D01*
X181756764Y-102440072D01*
X181763160Y-102418991D01*
X181773548Y-102399555D01*
X181787524Y-102382524D01*
X181804555Y-102368548D01*
X181823991Y-102358160D01*
X181845072Y-102351764D01*
X181873140Y-102349000D01*
X182336860Y-102349000D01*
X182364928Y-102351764D01*
G37*
G36*
X191809928Y-103456764D02*
G01*
X191831009Y-103463160D01*
X191850445Y-103473548D01*
X191867476Y-103487524D01*
X191881452Y-103504555D01*
X191891840Y-103523991D01*
X191898236Y-103545072D01*
X191901000Y-103573140D01*
X191901000Y-104036860D01*
X191898236Y-104064928D01*
X191891840Y-104086009D01*
X191881452Y-104105445D01*
X191867476Y-104122476D01*
X191850445Y-104136452D01*
X191831009Y-104146840D01*
X191809928Y-104153236D01*
X191781860Y-104156000D01*
X189968140Y-104156000D01*
X189940072Y-104153236D01*
X189918991Y-104146840D01*
X189899555Y-104136452D01*
X189882524Y-104122476D01*
X189868548Y-104105445D01*
X189858160Y-104086009D01*
X189851764Y-104064928D01*
X189849000Y-104036860D01*
X189849000Y-103573140D01*
X189851764Y-103545072D01*
X189858160Y-103523991D01*
X189868548Y-103504555D01*
X189882524Y-103487524D01*
X189899555Y-103473548D01*
X189918991Y-103463160D01*
X189940072Y-103456764D01*
X189968140Y-103454000D01*
X191781860Y-103454000D01*
X191809928Y-103456764D01*
G37*
G36*
X186859928Y-103456764D02*
G01*
X186881009Y-103463160D01*
X186900445Y-103473548D01*
X186917476Y-103487524D01*
X186931452Y-103504555D01*
X186941840Y-103523991D01*
X186948236Y-103545072D01*
X186951000Y-103573140D01*
X186951000Y-104036860D01*
X186948236Y-104064928D01*
X186941840Y-104086009D01*
X186931452Y-104105445D01*
X186917476Y-104122476D01*
X186900445Y-104136452D01*
X186881009Y-104146840D01*
X186859928Y-104153236D01*
X186831860Y-104156000D01*
X185018140Y-104156000D01*
X184990072Y-104153236D01*
X184968991Y-104146840D01*
X184949555Y-104136452D01*
X184932524Y-104122476D01*
X184918548Y-104105445D01*
X184908160Y-104086009D01*
X184901764Y-104064928D01*
X184899000Y-104036860D01*
X184899000Y-103573140D01*
X184901764Y-103545072D01*
X184908160Y-103523991D01*
X184918548Y-103504555D01*
X184932524Y-103487524D01*
X184949555Y-103473548D01*
X184968991Y-103463160D01*
X184990072Y-103456764D01*
X185018140Y-103454000D01*
X186831860Y-103454000D01*
X186859928Y-103456764D01*
G37*
G36*
X205634928Y-103366764D02*
G01*
X205656009Y-103373160D01*
X205675445Y-103383548D01*
X205692476Y-103397524D01*
X205706452Y-103414555D01*
X205716840Y-103433991D01*
X205723236Y-103455072D01*
X205726000Y-103483140D01*
X205726000Y-103946860D01*
X205723236Y-103974928D01*
X205716840Y-103996009D01*
X205706452Y-104015445D01*
X205692476Y-104032476D01*
X205675445Y-104046452D01*
X205656009Y-104056840D01*
X205634928Y-104063236D01*
X205606860Y-104066000D01*
X204093140Y-104066000D01*
X204065072Y-104063236D01*
X204043991Y-104056840D01*
X204024555Y-104046452D01*
X204007524Y-104032476D01*
X203993548Y-104015445D01*
X203983160Y-103996009D01*
X203976764Y-103974928D01*
X203974000Y-103946860D01*
X203974000Y-103483140D01*
X203976764Y-103455072D01*
X203983160Y-103433991D01*
X203993548Y-103414555D01*
X204007524Y-103397524D01*
X204024555Y-103383548D01*
X204043991Y-103373160D01*
X204065072Y-103366764D01*
X204093140Y-103364000D01*
X205606860Y-103364000D01*
X205634928Y-103366764D01*
G37*
G36*
X200384928Y-103366764D02*
G01*
X200406009Y-103373160D01*
X200425445Y-103383548D01*
X200442476Y-103397524D01*
X200456452Y-103414555D01*
X200466840Y-103433991D01*
X200473236Y-103455072D01*
X200476000Y-103483140D01*
X200476000Y-103946860D01*
X200473236Y-103974928D01*
X200466840Y-103996009D01*
X200456452Y-104015445D01*
X200442476Y-104032476D01*
X200425445Y-104046452D01*
X200406009Y-104056840D01*
X200384928Y-104063236D01*
X200356860Y-104066000D01*
X198843140Y-104066000D01*
X198815072Y-104063236D01*
X198793991Y-104056840D01*
X198774555Y-104046452D01*
X198757524Y-104032476D01*
X198743548Y-104015445D01*
X198733160Y-103996009D01*
X198726764Y-103974928D01*
X198724000Y-103946860D01*
X198724000Y-103483140D01*
X198726764Y-103455072D01*
X198733160Y-103433991D01*
X198743548Y-103414555D01*
X198757524Y-103397524D01*
X198774555Y-103383548D01*
X198793991Y-103373160D01*
X198815072Y-103366764D01*
X198843140Y-103364000D01*
X200356860Y-103364000D01*
X200384928Y-103366764D01*
G37*
G36*
X207539499Y-102858445D02*
G01*
X207576995Y-102869820D01*
X207611554Y-102888292D01*
X207641847Y-102913153D01*
X207666708Y-102943446D01*
X207685180Y-102978005D01*
X207696555Y-103015501D01*
X207701000Y-103060638D01*
X207701000Y-103799362D01*
X207696555Y-103844499D01*
X207685180Y-103881995D01*
X207666708Y-103916554D01*
X207641847Y-103946847D01*
X207611554Y-103971708D01*
X207576995Y-103990180D01*
X207539499Y-104001555D01*
X207494362Y-104006000D01*
X206855638Y-104006000D01*
X206810501Y-104001555D01*
X206773005Y-103990180D01*
X206738446Y-103971708D01*
X206708153Y-103946847D01*
X206683292Y-103916554D01*
X206664820Y-103881995D01*
X206653445Y-103844499D01*
X206649000Y-103799362D01*
X206649000Y-103060638D01*
X206653445Y-103015501D01*
X206664820Y-102978005D01*
X206683292Y-102943446D01*
X206708153Y-102913153D01*
X206738446Y-102888292D01*
X206773005Y-102869820D01*
X206810501Y-102858445D01*
X206855638Y-102854000D01*
X207494362Y-102854000D01*
X207539499Y-102858445D01*
G37*
G36*
X146401000Y-103601000D02*
G01*
X145499000Y-103601000D01*
X145499000Y-102599000D01*
X146401000Y-102599000D01*
X146401000Y-103601000D01*
G37*
G36*
X148301000Y-103601000D02*
G01*
X147399000Y-103601000D01*
X147399000Y-102599000D01*
X148301000Y-102599000D01*
X148301000Y-103601000D01*
G37*
G36*
X197639499Y-101808445D02*
G01*
X197676995Y-101819820D01*
X197711554Y-101838292D01*
X197741847Y-101863153D01*
X197766708Y-101893446D01*
X197785180Y-101928005D01*
X197796555Y-101965501D01*
X197801000Y-102010638D01*
X197801000Y-102749362D01*
X197796555Y-102794499D01*
X197785180Y-102831995D01*
X197766708Y-102866554D01*
X197741847Y-102896847D01*
X197711554Y-102921708D01*
X197676995Y-102940180D01*
X197639499Y-102951555D01*
X197594362Y-102956000D01*
X196955638Y-102956000D01*
X196910501Y-102951555D01*
X196873005Y-102940180D01*
X196838446Y-102921708D01*
X196808153Y-102896847D01*
X196783292Y-102866554D01*
X196764820Y-102831995D01*
X196753445Y-102794499D01*
X196749000Y-102749362D01*
X196749000Y-102010638D01*
X196753445Y-101965501D01*
X196764820Y-101928005D01*
X196783292Y-101893446D01*
X196808153Y-101863153D01*
X196838446Y-101838292D01*
X196873005Y-101819820D01*
X196910501Y-101808445D01*
X196955638Y-101804000D01*
X197594362Y-101804000D01*
X197639499Y-101808445D01*
G37*
G36*
X191809928Y-102186764D02*
G01*
X191831009Y-102193160D01*
X191850445Y-102203548D01*
X191867476Y-102217524D01*
X191881452Y-102234555D01*
X191891840Y-102253991D01*
X191898236Y-102275072D01*
X191901000Y-102303140D01*
X191901000Y-102766860D01*
X191898236Y-102794928D01*
X191891840Y-102816009D01*
X191881452Y-102835445D01*
X191867476Y-102852476D01*
X191850445Y-102866452D01*
X191831009Y-102876840D01*
X191809928Y-102883236D01*
X191781860Y-102886000D01*
X189968140Y-102886000D01*
X189940072Y-102883236D01*
X189918991Y-102876840D01*
X189899555Y-102866452D01*
X189882524Y-102852476D01*
X189868548Y-102835445D01*
X189858160Y-102816009D01*
X189851764Y-102794928D01*
X189849000Y-102766860D01*
X189849000Y-102303140D01*
X189851764Y-102275072D01*
X189858160Y-102253991D01*
X189868548Y-102234555D01*
X189882524Y-102217524D01*
X189899555Y-102203548D01*
X189918991Y-102193160D01*
X189940072Y-102186764D01*
X189968140Y-102184000D01*
X191781860Y-102184000D01*
X191809928Y-102186764D01*
G37*
G36*
X186859928Y-102186764D02*
G01*
X186881009Y-102193160D01*
X186900445Y-102203548D01*
X186917476Y-102217524D01*
X186931452Y-102234555D01*
X186941840Y-102253991D01*
X186948236Y-102275072D01*
X186951000Y-102303140D01*
X186951000Y-102766860D01*
X186948236Y-102794928D01*
X186941840Y-102816009D01*
X186931452Y-102835445D01*
X186917476Y-102852476D01*
X186900445Y-102866452D01*
X186881009Y-102876840D01*
X186859928Y-102883236D01*
X186831860Y-102886000D01*
X185018140Y-102886000D01*
X184990072Y-102883236D01*
X184968991Y-102876840D01*
X184949555Y-102866452D01*
X184932524Y-102852476D01*
X184918548Y-102835445D01*
X184908160Y-102816009D01*
X184901764Y-102794928D01*
X184899000Y-102766860D01*
X184899000Y-102303140D01*
X184901764Y-102275072D01*
X184908160Y-102253991D01*
X184918548Y-102234555D01*
X184932524Y-102217524D01*
X184949555Y-102203548D01*
X184968991Y-102193160D01*
X184990072Y-102186764D01*
X185018140Y-102184000D01*
X186831860Y-102184000D01*
X186859928Y-102186764D01*
G37*
G36*
X205634928Y-102096764D02*
G01*
X205656009Y-102103160D01*
X205675445Y-102113548D01*
X205692476Y-102127524D01*
X205706452Y-102144555D01*
X205716840Y-102163991D01*
X205723236Y-102185072D01*
X205726000Y-102213140D01*
X205726000Y-102676860D01*
X205723236Y-102704928D01*
X205716840Y-102726009D01*
X205706452Y-102745445D01*
X205692476Y-102762476D01*
X205675445Y-102776452D01*
X205656009Y-102786840D01*
X205634928Y-102793236D01*
X205606860Y-102796000D01*
X204093140Y-102796000D01*
X204065072Y-102793236D01*
X204043991Y-102786840D01*
X204024555Y-102776452D01*
X204007524Y-102762476D01*
X203993548Y-102745445D01*
X203983160Y-102726009D01*
X203976764Y-102704928D01*
X203974000Y-102676860D01*
X203974000Y-102213140D01*
X203976764Y-102185072D01*
X203983160Y-102163991D01*
X203993548Y-102144555D01*
X204007524Y-102127524D01*
X204024555Y-102113548D01*
X204043991Y-102103160D01*
X204065072Y-102096764D01*
X204093140Y-102094000D01*
X205606860Y-102094000D01*
X205634928Y-102096764D01*
G37*
G36*
X200384928Y-102096764D02*
G01*
X200406009Y-102103160D01*
X200425445Y-102113548D01*
X200442476Y-102127524D01*
X200456452Y-102144555D01*
X200466840Y-102163991D01*
X200473236Y-102185072D01*
X200476000Y-102213140D01*
X200476000Y-102676860D01*
X200473236Y-102704928D01*
X200466840Y-102726009D01*
X200456452Y-102745445D01*
X200442476Y-102762476D01*
X200425445Y-102776452D01*
X200406009Y-102786840D01*
X200384928Y-102793236D01*
X200356860Y-102796000D01*
X198843140Y-102796000D01*
X198815072Y-102793236D01*
X198793991Y-102786840D01*
X198774555Y-102776452D01*
X198757524Y-102762476D01*
X198743548Y-102745445D01*
X198733160Y-102726009D01*
X198726764Y-102704928D01*
X198724000Y-102676860D01*
X198724000Y-102213140D01*
X198726764Y-102185072D01*
X198733160Y-102163991D01*
X198743548Y-102144555D01*
X198757524Y-102127524D01*
X198774555Y-102113548D01*
X198793991Y-102103160D01*
X198815072Y-102096764D01*
X198843140Y-102094000D01*
X200356860Y-102094000D01*
X200384928Y-102096764D01*
G37*
G36*
X117144098Y-97447033D02*
G01*
X117451831Y-97574500D01*
X117608352Y-97639333D01*
X118026168Y-97918509D01*
X118381491Y-98273832D01*
X118660667Y-98691648D01*
X118660668Y-98691650D01*
X118852967Y-99155902D01*
X118951000Y-99648747D01*
X118951000Y-100151253D01*
X118852967Y-100644098D01*
X118668635Y-101089115D01*
X118660667Y-101108352D01*
X118381491Y-101526168D01*
X118026168Y-101881491D01*
X117608352Y-102160667D01*
X117608351Y-102160668D01*
X117608350Y-102160668D01*
X117144098Y-102352967D01*
X116651253Y-102451000D01*
X116148747Y-102451000D01*
X115655902Y-102352967D01*
X115191650Y-102160668D01*
X115191649Y-102160668D01*
X115191648Y-102160667D01*
X114773832Y-101881491D01*
X114418509Y-101526168D01*
X114139333Y-101108352D01*
X114131365Y-101089115D01*
X113947033Y-100644098D01*
X113849000Y-100151253D01*
X113849000Y-99648747D01*
X113947033Y-99155902D01*
X114139332Y-98691650D01*
X114139333Y-98691648D01*
X114418509Y-98273832D01*
X114773832Y-97918509D01*
X115191648Y-97639333D01*
X115348169Y-97574500D01*
X115655902Y-97447033D01*
X116148747Y-97349000D01*
X116651253Y-97349000D01*
X117144098Y-97447033D01*
G37*
G36*
X207539499Y-101108445D02*
G01*
X207576995Y-101119820D01*
X207611554Y-101138292D01*
X207641847Y-101163153D01*
X207666708Y-101193446D01*
X207685180Y-101228005D01*
X207696555Y-101265501D01*
X207701000Y-101310638D01*
X207701000Y-102049362D01*
X207696555Y-102094499D01*
X207685180Y-102131995D01*
X207666708Y-102166554D01*
X207641847Y-102196847D01*
X207611554Y-102221708D01*
X207576995Y-102240180D01*
X207539499Y-102251555D01*
X207494362Y-102256000D01*
X206855638Y-102256000D01*
X206810501Y-102251555D01*
X206773005Y-102240180D01*
X206738446Y-102221708D01*
X206708153Y-102196847D01*
X206683292Y-102166554D01*
X206664820Y-102131995D01*
X206653445Y-102094499D01*
X206649000Y-102049362D01*
X206649000Y-101310638D01*
X206653445Y-101265501D01*
X206664820Y-101228005D01*
X206683292Y-101193446D01*
X206708153Y-101163153D01*
X206738446Y-101138292D01*
X206773005Y-101119820D01*
X206810501Y-101108445D01*
X206855638Y-101104000D01*
X207494362Y-101104000D01*
X207539499Y-101108445D01*
G37*
G36*
X193964499Y-101103445D02*
G01*
X194001995Y-101114820D01*
X194036554Y-101133292D01*
X194066847Y-101158153D01*
X194091708Y-101188446D01*
X194110180Y-101223005D01*
X194121555Y-101260501D01*
X194126000Y-101305638D01*
X194126000Y-102044362D01*
X194121555Y-102089499D01*
X194110180Y-102126995D01*
X194091708Y-102161554D01*
X194066847Y-102191847D01*
X194036554Y-102216708D01*
X194001995Y-102235180D01*
X193964499Y-102246555D01*
X193919362Y-102251000D01*
X193280638Y-102251000D01*
X193235501Y-102246555D01*
X193198005Y-102235180D01*
X193163446Y-102216708D01*
X193133153Y-102191847D01*
X193108292Y-102161554D01*
X193089820Y-102126995D01*
X193078445Y-102089499D01*
X193074000Y-102044362D01*
X193074000Y-101305638D01*
X193078445Y-101260501D01*
X193089820Y-101223005D01*
X193108292Y-101188446D01*
X193133153Y-101158153D01*
X193163446Y-101133292D01*
X193198005Y-101114820D01*
X193235501Y-101103445D01*
X193280638Y-101099000D01*
X193919362Y-101099000D01*
X193964499Y-101103445D01*
G37*
G36*
X191809928Y-100916764D02*
G01*
X191831009Y-100923160D01*
X191850445Y-100933548D01*
X191867476Y-100947524D01*
X191881452Y-100964555D01*
X191891840Y-100983991D01*
X191898236Y-101005072D01*
X191901000Y-101033140D01*
X191901000Y-101496860D01*
X191898236Y-101524928D01*
X191891840Y-101546009D01*
X191881452Y-101565445D01*
X191867476Y-101582476D01*
X191850445Y-101596452D01*
X191831009Y-101606840D01*
X191809928Y-101613236D01*
X191781860Y-101616000D01*
X189968140Y-101616000D01*
X189940072Y-101613236D01*
X189918991Y-101606840D01*
X189899555Y-101596452D01*
X189882524Y-101582476D01*
X189868548Y-101565445D01*
X189858160Y-101546009D01*
X189851764Y-101524928D01*
X189849000Y-101496860D01*
X189849000Y-101033140D01*
X189851764Y-101005072D01*
X189858160Y-100983991D01*
X189868548Y-100964555D01*
X189882524Y-100947524D01*
X189899555Y-100933548D01*
X189918991Y-100923160D01*
X189940072Y-100916764D01*
X189968140Y-100914000D01*
X191781860Y-100914000D01*
X191809928Y-100916764D01*
G37*
G36*
X186859928Y-100916764D02*
G01*
X186881009Y-100923160D01*
X186900445Y-100933548D01*
X186917476Y-100947524D01*
X186931452Y-100964555D01*
X186941840Y-100983991D01*
X186948236Y-101005072D01*
X186951000Y-101033140D01*
X186951000Y-101496860D01*
X186948236Y-101524928D01*
X186941840Y-101546009D01*
X186931452Y-101565445D01*
X186917476Y-101582476D01*
X186900445Y-101596452D01*
X186881009Y-101606840D01*
X186859928Y-101613236D01*
X186831860Y-101616000D01*
X185018140Y-101616000D01*
X184990072Y-101613236D01*
X184968991Y-101606840D01*
X184949555Y-101596452D01*
X184932524Y-101582476D01*
X184918548Y-101565445D01*
X184908160Y-101546009D01*
X184901764Y-101524928D01*
X184899000Y-101496860D01*
X184899000Y-101033140D01*
X184901764Y-101005072D01*
X184908160Y-100983991D01*
X184918548Y-100964555D01*
X184932524Y-100947524D01*
X184949555Y-100933548D01*
X184968991Y-100923160D01*
X184990072Y-100916764D01*
X185018140Y-100914000D01*
X186831860Y-100914000D01*
X186859928Y-100916764D01*
G37*
G36*
X145989499Y-100478445D02*
G01*
X146026995Y-100489820D01*
X146061554Y-100508292D01*
X146091847Y-100533153D01*
X146116708Y-100563446D01*
X146135180Y-100598005D01*
X146146555Y-100635501D01*
X146151000Y-100680638D01*
X146151000Y-101319362D01*
X146146555Y-101364499D01*
X146135180Y-101401995D01*
X146116708Y-101436554D01*
X146091847Y-101466847D01*
X146061554Y-101491708D01*
X146026995Y-101510180D01*
X145989499Y-101521555D01*
X145944362Y-101526000D01*
X145205638Y-101526000D01*
X145160501Y-101521555D01*
X145123005Y-101510180D01*
X145088446Y-101491708D01*
X145058153Y-101466847D01*
X145033292Y-101436554D01*
X145014820Y-101401995D01*
X145003445Y-101364499D01*
X144999000Y-101319362D01*
X144999000Y-100680638D01*
X145003445Y-100635501D01*
X145014820Y-100598005D01*
X145033292Y-100563446D01*
X145058153Y-100533153D01*
X145088446Y-100508292D01*
X145123005Y-100489820D01*
X145160501Y-100478445D01*
X145205638Y-100474000D01*
X145944362Y-100474000D01*
X145989499Y-100478445D01*
G37*
G36*
X144239499Y-100478445D02*
G01*
X144276995Y-100489820D01*
X144311554Y-100508292D01*
X144341847Y-100533153D01*
X144366708Y-100563446D01*
X144385180Y-100598005D01*
X144396555Y-100635501D01*
X144401000Y-100680638D01*
X144401000Y-101319362D01*
X144396555Y-101364499D01*
X144385180Y-101401995D01*
X144366708Y-101436554D01*
X144341847Y-101466847D01*
X144311554Y-101491708D01*
X144276995Y-101510180D01*
X144239499Y-101521555D01*
X144194362Y-101526000D01*
X143455638Y-101526000D01*
X143410501Y-101521555D01*
X143373005Y-101510180D01*
X143338446Y-101491708D01*
X143308153Y-101466847D01*
X143283292Y-101436554D01*
X143264820Y-101401995D01*
X143253445Y-101364499D01*
X143249000Y-101319362D01*
X143249000Y-100680638D01*
X143253445Y-100635501D01*
X143264820Y-100598005D01*
X143283292Y-100563446D01*
X143308153Y-100533153D01*
X143338446Y-100508292D01*
X143373005Y-100489820D01*
X143410501Y-100478445D01*
X143455638Y-100474000D01*
X144194362Y-100474000D01*
X144239499Y-100478445D01*
G37*
G36*
X197639499Y-100058445D02*
G01*
X197676995Y-100069820D01*
X197711554Y-100088292D01*
X197741847Y-100113153D01*
X197766708Y-100143446D01*
X197785180Y-100178005D01*
X197796555Y-100215501D01*
X197801000Y-100260638D01*
X197801000Y-100999362D01*
X197796555Y-101044499D01*
X197785180Y-101081995D01*
X197766708Y-101116554D01*
X197741847Y-101146847D01*
X197711554Y-101171708D01*
X197676995Y-101190180D01*
X197639499Y-101201555D01*
X197594362Y-101206000D01*
X196955638Y-101206000D01*
X196910501Y-101201555D01*
X196873005Y-101190180D01*
X196838446Y-101171708D01*
X196808153Y-101146847D01*
X196783292Y-101116554D01*
X196764820Y-101081995D01*
X196753445Y-101044499D01*
X196749000Y-100999362D01*
X196749000Y-100260638D01*
X196753445Y-100215501D01*
X196764820Y-100178005D01*
X196783292Y-100143446D01*
X196808153Y-100113153D01*
X196838446Y-100088292D01*
X196873005Y-100069820D01*
X196910501Y-100058445D01*
X196955638Y-100054000D01*
X197594362Y-100054000D01*
X197639499Y-100058445D01*
G37*
G36*
X193964499Y-99353445D02*
G01*
X194001995Y-99364820D01*
X194036554Y-99383292D01*
X194066847Y-99408153D01*
X194091708Y-99438446D01*
X194110180Y-99473005D01*
X194121555Y-99510501D01*
X194126000Y-99555638D01*
X194126000Y-100294362D01*
X194121555Y-100339499D01*
X194110180Y-100376995D01*
X194091708Y-100411554D01*
X194066847Y-100441847D01*
X194036554Y-100466708D01*
X194001995Y-100485180D01*
X193964499Y-100496555D01*
X193919362Y-100501000D01*
X193280638Y-100501000D01*
X193235501Y-100496555D01*
X193198005Y-100485180D01*
X193163446Y-100466708D01*
X193133153Y-100441847D01*
X193108292Y-100411554D01*
X193089820Y-100376995D01*
X193078445Y-100339499D01*
X193074000Y-100294362D01*
X193074000Y-99555638D01*
X193078445Y-99510501D01*
X193089820Y-99473005D01*
X193108292Y-99438446D01*
X193133153Y-99408153D01*
X193163446Y-99383292D01*
X193198005Y-99364820D01*
X193235501Y-99353445D01*
X193280638Y-99349000D01*
X193919362Y-99349000D01*
X193964499Y-99353445D01*
G37*
G36*
X186859928Y-99646764D02*
G01*
X186881009Y-99653160D01*
X186900445Y-99663548D01*
X186917476Y-99677524D01*
X186931452Y-99694555D01*
X186941840Y-99713991D01*
X186948236Y-99735072D01*
X186951000Y-99763140D01*
X186951000Y-100226860D01*
X186948236Y-100254928D01*
X186941840Y-100276009D01*
X186931452Y-100295445D01*
X186917476Y-100312476D01*
X186900445Y-100326452D01*
X186881009Y-100336840D01*
X186859928Y-100343236D01*
X186831860Y-100346000D01*
X185018140Y-100346000D01*
X184990072Y-100343236D01*
X184968991Y-100336840D01*
X184949555Y-100326452D01*
X184932524Y-100312476D01*
X184918548Y-100295445D01*
X184908160Y-100276009D01*
X184901764Y-100254928D01*
X184899000Y-100226860D01*
X184899000Y-99763140D01*
X184901764Y-99735072D01*
X184908160Y-99713991D01*
X184918548Y-99694555D01*
X184932524Y-99677524D01*
X184949555Y-99663548D01*
X184968991Y-99653160D01*
X184990072Y-99646764D01*
X185018140Y-99644000D01*
X186831860Y-99644000D01*
X186859928Y-99646764D01*
G37*
G36*
X191809928Y-99646764D02*
G01*
X191831009Y-99653160D01*
X191850445Y-99663548D01*
X191867476Y-99677524D01*
X191881452Y-99694555D01*
X191891840Y-99713991D01*
X191898236Y-99735072D01*
X191901000Y-99763140D01*
X191901000Y-100226860D01*
X191898236Y-100254928D01*
X191891840Y-100276009D01*
X191881452Y-100295445D01*
X191867476Y-100312476D01*
X191850445Y-100326452D01*
X191831009Y-100336840D01*
X191809928Y-100343236D01*
X191781860Y-100346000D01*
X189968140Y-100346000D01*
X189940072Y-100343236D01*
X189918991Y-100336840D01*
X189899555Y-100326452D01*
X189882524Y-100312476D01*
X189868548Y-100295445D01*
X189858160Y-100276009D01*
X189851764Y-100254928D01*
X189849000Y-100226860D01*
X189849000Y-99763140D01*
X189851764Y-99735072D01*
X189858160Y-99713991D01*
X189868548Y-99694555D01*
X189882524Y-99677524D01*
X189899555Y-99663548D01*
X189918991Y-99653160D01*
X189940072Y-99646764D01*
X189968140Y-99644000D01*
X191781860Y-99644000D01*
X191809928Y-99646764D01*
G37*
G36*
X146339499Y-98778445D02*
G01*
X146376995Y-98789820D01*
X146411554Y-98808292D01*
X146441847Y-98833153D01*
X146466708Y-98863446D01*
X146485180Y-98898005D01*
X146496555Y-98935501D01*
X146501000Y-98980638D01*
X146501000Y-99619362D01*
X146496555Y-99664499D01*
X146485180Y-99701995D01*
X146466708Y-99736554D01*
X146441847Y-99766847D01*
X146411554Y-99791708D01*
X146376995Y-99810180D01*
X146339499Y-99821555D01*
X146294362Y-99826000D01*
X145555638Y-99826000D01*
X145510501Y-99821555D01*
X145473005Y-99810180D01*
X145438446Y-99791708D01*
X145408153Y-99766847D01*
X145383292Y-99736554D01*
X145364820Y-99701995D01*
X145353445Y-99664499D01*
X145349000Y-99619362D01*
X145349000Y-98980638D01*
X145353445Y-98935501D01*
X145364820Y-98898005D01*
X145383292Y-98863446D01*
X145408153Y-98833153D01*
X145438446Y-98808292D01*
X145473005Y-98789820D01*
X145510501Y-98778445D01*
X145555638Y-98774000D01*
X146294362Y-98774000D01*
X146339499Y-98778445D01*
G37*
G36*
X148089499Y-98778445D02*
G01*
X148126995Y-98789820D01*
X148161554Y-98808292D01*
X148191847Y-98833153D01*
X148216708Y-98863446D01*
X148235180Y-98898005D01*
X148246555Y-98935501D01*
X148251000Y-98980638D01*
X148251000Y-99619362D01*
X148246555Y-99664499D01*
X148235180Y-99701995D01*
X148216708Y-99736554D01*
X148191847Y-99766847D01*
X148161554Y-99791708D01*
X148126995Y-99810180D01*
X148089499Y-99821555D01*
X148044362Y-99826000D01*
X147305638Y-99826000D01*
X147260501Y-99821555D01*
X147223005Y-99810180D01*
X147188446Y-99791708D01*
X147158153Y-99766847D01*
X147133292Y-99736554D01*
X147114820Y-99701995D01*
X147103445Y-99664499D01*
X147099000Y-99619362D01*
X147099000Y-98980638D01*
X147103445Y-98935501D01*
X147114820Y-98898005D01*
X147133292Y-98863446D01*
X147158153Y-98833153D01*
X147188446Y-98808292D01*
X147223005Y-98789820D01*
X147260501Y-98778445D01*
X147305638Y-98774000D01*
X148044362Y-98774000D01*
X148089499Y-98778445D01*
G37*
G36*
X181094928Y-97401764D02*
G01*
X181116009Y-97408160D01*
X181135445Y-97418548D01*
X181152476Y-97432524D01*
X181166452Y-97449555D01*
X181176840Y-97468991D01*
X181183236Y-97490072D01*
X181186000Y-97518140D01*
X181186000Y-99331860D01*
X181183236Y-99359928D01*
X181176840Y-99381009D01*
X181166452Y-99400445D01*
X181152476Y-99417476D01*
X181135445Y-99431452D01*
X181116009Y-99441840D01*
X181094928Y-99448236D01*
X181066860Y-99451000D01*
X180603140Y-99451000D01*
X180575072Y-99448236D01*
X180553991Y-99441840D01*
X180534555Y-99431452D01*
X180517524Y-99417476D01*
X180503548Y-99400445D01*
X180493160Y-99381009D01*
X180486764Y-99359928D01*
X180484000Y-99331860D01*
X180484000Y-97518140D01*
X180486764Y-97490072D01*
X180493160Y-97468991D01*
X180503548Y-97449555D01*
X180517524Y-97432524D01*
X180534555Y-97418548D01*
X180553991Y-97408160D01*
X180575072Y-97401764D01*
X180603140Y-97399000D01*
X181066860Y-97399000D01*
X181094928Y-97401764D01*
G37*
G36*
X178554928Y-97401764D02*
G01*
X178576009Y-97408160D01*
X178595445Y-97418548D01*
X178612476Y-97432524D01*
X178626452Y-97449555D01*
X178636840Y-97468991D01*
X178643236Y-97490072D01*
X178646000Y-97518140D01*
X178646000Y-99331860D01*
X178643236Y-99359928D01*
X178636840Y-99381009D01*
X178626452Y-99400445D01*
X178612476Y-99417476D01*
X178595445Y-99431452D01*
X178576009Y-99441840D01*
X178554928Y-99448236D01*
X178526860Y-99451000D01*
X178063140Y-99451000D01*
X178035072Y-99448236D01*
X178013991Y-99441840D01*
X177994555Y-99431452D01*
X177977524Y-99417476D01*
X177963548Y-99400445D01*
X177953160Y-99381009D01*
X177946764Y-99359928D01*
X177944000Y-99331860D01*
X177944000Y-97518140D01*
X177946764Y-97490072D01*
X177953160Y-97468991D01*
X177963548Y-97449555D01*
X177977524Y-97432524D01*
X177994555Y-97418548D01*
X178013991Y-97408160D01*
X178035072Y-97401764D01*
X178063140Y-97399000D01*
X178526860Y-97399000D01*
X178554928Y-97401764D01*
G37*
G36*
X182364928Y-97401764D02*
G01*
X182386009Y-97408160D01*
X182405445Y-97418548D01*
X182422476Y-97432524D01*
X182436452Y-97449555D01*
X182446840Y-97468991D01*
X182453236Y-97490072D01*
X182456000Y-97518140D01*
X182456000Y-99331860D01*
X182453236Y-99359928D01*
X182446840Y-99381009D01*
X182436452Y-99400445D01*
X182422476Y-99417476D01*
X182405445Y-99431452D01*
X182386009Y-99441840D01*
X182364928Y-99448236D01*
X182336860Y-99451000D01*
X181873140Y-99451000D01*
X181845072Y-99448236D01*
X181823991Y-99441840D01*
X181804555Y-99431452D01*
X181787524Y-99417476D01*
X181773548Y-99400445D01*
X181763160Y-99381009D01*
X181756764Y-99359928D01*
X181754000Y-99331860D01*
X181754000Y-97518140D01*
X181756764Y-97490072D01*
X181763160Y-97468991D01*
X181773548Y-97449555D01*
X181787524Y-97432524D01*
X181804555Y-97418548D01*
X181823991Y-97408160D01*
X181845072Y-97401764D01*
X181873140Y-97399000D01*
X182336860Y-97399000D01*
X182364928Y-97401764D01*
G37*
G36*
X179824928Y-97401764D02*
G01*
X179846009Y-97408160D01*
X179865445Y-97418548D01*
X179882476Y-97432524D01*
X179896452Y-97449555D01*
X179906840Y-97468991D01*
X179913236Y-97490072D01*
X179916000Y-97518140D01*
X179916000Y-99331860D01*
X179913236Y-99359928D01*
X179906840Y-99381009D01*
X179896452Y-99400445D01*
X179882476Y-99417476D01*
X179865445Y-99431452D01*
X179846009Y-99441840D01*
X179824928Y-99448236D01*
X179796860Y-99451000D01*
X179333140Y-99451000D01*
X179305072Y-99448236D01*
X179283991Y-99441840D01*
X179264555Y-99431452D01*
X179247524Y-99417476D01*
X179233548Y-99400445D01*
X179223160Y-99381009D01*
X179216764Y-99359928D01*
X179214000Y-99331860D01*
X179214000Y-97518140D01*
X179216764Y-97490072D01*
X179223160Y-97468991D01*
X179233548Y-97449555D01*
X179247524Y-97432524D01*
X179264555Y-97418548D01*
X179283991Y-97408160D01*
X179305072Y-97401764D01*
X179333140Y-97399000D01*
X179796860Y-97399000D01*
X179824928Y-97401764D01*
G37*
G36*
X168041000Y-99126000D02*
G01*
X166339000Y-99126000D01*
X166339000Y-96824000D01*
X168041000Y-96824000D01*
X168041000Y-99126000D01*
G37*
G36*
X170581000Y-99126000D02*
G01*
X168879000Y-99126000D01*
X168879000Y-96824000D01*
X170581000Y-96824000D01*
X170581000Y-99126000D01*
G37*
G36*
X175661000Y-99126000D02*
G01*
X173959000Y-99126000D01*
X173959000Y-96824000D01*
X175661000Y-96824000D01*
X175661000Y-99126000D01*
G37*
G36*
X173121000Y-99126000D02*
G01*
X171419000Y-99126000D01*
X171419000Y-96824000D01*
X173121000Y-96824000D01*
X173121000Y-99126000D01*
G37*
G36*
X161821000Y-99026000D02*
G01*
X160119000Y-99026000D01*
X160119000Y-96724000D01*
X161821000Y-96724000D01*
X161821000Y-99026000D01*
G37*
G36*
X156741000Y-99026000D02*
G01*
X155039000Y-99026000D01*
X155039000Y-96724000D01*
X156741000Y-96724000D01*
X156741000Y-99026000D01*
G37*
G36*
X159281000Y-99026000D02*
G01*
X157579000Y-99026000D01*
X157579000Y-96724000D01*
X159281000Y-96724000D01*
X159281000Y-99026000D01*
G37*
G36*
X164361000Y-99026000D02*
G01*
X162659000Y-99026000D01*
X162659000Y-96724000D01*
X164361000Y-96724000D01*
X164361000Y-99026000D01*
G37*
G36*
X133653512Y-97103927D02*
G01*
X133802812Y-97133624D01*
X133966784Y-97201544D01*
X134114354Y-97300147D01*
X134239853Y-97425646D01*
X134338456Y-97573216D01*
X134406376Y-97737188D01*
X134432072Y-97866375D01*
X134438960Y-97901000D01*
X134441000Y-97911259D01*
X134441000Y-98088741D01*
X134406376Y-98262812D01*
X134338456Y-98426784D01*
X134239853Y-98574354D01*
X134114354Y-98699853D01*
X133966784Y-98798456D01*
X133802812Y-98866376D01*
X133653512Y-98896073D01*
X133628742Y-98901000D01*
X133451258Y-98901000D01*
X133426488Y-98896073D01*
X133277188Y-98866376D01*
X133113216Y-98798456D01*
X132965646Y-98699853D01*
X132840147Y-98574354D01*
X132741544Y-98426784D01*
X132673624Y-98262812D01*
X132639000Y-98088741D01*
X132639000Y-97911259D01*
X132641041Y-97901000D01*
X132647928Y-97866375D01*
X132673624Y-97737188D01*
X132741544Y-97573216D01*
X132840147Y-97425646D01*
X132965646Y-97300147D01*
X133113216Y-97201544D01*
X133277188Y-97133624D01*
X133426488Y-97103927D01*
X133451258Y-97099000D01*
X133628742Y-97099000D01*
X133653512Y-97103927D01*
G37*
G36*
X131901000Y-98901000D02*
G01*
X130099000Y-98901000D01*
X130099000Y-97099000D01*
X131901000Y-97099000D01*
X131901000Y-98901000D01*
G37*
G36*
X191801000Y-97901000D02*
G01*
X189999000Y-97901000D01*
X189999000Y-96099000D01*
X191801000Y-96099000D01*
X191801000Y-97901000D01*
G37*
G36*
X193553512Y-96103927D02*
G01*
X193702812Y-96133624D01*
X193866784Y-96201544D01*
X194014354Y-96300147D01*
X194139853Y-96425646D01*
X194238456Y-96573216D01*
X194306376Y-96737188D01*
X194336073Y-96886488D01*
X194341000Y-96911258D01*
X194341000Y-97088742D01*
X194336073Y-97113512D01*
X194306376Y-97262812D01*
X194238456Y-97426784D01*
X194139853Y-97574354D01*
X194014354Y-97699853D01*
X193866784Y-97798456D01*
X193702812Y-97866376D01*
X193553512Y-97896073D01*
X193528742Y-97901000D01*
X193351258Y-97901000D01*
X193326488Y-97896073D01*
X193177188Y-97866376D01*
X193013216Y-97798456D01*
X192865646Y-97699853D01*
X192740147Y-97574354D01*
X192641544Y-97426784D01*
X192573624Y-97262812D01*
X192543927Y-97113512D01*
X192539000Y-97088742D01*
X192539000Y-96911258D01*
X192543927Y-96886488D01*
X192573624Y-96737188D01*
X192641544Y-96573216D01*
X192740147Y-96425646D01*
X192865646Y-96300147D01*
X193013216Y-96201544D01*
X193177188Y-96133624D01*
X193326488Y-96103927D01*
X193351258Y-96099000D01*
X193528742Y-96099000D01*
X193553512Y-96103927D01*
G37*
G36*
X152501000Y-97661000D02*
G01*
X150199000Y-97661000D01*
X150199000Y-95959000D01*
X152501000Y-95959000D01*
X152501000Y-97661000D01*
G37*
G36*
X143801000Y-97661000D02*
G01*
X141499000Y-97661000D01*
X141499000Y-95959000D01*
X143801000Y-95959000D01*
X143801000Y-97661000D01*
G37*
G36*
X186139499Y-96478445D02*
G01*
X186176995Y-96489820D01*
X186211554Y-96508292D01*
X186241847Y-96533153D01*
X186266708Y-96563446D01*
X186285180Y-96598005D01*
X186296555Y-96635501D01*
X186301000Y-96680638D01*
X186301000Y-97319362D01*
X186296555Y-97364499D01*
X186285180Y-97401995D01*
X186266708Y-97436554D01*
X186241847Y-97466847D01*
X186211554Y-97491708D01*
X186176995Y-97510180D01*
X186139499Y-97521555D01*
X186094362Y-97526000D01*
X185355638Y-97526000D01*
X185310501Y-97521555D01*
X185273005Y-97510180D01*
X185238446Y-97491708D01*
X185208153Y-97466847D01*
X185183292Y-97436554D01*
X185164820Y-97401995D01*
X185153445Y-97364499D01*
X185149000Y-97319362D01*
X185149000Y-96680638D01*
X185153445Y-96635501D01*
X185164820Y-96598005D01*
X185183292Y-96563446D01*
X185208153Y-96533153D01*
X185238446Y-96508292D01*
X185273005Y-96489820D01*
X185310501Y-96478445D01*
X185355638Y-96474000D01*
X186094362Y-96474000D01*
X186139499Y-96478445D01*
G37*
G36*
X187889499Y-96478445D02*
G01*
X187926995Y-96489820D01*
X187961554Y-96508292D01*
X187991847Y-96533153D01*
X188016708Y-96563446D01*
X188035180Y-96598005D01*
X188046555Y-96635501D01*
X188051000Y-96680638D01*
X188051000Y-97319362D01*
X188046555Y-97364499D01*
X188035180Y-97401995D01*
X188016708Y-97436554D01*
X187991847Y-97466847D01*
X187961554Y-97491708D01*
X187926995Y-97510180D01*
X187889499Y-97521555D01*
X187844362Y-97526000D01*
X187105638Y-97526000D01*
X187060501Y-97521555D01*
X187023005Y-97510180D01*
X186988446Y-97491708D01*
X186958153Y-97466847D01*
X186933292Y-97436554D01*
X186914820Y-97401995D01*
X186903445Y-97364499D01*
X186899000Y-97319362D01*
X186899000Y-96680638D01*
X186903445Y-96635501D01*
X186914820Y-96598005D01*
X186933292Y-96563446D01*
X186958153Y-96533153D01*
X186988446Y-96508292D01*
X187023005Y-96489820D01*
X187060501Y-96478445D01*
X187105638Y-96474000D01*
X187844362Y-96474000D01*
X187889499Y-96478445D01*
G37*
G36*
X124901000Y-96901000D02*
G01*
X123099000Y-96901000D01*
X123099000Y-95099000D01*
X124901000Y-95099000D01*
X124901000Y-96901000D01*
G37*
G36*
X143801000Y-95121000D02*
G01*
X141499000Y-95121000D01*
X141499000Y-93419000D01*
X143801000Y-93419000D01*
X143801000Y-95121000D01*
G37*
G36*
X152501000Y-95121000D02*
G01*
X150199000Y-95121000D01*
X150199000Y-93419000D01*
X152501000Y-93419000D01*
X152501000Y-95121000D01*
G37*
G36*
X133653512Y-92703927D02*
G01*
X133802812Y-92733624D01*
X133966784Y-92801544D01*
X134114354Y-92900147D01*
X134239853Y-93025646D01*
X134338456Y-93173216D01*
X134406376Y-93337188D01*
X134441000Y-93511259D01*
X134441000Y-93688741D01*
X134406376Y-93862812D01*
X134338456Y-94026784D01*
X134239853Y-94174354D01*
X134114354Y-94299853D01*
X133966784Y-94398456D01*
X133802812Y-94466376D01*
X133653512Y-94496073D01*
X133628742Y-94501000D01*
X133451258Y-94501000D01*
X133426488Y-94496073D01*
X133277188Y-94466376D01*
X133113216Y-94398456D01*
X132965646Y-94299853D01*
X132840147Y-94174354D01*
X132741544Y-94026784D01*
X132673624Y-93862812D01*
X132639000Y-93688741D01*
X132639000Y-93511259D01*
X132673624Y-93337188D01*
X132741544Y-93173216D01*
X132840147Y-93025646D01*
X132965646Y-92900147D01*
X133113216Y-92801544D01*
X133277188Y-92733624D01*
X133426488Y-92703927D01*
X133451258Y-92699000D01*
X133628742Y-92699000D01*
X133653512Y-92703927D01*
G37*
G36*
X131901000Y-94501000D02*
G01*
X130099000Y-94501000D01*
X130099000Y-92699000D01*
X131901000Y-92699000D01*
X131901000Y-94501000D01*
G37*
G36*
X124113512Y-92563927D02*
G01*
X124262812Y-92593624D01*
X124426784Y-92661544D01*
X124574354Y-92760147D01*
X124699853Y-92885646D01*
X124798456Y-93033216D01*
X124866376Y-93197188D01*
X124901000Y-93371259D01*
X124901000Y-93548741D01*
X124866376Y-93722812D01*
X124798456Y-93886784D01*
X124699853Y-94034354D01*
X124574354Y-94159853D01*
X124426784Y-94258456D01*
X124262812Y-94326376D01*
X124113512Y-94356073D01*
X124088742Y-94361000D01*
X123911258Y-94361000D01*
X123886488Y-94356073D01*
X123737188Y-94326376D01*
X123573216Y-94258456D01*
X123425646Y-94159853D01*
X123300147Y-94034354D01*
X123201544Y-93886784D01*
X123133624Y-93722812D01*
X123099000Y-93548741D01*
X123099000Y-93371259D01*
X123133624Y-93197188D01*
X123201544Y-93033216D01*
X123300147Y-92885646D01*
X123425646Y-92760147D01*
X123573216Y-92661544D01*
X123737188Y-92593624D01*
X123886488Y-92563927D01*
X123911258Y-92559000D01*
X124088742Y-92559000D01*
X124113512Y-92563927D01*
G37*
G36*
X137875562Y-92640681D02*
G01*
X137910481Y-92651274D01*
X137942663Y-92668476D01*
X137970873Y-92691627D01*
X137994024Y-92719837D01*
X138011226Y-92752019D01*
X138021819Y-92786938D01*
X138026000Y-92829395D01*
X138026000Y-93970605D01*
X138021819Y-94013062D01*
X138011226Y-94047981D01*
X137994024Y-94080163D01*
X137970873Y-94108373D01*
X137942663Y-94131524D01*
X137910481Y-94148726D01*
X137875562Y-94159319D01*
X137833105Y-94163500D01*
X136366895Y-94163500D01*
X136324438Y-94159319D01*
X136289519Y-94148726D01*
X136257337Y-94131524D01*
X136229127Y-94108373D01*
X136205976Y-94080163D01*
X136188774Y-94047981D01*
X136178181Y-94013062D01*
X136174000Y-93970605D01*
X136174000Y-92829395D01*
X136178181Y-92786938D01*
X136188774Y-92752019D01*
X136205976Y-92719837D01*
X136229127Y-92691627D01*
X136257337Y-92668476D01*
X136289519Y-92651274D01*
X136324438Y-92640681D01*
X136366895Y-92636500D01*
X137833105Y-92636500D01*
X137875562Y-92640681D01*
G37*
G36*
X118658500Y-93758500D02*
G01*
X116981500Y-93758500D01*
X116981500Y-92081500D01*
X118658500Y-92081500D01*
X118658500Y-93758500D01*
G37*
G36*
X158651000Y-93051000D02*
G01*
X157649000Y-93051000D01*
X157649000Y-92149000D01*
X158651000Y-92149000D01*
X158651000Y-93051000D01*
G37*
G36*
X163101000Y-93051000D02*
G01*
X162099000Y-93051000D01*
X162099000Y-92149000D01*
X163101000Y-92149000D01*
X163101000Y-93051000D01*
G37*
G36*
X171301000Y-92901000D02*
G01*
X169499000Y-92901000D01*
X169499000Y-91099000D01*
X171301000Y-91099000D01*
X171301000Y-92901000D01*
G37*
G36*
X173053512Y-91103927D02*
G01*
X173202812Y-91133624D01*
X173366784Y-91201544D01*
X173514354Y-91300147D01*
X173639853Y-91425646D01*
X173738456Y-91573216D01*
X173806376Y-91737188D01*
X173836073Y-91886488D01*
X173840110Y-91906782D01*
X173841000Y-91911259D01*
X173841000Y-92088741D01*
X173806376Y-92262812D01*
X173738456Y-92426784D01*
X173639853Y-92574354D01*
X173514354Y-92699853D01*
X173366784Y-92798456D01*
X173202812Y-92866376D01*
X173053512Y-92896073D01*
X173028742Y-92901000D01*
X172851258Y-92901000D01*
X172826488Y-92896073D01*
X172677188Y-92866376D01*
X172513216Y-92798456D01*
X172365646Y-92699853D01*
X172240147Y-92574354D01*
X172141544Y-92426784D01*
X172073624Y-92262812D01*
X172039000Y-92088741D01*
X172039000Y-91911259D01*
X172039891Y-91906782D01*
X172043927Y-91886488D01*
X172073624Y-91737188D01*
X172141544Y-91573216D01*
X172240147Y-91425646D01*
X172365646Y-91300147D01*
X172513216Y-91201544D01*
X172677188Y-91133624D01*
X172826488Y-91103927D01*
X172851258Y-91099000D01*
X173028742Y-91099000D01*
X173053512Y-91103927D01*
G37*
G36*
X152501000Y-92581000D02*
G01*
X150199000Y-92581000D01*
X150199000Y-90879000D01*
X152501000Y-90879000D01*
X152501000Y-92581000D01*
G37*
G36*
X143801000Y-92581000D02*
G01*
X141499000Y-92581000D01*
X141499000Y-90879000D01*
X143801000Y-90879000D01*
X143801000Y-92581000D01*
G37*
G36*
X206813512Y-90583927D02*
G01*
X206962812Y-90613624D01*
X207126784Y-90681544D01*
X207274354Y-90780147D01*
X207399853Y-90905646D01*
X207498456Y-91053216D01*
X207566376Y-91217188D01*
X207582877Y-91300147D01*
X207601000Y-91391258D01*
X207601000Y-91568742D01*
X207596073Y-91593512D01*
X207566376Y-91742812D01*
X207498456Y-91906784D01*
X207399853Y-92054354D01*
X207274354Y-92179853D01*
X207126784Y-92278456D01*
X206962812Y-92346376D01*
X206813512Y-92376073D01*
X206788742Y-92381000D01*
X206611258Y-92381000D01*
X206586488Y-92376073D01*
X206437188Y-92346376D01*
X206273216Y-92278456D01*
X206125646Y-92179853D01*
X206000147Y-92054354D01*
X205901544Y-91906784D01*
X205833624Y-91742812D01*
X205803927Y-91593512D01*
X205799000Y-91568742D01*
X205799000Y-91391258D01*
X205817123Y-91300147D01*
X205833624Y-91217188D01*
X205901544Y-91053216D01*
X206000147Y-90905646D01*
X206125646Y-90780147D01*
X206273216Y-90681544D01*
X206437188Y-90613624D01*
X206586488Y-90583927D01*
X206611258Y-90579000D01*
X206788742Y-90579000D01*
X206813512Y-90583927D01*
G37*
G36*
X115224581Y-90733723D02*
G01*
X115377178Y-90796930D01*
X115514512Y-90888694D01*
X115631306Y-91005488D01*
X115723070Y-91142822D01*
X115786277Y-91295419D01*
X115818500Y-91457414D01*
X115818500Y-91622586D01*
X115786277Y-91784581D01*
X115723070Y-91937178D01*
X115631306Y-92074512D01*
X115514512Y-92191306D01*
X115377178Y-92283070D01*
X115224581Y-92346277D01*
X115062586Y-92378500D01*
X114897414Y-92378500D01*
X114735419Y-92346277D01*
X114582822Y-92283070D01*
X114445488Y-92191306D01*
X114328694Y-92074512D01*
X114236930Y-91937178D01*
X114173723Y-91784581D01*
X114141500Y-91622586D01*
X114141500Y-91457414D01*
X114173723Y-91295419D01*
X114236930Y-91142822D01*
X114328694Y-91005488D01*
X114445488Y-90888694D01*
X114582822Y-90796930D01*
X114735419Y-90733723D01*
X114897414Y-90701500D01*
X115062586Y-90701500D01*
X115224581Y-90733723D01*
G37*
G36*
X160651000Y-92101000D02*
G01*
X159649000Y-92101000D01*
X159649000Y-91199000D01*
X160651000Y-91199000D01*
X160651000Y-92101000D01*
G37*
G36*
X165101000Y-92101000D02*
G01*
X164099000Y-92101000D01*
X164099000Y-91199000D01*
X165101000Y-91199000D01*
X165101000Y-92101000D01*
G37*
G36*
X137875562Y-89665681D02*
G01*
X137910481Y-89676274D01*
X137942663Y-89693476D01*
X137970873Y-89716627D01*
X137994024Y-89744837D01*
X138011226Y-89777019D01*
X138021819Y-89811938D01*
X138026000Y-89854395D01*
X138026000Y-90995605D01*
X138021819Y-91038062D01*
X138011226Y-91072981D01*
X137994024Y-91105163D01*
X137970873Y-91133373D01*
X137942663Y-91156524D01*
X137910481Y-91173726D01*
X137875562Y-91184319D01*
X137833105Y-91188500D01*
X136366895Y-91188500D01*
X136324438Y-91184319D01*
X136289519Y-91173726D01*
X136257337Y-91156524D01*
X136229127Y-91133373D01*
X136205976Y-91105163D01*
X136188774Y-91072981D01*
X136178181Y-91038062D01*
X136174000Y-90995605D01*
X136174000Y-89854395D01*
X136178181Y-89811938D01*
X136188774Y-89777019D01*
X136205976Y-89744837D01*
X136229127Y-89716627D01*
X136257337Y-89693476D01*
X136289519Y-89676274D01*
X136324438Y-89665681D01*
X136366895Y-89661500D01*
X137833105Y-89661500D01*
X137875562Y-89665681D01*
G37*
G36*
X163101000Y-91151000D02*
G01*
X162099000Y-91151000D01*
X162099000Y-90249000D01*
X163101000Y-90249000D01*
X163101000Y-91151000D01*
G37*
G36*
X158651000Y-91151000D02*
G01*
X157649000Y-91151000D01*
X157649000Y-90249000D01*
X158651000Y-90249000D01*
X158651000Y-91151000D01*
G37*
G36*
X131364499Y-89928445D02*
G01*
X131401995Y-89939820D01*
X131436554Y-89958292D01*
X131466847Y-89983153D01*
X131491708Y-90013446D01*
X131510180Y-90048005D01*
X131521555Y-90085501D01*
X131526000Y-90130638D01*
X131526000Y-90869362D01*
X131521555Y-90914499D01*
X131510180Y-90951995D01*
X131491708Y-90986554D01*
X131466847Y-91016847D01*
X131436554Y-91041708D01*
X131401995Y-91060180D01*
X131364499Y-91071555D01*
X131319362Y-91076000D01*
X130680638Y-91076000D01*
X130635501Y-91071555D01*
X130598005Y-91060180D01*
X130563446Y-91041708D01*
X130533153Y-91016847D01*
X130508292Y-90986554D01*
X130489820Y-90951995D01*
X130478445Y-90914499D01*
X130474000Y-90869362D01*
X130474000Y-90130638D01*
X130478445Y-90085501D01*
X130489820Y-90048005D01*
X130508292Y-90013446D01*
X130533153Y-89983153D01*
X130563446Y-89958292D01*
X130598005Y-89939820D01*
X130635501Y-89928445D01*
X130680638Y-89924000D01*
X131319362Y-89924000D01*
X131364499Y-89928445D01*
G37*
G36*
X118064581Y-89353723D02*
G01*
X118217178Y-89416930D01*
X118354512Y-89508694D01*
X118471306Y-89625488D01*
X118563070Y-89762822D01*
X118626277Y-89915419D01*
X118658500Y-90077414D01*
X118658500Y-90242586D01*
X118626277Y-90404581D01*
X118563070Y-90557178D01*
X118471306Y-90694512D01*
X118354512Y-90811306D01*
X118217178Y-90903070D01*
X118064581Y-90966277D01*
X117902586Y-90998500D01*
X117737414Y-90998500D01*
X117575419Y-90966277D01*
X117422822Y-90903070D01*
X117285488Y-90811306D01*
X117168694Y-90694512D01*
X117076930Y-90557178D01*
X117013723Y-90404581D01*
X116981500Y-90242586D01*
X116981500Y-90077414D01*
X117013723Y-89915419D01*
X117076930Y-89762822D01*
X117168694Y-89625488D01*
X117285488Y-89508694D01*
X117422822Y-89416930D01*
X117575419Y-89353723D01*
X117737414Y-89321500D01*
X117902586Y-89321500D01*
X118064581Y-89353723D01*
G37*
G36*
X128364499Y-89428445D02*
G01*
X128401995Y-89439820D01*
X128436554Y-89458292D01*
X128466847Y-89483153D01*
X128491708Y-89513446D01*
X128510180Y-89548005D01*
X128521555Y-89585501D01*
X128526000Y-89630638D01*
X128526000Y-90369362D01*
X128521555Y-90414499D01*
X128510180Y-90451995D01*
X128491708Y-90486554D01*
X128466847Y-90516847D01*
X128436554Y-90541708D01*
X128401995Y-90560180D01*
X128364499Y-90571555D01*
X128319362Y-90576000D01*
X127680638Y-90576000D01*
X127635501Y-90571555D01*
X127598005Y-90560180D01*
X127563446Y-90541708D01*
X127533153Y-90516847D01*
X127508292Y-90486554D01*
X127489820Y-90451995D01*
X127478445Y-90414499D01*
X127474000Y-90369362D01*
X127474000Y-89630638D01*
X127478445Y-89585501D01*
X127489820Y-89548005D01*
X127508292Y-89513446D01*
X127533153Y-89483153D01*
X127563446Y-89458292D01*
X127598005Y-89439820D01*
X127635501Y-89428445D01*
X127680638Y-89424000D01*
X128319362Y-89424000D01*
X128364499Y-89428445D01*
G37*
G36*
X143801000Y-90041000D02*
G01*
X141499000Y-90041000D01*
X141499000Y-88339000D01*
X143801000Y-88339000D01*
X143801000Y-90041000D01*
G37*
G36*
X152501000Y-90041000D02*
G01*
X150199000Y-90041000D01*
X150199000Y-88339000D01*
X152501000Y-88339000D01*
X152501000Y-90041000D01*
G37*
G36*
X206813512Y-88043927D02*
G01*
X206962812Y-88073624D01*
X207126784Y-88141544D01*
X207274354Y-88240147D01*
X207399853Y-88365646D01*
X207498456Y-88513216D01*
X207566376Y-88677188D01*
X207601000Y-88851259D01*
X207601000Y-89028741D01*
X207566376Y-89202812D01*
X207498456Y-89366784D01*
X207399853Y-89514354D01*
X207274354Y-89639853D01*
X207126784Y-89738456D01*
X206962812Y-89806376D01*
X206813512Y-89836073D01*
X206788742Y-89841000D01*
X206611258Y-89841000D01*
X206586488Y-89836073D01*
X206437188Y-89806376D01*
X206273216Y-89738456D01*
X206125646Y-89639853D01*
X206000147Y-89514354D01*
X205901544Y-89366784D01*
X205833624Y-89202812D01*
X205799000Y-89028741D01*
X205799000Y-88851259D01*
X205833624Y-88677188D01*
X205901544Y-88513216D01*
X206000147Y-88365646D01*
X206125646Y-88240147D01*
X206273216Y-88141544D01*
X206437188Y-88073624D01*
X206586488Y-88043927D01*
X206611258Y-88039000D01*
X206788742Y-88039000D01*
X206813512Y-88043927D01*
G37*
G36*
X168064499Y-88603445D02*
G01*
X168101995Y-88614820D01*
X168136554Y-88633292D01*
X168166847Y-88658153D01*
X168191708Y-88688446D01*
X168210180Y-88723005D01*
X168221555Y-88760501D01*
X168226000Y-88805638D01*
X168226000Y-89544362D01*
X168221555Y-89589499D01*
X168210180Y-89626995D01*
X168191708Y-89661554D01*
X168166847Y-89691847D01*
X168136554Y-89716708D01*
X168101995Y-89735180D01*
X168064499Y-89746555D01*
X168019362Y-89751000D01*
X167380638Y-89751000D01*
X167335501Y-89746555D01*
X167298005Y-89735180D01*
X167263446Y-89716708D01*
X167233153Y-89691847D01*
X167208292Y-89661554D01*
X167189820Y-89626995D01*
X167178445Y-89589499D01*
X167174000Y-89544362D01*
X167174000Y-88805638D01*
X167178445Y-88760501D01*
X167189820Y-88723005D01*
X167208292Y-88688446D01*
X167233153Y-88658153D01*
X167263446Y-88633292D01*
X167298005Y-88614820D01*
X167335501Y-88603445D01*
X167380638Y-88599000D01*
X168019362Y-88599000D01*
X168064499Y-88603445D01*
G37*
G36*
X115224581Y-87973723D02*
G01*
X115377178Y-88036930D01*
X115514512Y-88128694D01*
X115631306Y-88245488D01*
X115723070Y-88382822D01*
X115786277Y-88535419D01*
X115818500Y-88697414D01*
X115818500Y-88862586D01*
X115786277Y-89024581D01*
X115723070Y-89177178D01*
X115631306Y-89314512D01*
X115514512Y-89431306D01*
X115377178Y-89523070D01*
X115224581Y-89586277D01*
X115062586Y-89618500D01*
X114897414Y-89618500D01*
X114735419Y-89586277D01*
X114582822Y-89523070D01*
X114445488Y-89431306D01*
X114328694Y-89314512D01*
X114236930Y-89177178D01*
X114173723Y-89024581D01*
X114141500Y-88862586D01*
X114141500Y-88697414D01*
X114173723Y-88535419D01*
X114236930Y-88382822D01*
X114328694Y-88245488D01*
X114445488Y-88128694D01*
X114582822Y-88036930D01*
X114735419Y-87973723D01*
X114897414Y-87941500D01*
X115062586Y-87941500D01*
X115224581Y-87973723D01*
G37*
G36*
X156764499Y-88303445D02*
G01*
X156801995Y-88314820D01*
X156836554Y-88333292D01*
X156866847Y-88358153D01*
X156891708Y-88388446D01*
X156910180Y-88423005D01*
X156921555Y-88460501D01*
X156926000Y-88505638D01*
X156926000Y-89244362D01*
X156921555Y-89289499D01*
X156910180Y-89326995D01*
X156891708Y-89361554D01*
X156866847Y-89391847D01*
X156836554Y-89416708D01*
X156801995Y-89435180D01*
X156764499Y-89446555D01*
X156719362Y-89451000D01*
X156080638Y-89451000D01*
X156035501Y-89446555D01*
X155998005Y-89435180D01*
X155963446Y-89416708D01*
X155933153Y-89391847D01*
X155908292Y-89361554D01*
X155889820Y-89326995D01*
X155878445Y-89289499D01*
X155874000Y-89244362D01*
X155874000Y-88505638D01*
X155878445Y-88460501D01*
X155889820Y-88423005D01*
X155908292Y-88388446D01*
X155933153Y-88358153D01*
X155963446Y-88333292D01*
X155998005Y-88314820D01*
X156035501Y-88303445D01*
X156080638Y-88299000D01*
X156719362Y-88299000D01*
X156764499Y-88303445D01*
G37*
G36*
X131364499Y-88178445D02*
G01*
X131401995Y-88189820D01*
X131436554Y-88208292D01*
X131466847Y-88233153D01*
X131491708Y-88263446D01*
X131510180Y-88298005D01*
X131521555Y-88335501D01*
X131526000Y-88380638D01*
X131526000Y-89119362D01*
X131521555Y-89164499D01*
X131510180Y-89201995D01*
X131491708Y-89236554D01*
X131466847Y-89266847D01*
X131436554Y-89291708D01*
X131401995Y-89310180D01*
X131364499Y-89321555D01*
X131319362Y-89326000D01*
X130680638Y-89326000D01*
X130635501Y-89321555D01*
X130598005Y-89310180D01*
X130563446Y-89291708D01*
X130533153Y-89266847D01*
X130508292Y-89236554D01*
X130489820Y-89201995D01*
X130478445Y-89164499D01*
X130474000Y-89119362D01*
X130474000Y-88380638D01*
X130478445Y-88335501D01*
X130489820Y-88298005D01*
X130508292Y-88263446D01*
X130533153Y-88233153D01*
X130563446Y-88208292D01*
X130598005Y-88189820D01*
X130635501Y-88178445D01*
X130680638Y-88174000D01*
X131319362Y-88174000D01*
X131364499Y-88178445D01*
G37*
G36*
X128364499Y-87678445D02*
G01*
X128401995Y-87689820D01*
X128436554Y-87708292D01*
X128466847Y-87733153D01*
X128491708Y-87763446D01*
X128510180Y-87798005D01*
X128521555Y-87835501D01*
X128526000Y-87880638D01*
X128526000Y-88619362D01*
X128521555Y-88664499D01*
X128510180Y-88701995D01*
X128491708Y-88736554D01*
X128466847Y-88766847D01*
X128436554Y-88791708D01*
X128401995Y-88810180D01*
X128364499Y-88821555D01*
X128319362Y-88826000D01*
X127680638Y-88826000D01*
X127635501Y-88821555D01*
X127598005Y-88810180D01*
X127563446Y-88791708D01*
X127533153Y-88766847D01*
X127508292Y-88736554D01*
X127489820Y-88701995D01*
X127478445Y-88664499D01*
X127474000Y-88619362D01*
X127474000Y-87880638D01*
X127478445Y-87835501D01*
X127489820Y-87798005D01*
X127508292Y-87763446D01*
X127533153Y-87733153D01*
X127563446Y-87708292D01*
X127598005Y-87689820D01*
X127635501Y-87678445D01*
X127680638Y-87674000D01*
X128319362Y-87674000D01*
X128364499Y-87678445D01*
G37*
G36*
X137788674Y-87078465D02*
G01*
X137826367Y-87089899D01*
X137861103Y-87108466D01*
X137891548Y-87133452D01*
X137916534Y-87163897D01*
X137935101Y-87198633D01*
X137946535Y-87236326D01*
X137951000Y-87281661D01*
X137951000Y-88118339D01*
X137946535Y-88163674D01*
X137935101Y-88201367D01*
X137916534Y-88236103D01*
X137891548Y-88266548D01*
X137861103Y-88291534D01*
X137826367Y-88310101D01*
X137788674Y-88321535D01*
X137743339Y-88326000D01*
X136656661Y-88326000D01*
X136611326Y-88321535D01*
X136573633Y-88310101D01*
X136538897Y-88291534D01*
X136508452Y-88266548D01*
X136483466Y-88236103D01*
X136464899Y-88201367D01*
X136453465Y-88163674D01*
X136449000Y-88118339D01*
X136449000Y-87281661D01*
X136453465Y-87236326D01*
X136464899Y-87198633D01*
X136483466Y-87163897D01*
X136508452Y-87133452D01*
X136538897Y-87108466D01*
X136573633Y-87089899D01*
X136611326Y-87078465D01*
X136656661Y-87074000D01*
X137743339Y-87074000D01*
X137788674Y-87078465D01*
G37*
G36*
X118064581Y-86593723D02*
G01*
X118217178Y-86656930D01*
X118354512Y-86748694D01*
X118471306Y-86865488D01*
X118563070Y-87002822D01*
X118626277Y-87155419D01*
X118658500Y-87317414D01*
X118658500Y-87482586D01*
X118626277Y-87644581D01*
X118563070Y-87797178D01*
X118471306Y-87934512D01*
X118354512Y-88051306D01*
X118217178Y-88143070D01*
X118064581Y-88206277D01*
X117902586Y-88238500D01*
X117737414Y-88238500D01*
X117575419Y-88206277D01*
X117422822Y-88143070D01*
X117285488Y-88051306D01*
X117168694Y-87934512D01*
X117076930Y-87797178D01*
X117013723Y-87644581D01*
X116981500Y-87482586D01*
X116981500Y-87317414D01*
X117013723Y-87155419D01*
X117076930Y-87002822D01*
X117168694Y-86865488D01*
X117285488Y-86748694D01*
X117422822Y-86656930D01*
X117575419Y-86593723D01*
X117737414Y-86561500D01*
X117902586Y-86561500D01*
X118064581Y-86593723D01*
G37*
G36*
X159639499Y-87078445D02*
G01*
X159676995Y-87089820D01*
X159711554Y-87108292D01*
X159741847Y-87133153D01*
X159766708Y-87163446D01*
X159785180Y-87198005D01*
X159796555Y-87235501D01*
X159801000Y-87280638D01*
X159801000Y-87919362D01*
X159796555Y-87964499D01*
X159785180Y-88001995D01*
X159766708Y-88036554D01*
X159741847Y-88066847D01*
X159711554Y-88091708D01*
X159676995Y-88110180D01*
X159639499Y-88121555D01*
X159594362Y-88126000D01*
X158855638Y-88126000D01*
X158810501Y-88121555D01*
X158773005Y-88110180D01*
X158738446Y-88091708D01*
X158708153Y-88066847D01*
X158683292Y-88036554D01*
X158664820Y-88001995D01*
X158653445Y-87964499D01*
X158649000Y-87919362D01*
X158649000Y-87280638D01*
X158653445Y-87235501D01*
X158664820Y-87198005D01*
X158683292Y-87163446D01*
X158708153Y-87133153D01*
X158738446Y-87108292D01*
X158773005Y-87089820D01*
X158810501Y-87078445D01*
X158855638Y-87074000D01*
X159594362Y-87074000D01*
X159639499Y-87078445D01*
G37*
G36*
X161389499Y-87078445D02*
G01*
X161426995Y-87089820D01*
X161461554Y-87108292D01*
X161491847Y-87133153D01*
X161516708Y-87163446D01*
X161535180Y-87198005D01*
X161546555Y-87235501D01*
X161551000Y-87280638D01*
X161551000Y-87919362D01*
X161546555Y-87964499D01*
X161535180Y-88001995D01*
X161516708Y-88036554D01*
X161491847Y-88066847D01*
X161461554Y-88091708D01*
X161426995Y-88110180D01*
X161389499Y-88121555D01*
X161344362Y-88126000D01*
X160605638Y-88126000D01*
X160560501Y-88121555D01*
X160523005Y-88110180D01*
X160488446Y-88091708D01*
X160458153Y-88066847D01*
X160433292Y-88036554D01*
X160414820Y-88001995D01*
X160403445Y-87964499D01*
X160399000Y-87919362D01*
X160399000Y-87280638D01*
X160403445Y-87235501D01*
X160414820Y-87198005D01*
X160433292Y-87163446D01*
X160458153Y-87133153D01*
X160488446Y-87108292D01*
X160523005Y-87089820D01*
X160560501Y-87078445D01*
X160605638Y-87074000D01*
X161344362Y-87074000D01*
X161389499Y-87078445D01*
G37*
G36*
X168064499Y-86853445D02*
G01*
X168101995Y-86864820D01*
X168136554Y-86883292D01*
X168166847Y-86908153D01*
X168191708Y-86938446D01*
X168210180Y-86973005D01*
X168221555Y-87010501D01*
X168226000Y-87055638D01*
X168226000Y-87794362D01*
X168221555Y-87839499D01*
X168210180Y-87876995D01*
X168191708Y-87911554D01*
X168166847Y-87941847D01*
X168136554Y-87966708D01*
X168101995Y-87985180D01*
X168064499Y-87996555D01*
X168019362Y-88001000D01*
X167380638Y-88001000D01*
X167335501Y-87996555D01*
X167298005Y-87985180D01*
X167263446Y-87966708D01*
X167233153Y-87941847D01*
X167208292Y-87911554D01*
X167189820Y-87876995D01*
X167178445Y-87839499D01*
X167174000Y-87794362D01*
X167174000Y-87055638D01*
X167178445Y-87010501D01*
X167189820Y-86973005D01*
X167208292Y-86938446D01*
X167233153Y-86908153D01*
X167263446Y-86883292D01*
X167298005Y-86864820D01*
X167335501Y-86853445D01*
X167380638Y-86849000D01*
X168019362Y-86849000D01*
X168064499Y-86853445D01*
G37*
G36*
X170864499Y-86778445D02*
G01*
X170901995Y-86789820D01*
X170936554Y-86808292D01*
X170966847Y-86833153D01*
X170991708Y-86863446D01*
X171010180Y-86898005D01*
X171021555Y-86935501D01*
X171026000Y-86980638D01*
X171026000Y-87619362D01*
X171021555Y-87664499D01*
X171010180Y-87701995D01*
X170991708Y-87736554D01*
X170966847Y-87766847D01*
X170936554Y-87791708D01*
X170901995Y-87810180D01*
X170864499Y-87821555D01*
X170819362Y-87826000D01*
X170080638Y-87826000D01*
X170035501Y-87821555D01*
X169998005Y-87810180D01*
X169963446Y-87791708D01*
X169933153Y-87766847D01*
X169908292Y-87736554D01*
X169889820Y-87701995D01*
X169878445Y-87664499D01*
X169874000Y-87619362D01*
X169874000Y-86980638D01*
X169878445Y-86935501D01*
X169889820Y-86898005D01*
X169908292Y-86863446D01*
X169933153Y-86833153D01*
X169963446Y-86808292D01*
X169998005Y-86789820D01*
X170035501Y-86778445D01*
X170080638Y-86774000D01*
X170819362Y-86774000D01*
X170864499Y-86778445D01*
G37*
G36*
X172614499Y-86778445D02*
G01*
X172651995Y-86789820D01*
X172686554Y-86808292D01*
X172716847Y-86833153D01*
X172741708Y-86863446D01*
X172760180Y-86898005D01*
X172771555Y-86935501D01*
X172776000Y-86980638D01*
X172776000Y-87619362D01*
X172771555Y-87664499D01*
X172760180Y-87701995D01*
X172741708Y-87736554D01*
X172716847Y-87766847D01*
X172686554Y-87791708D01*
X172651995Y-87810180D01*
X172614499Y-87821555D01*
X172569362Y-87826000D01*
X171830638Y-87826000D01*
X171785501Y-87821555D01*
X171748005Y-87810180D01*
X171713446Y-87791708D01*
X171683153Y-87766847D01*
X171658292Y-87736554D01*
X171639820Y-87701995D01*
X171628445Y-87664499D01*
X171624000Y-87619362D01*
X171624000Y-86980638D01*
X171628445Y-86935501D01*
X171639820Y-86898005D01*
X171658292Y-86863446D01*
X171683153Y-86833153D01*
X171713446Y-86808292D01*
X171748005Y-86789820D01*
X171785501Y-86778445D01*
X171830638Y-86774000D01*
X172569362Y-86774000D01*
X172614499Y-86778445D01*
G37*
G36*
X156764499Y-86553445D02*
G01*
X156801995Y-86564820D01*
X156836554Y-86583292D01*
X156866847Y-86608153D01*
X156891708Y-86638446D01*
X156910180Y-86673005D01*
X156921555Y-86710501D01*
X156926000Y-86755638D01*
X156926000Y-87494362D01*
X156921555Y-87539499D01*
X156910180Y-87576995D01*
X156891708Y-87611554D01*
X156866847Y-87641847D01*
X156836554Y-87666708D01*
X156801995Y-87685180D01*
X156764499Y-87696555D01*
X156719362Y-87701000D01*
X156080638Y-87701000D01*
X156035501Y-87696555D01*
X155998005Y-87685180D01*
X155963446Y-87666708D01*
X155933153Y-87641847D01*
X155908292Y-87611554D01*
X155889820Y-87576995D01*
X155878445Y-87539499D01*
X155874000Y-87494362D01*
X155874000Y-86755638D01*
X155878445Y-86710501D01*
X155889820Y-86673005D01*
X155908292Y-86638446D01*
X155933153Y-86608153D01*
X155963446Y-86583292D01*
X155998005Y-86564820D01*
X156035501Y-86553445D01*
X156080638Y-86549000D01*
X156719362Y-86549000D01*
X156764499Y-86553445D01*
G37*
G36*
X207601000Y-87301000D02*
G01*
X205799000Y-87301000D01*
X205799000Y-85499000D01*
X207601000Y-85499000D01*
X207601000Y-87301000D01*
G37*
G36*
X131364499Y-86103445D02*
G01*
X131401995Y-86114820D01*
X131436554Y-86133292D01*
X131466847Y-86158153D01*
X131491708Y-86188446D01*
X131510180Y-86223005D01*
X131521555Y-86260501D01*
X131526000Y-86305638D01*
X131526000Y-87044362D01*
X131521555Y-87089499D01*
X131510180Y-87126995D01*
X131491708Y-87161554D01*
X131466847Y-87191847D01*
X131436554Y-87216708D01*
X131401995Y-87235180D01*
X131364499Y-87246555D01*
X131319362Y-87251000D01*
X130680638Y-87251000D01*
X130635501Y-87246555D01*
X130598005Y-87235180D01*
X130563446Y-87216708D01*
X130533153Y-87191847D01*
X130508292Y-87161554D01*
X130489820Y-87126995D01*
X130478445Y-87089499D01*
X130474000Y-87044362D01*
X130474000Y-86305638D01*
X130478445Y-86260501D01*
X130489820Y-86223005D01*
X130508292Y-86188446D01*
X130533153Y-86158153D01*
X130563446Y-86133292D01*
X130598005Y-86114820D01*
X130635501Y-86103445D01*
X130680638Y-86099000D01*
X131319362Y-86099000D01*
X131364499Y-86103445D01*
G37*
G36*
X115224581Y-85213723D02*
G01*
X115377178Y-85276930D01*
X115514512Y-85368694D01*
X115631306Y-85485488D01*
X115723070Y-85622822D01*
X115786277Y-85775419D01*
X115818500Y-85937414D01*
X115818500Y-86102586D01*
X115786277Y-86264581D01*
X115723070Y-86417178D01*
X115631306Y-86554512D01*
X115514512Y-86671306D01*
X115377178Y-86763070D01*
X115224581Y-86826277D01*
X115062586Y-86858500D01*
X114897414Y-86858500D01*
X114735419Y-86826277D01*
X114582822Y-86763070D01*
X114445488Y-86671306D01*
X114328694Y-86554512D01*
X114236930Y-86417178D01*
X114173723Y-86264581D01*
X114141500Y-86102586D01*
X114141500Y-85937414D01*
X114173723Y-85775419D01*
X114236930Y-85622822D01*
X114328694Y-85485488D01*
X114445488Y-85368694D01*
X114582822Y-85276930D01*
X114735419Y-85213723D01*
X114897414Y-85181500D01*
X115062586Y-85181500D01*
X115224581Y-85213723D01*
G37*
G36*
X192964499Y-85578445D02*
G01*
X193001995Y-85589820D01*
X193036554Y-85608292D01*
X193066847Y-85633153D01*
X193091708Y-85663446D01*
X193110180Y-85698005D01*
X193121555Y-85735501D01*
X193126000Y-85780638D01*
X193126000Y-86519362D01*
X193121555Y-86564499D01*
X193110180Y-86601995D01*
X193091708Y-86636554D01*
X193066847Y-86666847D01*
X193036554Y-86691708D01*
X193001995Y-86710180D01*
X192964499Y-86721555D01*
X192919362Y-86726000D01*
X192280638Y-86726000D01*
X192235501Y-86721555D01*
X192198005Y-86710180D01*
X192163446Y-86691708D01*
X192133153Y-86666847D01*
X192108292Y-86636554D01*
X192089820Y-86601995D01*
X192078445Y-86564499D01*
X192074000Y-86519362D01*
X192074000Y-85780638D01*
X192078445Y-85735501D01*
X192089820Y-85698005D01*
X192108292Y-85663446D01*
X192133153Y-85633153D01*
X192163446Y-85608292D01*
X192198005Y-85589820D01*
X192235501Y-85578445D01*
X192280638Y-85574000D01*
X192919362Y-85574000D01*
X192964499Y-85578445D01*
G37*
G36*
X191114499Y-85678445D02*
G01*
X191151995Y-85689820D01*
X191186554Y-85708292D01*
X191216847Y-85733153D01*
X191241708Y-85763446D01*
X191260180Y-85798005D01*
X191271555Y-85835501D01*
X191276000Y-85880638D01*
X191276000Y-86519362D01*
X191271555Y-86564499D01*
X191260180Y-86601995D01*
X191241708Y-86636554D01*
X191216847Y-86666847D01*
X191186554Y-86691708D01*
X191151995Y-86710180D01*
X191114499Y-86721555D01*
X191069362Y-86726000D01*
X190330638Y-86726000D01*
X190285501Y-86721555D01*
X190248005Y-86710180D01*
X190213446Y-86691708D01*
X190183153Y-86666847D01*
X190158292Y-86636554D01*
X190139820Y-86601995D01*
X190128445Y-86564499D01*
X190124000Y-86519362D01*
X190124000Y-85880638D01*
X190128445Y-85835501D01*
X190139820Y-85798005D01*
X190158292Y-85763446D01*
X190183153Y-85733153D01*
X190213446Y-85708292D01*
X190248005Y-85689820D01*
X190285501Y-85678445D01*
X190330638Y-85674000D01*
X191069362Y-85674000D01*
X191114499Y-85678445D01*
G37*
G36*
X189364499Y-85678445D02*
G01*
X189401995Y-85689820D01*
X189436554Y-85708292D01*
X189466847Y-85733153D01*
X189491708Y-85763446D01*
X189510180Y-85798005D01*
X189521555Y-85835501D01*
X189526000Y-85880638D01*
X189526000Y-86519362D01*
X189521555Y-86564499D01*
X189510180Y-86601995D01*
X189491708Y-86636554D01*
X189466847Y-86666847D01*
X189436554Y-86691708D01*
X189401995Y-86710180D01*
X189364499Y-86721555D01*
X189319362Y-86726000D01*
X188580638Y-86726000D01*
X188535501Y-86721555D01*
X188498005Y-86710180D01*
X188463446Y-86691708D01*
X188433153Y-86666847D01*
X188408292Y-86636554D01*
X188389820Y-86601995D01*
X188378445Y-86564499D01*
X188374000Y-86519362D01*
X188374000Y-85880638D01*
X188378445Y-85835501D01*
X188389820Y-85798005D01*
X188408292Y-85763446D01*
X188433153Y-85733153D01*
X188463446Y-85708292D01*
X188498005Y-85689820D01*
X188535501Y-85678445D01*
X188580638Y-85674000D01*
X189319362Y-85674000D01*
X189364499Y-85678445D01*
G37*
G36*
X183464928Y-84251764D02*
G01*
X183486009Y-84258160D01*
X183505445Y-84268548D01*
X183522476Y-84282524D01*
X183536452Y-84299555D01*
X183546840Y-84318991D01*
X183553236Y-84340072D01*
X183556000Y-84368140D01*
X183556000Y-86181860D01*
X183553236Y-86209928D01*
X183546840Y-86231009D01*
X183536452Y-86250445D01*
X183522476Y-86267476D01*
X183505445Y-86281452D01*
X183486009Y-86291840D01*
X183464928Y-86298236D01*
X183436860Y-86301000D01*
X182973140Y-86301000D01*
X182945072Y-86298236D01*
X182923991Y-86291840D01*
X182904555Y-86281452D01*
X182887524Y-86267476D01*
X182873548Y-86250445D01*
X182863160Y-86231009D01*
X182856764Y-86209928D01*
X182854000Y-86181860D01*
X182854000Y-84368140D01*
X182856764Y-84340072D01*
X182863160Y-84318991D01*
X182873548Y-84299555D01*
X182887524Y-84282524D01*
X182904555Y-84268548D01*
X182923991Y-84258160D01*
X182945072Y-84251764D01*
X182973140Y-84249000D01*
X183436860Y-84249000D01*
X183464928Y-84251764D01*
G37*
G36*
X182194928Y-84251764D02*
G01*
X182216009Y-84258160D01*
X182235445Y-84268548D01*
X182252476Y-84282524D01*
X182266452Y-84299555D01*
X182276840Y-84318991D01*
X182283236Y-84340072D01*
X182286000Y-84368140D01*
X182286000Y-86181860D01*
X182283236Y-86209928D01*
X182276840Y-86231009D01*
X182266452Y-86250445D01*
X182252476Y-86267476D01*
X182235445Y-86281452D01*
X182216009Y-86291840D01*
X182194928Y-86298236D01*
X182166860Y-86301000D01*
X181703140Y-86301000D01*
X181675072Y-86298236D01*
X181653991Y-86291840D01*
X181634555Y-86281452D01*
X181617524Y-86267476D01*
X181603548Y-86250445D01*
X181593160Y-86231009D01*
X181586764Y-86209928D01*
X181584000Y-86181860D01*
X181584000Y-84368140D01*
X181586764Y-84340072D01*
X181593160Y-84318991D01*
X181603548Y-84299555D01*
X181617524Y-84282524D01*
X181634555Y-84268548D01*
X181653991Y-84258160D01*
X181675072Y-84251764D01*
X181703140Y-84249000D01*
X182166860Y-84249000D01*
X182194928Y-84251764D01*
G37*
G36*
X180924928Y-84251764D02*
G01*
X180946009Y-84258160D01*
X180965445Y-84268548D01*
X180982476Y-84282524D01*
X180996452Y-84299555D01*
X181006840Y-84318991D01*
X181013236Y-84340072D01*
X181016000Y-84368140D01*
X181016000Y-86181860D01*
X181013236Y-86209928D01*
X181006840Y-86231009D01*
X180996452Y-86250445D01*
X180982476Y-86267476D01*
X180965445Y-86281452D01*
X180946009Y-86291840D01*
X180924928Y-86298236D01*
X180896860Y-86301000D01*
X180433140Y-86301000D01*
X180405072Y-86298236D01*
X180383991Y-86291840D01*
X180364555Y-86281452D01*
X180347524Y-86267476D01*
X180333548Y-86250445D01*
X180323160Y-86231009D01*
X180316764Y-86209928D01*
X180314000Y-86181860D01*
X180314000Y-84368140D01*
X180316764Y-84340072D01*
X180323160Y-84318991D01*
X180333548Y-84299555D01*
X180347524Y-84282524D01*
X180364555Y-84268548D01*
X180383991Y-84258160D01*
X180405072Y-84251764D01*
X180433140Y-84249000D01*
X180896860Y-84249000D01*
X180924928Y-84251764D01*
G37*
G36*
X179654928Y-84251764D02*
G01*
X179676009Y-84258160D01*
X179695445Y-84268548D01*
X179712476Y-84282524D01*
X179726452Y-84299555D01*
X179736840Y-84318991D01*
X179743236Y-84340072D01*
X179746000Y-84368140D01*
X179746000Y-86181860D01*
X179743236Y-86209928D01*
X179736840Y-86231009D01*
X179726452Y-86250445D01*
X179712476Y-86267476D01*
X179695445Y-86281452D01*
X179676009Y-86291840D01*
X179654928Y-86298236D01*
X179626860Y-86301000D01*
X179163140Y-86301000D01*
X179135072Y-86298236D01*
X179113991Y-86291840D01*
X179094555Y-86281452D01*
X179077524Y-86267476D01*
X179063548Y-86250445D01*
X179053160Y-86231009D01*
X179046764Y-86209928D01*
X179044000Y-86181860D01*
X179044000Y-84368140D01*
X179046764Y-84340072D01*
X179053160Y-84318991D01*
X179063548Y-84299555D01*
X179077524Y-84282524D01*
X179094555Y-84268548D01*
X179113991Y-84258160D01*
X179135072Y-84251764D01*
X179163140Y-84249000D01*
X179626860Y-84249000D01*
X179654928Y-84251764D01*
G37*
G36*
X200759928Y-85576764D02*
G01*
X200781009Y-85583160D01*
X200800445Y-85593548D01*
X200817476Y-85607524D01*
X200831452Y-85624555D01*
X200841840Y-85643991D01*
X200848236Y-85665072D01*
X200851000Y-85693140D01*
X200851000Y-86156860D01*
X200848236Y-86184928D01*
X200841840Y-86206009D01*
X200831452Y-86225445D01*
X200817476Y-86242476D01*
X200800445Y-86256452D01*
X200781009Y-86266840D01*
X200759928Y-86273236D01*
X200731860Y-86276000D01*
X199218140Y-86276000D01*
X199190072Y-86273236D01*
X199168991Y-86266840D01*
X199149555Y-86256452D01*
X199132524Y-86242476D01*
X199118548Y-86225445D01*
X199108160Y-86206009D01*
X199101764Y-86184928D01*
X199099000Y-86156860D01*
X199099000Y-85693140D01*
X199101764Y-85665072D01*
X199108160Y-85643991D01*
X199118548Y-85624555D01*
X199132524Y-85607524D01*
X199149555Y-85593548D01*
X199168991Y-85583160D01*
X199190072Y-85576764D01*
X199218140Y-85574000D01*
X200731860Y-85574000D01*
X200759928Y-85576764D01*
G37*
G36*
X137788674Y-85028465D02*
G01*
X137826367Y-85039899D01*
X137861103Y-85058466D01*
X137891548Y-85083452D01*
X137916534Y-85113897D01*
X137935101Y-85148633D01*
X137946535Y-85186326D01*
X137951000Y-85231661D01*
X137951000Y-86068339D01*
X137946535Y-86113674D01*
X137935101Y-86151367D01*
X137916534Y-86186103D01*
X137891548Y-86216548D01*
X137861103Y-86241534D01*
X137826367Y-86260101D01*
X137788674Y-86271535D01*
X137743339Y-86276000D01*
X136656661Y-86276000D01*
X136611326Y-86271535D01*
X136573633Y-86260101D01*
X136538897Y-86241534D01*
X136508452Y-86216548D01*
X136483466Y-86186103D01*
X136464899Y-86151367D01*
X136453465Y-86113674D01*
X136449000Y-86068339D01*
X136449000Y-85231661D01*
X136453465Y-85186326D01*
X136464899Y-85148633D01*
X136483466Y-85113897D01*
X136508452Y-85083452D01*
X136538897Y-85058466D01*
X136573633Y-85039899D01*
X136611326Y-85028465D01*
X136656661Y-85024000D01*
X137743339Y-85024000D01*
X137788674Y-85028465D01*
G37*
G36*
X195509928Y-85576764D02*
G01*
X195531009Y-85583160D01*
X195550445Y-85593548D01*
X195567476Y-85607524D01*
X195581452Y-85624555D01*
X195591840Y-85643991D01*
X195598236Y-85665072D01*
X195601000Y-85693140D01*
X195601000Y-86156860D01*
X195598236Y-86184928D01*
X195591840Y-86206009D01*
X195581452Y-86225445D01*
X195567476Y-86242476D01*
X195550445Y-86256452D01*
X195531009Y-86266840D01*
X195509928Y-86273236D01*
X195481860Y-86276000D01*
X193968140Y-86276000D01*
X193940072Y-86273236D01*
X193918991Y-86266840D01*
X193899555Y-86256452D01*
X193882524Y-86242476D01*
X193868548Y-86225445D01*
X193858160Y-86206009D01*
X193851764Y-86184928D01*
X193849000Y-86156860D01*
X193849000Y-85693140D01*
X193851764Y-85665072D01*
X193858160Y-85643991D01*
X193868548Y-85624555D01*
X193882524Y-85607524D01*
X193899555Y-85593548D01*
X193918991Y-85583160D01*
X193940072Y-85576764D01*
X193968140Y-85574000D01*
X195481860Y-85574000D01*
X195509928Y-85576764D01*
G37*
G36*
X185664499Y-84803445D02*
G01*
X185701995Y-84814820D01*
X185736554Y-84833292D01*
X185766847Y-84858153D01*
X185791708Y-84888446D01*
X185810180Y-84923005D01*
X185821555Y-84960501D01*
X185826000Y-85005638D01*
X185826000Y-85744362D01*
X185821555Y-85789499D01*
X185810180Y-85826995D01*
X185791708Y-85861554D01*
X185766847Y-85891847D01*
X185736554Y-85916708D01*
X185701995Y-85935180D01*
X185664499Y-85946555D01*
X185619362Y-85951000D01*
X184980638Y-85951000D01*
X184935501Y-85946555D01*
X184898005Y-85935180D01*
X184863446Y-85916708D01*
X184833153Y-85891847D01*
X184808292Y-85861554D01*
X184789820Y-85826995D01*
X184778445Y-85789499D01*
X184774000Y-85744362D01*
X184774000Y-85005638D01*
X184778445Y-84960501D01*
X184789820Y-84923005D01*
X184808292Y-84888446D01*
X184833153Y-84858153D01*
X184863446Y-84833292D01*
X184898005Y-84814820D01*
X184935501Y-84803445D01*
X184980638Y-84799000D01*
X185619362Y-84799000D01*
X185664499Y-84803445D01*
G37*
G36*
X171081000Y-85801000D02*
G01*
X169379000Y-85801000D01*
X169379000Y-83499000D01*
X171081000Y-83499000D01*
X171081000Y-85801000D01*
G37*
G36*
X176161000Y-85801000D02*
G01*
X174459000Y-85801000D01*
X174459000Y-83499000D01*
X176161000Y-83499000D01*
X176161000Y-85801000D01*
G37*
G36*
X173621000Y-85801000D02*
G01*
X171919000Y-85801000D01*
X171919000Y-83499000D01*
X173621000Y-83499000D01*
X173621000Y-85801000D01*
G37*
G36*
X168541000Y-85801000D02*
G01*
X166839000Y-85801000D01*
X166839000Y-83499000D01*
X168541000Y-83499000D01*
X168541000Y-85801000D01*
G37*
G36*
X159781000Y-85701000D02*
G01*
X158079000Y-85701000D01*
X158079000Y-83399000D01*
X159781000Y-83399000D01*
X159781000Y-85701000D01*
G37*
G36*
X164861000Y-85701000D02*
G01*
X163159000Y-85701000D01*
X163159000Y-83399000D01*
X164861000Y-83399000D01*
X164861000Y-85701000D01*
G37*
G36*
X162321000Y-85701000D02*
G01*
X160619000Y-85701000D01*
X160619000Y-83399000D01*
X162321000Y-83399000D01*
X162321000Y-85701000D01*
G37*
G36*
X157241000Y-85701000D02*
G01*
X155539000Y-85701000D01*
X155539000Y-83399000D01*
X157241000Y-83399000D01*
X157241000Y-85701000D01*
G37*
G36*
X131364499Y-84353445D02*
G01*
X131401995Y-84364820D01*
X131436554Y-84383292D01*
X131466847Y-84408153D01*
X131491708Y-84438446D01*
X131510180Y-84473005D01*
X131521555Y-84510501D01*
X131526000Y-84555638D01*
X131526000Y-85294362D01*
X131521555Y-85339499D01*
X131510180Y-85376995D01*
X131491708Y-85411554D01*
X131466847Y-85441847D01*
X131436554Y-85466708D01*
X131401995Y-85485180D01*
X131364499Y-85496555D01*
X131319362Y-85501000D01*
X130680638Y-85501000D01*
X130635501Y-85496555D01*
X130598005Y-85485180D01*
X130563446Y-85466708D01*
X130533153Y-85441847D01*
X130508292Y-85411554D01*
X130489820Y-85376995D01*
X130478445Y-85339499D01*
X130474000Y-85294362D01*
X130474000Y-84555638D01*
X130478445Y-84510501D01*
X130489820Y-84473005D01*
X130508292Y-84438446D01*
X130533153Y-84408153D01*
X130563446Y-84383292D01*
X130598005Y-84364820D01*
X130635501Y-84353445D01*
X130680638Y-84349000D01*
X131319362Y-84349000D01*
X131364499Y-84353445D01*
G37*
G36*
X118064581Y-83833723D02*
G01*
X118217178Y-83896930D01*
X118354512Y-83988694D01*
X118471306Y-84105488D01*
X118563070Y-84242822D01*
X118626277Y-84395419D01*
X118658500Y-84557414D01*
X118658500Y-84722586D01*
X118626277Y-84884581D01*
X118563070Y-85037178D01*
X118471306Y-85174512D01*
X118354512Y-85291306D01*
X118217178Y-85383070D01*
X118064581Y-85446277D01*
X117902586Y-85478500D01*
X117737414Y-85478500D01*
X117575419Y-85446277D01*
X117422822Y-85383070D01*
X117285488Y-85291306D01*
X117168694Y-85174512D01*
X117076930Y-85037178D01*
X117013723Y-84884581D01*
X116981500Y-84722586D01*
X116981500Y-84557414D01*
X117013723Y-84395419D01*
X117076930Y-84242822D01*
X117168694Y-84105488D01*
X117285488Y-83988694D01*
X117422822Y-83896930D01*
X117575419Y-83833723D01*
X117737414Y-83801500D01*
X117902586Y-83801500D01*
X118064581Y-83833723D01*
G37*
G36*
X124113512Y-83643927D02*
G01*
X124262812Y-83673624D01*
X124426784Y-83741544D01*
X124574354Y-83840147D01*
X124699853Y-83965646D01*
X124798456Y-84113216D01*
X124866376Y-84277188D01*
X124901000Y-84451259D01*
X124901000Y-84628741D01*
X124866376Y-84802812D01*
X124798456Y-84966784D01*
X124699853Y-85114354D01*
X124574354Y-85239853D01*
X124426784Y-85338456D01*
X124262812Y-85406376D01*
X124113512Y-85436073D01*
X124088742Y-85441000D01*
X123911258Y-85441000D01*
X123886488Y-85436073D01*
X123737188Y-85406376D01*
X123573216Y-85338456D01*
X123425646Y-85239853D01*
X123300147Y-85114354D01*
X123201544Y-84966784D01*
X123133624Y-84802812D01*
X123099000Y-84628741D01*
X123099000Y-84451259D01*
X123133624Y-84277188D01*
X123201544Y-84113216D01*
X123300147Y-83965646D01*
X123425646Y-83840147D01*
X123573216Y-83741544D01*
X123737188Y-83673624D01*
X123886488Y-83643927D01*
X123911258Y-83639000D01*
X124088742Y-83639000D01*
X124113512Y-83643927D01*
G37*
G36*
X195509928Y-84306764D02*
G01*
X195531009Y-84313160D01*
X195550445Y-84323548D01*
X195567476Y-84337524D01*
X195581452Y-84354555D01*
X195591840Y-84373991D01*
X195598236Y-84395072D01*
X195601000Y-84423140D01*
X195601000Y-84886860D01*
X195598236Y-84914928D01*
X195591840Y-84936009D01*
X195581452Y-84955445D01*
X195567476Y-84972476D01*
X195550445Y-84986452D01*
X195531009Y-84996840D01*
X195509928Y-85003236D01*
X195481860Y-85006000D01*
X193968140Y-85006000D01*
X193940072Y-85003236D01*
X193918991Y-84996840D01*
X193899555Y-84986452D01*
X193882524Y-84972476D01*
X193868548Y-84955445D01*
X193858160Y-84936009D01*
X193851764Y-84914928D01*
X193849000Y-84886860D01*
X193849000Y-84423140D01*
X193851764Y-84395072D01*
X193858160Y-84373991D01*
X193868548Y-84354555D01*
X193882524Y-84337524D01*
X193899555Y-84323548D01*
X193918991Y-84313160D01*
X193940072Y-84306764D01*
X193968140Y-84304000D01*
X195481860Y-84304000D01*
X195509928Y-84306764D01*
G37*
G36*
X200759928Y-84306764D02*
G01*
X200781009Y-84313160D01*
X200800445Y-84323548D01*
X200817476Y-84337524D01*
X200831452Y-84354555D01*
X200841840Y-84373991D01*
X200848236Y-84395072D01*
X200851000Y-84423140D01*
X200851000Y-84886860D01*
X200848236Y-84914928D01*
X200841840Y-84936009D01*
X200831452Y-84955445D01*
X200817476Y-84972476D01*
X200800445Y-84986452D01*
X200781009Y-84996840D01*
X200759928Y-85003236D01*
X200731860Y-85006000D01*
X199218140Y-85006000D01*
X199190072Y-85003236D01*
X199168991Y-84996840D01*
X199149555Y-84986452D01*
X199132524Y-84972476D01*
X199118548Y-84955445D01*
X199108160Y-84936009D01*
X199101764Y-84914928D01*
X199099000Y-84886860D01*
X199099000Y-84423140D01*
X199101764Y-84395072D01*
X199108160Y-84373991D01*
X199118548Y-84354555D01*
X199132524Y-84337524D01*
X199149555Y-84323548D01*
X199168991Y-84313160D01*
X199190072Y-84306764D01*
X199218140Y-84304000D01*
X200731860Y-84304000D01*
X200759928Y-84306764D01*
G37*
G36*
X192964499Y-83828445D02*
G01*
X193001995Y-83839820D01*
X193036554Y-83858292D01*
X193066847Y-83883153D01*
X193091708Y-83913446D01*
X193110180Y-83948005D01*
X193121555Y-83985501D01*
X193126000Y-84030638D01*
X193126000Y-84769362D01*
X193121555Y-84814499D01*
X193110180Y-84851995D01*
X193091708Y-84886554D01*
X193066847Y-84916847D01*
X193036554Y-84941708D01*
X193001995Y-84960180D01*
X192964499Y-84971555D01*
X192919362Y-84976000D01*
X192280638Y-84976000D01*
X192235501Y-84971555D01*
X192198005Y-84960180D01*
X192163446Y-84941708D01*
X192133153Y-84916847D01*
X192108292Y-84886554D01*
X192089820Y-84851995D01*
X192078445Y-84814499D01*
X192074000Y-84769362D01*
X192074000Y-84030638D01*
X192078445Y-83985501D01*
X192089820Y-83948005D01*
X192108292Y-83913446D01*
X192133153Y-83883153D01*
X192163446Y-83858292D01*
X192198005Y-83839820D01*
X192235501Y-83828445D01*
X192280638Y-83824000D01*
X192919362Y-83824000D01*
X192964499Y-83828445D01*
G37*
G36*
X143109655Y-83043160D02*
G01*
X143262812Y-83073624D01*
X143426784Y-83141544D01*
X143574354Y-83240147D01*
X143699853Y-83365646D01*
X143798456Y-83513216D01*
X143866376Y-83677188D01*
X143901000Y-83851259D01*
X143901000Y-84028741D01*
X143866376Y-84202812D01*
X143798456Y-84366784D01*
X143699853Y-84514354D01*
X143574354Y-84639853D01*
X143426784Y-84738456D01*
X143262812Y-84806376D01*
X143113512Y-84836073D01*
X143088742Y-84841000D01*
X142911258Y-84841000D01*
X142886488Y-84836073D01*
X142737188Y-84806376D01*
X142573216Y-84738456D01*
X142425646Y-84639853D01*
X142300147Y-84514354D01*
X142201544Y-84366784D01*
X142133624Y-84202812D01*
X142099000Y-84028741D01*
X142099000Y-83851259D01*
X142133624Y-83677188D01*
X142201544Y-83513216D01*
X142300147Y-83365646D01*
X142425646Y-83240147D01*
X142573216Y-83141544D01*
X142737188Y-83073624D01*
X142890345Y-83043160D01*
X142911258Y-83039000D01*
X143088742Y-83039000D01*
X143109655Y-83043160D01*
G37*
G36*
X189364499Y-83778445D02*
G01*
X189401995Y-83789820D01*
X189436554Y-83808292D01*
X189466847Y-83833153D01*
X189491708Y-83863446D01*
X189510180Y-83898005D01*
X189521555Y-83935501D01*
X189526000Y-83980638D01*
X189526000Y-84619362D01*
X189521555Y-84664499D01*
X189510180Y-84701995D01*
X189491708Y-84736554D01*
X189466847Y-84766847D01*
X189436554Y-84791708D01*
X189401995Y-84810180D01*
X189364499Y-84821555D01*
X189319362Y-84826000D01*
X188580638Y-84826000D01*
X188535501Y-84821555D01*
X188498005Y-84810180D01*
X188463446Y-84791708D01*
X188433153Y-84766847D01*
X188408292Y-84736554D01*
X188389820Y-84701995D01*
X188378445Y-84664499D01*
X188374000Y-84619362D01*
X188374000Y-83980638D01*
X188378445Y-83935501D01*
X188389820Y-83898005D01*
X188408292Y-83863446D01*
X188433153Y-83833153D01*
X188463446Y-83808292D01*
X188498005Y-83789820D01*
X188535501Y-83778445D01*
X188580638Y-83774000D01*
X189319362Y-83774000D01*
X189364499Y-83778445D01*
G37*
G36*
X191114499Y-83778445D02*
G01*
X191151995Y-83789820D01*
X191186554Y-83808292D01*
X191216847Y-83833153D01*
X191241708Y-83863446D01*
X191260180Y-83898005D01*
X191271555Y-83935501D01*
X191276000Y-83980638D01*
X191276000Y-84619362D01*
X191271555Y-84664499D01*
X191260180Y-84701995D01*
X191241708Y-84736554D01*
X191216847Y-84766847D01*
X191186554Y-84791708D01*
X191151995Y-84810180D01*
X191114499Y-84821555D01*
X191069362Y-84826000D01*
X190330638Y-84826000D01*
X190285501Y-84821555D01*
X190248005Y-84810180D01*
X190213446Y-84791708D01*
X190183153Y-84766847D01*
X190158292Y-84736554D01*
X190139820Y-84701995D01*
X190128445Y-84664499D01*
X190124000Y-84619362D01*
X190124000Y-83980638D01*
X190128445Y-83935501D01*
X190139820Y-83898005D01*
X190158292Y-83863446D01*
X190183153Y-83833153D01*
X190213446Y-83808292D01*
X190248005Y-83789820D01*
X190285501Y-83778445D01*
X190330638Y-83774000D01*
X191069362Y-83774000D01*
X191114499Y-83778445D01*
G37*
G36*
X137763674Y-83103465D02*
G01*
X137801367Y-83114899D01*
X137836103Y-83133466D01*
X137866548Y-83158452D01*
X137891534Y-83188897D01*
X137910101Y-83223633D01*
X137921535Y-83261326D01*
X137926000Y-83306661D01*
X137926000Y-84143339D01*
X137921535Y-84188674D01*
X137910101Y-84226367D01*
X137891534Y-84261103D01*
X137866548Y-84291548D01*
X137836103Y-84316534D01*
X137801367Y-84335101D01*
X137763674Y-84346535D01*
X137718339Y-84351000D01*
X136631661Y-84351000D01*
X136586326Y-84346535D01*
X136548633Y-84335101D01*
X136513897Y-84316534D01*
X136483452Y-84291548D01*
X136458466Y-84261103D01*
X136439899Y-84226367D01*
X136428465Y-84188674D01*
X136424000Y-84143339D01*
X136424000Y-83306661D01*
X136428465Y-83261326D01*
X136439899Y-83223633D01*
X136458466Y-83188897D01*
X136483452Y-83158452D01*
X136513897Y-83133466D01*
X136548633Y-83114899D01*
X136586326Y-83103465D01*
X136631661Y-83099000D01*
X137718339Y-83099000D01*
X137763674Y-83103465D01*
G37*
G36*
X185664499Y-83053445D02*
G01*
X185701995Y-83064820D01*
X185736554Y-83083292D01*
X185766847Y-83108153D01*
X185791708Y-83138446D01*
X185810180Y-83173005D01*
X185821555Y-83210501D01*
X185826000Y-83255638D01*
X185826000Y-83994362D01*
X185821555Y-84039499D01*
X185810180Y-84076995D01*
X185791708Y-84111554D01*
X185766847Y-84141847D01*
X185736554Y-84166708D01*
X185701995Y-84185180D01*
X185664499Y-84196555D01*
X185619362Y-84201000D01*
X184980638Y-84201000D01*
X184935501Y-84196555D01*
X184898005Y-84185180D01*
X184863446Y-84166708D01*
X184833153Y-84141847D01*
X184808292Y-84111554D01*
X184789820Y-84076995D01*
X184778445Y-84039499D01*
X184774000Y-83994362D01*
X184774000Y-83255638D01*
X184778445Y-83210501D01*
X184789820Y-83173005D01*
X184808292Y-83138446D01*
X184833153Y-83108153D01*
X184863446Y-83083292D01*
X184898005Y-83064820D01*
X184935501Y-83053445D01*
X184980638Y-83049000D01*
X185619362Y-83049000D01*
X185664499Y-83053445D01*
G37*
G36*
X115224581Y-82453723D02*
G01*
X115377178Y-82516930D01*
X115514512Y-82608694D01*
X115631306Y-82725488D01*
X115723070Y-82862822D01*
X115786277Y-83015419D01*
X115818500Y-83177414D01*
X115818500Y-83342586D01*
X115786277Y-83504581D01*
X115723070Y-83657178D01*
X115631306Y-83794512D01*
X115514512Y-83911306D01*
X115377178Y-84003070D01*
X115224581Y-84066277D01*
X115062586Y-84098500D01*
X114897414Y-84098500D01*
X114735419Y-84066277D01*
X114582822Y-84003070D01*
X114445488Y-83911306D01*
X114328694Y-83794512D01*
X114236930Y-83657178D01*
X114173723Y-83504581D01*
X114141500Y-83342586D01*
X114141500Y-83177414D01*
X114173723Y-83015419D01*
X114236930Y-82862822D01*
X114328694Y-82725488D01*
X114445488Y-82608694D01*
X114582822Y-82516930D01*
X114735419Y-82453723D01*
X114897414Y-82421500D01*
X115062586Y-82421500D01*
X115224581Y-82453723D01*
G37*
G36*
X195509928Y-83036764D02*
G01*
X195531009Y-83043160D01*
X195550445Y-83053548D01*
X195567476Y-83067524D01*
X195581452Y-83084555D01*
X195591840Y-83103991D01*
X195598236Y-83125072D01*
X195601000Y-83153140D01*
X195601000Y-83616860D01*
X195598236Y-83644928D01*
X195591840Y-83666009D01*
X195581452Y-83685445D01*
X195567476Y-83702476D01*
X195550445Y-83716452D01*
X195531009Y-83726840D01*
X195509928Y-83733236D01*
X195481860Y-83736000D01*
X193968140Y-83736000D01*
X193940072Y-83733236D01*
X193918991Y-83726840D01*
X193899555Y-83716452D01*
X193882524Y-83702476D01*
X193868548Y-83685445D01*
X193858160Y-83666009D01*
X193851764Y-83644928D01*
X193849000Y-83616860D01*
X193849000Y-83153140D01*
X193851764Y-83125072D01*
X193858160Y-83103991D01*
X193868548Y-83084555D01*
X193882524Y-83067524D01*
X193899555Y-83053548D01*
X193918991Y-83043160D01*
X193940072Y-83036764D01*
X193968140Y-83034000D01*
X195481860Y-83034000D01*
X195509928Y-83036764D01*
G37*
G36*
X200759928Y-83036764D02*
G01*
X200781009Y-83043160D01*
X200800445Y-83053548D01*
X200817476Y-83067524D01*
X200831452Y-83084555D01*
X200841840Y-83103991D01*
X200848236Y-83125072D01*
X200851000Y-83153140D01*
X200851000Y-83616860D01*
X200848236Y-83644928D01*
X200841840Y-83666009D01*
X200831452Y-83685445D01*
X200817476Y-83702476D01*
X200800445Y-83716452D01*
X200781009Y-83726840D01*
X200759928Y-83733236D01*
X200731860Y-83736000D01*
X199218140Y-83736000D01*
X199190072Y-83733236D01*
X199168991Y-83726840D01*
X199149555Y-83716452D01*
X199132524Y-83702476D01*
X199118548Y-83685445D01*
X199108160Y-83666009D01*
X199101764Y-83644928D01*
X199099000Y-83616860D01*
X199099000Y-83153140D01*
X199101764Y-83125072D01*
X199108160Y-83103991D01*
X199118548Y-83084555D01*
X199132524Y-83067524D01*
X199149555Y-83053548D01*
X199168991Y-83043160D01*
X199190072Y-83036764D01*
X199218140Y-83034000D01*
X200731860Y-83034000D01*
X200759928Y-83036764D01*
G37*
G36*
X202664499Y-82528445D02*
G01*
X202701995Y-82539820D01*
X202736554Y-82558292D01*
X202766847Y-82583153D01*
X202791708Y-82613446D01*
X202810180Y-82648005D01*
X202821555Y-82685501D01*
X202826000Y-82730638D01*
X202826000Y-83469362D01*
X202821555Y-83514499D01*
X202810180Y-83551995D01*
X202791708Y-83586554D01*
X202766847Y-83616847D01*
X202736554Y-83641708D01*
X202701995Y-83660180D01*
X202664499Y-83671555D01*
X202619362Y-83676000D01*
X201980638Y-83676000D01*
X201935501Y-83671555D01*
X201898005Y-83660180D01*
X201863446Y-83641708D01*
X201833153Y-83616847D01*
X201808292Y-83586554D01*
X201789820Y-83551995D01*
X201778445Y-83514499D01*
X201774000Y-83469362D01*
X201774000Y-82730638D01*
X201778445Y-82685501D01*
X201789820Y-82648005D01*
X201808292Y-82613446D01*
X201833153Y-82583153D01*
X201863446Y-82558292D01*
X201898005Y-82539820D01*
X201935501Y-82528445D01*
X201980638Y-82524000D01*
X202619362Y-82524000D01*
X202664499Y-82528445D01*
G37*
G36*
X131675562Y-81840681D02*
G01*
X131710481Y-81851274D01*
X131742663Y-81868476D01*
X131770873Y-81891627D01*
X131794024Y-81919837D01*
X131811226Y-81952019D01*
X131821819Y-81986938D01*
X131826000Y-82029395D01*
X131826000Y-83170605D01*
X131821819Y-83213062D01*
X131811226Y-83247981D01*
X131794024Y-83280163D01*
X131770873Y-83308373D01*
X131742663Y-83331524D01*
X131710481Y-83348726D01*
X131675562Y-83359319D01*
X131633105Y-83363500D01*
X130166895Y-83363500D01*
X130124438Y-83359319D01*
X130089519Y-83348726D01*
X130057337Y-83331524D01*
X130029127Y-83308373D01*
X130005976Y-83280163D01*
X129988774Y-83247981D01*
X129978181Y-83213062D01*
X129974000Y-83170605D01*
X129974000Y-82029395D01*
X129978181Y-81986938D01*
X129988774Y-81952019D01*
X130005976Y-81919837D01*
X130029127Y-81891627D01*
X130057337Y-81868476D01*
X130089519Y-81851274D01*
X130124438Y-81840681D01*
X130166895Y-81836500D01*
X131633105Y-81836500D01*
X131675562Y-81840681D01*
G37*
G36*
X124901000Y-82901000D02*
G01*
X123099000Y-82901000D01*
X123099000Y-81099000D01*
X124901000Y-81099000D01*
X124901000Y-82901000D01*
G37*
G36*
X118064581Y-81073723D02*
G01*
X118217178Y-81136930D01*
X118354512Y-81228694D01*
X118471306Y-81345488D01*
X118563070Y-81482822D01*
X118626277Y-81635419D01*
X118658500Y-81797414D01*
X118658500Y-81962586D01*
X118626277Y-82124581D01*
X118563070Y-82277178D01*
X118471306Y-82414512D01*
X118354512Y-82531306D01*
X118217178Y-82623070D01*
X118064581Y-82686277D01*
X117902586Y-82718500D01*
X117737414Y-82718500D01*
X117575419Y-82686277D01*
X117422822Y-82623070D01*
X117285488Y-82531306D01*
X117168694Y-82414512D01*
X117076930Y-82277178D01*
X117013723Y-82124581D01*
X116981500Y-81962586D01*
X116981500Y-81797414D01*
X117013723Y-81635419D01*
X117076930Y-81482822D01*
X117168694Y-81345488D01*
X117285488Y-81228694D01*
X117422822Y-81136930D01*
X117575419Y-81073723D01*
X117737414Y-81041500D01*
X117902586Y-81041500D01*
X118064581Y-81073723D01*
G37*
G36*
X192764499Y-81478445D02*
G01*
X192801995Y-81489820D01*
X192836554Y-81508292D01*
X192866847Y-81533153D01*
X192891708Y-81563446D01*
X192910180Y-81598005D01*
X192921555Y-81635501D01*
X192926000Y-81680638D01*
X192926000Y-82419362D01*
X192921555Y-82464499D01*
X192910180Y-82501995D01*
X192891708Y-82536554D01*
X192866847Y-82566847D01*
X192836554Y-82591708D01*
X192801995Y-82610180D01*
X192764499Y-82621555D01*
X192719362Y-82626000D01*
X192080638Y-82626000D01*
X192035501Y-82621555D01*
X191998005Y-82610180D01*
X191963446Y-82591708D01*
X191933153Y-82566847D01*
X191908292Y-82536554D01*
X191889820Y-82501995D01*
X191878445Y-82464499D01*
X191874000Y-82419362D01*
X191874000Y-81680638D01*
X191878445Y-81635501D01*
X191889820Y-81598005D01*
X191908292Y-81563446D01*
X191933153Y-81533153D01*
X191963446Y-81508292D01*
X191998005Y-81489820D01*
X192035501Y-81478445D01*
X192080638Y-81474000D01*
X192719362Y-81474000D01*
X192764499Y-81478445D01*
G37*
G36*
X195509928Y-81766764D02*
G01*
X195531009Y-81773160D01*
X195550445Y-81783548D01*
X195567476Y-81797524D01*
X195581452Y-81814555D01*
X195591840Y-81833991D01*
X195598236Y-81855072D01*
X195601000Y-81883140D01*
X195601000Y-82346860D01*
X195598236Y-82374928D01*
X195591840Y-82396009D01*
X195581452Y-82415445D01*
X195567476Y-82432476D01*
X195550445Y-82446452D01*
X195531009Y-82456840D01*
X195509928Y-82463236D01*
X195481860Y-82466000D01*
X193968140Y-82466000D01*
X193940072Y-82463236D01*
X193918991Y-82456840D01*
X193899555Y-82446452D01*
X193882524Y-82432476D01*
X193868548Y-82415445D01*
X193858160Y-82396009D01*
X193851764Y-82374928D01*
X193849000Y-82346860D01*
X193849000Y-81883140D01*
X193851764Y-81855072D01*
X193858160Y-81833991D01*
X193868548Y-81814555D01*
X193882524Y-81797524D01*
X193899555Y-81783548D01*
X193918991Y-81773160D01*
X193940072Y-81766764D01*
X193968140Y-81764000D01*
X195481860Y-81764000D01*
X195509928Y-81766764D01*
G37*
G36*
X200759928Y-81766764D02*
G01*
X200781009Y-81773160D01*
X200800445Y-81783548D01*
X200817476Y-81797524D01*
X200831452Y-81814555D01*
X200841840Y-81833991D01*
X200848236Y-81855072D01*
X200851000Y-81883140D01*
X200851000Y-82346860D01*
X200848236Y-82374928D01*
X200841840Y-82396009D01*
X200831452Y-82415445D01*
X200817476Y-82432476D01*
X200800445Y-82446452D01*
X200781009Y-82456840D01*
X200759928Y-82463236D01*
X200731860Y-82466000D01*
X199218140Y-82466000D01*
X199190072Y-82463236D01*
X199168991Y-82456840D01*
X199149555Y-82446452D01*
X199132524Y-82432476D01*
X199118548Y-82415445D01*
X199108160Y-82396009D01*
X199101764Y-82374928D01*
X199099000Y-82346860D01*
X199099000Y-81883140D01*
X199101764Y-81855072D01*
X199108160Y-81833991D01*
X199118548Y-81814555D01*
X199132524Y-81797524D01*
X199149555Y-81783548D01*
X199168991Y-81773160D01*
X199190072Y-81766764D01*
X199218140Y-81764000D01*
X200731860Y-81764000D01*
X200759928Y-81766764D01*
G37*
G36*
X137763674Y-81053465D02*
G01*
X137801367Y-81064899D01*
X137836103Y-81083466D01*
X137866548Y-81108452D01*
X137891534Y-81138897D01*
X137910101Y-81173633D01*
X137921535Y-81211326D01*
X137926000Y-81256661D01*
X137926000Y-82093339D01*
X137921535Y-82138674D01*
X137910101Y-82176367D01*
X137891534Y-82211103D01*
X137866548Y-82241548D01*
X137836103Y-82266534D01*
X137801367Y-82285101D01*
X137763674Y-82296535D01*
X137718339Y-82301000D01*
X136631661Y-82301000D01*
X136586326Y-82296535D01*
X136548633Y-82285101D01*
X136513897Y-82266534D01*
X136483452Y-82241548D01*
X136458466Y-82211103D01*
X136439899Y-82176367D01*
X136428465Y-82138674D01*
X136424000Y-82093339D01*
X136424000Y-81256661D01*
X136428465Y-81211326D01*
X136439899Y-81173633D01*
X136458466Y-81138897D01*
X136483452Y-81108452D01*
X136513897Y-81083466D01*
X136548633Y-81064899D01*
X136586326Y-81053465D01*
X136631661Y-81049000D01*
X137718339Y-81049000D01*
X137763674Y-81053465D01*
G37*
G36*
X143901000Y-82301000D02*
G01*
X142099000Y-82301000D01*
X142099000Y-80499000D01*
X143901000Y-80499000D01*
X143901000Y-82301000D01*
G37*
G36*
X202664499Y-80778445D02*
G01*
X202701995Y-80789820D01*
X202736554Y-80808292D01*
X202766847Y-80833153D01*
X202791708Y-80863446D01*
X202810180Y-80898005D01*
X202821555Y-80935501D01*
X202826000Y-80980638D01*
X202826000Y-81719362D01*
X202821555Y-81764499D01*
X202810180Y-81801995D01*
X202791708Y-81836554D01*
X202766847Y-81866847D01*
X202736554Y-81891708D01*
X202701995Y-81910180D01*
X202664499Y-81921555D01*
X202619362Y-81926000D01*
X201980638Y-81926000D01*
X201935501Y-81921555D01*
X201898005Y-81910180D01*
X201863446Y-81891708D01*
X201833153Y-81866847D01*
X201808292Y-81836554D01*
X201789820Y-81801995D01*
X201778445Y-81764499D01*
X201774000Y-81719362D01*
X201774000Y-80980638D01*
X201778445Y-80935501D01*
X201789820Y-80898005D01*
X201808292Y-80863446D01*
X201833153Y-80833153D01*
X201863446Y-80808292D01*
X201898005Y-80789820D01*
X201935501Y-80778445D01*
X201980638Y-80774000D01*
X202619362Y-80774000D01*
X202664499Y-80778445D01*
G37*
G36*
X182194928Y-79301764D02*
G01*
X182216009Y-79308160D01*
X182235445Y-79318548D01*
X182252476Y-79332524D01*
X182266452Y-79349555D01*
X182276840Y-79368991D01*
X182283236Y-79390072D01*
X182286000Y-79418140D01*
X182286000Y-81231860D01*
X182283236Y-81259928D01*
X182276840Y-81281009D01*
X182266452Y-81300445D01*
X182252476Y-81317476D01*
X182235445Y-81331452D01*
X182216009Y-81341840D01*
X182194928Y-81348236D01*
X182166860Y-81351000D01*
X181703140Y-81351000D01*
X181675072Y-81348236D01*
X181653991Y-81341840D01*
X181634555Y-81331452D01*
X181617524Y-81317476D01*
X181603548Y-81300445D01*
X181593160Y-81281009D01*
X181586764Y-81259928D01*
X181584000Y-81231860D01*
X181584000Y-79418140D01*
X181586764Y-79390072D01*
X181593160Y-79368991D01*
X181603548Y-79349555D01*
X181617524Y-79332524D01*
X181634555Y-79318548D01*
X181653991Y-79308160D01*
X181675072Y-79301764D01*
X181703140Y-79299000D01*
X182166860Y-79299000D01*
X182194928Y-79301764D01*
G37*
G36*
X180924928Y-79301764D02*
G01*
X180946009Y-79308160D01*
X180965445Y-79318548D01*
X180982476Y-79332524D01*
X180996452Y-79349555D01*
X181006840Y-79368991D01*
X181013236Y-79390072D01*
X181016000Y-79418140D01*
X181016000Y-81231860D01*
X181013236Y-81259928D01*
X181006840Y-81281009D01*
X180996452Y-81300445D01*
X180982476Y-81317476D01*
X180965445Y-81331452D01*
X180946009Y-81341840D01*
X180924928Y-81348236D01*
X180896860Y-81351000D01*
X180433140Y-81351000D01*
X180405072Y-81348236D01*
X180383991Y-81341840D01*
X180364555Y-81331452D01*
X180347524Y-81317476D01*
X180333548Y-81300445D01*
X180323160Y-81281009D01*
X180316764Y-81259928D01*
X180314000Y-81231860D01*
X180314000Y-79418140D01*
X180316764Y-79390072D01*
X180323160Y-79368991D01*
X180333548Y-79349555D01*
X180347524Y-79332524D01*
X180364555Y-79318548D01*
X180383991Y-79308160D01*
X180405072Y-79301764D01*
X180433140Y-79299000D01*
X180896860Y-79299000D01*
X180924928Y-79301764D01*
G37*
G36*
X179654928Y-79301764D02*
G01*
X179676009Y-79308160D01*
X179695445Y-79318548D01*
X179712476Y-79332524D01*
X179726452Y-79349555D01*
X179736840Y-79368991D01*
X179743236Y-79390072D01*
X179746000Y-79418140D01*
X179746000Y-81231860D01*
X179743236Y-81259928D01*
X179736840Y-81281009D01*
X179726452Y-81300445D01*
X179712476Y-81317476D01*
X179695445Y-81331452D01*
X179676009Y-81341840D01*
X179654928Y-81348236D01*
X179626860Y-81351000D01*
X179163140Y-81351000D01*
X179135072Y-81348236D01*
X179113991Y-81341840D01*
X179094555Y-81331452D01*
X179077524Y-81317476D01*
X179063548Y-81300445D01*
X179053160Y-81281009D01*
X179046764Y-81259928D01*
X179044000Y-81231860D01*
X179044000Y-79418140D01*
X179046764Y-79390072D01*
X179053160Y-79368991D01*
X179063548Y-79349555D01*
X179077524Y-79332524D01*
X179094555Y-79318548D01*
X179113991Y-79308160D01*
X179135072Y-79301764D01*
X179163140Y-79299000D01*
X179626860Y-79299000D01*
X179654928Y-79301764D01*
G37*
G36*
X183464928Y-79301764D02*
G01*
X183486009Y-79308160D01*
X183505445Y-79318548D01*
X183522476Y-79332524D01*
X183536452Y-79349555D01*
X183546840Y-79368991D01*
X183553236Y-79390072D01*
X183556000Y-79418140D01*
X183556000Y-81231860D01*
X183553236Y-81259928D01*
X183546840Y-81281009D01*
X183536452Y-81300445D01*
X183522476Y-81317476D01*
X183505445Y-81331452D01*
X183486009Y-81341840D01*
X183464928Y-81348236D01*
X183436860Y-81351000D01*
X182973140Y-81351000D01*
X182945072Y-81348236D01*
X182923991Y-81341840D01*
X182904555Y-81331452D01*
X182887524Y-81317476D01*
X182873548Y-81300445D01*
X182863160Y-81281009D01*
X182856764Y-81259928D01*
X182854000Y-81231860D01*
X182854000Y-79418140D01*
X182856764Y-79390072D01*
X182863160Y-79368991D01*
X182873548Y-79349555D01*
X182887524Y-79332524D01*
X182904555Y-79318548D01*
X182923991Y-79308160D01*
X182945072Y-79301764D01*
X182973140Y-79299000D01*
X183436860Y-79299000D01*
X183464928Y-79301764D01*
G37*
G36*
X192764499Y-79728445D02*
G01*
X192801995Y-79739820D01*
X192836554Y-79758292D01*
X192866847Y-79783153D01*
X192891708Y-79813446D01*
X192910180Y-79848005D01*
X192921555Y-79885501D01*
X192926000Y-79930638D01*
X192926000Y-80669362D01*
X192921555Y-80714499D01*
X192910180Y-80751995D01*
X192891708Y-80786554D01*
X192866847Y-80816847D01*
X192836554Y-80841708D01*
X192801995Y-80860180D01*
X192764499Y-80871555D01*
X192719362Y-80876000D01*
X192080638Y-80876000D01*
X192035501Y-80871555D01*
X191998005Y-80860180D01*
X191963446Y-80841708D01*
X191933153Y-80816847D01*
X191908292Y-80786554D01*
X191889820Y-80751995D01*
X191878445Y-80714499D01*
X191874000Y-80669362D01*
X191874000Y-79930638D01*
X191878445Y-79885501D01*
X191889820Y-79848005D01*
X191908292Y-79813446D01*
X191933153Y-79783153D01*
X191963446Y-79758292D01*
X191998005Y-79739820D01*
X192035501Y-79728445D01*
X192080638Y-79724000D01*
X192719362Y-79724000D01*
X192764499Y-79728445D01*
G37*
G36*
X131675562Y-78865681D02*
G01*
X131710481Y-78876274D01*
X131742663Y-78893476D01*
X131770873Y-78916627D01*
X131794024Y-78944837D01*
X131811226Y-78977019D01*
X131821819Y-79011938D01*
X131826000Y-79054395D01*
X131826000Y-80195605D01*
X131821819Y-80238062D01*
X131811226Y-80272981D01*
X131794024Y-80305163D01*
X131770873Y-80333373D01*
X131742663Y-80356524D01*
X131710481Y-80373726D01*
X131675562Y-80384319D01*
X131633105Y-80388500D01*
X130166895Y-80388500D01*
X130124438Y-80384319D01*
X130089519Y-80373726D01*
X130057337Y-80356524D01*
X130029127Y-80333373D01*
X130005976Y-80305163D01*
X129988774Y-80272981D01*
X129978181Y-80238062D01*
X129974000Y-80195605D01*
X129974000Y-79054395D01*
X129978181Y-79011938D01*
X129988774Y-78977019D01*
X130005976Y-78944837D01*
X130029127Y-78916627D01*
X130057337Y-78893476D01*
X130089519Y-78876274D01*
X130124438Y-78865681D01*
X130166895Y-78861500D01*
X131633105Y-78861500D01*
X131675562Y-78865681D01*
G37*
G36*
X137975562Y-78540681D02*
G01*
X138010481Y-78551274D01*
X138042663Y-78568476D01*
X138070873Y-78591627D01*
X138094024Y-78619837D01*
X138111226Y-78652019D01*
X138121819Y-78686938D01*
X138126000Y-78729395D01*
X138126000Y-79870605D01*
X138121819Y-79913062D01*
X138111226Y-79947981D01*
X138094024Y-79980163D01*
X138070873Y-80008373D01*
X138042663Y-80031524D01*
X138010481Y-80048726D01*
X137975562Y-80059319D01*
X137933105Y-80063500D01*
X136466895Y-80063500D01*
X136424438Y-80059319D01*
X136389519Y-80048726D01*
X136357337Y-80031524D01*
X136329127Y-80008373D01*
X136305976Y-79980163D01*
X136288774Y-79947981D01*
X136278181Y-79913062D01*
X136274000Y-79870605D01*
X136274000Y-78729395D01*
X136278181Y-78686938D01*
X136288774Y-78652019D01*
X136305976Y-78619837D01*
X136329127Y-78591627D01*
X136357337Y-78568476D01*
X136389519Y-78551274D01*
X136424438Y-78540681D01*
X136466895Y-78536500D01*
X137933105Y-78536500D01*
X137975562Y-78540681D01*
G37*
G36*
X143801000Y-77661000D02*
G01*
X141499000Y-77661000D01*
X141499000Y-75959000D01*
X143801000Y-75959000D01*
X143801000Y-77661000D01*
G37*
G36*
X152501000Y-77661000D02*
G01*
X150199000Y-77661000D01*
X150199000Y-75959000D01*
X152501000Y-75959000D01*
X152501000Y-77661000D01*
G37*
G36*
X117144098Y-72447033D02*
G01*
X117608350Y-72639332D01*
X117608352Y-72639333D01*
X118026168Y-72918509D01*
X118381491Y-73273832D01*
X118478489Y-73419000D01*
X118660668Y-73691650D01*
X118852967Y-74155902D01*
X118951000Y-74648747D01*
X118951000Y-75151253D01*
X118852967Y-75644098D01*
X118660668Y-76108350D01*
X118660667Y-76108352D01*
X118381491Y-76526168D01*
X118026168Y-76881491D01*
X117608352Y-77160667D01*
X117608351Y-77160668D01*
X117608350Y-77160668D01*
X117144098Y-77352967D01*
X116651253Y-77451000D01*
X116148747Y-77451000D01*
X115655902Y-77352967D01*
X115191650Y-77160668D01*
X115191649Y-77160668D01*
X115191648Y-77160667D01*
X114773832Y-76881491D01*
X114418509Y-76526168D01*
X114139333Y-76108352D01*
X114139332Y-76108350D01*
X113947033Y-75644098D01*
X113849000Y-75151253D01*
X113849000Y-74648747D01*
X113947033Y-74155902D01*
X114139332Y-73691650D01*
X114321511Y-73419000D01*
X114418509Y-73273832D01*
X114773832Y-72918509D01*
X115191648Y-72639333D01*
X115191650Y-72639332D01*
X115655902Y-72447033D01*
X116148747Y-72349000D01*
X116651253Y-72349000D01*
X117144098Y-72447033D01*
G37*
G36*
X171081000Y-77101000D02*
G01*
X169379000Y-77101000D01*
X169379000Y-74799000D01*
X171081000Y-74799000D01*
X171081000Y-77101000D01*
G37*
G36*
X168541000Y-77101000D02*
G01*
X166839000Y-77101000D01*
X166839000Y-74799000D01*
X168541000Y-74799000D01*
X168541000Y-77101000D01*
G37*
G36*
X173621000Y-77101000D02*
G01*
X171919000Y-77101000D01*
X171919000Y-74799000D01*
X173621000Y-74799000D01*
X173621000Y-77101000D01*
G37*
G36*
X176161000Y-77101000D02*
G01*
X174459000Y-77101000D01*
X174459000Y-74799000D01*
X176161000Y-74799000D01*
X176161000Y-77101000D01*
G37*
G36*
X137975562Y-75565681D02*
G01*
X138010481Y-75576274D01*
X138042663Y-75593476D01*
X138070873Y-75616627D01*
X138094024Y-75644837D01*
X138111226Y-75677019D01*
X138121819Y-75711938D01*
X138126000Y-75754395D01*
X138126000Y-76895605D01*
X138121819Y-76938062D01*
X138111226Y-76972981D01*
X138094024Y-77005163D01*
X138070873Y-77033373D01*
X138042663Y-77056524D01*
X138010481Y-77073726D01*
X137975562Y-77084319D01*
X137933105Y-77088500D01*
X136466895Y-77088500D01*
X136424438Y-77084319D01*
X136389519Y-77073726D01*
X136357337Y-77056524D01*
X136329127Y-77033373D01*
X136305976Y-77005163D01*
X136288774Y-76972981D01*
X136278181Y-76938062D01*
X136274000Y-76895605D01*
X136274000Y-75754395D01*
X136278181Y-75711938D01*
X136288774Y-75677019D01*
X136305976Y-75644837D01*
X136329127Y-75616627D01*
X136357337Y-75593476D01*
X136389519Y-75576274D01*
X136424438Y-75565681D01*
X136466895Y-75561500D01*
X137933105Y-75561500D01*
X137975562Y-75565681D01*
G37*
G36*
X164861000Y-77001000D02*
G01*
X163159000Y-77001000D01*
X163159000Y-74699000D01*
X164861000Y-74699000D01*
X164861000Y-77001000D01*
G37*
G36*
X162321000Y-77001000D02*
G01*
X160619000Y-77001000D01*
X160619000Y-74699000D01*
X162321000Y-74699000D01*
X162321000Y-77001000D01*
G37*
G36*
X159781000Y-77001000D02*
G01*
X158079000Y-77001000D01*
X158079000Y-74699000D01*
X159781000Y-74699000D01*
X159781000Y-77001000D01*
G37*
G36*
X157241000Y-77001000D02*
G01*
X155539000Y-77001000D01*
X155539000Y-74699000D01*
X157241000Y-74699000D01*
X157241000Y-77001000D01*
G37*
G36*
X152501000Y-75121000D02*
G01*
X150199000Y-75121000D01*
X150199000Y-73419000D01*
X152501000Y-73419000D01*
X152501000Y-75121000D01*
G37*
G36*
X143801000Y-75121000D02*
G01*
X141499000Y-75121000D01*
X141499000Y-73419000D01*
X143801000Y-73419000D01*
X143801000Y-75121000D01*
G37*
G36*
X152501000Y-72581000D02*
G01*
X150199000Y-72581000D01*
X150199000Y-70879000D01*
X152501000Y-70879000D01*
X152501000Y-72581000D01*
G37*
G36*
X143801000Y-72581000D02*
G01*
X141499000Y-72581000D01*
X141499000Y-70879000D01*
X143801000Y-70879000D01*
X143801000Y-72581000D01*
G37*
G36*
X171501000Y-71876000D02*
G01*
X170799000Y-71876000D01*
X170799000Y-71324000D01*
X171501000Y-71324000D01*
X171501000Y-71876000D01*
G37*
G36*
X173601000Y-71876000D02*
G01*
X172899000Y-71876000D01*
X172899000Y-71324000D01*
X173601000Y-71324000D01*
X173601000Y-71876000D01*
G37*
G36*
X169001000Y-70101000D02*
G01*
X167199000Y-70101000D01*
X167199000Y-68299000D01*
X169001000Y-68299000D01*
X169001000Y-70101000D01*
G37*
G36*
X143801000Y-70041000D02*
G01*
X141499000Y-70041000D01*
X141499000Y-68339000D01*
X143801000Y-68339000D01*
X143801000Y-70041000D01*
G37*
G36*
X152501000Y-70041000D02*
G01*
X150199000Y-70041000D01*
X150199000Y-68339000D01*
X152501000Y-68339000D01*
X152501000Y-70041000D01*
G37*
G36*
X158764499Y-68728445D02*
G01*
X158801995Y-68739820D01*
X158836554Y-68758292D01*
X158866847Y-68783153D01*
X158891708Y-68813446D01*
X158910180Y-68848005D01*
X158921555Y-68885501D01*
X158926000Y-68930638D01*
X158926000Y-69669362D01*
X158921555Y-69714499D01*
X158910180Y-69751995D01*
X158891708Y-69786554D01*
X158866847Y-69816847D01*
X158836554Y-69841708D01*
X158801995Y-69860180D01*
X158764499Y-69871555D01*
X158719362Y-69876000D01*
X158080638Y-69876000D01*
X158035501Y-69871555D01*
X157998005Y-69860180D01*
X157963446Y-69841708D01*
X157933153Y-69816847D01*
X157908292Y-69786554D01*
X157889820Y-69751995D01*
X157878445Y-69714499D01*
X157874000Y-69669362D01*
X157874000Y-68930638D01*
X157878445Y-68885501D01*
X157889820Y-68848005D01*
X157908292Y-68813446D01*
X157933153Y-68783153D01*
X157963446Y-68758292D01*
X157998005Y-68739820D01*
X158035501Y-68728445D01*
X158080638Y-68724000D01*
X158719362Y-68724000D01*
X158764499Y-68728445D01*
G37*
G36*
X177366242Y-68553404D02*
G01*
X177403337Y-68564657D01*
X177437515Y-68582925D01*
X177467481Y-68607519D01*
X177492075Y-68637485D01*
X177510343Y-68671663D01*
X177521596Y-68708758D01*
X177526000Y-68753474D01*
X177526000Y-69646526D01*
X177521596Y-69691242D01*
X177510343Y-69728337D01*
X177492075Y-69762515D01*
X177467481Y-69792481D01*
X177437515Y-69817075D01*
X177403337Y-69835343D01*
X177366242Y-69846596D01*
X177321526Y-69851000D01*
X175878474Y-69851000D01*
X175833758Y-69846596D01*
X175796663Y-69835343D01*
X175762485Y-69817075D01*
X175732519Y-69792481D01*
X175707925Y-69762515D01*
X175689657Y-69728337D01*
X175678404Y-69691242D01*
X175674000Y-69646526D01*
X175674000Y-68753474D01*
X175678404Y-68708758D01*
X175689657Y-68671663D01*
X175707925Y-68637485D01*
X175732519Y-68607519D01*
X175762485Y-68582925D01*
X175796663Y-68564657D01*
X175833758Y-68553404D01*
X175878474Y-68549000D01*
X177321526Y-68549000D01*
X177366242Y-68553404D01*
G37*
G36*
X164564499Y-68628445D02*
G01*
X164601995Y-68639820D01*
X164636554Y-68658292D01*
X164666847Y-68683153D01*
X164691708Y-68713446D01*
X164710180Y-68748005D01*
X164721555Y-68785501D01*
X164726000Y-68830638D01*
X164726000Y-69569362D01*
X164721555Y-69614499D01*
X164710180Y-69651995D01*
X164691708Y-69686554D01*
X164666847Y-69716847D01*
X164636554Y-69741708D01*
X164601995Y-69760180D01*
X164564499Y-69771555D01*
X164519362Y-69776000D01*
X163880638Y-69776000D01*
X163835501Y-69771555D01*
X163798005Y-69760180D01*
X163763446Y-69741708D01*
X163733153Y-69716847D01*
X163708292Y-69686554D01*
X163689820Y-69651995D01*
X163678445Y-69614499D01*
X163674000Y-69569362D01*
X163674000Y-68830638D01*
X163678445Y-68785501D01*
X163689820Y-68748005D01*
X163708292Y-68713446D01*
X163733153Y-68683153D01*
X163763446Y-68658292D01*
X163798005Y-68639820D01*
X163835501Y-68628445D01*
X163880638Y-68624000D01*
X164519362Y-68624000D01*
X164564499Y-68628445D01*
G37*
G36*
X171501000Y-69476000D02*
G01*
X170799000Y-69476000D01*
X170799000Y-68924000D01*
X171501000Y-68924000D01*
X171501000Y-69476000D01*
G37*
G36*
X173601000Y-69476000D02*
G01*
X172899000Y-69476000D01*
X172899000Y-68924000D01*
X173601000Y-68924000D01*
X173601000Y-69476000D01*
G37*
G36*
X163081000Y-68726000D02*
G01*
X161919000Y-68726000D01*
X161919000Y-66074000D01*
X163081000Y-66074000D01*
X163081000Y-68726000D01*
G37*
G36*
X160881000Y-68726000D02*
G01*
X159719000Y-68726000D01*
X159719000Y-67974000D01*
X160881000Y-67974000D01*
X160881000Y-68726000D01*
G37*
G36*
X158764499Y-66978445D02*
G01*
X158801995Y-66989820D01*
X158836554Y-67008292D01*
X158866847Y-67033153D01*
X158891708Y-67063446D01*
X158910180Y-67098005D01*
X158921555Y-67135501D01*
X158926000Y-67180638D01*
X158926000Y-67919362D01*
X158921555Y-67964499D01*
X158910180Y-68001995D01*
X158891708Y-68036554D01*
X158866847Y-68066847D01*
X158836554Y-68091708D01*
X158801995Y-68110180D01*
X158764499Y-68121555D01*
X158719362Y-68126000D01*
X158080638Y-68126000D01*
X158035501Y-68121555D01*
X157998005Y-68110180D01*
X157963446Y-68091708D01*
X157933153Y-68066847D01*
X157908292Y-68036554D01*
X157889820Y-68001995D01*
X157878445Y-67964499D01*
X157874000Y-67919362D01*
X157874000Y-67180638D01*
X157878445Y-67135501D01*
X157889820Y-67098005D01*
X157908292Y-67063446D01*
X157933153Y-67033153D01*
X157963446Y-67008292D01*
X157998005Y-66989820D01*
X158035501Y-66978445D01*
X158080638Y-66974000D01*
X158719362Y-66974000D01*
X158764499Y-66978445D01*
G37*
G36*
X164564499Y-66878445D02*
G01*
X164601995Y-66889820D01*
X164636554Y-66908292D01*
X164666847Y-66933153D01*
X164691708Y-66963446D01*
X164710180Y-66998005D01*
X164721555Y-67035501D01*
X164726000Y-67080638D01*
X164726000Y-67819362D01*
X164721555Y-67864499D01*
X164710180Y-67901995D01*
X164691708Y-67936554D01*
X164666847Y-67966847D01*
X164636554Y-67991708D01*
X164601995Y-68010180D01*
X164564499Y-68021555D01*
X164519362Y-68026000D01*
X163880638Y-68026000D01*
X163835501Y-68021555D01*
X163798005Y-68010180D01*
X163763446Y-67991708D01*
X163733153Y-67966847D01*
X163708292Y-67936554D01*
X163689820Y-67901995D01*
X163678445Y-67864499D01*
X163674000Y-67819362D01*
X163674000Y-67080638D01*
X163678445Y-67035501D01*
X163689820Y-66998005D01*
X163708292Y-66963446D01*
X163733153Y-66933153D01*
X163763446Y-66908292D01*
X163798005Y-66889820D01*
X163835501Y-66878445D01*
X163880638Y-66874000D01*
X164519362Y-66874000D01*
X164564499Y-66878445D01*
G37*
G36*
X130901000Y-67901000D02*
G01*
X129099000Y-67901000D01*
X129099000Y-66099000D01*
X130901000Y-66099000D01*
X130901000Y-67901000D01*
G37*
G36*
X132653512Y-66103927D02*
G01*
X132802812Y-66133624D01*
X132966784Y-66201544D01*
X133114354Y-66300147D01*
X133239853Y-66425646D01*
X133338456Y-66573216D01*
X133406376Y-66737188D01*
X133441000Y-66911259D01*
X133441000Y-67088741D01*
X133406376Y-67262812D01*
X133338456Y-67426784D01*
X133239853Y-67574354D01*
X133114354Y-67699853D01*
X132966784Y-67798456D01*
X132802812Y-67866376D01*
X132653512Y-67896073D01*
X132628742Y-67901000D01*
X132451258Y-67901000D01*
X132426488Y-67896073D01*
X132277188Y-67866376D01*
X132113216Y-67798456D01*
X131965646Y-67699853D01*
X131840147Y-67574354D01*
X131741544Y-67426784D01*
X131673624Y-67262812D01*
X131639000Y-67088741D01*
X131639000Y-66911259D01*
X131673624Y-66737188D01*
X131741544Y-66573216D01*
X131840147Y-66425646D01*
X131965646Y-66300147D01*
X132113216Y-66201544D01*
X132277188Y-66133624D01*
X132426488Y-66103927D01*
X132451258Y-66099000D01*
X132628742Y-66099000D01*
X132653512Y-66103927D01*
G37*
G36*
X135193512Y-66103927D02*
G01*
X135342812Y-66133624D01*
X135506784Y-66201544D01*
X135654354Y-66300147D01*
X135779853Y-66425646D01*
X135878456Y-66573216D01*
X135946376Y-66737188D01*
X135981000Y-66911259D01*
X135981000Y-67088741D01*
X135946376Y-67262812D01*
X135878456Y-67426784D01*
X135779853Y-67574354D01*
X135654354Y-67699853D01*
X135506784Y-67798456D01*
X135342812Y-67866376D01*
X135193512Y-67896073D01*
X135168742Y-67901000D01*
X134991258Y-67901000D01*
X134966488Y-67896073D01*
X134817188Y-67866376D01*
X134653216Y-67798456D01*
X134505646Y-67699853D01*
X134380147Y-67574354D01*
X134281544Y-67426784D01*
X134213624Y-67262812D01*
X134179000Y-67088741D01*
X134179000Y-66911259D01*
X134213624Y-66737188D01*
X134281544Y-66573216D01*
X134380147Y-66425646D01*
X134505646Y-66300147D01*
X134653216Y-66201544D01*
X134817188Y-66133624D01*
X134966488Y-66103927D01*
X134991258Y-66099000D01*
X135168742Y-66099000D01*
X135193512Y-66103927D01*
G37*
G36*
X176938855Y-66552140D02*
G01*
X177002618Y-66558420D01*
X177093404Y-66585960D01*
X177125336Y-66595646D01*
X177238425Y-66656094D01*
X177337554Y-66737446D01*
X177418906Y-66836575D01*
X177479354Y-66949664D01*
X177483399Y-66963000D01*
X177516580Y-67072382D01*
X177529149Y-67200000D01*
X177516580Y-67327618D01*
X177489040Y-67418404D01*
X177479354Y-67450336D01*
X177418906Y-67563425D01*
X177337554Y-67662554D01*
X177238425Y-67743906D01*
X177125336Y-67804354D01*
X177093404Y-67814040D01*
X177002618Y-67841580D01*
X176938855Y-67847860D01*
X176906974Y-67851000D01*
X176293026Y-67851000D01*
X176261145Y-67847860D01*
X176197382Y-67841580D01*
X176106596Y-67814040D01*
X176074664Y-67804354D01*
X175961575Y-67743906D01*
X175862446Y-67662554D01*
X175781094Y-67563425D01*
X175720646Y-67450336D01*
X175710960Y-67418404D01*
X175683420Y-67327618D01*
X175670851Y-67200000D01*
X175683420Y-67072382D01*
X175716601Y-66963000D01*
X175720646Y-66949664D01*
X175781094Y-66836575D01*
X175862446Y-66737446D01*
X175961575Y-66656094D01*
X176074664Y-66595646D01*
X176106596Y-66585960D01*
X176197382Y-66558420D01*
X176261145Y-66552140D01*
X176293026Y-66549000D01*
X176906974Y-66549000D01*
X176938855Y-66552140D01*
G37*
G36*
X168213512Y-65763927D02*
G01*
X168362812Y-65793624D01*
X168526784Y-65861544D01*
X168674354Y-65960147D01*
X168799853Y-66085646D01*
X168898456Y-66233216D01*
X168966376Y-66397188D01*
X169001000Y-66571259D01*
X169001000Y-66748741D01*
X168966376Y-66922812D01*
X168898456Y-67086784D01*
X168799853Y-67234354D01*
X168674354Y-67359853D01*
X168526784Y-67458456D01*
X168362812Y-67526376D01*
X168213512Y-67556073D01*
X168188742Y-67561000D01*
X168011258Y-67561000D01*
X167986488Y-67556073D01*
X167837188Y-67526376D01*
X167673216Y-67458456D01*
X167525646Y-67359853D01*
X167400147Y-67234354D01*
X167301544Y-67086784D01*
X167233624Y-66922812D01*
X167199000Y-66748741D01*
X167199000Y-66571259D01*
X167233624Y-66397188D01*
X167301544Y-66233216D01*
X167400147Y-66085646D01*
X167525646Y-65960147D01*
X167673216Y-65861544D01*
X167837188Y-65793624D01*
X167986488Y-65763927D01*
X168011258Y-65759000D01*
X168188742Y-65759000D01*
X168213512Y-65763927D01*
G37*
G36*
X148389499Y-66178445D02*
G01*
X148426995Y-66189820D01*
X148461554Y-66208292D01*
X148491847Y-66233153D01*
X148516708Y-66263446D01*
X148535180Y-66298005D01*
X148546555Y-66335501D01*
X148551000Y-66380638D01*
X148551000Y-67019362D01*
X148546555Y-67064499D01*
X148535180Y-67101995D01*
X148516708Y-67136554D01*
X148491847Y-67166847D01*
X148461554Y-67191708D01*
X148426995Y-67210180D01*
X148389499Y-67221555D01*
X148344362Y-67226000D01*
X147605638Y-67226000D01*
X147560501Y-67221555D01*
X147523005Y-67210180D01*
X147488446Y-67191708D01*
X147458153Y-67166847D01*
X147433292Y-67136554D01*
X147414820Y-67101995D01*
X147403445Y-67064499D01*
X147399000Y-67019362D01*
X147399000Y-66380638D01*
X147403445Y-66335501D01*
X147414820Y-66298005D01*
X147433292Y-66263446D01*
X147458153Y-66233153D01*
X147488446Y-66208292D01*
X147523005Y-66189820D01*
X147560501Y-66178445D01*
X147605638Y-66174000D01*
X148344362Y-66174000D01*
X148389499Y-66178445D01*
G37*
G36*
X146639499Y-66178445D02*
G01*
X146676995Y-66189820D01*
X146711554Y-66208292D01*
X146741847Y-66233153D01*
X146766708Y-66263446D01*
X146785180Y-66298005D01*
X146796555Y-66335501D01*
X146801000Y-66380638D01*
X146801000Y-67019362D01*
X146796555Y-67064499D01*
X146785180Y-67101995D01*
X146766708Y-67136554D01*
X146741847Y-67166847D01*
X146711554Y-67191708D01*
X146676995Y-67210180D01*
X146639499Y-67221555D01*
X146594362Y-67226000D01*
X145855638Y-67226000D01*
X145810501Y-67221555D01*
X145773005Y-67210180D01*
X145738446Y-67191708D01*
X145708153Y-67166847D01*
X145683292Y-67136554D01*
X145664820Y-67101995D01*
X145653445Y-67064499D01*
X145649000Y-67019362D01*
X145649000Y-66380638D01*
X145653445Y-66335501D01*
X145664820Y-66298005D01*
X145683292Y-66263446D01*
X145708153Y-66233153D01*
X145738446Y-66208292D01*
X145773005Y-66189820D01*
X145810501Y-66178445D01*
X145855638Y-66174000D01*
X146594362Y-66174000D01*
X146639499Y-66178445D01*
G37*
G36*
X160881000Y-66826000D02*
G01*
X159719000Y-66826000D01*
X159719000Y-66074000D01*
X160881000Y-66074000D01*
X160881000Y-66826000D01*
G37*
G36*
X203873512Y-63703927D02*
G01*
X204022812Y-63733624D01*
X204186784Y-63801544D01*
X204334354Y-63900147D01*
X204459853Y-64025646D01*
X204558456Y-64173216D01*
X204626376Y-64337188D01*
X204661000Y-64511259D01*
X204661000Y-64688741D01*
X204626376Y-64862812D01*
X204558456Y-65026784D01*
X204459853Y-65174354D01*
X204334354Y-65299853D01*
X204186784Y-65398456D01*
X204022812Y-65466376D01*
X203873512Y-65496073D01*
X203848742Y-65501000D01*
X203671258Y-65501000D01*
X203646488Y-65496073D01*
X203497188Y-65466376D01*
X203333216Y-65398456D01*
X203185646Y-65299853D01*
X203060147Y-65174354D01*
X202961544Y-65026784D01*
X202893624Y-64862812D01*
X202859000Y-64688741D01*
X202859000Y-64511259D01*
X202893624Y-64337188D01*
X202961544Y-64173216D01*
X203060147Y-64025646D01*
X203185646Y-63900147D01*
X203333216Y-63801544D01*
X203497188Y-63733624D01*
X203646488Y-63703927D01*
X203671258Y-63699000D01*
X203848742Y-63699000D01*
X203873512Y-63703927D01*
G37*
G36*
X207201000Y-65501000D02*
G01*
X205399000Y-65501000D01*
X205399000Y-63699000D01*
X207201000Y-63699000D01*
X207201000Y-65501000D01*
G37*
G36*
X148389499Y-63878445D02*
G01*
X148426995Y-63889820D01*
X148461554Y-63908292D01*
X148491847Y-63933153D01*
X148516708Y-63963446D01*
X148535180Y-63998005D01*
X148546555Y-64035501D01*
X148551000Y-64080638D01*
X148551000Y-64719362D01*
X148546555Y-64764499D01*
X148535180Y-64801995D01*
X148516708Y-64836554D01*
X148491847Y-64866847D01*
X148461554Y-64891708D01*
X148426995Y-64910180D01*
X148389499Y-64921555D01*
X148344362Y-64926000D01*
X147605638Y-64926000D01*
X147560501Y-64921555D01*
X147523005Y-64910180D01*
X147488446Y-64891708D01*
X147458153Y-64866847D01*
X147433292Y-64836554D01*
X147414820Y-64801995D01*
X147403445Y-64764499D01*
X147399000Y-64719362D01*
X147399000Y-64080638D01*
X147403445Y-64035501D01*
X147414820Y-63998005D01*
X147433292Y-63963446D01*
X147458153Y-63933153D01*
X147488446Y-63908292D01*
X147523005Y-63889820D01*
X147560501Y-63878445D01*
X147605638Y-63874000D01*
X148344362Y-63874000D01*
X148389499Y-63878445D01*
G37*
G36*
X146639499Y-63878445D02*
G01*
X146676995Y-63889820D01*
X146711554Y-63908292D01*
X146741847Y-63933153D01*
X146766708Y-63963446D01*
X146785180Y-63998005D01*
X146796555Y-64035501D01*
X146801000Y-64080638D01*
X146801000Y-64719362D01*
X146796555Y-64764499D01*
X146785180Y-64801995D01*
X146766708Y-64836554D01*
X146741847Y-64866847D01*
X146711554Y-64891708D01*
X146676995Y-64910180D01*
X146639499Y-64921555D01*
X146594362Y-64926000D01*
X145855638Y-64926000D01*
X145810501Y-64921555D01*
X145773005Y-64910180D01*
X145738446Y-64891708D01*
X145708153Y-64866847D01*
X145683292Y-64836554D01*
X145664820Y-64801995D01*
X145653445Y-64764499D01*
X145649000Y-64719362D01*
X145649000Y-64080638D01*
X145653445Y-64035501D01*
X145664820Y-63998005D01*
X145683292Y-63963446D01*
X145708153Y-63933153D01*
X145738446Y-63908292D01*
X145773005Y-63889820D01*
X145810501Y-63878445D01*
X145855638Y-63874000D01*
X146594362Y-63874000D01*
X146639499Y-63878445D01*
G37*
G36*
X158613512Y-61183927D02*
G01*
X158762812Y-61213624D01*
X158926784Y-61281544D01*
X159074354Y-61380147D01*
X159199853Y-61505646D01*
X159298456Y-61653216D01*
X159366376Y-61817188D01*
X159401000Y-61991259D01*
X159401000Y-62168741D01*
X159366376Y-62342812D01*
X159298456Y-62506784D01*
X159199853Y-62654354D01*
X159074354Y-62779853D01*
X158926784Y-62878456D01*
X158762812Y-62946376D01*
X158613512Y-62976073D01*
X158588742Y-62981000D01*
X158411258Y-62981000D01*
X158386488Y-62976073D01*
X158237188Y-62946376D01*
X158073216Y-62878456D01*
X157925646Y-62779853D01*
X157800147Y-62654354D01*
X157701544Y-62506784D01*
X157633624Y-62342812D01*
X157599000Y-62168741D01*
X157599000Y-61991259D01*
X157633624Y-61817188D01*
X157701544Y-61653216D01*
X157800147Y-61505646D01*
X157925646Y-61380147D01*
X158073216Y-61281544D01*
X158237188Y-61213624D01*
X158386488Y-61183927D01*
X158411258Y-61179000D01*
X158588742Y-61179000D01*
X158613512Y-61183927D01*
G37*
G36*
X150753512Y-60703927D02*
G01*
X150902812Y-60733624D01*
X151066784Y-60801544D01*
X151214354Y-60900147D01*
X151339853Y-61025646D01*
X151438456Y-61173216D01*
X151506376Y-61337188D01*
X151541000Y-61511259D01*
X151541000Y-61688741D01*
X151506376Y-61862812D01*
X151438456Y-62026784D01*
X151339853Y-62174354D01*
X151214354Y-62299853D01*
X151066784Y-62398456D01*
X150902812Y-62466376D01*
X150753512Y-62496073D01*
X150728742Y-62501000D01*
X150551258Y-62501000D01*
X150526488Y-62496073D01*
X150377188Y-62466376D01*
X150213216Y-62398456D01*
X150065646Y-62299853D01*
X149940147Y-62174354D01*
X149841544Y-62026784D01*
X149773624Y-61862812D01*
X149739000Y-61688741D01*
X149739000Y-61511259D01*
X149773624Y-61337188D01*
X149841544Y-61173216D01*
X149940147Y-61025646D01*
X150065646Y-60900147D01*
X150213216Y-60801544D01*
X150377188Y-60733624D01*
X150526488Y-60703927D01*
X150551258Y-60699000D01*
X150728742Y-60699000D01*
X150753512Y-60703927D01*
G37*
G36*
X149001000Y-62501000D02*
G01*
X147199000Y-62501000D01*
X147199000Y-60699000D01*
X149001000Y-60699000D01*
X149001000Y-62501000D01*
G37*
G36*
X137071000Y-62451000D02*
G01*
X136169000Y-62451000D01*
X136169000Y-61449000D01*
X137071000Y-61449000D01*
X137071000Y-62451000D01*
G37*
G36*
X135171000Y-62451000D02*
G01*
X134269000Y-62451000D01*
X134269000Y-61449000D01*
X135171000Y-61449000D01*
X135171000Y-62451000D01*
G37*
G36*
X138764499Y-61303445D02*
G01*
X138801995Y-61314820D01*
X138836554Y-61333292D01*
X138866847Y-61358153D01*
X138891708Y-61388446D01*
X138910180Y-61423005D01*
X138921555Y-61460501D01*
X138926000Y-61505638D01*
X138926000Y-62244362D01*
X138921555Y-62289499D01*
X138910180Y-62326995D01*
X138891708Y-62361554D01*
X138866847Y-62391847D01*
X138836554Y-62416708D01*
X138801995Y-62435180D01*
X138764499Y-62446555D01*
X138719362Y-62451000D01*
X138080638Y-62451000D01*
X138035501Y-62446555D01*
X137998005Y-62435180D01*
X137963446Y-62416708D01*
X137933153Y-62391847D01*
X137908292Y-62361554D01*
X137889820Y-62326995D01*
X137878445Y-62289499D01*
X137874000Y-62244362D01*
X137874000Y-61505638D01*
X137878445Y-61460501D01*
X137889820Y-61423005D01*
X137908292Y-61388446D01*
X137933153Y-61358153D01*
X137963446Y-61333292D01*
X137998005Y-61314820D01*
X138035501Y-61303445D01*
X138080638Y-61299000D01*
X138719362Y-61299000D01*
X138764499Y-61303445D01*
G37*
G36*
X126401000Y-62401000D02*
G01*
X125499000Y-62401000D01*
X125499000Y-61399000D01*
X126401000Y-61399000D01*
X126401000Y-62401000D01*
G37*
G36*
X128301000Y-62401000D02*
G01*
X127399000Y-62401000D01*
X127399000Y-61399000D01*
X128301000Y-61399000D01*
X128301000Y-62401000D01*
G37*
G36*
X123964499Y-61203445D02*
G01*
X124001995Y-61214820D01*
X124036554Y-61233292D01*
X124066847Y-61258153D01*
X124091708Y-61288446D01*
X124110180Y-61323005D01*
X124121555Y-61360501D01*
X124126000Y-61405638D01*
X124126000Y-62144362D01*
X124121555Y-62189499D01*
X124110180Y-62226995D01*
X124091708Y-62261554D01*
X124066847Y-62291847D01*
X124036554Y-62316708D01*
X124001995Y-62335180D01*
X123964499Y-62346555D01*
X123919362Y-62351000D01*
X123280638Y-62351000D01*
X123235501Y-62346555D01*
X123198005Y-62335180D01*
X123163446Y-62316708D01*
X123133153Y-62291847D01*
X123108292Y-62261554D01*
X123089820Y-62226995D01*
X123078445Y-62189499D01*
X123074000Y-62144362D01*
X123074000Y-61405638D01*
X123078445Y-61360501D01*
X123089820Y-61323005D01*
X123108292Y-61288446D01*
X123133153Y-61258153D01*
X123163446Y-61233292D01*
X123198005Y-61214820D01*
X123235501Y-61203445D01*
X123280638Y-61199000D01*
X123919362Y-61199000D01*
X123964499Y-61203445D01*
G37*
G36*
X130264499Y-61203445D02*
G01*
X130301995Y-61214820D01*
X130336554Y-61233292D01*
X130366847Y-61258153D01*
X130391708Y-61288446D01*
X130410180Y-61323005D01*
X130421555Y-61360501D01*
X130426000Y-61405638D01*
X130426000Y-62144362D01*
X130421555Y-62189499D01*
X130410180Y-62226995D01*
X130391708Y-62261554D01*
X130366847Y-62291847D01*
X130336554Y-62316708D01*
X130301995Y-62335180D01*
X130264499Y-62346555D01*
X130219362Y-62351000D01*
X129580638Y-62351000D01*
X129535501Y-62346555D01*
X129498005Y-62335180D01*
X129463446Y-62316708D01*
X129433153Y-62291847D01*
X129408292Y-62261554D01*
X129389820Y-62226995D01*
X129378445Y-62189499D01*
X129374000Y-62144362D01*
X129374000Y-61405638D01*
X129378445Y-61360501D01*
X129389820Y-61323005D01*
X129408292Y-61288446D01*
X129433153Y-61258153D01*
X129463446Y-61233292D01*
X129498005Y-61214820D01*
X129535501Y-61203445D01*
X129580638Y-61199000D01*
X130219362Y-61199000D01*
X130264499Y-61203445D01*
G37*
G36*
X133064499Y-61203445D02*
G01*
X133101995Y-61214820D01*
X133136554Y-61233292D01*
X133166847Y-61258153D01*
X133191708Y-61288446D01*
X133210180Y-61323005D01*
X133221555Y-61360501D01*
X133226000Y-61405638D01*
X133226000Y-62144362D01*
X133221555Y-62189499D01*
X133210180Y-62226995D01*
X133191708Y-62261554D01*
X133166847Y-62291847D01*
X133136554Y-62316708D01*
X133101995Y-62335180D01*
X133064499Y-62346555D01*
X133019362Y-62351000D01*
X132380638Y-62351000D01*
X132335501Y-62346555D01*
X132298005Y-62335180D01*
X132263446Y-62316708D01*
X132233153Y-62291847D01*
X132208292Y-62261554D01*
X132189820Y-62226995D01*
X132178445Y-62189499D01*
X132174000Y-62144362D01*
X132174000Y-61405638D01*
X132178445Y-61360501D01*
X132189820Y-61323005D01*
X132208292Y-61288446D01*
X132233153Y-61258153D01*
X132263446Y-61233292D01*
X132298005Y-61214820D01*
X132335501Y-61203445D01*
X132380638Y-61199000D01*
X133019362Y-61199000D01*
X133064499Y-61203445D01*
G37*
G36*
X203942818Y-60727696D02*
G01*
X204056105Y-60762062D01*
X204160512Y-60817869D01*
X204252027Y-60892973D01*
X204327131Y-60984488D01*
X204382938Y-61088895D01*
X204417304Y-61202182D01*
X204428907Y-61320000D01*
X204417304Y-61437818D01*
X204382938Y-61551105D01*
X204327131Y-61655512D01*
X204252027Y-61747027D01*
X204160512Y-61822131D01*
X204056105Y-61877938D01*
X203942818Y-61912304D01*
X203854519Y-61921000D01*
X203095481Y-61921000D01*
X203007182Y-61912304D01*
X202893895Y-61877938D01*
X202789488Y-61822131D01*
X202697973Y-61747027D01*
X202622869Y-61655512D01*
X202567062Y-61551105D01*
X202532696Y-61437818D01*
X202521093Y-61320000D01*
X202532696Y-61202182D01*
X202567062Y-61088895D01*
X202622869Y-60984488D01*
X202697973Y-60892973D01*
X202789488Y-60817869D01*
X202893895Y-60762062D01*
X203007182Y-60727696D01*
X203095481Y-60719000D01*
X203854519Y-60719000D01*
X203942818Y-60727696D01*
G37*
G36*
X207742818Y-60727696D02*
G01*
X207856105Y-60762062D01*
X207960512Y-60817869D01*
X208052027Y-60892973D01*
X208127131Y-60984488D01*
X208182938Y-61088895D01*
X208217304Y-61202182D01*
X208228907Y-61320000D01*
X208217304Y-61437818D01*
X208182938Y-61551105D01*
X208127131Y-61655512D01*
X208052027Y-61747027D01*
X207960512Y-61822131D01*
X207856105Y-61877938D01*
X207742818Y-61912304D01*
X207654519Y-61921000D01*
X206895481Y-61921000D01*
X206807182Y-61912304D01*
X206693895Y-61877938D01*
X206589488Y-61822131D01*
X206497973Y-61747027D01*
X206422869Y-61655512D01*
X206367062Y-61551105D01*
X206332696Y-61437818D01*
X206321093Y-61320000D01*
X206332696Y-61202182D01*
X206367062Y-61088895D01*
X206422869Y-60984488D01*
X206497973Y-60892973D01*
X206589488Y-60817869D01*
X206693895Y-60762062D01*
X206807182Y-60727696D01*
X206895481Y-60719000D01*
X207654519Y-60719000D01*
X207742818Y-60727696D01*
G37*
G36*
X198239499Y-59678445D02*
G01*
X198276995Y-59689820D01*
X198311554Y-59708292D01*
X198341847Y-59733153D01*
X198366708Y-59763446D01*
X198385180Y-59798005D01*
X198396555Y-59835501D01*
X198401000Y-59880638D01*
X198401000Y-60519362D01*
X198396555Y-60564499D01*
X198385180Y-60601995D01*
X198366708Y-60636554D01*
X198341847Y-60666847D01*
X198311554Y-60691708D01*
X198276995Y-60710180D01*
X198239499Y-60721555D01*
X198194362Y-60726000D01*
X197455638Y-60726000D01*
X197410501Y-60721555D01*
X197373005Y-60710180D01*
X197338446Y-60691708D01*
X197308153Y-60666847D01*
X197283292Y-60636554D01*
X197264820Y-60601995D01*
X197253445Y-60564499D01*
X197249000Y-60519362D01*
X197249000Y-59880638D01*
X197253445Y-59835501D01*
X197264820Y-59798005D01*
X197283292Y-59763446D01*
X197308153Y-59733153D01*
X197338446Y-59708292D01*
X197373005Y-59689820D01*
X197410501Y-59678445D01*
X197455638Y-59674000D01*
X198194362Y-59674000D01*
X198239499Y-59678445D01*
G37*
G36*
X199989499Y-59678445D02*
G01*
X200026995Y-59689820D01*
X200061554Y-59708292D01*
X200091847Y-59733153D01*
X200116708Y-59763446D01*
X200135180Y-59798005D01*
X200146555Y-59835501D01*
X200151000Y-59880638D01*
X200151000Y-60519362D01*
X200146555Y-60564499D01*
X200135180Y-60601995D01*
X200116708Y-60636554D01*
X200091847Y-60666847D01*
X200061554Y-60691708D01*
X200026995Y-60710180D01*
X199989499Y-60721555D01*
X199944362Y-60726000D01*
X199205638Y-60726000D01*
X199160501Y-60721555D01*
X199123005Y-60710180D01*
X199088446Y-60691708D01*
X199058153Y-60666847D01*
X199033292Y-60636554D01*
X199014820Y-60601995D01*
X199003445Y-60564499D01*
X198999000Y-60519362D01*
X198999000Y-59880638D01*
X199003445Y-59835501D01*
X199014820Y-59798005D01*
X199033292Y-59763446D01*
X199058153Y-59733153D01*
X199088446Y-59708292D01*
X199123005Y-59689820D01*
X199160501Y-59678445D01*
X199205638Y-59674000D01*
X199944362Y-59674000D01*
X199989499Y-59678445D01*
G37*
G36*
X138764499Y-59553445D02*
G01*
X138801995Y-59564820D01*
X138836554Y-59583292D01*
X138866847Y-59608153D01*
X138891708Y-59638446D01*
X138910180Y-59673005D01*
X138921555Y-59710501D01*
X138926000Y-59755638D01*
X138926000Y-60494362D01*
X138921555Y-60539499D01*
X138910180Y-60576995D01*
X138891708Y-60611554D01*
X138866847Y-60641847D01*
X138836554Y-60666708D01*
X138801995Y-60685180D01*
X138764499Y-60696555D01*
X138719362Y-60701000D01*
X138080638Y-60701000D01*
X138035501Y-60696555D01*
X137998005Y-60685180D01*
X137963446Y-60666708D01*
X137933153Y-60641847D01*
X137908292Y-60611554D01*
X137889820Y-60576995D01*
X137878445Y-60539499D01*
X137874000Y-60494362D01*
X137874000Y-59755638D01*
X137878445Y-59710501D01*
X137889820Y-59673005D01*
X137908292Y-59638446D01*
X137933153Y-59608153D01*
X137963446Y-59583292D01*
X137998005Y-59564820D01*
X138035501Y-59553445D01*
X138080638Y-59549000D01*
X138719362Y-59549000D01*
X138764499Y-59553445D01*
G37*
G36*
X123964499Y-59453445D02*
G01*
X124001995Y-59464820D01*
X124036554Y-59483292D01*
X124066847Y-59508153D01*
X124091708Y-59538446D01*
X124110180Y-59573005D01*
X124121555Y-59610501D01*
X124126000Y-59655638D01*
X124126000Y-60394362D01*
X124121555Y-60439499D01*
X124110180Y-60476995D01*
X124091708Y-60511554D01*
X124066847Y-60541847D01*
X124036554Y-60566708D01*
X124001995Y-60585180D01*
X123964499Y-60596555D01*
X123919362Y-60601000D01*
X123280638Y-60601000D01*
X123235501Y-60596555D01*
X123198005Y-60585180D01*
X123163446Y-60566708D01*
X123133153Y-60541847D01*
X123108292Y-60511554D01*
X123089820Y-60476995D01*
X123078445Y-60439499D01*
X123074000Y-60394362D01*
X123074000Y-59655638D01*
X123078445Y-59610501D01*
X123089820Y-59573005D01*
X123108292Y-59538446D01*
X123133153Y-59508153D01*
X123163446Y-59483292D01*
X123198005Y-59464820D01*
X123235501Y-59453445D01*
X123280638Y-59449000D01*
X123919362Y-59449000D01*
X123964499Y-59453445D01*
G37*
G36*
X130264499Y-59453445D02*
G01*
X130301995Y-59464820D01*
X130336554Y-59483292D01*
X130366847Y-59508153D01*
X130391708Y-59538446D01*
X130410180Y-59573005D01*
X130421555Y-59610501D01*
X130426000Y-59655638D01*
X130426000Y-60394362D01*
X130421555Y-60439499D01*
X130410180Y-60476995D01*
X130391708Y-60511554D01*
X130366847Y-60541847D01*
X130336554Y-60566708D01*
X130301995Y-60585180D01*
X130264499Y-60596555D01*
X130219362Y-60601000D01*
X129580638Y-60601000D01*
X129535501Y-60596555D01*
X129498005Y-60585180D01*
X129463446Y-60566708D01*
X129433153Y-60541847D01*
X129408292Y-60511554D01*
X129389820Y-60476995D01*
X129378445Y-60439499D01*
X129374000Y-60394362D01*
X129374000Y-59655638D01*
X129378445Y-59610501D01*
X129389820Y-59573005D01*
X129408292Y-59538446D01*
X129433153Y-59508153D01*
X129463446Y-59483292D01*
X129498005Y-59464820D01*
X129535501Y-59453445D01*
X129580638Y-59449000D01*
X130219362Y-59449000D01*
X130264499Y-59453445D01*
G37*
G36*
X133064499Y-59453445D02*
G01*
X133101995Y-59464820D01*
X133136554Y-59483292D01*
X133166847Y-59508153D01*
X133191708Y-59538446D01*
X133210180Y-59573005D01*
X133221555Y-59610501D01*
X133226000Y-59655638D01*
X133226000Y-60394362D01*
X133221555Y-60439499D01*
X133210180Y-60476995D01*
X133191708Y-60511554D01*
X133166847Y-60541847D01*
X133136554Y-60566708D01*
X133101995Y-60585180D01*
X133064499Y-60596555D01*
X133019362Y-60601000D01*
X132380638Y-60601000D01*
X132335501Y-60596555D01*
X132298005Y-60585180D01*
X132263446Y-60566708D01*
X132233153Y-60541847D01*
X132208292Y-60511554D01*
X132189820Y-60476995D01*
X132178445Y-60439499D01*
X132174000Y-60394362D01*
X132174000Y-59655638D01*
X132178445Y-59610501D01*
X132189820Y-59573005D01*
X132208292Y-59538446D01*
X132233153Y-59508153D01*
X132263446Y-59483292D01*
X132298005Y-59464820D01*
X132335501Y-59453445D01*
X132380638Y-59449000D01*
X133019362Y-59449000D01*
X133064499Y-59453445D01*
G37*
G36*
X136121000Y-60451000D02*
G01*
X135219000Y-60451000D01*
X135219000Y-59449000D01*
X136121000Y-59449000D01*
X136121000Y-60451000D01*
G37*
G36*
X158613512Y-58643927D02*
G01*
X158762812Y-58673624D01*
X158926784Y-58741544D01*
X159074354Y-58840147D01*
X159199853Y-58965646D01*
X159298456Y-59113216D01*
X159366376Y-59277188D01*
X159401000Y-59451259D01*
X159401000Y-59628741D01*
X159366376Y-59802812D01*
X159298456Y-59966784D01*
X159199853Y-60114354D01*
X159074354Y-60239853D01*
X158926784Y-60338456D01*
X158762812Y-60406376D01*
X158613512Y-60436073D01*
X158588742Y-60441000D01*
X158411258Y-60441000D01*
X158386488Y-60436073D01*
X158237188Y-60406376D01*
X158073216Y-60338456D01*
X157925646Y-60239853D01*
X157800147Y-60114354D01*
X157701544Y-59966784D01*
X157633624Y-59802812D01*
X157599000Y-59628741D01*
X157599000Y-59451259D01*
X157633624Y-59277188D01*
X157701544Y-59113216D01*
X157800147Y-58965646D01*
X157925646Y-58840147D01*
X158073216Y-58741544D01*
X158237188Y-58673624D01*
X158386488Y-58643927D01*
X158411258Y-58639000D01*
X158588742Y-58639000D01*
X158613512Y-58643927D01*
G37*
G36*
X127351000Y-60401000D02*
G01*
X126449000Y-60401000D01*
X126449000Y-59399000D01*
X127351000Y-59399000D01*
X127351000Y-60401000D01*
G37*
G36*
X204126000Y-60201000D02*
G01*
X202524000Y-60201000D01*
X202524000Y-59299000D01*
X204126000Y-59299000D01*
X204126000Y-60201000D01*
G37*
G36*
X204126000Y-58951000D02*
G01*
X202524000Y-58951000D01*
X202524000Y-55049000D01*
X204126000Y-55049000D01*
X204126000Y-58951000D01*
G37*
G36*
X200026000Y-58881000D02*
G01*
X199274000Y-58881000D01*
X199274000Y-57719000D01*
X200026000Y-57719000D01*
X200026000Y-58881000D01*
G37*
G36*
X198126000Y-58881000D02*
G01*
X197374000Y-58881000D01*
X197374000Y-57719000D01*
X198126000Y-57719000D01*
X198126000Y-58881000D01*
G37*
G36*
X159401000Y-57901000D02*
G01*
X157599000Y-57901000D01*
X157599000Y-56099000D01*
X159401000Y-56099000D01*
X159401000Y-57901000D01*
G37*
G36*
X200026000Y-56681000D02*
G01*
X197374000Y-56681000D01*
X197374000Y-55519000D01*
X200026000Y-55519000D01*
X200026000Y-56681000D01*
G37*
G36*
X198339499Y-53778445D02*
G01*
X198376995Y-53789820D01*
X198411554Y-53808292D01*
X198441847Y-53833153D01*
X198466708Y-53863446D01*
X198485180Y-53898005D01*
X198496555Y-53935501D01*
X198501000Y-53980638D01*
X198501000Y-54619362D01*
X198496555Y-54664499D01*
X198485180Y-54701995D01*
X198466708Y-54736554D01*
X198441847Y-54766847D01*
X198411554Y-54791708D01*
X198376995Y-54810180D01*
X198339499Y-54821555D01*
X198294362Y-54826000D01*
X197555638Y-54826000D01*
X197510501Y-54821555D01*
X197473005Y-54810180D01*
X197438446Y-54791708D01*
X197408153Y-54766847D01*
X197383292Y-54736554D01*
X197364820Y-54701995D01*
X197353445Y-54664499D01*
X197349000Y-54619362D01*
X197349000Y-53980638D01*
X197353445Y-53935501D01*
X197364820Y-53898005D01*
X197383292Y-53863446D01*
X197408153Y-53833153D01*
X197438446Y-53808292D01*
X197473005Y-53789820D01*
X197510501Y-53778445D01*
X197555638Y-53774000D01*
X198294362Y-53774000D01*
X198339499Y-53778445D01*
G37*
G36*
X200089499Y-53778445D02*
G01*
X200126995Y-53789820D01*
X200161554Y-53808292D01*
X200191847Y-53833153D01*
X200216708Y-53863446D01*
X200235180Y-53898005D01*
X200246555Y-53935501D01*
X200251000Y-53980638D01*
X200251000Y-54619362D01*
X200246555Y-54664499D01*
X200235180Y-54701995D01*
X200216708Y-54736554D01*
X200191847Y-54766847D01*
X200161554Y-54791708D01*
X200126995Y-54810180D01*
X200089499Y-54821555D01*
X200044362Y-54826000D01*
X199305638Y-54826000D01*
X199260501Y-54821555D01*
X199223005Y-54810180D01*
X199188446Y-54791708D01*
X199158153Y-54766847D01*
X199133292Y-54736554D01*
X199114820Y-54701995D01*
X199103445Y-54664499D01*
X199099000Y-54619362D01*
X199099000Y-53980638D01*
X199103445Y-53935501D01*
X199114820Y-53898005D01*
X199133292Y-53863446D01*
X199158153Y-53833153D01*
X199188446Y-53808292D01*
X199223005Y-53789820D01*
X199260501Y-53778445D01*
X199305638Y-53774000D01*
X200044362Y-53774000D01*
X200089499Y-53778445D01*
G37*
G36*
X204126000Y-54701000D02*
G01*
X202524000Y-54701000D01*
X202524000Y-53799000D01*
X204126000Y-53799000D01*
X204126000Y-54701000D01*
G37*
G36*
X207742818Y-52087696D02*
G01*
X207856105Y-52122062D01*
X207960512Y-52177869D01*
X208052027Y-52252973D01*
X208127131Y-52344488D01*
X208182938Y-52448895D01*
X208217304Y-52562182D01*
X208228907Y-52680000D01*
X208217304Y-52797818D01*
X208182938Y-52911105D01*
X208127131Y-53015512D01*
X208052027Y-53107027D01*
X207960512Y-53182131D01*
X207856105Y-53237938D01*
X207742818Y-53272304D01*
X207654519Y-53281000D01*
X206895481Y-53281000D01*
X206807182Y-53272304D01*
X206693895Y-53237938D01*
X206589488Y-53182131D01*
X206497973Y-53107027D01*
X206422869Y-53015512D01*
X206367062Y-52911105D01*
X206332696Y-52797818D01*
X206321093Y-52680000D01*
X206332696Y-52562182D01*
X206367062Y-52448895D01*
X206422869Y-52344488D01*
X206497973Y-52252973D01*
X206589488Y-52177869D01*
X206693895Y-52122062D01*
X206807182Y-52087696D01*
X206895481Y-52079000D01*
X207654519Y-52079000D01*
X207742818Y-52087696D01*
G37*
G36*
X203942818Y-52087696D02*
G01*
X204056105Y-52122062D01*
X204160512Y-52177869D01*
X204252027Y-52252973D01*
X204327131Y-52344488D01*
X204382938Y-52448895D01*
X204417304Y-52562182D01*
X204428907Y-52680000D01*
X204417304Y-52797818D01*
X204382938Y-52911105D01*
X204327131Y-53015512D01*
X204252027Y-53107027D01*
X204160512Y-53182131D01*
X204056105Y-53237938D01*
X203942818Y-53272304D01*
X203854519Y-53281000D01*
X203095481Y-53281000D01*
X203007182Y-53272304D01*
X202893895Y-53237938D01*
X202789488Y-53182131D01*
X202697973Y-53107027D01*
X202622869Y-53015512D01*
X202567062Y-52911105D01*
X202532696Y-52797818D01*
X202521093Y-52680000D01*
X202532696Y-52562182D01*
X202567062Y-52448895D01*
X202622869Y-52344488D01*
X202697973Y-52252973D01*
X202789488Y-52177869D01*
X202893895Y-52122062D01*
X203007182Y-52087696D01*
X203095481Y-52079000D01*
X203854519Y-52079000D01*
X203942818Y-52087696D01*
G37*
M02*
