G04 #@! TF.GenerationSoftware,KiCad,Pcbnew,(5.1.5-0)*
G04 #@! TF.CreationDate,2022-06-02T10:47:19-06:00*
G04 #@! TF.ProjectId,sq_lockin_v4,73715f6c-6f63-46b6-996e-5f76342e6b69,rev?*
G04 #@! TF.SameCoordinates,Original*
G04 #@! TF.FileFunction,Legend,Bot*
G04 #@! TF.FilePolarity,Positive*
%FSLAX46Y46*%
G04 Gerber Fmt 4.6, Leading zero omitted, Abs format (unit mm)*
G04 Created by KiCad (PCBNEW (5.1.5-0)) date 2022-06-02 10:47:19*
%MOMM*%
%LPD*%
G04 APERTURE LIST*
%ADD10O,1.802000X1.802000*%
%ADD11R,1.802000X1.802000*%
%ADD12C,5.102000*%
%ADD13C,1.677000*%
%ADD14R,1.677000X1.677000*%
%ADD15O,1.852000X1.302000*%
%ADD16C,0.100000*%
%ADD17O,1.902000X1.202000*%
G04 APERTURE END LIST*
%LPC*%
D10*
X135080000Y-67000000D03*
X132540000Y-67000000D03*
D11*
X130000000Y-67000000D03*
D10*
X172440000Y-114100000D03*
D11*
X169900000Y-114100000D03*
D10*
X172940000Y-92000000D03*
D11*
X170400000Y-92000000D03*
D10*
X150640000Y-61600000D03*
D11*
X148100000Y-61600000D03*
D12*
X116400000Y-99900000D03*
D13*
X114980000Y-83260000D03*
X114980000Y-86020000D03*
X114980000Y-88780000D03*
X114980000Y-91540000D03*
X117820000Y-81880000D03*
X117820000Y-84640000D03*
X117820000Y-90160000D03*
D14*
X117820000Y-92920000D03*
D12*
X116400000Y-74900000D03*
D13*
X117820000Y-87400000D03*
D10*
X193440000Y-97000000D03*
D11*
X190900000Y-97000000D03*
D10*
X124000000Y-93460000D03*
D11*
X124000000Y-96000000D03*
D10*
X124000000Y-84540000D03*
D11*
X124000000Y-82000000D03*
D10*
X207400000Y-114680000D03*
X207400000Y-112140000D03*
D11*
X207400000Y-109600000D03*
D10*
X206700000Y-91480000D03*
X206700000Y-88940000D03*
D11*
X206700000Y-86400000D03*
D10*
X133540000Y-98000000D03*
D11*
X131000000Y-98000000D03*
D10*
X168100000Y-66660000D03*
D11*
X168100000Y-69200000D03*
D15*
X176600000Y-67200000D03*
D16*
G36*
X177281338Y-68550306D02*
G01*
X177307669Y-68554212D01*
X177333490Y-68560680D01*
X177358553Y-68569648D01*
X177382617Y-68581029D01*
X177405449Y-68594714D01*
X177426830Y-68610571D01*
X177446553Y-68628447D01*
X177464429Y-68648170D01*
X177480286Y-68669551D01*
X177493971Y-68692383D01*
X177505352Y-68716447D01*
X177514320Y-68741510D01*
X177520788Y-68767331D01*
X177524694Y-68793662D01*
X177526000Y-68820249D01*
X177526000Y-69579751D01*
X177524694Y-69606338D01*
X177520788Y-69632669D01*
X177514320Y-69658490D01*
X177505352Y-69683553D01*
X177493971Y-69707617D01*
X177480286Y-69730449D01*
X177464429Y-69751830D01*
X177446553Y-69771553D01*
X177426830Y-69789429D01*
X177405449Y-69805286D01*
X177382617Y-69818971D01*
X177358553Y-69830352D01*
X177333490Y-69839320D01*
X177307669Y-69845788D01*
X177281338Y-69849694D01*
X177254751Y-69851000D01*
X175945249Y-69851000D01*
X175918662Y-69849694D01*
X175892331Y-69845788D01*
X175866510Y-69839320D01*
X175841447Y-69830352D01*
X175817383Y-69818971D01*
X175794551Y-69805286D01*
X175773170Y-69789429D01*
X175753447Y-69771553D01*
X175735571Y-69751830D01*
X175719714Y-69730449D01*
X175706029Y-69707617D01*
X175694648Y-69683553D01*
X175685680Y-69658490D01*
X175679212Y-69632669D01*
X175675306Y-69606338D01*
X175674000Y-69579751D01*
X175674000Y-68820249D01*
X175675306Y-68793662D01*
X175679212Y-68767331D01*
X175685680Y-68741510D01*
X175694648Y-68716447D01*
X175706029Y-68692383D01*
X175719714Y-68669551D01*
X175735571Y-68648170D01*
X175753447Y-68628447D01*
X175773170Y-68610571D01*
X175794551Y-68594714D01*
X175817383Y-68581029D01*
X175841447Y-68569648D01*
X175866510Y-68560680D01*
X175892331Y-68554212D01*
X175918662Y-68550306D01*
X175945249Y-68549000D01*
X177254751Y-68549000D01*
X177281338Y-68550306D01*
G37*
D10*
X158500000Y-62080000D03*
X158500000Y-59540000D03*
D11*
X158500000Y-57000000D03*
D10*
X203760000Y-64600000D03*
D11*
X206300000Y-64600000D03*
D17*
X207275000Y-61320000D03*
X207275000Y-52680000D03*
X203475000Y-61320000D03*
X203475000Y-52680000D03*
D10*
X143000000Y-83940000D03*
D11*
X143000000Y-81400000D03*
D10*
X133540000Y-93600000D03*
D11*
X131000000Y-93600000D03*
M02*
