G04 #@! TF.GenerationSoftware,KiCad,Pcbnew,(5.1.5-0)*
G04 #@! TF.CreationDate,2022-02-08T08:58:47-07:00*
G04 #@! TF.ProjectId,TPS61165-heater-v2,54505336-3131-4363-952d-686561746572,rev?*
G04 #@! TF.SameCoordinates,Original*
G04 #@! TF.FileFunction,Soldermask,Top*
G04 #@! TF.FilePolarity,Negative*
%FSLAX46Y46*%
G04 Gerber Fmt 4.6, Leading zero omitted, Abs format (unit mm)*
G04 Created by KiCad (PCBNEW (5.1.5-0)) date 2022-02-08 08:58:47*
%MOMM*%
%LPD*%
G04 APERTURE LIST*
%ADD10C,0.100000*%
G04 APERTURE END LIST*
D10*
G36*
X154051000Y-89201000D02*
G01*
X151949000Y-89201000D01*
X151949000Y-83799000D01*
X154051000Y-83799000D01*
X154051000Y-89201000D01*
G37*
G36*
X150651000Y-89201000D02*
G01*
X148549000Y-89201000D01*
X148549000Y-83799000D01*
X150651000Y-83799000D01*
X150651000Y-89201000D01*
G37*
G36*
X128851000Y-86061000D02*
G01*
X125749000Y-86061000D01*
X125749000Y-83959000D01*
X128851000Y-83959000D01*
X128851000Y-86061000D01*
G37*
G36*
X136451000Y-86061000D02*
G01*
X133349000Y-86061000D01*
X133349000Y-83959000D01*
X136451000Y-83959000D01*
X136451000Y-86061000D01*
G37*
G36*
X118892818Y-84727696D02*
G01*
X119006105Y-84762062D01*
X119110512Y-84817869D01*
X119202027Y-84892973D01*
X119277131Y-84984488D01*
X119332938Y-85088895D01*
X119367304Y-85202182D01*
X119378907Y-85320000D01*
X119367304Y-85437818D01*
X119332938Y-85551105D01*
X119277131Y-85655512D01*
X119202027Y-85747027D01*
X119110512Y-85822131D01*
X119006105Y-85877938D01*
X118892818Y-85912304D01*
X118804519Y-85921000D01*
X118045481Y-85921000D01*
X117957182Y-85912304D01*
X117843895Y-85877938D01*
X117739488Y-85822131D01*
X117647973Y-85747027D01*
X117572869Y-85655512D01*
X117517062Y-85551105D01*
X117482696Y-85437818D01*
X117471093Y-85320000D01*
X117482696Y-85202182D01*
X117517062Y-85088895D01*
X117572869Y-84984488D01*
X117647973Y-84892973D01*
X117739488Y-84817869D01*
X117843895Y-84762062D01*
X117957182Y-84727696D01*
X118045481Y-84719000D01*
X118804519Y-84719000D01*
X118892818Y-84727696D01*
G37*
G36*
X122692818Y-84727696D02*
G01*
X122806105Y-84762062D01*
X122910512Y-84817869D01*
X123002027Y-84892973D01*
X123077131Y-84984488D01*
X123132938Y-85088895D01*
X123167304Y-85202182D01*
X123178907Y-85320000D01*
X123167304Y-85437818D01*
X123132938Y-85551105D01*
X123077131Y-85655512D01*
X123002027Y-85747027D01*
X122910512Y-85822131D01*
X122806105Y-85877938D01*
X122692818Y-85912304D01*
X122604519Y-85921000D01*
X121845481Y-85921000D01*
X121757182Y-85912304D01*
X121643895Y-85877938D01*
X121539488Y-85822131D01*
X121447973Y-85747027D01*
X121372869Y-85655512D01*
X121317062Y-85551105D01*
X121282696Y-85437818D01*
X121271093Y-85320000D01*
X121282696Y-85202182D01*
X121317062Y-85088895D01*
X121372869Y-84984488D01*
X121447973Y-84892973D01*
X121539488Y-84817869D01*
X121643895Y-84762062D01*
X121757182Y-84727696D01*
X121845481Y-84719000D01*
X122604519Y-84719000D01*
X122692818Y-84727696D01*
G37*
G36*
X123176000Y-84201000D02*
G01*
X121574000Y-84201000D01*
X121574000Y-83299000D01*
X123176000Y-83299000D01*
X123176000Y-84201000D01*
G37*
G36*
X123176000Y-82951000D02*
G01*
X121574000Y-82951000D01*
X121574000Y-79049000D01*
X123176000Y-79049000D01*
X123176000Y-82951000D01*
G37*
G36*
X141564499Y-81003445D02*
G01*
X141601995Y-81014820D01*
X141636554Y-81033292D01*
X141666847Y-81058153D01*
X141691708Y-81088446D01*
X141710180Y-81123005D01*
X141721555Y-81160501D01*
X141726000Y-81205638D01*
X141726000Y-81944362D01*
X141721555Y-81989499D01*
X141710180Y-82026995D01*
X141691708Y-82061554D01*
X141666847Y-82091847D01*
X141636554Y-82116708D01*
X141601995Y-82135180D01*
X141564499Y-82146555D01*
X141519362Y-82151000D01*
X140880638Y-82151000D01*
X140835501Y-82146555D01*
X140798005Y-82135180D01*
X140763446Y-82116708D01*
X140733153Y-82091847D01*
X140708292Y-82061554D01*
X140689820Y-82026995D01*
X140678445Y-81989499D01*
X140674000Y-81944362D01*
X140674000Y-81205638D01*
X140678445Y-81160501D01*
X140689820Y-81123005D01*
X140708292Y-81088446D01*
X140733153Y-81058153D01*
X140763446Y-81033292D01*
X140798005Y-81014820D01*
X140835501Y-81003445D01*
X140880638Y-80999000D01*
X141519362Y-80999000D01*
X141564499Y-81003445D01*
G37*
G36*
X151526000Y-81981000D02*
G01*
X148874000Y-81981000D01*
X148874000Y-80319000D01*
X151526000Y-80319000D01*
X151526000Y-81981000D01*
G37*
G36*
X147488674Y-80628465D02*
G01*
X147526367Y-80639899D01*
X147561103Y-80658466D01*
X147591548Y-80683452D01*
X147616534Y-80713897D01*
X147635101Y-80748633D01*
X147646535Y-80786326D01*
X147651000Y-80831661D01*
X147651000Y-81668339D01*
X147646535Y-81713674D01*
X147635101Y-81751367D01*
X147616534Y-81786103D01*
X147591548Y-81816548D01*
X147561103Y-81841534D01*
X147526367Y-81860101D01*
X147488674Y-81871535D01*
X147443339Y-81876000D01*
X146356661Y-81876000D01*
X146311326Y-81871535D01*
X146273633Y-81860101D01*
X146238897Y-81841534D01*
X146208452Y-81816548D01*
X146183466Y-81786103D01*
X146164899Y-81751367D01*
X146153465Y-81713674D01*
X146149000Y-81668339D01*
X146149000Y-80831661D01*
X146153465Y-80786326D01*
X146164899Y-80748633D01*
X146183466Y-80713897D01*
X146208452Y-80683452D01*
X146238897Y-80658466D01*
X146273633Y-80639899D01*
X146311326Y-80628465D01*
X146356661Y-80624000D01*
X147443339Y-80624000D01*
X147488674Y-80628465D01*
G37*
G36*
X153751000Y-81751000D02*
G01*
X152749000Y-81751000D01*
X152749000Y-80449000D01*
X153751000Y-80449000D01*
X153751000Y-81751000D01*
G37*
G36*
X157051000Y-81751000D02*
G01*
X156049000Y-81751000D01*
X156049000Y-80449000D01*
X157051000Y-80449000D01*
X157051000Y-81751000D01*
G37*
G36*
X143659999Y-78899737D02*
G01*
X143669608Y-78902652D01*
X143678472Y-78907390D01*
X143686237Y-78913763D01*
X143696448Y-78926206D01*
X143703378Y-78936575D01*
X143720705Y-78953902D01*
X143741080Y-78967515D01*
X143763720Y-78976891D01*
X143787753Y-78981671D01*
X143812257Y-78981670D01*
X143836290Y-78976888D01*
X143858929Y-78967510D01*
X143879302Y-78953895D01*
X143896629Y-78936568D01*
X143903558Y-78926198D01*
X143913763Y-78913763D01*
X143921528Y-78907390D01*
X143930392Y-78902652D01*
X143940001Y-78899737D01*
X143956140Y-78898148D01*
X144443861Y-78898148D01*
X144462199Y-78899954D01*
X144474450Y-78900556D01*
X144492869Y-78900556D01*
X144515149Y-78902750D01*
X144599233Y-78919476D01*
X144620660Y-78925976D01*
X144699858Y-78958780D01*
X144705303Y-78961691D01*
X144705309Y-78961693D01*
X144714169Y-78966429D01*
X144714173Y-78966432D01*
X144719614Y-78969340D01*
X144790899Y-79016971D01*
X144808204Y-79031172D01*
X144868828Y-79091796D01*
X144883029Y-79109101D01*
X144930660Y-79180386D01*
X144933568Y-79185827D01*
X144933571Y-79185831D01*
X144938307Y-79194691D01*
X144938309Y-79194697D01*
X144941220Y-79200142D01*
X144974024Y-79279340D01*
X144980524Y-79300767D01*
X144997250Y-79384851D01*
X144999444Y-79407131D01*
X144999444Y-79425550D01*
X145000046Y-79437801D01*
X145001852Y-79456139D01*
X145001852Y-79943862D01*
X145000046Y-79962199D01*
X144999444Y-79974450D01*
X144999444Y-79992869D01*
X144997250Y-80015149D01*
X144980524Y-80099233D01*
X144974024Y-80120660D01*
X144941220Y-80199858D01*
X144938309Y-80205303D01*
X144938307Y-80205309D01*
X144933571Y-80214169D01*
X144933568Y-80214173D01*
X144930660Y-80219614D01*
X144883029Y-80290899D01*
X144868828Y-80308204D01*
X144808204Y-80368828D01*
X144790899Y-80383029D01*
X144719614Y-80430660D01*
X144714173Y-80433568D01*
X144714169Y-80433571D01*
X144705309Y-80438307D01*
X144705303Y-80438309D01*
X144699858Y-80441220D01*
X144620660Y-80474024D01*
X144599233Y-80480524D01*
X144515149Y-80497250D01*
X144492869Y-80499444D01*
X144474450Y-80499444D01*
X144462199Y-80500046D01*
X144443862Y-80501852D01*
X143956140Y-80501852D01*
X143940001Y-80500263D01*
X143930392Y-80497348D01*
X143921528Y-80492610D01*
X143913763Y-80486237D01*
X143903552Y-80473794D01*
X143896622Y-80463425D01*
X143879295Y-80446098D01*
X143858920Y-80432485D01*
X143836280Y-80423109D01*
X143812247Y-80418329D01*
X143787743Y-80418330D01*
X143763710Y-80423112D01*
X143741071Y-80432490D01*
X143720698Y-80446105D01*
X143703371Y-80463432D01*
X143696442Y-80473802D01*
X143686237Y-80486237D01*
X143678472Y-80492610D01*
X143669608Y-80497348D01*
X143659999Y-80500263D01*
X143643860Y-80501852D01*
X143156138Y-80501852D01*
X143137801Y-80500046D01*
X143125550Y-80499444D01*
X143107131Y-80499444D01*
X143084851Y-80497250D01*
X143000767Y-80480524D01*
X142979340Y-80474024D01*
X142900142Y-80441220D01*
X142894697Y-80438309D01*
X142894691Y-80438307D01*
X142885831Y-80433571D01*
X142885827Y-80433568D01*
X142880386Y-80430660D01*
X142809101Y-80383029D01*
X142791796Y-80368828D01*
X142731172Y-80308204D01*
X142716971Y-80290899D01*
X142669340Y-80219614D01*
X142666432Y-80214173D01*
X142666429Y-80214169D01*
X142661693Y-80205309D01*
X142661691Y-80205303D01*
X142658780Y-80199858D01*
X142625976Y-80120660D01*
X142619476Y-80099233D01*
X142602750Y-80015149D01*
X142600556Y-79992869D01*
X142600556Y-79974450D01*
X142599954Y-79962199D01*
X142598148Y-79943862D01*
X142598148Y-79456139D01*
X142599954Y-79437801D01*
X142600556Y-79425550D01*
X142600556Y-79407131D01*
X142602750Y-79384851D01*
X142619476Y-79300767D01*
X142625976Y-79279340D01*
X142658780Y-79200142D01*
X142661691Y-79194697D01*
X142661693Y-79194691D01*
X142666429Y-79185831D01*
X142666432Y-79185827D01*
X142669340Y-79180386D01*
X142716971Y-79109101D01*
X142731172Y-79091796D01*
X142791796Y-79031172D01*
X142809101Y-79016971D01*
X142880386Y-78969340D01*
X142885827Y-78966432D01*
X142885831Y-78966429D01*
X142894691Y-78961693D01*
X142894697Y-78961691D01*
X142900142Y-78958780D01*
X142979340Y-78925976D01*
X143000767Y-78919476D01*
X143084851Y-78902750D01*
X143107131Y-78900556D01*
X143125550Y-78900556D01*
X143137801Y-78899954D01*
X143156139Y-78898148D01*
X143643860Y-78898148D01*
X143659999Y-78899737D01*
G37*
G36*
X141564499Y-79253445D02*
G01*
X141601995Y-79264820D01*
X141636554Y-79283292D01*
X141666847Y-79308153D01*
X141691708Y-79338446D01*
X141710180Y-79373005D01*
X141721555Y-79410501D01*
X141726000Y-79455638D01*
X141726000Y-80194362D01*
X141721555Y-80239499D01*
X141710180Y-80276995D01*
X141691708Y-80311554D01*
X141666847Y-80341847D01*
X141636554Y-80366708D01*
X141601995Y-80385180D01*
X141564499Y-80396555D01*
X141519362Y-80401000D01*
X140880638Y-80401000D01*
X140835501Y-80396555D01*
X140798005Y-80385180D01*
X140763446Y-80366708D01*
X140733153Y-80341847D01*
X140708292Y-80311554D01*
X140689820Y-80276995D01*
X140678445Y-80239499D01*
X140674000Y-80194362D01*
X140674000Y-79455638D01*
X140678445Y-79410501D01*
X140689820Y-79373005D01*
X140708292Y-79338446D01*
X140733153Y-79308153D01*
X140763446Y-79283292D01*
X140798005Y-79264820D01*
X140835501Y-79253445D01*
X140880638Y-79249000D01*
X141519362Y-79249000D01*
X141564499Y-79253445D01*
G37*
G36*
X147488674Y-78578465D02*
G01*
X147526367Y-78589899D01*
X147561103Y-78608466D01*
X147591548Y-78633452D01*
X147616534Y-78663897D01*
X147635101Y-78698633D01*
X147646535Y-78736326D01*
X147651000Y-78781661D01*
X147651000Y-79618339D01*
X147646535Y-79663674D01*
X147635101Y-79701367D01*
X147616534Y-79736103D01*
X147591548Y-79766548D01*
X147561103Y-79791534D01*
X147526367Y-79810101D01*
X147488674Y-79821535D01*
X147443339Y-79826000D01*
X146356661Y-79826000D01*
X146311326Y-79821535D01*
X146273633Y-79810101D01*
X146238897Y-79791534D01*
X146208452Y-79766548D01*
X146183466Y-79736103D01*
X146164899Y-79701367D01*
X146153465Y-79663674D01*
X146149000Y-79618339D01*
X146149000Y-78781661D01*
X146153465Y-78736326D01*
X146164899Y-78698633D01*
X146183466Y-78663897D01*
X146208452Y-78633452D01*
X146238897Y-78608466D01*
X146273633Y-78589899D01*
X146311326Y-78578465D01*
X146356661Y-78574000D01*
X147443339Y-78574000D01*
X147488674Y-78578465D01*
G37*
G36*
X151526000Y-79281000D02*
G01*
X148874000Y-79281000D01*
X148874000Y-77619000D01*
X151526000Y-77619000D01*
X151526000Y-79281000D01*
G37*
G36*
X154038674Y-77653465D02*
G01*
X154076367Y-77664899D01*
X154111103Y-77683466D01*
X154141548Y-77708452D01*
X154166534Y-77738897D01*
X154185101Y-77773633D01*
X154196535Y-77811326D01*
X154201000Y-77856661D01*
X154201000Y-78943339D01*
X154196535Y-78988674D01*
X154185101Y-79026367D01*
X154166534Y-79061103D01*
X154141548Y-79091548D01*
X154111103Y-79116534D01*
X154076367Y-79135101D01*
X154038674Y-79146535D01*
X153993339Y-79151000D01*
X153156661Y-79151000D01*
X153111326Y-79146535D01*
X153073633Y-79135101D01*
X153038897Y-79116534D01*
X153008452Y-79091548D01*
X152983466Y-79061103D01*
X152964899Y-79026367D01*
X152953465Y-78988674D01*
X152949000Y-78943339D01*
X152949000Y-77856661D01*
X152953465Y-77811326D01*
X152964899Y-77773633D01*
X152983466Y-77738897D01*
X153008452Y-77708452D01*
X153038897Y-77683466D01*
X153073633Y-77664899D01*
X153111326Y-77653465D01*
X153156661Y-77649000D01*
X153993339Y-77649000D01*
X154038674Y-77653465D01*
G37*
G36*
X156088674Y-77653465D02*
G01*
X156126367Y-77664899D01*
X156161103Y-77683466D01*
X156191548Y-77708452D01*
X156216534Y-77738897D01*
X156235101Y-77773633D01*
X156246535Y-77811326D01*
X156251000Y-77856661D01*
X156251000Y-78943339D01*
X156246535Y-78988674D01*
X156235101Y-79026367D01*
X156216534Y-79061103D01*
X156191548Y-79091548D01*
X156161103Y-79116534D01*
X156126367Y-79135101D01*
X156088674Y-79146535D01*
X156043339Y-79151000D01*
X155206661Y-79151000D01*
X155161326Y-79146535D01*
X155123633Y-79135101D01*
X155088897Y-79116534D01*
X155058452Y-79091548D01*
X155033466Y-79061103D01*
X155014899Y-79026367D01*
X155003465Y-78988674D01*
X154999000Y-78943339D01*
X154999000Y-77856661D01*
X155003465Y-77811326D01*
X155014899Y-77773633D01*
X155033466Y-77738897D01*
X155058452Y-77708452D01*
X155088897Y-77683466D01*
X155123633Y-77664899D01*
X155161326Y-77653465D01*
X155206661Y-77649000D01*
X156043339Y-77649000D01*
X156088674Y-77653465D01*
G37*
G36*
X123176000Y-78701000D02*
G01*
X121574000Y-78701000D01*
X121574000Y-77799000D01*
X123176000Y-77799000D01*
X123176000Y-78701000D01*
G37*
G36*
X136451000Y-78441000D02*
G01*
X133349000Y-78441000D01*
X133349000Y-76339000D01*
X136451000Y-76339000D01*
X136451000Y-78441000D01*
G37*
G36*
X128851000Y-78441000D02*
G01*
X125749000Y-78441000D01*
X125749000Y-76339000D01*
X128851000Y-76339000D01*
X128851000Y-78441000D01*
G37*
G36*
X147564499Y-76778445D02*
G01*
X147601995Y-76789820D01*
X147636554Y-76808292D01*
X147666847Y-76833153D01*
X147691708Y-76863446D01*
X147710180Y-76898005D01*
X147721555Y-76935501D01*
X147726000Y-76980638D01*
X147726000Y-77719362D01*
X147721555Y-77764499D01*
X147710180Y-77801995D01*
X147691708Y-77836554D01*
X147666847Y-77866847D01*
X147636554Y-77891708D01*
X147601995Y-77910180D01*
X147564499Y-77921555D01*
X147519362Y-77926000D01*
X146880638Y-77926000D01*
X146835501Y-77921555D01*
X146798005Y-77910180D01*
X146763446Y-77891708D01*
X146733153Y-77866847D01*
X146708292Y-77836554D01*
X146689820Y-77801995D01*
X146678445Y-77764499D01*
X146674000Y-77719362D01*
X146674000Y-76980638D01*
X146678445Y-76935501D01*
X146689820Y-76898005D01*
X146708292Y-76863446D01*
X146733153Y-76833153D01*
X146763446Y-76808292D01*
X146798005Y-76789820D01*
X146835501Y-76778445D01*
X146880638Y-76774000D01*
X147519362Y-76774000D01*
X147564499Y-76778445D01*
G37*
G36*
X143179300Y-76207595D02*
G01*
X143265724Y-76224786D01*
X143387838Y-76275367D01*
X143497738Y-76348800D01*
X143591200Y-76442262D01*
X143664633Y-76552162D01*
X143715214Y-76674276D01*
X143724497Y-76720947D01*
X143739788Y-76797816D01*
X143741000Y-76803912D01*
X143741000Y-76936088D01*
X143715214Y-77065724D01*
X143664633Y-77187838D01*
X143591200Y-77297738D01*
X143497738Y-77391200D01*
X143387838Y-77464633D01*
X143265724Y-77515214D01*
X143179300Y-77532405D01*
X143136089Y-77541000D01*
X143003911Y-77541000D01*
X142960700Y-77532405D01*
X142874276Y-77515214D01*
X142752162Y-77464633D01*
X142642262Y-77391200D01*
X142548800Y-77297738D01*
X142475367Y-77187838D01*
X142424786Y-77065724D01*
X142399000Y-76936088D01*
X142399000Y-76803912D01*
X142400213Y-76797816D01*
X142415503Y-76720947D01*
X142424786Y-76674276D01*
X142475367Y-76552162D01*
X142548800Y-76442262D01*
X142642262Y-76348800D01*
X142752162Y-76275367D01*
X142874276Y-76224786D01*
X142960700Y-76207595D01*
X143003911Y-76199000D01*
X143136089Y-76199000D01*
X143179300Y-76207595D01*
G37*
G36*
X140639300Y-76207595D02*
G01*
X140725724Y-76224786D01*
X140847838Y-76275367D01*
X140957738Y-76348800D01*
X141051200Y-76442262D01*
X141124633Y-76552162D01*
X141175214Y-76674276D01*
X141184497Y-76720947D01*
X141199788Y-76797816D01*
X141201000Y-76803912D01*
X141201000Y-76936088D01*
X141175214Y-77065724D01*
X141124633Y-77187838D01*
X141051200Y-77297738D01*
X140957738Y-77391200D01*
X140847838Y-77464633D01*
X140725724Y-77515214D01*
X140639300Y-77532405D01*
X140596089Y-77541000D01*
X140463911Y-77541000D01*
X140420700Y-77532405D01*
X140334276Y-77515214D01*
X140212162Y-77464633D01*
X140102262Y-77391200D01*
X140008800Y-77297738D01*
X139935367Y-77187838D01*
X139884786Y-77065724D01*
X139859000Y-76936088D01*
X139859000Y-76803912D01*
X139860213Y-76797816D01*
X139875503Y-76720947D01*
X139884786Y-76674276D01*
X139935367Y-76552162D01*
X140008800Y-76442262D01*
X140102262Y-76348800D01*
X140212162Y-76275367D01*
X140334276Y-76224786D01*
X140420700Y-76207595D01*
X140463911Y-76199000D01*
X140596089Y-76199000D01*
X140639300Y-76207595D01*
G37*
G36*
X122692818Y-76087696D02*
G01*
X122806105Y-76122062D01*
X122910512Y-76177869D01*
X123002027Y-76252973D01*
X123077131Y-76344488D01*
X123132938Y-76448895D01*
X123167304Y-76562182D01*
X123178907Y-76680000D01*
X123167304Y-76797818D01*
X123132938Y-76911105D01*
X123077131Y-77015512D01*
X123002027Y-77107027D01*
X122910512Y-77182131D01*
X122806105Y-77237938D01*
X122692818Y-77272304D01*
X122604519Y-77281000D01*
X121845481Y-77281000D01*
X121757182Y-77272304D01*
X121643895Y-77237938D01*
X121539488Y-77182131D01*
X121447973Y-77107027D01*
X121372869Y-77015512D01*
X121317062Y-76911105D01*
X121282696Y-76797818D01*
X121271093Y-76680000D01*
X121282696Y-76562182D01*
X121317062Y-76448895D01*
X121372869Y-76344488D01*
X121447973Y-76252973D01*
X121539488Y-76177869D01*
X121643895Y-76122062D01*
X121757182Y-76087696D01*
X121845481Y-76079000D01*
X122604519Y-76079000D01*
X122692818Y-76087696D01*
G37*
G36*
X118892818Y-76087696D02*
G01*
X119006105Y-76122062D01*
X119110512Y-76177869D01*
X119202027Y-76252973D01*
X119277131Y-76344488D01*
X119332938Y-76448895D01*
X119367304Y-76562182D01*
X119378907Y-76680000D01*
X119367304Y-76797818D01*
X119332938Y-76911105D01*
X119277131Y-77015512D01*
X119202027Y-77107027D01*
X119110512Y-77182131D01*
X119006105Y-77237938D01*
X118892818Y-77272304D01*
X118804519Y-77281000D01*
X118045481Y-77281000D01*
X117957182Y-77272304D01*
X117843895Y-77237938D01*
X117739488Y-77182131D01*
X117647973Y-77107027D01*
X117572869Y-77015512D01*
X117517062Y-76911105D01*
X117482696Y-76797818D01*
X117471093Y-76680000D01*
X117482696Y-76562182D01*
X117517062Y-76448895D01*
X117572869Y-76344488D01*
X117647973Y-76252973D01*
X117739488Y-76177869D01*
X117843895Y-76122062D01*
X117957182Y-76087696D01*
X118045481Y-76079000D01*
X118804519Y-76079000D01*
X118892818Y-76087696D01*
G37*
G36*
X149939499Y-75678445D02*
G01*
X149976995Y-75689820D01*
X150011554Y-75708292D01*
X150041847Y-75733153D01*
X150066708Y-75763446D01*
X150085180Y-75798005D01*
X150096555Y-75835501D01*
X150101000Y-75880638D01*
X150101000Y-76519362D01*
X150096555Y-76564499D01*
X150085180Y-76601995D01*
X150066708Y-76636554D01*
X150041847Y-76666847D01*
X150011554Y-76691708D01*
X149976995Y-76710180D01*
X149939499Y-76721555D01*
X149894362Y-76726000D01*
X149155638Y-76726000D01*
X149110501Y-76721555D01*
X149073005Y-76710180D01*
X149038446Y-76691708D01*
X149008153Y-76666847D01*
X148983292Y-76636554D01*
X148964820Y-76601995D01*
X148953445Y-76564499D01*
X148949000Y-76519362D01*
X148949000Y-75880638D01*
X148953445Y-75835501D01*
X148964820Y-75798005D01*
X148983292Y-75763446D01*
X149008153Y-75733153D01*
X149038446Y-75708292D01*
X149073005Y-75689820D01*
X149110501Y-75678445D01*
X149155638Y-75674000D01*
X149894362Y-75674000D01*
X149939499Y-75678445D01*
G37*
G36*
X151689499Y-75678445D02*
G01*
X151726995Y-75689820D01*
X151761554Y-75708292D01*
X151791847Y-75733153D01*
X151816708Y-75763446D01*
X151835180Y-75798005D01*
X151846555Y-75835501D01*
X151851000Y-75880638D01*
X151851000Y-76519362D01*
X151846555Y-76564499D01*
X151835180Y-76601995D01*
X151816708Y-76636554D01*
X151791847Y-76666847D01*
X151761554Y-76691708D01*
X151726995Y-76710180D01*
X151689499Y-76721555D01*
X151644362Y-76726000D01*
X150905638Y-76726000D01*
X150860501Y-76721555D01*
X150823005Y-76710180D01*
X150788446Y-76691708D01*
X150758153Y-76666847D01*
X150733292Y-76636554D01*
X150714820Y-76601995D01*
X150703445Y-76564499D01*
X150699000Y-76519362D01*
X150699000Y-75880638D01*
X150703445Y-75835501D01*
X150714820Y-75798005D01*
X150733292Y-75763446D01*
X150758153Y-75733153D01*
X150788446Y-75708292D01*
X150823005Y-75689820D01*
X150860501Y-75678445D01*
X150905638Y-75674000D01*
X151644362Y-75674000D01*
X151689499Y-75678445D01*
G37*
G36*
X155964499Y-75478445D02*
G01*
X156001995Y-75489820D01*
X156036554Y-75508292D01*
X156066847Y-75533153D01*
X156091708Y-75563446D01*
X156110180Y-75598005D01*
X156121555Y-75635501D01*
X156126000Y-75680638D01*
X156126000Y-76419362D01*
X156121555Y-76464499D01*
X156110180Y-76501995D01*
X156091708Y-76536554D01*
X156066847Y-76566847D01*
X156036554Y-76591708D01*
X156001995Y-76610180D01*
X155964499Y-76621555D01*
X155919362Y-76626000D01*
X155280638Y-76626000D01*
X155235501Y-76621555D01*
X155198005Y-76610180D01*
X155163446Y-76591708D01*
X155133153Y-76566847D01*
X155108292Y-76536554D01*
X155089820Y-76501995D01*
X155078445Y-76464499D01*
X155074000Y-76419362D01*
X155074000Y-75680638D01*
X155078445Y-75635501D01*
X155089820Y-75598005D01*
X155108292Y-75563446D01*
X155133153Y-75533153D01*
X155163446Y-75508292D01*
X155198005Y-75489820D01*
X155235501Y-75478445D01*
X155280638Y-75474000D01*
X155919362Y-75474000D01*
X155964499Y-75478445D01*
G37*
G36*
X141909300Y-74937595D02*
G01*
X141995724Y-74954786D01*
X142117838Y-75005367D01*
X142227738Y-75078800D01*
X142321200Y-75172262D01*
X142394633Y-75282162D01*
X142445214Y-75404276D01*
X142445214Y-75404278D01*
X142471000Y-75533911D01*
X142471000Y-75666089D01*
X142465444Y-75694020D01*
X142445214Y-75795724D01*
X142394633Y-75917838D01*
X142321200Y-76027738D01*
X142227738Y-76121200D01*
X142117838Y-76194633D01*
X141995724Y-76245214D01*
X141909300Y-76262405D01*
X141866089Y-76271000D01*
X141733911Y-76271000D01*
X141690700Y-76262405D01*
X141604276Y-76245214D01*
X141482162Y-76194633D01*
X141372262Y-76121200D01*
X141278800Y-76027738D01*
X141205367Y-75917838D01*
X141154786Y-75795724D01*
X141134556Y-75694020D01*
X141129000Y-75666089D01*
X141129000Y-75533911D01*
X141154786Y-75404278D01*
X141154786Y-75404276D01*
X141205367Y-75282162D01*
X141278800Y-75172262D01*
X141372262Y-75078800D01*
X141482162Y-75005367D01*
X141604276Y-74954786D01*
X141690700Y-74937595D01*
X141733911Y-74929000D01*
X141866089Y-74929000D01*
X141909300Y-74937595D01*
G37*
G36*
X147564499Y-75028445D02*
G01*
X147601995Y-75039820D01*
X147636554Y-75058292D01*
X147666847Y-75083153D01*
X147691708Y-75113446D01*
X147710180Y-75148005D01*
X147721555Y-75185501D01*
X147726000Y-75230638D01*
X147726000Y-75969362D01*
X147721555Y-76014499D01*
X147710180Y-76051995D01*
X147691708Y-76086554D01*
X147666847Y-76116847D01*
X147636554Y-76141708D01*
X147601995Y-76160180D01*
X147564499Y-76171555D01*
X147519362Y-76176000D01*
X146880638Y-76176000D01*
X146835501Y-76171555D01*
X146798005Y-76160180D01*
X146763446Y-76141708D01*
X146733153Y-76116847D01*
X146708292Y-76086554D01*
X146689820Y-76051995D01*
X146678445Y-76014499D01*
X146674000Y-75969362D01*
X146674000Y-75230638D01*
X146678445Y-75185501D01*
X146689820Y-75148005D01*
X146708292Y-75113446D01*
X146733153Y-75083153D01*
X146763446Y-75058292D01*
X146798005Y-75039820D01*
X146835501Y-75028445D01*
X146880638Y-75024000D01*
X147519362Y-75024000D01*
X147564499Y-75028445D01*
G37*
G36*
X140639300Y-73667595D02*
G01*
X140725724Y-73684786D01*
X140847838Y-73735367D01*
X140957738Y-73808800D01*
X141051200Y-73902262D01*
X141124633Y-74012162D01*
X141175214Y-74134276D01*
X141201000Y-74263912D01*
X141201000Y-74396088D01*
X141175214Y-74525724D01*
X141124633Y-74647838D01*
X141051200Y-74757738D01*
X140957738Y-74851200D01*
X140847838Y-74924633D01*
X140725724Y-74975214D01*
X140639300Y-74992405D01*
X140596089Y-75001000D01*
X140463911Y-75001000D01*
X140420700Y-74992405D01*
X140334276Y-74975214D01*
X140212162Y-74924633D01*
X140102262Y-74851200D01*
X140008800Y-74757738D01*
X139935367Y-74647838D01*
X139884786Y-74525724D01*
X139859000Y-74396088D01*
X139859000Y-74263912D01*
X139884786Y-74134276D01*
X139935367Y-74012162D01*
X140008800Y-73902262D01*
X140102262Y-73808800D01*
X140212162Y-73735367D01*
X140334276Y-73684786D01*
X140420700Y-73667595D01*
X140463911Y-73659000D01*
X140596089Y-73659000D01*
X140639300Y-73667595D01*
G37*
G36*
X143179300Y-73667595D02*
G01*
X143265724Y-73684786D01*
X143387838Y-73735367D01*
X143497738Y-73808800D01*
X143591200Y-73902262D01*
X143664633Y-74012162D01*
X143715214Y-74134276D01*
X143741000Y-74263912D01*
X143741000Y-74396088D01*
X143715214Y-74525724D01*
X143664633Y-74647838D01*
X143591200Y-74757738D01*
X143497738Y-74851200D01*
X143387838Y-74924633D01*
X143265724Y-74975214D01*
X143179300Y-74992405D01*
X143136089Y-75001000D01*
X143003911Y-75001000D01*
X142960700Y-74992405D01*
X142874276Y-74975214D01*
X142752162Y-74924633D01*
X142642262Y-74851200D01*
X142548800Y-74757738D01*
X142475367Y-74647838D01*
X142424786Y-74525724D01*
X142399000Y-74396088D01*
X142399000Y-74263912D01*
X142424786Y-74134276D01*
X142475367Y-74012162D01*
X142548800Y-73902262D01*
X142642262Y-73808800D01*
X142752162Y-73735367D01*
X142874276Y-73684786D01*
X142960700Y-73667595D01*
X143003911Y-73659000D01*
X143136089Y-73659000D01*
X143179300Y-73667595D01*
G37*
G36*
X155964499Y-73728445D02*
G01*
X156001995Y-73739820D01*
X156036554Y-73758292D01*
X156066847Y-73783153D01*
X156091708Y-73813446D01*
X156110180Y-73848005D01*
X156121555Y-73885501D01*
X156126000Y-73930638D01*
X156126000Y-74669362D01*
X156121555Y-74714499D01*
X156110180Y-74751995D01*
X156091708Y-74786554D01*
X156066847Y-74816847D01*
X156036554Y-74841708D01*
X156001995Y-74860180D01*
X155964499Y-74871555D01*
X155919362Y-74876000D01*
X155280638Y-74876000D01*
X155235501Y-74871555D01*
X155198005Y-74860180D01*
X155163446Y-74841708D01*
X155133153Y-74816847D01*
X155108292Y-74786554D01*
X155089820Y-74751995D01*
X155078445Y-74714499D01*
X155074000Y-74669362D01*
X155074000Y-73930638D01*
X155078445Y-73885501D01*
X155089820Y-73848005D01*
X155108292Y-73813446D01*
X155133153Y-73783153D01*
X155163446Y-73758292D01*
X155198005Y-73739820D01*
X155235501Y-73728445D01*
X155280638Y-73724000D01*
X155919362Y-73724000D01*
X155964499Y-73728445D01*
G37*
G36*
X134573512Y-72803927D02*
G01*
X134722812Y-72833624D01*
X134886784Y-72901544D01*
X135034354Y-73000147D01*
X135159853Y-73125646D01*
X135258456Y-73273216D01*
X135326376Y-73437188D01*
X135356073Y-73586488D01*
X135361000Y-73611258D01*
X135361000Y-73788742D01*
X135357011Y-73808797D01*
X135326376Y-73962812D01*
X135258456Y-74126784D01*
X135159853Y-74274354D01*
X135034354Y-74399853D01*
X134886784Y-74498456D01*
X134722812Y-74566376D01*
X134573512Y-74596073D01*
X134548742Y-74601000D01*
X134371258Y-74601000D01*
X134346488Y-74596073D01*
X134197188Y-74566376D01*
X134033216Y-74498456D01*
X133885646Y-74399853D01*
X133760147Y-74274354D01*
X133661544Y-74126784D01*
X133593624Y-73962812D01*
X133562989Y-73808797D01*
X133559000Y-73788742D01*
X133559000Y-73611258D01*
X133563927Y-73586488D01*
X133593624Y-73437188D01*
X133661544Y-73273216D01*
X133760147Y-73125646D01*
X133885646Y-73000147D01*
X134033216Y-72901544D01*
X134197188Y-72833624D01*
X134346488Y-72803927D01*
X134371258Y-72799000D01*
X134548742Y-72799000D01*
X134573512Y-72803927D01*
G37*
G36*
X137901000Y-74601000D02*
G01*
X136099000Y-74601000D01*
X136099000Y-72799000D01*
X137901000Y-72799000D01*
X137901000Y-74601000D01*
G37*
G36*
X141814499Y-70178445D02*
G01*
X141851995Y-70189820D01*
X141886554Y-70208292D01*
X141916847Y-70233153D01*
X141941708Y-70263446D01*
X141960180Y-70298005D01*
X141971555Y-70335501D01*
X141976000Y-70380638D01*
X141976000Y-71019362D01*
X141971555Y-71064499D01*
X141960180Y-71101995D01*
X141941708Y-71136554D01*
X141916847Y-71166847D01*
X141886554Y-71191708D01*
X141851995Y-71210180D01*
X141814499Y-71221555D01*
X141769362Y-71226000D01*
X141030638Y-71226000D01*
X140985501Y-71221555D01*
X140948005Y-71210180D01*
X140913446Y-71191708D01*
X140883153Y-71166847D01*
X140858292Y-71136554D01*
X140839820Y-71101995D01*
X140828445Y-71064499D01*
X140824000Y-71019362D01*
X140824000Y-70380638D01*
X140828445Y-70335501D01*
X140839820Y-70298005D01*
X140858292Y-70263446D01*
X140883153Y-70233153D01*
X140913446Y-70208292D01*
X140948005Y-70189820D01*
X140985501Y-70178445D01*
X141030638Y-70174000D01*
X141769362Y-70174000D01*
X141814499Y-70178445D01*
G37*
G36*
X140064499Y-70178445D02*
G01*
X140101995Y-70189820D01*
X140136554Y-70208292D01*
X140166847Y-70233153D01*
X140191708Y-70263446D01*
X140210180Y-70298005D01*
X140221555Y-70335501D01*
X140226000Y-70380638D01*
X140226000Y-71019362D01*
X140221555Y-71064499D01*
X140210180Y-71101995D01*
X140191708Y-71136554D01*
X140166847Y-71166847D01*
X140136554Y-71191708D01*
X140101995Y-71210180D01*
X140064499Y-71221555D01*
X140019362Y-71226000D01*
X139280638Y-71226000D01*
X139235501Y-71221555D01*
X139198005Y-71210180D01*
X139163446Y-71191708D01*
X139133153Y-71166847D01*
X139108292Y-71136554D01*
X139089820Y-71101995D01*
X139078445Y-71064499D01*
X139074000Y-71019362D01*
X139074000Y-70380638D01*
X139078445Y-70335501D01*
X139089820Y-70298005D01*
X139108292Y-70263446D01*
X139133153Y-70233153D01*
X139163446Y-70208292D01*
X139198005Y-70189820D01*
X139235501Y-70178445D01*
X139280638Y-70174000D01*
X140019362Y-70174000D01*
X140064499Y-70178445D01*
G37*
G36*
X144213512Y-69143927D02*
G01*
X144362812Y-69173624D01*
X144526784Y-69241544D01*
X144674354Y-69340147D01*
X144799853Y-69465646D01*
X144898456Y-69613216D01*
X144966376Y-69777188D01*
X145001000Y-69951259D01*
X145001000Y-70128741D01*
X144966376Y-70302812D01*
X144898456Y-70466784D01*
X144799853Y-70614354D01*
X144674354Y-70739853D01*
X144526784Y-70838456D01*
X144362812Y-70906376D01*
X144213512Y-70936073D01*
X144188742Y-70941000D01*
X144011258Y-70941000D01*
X143986488Y-70936073D01*
X143837188Y-70906376D01*
X143673216Y-70838456D01*
X143525646Y-70739853D01*
X143400147Y-70614354D01*
X143301544Y-70466784D01*
X143233624Y-70302812D01*
X143199000Y-70128741D01*
X143199000Y-69951259D01*
X143233624Y-69777188D01*
X143301544Y-69613216D01*
X143400147Y-69465646D01*
X143525646Y-69340147D01*
X143673216Y-69241544D01*
X143837188Y-69173624D01*
X143986488Y-69143927D01*
X144011258Y-69139000D01*
X144188742Y-69139000D01*
X144213512Y-69143927D01*
G37*
G36*
X123238855Y-69252140D02*
G01*
X123302618Y-69258420D01*
X123393404Y-69285960D01*
X123425336Y-69295646D01*
X123538425Y-69356094D01*
X123637554Y-69437446D01*
X123718906Y-69536575D01*
X123779354Y-69649664D01*
X123779355Y-69649668D01*
X123816580Y-69772382D01*
X123829149Y-69900000D01*
X123816580Y-70027618D01*
X123811639Y-70043905D01*
X123779354Y-70150336D01*
X123718906Y-70263425D01*
X123637554Y-70362554D01*
X123538425Y-70443906D01*
X123425336Y-70504354D01*
X123393404Y-70514040D01*
X123302618Y-70541580D01*
X123238855Y-70547860D01*
X123206974Y-70551000D01*
X122593026Y-70551000D01*
X122561145Y-70547860D01*
X122497382Y-70541580D01*
X122406596Y-70514040D01*
X122374664Y-70504354D01*
X122261575Y-70443906D01*
X122162446Y-70362554D01*
X122081094Y-70263425D01*
X122020646Y-70150336D01*
X121988361Y-70043905D01*
X121983420Y-70027618D01*
X121970851Y-69900000D01*
X121983420Y-69772382D01*
X122020645Y-69649668D01*
X122020646Y-69649664D01*
X122081094Y-69536575D01*
X122162446Y-69437446D01*
X122261575Y-69356094D01*
X122374664Y-69295646D01*
X122406596Y-69285960D01*
X122497382Y-69258420D01*
X122561145Y-69252140D01*
X122593026Y-69249000D01*
X123206974Y-69249000D01*
X123238855Y-69252140D01*
G37*
G36*
X152138855Y-68852140D02*
G01*
X152202618Y-68858420D01*
X152293404Y-68885960D01*
X152325336Y-68895646D01*
X152438425Y-68956094D01*
X152537554Y-69037446D01*
X152618906Y-69136575D01*
X152679354Y-69249664D01*
X152679355Y-69249668D01*
X152716580Y-69372382D01*
X152729149Y-69500000D01*
X152716580Y-69627618D01*
X152709892Y-69649664D01*
X152679354Y-69750336D01*
X152618906Y-69863425D01*
X152537554Y-69962554D01*
X152438425Y-70043906D01*
X152325336Y-70104354D01*
X152293404Y-70114040D01*
X152202618Y-70141580D01*
X152138855Y-70147860D01*
X152106974Y-70151000D01*
X151493026Y-70151000D01*
X151461145Y-70147860D01*
X151397382Y-70141580D01*
X151306596Y-70114040D01*
X151274664Y-70104354D01*
X151161575Y-70043906D01*
X151062446Y-69962554D01*
X150981094Y-69863425D01*
X150920646Y-69750336D01*
X150890108Y-69649664D01*
X150883420Y-69627618D01*
X150870851Y-69500000D01*
X150883420Y-69372382D01*
X150920645Y-69249668D01*
X150920646Y-69249664D01*
X150981094Y-69136575D01*
X151062446Y-69037446D01*
X151161575Y-68956094D01*
X151274664Y-68895646D01*
X151306596Y-68885960D01*
X151397382Y-68858420D01*
X151461145Y-68852140D01*
X151493026Y-68849000D01*
X152106974Y-68849000D01*
X152138855Y-68852140D01*
G37*
G36*
X139862199Y-66799954D02*
G01*
X139874450Y-66800556D01*
X139892869Y-66800556D01*
X139915149Y-66802750D01*
X139999233Y-66819476D01*
X140020660Y-66825976D01*
X140099858Y-66858780D01*
X140105303Y-66861691D01*
X140105309Y-66861693D01*
X140114169Y-66866429D01*
X140114173Y-66866432D01*
X140119614Y-66869340D01*
X140190899Y-66916971D01*
X140208204Y-66931172D01*
X140268828Y-66991796D01*
X140283029Y-67009101D01*
X140330660Y-67080386D01*
X140333568Y-67085827D01*
X140333571Y-67085831D01*
X140338307Y-67094691D01*
X140338309Y-67094697D01*
X140341220Y-67100142D01*
X140374024Y-67179340D01*
X140380524Y-67200767D01*
X140397250Y-67284851D01*
X140399444Y-67307131D01*
X140399444Y-67325550D01*
X140400046Y-67337801D01*
X140401852Y-67356139D01*
X140401852Y-67843860D01*
X140400263Y-67859999D01*
X140397348Y-67869608D01*
X140392610Y-67878472D01*
X140391560Y-67879751D01*
X140386237Y-67886237D01*
X140380186Y-67891203D01*
X140373794Y-67896448D01*
X140363425Y-67903378D01*
X140346098Y-67920705D01*
X140332485Y-67941080D01*
X140323109Y-67963720D01*
X140318329Y-67987753D01*
X140318330Y-68012257D01*
X140323112Y-68036290D01*
X140332490Y-68058929D01*
X140346105Y-68079302D01*
X140363432Y-68096629D01*
X140373802Y-68103558D01*
X140386237Y-68113763D01*
X140392610Y-68121528D01*
X140397348Y-68130392D01*
X140400263Y-68140001D01*
X140401852Y-68156140D01*
X140401852Y-68643862D01*
X140400046Y-68662199D01*
X140399444Y-68674450D01*
X140399444Y-68692869D01*
X140397250Y-68715149D01*
X140380524Y-68799233D01*
X140374024Y-68820660D01*
X140341220Y-68899858D01*
X140338309Y-68905303D01*
X140338307Y-68905309D01*
X140333571Y-68914169D01*
X140333568Y-68914173D01*
X140330660Y-68919614D01*
X140283029Y-68990899D01*
X140268828Y-69008204D01*
X140208204Y-69068828D01*
X140190899Y-69083029D01*
X140119614Y-69130660D01*
X140114173Y-69133568D01*
X140114169Y-69133571D01*
X140105309Y-69138307D01*
X140105303Y-69138309D01*
X140099858Y-69141220D01*
X140020660Y-69174024D01*
X139999233Y-69180524D01*
X139915149Y-69197250D01*
X139892869Y-69199444D01*
X139874450Y-69199444D01*
X139862199Y-69200046D01*
X139843862Y-69201852D01*
X139356138Y-69201852D01*
X139337801Y-69200046D01*
X139325550Y-69199444D01*
X139307131Y-69199444D01*
X139284851Y-69197250D01*
X139200767Y-69180524D01*
X139179340Y-69174024D01*
X139100142Y-69141220D01*
X139094697Y-69138309D01*
X139094691Y-69138307D01*
X139085831Y-69133571D01*
X139085827Y-69133568D01*
X139080386Y-69130660D01*
X139009101Y-69083029D01*
X138991796Y-69068828D01*
X138931172Y-69008204D01*
X138916971Y-68990899D01*
X138869340Y-68919614D01*
X138866432Y-68914173D01*
X138866429Y-68914169D01*
X138861693Y-68905309D01*
X138861691Y-68905303D01*
X138858780Y-68899858D01*
X138825976Y-68820660D01*
X138819476Y-68799233D01*
X138802750Y-68715149D01*
X138800556Y-68692869D01*
X138800556Y-68674450D01*
X138799954Y-68662199D01*
X138798148Y-68643862D01*
X138798148Y-68156140D01*
X138799737Y-68140001D01*
X138802652Y-68130392D01*
X138807390Y-68121528D01*
X138813763Y-68113763D01*
X138826206Y-68103552D01*
X138836575Y-68096622D01*
X138853902Y-68079295D01*
X138867515Y-68058920D01*
X138876891Y-68036280D01*
X138881671Y-68012247D01*
X138881670Y-67987743D01*
X138876888Y-67963710D01*
X138867510Y-67941071D01*
X138853895Y-67920698D01*
X138836568Y-67903371D01*
X138826198Y-67896442D01*
X138813763Y-67886237D01*
X138807390Y-67878472D01*
X138802652Y-67869608D01*
X138799737Y-67859999D01*
X138798148Y-67843860D01*
X138798148Y-67356139D01*
X138799954Y-67337801D01*
X138800556Y-67325550D01*
X138800556Y-67307131D01*
X138802750Y-67284851D01*
X138819476Y-67200767D01*
X138825976Y-67179340D01*
X138858780Y-67100142D01*
X138861691Y-67094697D01*
X138861693Y-67094691D01*
X138866429Y-67085831D01*
X138866432Y-67085827D01*
X138869340Y-67080386D01*
X138916971Y-67009101D01*
X138931172Y-66991796D01*
X138991796Y-66931172D01*
X139009101Y-66916971D01*
X139080386Y-66869340D01*
X139085827Y-66866432D01*
X139085831Y-66866429D01*
X139094691Y-66861693D01*
X139094697Y-66861691D01*
X139100142Y-66858780D01*
X139179340Y-66825976D01*
X139200767Y-66819476D01*
X139284851Y-66802750D01*
X139307131Y-66800556D01*
X139325550Y-66800556D01*
X139337801Y-66799954D01*
X139356139Y-66798148D01*
X139843861Y-66798148D01*
X139862199Y-66799954D01*
G37*
G36*
X123666242Y-67253404D02*
G01*
X123703337Y-67264657D01*
X123737515Y-67282925D01*
X123767481Y-67307519D01*
X123792075Y-67337485D01*
X123810343Y-67371663D01*
X123821596Y-67408758D01*
X123826000Y-67453474D01*
X123826000Y-68346526D01*
X123821596Y-68391242D01*
X123810343Y-68428337D01*
X123792075Y-68462515D01*
X123767481Y-68492481D01*
X123737515Y-68517075D01*
X123703337Y-68535343D01*
X123666242Y-68546596D01*
X123621526Y-68551000D01*
X122178474Y-68551000D01*
X122133758Y-68546596D01*
X122096663Y-68535343D01*
X122062485Y-68517075D01*
X122032519Y-68492481D01*
X122007925Y-68462515D01*
X121989657Y-68428337D01*
X121978404Y-68391242D01*
X121974000Y-68346526D01*
X121974000Y-67453474D01*
X121978404Y-67408758D01*
X121989657Y-67371663D01*
X122007925Y-67337485D01*
X122032519Y-67307519D01*
X122062485Y-67282925D01*
X122096663Y-67264657D01*
X122133758Y-67253404D01*
X122178474Y-67249000D01*
X123621526Y-67249000D01*
X123666242Y-67253404D01*
G37*
G36*
X145001000Y-68401000D02*
G01*
X143199000Y-68401000D01*
X143199000Y-66599000D01*
X145001000Y-66599000D01*
X145001000Y-68401000D01*
G37*
G36*
X152566242Y-66853404D02*
G01*
X152603337Y-66864657D01*
X152637515Y-66882925D01*
X152667481Y-66907519D01*
X152692075Y-66937485D01*
X152710343Y-66971663D01*
X152721596Y-67008758D01*
X152726000Y-67053474D01*
X152726000Y-67946526D01*
X152721596Y-67991242D01*
X152710343Y-68028337D01*
X152692075Y-68062515D01*
X152667481Y-68092481D01*
X152637515Y-68117075D01*
X152603337Y-68135343D01*
X152566242Y-68146596D01*
X152521526Y-68151000D01*
X151078474Y-68151000D01*
X151033758Y-68146596D01*
X150996663Y-68135343D01*
X150962485Y-68117075D01*
X150932519Y-68092481D01*
X150907925Y-68062515D01*
X150889657Y-68028337D01*
X150878404Y-67991242D01*
X150874000Y-67946526D01*
X150874000Y-67053474D01*
X150878404Y-67008758D01*
X150889657Y-66971663D01*
X150907925Y-66937485D01*
X150932519Y-66907519D01*
X150962485Y-66882925D01*
X150996663Y-66864657D01*
X151033758Y-66853404D01*
X151078474Y-66849000D01*
X152521526Y-66849000D01*
X152566242Y-66853404D01*
G37*
G36*
X135679300Y-66707595D02*
G01*
X135765724Y-66724786D01*
X135887838Y-66775367D01*
X135997738Y-66848800D01*
X136091200Y-66942262D01*
X136164633Y-67052162D01*
X136215214Y-67174276D01*
X136215214Y-67174278D01*
X136239171Y-67294714D01*
X136241000Y-67303912D01*
X136241000Y-67436088D01*
X136215214Y-67565724D01*
X136164633Y-67687838D01*
X136091200Y-67797738D01*
X135997738Y-67891200D01*
X135887838Y-67964633D01*
X135765724Y-68015214D01*
X135689132Y-68030449D01*
X135636089Y-68041000D01*
X135503911Y-68041000D01*
X135450868Y-68030449D01*
X135374276Y-68015214D01*
X135252162Y-67964633D01*
X135142262Y-67891200D01*
X135048800Y-67797738D01*
X134975367Y-67687838D01*
X134924786Y-67565724D01*
X134899000Y-67436088D01*
X134899000Y-67303912D01*
X134900830Y-67294714D01*
X134924786Y-67174278D01*
X134924786Y-67174276D01*
X134975367Y-67052162D01*
X135048800Y-66942262D01*
X135142262Y-66848800D01*
X135252162Y-66775367D01*
X135374276Y-66724786D01*
X135460700Y-66707595D01*
X135503911Y-66699000D01*
X135636089Y-66699000D01*
X135679300Y-66707595D01*
G37*
G36*
X133139300Y-66707595D02*
G01*
X133225724Y-66724786D01*
X133347838Y-66775367D01*
X133457738Y-66848800D01*
X133551200Y-66942262D01*
X133624633Y-67052162D01*
X133675214Y-67174276D01*
X133675214Y-67174278D01*
X133699171Y-67294714D01*
X133701000Y-67303912D01*
X133701000Y-67436088D01*
X133675214Y-67565724D01*
X133624633Y-67687838D01*
X133551200Y-67797738D01*
X133457738Y-67891200D01*
X133347838Y-67964633D01*
X133225724Y-68015214D01*
X133149132Y-68030449D01*
X133096089Y-68041000D01*
X132963911Y-68041000D01*
X132910868Y-68030449D01*
X132834276Y-68015214D01*
X132712162Y-67964633D01*
X132602262Y-67891200D01*
X132508800Y-67797738D01*
X132435367Y-67687838D01*
X132384786Y-67565724D01*
X132359000Y-67436088D01*
X132359000Y-67303912D01*
X132360830Y-67294714D01*
X132384786Y-67174278D01*
X132384786Y-67174276D01*
X132435367Y-67052162D01*
X132508800Y-66942262D01*
X132602262Y-66848800D01*
X132712162Y-66775367D01*
X132834276Y-66724786D01*
X132920700Y-66707595D01*
X132963911Y-66699000D01*
X133096089Y-66699000D01*
X133139300Y-66707595D01*
G37*
G36*
X134409300Y-65437595D02*
G01*
X134495724Y-65454786D01*
X134617838Y-65505367D01*
X134727738Y-65578800D01*
X134821200Y-65672262D01*
X134894633Y-65782162D01*
X134945214Y-65904276D01*
X134971000Y-66033912D01*
X134971000Y-66166088D01*
X134945214Y-66295724D01*
X134894633Y-66417838D01*
X134821200Y-66527738D01*
X134727738Y-66621200D01*
X134617838Y-66694633D01*
X134495724Y-66745214D01*
X134409300Y-66762405D01*
X134366089Y-66771000D01*
X134233911Y-66771000D01*
X134190700Y-66762405D01*
X134104276Y-66745214D01*
X133982162Y-66694633D01*
X133872262Y-66621200D01*
X133778800Y-66527738D01*
X133705367Y-66417838D01*
X133654786Y-66295724D01*
X133629000Y-66166088D01*
X133629000Y-66033912D01*
X133654786Y-65904276D01*
X133705367Y-65782162D01*
X133778800Y-65672262D01*
X133872262Y-65578800D01*
X133982162Y-65505367D01*
X134104276Y-65454786D01*
X134190700Y-65437595D01*
X134233911Y-65429000D01*
X134366089Y-65429000D01*
X134409300Y-65437595D01*
G37*
G36*
X133139300Y-64167595D02*
G01*
X133225724Y-64184786D01*
X133347838Y-64235367D01*
X133457738Y-64308800D01*
X133551200Y-64402262D01*
X133624633Y-64512162D01*
X133675214Y-64634276D01*
X133701000Y-64763912D01*
X133701000Y-64896088D01*
X133675214Y-65025724D01*
X133624633Y-65147838D01*
X133551200Y-65257738D01*
X133457738Y-65351200D01*
X133347838Y-65424633D01*
X133225724Y-65475214D01*
X133139300Y-65492405D01*
X133096089Y-65501000D01*
X132963911Y-65501000D01*
X132920700Y-65492405D01*
X132834276Y-65475214D01*
X132712162Y-65424633D01*
X132602262Y-65351200D01*
X132508800Y-65257738D01*
X132435367Y-65147838D01*
X132384786Y-65025724D01*
X132359000Y-64896088D01*
X132359000Y-64763912D01*
X132384786Y-64634276D01*
X132435367Y-64512162D01*
X132508800Y-64402262D01*
X132602262Y-64308800D01*
X132712162Y-64235367D01*
X132834276Y-64184786D01*
X132920700Y-64167595D01*
X132963911Y-64159000D01*
X133096089Y-64159000D01*
X133139300Y-64167595D01*
G37*
G36*
X135679300Y-64167595D02*
G01*
X135765724Y-64184786D01*
X135887838Y-64235367D01*
X135997738Y-64308800D01*
X136091200Y-64402262D01*
X136164633Y-64512162D01*
X136215214Y-64634276D01*
X136241000Y-64763912D01*
X136241000Y-64896088D01*
X136215214Y-65025724D01*
X136164633Y-65147838D01*
X136091200Y-65257738D01*
X135997738Y-65351200D01*
X135887838Y-65424633D01*
X135765724Y-65475214D01*
X135679300Y-65492405D01*
X135636089Y-65501000D01*
X135503911Y-65501000D01*
X135460700Y-65492405D01*
X135374276Y-65475214D01*
X135252162Y-65424633D01*
X135142262Y-65351200D01*
X135048800Y-65257738D01*
X134975367Y-65147838D01*
X134924786Y-65025724D01*
X134899000Y-64896088D01*
X134899000Y-64763912D01*
X134924786Y-64634276D01*
X134975367Y-64512162D01*
X135048800Y-64402262D01*
X135142262Y-64308800D01*
X135252162Y-64235367D01*
X135374276Y-64184786D01*
X135460700Y-64167595D01*
X135503911Y-64159000D01*
X135636089Y-64159000D01*
X135679300Y-64167595D01*
G37*
M02*
