G04 #@! TF.GenerationSoftware,KiCad,Pcbnew,(5.1.5-0)*
G04 #@! TF.CreationDate,2022-02-08T08:58:47-07:00*
G04 #@! TF.ProjectId,TPS61165-heater-v2,54505336-3131-4363-952d-686561746572,rev?*
G04 #@! TF.SameCoordinates,Original*
G04 #@! TF.FileFunction,Copper,L1,Top*
G04 #@! TF.FilePolarity,Positive*
%FSLAX46Y46*%
G04 Gerber Fmt 4.6, Leading zero omitted, Abs format (unit mm)*
G04 Created by KiCad (PCBNEW (5.1.5-0)) date 2022-02-08 08:58:47*
%MOMM*%
%LPD*%
G04 APERTURE LIST*
%ADD10R,3.000000X2.000000*%
%ADD11C,0.100000*%
%ADD12R,0.650000X1.560000*%
%ADD13C,1.240000*%
%ADD14O,1.700000X1.700000*%
%ADD15R,1.700000X1.700000*%
%ADD16R,2.000000X5.300000*%
%ADD17O,1.750000X1.200000*%
%ADD18O,1.800000X1.100000*%
%ADD19R,1.500000X0.800000*%
%ADD20R,1.500000X0.760000*%
%ADD21R,1.500000X0.700000*%
%ADD22R,0.900000X1.200000*%
%ADD23C,0.800000*%
%ADD24C,0.500000*%
%ADD25C,0.250000*%
%ADD26C,1.000000*%
%ADD27C,0.254000*%
G04 APERTURE END LIST*
D10*
X127300000Y-77390000D03*
X127300000Y-85010000D03*
X134900000Y-85010000D03*
X134900000Y-77390000D03*
G04 #@! TA.AperFunction,SMDPad,CuDef*
D11*
G36*
X141460779Y-81051144D02*
G01*
X141483834Y-81054563D01*
X141506443Y-81060227D01*
X141528387Y-81068079D01*
X141549457Y-81078044D01*
X141569448Y-81090026D01*
X141588168Y-81103910D01*
X141605438Y-81119562D01*
X141621090Y-81136832D01*
X141634974Y-81155552D01*
X141646956Y-81175543D01*
X141656921Y-81196613D01*
X141664773Y-81218557D01*
X141670437Y-81241166D01*
X141673856Y-81264221D01*
X141675000Y-81287500D01*
X141675000Y-81862500D01*
X141673856Y-81885779D01*
X141670437Y-81908834D01*
X141664773Y-81931443D01*
X141656921Y-81953387D01*
X141646956Y-81974457D01*
X141634974Y-81994448D01*
X141621090Y-82013168D01*
X141605438Y-82030438D01*
X141588168Y-82046090D01*
X141569448Y-82059974D01*
X141549457Y-82071956D01*
X141528387Y-82081921D01*
X141506443Y-82089773D01*
X141483834Y-82095437D01*
X141460779Y-82098856D01*
X141437500Y-82100000D01*
X140962500Y-82100000D01*
X140939221Y-82098856D01*
X140916166Y-82095437D01*
X140893557Y-82089773D01*
X140871613Y-82081921D01*
X140850543Y-82071956D01*
X140830552Y-82059974D01*
X140811832Y-82046090D01*
X140794562Y-82030438D01*
X140778910Y-82013168D01*
X140765026Y-81994448D01*
X140753044Y-81974457D01*
X140743079Y-81953387D01*
X140735227Y-81931443D01*
X140729563Y-81908834D01*
X140726144Y-81885779D01*
X140725000Y-81862500D01*
X140725000Y-81287500D01*
X140726144Y-81264221D01*
X140729563Y-81241166D01*
X140735227Y-81218557D01*
X140743079Y-81196613D01*
X140753044Y-81175543D01*
X140765026Y-81155552D01*
X140778910Y-81136832D01*
X140794562Y-81119562D01*
X140811832Y-81103910D01*
X140830552Y-81090026D01*
X140850543Y-81078044D01*
X140871613Y-81068079D01*
X140893557Y-81060227D01*
X140916166Y-81054563D01*
X140939221Y-81051144D01*
X140962500Y-81050000D01*
X141437500Y-81050000D01*
X141460779Y-81051144D01*
G37*
G04 #@! TD.AperFunction*
G04 #@! TA.AperFunction,SMDPad,CuDef*
G36*
X141460779Y-79301144D02*
G01*
X141483834Y-79304563D01*
X141506443Y-79310227D01*
X141528387Y-79318079D01*
X141549457Y-79328044D01*
X141569448Y-79340026D01*
X141588168Y-79353910D01*
X141605438Y-79369562D01*
X141621090Y-79386832D01*
X141634974Y-79405552D01*
X141646956Y-79425543D01*
X141656921Y-79446613D01*
X141664773Y-79468557D01*
X141670437Y-79491166D01*
X141673856Y-79514221D01*
X141675000Y-79537500D01*
X141675000Y-80112500D01*
X141673856Y-80135779D01*
X141670437Y-80158834D01*
X141664773Y-80181443D01*
X141656921Y-80203387D01*
X141646956Y-80224457D01*
X141634974Y-80244448D01*
X141621090Y-80263168D01*
X141605438Y-80280438D01*
X141588168Y-80296090D01*
X141569448Y-80309974D01*
X141549457Y-80321956D01*
X141528387Y-80331921D01*
X141506443Y-80339773D01*
X141483834Y-80345437D01*
X141460779Y-80348856D01*
X141437500Y-80350000D01*
X140962500Y-80350000D01*
X140939221Y-80348856D01*
X140916166Y-80345437D01*
X140893557Y-80339773D01*
X140871613Y-80331921D01*
X140850543Y-80321956D01*
X140830552Y-80309974D01*
X140811832Y-80296090D01*
X140794562Y-80280438D01*
X140778910Y-80263168D01*
X140765026Y-80244448D01*
X140753044Y-80224457D01*
X140743079Y-80203387D01*
X140735227Y-80181443D01*
X140729563Y-80158834D01*
X140726144Y-80135779D01*
X140725000Y-80112500D01*
X140725000Y-79537500D01*
X140726144Y-79514221D01*
X140729563Y-79491166D01*
X140735227Y-79468557D01*
X140743079Y-79446613D01*
X140753044Y-79425543D01*
X140765026Y-79405552D01*
X140778910Y-79386832D01*
X140794562Y-79369562D01*
X140811832Y-79353910D01*
X140830552Y-79340026D01*
X140850543Y-79328044D01*
X140871613Y-79318079D01*
X140893557Y-79310227D01*
X140916166Y-79304563D01*
X140939221Y-79301144D01*
X140962500Y-79300000D01*
X141437500Y-79300000D01*
X141460779Y-79301144D01*
G37*
G04 #@! TD.AperFunction*
G04 #@! TA.AperFunction,SMDPad,CuDef*
G36*
X139960779Y-70226144D02*
G01*
X139983834Y-70229563D01*
X140006443Y-70235227D01*
X140028387Y-70243079D01*
X140049457Y-70253044D01*
X140069448Y-70265026D01*
X140088168Y-70278910D01*
X140105438Y-70294562D01*
X140121090Y-70311832D01*
X140134974Y-70330552D01*
X140146956Y-70350543D01*
X140156921Y-70371613D01*
X140164773Y-70393557D01*
X140170437Y-70416166D01*
X140173856Y-70439221D01*
X140175000Y-70462500D01*
X140175000Y-70937500D01*
X140173856Y-70960779D01*
X140170437Y-70983834D01*
X140164773Y-71006443D01*
X140156921Y-71028387D01*
X140146956Y-71049457D01*
X140134974Y-71069448D01*
X140121090Y-71088168D01*
X140105438Y-71105438D01*
X140088168Y-71121090D01*
X140069448Y-71134974D01*
X140049457Y-71146956D01*
X140028387Y-71156921D01*
X140006443Y-71164773D01*
X139983834Y-71170437D01*
X139960779Y-71173856D01*
X139937500Y-71175000D01*
X139362500Y-71175000D01*
X139339221Y-71173856D01*
X139316166Y-71170437D01*
X139293557Y-71164773D01*
X139271613Y-71156921D01*
X139250543Y-71146956D01*
X139230552Y-71134974D01*
X139211832Y-71121090D01*
X139194562Y-71105438D01*
X139178910Y-71088168D01*
X139165026Y-71069448D01*
X139153044Y-71049457D01*
X139143079Y-71028387D01*
X139135227Y-71006443D01*
X139129563Y-70983834D01*
X139126144Y-70960779D01*
X139125000Y-70937500D01*
X139125000Y-70462500D01*
X139126144Y-70439221D01*
X139129563Y-70416166D01*
X139135227Y-70393557D01*
X139143079Y-70371613D01*
X139153044Y-70350543D01*
X139165026Y-70330552D01*
X139178910Y-70311832D01*
X139194562Y-70294562D01*
X139211832Y-70278910D01*
X139230552Y-70265026D01*
X139250543Y-70253044D01*
X139271613Y-70243079D01*
X139293557Y-70235227D01*
X139316166Y-70229563D01*
X139339221Y-70226144D01*
X139362500Y-70225000D01*
X139937500Y-70225000D01*
X139960779Y-70226144D01*
G37*
G04 #@! TD.AperFunction*
G04 #@! TA.AperFunction,SMDPad,CuDef*
G36*
X141710779Y-70226144D02*
G01*
X141733834Y-70229563D01*
X141756443Y-70235227D01*
X141778387Y-70243079D01*
X141799457Y-70253044D01*
X141819448Y-70265026D01*
X141838168Y-70278910D01*
X141855438Y-70294562D01*
X141871090Y-70311832D01*
X141884974Y-70330552D01*
X141896956Y-70350543D01*
X141906921Y-70371613D01*
X141914773Y-70393557D01*
X141920437Y-70416166D01*
X141923856Y-70439221D01*
X141925000Y-70462500D01*
X141925000Y-70937500D01*
X141923856Y-70960779D01*
X141920437Y-70983834D01*
X141914773Y-71006443D01*
X141906921Y-71028387D01*
X141896956Y-71049457D01*
X141884974Y-71069448D01*
X141871090Y-71088168D01*
X141855438Y-71105438D01*
X141838168Y-71121090D01*
X141819448Y-71134974D01*
X141799457Y-71146956D01*
X141778387Y-71156921D01*
X141756443Y-71164773D01*
X141733834Y-71170437D01*
X141710779Y-71173856D01*
X141687500Y-71175000D01*
X141112500Y-71175000D01*
X141089221Y-71173856D01*
X141066166Y-71170437D01*
X141043557Y-71164773D01*
X141021613Y-71156921D01*
X141000543Y-71146956D01*
X140980552Y-71134974D01*
X140961832Y-71121090D01*
X140944562Y-71105438D01*
X140928910Y-71088168D01*
X140915026Y-71069448D01*
X140903044Y-71049457D01*
X140893079Y-71028387D01*
X140885227Y-71006443D01*
X140879563Y-70983834D01*
X140876144Y-70960779D01*
X140875000Y-70937500D01*
X140875000Y-70462500D01*
X140876144Y-70439221D01*
X140879563Y-70416166D01*
X140885227Y-70393557D01*
X140893079Y-70371613D01*
X140903044Y-70350543D01*
X140915026Y-70330552D01*
X140928910Y-70311832D01*
X140944562Y-70294562D01*
X140961832Y-70278910D01*
X140980552Y-70265026D01*
X141000543Y-70253044D01*
X141021613Y-70243079D01*
X141043557Y-70235227D01*
X141066166Y-70229563D01*
X141089221Y-70226144D01*
X141112500Y-70225000D01*
X141687500Y-70225000D01*
X141710779Y-70226144D01*
G37*
G04 #@! TD.AperFunction*
G04 #@! TA.AperFunction,SMDPad,CuDef*
G36*
X140349398Y-68650000D02*
G01*
X140349398Y-68674534D01*
X140344588Y-68723365D01*
X140335016Y-68771490D01*
X140320772Y-68818445D01*
X140301995Y-68863778D01*
X140278864Y-68907051D01*
X140251604Y-68947850D01*
X140220476Y-68985779D01*
X140185779Y-69020476D01*
X140147850Y-69051604D01*
X140107051Y-69078864D01*
X140063778Y-69101995D01*
X140018445Y-69120772D01*
X139971490Y-69135016D01*
X139923365Y-69144588D01*
X139874534Y-69149398D01*
X139850000Y-69149398D01*
X139850000Y-69150000D01*
X139350000Y-69150000D01*
X139350000Y-69149398D01*
X139325466Y-69149398D01*
X139276635Y-69144588D01*
X139228510Y-69135016D01*
X139181555Y-69120772D01*
X139136222Y-69101995D01*
X139092949Y-69078864D01*
X139052150Y-69051604D01*
X139014221Y-69020476D01*
X138979524Y-68985779D01*
X138948396Y-68947850D01*
X138921136Y-68907051D01*
X138898005Y-68863778D01*
X138879228Y-68818445D01*
X138864984Y-68771490D01*
X138855412Y-68723365D01*
X138850602Y-68674534D01*
X138850602Y-68650000D01*
X138850000Y-68650000D01*
X138850000Y-68150000D01*
X140350000Y-68150000D01*
X140350000Y-68650000D01*
X140349398Y-68650000D01*
G37*
G04 #@! TD.AperFunction*
G04 #@! TA.AperFunction,SMDPad,CuDef*
G36*
X138850000Y-67850000D02*
G01*
X138850000Y-67350000D01*
X138850602Y-67350000D01*
X138850602Y-67325466D01*
X138855412Y-67276635D01*
X138864984Y-67228510D01*
X138879228Y-67181555D01*
X138898005Y-67136222D01*
X138921136Y-67092949D01*
X138948396Y-67052150D01*
X138979524Y-67014221D01*
X139014221Y-66979524D01*
X139052150Y-66948396D01*
X139092949Y-66921136D01*
X139136222Y-66898005D01*
X139181555Y-66879228D01*
X139228510Y-66864984D01*
X139276635Y-66855412D01*
X139325466Y-66850602D01*
X139350000Y-66850602D01*
X139350000Y-66850000D01*
X139850000Y-66850000D01*
X139850000Y-66850602D01*
X139874534Y-66850602D01*
X139923365Y-66855412D01*
X139971490Y-66864984D01*
X140018445Y-66879228D01*
X140063778Y-66898005D01*
X140107051Y-66921136D01*
X140147850Y-66948396D01*
X140185779Y-66979524D01*
X140220476Y-67014221D01*
X140251604Y-67052150D01*
X140278864Y-67092949D01*
X140301995Y-67136222D01*
X140320772Y-67181555D01*
X140335016Y-67228510D01*
X140344588Y-67276635D01*
X140349398Y-67325466D01*
X140349398Y-67350000D01*
X140350000Y-67350000D01*
X140350000Y-67850000D01*
X138850000Y-67850000D01*
G37*
G04 #@! TD.AperFunction*
G04 #@! TA.AperFunction,SMDPad,CuDef*
G36*
X143150000Y-80449398D02*
G01*
X143125466Y-80449398D01*
X143076635Y-80444588D01*
X143028510Y-80435016D01*
X142981555Y-80420772D01*
X142936222Y-80401995D01*
X142892949Y-80378864D01*
X142852150Y-80351604D01*
X142814221Y-80320476D01*
X142779524Y-80285779D01*
X142748396Y-80247850D01*
X142721136Y-80207051D01*
X142698005Y-80163778D01*
X142679228Y-80118445D01*
X142664984Y-80071490D01*
X142655412Y-80023365D01*
X142650602Y-79974534D01*
X142650602Y-79950000D01*
X142650000Y-79950000D01*
X142650000Y-79450000D01*
X142650602Y-79450000D01*
X142650602Y-79425466D01*
X142655412Y-79376635D01*
X142664984Y-79328510D01*
X142679228Y-79281555D01*
X142698005Y-79236222D01*
X142721136Y-79192949D01*
X142748396Y-79152150D01*
X142779524Y-79114221D01*
X142814221Y-79079524D01*
X142852150Y-79048396D01*
X142892949Y-79021136D01*
X142936222Y-78998005D01*
X142981555Y-78979228D01*
X143028510Y-78964984D01*
X143076635Y-78955412D01*
X143125466Y-78950602D01*
X143150000Y-78950602D01*
X143150000Y-78950000D01*
X143650000Y-78950000D01*
X143650000Y-80450000D01*
X143150000Y-80450000D01*
X143150000Y-80449398D01*
G37*
G04 #@! TD.AperFunction*
G04 #@! TA.AperFunction,SMDPad,CuDef*
G36*
X143950000Y-78950000D02*
G01*
X144450000Y-78950000D01*
X144450000Y-78950602D01*
X144474534Y-78950602D01*
X144523365Y-78955412D01*
X144571490Y-78964984D01*
X144618445Y-78979228D01*
X144663778Y-78998005D01*
X144707051Y-79021136D01*
X144747850Y-79048396D01*
X144785779Y-79079524D01*
X144820476Y-79114221D01*
X144851604Y-79152150D01*
X144878864Y-79192949D01*
X144901995Y-79236222D01*
X144920772Y-79281555D01*
X144935016Y-79328510D01*
X144944588Y-79376635D01*
X144949398Y-79425466D01*
X144949398Y-79450000D01*
X144950000Y-79450000D01*
X144950000Y-79950000D01*
X144949398Y-79950000D01*
X144949398Y-79974534D01*
X144944588Y-80023365D01*
X144935016Y-80071490D01*
X144920772Y-80118445D01*
X144901995Y-80163778D01*
X144878864Y-80207051D01*
X144851604Y-80247850D01*
X144820476Y-80285779D01*
X144785779Y-80320476D01*
X144747850Y-80351604D01*
X144707051Y-80378864D01*
X144663778Y-80401995D01*
X144618445Y-80420772D01*
X144571490Y-80435016D01*
X144523365Y-80444588D01*
X144474534Y-80449398D01*
X144450000Y-80449398D01*
X144450000Y-80450000D01*
X143950000Y-80450000D01*
X143950000Y-78950000D01*
G37*
G04 #@! TD.AperFunction*
D12*
X150200000Y-78450000D03*
X149250000Y-78450000D03*
X151150000Y-78450000D03*
X151150000Y-81150000D03*
X150200000Y-81150000D03*
X149250000Y-81150000D03*
D13*
X140530000Y-76870000D03*
X143070000Y-74330000D03*
X143070000Y-76870000D03*
X140530000Y-74330000D03*
X141800000Y-75600000D03*
D14*
X134460000Y-73700000D03*
D15*
X137000000Y-73700000D03*
D16*
X153000000Y-86500000D03*
X149600000Y-86500000D03*
G04 #@! TA.AperFunction,SMDPad,CuDef*
D11*
G36*
X155860779Y-75526144D02*
G01*
X155883834Y-75529563D01*
X155906443Y-75535227D01*
X155928387Y-75543079D01*
X155949457Y-75553044D01*
X155969448Y-75565026D01*
X155988168Y-75578910D01*
X156005438Y-75594562D01*
X156021090Y-75611832D01*
X156034974Y-75630552D01*
X156046956Y-75650543D01*
X156056921Y-75671613D01*
X156064773Y-75693557D01*
X156070437Y-75716166D01*
X156073856Y-75739221D01*
X156075000Y-75762500D01*
X156075000Y-76337500D01*
X156073856Y-76360779D01*
X156070437Y-76383834D01*
X156064773Y-76406443D01*
X156056921Y-76428387D01*
X156046956Y-76449457D01*
X156034974Y-76469448D01*
X156021090Y-76488168D01*
X156005438Y-76505438D01*
X155988168Y-76521090D01*
X155969448Y-76534974D01*
X155949457Y-76546956D01*
X155928387Y-76556921D01*
X155906443Y-76564773D01*
X155883834Y-76570437D01*
X155860779Y-76573856D01*
X155837500Y-76575000D01*
X155362500Y-76575000D01*
X155339221Y-76573856D01*
X155316166Y-76570437D01*
X155293557Y-76564773D01*
X155271613Y-76556921D01*
X155250543Y-76546956D01*
X155230552Y-76534974D01*
X155211832Y-76521090D01*
X155194562Y-76505438D01*
X155178910Y-76488168D01*
X155165026Y-76469448D01*
X155153044Y-76449457D01*
X155143079Y-76428387D01*
X155135227Y-76406443D01*
X155129563Y-76383834D01*
X155126144Y-76360779D01*
X155125000Y-76337500D01*
X155125000Y-75762500D01*
X155126144Y-75739221D01*
X155129563Y-75716166D01*
X155135227Y-75693557D01*
X155143079Y-75671613D01*
X155153044Y-75650543D01*
X155165026Y-75630552D01*
X155178910Y-75611832D01*
X155194562Y-75594562D01*
X155211832Y-75578910D01*
X155230552Y-75565026D01*
X155250543Y-75553044D01*
X155271613Y-75543079D01*
X155293557Y-75535227D01*
X155316166Y-75529563D01*
X155339221Y-75526144D01*
X155362500Y-75525000D01*
X155837500Y-75525000D01*
X155860779Y-75526144D01*
G37*
G04 #@! TD.AperFunction*
G04 #@! TA.AperFunction,SMDPad,CuDef*
G36*
X155860779Y-73776144D02*
G01*
X155883834Y-73779563D01*
X155906443Y-73785227D01*
X155928387Y-73793079D01*
X155949457Y-73803044D01*
X155969448Y-73815026D01*
X155988168Y-73828910D01*
X156005438Y-73844562D01*
X156021090Y-73861832D01*
X156034974Y-73880552D01*
X156046956Y-73900543D01*
X156056921Y-73921613D01*
X156064773Y-73943557D01*
X156070437Y-73966166D01*
X156073856Y-73989221D01*
X156075000Y-74012500D01*
X156075000Y-74587500D01*
X156073856Y-74610779D01*
X156070437Y-74633834D01*
X156064773Y-74656443D01*
X156056921Y-74678387D01*
X156046956Y-74699457D01*
X156034974Y-74719448D01*
X156021090Y-74738168D01*
X156005438Y-74755438D01*
X155988168Y-74771090D01*
X155969448Y-74784974D01*
X155949457Y-74796956D01*
X155928387Y-74806921D01*
X155906443Y-74814773D01*
X155883834Y-74820437D01*
X155860779Y-74823856D01*
X155837500Y-74825000D01*
X155362500Y-74825000D01*
X155339221Y-74823856D01*
X155316166Y-74820437D01*
X155293557Y-74814773D01*
X155271613Y-74806921D01*
X155250543Y-74796956D01*
X155230552Y-74784974D01*
X155211832Y-74771090D01*
X155194562Y-74755438D01*
X155178910Y-74738168D01*
X155165026Y-74719448D01*
X155153044Y-74699457D01*
X155143079Y-74678387D01*
X155135227Y-74656443D01*
X155129563Y-74633834D01*
X155126144Y-74610779D01*
X155125000Y-74587500D01*
X155125000Y-74012500D01*
X155126144Y-73989221D01*
X155129563Y-73966166D01*
X155135227Y-73943557D01*
X155143079Y-73921613D01*
X155153044Y-73900543D01*
X155165026Y-73880552D01*
X155178910Y-73861832D01*
X155194562Y-73844562D01*
X155211832Y-73828910D01*
X155230552Y-73815026D01*
X155250543Y-73803044D01*
X155271613Y-73793079D01*
X155293557Y-73785227D01*
X155316166Y-73779563D01*
X155339221Y-73776144D01*
X155362500Y-73775000D01*
X155837500Y-73775000D01*
X155860779Y-73776144D01*
G37*
G04 #@! TD.AperFunction*
G04 #@! TA.AperFunction,SMDPad,CuDef*
G36*
X147460779Y-75076144D02*
G01*
X147483834Y-75079563D01*
X147506443Y-75085227D01*
X147528387Y-75093079D01*
X147549457Y-75103044D01*
X147569448Y-75115026D01*
X147588168Y-75128910D01*
X147605438Y-75144562D01*
X147621090Y-75161832D01*
X147634974Y-75180552D01*
X147646956Y-75200543D01*
X147656921Y-75221613D01*
X147664773Y-75243557D01*
X147670437Y-75266166D01*
X147673856Y-75289221D01*
X147675000Y-75312500D01*
X147675000Y-75887500D01*
X147673856Y-75910779D01*
X147670437Y-75933834D01*
X147664773Y-75956443D01*
X147656921Y-75978387D01*
X147646956Y-75999457D01*
X147634974Y-76019448D01*
X147621090Y-76038168D01*
X147605438Y-76055438D01*
X147588168Y-76071090D01*
X147569448Y-76084974D01*
X147549457Y-76096956D01*
X147528387Y-76106921D01*
X147506443Y-76114773D01*
X147483834Y-76120437D01*
X147460779Y-76123856D01*
X147437500Y-76125000D01*
X146962500Y-76125000D01*
X146939221Y-76123856D01*
X146916166Y-76120437D01*
X146893557Y-76114773D01*
X146871613Y-76106921D01*
X146850543Y-76096956D01*
X146830552Y-76084974D01*
X146811832Y-76071090D01*
X146794562Y-76055438D01*
X146778910Y-76038168D01*
X146765026Y-76019448D01*
X146753044Y-75999457D01*
X146743079Y-75978387D01*
X146735227Y-75956443D01*
X146729563Y-75933834D01*
X146726144Y-75910779D01*
X146725000Y-75887500D01*
X146725000Y-75312500D01*
X146726144Y-75289221D01*
X146729563Y-75266166D01*
X146735227Y-75243557D01*
X146743079Y-75221613D01*
X146753044Y-75200543D01*
X146765026Y-75180552D01*
X146778910Y-75161832D01*
X146794562Y-75144562D01*
X146811832Y-75128910D01*
X146830552Y-75115026D01*
X146850543Y-75103044D01*
X146871613Y-75093079D01*
X146893557Y-75085227D01*
X146916166Y-75079563D01*
X146939221Y-75076144D01*
X146962500Y-75075000D01*
X147437500Y-75075000D01*
X147460779Y-75076144D01*
G37*
G04 #@! TD.AperFunction*
G04 #@! TA.AperFunction,SMDPad,CuDef*
G36*
X147460779Y-76826144D02*
G01*
X147483834Y-76829563D01*
X147506443Y-76835227D01*
X147528387Y-76843079D01*
X147549457Y-76853044D01*
X147569448Y-76865026D01*
X147588168Y-76878910D01*
X147605438Y-76894562D01*
X147621090Y-76911832D01*
X147634974Y-76930552D01*
X147646956Y-76950543D01*
X147656921Y-76971613D01*
X147664773Y-76993557D01*
X147670437Y-77016166D01*
X147673856Y-77039221D01*
X147675000Y-77062500D01*
X147675000Y-77637500D01*
X147673856Y-77660779D01*
X147670437Y-77683834D01*
X147664773Y-77706443D01*
X147656921Y-77728387D01*
X147646956Y-77749457D01*
X147634974Y-77769448D01*
X147621090Y-77788168D01*
X147605438Y-77805438D01*
X147588168Y-77821090D01*
X147569448Y-77834974D01*
X147549457Y-77846956D01*
X147528387Y-77856921D01*
X147506443Y-77864773D01*
X147483834Y-77870437D01*
X147460779Y-77873856D01*
X147437500Y-77875000D01*
X146962500Y-77875000D01*
X146939221Y-77873856D01*
X146916166Y-77870437D01*
X146893557Y-77864773D01*
X146871613Y-77856921D01*
X146850543Y-77846956D01*
X146830552Y-77834974D01*
X146811832Y-77821090D01*
X146794562Y-77805438D01*
X146778910Y-77788168D01*
X146765026Y-77769448D01*
X146753044Y-77749457D01*
X146743079Y-77728387D01*
X146735227Y-77706443D01*
X146729563Y-77683834D01*
X146726144Y-77660779D01*
X146725000Y-77637500D01*
X146725000Y-77062500D01*
X146726144Y-77039221D01*
X146729563Y-77016166D01*
X146735227Y-76993557D01*
X146743079Y-76971613D01*
X146753044Y-76950543D01*
X146765026Y-76930552D01*
X146778910Y-76911832D01*
X146794562Y-76894562D01*
X146811832Y-76878910D01*
X146830552Y-76865026D01*
X146850543Y-76853044D01*
X146871613Y-76843079D01*
X146893557Y-76835227D01*
X146916166Y-76829563D01*
X146939221Y-76826144D01*
X146962500Y-76825000D01*
X147437500Y-76825000D01*
X147460779Y-76826144D01*
G37*
G04 #@! TD.AperFunction*
D13*
X135570000Y-64830000D03*
X133030000Y-67370000D03*
X133030000Y-64830000D03*
X135570000Y-67370000D03*
X134300000Y-66100000D03*
D17*
X151800000Y-69500000D03*
G04 #@! TA.AperFunction,ComponentPad*
D11*
G36*
X152449505Y-66901204D02*
G01*
X152473773Y-66904804D01*
X152497572Y-66910765D01*
X152520671Y-66919030D01*
X152542850Y-66929520D01*
X152563893Y-66942132D01*
X152583599Y-66956747D01*
X152601777Y-66973223D01*
X152618253Y-66991401D01*
X152632868Y-67011107D01*
X152645480Y-67032150D01*
X152655970Y-67054329D01*
X152664235Y-67077428D01*
X152670196Y-67101227D01*
X152673796Y-67125495D01*
X152675000Y-67149999D01*
X152675000Y-67850001D01*
X152673796Y-67874505D01*
X152670196Y-67898773D01*
X152664235Y-67922572D01*
X152655970Y-67945671D01*
X152645480Y-67967850D01*
X152632868Y-67988893D01*
X152618253Y-68008599D01*
X152601777Y-68026777D01*
X152583599Y-68043253D01*
X152563893Y-68057868D01*
X152542850Y-68070480D01*
X152520671Y-68080970D01*
X152497572Y-68089235D01*
X152473773Y-68095196D01*
X152449505Y-68098796D01*
X152425001Y-68100000D01*
X151174999Y-68100000D01*
X151150495Y-68098796D01*
X151126227Y-68095196D01*
X151102428Y-68089235D01*
X151079329Y-68080970D01*
X151057150Y-68070480D01*
X151036107Y-68057868D01*
X151016401Y-68043253D01*
X150998223Y-68026777D01*
X150981747Y-68008599D01*
X150967132Y-67988893D01*
X150954520Y-67967850D01*
X150944030Y-67945671D01*
X150935765Y-67922572D01*
X150929804Y-67898773D01*
X150926204Y-67874505D01*
X150925000Y-67850001D01*
X150925000Y-67149999D01*
X150926204Y-67125495D01*
X150929804Y-67101227D01*
X150935765Y-67077428D01*
X150944030Y-67054329D01*
X150954520Y-67032150D01*
X150967132Y-67011107D01*
X150981747Y-66991401D01*
X150998223Y-66973223D01*
X151016401Y-66956747D01*
X151036107Y-66942132D01*
X151057150Y-66929520D01*
X151079329Y-66919030D01*
X151102428Y-66910765D01*
X151126227Y-66904804D01*
X151150495Y-66901204D01*
X151174999Y-66900000D01*
X152425001Y-66900000D01*
X152449505Y-66901204D01*
G37*
G04 #@! TD.AperFunction*
D14*
X144100000Y-70040000D03*
D15*
X144100000Y-67500000D03*
D17*
X122900000Y-69900000D03*
G04 #@! TA.AperFunction,ComponentPad*
D11*
G36*
X123549505Y-67301204D02*
G01*
X123573773Y-67304804D01*
X123597572Y-67310765D01*
X123620671Y-67319030D01*
X123642850Y-67329520D01*
X123663893Y-67342132D01*
X123683599Y-67356747D01*
X123701777Y-67373223D01*
X123718253Y-67391401D01*
X123732868Y-67411107D01*
X123745480Y-67432150D01*
X123755970Y-67454329D01*
X123764235Y-67477428D01*
X123770196Y-67501227D01*
X123773796Y-67525495D01*
X123775000Y-67549999D01*
X123775000Y-68250001D01*
X123773796Y-68274505D01*
X123770196Y-68298773D01*
X123764235Y-68322572D01*
X123755970Y-68345671D01*
X123745480Y-68367850D01*
X123732868Y-68388893D01*
X123718253Y-68408599D01*
X123701777Y-68426777D01*
X123683599Y-68443253D01*
X123663893Y-68457868D01*
X123642850Y-68470480D01*
X123620671Y-68480970D01*
X123597572Y-68489235D01*
X123573773Y-68495196D01*
X123549505Y-68498796D01*
X123525001Y-68500000D01*
X122274999Y-68500000D01*
X122250495Y-68498796D01*
X122226227Y-68495196D01*
X122202428Y-68489235D01*
X122179329Y-68480970D01*
X122157150Y-68470480D01*
X122136107Y-68457868D01*
X122116401Y-68443253D01*
X122098223Y-68426777D01*
X122081747Y-68408599D01*
X122067132Y-68388893D01*
X122054520Y-68367850D01*
X122044030Y-68345671D01*
X122035765Y-68322572D01*
X122029804Y-68298773D01*
X122026204Y-68274505D01*
X122025000Y-68250001D01*
X122025000Y-67549999D01*
X122026204Y-67525495D01*
X122029804Y-67501227D01*
X122035765Y-67477428D01*
X122044030Y-67454329D01*
X122054520Y-67432150D01*
X122067132Y-67411107D01*
X122081747Y-67391401D01*
X122098223Y-67373223D01*
X122116401Y-67356747D01*
X122136107Y-67342132D01*
X122157150Y-67329520D01*
X122179329Y-67319030D01*
X122202428Y-67310765D01*
X122226227Y-67304804D01*
X122250495Y-67301204D01*
X122274999Y-67300000D01*
X123525001Y-67300000D01*
X123549505Y-67301204D01*
G37*
G04 #@! TD.AperFunction*
D18*
X118425000Y-76680000D03*
X118425000Y-85320000D03*
X122225000Y-76680000D03*
X122225000Y-85320000D03*
D19*
X122375000Y-78250000D03*
D20*
X122375000Y-79480000D03*
D21*
X122375000Y-80500000D03*
X122375000Y-81500000D03*
D20*
X122375000Y-82520000D03*
D19*
X122375000Y-83750000D03*
D22*
X153250000Y-81100000D03*
X156550000Y-81100000D03*
G04 #@! TA.AperFunction,SMDPad,CuDef*
D11*
G36*
X147374505Y-78626204D02*
G01*
X147398773Y-78629804D01*
X147422572Y-78635765D01*
X147445671Y-78644030D01*
X147467850Y-78654520D01*
X147488893Y-78667132D01*
X147508599Y-78681747D01*
X147526777Y-78698223D01*
X147543253Y-78716401D01*
X147557868Y-78736107D01*
X147570480Y-78757150D01*
X147580970Y-78779329D01*
X147589235Y-78802428D01*
X147595196Y-78826227D01*
X147598796Y-78850495D01*
X147600000Y-78874999D01*
X147600000Y-79525001D01*
X147598796Y-79549505D01*
X147595196Y-79573773D01*
X147589235Y-79597572D01*
X147580970Y-79620671D01*
X147570480Y-79642850D01*
X147557868Y-79663893D01*
X147543253Y-79683599D01*
X147526777Y-79701777D01*
X147508599Y-79718253D01*
X147488893Y-79732868D01*
X147467850Y-79745480D01*
X147445671Y-79755970D01*
X147422572Y-79764235D01*
X147398773Y-79770196D01*
X147374505Y-79773796D01*
X147350001Y-79775000D01*
X146449999Y-79775000D01*
X146425495Y-79773796D01*
X146401227Y-79770196D01*
X146377428Y-79764235D01*
X146354329Y-79755970D01*
X146332150Y-79745480D01*
X146311107Y-79732868D01*
X146291401Y-79718253D01*
X146273223Y-79701777D01*
X146256747Y-79683599D01*
X146242132Y-79663893D01*
X146229520Y-79642850D01*
X146219030Y-79620671D01*
X146210765Y-79597572D01*
X146204804Y-79573773D01*
X146201204Y-79549505D01*
X146200000Y-79525001D01*
X146200000Y-78874999D01*
X146201204Y-78850495D01*
X146204804Y-78826227D01*
X146210765Y-78802428D01*
X146219030Y-78779329D01*
X146229520Y-78757150D01*
X146242132Y-78736107D01*
X146256747Y-78716401D01*
X146273223Y-78698223D01*
X146291401Y-78681747D01*
X146311107Y-78667132D01*
X146332150Y-78654520D01*
X146354329Y-78644030D01*
X146377428Y-78635765D01*
X146401227Y-78629804D01*
X146425495Y-78626204D01*
X146449999Y-78625000D01*
X147350001Y-78625000D01*
X147374505Y-78626204D01*
G37*
G04 #@! TD.AperFunction*
G04 #@! TA.AperFunction,SMDPad,CuDef*
G36*
X147374505Y-80676204D02*
G01*
X147398773Y-80679804D01*
X147422572Y-80685765D01*
X147445671Y-80694030D01*
X147467850Y-80704520D01*
X147488893Y-80717132D01*
X147508599Y-80731747D01*
X147526777Y-80748223D01*
X147543253Y-80766401D01*
X147557868Y-80786107D01*
X147570480Y-80807150D01*
X147580970Y-80829329D01*
X147589235Y-80852428D01*
X147595196Y-80876227D01*
X147598796Y-80900495D01*
X147600000Y-80924999D01*
X147600000Y-81575001D01*
X147598796Y-81599505D01*
X147595196Y-81623773D01*
X147589235Y-81647572D01*
X147580970Y-81670671D01*
X147570480Y-81692850D01*
X147557868Y-81713893D01*
X147543253Y-81733599D01*
X147526777Y-81751777D01*
X147508599Y-81768253D01*
X147488893Y-81782868D01*
X147467850Y-81795480D01*
X147445671Y-81805970D01*
X147422572Y-81814235D01*
X147398773Y-81820196D01*
X147374505Y-81823796D01*
X147350001Y-81825000D01*
X146449999Y-81825000D01*
X146425495Y-81823796D01*
X146401227Y-81820196D01*
X146377428Y-81814235D01*
X146354329Y-81805970D01*
X146332150Y-81795480D01*
X146311107Y-81782868D01*
X146291401Y-81768253D01*
X146273223Y-81751777D01*
X146256747Y-81733599D01*
X146242132Y-81713893D01*
X146229520Y-81692850D01*
X146219030Y-81670671D01*
X146210765Y-81647572D01*
X146204804Y-81623773D01*
X146201204Y-81599505D01*
X146200000Y-81575001D01*
X146200000Y-80924999D01*
X146201204Y-80900495D01*
X146204804Y-80876227D01*
X146210765Y-80852428D01*
X146219030Y-80829329D01*
X146229520Y-80807150D01*
X146242132Y-80786107D01*
X146256747Y-80766401D01*
X146273223Y-80748223D01*
X146291401Y-80731747D01*
X146311107Y-80717132D01*
X146332150Y-80704520D01*
X146354329Y-80694030D01*
X146377428Y-80685765D01*
X146401227Y-80679804D01*
X146425495Y-80676204D01*
X146449999Y-80675000D01*
X147350001Y-80675000D01*
X147374505Y-80676204D01*
G37*
G04 #@! TD.AperFunction*
G04 #@! TA.AperFunction,SMDPad,CuDef*
G36*
X153924505Y-77701204D02*
G01*
X153948773Y-77704804D01*
X153972572Y-77710765D01*
X153995671Y-77719030D01*
X154017850Y-77729520D01*
X154038893Y-77742132D01*
X154058599Y-77756747D01*
X154076777Y-77773223D01*
X154093253Y-77791401D01*
X154107868Y-77811107D01*
X154120480Y-77832150D01*
X154130970Y-77854329D01*
X154139235Y-77877428D01*
X154145196Y-77901227D01*
X154148796Y-77925495D01*
X154150000Y-77949999D01*
X154150000Y-78850001D01*
X154148796Y-78874505D01*
X154145196Y-78898773D01*
X154139235Y-78922572D01*
X154130970Y-78945671D01*
X154120480Y-78967850D01*
X154107868Y-78988893D01*
X154093253Y-79008599D01*
X154076777Y-79026777D01*
X154058599Y-79043253D01*
X154038893Y-79057868D01*
X154017850Y-79070480D01*
X153995671Y-79080970D01*
X153972572Y-79089235D01*
X153948773Y-79095196D01*
X153924505Y-79098796D01*
X153900001Y-79100000D01*
X153249999Y-79100000D01*
X153225495Y-79098796D01*
X153201227Y-79095196D01*
X153177428Y-79089235D01*
X153154329Y-79080970D01*
X153132150Y-79070480D01*
X153111107Y-79057868D01*
X153091401Y-79043253D01*
X153073223Y-79026777D01*
X153056747Y-79008599D01*
X153042132Y-78988893D01*
X153029520Y-78967850D01*
X153019030Y-78945671D01*
X153010765Y-78922572D01*
X153004804Y-78898773D01*
X153001204Y-78874505D01*
X153000000Y-78850001D01*
X153000000Y-77949999D01*
X153001204Y-77925495D01*
X153004804Y-77901227D01*
X153010765Y-77877428D01*
X153019030Y-77854329D01*
X153029520Y-77832150D01*
X153042132Y-77811107D01*
X153056747Y-77791401D01*
X153073223Y-77773223D01*
X153091401Y-77756747D01*
X153111107Y-77742132D01*
X153132150Y-77729520D01*
X153154329Y-77719030D01*
X153177428Y-77710765D01*
X153201227Y-77704804D01*
X153225495Y-77701204D01*
X153249999Y-77700000D01*
X153900001Y-77700000D01*
X153924505Y-77701204D01*
G37*
G04 #@! TD.AperFunction*
G04 #@! TA.AperFunction,SMDPad,CuDef*
G36*
X155974505Y-77701204D02*
G01*
X155998773Y-77704804D01*
X156022572Y-77710765D01*
X156045671Y-77719030D01*
X156067850Y-77729520D01*
X156088893Y-77742132D01*
X156108599Y-77756747D01*
X156126777Y-77773223D01*
X156143253Y-77791401D01*
X156157868Y-77811107D01*
X156170480Y-77832150D01*
X156180970Y-77854329D01*
X156189235Y-77877428D01*
X156195196Y-77901227D01*
X156198796Y-77925495D01*
X156200000Y-77949999D01*
X156200000Y-78850001D01*
X156198796Y-78874505D01*
X156195196Y-78898773D01*
X156189235Y-78922572D01*
X156180970Y-78945671D01*
X156170480Y-78967850D01*
X156157868Y-78988893D01*
X156143253Y-79008599D01*
X156126777Y-79026777D01*
X156108599Y-79043253D01*
X156088893Y-79057868D01*
X156067850Y-79070480D01*
X156045671Y-79080970D01*
X156022572Y-79089235D01*
X155998773Y-79095196D01*
X155974505Y-79098796D01*
X155950001Y-79100000D01*
X155299999Y-79100000D01*
X155275495Y-79098796D01*
X155251227Y-79095196D01*
X155227428Y-79089235D01*
X155204329Y-79080970D01*
X155182150Y-79070480D01*
X155161107Y-79057868D01*
X155141401Y-79043253D01*
X155123223Y-79026777D01*
X155106747Y-79008599D01*
X155092132Y-78988893D01*
X155079520Y-78967850D01*
X155069030Y-78945671D01*
X155060765Y-78922572D01*
X155054804Y-78898773D01*
X155051204Y-78874505D01*
X155050000Y-78850001D01*
X155050000Y-77949999D01*
X155051204Y-77925495D01*
X155054804Y-77901227D01*
X155060765Y-77877428D01*
X155069030Y-77854329D01*
X155079520Y-77832150D01*
X155092132Y-77811107D01*
X155106747Y-77791401D01*
X155123223Y-77773223D01*
X155141401Y-77756747D01*
X155161107Y-77742132D01*
X155182150Y-77729520D01*
X155204329Y-77719030D01*
X155227428Y-77710765D01*
X155251227Y-77704804D01*
X155275495Y-77701204D01*
X155299999Y-77700000D01*
X155950001Y-77700000D01*
X155974505Y-77701204D01*
G37*
G04 #@! TD.AperFunction*
G04 #@! TA.AperFunction,SMDPad,CuDef*
G36*
X151585779Y-75726144D02*
G01*
X151608834Y-75729563D01*
X151631443Y-75735227D01*
X151653387Y-75743079D01*
X151674457Y-75753044D01*
X151694448Y-75765026D01*
X151713168Y-75778910D01*
X151730438Y-75794562D01*
X151746090Y-75811832D01*
X151759974Y-75830552D01*
X151771956Y-75850543D01*
X151781921Y-75871613D01*
X151789773Y-75893557D01*
X151795437Y-75916166D01*
X151798856Y-75939221D01*
X151800000Y-75962500D01*
X151800000Y-76437500D01*
X151798856Y-76460779D01*
X151795437Y-76483834D01*
X151789773Y-76506443D01*
X151781921Y-76528387D01*
X151771956Y-76549457D01*
X151759974Y-76569448D01*
X151746090Y-76588168D01*
X151730438Y-76605438D01*
X151713168Y-76621090D01*
X151694448Y-76634974D01*
X151674457Y-76646956D01*
X151653387Y-76656921D01*
X151631443Y-76664773D01*
X151608834Y-76670437D01*
X151585779Y-76673856D01*
X151562500Y-76675000D01*
X150987500Y-76675000D01*
X150964221Y-76673856D01*
X150941166Y-76670437D01*
X150918557Y-76664773D01*
X150896613Y-76656921D01*
X150875543Y-76646956D01*
X150855552Y-76634974D01*
X150836832Y-76621090D01*
X150819562Y-76605438D01*
X150803910Y-76588168D01*
X150790026Y-76569448D01*
X150778044Y-76549457D01*
X150768079Y-76528387D01*
X150760227Y-76506443D01*
X150754563Y-76483834D01*
X150751144Y-76460779D01*
X150750000Y-76437500D01*
X150750000Y-75962500D01*
X150751144Y-75939221D01*
X150754563Y-75916166D01*
X150760227Y-75893557D01*
X150768079Y-75871613D01*
X150778044Y-75850543D01*
X150790026Y-75830552D01*
X150803910Y-75811832D01*
X150819562Y-75794562D01*
X150836832Y-75778910D01*
X150855552Y-75765026D01*
X150875543Y-75753044D01*
X150896613Y-75743079D01*
X150918557Y-75735227D01*
X150941166Y-75729563D01*
X150964221Y-75726144D01*
X150987500Y-75725000D01*
X151562500Y-75725000D01*
X151585779Y-75726144D01*
G37*
G04 #@! TD.AperFunction*
G04 #@! TA.AperFunction,SMDPad,CuDef*
G36*
X149835779Y-75726144D02*
G01*
X149858834Y-75729563D01*
X149881443Y-75735227D01*
X149903387Y-75743079D01*
X149924457Y-75753044D01*
X149944448Y-75765026D01*
X149963168Y-75778910D01*
X149980438Y-75794562D01*
X149996090Y-75811832D01*
X150009974Y-75830552D01*
X150021956Y-75850543D01*
X150031921Y-75871613D01*
X150039773Y-75893557D01*
X150045437Y-75916166D01*
X150048856Y-75939221D01*
X150050000Y-75962500D01*
X150050000Y-76437500D01*
X150048856Y-76460779D01*
X150045437Y-76483834D01*
X150039773Y-76506443D01*
X150031921Y-76528387D01*
X150021956Y-76549457D01*
X150009974Y-76569448D01*
X149996090Y-76588168D01*
X149980438Y-76605438D01*
X149963168Y-76621090D01*
X149944448Y-76634974D01*
X149924457Y-76646956D01*
X149903387Y-76656921D01*
X149881443Y-76664773D01*
X149858834Y-76670437D01*
X149835779Y-76673856D01*
X149812500Y-76675000D01*
X149237500Y-76675000D01*
X149214221Y-76673856D01*
X149191166Y-76670437D01*
X149168557Y-76664773D01*
X149146613Y-76656921D01*
X149125543Y-76646956D01*
X149105552Y-76634974D01*
X149086832Y-76621090D01*
X149069562Y-76605438D01*
X149053910Y-76588168D01*
X149040026Y-76569448D01*
X149028044Y-76549457D01*
X149018079Y-76528387D01*
X149010227Y-76506443D01*
X149004563Y-76483834D01*
X149001144Y-76460779D01*
X149000000Y-76437500D01*
X149000000Y-75962500D01*
X149001144Y-75939221D01*
X149004563Y-75916166D01*
X149010227Y-75893557D01*
X149018079Y-75871613D01*
X149028044Y-75850543D01*
X149040026Y-75830552D01*
X149053910Y-75811832D01*
X149069562Y-75794562D01*
X149086832Y-75778910D01*
X149105552Y-75765026D01*
X149125543Y-75753044D01*
X149146613Y-75743079D01*
X149168557Y-75735227D01*
X149191166Y-75729563D01*
X149214221Y-75726144D01*
X149237500Y-75725000D01*
X149812500Y-75725000D01*
X149835779Y-75726144D01*
G37*
G04 #@! TD.AperFunction*
D23*
X150200000Y-82700000D03*
D24*
X153575000Y-79100000D02*
X153575000Y-78400000D01*
X152994999Y-79680001D02*
X153575000Y-79100000D01*
X147600000Y-79200000D02*
X148080001Y-79680001D01*
X146900000Y-79200000D02*
X147600000Y-79200000D01*
X151150000Y-79415002D02*
X151200000Y-79465002D01*
X151150000Y-78450000D02*
X151150000Y-79415002D01*
X151200000Y-79700000D02*
X152994999Y-79680001D01*
X151200000Y-79465002D02*
X151200000Y-79700000D01*
X148080001Y-79680001D02*
X151200000Y-79700000D01*
D25*
X151150000Y-76325000D02*
X151275000Y-76200000D01*
X151150000Y-78450000D02*
X151150000Y-76325000D01*
X150200000Y-76350000D02*
X150050000Y-76200000D01*
X150050000Y-76200000D02*
X149525000Y-76200000D01*
X150200000Y-78450000D02*
X150200000Y-76350000D01*
D26*
X156550000Y-79325000D02*
X155625000Y-78400000D01*
X156550000Y-81100000D02*
X156550000Y-79325000D01*
X155625000Y-76075000D02*
X155600000Y-76050000D01*
X155625000Y-78400000D02*
X155625000Y-76075000D01*
X149074999Y-81250000D02*
X149174999Y-81150000D01*
X146900000Y-81250000D02*
X149074999Y-81250000D01*
X146900000Y-81825000D02*
X146900000Y-81250000D01*
X143715000Y-85010000D02*
X146900000Y-81825000D01*
X134900000Y-85010000D02*
X143715000Y-85010000D01*
X143715000Y-85010000D02*
X146890000Y-85010000D01*
X149600000Y-86500000D02*
X149300000Y-86500000D01*
X147810000Y-85010000D02*
X146890000Y-85010000D01*
X149300000Y-86500000D02*
X147810000Y-85010000D01*
X151275001Y-81100000D02*
X151225001Y-81150000D01*
X153250000Y-81100000D02*
X151275001Y-81100000D01*
X153000000Y-81350000D02*
X153250000Y-81100000D01*
X153000000Y-86500000D02*
X153000000Y-81350000D01*
D25*
X147675000Y-77350000D02*
X147200000Y-77350000D01*
X149250000Y-77420000D02*
X149180000Y-77350000D01*
X149180000Y-77350000D02*
X147675000Y-77350000D01*
X149250000Y-78450000D02*
X149250000Y-77420000D01*
X142616399Y-73384999D02*
X144480509Y-73384999D01*
X141800000Y-74201398D02*
X142616399Y-73384999D01*
X141800000Y-75600000D02*
X141800000Y-74201398D01*
D26*
X144949999Y-70889999D02*
X144100000Y-70040000D01*
X144949999Y-75574999D02*
X144949999Y-70889999D01*
X146725000Y-77350000D02*
X144949999Y-75574999D01*
X147200000Y-77350000D02*
X146725000Y-77350000D01*
X151260000Y-70040000D02*
X151800000Y-69500000D01*
X144100000Y-70040000D02*
X151260000Y-70040000D01*
X144450000Y-78952408D02*
X144450000Y-79700000D01*
X146052408Y-77350000D02*
X144450000Y-78952408D01*
X147200000Y-77350000D02*
X146052408Y-77350000D01*
X143440000Y-70700000D02*
X144100000Y-70040000D01*
X141400000Y-70700000D02*
X143440000Y-70700000D01*
D25*
X137100000Y-73700000D02*
X137200000Y-73700000D01*
X150200000Y-81150000D02*
X150200000Y-82700000D01*
D26*
X143825000Y-67525000D02*
X143800000Y-67500000D01*
X152000000Y-67700000D02*
X151800000Y-67500000D01*
X151800000Y-67500000D02*
X144100000Y-67500000D01*
D25*
X142900000Y-67500000D02*
X144100000Y-67500000D01*
D26*
X152675000Y-67500000D02*
X151800000Y-67500000D01*
X155600000Y-70425000D02*
X152675000Y-67500000D01*
X155600000Y-74300000D02*
X155600000Y-70425000D01*
X143950000Y-67350000D02*
X139600000Y-67350000D01*
X144100000Y-67500000D02*
X143950000Y-67350000D01*
D25*
X136600000Y-66100000D02*
X134300000Y-66100000D01*
X137850000Y-67350000D02*
X136600000Y-66100000D01*
X139600000Y-67350000D02*
X137850000Y-67350000D01*
D26*
X139600000Y-70650000D02*
X139650000Y-70700000D01*
X139600000Y-68650000D02*
X139600000Y-70650000D01*
D25*
X143150000Y-78952408D02*
X143150000Y-79700000D01*
D26*
X141325000Y-79700000D02*
X141200000Y-79825000D01*
X143150000Y-79700000D02*
X141325000Y-79700000D01*
X123825010Y-72425010D02*
X123825010Y-78174990D01*
X122900000Y-71500000D02*
X123825010Y-72425010D01*
X123800000Y-78200000D02*
X122375000Y-78250000D01*
X123825010Y-78174990D02*
X123800000Y-78200000D01*
X122900000Y-69900000D02*
X122900000Y-71500000D01*
X126440000Y-78250000D02*
X122375000Y-78250000D01*
X127300000Y-77390000D02*
X126440000Y-78250000D01*
X127300000Y-79390000D02*
X130400000Y-82490000D01*
X127300000Y-77390000D02*
X127300000Y-79390000D01*
X130400000Y-85670002D02*
X130500000Y-85770002D01*
X130400000Y-82490000D02*
X130400000Y-85670002D01*
X130500000Y-85770002D02*
X128770002Y-87500000D01*
X122772792Y-83750011D02*
X122375000Y-83750011D01*
X123825010Y-85295012D02*
X123825010Y-84802229D01*
X123825010Y-84802229D02*
X122772792Y-83750011D01*
X126029998Y-87500000D02*
X123825010Y-85295012D01*
X128770002Y-87500000D02*
X126029998Y-87500000D01*
X122025000Y-67900000D02*
X120624990Y-69300010D01*
X120624990Y-69300010D02*
X120624990Y-79289990D01*
X122900000Y-67900000D02*
X122025000Y-67900000D01*
X120784999Y-79449999D02*
X121902409Y-79449999D01*
X120624990Y-79289990D02*
X120784999Y-79449999D01*
X127300000Y-83010000D02*
X127300000Y-85010000D01*
X126840001Y-82550001D02*
X127300000Y-83010000D01*
X121064999Y-82550001D02*
X126840001Y-82550001D01*
X120624990Y-82109992D02*
X121064999Y-82550001D01*
X120624990Y-79289990D02*
X120624990Y-82109992D01*
D27*
G36*
X159340001Y-89340000D02*
G01*
X154605937Y-89340000D01*
X154625812Y-89274482D01*
X154638072Y-89150000D01*
X154638072Y-83850000D01*
X154625812Y-83725518D01*
X154589502Y-83605820D01*
X154530537Y-83495506D01*
X154451185Y-83398815D01*
X154354494Y-83319463D01*
X154244180Y-83260498D01*
X154135000Y-83227379D01*
X154135000Y-82164468D01*
X154151185Y-82151185D01*
X154230537Y-82054494D01*
X154289502Y-81944180D01*
X154325812Y-81824482D01*
X154338072Y-81700000D01*
X154338072Y-81423060D01*
X154368577Y-81322499D01*
X154390491Y-81100000D01*
X154368577Y-80877501D01*
X154338072Y-80776940D01*
X154338072Y-80500000D01*
X154325812Y-80375518D01*
X154289502Y-80255820D01*
X154230537Y-80145506D01*
X154151185Y-80048815D01*
X154054494Y-79969463D01*
X153944180Y-79910498D01*
X153824482Y-79874188D01*
X153700000Y-79861928D01*
X152800000Y-79861928D01*
X152675518Y-79874188D01*
X152555820Y-79910498D01*
X152453856Y-79965000D01*
X151964088Y-79965000D01*
X151926185Y-79918815D01*
X151829494Y-79839463D01*
X151755665Y-79800000D01*
X151829494Y-79760537D01*
X151926185Y-79681185D01*
X152005537Y-79584494D01*
X152064502Y-79474180D01*
X152100812Y-79354482D01*
X152113072Y-79230000D01*
X152112264Y-79100000D01*
X152361928Y-79100000D01*
X152374188Y-79224482D01*
X152410498Y-79344180D01*
X152469463Y-79454494D01*
X152548815Y-79551185D01*
X152645506Y-79630537D01*
X152755820Y-79689502D01*
X152875518Y-79725812D01*
X153000000Y-79738072D01*
X153289250Y-79735000D01*
X153448000Y-79576250D01*
X153448000Y-78527000D01*
X152523750Y-78527000D01*
X152365000Y-78685750D01*
X152361928Y-79100000D01*
X152112264Y-79100000D01*
X152110000Y-78735750D01*
X151951250Y-78577000D01*
X151277000Y-78577000D01*
X151277000Y-78597000D01*
X151163072Y-78597000D01*
X151163072Y-77670000D01*
X151150812Y-77545518D01*
X151114502Y-77425820D01*
X151055537Y-77315506D01*
X151023176Y-77276074D01*
X151105500Y-77193750D01*
X151277000Y-77193750D01*
X151277000Y-78323000D01*
X151951250Y-78323000D01*
X152110000Y-78164250D01*
X152112885Y-77700000D01*
X152361928Y-77700000D01*
X152365000Y-78114250D01*
X152523750Y-78273000D01*
X153448000Y-78273000D01*
X153448000Y-77223750D01*
X153289250Y-77065000D01*
X153000000Y-77061928D01*
X152875518Y-77074188D01*
X152755820Y-77110498D01*
X152645506Y-77169463D01*
X152548815Y-77248815D01*
X152469463Y-77345506D01*
X152410498Y-77455820D01*
X152374188Y-77575518D01*
X152361928Y-77700000D01*
X152112885Y-77700000D01*
X152113072Y-77670000D01*
X152100812Y-77545518D01*
X152064502Y-77425820D01*
X152005537Y-77315506D01*
X151979725Y-77284054D01*
X152044180Y-77264502D01*
X152154494Y-77205537D01*
X152251185Y-77126185D01*
X152330537Y-77029494D01*
X152389502Y-76919180D01*
X152425812Y-76799482D01*
X152438072Y-76675000D01*
X152435000Y-76485750D01*
X152276250Y-76327000D01*
X151402000Y-76327000D01*
X151402000Y-77068750D01*
X151277000Y-77193750D01*
X151105500Y-77193750D01*
X151148000Y-77151250D01*
X151148000Y-76327000D01*
X151128000Y-76327000D01*
X151128000Y-76073000D01*
X151148000Y-76073000D01*
X151148000Y-75248750D01*
X151402000Y-75248750D01*
X151402000Y-76073000D01*
X152276250Y-76073000D01*
X152435000Y-75914250D01*
X152438072Y-75725000D01*
X152425812Y-75600518D01*
X152389502Y-75480820D01*
X152330537Y-75370506D01*
X152251185Y-75273815D01*
X152154494Y-75194463D01*
X152044180Y-75135498D01*
X151924482Y-75099188D01*
X151800000Y-75086928D01*
X151560750Y-75090000D01*
X151402000Y-75248750D01*
X151148000Y-75248750D01*
X150989250Y-75090000D01*
X150750000Y-75086928D01*
X150625518Y-75099188D01*
X150505820Y-75135498D01*
X150395506Y-75194463D01*
X150322839Y-75254099D01*
X150298942Y-75234488D01*
X150147567Y-75153577D01*
X149983316Y-75103752D01*
X149812500Y-75086928D01*
X149237500Y-75086928D01*
X149066684Y-75103752D01*
X148902433Y-75153577D01*
X148751058Y-75234488D01*
X148618377Y-75343377D01*
X148509488Y-75476058D01*
X148428577Y-75627433D01*
X148378752Y-75791684D01*
X148361928Y-75962500D01*
X148361928Y-76437500D01*
X148376948Y-76590000D01*
X148172964Y-76590000D01*
X148165512Y-76576058D01*
X148145901Y-76552161D01*
X148205537Y-76479494D01*
X148264502Y-76369180D01*
X148300812Y-76249482D01*
X148313072Y-76125000D01*
X148310000Y-75885750D01*
X148151250Y-75727000D01*
X147327000Y-75727000D01*
X147327000Y-75747000D01*
X147073000Y-75747000D01*
X147073000Y-75727000D01*
X147053000Y-75727000D01*
X147053000Y-75473000D01*
X147073000Y-75473000D01*
X147073000Y-74598750D01*
X147327000Y-74598750D01*
X147327000Y-75473000D01*
X148151250Y-75473000D01*
X148310000Y-75314250D01*
X148313072Y-75075000D01*
X148300812Y-74950518D01*
X148264502Y-74830820D01*
X148205537Y-74720506D01*
X148126185Y-74623815D01*
X148029494Y-74544463D01*
X147919180Y-74485498D01*
X147799482Y-74449188D01*
X147675000Y-74436928D01*
X147485750Y-74440000D01*
X147327000Y-74598750D01*
X147073000Y-74598750D01*
X146914250Y-74440000D01*
X146725000Y-74436928D01*
X146600518Y-74449188D01*
X146480820Y-74485498D01*
X146370506Y-74544463D01*
X146273815Y-74623815D01*
X146194463Y-74720506D01*
X146135498Y-74830820D01*
X146099188Y-74950518D01*
X146086928Y-75075000D01*
X146087342Y-75107210D01*
X146084999Y-75104868D01*
X146084999Y-71175000D01*
X151204249Y-71175000D01*
X151260000Y-71180491D01*
X151315751Y-71175000D01*
X151315752Y-71175000D01*
X151482499Y-71158577D01*
X151696447Y-71093676D01*
X151893623Y-70988284D01*
X152066449Y-70846449D01*
X152101996Y-70803135D01*
X152173896Y-70731235D01*
X152317102Y-70717130D01*
X152549901Y-70646511D01*
X152764449Y-70531833D01*
X152952502Y-70377502D01*
X153106833Y-70189449D01*
X153221511Y-69974901D01*
X153292130Y-69742102D01*
X153293909Y-69724041D01*
X154465001Y-70895134D01*
X154465000Y-74355751D01*
X154481423Y-74522498D01*
X154486928Y-74540645D01*
X154486928Y-74587500D01*
X154503752Y-74758316D01*
X154553577Y-74922567D01*
X154634488Y-75073942D01*
X154717425Y-75175000D01*
X154634488Y-75276058D01*
X154553577Y-75427433D01*
X154503752Y-75591684D01*
X154486928Y-75762500D01*
X154486928Y-75809355D01*
X154481423Y-75827502D01*
X154459509Y-76050000D01*
X154481423Y-76272498D01*
X154486928Y-76290645D01*
X154486928Y-76337500D01*
X154490001Y-76368699D01*
X154490001Y-77161716D01*
X154394180Y-77110498D01*
X154274482Y-77074188D01*
X154150000Y-77061928D01*
X153860750Y-77065000D01*
X153702000Y-77223750D01*
X153702000Y-78273000D01*
X153722000Y-78273000D01*
X153722000Y-78527000D01*
X153702000Y-78527000D01*
X153702000Y-79576250D01*
X153860750Y-79735000D01*
X154150000Y-79738072D01*
X154274482Y-79725812D01*
X154394180Y-79689502D01*
X154504494Y-79630537D01*
X154601185Y-79551185D01*
X154666658Y-79471406D01*
X154672038Y-79477962D01*
X154806613Y-79588405D01*
X154960149Y-79670472D01*
X155126745Y-79721008D01*
X155299999Y-79738072D01*
X155357940Y-79738072D01*
X155415000Y-79795132D01*
X155415000Y-81155751D01*
X155431423Y-81322498D01*
X155461928Y-81423059D01*
X155461928Y-81700000D01*
X155474188Y-81824482D01*
X155510498Y-81944180D01*
X155569463Y-82054494D01*
X155648815Y-82151185D01*
X155745506Y-82230537D01*
X155855820Y-82289502D01*
X155975518Y-82325812D01*
X156100000Y-82338072D01*
X157000000Y-82338072D01*
X157124482Y-82325812D01*
X157244180Y-82289502D01*
X157354494Y-82230537D01*
X157451185Y-82151185D01*
X157530537Y-82054494D01*
X157589502Y-81944180D01*
X157625812Y-81824482D01*
X157638072Y-81700000D01*
X157638072Y-81423060D01*
X157668577Y-81322499D01*
X157685000Y-81155752D01*
X157685000Y-79380752D01*
X157690491Y-79325000D01*
X157668577Y-79102501D01*
X157603676Y-78888553D01*
X157498284Y-78691377D01*
X157391989Y-78561856D01*
X157391987Y-78561854D01*
X157356449Y-78518551D01*
X157313145Y-78483013D01*
X156838072Y-78007940D01*
X156838072Y-77949999D01*
X156821008Y-77776745D01*
X156770472Y-77610149D01*
X156760000Y-77590557D01*
X156760000Y-76130741D01*
X156765490Y-76074999D01*
X156760000Y-76019258D01*
X156760000Y-76019248D01*
X156743577Y-75852501D01*
X156711532Y-75746864D01*
X156696248Y-75591684D01*
X156646423Y-75427433D01*
X156565512Y-75276058D01*
X156482575Y-75175000D01*
X156565512Y-75073942D01*
X156646423Y-74922567D01*
X156696248Y-74758316D01*
X156713072Y-74587500D01*
X156713072Y-74540646D01*
X156718577Y-74522499D01*
X156735000Y-74355752D01*
X156735000Y-70480752D01*
X156740491Y-70425000D01*
X156718577Y-70202501D01*
X156653676Y-69988553D01*
X156548284Y-69791377D01*
X156441989Y-69661856D01*
X156441987Y-69661854D01*
X156406449Y-69618551D01*
X156363146Y-69583013D01*
X153516996Y-66736865D01*
X153481449Y-66693551D01*
X153308623Y-66551716D01*
X153111447Y-66446324D01*
X152897499Y-66381423D01*
X152853907Y-66377130D01*
X152764851Y-66329528D01*
X152598255Y-66278992D01*
X152425001Y-66261928D01*
X151174999Y-66261928D01*
X151001745Y-66278992D01*
X150835149Y-66329528D01*
X150768786Y-66365000D01*
X145517683Y-66365000D01*
X145480537Y-66295506D01*
X145401185Y-66198815D01*
X145304494Y-66119463D01*
X145194180Y-66060498D01*
X145074482Y-66024188D01*
X144950000Y-66011928D01*
X143250000Y-66011928D01*
X143125518Y-66024188D01*
X143005820Y-66060498D01*
X142895506Y-66119463D01*
X142798815Y-66198815D01*
X142785532Y-66215000D01*
X139905751Y-66215000D01*
X139899009Y-66214336D01*
X139874450Y-66214336D01*
X139850000Y-66211928D01*
X139350000Y-66211928D01*
X139325550Y-66214336D01*
X139300991Y-66214336D01*
X139176510Y-66226596D01*
X139080377Y-66245718D01*
X138960681Y-66282027D01*
X138870125Y-66319536D01*
X138759808Y-66378502D01*
X138678309Y-66432958D01*
X138581618Y-66512310D01*
X138512310Y-66581618D01*
X138505431Y-66590000D01*
X138164802Y-66590000D01*
X137163804Y-65589003D01*
X137140001Y-65559999D01*
X137024276Y-65465026D01*
X136892247Y-65394454D01*
X136748986Y-65350997D01*
X136713355Y-65347488D01*
X136762582Y-65239942D01*
X136819642Y-64999404D01*
X136828680Y-64752355D01*
X136789347Y-64508291D01*
X136703156Y-64276590D01*
X136659691Y-64195274D01*
X136434072Y-64145533D01*
X135749605Y-64830000D01*
X135763748Y-64844143D01*
X135584143Y-65023748D01*
X135570000Y-65009605D01*
X135555858Y-65023748D01*
X135376253Y-64844143D01*
X135390395Y-64830000D01*
X134705928Y-64145533D01*
X134480309Y-64195274D01*
X134377418Y-64420058D01*
X134320358Y-64660596D01*
X134313612Y-64845000D01*
X134285291Y-64845000D01*
X134288680Y-64752355D01*
X134249347Y-64508291D01*
X134163156Y-64276590D01*
X134119691Y-64195274D01*
X133894072Y-64145533D01*
X133209605Y-64830000D01*
X133223748Y-64844143D01*
X133044143Y-65023748D01*
X133030000Y-65009605D01*
X132345533Y-65694072D01*
X132395274Y-65919691D01*
X132620058Y-66022582D01*
X132860596Y-66079642D01*
X133045000Y-66086388D01*
X133045000Y-66114709D01*
X132952355Y-66111320D01*
X132708291Y-66150653D01*
X132476590Y-66236844D01*
X132395274Y-66280309D01*
X132345533Y-66505928D01*
X133030000Y-67190395D01*
X133044143Y-67176253D01*
X133223748Y-67355858D01*
X133209605Y-67370000D01*
X133894072Y-68054467D01*
X134119691Y-68004726D01*
X134222582Y-67779942D01*
X134279642Y-67539404D01*
X134286388Y-67355000D01*
X134314709Y-67355000D01*
X134311320Y-67447645D01*
X134350653Y-67691709D01*
X134436844Y-67923410D01*
X134480309Y-68004726D01*
X134705928Y-68054467D01*
X135390395Y-67370000D01*
X135376253Y-67355858D01*
X135555858Y-67176253D01*
X135570000Y-67190395D01*
X135584143Y-67176253D01*
X135763748Y-67355858D01*
X135749605Y-67370000D01*
X136434072Y-68054467D01*
X136659691Y-68004726D01*
X136762582Y-67779942D01*
X136819642Y-67539404D01*
X136824758Y-67399560D01*
X137286201Y-67861003D01*
X137309999Y-67890001D01*
X137338997Y-67913799D01*
X137425723Y-67984974D01*
X137501575Y-68025518D01*
X137557753Y-68055546D01*
X137701014Y-68099003D01*
X137812667Y-68110000D01*
X137812677Y-68110000D01*
X137850000Y-68113676D01*
X137887323Y-68110000D01*
X138215868Y-68110000D01*
X138211928Y-68150000D01*
X138211928Y-68650000D01*
X138214336Y-68674450D01*
X138214336Y-68699009D01*
X138226596Y-68823490D01*
X138245718Y-68919623D01*
X138282027Y-69039319D01*
X138319536Y-69129875D01*
X138378502Y-69240192D01*
X138432958Y-69321691D01*
X138465000Y-69360735D01*
X138465001Y-70594239D01*
X138459509Y-70650000D01*
X138481423Y-70872498D01*
X138486928Y-70890645D01*
X138486928Y-70937500D01*
X138503752Y-71108316D01*
X138553577Y-71272567D01*
X138634488Y-71423942D01*
X138743377Y-71556623D01*
X138876058Y-71665512D01*
X139027433Y-71746423D01*
X139191684Y-71796248D01*
X139362500Y-71813072D01*
X139409355Y-71813072D01*
X139427502Y-71818577D01*
X139650000Y-71840491D01*
X139872499Y-71818577D01*
X139890646Y-71813072D01*
X139937500Y-71813072D01*
X140108316Y-71796248D01*
X140272567Y-71746423D01*
X140423942Y-71665512D01*
X140525000Y-71582575D01*
X140626058Y-71665512D01*
X140777433Y-71746423D01*
X140941684Y-71796248D01*
X141112500Y-71813072D01*
X141159354Y-71813072D01*
X141177501Y-71818577D01*
X141344248Y-71835000D01*
X143384249Y-71835000D01*
X143440000Y-71840491D01*
X143495751Y-71835000D01*
X143495752Y-71835000D01*
X143662499Y-71818577D01*
X143815000Y-71772316D01*
X143815000Y-72624999D01*
X142653732Y-72624999D01*
X142616399Y-72621322D01*
X142579066Y-72624999D01*
X142467413Y-72635996D01*
X142324152Y-72679453D01*
X142192123Y-72750025D01*
X142076398Y-72844998D01*
X142052600Y-72873997D01*
X141288998Y-73637599D01*
X141260000Y-73661397D01*
X141236202Y-73690395D01*
X141236201Y-73690396D01*
X141165026Y-73777122D01*
X141094454Y-73909152D01*
X141078780Y-73960825D01*
X140709605Y-74330000D01*
X140723748Y-74344143D01*
X140544143Y-74523748D01*
X140530000Y-74509605D01*
X139845533Y-75194072D01*
X139895274Y-75419691D01*
X140120058Y-75522582D01*
X140360596Y-75579642D01*
X140545000Y-75586388D01*
X140545000Y-75614709D01*
X140452355Y-75611320D01*
X140208291Y-75650653D01*
X139976590Y-75736844D01*
X139895274Y-75780309D01*
X139845533Y-76005928D01*
X140530000Y-76690395D01*
X140544143Y-76676253D01*
X140723748Y-76855858D01*
X140709605Y-76870000D01*
X141394072Y-77554467D01*
X141619691Y-77504726D01*
X141722582Y-77279942D01*
X141779642Y-77039404D01*
X141786388Y-76855000D01*
X141814709Y-76855000D01*
X141811320Y-76947645D01*
X141850653Y-77191709D01*
X141936844Y-77423410D01*
X141980309Y-77504726D01*
X142205928Y-77554467D01*
X142890395Y-76870000D01*
X142876253Y-76855858D01*
X143055858Y-76676253D01*
X143070000Y-76690395D01*
X143084143Y-76676253D01*
X143263748Y-76855858D01*
X143249605Y-76870000D01*
X143934072Y-77554467D01*
X144159691Y-77504726D01*
X144262582Y-77279942D01*
X144319642Y-77039404D01*
X144328680Y-76792355D01*
X144289347Y-76548291D01*
X144272280Y-76502411D01*
X144783572Y-77013704D01*
X143686865Y-78110412D01*
X143643551Y-78145959D01*
X143524611Y-78290888D01*
X143442246Y-78246862D01*
X143298985Y-78203405D01*
X143150000Y-78188731D01*
X143001014Y-78203405D01*
X142857753Y-78246862D01*
X142725724Y-78317434D01*
X142609999Y-78412407D01*
X142550838Y-78484496D01*
X142478309Y-78532958D01*
X142439266Y-78565000D01*
X141380752Y-78565000D01*
X141325000Y-78559509D01*
X141269249Y-78565000D01*
X141269248Y-78565000D01*
X141102501Y-78581423D01*
X140888553Y-78646324D01*
X140836061Y-78674381D01*
X140791684Y-78678752D01*
X140627433Y-78728577D01*
X140476058Y-78809488D01*
X140343377Y-78918377D01*
X140234488Y-79051058D01*
X140153577Y-79202433D01*
X140103752Y-79366684D01*
X140086928Y-79537500D01*
X140086928Y-79584355D01*
X140081423Y-79602502D01*
X140059509Y-79825000D01*
X140081423Y-80047498D01*
X140086928Y-80065645D01*
X140086928Y-80112500D01*
X140103752Y-80283316D01*
X140153577Y-80447567D01*
X140234488Y-80598942D01*
X140254099Y-80622839D01*
X140194463Y-80695506D01*
X140135498Y-80805820D01*
X140099188Y-80925518D01*
X140086928Y-81050000D01*
X140090000Y-81289250D01*
X140248750Y-81448000D01*
X141073000Y-81448000D01*
X141073000Y-81428000D01*
X141327000Y-81428000D01*
X141327000Y-81448000D01*
X142151250Y-81448000D01*
X142310000Y-81289250D01*
X142313072Y-81050000D01*
X142300812Y-80925518D01*
X142273354Y-80835000D01*
X142439266Y-80835000D01*
X142478309Y-80867042D01*
X142559808Y-80921498D01*
X142670125Y-80980464D01*
X142760681Y-81017973D01*
X142880377Y-81054282D01*
X142976510Y-81073404D01*
X143100991Y-81085664D01*
X143125550Y-81085664D01*
X143150000Y-81088072D01*
X143650000Y-81088072D01*
X143774482Y-81075812D01*
X143800000Y-81068071D01*
X143825518Y-81075812D01*
X143950000Y-81088072D01*
X144450000Y-81088072D01*
X144474450Y-81085664D01*
X144499009Y-81085664D01*
X144623490Y-81073404D01*
X144719623Y-81054282D01*
X144839319Y-81017973D01*
X144929875Y-80980464D01*
X145040192Y-80921498D01*
X145121691Y-80867042D01*
X145218382Y-80787690D01*
X145287690Y-80718382D01*
X145367042Y-80621691D01*
X145421498Y-80540192D01*
X145480464Y-80429875D01*
X145517973Y-80339319D01*
X145554282Y-80219623D01*
X145573404Y-80123490D01*
X145585664Y-79999009D01*
X145585664Y-79974450D01*
X145588072Y-79950000D01*
X145588072Y-79945251D01*
X145610498Y-80019180D01*
X145669463Y-80129494D01*
X145748815Y-80226185D01*
X145828594Y-80291658D01*
X145822038Y-80297038D01*
X145711595Y-80431613D01*
X145629528Y-80585149D01*
X145578992Y-80751745D01*
X145561928Y-80924999D01*
X145561928Y-81557940D01*
X143244869Y-83875000D01*
X137022621Y-83875000D01*
X136989502Y-83765820D01*
X136930537Y-83655506D01*
X136851185Y-83558815D01*
X136754494Y-83479463D01*
X136644180Y-83420498D01*
X136524482Y-83384188D01*
X136400000Y-83371928D01*
X133400000Y-83371928D01*
X133275518Y-83384188D01*
X133155820Y-83420498D01*
X133045506Y-83479463D01*
X132948815Y-83558815D01*
X132869463Y-83655506D01*
X132810498Y-83765820D01*
X132774188Y-83885518D01*
X132761928Y-84010000D01*
X132761928Y-86010000D01*
X132774188Y-86134482D01*
X132810498Y-86254180D01*
X132869463Y-86364494D01*
X132948815Y-86461185D01*
X133045506Y-86540537D01*
X133155820Y-86599502D01*
X133275518Y-86635812D01*
X133400000Y-86648072D01*
X136400000Y-86648072D01*
X136524482Y-86635812D01*
X136644180Y-86599502D01*
X136754494Y-86540537D01*
X136851185Y-86461185D01*
X136930537Y-86364494D01*
X136989502Y-86254180D01*
X137022621Y-86145000D01*
X143659249Y-86145000D01*
X143715000Y-86150491D01*
X143770751Y-86145000D01*
X147339869Y-86145000D01*
X147961928Y-86767060D01*
X147961928Y-89150000D01*
X147974188Y-89274482D01*
X147994063Y-89340000D01*
X129834142Y-89340000D01*
X129837394Y-88037740D01*
X131263156Y-86611979D01*
X131306448Y-86576450D01*
X131341977Y-86533158D01*
X131341989Y-86533146D01*
X131448284Y-86403625D01*
X131553676Y-86206449D01*
X131618577Y-85992501D01*
X131640491Y-85770002D01*
X131618577Y-85547503D01*
X131553676Y-85333555D01*
X131535000Y-85298614D01*
X131535000Y-82545751D01*
X131540491Y-82489999D01*
X131518577Y-82267501D01*
X131467766Y-82100000D01*
X140086928Y-82100000D01*
X140099188Y-82224482D01*
X140135498Y-82344180D01*
X140194463Y-82454494D01*
X140273815Y-82551185D01*
X140370506Y-82630537D01*
X140480820Y-82689502D01*
X140600518Y-82725812D01*
X140725000Y-82738072D01*
X140914250Y-82735000D01*
X141073000Y-82576250D01*
X141073000Y-81702000D01*
X141327000Y-81702000D01*
X141327000Y-82576250D01*
X141485750Y-82735000D01*
X141675000Y-82738072D01*
X141799482Y-82725812D01*
X141919180Y-82689502D01*
X142029494Y-82630537D01*
X142126185Y-82551185D01*
X142205537Y-82454494D01*
X142264502Y-82344180D01*
X142300812Y-82224482D01*
X142313072Y-82100000D01*
X142310000Y-81860750D01*
X142151250Y-81702000D01*
X141327000Y-81702000D01*
X141073000Y-81702000D01*
X140248750Y-81702000D01*
X140090000Y-81860750D01*
X140086928Y-82100000D01*
X131467766Y-82100000D01*
X131453676Y-82053553D01*
X131416297Y-81983622D01*
X131348284Y-81856377D01*
X131206449Y-81683551D01*
X131163141Y-81648009D01*
X129856610Y-80341479D01*
X129861482Y-78390000D01*
X132761928Y-78390000D01*
X132774188Y-78514482D01*
X132810498Y-78634180D01*
X132869463Y-78744494D01*
X132948815Y-78841185D01*
X133045506Y-78920537D01*
X133155820Y-78979502D01*
X133275518Y-79015812D01*
X133400000Y-79028072D01*
X134614250Y-79025000D01*
X134773000Y-78866250D01*
X134773000Y-77517000D01*
X135027000Y-77517000D01*
X135027000Y-78866250D01*
X135185750Y-79025000D01*
X136400000Y-79028072D01*
X136524482Y-79015812D01*
X136644180Y-78979502D01*
X136754494Y-78920537D01*
X136851185Y-78841185D01*
X136930537Y-78744494D01*
X136989502Y-78634180D01*
X137025812Y-78514482D01*
X137038072Y-78390000D01*
X137035251Y-77734072D01*
X139845533Y-77734072D01*
X139895274Y-77959691D01*
X140120058Y-78062582D01*
X140360596Y-78119642D01*
X140607645Y-78128680D01*
X140851709Y-78089347D01*
X141083410Y-78003156D01*
X141164726Y-77959691D01*
X141214467Y-77734072D01*
X142385533Y-77734072D01*
X142435274Y-77959691D01*
X142660058Y-78062582D01*
X142900596Y-78119642D01*
X143147645Y-78128680D01*
X143391709Y-78089347D01*
X143623410Y-78003156D01*
X143704726Y-77959691D01*
X143754467Y-77734072D01*
X143070000Y-77049605D01*
X142385533Y-77734072D01*
X141214467Y-77734072D01*
X140530000Y-77049605D01*
X139845533Y-77734072D01*
X137035251Y-77734072D01*
X137035000Y-77675750D01*
X136876250Y-77517000D01*
X135027000Y-77517000D01*
X134773000Y-77517000D01*
X132923750Y-77517000D01*
X132765000Y-77675750D01*
X132761928Y-78390000D01*
X129861482Y-78390000D01*
X129866475Y-76390000D01*
X132761928Y-76390000D01*
X132765000Y-77104250D01*
X132923750Y-77263000D01*
X134773000Y-77263000D01*
X134773000Y-75913750D01*
X135027000Y-75913750D01*
X135027000Y-77263000D01*
X136876250Y-77263000D01*
X137035000Y-77104250D01*
X137035673Y-76947645D01*
X139271320Y-76947645D01*
X139310653Y-77191709D01*
X139396844Y-77423410D01*
X139440309Y-77504726D01*
X139665928Y-77554467D01*
X140350395Y-76870000D01*
X139665928Y-76185533D01*
X139440309Y-76235274D01*
X139337418Y-76460058D01*
X139280358Y-76700596D01*
X139271320Y-76947645D01*
X137035673Y-76947645D01*
X137038072Y-76390000D01*
X137025812Y-76265518D01*
X136989502Y-76145820D01*
X136930537Y-76035506D01*
X136851185Y-75938815D01*
X136754494Y-75859463D01*
X136644180Y-75800498D01*
X136524482Y-75764188D01*
X136400000Y-75751928D01*
X135185750Y-75755000D01*
X135027000Y-75913750D01*
X134773000Y-75913750D01*
X134614250Y-75755000D01*
X133400000Y-75751928D01*
X133275518Y-75764188D01*
X133155820Y-75800498D01*
X133045506Y-75859463D01*
X132948815Y-75938815D01*
X132869463Y-76035506D01*
X132810498Y-76145820D01*
X132774188Y-76265518D01*
X132761928Y-76390000D01*
X129866475Y-76390000D01*
X129872300Y-74056891D01*
X133018519Y-74056891D01*
X133115843Y-74331252D01*
X133264822Y-74581355D01*
X133459731Y-74797588D01*
X133693080Y-74971641D01*
X133955901Y-75096825D01*
X134103110Y-75141476D01*
X134333000Y-75020155D01*
X134333000Y-73827000D01*
X133139186Y-73827000D01*
X133018519Y-74056891D01*
X129872300Y-74056891D01*
X129874082Y-73343109D01*
X133018519Y-73343109D01*
X133139186Y-73573000D01*
X134333000Y-73573000D01*
X134333000Y-72379845D01*
X134587000Y-72379845D01*
X134587000Y-73573000D01*
X134607000Y-73573000D01*
X134607000Y-73827000D01*
X134587000Y-73827000D01*
X134587000Y-75020155D01*
X134816890Y-75141476D01*
X134964099Y-75096825D01*
X135226920Y-74971641D01*
X135460269Y-74797588D01*
X135536034Y-74713534D01*
X135560498Y-74794180D01*
X135619463Y-74904494D01*
X135698815Y-75001185D01*
X135795506Y-75080537D01*
X135905820Y-75139502D01*
X136025518Y-75175812D01*
X136150000Y-75188072D01*
X137850000Y-75188072D01*
X137974482Y-75175812D01*
X138094180Y-75139502D01*
X138204494Y-75080537D01*
X138301185Y-75001185D01*
X138380537Y-74904494D01*
X138439502Y-74794180D01*
X138475812Y-74674482D01*
X138488072Y-74550000D01*
X138488072Y-74407645D01*
X139271320Y-74407645D01*
X139310653Y-74651709D01*
X139396844Y-74883410D01*
X139440309Y-74964726D01*
X139665928Y-75014467D01*
X140350395Y-74330000D01*
X139665928Y-73645533D01*
X139440309Y-73695274D01*
X139337418Y-73920058D01*
X139280358Y-74160596D01*
X139271320Y-74407645D01*
X138488072Y-74407645D01*
X138488072Y-73465928D01*
X139845533Y-73465928D01*
X140530000Y-74150395D01*
X141214467Y-73465928D01*
X141164726Y-73240309D01*
X140939942Y-73137418D01*
X140699404Y-73080358D01*
X140452355Y-73071320D01*
X140208291Y-73110653D01*
X139976590Y-73196844D01*
X139895274Y-73240309D01*
X139845533Y-73465928D01*
X138488072Y-73465928D01*
X138488072Y-72850000D01*
X138475812Y-72725518D01*
X138439502Y-72605820D01*
X138380537Y-72495506D01*
X138301185Y-72398815D01*
X138204494Y-72319463D01*
X138094180Y-72260498D01*
X137974482Y-72224188D01*
X137850000Y-72211928D01*
X136150000Y-72211928D01*
X136025518Y-72224188D01*
X135905820Y-72260498D01*
X135795506Y-72319463D01*
X135698815Y-72398815D01*
X135619463Y-72495506D01*
X135560498Y-72605820D01*
X135536034Y-72686466D01*
X135460269Y-72602412D01*
X135226920Y-72428359D01*
X134964099Y-72303175D01*
X134816890Y-72258524D01*
X134587000Y-72379845D01*
X134333000Y-72379845D01*
X134103110Y-72258524D01*
X133955901Y-72303175D01*
X133693080Y-72428359D01*
X133459731Y-72602412D01*
X133264822Y-72818645D01*
X133115843Y-73068748D01*
X133018519Y-73343109D01*
X129874082Y-73343109D01*
X129886840Y-68234072D01*
X132345533Y-68234072D01*
X132395274Y-68459691D01*
X132620058Y-68562582D01*
X132860596Y-68619642D01*
X133107645Y-68628680D01*
X133351709Y-68589347D01*
X133583410Y-68503156D01*
X133664726Y-68459691D01*
X133714467Y-68234072D01*
X134885533Y-68234072D01*
X134935274Y-68459691D01*
X135160058Y-68562582D01*
X135400596Y-68619642D01*
X135647645Y-68628680D01*
X135891709Y-68589347D01*
X136123410Y-68503156D01*
X136204726Y-68459691D01*
X136254467Y-68234072D01*
X135570000Y-67549605D01*
X134885533Y-68234072D01*
X133714467Y-68234072D01*
X133030000Y-67549605D01*
X132345533Y-68234072D01*
X129886840Y-68234072D01*
X129888804Y-67447645D01*
X131771320Y-67447645D01*
X131810653Y-67691709D01*
X131896844Y-67923410D01*
X131940309Y-68004726D01*
X132165928Y-68054467D01*
X132850395Y-67370000D01*
X132165928Y-66685533D01*
X131940309Y-66735274D01*
X131837418Y-66960058D01*
X131780358Y-67200596D01*
X131771320Y-67447645D01*
X129888804Y-67447645D01*
X129895146Y-64907645D01*
X131771320Y-64907645D01*
X131810653Y-65151709D01*
X131896844Y-65383410D01*
X131940309Y-65464726D01*
X132165928Y-65514467D01*
X132850395Y-64830000D01*
X132165928Y-64145533D01*
X131940309Y-64195274D01*
X131837418Y-64420058D01*
X131780358Y-64660596D01*
X131771320Y-64907645D01*
X129895146Y-64907645D01*
X129897497Y-63965928D01*
X132345533Y-63965928D01*
X133030000Y-64650395D01*
X133714467Y-63965928D01*
X134885533Y-63965928D01*
X135570000Y-64650395D01*
X136254467Y-63965928D01*
X136204726Y-63740309D01*
X135979942Y-63637418D01*
X135739404Y-63580358D01*
X135492355Y-63571320D01*
X135248291Y-63610653D01*
X135016590Y-63696844D01*
X134935274Y-63740309D01*
X134885533Y-63965928D01*
X133714467Y-63965928D01*
X133664726Y-63740309D01*
X133439942Y-63637418D01*
X133199404Y-63580358D01*
X132952355Y-63571320D01*
X132708291Y-63610653D01*
X132476590Y-63696844D01*
X132395274Y-63740309D01*
X132345533Y-63965928D01*
X129897497Y-63965928D01*
X129918237Y-55660000D01*
X159340000Y-55660000D01*
X159340001Y-89340000D01*
G37*
X159340001Y-89340000D02*
X154605937Y-89340000D01*
X154625812Y-89274482D01*
X154638072Y-89150000D01*
X154638072Y-83850000D01*
X154625812Y-83725518D01*
X154589502Y-83605820D01*
X154530537Y-83495506D01*
X154451185Y-83398815D01*
X154354494Y-83319463D01*
X154244180Y-83260498D01*
X154135000Y-83227379D01*
X154135000Y-82164468D01*
X154151185Y-82151185D01*
X154230537Y-82054494D01*
X154289502Y-81944180D01*
X154325812Y-81824482D01*
X154338072Y-81700000D01*
X154338072Y-81423060D01*
X154368577Y-81322499D01*
X154390491Y-81100000D01*
X154368577Y-80877501D01*
X154338072Y-80776940D01*
X154338072Y-80500000D01*
X154325812Y-80375518D01*
X154289502Y-80255820D01*
X154230537Y-80145506D01*
X154151185Y-80048815D01*
X154054494Y-79969463D01*
X153944180Y-79910498D01*
X153824482Y-79874188D01*
X153700000Y-79861928D01*
X152800000Y-79861928D01*
X152675518Y-79874188D01*
X152555820Y-79910498D01*
X152453856Y-79965000D01*
X151964088Y-79965000D01*
X151926185Y-79918815D01*
X151829494Y-79839463D01*
X151755665Y-79800000D01*
X151829494Y-79760537D01*
X151926185Y-79681185D01*
X152005537Y-79584494D01*
X152064502Y-79474180D01*
X152100812Y-79354482D01*
X152113072Y-79230000D01*
X152112264Y-79100000D01*
X152361928Y-79100000D01*
X152374188Y-79224482D01*
X152410498Y-79344180D01*
X152469463Y-79454494D01*
X152548815Y-79551185D01*
X152645506Y-79630537D01*
X152755820Y-79689502D01*
X152875518Y-79725812D01*
X153000000Y-79738072D01*
X153289250Y-79735000D01*
X153448000Y-79576250D01*
X153448000Y-78527000D01*
X152523750Y-78527000D01*
X152365000Y-78685750D01*
X152361928Y-79100000D01*
X152112264Y-79100000D01*
X152110000Y-78735750D01*
X151951250Y-78577000D01*
X151277000Y-78577000D01*
X151277000Y-78597000D01*
X151163072Y-78597000D01*
X151163072Y-77670000D01*
X151150812Y-77545518D01*
X151114502Y-77425820D01*
X151055537Y-77315506D01*
X151023176Y-77276074D01*
X151105500Y-77193750D01*
X151277000Y-77193750D01*
X151277000Y-78323000D01*
X151951250Y-78323000D01*
X152110000Y-78164250D01*
X152112885Y-77700000D01*
X152361928Y-77700000D01*
X152365000Y-78114250D01*
X152523750Y-78273000D01*
X153448000Y-78273000D01*
X153448000Y-77223750D01*
X153289250Y-77065000D01*
X153000000Y-77061928D01*
X152875518Y-77074188D01*
X152755820Y-77110498D01*
X152645506Y-77169463D01*
X152548815Y-77248815D01*
X152469463Y-77345506D01*
X152410498Y-77455820D01*
X152374188Y-77575518D01*
X152361928Y-77700000D01*
X152112885Y-77700000D01*
X152113072Y-77670000D01*
X152100812Y-77545518D01*
X152064502Y-77425820D01*
X152005537Y-77315506D01*
X151979725Y-77284054D01*
X152044180Y-77264502D01*
X152154494Y-77205537D01*
X152251185Y-77126185D01*
X152330537Y-77029494D01*
X152389502Y-76919180D01*
X152425812Y-76799482D01*
X152438072Y-76675000D01*
X152435000Y-76485750D01*
X152276250Y-76327000D01*
X151402000Y-76327000D01*
X151402000Y-77068750D01*
X151277000Y-77193750D01*
X151105500Y-77193750D01*
X151148000Y-77151250D01*
X151148000Y-76327000D01*
X151128000Y-76327000D01*
X151128000Y-76073000D01*
X151148000Y-76073000D01*
X151148000Y-75248750D01*
X151402000Y-75248750D01*
X151402000Y-76073000D01*
X152276250Y-76073000D01*
X152435000Y-75914250D01*
X152438072Y-75725000D01*
X152425812Y-75600518D01*
X152389502Y-75480820D01*
X152330537Y-75370506D01*
X152251185Y-75273815D01*
X152154494Y-75194463D01*
X152044180Y-75135498D01*
X151924482Y-75099188D01*
X151800000Y-75086928D01*
X151560750Y-75090000D01*
X151402000Y-75248750D01*
X151148000Y-75248750D01*
X150989250Y-75090000D01*
X150750000Y-75086928D01*
X150625518Y-75099188D01*
X150505820Y-75135498D01*
X150395506Y-75194463D01*
X150322839Y-75254099D01*
X150298942Y-75234488D01*
X150147567Y-75153577D01*
X149983316Y-75103752D01*
X149812500Y-75086928D01*
X149237500Y-75086928D01*
X149066684Y-75103752D01*
X148902433Y-75153577D01*
X148751058Y-75234488D01*
X148618377Y-75343377D01*
X148509488Y-75476058D01*
X148428577Y-75627433D01*
X148378752Y-75791684D01*
X148361928Y-75962500D01*
X148361928Y-76437500D01*
X148376948Y-76590000D01*
X148172964Y-76590000D01*
X148165512Y-76576058D01*
X148145901Y-76552161D01*
X148205537Y-76479494D01*
X148264502Y-76369180D01*
X148300812Y-76249482D01*
X148313072Y-76125000D01*
X148310000Y-75885750D01*
X148151250Y-75727000D01*
X147327000Y-75727000D01*
X147327000Y-75747000D01*
X147073000Y-75747000D01*
X147073000Y-75727000D01*
X147053000Y-75727000D01*
X147053000Y-75473000D01*
X147073000Y-75473000D01*
X147073000Y-74598750D01*
X147327000Y-74598750D01*
X147327000Y-75473000D01*
X148151250Y-75473000D01*
X148310000Y-75314250D01*
X148313072Y-75075000D01*
X148300812Y-74950518D01*
X148264502Y-74830820D01*
X148205537Y-74720506D01*
X148126185Y-74623815D01*
X148029494Y-74544463D01*
X147919180Y-74485498D01*
X147799482Y-74449188D01*
X147675000Y-74436928D01*
X147485750Y-74440000D01*
X147327000Y-74598750D01*
X147073000Y-74598750D01*
X146914250Y-74440000D01*
X146725000Y-74436928D01*
X146600518Y-74449188D01*
X146480820Y-74485498D01*
X146370506Y-74544463D01*
X146273815Y-74623815D01*
X146194463Y-74720506D01*
X146135498Y-74830820D01*
X146099188Y-74950518D01*
X146086928Y-75075000D01*
X146087342Y-75107210D01*
X146084999Y-75104868D01*
X146084999Y-71175000D01*
X151204249Y-71175000D01*
X151260000Y-71180491D01*
X151315751Y-71175000D01*
X151315752Y-71175000D01*
X151482499Y-71158577D01*
X151696447Y-71093676D01*
X151893623Y-70988284D01*
X152066449Y-70846449D01*
X152101996Y-70803135D01*
X152173896Y-70731235D01*
X152317102Y-70717130D01*
X152549901Y-70646511D01*
X152764449Y-70531833D01*
X152952502Y-70377502D01*
X153106833Y-70189449D01*
X153221511Y-69974901D01*
X153292130Y-69742102D01*
X153293909Y-69724041D01*
X154465001Y-70895134D01*
X154465000Y-74355751D01*
X154481423Y-74522498D01*
X154486928Y-74540645D01*
X154486928Y-74587500D01*
X154503752Y-74758316D01*
X154553577Y-74922567D01*
X154634488Y-75073942D01*
X154717425Y-75175000D01*
X154634488Y-75276058D01*
X154553577Y-75427433D01*
X154503752Y-75591684D01*
X154486928Y-75762500D01*
X154486928Y-75809355D01*
X154481423Y-75827502D01*
X154459509Y-76050000D01*
X154481423Y-76272498D01*
X154486928Y-76290645D01*
X154486928Y-76337500D01*
X154490001Y-76368699D01*
X154490001Y-77161716D01*
X154394180Y-77110498D01*
X154274482Y-77074188D01*
X154150000Y-77061928D01*
X153860750Y-77065000D01*
X153702000Y-77223750D01*
X153702000Y-78273000D01*
X153722000Y-78273000D01*
X153722000Y-78527000D01*
X153702000Y-78527000D01*
X153702000Y-79576250D01*
X153860750Y-79735000D01*
X154150000Y-79738072D01*
X154274482Y-79725812D01*
X154394180Y-79689502D01*
X154504494Y-79630537D01*
X154601185Y-79551185D01*
X154666658Y-79471406D01*
X154672038Y-79477962D01*
X154806613Y-79588405D01*
X154960149Y-79670472D01*
X155126745Y-79721008D01*
X155299999Y-79738072D01*
X155357940Y-79738072D01*
X155415000Y-79795132D01*
X155415000Y-81155751D01*
X155431423Y-81322498D01*
X155461928Y-81423059D01*
X155461928Y-81700000D01*
X155474188Y-81824482D01*
X155510498Y-81944180D01*
X155569463Y-82054494D01*
X155648815Y-82151185D01*
X155745506Y-82230537D01*
X155855820Y-82289502D01*
X155975518Y-82325812D01*
X156100000Y-82338072D01*
X157000000Y-82338072D01*
X157124482Y-82325812D01*
X157244180Y-82289502D01*
X157354494Y-82230537D01*
X157451185Y-82151185D01*
X157530537Y-82054494D01*
X157589502Y-81944180D01*
X157625812Y-81824482D01*
X157638072Y-81700000D01*
X157638072Y-81423060D01*
X157668577Y-81322499D01*
X157685000Y-81155752D01*
X157685000Y-79380752D01*
X157690491Y-79325000D01*
X157668577Y-79102501D01*
X157603676Y-78888553D01*
X157498284Y-78691377D01*
X157391989Y-78561856D01*
X157391987Y-78561854D01*
X157356449Y-78518551D01*
X157313145Y-78483013D01*
X156838072Y-78007940D01*
X156838072Y-77949999D01*
X156821008Y-77776745D01*
X156770472Y-77610149D01*
X156760000Y-77590557D01*
X156760000Y-76130741D01*
X156765490Y-76074999D01*
X156760000Y-76019258D01*
X156760000Y-76019248D01*
X156743577Y-75852501D01*
X156711532Y-75746864D01*
X156696248Y-75591684D01*
X156646423Y-75427433D01*
X156565512Y-75276058D01*
X156482575Y-75175000D01*
X156565512Y-75073942D01*
X156646423Y-74922567D01*
X156696248Y-74758316D01*
X156713072Y-74587500D01*
X156713072Y-74540646D01*
X156718577Y-74522499D01*
X156735000Y-74355752D01*
X156735000Y-70480752D01*
X156740491Y-70425000D01*
X156718577Y-70202501D01*
X156653676Y-69988553D01*
X156548284Y-69791377D01*
X156441989Y-69661856D01*
X156441987Y-69661854D01*
X156406449Y-69618551D01*
X156363146Y-69583013D01*
X153516996Y-66736865D01*
X153481449Y-66693551D01*
X153308623Y-66551716D01*
X153111447Y-66446324D01*
X152897499Y-66381423D01*
X152853907Y-66377130D01*
X152764851Y-66329528D01*
X152598255Y-66278992D01*
X152425001Y-66261928D01*
X151174999Y-66261928D01*
X151001745Y-66278992D01*
X150835149Y-66329528D01*
X150768786Y-66365000D01*
X145517683Y-66365000D01*
X145480537Y-66295506D01*
X145401185Y-66198815D01*
X145304494Y-66119463D01*
X145194180Y-66060498D01*
X145074482Y-66024188D01*
X144950000Y-66011928D01*
X143250000Y-66011928D01*
X143125518Y-66024188D01*
X143005820Y-66060498D01*
X142895506Y-66119463D01*
X142798815Y-66198815D01*
X142785532Y-66215000D01*
X139905751Y-66215000D01*
X139899009Y-66214336D01*
X139874450Y-66214336D01*
X139850000Y-66211928D01*
X139350000Y-66211928D01*
X139325550Y-66214336D01*
X139300991Y-66214336D01*
X139176510Y-66226596D01*
X139080377Y-66245718D01*
X138960681Y-66282027D01*
X138870125Y-66319536D01*
X138759808Y-66378502D01*
X138678309Y-66432958D01*
X138581618Y-66512310D01*
X138512310Y-66581618D01*
X138505431Y-66590000D01*
X138164802Y-66590000D01*
X137163804Y-65589003D01*
X137140001Y-65559999D01*
X137024276Y-65465026D01*
X136892247Y-65394454D01*
X136748986Y-65350997D01*
X136713355Y-65347488D01*
X136762582Y-65239942D01*
X136819642Y-64999404D01*
X136828680Y-64752355D01*
X136789347Y-64508291D01*
X136703156Y-64276590D01*
X136659691Y-64195274D01*
X136434072Y-64145533D01*
X135749605Y-64830000D01*
X135763748Y-64844143D01*
X135584143Y-65023748D01*
X135570000Y-65009605D01*
X135555858Y-65023748D01*
X135376253Y-64844143D01*
X135390395Y-64830000D01*
X134705928Y-64145533D01*
X134480309Y-64195274D01*
X134377418Y-64420058D01*
X134320358Y-64660596D01*
X134313612Y-64845000D01*
X134285291Y-64845000D01*
X134288680Y-64752355D01*
X134249347Y-64508291D01*
X134163156Y-64276590D01*
X134119691Y-64195274D01*
X133894072Y-64145533D01*
X133209605Y-64830000D01*
X133223748Y-64844143D01*
X133044143Y-65023748D01*
X133030000Y-65009605D01*
X132345533Y-65694072D01*
X132395274Y-65919691D01*
X132620058Y-66022582D01*
X132860596Y-66079642D01*
X133045000Y-66086388D01*
X133045000Y-66114709D01*
X132952355Y-66111320D01*
X132708291Y-66150653D01*
X132476590Y-66236844D01*
X132395274Y-66280309D01*
X132345533Y-66505928D01*
X133030000Y-67190395D01*
X133044143Y-67176253D01*
X133223748Y-67355858D01*
X133209605Y-67370000D01*
X133894072Y-68054467D01*
X134119691Y-68004726D01*
X134222582Y-67779942D01*
X134279642Y-67539404D01*
X134286388Y-67355000D01*
X134314709Y-67355000D01*
X134311320Y-67447645D01*
X134350653Y-67691709D01*
X134436844Y-67923410D01*
X134480309Y-68004726D01*
X134705928Y-68054467D01*
X135390395Y-67370000D01*
X135376253Y-67355858D01*
X135555858Y-67176253D01*
X135570000Y-67190395D01*
X135584143Y-67176253D01*
X135763748Y-67355858D01*
X135749605Y-67370000D01*
X136434072Y-68054467D01*
X136659691Y-68004726D01*
X136762582Y-67779942D01*
X136819642Y-67539404D01*
X136824758Y-67399560D01*
X137286201Y-67861003D01*
X137309999Y-67890001D01*
X137338997Y-67913799D01*
X137425723Y-67984974D01*
X137501575Y-68025518D01*
X137557753Y-68055546D01*
X137701014Y-68099003D01*
X137812667Y-68110000D01*
X137812677Y-68110000D01*
X137850000Y-68113676D01*
X137887323Y-68110000D01*
X138215868Y-68110000D01*
X138211928Y-68150000D01*
X138211928Y-68650000D01*
X138214336Y-68674450D01*
X138214336Y-68699009D01*
X138226596Y-68823490D01*
X138245718Y-68919623D01*
X138282027Y-69039319D01*
X138319536Y-69129875D01*
X138378502Y-69240192D01*
X138432958Y-69321691D01*
X138465000Y-69360735D01*
X138465001Y-70594239D01*
X138459509Y-70650000D01*
X138481423Y-70872498D01*
X138486928Y-70890645D01*
X138486928Y-70937500D01*
X138503752Y-71108316D01*
X138553577Y-71272567D01*
X138634488Y-71423942D01*
X138743377Y-71556623D01*
X138876058Y-71665512D01*
X139027433Y-71746423D01*
X139191684Y-71796248D01*
X139362500Y-71813072D01*
X139409355Y-71813072D01*
X139427502Y-71818577D01*
X139650000Y-71840491D01*
X139872499Y-71818577D01*
X139890646Y-71813072D01*
X139937500Y-71813072D01*
X140108316Y-71796248D01*
X140272567Y-71746423D01*
X140423942Y-71665512D01*
X140525000Y-71582575D01*
X140626058Y-71665512D01*
X140777433Y-71746423D01*
X140941684Y-71796248D01*
X141112500Y-71813072D01*
X141159354Y-71813072D01*
X141177501Y-71818577D01*
X141344248Y-71835000D01*
X143384249Y-71835000D01*
X143440000Y-71840491D01*
X143495751Y-71835000D01*
X143495752Y-71835000D01*
X143662499Y-71818577D01*
X143815000Y-71772316D01*
X143815000Y-72624999D01*
X142653732Y-72624999D01*
X142616399Y-72621322D01*
X142579066Y-72624999D01*
X142467413Y-72635996D01*
X142324152Y-72679453D01*
X142192123Y-72750025D01*
X142076398Y-72844998D01*
X142052600Y-72873997D01*
X141288998Y-73637599D01*
X141260000Y-73661397D01*
X141236202Y-73690395D01*
X141236201Y-73690396D01*
X141165026Y-73777122D01*
X141094454Y-73909152D01*
X141078780Y-73960825D01*
X140709605Y-74330000D01*
X140723748Y-74344143D01*
X140544143Y-74523748D01*
X140530000Y-74509605D01*
X139845533Y-75194072D01*
X139895274Y-75419691D01*
X140120058Y-75522582D01*
X140360596Y-75579642D01*
X140545000Y-75586388D01*
X140545000Y-75614709D01*
X140452355Y-75611320D01*
X140208291Y-75650653D01*
X139976590Y-75736844D01*
X139895274Y-75780309D01*
X139845533Y-76005928D01*
X140530000Y-76690395D01*
X140544143Y-76676253D01*
X140723748Y-76855858D01*
X140709605Y-76870000D01*
X141394072Y-77554467D01*
X141619691Y-77504726D01*
X141722582Y-77279942D01*
X141779642Y-77039404D01*
X141786388Y-76855000D01*
X141814709Y-76855000D01*
X141811320Y-76947645D01*
X141850653Y-77191709D01*
X141936844Y-77423410D01*
X141980309Y-77504726D01*
X142205928Y-77554467D01*
X142890395Y-76870000D01*
X142876253Y-76855858D01*
X143055858Y-76676253D01*
X143070000Y-76690395D01*
X143084143Y-76676253D01*
X143263748Y-76855858D01*
X143249605Y-76870000D01*
X143934072Y-77554467D01*
X144159691Y-77504726D01*
X144262582Y-77279942D01*
X144319642Y-77039404D01*
X144328680Y-76792355D01*
X144289347Y-76548291D01*
X144272280Y-76502411D01*
X144783572Y-77013704D01*
X143686865Y-78110412D01*
X143643551Y-78145959D01*
X143524611Y-78290888D01*
X143442246Y-78246862D01*
X143298985Y-78203405D01*
X143150000Y-78188731D01*
X143001014Y-78203405D01*
X142857753Y-78246862D01*
X142725724Y-78317434D01*
X142609999Y-78412407D01*
X142550838Y-78484496D01*
X142478309Y-78532958D01*
X142439266Y-78565000D01*
X141380752Y-78565000D01*
X141325000Y-78559509D01*
X141269249Y-78565000D01*
X141269248Y-78565000D01*
X141102501Y-78581423D01*
X140888553Y-78646324D01*
X140836061Y-78674381D01*
X140791684Y-78678752D01*
X140627433Y-78728577D01*
X140476058Y-78809488D01*
X140343377Y-78918377D01*
X140234488Y-79051058D01*
X140153577Y-79202433D01*
X140103752Y-79366684D01*
X140086928Y-79537500D01*
X140086928Y-79584355D01*
X140081423Y-79602502D01*
X140059509Y-79825000D01*
X140081423Y-80047498D01*
X140086928Y-80065645D01*
X140086928Y-80112500D01*
X140103752Y-80283316D01*
X140153577Y-80447567D01*
X140234488Y-80598942D01*
X140254099Y-80622839D01*
X140194463Y-80695506D01*
X140135498Y-80805820D01*
X140099188Y-80925518D01*
X140086928Y-81050000D01*
X140090000Y-81289250D01*
X140248750Y-81448000D01*
X141073000Y-81448000D01*
X141073000Y-81428000D01*
X141327000Y-81428000D01*
X141327000Y-81448000D01*
X142151250Y-81448000D01*
X142310000Y-81289250D01*
X142313072Y-81050000D01*
X142300812Y-80925518D01*
X142273354Y-80835000D01*
X142439266Y-80835000D01*
X142478309Y-80867042D01*
X142559808Y-80921498D01*
X142670125Y-80980464D01*
X142760681Y-81017973D01*
X142880377Y-81054282D01*
X142976510Y-81073404D01*
X143100991Y-81085664D01*
X143125550Y-81085664D01*
X143150000Y-81088072D01*
X143650000Y-81088072D01*
X143774482Y-81075812D01*
X143800000Y-81068071D01*
X143825518Y-81075812D01*
X143950000Y-81088072D01*
X144450000Y-81088072D01*
X144474450Y-81085664D01*
X144499009Y-81085664D01*
X144623490Y-81073404D01*
X144719623Y-81054282D01*
X144839319Y-81017973D01*
X144929875Y-80980464D01*
X145040192Y-80921498D01*
X145121691Y-80867042D01*
X145218382Y-80787690D01*
X145287690Y-80718382D01*
X145367042Y-80621691D01*
X145421498Y-80540192D01*
X145480464Y-80429875D01*
X145517973Y-80339319D01*
X145554282Y-80219623D01*
X145573404Y-80123490D01*
X145585664Y-79999009D01*
X145585664Y-79974450D01*
X145588072Y-79950000D01*
X145588072Y-79945251D01*
X145610498Y-80019180D01*
X145669463Y-80129494D01*
X145748815Y-80226185D01*
X145828594Y-80291658D01*
X145822038Y-80297038D01*
X145711595Y-80431613D01*
X145629528Y-80585149D01*
X145578992Y-80751745D01*
X145561928Y-80924999D01*
X145561928Y-81557940D01*
X143244869Y-83875000D01*
X137022621Y-83875000D01*
X136989502Y-83765820D01*
X136930537Y-83655506D01*
X136851185Y-83558815D01*
X136754494Y-83479463D01*
X136644180Y-83420498D01*
X136524482Y-83384188D01*
X136400000Y-83371928D01*
X133400000Y-83371928D01*
X133275518Y-83384188D01*
X133155820Y-83420498D01*
X133045506Y-83479463D01*
X132948815Y-83558815D01*
X132869463Y-83655506D01*
X132810498Y-83765820D01*
X132774188Y-83885518D01*
X132761928Y-84010000D01*
X132761928Y-86010000D01*
X132774188Y-86134482D01*
X132810498Y-86254180D01*
X132869463Y-86364494D01*
X132948815Y-86461185D01*
X133045506Y-86540537D01*
X133155820Y-86599502D01*
X133275518Y-86635812D01*
X133400000Y-86648072D01*
X136400000Y-86648072D01*
X136524482Y-86635812D01*
X136644180Y-86599502D01*
X136754494Y-86540537D01*
X136851185Y-86461185D01*
X136930537Y-86364494D01*
X136989502Y-86254180D01*
X137022621Y-86145000D01*
X143659249Y-86145000D01*
X143715000Y-86150491D01*
X143770751Y-86145000D01*
X147339869Y-86145000D01*
X147961928Y-86767060D01*
X147961928Y-89150000D01*
X147974188Y-89274482D01*
X147994063Y-89340000D01*
X129834142Y-89340000D01*
X129837394Y-88037740D01*
X131263156Y-86611979D01*
X131306448Y-86576450D01*
X131341977Y-86533158D01*
X131341989Y-86533146D01*
X131448284Y-86403625D01*
X131553676Y-86206449D01*
X131618577Y-85992501D01*
X131640491Y-85770002D01*
X131618577Y-85547503D01*
X131553676Y-85333555D01*
X131535000Y-85298614D01*
X131535000Y-82545751D01*
X131540491Y-82489999D01*
X131518577Y-82267501D01*
X131467766Y-82100000D01*
X140086928Y-82100000D01*
X140099188Y-82224482D01*
X140135498Y-82344180D01*
X140194463Y-82454494D01*
X140273815Y-82551185D01*
X140370506Y-82630537D01*
X140480820Y-82689502D01*
X140600518Y-82725812D01*
X140725000Y-82738072D01*
X140914250Y-82735000D01*
X141073000Y-82576250D01*
X141073000Y-81702000D01*
X141327000Y-81702000D01*
X141327000Y-82576250D01*
X141485750Y-82735000D01*
X141675000Y-82738072D01*
X141799482Y-82725812D01*
X141919180Y-82689502D01*
X142029494Y-82630537D01*
X142126185Y-82551185D01*
X142205537Y-82454494D01*
X142264502Y-82344180D01*
X142300812Y-82224482D01*
X142313072Y-82100000D01*
X142310000Y-81860750D01*
X142151250Y-81702000D01*
X141327000Y-81702000D01*
X141073000Y-81702000D01*
X140248750Y-81702000D01*
X140090000Y-81860750D01*
X140086928Y-82100000D01*
X131467766Y-82100000D01*
X131453676Y-82053553D01*
X131416297Y-81983622D01*
X131348284Y-81856377D01*
X131206449Y-81683551D01*
X131163141Y-81648009D01*
X129856610Y-80341479D01*
X129861482Y-78390000D01*
X132761928Y-78390000D01*
X132774188Y-78514482D01*
X132810498Y-78634180D01*
X132869463Y-78744494D01*
X132948815Y-78841185D01*
X133045506Y-78920537D01*
X133155820Y-78979502D01*
X133275518Y-79015812D01*
X133400000Y-79028072D01*
X134614250Y-79025000D01*
X134773000Y-78866250D01*
X134773000Y-77517000D01*
X135027000Y-77517000D01*
X135027000Y-78866250D01*
X135185750Y-79025000D01*
X136400000Y-79028072D01*
X136524482Y-79015812D01*
X136644180Y-78979502D01*
X136754494Y-78920537D01*
X136851185Y-78841185D01*
X136930537Y-78744494D01*
X136989502Y-78634180D01*
X137025812Y-78514482D01*
X137038072Y-78390000D01*
X137035251Y-77734072D01*
X139845533Y-77734072D01*
X139895274Y-77959691D01*
X140120058Y-78062582D01*
X140360596Y-78119642D01*
X140607645Y-78128680D01*
X140851709Y-78089347D01*
X141083410Y-78003156D01*
X141164726Y-77959691D01*
X141214467Y-77734072D01*
X142385533Y-77734072D01*
X142435274Y-77959691D01*
X142660058Y-78062582D01*
X142900596Y-78119642D01*
X143147645Y-78128680D01*
X143391709Y-78089347D01*
X143623410Y-78003156D01*
X143704726Y-77959691D01*
X143754467Y-77734072D01*
X143070000Y-77049605D01*
X142385533Y-77734072D01*
X141214467Y-77734072D01*
X140530000Y-77049605D01*
X139845533Y-77734072D01*
X137035251Y-77734072D01*
X137035000Y-77675750D01*
X136876250Y-77517000D01*
X135027000Y-77517000D01*
X134773000Y-77517000D01*
X132923750Y-77517000D01*
X132765000Y-77675750D01*
X132761928Y-78390000D01*
X129861482Y-78390000D01*
X129866475Y-76390000D01*
X132761928Y-76390000D01*
X132765000Y-77104250D01*
X132923750Y-77263000D01*
X134773000Y-77263000D01*
X134773000Y-75913750D01*
X135027000Y-75913750D01*
X135027000Y-77263000D01*
X136876250Y-77263000D01*
X137035000Y-77104250D01*
X137035673Y-76947645D01*
X139271320Y-76947645D01*
X139310653Y-77191709D01*
X139396844Y-77423410D01*
X139440309Y-77504726D01*
X139665928Y-77554467D01*
X140350395Y-76870000D01*
X139665928Y-76185533D01*
X139440309Y-76235274D01*
X139337418Y-76460058D01*
X139280358Y-76700596D01*
X139271320Y-76947645D01*
X137035673Y-76947645D01*
X137038072Y-76390000D01*
X137025812Y-76265518D01*
X136989502Y-76145820D01*
X136930537Y-76035506D01*
X136851185Y-75938815D01*
X136754494Y-75859463D01*
X136644180Y-75800498D01*
X136524482Y-75764188D01*
X136400000Y-75751928D01*
X135185750Y-75755000D01*
X135027000Y-75913750D01*
X134773000Y-75913750D01*
X134614250Y-75755000D01*
X133400000Y-75751928D01*
X133275518Y-75764188D01*
X133155820Y-75800498D01*
X133045506Y-75859463D01*
X132948815Y-75938815D01*
X132869463Y-76035506D01*
X132810498Y-76145820D01*
X132774188Y-76265518D01*
X132761928Y-76390000D01*
X129866475Y-76390000D01*
X129872300Y-74056891D01*
X133018519Y-74056891D01*
X133115843Y-74331252D01*
X133264822Y-74581355D01*
X133459731Y-74797588D01*
X133693080Y-74971641D01*
X133955901Y-75096825D01*
X134103110Y-75141476D01*
X134333000Y-75020155D01*
X134333000Y-73827000D01*
X133139186Y-73827000D01*
X133018519Y-74056891D01*
X129872300Y-74056891D01*
X129874082Y-73343109D01*
X133018519Y-73343109D01*
X133139186Y-73573000D01*
X134333000Y-73573000D01*
X134333000Y-72379845D01*
X134587000Y-72379845D01*
X134587000Y-73573000D01*
X134607000Y-73573000D01*
X134607000Y-73827000D01*
X134587000Y-73827000D01*
X134587000Y-75020155D01*
X134816890Y-75141476D01*
X134964099Y-75096825D01*
X135226920Y-74971641D01*
X135460269Y-74797588D01*
X135536034Y-74713534D01*
X135560498Y-74794180D01*
X135619463Y-74904494D01*
X135698815Y-75001185D01*
X135795506Y-75080537D01*
X135905820Y-75139502D01*
X136025518Y-75175812D01*
X136150000Y-75188072D01*
X137850000Y-75188072D01*
X137974482Y-75175812D01*
X138094180Y-75139502D01*
X138204494Y-75080537D01*
X138301185Y-75001185D01*
X138380537Y-74904494D01*
X138439502Y-74794180D01*
X138475812Y-74674482D01*
X138488072Y-74550000D01*
X138488072Y-74407645D01*
X139271320Y-74407645D01*
X139310653Y-74651709D01*
X139396844Y-74883410D01*
X139440309Y-74964726D01*
X139665928Y-75014467D01*
X140350395Y-74330000D01*
X139665928Y-73645533D01*
X139440309Y-73695274D01*
X139337418Y-73920058D01*
X139280358Y-74160596D01*
X139271320Y-74407645D01*
X138488072Y-74407645D01*
X138488072Y-73465928D01*
X139845533Y-73465928D01*
X140530000Y-74150395D01*
X141214467Y-73465928D01*
X141164726Y-73240309D01*
X140939942Y-73137418D01*
X140699404Y-73080358D01*
X140452355Y-73071320D01*
X140208291Y-73110653D01*
X139976590Y-73196844D01*
X139895274Y-73240309D01*
X139845533Y-73465928D01*
X138488072Y-73465928D01*
X138488072Y-72850000D01*
X138475812Y-72725518D01*
X138439502Y-72605820D01*
X138380537Y-72495506D01*
X138301185Y-72398815D01*
X138204494Y-72319463D01*
X138094180Y-72260498D01*
X137974482Y-72224188D01*
X137850000Y-72211928D01*
X136150000Y-72211928D01*
X136025518Y-72224188D01*
X135905820Y-72260498D01*
X135795506Y-72319463D01*
X135698815Y-72398815D01*
X135619463Y-72495506D01*
X135560498Y-72605820D01*
X135536034Y-72686466D01*
X135460269Y-72602412D01*
X135226920Y-72428359D01*
X134964099Y-72303175D01*
X134816890Y-72258524D01*
X134587000Y-72379845D01*
X134333000Y-72379845D01*
X134103110Y-72258524D01*
X133955901Y-72303175D01*
X133693080Y-72428359D01*
X133459731Y-72602412D01*
X133264822Y-72818645D01*
X133115843Y-73068748D01*
X133018519Y-73343109D01*
X129874082Y-73343109D01*
X129886840Y-68234072D01*
X132345533Y-68234072D01*
X132395274Y-68459691D01*
X132620058Y-68562582D01*
X132860596Y-68619642D01*
X133107645Y-68628680D01*
X133351709Y-68589347D01*
X133583410Y-68503156D01*
X133664726Y-68459691D01*
X133714467Y-68234072D01*
X134885533Y-68234072D01*
X134935274Y-68459691D01*
X135160058Y-68562582D01*
X135400596Y-68619642D01*
X135647645Y-68628680D01*
X135891709Y-68589347D01*
X136123410Y-68503156D01*
X136204726Y-68459691D01*
X136254467Y-68234072D01*
X135570000Y-67549605D01*
X134885533Y-68234072D01*
X133714467Y-68234072D01*
X133030000Y-67549605D01*
X132345533Y-68234072D01*
X129886840Y-68234072D01*
X129888804Y-67447645D01*
X131771320Y-67447645D01*
X131810653Y-67691709D01*
X131896844Y-67923410D01*
X131940309Y-68004726D01*
X132165928Y-68054467D01*
X132850395Y-67370000D01*
X132165928Y-66685533D01*
X131940309Y-66735274D01*
X131837418Y-66960058D01*
X131780358Y-67200596D01*
X131771320Y-67447645D01*
X129888804Y-67447645D01*
X129895146Y-64907645D01*
X131771320Y-64907645D01*
X131810653Y-65151709D01*
X131896844Y-65383410D01*
X131940309Y-65464726D01*
X132165928Y-65514467D01*
X132850395Y-64830000D01*
X132165928Y-64145533D01*
X131940309Y-64195274D01*
X131837418Y-64420058D01*
X131780358Y-64660596D01*
X131771320Y-64907645D01*
X129895146Y-64907645D01*
X129897497Y-63965928D01*
X132345533Y-63965928D01*
X133030000Y-64650395D01*
X133714467Y-63965928D01*
X134885533Y-63965928D01*
X135570000Y-64650395D01*
X136254467Y-63965928D01*
X136204726Y-63740309D01*
X135979942Y-63637418D01*
X135739404Y-63580358D01*
X135492355Y-63571320D01*
X135248291Y-63610653D01*
X135016590Y-63696844D01*
X134935274Y-63740309D01*
X134885533Y-63965928D01*
X133714467Y-63965928D01*
X133664726Y-63740309D01*
X133439942Y-63637418D01*
X133199404Y-63580358D01*
X132952355Y-63571320D01*
X132708291Y-63610653D01*
X132476590Y-63696844D01*
X132395274Y-63740309D01*
X132345533Y-63965928D01*
X129897497Y-63965928D01*
X129918237Y-55660000D01*
X159340000Y-55660000D01*
X159340001Y-89340000D01*
G36*
X148286928Y-79230000D02*
G01*
X148299188Y-79354482D01*
X148335498Y-79474180D01*
X148394463Y-79584494D01*
X148473815Y-79681185D01*
X148570506Y-79760537D01*
X148644335Y-79800000D01*
X148570506Y-79839463D01*
X148473815Y-79918815D01*
X148394463Y-80015506D01*
X148341282Y-80115000D01*
X148138284Y-80115000D01*
X148189502Y-80019180D01*
X148225812Y-79899482D01*
X148238072Y-79775000D01*
X148235000Y-79485750D01*
X148076250Y-79327000D01*
X147027000Y-79327000D01*
X147027000Y-79347000D01*
X146773000Y-79347000D01*
X146773000Y-79327000D01*
X146753000Y-79327000D01*
X146753000Y-79073000D01*
X146773000Y-79073000D01*
X146773000Y-79053000D01*
X147027000Y-79053000D01*
X147027000Y-79073000D01*
X148076250Y-79073000D01*
X148235000Y-78914250D01*
X148238072Y-78625000D01*
X148225812Y-78500518D01*
X148189502Y-78380820D01*
X148130537Y-78270506D01*
X148087883Y-78218532D01*
X148165512Y-78123942D01*
X148172964Y-78110000D01*
X148286928Y-78110000D01*
X148286928Y-79230000D01*
G37*
X148286928Y-79230000D02*
X148299188Y-79354482D01*
X148335498Y-79474180D01*
X148394463Y-79584494D01*
X148473815Y-79681185D01*
X148570506Y-79760537D01*
X148644335Y-79800000D01*
X148570506Y-79839463D01*
X148473815Y-79918815D01*
X148394463Y-80015506D01*
X148341282Y-80115000D01*
X148138284Y-80115000D01*
X148189502Y-80019180D01*
X148225812Y-79899482D01*
X148238072Y-79775000D01*
X148235000Y-79485750D01*
X148076250Y-79327000D01*
X147027000Y-79327000D01*
X147027000Y-79347000D01*
X146773000Y-79347000D01*
X146773000Y-79327000D01*
X146753000Y-79327000D01*
X146753000Y-79073000D01*
X146773000Y-79073000D01*
X146773000Y-79053000D01*
X147027000Y-79053000D01*
X147027000Y-79073000D01*
X148076250Y-79073000D01*
X148235000Y-78914250D01*
X148238072Y-78625000D01*
X148225812Y-78500518D01*
X148189502Y-78380820D01*
X148130537Y-78270506D01*
X148087883Y-78218532D01*
X148165512Y-78123942D01*
X148172964Y-78110000D01*
X148286928Y-78110000D01*
X148286928Y-79230000D01*
G36*
X151302678Y-79731928D02*
G01*
X151277002Y-79731928D01*
X151277002Y-79706252D01*
X151302678Y-79731928D01*
G37*
X151302678Y-79731928D02*
X151277002Y-79731928D01*
X151277002Y-79706252D01*
X151302678Y-79731928D01*
G36*
X143070000Y-74150395D02*
G01*
X143075396Y-74144999D01*
X143092889Y-74144999D01*
X143263748Y-74315858D01*
X143249605Y-74330000D01*
X143263748Y-74344143D01*
X143084143Y-74523748D01*
X143070000Y-74509605D01*
X143055858Y-74523748D01*
X142876253Y-74344143D01*
X142890395Y-74330000D01*
X142876253Y-74315858D01*
X143047111Y-74144999D01*
X143064604Y-74144999D01*
X143070000Y-74150395D01*
G37*
X143070000Y-74150395D02*
X143075396Y-74144999D01*
X143092889Y-74144999D01*
X143263748Y-74315858D01*
X143249605Y-74330000D01*
X143263748Y-74344143D01*
X143084143Y-74523748D01*
X143070000Y-74509605D01*
X143055858Y-74523748D01*
X142876253Y-74344143D01*
X142890395Y-74330000D01*
X142876253Y-74315858D01*
X143047111Y-74144999D01*
X143064604Y-74144999D01*
X143070000Y-74150395D01*
M02*
